<?xml version="1.0" encoding="UTF-8" standalone="no"?>
<!DOCTYPE svg PUBLIC "-//W3C//DTD SVG 1.1//EN"
 "http://www.w3.org/Graphics/SVG/1.1/DTD/svg11.dtd">
<!-- Generated by graphviz version 2.43.0 (0)
 -->
<!-- Title: src/Vehicle/Actuators/ActuatorActions.h Pages: 1 -->
<!--zoomable 258 -->

<svg id="main" version="1.1" xmlns="http://www.w3.org/2000/svg" xmlns:xlink="http://www.w3.org/1999/xlink" xml:space="preserve" onload="init(evt)">
<style type="text/css"><![CDATA[
.node, .edge {opacity: 0.7;}
.node.selected, .edge.selected {opacity: 1;}
.edge:hover path { stroke: red; }
.edge:hover polygon { stroke: red; fill: red; }
]]></style>

<defs>
  <circle id="rim" cx="0" cy="0" r="7"/>
  <circle id="rim2" cx="0" cy="0" r="3.5"/>
  <g id="zoomPlus">
    <use xlink:href="#rim" fill="#404040"><set attributeName="fill" to="#808080" begin="zoomplus.mouseover" end="zoomplus.mouseout"/></use>
    <path d="M-4,0h8M0,-4v8" fill="none" stroke="white" stroke-width="1.5" pointer-events="none"/>
  </g>
  <g id="zoomMin">
    <use xlink:href="#rim" fill="#404040"><set attributeName="fill" to="#808080" begin="zoomminus.mouseover" end="zoomminus.mouseout"/></use>
    <path d="M-4,0h8" fill="none" stroke="white" stroke-width="1.5" pointer-events="none"/>
  </g>
  <g id="arrowUp" transform="translate(30 24)">
    <use xlink:href="#rim"/>
    <path pointer-events="none" fill="none" stroke="white" stroke-width="1.5" d="M0,-3.0v7 M-2.5,-0.5L0,-3.0L2.5,-0.5"/>
  </g>
  <g id="arrowRight" transform="rotate(90) translate(36 -43)">
    <use xlink:href="#rim"/>
    <path pointer-events="none" fill="none" stroke="white" stroke-width="1.5" d="M0,-3.0v7 M-2.5,-0.5L0,-3.0L2.5,-0.5"/>
  </g>
  <g id="arrowDown" transform="rotate(180) translate(-30 -48)">
    <use xlink:href="#rim"/>
    <path pointer-events="none" fill="none" stroke="white" stroke-width="1.5" d="M0,-3.0v7 M-2.5,-0.5L0,-3.0L2.5,-0.5"/>
  </g>
  <g id="arrowLeft" transform="rotate(270) translate(-36 17)">
    <use xlink:href="#rim"/>
    <path pointer-events="none" fill="none" stroke="white" stroke-width="1.5" d="M0,-3.0v7 M-2.5,-0.5L0,-3.0L2.5,-0.5"/>
  </g>
  <g id="resetDef">
    <use xlink:href="#rim2" fill="#404040"><set attributeName="fill" to="#808080" begin="reset.mouseover" end="reset.mouseout"/></use>
  </g>
</defs>
<script type="application/ecmascript">
var viewWidth = 1233;
var viewHeight = 258;
var sectionId = 'dynsection-0';
</script>
<script type="application/ecmascript" xlink:href="svg.min.js"/>
<svg id="graph" class="graph">
<g id="viewport">
<title>src/Vehicle/Actuators/ActuatorActions.h</title>
<!-- Node1 -->
<g id="Node000001" class="node">
<title>Node1</title>
<g id="a_Node000001"><a xlink:title=" ">
<polygon fill="#999999" stroke="#666666" points="823,-250 704,-250 704,-220 823,-220 823,-250"/>
<text text-anchor="start" x="712" y="-238" font-family="Helvetica,sans-Serif" font-size="10.00">src/Vehicle/Actuators</text>
<text text-anchor="middle" x="763.5" y="-227" font-family="Helvetica,sans-Serif" font-size="10.00">/ActuatorActions.h</text>
</a>
</g>
</g>
<!-- Node2 -->
<g id="Node000002" class="node">
<title>Node2</title>
<g id="a_Node000002"><a xlink:href="Common_8h.html" target="_top" xlink:title=" ">
<polygon fill="white" stroke="#666666" points="289.5,-184 219.5,-184 219.5,-165 289.5,-165 289.5,-184"/>
<text text-anchor="middle" x="254.5" y="-172" font-family="Helvetica,sans-Serif" font-size="10.00">Common.h</text>
</a>
</g>
</g>
<!-- Node1&#45;&gt;Node2 -->
<g id="edge1_Node000001_Node000002" class="edge">
<title>Node1&#45;&gt;Node2</title>
<g id="a_edge1_Node000001_Node000002"><a xlink:title=" ">
<path fill="none" stroke="#63b8ff" d="M703.86,-227.15C600.86,-215.31 391.82,-191.28 299.76,-180.7"/>
<polygon fill="#63b8ff" stroke="#63b8ff" points="299.98,-177.2 289.65,-179.54 299.18,-184.16 299.98,-177.2"/>
</a>
</g>
</g>
<!-- Node5 -->
<g id="Node000005" class="node">
<title>Node5</title>
<g id="a_Node000005"><a xlink:title=" ">
<polygon fill="#e0e0e0" stroke="#999999" points="558.5,-19 466.5,-19 466.5,0 558.5,0 558.5,-19"/>
<text text-anchor="middle" x="512.5" y="-7" font-family="Helvetica,sans-Serif" font-size="10.00">QtCore/QObject</text>
</a>
</g>
</g>
<!-- Node1&#45;&gt;Node5 -->
<g id="edge32_Node000001_Node000005" class="edge">
<title>Node1&#45;&gt;Node5</title>
<g id="a_edge32_Node000001_Node000005"><a xlink:title=" ">
<path fill="none" stroke="#63b8ff" d="M715.82,-219.91C693.33,-211.75 667,-199.91 646.5,-184 589.41,-139.69 591.84,-112.07 547.5,-55 540.25,-45.67 532.09,-35.29 525.47,-26.9"/>
<polygon fill="#63b8ff" stroke="#63b8ff" points="528.18,-24.69 519.24,-19.01 522.69,-29.02 528.18,-24.69"/>
</a>
</g>
</g>
<!-- Node7 -->
<g id="Node000007" class="node">
<title>Node7</title>
<g id="a_Node000007"><a xlink:title=" ">
<polygon fill="#e0e0e0" stroke="#999999" points="89,-19 0,-19 0,0 89,0 89,-19"/>
<text text-anchor="middle" x="44.5" y="-7" font-family="Helvetica,sans-Serif" font-size="10.00">QtCore/QString</text>
</a>
</g>
</g>
<!-- Node1&#45;&gt;Node7 -->
<g id="edge33_Node000001_Node000007" class="edge">
<title>Node1&#45;&gt;Node7</title>
<g id="a_edge33_Node000001_Node000007"><a xlink:title=" ">
<path fill="none" stroke="#63b8ff" d="M703.82,-233.52C601.62,-231.61 387.02,-222.84 210.5,-184 139.52,-168.38 105.88,-182.33 56.5,-129 31.41,-101.91 35.48,-54.95 40.24,-29.03"/>
<polygon fill="#63b8ff" stroke="#63b8ff" points="43.71,-29.53 42.31,-19.03 36.86,-28.12 43.71,-29.53"/>
</a>
</g>
</g>
<!-- Node14 -->
<g id="Node000014" class="node">
<title>Node14</title>
<g id="a_Node000014"><a xlink:href="VehicleTypes_8h.html" target="_top" xlink:title=" ">
<polygon fill="white" stroke="#666666" points="927,-184 838,-184 838,-165 927,-165 927,-184"/>
<text text-anchor="middle" x="882.5" y="-172" font-family="Helvetica,sans-Serif" font-size="10.00">VehicleTypes.h</text>
</a>
</g>
</g>
<!-- Node1&#45;&gt;Node14 -->
<g id="edge18_Node000001_Node000014" class="edge">
<title>Node1&#45;&gt;Node14</title>
<g id="a_edge18_Node000001_Node000014"><a xlink:title=" ">
<path fill="none" stroke="#63b8ff" d="M792,-219.99C811.41,-210.45 836.93,-197.9 855.92,-188.57"/>
<polygon fill="#63b8ff" stroke="#63b8ff" points="857.5,-191.69 864.93,-184.14 854.41,-185.41 857.5,-191.69"/>
</a>
</g>
</g>
<!-- Node15 -->
<g id="Node000015" class="node">
<title>Node15</title>
<g id="a_Node000015"><a xlink:title=" ">
<polygon fill="#e0e0e0" stroke="#999999" points="902,-129 801,-129 801,-110 902,-110 902,-129"/>
<text text-anchor="middle" x="851.5" y="-117" font-family="Helvetica,sans-Serif" font-size="10.00">MAVLinkEnums.h</text>
</a>
</g>
</g>
<!-- Node1&#45;&gt;Node15 -->
<g id="edge25_Node000001_Node000015" class="edge">
<title>Node1&#45;&gt;Node15</title>
<g id="a_edge25_Node000001_Node000015"><a xlink:title=" ">
<path fill="none" stroke="#63b8ff" d="M774.65,-219.63C790.9,-198.65 821.07,-159.75 838.38,-137.42"/>
<polygon fill="#63b8ff" stroke="#63b8ff" points="841.37,-139.28 844.73,-129.23 835.84,-134.99 841.37,-139.28"/>
</a>
</g>
</g>
<!-- Node16 -->
<g id="Node000016" class="node">
<title>Node16</title>
<g id="a_Node000016"><a xlink:href="QGCMAVLinkTypes_8h.html" target="_top" xlink:title=" ">
<polygon fill="white" stroke="#666666" points="1037,-129 920,-129 920,-110 1037,-110 1037,-129"/>
<text text-anchor="middle" x="978.5" y="-117" font-family="Helvetica,sans-Serif" font-size="10.00">QGCMAVLinkTypes.h</text>
</a>
</g>
</g>
<!-- Node1&#45;&gt;Node16 -->
<g id="edge26_Node000001_Node000016" class="edge">
<title>Node1&#45;&gt;Node16</title>
<g id="a_edge26_Node000001_Node000016"><a xlink:title=" ">
<path fill="none" stroke="#63b8ff" d="M823.33,-226.95C858.64,-220.41 902.69,-207.88 935.5,-184 951.44,-172.4 963.32,-152.98 970.51,-138.66"/>
<polygon fill="#63b8ff" stroke="#63b8ff" points="973.82,-139.86 974.91,-129.32 967.48,-136.88 973.82,-139.86"/>
</a>
</g>
</g>
<!-- Node18 -->
<g id="Node000018" class="node">
<title>Node18</title>
<g id="a_Node000018"><a xlink:href="MAVLinkMessageType_8h.html" target="_top" xlink:title=" ">
<polygon fill="white" stroke="#666666" points="1148.5,-184 1014.5,-184 1014.5,-165 1148.5,-165 1148.5,-184"/>
<text text-anchor="middle" x="1081.5" y="-172" font-family="Helvetica,sans-Serif" font-size="10.00">MAVLinkMessageType.h</text>
</a>
</g>
</g>
<!-- Node1&#45;&gt;Node18 -->
<g id="edge22_Node000001_Node000018" class="edge">
<title>Node1&#45;&gt;Node18</title>
<g id="a_edge22_Node000001_Node000018"><a xlink:title=" ">
<path fill="none" stroke="#63b8ff" d="M823.31,-223C881.19,-212.35 968.26,-196.33 1024.99,-185.9"/>
<polygon fill="#63b8ff" stroke="#63b8ff" points="1025.67,-189.33 1034.87,-184.08 1024.4,-182.45 1025.67,-189.33"/>
</a>
</g>
</g>
<!-- Node21 -->
<g id="Node000021" class="node">
<title>Node21</title>
<g id="a_Node000021"><a xlink:href="QmlObjectListModel_8h.html" target="_top" xlink:title=" ">
<polygon fill="white" stroke="#666666" points="781,-184 656,-184 656,-165 781,-165 781,-184"/>
<text text-anchor="middle" x="718.5" y="-172" font-family="Helvetica,sans-Serif" font-size="10.00">QmlObjectListModel.h</text>
</a>
</g>
</g>
<!-- Node1&#45;&gt;Node21 -->
<g id="edge27_Node000001_Node000021" class="edge">
<title>Node1&#45;&gt;Node21</title>
<g id="a_edge27_Node000001_Node000021"><a xlink:title=" ">
<path fill="none" stroke="#63b8ff" d="M752.61,-219.84C746.21,-211.52 738.08,-200.96 731.37,-192.23"/>
<polygon fill="#63b8ff" stroke="#63b8ff" points="734.11,-190.06 725.24,-184.27 728.57,-194.33 734.11,-190.06"/>
</a>
</g>
</g>
<!-- Node3 -->
<g id="Node000003" class="node">
<title>Node3</title>
<g id="a_Node000003"><a xlink:href="Fact_8h.html" target="_top" xlink:title=" ">
<polygon fill="white" stroke="#666666" points="372,-129 327,-129 327,-110 372,-110 372,-129"/>
<text text-anchor="middle" x="349.5" y="-117" font-family="Helvetica,sans-Serif" font-size="10.00">Fact.h</text>
</a>
</g>
</g>
<!-- Node2&#45;&gt;Node3 -->
<g id="edge2_Node000002_Node000003" class="edge">
<title>Node2&#45;&gt;Node3</title>
<g id="a_edge2_Node000002_Node000003"><a xlink:title=" ">
<path fill="none" stroke="#63b8ff" d="M269.76,-164.98C284.63,-156.69 307.48,-143.94 324.92,-134.22"/>
<polygon fill="#63b8ff" stroke="#63b8ff" points="326.93,-137.1 333.96,-129.17 323.52,-130.99 326.93,-137.1"/>
</a>
</g>
</g>
<!-- Node2&#45;&gt;Node7 -->
<g id="edge15_Node000002_Node000007" class="edge">
<title>Node2&#45;&gt;Node7</title>
<g id="a_edge15_Node000002_Node000007"><a xlink:title=" ">
<path fill="none" stroke="#63b8ff" d="M219.21,-169.19C172.52,-162.78 93.74,-149.26 73.5,-129 46.77,-102.24 43.22,-55.15 43.52,-29.12"/>
<polygon fill="#63b8ff" stroke="#63b8ff" points="47.02,-29.19 43.84,-19.08 40.02,-28.96 47.02,-29.19"/>
</a>
</g>
</g>
<!-- Node12 -->
<g id="Node000012" class="node">
<title>Node12</title>
<g id="a_Node000012"><a xlink:title=" ">
<polygon fill="#e0e0e0" stroke="#999999" points="308.5,-129 200.5,-129 200.5,-110 308.5,-110 308.5,-129"/>
<text text-anchor="middle" x="254.5" y="-117" font-family="Helvetica,sans-Serif" font-size="10.00">QtCore/QJsonValue</text>
</a>
</g>
</g>
<!-- Node2&#45;&gt;Node12 -->
<g id="edge16_Node000002_Node000012" class="edge">
<title>Node2&#45;&gt;Node12</title>
<g id="a_edge16_Node000002_Node000012"><a xlink:title=" ">
<path fill="none" stroke="#63b8ff" d="M254.5,-164.75C254.5,-157.8 254.5,-147.85 254.5,-139.13"/>
<polygon fill="#63b8ff" stroke="#63b8ff" points="258,-139.09 254.5,-129.09 251,-139.09 258,-139.09"/>
</a>
</g>
</g>
<!-- Node13 -->
<g id="Node000013" class="node">
<title>Node13</title>
<g id="a_Node000013"><a xlink:title=" ">
<polygon fill="#e0e0e0" stroke="#999999" points="182,-129 83,-129 83,-110 182,-110 182,-129"/>
<text text-anchor="middle" x="132.5" y="-117" font-family="Helvetica,sans-Serif" font-size="10.00">QtGui/QVector3D</text>
</a>
</g>
</g>
<!-- Node2&#45;&gt;Node13 -->
<g id="edge17_Node000002_Node000013" class="edge">
<title>Node2&#45;&gt;Node13</title>
<g id="a_edge17_Node000002_Node000013"><a xlink:title=" ">
<path fill="none" stroke="#63b8ff" d="M234.9,-164.98C215.18,-156.42 184.55,-143.11 161.92,-133.28"/>
<polygon fill="#63b8ff" stroke="#63b8ff" points="163.02,-129.94 152.46,-129.17 160.24,-136.37 163.02,-129.94"/>
</a>
</g>
</g>
<!-- Node4 -->
<g id="Node000004" class="node">
<title>Node4</title>
<g id="a_Node000004"><a xlink:title=" ">
<polygon fill="#e0e0e0" stroke="#999999" points="411,-74 288,-74 288,-55 411,-55 411,-74"/>
<text text-anchor="middle" x="349.5" y="-62" font-family="Helvetica,sans-Serif" font-size="10.00">QtCore/QMutexLocker</text>
</a>
</g>
</g>
<!-- Node3&#45;&gt;Node4 -->
<g id="edge3_Node000003_Node000004" class="edge">
<title>Node3&#45;&gt;Node4</title>
<g id="a_edge3_Node000003_Node000004"><a xlink:title=" ">
<path fill="none" stroke="#63b8ff" d="M349.5,-109.75C349.5,-102.8 349.5,-92.85 349.5,-84.13"/>
<polygon fill="#63b8ff" stroke="#63b8ff" points="353,-84.09 349.5,-74.09 346,-84.09 353,-84.09"/>
</a>
</g>
</g>
<!-- Node3&#45;&gt;Node5 -->
<g id="edge4_Node000003_Node000005" class="edge">
<title>Node3&#45;&gt;Node5</title>
<g id="a_edge4_Node000003_Node000005"><a xlink:title=" ">
<path fill="none" stroke="#63b8ff" d="M372.12,-116.35C416.2,-111.65 511.03,-98.83 530.5,-74 540.95,-60.66 533.32,-41.55 525.02,-27.78"/>
<polygon fill="#63b8ff" stroke="#63b8ff" points="527.8,-25.65 519.37,-19.24 521.96,-29.51 527.8,-25.65"/>
</a>
</g>
</g>
<!-- Node6 -->
<g id="Node000006" class="node">
<title>Node6</title>
<g id="a_Node000006"><a xlink:title=" ">
<polygon fill="#e0e0e0" stroke="#999999" points="269.5,-74 129.5,-74 129.5,-55 269.5,-55 269.5,-74"/>
<text text-anchor="middle" x="199.5" y="-62" font-family="Helvetica,sans-Serif" font-size="10.00">QtCore/QRecursiveMutex</text>
</a>
</g>
</g>
<!-- Node3&#45;&gt;Node6 -->
<g id="edge5_Node000003_Node000006" class="edge">
<title>Node3&#45;&gt;Node6</title>
<g id="a_edge5_Node000003_Node000006"><a xlink:title=" ">
<path fill="none" stroke="#63b8ff" d="M326.72,-110.45C301.87,-101.67 261.82,-87.52 233.31,-77.44"/>
<polygon fill="#63b8ff" stroke="#63b8ff" points="234.34,-74.1 223.74,-74.07 232,-80.7 234.34,-74.1"/>
</a>
</g>
</g>
<!-- Node3&#45;&gt;Node7 -->
<g id="edge6_Node000003_Node000007" class="edge">
<title>Node3&#45;&gt;Node7</title>
<g id="a_edge6_Node000003_Node000007"><a xlink:title=" ">
<path fill="none" stroke="#63b8ff" d="M326.83,-112.22C323.71,-111.43 320.53,-110.66 317.5,-110 226.29,-89.99 193.79,-116.22 110.5,-74 88.65,-62.93 69.2,-42.19 57.17,-27.43"/>
<polygon fill="#63b8ff" stroke="#63b8ff" points="59.61,-24.86 50.69,-19.15 54.1,-29.18 59.61,-24.86"/>
</a>
</g>
</g>
<!-- Node8 -->
<g id="Node000008" class="node">
<title>Node8</title>
<g id="a_Node000008"><a xlink:title=" ">
<polygon fill="#e0e0e0" stroke="#999999" points="292,-19 197,-19 197,0 292,0 292,-19"/>
<text text-anchor="middle" x="244.5" y="-7" font-family="Helvetica,sans-Serif" font-size="10.00">QtCore/QVariant</text>
</a>
</g>
</g>
<!-- Node3&#45;&gt;Node8 -->
<g id="edge7_Node000003_Node000008" class="edge">
<title>Node3&#45;&gt;Node8</title>
<g id="a_edge7_Node000003_Node000008"><a xlink:title=" ">
<path fill="none" stroke="#63b8ff" d="M326.83,-112.24C323.7,-111.45 320.53,-110.68 317.5,-110 274.07,-100.28 149,-108.18 120.5,-74 97.15,-46 144.3,-28.95 187.02,-19.67"/>
<polygon fill="#63b8ff" stroke="#63b8ff" points="187.8,-23.09 196.89,-17.64 186.39,-16.23 187.8,-23.09"/>
</a>
</g>
</g>
<!-- Node9 -->
<g id="Node000009" class="node">
<title>Node9</title>
<g id="a_Node000009"><a xlink:title=" ">
<polygon fill="#e0e0e0" stroke="#999999" points="766,-19 577,-19 577,0 766,0 766,-19"/>
<text text-anchor="middle" x="671.5" y="-7" font-family="Helvetica,sans-Serif" font-size="10.00">QtQmlIntegration/QtQmlIntegration</text>
</a>
</g>
</g>
<!-- Node3&#45;&gt;Node9 -->
<g id="edge8_Node000003_Node000009" class="edge">
<title>Node3&#45;&gt;Node9</title>
<g id="a_edge8_Node000003_Node000009"><a xlink:title=" ">
<path fill="none" stroke="#63b8ff" d="M372.3,-115.29C409.69,-109.61 486.04,-96.24 547.5,-74 584.44,-60.63 624.43,-38.66 648.72,-24.39"/>
<polygon fill="#63b8ff" stroke="#63b8ff" points="650.72,-27.27 657.52,-19.15 647.14,-21.26 650.72,-27.27"/>
</a>
</g>
</g>
<!-- Node10 -->
<g id="Node000010" class="node">
<title>Node10</title>
<g id="a_Node000010"><a xlink:href="FactMetaData_8h.html" target="_top" xlink:title=" ">
<polygon fill="white" stroke="#666666" points="522,-74 429,-74 429,-55 522,-55 522,-74"/>
<text text-anchor="middle" x="475.5" y="-62" font-family="Helvetica,sans-Serif" font-size="10.00">FactMetaData.h</text>
</a>
</g>
</g>
<!-- Node3&#45;&gt;Node10 -->
<g id="edge9_Node000003_Node000010" class="edge">
<title>Node3&#45;&gt;Node10</title>
<g id="a_edge9_Node000003_Node000010"><a xlink:title=" ">
<path fill="none" stroke="#63b8ff" d="M369.74,-109.98C390.2,-101.38 422.03,-87.99 445.43,-78.15"/>
<polygon fill="#63b8ff" stroke="#63b8ff" points="447.03,-81.27 454.89,-74.17 444.31,-74.82 447.03,-81.27"/>
</a>
</g>
</g>
<!-- Node10&#45;&gt;Node5 -->
<g id="edge11_Node000010_Node000005" class="edge">
<title>Node10&#45;&gt;Node5</title>
<g id="a_edge11_Node000010_Node000005"><a xlink:title=" ">
<path fill="none" stroke="#63b8ff" d="M481.61,-54.75C486.78,-47.34 494.35,-36.5 500.69,-27.41"/>
<polygon fill="#63b8ff" stroke="#63b8ff" points="503.65,-29.29 506.5,-19.09 497.91,-25.29 503.65,-29.29"/>
</a>
</g>
</g>
<!-- Node10&#45;&gt;Node7 -->
<g id="edge12_Node000010_Node000007" class="edge">
<title>Node10&#45;&gt;Node7</title>
<g id="a_edge12_Node000010_Node000007"><a xlink:title=" ">
<path fill="none" stroke="#63b8ff" d="M428.77,-56.29C425.63,-55.84 422.52,-55.41 419.5,-55 305.87,-39.64 172.47,-24.5 99.35,-16.44"/>
<polygon fill="#63b8ff" stroke="#63b8ff" points="99.33,-12.92 89.01,-15.31 98.57,-19.88 99.33,-12.92"/>
</a>
</g>
</g>
<!-- Node10&#45;&gt;Node8 -->
<g id="edge13_Node000010_Node000008" class="edge">
<title>Node10&#45;&gt;Node8</title>
<g id="a_edge13_Node000010_Node000008"><a xlink:title=" ">
<path fill="none" stroke="#63b8ff" d="M438.39,-54.98C398.51,-45.84 335.04,-31.27 291.66,-21.32"/>
<polygon fill="#63b8ff" stroke="#63b8ff" points="292.43,-17.91 281.91,-19.08 290.87,-24.73 292.43,-17.91"/>
</a>
</g>
</g>
<!-- Node10&#45;&gt;Node9 -->
<g id="edge14_Node000010_Node000009" class="edge">
<title>Node10&#45;&gt;Node9</title>
<g id="a_edge14_Node000010_Node000009"><a xlink:title=" ">
<path fill="none" stroke="#63b8ff" d="M506.99,-54.98C540.32,-45.97 593.1,-31.7 629.85,-21.76"/>
<polygon fill="#63b8ff" stroke="#63b8ff" points="631.02,-25.07 639.76,-19.08 629.2,-18.31 631.02,-25.07"/>
</a>
</g>
</g>
<!-- Node11 -->
<g id="Node000011" class="node">
<title>Node11</title>
<g id="a_Node000011"><a xlink:title=" ">
<polygon fill="#e0e0e0" stroke="#999999" points="448.5,-19 362.5,-19 362.5,0 448.5,0 448.5,-19"/>
<text text-anchor="middle" x="405.5" y="-7" font-family="Helvetica,sans-Serif" font-size="10.00">QtCore/QHash</text>
</a>
</g>
</g>
<!-- Node10&#45;&gt;Node11 -->
<g id="edge10_Node000010_Node000011" class="edge">
<title>Node10&#45;&gt;Node11</title>
<g id="a_edge10_Node000010_Node000011"><a xlink:title=" ">
<path fill="none" stroke="#63b8ff" d="M464.25,-54.98C453.7,-47 437.7,-34.88 425.06,-25.31"/>
<polygon fill="#63b8ff" stroke="#63b8ff" points="427.04,-22.42 416.95,-19.17 422.81,-28 427.04,-22.42"/>
</a>
</g>
</g>
<!-- Node14&#45;&gt;Node15 -->
<g id="edge19_Node000014_Node000015" class="edge">
<title>Node14&#45;&gt;Node15</title>
<g id="a_edge19_Node000014_Node000015"><a xlink:title=" ">
<path fill="none" stroke="#63b8ff" d="M877.38,-164.75C873.14,-157.49 866.97,-146.95 861.72,-137.98"/>
<polygon fill="#63b8ff" stroke="#63b8ff" points="864.59,-135.95 856.52,-129.09 858.55,-139.49 864.59,-135.95"/>
</a>
</g>
</g>
<!-- Node14&#45;&gt;Node16 -->
<g id="edge20_Node000014_Node000016" class="edge">
<title>Node14&#45;&gt;Node16</title>
<g id="a_edge20_Node000014_Node000016"><a xlink:title=" ">
<path fill="none" stroke="#63b8ff" d="M897.92,-164.98C912.95,-156.69 936.04,-143.94 953.66,-134.22"/>
<polygon fill="#63b8ff" stroke="#63b8ff" points="955.73,-137.07 962.8,-129.17 952.35,-130.94 955.73,-137.07"/>
</a>
</g>
</g>
<!-- Node17 -->
<g id="Node000017" class="node">
<title>Node17</title>
<g id="a_Node000017"><a xlink:title=" ">
<polygon fill="#e0e0e0" stroke="#999999" points="1003.5,-74 953.5,-74 953.5,-55 1003.5,-55 1003.5,-74"/>
<text text-anchor="middle" x="978.5" y="-62" font-family="Helvetica,sans-Serif" font-size="10.00">cstdint</text>
</a>
</g>
</g>
<!-- Node16&#45;&gt;Node17 -->
<g id="edge21_Node000016_Node000017" class="edge">
<title>Node16&#45;&gt;Node17</title>
<g id="a_edge21_Node000016_Node000017"><a xlink:title=" ">
<path fill="none" stroke="#63b8ff" d="M978.5,-109.75C978.5,-102.8 978.5,-92.85 978.5,-84.13"/>
<polygon fill="#63b8ff" stroke="#63b8ff" points="982,-84.09 978.5,-74.09 975,-84.09 982,-84.09"/>
</a>
</g>
</g>
<!-- Node19 -->
<g id="Node000019" class="node">
<title>Node19</title>
<g id="a_Node000019"><a xlink:title=" ">
<polygon fill="#e0e0e0" stroke="#999999" points="1108,-129 1055,-129 1055,-110 1108,-110 1108,-129"/>
<text text-anchor="middle" x="1081.5" y="-117" font-family="Helvetica,sans-Serif" font-size="10.00">stdint.h</text>
</a>
</g>
</g>
<!-- Node18&#45;&gt;Node19 -->
<g id="edge23_Node000018_Node000019" class="edge">
<title>Node18&#45;&gt;Node19</title>
<g id="a_edge23_Node000018_Node000019"><a xlink:title=" ">
<path fill="none" stroke="#63b8ff" d="M1081.5,-164.75C1081.5,-157.8 1081.5,-147.85 1081.5,-139.13"/>
<polygon fill="#63b8ff" stroke="#63b8ff" points="1085,-139.09 1081.5,-129.09 1078,-139.09 1085,-139.09"/>
</a>
</g>
</g>
<!-- Node20 -->
<g id="Node000020" class="node">
<title>Node20</title>
<g id="a_Node000020"><a xlink:title=" ">
<polygon fill="#e0e0e0" stroke="#999999" points="1224.5,-129 1126.5,-129 1126.5,-110 1224.5,-110 1224.5,-129"/>
<text text-anchor="middle" x="1175.5" y="-117" font-family="Helvetica,sans-Serif" font-size="10.00">mavlink_types.h</text>
</a>
</g>
</g>
<!-- Node18&#45;&gt;Node20 -->
<g id="edge24_Node000018_Node000020" class="edge">
<title>Node18&#45;&gt;Node20</title>
<g id="a_edge24_Node000018_Node000020"><a xlink:title=" ">
<path fill="none" stroke="#63b8ff" d="M1096.6,-164.98C1111.32,-156.69 1133.92,-143.94 1151.17,-134.22"/>
<polygon fill="#63b8ff" stroke="#63b8ff" points="1153.13,-137.13 1160.12,-129.17 1149.69,-131.03 1153.13,-137.13"/>
</a>
</g>
</g>
<!-- Node22 -->
<g id="Node000022" class="node">
<title>Node22</title>
<g id="a_Node000022"><a xlink:href="ObjectListModelBase_8h.html" target="_top" xlink:title=" ">
<polygon fill="white" stroke="#666666" points="782.5,-129 654.5,-129 654.5,-110 782.5,-110 782.5,-129"/>
<text text-anchor="middle" x="718.5" y="-117" font-family="Helvetica,sans-Serif" font-size="10.00">ObjectListModelBase.h</text>
</a>
</g>
</g>
<!-- Node21&#45;&gt;Node22 -->
<g id="edge28_Node000021_Node000022" class="edge">
<title>Node21&#45;&gt;Node22</title>
<g id="a_edge28_Node000021_Node000022"><a xlink:title=" ">
<path fill="none" stroke="#63b8ff" d="M718.5,-164.75C718.5,-157.8 718.5,-147.85 718.5,-139.13"/>
<polygon fill="#63b8ff" stroke="#63b8ff" points="722,-139.09 718.5,-129.09 715,-139.09 722,-139.09"/>
</a>
</g>
</g>
<!-- Node23 -->
<g id="Node000023" class="node">
<title>Node23</title>
<g id="a_Node000023"><a xlink:href="ObjectItemModelBase_8h.html" target="_top" xlink:title=" ">
<polygon fill="white" stroke="#666666" points="788.5,-74 654.5,-74 654.5,-55 788.5,-55 788.5,-74"/>
<text text-anchor="middle" x="721.5" y="-62" font-family="Helvetica,sans-Serif" font-size="10.00">ObjectItemModelBase.h</text>
</a>
</g>
</g>
<!-- Node22&#45;&gt;Node23 -->
<g id="edge29_Node000022_Node000023" class="edge">
<title>Node22&#45;&gt;Node23</title>
<g id="a_edge29_Node000022_Node000023"><a xlink:title=" ">
<path fill="none" stroke="#63b8ff" d="M719,-109.75C719.39,-102.8 719.95,-92.85 720.45,-84.13"/>
<polygon fill="#63b8ff" stroke="#63b8ff" points="723.94,-84.27 721.01,-74.09 716.95,-83.88 723.94,-84.27"/>
</a>
</g>
</g>
<!-- Node23&#45;&gt;Node9 -->
<g id="edge31_Node000023_Node000009" class="edge">
<title>Node23&#45;&gt;Node9</title>
<g id="a_edge31_Node000023_Node000009"><a xlink:title=" ">
<path fill="none" stroke="#63b8ff" d="M713.24,-54.75C706.04,-47.11 695.39,-35.82 686.65,-26.56"/>
<polygon fill="#63b8ff" stroke="#63b8ff" points="689.01,-23.96 679.6,-19.09 683.92,-28.76 689.01,-23.96"/>
</a>
</g>
</g>
<!-- Node24 -->
<g id="Node000024" class="node">
<title>Node24</title>
<g id="a_Node000024"><a xlink:title=" ">
<polygon fill="#e0e0e0" stroke="#999999" points="938.5,-19 784.5,-19 784.5,0 938.5,0 938.5,-19"/>
<text text-anchor="middle" x="861.5" y="-7" font-family="Helvetica,sans-Serif" font-size="10.00">QtCore/QAbstractItemModel</text>
</a>
</g>
</g>
<!-- Node23&#45;&gt;Node24 -->
<g id="edge30_Node000023_Node000024" class="edge">
<title>Node23&#45;&gt;Node24</title>
<g id="a_edge30_Node000023_Node000024"><a xlink:title=" ">
<path fill="none" stroke="#63b8ff" d="M743.99,-54.98C767.02,-46.27 803.04,-32.63 829.13,-22.75"/>
<polygon fill="#63b8ff" stroke="#63b8ff" points="830.48,-25.98 838.6,-19.17 828.01,-19.44 830.48,-25.98"/>
</a>
</g>
</g>
</g>
</svg>

<g id="navigator" transform="translate(0 0)" fill="#404254">
  <rect fill="#f2f5e9" fill-opacity="0.5" stroke="#606060" stroke-width=".5" x="0" y="0" width="60" height="60"/>
  <use id="zoomplus" xlink:href="#zoomPlus" x="17" y="9" onmousedown="handleZoom(evt,'in')"/>
  <use id="zoomminus" xlink:href="#zoomMin" x="42" y="9" onmousedown="handleZoom(evt,'out')"/>
  <use id="reset" xlink:href="#resetDef" x="30" y="36" onmousedown="handleReset()"/>
   <use id="arrowup" xlink:href="#arrowUp" x="0" y="0" onmousedown="handlePan(0,-1)"/>
  <use id="arrowright" xlink:href="#arrowRight" x="0" y="0" onmousedown="handlePan(1,0)"/>
  <use id="arrowdown" xlink:href="#arrowDown" x="0" y="0" onmousedown="handlePan(0,1)"/>
  <use id="arrowleft" xlink:href="#arrowLeft" x="0" y="0" onmousedown="handlePan(-1,0)"/>
</g>
<svg viewBox="0 0 15 15" width="100%" height="30px" preserveAspectRatio="xMaxYMin meet">
 <g id="arrow_out" transform="scale(0.3 0.3)">
  <a xlink:href="ActuatorActions_8h__incl_org.svg" target="_base">
   <rect id="button" ry="5" rx="5" y="6" x="6" height="38" width="38"
        fill="#f2f5e9" fill-opacity="0.5" stroke="#606060" stroke-width="1.0"/>
   <path id="arrow"
     d="M 11.500037,31.436501 C 11.940474,20.09759 22.043105,11.32322 32.158766,21.979434 L 37.068811,17.246167 C 37.068811,17.246167 37.088388,32 37.088388,32 L 22.160133,31.978069 C 22.160133,31.978069 26.997745,27.140456 26.997745,27.140456 C 18.528582,18.264221 13.291696,25.230495 11.500037,31.436501 z"
     style="fill:#404040;"/>
  </a>
 </g>
</svg>

<style type='text/css'>
<![CDATA[
[data-mouse-over-selected='false'] { opacity: 0.7; }
[data-mouse-over-selected='true']  { opacity: 1.0; }
]]>
</style>
<script type="application/ecmascript"><![CDATA[
document.addEventListener('DOMContentLoaded', (event) => {
  highlightEdges();
  highlightAdjacentNodes();
});
]]></script>
</svg>
