<?xml version="1.0" encoding="UTF-8" standalone="no"?>
<!DOCTYPE svg PUBLIC "-//W3C//DTD SVG 1.1//EN"
 "http://www.w3.org/Graphics/SVG/1.1/DTD/svg11.dtd">
<!-- Generated by graphviz version 2.43.0 (0)
 -->
<!-- Title: src/Vehicle/Actuators/ActuatorOutputs.cc Pages: 1 -->
<svg width="1660pt" height="368pt"
 viewBox="0.00 0.00 1660.00 368.00" xmlns="http://www.w3.org/2000/svg" xmlns:xlink="http://www.w3.org/1999/xlink">
<g id="graph0" class="graph" transform="scale(1 1) rotate(0) translate(4 364)">
<title>src/Vehicle/Actuators/ActuatorOutputs.cc</title>
<!-- Node1 -->
<g id="Node000001" class="node">
<title>Node1</title>
<g id="a_Node000001"><a xlink:title=" ">
<polygon fill="#999999" stroke="#666666" points="610.5,-360 491.5,-360 491.5,-330 610.5,-330 610.5,-360"/>
<text text-anchor="start" x="499.5" y="-348" font-family="Helvetica,sans-Serif" font-size="10.00">src/Vehicle/Actuators</text>
<text text-anchor="middle" x="551" y="-337" font-family="Helvetica,sans-Serif" font-size="10.00">/ActuatorOutputs.cc</text>
</a>
</g>
</g>
<!-- Node2 -->
<g id="Node000002" class="node">
<title>Node2</title>
<g id="a_Node000002"><a xlink:href="ActuatorOutputs_8h.html" target="_top" xlink:title=" ">
<polygon fill="white" stroke="#666666" points="1172.5,-294 1067.5,-294 1067.5,-275 1172.5,-275 1172.5,-294"/>
<text text-anchor="middle" x="1120" y="-282" font-family="Helvetica,sans-Serif" font-size="10.00">ActuatorOutputs.h</text>
</a>
</g>
</g>
<!-- Node1&#45;&gt;Node2 -->
<g id="edge1_Node000001_Node000002" class="edge">
<title>Node1&#45;&gt;Node2</title>
<g id="a_edge1_Node000001_Node000002"><a xlink:title=" ">
<path fill="none" stroke="#63b8ff" d="M610.55,-337.88C718.74,-326.75 946.59,-303.33 1057.16,-291.96"/>
<polygon fill="#63b8ff" stroke="#63b8ff" points="1057.58,-295.44 1067.17,-290.93 1056.86,-288.47 1057.58,-295.44"/>
</a>
</g>
</g>
<!-- Node31 -->
<g id="Node000031" class="node">
<title>Node31</title>
<g id="a_Node000031"><a xlink:href="ParameterManager_8h.html" target="_top" xlink:title=" ">
<polygon fill="white" stroke="#666666" points="559,-184 441,-184 441,-165 559,-165 559,-184"/>
<text text-anchor="middle" x="500" y="-172" font-family="Helvetica,sans-Serif" font-size="10.00">ParameterManager.h</text>
</a>
</g>
</g>
<!-- Node1&#45;&gt;Node31 -->
<g id="edge46_Node000001_Node000031" class="edge">
<title>Node1&#45;&gt;Node31</title>
<g id="a_edge46_Node000001_Node000031"><a xlink:title=" ">
<path fill="none" stroke="#63b8ff" d="M546.74,-329.92C537.54,-299.52 515.81,-227.73 505.55,-193.83"/>
<polygon fill="#63b8ff" stroke="#63b8ff" points="508.9,-192.81 502.65,-184.25 502.2,-194.84 508.9,-192.81"/>
</a>
</g>
</g>
<!-- Node3 -->
<g id="Node000003" class="node">
<title>Node3</title>
<g id="a_Node000003"><a xlink:href="Common_8h.html" target="_top" xlink:title=" ">
<polygon fill="white" stroke="#666666" points="1216,-184 1146,-184 1146,-165 1216,-165 1216,-184"/>
<text text-anchor="middle" x="1181" y="-172" font-family="Helvetica,sans-Serif" font-size="10.00">Common.h</text>
</a>
</g>
</g>
<!-- Node2&#45;&gt;Node3 -->
<g id="edge2_Node000002_Node000003" class="edge">
<title>Node2&#45;&gt;Node3</title>
<g id="a_edge2_Node000002_Node000003"><a xlink:title=" ">
<path fill="none" stroke="#63b8ff" d="M1130.79,-274.68C1140.28,-266.39 1153.82,-253.17 1162,-239 1170.01,-225.13 1174.93,-207.56 1177.75,-194.43"/>
<polygon fill="#63b8ff" stroke="#63b8ff" points="1181.26,-194.71 1179.71,-184.22 1174.38,-193.38 1181.26,-194.71"/>
</a>
</g>
</g>
<!-- Node7 -->
<g id="Node000007" class="node">
<title>Node7</title>
<g id="a_Node000007"><a xlink:title=" ">
<polygon fill="#e0e0e0" stroke="#999999" points="261,-19 169,-19 169,0 261,0 261,-19"/>
<text text-anchor="middle" x="215" y="-7" font-family="Helvetica,sans-Serif" font-size="10.00">QtCore/QObject</text>
</a>
</g>
</g>
<!-- Node2&#45;&gt;Node7 -->
<g id="edge43_Node000002_Node000007" class="edge">
<title>Node2&#45;&gt;Node7</title>
<g id="a_edge43_Node000002_Node000007"><a xlink:title=" ">
<path fill="none" stroke="#63b8ff" d="M1067.48,-284.02C846.05,-285.52 0,-284.16 0,-175.5 0,-175.5 0,-175.5 0,-118.5 0,-47.33 95.24,-23.05 158.94,-14.78"/>
<polygon fill="#63b8ff" stroke="#63b8ff" points="159.37,-18.25 168.88,-13.58 158.53,-11.3 159.37,-18.25"/>
</a>
</g>
</g>
<!-- Node9 -->
<g id="Node000009" class="node">
<title>Node9</title>
<g id="a_Node000009"><a xlink:title=" ">
<polygon fill="#e0e0e0" stroke="#999999" points="1158.5,-19 1069.5,-19 1069.5,0 1158.5,0 1158.5,-19"/>
<text text-anchor="middle" x="1114" y="-7" font-family="Helvetica,sans-Serif" font-size="10.00">QtCore/QString</text>
</a>
</g>
</g>
<!-- Node2&#45;&gt;Node9 -->
<g id="edge44_Node000002_Node000009" class="edge">
<title>Node2&#45;&gt;Node9</title>
<g id="a_edge44_Node000002_Node000009"><a xlink:title=" ">
<path fill="none" stroke="#63b8ff" d="M1162.9,-275C1252.83,-255.18 1447.9,-200.59 1386,-110 1337.66,-39.26 1233.18,-18.61 1168.7,-12.71"/>
<polygon fill="#63b8ff" stroke="#63b8ff" points="1168.96,-9.22 1158.71,-11.88 1168.39,-16.19 1168.96,-9.22"/>
</a>
</g>
</g>
<!-- Node18 -->
<g id="Node000018" class="node">
<title>Node18</title>
<g id="a_Node000018"><a xlink:href="ActuatorActions_8h.html" target="_top" xlink:title=" ">
<polygon fill="white" stroke="#666666" points="1069.5,-239 966.5,-239 966.5,-220 1069.5,-220 1069.5,-239"/>
<text text-anchor="middle" x="1018" y="-227" font-family="Helvetica,sans-Serif" font-size="10.00">ActuatorActions.h</text>
</a>
</g>
</g>
<!-- Node2&#45;&gt;Node18 -->
<g id="edge24_Node000002_Node000018" class="edge">
<title>Node2&#45;&gt;Node18</title>
<g id="a_edge24_Node000002_Node000018"><a xlink:title=" ">
<path fill="none" stroke="#63b8ff" d="M1103.61,-274.98C1087.43,-266.57 1062.43,-253.59 1043.62,-243.81"/>
<polygon fill="#63b8ff" stroke="#63b8ff" points="1045.17,-240.68 1034.69,-239.17 1041.95,-246.89 1045.17,-240.68"/>
</a>
</g>
</g>
<!-- Node26 -->
<g id="Node000026" class="node">
<title>Node26</title>
<g id="a_Node000026"><a xlink:href="QmlObjectListModel_8h.html" target="_top" xlink:title=" ">
<polygon fill="white" stroke="#666666" points="1596.5,-184 1471.5,-184 1471.5,-165 1596.5,-165 1596.5,-184"/>
<text text-anchor="middle" x="1534" y="-172" font-family="Helvetica,sans-Serif" font-size="10.00">QmlObjectListModel.h</text>
</a>
</g>
</g>
<!-- Node2&#45;&gt;Node26 -->
<g id="edge42_Node000002_Node000026" class="edge">
<title>Node2&#45;&gt;Node26</title>
<g id="a_edge42_Node000002_Node000026"><a xlink:title=" ">
<path fill="none" stroke="#63b8ff" d="M1172.83,-280.08C1254.49,-274.21 1407.15,-260.69 1457,-239 1481.93,-228.15 1505.24,-206.74 1519.53,-191.79"/>
<polygon fill="#63b8ff" stroke="#63b8ff" points="1522.28,-193.98 1526.51,-184.26 1517.14,-189.22 1522.28,-193.98"/>
</a>
</g>
</g>
<!-- Node30 -->
<g id="Node000030" class="node">
<title>Node30</title>
<g id="a_Node000030"><a xlink:title=" ">
<polygon fill="#e0e0e0" stroke="#999999" points="1152.5,-239 1087.5,-239 1087.5,-220 1152.5,-220 1152.5,-239"/>
<text text-anchor="middle" x="1120" y="-227" font-family="Helvetica,sans-Serif" font-size="10.00">functional</text>
</a>
</g>
</g>
<!-- Node2&#45;&gt;Node30 -->
<g id="edge45_Node000002_Node000030" class="edge">
<title>Node2&#45;&gt;Node30</title>
<g id="a_edge45_Node000002_Node000030"><a xlink:title=" ">
<path fill="none" stroke="#63b8ff" d="M1120,-274.75C1120,-267.8 1120,-257.85 1120,-249.13"/>
<polygon fill="#63b8ff" stroke="#63b8ff" points="1123.5,-249.09 1120,-239.09 1116.5,-249.09 1123.5,-249.09"/>
</a>
</g>
</g>
<!-- Node4 -->
<g id="Node000004" class="node">
<title>Node4</title>
<g id="a_Node000004"><a xlink:href="Fact_8h.html" target="_top" xlink:title=" ">
<polygon fill="white" stroke="#666666" points="860.5,-129 815.5,-129 815.5,-110 860.5,-110 860.5,-129"/>
<text text-anchor="middle" x="838" y="-117" font-family="Helvetica,sans-Serif" font-size="10.00">Fact.h</text>
</a>
</g>
</g>
<!-- Node3&#45;&gt;Node4 -->
<g id="edge3_Node000003_Node000004" class="edge">
<title>Node3&#45;&gt;Node4</title>
<g id="a_edge3_Node000003_Node000004"><a xlink:title=" ">
<path fill="none" stroke="#63b8ff" d="M1145.9,-168.08C1079.27,-157.78 935.32,-135.54 870.64,-125.54"/>
<polygon fill="#63b8ff" stroke="#63b8ff" points="871.02,-122.06 860.6,-123.99 869.95,-128.98 871.02,-122.06"/>
</a>
</g>
</g>
<!-- Node5 -->
<g id="Node000005" class="node">
<title>Node5</title>
<g id="a_Node000005"><a xlink:title=" ">
<polygon fill="#e0e0e0" stroke="#999999" points="1457.5,-19 1314.5,-19 1314.5,0 1457.5,0 1457.5,-19"/>
<text text-anchor="middle" x="1386" y="-7" font-family="Helvetica,sans-Serif" font-size="10.00">QtCore/QLoggingCategory</text>
</a>
</g>
</g>
<!-- Node3&#45;&gt;Node5 -->
<g id="edge22_Node000003_Node000005" class="edge">
<title>Node3&#45;&gt;Node5</title>
<g id="a_edge22_Node000003_Node000005"><a xlink:title=" ">
<path fill="none" stroke="#63b8ff" d="M1216.4,-171.04C1269.32,-166.53 1365.08,-154.94 1386,-129 1408.95,-100.54 1400.04,-54.49 1392.44,-28.99"/>
<polygon fill="#63b8ff" stroke="#63b8ff" points="1395.66,-27.58 1389.26,-19.14 1389,-29.73 1395.66,-27.58"/>
</a>
</g>
</g>
<!-- Node3&#45;&gt;Node9 -->
<g id="edge20_Node000003_Node000009" class="edge">
<title>Node3&#45;&gt;Node9</title>
<g id="a_edge20_Node000003_Node000009"><a xlink:title=" ">
<path fill="none" stroke="#63b8ff" d="M1169.3,-164.92C1153.91,-152.56 1130.26,-129.15 1143,-110 1168.14,-72.23 1254.65,-92.43 1229,-55 1215.3,-35 1191.21,-23.99 1168.62,-17.92"/>
<polygon fill="#63b8ff" stroke="#63b8ff" points="1169.26,-14.48 1158.72,-15.54 1167.62,-21.29 1169.26,-14.48"/>
</a>
</g>
</g>
<!-- Node16 -->
<g id="Node000016" class="node">
<title>Node16</title>
<g id="a_Node000016"><a xlink:title=" ">
<polygon fill="#e0e0e0" stroke="#999999" points="1377,-129 1269,-129 1269,-110 1377,-110 1377,-129"/>
<text text-anchor="middle" x="1323" y="-117" font-family="Helvetica,sans-Serif" font-size="10.00">QtCore/QJsonValue</text>
</a>
</g>
</g>
<!-- Node3&#45;&gt;Node16 -->
<g id="edge21_Node000003_Node000016" class="edge">
<title>Node3&#45;&gt;Node16</title>
<g id="a_edge21_Node000003_Node000016"><a xlink:title=" ">
<path fill="none" stroke="#63b8ff" d="M1203.81,-164.98C1227.17,-156.27 1263.7,-142.63 1290.17,-132.75"/>
<polygon fill="#63b8ff" stroke="#63b8ff" points="1291.63,-135.95 1299.77,-129.17 1289.18,-129.39 1291.63,-135.95"/>
</a>
</g>
</g>
<!-- Node17 -->
<g id="Node000017" class="node">
<title>Node17</title>
<g id="a_Node000017"><a xlink:title=" ">
<polygon fill="#e0e0e0" stroke="#999999" points="1250.5,-129 1151.5,-129 1151.5,-110 1250.5,-110 1250.5,-129"/>
<text text-anchor="middle" x="1201" y="-117" font-family="Helvetica,sans-Serif" font-size="10.00">QtGui/QVector3D</text>
</a>
</g>
</g>
<!-- Node3&#45;&gt;Node17 -->
<g id="edge23_Node000003_Node000017" class="edge">
<title>Node3&#45;&gt;Node17</title>
<g id="a_edge23_Node000003_Node000017"><a xlink:title=" ">
<path fill="none" stroke="#63b8ff" d="M1184.3,-164.75C1186.98,-157.65 1190.85,-147.4 1194.19,-138.56"/>
<polygon fill="#63b8ff" stroke="#63b8ff" points="1197.5,-139.68 1197.76,-129.09 1190.95,-137.21 1197.5,-139.68"/>
</a>
</g>
</g>
<!-- Node4&#45;&gt;Node5 -->
<g id="edge4_Node000004_Node000005" class="edge">
<title>Node4&#45;&gt;Node5</title>
<g id="a_edge4_Node000004_Node000005"><a xlink:title=" ">
<path fill="none" stroke="#63b8ff" d="M860.59,-115.96C934.04,-107.65 1163.25,-81.43 1196,-74 1253.51,-60.95 1318.19,-37.33 1355.31,-22.87"/>
<polygon fill="#63b8ff" stroke="#63b8ff" points="1357,-25.97 1365.02,-19.05 1354.44,-19.45 1357,-25.97"/>
</a>
</g>
</g>
<!-- Node6 -->
<g id="Node000006" class="node">
<title>Node6</title>
<g id="a_Node000006"><a xlink:title=" ">
<polygon fill="#e0e0e0" stroke="#999999" points="1028.5,-74 905.5,-74 905.5,-55 1028.5,-55 1028.5,-74"/>
<text text-anchor="middle" x="967" y="-62" font-family="Helvetica,sans-Serif" font-size="10.00">QtCore/QMutexLocker</text>
</a>
</g>
</g>
<!-- Node4&#45;&gt;Node6 -->
<g id="edge5_Node000004_Node000006" class="edge">
<title>Node4&#45;&gt;Node6</title>
<g id="a_edge5_Node000004_Node000006"><a xlink:title=" ">
<path fill="none" stroke="#63b8ff" d="M858.73,-109.98C879.76,-101.34 912.55,-87.87 936.54,-78.02"/>
<polygon fill="#63b8ff" stroke="#63b8ff" points="937.98,-81.21 945.9,-74.17 935.32,-74.73 937.98,-81.21"/>
</a>
</g>
</g>
<!-- Node4&#45;&gt;Node7 -->
<g id="edge6_Node000004_Node000007" class="edge">
<title>Node4&#45;&gt;Node7</title>
<g id="a_edge6_Node000004_Node000007"><a xlink:title=" ">
<path fill="none" stroke="#63b8ff" d="M815.27,-116.44C732.1,-108.88 447.13,-82.6 407,-74 348.39,-61.44 282.55,-37.38 245.2,-22.76"/>
<polygon fill="#63b8ff" stroke="#63b8ff" points="246.48,-19.5 235.89,-19.08 243.91,-26.01 246.48,-19.5"/>
</a>
</g>
</g>
<!-- Node8 -->
<g id="Node000008" class="node">
<title>Node8</title>
<g id="a_Node000008"><a xlink:title=" ">
<polygon fill="#e0e0e0" stroke="#999999" points="1187,-74 1047,-74 1047,-55 1187,-55 1187,-74"/>
<text text-anchor="middle" x="1117" y="-62" font-family="Helvetica,sans-Serif" font-size="10.00">QtCore/QRecursiveMutex</text>
</a>
</g>
</g>
<!-- Node4&#45;&gt;Node8 -->
<g id="edge7_Node000004_Node000008" class="edge">
<title>Node4&#45;&gt;Node8</title>
<g id="a_edge7_Node000004_Node000008"><a xlink:title=" ">
<path fill="none" stroke="#63b8ff" d="M860.66,-113.13C865.39,-112.05 870.35,-110.96 875,-110 936.71,-97.24 1007.65,-84.41 1056.7,-75.83"/>
<polygon fill="#63b8ff" stroke="#63b8ff" points="1057.57,-79.23 1066.82,-74.06 1056.37,-72.33 1057.57,-79.23"/>
</a>
</g>
</g>
<!-- Node4&#45;&gt;Node9 -->
<g id="edge8_Node000004_Node000009" class="edge">
<title>Node4&#45;&gt;Node9</title>
<g id="a_edge8_Node000004_Node000009"><a xlink:title=" ">
<path fill="none" stroke="#63b8ff" d="M843.35,-109.93C852.51,-96.02 872.6,-68.72 897,-55 947.33,-26.7 1013.27,-16.29 1059.19,-12.52"/>
<polygon fill="#63b8ff" stroke="#63b8ff" points="1059.54,-16 1069.25,-11.77 1059.02,-9.02 1059.54,-16"/>
</a>
</g>
</g>
<!-- Node10 -->
<g id="Node000010" class="node">
<title>Node10</title>
<g id="a_Node000010"><a xlink:title=" ">
<polygon fill="#e0e0e0" stroke="#999999" points="735.5,-19 640.5,-19 640.5,0 735.5,0 735.5,-19"/>
<text text-anchor="middle" x="688" y="-7" font-family="Helvetica,sans-Serif" font-size="10.00">QtCore/QVariant</text>
</a>
</g>
</g>
<!-- Node4&#45;&gt;Node10 -->
<g id="edge9_Node000004_Node000010" class="edge">
<title>Node4&#45;&gt;Node10</title>
<g id="a_edge9_Node000004_Node000010"><a xlink:title=" ">
<path fill="none" stroke="#63b8ff" d="M825.98,-109.84C800.31,-91.36 739.89,-47.86 708.2,-25.05"/>
<polygon fill="#63b8ff" stroke="#63b8ff" points="710.24,-22.2 700.08,-19.2 706.15,-27.88 710.24,-22.2"/>
</a>
</g>
</g>
<!-- Node11 -->
<g id="Node000011" class="node">
<title>Node11</title>
<g id="a_Node000011"><a xlink:title=" ">
<polygon fill="#e0e0e0" stroke="#999999" points="942.5,-19 753.5,-19 753.5,0 942.5,0 942.5,-19"/>
<text text-anchor="middle" x="848" y="-7" font-family="Helvetica,sans-Serif" font-size="10.00">QtQmlIntegration/QtQmlIntegration</text>
</a>
</g>
</g>
<!-- Node4&#45;&gt;Node11 -->
<g id="edge10_Node000004_Node000011" class="edge">
<title>Node4&#45;&gt;Node11</title>
<g id="a_edge10_Node000004_Node000011"><a xlink:title=" ">
<path fill="none" stroke="#63b8ff" d="M838.82,-109.66C840.44,-92.17 844.08,-52.8 846.26,-29.27"/>
<polygon fill="#63b8ff" stroke="#63b8ff" points="849.76,-29.44 847.2,-19.16 842.79,-28.79 849.76,-29.44"/>
</a>
</g>
</g>
<!-- Node12 -->
<g id="Node000012" class="node">
<title>Node12</title>
<g id="a_Node000012"><a xlink:href="FactMetaData_8h.html" target="_top" xlink:title=" ">
<polygon fill="white" stroke="#666666" points="508.5,-74 415.5,-74 415.5,-55 508.5,-55 508.5,-74"/>
<text text-anchor="middle" x="462" y="-62" font-family="Helvetica,sans-Serif" font-size="10.00">FactMetaData.h</text>
</a>
</g>
</g>
<!-- Node4&#45;&gt;Node12 -->
<g id="edge11_Node000004_Node000012" class="edge">
<title>Node4&#45;&gt;Node12</title>
<g id="a_edge11_Node000004_Node000012"><a xlink:title=" ">
<path fill="none" stroke="#63b8ff" d="M815.33,-115.3C757.43,-107.14 602.76,-85.34 518.54,-73.47"/>
<polygon fill="#63b8ff" stroke="#63b8ff" points="519.03,-70 508.64,-72.07 518.05,-76.94 519.03,-70"/>
</a>
</g>
</g>
<!-- Node12&#45;&gt;Node5 -->
<g id="edge13_Node000012_Node000005" class="edge">
<title>Node12&#45;&gt;Node5</title>
<g id="a_edge13_Node000012_Node000005"><a xlink:title=" ">
<path fill="none" stroke="#63b8ff" d="M508.83,-58.93C523.88,-57.55 540.64,-56.11 556,-55 829.74,-35.29 1154.84,-20.31 1303.91,-13.9"/>
<polygon fill="#63b8ff" stroke="#63b8ff" points="1304.49,-17.38 1314.34,-13.46 1304.19,-10.39 1304.49,-17.38"/>
</a>
</g>
</g>
<!-- Node12&#45;&gt;Node7 -->
<g id="edge16_Node000012_Node000007" class="edge">
<title>Node12&#45;&gt;Node7</title>
<g id="a_edge16_Node000012_Node000007"><a xlink:title=" ">
<path fill="none" stroke="#63b8ff" d="M422.32,-54.98C379.5,-45.8 311.24,-31.15 264.84,-21.19"/>
<polygon fill="#63b8ff" stroke="#63b8ff" points="265.51,-17.76 255,-19.08 264.04,-24.6 265.51,-17.76"/>
</a>
</g>
</g>
<!-- Node12&#45;&gt;Node9 -->
<g id="edge17_Node000012_Node000009" class="edge">
<title>Node12&#45;&gt;Node9</title>
<g id="a_edge17_Node000012_Node000009"><a xlink:title=" ">
<path fill="none" stroke="#63b8ff" d="M508.85,-59.17C523.9,-57.8 540.65,-56.31 556,-55 740.24,-39.32 958.85,-22.37 1058.97,-14.69"/>
<polygon fill="#63b8ff" stroke="#63b8ff" points="1059.44,-18.17 1069.14,-13.92 1058.9,-11.19 1059.44,-18.17"/>
</a>
</g>
</g>
<!-- Node12&#45;&gt;Node10 -->
<g id="edge18_Node000012_Node000010" class="edge">
<title>Node12&#45;&gt;Node10</title>
<g id="a_edge18_Node000012_Node000010"><a xlink:title=" ">
<path fill="none" stroke="#63b8ff" d="M498.31,-54.98C537.24,-45.86 599.16,-31.33 641.6,-21.38"/>
<polygon fill="#63b8ff" stroke="#63b8ff" points="642.47,-24.77 651.4,-19.08 640.87,-17.96 642.47,-24.77"/>
</a>
</g>
</g>
<!-- Node12&#45;&gt;Node11 -->
<g id="edge19_Node000012_Node000011" class="edge">
<title>Node12&#45;&gt;Node11</title>
<g id="a_edge19_Node000012_Node000011"><a xlink:title=" ">
<path fill="none" stroke="#63b8ff" d="M508.63,-56.99C513.48,-56.32 518.34,-55.64 523,-55 609.62,-43.04 709.24,-29.42 775.11,-20.43"/>
<polygon fill="#63b8ff" stroke="#63b8ff" points="775.95,-23.85 785.39,-19.03 775,-16.91 775.95,-23.85"/>
</a>
</g>
</g>
<!-- Node13 -->
<g id="Node000013" class="node">
<title>Node13</title>
<g id="a_Node000013"><a xlink:title=" ">
<polygon fill="#e0e0e0" stroke="#999999" points="497,-19 411,-19 411,0 497,0 497,-19"/>
<text text-anchor="middle" x="454" y="-7" font-family="Helvetica,sans-Serif" font-size="10.00">QtCore/QHash</text>
</a>
</g>
</g>
<!-- Node12&#45;&gt;Node13 -->
<g id="edge12_Node000012_Node000013" class="edge">
<title>Node12&#45;&gt;Node13</title>
<g id="a_edge12_Node000012_Node000013"><a xlink:title=" ">
<path fill="none" stroke="#63b8ff" d="M460.68,-54.75C459.63,-47.8 458.13,-37.85 456.81,-29.13"/>
<polygon fill="#63b8ff" stroke="#63b8ff" points="460.25,-28.45 455.3,-19.09 453.33,-29.5 460.25,-28.45"/>
</a>
</g>
</g>
<!-- Node14 -->
<g id="Node000014" class="node">
<title>Node14</title>
<g id="a_Node000014"><a xlink:title=" ">
<polygon fill="#e0e0e0" stroke="#999999" points="622.5,-19 515.5,-19 515.5,0 622.5,0 622.5,-19"/>
<text text-anchor="middle" x="569" y="-7" font-family="Helvetica,sans-Serif" font-size="10.00">QtCore/QJsonArray</text>
</a>
</g>
</g>
<!-- Node12&#45;&gt;Node14 -->
<g id="edge14_Node000012_Node000014" class="edge">
<title>Node12&#45;&gt;Node14</title>
<g id="a_edge14_Node000012_Node000014"><a xlink:title=" ">
<path fill="none" stroke="#63b8ff" d="M479.19,-54.98C496.25,-46.54 522.63,-33.47 542.4,-23.68"/>
<polygon fill="#63b8ff" stroke="#63b8ff" points="544.09,-26.75 551.5,-19.17 540.98,-20.47 544.09,-26.75"/>
</a>
</g>
</g>
<!-- Node15 -->
<g id="Node000015" class="node">
<title>Node15</title>
<g id="a_Node000015"><a xlink:title=" ">
<polygon fill="#e0e0e0" stroke="#999999" points="392.5,-19 279.5,-19 279.5,0 392.5,0 392.5,-19"/>
<text text-anchor="middle" x="336" y="-7" font-family="Helvetica,sans-Serif" font-size="10.00">QtCore/QJsonObject</text>
</a>
</g>
</g>
<!-- Node12&#45;&gt;Node15 -->
<g id="edge15_Node000012_Node000015" class="edge">
<title>Node12&#45;&gt;Node15</title>
<g id="a_edge15_Node000012_Node000015"><a xlink:title=" ">
<path fill="none" stroke="#63b8ff" d="M441.76,-54.98C421.3,-46.38 389.47,-32.99 366.07,-23.15"/>
<polygon fill="#63b8ff" stroke="#63b8ff" points="367.19,-19.82 356.61,-19.17 364.47,-26.27 367.19,-19.82"/>
</a>
</g>
</g>
<!-- Node18&#45;&gt;Node3 -->
<g id="edge25_Node000018_Node000003" class="edge">
<title>Node18&#45;&gt;Node3</title>
<g id="a_edge25_Node000018_Node000003"><a xlink:title=" ">
<path fill="none" stroke="#63b8ff" d="M1044.19,-219.98C1071.44,-211.13 1114.3,-197.19 1144.78,-187.28"/>
<polygon fill="#63b8ff" stroke="#63b8ff" points="1146.18,-190.5 1154.61,-184.08 1144.01,-183.85 1146.18,-190.5"/>
</a>
</g>
</g>
<!-- Node18&#45;&gt;Node7 -->
<g id="edge40_Node000018_Node000007" class="edge">
<title>Node18&#45;&gt;Node7</title>
<g id="a_edge40_Node000018_Node000007"><a xlink:title=" ">
<path fill="none" stroke="#63b8ff" d="M966.36,-227.19C775.38,-221.82 116.94,-198.37 57,-129 15.89,-81.42 114.76,-41.2 174.16,-22.21"/>
<polygon fill="#63b8ff" stroke="#63b8ff" points="175.53,-25.45 184.03,-19.13 173.45,-18.76 175.53,-25.45"/>
</a>
</g>
</g>
<!-- Node18&#45;&gt;Node9 -->
<g id="edge41_Node000018_Node000009" class="edge">
<title>Node18&#45;&gt;Node9</title>
<g id="a_edge41_Node000018_Node000009"><a xlink:title=" ">
<path fill="none" stroke="#63b8ff" d="M966.31,-220.39C944.83,-214.19 921.94,-203.26 909,-184 904.29,-176.99 906.49,-173.06 909,-165 917.85,-136.64 921.75,-125.65 947,-110 1042.04,-51.09 1122.81,-158.53 1196,-74 1214.24,-52.93 1180.46,-34.13 1150.89,-22.56"/>
<polygon fill="#63b8ff" stroke="#63b8ff" points="1152.1,-19.27 1141.51,-19.06 1149.66,-25.83 1152.1,-19.27"/>
</a>
</g>
</g>
<!-- Node19 -->
<g id="Node000019" class="node">
<title>Node19</title>
<g id="a_Node000019"><a xlink:href="VehicleTypes_8h.html" target="_top" xlink:title=" ">
<polygon fill="white" stroke="#666666" points="1006.5,-184 917.5,-184 917.5,-165 1006.5,-165 1006.5,-184"/>
<text text-anchor="middle" x="962" y="-172" font-family="Helvetica,sans-Serif" font-size="10.00">VehicleTypes.h</text>
</a>
</g>
</g>
<!-- Node18&#45;&gt;Node19 -->
<g id="edge26_Node000018_Node000019" class="edge">
<title>Node18&#45;&gt;Node19</title>
<g id="a_edge26_Node000018_Node000019"><a xlink:title=" ">
<path fill="none" stroke="#63b8ff" d="M1009,-219.98C1000.81,-212.23 988.49,-200.58 978.53,-191.14"/>
<polygon fill="#63b8ff" stroke="#63b8ff" points="980.83,-188.5 971.16,-184.17 976.02,-193.59 980.83,-188.5"/>
</a>
</g>
</g>
<!-- Node20 -->
<g id="Node000020" class="node">
<title>Node20</title>
<g id="a_Node000020"><a xlink:href="MAVLinkLib_8h.html" target="_top" xlink:title=" ">
<polygon fill="white" stroke="#666666" points="1107,-184 1025,-184 1025,-165 1107,-165 1107,-184"/>
<text text-anchor="middle" x="1066" y="-172" font-family="Helvetica,sans-Serif" font-size="10.00">MAVLinkLib.h</text>
</a>
</g>
</g>
<!-- Node18&#45;&gt;Node20 -->
<g id="edge27_Node000018_Node000020" class="edge">
<title>Node18&#45;&gt;Node20</title>
<g id="a_edge27_Node000018_Node000020"><a xlink:title=" ">
<path fill="none" stroke="#63b8ff" d="M1025.93,-219.75C1032.85,-212.11 1043.07,-200.82 1051.45,-191.56"/>
<polygon fill="#63b8ff" stroke="#63b8ff" points="1054.1,-193.85 1058.22,-184.09 1048.91,-189.15 1054.1,-193.85"/>
</a>
</g>
</g>
<!-- Node18&#45;&gt;Node26 -->
<g id="edge33_Node000018_Node000026" class="edge">
<title>Node18&#45;&gt;Node26</title>
<g id="a_edge33_Node000018_Node000026"><a xlink:title=" ">
<path fill="none" stroke="#63b8ff" d="M1069.57,-221.16C1072.76,-220.76 1075.92,-220.36 1079,-220 1213.71,-204.03 1371.35,-189.55 1461.27,-181.69"/>
<polygon fill="#63b8ff" stroke="#63b8ff" points="1461.7,-185.16 1471.35,-180.81 1461.09,-178.19 1461.7,-185.16"/>
</a>
</g>
</g>
<!-- Node21 -->
<g id="Node000021" class="node">
<title>Node21</title>
<g id="a_Node000021"><a xlink:href="MAVLinkMessageType_8h.html" target="_top" xlink:title=" ">
<polygon fill="white" stroke="#666666" points="735,-129 601,-129 601,-110 735,-110 735,-129"/>
<text text-anchor="middle" x="668" y="-117" font-family="Helvetica,sans-Serif" font-size="10.00">MAVLinkMessageType.h</text>
</a>
</g>
</g>
<!-- Node20&#45;&gt;Node21 -->
<g id="edge28_Node000020_Node000021" class="edge">
<title>Node20&#45;&gt;Node21</title>
<g id="a_edge28_Node000020_Node000021"><a xlink:title=" ">
<path fill="none" stroke="#63b8ff" d="M1024.82,-166.36C1021.84,-165.89 1018.87,-165.43 1016,-165 923.12,-151.17 815.9,-137.86 745.3,-129.46"/>
<polygon fill="#63b8ff" stroke="#63b8ff" points="745.49,-125.96 735.15,-128.25 744.67,-132.91 745.49,-125.96"/>
</a>
</g>
</g>
<!-- Node24 -->
<g id="Node000024" class="node">
<title>Node24</title>
<g id="a_Node000024"><a xlink:title=" ">
<polygon fill="#e0e0e0" stroke="#999999" points="1095,-129 1039,-129 1039,-110 1095,-110 1095,-129"/>
<text text-anchor="middle" x="1067" y="-117" font-family="Helvetica,sans-Serif" font-size="10.00">stddef.h</text>
</a>
</g>
</g>
<!-- Node20&#45;&gt;Node24 -->
<g id="edge31_Node000020_Node000024" class="edge">
<title>Node20&#45;&gt;Node24</title>
<g id="a_edge31_Node000020_Node000024"><a xlink:title=" ">
<path fill="none" stroke="#63b8ff" d="M1066.17,-164.75C1066.3,-157.8 1066.48,-147.85 1066.65,-139.13"/>
<polygon fill="#63b8ff" stroke="#63b8ff" points="1070.15,-139.15 1066.84,-129.09 1063.15,-139.02 1070.15,-139.15"/>
</a>
</g>
</g>
<!-- Node25 -->
<g id="Node000025" class="node">
<title>Node25</title>
<g id="a_Node000025"><a xlink:title=" ">
<polygon fill="#e0e0e0" stroke="#999999" points="1020.5,-129 955.5,-129 955.5,-110 1020.5,-110 1020.5,-129"/>
<text text-anchor="middle" x="988" y="-117" font-family="Helvetica,sans-Serif" font-size="10.00">mavlink.h</text>
</a>
</g>
</g>
<!-- Node20&#45;&gt;Node25 -->
<g id="edge32_Node000020_Node000025" class="edge">
<title>Node20&#45;&gt;Node25</title>
<g id="a_edge32_Node000020_Node000025"><a xlink:title=" ">
<path fill="none" stroke="#63b8ff" d="M1053.47,-164.98C1041.6,-156.92 1023.54,-144.65 1009.39,-135.03"/>
<polygon fill="#63b8ff" stroke="#63b8ff" points="1011,-131.9 1000.76,-129.17 1007.06,-137.69 1011,-131.9"/>
</a>
</g>
</g>
<!-- Node22 -->
<g id="Node000022" class="node">
<title>Node22</title>
<g id="a_Node000022"><a xlink:title=" ">
<polygon fill="#e0e0e0" stroke="#999999" points="734.5,-74 681.5,-74 681.5,-55 734.5,-55 734.5,-74"/>
<text text-anchor="middle" x="708" y="-62" font-family="Helvetica,sans-Serif" font-size="10.00">stdint.h</text>
</a>
</g>
</g>
<!-- Node21&#45;&gt;Node22 -->
<g id="edge29_Node000021_Node000022" class="edge">
<title>Node21&#45;&gt;Node22</title>
<g id="a_edge29_Node000021_Node000022"><a xlink:title=" ">
<path fill="none" stroke="#63b8ff" d="M674.61,-109.75C680.26,-102.26 688.54,-91.28 695.45,-82.13"/>
<polygon fill="#63b8ff" stroke="#63b8ff" points="698.29,-84.18 701.52,-74.09 692.7,-79.96 698.29,-84.18"/>
</a>
</g>
</g>
<!-- Node23 -->
<g id="Node000023" class="node">
<title>Node23</title>
<g id="a_Node000023"><a xlink:title=" ">
<polygon fill="#e0e0e0" stroke="#999999" points="663,-74 565,-74 565,-55 663,-55 663,-74"/>
<text text-anchor="middle" x="614" y="-62" font-family="Helvetica,sans-Serif" font-size="10.00">mavlink_types.h</text>
</a>
</g>
</g>
<!-- Node21&#45;&gt;Node23 -->
<g id="edge30_Node000021_Node000023" class="edge">
<title>Node21&#45;&gt;Node23</title>
<g id="a_edge30_Node000021_Node000023"><a xlink:title=" ">
<path fill="none" stroke="#63b8ff" d="M659.08,-109.75C651.22,-102.03 639.57,-90.6 630.08,-81.28"/>
<polygon fill="#63b8ff" stroke="#63b8ff" points="632.34,-78.6 622.75,-74.09 627.44,-83.59 632.34,-78.6"/>
</a>
</g>
</g>
<!-- Node26&#45;&gt;Node5 -->
<g id="edge39_Node000026_Node000005" class="edge">
<title>Node26&#45;&gt;Node5</title>
<g id="a_edge39_Node000026_Node000005"><a xlink:title=" ">
<path fill="none" stroke="#63b8ff" d="M1526.04,-164.74C1502.35,-138.65 1432.01,-61.17 1400.98,-27"/>
<polygon fill="#63b8ff" stroke="#63b8ff" points="1403.31,-24.36 1394,-19.31 1398.13,-29.06 1403.31,-24.36"/>
</a>
</g>
</g>
<!-- Node27 -->
<g id="Node000027" class="node">
<title>Node27</title>
<g id="a_Node000027"><a xlink:href="ObjectListModelBase_8h.html" target="_top" xlink:title=" ">
<polygon fill="white" stroke="#666666" points="1638,-129 1510,-129 1510,-110 1638,-110 1638,-129"/>
<text text-anchor="middle" x="1574" y="-117" font-family="Helvetica,sans-Serif" font-size="10.00">ObjectListModelBase.h</text>
</a>
</g>
</g>
<!-- Node26&#45;&gt;Node27 -->
<g id="edge34_Node000026_Node000027" class="edge">
<title>Node26&#45;&gt;Node27</title>
<g id="a_edge34_Node000026_Node000027"><a xlink:title=" ">
<path fill="none" stroke="#63b8ff" d="M1540.61,-164.75C1546.26,-157.26 1554.54,-146.28 1561.45,-137.13"/>
<polygon fill="#63b8ff" stroke="#63b8ff" points="1564.29,-139.18 1567.52,-129.09 1558.7,-134.96 1564.29,-139.18"/>
</a>
</g>
</g>
<!-- Node28 -->
<g id="Node000028" class="node">
<title>Node28</title>
<g id="a_Node000028"><a xlink:href="ObjectItemModelBase_8h.html" target="_top" xlink:title=" ">
<polygon fill="white" stroke="#666666" points="1642,-74 1508,-74 1508,-55 1642,-55 1642,-74"/>
<text text-anchor="middle" x="1575" y="-62" font-family="Helvetica,sans-Serif" font-size="10.00">ObjectItemModelBase.h</text>
</a>
</g>
</g>
<!-- Node27&#45;&gt;Node28 -->
<g id="edge35_Node000027_Node000028" class="edge">
<title>Node27&#45;&gt;Node28</title>
<g id="a_edge35_Node000027_Node000028"><a xlink:title=" ">
<path fill="none" stroke="#63b8ff" d="M1574.17,-109.75C1574.3,-102.8 1574.48,-92.85 1574.65,-84.13"/>
<polygon fill="#63b8ff" stroke="#63b8ff" points="1578.15,-84.15 1574.84,-74.09 1571.15,-84.02 1578.15,-84.15"/>
</a>
</g>
</g>
<!-- Node28&#45;&gt;Node5 -->
<g id="edge37_Node000028_Node000005" class="edge">
<title>Node28&#45;&gt;Node5</title>
<g id="a_edge37_Node000028_Node000005"><a xlink:title=" ">
<path fill="none" stroke="#63b8ff" d="M1544.63,-54.98C1512.63,-46.01 1462.04,-31.82 1426.62,-21.89"/>
<polygon fill="#63b8ff" stroke="#63b8ff" points="1427.18,-18.41 1416.6,-19.08 1425.29,-25.15 1427.18,-18.41"/>
</a>
</g>
</g>
<!-- Node28&#45;&gt;Node11 -->
<g id="edge38_Node000028_Node000011" class="edge">
<title>Node28&#45;&gt;Node11</title>
<g id="a_edge38_Node000028_Node000011"><a xlink:title=" ">
<path fill="none" stroke="#63b8ff" d="M1507.91,-58.61C1380.94,-49.35 1104.69,-29.21 952.97,-18.15"/>
<polygon fill="#63b8ff" stroke="#63b8ff" points="952.94,-14.64 942.72,-17.41 952.44,-21.62 952.94,-14.64"/>
</a>
</g>
</g>
<!-- Node29 -->
<g id="Node000029" class="node">
<title>Node29</title>
<g id="a_Node000029"><a xlink:title=" ">
<polygon fill="#e0e0e0" stroke="#999999" points="1652,-19 1498,-19 1498,0 1652,0 1652,-19"/>
<text text-anchor="middle" x="1575" y="-7" font-family="Helvetica,sans-Serif" font-size="10.00">QtCore/QAbstractItemModel</text>
</a>
</g>
</g>
<!-- Node28&#45;&gt;Node29 -->
<g id="edge36_Node000028_Node000029" class="edge">
<title>Node28&#45;&gt;Node29</title>
<g id="a_edge36_Node000028_Node000029"><a xlink:title=" ">
<path fill="none" stroke="#63b8ff" d="M1575,-54.75C1575,-47.8 1575,-37.85 1575,-29.13"/>
<polygon fill="#63b8ff" stroke="#63b8ff" points="1578.5,-29.09 1575,-19.09 1571.5,-29.09 1578.5,-29.09"/>
</a>
</g>
</g>
<!-- Node31&#45;&gt;Node4 -->
<g id="edge54_Node000031_Node000004" class="edge">
<title>Node31&#45;&gt;Node4</title>
<g id="a_edge54_Node000031_Node000004"><a xlink:title=" ">
<path fill="none" stroke="#63b8ff" d="M554.31,-164.98C625.1,-153.88 746.75,-134.81 805.01,-125.67"/>
<polygon fill="#63b8ff" stroke="#63b8ff" points="805.79,-129.09 815.13,-124.09 804.71,-122.18 805.79,-129.09"/>
</a>
</g>
</g>
<!-- Node31&#45;&gt;Node5 -->
<g id="edge48_Node000031_Node000005" class="edge">
<title>Node31&#45;&gt;Node5</title>
<g id="a_edge48_Node000031_Node000005"><a xlink:title=" ">
<path fill="none" stroke="#63b8ff" d="M559.29,-168.62C632.64,-162.07 761.17,-148.89 870,-129 904.67,-122.66 912.33,-116.38 947,-110 1076.47,-86.19 1114.03,-108.77 1241,-74 1285.1,-61.92 1333.13,-38.72 1361.35,-23.96"/>
<polygon fill="#63b8ff" stroke="#63b8ff" points="1363.27,-26.9 1370.46,-19.12 1359.99,-20.71 1363.27,-26.9"/>
</a>
</g>
</g>
<!-- Node31&#45;&gt;Node7 -->
<g id="edge50_Node000031_Node000007" class="edge">
<title>Node31&#45;&gt;Node7</title>
<g id="a_edge50_Node000031_Node000007"><a xlink:title=" ">
<path fill="none" stroke="#63b8ff" d="M440.91,-167.4C404.83,-161.63 358.89,-150.47 323,-129 279.38,-102.91 243.05,-53.76 225.79,-27.71"/>
<polygon fill="#63b8ff" stroke="#63b8ff" points="228.69,-25.75 220.32,-19.25 222.81,-29.55 228.69,-25.75"/>
</a>
</g>
</g>
<!-- Node31&#45;&gt;Node9 -->
<g id="edge51_Node000031_Node000009" class="edge">
<title>Node31&#45;&gt;Node9</title>
<g id="a_edge51_Node000031_Node000009"><a xlink:title=" ">
<path fill="none" stroke="#63b8ff" d="M559,-168.69C609.42,-163.19 683.23,-151.82 744,-129 804.08,-106.44 807.9,-77.52 868,-55 931.12,-31.35 1008.19,-20.02 1059.05,-14.76"/>
<polygon fill="#63b8ff" stroke="#63b8ff" points="1059.57,-18.23 1069.18,-13.76 1058.88,-11.26 1059.57,-18.23"/>
</a>
</g>
</g>
<!-- Node31&#45;&gt;Node11 -->
<g id="edge53_Node000031_Node000011" class="edge">
<title>Node31&#45;&gt;Node11</title>
<g id="a_edge53_Node000031_Node000011"><a xlink:title=" ">
<path fill="none" stroke="#63b8ff" d="M507.21,-164.77C514.06,-156.12 524.3,-142.28 531,-129 546.63,-98 529.41,-77.31 556,-55 571.07,-42.36 672.97,-28.88 752.2,-20.12"/>
<polygon fill="#63b8ff" stroke="#63b8ff" points="752.68,-23.59 762.24,-19.02 751.92,-16.63 752.68,-23.59"/>
</a>
</g>
</g>
<!-- Node31&#45;&gt;Node12 -->
<g id="edge55_Node000031_Node000012" class="edge">
<title>Node31&#45;&gt;Node12</title>
<g id="a_edge55_Node000031_Node000012"><a xlink:title=" ">
<path fill="none" stroke="#63b8ff" d="M505.7,-164.93C513.27,-152.38 524.73,-128.51 516,-110 509.99,-97.26 498.34,-86.92 487.39,-79.44"/>
<polygon fill="#63b8ff" stroke="#63b8ff" points="489.21,-76.44 478.89,-74.05 485.46,-82.36 489.21,-76.44"/>
</a>
</g>
</g>
<!-- Node31&#45;&gt;Node21 -->
<g id="edge57_Node000031_Node000021" class="edge">
<title>Node31&#45;&gt;Node21</title>
<g id="a_edge57_Node000031_Node000021"><a xlink:title=" ">
<path fill="none" stroke="#63b8ff" d="M526.99,-164.98C555.2,-156.09 599.64,-142.07 631.08,-132.15"/>
<polygon fill="#63b8ff" stroke="#63b8ff" points="632.31,-135.43 640.8,-129.08 630.21,-128.75 632.31,-135.43"/>
</a>
</g>
</g>
<!-- Node32 -->
<g id="Node000032" class="node">
<title>Node32</title>
<g id="a_Node000032"><a xlink:title=" ">
<polygon fill="#e0e0e0" stroke="#999999" points="406.5,-129 331.5,-129 331.5,-110 406.5,-110 406.5,-129"/>
<text text-anchor="middle" x="369" y="-117" font-family="Helvetica,sans-Serif" font-size="10.00">QtCore/QDir</text>
</a>
</g>
</g>
<!-- Node31&#45;&gt;Node32 -->
<g id="edge47_Node000031_Node000032" class="edge">
<title>Node31&#45;&gt;Node32</title>
<g id="a_edge47_Node000031_Node000032"><a xlink:title=" ">
<path fill="none" stroke="#63b8ff" d="M478.95,-164.98C457.59,-156.34 424.3,-142.87 399.94,-133.02"/>
<polygon fill="#63b8ff" stroke="#63b8ff" points="401.01,-129.68 390.43,-129.17 398.39,-136.17 401.01,-129.68"/>
</a>
</g>
</g>
<!-- Node33 -->
<g id="Node000033" class="node">
<title>Node33</title>
<g id="a_Node000033"><a xlink:title=" ">
<polygon fill="#e0e0e0" stroke="#999999" points="507,-129 425,-129 425,-110 507,-110 507,-129"/>
<text text-anchor="middle" x="466" y="-117" font-family="Helvetica,sans-Serif" font-size="10.00">QtCore/QMap</text>
</a>
</g>
</g>
<!-- Node31&#45;&gt;Node33 -->
<g id="edge49_Node000031_Node000033" class="edge">
<title>Node31&#45;&gt;Node33</title>
<g id="a_edge49_Node000031_Node000033"><a xlink:title=" ">
<path fill="none" stroke="#63b8ff" d="M494.39,-164.75C489.68,-157.42 482.83,-146.73 477.03,-137.7"/>
<polygon fill="#63b8ff" stroke="#63b8ff" points="479.86,-135.62 471.51,-129.09 473.96,-139.4 479.86,-135.62"/>
</a>
</g>
</g>
<!-- Node34 -->
<g id="Node000034" class="node">
<title>Node34</title>
<g id="a_Node000034"><a xlink:title=" ">
<polygon fill="#e0e0e0" stroke="#999999" points="155.5,-129 66.5,-129 66.5,-110 155.5,-110 155.5,-129"/>
<text text-anchor="middle" x="111" y="-117" font-family="Helvetica,sans-Serif" font-size="10.00">QtCore/QTimer</text>
</a>
</g>
</g>
<!-- Node31&#45;&gt;Node34 -->
<g id="edge52_Node000031_Node000034" class="edge">
<title>Node31&#45;&gt;Node34</title>
<g id="a_edge52_Node000031_Node000034"><a xlink:title=" ">
<path fill="none" stroke="#63b8ff" d="M440.75,-166.15C375.74,-157.97 268.02,-144.1 165.72,-129.22"/>
<polygon fill="#63b8ff" stroke="#63b8ff" points="165.92,-125.71 155.52,-127.73 164.91,-132.64 165.92,-125.71"/>
</a>
</g>
</g>
<!-- Node35 -->
<g id="Node000035" class="node">
<title>Node35</title>
<g id="a_Node000035"><a xlink:title=" ">
<polygon fill="#e0e0e0" stroke="#999999" points="274.5,-129 173.5,-129 173.5,-110 274.5,-110 274.5,-129"/>
<text text-anchor="middle" x="224" y="-117" font-family="Helvetica,sans-Serif" font-size="10.00">MAVLinkEnums.h</text>
</a>
</g>
</g>
<!-- Node31&#45;&gt;Node35 -->
<g id="edge56_Node000031_Node000035" class="edge">
<title>Node31&#45;&gt;Node35</title>
<g id="a_edge56_Node000031_Node000035"><a xlink:title=" ">
<path fill="none" stroke="#63b8ff" d="M455.66,-164.98C407.51,-155.74 330.58,-140.97 278.71,-131.01"/>
<polygon fill="#63b8ff" stroke="#63b8ff" points="279.17,-127.53 268.69,-129.08 277.85,-134.41 279.17,-127.53"/>
</a>
</g>
</g>
</g>
</svg>
