<?xml version="1.0" encoding="UTF-8" standalone="no"?>
<!DOCTYPE svg PUBLIC "-//W3C//DTD SVG 1.1//EN"
 "http://www.w3.org/Graphics/SVG/1.1/DTD/svg11.dtd">
<!-- Generated by graphviz version 2.43.0 (0)
 -->
<!-- Title: src/AutoPilotPlugins/PX4/ActuatorComponent.h Pages: 1 -->
<svg width="430pt" height="170pt"
 viewBox="0.00 0.00 429.50 170.00" xmlns="http://www.w3.org/2000/svg" xmlns:xlink="http://www.w3.org/1999/xlink">
<g id="graph0" class="graph" transform="scale(1 1) rotate(0) translate(4 166)">
<title>src/AutoPilotPlugins/PX4/ActuatorComponent.h</title>
<!-- Node1 -->
<g id="Node000001" class="node">
<title>Node1</title>
<g id="a_Node000001"><a xlink:title=" ">
<polygon fill="#999999" stroke="#666666" points="254,-162 106,-162 106,-132 254,-132 254,-162"/>
<text text-anchor="start" x="114" y="-150" font-family="Helvetica,sans-Serif" font-size="10.00">src/AutoPilotPlugins</text>
<text text-anchor="middle" x="180" y="-139" font-family="Helvetica,sans-Serif" font-size="10.00">/PX4/ActuatorComponent.h</text>
</a>
</g>
</g>
<!-- Node2 -->
<g id="Node000002" class="node">
<title>Node2</title>
<g id="a_Node000002"><a xlink:href="ActuatorComponent_8cc.html" target="_top" xlink:title=" ">
<polygon fill="white" stroke="#666666" points="152,-96 0,-96 0,-66 152,-66 152,-96"/>
<text text-anchor="start" x="8" y="-84" font-family="Helvetica,sans-Serif" font-size="10.00">src/AutoPilotPlugins</text>
<text text-anchor="middle" x="76" y="-73" font-family="Helvetica,sans-Serif" font-size="10.00">/PX4/ActuatorComponent.cc</text>
</a>
</g>
</g>
<!-- Node1&#45;&gt;Node2 -->
<g id="edge1_Node000001_Node000002" class="edge">
<title>Node1&#45;&gt;Node2</title>
<g id="a_edge1_Node000001_Node000002"><a xlink:title=" ">
<path fill="none" stroke="#63b8ff" d="M148.63,-126.69C132.57,-116.82 113.39,-105.01 98.77,-96.01"/>
<polygon fill="#63b8ff" stroke="#63b8ff" points="146.83,-129.69 157.18,-131.95 150.49,-123.73 146.83,-129.69"/>
</a>
</g>
</g>
<!-- Node3 -->
<g id="Node000003" class="node">
<title>Node3</title>
<g id="a_Node000003"><a xlink:href="PX4AutoPilotPlugin_8cc.html" target="_top" xlink:title=" ">
<polygon fill="white" stroke="#666666" points="254,-30 106,-30 106,0 254,0 254,-30"/>
<text text-anchor="start" x="114" y="-18" font-family="Helvetica,sans-Serif" font-size="10.00">src/AutoPilotPlugins</text>
<text text-anchor="middle" x="180" y="-7" font-family="Helvetica,sans-Serif" font-size="10.00">/PX4/PX4AutoPilotPlugin.cc</text>
</a>
</g>
</g>
<!-- Node1&#45;&gt;Node3 -->
<g id="edge2_Node000001_Node000003" class="edge">
<title>Node1&#45;&gt;Node3</title>
<g id="a_edge2_Node000001_Node000003"><a xlink:title=" ">
<path fill="none" stroke="#63b8ff" d="M180,-121.68C180,-94.7 180,-52.11 180,-30.14"/>
<polygon fill="#63b8ff" stroke="#63b8ff" points="176.5,-121.84 180,-131.84 183.5,-121.84 176.5,-121.84"/>
</a>
</g>
</g>
<!-- Node4 -->
<g id="Node000004" class="node">
<title>Node4</title>
<g id="a_Node000004"><a xlink:href="PX4AutoPilotPlugin_8h.html" target="_top" xlink:title=" ">
<polygon fill="white" stroke="#666666" points="351.5,-96 208.5,-96 208.5,-66 351.5,-66 351.5,-96"/>
<text text-anchor="start" x="216.5" y="-84" font-family="Helvetica,sans-Serif" font-size="10.00">src/AutoPilotPlugins</text>
<text text-anchor="middle" x="280" y="-73" font-family="Helvetica,sans-Serif" font-size="10.00">/PX4/PX4AutoPilotPlugin.h</text>
</a>
</g>
</g>
<!-- Node1&#45;&gt;Node4 -->
<g id="edge3_Node000001_Node000004" class="edge">
<title>Node1&#45;&gt;Node4</title>
<g id="a_edge3_Node000001_Node000004"><a xlink:title=" ">
<path fill="none" stroke="#63b8ff" d="M210.78,-126.3C226,-116.56 244.03,-105.02 257.87,-96.16"/>
<polygon fill="#63b8ff" stroke="#63b8ff" points="208.73,-123.46 202.19,-131.8 212.5,-129.35 208.73,-123.46"/>
</a>
</g>
</g>
<!-- Node4&#45;&gt;Node3 -->
<g id="edge4_Node000004_Node000003" class="edge">
<title>Node4&#45;&gt;Node3</title>
<g id="a_edge4_Node000004_Node000003"><a xlink:title=" ">
<path fill="none" stroke="#63b8ff" d="M249.22,-60.3C234,-50.56 215.97,-39.02 202.13,-30.16"/>
<polygon fill="#63b8ff" stroke="#63b8ff" points="247.5,-63.35 257.81,-65.8 251.27,-57.46 247.5,-63.35"/>
</a>
</g>
</g>
<!-- Node5 -->
<g id="Node000005" class="node">
<title>Node5</title>
<g id="a_Node000005"><a xlink:href="PX4FirmwarePlugin_8cc.html" target="_top" xlink:title=" ">
<polygon fill="white" stroke="#666666" points="421.5,-30 272.5,-30 272.5,0 421.5,0 421.5,-30"/>
<text text-anchor="start" x="280.5" y="-18" font-family="Helvetica,sans-Serif" font-size="10.00">src/FirmwarePlugin</text>
<text text-anchor="middle" x="347" y="-7" font-family="Helvetica,sans-Serif" font-size="10.00">/PX4/PX4FirmwarePlugin.cc</text>
</a>
</g>
</g>
<!-- Node4&#45;&gt;Node5 -->
<g id="edge5_Node000004_Node000005" class="edge">
<title>Node4&#45;&gt;Node5</title>
<g id="a_edge5_Node000004_Node000005"><a xlink:title=" ">
<path fill="none" stroke="#63b8ff" d="M302.35,-58.65C312.17,-49.27 323.42,-38.53 332.17,-30.16"/>
<polygon fill="#63b8ff" stroke="#63b8ff" points="299.68,-56.36 294.87,-65.8 304.52,-61.42 299.68,-56.36"/>
</a>
</g>
</g>
</g>
</svg>
