<?xml version="1.0" encoding="UTF-8" standalone="no"?>
<!DOCTYPE svg PUBLIC "-//W3C//DTD SVG 1.1//EN"
 "http://www.w3.org/Graphics/SVG/1.1/DTD/svg11.dtd">
<!-- Generated by graphviz version 2.43.0 (0)
 -->
<!-- Title: src/ADSB/ADSBVehicleManager.cc Pages: 1 -->
<svg width="2015pt" height="357pt"
 viewBox="0.00 0.00 2014.50 357.00" xmlns="http://www.w3.org/2000/svg" xmlns:xlink="http://www.w3.org/1999/xlink">
<g id="graph0" class="graph" transform="scale(1 1) rotate(0) translate(4 353)">
<title>src/ADSB/ADSBVehicleManager.cc</title>
<!-- Node1 -->
<g id="Node000001" class="node">
<title>Node1</title>
<g id="a_Node000001"><a xlink:title=" ">
<polygon fill="#999999" stroke="#666666" points="1434.5,-349 1252.5,-349 1252.5,-330 1434.5,-330 1434.5,-349"/>
<text text-anchor="middle" x="1343.5" y="-337" font-family="Helvetica,sans-Serif" font-size="10.00">src/ADSB/ADSBVehicleManager.cc</text>
</a>
</g>
</g>
<!-- Node2 -->
<g id="Node000002" class="node">
<title>Node2</title>
<g id="a_Node000002"><a xlink:href="ADSBVehicleManager_8h.html" target="_top" xlink:title=" ">
<polygon fill="white" stroke="#666666" points="1346.5,-294 1216.5,-294 1216.5,-275 1346.5,-275 1346.5,-294"/>
<text text-anchor="middle" x="1281.5" y="-282" font-family="Helvetica,sans-Serif" font-size="10.00">ADSBVehicleManager.h</text>
</a>
</g>
</g>
<!-- Node1&#45;&gt;Node2 -->
<g id="edge1_Node000001_Node000002" class="edge">
<title>Node1&#45;&gt;Node2</title>
<g id="a_edge1_Node000001_Node000002"><a xlink:title=" ">
<path fill="none" stroke="#63b8ff" d="M1333.54,-329.98C1324.37,-322.15 1310.56,-310.34 1299.47,-300.86"/>
<polygon fill="#63b8ff" stroke="#63b8ff" points="1301.52,-298.01 1291.64,-294.17 1296.97,-303.33 1301.52,-298.01"/>
</a>
</g>
</g>
<!-- Node11 -->
<g id="Node000011" class="node">
<title>Node11</title>
<g id="a_Node000011"><a xlink:href="MAVLinkLib_8h.html" target="_top" xlink:title=" ">
<polygon fill="white" stroke="#666666" points="1446.5,-294 1364.5,-294 1364.5,-275 1446.5,-275 1446.5,-294"/>
<text text-anchor="middle" x="1405.5" y="-282" font-family="Helvetica,sans-Serif" font-size="10.00">MAVLinkLib.h</text>
</a>
</g>
</g>
<!-- Node1&#45;&gt;Node11 -->
<g id="edge10_Node000001_Node000011" class="edge">
<title>Node1&#45;&gt;Node11</title>
<g id="a_edge10_Node000001_Node000011"><a xlink:title=" ">
<path fill="none" stroke="#63b8ff" d="M1353.46,-329.98C1362.63,-322.15 1376.44,-310.34 1387.53,-300.86"/>
<polygon fill="#63b8ff" stroke="#63b8ff" points="1390.03,-303.33 1395.36,-294.17 1385.48,-298.01 1390.03,-303.33"/>
</a>
</g>
</g>
<!-- Node14 -->
<g id="Node000014" class="node">
<title>Node14</title>
<g id="a_Node000014"><a xlink:href="QGC_8h.html" target="_top" xlink:title=" ">
<polygon fill="white" stroke="#666666" points="1512,-294 1465,-294 1465,-275 1512,-275 1512,-294"/>
<text text-anchor="middle" x="1488.5" y="-282" font-family="Helvetica,sans-Serif" font-size="10.00">QGC.h</text>
</a>
</g>
</g>
<!-- Node1&#45;&gt;Node14 -->
<g id="edge14_Node000001_Node000014" class="edge">
<title>Node1&#45;&gt;Node14</title>
<g id="a_edge14_Node000001_Node000014"><a xlink:title=" ">
<path fill="none" stroke="#63b8ff" d="M1366.8,-329.98C1390.75,-321.23 1428.28,-307.51 1455.33,-297.62"/>
<polygon fill="#63b8ff" stroke="#63b8ff" points="1456.59,-300.89 1464.78,-294.17 1454.19,-294.32 1456.59,-300.89"/>
</a>
</g>
</g>
<!-- Node16 -->
<g id="Node000016" class="node">
<title>Node16</title>
<g id="a_Node000016"><a xlink:href="SettingsManager_8h.html" target="_top" xlink:title=" ">
<polygon fill="white" stroke="#666666" points="225,-74 118,-74 118,-55 225,-55 225,-74"/>
<text text-anchor="middle" x="171.5" y="-62" font-family="Helvetica,sans-Serif" font-size="10.00">SettingsManager.h</text>
</a>
</g>
</g>
<!-- Node1&#45;&gt;Node16 -->
<g id="edge16_Node000001_Node000016" class="edge">
<title>Node1&#45;&gt;Node16</title>
<g id="a_edge16_Node000001_Node000016"><a xlink:title=" ">
<path fill="none" stroke="#63b8ff" d="M1252.19,-338.45C1021.05,-337.76 417.18,-332.24 220.5,-294 138.46,-278.05 43.5,-314.08 43.5,-230.5 43.5,-230.5 43.5,-230.5 43.5,-173.5 43.5,-144.04 42.7,-131.81 62.5,-110 76.9,-94.14 97.77,-83.81 117.41,-77.13"/>
<polygon fill="#63b8ff" stroke="#63b8ff" points="118.72,-80.39 127.22,-74.06 116.63,-73.71 118.72,-80.39"/>
</a>
</g>
</g>
<!-- Node20 -->
<g id="Node000020" class="node">
<title>Node20</title>
<g id="a_Node000020"><a xlink:href="ADSBVehicleManagerSettings_8h.html" target="_top" xlink:title=" ">
<polygon fill="white" stroke="#666666" points="639.5,-294 469.5,-294 469.5,-275 639.5,-275 639.5,-294"/>
<text text-anchor="middle" x="554.5" y="-282" font-family="Helvetica,sans-Serif" font-size="10.00">ADSBVehicleManagerSettings.h</text>
</a>
</g>
</g>
<!-- Node1&#45;&gt;Node20 -->
<g id="edge21_Node000001_Node000020" class="edge">
<title>Node1&#45;&gt;Node20</title>
<g id="a_edge21_Node000001_Node000020"><a xlink:title=" ">
<path fill="none" stroke="#63b8ff" d="M1252.22,-332.37C1101.74,-322.26 803.03,-302.19 649.89,-291.91"/>
<polygon fill="#63b8ff" stroke="#63b8ff" points="649.78,-288.39 639.57,-291.21 649.31,-295.38 649.78,-288.39"/>
</a>
</g>
</g>
<!-- Node30 -->
<g id="Node000030" class="node">
<title>Node30</title>
<g id="a_Node000030"><a xlink:href="ADSBTCPLink_8h.html" target="_top" xlink:title=" ">
<polygon fill="white" stroke="#666666" points="1198,-294 1107,-294 1107,-275 1198,-275 1198,-294"/>
<text text-anchor="middle" x="1152.5" y="-282" font-family="Helvetica,sans-Serif" font-size="10.00">ADSBTCPLink.h</text>
</a>
</g>
</g>
<!-- Node1&#45;&gt;Node30 -->
<g id="edge40_Node000001_Node000030" class="edge">
<title>Node1&#45;&gt;Node30</title>
<g id="a_edge40_Node000001_Node000030"><a xlink:title=" ">
<path fill="none" stroke="#63b8ff" d="M1312.81,-329.98C1280.33,-320.97 1228.9,-306.7 1193.09,-296.76"/>
<polygon fill="#63b8ff" stroke="#63b8ff" points="1194,-293.38 1183.43,-294.08 1192.13,-300.13 1194,-293.38"/>
</a>
</g>
</g>
<!-- Node32 -->
<g id="Node000032" class="node">
<title>Node32</title>
<g id="a_Node000032"><a xlink:href="ADSBVehicle_8h.html" target="_top" xlink:title=" ">
<polygon fill="white" stroke="#666666" points="901.5,-294 813.5,-294 813.5,-275 901.5,-275 901.5,-294"/>
<text text-anchor="middle" x="857.5" y="-282" font-family="Helvetica,sans-Serif" font-size="10.00">ADSBVehicle.h</text>
</a>
</g>
</g>
<!-- Node1&#45;&gt;Node32 -->
<g id="edge44_Node000001_Node000032" class="edge">
<title>Node1&#45;&gt;Node32</title>
<g id="a_edge44_Node000001_Node000032"><a xlink:title=" ">
<path fill="none" stroke="#63b8ff" d="M1265.42,-329.98C1166.28,-319.17 997.79,-300.8 911.68,-291.41"/>
<polygon fill="#63b8ff" stroke="#63b8ff" points="911.92,-287.91 901.6,-290.31 911.16,-294.87 911.92,-287.91"/>
</a>
</g>
</g>
<!-- Node35 -->
<g id="Node000035" class="node">
<title>Node35</title>
<g id="a_Node000035"><a xlink:href="QmlObjectListModel_8h.html" target="_top" xlink:title=" ">
<polygon fill="white" stroke="#666666" points="355,-294 230,-294 230,-275 355,-275 355,-294"/>
<text text-anchor="middle" x="292.5" y="-282" font-family="Helvetica,sans-Serif" font-size="10.00">QmlObjectListModel.h</text>
</a>
</g>
</g>
<!-- Node1&#45;&gt;Node35 -->
<g id="edge51_Node000001_Node000035" class="edge">
<title>Node1&#45;&gt;Node35</title>
<g id="a_edge51_Node000001_Node000035"><a xlink:title=" ">
<path fill="none" stroke="#63b8ff" d="M1252.29,-333.91C1092.08,-325.84 749.66,-308.6 460.5,-294 429.32,-292.43 394.89,-290.68 365.36,-289.19"/>
<polygon fill="#63b8ff" stroke="#63b8ff" points="365.29,-285.68 355.13,-288.67 364.94,-292.67 365.29,-285.68"/>
</a>
</g>
</g>
<!-- Node39 -->
<g id="Node000039" class="node">
<title>Node39</title>
<g id="a_Node000039"><a xlink:href="QGCLoggingCategory_8h.html" target="_top" xlink:title=" ">
<polygon fill="white" stroke="#666666" points="1658.5,-294 1530.5,-294 1530.5,-275 1658.5,-275 1658.5,-294"/>
<text text-anchor="middle" x="1594.5" y="-282" font-family="Helvetica,sans-Serif" font-size="10.00">QGCLoggingCategory.h</text>
</a>
</g>
</g>
<!-- Node1&#45;&gt;Node39 -->
<g id="edge56_Node000001_Node000039" class="edge">
<title>Node1&#45;&gt;Node39</title>
<g id="a_edge56_Node000001_Node000039"><a xlink:title=" ">
<path fill="none" stroke="#63b8ff" d="M1383.83,-329.98C1427.34,-320.8 1496.7,-306.15 1543.85,-296.19"/>
<polygon fill="#63b8ff" stroke="#63b8ff" points="1544.8,-299.57 1553.86,-294.08 1543.35,-292.72 1544.8,-299.57"/>
</a>
</g>
</g>
<!-- Node41 -->
<g id="Node000041" class="node">
<title>Node41</title>
<g id="a_Node000041"><a xlink:title=" ">
<polygon fill="#e0e0e0" stroke="#999999" points="1820,-294 1677,-294 1677,-275 1820,-275 1820,-294"/>
<text text-anchor="middle" x="1748.5" y="-282" font-family="Helvetica,sans-Serif" font-size="10.00">QtCore/QApplicationStatic</text>
</a>
</g>
</g>
<!-- Node1&#45;&gt;Node41 -->
<g id="edge58_Node000001_Node000041" class="edge">
<title>Node1&#45;&gt;Node41</title>
<g id="a_edge58_Node000001_Node000041"><a xlink:title=" ">
<path fill="none" stroke="#63b8ff" d="M1408.57,-329.98C1480.79,-320.53 1597.18,-305.3 1673.26,-295.35"/>
<polygon fill="#63b8ff" stroke="#63b8ff" points="1673.79,-298.81 1683.26,-294.04 1672.89,-291.87 1673.79,-298.81"/>
</a>
</g>
</g>
<!-- Node42 -->
<g id="Node000042" class="node">
<title>Node42</title>
<g id="a_Node000042"><a xlink:title=" ">
<polygon fill="#e0e0e0" stroke="#999999" points="1927,-294 1838,-294 1838,-275 1927,-275 1927,-294"/>
<text text-anchor="middle" x="1882.5" y="-282" font-family="Helvetica,sans-Serif" font-size="10.00">QtCore/QTimer</text>
</a>
</g>
</g>
<!-- Node1&#45;&gt;Node42 -->
<g id="edge59_Node000001_Node000042" class="edge">
<title>Node1&#45;&gt;Node42</title>
<g id="a_edge59_Node000001_Node000042"><a xlink:title=" ">
<path fill="none" stroke="#63b8ff" d="M1434.61,-332.01C1530.13,-324.78 1684.81,-311.89 1827.73,-294.15"/>
<polygon fill="#63b8ff" stroke="#63b8ff" points="1828.51,-297.58 1838,-292.86 1827.64,-290.63 1828.51,-297.58"/>
</a>
</g>
</g>
<!-- Node43 -->
<g id="Node000043" class="node">
<title>Node43</title>
<g id="a_Node000043"><a xlink:title=" ">
<polygon fill="#e0e0e0" stroke="#999999" points="2006.5,-294 1944.5,-294 1944.5,-275 2006.5,-275 2006.5,-294"/>
<text text-anchor="middle" x="1975.5" y="-282" font-family="Helvetica,sans-Serif" font-size="10.00">qassert.h</text>
</a>
</g>
</g>
<!-- Node1&#45;&gt;Node43 -->
<g id="edge60_Node000001_Node000043" class="edge">
<title>Node1&#45;&gt;Node43</title>
<g id="a_edge60_Node000001_Node000043"><a xlink:title=" ">
<path fill="none" stroke="#63b8ff" d="M1434.6,-335.61C1549.28,-331.09 1752.38,-320.15 1934.46,-294.12"/>
<polygon fill="#63b8ff" stroke="#63b8ff" points="1935.1,-297.56 1944.49,-292.67 1934.09,-290.64 1935.1,-297.56"/>
</a>
</g>
</g>
<!-- Node3 -->
<g id="Node000003" class="node">
<title>Node3</title>
<g id="a_Node000003"><a xlink:title=" ">
<polygon fill="#e0e0e0" stroke="#999999" points="1041.5,-19 949.5,-19 949.5,0 1041.5,0 1041.5,-19"/>
<text text-anchor="middle" x="995.5" y="-7" font-family="Helvetica,sans-Serif" font-size="10.00">QtCore/QObject</text>
</a>
</g>
</g>
<!-- Node2&#45;&gt;Node3 -->
<g id="edge2_Node000002_Node000003" class="edge">
<title>Node2&#45;&gt;Node3</title>
<g id="a_edge2_Node000002_Node000003"><a xlink:title=" ">
<path fill="none" stroke="#63b8ff" d="M1281.5,-274.82C1281.5,-256.48 1281.5,-212.44 1281.5,-175.5 1281.5,-175.5 1281.5,-175.5 1281.5,-118.5 1281.5,-83.39 1264.27,-73.62 1234.5,-55 1204.73,-36.38 1112.71,-23.17 1051.92,-16.2"/>
<polygon fill="#63b8ff" stroke="#63b8ff" points="1052.03,-12.69 1041.71,-15.05 1051.25,-19.65 1052.03,-12.69"/>
</a>
</g>
</g>
<!-- Node4 -->
<g id="Node000004" class="node">
<title>Node4</title>
<g id="a_Node000004"><a xlink:href="ADSB_8h.html" target="_top" xlink:title=" ">
<polygon fill="white" stroke="#666666" points="1179,-239 1126,-239 1126,-220 1179,-220 1179,-239"/>
<text text-anchor="middle" x="1152.5" y="-227" font-family="Helvetica,sans-Serif" font-size="10.00">ADSB.h</text>
</a>
</g>
</g>
<!-- Node2&#45;&gt;Node4 -->
<g id="edge3_Node000002_Node000004" class="edge">
<title>Node2&#45;&gt;Node4</title>
<g id="a_edge3_Node000002_Node000004"><a xlink:title=" ">
<path fill="none" stroke="#63b8ff" d="M1260.77,-274.98C1239.74,-266.34 1206.95,-252.87 1182.96,-243.02"/>
<polygon fill="#63b8ff" stroke="#63b8ff" points="1184.18,-239.73 1173.6,-239.17 1181.52,-246.21 1184.18,-239.73"/>
</a>
</g>
</g>
<!-- Node8 -->
<g id="Node000008" class="node">
<title>Node8</title>
<g id="a_Node000008"><a xlink:href="MAVLinkMessageType_8h.html" target="_top" xlink:title=" ">
<polygon fill="white" stroke="#666666" points="1443.5,-239 1309.5,-239 1309.5,-220 1443.5,-220 1443.5,-239"/>
<text text-anchor="middle" x="1376.5" y="-227" font-family="Helvetica,sans-Serif" font-size="10.00">MAVLinkMessageType.h</text>
</a>
</g>
</g>
<!-- Node2&#45;&gt;Node8 -->
<g id="edge7_Node000002_Node000008" class="edge">
<title>Node2&#45;&gt;Node8</title>
<g id="a_edge7_Node000002_Node000008"><a xlink:title=" ">
<path fill="none" stroke="#63b8ff" d="M1296.76,-274.98C1311.63,-266.69 1334.48,-253.94 1351.92,-244.22"/>
<polygon fill="#63b8ff" stroke="#63b8ff" points="1353.93,-247.1 1360.96,-239.17 1350.52,-240.99 1353.93,-247.1"/>
</a>
</g>
</g>
<!-- Node5 -->
<g id="Node000005" class="node">
<title>Node5</title>
<g id="a_Node000005"><a xlink:title=" ">
<polygon fill="#e0e0e0" stroke="#999999" points="1089,-184 988,-184 988,-165 1089,-165 1089,-184"/>
<text text-anchor="middle" x="1038.5" y="-172" font-family="Helvetica,sans-Serif" font-size="10.00">MAVLinkEnums.h</text>
</a>
</g>
</g>
<!-- Node4&#45;&gt;Node5 -->
<g id="edge4_Node000004_Node000005" class="edge">
<title>Node4&#45;&gt;Node5</title>
<g id="a_edge4_Node000004_Node000005"><a xlink:title=" ">
<path fill="none" stroke="#63b8ff" d="M1134.18,-219.98C1115.84,-211.46 1087.39,-198.23 1066.27,-188.41"/>
<polygon fill="#63b8ff" stroke="#63b8ff" points="1067.69,-185.21 1057.15,-184.17 1064.74,-191.56 1067.69,-185.21"/>
</a>
</g>
</g>
<!-- Node6 -->
<g id="Node000006" class="node">
<title>Node6</title>
<g id="a_Node000006"><a xlink:title=" ">
<polygon fill="#e0e0e0" stroke="#999999" points="1215.5,-184 1107.5,-184 1107.5,-165 1215.5,-165 1215.5,-184"/>
<text text-anchor="middle" x="1161.5" y="-172" font-family="Helvetica,sans-Serif" font-size="10.00">QtCore/QMetaType</text>
</a>
</g>
</g>
<!-- Node4&#45;&gt;Node6 -->
<g id="edge5_Node000004_Node000006" class="edge">
<title>Node4&#45;&gt;Node6</title>
<g id="a_edge5_Node000004_Node000006"><a xlink:title=" ">
<path fill="none" stroke="#63b8ff" d="M1153.99,-219.75C1155.17,-212.8 1156.86,-202.85 1158.34,-194.13"/>
<polygon fill="#63b8ff" stroke="#63b8ff" points="1161.82,-194.53 1160.04,-184.09 1154.92,-193.36 1161.82,-194.53"/>
</a>
</g>
</g>
<!-- Node7 -->
<g id="Node000007" class="node">
<title>Node7</title>
<g id="a_Node000007"><a xlink:title=" ">
<polygon fill="#e0e0e0" stroke="#999999" points="970,-184 805,-184 805,-165 970,-165 970,-184"/>
<text text-anchor="middle" x="887.5" y="-172" font-family="Helvetica,sans-Serif" font-size="10.00">QtPositioning/QGeoCoordinate</text>
</a>
</g>
</g>
<!-- Node4&#45;&gt;Node7 -->
<g id="edge6_Node000004_Node000007" class="edge">
<title>Node4&#45;&gt;Node7</title>
<g id="a_edge6_Node000004_Node000007"><a xlink:title=" ">
<path fill="none" stroke="#63b8ff" d="M1125.79,-222.07C1122.66,-221.35 1119.51,-220.65 1116.5,-220 1058.03,-207.42 990.82,-194.55 944.41,-185.91"/>
<polygon fill="#63b8ff" stroke="#63b8ff" points="945.01,-182.46 934.54,-184.07 943.73,-189.34 945.01,-182.46"/>
</a>
</g>
</g>
<!-- Node9 -->
<g id="Node000009" class="node">
<title>Node9</title>
<g id="a_Node000009"><a xlink:title=" ">
<polygon fill="#e0e0e0" stroke="#999999" points="1383,-184 1330,-184 1330,-165 1383,-165 1383,-184"/>
<text text-anchor="middle" x="1356.5" y="-172" font-family="Helvetica,sans-Serif" font-size="10.00">stdint.h</text>
</a>
</g>
</g>
<!-- Node8&#45;&gt;Node9 -->
<g id="edge8_Node000008_Node000009" class="edge">
<title>Node8&#45;&gt;Node9</title>
<g id="a_edge8_Node000008_Node000009"><a xlink:title=" ">
<path fill="none" stroke="#63b8ff" d="M1373.2,-219.75C1370.52,-212.65 1366.65,-202.4 1363.31,-193.56"/>
<polygon fill="#63b8ff" stroke="#63b8ff" points="1366.55,-192.21 1359.74,-184.09 1360,-194.68 1366.55,-192.21"/>
</a>
</g>
</g>
<!-- Node10 -->
<g id="Node000010" class="node">
<title>Node10</title>
<g id="a_Node000010"><a xlink:title=" ">
<polygon fill="#e0e0e0" stroke="#999999" points="1499.5,-184 1401.5,-184 1401.5,-165 1499.5,-165 1499.5,-184"/>
<text text-anchor="middle" x="1450.5" y="-172" font-family="Helvetica,sans-Serif" font-size="10.00">mavlink_types.h</text>
</a>
</g>
</g>
<!-- Node8&#45;&gt;Node10 -->
<g id="edge9_Node000008_Node000010" class="edge">
<title>Node8&#45;&gt;Node10</title>
<g id="a_edge9_Node000008_Node000010"><a xlink:title=" ">
<path fill="none" stroke="#63b8ff" d="M1388.39,-219.98C1399.65,-211.92 1416.79,-199.65 1430.21,-190.03"/>
<polygon fill="#63b8ff" stroke="#63b8ff" points="1432.3,-192.84 1438.39,-184.17 1428.23,-187.15 1432.3,-192.84"/>
</a>
</g>
</g>
<!-- Node11&#45;&gt;Node8 -->
<g id="edge11_Node000011_Node000008" class="edge">
<title>Node11&#45;&gt;Node8</title>
<g id="a_edge11_Node000011_Node000008"><a xlink:title=" ">
<path fill="none" stroke="#63b8ff" d="M1400.71,-274.75C1396.74,-267.49 1390.97,-256.95 1386.07,-247.98"/>
<polygon fill="#63b8ff" stroke="#63b8ff" points="1389.07,-246.18 1381.2,-239.09 1382.93,-249.54 1389.07,-246.18"/>
</a>
</g>
</g>
<!-- Node12 -->
<g id="Node000012" class="node">
<title>Node12</title>
<g id="a_Node000012"><a xlink:title=" ">
<polygon fill="#e0e0e0" stroke="#999999" points="1517.5,-239 1461.5,-239 1461.5,-220 1517.5,-220 1517.5,-239"/>
<text text-anchor="middle" x="1489.5" y="-227" font-family="Helvetica,sans-Serif" font-size="10.00">stddef.h</text>
</a>
</g>
</g>
<!-- Node11&#45;&gt;Node12 -->
<g id="edge12_Node000011_Node000012" class="edge">
<title>Node11&#45;&gt;Node12</title>
<g id="a_edge12_Node000011_Node000012"><a xlink:title=" ">
<path fill="none" stroke="#63b8ff" d="M1419,-274.98C1431.9,-266.84 1451.6,-254.41 1466.9,-244.76"/>
<polygon fill="#63b8ff" stroke="#63b8ff" points="1469.17,-247.47 1475.76,-239.17 1465.43,-241.55 1469.17,-247.47"/>
</a>
</g>
</g>
<!-- Node13 -->
<g id="Node000013" class="node">
<title>Node13</title>
<g id="a_Node000013"><a xlink:title=" ">
<polygon fill="#e0e0e0" stroke="#999999" points="1601,-239 1536,-239 1536,-220 1601,-220 1601,-239"/>
<text text-anchor="middle" x="1568.5" y="-227" font-family="Helvetica,sans-Serif" font-size="10.00">mavlink.h</text>
</a>
</g>
</g>
<!-- Node11&#45;&gt;Node13 -->
<g id="edge13_Node000011_Node000013" class="edge">
<title>Node11&#45;&gt;Node13</title>
<g id="a_edge13_Node000011_Node000013"><a xlink:title=" ">
<path fill="none" stroke="#63b8ff" d="M1431.69,-274.98C1458.94,-266.13 1501.8,-252.19 1532.28,-242.28"/>
<polygon fill="#63b8ff" stroke="#63b8ff" points="1533.68,-245.5 1542.11,-239.08 1531.51,-238.85 1533.68,-245.5"/>
</a>
</g>
</g>
<!-- Node15 -->
<g id="Node000015" class="node">
<title>Node15</title>
<g id="a_Node000015"><a xlink:title=" ">
<polygon fill="#e0e0e0" stroke="#999999" points="1711.5,-239 1619.5,-239 1619.5,-220 1711.5,-220 1711.5,-239"/>
<text text-anchor="middle" x="1665.5" y="-227" font-family="Helvetica,sans-Serif" font-size="10.00">QtCore/QtTypes</text>
</a>
</g>
</g>
<!-- Node14&#45;&gt;Node15 -->
<g id="edge15_Node000014_Node000015" class="edge">
<title>Node14&#45;&gt;Node15</title>
<g id="a_edge15_Node000014_Node000015"><a xlink:title=" ">
<path fill="none" stroke="#63b8ff" d="M1512,-276.46C1541.36,-267.67 1591.98,-252.51 1627.03,-242.02"/>
<polygon fill="#63b8ff" stroke="#63b8ff" points="1628.34,-245.28 1636.91,-239.06 1626.33,-238.58 1628.34,-245.28"/>
</a>
</g>
</g>
<!-- Node16&#45;&gt;Node3 -->
<g id="edge17_Node000016_Node000003" class="edge">
<title>Node16&#45;&gt;Node3</title>
<g id="a_edge17_Node000016_Node000003"><a xlink:title=" ">
<path fill="none" stroke="#63b8ff" d="M225.08,-61.04C372.39,-54.19 782.39,-34.42 939.43,-18.86"/>
<polygon fill="#63b8ff" stroke="#63b8ff" points="939.81,-22.34 949.4,-17.84 939.09,-15.38 939.81,-22.34"/>
</a>
</g>
</g>
<!-- Node17 -->
<g id="Node000017" class="node">
<title>Node17</title>
<g id="a_Node000017"><a xlink:title=" ">
<polygon fill="#e0e0e0" stroke="#999999" points="423,-19 234,-19 234,0 423,0 423,-19"/>
<text text-anchor="middle" x="328.5" y="-7" font-family="Helvetica,sans-Serif" font-size="10.00">QtQmlIntegration/QtQmlIntegration</text>
</a>
</g>
</g>
<!-- Node16&#45;&gt;Node17 -->
<g id="edge18_Node000016_Node000017" class="edge">
<title>Node16&#45;&gt;Node17</title>
<g id="a_edge18_Node000016_Node000017"><a xlink:title=" ">
<path fill="none" stroke="#63b8ff" d="M196.72,-54.98C222.86,-46.16 263.9,-32.31 293.23,-22.41"/>
<polygon fill="#63b8ff" stroke="#63b8ff" points="294.72,-25.6 303.08,-19.08 292.48,-18.96 294.72,-25.6"/>
</a>
</g>
</g>
<!-- Node18 -->
<g id="Node000018" class="node">
<title>Node18</title>
<g id="a_Node000018"><a xlink:title=" ">
<polygon fill="#e0e0e0" stroke="#999999" points="113,-19 0,-19 0,0 113,0 113,-19"/>
<text text-anchor="middle" x="56.5" y="-7" font-family="Helvetica,sans-Serif" font-size="10.00">QtCore/QJsonObject</text>
</a>
</g>
</g>
<!-- Node16&#45;&gt;Node18 -->
<g id="edge19_Node000016_Node000018" class="edge">
<title>Node16&#45;&gt;Node18</title>
<g id="a_edge19_Node000016_Node000018"><a xlink:title=" ">
<path fill="none" stroke="#63b8ff" d="M153.02,-54.98C134.52,-46.46 105.82,-33.23 84.52,-23.41"/>
<polygon fill="#63b8ff" stroke="#63b8ff" points="85.86,-20.18 75.31,-19.17 82.93,-26.53 85.86,-20.18"/>
</a>
</g>
</g>
<!-- Node19 -->
<g id="Node000019" class="node">
<title>Node19</title>
<g id="a_Node000019"><a xlink:title=" ">
<polygon fill="#e0e0e0" stroke="#999999" points="213.5,-19 131.5,-19 131.5,0 213.5,0 213.5,-19"/>
<text text-anchor="middle" x="172.5" y="-7" font-family="Helvetica,sans-Serif" font-size="10.00">QtCore/QMap</text>
</a>
</g>
</g>
<!-- Node16&#45;&gt;Node19 -->
<g id="edge20_Node000016_Node000019" class="edge">
<title>Node16&#45;&gt;Node19</title>
<g id="a_edge20_Node000016_Node000019"><a xlink:title=" ">
<path fill="none" stroke="#63b8ff" d="M171.67,-54.75C171.8,-47.8 171.98,-37.85 172.15,-29.13"/>
<polygon fill="#63b8ff" stroke="#63b8ff" points="175.65,-29.15 172.34,-19.09 168.65,-29.02 175.65,-29.15"/>
</a>
</g>
</g>
<!-- Node20&#45;&gt;Node17 -->
<g id="edge22_Node000020_Node000017" class="edge">
<title>Node20&#45;&gt;Node17</title>
<g id="a_edge22_Node000020_Node000017"><a xlink:title=" ">
<path fill="none" stroke="#63b8ff" d="M469.44,-276.46C410.51,-269.98 338.64,-258.37 315.5,-239 292.36,-219.64 291.5,-205.67 291.5,-175.5 291.5,-175.5 291.5,-175.5 291.5,-118.5 291.5,-85.12 307.52,-48.91 318.48,-28.04"/>
<polygon fill="#63b8ff" stroke="#63b8ff" points="321.63,-29.57 323.36,-19.12 315.49,-26.21 321.63,-29.57"/>
</a>
</g>
</g>
<!-- Node21 -->
<g id="Node000021" class="node">
<title>Node21</title>
<g id="a_Node000021"><a xlink:href="SettingsGroup_8h.html" target="_top" xlink:title=" ">
<polygon fill="white" stroke="#666666" points="602,-239 507,-239 507,-220 602,-220 602,-239"/>
<text text-anchor="middle" x="554.5" y="-227" font-family="Helvetica,sans-Serif" font-size="10.00">SettingsGroup.h</text>
</a>
</g>
</g>
<!-- Node20&#45;&gt;Node21 -->
<g id="edge23_Node000020_Node000021" class="edge">
<title>Node20&#45;&gt;Node21</title>
<g id="a_edge23_Node000020_Node000021"><a xlink:title=" ">
<path fill="none" stroke="#63b8ff" d="M554.5,-274.75C554.5,-267.8 554.5,-257.85 554.5,-249.13"/>
<polygon fill="#63b8ff" stroke="#63b8ff" points="558,-249.09 554.5,-239.09 551,-249.09 558,-249.09"/>
</a>
</g>
</g>
<!-- Node22 -->
<g id="Node000022" class="node">
<title>Node22</title>
<g id="a_Node000022"><a xlink:href="SettingsFact_8h.html" target="_top" xlink:title=" ">
<polygon fill="white" stroke="#666666" points="748,-184 663,-184 663,-165 748,-165 748,-184"/>
<text text-anchor="middle" x="705.5" y="-172" font-family="Helvetica,sans-Serif" font-size="10.00">SettingsFact.h</text>
</a>
</g>
</g>
<!-- Node21&#45;&gt;Node22 -->
<g id="edge24_Node000021_Node000022" class="edge">
<title>Node21&#45;&gt;Node22</title>
<g id="a_edge24_Node000021_Node000022"><a xlink:title=" ">
<path fill="none" stroke="#63b8ff" d="M578.76,-219.98C603.82,-211.19 643.13,-197.39 671.33,-187.49"/>
<polygon fill="#63b8ff" stroke="#63b8ff" points="672.52,-190.78 680.8,-184.17 670.2,-184.18 672.52,-190.78"/>
</a>
</g>
</g>
<!-- Node22&#45;&gt;Node3 -->
<g id="edge25_Node000022_Node000003" class="edge">
<title>Node22&#45;&gt;Node3</title>
<g id="a_edge25_Node000022_Node000003"><a xlink:title=" ">
<path fill="none" stroke="#63b8ff" d="M733,-164.96C757,-157.04 792.45,-144.2 821.5,-129 881.33,-97.69 945.43,-49.85 976.48,-25.65"/>
<polygon fill="#63b8ff" stroke="#63b8ff" points="978.97,-28.14 984.67,-19.21 974.64,-22.64 978.97,-28.14"/>
</a>
</g>
</g>
<!-- Node23 -->
<g id="Node000023" class="node">
<title>Node23</title>
<g id="a_Node000023"><a xlink:title=" ">
<polygon fill="#e0e0e0" stroke="#999999" points="931,-19 842,-19 842,0 931,0 931,-19"/>
<text text-anchor="middle" x="886.5" y="-7" font-family="Helvetica,sans-Serif" font-size="10.00">QtCore/QString</text>
</a>
</g>
</g>
<!-- Node22&#45;&gt;Node23 -->
<g id="edge26_Node000022_Node000023" class="edge">
<title>Node22&#45;&gt;Node23</title>
<g id="a_edge26_Node000022_Node000023"><a xlink:title=" ">
<path fill="none" stroke="#63b8ff" d="M726.24,-164.95C758.73,-150.61 821.79,-118.81 859.5,-74 870.58,-60.84 877.72,-42.46 881.86,-28.86"/>
<polygon fill="#63b8ff" stroke="#63b8ff" points="885.25,-29.74 884.56,-19.17 878.51,-27.87 885.25,-29.74"/>
</a>
</g>
</g>
<!-- Node24 -->
<g id="Node000024" class="node">
<title>Node24</title>
<g id="a_Node000024"><a xlink:href="Fact_8h.html" target="_top" xlink:title=" ">
<polygon fill="white" stroke="#666666" points="728,-129 683,-129 683,-110 728,-110 728,-129"/>
<text text-anchor="middle" x="705.5" y="-117" font-family="Helvetica,sans-Serif" font-size="10.00">Fact.h</text>
</a>
</g>
</g>
<!-- Node22&#45;&gt;Node24 -->
<g id="edge27_Node000022_Node000024" class="edge">
<title>Node22&#45;&gt;Node24</title>
<g id="a_edge27_Node000022_Node000024"><a xlink:title=" ">
<path fill="none" stroke="#63b8ff" d="M705.5,-164.75C705.5,-157.8 705.5,-147.85 705.5,-139.13"/>
<polygon fill="#63b8ff" stroke="#63b8ff" points="709,-139.09 705.5,-129.09 702,-139.09 709,-139.09"/>
</a>
</g>
</g>
<!-- Node24&#45;&gt;Node3 -->
<g id="edge29_Node000024_Node000003" class="edge">
<title>Node24&#45;&gt;Node3</title>
<g id="a_edge29_Node000024_Node000003"><a xlink:title=" ">
<path fill="none" stroke="#63b8ff" d="M728.04,-113.16C758.37,-105.71 813.77,-91.16 859.5,-74 899.04,-59.16 943.04,-37.65 969.99,-23.87"/>
<polygon fill="#63b8ff" stroke="#63b8ff" points="971.82,-26.87 979.11,-19.17 968.62,-20.64 971.82,-26.87"/>
</a>
</g>
</g>
<!-- Node24&#45;&gt;Node17 -->
<g id="edge33_Node000024_Node000017" class="edge">
<title>Node24&#45;&gt;Node17</title>
<g id="a_edge33_Node000024_Node000017"><a xlink:title=" ">
<path fill="none" stroke="#63b8ff" d="M682.88,-117.33C618.97,-113.72 438.33,-101.29 386.5,-74 366.34,-63.39 349.61,-42.87 339.38,-28.02"/>
<polygon fill="#63b8ff" stroke="#63b8ff" points="342.04,-25.69 333.63,-19.24 336.18,-29.53 342.04,-25.69"/>
</a>
</g>
</g>
<!-- Node24&#45;&gt;Node23 -->
<g id="edge31_Node000024_Node000023" class="edge">
<title>Node24&#45;&gt;Node23</title>
<g id="a_edge31_Node000024_Node000023"><a xlink:title=" ">
<path fill="none" stroke="#63b8ff" d="M728.42,-114.7C755.87,-109.28 802.31,-97.3 835.5,-74 852.8,-61.86 867.29,-42.24 876.35,-28.02"/>
<polygon fill="#63b8ff" stroke="#63b8ff" points="879.51,-29.56 881.72,-19.2 873.53,-25.92 879.51,-29.56"/>
</a>
</g>
</g>
<!-- Node25 -->
<g id="Node000025" class="node">
<title>Node25</title>
<g id="a_Node000025"><a xlink:title=" ">
<polygon fill="#e0e0e0" stroke="#999999" points="519,-74 396,-74 396,-55 519,-55 519,-74"/>
<text text-anchor="middle" x="457.5" y="-62" font-family="Helvetica,sans-Serif" font-size="10.00">QtCore/QMutexLocker</text>
</a>
</g>
</g>
<!-- Node24&#45;&gt;Node25 -->
<g id="edge28_Node000024_Node000025" class="edge">
<title>Node24&#45;&gt;Node25</title>
<g id="a_edge28_Node000024_Node000025"><a xlink:title=" ">
<path fill="none" stroke="#63b8ff" d="M682.61,-113.61C642.96,-105.13 560.62,-87.54 507.28,-76.14"/>
<polygon fill="#63b8ff" stroke="#63b8ff" points="507.86,-72.68 497.35,-74.02 506.39,-79.53 507.86,-72.68"/>
</a>
</g>
</g>
<!-- Node26 -->
<g id="Node000026" class="node">
<title>Node26</title>
<g id="a_Node000026"><a xlink:title=" ">
<polygon fill="#e0e0e0" stroke="#999999" points="677.5,-74 537.5,-74 537.5,-55 677.5,-55 677.5,-74"/>
<text text-anchor="middle" x="607.5" y="-62" font-family="Helvetica,sans-Serif" font-size="10.00">QtCore/QRecursiveMutex</text>
</a>
</g>
</g>
<!-- Node24&#45;&gt;Node26 -->
<g id="edge30_Node000024_Node000026" class="edge">
<title>Node24&#45;&gt;Node26</title>
<g id="a_edge30_Node000024_Node000026"><a xlink:title=" ">
<path fill="none" stroke="#63b8ff" d="M689.75,-109.98C674.27,-101.61 650.41,-88.7 632.36,-78.95"/>
<polygon fill="#63b8ff" stroke="#63b8ff" points="633.99,-75.85 623.53,-74.17 630.66,-82.01 633.99,-75.85"/>
</a>
</g>
</g>
<!-- Node27 -->
<g id="Node000027" class="node">
<title>Node27</title>
<g id="a_Node000027"><a xlink:title=" ">
<polygon fill="#e0e0e0" stroke="#999999" points="719,-19 624,-19 624,0 719,0 719,-19"/>
<text text-anchor="middle" x="671.5" y="-7" font-family="Helvetica,sans-Serif" font-size="10.00">QtCore/QVariant</text>
</a>
</g>
</g>
<!-- Node24&#45;&gt;Node27 -->
<g id="edge32_Node000024_Node000027" class="edge">
<title>Node24&#45;&gt;Node27</title>
<g id="a_edge32_Node000024_Node000027"><a xlink:title=" ">
<path fill="none" stroke="#63b8ff" d="M703.01,-109.84C699.47,-97.59 692.71,-74.52 686.5,-55 683.72,-46.25 680.48,-36.58 677.72,-28.5"/>
<polygon fill="#63b8ff" stroke="#63b8ff" points="681.02,-27.32 674.46,-19 674.4,-29.6 681.02,-27.32"/>
</a>
</g>
</g>
<!-- Node28 -->
<g id="Node000028" class="node">
<title>Node28</title>
<g id="a_Node000028"><a xlink:href="FactMetaData_8h.html" target="_top" xlink:title=" ">
<polygon fill="white" stroke="#666666" points="827,-74 734,-74 734,-55 827,-55 827,-74"/>
<text text-anchor="middle" x="780.5" y="-62" font-family="Helvetica,sans-Serif" font-size="10.00">FactMetaData.h</text>
</a>
</g>
</g>
<!-- Node24&#45;&gt;Node28 -->
<g id="edge34_Node000024_Node000028" class="edge">
<title>Node24&#45;&gt;Node28</title>
<g id="a_edge34_Node000024_Node000028"><a xlink:title=" ">
<path fill="none" stroke="#63b8ff" d="M717.55,-109.98C728.96,-101.92 746.33,-89.65 759.93,-80.03"/>
<polygon fill="#63b8ff" stroke="#63b8ff" points="762.08,-82.8 768.23,-74.17 758.04,-77.08 762.08,-82.8"/>
</a>
</g>
</g>
<!-- Node28&#45;&gt;Node3 -->
<g id="edge36_Node000028_Node000003" class="edge">
<title>Node28&#45;&gt;Node3</title>
<g id="a_edge36_Node000028_Node000003"><a xlink:title=" ">
<path fill="none" stroke="#63b8ff" d="M815.04,-54.98C851.92,-45.89 910.49,-31.46 950.84,-21.51"/>
<polygon fill="#63b8ff" stroke="#63b8ff" points="951.81,-24.87 960.69,-19.08 950.14,-18.08 951.81,-24.87"/>
</a>
</g>
</g>
<!-- Node28&#45;&gt;Node17 -->
<g id="edge39_Node000028_Node000017" class="edge">
<title>Node28&#45;&gt;Node17</title>
<g id="a_edge39_Node000028_Node000017"><a xlink:title=" ">
<path fill="none" stroke="#63b8ff" d="M733.83,-58.03C657.77,-49.11 506.08,-31.32 411.37,-20.22"/>
<polygon fill="#63b8ff" stroke="#63b8ff" points="411.59,-16.72 401.25,-19.03 410.77,-23.67 411.59,-16.72"/>
</a>
</g>
</g>
<!-- Node28&#45;&gt;Node23 -->
<g id="edge37_Node000028_Node000023" class="edge">
<title>Node28&#45;&gt;Node23</title>
<g id="a_edge37_Node000028_Node000023"><a xlink:title=" ">
<path fill="none" stroke="#63b8ff" d="M797.53,-54.98C814.43,-46.54 840.56,-33.47 860.14,-23.68"/>
<polygon fill="#63b8ff" stroke="#63b8ff" points="861.78,-26.77 869.16,-19.17 858.65,-20.51 861.78,-26.77"/>
</a>
</g>
</g>
<!-- Node28&#45;&gt;Node27 -->
<g id="edge38_Node000028_Node000027" class="edge">
<title>Node28&#45;&gt;Node27</title>
<g id="a_edge38_Node000028_Node000027"><a xlink:title=" ">
<path fill="none" stroke="#63b8ff" d="M762.99,-54.98C745.53,-46.5 718.49,-33.35 698.33,-23.54"/>
<polygon fill="#63b8ff" stroke="#63b8ff" points="699.86,-20.4 689.33,-19.17 696.79,-26.69 699.86,-20.4"/>
</a>
</g>
</g>
<!-- Node29 -->
<g id="Node000029" class="node">
<title>Node29</title>
<g id="a_Node000029"><a xlink:title=" ">
<polygon fill="#e0e0e0" stroke="#999999" points="823.5,-19 737.5,-19 737.5,0 823.5,0 823.5,-19"/>
<text text-anchor="middle" x="780.5" y="-7" font-family="Helvetica,sans-Serif" font-size="10.00">QtCore/QHash</text>
</a>
</g>
</g>
<!-- Node28&#45;&gt;Node29 -->
<g id="edge35_Node000028_Node000029" class="edge">
<title>Node28&#45;&gt;Node29</title>
<g id="a_edge35_Node000028_Node000029"><a xlink:title=" ">
<path fill="none" stroke="#63b8ff" d="M780.5,-54.75C780.5,-47.8 780.5,-37.85 780.5,-29.13"/>
<polygon fill="#63b8ff" stroke="#63b8ff" points="784,-29.09 780.5,-19.09 777,-29.09 784,-29.09"/>
</a>
</g>
</g>
<!-- Node30&#45;&gt;Node3 -->
<g id="edge41_Node000030_Node000003" class="edge">
<title>Node30&#45;&gt;Node3</title>
<g id="a_edge41_Node000030_Node000003"><a xlink:title=" ">
<path fill="none" stroke="#63b8ff" d="M1167.53,-274.96C1193.37,-259.01 1243.5,-222.09 1243.5,-175.5 1243.5,-175.5 1243.5,-175.5 1243.5,-118.5 1243.5,-35.3 1124.72,-15.53 1051.57,-11.25"/>
<polygon fill="#63b8ff" stroke="#63b8ff" points="1051.73,-7.75 1041.57,-10.74 1051.38,-14.74 1051.73,-7.75"/>
</a>
</g>
</g>
<!-- Node30&#45;&gt;Node4 -->
<g id="edge43_Node000030_Node000004" class="edge">
<title>Node30&#45;&gt;Node4</title>
<g id="a_edge43_Node000030_Node000004"><a xlink:title=" ">
<path fill="none" stroke="#63b8ff" d="M1152.5,-274.75C1152.5,-267.8 1152.5,-257.85 1152.5,-249.13"/>
<polygon fill="#63b8ff" stroke="#63b8ff" points="1156,-249.09 1152.5,-239.09 1149,-249.09 1156,-249.09"/>
</a>
</g>
</g>
<!-- Node31 -->
<g id="Node000031" class="node">
<title>Node31</title>
<g id="a_Node000031"><a xlink:title=" ">
<polygon fill="#e0e0e0" stroke="#999999" points="1108,-239 967,-239 967,-220 1108,-220 1108,-239"/>
<text text-anchor="middle" x="1037.5" y="-227" font-family="Helvetica,sans-Serif" font-size="10.00">QtNetwork/QHostAddress</text>
</a>
</g>
</g>
<!-- Node30&#45;&gt;Node31 -->
<g id="edge42_Node000030_Node000031" class="edge">
<title>Node30&#45;&gt;Node31</title>
<g id="a_edge42_Node000030_Node000031"><a xlink:title=" ">
<path fill="none" stroke="#63b8ff" d="M1134.02,-274.98C1115.52,-266.46 1086.82,-253.23 1065.52,-243.41"/>
<polygon fill="#63b8ff" stroke="#63b8ff" points="1066.86,-240.18 1056.31,-239.17 1063.93,-246.53 1066.86,-240.18"/>
</a>
</g>
</g>
<!-- Node32&#45;&gt;Node3 -->
<g id="edge47_Node000032_Node000003" class="edge">
<title>Node32&#45;&gt;Node3</title>
<g id="a_edge47_Node000032_Node000003"><a xlink:title=" ">
<path fill="none" stroke="#63b8ff" d="M836.98,-275C822.48,-267.77 804.15,-255.86 795.5,-239 780.48,-209.74 779.62,-193.8 795.5,-165 809.96,-138.76 827.21,-145.07 852.5,-129 890.79,-104.66 903.92,-103.37 938.5,-74 955.17,-59.84 971.57,-40.89 982.47,-27.38"/>
<polygon fill="#63b8ff" stroke="#63b8ff" points="985.33,-29.42 988.79,-19.4 979.84,-25.07 985.33,-29.42"/>
</a>
</g>
</g>
<!-- Node32&#45;&gt;Node4 -->
<g id="edge50_Node000032_Node000004" class="edge">
<title>Node32&#45;&gt;Node4</title>
<g id="a_edge50_Node000032_Node000004"><a xlink:title=" ">
<path fill="none" stroke="#63b8ff" d="M901.65,-276.77C951.3,-269 1034.57,-255.42 1115.9,-239.01"/>
<polygon fill="#63b8ff" stroke="#63b8ff" points="1116.7,-242.42 1125.8,-237 1115.31,-235.56 1116.7,-242.42"/>
</a>
</g>
</g>
<!-- Node32&#45;&gt;Node7 -->
<g id="edge48_Node000032_Node000007" class="edge">
<title>Node32&#45;&gt;Node7</title>
<g id="a_edge48_Node000032_Node000007"><a xlink:title=" ">
<path fill="none" stroke="#63b8ff" d="M878.02,-275C892.52,-267.77 910.85,-255.86 919.5,-239 927.81,-222.81 915.94,-204.21 904.37,-191.35"/>
<polygon fill="#63b8ff" stroke="#63b8ff" points="906.87,-188.89 897.4,-184.15 901.84,-193.76 906.87,-188.89"/>
</a>
</g>
</g>
<!-- Node32&#45;&gt;Node17 -->
<g id="edge49_Node000032_Node000017" class="edge">
<title>Node32&#45;&gt;Node17</title>
<g id="a_edge49_Node000032_Node000017"><a xlink:title=" ">
<path fill="none" stroke="#63b8ff" d="M813.39,-281.43C744.9,-277.47 609.23,-266.6 497.5,-239 420.01,-219.86 329.5,-255.32 329.5,-175.5 329.5,-175.5 329.5,-175.5 329.5,-118.5 329.5,-87.19 329.07,-50.77 328.78,-29.23"/>
<polygon fill="#63b8ff" stroke="#63b8ff" points="332.28,-29.13 328.63,-19.18 325.28,-29.23 332.28,-29.13"/>
</a>
</g>
</g>
<!-- Node33 -->
<g id="Node000033" class="node">
<title>Node33</title>
<g id="a_Node000033"><a xlink:title=" ">
<polygon fill="#e0e0e0" stroke="#999999" points="748.5,-239 620.5,-239 620.5,-220 748.5,-220 748.5,-239"/>
<text text-anchor="middle" x="684.5" y="-227" font-family="Helvetica,sans-Serif" font-size="10.00">QtCore/QElapsedTimer</text>
</a>
</g>
</g>
<!-- Node32&#45;&gt;Node33 -->
<g id="edge45_Node000032_Node000033" class="edge">
<title>Node32&#45;&gt;Node33</title>
<g id="a_edge45_Node000032_Node000033"><a xlink:title=" ">
<path fill="none" stroke="#63b8ff" d="M829.7,-274.98C800.53,-266.05 754.5,-251.94 722.1,-242.02"/>
<polygon fill="#63b8ff" stroke="#63b8ff" points="723.1,-238.66 712.51,-239.08 721.05,-245.36 723.1,-238.66"/>
</a>
</g>
</g>
<!-- Node34 -->
<g id="Node000034" class="node">
<title>Node34</title>
<g id="a_Node000034"><a xlink:title=" ">
<polygon fill="#e0e0e0" stroke="#999999" points="910.5,-239 804.5,-239 804.5,-220 910.5,-220 910.5,-239"/>
<text text-anchor="middle" x="857.5" y="-227" font-family="Helvetica,sans-Serif" font-size="10.00">QtCore/QtNumeric</text>
</a>
</g>
</g>
<!-- Node32&#45;&gt;Node34 -->
<g id="edge46_Node000032_Node000034" class="edge">
<title>Node32&#45;&gt;Node34</title>
<g id="a_edge46_Node000032_Node000034"><a xlink:title=" ">
<path fill="none" stroke="#63b8ff" d="M857.5,-274.75C857.5,-267.8 857.5,-257.85 857.5,-249.13"/>
<polygon fill="#63b8ff" stroke="#63b8ff" points="861,-249.09 857.5,-239.09 854,-249.09 861,-249.09"/>
</a>
</g>
</g>
<!-- Node36 -->
<g id="Node000036" class="node">
<title>Node36</title>
<g id="a_Node000036"><a xlink:href="ObjectListModelBase_8h.html" target="_top" xlink:title=" ">
<polygon fill="white" stroke="#666666" points="261.5,-239 133.5,-239 133.5,-220 261.5,-220 261.5,-239"/>
<text text-anchor="middle" x="197.5" y="-227" font-family="Helvetica,sans-Serif" font-size="10.00">ObjectListModelBase.h</text>
</a>
</g>
</g>
<!-- Node35&#45;&gt;Node36 -->
<g id="edge52_Node000035_Node000036" class="edge">
<title>Node35&#45;&gt;Node36</title>
<g id="a_edge52_Node000035_Node000036"><a xlink:title=" ">
<path fill="none" stroke="#63b8ff" d="M277.24,-274.98C262.37,-266.69 239.52,-253.94 222.08,-244.22"/>
<polygon fill="#63b8ff" stroke="#63b8ff" points="223.48,-240.99 213.04,-239.17 220.07,-247.1 223.48,-240.99"/>
</a>
</g>
</g>
<!-- Node37 -->
<g id="Node000037" class="node">
<title>Node37</title>
<g id="a_Node000037"><a xlink:href="ObjectItemModelBase_8h.html" target="_top" xlink:title=" ">
<polygon fill="white" stroke="#666666" points="263.5,-184 129.5,-184 129.5,-165 263.5,-165 263.5,-184"/>
<text text-anchor="middle" x="196.5" y="-172" font-family="Helvetica,sans-Serif" font-size="10.00">ObjectItemModelBase.h</text>
</a>
</g>
</g>
<!-- Node36&#45;&gt;Node37 -->
<g id="edge53_Node000036_Node000037" class="edge">
<title>Node36&#45;&gt;Node37</title>
<g id="a_edge53_Node000036_Node000037"><a xlink:title=" ">
<path fill="none" stroke="#63b8ff" d="M197.33,-219.75C197.2,-212.8 197.02,-202.85 196.85,-194.13"/>
<polygon fill="#63b8ff" stroke="#63b8ff" points="200.35,-194.02 196.66,-184.09 193.35,-194.15 200.35,-194.02"/>
</a>
</g>
</g>
<!-- Node37&#45;&gt;Node17 -->
<g id="edge55_Node000037_Node000017" class="edge">
<title>Node37&#45;&gt;Node17</title>
<g id="a_edge55_Node000037_Node000017"><a xlink:title=" ">
<path fill="none" stroke="#63b8ff" d="M204.86,-164.69C212.92,-155.98 225.22,-142.1 234.5,-129 256.5,-97.97 253.29,-84.34 277.5,-55 286.61,-43.95 298.61,-33.34 308.68,-25.25"/>
<polygon fill="#63b8ff" stroke="#63b8ff" points="310.84,-28 316.57,-19.09 306.54,-22.48 310.84,-28"/>
</a>
</g>
</g>
<!-- Node38 -->
<g id="Node000038" class="node">
<title>Node38</title>
<g id="a_Node000038"><a xlink:title=" ">
<polygon fill="#e0e0e0" stroke="#999999" points="225.5,-129 71.5,-129 71.5,-110 225.5,-110 225.5,-129"/>
<text text-anchor="middle" x="148.5" y="-117" font-family="Helvetica,sans-Serif" font-size="10.00">QtCore/QAbstractItemModel</text>
</a>
</g>
</g>
<!-- Node37&#45;&gt;Node38 -->
<g id="edge54_Node000037_Node000038" class="edge">
<title>Node37&#45;&gt;Node38</title>
<g id="a_edge54_Node000037_Node000038"><a xlink:title=" ">
<path fill="none" stroke="#63b8ff" d="M188.57,-164.75C181.65,-157.11 171.43,-145.82 163.05,-136.56"/>
<polygon fill="#63b8ff" stroke="#63b8ff" points="165.59,-134.15 156.28,-129.09 160.4,-138.85 165.59,-134.15"/>
</a>
</g>
</g>
<!-- Node40 -->
<g id="Node000040" class="node">
<title>Node40</title>
<g id="a_Node000040"><a xlink:title=" ">
<polygon fill="#e0e0e0" stroke="#999999" points="1873,-239 1730,-239 1730,-220 1873,-220 1873,-239"/>
<text text-anchor="middle" x="1801.5" y="-227" font-family="Helvetica,sans-Serif" font-size="10.00">QtCore/QLoggingCategory</text>
</a>
</g>
</g>
<!-- Node39&#45;&gt;Node40 -->
<g id="edge57_Node000039_Node000040" class="edge">
<title>Node39&#45;&gt;Node40</title>
<g id="a_edge57_Node000039_Node000040"><a xlink:title=" ">
<path fill="none" stroke="#63b8ff" d="M1627.76,-274.98C1663.11,-265.93 1719.17,-251.58 1758.01,-241.64"/>
<polygon fill="#63b8ff" stroke="#63b8ff" points="1759.16,-244.95 1767.98,-239.08 1757.43,-238.17 1759.16,-244.95"/>
</a>
</g>
</g>
</g>
</svg>
