<?xml version="1.0" encoding="UTF-8" standalone="no"?>
<!DOCTYPE svg PUBLIC "-//W3C//DTD SVG 1.1//EN"
 "http://www.w3.org/Graphics/SVG/1.1/DTD/svg11.dtd">
<!-- Generated by graphviz version 2.43.0 (0)
 -->
<!-- Title: src/AutoPilotPlugins/PX4/AirframeComponentAirframes.h Pages: 1 -->
<svg width="597pt" height="104pt"
 viewBox="0.00 0.00 596.50 104.00" xmlns="http://www.w3.org/2000/svg" xmlns:xlink="http://www.w3.org/1999/xlink">
<g id="graph0" class="graph" transform="scale(1 1) rotate(0) translate(4 100)">
<title>src/AutoPilotPlugins/PX4/AirframeComponentAirframes.h</title>
<!-- Node1 -->
<g id="Node000001" class="node">
<title>Node1</title>
<g id="a_Node000001"><a xlink:title=" ">
<polygon fill="#999999" stroke="#666666" points="419.5,-96 222.5,-96 222.5,-66 419.5,-66 419.5,-96"/>
<text text-anchor="start" x="230.5" y="-84" font-family="Helvetica,sans-Serif" font-size="10.00">src/AutoPilotPlugins</text>
<text text-anchor="middle" x="321" y="-73" font-family="Helvetica,sans-Serif" font-size="10.00">/PX4/AirframeComponentAirframes.h</text>
</a>
</g>
</g>
<!-- Node2 -->
<g id="Node000002" class="node">
<title>Node2</title>
<g id="a_Node000002"><a xlink:href="AirframeComponentAirframes_8cc.html" target="_top" xlink:title=" ">
<polygon fill="white" stroke="#666666" points="202,-30 0,-30 0,0 202,0 202,-30"/>
<text text-anchor="start" x="8" y="-18" font-family="Helvetica,sans-Serif" font-size="10.00">src/AutoPilotPlugins</text>
<text text-anchor="middle" x="101" y="-7" font-family="Helvetica,sans-Serif" font-size="10.00">/PX4/AirframeComponentAirframes.cc</text>
</a>
</g>
</g>
<!-- Node1&#45;&gt;Node2 -->
<g id="edge1_Node000001_Node000002" class="edge">
<title>Node1&#45;&gt;Node2</title>
<g id="a_edge1_Node000001_Node000002"><a xlink:title=" ">
<path fill="none" stroke="#63b8ff" d="M262.98,-63.12C227.51,-52.8 182.67,-39.76 149.17,-30.01"/>
<polygon fill="#63b8ff" stroke="#63b8ff" points="262.14,-66.52 272.72,-65.95 264.1,-59.8 262.14,-66.52"/>
</a>
</g>
</g>
<!-- Node3 -->
<g id="Node000003" class="node">
<title>Node3</title>
<g id="a_Node000003"><a xlink:href="AirframeComponentController_8cc.html" target="_top" xlink:title=" ">
<polygon fill="white" stroke="#666666" points="421.5,-30 220.5,-30 220.5,0 421.5,0 421.5,-30"/>
<text text-anchor="start" x="228.5" y="-18" font-family="Helvetica,sans-Serif" font-size="10.00">src/AutoPilotPlugins</text>
<text text-anchor="middle" x="321" y="-7" font-family="Helvetica,sans-Serif" font-size="10.00">/PX4/AirframeComponentController.cc</text>
</a>
</g>
</g>
<!-- Node1&#45;&gt;Node3 -->
<g id="edge2_Node000001_Node000003" class="edge">
<title>Node1&#45;&gt;Node3</title>
<g id="a_edge2_Node000001_Node000003"><a xlink:title=" ">
<path fill="none" stroke="#63b8ff" d="M321,-55.54C321,-46.96 321,-37.61 321,-30.16"/>
<polygon fill="#63b8ff" stroke="#63b8ff" points="317.5,-55.8 321,-65.8 324.5,-55.8 317.5,-55.8"/>
</a>
</g>
</g>
<!-- Node4 -->
<g id="Node000004" class="node">
<title>Node4</title>
<g id="a_Node000004"><a xlink:href="PX4AirframeLoader_8cc.html" target="_top" xlink:title=" ">
<polygon fill="white" stroke="#666666" points="588.5,-30 439.5,-30 439.5,0 588.5,0 588.5,-30"/>
<text text-anchor="start" x="447.5" y="-18" font-family="Helvetica,sans-Serif" font-size="10.00">src/AutoPilotPlugins</text>
<text text-anchor="middle" x="514" y="-7" font-family="Helvetica,sans-Serif" font-size="10.00">/PX4/PX4AirframeLoader.cc</text>
</a>
</g>
</g>
<!-- Node1&#45;&gt;Node4 -->
<g id="edge3_Node000001_Node000004" class="edge">
<title>Node1&#45;&gt;Node4</title>
<g id="a_edge3_Node000001_Node000004"><a xlink:title=" ">
<path fill="none" stroke="#63b8ff" d="M373.1,-62.72C404.02,-52.47 442.73,-39.63 471.74,-30.01"/>
<polygon fill="#63b8ff" stroke="#63b8ff" points="371.74,-59.49 363.35,-65.95 373.95,-66.13 371.74,-59.49"/>
</a>
</g>
</g>
</g>
</svg>
