<?xml version="1.0" encoding="UTF-8" standalone="no"?>
<!DOCTYPE svg PUBLIC "-//W3C//DTD SVG 1.1//EN"
 "http://www.w3.org/Graphics/SVG/1.1/DTD/svg11.dtd">
<!-- Generated by graphviz version 2.43.0 (0)
 -->
<!-- Title: src/Android/AndroidInterface.cc Pages: 1 -->
<svg width="2717pt" height="368pt"
 viewBox="0.00 0.00 2717.00 368.00" xmlns="http://www.w3.org/2000/svg" xmlns:xlink="http://www.w3.org/1999/xlink">
<g id="graph0" class="graph" transform="scale(1 1) rotate(0) translate(4 364)">
<title>src/Android/AndroidInterface.cc</title>
<!-- Node1 -->
<g id="Node000001" class="node">
<title>Node1</title>
<g id="a_Node000001"><a xlink:title=" ">
<polygon fill="#999999" stroke="#666666" points="1630,-360 1461,-360 1461,-341 1630,-341 1630,-360"/>
<text text-anchor="middle" x="1545.5" y="-348" font-family="Helvetica,sans-Serif" font-size="10.00">src/Android/AndroidInterface.cc</text>
</a>
</g>
</g>
<!-- Node2 -->
<g id="Node000002" class="node">
<title>Node2</title>
<g id="a_Node000002"><a xlink:href="AndroidInterface_8h.html" target="_top" xlink:title=" ">
<polygon fill="white" stroke="#666666" points="414,-299.5 307,-299.5 307,-280.5 414,-280.5 414,-299.5"/>
<text text-anchor="middle" x="360.5" y="-287.5" font-family="Helvetica,sans-Serif" font-size="10.00">AndroidInterface.h</text>
</a>
</g>
</g>
<!-- Node1&#45;&gt;Node2 -->
<g id="edge1_Node000001_Node000002" class="edge">
<title>Node1&#45;&gt;Node2</title>
<g id="a_edge1_Node000001_Node000002"><a xlink:title=" ">
<path fill="none" stroke="#63b8ff" d="M1460.75,-345.32C1235.17,-334.18 623.71,-303.99 424.31,-294.15"/>
<polygon fill="#63b8ff" stroke="#63b8ff" points="424.45,-290.65 414.29,-293.66 424.11,-297.64 424.45,-290.65"/>
</a>
</g>
</g>
<!-- Node3 -->
<g id="Node000003" class="node">
<title>Node3</title>
<g id="a_Node000003"><a xlink:title=" ">
<polygon fill="#e0e0e0" stroke="#999999" points="135,-239 0,-239 0,-220 135,-220 135,-239"/>
<text text-anchor="middle" x="67.5" y="-227" font-family="Helvetica,sans-Serif" font-size="10.00">QtCore/QJniEnvironment</text>
</a>
</g>
</g>
<!-- Node1&#45;&gt;Node3 -->
<g id="edge12_Node000001_Node000003" class="edge">
<title>Node1&#45;&gt;Node3</title>
<g id="a_edge12_Node000001_Node000003"><a xlink:title=" ">
<path fill="none" stroke="#63b8ff" d="M1460.78,-348.38C1167.85,-344.31 212.4,-329.24 151.5,-305 121.3,-292.98 94.81,-265.02 80.01,-246.98"/>
<polygon fill="#63b8ff" stroke="#63b8ff" points="82.66,-244.7 73.71,-239.03 77.18,-249.04 82.66,-244.7"/>
</a>
</g>
</g>
<!-- Node7 -->
<g id="Node000007" class="node">
<title>Node7</title>
<g id="a_Node000007"><a xlink:title=" ">
<polygon fill="#e0e0e0" stroke="#999999" points="1451.5,-299.5 1347.5,-299.5 1347.5,-280.5 1451.5,-280.5 1451.5,-299.5"/>
<text text-anchor="middle" x="1399.5" y="-287.5" font-family="Helvetica,sans-Serif" font-size="10.00">QAndroidScreen.h</text>
</a>
</g>
</g>
<!-- Node1&#45;&gt;Node7 -->
<g id="edge6_Node000001_Node000007" class="edge">
<title>Node1&#45;&gt;Node7</title>
<g id="a_edge6_Node000001_Node000007"><a xlink:title=" ">
<path fill="none" stroke="#63b8ff" d="M1524.27,-340.99C1499.51,-331.07 1458.38,-314.59 1430.15,-303.28"/>
<polygon fill="#63b8ff" stroke="#63b8ff" points="1431.34,-299.99 1420.76,-299.52 1428.74,-306.49 1431.34,-299.99"/>
</a>
</g>
</g>
<!-- Node8 -->
<g id="Node000008" class="node">
<title>Node8</title>
<g id="a_Node000008"><a xlink:title=" ">
<polygon fill="#e0e0e0" stroke="#999999" points="1621,-305 1470,-305 1470,-275 1621,-275 1621,-305"/>
<text text-anchor="start" x="1478" y="-293" font-family="Helvetica,sans-Serif" font-size="10.00">QtAndroidHelpers/QAndroid</text>
<text text-anchor="middle" x="1545.5" y="-282" font-family="Helvetica,sans-Serif" font-size="10.00">PartialWakeLocker.h</text>
</a>
</g>
</g>
<!-- Node1&#45;&gt;Node8 -->
<g id="edge7_Node000001_Node000008" class="edge">
<title>Node1&#45;&gt;Node8</title>
<g id="a_edge7_Node000001_Node000008"><a xlink:title=" ">
<path fill="none" stroke="#63b8ff" d="M1545.5,-340.87C1545.5,-334.11 1545.5,-324.35 1545.5,-315.26"/>
<polygon fill="#63b8ff" stroke="#63b8ff" points="1549,-315.11 1545.5,-305.11 1542,-315.11 1549,-315.11"/>
</a>
</g>
</g>
<!-- Node9 -->
<g id="Node000009" class="node">
<title>Node9</title>
<g id="a_Node000009"><a xlink:title=" ">
<polygon fill="#e0e0e0" stroke="#999999" points="1790,-305 1639,-305 1639,-275 1790,-275 1790,-305"/>
<text text-anchor="start" x="1647" y="-293" font-family="Helvetica,sans-Serif" font-size="10.00">QtAndroidHelpers/QAndroid</text>
<text text-anchor="middle" x="1714.5" y="-282" font-family="Helvetica,sans-Serif" font-size="10.00">WiFiLocker.h</text>
</a>
</g>
</g>
<!-- Node1&#45;&gt;Node9 -->
<g id="edge8_Node000001_Node000009" class="edge">
<title>Node1&#45;&gt;Node9</title>
<g id="a_edge8_Node000001_Node000009"><a xlink:title=" ">
<path fill="none" stroke="#63b8ff" d="M1570.07,-340.99C1594.61,-332.5 1633.03,-319.2 1664.08,-308.45"/>
<polygon fill="#63b8ff" stroke="#63b8ff" points="1665.56,-311.64 1673.87,-305.06 1663.28,-305.03 1665.56,-311.64"/>
</a>
</g>
</g>
<!-- Node10 -->
<g id="Node000010" class="node">
<title>Node10</title>
<g id="a_Node000010"><a xlink:title=" ">
<polygon fill="#e0e0e0" stroke="#999999" points="1946.5,-299.5 1808.5,-299.5 1808.5,-280.5 1946.5,-280.5 1946.5,-299.5"/>
<text text-anchor="middle" x="1877.5" y="-287.5" font-family="Helvetica,sans-Serif" font-size="10.00">QtCore/QCoreApplication</text>
</a>
</g>
</g>
<!-- Node1&#45;&gt;Node10 -->
<g id="edge9_Node000001_Node000010" class="edge">
<title>Node1&#45;&gt;Node10</title>
<g id="a_edge9_Node000001_Node000010"><a xlink:title=" ">
<path fill="none" stroke="#63b8ff" d="M1594.68,-340.95C1645.85,-332.03 1728.31,-317.63 1799.5,-305 1806.14,-303.82 1813.11,-302.58 1820.02,-301.35"/>
<polygon fill="#63b8ff" stroke="#63b8ff" points="1820.84,-304.75 1830.07,-299.55 1819.61,-297.86 1820.84,-304.75"/>
</a>
</g>
</g>
<!-- Node11 -->
<g id="Node000011" class="node">
<title>Node11</title>
<g id="a_Node000011"><a xlink:title=" ">
<polygon fill="#e0e0e0" stroke="#999999" points="2040,-299.5 1965,-299.5 1965,-280.5 2040,-280.5 2040,-299.5"/>
<text text-anchor="middle" x="2002.5" y="-287.5" font-family="Helvetica,sans-Serif" font-size="10.00">QtCore/QDir</text>
</a>
</g>
</g>
<!-- Node1&#45;&gt;Node11 -->
<g id="edge10_Node000001_Node000011" class="edge">
<title>Node1&#45;&gt;Node11</title>
<g id="a_edge10_Node000001_Node000011"><a xlink:title=" ">
<path fill="none" stroke="#63b8ff" d="M1630.2,-344.81C1713.59,-339.13 1844.25,-327.41 1955.5,-305 1959.22,-304.25 1963.08,-303.34 1966.9,-302.34"/>
<polygon fill="#63b8ff" stroke="#63b8ff" points="1968.17,-305.62 1976.85,-299.55 1966.28,-298.88 1968.17,-305.62"/>
</a>
</g>
</g>
<!-- Node12 -->
<g id="Node000012" class="node">
<title>Node12</title>
<g id="a_Node000012"><a xlink:title=" ">
<polygon fill="#e0e0e0" stroke="#999999" points="2155,-299.5 2058,-299.5 2058,-280.5 2155,-280.5 2155,-299.5"/>
<text text-anchor="middle" x="2106.5" y="-287.5" font-family="Helvetica,sans-Serif" font-size="10.00">QtCore/QFileInfo</text>
</a>
</g>
</g>
<!-- Node1&#45;&gt;Node12 -->
<g id="edge11_Node000001_Node000012" class="edge">
<title>Node1&#45;&gt;Node12</title>
<g id="a_edge11_Node000001_Node000012"><a xlink:title=" ">
<path fill="none" stroke="#63b8ff" d="M1630.27,-345.97C1730.83,-340.88 1903.27,-329.27 2049.5,-305 2054.65,-304.15 2060.01,-303.07 2065.31,-301.9"/>
<polygon fill="#63b8ff" stroke="#63b8ff" points="2066.38,-305.25 2075.32,-299.57 2064.79,-298.43 2066.38,-305.25"/>
</a>
</g>
</g>
<!-- Node13 -->
<g id="Node000013" class="node">
<title>Node13</title>
<g id="a_Node000013"><a xlink:title=" ">
<polygon fill="#e0e0e0" stroke="#999999" points="2277.5,-299.5 2173.5,-299.5 2173.5,-280.5 2277.5,-280.5 2277.5,-299.5"/>
<text text-anchor="middle" x="2225.5" y="-287.5" font-family="Helvetica,sans-Serif" font-size="10.00">QtCore/QJniObject</text>
</a>
</g>
</g>
<!-- Node1&#45;&gt;Node13 -->
<g id="edge13_Node000001_Node000013" class="edge">
<title>Node1&#45;&gt;Node13</title>
<g id="a_edge13_Node000001_Node000013"><a xlink:title=" ">
<path fill="none" stroke="#63b8ff" d="M1630.05,-347.54C1749.66,-343.83 1974.83,-333.41 2164.5,-305 2170.35,-304.12 2176.47,-302.99 2182.49,-301.74"/>
<polygon fill="#63b8ff" stroke="#63b8ff" points="2183.41,-305.12 2192.44,-299.56 2181.92,-298.28 2183.41,-305.12"/>
</a>
</g>
</g>
<!-- Node14 -->
<g id="Node000014" class="node">
<title>Node14</title>
<g id="a_Node000014"><a xlink:title=" ">
<polygon fill="#e0e0e0" stroke="#999999" points="2413,-299.5 2296,-299.5 2296,-280.5 2413,-280.5 2413,-299.5"/>
<text text-anchor="middle" x="2354.5" y="-287.5" font-family="Helvetica,sans-Serif" font-size="10.00">QtCore/QMetaObject</text>
</a>
</g>
</g>
<!-- Node1&#45;&gt;Node14 -->
<g id="edge14_Node000001_Node000014" class="edge">
<title>Node1&#45;&gt;Node14</title>
<g id="a_edge14_Node000001_Node000014"><a xlink:title=" ">
<path fill="none" stroke="#63b8ff" d="M1630.05,-348.35C1768.04,-345.59 2049.98,-336.29 2286.5,-305 2293.4,-304.09 2300.66,-302.87 2307.75,-301.54"/>
<polygon fill="#63b8ff" stroke="#63b8ff" points="2308.83,-304.89 2317.96,-299.52 2307.47,-298.03 2308.83,-304.89"/>
</a>
</g>
</g>
<!-- Node15 -->
<g id="Node000015" class="node">
<title>Node15</title>
<g id="a_Node000015"><a xlink:title=" ">
<polygon fill="#e0e0e0" stroke="#999999" points="2560,-299.5 2431,-299.5 2431,-280.5 2560,-280.5 2560,-299.5"/>
<text text-anchor="middle" x="2495.5" y="-287.5" font-family="Helvetica,sans-Serif" font-size="10.00">QtCore/QSharedPointer</text>
</a>
</g>
</g>
<!-- Node1&#45;&gt;Node15 -->
<g id="edge15_Node000001_Node000015" class="edge">
<title>Node1&#45;&gt;Node15</title>
<g id="a_edge15_Node000001_Node000015"><a xlink:title=" ">
<path fill="none" stroke="#63b8ff" d="M1630.19,-349.1C1787.06,-347.5 2133.22,-339.91 2422.5,-305 2430.25,-304.07 2438.41,-302.79 2446.35,-301.39"/>
<polygon fill="#63b8ff" stroke="#63b8ff" points="2447.06,-304.82 2456.26,-299.56 2445.79,-297.94 2447.06,-304.82"/>
</a>
</g>
</g>
<!-- Node16 -->
<g id="Node000016" class="node">
<title>Node16</title>
<g id="a_Node000016"><a xlink:title=" ">
<polygon fill="#e0e0e0" stroke="#999999" points="2709,-299.5 2578,-299.5 2578,-280.5 2709,-280.5 2709,-299.5"/>
<text text-anchor="middle" x="2643.5" y="-287.5" font-family="Helvetica,sans-Serif" font-size="10.00">QtCore/QStandardPaths</text>
</a>
</g>
</g>
<!-- Node1&#45;&gt;Node16 -->
<g id="edge16_Node000001_Node000016" class="edge">
<title>Node1&#45;&gt;Node16</title>
<g id="a_edge16_Node000001_Node000016"><a xlink:title=" ">
<path fill="none" stroke="#63b8ff" d="M1630.12,-349.92C1805.78,-349.89 2222.6,-345.14 2569.5,-305 2577.53,-304.07 2586,-302.77 2594.23,-301.34"/>
<polygon fill="#63b8ff" stroke="#63b8ff" points="2594.89,-304.78 2604.1,-299.54 2593.64,-297.89 2594.89,-304.78"/>
</a>
</g>
</g>
<!-- Node17 -->
<g id="Node000017" class="node">
<title>Node17</title>
<g id="a_Node000017"><a xlink:href="AppSettings_8h.html" target="_top" xlink:title=" ">
<polygon fill="white" stroke="#666666" points="1043.5,-299.5 959.5,-299.5 959.5,-280.5 1043.5,-280.5 1043.5,-299.5"/>
<text text-anchor="middle" x="1001.5" y="-287.5" font-family="Helvetica,sans-Serif" font-size="10.00">AppSettings.h</text>
</a>
</g>
</g>
<!-- Node1&#45;&gt;Node17 -->
<g id="edge17_Node000001_Node000017" class="edge">
<title>Node1&#45;&gt;Node17</title>
<g id="a_edge17_Node000001_Node000017"><a xlink:title=" ">
<path fill="none" stroke="#63b8ff" d="M1460.8,-342.51C1369.86,-334.69 1221.23,-320.99 1093.5,-305 1080.6,-303.38 1066.71,-301.4 1053.74,-299.44"/>
<polygon fill="#63b8ff" stroke="#63b8ff" points="1053.99,-295.94 1043.57,-297.88 1052.93,-302.86 1053.99,-295.94"/>
</a>
</g>
</g>
<!-- Node20 -->
<g id="Node000020" class="node">
<title>Node20</title>
<g id="a_Node000020"><a xlink:href="SettingsFact_8h.html" target="_top" xlink:title=" ">
<polygon fill="white" stroke="#666666" points="892,-184 807,-184 807,-165 892,-165 892,-184"/>
<text text-anchor="middle" x="849.5" y="-172" font-family="Helvetica,sans-Serif" font-size="10.00">SettingsFact.h</text>
</a>
</g>
</g>
<!-- Node1&#45;&gt;Node20 -->
<g id="edge45_Node000001_Node000020" class="edge">
<title>Node1&#45;&gt;Node20</title>
<g id="a_edge45_Node000001_Node000020"><a xlink:title=" ">
<path fill="none" stroke="#63b8ff" d="M1460.72,-349.38C1319.07,-348.14 1040.9,-341.02 950.5,-305 907.36,-287.81 895.57,-277.43 869.5,-239 860.37,-225.55 855.24,-207.72 852.46,-194.37"/>
<polygon fill="#63b8ff" stroke="#63b8ff" points="855.89,-193.63 850.65,-184.41 849,-194.88 855.89,-193.63"/>
</a>
</g>
</g>
<!-- Node28 -->
<g id="Node000028" class="node">
<title>Node28</title>
<g id="a_Node000028"><a xlink:href="QGCApplication_8h.html" target="_top" xlink:title=" ">
<polygon fill="white" stroke="#666666" points="1329.5,-299.5 1227.5,-299.5 1227.5,-280.5 1329.5,-280.5 1329.5,-299.5"/>
<text text-anchor="middle" x="1278.5" y="-287.5" font-family="Helvetica,sans-Serif" font-size="10.00">QGCApplication.h</text>
</a>
</g>
</g>
<!-- Node1&#45;&gt;Node28 -->
<g id="edge36_Node000001_Node000028" class="edge">
<title>Node1&#45;&gt;Node28</title>
<g id="a_edge36_Node000001_Node000028"><a xlink:title=" ">
<path fill="none" stroke="#63b8ff" d="M1504.61,-340.93C1462.82,-332.12 1396.07,-317.9 1338.5,-305 1334.03,-304 1329.39,-302.94 1324.74,-301.87"/>
<polygon fill="#63b8ff" stroke="#63b8ff" points="1325.18,-298.38 1314.65,-299.54 1323.6,-305.2 1325.18,-298.38"/>
</a>
</g>
</g>
<!-- Node35 -->
<g id="Node000035" class="node">
<title>Node35</title>
<g id="a_Node000035"><a xlink:href="QGCLoggingCategory_8h.html" target="_top" xlink:title=" ">
<polygon fill="white" stroke="#666666" points="288.5,-299.5 160.5,-299.5 160.5,-280.5 288.5,-280.5 288.5,-299.5"/>
<text text-anchor="middle" x="224.5" y="-287.5" font-family="Helvetica,sans-Serif" font-size="10.00">QGCLoggingCategory.h</text>
</a>
</g>
</g>
<!-- Node1&#45;&gt;Node35 -->
<g id="edge43_Node000001_Node000035" class="edge">
<title>Node1&#45;&gt;Node35</title>
<g id="a_edge43_Node000001_Node000035"><a xlink:title=" ">
<path fill="none" stroke="#63b8ff" d="M1460.57,-348.18C1217.76,-344.12 523.57,-330.55 297.5,-305 289.48,-304.09 281.02,-302.79 272.81,-301.35"/>
<polygon fill="#63b8ff" stroke="#63b8ff" points="273.44,-297.9 262.97,-299.53 272.17,-304.79 273.44,-297.9"/>
</a>
</g>
</g>
<!-- Node36 -->
<g id="Node000036" class="node">
<title>Node36</title>
<g id="a_Node000036"><a xlink:href="SettingsManager_8h.html" target="_top" xlink:title=" ">
<polygon fill="white" stroke="#666666" points="1209,-299.5 1102,-299.5 1102,-280.5 1209,-280.5 1209,-299.5"/>
<text text-anchor="middle" x="1155.5" y="-287.5" font-family="Helvetica,sans-Serif" font-size="10.00">SettingsManager.h</text>
</a>
</g>
</g>
<!-- Node1&#45;&gt;Node36 -->
<g id="edge46_Node000001_Node000036" class="edge">
<title>Node1&#45;&gt;Node36</title>
<g id="a_edge46_Node000001_Node000036"><a xlink:title=" ">
<path fill="none" stroke="#63b8ff" d="M1469.56,-340.99C1403.11,-333.1 1304.09,-320.31 1218.5,-305 1212.99,-304.01 1207.22,-302.88 1201.52,-301.69"/>
<polygon fill="#63b8ff" stroke="#63b8ff" points="1201.89,-298.19 1191.38,-299.52 1200.42,-305.04 1201.89,-298.19"/>
</a>
</g>
</g>
<!-- Node2&#45;&gt;Node3 -->
<g id="edge2_Node000002_Node000003" class="edge">
<title>Node2&#45;&gt;Node3</title>
<g id="a_edge2_Node000002_Node000003"><a xlink:title=" ">
<path fill="none" stroke="#63b8ff" d="M322.89,-280.46C314.54,-278.62 305.73,-276.71 297.5,-275 238.33,-262.7 170.36,-249.69 123.74,-240.93"/>
<polygon fill="#63b8ff" stroke="#63b8ff" points="124.3,-237.48 113.83,-239.08 123.02,-244.36 124.3,-237.48"/>
</a>
</g>
</g>
<!-- Node4 -->
<g id="Node000004" class="node">
<title>Node4</title>
<g id="a_Node000004"><a xlink:title=" ">
<polygon fill="#e0e0e0" stroke="#999999" points="296,-239 153,-239 153,-220 296,-220 296,-239"/>
<text text-anchor="middle" x="224.5" y="-227" font-family="Helvetica,sans-Serif" font-size="10.00">QtCore/QLoggingCategory</text>
</a>
</g>
</g>
<!-- Node2&#45;&gt;Node4 -->
<g id="edge3_Node000002_Node000004" class="edge">
<title>Node2&#45;&gt;Node4</title>
<g id="a_edge3_Node000002_Node000004"><a xlink:title=" ">
<path fill="none" stroke="#63b8ff" d="M340.72,-280.49C317.86,-270.66 280.01,-254.38 253.74,-243.08"/>
<polygon fill="#63b8ff" stroke="#63b8ff" points="254.87,-239.75 244.3,-239.02 252.1,-246.18 254.87,-239.75"/>
</a>
</g>
</g>
<!-- Node5 -->
<g id="Node000005" class="node">
<title>Node5</title>
<g id="a_Node000005"><a xlink:title=" ">
<polygon fill="#e0e0e0" stroke="#999999" points="407,-19 318,-19 318,0 407,0 407,-19"/>
<text text-anchor="middle" x="362.5" y="-7" font-family="Helvetica,sans-Serif" font-size="10.00">QtCore/QString</text>
</a>
</g>
</g>
<!-- Node2&#45;&gt;Node5 -->
<g id="edge4_Node000002_Node000005" class="edge">
<title>Node2&#45;&gt;Node5</title>
<g id="a_edge4_Node000002_Node000005"><a xlink:title=" ">
<path fill="none" stroke="#63b8ff" d="M355.79,-280.46C346.04,-261.94 324.5,-216.43 324.5,-175.5 324.5,-175.5 324.5,-175.5 324.5,-118.5 324.5,-85.02 340.95,-48.84 352.2,-28.01"/>
<polygon fill="#63b8ff" stroke="#63b8ff" points="355.37,-29.53 357.22,-19.1 349.26,-26.1 355.37,-29.53"/>
</a>
</g>
</g>
<!-- Node6 -->
<g id="Node000006" class="node">
<title>Node6</title>
<g id="a_Node000006"><a xlink:title=" ">
<polygon fill="#e0e0e0" stroke="#999999" points="418,-239 353,-239 353,-220 418,-220 418,-239"/>
<text text-anchor="middle" x="385.5" y="-227" font-family="Helvetica,sans-Serif" font-size="10.00">functional</text>
</a>
</g>
</g>
<!-- Node2&#45;&gt;Node6 -->
<g id="edge5_Node000002_Node000006" class="edge">
<title>Node2&#45;&gt;Node6</title>
<g id="a_edge5_Node000002_Node000006"><a xlink:title=" ">
<path fill="none" stroke="#63b8ff" d="M364.19,-280.37C367.77,-271.99 373.32,-259.01 377.85,-248.39"/>
<polygon fill="#63b8ff" stroke="#63b8ff" points="381.08,-249.74 381.8,-239.17 374.65,-246.99 381.08,-249.74"/>
</a>
</g>
</g>
<!-- Node18 -->
<g id="Node000018" class="node">
<title>Node18</title>
<g id="a_Node000018"><a xlink:title=" ">
<polygon fill="#e0e0e0" stroke="#999999" points="1118,-19 929,-19 929,0 1118,0 1118,-19"/>
<text text-anchor="middle" x="1023.5" y="-7" font-family="Helvetica,sans-Serif" font-size="10.00">QtQmlIntegration/QtQmlIntegration</text>
</a>
</g>
</g>
<!-- Node17&#45;&gt;Node18 -->
<g id="edge18_Node000017_Node000018" class="edge">
<title>Node17&#45;&gt;Node18</title>
<g id="a_edge18_Node000017_Node000018"><a xlink:title=" ">
<path fill="none" stroke="#63b8ff" d="M1001.5,-280.46C1001.5,-261.55 1001.5,-214.71 1001.5,-175.5 1001.5,-175.5 1001.5,-175.5 1001.5,-118.5 1001.5,-86.4 1010.95,-49.99 1017.46,-28.71"/>
<polygon fill="#63b8ff" stroke="#63b8ff" points="1020.83,-29.65 1020.53,-19.06 1014.16,-27.53 1020.83,-29.65"/>
</a>
</g>
</g>
<!-- Node19 -->
<g id="Node000019" class="node">
<title>Node19</title>
<g id="a_Node000019"><a xlink:href="SettingsGroup_8h.html" target="_top" xlink:title=" ">
<polygon fill="white" stroke="#666666" points="973,-239 878,-239 878,-220 973,-220 973,-239"/>
<text text-anchor="middle" x="925.5" y="-227" font-family="Helvetica,sans-Serif" font-size="10.00">SettingsGroup.h</text>
</a>
</g>
</g>
<!-- Node17&#45;&gt;Node19 -->
<g id="edge19_Node000017_Node000019" class="edge">
<title>Node17&#45;&gt;Node19</title>
<g id="a_edge19_Node000017_Node000019"><a xlink:title=" ">
<path fill="none" stroke="#63b8ff" d="M990.29,-280.37C978.39,-271.21 959.36,-256.56 944.99,-245.51"/>
<polygon fill="#63b8ff" stroke="#63b8ff" points="946.82,-242.49 936.76,-239.17 942.55,-248.04 946.82,-242.49"/>
</a>
</g>
</g>
<!-- Node19&#45;&gt;Node20 -->
<g id="edge20_Node000019_Node000020" class="edge">
<title>Node19&#45;&gt;Node20</title>
<g id="a_edge20_Node000019_Node000020"><a xlink:title=" ">
<path fill="none" stroke="#63b8ff" d="M913.29,-219.98C901.72,-211.92 884.12,-199.65 870.34,-190.03"/>
<polygon fill="#63b8ff" stroke="#63b8ff" points="872.14,-187.02 861.93,-184.17 868.13,-192.76 872.14,-187.02"/>
</a>
</g>
</g>
<!-- Node20&#45;&gt;Node5 -->
<g id="edge22_Node000020_Node000005" class="edge">
<title>Node20&#45;&gt;Node5</title>
<g id="a_edge22_Node000020_Node000005"><a xlink:title=" ">
<path fill="none" stroke="#63b8ff" d="M806.99,-173.14C724.31,-170.55 538.82,-155.34 411.5,-74 393.77,-62.67 379.89,-42.59 371.5,-28.04"/>
<polygon fill="#63b8ff" stroke="#63b8ff" points="374.45,-26.13 366.59,-19.02 368.3,-29.48 374.45,-26.13"/>
</a>
</g>
</g>
<!-- Node21 -->
<g id="Node000021" class="node">
<title>Node21</title>
<g id="a_Node000021"><a xlink:title=" ">
<polygon fill="#e0e0e0" stroke="#999999" points="910.5,-19 818.5,-19 818.5,0 910.5,0 910.5,-19"/>
<text text-anchor="middle" x="864.5" y="-7" font-family="Helvetica,sans-Serif" font-size="10.00">QtCore/QObject</text>
</a>
</g>
</g>
<!-- Node20&#45;&gt;Node21 -->
<g id="edge21_Node000020_Node000021" class="edge">
<title>Node20&#45;&gt;Node21</title>
<g id="a_edge21_Node000020_Node000021"><a xlink:title=" ">
<path fill="none" stroke="#63b8ff" d="M853.73,-165C861.84,-148.14 879.35,-109.1 885.5,-74 886.96,-65.68 887.35,-63.24 885.5,-55 883.42,-45.74 879.2,-36.14 875.07,-28.23"/>
<polygon fill="#63b8ff" stroke="#63b8ff" points="878.01,-26.31 870.08,-19.28 871.9,-29.72 878.01,-26.31"/>
</a>
</g>
</g>
<!-- Node22 -->
<g id="Node000022" class="node">
<title>Node22</title>
<g id="a_Node000022"><a xlink:href="Fact_8h.html" target="_top" xlink:title=" ">
<polygon fill="white" stroke="#666666" points="737,-129 692,-129 692,-110 737,-110 737,-129"/>
<text text-anchor="middle" x="714.5" y="-117" font-family="Helvetica,sans-Serif" font-size="10.00">Fact.h</text>
</a>
</g>
</g>
<!-- Node20&#45;&gt;Node22 -->
<g id="edge23_Node000020_Node000022" class="edge">
<title>Node20&#45;&gt;Node22</title>
<g id="a_edge23_Node000020_Node000022"><a xlink:title=" ">
<path fill="none" stroke="#63b8ff" d="M827.81,-164.98C805.7,-156.3 771.18,-142.75 746.05,-132.88"/>
<polygon fill="#63b8ff" stroke="#63b8ff" points="747.17,-129.57 736.58,-129.17 744.61,-136.08 747.17,-129.57"/>
</a>
</g>
</g>
<!-- Node22&#45;&gt;Node5 -->
<g id="edge27_Node000022_Node000005" class="edge">
<title>Node22&#45;&gt;Node5</title>
<g id="a_edge27_Node000022_Node000005"><a xlink:title=" ">
<path fill="none" stroke="#63b8ff" d="M691.8,-118.22C644.6,-116.91 533.21,-109.9 448.5,-74 421.43,-62.53 394.94,-40.94 378.67,-26.15"/>
<polygon fill="#63b8ff" stroke="#63b8ff" points="380.84,-23.39 371.14,-19.13 376.06,-28.51 380.84,-23.39"/>
</a>
</g>
</g>
<!-- Node22&#45;&gt;Node18 -->
<g id="edge29_Node000022_Node000018" class="edge">
<title>Node22&#45;&gt;Node18</title>
<g id="a_edge29_Node000022_Node000018"><a xlink:title=" ">
<path fill="none" stroke="#63b8ff" d="M737.02,-113.97C770.08,-107.02 833.5,-92.57 885.5,-74 925.98,-59.55 970.85,-37.76 998.12,-23.83"/>
<polygon fill="#63b8ff" stroke="#63b8ff" points="1000.04,-26.78 1007.32,-19.09 996.83,-20.56 1000.04,-26.78"/>
</a>
</g>
</g>
<!-- Node22&#45;&gt;Node21 -->
<g id="edge25_Node000022_Node000021" class="edge">
<title>Node22&#45;&gt;Node21</title>
<g id="a_edge25_Node000022_Node000021"><a xlink:title=" ">
<path fill="none" stroke="#63b8ff" d="M737.07,-115.32C775.88,-109.33 852.65,-95.08 868.5,-74 878.03,-61.32 875.61,-42.88 871.65,-29.14"/>
<polygon fill="#63b8ff" stroke="#63b8ff" points="874.85,-27.68 868.34,-19.32 868.22,-29.92 874.85,-27.68"/>
</a>
</g>
</g>
<!-- Node23 -->
<g id="Node000023" class="node">
<title>Node23</title>
<g id="a_Node000023"><a xlink:title=" ">
<polygon fill="#e0e0e0" stroke="#999999" points="701,-74 578,-74 578,-55 701,-55 701,-74"/>
<text text-anchor="middle" x="639.5" y="-62" font-family="Helvetica,sans-Serif" font-size="10.00">QtCore/QMutexLocker</text>
</a>
</g>
</g>
<!-- Node22&#45;&gt;Node23 -->
<g id="edge24_Node000022_Node000023" class="edge">
<title>Node22&#45;&gt;Node23</title>
<g id="a_edge24_Node000022_Node000023"><a xlink:title=" ">
<path fill="none" stroke="#63b8ff" d="M702.45,-109.98C691.04,-101.92 673.67,-89.65 660.07,-80.03"/>
<polygon fill="#63b8ff" stroke="#63b8ff" points="661.96,-77.08 651.77,-74.17 657.92,-82.8 661.96,-77.08"/>
</a>
</g>
</g>
<!-- Node24 -->
<g id="Node000024" class="node">
<title>Node24</title>
<g id="a_Node000024"><a xlink:title=" ">
<polygon fill="#e0e0e0" stroke="#999999" points="859.5,-74 719.5,-74 719.5,-55 859.5,-55 859.5,-74"/>
<text text-anchor="middle" x="789.5" y="-62" font-family="Helvetica,sans-Serif" font-size="10.00">QtCore/QRecursiveMutex</text>
</a>
</g>
</g>
<!-- Node22&#45;&gt;Node24 -->
<g id="edge26_Node000022_Node000024" class="edge">
<title>Node22&#45;&gt;Node24</title>
<g id="a_edge26_Node000022_Node000024"><a xlink:title=" ">
<path fill="none" stroke="#63b8ff" d="M726.55,-109.98C737.96,-101.92 755.33,-89.65 768.93,-80.03"/>
<polygon fill="#63b8ff" stroke="#63b8ff" points="771.08,-82.8 777.23,-74.17 767.04,-77.08 771.08,-82.8"/>
</a>
</g>
</g>
<!-- Node25 -->
<g id="Node000025" class="node">
<title>Node25</title>
<g id="a_Node000025"><a xlink:title=" ">
<polygon fill="#e0e0e0" stroke="#999999" points="520,-19 425,-19 425,0 520,0 520,-19"/>
<text text-anchor="middle" x="472.5" y="-7" font-family="Helvetica,sans-Serif" font-size="10.00">QtCore/QVariant</text>
</a>
</g>
</g>
<!-- Node22&#45;&gt;Node25 -->
<g id="edge28_Node000022_Node000025" class="edge">
<title>Node22&#45;&gt;Node25</title>
<g id="a_edge28_Node000022_Node000025"><a xlink:title=" ">
<path fill="none" stroke="#63b8ff" d="M691.94,-118.14C634.93,-116.72 487.46,-109.6 457.5,-74 446.71,-61.18 453.39,-41.99 460.96,-28.06"/>
<polygon fill="#63b8ff" stroke="#63b8ff" points="464.01,-29.78 466.14,-19.4 458,-26.18 464.01,-29.78"/>
</a>
</g>
</g>
<!-- Node26 -->
<g id="Node000026" class="node">
<title>Node26</title>
<g id="a_Node000026"><a xlink:href="FactMetaData_8h.html" target="_top" xlink:title=" ">
<polygon fill="white" stroke="#666666" points="560,-74 467,-74 467,-55 560,-55 560,-74"/>
<text text-anchor="middle" x="513.5" y="-62" font-family="Helvetica,sans-Serif" font-size="10.00">FactMetaData.h</text>
</a>
</g>
</g>
<!-- Node22&#45;&gt;Node26 -->
<g id="edge30_Node000022_Node000026" class="edge">
<title>Node22&#45;&gt;Node26</title>
<g id="a_edge30_Node000022_Node000026"><a xlink:title=" ">
<path fill="none" stroke="#63b8ff" d="M691.83,-112.52C658.92,-103.84 597.31,-87.6 555.84,-76.67"/>
<polygon fill="#63b8ff" stroke="#63b8ff" points="556.59,-73.24 546.03,-74.08 554.8,-80.01 556.59,-73.24"/>
</a>
</g>
</g>
<!-- Node26&#45;&gt;Node5 -->
<g id="edge33_Node000026_Node000005" class="edge">
<title>Node26&#45;&gt;Node5</title>
<g id="a_edge33_Node000026_Node000005"><a xlink:title=" ">
<path fill="none" stroke="#63b8ff" d="M489.24,-54.98C464.18,-46.19 424.87,-32.39 396.67,-22.49"/>
<polygon fill="#63b8ff" stroke="#63b8ff" points="397.8,-19.18 387.2,-19.17 395.48,-25.78 397.8,-19.18"/>
</a>
</g>
</g>
<!-- Node26&#45;&gt;Node18 -->
<g id="edge35_Node000026_Node000018" class="edge">
<title>Node26&#45;&gt;Node18</title>
<g id="a_edge35_Node000026_Node000018"><a xlink:title=" ">
<path fill="none" stroke="#63b8ff" d="M560.28,-56.09C563.06,-55.7 565.82,-55.34 568.5,-55 688.23,-39.9 826.25,-27.04 918.59,-19.09"/>
<polygon fill="#63b8ff" stroke="#63b8ff" points="919.11,-22.55 928.78,-18.21 918.52,-15.58 919.11,-22.55"/>
</a>
</g>
</g>
<!-- Node26&#45;&gt;Node21 -->
<g id="edge32_Node000026_Node000021" class="edge">
<title>Node26&#45;&gt;Node21</title>
<g id="a_edge32_Node000026_Node000021"><a xlink:title=" ">
<path fill="none" stroke="#63b8ff" d="M560.01,-56.3C562.88,-55.86 565.73,-55.42 568.5,-55 652.03,-42.27 748.86,-27.76 808.4,-18.86"/>
<polygon fill="#63b8ff" stroke="#63b8ff" points="808.97,-22.32 818.35,-17.38 807.94,-15.39 808.97,-22.32"/>
</a>
</g>
</g>
<!-- Node26&#45;&gt;Node25 -->
<g id="edge34_Node000026_Node000025" class="edge">
<title>Node26&#45;&gt;Node25</title>
<g id="a_edge34_Node000026_Node000025"><a xlink:title=" ">
<path fill="none" stroke="#63b8ff" d="M506.73,-54.75C500.94,-47.26 492.44,-36.28 485.36,-27.13"/>
<polygon fill="#63b8ff" stroke="#63b8ff" points="488.03,-24.86 479.14,-19.09 482.49,-29.14 488.03,-24.86"/>
</a>
</g>
</g>
<!-- Node27 -->
<g id="Node000027" class="node">
<title>Node27</title>
<g id="a_Node000027"><a xlink:title=" ">
<polygon fill="#e0e0e0" stroke="#999999" points="624.5,-19 538.5,-19 538.5,0 624.5,0 624.5,-19"/>
<text text-anchor="middle" x="581.5" y="-7" font-family="Helvetica,sans-Serif" font-size="10.00">QtCore/QHash</text>
</a>
</g>
</g>
<!-- Node26&#45;&gt;Node27 -->
<g id="edge31_Node000026_Node000027" class="edge">
<title>Node26&#45;&gt;Node27</title>
<g id="a_edge31_Node000026_Node000027"><a xlink:title=" ">
<path fill="none" stroke="#63b8ff" d="M524.43,-54.98C534.58,-47.07 549.92,-35.11 562.15,-25.58"/>
<polygon fill="#63b8ff" stroke="#63b8ff" points="564.64,-28.08 570.38,-19.17 560.34,-22.56 564.64,-28.08"/>
</a>
</g>
</g>
<!-- Node29 -->
<g id="Node000029" class="node">
<title>Node29</title>
<g id="a_Node000029"><a xlink:title=" ">
<polygon fill="#e0e0e0" stroke="#999999" points="1851.5,-239 1723.5,-239 1723.5,-220 1851.5,-220 1851.5,-239"/>
<text text-anchor="middle" x="1787.5" y="-227" font-family="Helvetica,sans-Serif" font-size="10.00">QtCore/QElapsedTimer</text>
</a>
</g>
</g>
<!-- Node28&#45;&gt;Node29 -->
<g id="edge37_Node000028_Node000029" class="edge">
<title>Node28&#45;&gt;Node29</title>
<g id="a_edge37_Node000028_Node000029"><a xlink:title=" ">
<path fill="none" stroke="#63b8ff" d="M1311.35,-280.5C1320.13,-278.46 1329.63,-276.45 1338.5,-275 1500.93,-248.4 1545.82,-256.38 1713.26,-239.1"/>
<polygon fill="#63b8ff" stroke="#63b8ff" points="1713.83,-242.56 1723.41,-238.04 1713.1,-235.6 1713.83,-242.56"/>
</a>
</g>
</g>
<!-- Node30 -->
<g id="Node000030" class="node">
<title>Node30</title>
<g id="a_Node000030"><a xlink:title=" ">
<polygon fill="#e0e0e0" stroke="#999999" points="1319.5,-239 1237.5,-239 1237.5,-220 1319.5,-220 1319.5,-239"/>
<text text-anchor="middle" x="1278.5" y="-227" font-family="Helvetica,sans-Serif" font-size="10.00">QtCore/QMap</text>
</a>
</g>
</g>
<!-- Node28&#45;&gt;Node30 -->
<g id="edge38_Node000028_Node000030" class="edge">
<title>Node28&#45;&gt;Node30</title>
<g id="a_edge38_Node000028_Node000030"><a xlink:title=" ">
<path fill="none" stroke="#63b8ff" d="M1278.5,-280.37C1278.5,-272.25 1278.5,-259.81 1278.5,-249.39"/>
<polygon fill="#63b8ff" stroke="#63b8ff" points="1282,-249.17 1278.5,-239.17 1275,-249.17 1282,-249.17"/>
</a>
</g>
</g>
<!-- Node31 -->
<g id="Node000031" class="node">
<title>Node31</title>
<g id="a_Node000031"><a xlink:title=" ">
<polygon fill="#e0e0e0" stroke="#999999" points="1947,-239 1870,-239 1870,-220 1947,-220 1947,-239"/>
<text text-anchor="middle" x="1908.5" y="-227" font-family="Helvetica,sans-Serif" font-size="10.00">QtCore/QSet</text>
</a>
</g>
</g>
<!-- Node28&#45;&gt;Node31 -->
<g id="edge39_Node000028_Node000031" class="edge">
<title>Node28&#45;&gt;Node31</title>
<g id="a_edge39_Node000028_Node000031"><a xlink:title=" ">
<path fill="none" stroke="#63b8ff" d="M1310.7,-280.49C1319.65,-278.39 1329.4,-276.37 1338.5,-275 1565.22,-240.96 1627.91,-266.57 1859.69,-238.94"/>
<polygon fill="#63b8ff" stroke="#63b8ff" points="1860.27,-242.4 1869.78,-237.72 1859.43,-235.45 1860.27,-242.4"/>
</a>
</g>
</g>
<!-- Node32 -->
<g id="Node000032" class="node">
<title>Node32</title>
<g id="a_Node000032"><a xlink:title=" ">
<polygon fill="#e0e0e0" stroke="#999999" points="1427,-239 1338,-239 1338,-220 1427,-220 1427,-239"/>
<text text-anchor="middle" x="1382.5" y="-227" font-family="Helvetica,sans-Serif" font-size="10.00">QtCore/QTimer</text>
</a>
</g>
</g>
<!-- Node28&#45;&gt;Node32 -->
<g id="edge40_Node000028_Node000032" class="edge">
<title>Node28&#45;&gt;Node32</title>
<g id="a_edge40_Node000028_Node000032"><a xlink:title=" ">
<path fill="none" stroke="#63b8ff" d="M1293.85,-280.37C1310.82,-270.82 1338.4,-255.31 1358.29,-244.12"/>
<polygon fill="#63b8ff" stroke="#63b8ff" points="1360.09,-247.12 1367.09,-239.17 1356.66,-241.02 1360.09,-247.12"/>
</a>
</g>
</g>
<!-- Node33 -->
<g id="Node000033" class="node">
<title>Node33</title>
<g id="a_Node000033"><a xlink:title=" ">
<polygon fill="#e0e0e0" stroke="#999999" points="1554,-239 1445,-239 1445,-220 1554,-220 1554,-239"/>
<text text-anchor="middle" x="1499.5" y="-227" font-family="Helvetica,sans-Serif" font-size="10.00">QtCore/QTranslator</text>
</a>
</g>
</g>
<!-- Node28&#45;&gt;Node33 -->
<g id="edge41_Node000028_Node000033" class="edge">
<title>Node28&#45;&gt;Node33</title>
<g id="a_edge41_Node000028_Node000033"><a xlink:title=" ">
<path fill="none" stroke="#63b8ff" d="M1310.64,-280.49C1349.43,-270.23 1414.76,-252.93 1457.51,-241.62"/>
<polygon fill="#63b8ff" stroke="#63b8ff" points="1458.55,-244.96 1467.33,-239.02 1456.76,-238.19 1458.55,-244.96"/>
</a>
</g>
</g>
<!-- Node34 -->
<g id="Node000034" class="node">
<title>Node34</title>
<g id="a_Node000034"><a xlink:title=" ">
<polygon fill="#e0e0e0" stroke="#999999" points="1705,-239 1572,-239 1572,-220 1705,-220 1705,-239"/>
<text text-anchor="middle" x="1638.5" y="-227" font-family="Helvetica,sans-Serif" font-size="10.00">QtWidgets/QApplication</text>
</a>
</g>
</g>
<!-- Node28&#45;&gt;Node34 -->
<g id="edge42_Node000028_Node000034" class="edge">
<title>Node28&#45;&gt;Node34</title>
<g id="a_edge42_Node000028_Node000034"><a xlink:title=" ">
<path fill="none" stroke="#63b8ff" d="M1312.98,-280.44C1321.31,-278.52 1330.2,-276.58 1338.5,-275 1413.92,-260.63 1500.75,-248.19 1561.53,-240.15"/>
<polygon fill="#63b8ff" stroke="#63b8ff" points="1562.35,-243.57 1571.81,-238.8 1561.44,-236.63 1562.35,-243.57"/>
</a>
</g>
</g>
<!-- Node35&#45;&gt;Node4 -->
<g id="edge44_Node000035_Node000004" class="edge">
<title>Node35&#45;&gt;Node4</title>
<g id="a_edge44_Node000035_Node000004"><a xlink:title=" ">
<path fill="none" stroke="#63b8ff" d="M224.5,-280.37C224.5,-272.25 224.5,-259.81 224.5,-249.39"/>
<polygon fill="#63b8ff" stroke="#63b8ff" points="228,-249.17 224.5,-239.17 221,-249.17 228,-249.17"/>
</a>
</g>
</g>
<!-- Node36&#45;&gt;Node18 -->
<g id="edge48_Node000036_Node000018" class="edge">
<title>Node36&#45;&gt;Node18</title>
<g id="a_edge48_Node000036_Node000018"><a xlink:title=" ">
<path fill="none" stroke="#63b8ff" d="M1163.01,-280.27C1177.85,-262.08 1209.5,-218.27 1209.5,-175.5 1209.5,-175.5 1209.5,-175.5 1209.5,-118.5 1209.5,-61.55 1143.49,-34.13 1090.12,-21.26"/>
<polygon fill="#63b8ff" stroke="#63b8ff" points="1090.84,-17.84 1080.32,-19.02 1089.29,-24.66 1090.84,-17.84"/>
</a>
</g>
</g>
<!-- Node36&#45;&gt;Node21 -->
<g id="edge47_Node000036_Node000021" class="edge">
<title>Node36&#45;&gt;Node21</title>
<g id="a_edge47_Node000036_Node000021"><a xlink:title=" ">
<path fill="none" stroke="#63b8ff" d="M1125.99,-280.41C1104.7,-272.78 1076.77,-259.59 1059.5,-239 1040.49,-216.33 1039.5,-205.09 1039.5,-175.5 1039.5,-175.5 1039.5,-175.5 1039.5,-118.5 1039.5,-61.77 972.07,-33.85 920.92,-20.84"/>
<polygon fill="#63b8ff" stroke="#63b8ff" points="921.48,-17.37 910.94,-18.43 919.84,-24.18 921.48,-17.37"/>
</a>
</g>
</g>
<!-- Node36&#45;&gt;Node30 -->
<g id="edge50_Node000036_Node000030" class="edge">
<title>Node36&#45;&gt;Node30</title>
<g id="a_edge50_Node000036_Node000030"><a xlink:title=" ">
<path fill="none" stroke="#63b8ff" d="M1173.39,-280.49C1193.88,-270.75 1227.69,-254.66 1251.42,-243.38"/>
<polygon fill="#63b8ff" stroke="#63b8ff" points="1253.07,-246.47 1260.59,-239.02 1250.06,-240.15 1253.07,-246.47"/>
</a>
</g>
</g>
<!-- Node37 -->
<g id="Node000037" class="node">
<title>Node37</title>
<g id="a_Node000037"><a xlink:title=" ">
<polygon fill="#e0e0e0" stroke="#999999" points="1181,-239 1068,-239 1068,-220 1181,-220 1181,-239"/>
<text text-anchor="middle" x="1124.5" y="-227" font-family="Helvetica,sans-Serif" font-size="10.00">QtCore/QJsonObject</text>
</a>
</g>
</g>
<!-- Node36&#45;&gt;Node37 -->
<g id="edge49_Node000036_Node000037" class="edge">
<title>Node36&#45;&gt;Node37</title>
<g id="a_edge49_Node000036_Node000037"><a xlink:title=" ">
<path fill="none" stroke="#63b8ff" d="M1150.93,-280.37C1146.44,-271.9 1139.47,-258.74 1133.81,-248.07"/>
<polygon fill="#63b8ff" stroke="#63b8ff" points="1136.87,-246.36 1129.09,-239.17 1130.68,-249.64 1136.87,-246.36"/>
</a>
</g>
</g>
</g>
</svg>
