<?xml version="1.0" encoding="UTF-8" standalone="no"?>
<!DOCTYPE svg PUBLIC "-//W3C//DTD SVG 1.1//EN"
 "http://www.w3.org/Graphics/SVG/1.1/DTD/svg11.dtd">
<!-- Generated by graphviz version 2.43.0 (0)
 -->
<!-- Title: src/Android/AndroidEvents.cc Pages: 1 -->
<svg width="792pt" height="302pt"
 viewBox="0.00 0.00 792.21 302.00" xmlns="http://www.w3.org/2000/svg" xmlns:xlink="http://www.w3.org/1999/xlink">
<g id="graph0" class="graph" transform="scale(1 1) rotate(0) translate(4 298)">
<title>src/Android/AndroidEvents.cc</title>
<!-- Node1 -->
<g id="Node000001" class="node">
<title>Node1</title>
<g id="a_Node000001"><a xlink:title=" ">
<polygon fill="#999999" stroke="#666666" points="345.71,-294 187.71,-294 187.71,-275 345.71,-275 345.71,-294"/>
<text text-anchor="middle" x="266.71" y="-282" font-family="Helvetica,sans-Serif" font-size="10.00">src/Android/AndroidEvents.cc</text>
</a>
</g>
</g>
<!-- Node2 -->
<g id="Node000002" class="node">
<title>Node2</title>
<g id="a_Node000002"><a xlink:href="AndroidEvents_8h.html" target="_top" xlink:title=" ">
<polygon fill="white" stroke="#666666" points="169.71,-239 73.71,-239 73.71,-220 169.71,-220 169.71,-239"/>
<text text-anchor="middle" x="121.71" y="-227" font-family="Helvetica,sans-Serif" font-size="10.00">AndroidEvents.h</text>
</a>
</g>
</g>
<!-- Node1&#45;&gt;Node2 -->
<g id="edge1_Node000001_Node000002" class="edge">
<title>Node1&#45;&gt;Node2</title>
<g id="a_edge1_Node000001_Node000002"><a xlink:title=" ">
<path fill="none" stroke="#63b8ff" d="M243.42,-274.98C219.46,-266.23 181.93,-252.51 154.88,-242.62"/>
<polygon fill="#63b8ff" stroke="#63b8ff" points="156.03,-239.32 145.43,-239.17 153.63,-245.89 156.03,-239.32"/>
</a>
</g>
</g>
<!-- Node6 -->
<g id="Node000006" class="node">
<title>Node6</title>
<g id="a_Node000006"><a xlink:title=" ">
<polygon fill="#e0e0e0" stroke="#999999" points="338.21,-239 195.21,-239 195.21,-220 338.21,-220 338.21,-239"/>
<text text-anchor="middle" x="266.71" y="-227" font-family="Helvetica,sans-Serif" font-size="10.00">QtCore/QApplicationStatic</text>
</a>
</g>
</g>
<!-- Node1&#45;&gt;Node6 -->
<g id="edge5_Node000001_Node000006" class="edge">
<title>Node1&#45;&gt;Node6</title>
<g id="a_edge5_Node000001_Node000006"><a xlink:title=" ">
<path fill="none" stroke="#63b8ff" d="M266.71,-274.75C266.71,-267.8 266.71,-257.85 266.71,-249.13"/>
<polygon fill="#63b8ff" stroke="#63b8ff" points="270.21,-249.09 266.71,-239.09 263.21,-249.09 270.21,-249.09"/>
</a>
</g>
</g>
<!-- Node7 -->
<g id="Node000007" class="node">
<title>Node7</title>
<g id="a_Node000007"><a xlink:href="QGCLoggingCategory_8h.html" target="_top" xlink:title=" ">
<polygon fill="white" stroke="#666666" points="488.71,-239 360.71,-239 360.71,-220 488.71,-220 488.71,-239"/>
<text text-anchor="middle" x="424.71" y="-227" font-family="Helvetica,sans-Serif" font-size="10.00">QGCLoggingCategory.h</text>
</a>
</g>
</g>
<!-- Node1&#45;&gt;Node7 -->
<g id="edge6_Node000001_Node000007" class="edge">
<title>Node1&#45;&gt;Node7</title>
<g id="a_edge6_Node000001_Node000007"><a xlink:title=" ">
<path fill="none" stroke="#63b8ff" d="M292.1,-274.98C318.51,-266.13 360.06,-252.19 389.61,-242.28"/>
<polygon fill="#63b8ff" stroke="#63b8ff" points="390.76,-245.58 399.13,-239.08 388.54,-238.94 390.76,-245.58"/>
</a>
</g>
</g>
<!-- Node3 -->
<g id="Node000003" class="node">
<title>Node3</title>
<g id="a_Node000003"><a xlink:title=" ">
<polygon fill="#e0e0e0" stroke="#999999" points="404.21,-19 261.21,-19 261.21,0 404.21,0 404.21,-19"/>
<text text-anchor="middle" x="332.71" y="-7" font-family="Helvetica,sans-Serif" font-size="10.00">QtCore/QLoggingCategory</text>
</a>
</g>
</g>
<!-- Node2&#45;&gt;Node3 -->
<g id="edge2_Node000002_Node000003" class="edge">
<title>Node2&#45;&gt;Node3</title>
<g id="a_edge2_Node000002_Node000003"><a xlink:title=" ">
<path fill="none" stroke="#63b8ff" d="M73.65,-221.02C33.38,-212.47 -14.66,-195.54 4.71,-165 61.35,-75.72 184.86,-37.09 263.11,-21.07"/>
<polygon fill="#63b8ff" stroke="#63b8ff" points="264.23,-24.42 273.37,-19.05 262.88,-17.55 264.23,-24.42"/>
</a>
</g>
</g>
<!-- Node4 -->
<g id="Node000004" class="node">
<title>Node4</title>
<g id="a_Node000004"><a xlink:title=" ">
<polygon fill="#e0e0e0" stroke="#999999" points="309.71,-184 217.71,-184 217.71,-165 309.71,-165 309.71,-184"/>
<text text-anchor="middle" x="263.71" y="-172" font-family="Helvetica,sans-Serif" font-size="10.00">QtCore/QObject</text>
</a>
</g>
</g>
<!-- Node2&#45;&gt;Node4 -->
<g id="edge3_Node000002_Node000004" class="edge">
<title>Node2&#45;&gt;Node4</title>
<g id="a_edge3_Node000002_Node000004"><a xlink:title=" ">
<path fill="none" stroke="#63b8ff" d="M144.53,-219.98C167.89,-211.27 204.42,-197.63 230.88,-187.75"/>
<polygon fill="#63b8ff" stroke="#63b8ff" points="232.34,-190.95 240.48,-184.17 229.89,-184.39 232.34,-190.95"/>
</a>
</g>
</g>
<!-- Node5 -->
<g id="Node000005" class="node">
<title>Node5</title>
<g id="a_Node000005"><a xlink:title=" ">
<polygon fill="#e0e0e0" stroke="#999999" points="199.21,-184 14.21,-184 14.21,-165 199.21,-165 199.21,-184"/>
<text text-anchor="middle" x="106.71" y="-172" font-family="Helvetica,sans-Serif" font-size="10.00">QtCore/private/qandroidextras_p.h</text>
</a>
</g>
</g>
<!-- Node2&#45;&gt;Node5 -->
<g id="edge4_Node000002_Node000005" class="edge">
<title>Node2&#45;&gt;Node5</title>
<g id="a_edge4_Node000002_Node000005"><a xlink:title=" ">
<path fill="none" stroke="#63b8ff" d="M119.24,-219.75C117.25,-212.72 114.39,-202.62 111.91,-193.84"/>
<polygon fill="#63b8ff" stroke="#63b8ff" points="115.24,-192.76 109.15,-184.09 108.5,-194.66 115.24,-192.76"/>
</a>
</g>
</g>
<!-- Node7&#45;&gt;Node3 -->
<g id="edge14_Node000007_Node000003" class="edge">
<title>Node7&#45;&gt;Node3</title>
<g id="a_edge14_Node000007_Node000003"><a xlink:title=" ">
<path fill="none" stroke="#63b8ff" d="M402.65,-219.96C387.18,-212.77 367.43,-200.93 356.71,-184 325.87,-135.28 327.55,-63.53 330.5,-29.61"/>
<polygon fill="#63b8ff" stroke="#63b8ff" points="334.02,-29.59 331.54,-19.29 327.05,-28.88 334.02,-29.59"/>
</a>
</g>
</g>
<!-- Node7&#45;&gt;Node4 -->
<g id="edge15_Node000007_Node000004" class="edge">
<title>Node7&#45;&gt;Node4</title>
<g id="a_edge15_Node000007_Node000004"><a xlink:title=" ">
<path fill="none" stroke="#63b8ff" d="M398.85,-219.98C371.93,-211.13 329.6,-197.19 299.49,-187.28"/>
<polygon fill="#63b8ff" stroke="#63b8ff" points="300.38,-183.88 289.78,-184.08 298.19,-190.53 300.38,-183.88"/>
</a>
</g>
</g>
<!-- Node8 -->
<g id="Node000008" class="node">
<title>Node8</title>
<g id="a_Node000008"><a xlink:href="QmlObjectListModel_8h.html" target="_top" xlink:title=" ">
<polygon fill="white" stroke="#666666" points="491.21,-184 366.21,-184 366.21,-165 491.21,-165 491.21,-184"/>
<text text-anchor="middle" x="428.71" y="-172" font-family="Helvetica,sans-Serif" font-size="10.00">QmlObjectListModel.h</text>
</a>
</g>
</g>
<!-- Node7&#45;&gt;Node8 -->
<g id="edge7_Node000007_Node000008" class="edge">
<title>Node7&#45;&gt;Node8</title>
<g id="a_edge7_Node000007_Node000008"><a xlink:title=" ">
<path fill="none" stroke="#63b8ff" d="M425.37,-219.75C425.9,-212.8 426.65,-202.85 427.31,-194.13"/>
<polygon fill="#63b8ff" stroke="#63b8ff" points="430.8,-194.32 428.07,-184.09 423.82,-193.8 430.8,-194.32"/>
</a>
</g>
</g>
<!-- Node13 -->
<g id="Node000013" class="node">
<title>Node13</title>
<g id="a_Node000013"><a xlink:title=" ">
<polygon fill="#e0e0e0" stroke="#999999" points="616.21,-184 509.21,-184 509.21,-165 616.21,-165 616.21,-184"/>
<text text-anchor="middle" x="562.71" y="-172" font-family="Helvetica,sans-Serif" font-size="10.00">QtCore/QStringList</text>
</a>
</g>
</g>
<!-- Node7&#45;&gt;Node13 -->
<g id="edge16_Node000007_Node000013" class="edge">
<title>Node7&#45;&gt;Node13</title>
<g id="a_edge16_Node000007_Node000013"><a xlink:title=" ">
<path fill="none" stroke="#63b8ff" d="M446.89,-219.98C469.49,-211.3 504.78,-197.75 530.47,-187.88"/>
<polygon fill="#63b8ff" stroke="#63b8ff" points="532.06,-191.02 540.14,-184.17 529.55,-184.49 532.06,-191.02"/>
</a>
</g>
</g>
<!-- Node14 -->
<g id="Node000014" class="node">
<title>Node14</title>
<g id="a_Node000014"><a xlink:title=" ">
<polygon fill="#e0e0e0" stroke="#999999" points="716.71,-184 634.71,-184 634.71,-165 716.71,-165 716.71,-184"/>
<text text-anchor="middle" x="675.71" y="-172" font-family="Helvetica,sans-Serif" font-size="10.00">QtCore/QMap</text>
</a>
</g>
</g>
<!-- Node7&#45;&gt;Node14 -->
<g id="edge17_Node000007_Node000014" class="edge">
<title>Node7&#45;&gt;Node14</title>
<g id="a_edge17_Node000007_Node000014"><a xlink:title=" ">
<path fill="none" stroke="#63b8ff" d="M465.04,-219.98C508.55,-210.8 577.92,-196.15 625.07,-186.19"/>
<polygon fill="#63b8ff" stroke="#63b8ff" points="626.01,-189.57 635.07,-184.08 624.56,-182.72 626.01,-189.57"/>
</a>
</g>
</g>
<!-- Node8&#45;&gt;Node3 -->
<g id="edge13_Node000008_Node000003" class="edge">
<title>Node8&#45;&gt;Node3</title>
<g id="a_edge13_Node000008_Node000003"><a xlink:title=" ">
<path fill="none" stroke="#63b8ff" d="M423.55,-164.74C408.38,-138.98 363.71,-63.13 343.21,-28.33"/>
<polygon fill="#63b8ff" stroke="#63b8ff" points="345.99,-26.15 337.9,-19.31 339.96,-29.7 345.99,-26.15"/>
</a>
</g>
</g>
<!-- Node9 -->
<g id="Node000009" class="node">
<title>Node9</title>
<g id="a_Node000009"><a xlink:href="ObjectListModelBase_8h.html" target="_top" xlink:title=" ">
<polygon fill="white" stroke="#666666" points="549.71,-129 421.71,-129 421.71,-110 549.71,-110 549.71,-129"/>
<text text-anchor="middle" x="485.71" y="-117" font-family="Helvetica,sans-Serif" font-size="10.00">ObjectListModelBase.h</text>
</a>
</g>
</g>
<!-- Node8&#45;&gt;Node9 -->
<g id="edge8_Node000008_Node000009" class="edge">
<title>Node8&#45;&gt;Node9</title>
<g id="a_edge8_Node000008_Node000009"><a xlink:title=" ">
<path fill="none" stroke="#63b8ff" d="M437.87,-164.98C446.22,-157.23 458.75,-145.58 468.89,-136.14"/>
<polygon fill="#63b8ff" stroke="#63b8ff" points="471.45,-138.54 476.39,-129.17 466.68,-133.42 471.45,-138.54"/>
</a>
</g>
</g>
<!-- Node10 -->
<g id="Node000010" class="node">
<title>Node10</title>
<g id="a_Node000010"><a xlink:href="ObjectItemModelBase_8h.html" target="_top" xlink:title=" ">
<polygon fill="white" stroke="#666666" points="562.71,-74 428.71,-74 428.71,-55 562.71,-55 562.71,-74"/>
<text text-anchor="middle" x="495.71" y="-62" font-family="Helvetica,sans-Serif" font-size="10.00">ObjectItemModelBase.h</text>
</a>
</g>
</g>
<!-- Node9&#45;&gt;Node10 -->
<g id="edge9_Node000009_Node000010" class="edge">
<title>Node9&#45;&gt;Node10</title>
<g id="a_edge9_Node000009_Node000010"><a xlink:title=" ">
<path fill="none" stroke="#63b8ff" d="M487.37,-109.75C488.68,-102.8 490.55,-92.85 492.2,-84.13"/>
<polygon fill="#63b8ff" stroke="#63b8ff" points="495.68,-84.56 494.09,-74.09 488.8,-83.27 495.68,-84.56"/>
</a>
</g>
</g>
<!-- Node10&#45;&gt;Node3 -->
<g id="edge11_Node000010_Node000003" class="edge">
<title>Node10&#45;&gt;Node3</title>
<g id="a_edge11_Node000010_Node000003"><a xlink:title=" ">
<path fill="none" stroke="#63b8ff" d="M469.53,-54.98C442.28,-46.13 399.41,-32.19 368.93,-22.28"/>
<polygon fill="#63b8ff" stroke="#63b8ff" points="369.7,-18.85 359.11,-19.08 367.54,-25.5 369.7,-18.85"/>
</a>
</g>
</g>
<!-- Node11 -->
<g id="Node000011" class="node">
<title>Node11</title>
<g id="a_Node000011"><a xlink:title=" ">
<polygon fill="#e0e0e0" stroke="#999999" points="576.71,-19 422.71,-19 422.71,0 576.71,0 576.71,-19"/>
<text text-anchor="middle" x="499.71" y="-7" font-family="Helvetica,sans-Serif" font-size="10.00">QtCore/QAbstractItemModel</text>
</a>
</g>
</g>
<!-- Node10&#45;&gt;Node11 -->
<g id="edge10_Node000010_Node000011" class="edge">
<title>Node10&#45;&gt;Node11</title>
<g id="a_edge10_Node000010_Node000011"><a xlink:title=" ">
<path fill="none" stroke="#63b8ff" d="M496.37,-54.75C496.9,-47.8 497.65,-37.85 498.31,-29.13"/>
<polygon fill="#63b8ff" stroke="#63b8ff" points="501.8,-29.32 499.07,-19.09 494.82,-28.8 501.8,-29.32"/>
</a>
</g>
</g>
<!-- Node12 -->
<g id="Node000012" class="node">
<title>Node12</title>
<g id="a_Node000012"><a xlink:title=" ">
<polygon fill="#e0e0e0" stroke="#999999" points="784.21,-19 595.21,-19 595.21,0 784.21,0 784.21,-19"/>
<text text-anchor="middle" x="689.71" y="-7" font-family="Helvetica,sans-Serif" font-size="10.00">QtQmlIntegration/QtQmlIntegration</text>
</a>
</g>
</g>
<!-- Node10&#45;&gt;Node12 -->
<g id="edge12_Node000010_Node000012" class="edge">
<title>Node10&#45;&gt;Node12</title>
<g id="a_edge12_Node000010_Node000012"><a xlink:title=" ">
<path fill="none" stroke="#63b8ff" d="M526.88,-54.98C559.88,-45.97 612.11,-31.7 648.49,-21.76"/>
<polygon fill="#63b8ff" stroke="#63b8ff" points="649.58,-25.09 658.3,-19.08 647.73,-18.34 649.58,-25.09"/>
</a>
</g>
</g>
</g>
</svg>
