<?xml version="1.0" encoding="UTF-8" standalone="no"?>
<!DOCTYPE svg PUBLIC "-//W3C//DTD SVG 1.1//EN"
 "http://www.w3.org/Graphics/SVG/1.1/DTD/svg11.dtd">
<!-- Generated by graphviz version 2.43.0 (0)
 -->
<!-- Title: src/Android/AndroidSerial.cc Pages: 1 -->
<svg width="2668pt" height="357pt"
 viewBox="0.00 0.00 2668.00 357.00" xmlns="http://www.w3.org/2000/svg" xmlns:xlink="http://www.w3.org/1999/xlink">
<g id="graph0" class="graph" transform="scale(1 1) rotate(0) translate(4 353)">
<title>src/Android/AndroidSerial.cc</title>
<!-- Node1 -->
<g id="Node000001" class="node">
<title>Node1</title>
<g id="a_Node000001"><a xlink:title=" ">
<polygon fill="#999999" stroke="#666666" points="2023,-349 1870,-349 1870,-330 2023,-330 2023,-349"/>
<text text-anchor="middle" x="1946.5" y="-337" font-family="Helvetica,sans-Serif" font-size="10.00">src/Android/AndroidSerial.cc</text>
</a>
</g>
</g>
<!-- Node2 -->
<g id="Node000002" class="node">
<title>Node2</title>
<g id="a_Node000002"><a xlink:href="AndroidSerial_8h.html" target="_top" xlink:title=" ">
<polygon fill="white" stroke="#666666" points="214,-239 123,-239 123,-220 214,-220 214,-239"/>
<text text-anchor="middle" x="168.5" y="-227" font-family="Helvetica,sans-Serif" font-size="10.00">AndroidSerial.h</text>
</a>
</g>
</g>
<!-- Node1&#45;&gt;Node2 -->
<g id="edge1_Node000001_Node000002" class="edge">
<title>Node1&#45;&gt;Node2</title>
<g id="a_edge1_Node000001_Node000002"><a xlink:title=" ">
<path fill="none" stroke="#63b8ff" d="M1869.72,-337.66C1611.9,-334.6 778.38,-322.67 511.5,-294 404.33,-282.49 280.39,-256.29 214.8,-241.39"/>
<polygon fill="#63b8ff" stroke="#63b8ff" points="215.31,-237.92 204.78,-239.1 213.75,-244.74 215.31,-237.92"/>
</a>
</g>
</g>
<!-- Node18 -->
<g id="Node000018" class="node">
<title>Node18</title>
<g id="a_Node000018"><a xlink:title=" ">
<polygon fill="#e0e0e0" stroke="#999999" points="1843.5,-239 1757.5,-239 1757.5,-220 1843.5,-220 1843.5,-239"/>
<text text-anchor="middle" x="1800.5" y="-227" font-family="Helvetica,sans-Serif" font-size="10.00">QtCore/QHash</text>
</a>
</g>
</g>
<!-- Node1&#45;&gt;Node18 -->
<g id="edge18_Node000001_Node000018" class="edge">
<title>Node1&#45;&gt;Node18</title>
<g id="a_edge18_Node000001_Node000018"><a xlink:title=" ">
<path fill="none" stroke="#63b8ff" d="M1934.8,-329.84C1909.92,-311.44 1851.51,-268.23 1820.56,-245.34"/>
<polygon fill="#63b8ff" stroke="#63b8ff" points="1822.38,-242.33 1812.26,-239.2 1818.21,-247.96 1822.38,-242.33"/>
</a>
</g>
</g>
<!-- Node19 -->
<g id="Node000019" class="node">
<title>Node19</title>
<g id="a_Node000019"><a xlink:title=" ">
<polygon fill="#e0e0e0" stroke="#999999" points="2309,-239 2174,-239 2174,-220 2309,-220 2309,-239"/>
<text text-anchor="middle" x="2241.5" y="-227" font-family="Helvetica,sans-Serif" font-size="10.00">QtCore/QJniEnvironment</text>
</a>
</g>
</g>
<!-- Node1&#45;&gt;Node19 -->
<g id="edge19_Node000001_Node000019" class="edge">
<title>Node1&#45;&gt;Node19</title>
<g id="a_edge19_Node000001_Node000019"><a xlink:title=" ">
<path fill="none" stroke="#63b8ff" d="M1967.38,-329.99C1988.49,-321.29 2021.99,-307.21 2050.5,-294 2067.63,-286.06 2070.92,-281.89 2088.5,-275 2123.56,-261.27 2164.59,-249.56 2195.33,-241.6"/>
<polygon fill="#63b8ff" stroke="#63b8ff" points="2196.51,-244.91 2205.34,-239.05 2194.78,-238.13 2196.51,-244.91"/>
</a>
</g>
</g>
<!-- Node20 -->
<g id="Node000020" class="node">
<title>Node20</title>
<g id="a_Node000020"><a xlink:title=" ">
<polygon fill="#e0e0e0" stroke="#999999" points="2201.5,-294 2097.5,-294 2097.5,-275 2201.5,-275 2201.5,-294"/>
<text text-anchor="middle" x="2149.5" y="-282" font-family="Helvetica,sans-Serif" font-size="10.00">QtCore/QJniObject</text>
</a>
</g>
</g>
<!-- Node1&#45;&gt;Node20 -->
<g id="edge20_Node000001_Node000020" class="edge">
<title>Node1&#45;&gt;Node20</title>
<g id="a_edge20_Node000001_Node000020"><a xlink:title=" ">
<path fill="none" stroke="#63b8ff" d="M1979.12,-329.98C2013.79,-320.93 2068.76,-306.58 2106.85,-296.64"/>
<polygon fill="#63b8ff" stroke="#63b8ff" points="2107.84,-299.99 2116.63,-294.08 2106.07,-293.22 2107.84,-299.99"/>
</a>
</g>
</g>
<!-- Node21 -->
<g id="Node000021" class="node">
<title>Node21</title>
<g id="a_Node000021"><a xlink:title=" ">
<polygon fill="#e0e0e0" stroke="#999999" points="968.5,-239 876.5,-239 876.5,-220 968.5,-220 968.5,-239"/>
<text text-anchor="middle" x="922.5" y="-227" font-family="Helvetica,sans-Serif" font-size="10.00">QtCore/QMutex</text>
</a>
</g>
</g>
<!-- Node1&#45;&gt;Node21 -->
<g id="edge21_Node000001_Node000021" class="edge">
<title>Node1&#45;&gt;Node21</title>
<g id="a_edge21_Node000001_Node000021"><a xlink:title=" ">
<path fill="none" stroke="#63b8ff" d="M1869.8,-337.33C1690.02,-334.12 1245.57,-323.38 1099.5,-294 1044.88,-283.01 984.43,-258.46 950.19,-243.3"/>
<polygon fill="#63b8ff" stroke="#63b8ff" points="951.4,-240.01 940.85,-239.11 948.54,-246.4 951.4,-240.01"/>
</a>
</g>
</g>
<!-- Node22 -->
<g id="Node000022" class="node">
<title>Node22</title>
<g id="a_Node000022"><a xlink:title=" ">
<polygon fill="#e0e0e0" stroke="#999999" points="2315,-294 2220,-294 2220,-275 2315,-275 2315,-294"/>
<text text-anchor="middle" x="2267.5" y="-282" font-family="Helvetica,sans-Serif" font-size="10.00">QtCore/QPointer</text>
</a>
</g>
</g>
<!-- Node1&#45;&gt;Node22 -->
<g id="edge22_Node000001_Node000022" class="edge">
<title>Node1&#45;&gt;Node22</title>
<g id="a_edge22_Node000001_Node000022"><a xlink:title=" ">
<path fill="none" stroke="#63b8ff" d="M1998.07,-329.98C2055.96,-320.43 2149.63,-304.96 2209.87,-295.01"/>
<polygon fill="#63b8ff" stroke="#63b8ff" points="2210.68,-298.43 2219.98,-293.35 2209.54,-291.52 2210.68,-298.43"/>
</a>
</g>
</g>
<!-- Node23 -->
<g id="Node000023" class="node">
<title>Node23</title>
<g id="a_Node000023"><a xlink:title=" ">
<polygon fill="#e0e0e0" stroke="#999999" points="2483.5,-294 2333.5,-294 2333.5,-275 2483.5,-275 2483.5,-294"/>
<text text-anchor="middle" x="2408.5" y="-282" font-family="Helvetica,sans-Serif" font-size="10.00">QtCore/QRandomGenerator</text>
</a>
</g>
</g>
<!-- Node1&#45;&gt;Node23 -->
<g id="edge23_Node000001_Node000023" class="edge">
<title>Node1&#45;&gt;Node23</title>
<g id="a_edge23_Node000001_Node000023"><a xlink:title=" ">
<path fill="none" stroke="#63b8ff" d="M2020.73,-329.98C2103.54,-320.49 2237.24,-305.15 2323.99,-295.19"/>
<polygon fill="#63b8ff" stroke="#63b8ff" points="2324.54,-298.66 2334.07,-294.04 2323.74,-291.7 2324.54,-298.66"/>
</a>
</g>
</g>
<!-- Node24 -->
<g id="Node000024" class="node">
<title>Node24</title>
<g id="a_Node000024"><a xlink:title=" ">
<polygon fill="#e0e0e0" stroke="#999999" points="1995.5,-239 1861.5,-239 1861.5,-220 1995.5,-220 1995.5,-239"/>
<text text-anchor="middle" x="1928.5" y="-227" font-family="Helvetica,sans-Serif" font-size="10.00">QtCore/QReadWriteLock</text>
</a>
</g>
</g>
<!-- Node1&#45;&gt;Node24 -->
<g id="edge24_Node000001_Node000024" class="edge">
<title>Node1&#45;&gt;Node24</title>
<g id="a_edge24_Node000001_Node000024"><a xlink:title=" ">
<path fill="none" stroke="#63b8ff" d="M1940.92,-329.72C1935.76,-321.03 1928.45,-307.17 1925.5,-294 1922.18,-279.17 1923.3,-261.93 1925.04,-249.16"/>
<polygon fill="#63b8ff" stroke="#63b8ff" points="1928.5,-249.68 1926.64,-239.25 1921.59,-248.57 1928.5,-249.68"/>
</a>
</g>
</g>
<!-- Node25 -->
<g id="Node000025" class="node">
<title>Node25</title>
<g id="a_Node000025"><a xlink:title=" ">
<polygon fill="#e0e0e0" stroke="#999999" points="2597,-294 2502,-294 2502,-275 2597,-275 2597,-294"/>
<text text-anchor="middle" x="2549.5" y="-282" font-family="Helvetica,sans-Serif" font-size="10.00">QtCore/QThread</text>
</a>
</g>
</g>
<!-- Node1&#45;&gt;Node25 -->
<g id="edge25_Node000001_Node000025" class="edge">
<title>Node1&#45;&gt;Node25</title>
<g id="a_edge25_Node000001_Node000025"><a xlink:title=" ">
<path fill="none" stroke="#63b8ff" d="M2023.07,-333.88C2126.82,-327.25 2318.05,-313.76 2491.84,-293.99"/>
<polygon fill="#63b8ff" stroke="#63b8ff" points="2492.41,-297.45 2501.95,-292.83 2491.61,-290.5 2492.41,-297.45"/>
</a>
</g>
</g>
<!-- Node26 -->
<g id="Node000026" class="node">
<title>Node26</title>
<g id="a_Node000026"><a xlink:href="qserialport__p_8h.html" target="_top" xlink:title=" ">
<polygon fill="white" stroke="#666666" points="610,-294 521,-294 521,-275 610,-275 610,-294"/>
<text text-anchor="middle" x="565.5" y="-282" font-family="Helvetica,sans-Serif" font-size="10.00">qserialport_p.h</text>
</a>
</g>
</g>
<!-- Node1&#45;&gt;Node26 -->
<g id="edge26_Node000001_Node000026" class="edge">
<title>Node1&#45;&gt;Node26</title>
<g id="a_edge26_Node000001_Node000026"><a xlink:title=" ">
<path fill="none" stroke="#63b8ff" d="M1869.79,-335.56C1620.26,-325.98 835.37,-295.86 620.41,-287.61"/>
<polygon fill="#63b8ff" stroke="#63b8ff" points="620.43,-284.11 610.31,-287.22 620.17,-291.1 620.43,-284.11"/>
</a>
</g>
</g>
<!-- Node31 -->
<g id="Node000031" class="node">
<title>Node31</title>
<g id="a_Node000031"><a xlink:href="qserialportinfo__p_8h.html" target="_top" xlink:title=" ">
<polygon fill="white" stroke="#666666" points="1216.5,-294 1108.5,-294 1108.5,-275 1216.5,-275 1216.5,-294"/>
<text text-anchor="middle" x="1162.5" y="-282" font-family="Helvetica,sans-Serif" font-size="10.00">qserialportinfo_p.h</text>
</a>
</g>
</g>
<!-- Node1&#45;&gt;Node31 -->
<g id="edge35_Node000001_Node000031" class="edge">
<title>Node1&#45;&gt;Node31</title>
<g id="a_edge35_Node000001_Node000031"><a xlink:title=" ">
<path fill="none" stroke="#63b8ff" d="M1869.9,-333.32C1715.78,-322.9 1370.73,-299.58 1227.13,-289.87"/>
<polygon fill="#63b8ff" stroke="#63b8ff" points="1226.94,-286.35 1216.73,-289.17 1226.47,-293.33 1226.94,-286.35"/>
</a>
</g>
</g>
<!-- Node33 -->
<g id="Node000033" class="node">
<title>Node33</title>
<g id="a_Node000033"><a xlink:title=" ">
<polygon fill="#e0e0e0" stroke="#999999" points="2660,-294 2615,-294 2615,-275 2660,-275 2660,-294"/>
<text text-anchor="middle" x="2637.5" y="-282" font-family="Helvetica,sans-Serif" font-size="10.00">utility</text>
</a>
</g>
</g>
<!-- Node1&#45;&gt;Node33 -->
<g id="edge38_Node000001_Node000033" class="edge">
<title>Node1&#45;&gt;Node33</title>
<g id="a_edge38_Node000001_Node000033"><a xlink:title=" ">
<path fill="none" stroke="#63b8ff" d="M2023.05,-338.29C2144.77,-336.87 2389.87,-329.57 2605.03,-293.91"/>
<polygon fill="#63b8ff" stroke="#63b8ff" points="2605.65,-297.36 2614.93,-292.25 2604.49,-290.46 2605.65,-297.36"/>
</a>
</g>
</g>
<!-- Node34 -->
<g id="Node000034" class="node">
<title>Node34</title>
<g id="a_Node000034"><a xlink:href="AndroidInterface_8h.html" target="_top" xlink:title=" ">
<polygon fill="white" stroke="#666666" points="2041,-294 1934,-294 1934,-275 2041,-275 2041,-294"/>
<text text-anchor="middle" x="1987.5" y="-282" font-family="Helvetica,sans-Serif" font-size="10.00">AndroidInterface.h</text>
</a>
</g>
</g>
<!-- Node1&#45;&gt;Node34 -->
<g id="edge39_Node000001_Node000034" class="edge">
<title>Node1&#45;&gt;Node34</title>
<g id="a_edge39_Node000001_Node000034"><a xlink:title=" ">
<path fill="none" stroke="#63b8ff" d="M1953.27,-329.75C1959.06,-322.26 1967.56,-311.28 1974.64,-302.13"/>
<polygon fill="#63b8ff" stroke="#63b8ff" points="1977.51,-304.14 1980.86,-294.09 1971.97,-299.86 1977.51,-304.14"/>
</a>
</g>
</g>
<!-- Node36 -->
<g id="Node000036" class="node">
<title>Node36</title>
<g id="a_Node000036"><a xlink:href="QGCLoggingCategory_8h.html" target="_top" xlink:title=" ">
<polygon fill="white" stroke="#666666" points="1683.5,-294 1555.5,-294 1555.5,-275 1683.5,-275 1683.5,-294"/>
<text text-anchor="middle" x="1619.5" y="-282" font-family="Helvetica,sans-Serif" font-size="10.00">QGCLoggingCategory.h</text>
</a>
</g>
</g>
<!-- Node1&#45;&gt;Node36 -->
<g id="edge44_Node000001_Node000036" class="edge">
<title>Node1&#45;&gt;Node36</title>
<g id="a_edge44_Node000001_Node000036"><a xlink:title=" ">
<path fill="none" stroke="#63b8ff" d="M1893.96,-329.98C1836.24,-320.63 1743.59,-305.61 1682.14,-295.65"/>
<polygon fill="#63b8ff" stroke="#63b8ff" points="1682.61,-292.18 1672.18,-294.04 1681.49,-299.09 1682.61,-292.18"/>
</a>
</g>
</g>
<!-- Node3 -->
<g id="Node000003" class="node">
<title>Node3</title>
<g id="a_Node000003"><a xlink:title=" ">
<polygon fill="#e0e0e0" stroke="#999999" points="129.5,-184 19.5,-184 19.5,-165 129.5,-165 129.5,-184"/>
<text text-anchor="middle" x="74.5" y="-172" font-family="Helvetica,sans-Serif" font-size="10.00">QtCore/QByteArray</text>
</a>
</g>
</g>
<!-- Node2&#45;&gt;Node3 -->
<g id="edge2_Node000002_Node000003" class="edge">
<title>Node2&#45;&gt;Node3</title>
<g id="a_edge2_Node000002_Node000003"><a xlink:title=" ">
<path fill="none" stroke="#63b8ff" d="M153.4,-219.98C138.68,-211.69 116.08,-198.94 98.83,-189.22"/>
<polygon fill="#63b8ff" stroke="#63b8ff" points="100.31,-186.03 89.88,-184.17 96.87,-192.13 100.31,-186.03"/>
</a>
</g>
</g>
<!-- Node4 -->
<g id="Node000004" class="node">
<title>Node4</title>
<g id="a_Node000004"><a xlink:title=" ">
<polygon fill="#e0e0e0" stroke="#999999" points="1334,-184 1191,-184 1191,-165 1334,-165 1334,-184"/>
<text text-anchor="middle" x="1262.5" y="-172" font-family="Helvetica,sans-Serif" font-size="10.00">QtCore/QLoggingCategory</text>
</a>
</g>
</g>
<!-- Node2&#45;&gt;Node4 -->
<g id="edge3_Node000002_Node000004" class="edge">
<title>Node2&#45;&gt;Node4</title>
<g id="a_edge3_Node000002_Node000004"><a xlink:title=" ">
<path fill="none" stroke="#63b8ff" d="M214.07,-221.06C217.26,-220.66 220.42,-220.3 223.5,-220 578.7,-185.05 1004.89,-177.54 1180.62,-175.94"/>
<polygon fill="#63b8ff" stroke="#63b8ff" points="1180.85,-179.43 1190.82,-175.85 1180.79,-172.43 1180.85,-179.43"/>
</a>
</g>
</g>
<!-- Node5 -->
<g id="Node000005" class="node">
<title>Node5</title>
<g id="a_Node000005"><a xlink:title=" ">
<polygon fill="#e0e0e0" stroke="#999999" points="1774,-184 1685,-184 1685,-165 1774,-165 1774,-184"/>
<text text-anchor="middle" x="1729.5" y="-172" font-family="Helvetica,sans-Serif" font-size="10.00">QtCore/QString</text>
</a>
</g>
</g>
<!-- Node2&#45;&gt;Node5 -->
<g id="edge4_Node000002_Node000005" class="edge">
<title>Node2&#45;&gt;Node5</title>
<g id="a_edge4_Node000002_Node000005"><a xlink:title=" ">
<path fill="none" stroke="#63b8ff" d="M214.06,-221.01C217.25,-220.63 220.42,-220.28 223.5,-220 369.94,-206.57 1421.24,-182.4 1674.65,-176.72"/>
<polygon fill="#63b8ff" stroke="#63b8ff" points="1674.8,-180.21 1684.72,-176.49 1674.65,-173.22 1674.8,-180.21"/>
</a>
</g>
</g>
<!-- Node6 -->
<g id="Node000006" class="node">
<title>Node6</title>
<g id="a_Node000006"><a xlink:href="qserialport_8h.html" target="_top" xlink:title=" ">
<polygon fill="white" stroke="#666666" points="349.5,-184 271.5,-184 271.5,-165 349.5,-165 349.5,-184"/>
<text text-anchor="middle" x="310.5" y="-172" font-family="Helvetica,sans-Serif" font-size="10.00">qserialport.h</text>
</a>
</g>
</g>
<!-- Node2&#45;&gt;Node6 -->
<g id="edge5_Node000002_Node000006" class="edge">
<title>Node2&#45;&gt;Node6</title>
<g id="a_edge5_Node000002_Node000006"><a xlink:title=" ">
<path fill="none" stroke="#63b8ff" d="M191.31,-219.98C214.67,-211.27 251.2,-197.63 277.67,-187.75"/>
<polygon fill="#63b8ff" stroke="#63b8ff" points="279.13,-190.95 287.27,-184.17 276.68,-184.39 279.13,-190.95"/>
</a>
</g>
</g>
<!-- Node15 -->
<g id="Node000015" class="node">
<title>Node15</title>
<g id="a_Node000015"><a xlink:href="qserialportinfo_8h.html" target="_top" xlink:title=" ">
<polygon fill="white" stroke="#666666" points="245,-184 148,-184 148,-165 245,-165 245,-184"/>
<text text-anchor="middle" x="196.5" y="-172" font-family="Helvetica,sans-Serif" font-size="10.00">qserialportinfo.h</text>
</a>
</g>
</g>
<!-- Node2&#45;&gt;Node15 -->
<g id="edge14_Node000002_Node000015" class="edge">
<title>Node2&#45;&gt;Node15</title>
<g id="a_edge14_Node000002_Node000015"><a xlink:title=" ">
<path fill="none" stroke="#63b8ff" d="M173.12,-219.75C176.96,-212.49 182.52,-201.95 187.26,-192.98"/>
<polygon fill="#63b8ff" stroke="#63b8ff" points="190.39,-194.57 191.96,-184.09 184.2,-191.3 190.39,-194.57"/>
</a>
</g>
</g>
<!-- Node7 -->
<g id="Node000007" class="node">
<title>Node7</title>
<g id="a_Node000007"><a xlink:title=" ">
<polygon fill="#e0e0e0" stroke="#999999" points="492.5,-129 382.5,-129 382.5,-110 492.5,-110 492.5,-129"/>
<text text-anchor="middle" x="437.5" y="-117" font-family="Helvetica,sans-Serif" font-size="10.00">QtCore/qiodevice.h</text>
</a>
</g>
</g>
<!-- Node6&#45;&gt;Node7 -->
<g id="edge6_Node000006_Node000007" class="edge">
<title>Node6&#45;&gt;Node7</title>
<g id="a_edge6_Node000006_Node000007"><a xlink:title=" ">
<path fill="none" stroke="#63b8ff" d="M330.9,-164.98C351.52,-156.38 383.61,-142.99 407.19,-133.15"/>
<polygon fill="#63b8ff" stroke="#63b8ff" points="408.84,-136.25 416.72,-129.17 406.15,-129.79 408.84,-136.25"/>
</a>
</g>
</g>
<!-- Node8 -->
<g id="Node000008" class="node">
<title>Node8</title>
<g id="a_Node000008"><a xlink:href="qserialportglobal_8h.html" target="_top" xlink:title=" ">
<polygon fill="white" stroke="#666666" points="364.5,-129 256.5,-129 256.5,-110 364.5,-110 364.5,-129"/>
<text text-anchor="middle" x="310.5" y="-117" font-family="Helvetica,sans-Serif" font-size="10.00">qserialportglobal.h</text>
</a>
</g>
</g>
<!-- Node6&#45;&gt;Node8 -->
<g id="edge7_Node000006_Node000008" class="edge">
<title>Node6&#45;&gt;Node8</title>
<g id="a_edge7_Node000006_Node000008"><a xlink:title=" ">
<path fill="none" stroke="#63b8ff" d="M310.5,-164.75C310.5,-157.8 310.5,-147.85 310.5,-139.13"/>
<polygon fill="#63b8ff" stroke="#63b8ff" points="314,-139.09 310.5,-129.09 307,-139.09 314,-139.09"/>
</a>
</g>
</g>
<!-- Node9 -->
<g id="Node000009" class="node">
<title>Node9</title>
<g id="a_Node000009"><a xlink:title=" ">
<polygon fill="#e0e0e0" stroke="#999999" points="904.5,-74 808.5,-74 808.5,-55 904.5,-55 904.5,-74"/>
<text text-anchor="middle" x="856.5" y="-62" font-family="Helvetica,sans-Serif" font-size="10.00">QtCore/qstring.h</text>
</a>
</g>
</g>
<!-- Node8&#45;&gt;Node9 -->
<g id="edge8_Node000008_Node000009" class="edge">
<title>Node8&#45;&gt;Node9</title>
<g id="a_edge8_Node000008_Node000009"><a xlink:title=" ">
<path fill="none" stroke="#63b8ff" d="M364.78,-111.03C367.73,-110.67 370.65,-110.32 373.5,-110 526.58,-92.63 707.54,-77.36 798.35,-70.06"/>
<polygon fill="#63b8ff" stroke="#63b8ff" points="798.75,-73.54 808.44,-69.25 798.2,-66.56 798.75,-73.54"/>
</a>
</g>
</g>
<!-- Node10 -->
<g id="Node000010" class="node">
<title>Node10</title>
<g id="a_Node000010"><a xlink:title=" ">
<polygon fill="#e0e0e0" stroke="#999999" points="422.5,-74 324.5,-74 324.5,-55 422.5,-55 422.5,-74"/>
<text text-anchor="middle" x="373.5" y="-62" font-family="Helvetica,sans-Serif" font-size="10.00">QtCore/qglobal.h</text>
</a>
</g>
</g>
<!-- Node8&#45;&gt;Node10 -->
<g id="edge9_Node000008_Node000010" class="edge">
<title>Node8&#45;&gt;Node10</title>
<g id="a_edge9_Node000008_Node000010"><a xlink:title=" ">
<path fill="none" stroke="#63b8ff" d="M320.62,-109.98C329.94,-102.15 343.97,-90.34 355.24,-80.86"/>
<polygon fill="#63b8ff" stroke="#63b8ff" points="357.79,-83.29 363.19,-74.17 353.29,-77.93 357.79,-83.29"/>
</a>
</g>
</g>
<!-- Node11 -->
<g id="Node000011" class="node">
<title>Node11</title>
<g id="a_Node000011"><a xlink:href="qtserialportexports_8h.html" target="_top" xlink:title=" ">
<polygon fill="white" stroke="#666666" points="306,-74 187,-74 187,-55 306,-55 306,-74"/>
<text text-anchor="middle" x="246.5" y="-62" font-family="Helvetica,sans-Serif" font-size="10.00">qtserialportexports.h</text>
</a>
</g>
</g>
<!-- Node8&#45;&gt;Node11 -->
<g id="edge10_Node000008_Node000011" class="edge">
<title>Node8&#45;&gt;Node11</title>
<g id="a_edge10_Node000008_Node000011"><a xlink:title=" ">
<path fill="none" stroke="#63b8ff" d="M300.22,-109.98C290.66,-102.07 276.22,-90.11 264.72,-80.58"/>
<polygon fill="#63b8ff" stroke="#63b8ff" points="266.9,-77.85 256.97,-74.17 262.44,-83.24 266.9,-77.85"/>
</a>
</g>
</g>
<!-- Node12 -->
<g id="Node000012" class="node">
<title>Node12</title>
<g id="a_Node000012"><a xlink:title=" ">
<polygon fill="#e0e0e0" stroke="#999999" points="160,-19 3,-19 3,0 160,0 160,-19"/>
<text text-anchor="middle" x="81.5" y="-7" font-family="Helvetica,sans-Serif" font-size="10.00">QtCore/qcompilerdetection.h</text>
</a>
</g>
</g>
<!-- Node11&#45;&gt;Node12 -->
<g id="edge11_Node000011_Node000012" class="edge">
<title>Node11&#45;&gt;Node12</title>
<g id="a_edge11_Node000011_Node000012"><a xlink:title=" ">
<path fill="none" stroke="#63b8ff" d="M219.99,-54.98C192.29,-46.09 148.64,-32.07 117.76,-22.15"/>
<polygon fill="#63b8ff" stroke="#63b8ff" points="118.81,-18.81 108.22,-19.08 116.67,-25.47 118.81,-18.81"/>
</a>
</g>
</g>
<!-- Node13 -->
<g id="Node000013" class="node">
<title>Node13</title>
<g id="a_Node000013"><a xlink:title=" ">
<polygon fill="#e0e0e0" stroke="#999999" points="315,-19 178,-19 178,0 315,0 315,-19"/>
<text text-anchor="middle" x="246.5" y="-7" font-family="Helvetica,sans-Serif" font-size="10.00">QtCore/qtconfigmacros.h</text>
</a>
</g>
</g>
<!-- Node11&#45;&gt;Node13 -->
<g id="edge12_Node000011_Node000013" class="edge">
<title>Node11&#45;&gt;Node13</title>
<g id="a_edge12_Node000011_Node000013"><a xlink:title=" ">
<path fill="none" stroke="#63b8ff" d="M246.5,-54.75C246.5,-47.8 246.5,-37.85 246.5,-29.13"/>
<polygon fill="#63b8ff" stroke="#63b8ff" points="250,-29.09 246.5,-19.09 243,-29.09 250,-29.09"/>
</a>
</g>
</g>
<!-- Node14 -->
<g id="Node000014" class="node">
<title>Node14</title>
<g id="a_Node000014"><a xlink:title=" ">
<polygon fill="#e0e0e0" stroke="#999999" points="503.5,-19 333.5,-19 333.5,0 503.5,0 503.5,-19"/>
<text text-anchor="middle" x="418.5" y="-7" font-family="Helvetica,sans-Serif" font-size="10.00">QtCore/qtdeprecationmarkers.h</text>
</a>
</g>
</g>
<!-- Node11&#45;&gt;Node14 -->
<g id="edge13_Node000011_Node000014" class="edge">
<title>Node11&#45;&gt;Node14</title>
<g id="a_edge13_Node000011_Node000014"><a xlink:title=" ">
<path fill="none" stroke="#63b8ff" d="M274.13,-54.98C303.01,-46.09 348.51,-32.07 380.7,-22.15"/>
<polygon fill="#63b8ff" stroke="#63b8ff" points="382.12,-25.37 390.65,-19.08 380.06,-18.68 382.12,-25.37"/>
</a>
</g>
</g>
<!-- Node15&#45;&gt;Node8 -->
<g id="edge17_Node000015_Node000008" class="edge">
<title>Node15&#45;&gt;Node8</title>
<g id="a_edge17_Node000015_Node000008"><a xlink:title=" ">
<path fill="none" stroke="#63b8ff" d="M214.82,-164.98C233.16,-156.46 261.61,-143.23 282.73,-133.41"/>
<polygon fill="#63b8ff" stroke="#63b8ff" points="284.26,-136.56 291.85,-129.17 281.31,-130.21 284.26,-136.56"/>
</a>
</g>
</g>
<!-- Node16 -->
<g id="Node000016" class="node">
<title>Node16</title>
<g id="a_Node000016"><a xlink:title=" ">
<polygon fill="#e0e0e0" stroke="#999999" points="238,-129 155,-129 155,-110 238,-110 238,-129"/>
<text text-anchor="middle" x="196.5" y="-117" font-family="Helvetica,sans-Serif" font-size="10.00">QtCore/qlist.h</text>
</a>
</g>
</g>
<!-- Node15&#45;&gt;Node16 -->
<g id="edge15_Node000015_Node000016" class="edge">
<title>Node15&#45;&gt;Node16</title>
<g id="a_edge15_Node000015_Node000016"><a xlink:title=" ">
<path fill="none" stroke="#63b8ff" d="M196.5,-164.75C196.5,-157.8 196.5,-147.85 196.5,-139.13"/>
<polygon fill="#63b8ff" stroke="#63b8ff" points="200,-139.09 196.5,-129.09 193,-139.09 200,-139.09"/>
</a>
</g>
</g>
<!-- Node17 -->
<g id="Node000017" class="node">
<title>Node17</title>
<g id="a_Node000017"><a xlink:title=" ">
<polygon fill="#e0e0e0" stroke="#999999" points="137,-129 0,-129 0,-110 137,-110 137,-129"/>
<text text-anchor="middle" x="68.5" y="-117" font-family="Helvetica,sans-Serif" font-size="10.00">QtCore/qscopedpointer.h</text>
</a>
</g>
</g>
<!-- Node15&#45;&gt;Node17 -->
<g id="edge16_Node000015_Node000017" class="edge">
<title>Node15&#45;&gt;Node17</title>
<g id="a_edge16_Node000015_Node000017"><a xlink:title=" ">
<path fill="none" stroke="#63b8ff" d="M175.93,-164.98C155.07,-156.34 122.53,-142.87 98.73,-133.02"/>
<polygon fill="#63b8ff" stroke="#63b8ff" points="100.02,-129.76 89.44,-129.17 97.34,-136.23 100.02,-129.76"/>
</a>
</g>
</g>
<!-- Node26&#45;&gt;Node2 -->
<g id="edge33_Node000026_Node000002" class="edge">
<title>Node26&#45;&gt;Node2</title>
<g id="a_edge33_Node000026_Node000002"><a xlink:title=" ">
<path fill="none" stroke="#63b8ff" d="M520.91,-278.04C457.5,-270.21 337.36,-255.08 224.32,-239.08"/>
<polygon fill="#63b8ff" stroke="#63b8ff" points="224.5,-235.58 214.11,-237.63 223.51,-242.51 224.5,-235.58"/>
</a>
</g>
</g>
<!-- Node26&#45;&gt;Node4 -->
<g id="edge27_Node000026_Node000004" class="edge">
<title>Node26&#45;&gt;Node4</title>
<g id="a_edge27_Node000026_Node000004"><a xlink:title=" ">
<path fill="none" stroke="#63b8ff" d="M610.37,-280.02C663.69,-274.95 754.82,-263.36 829.5,-239 847.45,-233.14 849.39,-225.36 867.5,-220 972.68,-188.85 1099.53,-179.23 1180.59,-176.41"/>
<polygon fill="#63b8ff" stroke="#63b8ff" points="1180.85,-179.9 1190.73,-176.08 1180.62,-172.9 1180.85,-179.9"/>
</a>
</g>
</g>
<!-- Node26&#45;&gt;Node6 -->
<g id="edge34_Node000026_Node000006" class="edge">
<title>Node26&#45;&gt;Node6</title>
<g id="a_edge34_Node000026_Node000006"><a xlink:title=" ">
<path fill="none" stroke="#63b8ff" d="M520.8,-280.54C460.4,-275.65 357.07,-263.83 329.5,-239 317.09,-227.82 312.64,-208.9 311.12,-194.61"/>
<polygon fill="#63b8ff" stroke="#63b8ff" points="314.6,-194.12 310.43,-184.38 307.61,-194.59 314.6,-194.12"/>
</a>
</g>
</g>
<!-- Node26&#45;&gt;Node21 -->
<g id="edge28_Node000026_Node000021" class="edge">
<title>Node26&#45;&gt;Node21</title>
<g id="a_edge28_Node000026_Node000021"><a xlink:title=" ">
<path fill="none" stroke="#63b8ff" d="M610.35,-276.84C675.32,-267.2 795.57,-249.34 866.35,-238.84"/>
<polygon fill="#63b8ff" stroke="#63b8ff" points="867.04,-242.27 876.42,-237.34 866.01,-235.35 867.04,-242.27"/>
</a>
</g>
</g>
<!-- Node27 -->
<g id="Node000027" class="node">
<title>Node27</title>
<g id="a_Node000027"><a xlink:title=" ">
<polygon fill="#e0e0e0" stroke="#999999" points="468,-239 339,-239 339,-220 468,-220 468,-239"/>
<text text-anchor="middle" x="403.5" y="-227" font-family="Helvetica,sans-Serif" font-size="10.00">QtCore/QWaitCondition</text>
</a>
</g>
</g>
<!-- Node26&#45;&gt;Node27 -->
<g id="edge29_Node000026_Node000027" class="edge">
<title>Node26&#45;&gt;Node27</title>
<g id="a_edge29_Node000026_Node000027"><a xlink:title=" ">
<path fill="none" stroke="#63b8ff" d="M539.47,-274.98C512.39,-266.13 469.79,-252.19 439.49,-242.28"/>
<polygon fill="#63b8ff" stroke="#63b8ff" points="440.32,-238.87 429.73,-239.08 438.15,-245.52 440.32,-238.87"/>
</a>
</g>
</g>
<!-- Node28 -->
<g id="Node000028" class="node">
<title>Node28</title>
<g id="a_Node000028"><a xlink:title=" ">
<polygon fill="#e0e0e0" stroke="#999999" points="644.5,-239 486.5,-239 486.5,-220 644.5,-220 644.5,-239"/>
<text text-anchor="middle" x="565.5" y="-227" font-family="Helvetica,sans-Serif" font-size="10.00">QtCore/private/qiodevice_p.h</text>
</a>
</g>
</g>
<!-- Node26&#45;&gt;Node28 -->
<g id="edge30_Node000026_Node000028" class="edge">
<title>Node26&#45;&gt;Node28</title>
<g id="a_edge30_Node000026_Node000028"><a xlink:title=" ">
<path fill="none" stroke="#63b8ff" d="M565.5,-274.75C565.5,-267.8 565.5,-257.85 565.5,-249.13"/>
<polygon fill="#63b8ff" stroke="#63b8ff" points="569,-249.09 565.5,-239.09 562,-249.09 569,-249.09"/>
</a>
</g>
</g>
<!-- Node29 -->
<g id="Node000029" class="node">
<title>Node29</title>
<g id="a_Node000029"><a xlink:title=" ">
<polygon fill="#e0e0e0" stroke="#999999" points="820.5,-239 662.5,-239 662.5,-220 820.5,-220 820.5,-239"/>
<text text-anchor="middle" x="741.5" y="-227" font-family="Helvetica,sans-Serif" font-size="10.00">QtCore/private/qproperty_p.h</text>
</a>
</g>
</g>
<!-- Node26&#45;&gt;Node29 -->
<g id="edge31_Node000026_Node000029" class="edge">
<title>Node26&#45;&gt;Node29</title>
<g id="a_edge31_Node000026_Node000029"><a xlink:title=" ">
<path fill="none" stroke="#63b8ff" d="M593.78,-274.98C623.45,-266.05 670.29,-251.94 703.25,-242.02"/>
<polygon fill="#63b8ff" stroke="#63b8ff" points="704.43,-245.32 713,-239.08 702.42,-238.61 704.43,-245.32"/>
</a>
</g>
</g>
<!-- Node30 -->
<g id="Node000030" class="node">
<title>Node30</title>
<g id="a_Node000030"><a xlink:title=" ">
<polygon fill="#e0e0e0" stroke="#999999" points="282.5,-239 232.5,-239 232.5,-220 282.5,-220 282.5,-239"/>
<text text-anchor="middle" x="257.5" y="-227" font-family="Helvetica,sans-Serif" font-size="10.00">atomic</text>
</a>
</g>
</g>
<!-- Node26&#45;&gt;Node30 -->
<g id="edge32_Node000026_Node000030" class="edge">
<title>Node26&#45;&gt;Node30</title>
<g id="a_edge32_Node000026_Node000030"><a xlink:title=" ">
<path fill="none" stroke="#63b8ff" d="M520.64,-276.79C467.13,-268.62 375.07,-254.05 296.5,-239 295.24,-238.76 293.95,-238.51 292.65,-238.25"/>
<polygon fill="#63b8ff" stroke="#63b8ff" points="293.14,-234.77 282.64,-236.17 291.72,-241.63 293.14,-234.77"/>
</a>
</g>
</g>
<!-- Node31&#45;&gt;Node9 -->
<g id="edge36_Node000031_Node000009" class="edge">
<title>Node31&#45;&gt;Node9</title>
<g id="a_edge36_Node000031_Node000009"><a xlink:title=" ">
<path fill="none" stroke="#63b8ff" d="M1161.81,-274.72C1160.35,-261.47 1155.9,-236.22 1142.5,-220 1077.31,-141.07 960.9,-96.42 898.6,-77.1"/>
<polygon fill="#63b8ff" stroke="#63b8ff" points="899.3,-73.66 888.71,-74.11 897.27,-80.36 899.3,-73.66"/>
</a>
</g>
</g>
<!-- Node32 -->
<g id="Node000032" class="node">
<title>Node32</title>
<g id="a_Node000032"><a xlink:title=" ">
<polygon fill="#e0e0e0" stroke="#999999" points="1134,-239 987,-239 987,-220 1134,-220 1134,-239"/>
<text text-anchor="middle" x="1060.5" y="-227" font-family="Helvetica,sans-Serif" font-size="10.00">QtCore/private/qglobal_p.h</text>
</a>
</g>
</g>
<!-- Node31&#45;&gt;Node32 -->
<g id="edge37_Node000031_Node000032" class="edge">
<title>Node31&#45;&gt;Node32</title>
<g id="a_edge37_Node000031_Node000032"><a xlink:title=" ">
<path fill="none" stroke="#63b8ff" d="M1146.11,-274.98C1129.93,-266.57 1104.93,-253.59 1086.12,-243.81"/>
<polygon fill="#63b8ff" stroke="#63b8ff" points="1087.67,-240.68 1077.19,-239.17 1084.45,-246.89 1087.67,-240.68"/>
</a>
</g>
</g>
<!-- Node34&#45;&gt;Node4 -->
<g id="edge41_Node000034_Node000004" class="edge">
<title>Node34&#45;&gt;Node4</title>
<g id="a_edge41_Node000034_Node000004"><a xlink:title=" ">
<path fill="none" stroke="#63b8ff" d="M1994.19,-274.88C2003.82,-261.4 2018.9,-235.29 2004.5,-220 1982.14,-196.26 1532.4,-182.26 1344.2,-177.43"/>
<polygon fill="#63b8ff" stroke="#63b8ff" points="1344.17,-173.93 1334.08,-177.17 1343.99,-180.92 1344.17,-173.93"/>
</a>
</g>
</g>
<!-- Node34&#45;&gt;Node5 -->
<g id="edge42_Node000034_Node000005" class="edge">
<title>Node34&#45;&gt;Node5</title>
<g id="a_edge42_Node000034_Node000005"><a xlink:title=" ">
<path fill="none" stroke="#63b8ff" d="M2041.08,-277.14C2091.48,-269.06 2155.24,-252.14 2126.5,-220 2104.1,-194.95 1888,-182.32 1784.39,-177.67"/>
<polygon fill="#63b8ff" stroke="#63b8ff" points="1784.26,-174.16 1774.12,-177.21 1783.96,-181.15 1784.26,-174.16"/>
</a>
</g>
</g>
<!-- Node34&#45;&gt;Node19 -->
<g id="edge40_Node000034_Node000019" class="edge">
<title>Node34&#45;&gt;Node19</title>
<g id="a_edge40_Node000034_Node000019"><a xlink:title=" ">
<path fill="none" stroke="#63b8ff" d="M2028.31,-274.98C2072.43,-265.78 2142.83,-251.09 2190.55,-241.13"/>
<polygon fill="#63b8ff" stroke="#63b8ff" points="2191.3,-244.55 2200.37,-239.08 2189.87,-237.7 2191.3,-244.55"/>
</a>
</g>
</g>
<!-- Node35 -->
<g id="Node000035" class="node">
<title>Node35</title>
<g id="a_Node000035"><a xlink:title=" ">
<polygon fill="#e0e0e0" stroke="#999999" points="2117,-239 2052,-239 2052,-220 2117,-220 2117,-239"/>
<text text-anchor="middle" x="2084.5" y="-227" font-family="Helvetica,sans-Serif" font-size="10.00">functional</text>
</a>
</g>
</g>
<!-- Node34&#45;&gt;Node35 -->
<g id="edge43_Node000034_Node000035" class="edge">
<title>Node34&#45;&gt;Node35</title>
<g id="a_edge43_Node000034_Node000035"><a xlink:title=" ">
<path fill="none" stroke="#63b8ff" d="M2003.08,-274.98C2018.27,-266.69 2041.6,-253.94 2059.4,-244.22"/>
<polygon fill="#63b8ff" stroke="#63b8ff" points="2061.53,-247.04 2068.63,-239.17 2058.18,-240.89 2061.53,-247.04"/>
</a>
</g>
</g>
<!-- Node36&#45;&gt;Node4 -->
<g id="edge46_Node000036_Node000004" class="edge">
<title>Node36&#45;&gt;Node4</title>
<g id="a_edge46_Node000036_Node000004"><a xlink:title=" ">
<path fill="none" stroke="#63b8ff" d="M1555.32,-280.97C1447.95,-276.07 1241.46,-263.54 1219.5,-239 1205.81,-223.71 1224.2,-203.81 1240.99,-190.4"/>
<polygon fill="#63b8ff" stroke="#63b8ff" points="1243.57,-192.84 1249.45,-184.03 1239.36,-187.25 1243.57,-192.84"/>
</a>
</g>
</g>
<!-- Node36&#45;&gt;Node5 -->
<g id="edge50_Node000036_Node000005" class="edge">
<title>Node36&#45;&gt;Node5</title>
<g id="a_edge50_Node000036_Node000005"><a xlink:title=" ">
<path fill="none" stroke="#63b8ff" d="M1650.98,-274.9C1670.36,-268.1 1694.3,-256.74 1709.5,-239 1720.19,-226.52 1725.18,-208.31 1727.5,-194.59"/>
<polygon fill="#63b8ff" stroke="#63b8ff" points="1731.01,-194.72 1728.88,-184.35 1724.07,-193.79 1731.01,-194.72"/>
</a>
</g>
</g>
<!-- Node36&#45;&gt;Node18 -->
<g id="edge45_Node000036_Node000018" class="edge">
<title>Node36&#45;&gt;Node18</title>
<g id="a_edge45_Node000036_Node000018"><a xlink:title=" ">
<path fill="none" stroke="#63b8ff" d="M1648.58,-274.98C1679.1,-266.05 1727.26,-251.94 1761.16,-242.02"/>
<polygon fill="#63b8ff" stroke="#63b8ff" points="1762.58,-245.25 1771.19,-239.08 1760.61,-238.53 1762.58,-245.25"/>
</a>
</g>
</g>
<!-- Node36&#45;&gt;Node24 -->
<g id="edge48_Node000036_Node000024" class="edge">
<title>Node36&#45;&gt;Node24</title>
<g id="a_edge48_Node000036_Node000024"><a xlink:title=" ">
<path fill="none" stroke="#63b8ff" d="M1669.15,-274.98C1723.46,-265.67 1810.52,-250.74 1868.59,-240.78"/>
<polygon fill="#63b8ff" stroke="#63b8ff" points="1869.46,-244.18 1878.72,-239.04 1868.27,-237.28 1869.46,-244.18"/>
</a>
</g>
</g>
<!-- Node37 -->
<g id="Node000037" class="node">
<title>Node37</title>
<g id="a_Node000037"><a xlink:title=" ">
<polygon fill="#e0e0e0" stroke="#999999" points="1424.5,-239 1332.5,-239 1332.5,-220 1424.5,-220 1424.5,-239"/>
<text text-anchor="middle" x="1378.5" y="-227" font-family="Helvetica,sans-Serif" font-size="10.00">QtCore/QObject</text>
</a>
</g>
</g>
<!-- Node36&#45;&gt;Node37 -->
<g id="edge47_Node000036_Node000037" class="edge">
<title>Node36&#45;&gt;Node37</title>
<g id="a_edge47_Node000036_Node000037"><a xlink:title=" ">
<path fill="none" stroke="#63b8ff" d="M1580.78,-274.98C1539.09,-265.82 1472.68,-251.21 1427.41,-241.26"/>
<polygon fill="#63b8ff" stroke="#63b8ff" points="1428.04,-237.81 1417.52,-239.08 1426.54,-244.65 1428.04,-237.81"/>
</a>
</g>
</g>
<!-- Node38 -->
<g id="Node000038" class="node">
<title>Node38</title>
<g id="a_Node000038"><a xlink:title=" ">
<polygon fill="#e0e0e0" stroke="#999999" points="1520,-239 1443,-239 1443,-220 1520,-220 1520,-239"/>
<text text-anchor="middle" x="1481.5" y="-227" font-family="Helvetica,sans-Serif" font-size="10.00">QtCore/QSet</text>
</a>
</g>
</g>
<!-- Node36&#45;&gt;Node38 -->
<g id="edge49_Node000036_Node000038" class="edge">
<title>Node36&#45;&gt;Node38</title>
<g id="a_edge49_Node000036_Node000038"><a xlink:title=" ">
<path fill="none" stroke="#63b8ff" d="M1597.33,-274.98C1574.73,-266.3 1539.44,-252.75 1513.75,-242.88"/>
<polygon fill="#63b8ff" stroke="#63b8ff" points="1514.67,-239.49 1504.08,-239.17 1512.16,-246.02 1514.67,-239.49"/>
</a>
</g>
</g>
<!-- Node39 -->
<g id="Node000039" class="node">
<title>Node39</title>
<g id="a_Node000039"><a xlink:title=" ">
<polygon fill="#e0e0e0" stroke="#999999" points="1701,-239 1538,-239 1538,-220 1701,-220 1701,-239"/>
<text text-anchor="middle" x="1619.5" y="-227" font-family="Helvetica,sans-Serif" font-size="10.00">QtCore/QSortFilterProxyModel</text>
</a>
</g>
</g>
<!-- Node36&#45;&gt;Node39 -->
<g id="edge51_Node000036_Node000039" class="edge">
<title>Node36&#45;&gt;Node39</title>
<g id="a_edge51_Node000036_Node000039"><a xlink:title=" ">
<path fill="none" stroke="#63b8ff" d="M1619.5,-274.75C1619.5,-267.8 1619.5,-257.85 1619.5,-249.13"/>
<polygon fill="#63b8ff" stroke="#63b8ff" points="1623,-249.09 1619.5,-239.09 1616,-249.09 1623,-249.09"/>
</a>
</g>
</g>
<!-- Node40 -->
<g id="Node000040" class="node">
<title>Node40</title>
<g id="a_Node000040"><a xlink:title=" ">
<polygon fill="#e0e0e0" stroke="#999999" points="1314,-239 1229,-239 1229,-220 1314,-220 1314,-239"/>
<text text-anchor="middle" x="1271.5" y="-227" font-family="Helvetica,sans-Serif" font-size="10.00">QtQml/qqml.h</text>
</a>
</g>
</g>
<!-- Node36&#45;&gt;Node40 -->
<g id="edge52_Node000036_Node000040" class="edge">
<title>Node36&#45;&gt;Node40</title>
<g id="a_edge52_Node000036_Node000040"><a xlink:title=" ">
<path fill="none" stroke="#63b8ff" d="M1561.34,-274.98C1503.78,-266.5 1412.89,-252.97 1324.04,-239.07"/>
<polygon fill="#63b8ff" stroke="#63b8ff" points="1324.48,-235.59 1314.06,-237.5 1323.4,-242.51 1324.48,-235.59"/>
</a>
</g>
</g>
</g>
</svg>
