<?xml version="1.0" encoding="UTF-8" standalone="no"?>
<!DOCTYPE svg PUBLIC "-//W3C//DTD SVG 1.1//EN"
 "http://www.w3.org/Graphics/SVG/1.1/DTD/svg11.dtd">
<!-- Generated by graphviz version 2.43.0 (0)
 -->
<!-- Title: src/AutoPilotPlugins/APM/APMAirframeComponentController.h Pages: 1 -->
<svg width="701pt" height="148pt"
 viewBox="0.00 0.00 701.00 148.00" xmlns="http://www.w3.org/2000/svg" xmlns:xlink="http://www.w3.org/1999/xlink">
<g id="graph0" class="graph" transform="scale(1 1) rotate(0) translate(4 144)">
<title>src/AutoPilotPlugins/APM/APMAirframeComponentController.h</title>
<!-- Node1 -->
<g id="Node000001" class="node">
<title>Node1</title>
<g id="a_Node000001"><a xlink:title=" ">
<polygon fill="#999999" stroke="#666666" points="367,-140 146,-140 146,-110 367,-110 367,-140"/>
<text text-anchor="start" x="154" y="-128" font-family="Helvetica,sans-Serif" font-size="10.00">src/AutoPilotPlugins</text>
<text text-anchor="middle" x="256.5" y="-117" font-family="Helvetica,sans-Serif" font-size="10.00">/APM/APMAirframeComponentController.h</text>
</a>
</g>
</g>
<!-- Node2 -->
<g id="Node000002" class="node">
<title>Node2</title>
<g id="a_Node000002"><a xlink:title=" ">
<polygon fill="#e0e0e0" stroke="#999999" points="143,-19 0,-19 0,0 143,0 143,-19"/>
<text text-anchor="middle" x="71.5" y="-7" font-family="Helvetica,sans-Serif" font-size="10.00">QtCore/QLoggingCategory</text>
</a>
</g>
</g>
<!-- Node1&#45;&gt;Node2 -->
<g id="edge1_Node000001_Node000002" class="edge">
<title>Node1&#45;&gt;Node2</title>
<g id="a_edge1_Node000001_Node000002"><a xlink:title=" ">
<path fill="none" stroke="#63b8ff" d="M233.44,-109.85C197.88,-88.03 130.03,-46.41 94.5,-24.61"/>
<polygon fill="#63b8ff" stroke="#63b8ff" points="96.15,-21.52 85.8,-19.27 92.49,-27.48 96.15,-21.52"/>
</a>
</g>
</g>
<!-- Node3 -->
<g id="Node000003" class="node">
<title>Node3</title>
<g id="a_Node000003"><a xlink:title=" ">
<polygon fill="#e0e0e0" stroke="#999999" points="253.5,-19 161.5,-19 161.5,0 253.5,0 253.5,-19"/>
<text text-anchor="middle" x="207.5" y="-7" font-family="Helvetica,sans-Serif" font-size="10.00">QtCore/QObject</text>
</a>
</g>
</g>
<!-- Node1&#45;&gt;Node3 -->
<g id="edge2_Node000001_Node000003" class="edge">
<title>Node1&#45;&gt;Node3</title>
<g id="a_edge2_Node000001_Node000003"><a xlink:title=" ">
<path fill="none" stroke="#63b8ff" d="M250.29,-109.63C241.4,-89.03 225.04,-51.12 215.33,-28.63"/>
<polygon fill="#63b8ff" stroke="#63b8ff" points="218.45,-27.02 211.27,-19.23 212.02,-29.8 218.45,-27.02"/>
</a>
</g>
</g>
<!-- Node4 -->
<g id="Node000004" class="node">
<title>Node4</title>
<g id="a_Node000004"><a xlink:title=" ">
<polygon fill="#e0e0e0" stroke="#999999" points="693,-19 504,-19 504,0 693,0 693,-19"/>
<text text-anchor="middle" x="598.5" y="-7" font-family="Helvetica,sans-Serif" font-size="10.00">QtQmlIntegration/QtQmlIntegration</text>
</a>
</g>
</g>
<!-- Node1&#45;&gt;Node4 -->
<g id="edge3_Node000001_Node000004" class="edge">
<title>Node1&#45;&gt;Node4</title>
<g id="a_edge3_Node000001_Node000004"><a xlink:title=" ">
<path fill="none" stroke="#63b8ff" d="M298.78,-109.97C366.8,-87.39 499.34,-43.41 562.87,-22.33"/>
<polygon fill="#63b8ff" stroke="#63b8ff" points="564.06,-25.62 572.45,-19.14 561.86,-18.97 564.06,-25.62"/>
</a>
</g>
</g>
<!-- Node5 -->
<g id="Node000005" class="node">
<title>Node5</title>
<g id="a_Node000005"><a xlink:href="FactPanelController_8h.html" target="_top" xlink:title=" ">
<polygon fill="white" stroke="#666666" points="370,-74 251,-74 251,-55 370,-55 370,-74"/>
<text text-anchor="middle" x="310.5" y="-62" font-family="Helvetica,sans-Serif" font-size="10.00">FactPanelController.h</text>
</a>
</g>
</g>
<!-- Node1&#45;&gt;Node5 -->
<g id="edge4_Node000001_Node000005" class="edge">
<title>Node1&#45;&gt;Node5</title>
<g id="a_edge4_Node000001_Node000005"><a xlink:title=" ">
<path fill="none" stroke="#63b8ff" d="M269.57,-109.84C277.41,-101.35 287.41,-90.52 295.56,-81.69"/>
<polygon fill="#63b8ff" stroke="#63b8ff" points="298.2,-83.99 302.41,-74.27 293.05,-79.24 298.2,-83.99"/>
</a>
</g>
</g>
<!-- Node5&#45;&gt;Node2 -->
<g id="edge5_Node000005_Node000002" class="edge">
<title>Node5&#45;&gt;Node2</title>
<g id="a_edge5_Node000005_Node000002"><a xlink:title=" ">
<path fill="none" stroke="#63b8ff" d="M272.1,-54.98C230.76,-45.82 164.9,-31.21 120.01,-21.26"/>
<polygon fill="#63b8ff" stroke="#63b8ff" points="120.72,-17.83 110.2,-19.08 119.21,-24.66 120.72,-17.83"/>
</a>
</g>
</g>
<!-- Node5&#45;&gt;Node3 -->
<g id="edge6_Node000005_Node000003" class="edge">
<title>Node5&#45;&gt;Node3</title>
<g id="a_edge6_Node000005_Node000003"><a xlink:title=" ">
<path fill="none" stroke="#63b8ff" d="M293.95,-54.98C277.61,-46.57 252.37,-33.59 233.37,-23.81"/>
<polygon fill="#63b8ff" stroke="#63b8ff" points="234.84,-20.63 224.35,-19.17 231.64,-26.86 234.84,-20.63"/>
</a>
</g>
</g>
<!-- Node5&#45;&gt;Node4 -->
<g id="edge9_Node000005_Node000004" class="edge">
<title>Node5&#45;&gt;Node4</title>
<g id="a_edge9_Node000005_Node000004"><a xlink:title=" ">
<path fill="none" stroke="#63b8ff" d="M356.77,-54.98C407.11,-45.72 487.62,-30.9 541.74,-20.94"/>
<polygon fill="#63b8ff" stroke="#63b8ff" points="542.66,-24.33 551.87,-19.08 541.4,-17.45 542.66,-24.33"/>
</a>
</g>
</g>
<!-- Node6 -->
<g id="Node000006" class="node">
<title>Node6</title>
<g id="a_Node000006"><a xlink:title=" ">
<polygon fill="#e0e0e0" stroke="#999999" points="486,-19 379,-19 379,0 486,0 486,-19"/>
<text text-anchor="middle" x="432.5" y="-7" font-family="Helvetica,sans-Serif" font-size="10.00">QtCore/QStringList</text>
</a>
</g>
</g>
<!-- Node5&#45;&gt;Node6 -->
<g id="edge7_Node000005_Node000006" class="edge">
<title>Node5&#45;&gt;Node6</title>
<g id="a_edge7_Node000005_Node000006"><a xlink:title=" ">
<path fill="none" stroke="#63b8ff" d="M330.1,-54.98C349.82,-46.42 380.45,-33.11 403.08,-23.28"/>
<polygon fill="#63b8ff" stroke="#63b8ff" points="404.76,-26.37 412.54,-19.17 401.98,-19.94 404.76,-26.37"/>
</a>
</g>
</g>
<!-- Node7 -->
<g id="Node000007" class="node">
<title>Node7</title>
<g id="a_Node000007"><a xlink:title=" ">
<polygon fill="#e0e0e0" stroke="#999999" points="361,-19 272,-19 272,0 361,0 361,-19"/>
<text text-anchor="middle" x="316.5" y="-7" font-family="Helvetica,sans-Serif" font-size="10.00">QtCore/QTimer</text>
</a>
</g>
</g>
<!-- Node5&#45;&gt;Node7 -->
<g id="edge8_Node000005_Node000007" class="edge">
<title>Node5&#45;&gt;Node7</title>
<g id="a_edge8_Node000005_Node000007"><a xlink:title=" ">
<path fill="none" stroke="#63b8ff" d="M311.49,-54.75C312.28,-47.8 313.4,-37.85 314.39,-29.13"/>
<polygon fill="#63b8ff" stroke="#63b8ff" points="317.88,-29.42 315.53,-19.09 310.92,-28.63 317.88,-29.42"/>
</a>
</g>
</g>
</g>
</svg>
