<?xml version="1.0" encoding="UTF-8" standalone="no"?>
<!DOCTYPE svg PUBLIC "-//W3C//DTD SVG 1.1//EN"
 "http://www.w3.org/Graphics/SVG/1.1/DTD/svg11.dtd">
<!-- Generated by graphviz version 2.43.0 (0)
 -->
<!-- Title: src/AutoPilotPlugins/APM/APMFlightSafetyComponent.cc Pages: 1 -->
<svg width="2188pt" height="368pt"
 viewBox="0.00 0.00 2188.00 368.00" xmlns="http://www.w3.org/2000/svg" xmlns:xlink="http://www.w3.org/1999/xlink">
<g id="graph0" class="graph" transform="scale(1 1) rotate(0) translate(4 364)">
<title>src/AutoPilotPlugins/APM/APMFlightSafetyComponent.cc</title>
<!-- Node1 -->
<g id="Node000001" class="node">
<title>Node1</title>
<g id="a_Node000001"><a xlink:title=" ">
<polygon fill="#999999" stroke="#666666" points="869.5,-360 674.5,-360 674.5,-330 869.5,-330 869.5,-360"/>
<text text-anchor="start" x="682.5" y="-348" font-family="Helvetica,sans-Serif" font-size="10.00">src/AutoPilotPlugins</text>
<text text-anchor="middle" x="772" y="-337" font-family="Helvetica,sans-Serif" font-size="10.00">/APM/APMFlightSafetyComponent.cc</text>
</a>
</g>
</g>
<!-- Node2 -->
<g id="Node000002" class="node">
<title>Node2</title>
<g id="a_Node000002"><a xlink:href="APMFlightSafetyComponent_8h.html" target="_top" xlink:title=" ">
<polygon fill="white" stroke="#666666" points="421.5,-294 258.5,-294 258.5,-275 421.5,-275 421.5,-294"/>
<text text-anchor="middle" x="340" y="-282" font-family="Helvetica,sans-Serif" font-size="10.00">APMFlightSafetyComponent.h</text>
</a>
</g>
</g>
<!-- Node1&#45;&gt;Node2 -->
<g id="edge1_Node000001_Node000002" class="edge">
<title>Node1&#45;&gt;Node2</title>
<g id="a_edge1_Node000001_Node000002"><a xlink:title=" ">
<path fill="none" stroke="#63b8ff" d="M674.24,-330.76C595.01,-320.03 485.09,-305.15 413.27,-295.42"/>
<polygon fill="#63b8ff" stroke="#63b8ff" points="413.34,-291.9 402.96,-294.03 412.4,-298.84 413.34,-291.9"/>
</a>
</g>
</g>
<!-- Node12 -->
<g id="Node000012" class="node">
<title>Node12</title>
<g id="a_Node000012"><a xlink:href="Vehicle_8h.html" target="_top" xlink:title=" ">
<polygon fill="white" stroke="#666666" points="802.5,-294 741.5,-294 741.5,-275 802.5,-275 802.5,-294"/>
<text text-anchor="middle" x="772" y="-282" font-family="Helvetica,sans-Serif" font-size="10.00">Vehicle.h</text>
</a>
</g>
</g>
<!-- Node1&#45;&gt;Node12 -->
<g id="edge13_Node000001_Node000012" class="edge">
<title>Node1&#45;&gt;Node12</title>
<g id="a_edge13_Node000001_Node000012"><a xlink:title=" ">
<path fill="none" stroke="#63b8ff" d="M772,-329.84C772,-322.21 772,-312.7 772,-304.45"/>
<polygon fill="#63b8ff" stroke="#63b8ff" points="775.5,-304.27 772,-294.27 768.5,-304.27 775.5,-304.27"/>
</a>
</g>
</g>
<!-- Node22 -->
<g id="Node000022" class="node">
<title>Node22</title>
<g id="a_Node000022"><a xlink:href="QGCMAVLink_8h.html" target="_top" xlink:title=" ">
<polygon fill="white" stroke="#666666" points="1740.5,-184 1651.5,-184 1651.5,-165 1740.5,-165 1740.5,-184"/>
<text text-anchor="middle" x="1696" y="-172" font-family="Helvetica,sans-Serif" font-size="10.00">QGCMAVLink.h</text>
</a>
</g>
</g>
<!-- Node1&#45;&gt;Node22 -->
<g id="edge60_Node000001_Node000022" class="edge">
<title>Node1&#45;&gt;Node22</title>
<g id="a_edge60_Node000001_Node000022"><a xlink:title=" ">
<path fill="none" stroke="#63b8ff" d="M848.8,-330C1030.69,-296.82 1484.32,-214.1 1641.42,-185.45"/>
<polygon fill="#63b8ff" stroke="#63b8ff" points="1642.12,-188.88 1651.33,-183.65 1640.86,-182 1642.12,-188.88"/>
</a>
</g>
</g>
<!-- Node3 -->
<g id="Node000003" class="node">
<title>Node3</title>
<g id="a_Node000003"><a xlink:href="VehicleComponent_8h.html" target="_top" xlink:title=" ">
<polygon fill="white" stroke="#666666" points="707.5,-129 590.5,-129 590.5,-110 707.5,-110 707.5,-129"/>
<text text-anchor="middle" x="649" y="-117" font-family="Helvetica,sans-Serif" font-size="10.00">VehicleComponent.h</text>
</a>
</g>
</g>
<!-- Node2&#45;&gt;Node3 -->
<g id="edge2_Node000002_Node000003" class="edge">
<title>Node2&#45;&gt;Node3</title>
<g id="a_edge2_Node000002_Node000003"><a xlink:title=" ">
<path fill="none" stroke="#63b8ff" d="M258.21,-282.04C184.03,-278.78 82.49,-268.82 57,-239 51.51,-232.58 51.55,-226.45 57,-220 123.36,-141.55 438.74,-124.92 580.13,-121.42"/>
<polygon fill="#63b8ff" stroke="#63b8ff" points="580.5,-124.91 590.42,-121.18 580.34,-117.91 580.5,-124.91"/>
</a>
</g>
</g>
<!-- Node4 -->
<g id="Node000004" class="node">
<title>Node4</title>
<g id="a_Node000004"><a xlink:title=" ">
<polygon fill="#e0e0e0" stroke="#999999" points="1720,-19 1628,-19 1628,0 1720,0 1720,-19"/>
<text text-anchor="middle" x="1674" y="-7" font-family="Helvetica,sans-Serif" font-size="10.00">QtCore/QObject</text>
</a>
</g>
</g>
<!-- Node3&#45;&gt;Node4 -->
<g id="edge3_Node000003_Node000004" class="edge">
<title>Node3&#45;&gt;Node4</title>
<g id="a_edge3_Node000003_Node000004"><a xlink:title=" ">
<path fill="none" stroke="#63b8ff" d="M707.8,-110.76C710.57,-110.48 713.31,-110.23 716,-110 899.51,-94.4 1365.5,-119.37 1544,-74 1584.58,-63.68 1627.44,-39.88 1652.4,-24.52"/>
<polygon fill="#63b8ff" stroke="#63b8ff" points="1654.43,-27.38 1661.04,-19.1 1650.71,-21.45 1654.43,-27.38"/>
</a>
</g>
</g>
<!-- Node5 -->
<g id="Node000005" class="node">
<title>Node5</title>
<g id="a_Node000005"><a xlink:title=" ">
<polygon fill="#e0e0e0" stroke="#999999" points="814.5,-74 707.5,-74 707.5,-55 814.5,-55 814.5,-74"/>
<text text-anchor="middle" x="761" y="-62" font-family="Helvetica,sans-Serif" font-size="10.00">QtCore/QStringList</text>
</a>
</g>
</g>
<!-- Node3&#45;&gt;Node5 -->
<g id="edge4_Node000003_Node000005" class="edge">
<title>Node3&#45;&gt;Node5</title>
<g id="a_edge4_Node000003_Node000005"><a xlink:title=" ">
<path fill="none" stroke="#63b8ff" d="M666.99,-109.98C684.93,-101.5 712.72,-88.35 733.43,-78.54"/>
<polygon fill="#63b8ff" stroke="#63b8ff" points="735.14,-81.61 742.68,-74.17 732.14,-75.28 735.14,-81.61"/>
</a>
</g>
</g>
<!-- Node6 -->
<g id="Node000006" class="node">
<title>Node6</title>
<g id="a_Node000006"><a xlink:title=" ">
<polygon fill="#e0e0e0" stroke="#999999" points="612.5,-74 537.5,-74 537.5,-55 612.5,-55 612.5,-74"/>
<text text-anchor="middle" x="575" y="-62" font-family="Helvetica,sans-Serif" font-size="10.00">QtCore/QUrl</text>
</a>
</g>
</g>
<!-- Node3&#45;&gt;Node6 -->
<g id="edge5_Node000003_Node000006" class="edge">
<title>Node3&#45;&gt;Node6</title>
<g id="a_edge5_Node000003_Node000006"><a xlink:title=" ">
<path fill="none" stroke="#63b8ff" d="M637.11,-109.98C625.85,-101.92 608.71,-89.65 595.29,-80.03"/>
<polygon fill="#63b8ff" stroke="#63b8ff" points="597.27,-77.15 587.11,-74.17 593.2,-82.84 597.27,-77.15"/>
</a>
</g>
</g>
<!-- Node7 -->
<g id="Node000007" class="node">
<title>Node7</title>
<g id="a_Node000007"><a xlink:title=" ">
<polygon fill="#e0e0e0" stroke="#999999" points="1163.5,-19 1068.5,-19 1068.5,0 1163.5,0 1163.5,-19"/>
<text text-anchor="middle" x="1116" y="-7" font-family="Helvetica,sans-Serif" font-size="10.00">QtCore/QVariant</text>
</a>
</g>
</g>
<!-- Node3&#45;&gt;Node7 -->
<g id="edge6_Node000003_Node000007" class="edge">
<title>Node3&#45;&gt;Node7</title>
<g id="a_edge6_Node000003_Node000007"><a xlink:title=" ">
<path fill="none" stroke="#63b8ff" d="M652.91,-109.67C659.75,-95.39 675.35,-67.56 698,-55 765.95,-17.3 963.97,-28.07 1058.28,-18.89"/>
<polygon fill="#63b8ff" stroke="#63b8ff" points="1058.88,-22.34 1068.44,-17.77 1058.11,-15.39 1058.88,-22.34"/>
</a>
</g>
</g>
<!-- Node8 -->
<g id="Node000008" class="node">
<title>Node8</title>
<g id="a_Node000008"><a xlink:title=" ">
<polygon fill="#e0e0e0" stroke="#999999" points="1050.5,-19 861.5,-19 861.5,0 1050.5,0 1050.5,-19"/>
<text text-anchor="middle" x="956" y="-7" font-family="Helvetica,sans-Serif" font-size="10.00">QtQmlIntegration/QtQmlIntegration</text>
</a>
</g>
</g>
<!-- Node3&#45;&gt;Node8 -->
<g id="edge7_Node000003_Node000008" class="edge">
<title>Node3&#45;&gt;Node8</title>
<g id="a_edge7_Node000003_Node000008"><a xlink:title=" ">
<path fill="none" stroke="#63b8ff" d="M648.41,-109.6C648.03,-95.72 649.52,-69.07 665,-55 692,-30.45 779.41,-19.45 851.44,-14.51"/>
<polygon fill="#63b8ff" stroke="#63b8ff" points="851.74,-18 861.49,-13.85 851.28,-11.01 851.74,-18"/>
</a>
</g>
</g>
<!-- Node9 -->
<g id="Node000009" class="node">
<title>Node9</title>
<g id="a_Node000009"><a xlink:href="AutoPilotPlugin_8h.html" target="_top" xlink:title=" ">
<polygon fill="white" stroke="#666666" points="1009,-74 909,-74 909,-55 1009,-55 1009,-74"/>
<text text-anchor="middle" x="959" y="-62" font-family="Helvetica,sans-Serif" font-size="10.00">AutoPilotPlugin.h</text>
</a>
</g>
</g>
<!-- Node3&#45;&gt;Node9 -->
<g id="edge8_Node000003_Node000009" class="edge">
<title>Node3&#45;&gt;Node9</title>
<g id="a_edge8_Node000003_Node000009"><a xlink:title=" ">
<path fill="none" stroke="#63b8ff" d="M698.81,-109.98C753.3,-100.67 840.63,-85.74 898.89,-75.78"/>
<polygon fill="#63b8ff" stroke="#63b8ff" points="899.79,-79.17 909.06,-74.04 898.61,-72.27 899.79,-79.17"/>
</a>
</g>
</g>
<!-- Node9&#45;&gt;Node4 -->
<g id="edge9_Node000009_Node000004" class="edge">
<title>Node9&#45;&gt;Node4</title>
<g id="a_edge9_Node000009_Node000004"><a xlink:title=" ">
<path fill="none" stroke="#63b8ff" d="M1009.14,-60.63C1141.68,-52.98 1499.18,-31.75 1617,-19 1617.34,-18.96 1617.67,-18.93 1618.01,-18.89"/>
<polygon fill="#63b8ff" stroke="#63b8ff" points="1618.49,-22.36 1628,-17.68 1617.65,-15.41 1618.49,-22.36"/>
</a>
</g>
</g>
<!-- Node9&#45;&gt;Node8 -->
<g id="edge12_Node000009_Node000008" class="edge">
<title>Node9&#45;&gt;Node8</title>
<g id="a_edge12_Node000009_Node000008"><a xlink:title=" ">
<path fill="none" stroke="#63b8ff" d="M958.5,-54.75C958.11,-47.8 957.55,-37.85 957.05,-29.13"/>
<polygon fill="#63b8ff" stroke="#63b8ff" points="960.55,-28.88 956.49,-19.09 953.56,-29.27 960.55,-28.88"/>
</a>
</g>
</g>
<!-- Node10 -->
<g id="Node000010" class="node">
<title>Node10</title>
<g id="a_Node000010"><a xlink:title=" ">
<polygon fill="#e0e0e0" stroke="#999999" points="1607.5,-19 1518.5,-19 1518.5,0 1607.5,0 1607.5,-19"/>
<text text-anchor="middle" x="1563" y="-7" font-family="Helvetica,sans-Serif" font-size="10.00">QtCore/QString</text>
</a>
</g>
</g>
<!-- Node9&#45;&gt;Node10 -->
<g id="edge10_Node000009_Node000010" class="edge">
<title>Node9&#45;&gt;Node10</title>
<g id="a_edge10_Node000009_Node000010"><a xlink:title=" ">
<path fill="none" stroke="#63b8ff" d="M1009.18,-60.71C1104.33,-55.14 1317.73,-41.34 1508.05,-19.02"/>
<polygon fill="#63b8ff" stroke="#63b8ff" points="1508.73,-22.46 1518.25,-17.81 1507.9,-15.51 1508.73,-22.46"/>
</a>
</g>
</g>
<!-- Node11 -->
<g id="Node000011" class="node">
<title>Node11</title>
<g id="a_Node000011"><a xlink:title=" ">
<polygon fill="#e0e0e0" stroke="#999999" points="451.5,-19 338.5,-19 338.5,0 451.5,0 451.5,-19"/>
<text text-anchor="middle" x="395" y="-7" font-family="Helvetica,sans-Serif" font-size="10.00">QtCore/QVariantList</text>
</a>
</g>
</g>
<!-- Node9&#45;&gt;Node11 -->
<g id="edge11_Node000009_Node000011" class="edge">
<title>Node9&#45;&gt;Node11</title>
<g id="a_edge11_Node000009_Node000011"><a xlink:title=" ">
<path fill="none" stroke="#63b8ff" d="M908.95,-58.8C807.15,-49.23 575.96,-27.51 461.6,-16.76"/>
<polygon fill="#63b8ff" stroke="#63b8ff" points="461.86,-13.27 451.58,-15.82 461.2,-20.24 461.86,-13.27"/>
</a>
</g>
</g>
<!-- Node12&#45;&gt;Node4 -->
<g id="edge18_Node000012_Node000004" class="edge">
<title>Node12&#45;&gt;Node4</title>
<g id="a_edge18_Node000012_Node000004"><a xlink:title=" ">
<path fill="none" stroke="#63b8ff" d="M802.72,-282.8C1008.62,-277.93 2180,-247.06 2180,-175.5 2180,-175.5 2180,-175.5 2180,-118.5 2180,-81.74 2159.49,-72.19 2127,-55 2059.57,-19.33 1836.19,-12.15 1730.44,-10.78"/>
<polygon fill="#63b8ff" stroke="#63b8ff" points="1730.32,-7.28 1720.27,-10.66 1730.23,-14.28 1730.32,-7.28"/>
</a>
</g>
</g>
<!-- Node12&#45;&gt;Node8 -->
<g id="edge25_Node000012_Node000008" class="edge">
<title>Node12&#45;&gt;Node8</title>
<g id="a_edge25_Node000012_Node000008"><a xlink:title=" ">
<path fill="none" stroke="#63b8ff" d="M802.61,-282.42C892.22,-278.93 1149.29,-266.59 1174,-239 1179.63,-232.71 1178.23,-227.31 1174,-220 1124.69,-134.91 1069.82,-154.27 982,-110 946.46,-92.08 921.76,-107.32 900,-74 887.8,-55.32 909.75,-36.48 929.64,-24.22"/>
<polygon fill="#63b8ff" stroke="#63b8ff" points="931.61,-27.12 938.5,-19.08 928.1,-21.07 931.61,-27.12"/>
</a>
</g>
</g>
<!-- Node12&#45;&gt;Node11 -->
<g id="edge23_Node000012_Node000011" class="edge">
<title>Node12&#45;&gt;Node11</title>
<g id="a_edge23_Node000012_Node000011"><a xlink:title=" ">
<path fill="none" stroke="#63b8ff" d="M741.24,-282.95C612.3,-280.48 119.2,-269.1 57,-239 22.86,-222.48 0,-213.42 0,-175.5 0,-175.5 0,-175.5 0,-118.5 0,-51.28 215.52,-24.44 328.17,-15"/>
<polygon fill="#63b8ff" stroke="#63b8ff" points="328.72,-18.47 338.41,-14.17 328.16,-11.49 328.72,-18.47"/>
</a>
</g>
</g>
<!-- Node13 -->
<g id="Node000013" class="node">
<title>Node13</title>
<g id="a_Node000013"><a xlink:title=" ">
<polygon fill="#e0e0e0" stroke="#999999" points="131.5,-239 66.5,-239 66.5,-220 131.5,-220 131.5,-239"/>
<text text-anchor="middle" x="99" y="-227" font-family="Helvetica,sans-Serif" font-size="10.00">functional</text>
</a>
</g>
</g>
<!-- Node12&#45;&gt;Node13 -->
<g id="edge14_Node000012_Node000013" class="edge">
<title>Node12&#45;&gt;Node13</title>
<g id="a_edge14_Node000012_Node000013"><a xlink:title=" ">
<path fill="none" stroke="#63b8ff" d="M741.32,-282.74C651.02,-280.21 378.21,-270.44 142.1,-238.96"/>
<polygon fill="#63b8ff" stroke="#63b8ff" points="142.32,-235.46 131.95,-237.59 141.39,-242.39 142.32,-235.46"/>
</a>
</g>
</g>
<!-- Node14 -->
<g id="Node000014" class="node">
<title>Node14</title>
<g id="a_Node000014"><a xlink:title=" ">
<polygon fill="#e0e0e0" stroke="#999999" points="208,-239 150,-239 150,-220 208,-220 208,-239"/>
<text text-anchor="middle" x="179" y="-227" font-family="Helvetica,sans-Serif" font-size="10.00">memory</text>
</a>
</g>
</g>
<!-- Node12&#45;&gt;Node14 -->
<g id="edge15_Node000012_Node000014" class="edge">
<title>Node12&#45;&gt;Node14</title>
<g id="a_edge15_Node000012_Node000014"><a xlink:title=" ">
<path fill="none" stroke="#63b8ff" d="M741.45,-282.55C658.71,-279.67 423.31,-269.36 218.42,-239.01"/>
<polygon fill="#63b8ff" stroke="#63b8ff" points="218.79,-235.52 208.38,-237.5 217.75,-242.44 218.79,-235.52"/>
</a>
</g>
</g>
<!-- Node15 -->
<g id="Node000015" class="node">
<title>Node15</title>
<g id="a_Node000015"><a xlink:title=" ">
<polygon fill="#e0e0e0" stroke="#999999" points="354,-239 226,-239 226,-220 354,-220 354,-239"/>
<text text-anchor="middle" x="290" y="-227" font-family="Helvetica,sans-Serif" font-size="10.00">QtCore/QElapsedTimer</text>
</a>
</g>
</g>
<!-- Node12&#45;&gt;Node15 -->
<g id="edge16_Node000012_Node000015" class="edge">
<title>Node12&#45;&gt;Node15</title>
<g id="a_edge16_Node000012_Node000015"><a xlink:title=" ">
<path fill="none" stroke="#63b8ff" d="M741.46,-280.26C674.99,-273.18 511.97,-255.73 364.25,-239.13"/>
<polygon fill="#63b8ff" stroke="#63b8ff" points="364.42,-235.63 354.09,-237.99 363.64,-242.59 364.42,-235.63"/>
</a>
</g>
</g>
<!-- Node16 -->
<g id="Node000016" class="node">
<title>Node16</title>
<g id="a_Node000016"><a xlink:title=" ">
<polygon fill="#e0e0e0" stroke="#999999" points="450,-239 372,-239 372,-220 450,-220 450,-239"/>
<text text-anchor="middle" x="411" y="-227" font-family="Helvetica,sans-Serif" font-size="10.00">QtCore/QFile</text>
</a>
</g>
</g>
<!-- Node12&#45;&gt;Node16 -->
<g id="edge17_Node000012_Node000016" class="edge">
<title>Node12&#45;&gt;Node16</title>
<g id="a_edge17_Node000012_Node000016"><a xlink:title=" ">
<path fill="none" stroke="#63b8ff" d="M741.29,-279.49C686.8,-272.29 569.4,-256.44 459.9,-239.1"/>
<polygon fill="#63b8ff" stroke="#63b8ff" points="460.44,-235.64 450.01,-237.52 459.34,-242.55 460.44,-235.64"/>
</a>
</g>
</g>
<!-- Node17 -->
<g id="Node000017" class="node">
<title>Node17</title>
<g id="a_Node000017"><a xlink:title=" ">
<polygon fill="#e0e0e0" stroke="#999999" points="563.5,-239 468.5,-239 468.5,-220 563.5,-220 563.5,-239"/>
<text text-anchor="middle" x="516" y="-227" font-family="Helvetica,sans-Serif" font-size="10.00">QtCore/QPointer</text>
</a>
</g>
</g>
<!-- Node12&#45;&gt;Node17 -->
<g id="edge19_Node000012_Node000017" class="edge">
<title>Node12&#45;&gt;Node17</title>
<g id="a_edge19_Node000012_Node000017"><a xlink:title=" ">
<path fill="none" stroke="#63b8ff" d="M741.37,-277.16C698.32,-268.25 619.36,-251.9 567.27,-241.11"/>
<polygon fill="#63b8ff" stroke="#63b8ff" points="567.73,-237.64 557.23,-239.04 566.31,-244.49 567.73,-237.64"/>
</a>
</g>
</g>
<!-- Node18 -->
<g id="Node000018" class="node">
<title>Node18</title>
<g id="a_Node000018"><a xlink:title=" ">
<polygon fill="#e0e0e0" stroke="#999999" points="710.5,-239 581.5,-239 581.5,-220 710.5,-220 710.5,-239"/>
<text text-anchor="middle" x="646" y="-227" font-family="Helvetica,sans-Serif" font-size="10.00">QtCore/QSharedPointer</text>
</a>
</g>
</g>
<!-- Node12&#45;&gt;Node18 -->
<g id="edge20_Node000012_Node000018" class="edge">
<title>Node12&#45;&gt;Node18</title>
<g id="a_edge20_Node000012_Node000018"><a xlink:title=" ">
<path fill="none" stroke="#63b8ff" d="M751.76,-274.98C731.3,-266.38 699.47,-252.99 676.07,-243.15"/>
<polygon fill="#63b8ff" stroke="#63b8ff" points="677.19,-239.82 666.61,-239.17 674.47,-246.27 677.19,-239.82"/>
</a>
</g>
</g>
<!-- Node19 -->
<g id="Node000019" class="node">
<title>Node19</title>
<g id="a_Node000019"><a xlink:title=" ">
<polygon fill="#e0e0e0" stroke="#999999" points="815,-239 729,-239 729,-220 815,-220 815,-239"/>
<text text-anchor="middle" x="772" y="-227" font-family="Helvetica,sans-Serif" font-size="10.00">QtCore/QTime</text>
</a>
</g>
</g>
<!-- Node12&#45;&gt;Node19 -->
<g id="edge21_Node000012_Node000019" class="edge">
<title>Node12&#45;&gt;Node19</title>
<g id="a_edge21_Node000012_Node000019"><a xlink:title=" ">
<path fill="none" stroke="#63b8ff" d="M772,-274.75C772,-267.8 772,-257.85 772,-249.13"/>
<polygon fill="#63b8ff" stroke="#63b8ff" points="775.5,-249.09 772,-239.09 768.5,-249.09 775.5,-249.09"/>
</a>
</g>
</g>
<!-- Node20 -->
<g id="Node000020" class="node">
<title>Node20</title>
<g id="a_Node000020"><a xlink:title=" ">
<polygon fill="#e0e0e0" stroke="#999999" points="814.5,-129 725.5,-129 725.5,-110 814.5,-110 814.5,-129"/>
<text text-anchor="middle" x="770" y="-117" font-family="Helvetica,sans-Serif" font-size="10.00">QtCore/QTimer</text>
</a>
</g>
</g>
<!-- Node12&#45;&gt;Node20 -->
<g id="edge22_Node000012_Node000020" class="edge">
<title>Node12&#45;&gt;Node20</title>
<g id="a_edge22_Node000012_Node000020"><a xlink:title=" ">
<path fill="none" stroke="#63b8ff" d="M788.03,-274.95C800.41,-267.35 816.65,-254.97 824,-239 827.53,-231.33 826.08,-228.18 824,-220 816.02,-188.57 795.89,-156.32 782.59,-137.36"/>
<polygon fill="#63b8ff" stroke="#63b8ff" points="785.39,-135.25 776.7,-129.19 779.71,-139.35 785.39,-135.25"/>
</a>
</g>
</g>
<!-- Node21 -->
<g id="Node000021" class="node">
<title>Node21</title>
<g id="a_Node000021"><a xlink:title=" ">
<polygon fill="#e0e0e0" stroke="#999999" points="1036.5,-239 871.5,-239 871.5,-220 1036.5,-220 1036.5,-239"/>
<text text-anchor="middle" x="954" y="-227" font-family="Helvetica,sans-Serif" font-size="10.00">QtPositioning/QGeoCoordinate</text>
</a>
</g>
</g>
<!-- Node12&#45;&gt;Node21 -->
<g id="edge24_Node000012_Node000021" class="edge">
<title>Node12&#45;&gt;Node21</title>
<g id="a_edge24_Node000012_Node000021"><a xlink:title=" ">
<path fill="none" stroke="#63b8ff" d="M801.24,-274.98C832.06,-266.01 880.78,-251.82 914.89,-241.89"/>
<polygon fill="#63b8ff" stroke="#63b8ff" points="915.91,-245.24 924.53,-239.08 913.95,-238.52 915.91,-245.24"/>
</a>
</g>
</g>
<!-- Node12&#45;&gt;Node22 -->
<g id="edge26_Node000012_Node000022" class="edge">
<title>Node12&#45;&gt;Node22</title>
<g id="a_edge26_Node000012_Node000022"><a xlink:title=" ">
<path fill="none" stroke="#63b8ff" d="M802.62,-280.66C873.71,-273.99 1055.43,-256.59 1207,-239 1364.83,-220.68 1550.83,-195.55 1641.2,-183.11"/>
<polygon fill="#63b8ff" stroke="#63b8ff" points="1641.79,-186.56 1651.22,-181.73 1640.83,-179.63 1641.79,-186.56"/>
</a>
</g>
</g>
<!-- Node30 -->
<g id="Node000030" class="node">
<title>Node30</title>
<g id="a_Node000030"><a xlink:href="VehicleFactGroup_8h.html" target="_top" xlink:title=" ">
<polygon fill="white" stroke="#666666" points="1165,-239 1055,-239 1055,-220 1165,-220 1165,-239"/>
<text text-anchor="middle" x="1110" y="-227" font-family="Helvetica,sans-Serif" font-size="10.00">VehicleFactGroup.h</text>
</a>
</g>
</g>
<!-- Node12&#45;&gt;Node30 -->
<g id="edge37_Node000012_Node000030" class="edge">
<title>Node12&#45;&gt;Node30</title>
<g id="a_edge37_Node000012_Node000030"><a xlink:title=" ">
<path fill="none" stroke="#63b8ff" d="M802.59,-278.7C857.3,-270.12 972.98,-251.99 1045.79,-240.57"/>
<polygon fill="#63b8ff" stroke="#63b8ff" points="1046.43,-244.01 1055.77,-239 1045.34,-237.1 1046.43,-244.01"/>
</a>
</g>
</g>
<!-- Node38 -->
<g id="Node000038" class="node">
<title>Node38</title>
<g id="a_Node000038"><a xlink:href="VehicleTypes_8h.html" target="_top" xlink:title=" ">
<polygon fill="white" stroke="#666666" points="2010.5,-184 1921.5,-184 1921.5,-165 2010.5,-165 2010.5,-184"/>
<text text-anchor="middle" x="1966" y="-172" font-family="Helvetica,sans-Serif" font-size="10.00">VehicleTypes.h</text>
</a>
</g>
</g>
<!-- Node12&#45;&gt;Node38 -->
<g id="edge57_Node000012_Node000038" class="edge">
<title>Node12&#45;&gt;Node38</title>
<g id="a_edge57_Node000012_Node000038"><a xlink:title=" ">
<path fill="none" stroke="#63b8ff" d="M802.66,-280.99C883.31,-274.38 1108.03,-255.8 1295,-239 1523.86,-218.44 1796.43,-192.06 1910.99,-180.88"/>
<polygon fill="#63b8ff" stroke="#63b8ff" points="1911.64,-184.34 1921.25,-179.88 1910.96,-177.37 1911.64,-184.34"/>
</a>
</g>
</g>
<!-- Node22&#45;&gt;Node4 -->
<g id="edge28_Node000022_Node000004" class="edge">
<title>Node22&#45;&gt;Node4</title>
<g id="a_edge28_Node000022_Node000004"><a xlink:title=" ">
<path fill="none" stroke="#63b8ff" d="M1740.68,-173.65C1779.31,-171.34 1834.13,-161.87 1868,-129 1892.15,-105.57 1905.18,-81.14 1884,-55 1865,-31.56 1786.02,-19.97 1730.54,-14.61"/>
<polygon fill="#63b8ff" stroke="#63b8ff" points="1730.75,-11.12 1720.47,-13.69 1730.11,-18.09 1730.75,-11.12"/>
</a>
</g>
</g>
<!-- Node22&#45;&gt;Node8 -->
<g id="edge30_Node000022_Node000008" class="edge">
<title>Node22&#45;&gt;Node8</title>
<g id="a_edge30_Node000022_Node000008"><a xlink:title=" ">
<path fill="none" stroke="#63b8ff" d="M1651.43,-174.02C1545.21,-173.69 1270.67,-163.51 1065,-74 1032.99,-60.07 998.58,-38.86 977.17,-24.85"/>
<polygon fill="#63b8ff" stroke="#63b8ff" points="978.84,-21.75 968.57,-19.14 974.97,-27.59 978.84,-21.75"/>
</a>
</g>
</g>
<!-- Node22&#45;&gt;Node10 -->
<g id="edge29_Node000022_Node000010" class="edge">
<title>Node22&#45;&gt;Node10</title>
<g id="a_edge29_Node000022_Node000010"><a xlink:title=" ">
<path fill="none" stroke="#63b8ff" d="M1674,-164.85C1657.41,-157.41 1635.03,-145.3 1620,-129 1592.64,-99.32 1575.88,-54.1 1568.13,-28.97"/>
<polygon fill="#63b8ff" stroke="#63b8ff" points="1571.45,-27.86 1565.28,-19.25 1564.74,-29.83 1571.45,-27.86"/>
</a>
</g>
</g>
<!-- Node23 -->
<g id="Node000023" class="node">
<title>Node23</title>
<g id="a_Node000023"><a xlink:title=" ">
<polygon fill="#e0e0e0" stroke="#999999" points="1859,-129 1781,-129 1781,-110 1859,-110 1859,-129"/>
<text text-anchor="middle" x="1820" y="-117" font-family="Helvetica,sans-Serif" font-size="10.00">QtCore/QList</text>
</a>
</g>
</g>
<!-- Node22&#45;&gt;Node23 -->
<g id="edge27_Node000022_Node000023" class="edge">
<title>Node22&#45;&gt;Node23</title>
<g id="a_edge27_Node000022_Node000023"><a xlink:title=" ">
<path fill="none" stroke="#63b8ff" d="M1715.92,-164.98C1736.05,-156.38 1767.38,-142.99 1790.41,-133.15"/>
<polygon fill="#63b8ff" stroke="#63b8ff" points="1791.9,-136.32 1799.71,-129.17 1789.14,-129.88 1791.9,-136.32"/>
</a>
</g>
</g>
<!-- Node24 -->
<g id="Node000024" class="node">
<title>Node24</title>
<g id="a_Node000024"><a xlink:title=" ">
<polygon fill="#e0e0e0" stroke="#999999" points="2016.5,-129 1915.5,-129 1915.5,-110 2016.5,-110 2016.5,-129"/>
<text text-anchor="middle" x="1966" y="-117" font-family="Helvetica,sans-Serif" font-size="10.00">MAVLinkEnums.h</text>
</a>
</g>
</g>
<!-- Node22&#45;&gt;Node24 -->
<g id="edge31_Node000022_Node000024" class="edge">
<title>Node22&#45;&gt;Node24</title>
<g id="a_edge31_Node000022_Node000024"><a xlink:title=" ">
<path fill="none" stroke="#63b8ff" d="M1739.38,-164.98C1786.38,-155.76 1861.43,-141.03 1912.16,-131.07"/>
<polygon fill="#63b8ff" stroke="#63b8ff" points="1913.14,-134.44 1922.28,-129.08 1911.79,-127.57 1913.14,-134.44"/>
</a>
</g>
</g>
<!-- Node25 -->
<g id="Node000025" class="node">
<title>Node25</title>
<g id="a_Node000025"><a xlink:href="MAVLinkMessageType_8h.html" target="_top" xlink:title=" ">
<polygon fill="white" stroke="#666666" points="1763,-129 1629,-129 1629,-110 1763,-110 1763,-129"/>
<text text-anchor="middle" x="1696" y="-117" font-family="Helvetica,sans-Serif" font-size="10.00">MAVLinkMessageType.h</text>
</a>
</g>
</g>
<!-- Node22&#45;&gt;Node25 -->
<g id="edge32_Node000022_Node000025" class="edge">
<title>Node22&#45;&gt;Node25</title>
<g id="a_edge32_Node000022_Node000025"><a xlink:title=" ">
<path fill="none" stroke="#63b8ff" d="M1696,-164.75C1696,-157.8 1696,-147.85 1696,-139.13"/>
<polygon fill="#63b8ff" stroke="#63b8ff" points="1699.5,-139.09 1696,-129.09 1692.5,-139.09 1699.5,-139.09"/>
</a>
</g>
</g>
<!-- Node28 -->
<g id="Node000028" class="node">
<title>Node28</title>
<g id="a_Node000028"><a xlink:href="QGCMAVLinkTypes_8h.html" target="_top" xlink:title=" ">
<polygon fill="white" stroke="#666666" points="2151.5,-129 2034.5,-129 2034.5,-110 2151.5,-110 2151.5,-129"/>
<text text-anchor="middle" x="2093" y="-117" font-family="Helvetica,sans-Serif" font-size="10.00">QGCMAVLinkTypes.h</text>
</a>
</g>
</g>
<!-- Node22&#45;&gt;Node28 -->
<g id="edge35_Node000022_Node000028" class="edge">
<title>Node22&#45;&gt;Node28</title>
<g id="a_edge35_Node000022_Node000028"><a xlink:title=" ">
<path fill="none" stroke="#63b8ff" d="M1740.77,-167.52C1809.81,-158.31 1942.76,-140.56 2024.11,-129.7"/>
<polygon fill="#63b8ff" stroke="#63b8ff" points="2024.81,-133.13 2034.26,-128.34 2023.88,-126.2 2024.81,-133.13"/>
</a>
</g>
</g>
<!-- Node26 -->
<g id="Node000026" class="node">
<title>Node26</title>
<g id="a_Node000026"><a xlink:title=" ">
<polygon fill="#e0e0e0" stroke="#999999" points="1758.5,-74 1705.5,-74 1705.5,-55 1758.5,-55 1758.5,-74"/>
<text text-anchor="middle" x="1732" y="-62" font-family="Helvetica,sans-Serif" font-size="10.00">stdint.h</text>
</a>
</g>
</g>
<!-- Node25&#45;&gt;Node26 -->
<g id="edge33_Node000025_Node000026" class="edge">
<title>Node25&#45;&gt;Node26</title>
<g id="a_edge33_Node000025_Node000026"><a xlink:title=" ">
<path fill="none" stroke="#63b8ff" d="M1701.94,-109.75C1706.98,-102.34 1714.34,-91.5 1720.51,-82.41"/>
<polygon fill="#63b8ff" stroke="#63b8ff" points="1723.44,-84.33 1726.17,-74.09 1717.65,-80.39 1723.44,-84.33"/>
</a>
</g>
</g>
<!-- Node27 -->
<g id="Node000027" class="node">
<title>Node27</title>
<g id="a_Node000027"><a xlink:title=" ">
<polygon fill="#e0e0e0" stroke="#999999" points="1875,-74 1777,-74 1777,-55 1875,-55 1875,-74"/>
<text text-anchor="middle" x="1826" y="-62" font-family="Helvetica,sans-Serif" font-size="10.00">mavlink_types.h</text>
</a>
</g>
</g>
<!-- Node25&#45;&gt;Node27 -->
<g id="edge34_Node000025_Node000027" class="edge">
<title>Node25&#45;&gt;Node27</title>
<g id="a_edge34_Node000025_Node000027"><a xlink:title=" ">
<path fill="none" stroke="#63b8ff" d="M1716.89,-109.98C1738.08,-101.34 1771.13,-87.87 1795.3,-78.02"/>
<polygon fill="#63b8ff" stroke="#63b8ff" points="1796.79,-81.19 1804.73,-74.17 1794.15,-74.7 1796.79,-81.19"/>
</a>
</g>
</g>
<!-- Node29 -->
<g id="Node000029" class="node">
<title>Node29</title>
<g id="a_Node000029"><a xlink:title=" ">
<polygon fill="#e0e0e0" stroke="#999999" points="2118,-74 2068,-74 2068,-55 2118,-55 2118,-74"/>
<text text-anchor="middle" x="2093" y="-62" font-family="Helvetica,sans-Serif" font-size="10.00">cstdint</text>
</a>
</g>
</g>
<!-- Node28&#45;&gt;Node29 -->
<g id="edge36_Node000028_Node000029" class="edge">
<title>Node28&#45;&gt;Node29</title>
<g id="a_edge36_Node000028_Node000029"><a xlink:title=" ">
<path fill="none" stroke="#63b8ff" d="M2093,-109.75C2093,-102.8 2093,-92.85 2093,-84.13"/>
<polygon fill="#63b8ff" stroke="#63b8ff" points="2096.5,-84.09 2093,-74.09 2089.5,-84.09 2096.5,-84.09"/>
</a>
</g>
</g>
<!-- Node31 -->
<g id="Node000031" class="node">
<title>Node31</title>
<g id="a_Node000031"><a xlink:href="FactGroup_8h.html" target="_top" xlink:title=" ">
<polygon fill="white" stroke="#666666" points="1018,-184 944,-184 944,-165 1018,-165 1018,-184"/>
<text text-anchor="middle" x="981" y="-172" font-family="Helvetica,sans-Serif" font-size="10.00">FactGroup.h</text>
</a>
</g>
</g>
<!-- Node30&#45;&gt;Node31 -->
<g id="edge38_Node000030_Node000031" class="edge">
<title>Node30&#45;&gt;Node31</title>
<g id="a_edge38_Node000030_Node000031"><a xlink:title=" ">
<path fill="none" stroke="#63b8ff" d="M1089.27,-219.98C1068.24,-211.34 1035.45,-197.87 1011.46,-188.02"/>
<polygon fill="#63b8ff" stroke="#63b8ff" points="1012.68,-184.73 1002.1,-184.17 1010.02,-191.21 1012.68,-184.73"/>
</a>
</g>
</g>
<!-- Node31&#45;&gt;Node5 -->
<g id="edge40_Node000031_Node000005" class="edge">
<title>Node31&#45;&gt;Node5</title>
<g id="a_edge40_Node000031_Node000005"><a xlink:title=" ">
<path fill="none" stroke="#63b8ff" d="M981.02,-164.68C980.54,-150.91 977.51,-124.42 962,-110 942.25,-91.63 875.91,-79.46 824.79,-72.55"/>
<polygon fill="#63b8ff" stroke="#63b8ff" points="825.16,-69.07 814.79,-71.24 824.25,-76.01 825.16,-69.07"/>
</a>
</g>
</g>
<!-- Node31&#45;&gt;Node8 -->
<g id="edge42_Node000031_Node000008" class="edge">
<title>Node31&#45;&gt;Node8</title>
<g id="a_edge42_Node000031_Node000008"><a xlink:title=" ">
<path fill="none" stroke="#63b8ff" d="M943.85,-170.52C916.23,-166.14 880.29,-155.37 862,-129 853.23,-116.35 848.93,-81.48 867,-55 877.42,-39.73 894.68,-29.45 911.24,-22.66"/>
<polygon fill="#63b8ff" stroke="#63b8ff" points="912.72,-25.84 920.85,-19.05 910.26,-19.29 912.72,-25.84"/>
</a>
</g>
</g>
<!-- Node31&#45;&gt;Node20 -->
<g id="edge41_Node000031_Node000020" class="edge">
<title>Node31&#45;&gt;Node20</title>
<g id="a_edge41_Node000031_Node000020"><a xlink:title=" ">
<path fill="none" stroke="#63b8ff" d="M947.1,-164.98C910.98,-155.91 853.68,-141.52 814.08,-131.57"/>
<polygon fill="#63b8ff" stroke="#63b8ff" points="814.72,-128.12 804.17,-129.08 813.01,-134.91 814.72,-128.12"/>
</a>
</g>
</g>
<!-- Node31&#45;&gt;Node25 -->
<g id="edge56_Node000031_Node000025" class="edge">
<title>Node31&#45;&gt;Node25</title>
<g id="a_edge56_Node000031_Node000025"><a xlink:title=" ">
<path fill="none" stroke="#63b8ff" d="M1018.43,-170.73C1130.65,-162.41 1465.88,-137.56 1618.63,-126.24"/>
<polygon fill="#63b8ff" stroke="#63b8ff" points="1619.15,-129.71 1628.86,-125.48 1618.63,-122.73 1619.15,-129.71"/>
</a>
</g>
</g>
<!-- Node32 -->
<g id="Node000032" class="node">
<title>Node32</title>
<g id="a_Node000032"><a xlink:title=" ">
<polygon fill="#e0e0e0" stroke="#999999" points="953,-129 871,-129 871,-110 953,-110 953,-129"/>
<text text-anchor="middle" x="912" y="-117" font-family="Helvetica,sans-Serif" font-size="10.00">QtCore/QMap</text>
</a>
</g>
</g>
<!-- Node31&#45;&gt;Node32 -->
<g id="edge39_Node000031_Node000032" class="edge">
<title>Node31&#45;&gt;Node32</title>
<g id="a_edge39_Node000031_Node000032"><a xlink:title=" ">
<path fill="none" stroke="#63b8ff" d="M969.91,-164.98C959.51,-157 943.74,-144.88 931.28,-135.31"/>
<polygon fill="#63b8ff" stroke="#63b8ff" points="933.35,-132.49 923.29,-129.17 929.09,-138.04 933.35,-132.49"/>
</a>
</g>
</g>
<!-- Node33 -->
<g id="Node000033" class="node">
<title>Node33</title>
<g id="a_Node000033"><a xlink:href="Fact_8h.html" target="_top" xlink:title=" ">
<polygon fill="white" stroke="#666666" points="1300.5,-129 1255.5,-129 1255.5,-110 1300.5,-110 1300.5,-129"/>
<text text-anchor="middle" x="1278" y="-117" font-family="Helvetica,sans-Serif" font-size="10.00">Fact.h</text>
</a>
</g>
</g>
<!-- Node31&#45;&gt;Node33 -->
<g id="edge43_Node000031_Node000033" class="edge">
<title>Node31&#45;&gt;Node33</title>
<g id="a_edge43_Node000031_Node000033"><a xlink:title=" ">
<path fill="none" stroke="#63b8ff" d="M1018.01,-166.89C1076.59,-156.44 1189.72,-136.25 1245.41,-126.32"/>
<polygon fill="#63b8ff" stroke="#63b8ff" points="1246.2,-129.73 1255.43,-124.53 1244.97,-122.84 1246.2,-129.73"/>
</a>
</g>
</g>
<!-- Node33&#45;&gt;Node4 -->
<g id="edge45_Node000033_Node000004" class="edge">
<title>Node33&#45;&gt;Node4</title>
<g id="a_edge45_Node000033_Node000004"><a xlink:title=" ">
<path fill="none" stroke="#63b8ff" d="M1300.58,-118.88C1373.12,-119.65 1598.66,-118.37 1653,-74 1666.2,-63.22 1671.17,-43.93 1673,-29.43"/>
<polygon fill="#63b8ff" stroke="#63b8ff" points="1676.52,-29.35 1673.9,-19.08 1669.55,-28.74 1676.52,-29.35"/>
</a>
</g>
</g>
<!-- Node33&#45;&gt;Node7 -->
<g id="edge48_Node000033_Node000007" class="edge">
<title>Node33&#45;&gt;Node7</title>
<g id="a_edge48_Node000033_Node000007"><a xlink:title=" ">
<path fill="none" stroke="#63b8ff" d="M1255.42,-118.05C1223.58,-116.17 1165.72,-107.93 1133,-74 1121.5,-62.07 1117.57,-43.25 1116.33,-29.19"/>
<polygon fill="#63b8ff" stroke="#63b8ff" points="1119.83,-28.96 1115.82,-19.16 1112.83,-29.32 1119.83,-28.96"/>
</a>
</g>
</g>
<!-- Node33&#45;&gt;Node8 -->
<g id="edge49_Node000033_Node000008" class="edge">
<title>Node33&#45;&gt;Node8</title>
<g id="a_edge49_Node000033_Node000008"><a xlink:title=" ">
<path fill="none" stroke="#63b8ff" d="M1255.26,-112.96C1224.03,-105.17 1166.27,-90.12 1118,-74 1070.87,-58.26 1017.43,-36.53 985.24,-23.01"/>
<polygon fill="#63b8ff" stroke="#63b8ff" points="986.54,-19.76 975.96,-19.09 983.81,-26.2 986.54,-19.76"/>
</a>
</g>
</g>
<!-- Node33&#45;&gt;Node10 -->
<g id="edge47_Node000033_Node000010" class="edge">
<title>Node33&#45;&gt;Node10</title>
<g id="a_edge47_Node000033_Node000010"><a xlink:title=" ">
<path fill="none" stroke="#63b8ff" d="M1300.76,-117.7C1358.36,-115.23 1507.92,-105.83 1544,-74 1556.53,-62.95 1560.96,-44.01 1562.44,-29.68"/>
<polygon fill="#63b8ff" stroke="#63b8ff" points="1565.96,-29.62 1563.1,-19.42 1558.97,-29.17 1565.96,-29.62"/>
</a>
</g>
</g>
<!-- Node34 -->
<g id="Node000034" class="node">
<title>Node34</title>
<g id="a_Node000034"><a xlink:title=" ">
<polygon fill="#e0e0e0" stroke="#999999" points="1264.5,-74 1141.5,-74 1141.5,-55 1264.5,-55 1264.5,-74"/>
<text text-anchor="middle" x="1203" y="-62" font-family="Helvetica,sans-Serif" font-size="10.00">QtCore/QMutexLocker</text>
</a>
</g>
</g>
<!-- Node33&#45;&gt;Node34 -->
<g id="edge44_Node000033_Node000034" class="edge">
<title>Node33&#45;&gt;Node34</title>
<g id="a_edge44_Node000033_Node000034"><a xlink:title=" ">
<path fill="none" stroke="#63b8ff" d="M1265.95,-109.98C1254.54,-101.92 1237.17,-89.65 1223.57,-80.03"/>
<polygon fill="#63b8ff" stroke="#63b8ff" points="1225.46,-77.08 1215.27,-74.17 1221.42,-82.8 1225.46,-77.08"/>
</a>
</g>
</g>
<!-- Node35 -->
<g id="Node000035" class="node">
<title>Node35</title>
<g id="a_Node000035"><a xlink:title=" ">
<polygon fill="#e0e0e0" stroke="#999999" points="1423,-74 1283,-74 1283,-55 1423,-55 1423,-74"/>
<text text-anchor="middle" x="1353" y="-62" font-family="Helvetica,sans-Serif" font-size="10.00">QtCore/QRecursiveMutex</text>
</a>
</g>
</g>
<!-- Node33&#45;&gt;Node35 -->
<g id="edge46_Node000033_Node000035" class="edge">
<title>Node33&#45;&gt;Node35</title>
<g id="a_edge46_Node000033_Node000035"><a xlink:title=" ">
<path fill="none" stroke="#63b8ff" d="M1290.05,-109.98C1301.46,-101.92 1318.83,-89.65 1332.43,-80.03"/>
<polygon fill="#63b8ff" stroke="#63b8ff" points="1334.58,-82.8 1340.73,-74.17 1330.54,-77.08 1334.58,-82.8"/>
</a>
</g>
</g>
<!-- Node36 -->
<g id="Node000036" class="node">
<title>Node36</title>
<g id="a_Node000036"><a xlink:href="FactMetaData_8h.html" target="_top" xlink:title=" ">
<polygon fill="white" stroke="#666666" points="1534.5,-74 1441.5,-74 1441.5,-55 1534.5,-55 1534.5,-74"/>
<text text-anchor="middle" x="1488" y="-62" font-family="Helvetica,sans-Serif" font-size="10.00">FactMetaData.h</text>
</a>
</g>
</g>
<!-- Node33&#45;&gt;Node36 -->
<g id="edge50_Node000033_Node000036" class="edge">
<title>Node33&#45;&gt;Node36</title>
<g id="a_edge50_Node000033_Node000036"><a xlink:title=" ">
<path fill="none" stroke="#63b8ff" d="M1300.87,-112.73C1335.19,-104.07 1400.64,-87.55 1444.31,-76.53"/>
<polygon fill="#63b8ff" stroke="#63b8ff" points="1445.25,-79.9 1454.09,-74.06 1443.54,-73.11 1445.25,-79.9"/>
</a>
</g>
</g>
<!-- Node36&#45;&gt;Node4 -->
<g id="edge52_Node000036_Node000004" class="edge">
<title>Node36&#45;&gt;Node4</title>
<g id="a_edge52_Node000036_Node000004"><a xlink:title=" ">
<path fill="none" stroke="#63b8ff" d="M1517.88,-54.98C1549.38,-46.01 1599.17,-31.82 1634.03,-21.89"/>
<polygon fill="#63b8ff" stroke="#63b8ff" points="1635.22,-25.19 1643.88,-19.08 1633.31,-18.46 1635.22,-25.19"/>
</a>
</g>
</g>
<!-- Node36&#45;&gt;Node7 -->
<g id="edge54_Node000036_Node000007" class="edge">
<title>Node36&#45;&gt;Node7</title>
<g id="a_edge54_Node000036_Node000007"><a xlink:title=" ">
<path fill="none" stroke="#63b8ff" d="M1441.25,-56.37C1438.12,-55.9 1435.02,-55.44 1432,-55 1341.9,-41.82 1237.25,-27.22 1173.86,-18.46"/>
<polygon fill="#63b8ff" stroke="#63b8ff" points="1174.05,-14.95 1163.67,-17.05 1173.1,-21.89 1174.05,-14.95"/>
</a>
</g>
</g>
<!-- Node36&#45;&gt;Node8 -->
<g id="edge55_Node000036_Node000008" class="edge">
<title>Node36&#45;&gt;Node8</title>
<g id="a_edge55_Node000036_Node000008"><a xlink:title=" ">
<path fill="none" stroke="#63b8ff" d="M1441.28,-56.2C1438.14,-55.78 1435.03,-55.37 1432,-55 1362.66,-46.5 1178.68,-29.94 1060.82,-19.59"/>
<polygon fill="#63b8ff" stroke="#63b8ff" points="1060.95,-16.09 1050.68,-18.7 1060.34,-23.06 1060.95,-16.09"/>
</a>
</g>
</g>
<!-- Node36&#45;&gt;Node10 -->
<g id="edge53_Node000036_Node000010" class="edge">
<title>Node36&#45;&gt;Node10</title>
<g id="a_edge53_Node000036_Node000010"><a xlink:title=" ">
<path fill="none" stroke="#63b8ff" d="M1500.05,-54.98C1511.46,-46.92 1528.83,-34.65 1542.43,-25.03"/>
<polygon fill="#63b8ff" stroke="#63b8ff" points="1544.58,-27.8 1550.73,-19.17 1540.54,-22.08 1544.58,-27.8"/>
</a>
</g>
</g>
<!-- Node37 -->
<g id="Node000037" class="node">
<title>Node37</title>
<g id="a_Node000037"><a xlink:title=" ">
<polygon fill="#e0e0e0" stroke="#999999" points="1500,-19 1414,-19 1414,0 1500,0 1500,-19"/>
<text text-anchor="middle" x="1457" y="-7" font-family="Helvetica,sans-Serif" font-size="10.00">QtCore/QHash</text>
</a>
</g>
</g>
<!-- Node36&#45;&gt;Node37 -->
<g id="edge51_Node000036_Node000037" class="edge">
<title>Node36&#45;&gt;Node37</title>
<g id="a_edge51_Node000036_Node000037"><a xlink:title=" ">
<path fill="none" stroke="#63b8ff" d="M1482.88,-54.75C1478.64,-47.49 1472.47,-36.95 1467.22,-27.98"/>
<polygon fill="#63b8ff" stroke="#63b8ff" points="1470.09,-25.95 1462.02,-19.09 1464.05,-29.49 1470.09,-25.95"/>
</a>
</g>
</g>
<!-- Node38&#45;&gt;Node24 -->
<g id="edge58_Node000038_Node000024" class="edge">
<title>Node38&#45;&gt;Node24</title>
<g id="a_edge58_Node000038_Node000024"><a xlink:title=" ">
<path fill="none" stroke="#63b8ff" d="M1966,-164.75C1966,-157.8 1966,-147.85 1966,-139.13"/>
<polygon fill="#63b8ff" stroke="#63b8ff" points="1969.5,-139.09 1966,-129.09 1962.5,-139.09 1969.5,-139.09"/>
</a>
</g>
</g>
<!-- Node38&#45;&gt;Node28 -->
<g id="edge59_Node000038_Node000028" class="edge">
<title>Node38&#45;&gt;Node28</title>
<g id="a_edge59_Node000038_Node000028"><a xlink:title=" ">
<path fill="none" stroke="#63b8ff" d="M1986.4,-164.98C2007.02,-156.38 2039.11,-142.99 2062.69,-133.15"/>
<polygon fill="#63b8ff" stroke="#63b8ff" points="2064.34,-136.25 2072.22,-129.17 2061.65,-129.79 2064.34,-136.25"/>
</a>
</g>
</g>
</g>
</svg>
