<?xml version="1.0" encoding="UTF-8" standalone="no"?>
<!DOCTYPE svg PUBLIC "-//W3C//DTD SVG 1.1//EN"
 "http://www.w3.org/Graphics/SVG/1.1/DTD/svg11.dtd">
<!-- Generated by graphviz version 2.43.0 (0)
 -->
<!-- Title: src/AutoPilotPlugins/APM/APMFlightModesComponentController.h Pages: 1 -->
<svg width="770pt" height="159pt"
 viewBox="0.00 0.00 770.00 159.00" xmlns="http://www.w3.org/2000/svg" xmlns:xlink="http://www.w3.org/1999/xlink">
<g id="graph0" class="graph" transform="scale(1 1) rotate(0) translate(4 155)">
<title>src/AutoPilotPlugins/APM/APMFlightModesComponentController.h</title>
<!-- Node1 -->
<g id="Node000001" class="node">
<title>Node1</title>
<g id="a_Node000001"><a xlink:title=" ">
<polygon fill="#999999" stroke="#666666" points="470.5,-151 288.5,-151 288.5,-110 470.5,-110 470.5,-151"/>
<text text-anchor="start" x="296.5" y="-139" font-family="Helvetica,sans-Serif" font-size="10.00">src/AutoPilotPlugins</text>
<text text-anchor="start" x="296.5" y="-128" font-family="Helvetica,sans-Serif" font-size="10.00">/APM/APMFlightModesComponent</text>
<text text-anchor="middle" x="379.5" y="-117" font-family="Helvetica,sans-Serif" font-size="10.00">Controller.h</text>
</a>
</g>
</g>
<!-- Node2 -->
<g id="Node000002" class="node">
<title>Node2</title>
<g id="a_Node000002"><a xlink:title=" ">
<polygon fill="#e0e0e0" stroke="#999999" points="107,-19 0,-19 0,0 107,0 107,-19"/>
<text text-anchor="middle" x="53.5" y="-7" font-family="Helvetica,sans-Serif" font-size="10.00">QtCore/QStringList</text>
</a>
</g>
</g>
<!-- Node1&#45;&gt;Node2 -->
<g id="edge1_Node000001_Node000002" class="edge">
<title>Node1&#45;&gt;Node2</title>
<g id="a_edge1_Node000001_Node000002"><a xlink:title=" ">
<path fill="none" stroke="#63b8ff" d="M326.03,-109.98C258.04,-85.16 142.73,-43.07 86.42,-22.52"/>
<polygon fill="#63b8ff" stroke="#63b8ff" points="87.53,-19.2 76.93,-19.05 85.13,-25.77 87.53,-19.2"/>
</a>
</g>
</g>
<!-- Node3 -->
<g id="Node000003" class="node">
<title>Node3</title>
<g id="a_Node000003"><a xlink:title=" ">
<polygon fill="#e0e0e0" stroke="#999999" points="570,-74 457,-74 457,-55 570,-55 570,-74"/>
<text text-anchor="middle" x="513.5" y="-62" font-family="Helvetica,sans-Serif" font-size="10.00">QtCore/QVariantList</text>
</a>
</g>
</g>
<!-- Node1&#45;&gt;Node3 -->
<g id="edge2_Node000001_Node000003" class="edge">
<title>Node1&#45;&gt;Node3</title>
<g id="a_edge2_Node000001_Node000003"><a xlink:title=" ">
<path fill="none" stroke="#63b8ff" d="M420.43,-109.95C441.8,-99.75 467.36,-87.54 486.28,-78.5"/>
<polygon fill="#63b8ff" stroke="#63b8ff" points="488,-81.56 495.51,-74.09 484.98,-75.24 488,-81.56"/>
</a>
</g>
</g>
<!-- Node4 -->
<g id="Node000004" class="node">
<title>Node4</title>
<g id="a_Node000004"><a xlink:title=" ">
<polygon fill="#e0e0e0" stroke="#999999" points="314,-19 125,-19 125,0 314,0 314,-19"/>
<text text-anchor="middle" x="219.5" y="-7" font-family="Helvetica,sans-Serif" font-size="10.00">QtQmlIntegration/QtQmlIntegration</text>
</a>
</g>
</g>
<!-- Node1&#45;&gt;Node4 -->
<g id="edge3_Node000001_Node000004" class="edge">
<title>Node1&#45;&gt;Node4</title>
<g id="a_edge3_Node000001_Node000004"><a xlink:title=" ">
<path fill="none" stroke="#63b8ff" d="M353.08,-109.85C321.07,-86.04 267.86,-46.47 239.22,-25.16"/>
<polygon fill="#63b8ff" stroke="#63b8ff" points="241.28,-22.33 231.16,-19.18 237.1,-27.95 241.28,-22.33"/>
</a>
</g>
</g>
<!-- Node5 -->
<g id="Node000005" class="node">
<title>Node5</title>
<g id="a_Node000005"><a xlink:href="FactPanelController_8h.html" target="_top" xlink:title=" ">
<polygon fill="white" stroke="#666666" points="439,-74 320,-74 320,-55 439,-55 439,-74"/>
<text text-anchor="middle" x="379.5" y="-62" font-family="Helvetica,sans-Serif" font-size="10.00">FactPanelController.h</text>
</a>
</g>
</g>
<!-- Node1&#45;&gt;Node5 -->
<g id="edge4_Node000001_Node000005" class="edge">
<title>Node1&#45;&gt;Node5</title>
<g id="a_edge4_Node000001_Node000005"><a xlink:title=" ">
<path fill="none" stroke="#63b8ff" d="M379.5,-109.95C379.5,-101.85 379.5,-92.5 379.5,-84.47"/>
<polygon fill="#63b8ff" stroke="#63b8ff" points="383,-84.26 379.5,-74.26 376,-84.26 383,-84.26"/>
</a>
</g>
</g>
<!-- Node9 -->
<g id="Node000009" class="node">
<title>Node9</title>
<g id="a_Node000009"><a xlink:href="QGCMAVLinkTypes_8h.html" target="_top" xlink:title=" ">
<polygon fill="white" stroke="#666666" points="762,-74 645,-74 645,-55 762,-55 762,-74"/>
<text text-anchor="middle" x="703.5" y="-62" font-family="Helvetica,sans-Serif" font-size="10.00">QGCMAVLinkTypes.h</text>
</a>
</g>
</g>
<!-- Node1&#45;&gt;Node9 -->
<g id="edge10_Node000001_Node000009" class="edge">
<title>Node1&#45;&gt;Node9</title>
<g id="a_edge10_Node000001_Node000009"><a xlink:title=" ">
<path fill="none" stroke="#63b8ff" d="M470.61,-111.5C528.63,-100.04 601.75,-85.6 650.43,-75.98"/>
<polygon fill="#63b8ff" stroke="#63b8ff" points="651.3,-79.38 660.43,-74.01 649.94,-72.51 651.3,-79.38"/>
</a>
</g>
</g>
<!-- Node5&#45;&gt;Node2 -->
<g id="edge7_Node000005_Node000002" class="edge">
<title>Node5&#45;&gt;Node2</title>
<g id="a_edge7_Node000005_Node000002"><a xlink:title=" ">
<path fill="none" stroke="#63b8ff" d="M327.12,-54.98C269.58,-45.63 177.21,-30.61 115.95,-20.65"/>
<polygon fill="#63b8ff" stroke="#63b8ff" points="116.45,-17.19 106.02,-19.04 115.33,-24.1 116.45,-17.19"/>
</a>
</g>
</g>
<!-- Node5&#45;&gt;Node4 -->
<g id="edge9_Node000005_Node000004" class="edge">
<title>Node5&#45;&gt;Node4</title>
<g id="a_edge9_Node000005_Node000004"><a xlink:title=" ">
<path fill="none" stroke="#63b8ff" d="M353.79,-54.98C327.05,-46.13 284.97,-32.19 255.05,-22.28"/>
<polygon fill="#63b8ff" stroke="#63b8ff" points="256,-18.9 245.41,-19.08 253.8,-25.55 256,-18.9"/>
</a>
</g>
</g>
<!-- Node6 -->
<g id="Node000006" class="node">
<title>Node6</title>
<g id="a_Node000006"><a xlink:title=" ">
<polygon fill="#e0e0e0" stroke="#999999" points="475,-19 332,-19 332,0 475,0 475,-19"/>
<text text-anchor="middle" x="403.5" y="-7" font-family="Helvetica,sans-Serif" font-size="10.00">QtCore/QLoggingCategory</text>
</a>
</g>
</g>
<!-- Node5&#45;&gt;Node6 -->
<g id="edge5_Node000005_Node000006" class="edge">
<title>Node5&#45;&gt;Node6</title>
<g id="a_edge5_Node000005_Node000006"><a xlink:title=" ">
<path fill="none" stroke="#63b8ff" d="M383.46,-54.75C386.71,-47.57 391.42,-37.18 395.45,-28.27"/>
<polygon fill="#63b8ff" stroke="#63b8ff" points="398.67,-29.64 399.61,-19.09 392.3,-26.75 398.67,-29.64"/>
</a>
</g>
</g>
<!-- Node7 -->
<g id="Node000007" class="node">
<title>Node7</title>
<g id="a_Node000007"><a xlink:title=" ">
<polygon fill="#e0e0e0" stroke="#999999" points="585.5,-19 493.5,-19 493.5,0 585.5,0 585.5,-19"/>
<text text-anchor="middle" x="539.5" y="-7" font-family="Helvetica,sans-Serif" font-size="10.00">QtCore/QObject</text>
</a>
</g>
</g>
<!-- Node5&#45;&gt;Node7 -->
<g id="edge6_Node000005_Node000007" class="edge">
<title>Node5&#45;&gt;Node7</title>
<g id="a_edge6_Node000005_Node000007"><a xlink:title=" ">
<path fill="none" stroke="#63b8ff" d="M405.21,-54.98C431.95,-46.13 474.03,-32.19 503.95,-22.28"/>
<polygon fill="#63b8ff" stroke="#63b8ff" points="505.2,-25.55 513.59,-19.08 503,-18.9 505.2,-25.55"/>
</a>
</g>
</g>
<!-- Node8 -->
<g id="Node000008" class="node">
<title>Node8</title>
<g id="a_Node000008"><a xlink:title=" ">
<polygon fill="#e0e0e0" stroke="#999999" points="693,-19 604,-19 604,0 693,0 693,-19"/>
<text text-anchor="middle" x="648.5" y="-7" font-family="Helvetica,sans-Serif" font-size="10.00">QtCore/QTimer</text>
</a>
</g>
</g>
<!-- Node5&#45;&gt;Node8 -->
<g id="edge8_Node000005_Node000008" class="edge">
<title>Node5&#45;&gt;Node8</title>
<g id="a_edge8_Node000005_Node000008"><a xlink:title=" ">
<path fill="none" stroke="#63b8ff" d="M422.72,-54.98C469.54,-45.76 544.31,-31.03 594.86,-21.07"/>
<polygon fill="#63b8ff" stroke="#63b8ff" points="595.81,-24.45 604.94,-19.08 594.45,-17.58 595.81,-24.45"/>
</a>
</g>
</g>
<!-- Node10 -->
<g id="Node000010" class="node">
<title>Node10</title>
<g id="a_Node000010"><a xlink:title=" ">
<polygon fill="#e0e0e0" stroke="#999999" points="761.5,-19 711.5,-19 711.5,0 761.5,0 761.5,-19"/>
<text text-anchor="middle" x="736.5" y="-7" font-family="Helvetica,sans-Serif" font-size="10.00">cstdint</text>
</a>
</g>
</g>
<!-- Node9&#45;&gt;Node10 -->
<g id="edge11_Node000009_Node000010" class="edge">
<title>Node9&#45;&gt;Node10</title>
<g id="a_edge11_Node000009_Node000010"><a xlink:title=" ">
<path fill="none" stroke="#63b8ff" d="M708.95,-54.75C713.51,-47.42 720.17,-36.73 725.79,-27.7"/>
<polygon fill="#63b8ff" stroke="#63b8ff" points="728.84,-29.43 731.15,-19.09 722.9,-25.73 728.84,-29.43"/>
</a>
</g>
</g>
</g>
</svg>
