<?xml version="1.0" encoding="UTF-8" standalone="no"?>
<!DOCTYPE svg PUBLIC "-//W3C//DTD SVG 1.1//EN"
 "http://www.w3.org/Graphics/SVG/1.1/DTD/svg11.dtd">
<!-- Generated by graphviz version 2.43.0 (0)
 -->
<!-- Title: src/FirmwarePlugin/APM/APMParameterMetaData.cc Pages: 1 -->
<svg width="1630pt" height="324pt"
 viewBox="0.00 0.00 1630.38 324.00" xmlns="http://www.w3.org/2000/svg" xmlns:xlink="http://www.w3.org/1999/xlink">
<g id="graph0" class="graph" transform="scale(1 1) rotate(0) translate(4 320)">
<title>src/FirmwarePlugin/APM/APMParameterMetaData.cc</title>
<!-- Node1 -->
<g id="Node000001" class="node">
<title>Node1</title>
<g id="a_Node000001"><a xlink:title=" ">
<polygon fill="#999999" stroke="#666666" points="1292.38,-316 1114.38,-316 1114.38,-286 1292.38,-286 1292.38,-316"/>
<text text-anchor="start" x="1122.38" y="-304" font-family="Helvetica,sans-Serif" font-size="10.00">src/FirmwarePlugin</text>
<text text-anchor="middle" x="1203.38" y="-293" font-family="Helvetica,sans-Serif" font-size="10.00">/APM/APMParameterMetaData.cc</text>
</a>
</g>
</g>
<!-- Node2 -->
<g id="Node000002" class="node">
<title>Node2</title>
<g id="a_Node000002"><a xlink:href="APMParameterMetaData_8h.html" target="_top" xlink:title=" ">
<polygon fill="white" stroke="#666666" points="839.38,-244.5 693.38,-244.5 693.38,-225.5 839.38,-225.5 839.38,-244.5"/>
<text text-anchor="middle" x="766.38" y="-232.5" font-family="Helvetica,sans-Serif" font-size="10.00">APMParameterMetaData.h</text>
</a>
</g>
</g>
<!-- Node1&#45;&gt;Node2 -->
<g id="edge1_Node000001_Node000002" class="edge">
<title>Node1&#45;&gt;Node2</title>
<g id="a_edge1_Node000001_Node000002"><a xlink:title=" ">
<path fill="none" stroke="#63b8ff" d="M1114.15,-286.93C1031.42,-274.82 910.08,-257.05 834.78,-246.02"/>
<polygon fill="#63b8ff" stroke="#63b8ff" points="834.87,-242.49 824.46,-244.51 833.85,-249.42 834.87,-242.49"/>
</a>
</g>
</g>
<!-- Node18 -->
<g id="Node000018" class="node">
<title>Node18</title>
<g id="a_Node000018"><a xlink:href="QGCLoggingCategory_8h.html" target="_top" xlink:title=" ">
<polygon fill="white" stroke="#666666" points="1080.38,-244.5 952.38,-244.5 952.38,-225.5 1080.38,-225.5 1080.38,-244.5"/>
<text text-anchor="middle" x="1016.38" y="-232.5" font-family="Helvetica,sans-Serif" font-size="10.00">QGCLoggingCategory.h</text>
</a>
</g>
</g>
<!-- Node1&#45;&gt;Node18 -->
<g id="edge19_Node000001_Node000018" class="edge">
<title>Node1&#45;&gt;Node18</title>
<g id="a_edge19_Node000001_Node000018"><a xlink:title=" ">
<path fill="none" stroke="#63b8ff" d="M1162.34,-285.95C1128.97,-274.53 1082.41,-258.6 1050.92,-247.82"/>
<polygon fill="#63b8ff" stroke="#63b8ff" points="1051.86,-244.44 1041.26,-244.52 1049.59,-251.07 1051.86,-244.44"/>
</a>
</g>
</g>
<!-- Node24 -->
<g id="Node000024" class="node">
<title>Node24</title>
<g id="a_Node000024"><a xlink:title=" ">
<polygon fill="#e0e0e0" stroke="#999999" points="1176.38,-244.5 1098.38,-244.5 1098.38,-225.5 1176.38,-225.5 1176.38,-244.5"/>
<text text-anchor="middle" x="1137.38" y="-232.5" font-family="Helvetica,sans-Serif" font-size="10.00">QtCore/QFile</text>
</a>
</g>
</g>
<!-- Node1&#45;&gt;Node24 -->
<g id="edge31_Node000001_Node000024" class="edge">
<title>Node1&#45;&gt;Node24</title>
<g id="a_edge31_Node000001_Node000024"><a xlink:title=" ">
<path fill="none" stroke="#63b8ff" d="M1188.73,-285.8C1178.44,-275.82 1164.66,-262.46 1153.97,-252.09"/>
<polygon fill="#63b8ff" stroke="#63b8ff" points="1156.11,-249.29 1146.5,-244.84 1151.24,-254.32 1156.11,-249.29"/>
</a>
</g>
</g>
<!-- Node25 -->
<g id="Node000025" class="node">
<title>Node25</title>
<g id="a_Node000025"><a xlink:title=" ">
<polygon fill="#e0e0e0" stroke="#999999" points="1346.38,-244.5 1194.38,-244.5 1194.38,-225.5 1346.38,-225.5 1346.38,-244.5"/>
<text text-anchor="middle" x="1270.38" y="-232.5" font-family="Helvetica,sans-Serif" font-size="10.00">QtCore/QRegularExpression</text>
</a>
</g>
</g>
<!-- Node1&#45;&gt;Node25 -->
<g id="edge32_Node000001_Node000025" class="edge">
<title>Node1&#45;&gt;Node25</title>
<g id="a_edge32_Node000001_Node000025"><a xlink:title=" ">
<path fill="none" stroke="#63b8ff" d="M1218.25,-285.8C1228.79,-275.72 1242.96,-262.19 1253.86,-251.78"/>
<polygon fill="#63b8ff" stroke="#63b8ff" points="1256.31,-254.28 1261.12,-244.84 1251.47,-249.22 1256.31,-254.28"/>
</a>
</g>
</g>
<!-- Node26 -->
<g id="Node000026" class="node">
<title>Node26</title>
<g id="a_Node000026"><a xlink:title=" ">
<polygon fill="#e0e0e0" stroke="#999999" points="1516.38,-250 1364.38,-250 1364.38,-220 1516.38,-220 1516.38,-250"/>
<text text-anchor="start" x="1372.38" y="-238" font-family="Helvetica,sans-Serif" font-size="10.00">QtCore/QRegularExpression</text>
<text text-anchor="middle" x="1440.38" y="-227" font-family="Helvetica,sans-Serif" font-size="10.00">Match</text>
</a>
</g>
</g>
<!-- Node1&#45;&gt;Node26 -->
<g id="edge33_Node000001_Node000026" class="edge">
<title>Node1&#45;&gt;Node26</title>
<g id="a_edge33_Node000001_Node000026"><a xlink:title=" ">
<path fill="none" stroke="#63b8ff" d="M1255.39,-285.95C1291.66,-276.16 1340.23,-263.05 1378.49,-252.71"/>
<polygon fill="#63b8ff" stroke="#63b8ff" points="1379.75,-256 1388.49,-250.01 1377.92,-249.24 1379.75,-256"/>
</a>
</g>
</g>
<!-- Node27 -->
<g id="Node000027" class="node">
<title>Node27</title>
<g id="a_Node000027"><a xlink:title=" ">
<polygon fill="#e0e0e0" stroke="#999999" points="1622.38,-244.5 1534.38,-244.5 1534.38,-225.5 1622.38,-225.5 1622.38,-244.5"/>
<text text-anchor="middle" x="1578.38" y="-232.5" font-family="Helvetica,sans-Serif" font-size="10.00">QtCore/QStack</text>
</a>
</g>
</g>
<!-- Node1&#45;&gt;Node27 -->
<g id="edge34_Node000001_Node000027" class="edge">
<title>Node1&#45;&gt;Node27</title>
<g id="a_edge34_Node000001_Node000027"><a xlink:title=" ">
<path fill="none" stroke="#63b8ff" d="M1292.67,-288.68C1357.55,-279.84 1447.3,-266.33 1525.38,-250 1529.57,-249.12 1533.93,-248.12 1538.26,-247.07"/>
<polygon fill="#63b8ff" stroke="#63b8ff" points="1539.4,-250.39 1548.24,-244.54 1537.68,-243.6 1539.4,-250.39"/>
</a>
</g>
</g>
<!-- Node3 -->
<g id="Node000003" class="node">
<title>Node3</title>
<g id="a_Node000003"><a xlink:title=" ">
<polygon fill="#e0e0e0" stroke="#999999" points="949.88,-19 806.88,-19 806.88,0 949.88,0 949.88,-19"/>
<text text-anchor="middle" x="878.38" y="-7" font-family="Helvetica,sans-Serif" font-size="10.00">QtCore/QLoggingCategory</text>
</a>
</g>
</g>
<!-- Node2&#45;&gt;Node3 -->
<g id="edge2_Node000002_Node000003" class="edge">
<title>Node2&#45;&gt;Node3</title>
<g id="a_edge2_Node000002_Node000003"><a xlink:title=" ">
<path fill="none" stroke="#63b8ff" d="M693.29,-233.53C486.37,-230.92 -82.64,-214.28 10.38,-110 62.25,-51.84 590.32,-22.93 796.52,-13.8"/>
<polygon fill="#63b8ff" stroke="#63b8ff" points="796.85,-17.28 806.68,-13.35 796.54,-10.29 796.85,-17.28"/>
</a>
</g>
</g>
<!-- Node4 -->
<g id="Node000004" class="node">
<title>Node4</title>
<g id="a_Node000004"><a xlink:title=" ">
<polygon fill="#e0e0e0" stroke="#999999" points="963.38,-184 881.38,-184 881.38,-165 963.38,-165 963.38,-184"/>
<text text-anchor="middle" x="922.38" y="-172" font-family="Helvetica,sans-Serif" font-size="10.00">QtCore/QMap</text>
</a>
</g>
</g>
<!-- Node2&#45;&gt;Node4 -->
<g id="edge3_Node000002_Node000004" class="edge">
<title>Node2&#45;&gt;Node4</title>
<g id="a_edge3_Node000002_Node000004"><a xlink:title=" ">
<path fill="none" stroke="#63b8ff" d="M789.06,-225.49C815.63,-215.53 859.85,-198.95 890.02,-187.63"/>
<polygon fill="#63b8ff" stroke="#63b8ff" points="891.53,-190.81 899.67,-184.02 889.07,-184.25 891.53,-190.81"/>
</a>
</g>
</g>
<!-- Node5 -->
<g id="Node000005" class="node">
<title>Node5</title>
<g id="a_Node000005"><a xlink:title=" ">
<polygon fill="#e0e0e0" stroke="#999999" points="1008.38,-129 916.38,-129 916.38,-110 1008.38,-110 1008.38,-129"/>
<text text-anchor="middle" x="962.38" y="-117" font-family="Helvetica,sans-Serif" font-size="10.00">QtCore/QObject</text>
</a>
</g>
</g>
<!-- Node2&#45;&gt;Node5 -->
<g id="edge4_Node000002_Node000005" class="edge">
<title>Node2&#45;&gt;Node5</title>
<g id="a_edge4_Node000002_Node000005"><a xlink:title=" ">
<path fill="none" stroke="#63b8ff" d="M778.49,-225.44C797.87,-211.9 837.28,-185.01 872.38,-165 892.56,-153.49 916.13,-141.9 934.09,-133.44"/>
<polygon fill="#63b8ff" stroke="#63b8ff" points="935.85,-136.48 943.43,-129.07 932.89,-130.13 935.85,-136.48"/>
</a>
</g>
</g>
<!-- Node6 -->
<g id="Node000006" class="node">
<title>Node6</title>
<g id="a_Node000006"><a xlink:title=" ">
<polygon fill="#e0e0e0" stroke="#999999" points="702.38,-184 552.38,-184 552.38,-165 702.38,-165 702.38,-184"/>
<text text-anchor="middle" x="627.38" y="-172" font-family="Helvetica,sans-Serif" font-size="10.00">QtCore/QXmlStreamReader</text>
</a>
</g>
</g>
<!-- Node2&#45;&gt;Node6 -->
<g id="edge5_Node000002_Node000006" class="edge">
<title>Node2&#45;&gt;Node6</title>
<g id="a_edge5_Node000002_Node000006"><a xlink:title=" ">
<path fill="none" stroke="#63b8ff" d="M746.17,-225.49C722.69,-215.62 683.77,-199.23 656.91,-187.93"/>
<polygon fill="#63b8ff" stroke="#63b8ff" points="658.19,-184.67 647.61,-184.02 655.47,-191.12 658.19,-184.67"/>
</a>
</g>
</g>
<!-- Node7 -->
<g id="Node000007" class="node">
<title>Node7</title>
<g id="a_Node000007"><a xlink:href="MAVLinkLib_8h.html" target="_top" xlink:title=" ">
<polygon fill="white" stroke="#666666" points="283.38,-184 201.38,-184 201.38,-165 283.38,-165 283.38,-184"/>
<text text-anchor="middle" x="242.38" y="-172" font-family="Helvetica,sans-Serif" font-size="10.00">MAVLinkLib.h</text>
</a>
</g>
</g>
<!-- Node2&#45;&gt;Node7 -->
<g id="edge6_Node000002_Node000007" class="edge">
<title>Node2&#45;&gt;Node7</title>
<g id="a_edge6_Node000002_Node000007"><a xlink:title=" ">
<path fill="none" stroke="#63b8ff" d="M693.24,-225.84C585.55,-213.81 386.99,-191.64 293.54,-181.21"/>
<polygon fill="#63b8ff" stroke="#63b8ff" points="293.81,-177.72 283.49,-180.09 293.04,-184.68 293.81,-177.72"/>
</a>
</g>
</g>
<!-- Node12 -->
<g id="Node000012" class="node">
<title>Node12</title>
<g id="a_Node000012"><a xlink:href="FactMetaData_8h.html" target="_top" xlink:title=" ">
<polygon fill="white" stroke="#666666" points="812.88,-184 719.88,-184 719.88,-165 812.88,-165 812.88,-184"/>
<text text-anchor="middle" x="766.38" y="-172" font-family="Helvetica,sans-Serif" font-size="10.00">FactMetaData.h</text>
</a>
</g>
</g>
<!-- Node2&#45;&gt;Node12 -->
<g id="edge11_Node000002_Node000012" class="edge">
<title>Node2&#45;&gt;Node12</title>
<g id="a_edge11_Node000002_Node000012"><a xlink:title=" ">
<path fill="none" stroke="#63b8ff" d="M766.38,-225.37C766.38,-217.25 766.38,-204.81 766.38,-194.39"/>
<polygon fill="#63b8ff" stroke="#63b8ff" points="769.88,-194.17 766.38,-184.17 762.88,-194.17 769.88,-194.17"/>
</a>
</g>
</g>
<!-- Node8 -->
<g id="Node000008" class="node">
<title>Node8</title>
<g id="a_Node000008"><a xlink:title=" ">
<polygon fill="#e0e0e0" stroke="#999999" points="345.88,-129 292.88,-129 292.88,-110 345.88,-110 345.88,-129"/>
<text text-anchor="middle" x="319.38" y="-117" font-family="Helvetica,sans-Serif" font-size="10.00">stdint.h</text>
</a>
</g>
</g>
<!-- Node7&#45;&gt;Node8 -->
<g id="edge7_Node000007_Node000008" class="edge">
<title>Node7&#45;&gt;Node8</title>
<g id="a_edge7_Node000007_Node000008"><a xlink:title=" ">
<path fill="none" stroke="#63b8ff" d="M254.75,-164.98C266.47,-156.92 284.3,-144.65 298.26,-135.03"/>
<polygon fill="#63b8ff" stroke="#63b8ff" points="300.53,-137.72 306.78,-129.17 296.56,-131.96 300.53,-137.72"/>
</a>
</g>
</g>
<!-- Node9 -->
<g id="Node000009" class="node">
<title>Node9</title>
<g id="a_Node000009"><a xlink:title=" ">
<polygon fill="#e0e0e0" stroke="#999999" points="117.38,-129 19.38,-129 19.38,-110 117.38,-110 117.38,-129"/>
<text text-anchor="middle" x="68.38" y="-117" font-family="Helvetica,sans-Serif" font-size="10.00">mavlink_types.h</text>
</a>
</g>
</g>
<!-- Node7&#45;&gt;Node9 -->
<g id="edge8_Node000007_Node000009" class="edge">
<title>Node7&#45;&gt;Node9</title>
<g id="a_edge8_Node000007_Node000009"><a xlink:title=" ">
<path fill="none" stroke="#63b8ff" d="M214.42,-164.98C185.08,-156.05 138.78,-141.94 106.19,-132.02"/>
<polygon fill="#63b8ff" stroke="#63b8ff" points="107.14,-128.65 96.55,-129.08 105.1,-135.34 107.14,-128.65"/>
</a>
</g>
</g>
<!-- Node10 -->
<g id="Node000010" class="node">
<title>Node10</title>
<g id="a_Node000010"><a xlink:title=" ">
<polygon fill="#e0e0e0" stroke="#999999" points="191.38,-129 135.38,-129 135.38,-110 191.38,-110 191.38,-129"/>
<text text-anchor="middle" x="163.38" y="-117" font-family="Helvetica,sans-Serif" font-size="10.00">stddef.h</text>
</a>
</g>
</g>
<!-- Node7&#45;&gt;Node10 -->
<g id="edge9_Node000007_Node000010" class="edge">
<title>Node7&#45;&gt;Node10</title>
<g id="a_edge9_Node000007_Node000010"><a xlink:title=" ">
<path fill="none" stroke="#63b8ff" d="M229.68,-164.98C217.55,-156.84 199.02,-144.41 184.63,-134.76"/>
<polygon fill="#63b8ff" stroke="#63b8ff" points="186.56,-131.84 176.3,-129.17 182.66,-137.65 186.56,-131.84"/>
</a>
</g>
</g>
<!-- Node11 -->
<g id="Node000011" class="node">
<title>Node11</title>
<g id="a_Node000011"><a xlink:title=" ">
<polygon fill="#e0e0e0" stroke="#999999" points="274.88,-129 209.88,-129 209.88,-110 274.88,-110 274.88,-129"/>
<text text-anchor="middle" x="242.38" y="-117" font-family="Helvetica,sans-Serif" font-size="10.00">mavlink.h</text>
</a>
</g>
</g>
<!-- Node7&#45;&gt;Node11 -->
<g id="edge10_Node000007_Node000011" class="edge">
<title>Node7&#45;&gt;Node11</title>
<g id="a_edge10_Node000007_Node000011"><a xlink:title=" ">
<path fill="none" stroke="#63b8ff" d="M242.38,-164.75C242.38,-157.8 242.38,-147.85 242.38,-139.13"/>
<polygon fill="#63b8ff" stroke="#63b8ff" points="245.88,-139.09 242.38,-129.09 238.88,-139.09 245.88,-139.09"/>
</a>
</g>
</g>
<!-- Node12&#45;&gt;Node3 -->
<g id="edge12_Node000012_Node000003" class="edge">
<title>Node12&#45;&gt;Node3</title>
<g id="a_edge12_Node000012_Node000003"><a xlink:title=" ">
<path fill="none" stroke="#63b8ff" d="M784.58,-164.87C798.99,-157.22 818.74,-144.81 831.38,-129 855.69,-98.56 868.79,-53.95 874.6,-29.05"/>
<polygon fill="#63b8ff" stroke="#63b8ff" points="878.06,-29.64 876.77,-19.12 871.22,-28.14 878.06,-29.64"/>
</a>
</g>
</g>
<!-- Node12&#45;&gt;Node5 -->
<g id="edge15_Node000012_Node000005" class="edge">
<title>Node12&#45;&gt;Node5</title>
<g id="a_edge15_Node000012_Node000005"><a xlink:title=" ">
<path fill="none" stroke="#63b8ff" d="M797.87,-164.98C831.2,-155.97 883.97,-141.7 920.73,-131.76"/>
<polygon fill="#63b8ff" stroke="#63b8ff" points="921.9,-135.07 930.64,-129.08 920.07,-128.31 921.9,-135.07"/>
</a>
</g>
</g>
<!-- Node13 -->
<g id="Node000013" class="node">
<title>Node13</title>
<g id="a_Node000013"><a xlink:title=" ">
<polygon fill="#e0e0e0" stroke="#999999" points="690.88,-129 583.88,-129 583.88,-110 690.88,-110 690.88,-129"/>
<text text-anchor="middle" x="637.38" y="-117" font-family="Helvetica,sans-Serif" font-size="10.00">QtCore/QJsonArray</text>
</a>
</g>
</g>
<!-- Node12&#45;&gt;Node13 -->
<g id="edge13_Node000012_Node000013" class="edge">
<title>Node12&#45;&gt;Node13</title>
<g id="a_edge13_Node000012_Node000013"><a xlink:title=" ">
<path fill="none" stroke="#63b8ff" d="M745.65,-164.98C724.62,-156.34 691.83,-142.87 667.84,-133.02"/>
<polygon fill="#63b8ff" stroke="#63b8ff" points="669.06,-129.73 658.48,-129.17 666.4,-136.21 669.06,-129.73"/>
</a>
</g>
</g>
<!-- Node14 -->
<g id="Node000014" class="node">
<title>Node14</title>
<g id="a_Node000014"><a xlink:title=" ">
<polygon fill="#e0e0e0" stroke="#999999" points="821.88,-129 708.88,-129 708.88,-110 821.88,-110 821.88,-129"/>
<text text-anchor="middle" x="765.38" y="-117" font-family="Helvetica,sans-Serif" font-size="10.00">QtCore/QJsonObject</text>
</a>
</g>
</g>
<!-- Node12&#45;&gt;Node14 -->
<g id="edge14_Node000012_Node000014" class="edge">
<title>Node12&#45;&gt;Node14</title>
<g id="a_edge14_Node000012_Node000014"><a xlink:title=" ">
<path fill="none" stroke="#63b8ff" d="M766.21,-164.75C766.08,-157.8 765.89,-147.85 765.73,-139.13"/>
<polygon fill="#63b8ff" stroke="#63b8ff" points="769.23,-139.02 765.54,-129.09 762.23,-139.15 769.23,-139.02"/>
</a>
</g>
</g>
<!-- Node15 -->
<g id="Node000015" class="node">
<title>Node15</title>
<g id="a_Node000015"><a xlink:title=" ">
<polygon fill="#e0e0e0" stroke="#999999" points="452.88,-129 363.88,-129 363.88,-110 452.88,-110 452.88,-129"/>
<text text-anchor="middle" x="408.38" y="-117" font-family="Helvetica,sans-Serif" font-size="10.00">QtCore/QString</text>
</a>
</g>
</g>
<!-- Node12&#45;&gt;Node15 -->
<g id="edge16_Node000012_Node000015" class="edge">
<title>Node12&#45;&gt;Node15</title>
<g id="a_edge16_Node000012_Node000015"><a xlink:title=" ">
<path fill="none" stroke="#63b8ff" d="M719.87,-166.28C717,-165.84 714.15,-165.41 711.38,-165 603.92,-148.93 574.59,-145.86 463.12,-129.09"/>
<polygon fill="#63b8ff" stroke="#63b8ff" points="463.57,-125.62 453.16,-127.59 462.53,-132.55 463.57,-125.62"/>
</a>
</g>
</g>
<!-- Node16 -->
<g id="Node000016" class="node">
<title>Node16</title>
<g id="a_Node000016"><a xlink:title=" ">
<polygon fill="#e0e0e0" stroke="#999999" points="565.88,-129 470.88,-129 470.88,-110 565.88,-110 565.88,-129"/>
<text text-anchor="middle" x="518.38" y="-117" font-family="Helvetica,sans-Serif" font-size="10.00">QtCore/QVariant</text>
</a>
</g>
</g>
<!-- Node12&#45;&gt;Node16 -->
<g id="edge17_Node000012_Node000016" class="edge">
<title>Node12&#45;&gt;Node16</title>
<g id="a_edge17_Node000012_Node000016"><a xlink:title=" ">
<path fill="none" stroke="#63b8ff" d="M726.53,-164.98C683.54,-155.8 615.01,-141.15 568.42,-131.19"/>
<polygon fill="#63b8ff" stroke="#63b8ff" points="569.05,-127.75 558.54,-129.08 567.58,-134.59 569.05,-127.75"/>
</a>
</g>
</g>
<!-- Node17 -->
<g id="Node000017" class="node">
<title>Node17</title>
<g id="a_Node000017"><a xlink:title=" ">
<polygon fill="#e0e0e0" stroke="#999999" points="1156.88,-19 967.88,-19 967.88,0 1156.88,0 1156.88,-19"/>
<text text-anchor="middle" x="1062.38" y="-7" font-family="Helvetica,sans-Serif" font-size="10.00">QtQmlIntegration/QtQmlIntegration</text>
</a>
</g>
</g>
<!-- Node12&#45;&gt;Node17 -->
<g id="edge18_Node000012_Node000017" class="edge">
<title>Node12&#45;&gt;Node17</title>
<g id="a_edge18_Node000012_Node000017"><a xlink:title=" ">
<path fill="none" stroke="#63b8ff" d="M783.07,-164.95C800.26,-156.09 827.8,-141.79 851.38,-129 919.64,-91.97 999.32,-46.64 1038.35,-24.3"/>
<polygon fill="#63b8ff" stroke="#63b8ff" points="1040.43,-27.14 1047.37,-19.13 1036.95,-21.07 1040.43,-27.14"/>
</a>
</g>
</g>
<!-- Node18&#45;&gt;Node3 -->
<g id="edge27_Node000018_Node000003" class="edge">
<title>Node18&#45;&gt;Node3</title>
<g id="a_edge27_Node000018_Node000003"><a xlink:title=" ">
<path fill="none" stroke="#63b8ff" d="M1019.06,-225.25C1025.02,-204.07 1037.36,-148.87 1017.38,-110 1004.96,-85.83 939.17,-45.32 902.73,-24.22"/>
<polygon fill="#63b8ff" stroke="#63b8ff" points="904.14,-20.99 893.72,-19.05 900.66,-27.06 904.14,-20.99"/>
</a>
</g>
</g>
<!-- Node18&#45;&gt;Node4 -->
<g id="edge30_Node000018_Node000004" class="edge">
<title>Node18&#45;&gt;Node4</title>
<g id="a_edge30_Node000018_Node000004"><a xlink:title=" ">
<path fill="none" stroke="#63b8ff" d="M1002.51,-225.37C987.37,-215.95 962.91,-200.73 945,-189.58"/>
<polygon fill="#63b8ff" stroke="#63b8ff" points="946.64,-186.48 936.3,-184.17 942.95,-192.42 946.64,-186.48"/>
</a>
</g>
</g>
<!-- Node18&#45;&gt;Node5 -->
<g id="edge28_Node000018_Node000005" class="edge">
<title>Node18&#45;&gt;Node5</title>
<g id="a_edge28_Node000018_Node000005"><a xlink:title=" ">
<path fill="none" stroke="#63b8ff" d="M1012.32,-225.47C1003.56,-207.06 982.74,-163.29 970.93,-138.48"/>
<polygon fill="#63b8ff" stroke="#63b8ff" points="973.94,-136.66 966.48,-129.13 967.62,-139.66 973.94,-136.66"/>
</a>
</g>
</g>
<!-- Node19 -->
<g id="Node000019" class="node">
<title>Node19</title>
<g id="a_Node000019"><a xlink:href="QmlObjectListModel_8h.html" target="_top" xlink:title=" ">
<polygon fill="white" stroke="#666666" points="1189.88,-184 1064.88,-184 1064.88,-165 1189.88,-165 1189.88,-184"/>
<text text-anchor="middle" x="1127.38" y="-172" font-family="Helvetica,sans-Serif" font-size="10.00">QmlObjectListModel.h</text>
</a>
</g>
</g>
<!-- Node18&#45;&gt;Node19 -->
<g id="edge20_Node000018_Node000019" class="edge">
<title>Node18&#45;&gt;Node19</title>
<g id="a_edge20_Node000018_Node000019"><a xlink:title=" ">
<path fill="none" stroke="#63b8ff" d="M1032.76,-225.37C1050.96,-215.78 1080.57,-200.17 1101.83,-188.97"/>
<polygon fill="#63b8ff" stroke="#63b8ff" points="1103.72,-191.93 1110.93,-184.17 1100.45,-185.73 1103.72,-191.93"/>
</a>
</g>
</g>
<!-- Node23 -->
<g id="Node000023" class="node">
<title>Node23</title>
<g id="a_Node000023"><a xlink:title=" ">
<polygon fill="#e0e0e0" stroke="#999999" points="1314.88,-184 1207.88,-184 1207.88,-165 1314.88,-165 1314.88,-184"/>
<text text-anchor="middle" x="1261.38" y="-172" font-family="Helvetica,sans-Serif" font-size="10.00">QtCore/QStringList</text>
</a>
</g>
</g>
<!-- Node18&#45;&gt;Node23 -->
<g id="edge29_Node000018_Node000023" class="edge">
<title>Node18&#45;&gt;Node23</title>
<g id="a_edge29_Node000018_Node000023"><a xlink:title=" ">
<path fill="none" stroke="#63b8ff" d="M1052,-225.49C1095.28,-215.16 1168.35,-197.71 1215.72,-186.4"/>
<polygon fill="#63b8ff" stroke="#63b8ff" points="1216.8,-189.74 1225.71,-184.02 1215.17,-182.93 1216.8,-189.74"/>
</a>
</g>
</g>
<!-- Node19&#45;&gt;Node3 -->
<g id="edge26_Node000019_Node000003" class="edge">
<title>Node19&#45;&gt;Node3</title>
<g id="a_edge26_Node000019_Node000003"><a xlink:title=" ">
<path fill="none" stroke="#63b8ff" d="M1118.73,-164.73C1097.47,-143.56 1040.36,-88.92 984.38,-55 962.27,-41.61 935.41,-30.38 914.26,-22.55"/>
<polygon fill="#63b8ff" stroke="#63b8ff" points="915.27,-19.2 904.68,-19.09 912.9,-25.78 915.27,-19.2"/>
</a>
</g>
</g>
<!-- Node20 -->
<g id="Node000020" class="node">
<title>Node20</title>
<g id="a_Node000020"><a xlink:href="ObjectListModelBase_8h.html" target="_top" xlink:title=" ">
<polygon fill="white" stroke="#666666" points="1232.38,-129 1104.38,-129 1104.38,-110 1232.38,-110 1232.38,-129"/>
<text text-anchor="middle" x="1168.38" y="-117" font-family="Helvetica,sans-Serif" font-size="10.00">ObjectListModelBase.h</text>
</a>
</g>
</g>
<!-- Node19&#45;&gt;Node20 -->
<g id="edge21_Node000019_Node000020" class="edge">
<title>Node19&#45;&gt;Node20</title>
<g id="a_edge21_Node000019_Node000020"><a xlink:title=" ">
<path fill="none" stroke="#63b8ff" d="M1134.15,-164.75C1139.94,-157.26 1148.44,-146.28 1155.52,-137.13"/>
<polygon fill="#63b8ff" stroke="#63b8ff" points="1158.38,-139.14 1161.73,-129.09 1152.85,-134.86 1158.38,-139.14"/>
</a>
</g>
</g>
<!-- Node21 -->
<g id="Node000021" class="node">
<title>Node21</title>
<g id="a_Node000021"><a xlink:href="ObjectItemModelBase_8h.html" target="_top" xlink:title=" ">
<polygon fill="white" stroke="#666666" points="1236.38,-74 1102.38,-74 1102.38,-55 1236.38,-55 1236.38,-74"/>
<text text-anchor="middle" x="1169.38" y="-62" font-family="Helvetica,sans-Serif" font-size="10.00">ObjectItemModelBase.h</text>
</a>
</g>
</g>
<!-- Node20&#45;&gt;Node21 -->
<g id="edge22_Node000020_Node000021" class="edge">
<title>Node20&#45;&gt;Node21</title>
<g id="a_edge22_Node000020_Node000021"><a xlink:title=" ">
<path fill="none" stroke="#63b8ff" d="M1168.54,-109.75C1168.67,-102.8 1168.86,-92.85 1169.03,-84.13"/>
<polygon fill="#63b8ff" stroke="#63b8ff" points="1172.53,-84.15 1169.22,-74.09 1165.53,-84.02 1172.53,-84.15"/>
</a>
</g>
</g>
<!-- Node21&#45;&gt;Node3 -->
<g id="edge24_Node000021_Node000003" class="edge">
<title>Node21&#45;&gt;Node3</title>
<g id="a_edge24_Node000021_Node000003"><a xlink:title=" ">
<path fill="none" stroke="#63b8ff" d="M1122.62,-54.98C1071.65,-45.7 990.07,-30.84 935.38,-20.88"/>
<polygon fill="#63b8ff" stroke="#63b8ff" points="935.96,-17.43 925.5,-19.08 934.71,-24.32 935.96,-17.43"/>
</a>
</g>
</g>
<!-- Node21&#45;&gt;Node17 -->
<g id="edge25_Node000021_Node000017" class="edge">
<title>Node21&#45;&gt;Node17</title>
<g id="a_edge25_Node000021_Node000017"><a xlink:title=" ">
<path fill="none" stroke="#63b8ff" d="M1152.19,-54.98C1135.13,-46.54 1108.75,-33.47 1088.98,-23.68"/>
<polygon fill="#63b8ff" stroke="#63b8ff" points="1090.4,-20.47 1079.88,-19.17 1087.29,-26.75 1090.4,-20.47"/>
</a>
</g>
</g>
<!-- Node22 -->
<g id="Node000022" class="node">
<title>Node22</title>
<g id="a_Node000022"><a xlink:title=" ">
<polygon fill="#e0e0e0" stroke="#999999" points="1329.38,-19 1175.38,-19 1175.38,0 1329.38,0 1329.38,-19"/>
<text text-anchor="middle" x="1252.38" y="-7" font-family="Helvetica,sans-Serif" font-size="10.00">QtCore/QAbstractItemModel</text>
</a>
</g>
</g>
<!-- Node21&#45;&gt;Node22 -->
<g id="edge23_Node000021_Node000022" class="edge">
<title>Node21&#45;&gt;Node22</title>
<g id="a_edge23_Node000021_Node000022"><a xlink:title=" ">
<path fill="none" stroke="#63b8ff" d="M1182.71,-54.98C1195.46,-46.84 1214.93,-34.41 1230.05,-24.76"/>
<polygon fill="#63b8ff" stroke="#63b8ff" points="1232.25,-27.5 1238.8,-19.17 1228.49,-21.6 1232.25,-27.5"/>
</a>
</g>
</g>
</g>
</svg>
