<?xml version="1.0" encoding="UTF-8" standalone="no"?>
<!DOCTYPE svg PUBLIC "-//W3C//DTD SVG 1.1//EN"
 "http://www.w3.org/Graphics/SVG/1.1/DTD/svg11.dtd">
<!-- Generated by graphviz version 2.43.0 (0)
 -->
<!-- Title: src/FirmwarePlugin/APM/APMParameterMetaData.h Pages: 1 -->
<!--zoomable 203 -->

<svg id="main" version="1.1" xmlns="http://www.w3.org/2000/svg" xmlns:xlink="http://www.w3.org/1999/xlink" xml:space="preserve" onload="init(evt)">
<style type="text/css"><![CDATA[
.node, .edge {opacity: 0.7;}
.node.selected, .edge.selected {opacity: 1;}
.edge:hover path { stroke: red; }
.edge:hover polygon { stroke: red; fill: red; }
]]></style>

<defs>
  <circle id="rim" cx="0" cy="0" r="7"/>
  <circle id="rim2" cx="0" cy="0" r="3.5"/>
  <g id="zoomPlus">
    <use xlink:href="#rim" fill="#404040"><set attributeName="fill" to="#808080" begin="zoomplus.mouseover" end="zoomplus.mouseout"/></use>
    <path d="M-4,0h8M0,-4v8" fill="none" stroke="white" stroke-width="1.5" pointer-events="none"/>
  </g>
  <g id="zoomMin">
    <use xlink:href="#rim" fill="#404040"><set attributeName="fill" to="#808080" begin="zoomminus.mouseover" end="zoomminus.mouseout"/></use>
    <path d="M-4,0h8" fill="none" stroke="white" stroke-width="1.5" pointer-events="none"/>
  </g>
  <g id="arrowUp" transform="translate(30 24)">
    <use xlink:href="#rim"/>
    <path pointer-events="none" fill="none" stroke="white" stroke-width="1.5" d="M0,-3.0v7 M-2.5,-0.5L0,-3.0L2.5,-0.5"/>
  </g>
  <g id="arrowRight" transform="rotate(90) translate(36 -43)">
    <use xlink:href="#rim"/>
    <path pointer-events="none" fill="none" stroke="white" stroke-width="1.5" d="M0,-3.0v7 M-2.5,-0.5L0,-3.0L2.5,-0.5"/>
  </g>
  <g id="arrowDown" transform="rotate(180) translate(-30 -48)">
    <use xlink:href="#rim"/>
    <path pointer-events="none" fill="none" stroke="white" stroke-width="1.5" d="M0,-3.0v7 M-2.5,-0.5L0,-3.0L2.5,-0.5"/>
  </g>
  <g id="arrowLeft" transform="rotate(270) translate(-36 17)">
    <use xlink:href="#rim"/>
    <path pointer-events="none" fill="none" stroke="white" stroke-width="1.5" d="M0,-3.0v7 M-2.5,-0.5L0,-3.0L2.5,-0.5"/>
  </g>
  <g id="resetDef">
    <use xlink:href="#rim2" fill="#404040"><set attributeName="fill" to="#808080" begin="reset.mouseover" end="reset.mouseout"/></use>
  </g>
</defs>
<script type="application/ecmascript">
var viewWidth = 1050;
var viewHeight = 203;
var sectionId = 'dynsection-0';
</script>
<script type="application/ecmascript" xlink:href="svg.min.js"/>
<svg id="graph" class="graph">
<g id="viewport">
<title>src/FirmwarePlugin/APM/APMParameterMetaData.h</title>
<!-- Node1 -->
<g id="Node000001" class="node">
<title>Node1</title>
<g id="a_Node000001"><a xlink:title=" ">
<polygon fill="#999999" stroke="#666666" points="588.5,-195 415.5,-195 415.5,-165 588.5,-165 588.5,-195"/>
<text text-anchor="start" x="423.5" y="-183" font-family="Helvetica,sans-Serif" font-size="10.00">src/FirmwarePlugin</text>
<text text-anchor="middle" x="502" y="-172" font-family="Helvetica,sans-Serif" font-size="10.00">/APM/APMParameterMetaData.h</text>
</a>
</g>
</g>
<!-- Node2 -->
<g id="Node000002" class="node">
<title>Node2</title>
<g id="a_Node000002"><a xlink:title=" ">
<polygon fill="#e0e0e0" stroke="#999999" points="86,-19 0,-19 0,0 86,0 86,-19"/>
<text text-anchor="middle" x="43" y="-7" font-family="Helvetica,sans-Serif" font-size="10.00">QtCore/QHash</text>
</a>
</g>
</g>
<!-- Node1&#45;&gt;Node2 -->
<g id="edge1_Node000001_Node000002" class="edge">
<title>Node1&#45;&gt;Node2</title>
<g id="a_edge1_Node000001_Node000002"><a xlink:title=" ">
<path fill="none" stroke="#63b8ff" d="M463.02,-164.95C435.36,-154.96 397.39,-141.21 364,-129 258.47,-90.41 133.65,-44.15 75.65,-22.63"/>
<polygon fill="#63b8ff" stroke="#63b8ff" points="76.54,-19.22 65.95,-19.03 74.1,-25.79 76.54,-19.22"/>
</a>
</g>
</g>
<!-- Node3 -->
<g id="Node000003" class="node">
<title>Node3</title>
<g id="a_Node000003"><a xlink:title=" ">
<polygon fill="#e0e0e0" stroke="#999999" points="217.5,-19 104.5,-19 104.5,0 217.5,0 217.5,-19"/>
<text text-anchor="middle" x="161" y="-7" font-family="Helvetica,sans-Serif" font-size="10.00">QtCore/QJsonObject</text>
</a>
</g>
</g>
<!-- Node1&#45;&gt;Node3 -->
<g id="edge2_Node000001_Node000003" class="edge">
<title>Node1&#45;&gt;Node3</title>
<g id="a_edge2_Node000001_Node000003"><a xlink:title=" ">
<path fill="none" stroke="#63b8ff" d="M473.51,-164.92C408.63,-132.86 250.63,-54.79 187.6,-23.64"/>
<polygon fill="#63b8ff" stroke="#63b8ff" points="188.84,-20.35 178.33,-19.06 185.74,-26.63 188.84,-20.35"/>
</a>
</g>
</g>
<!-- Node4 -->
<g id="Node000004" class="node">
<title>Node4</title>
<g id="a_Node000004"><a xlink:title=" ">
<polygon fill="#e0e0e0" stroke="#999999" points="1041.5,-19 898.5,-19 898.5,0 1041.5,0 1041.5,-19"/>
<text text-anchor="middle" x="970" y="-7" font-family="Helvetica,sans-Serif" font-size="10.00">QtCore/QLoggingCategory</text>
</a>
</g>
</g>
<!-- Node1&#45;&gt;Node4 -->
<g id="edge3_Node000001_Node000004" class="edge">
<title>Node1&#45;&gt;Node4</title>
<g id="a_edge3_Node000001_Node000004"><a xlink:title=" ">
<path fill="none" stroke="#63b8ff" d="M588.58,-167.27C699.94,-150.68 885.28,-117.46 938,-74 951.97,-62.49 960.43,-43.33 965.12,-29.06"/>
<polygon fill="#63b8ff" stroke="#63b8ff" points="968.52,-29.9 967.99,-19.31 961.8,-27.92 968.52,-29.9"/>
</a>
</g>
</g>
<!-- Node5 -->
<g id="Node000005" class="node">
<title>Node5</title>
<g id="a_Node000005"><a xlink:href="ParameterMetaData_8h.html" target="_top" xlink:title=" ">
<polygon fill="white" stroke="#666666" points="734,-129 610,-129 610,-110 734,-110 734,-129"/>
<text text-anchor="middle" x="672" y="-117" font-family="Helvetica,sans-Serif" font-size="10.00">ParameterMetaData.h</text>
</a>
</g>
</g>
<!-- Node1&#45;&gt;Node5 -->
<g id="edge4_Node000001_Node000005" class="edge">
<title>Node1&#45;&gt;Node5</title>
<g id="a_edge4_Node000001_Node000005"><a xlink:title=" ">
<path fill="none" stroke="#63b8ff" d="M542.72,-164.99C571.59,-155.05 609.91,-141.86 637.33,-132.43"/>
<polygon fill="#63b8ff" stroke="#63b8ff" points="638.58,-135.7 646.89,-129.14 636.3,-129.08 638.58,-135.7"/>
</a>
</g>
</g>
<!-- Node5&#45;&gt;Node4 -->
<g id="edge6_Node000005_Node000004" class="edge">
<title>Node5&#45;&gt;Node4</title>
<g id="a_edge6_Node000005_Node000004"><a xlink:title=" ">
<path fill="none" stroke="#63b8ff" d="M734.13,-117.92C785.13,-114.99 857.7,-105 913,-74 932.72,-62.95 949.18,-42.51 959.26,-27.81"/>
<polygon fill="#63b8ff" stroke="#63b8ff" points="962.39,-29.41 964.94,-19.12 956.54,-25.58 962.39,-29.41"/>
</a>
</g>
</g>
<!-- Node6 -->
<g id="Node000006" class="node">
<title>Node6</title>
<g id="a_Node000006"><a xlink:title=" ">
<polygon fill="#e0e0e0" stroke="#999999" points="904,-74 796,-74 796,-55 904,-55 904,-74"/>
<text text-anchor="middle" x="850" y="-62" font-family="Helvetica,sans-Serif" font-size="10.00">QtCore/QJsonValue</text>
</a>
</g>
</g>
<!-- Node5&#45;&gt;Node6 -->
<g id="edge5_Node000005_Node000006" class="edge">
<title>Node5&#45;&gt;Node6</title>
<g id="a_edge5_Node000005_Node000006"><a xlink:title=" ">
<path fill="none" stroke="#63b8ff" d="M700.6,-109.98C730.61,-101.05 777.98,-86.94 811.32,-77.02"/>
<polygon fill="#63b8ff" stroke="#63b8ff" points="812.59,-80.29 821.18,-74.08 810.59,-73.58 812.59,-80.29"/>
</a>
</g>
</g>
<!-- Node7 -->
<g id="Node000007" class="node">
<title>Node7</title>
<g id="a_Node000007"><a xlink:title=" ">
<polygon fill="#e0e0e0" stroke="#999999" points="880,-19 788,-19 788,0 880,0 880,-19"/>
<text text-anchor="middle" x="834" y="-7" font-family="Helvetica,sans-Serif" font-size="10.00">QtCore/QObject</text>
</a>
</g>
</g>
<!-- Node5&#45;&gt;Node7 -->
<g id="edge7_Node000005_Node000007" class="edge">
<title>Node5&#45;&gt;Node7</title>
<g id="a_edge7_Node000005_Node000007"><a xlink:title=" ">
<path fill="none" stroke="#63b8ff" d="M687.96,-109.99C703.76,-101.41 728.5,-87.51 749,-74 772.57,-58.46 798.39,-38.76 815.31,-25.46"/>
<polygon fill="#63b8ff" stroke="#63b8ff" points="817.63,-28.09 823.29,-19.14 813.28,-22.61 817.63,-28.09"/>
</a>
</g>
</g>
<!-- Node8 -->
<g id="Node000008" class="node">
<title>Node8</title>
<g id="a_Node000008"><a xlink:title=" ">
<polygon fill="#e0e0e0" stroke="#999999" points="585.5,-74 472.5,-74 472.5,-55 585.5,-55 585.5,-74"/>
<text text-anchor="middle" x="529" y="-62" font-family="Helvetica,sans-Serif" font-size="10.00">QtCore/QStringView</text>
</a>
</g>
</g>
<!-- Node5&#45;&gt;Node8 -->
<g id="edge8_Node000005_Node000008" class="edge">
<title>Node5&#45;&gt;Node8</title>
<g id="a_edge8_Node000005_Node000008"><a xlink:title=" ">
<path fill="none" stroke="#63b8ff" d="M649.02,-109.98C625.5,-101.27 588.71,-87.63 562.06,-77.75"/>
<polygon fill="#63b8ff" stroke="#63b8ff" points="562.99,-74.36 552.39,-74.17 560.55,-80.93 562.99,-74.36"/>
</a>
</g>
</g>
<!-- Node9 -->
<g id="Node000009" class="node">
<title>Node9</title>
<g id="a_Node000009"><a xlink:title=" ">
<polygon fill="#e0e0e0" stroke="#999999" points="740,-74 604,-74 604,-55 740,-55 740,-74"/>
<text text-anchor="middle" x="672" y="-62" font-family="Helvetica,sans-Serif" font-size="10.00">QtCore/QVersionNumber</text>
</a>
</g>
</g>
<!-- Node5&#45;&gt;Node9 -->
<g id="edge9_Node000005_Node000009" class="edge">
<title>Node5&#45;&gt;Node9</title>
<g id="a_edge9_Node000005_Node000009"><a xlink:title=" ">
<path fill="none" stroke="#63b8ff" d="M672,-109.75C672,-102.8 672,-92.85 672,-84.13"/>
<polygon fill="#63b8ff" stroke="#63b8ff" points="675.5,-84.09 672,-74.09 668.5,-84.09 675.5,-84.09"/>
</a>
</g>
</g>
<!-- Node10 -->
<g id="Node000010" class="node">
<title>Node10</title>
<g id="a_Node000010"><a xlink:href="FactMetaData_8h.html" target="_top" xlink:title=" ">
<polygon fill="white" stroke="#666666" points="454.5,-74 361.5,-74 361.5,-55 454.5,-55 454.5,-74"/>
<text text-anchor="middle" x="408" y="-62" font-family="Helvetica,sans-Serif" font-size="10.00">FactMetaData.h</text>
</a>
</g>
</g>
<!-- Node5&#45;&gt;Node10 -->
<g id="edge10_Node000005_Node000010" class="edge">
<title>Node5&#45;&gt;Node10</title>
<g id="a_edge10_Node000005_Node000010"><a xlink:title=" ">
<path fill="none" stroke="#63b8ff" d="M629.58,-109.98C583.63,-100.76 510.25,-86.03 460.65,-76.07"/>
<polygon fill="#63b8ff" stroke="#63b8ff" points="461.24,-72.62 450.75,-74.08 459.86,-79.48 461.24,-72.62"/>
</a>
</g>
</g>
<!-- Node10&#45;&gt;Node2 -->
<g id="edge11_Node000010_Node000002" class="edge">
<title>Node10&#45;&gt;Node2</title>
<g id="a_edge11_Node000010_Node000002"><a xlink:title=" ">
<path fill="none" stroke="#63b8ff" d="M361.29,-57.17C302.05,-49.07 196.49,-34.41 96.13,-19.15"/>
<polygon fill="#63b8ff" stroke="#63b8ff" points="96.53,-15.67 86.12,-17.62 95.48,-22.59 96.53,-15.67"/>
</a>
</g>
</g>
<!-- Node10&#45;&gt;Node3 -->
<g id="edge14_Node000010_Node000003" class="edge">
<title>Node10&#45;&gt;Node3</title>
<g id="a_edge14_Node000010_Node000003"><a xlink:title=" ">
<path fill="none" stroke="#63b8ff" d="M368.32,-54.98C325.5,-45.8 257.24,-31.15 210.84,-21.19"/>
<polygon fill="#63b8ff" stroke="#63b8ff" points="211.51,-17.76 201,-19.08 210.04,-24.6 211.51,-17.76"/>
</a>
</g>
</g>
<!-- Node10&#45;&gt;Node4 -->
<g id="edge12_Node000010_Node000004" class="edge">
<title>Node10&#45;&gt;Node4</title>
<g id="a_edge12_Node000010_Node000004"><a xlink:title=" ">
<path fill="none" stroke="#63b8ff" d="M454.72,-56.17C457.86,-55.75 460.97,-55.36 464,-55 649.04,-33.14 698.6,-36.76 888.42,-19.03"/>
<polygon fill="#63b8ff" stroke="#63b8ff" points="888.83,-22.51 898.45,-18.09 888.17,-15.54 888.83,-22.51"/>
</a>
</g>
</g>
<!-- Node10&#45;&gt;Node7 -->
<g id="edge15_Node000010_Node000007" class="edge">
<title>Node10&#45;&gt;Node7</title>
<g id="a_edge15_Node000010_Node000007"><a xlink:title=" ">
<path fill="none" stroke="#63b8ff" d="M454.73,-56.28C457.87,-55.83 460.98,-55.4 464,-55 600.41,-36.86 637.61,-37.71 777.55,-19.15"/>
<polygon fill="#63b8ff" stroke="#63b8ff" points="778.36,-22.57 787.81,-17.77 777.43,-15.63 778.36,-22.57"/>
</a>
</g>
</g>
<!-- Node11 -->
<g id="Node000011" class="node">
<title>Node11</title>
<g id="a_Node000011"><a xlink:title=" ">
<polygon fill="#e0e0e0" stroke="#999999" points="769.5,-19 662.5,-19 662.5,0 769.5,0 769.5,-19"/>
<text text-anchor="middle" x="716" y="-7" font-family="Helvetica,sans-Serif" font-size="10.00">QtCore/QJsonArray</text>
</a>
</g>
</g>
<!-- Node10&#45;&gt;Node11 -->
<g id="edge13_Node000010_Node000011" class="edge">
<title>Node10&#45;&gt;Node11</title>
<g id="a_edge13_Node000010_Node000011"><a xlink:title=" ">
<path fill="none" stroke="#63b8ff" d="M454.78,-55.45C508.79,-46.16 597.72,-30.85 656.58,-20.72"/>
<polygon fill="#63b8ff" stroke="#63b8ff" points="657.22,-24.17 666.48,-19.02 656.03,-17.27 657.22,-24.17"/>
</a>
</g>
</g>
<!-- Node12 -->
<g id="Node000012" class="node">
<title>Node12</title>
<g id="a_Node000012"><a xlink:title=" ">
<polygon fill="#e0e0e0" stroke="#999999" points="324.5,-19 235.5,-19 235.5,0 324.5,0 324.5,-19"/>
<text text-anchor="middle" x="280" y="-7" font-family="Helvetica,sans-Serif" font-size="10.00">QtCore/QString</text>
</a>
</g>
</g>
<!-- Node10&#45;&gt;Node12 -->
<g id="edge16_Node000010_Node000012" class="edge">
<title>Node10&#45;&gt;Node12</title>
<g id="a_edge16_Node000010_Node000012"><a xlink:title=" ">
<path fill="none" stroke="#63b8ff" d="M387.43,-54.98C366.57,-46.34 334.03,-32.87 310.23,-23.02"/>
<polygon fill="#63b8ff" stroke="#63b8ff" points="311.52,-19.76 300.94,-19.17 308.84,-26.23 311.52,-19.76"/>
</a>
</g>
</g>
<!-- Node13 -->
<g id="Node000013" class="node">
<title>Node13</title>
<g id="a_Node000013"><a xlink:title=" ">
<polygon fill="#e0e0e0" stroke="#999999" points="437.5,-19 342.5,-19 342.5,0 437.5,0 437.5,-19"/>
<text text-anchor="middle" x="390" y="-7" font-family="Helvetica,sans-Serif" font-size="10.00">QtCore/QVariant</text>
</a>
</g>
</g>
<!-- Node10&#45;&gt;Node13 -->
<g id="edge17_Node000010_Node000013" class="edge">
<title>Node10&#45;&gt;Node13</title>
<g id="a_edge17_Node000010_Node000013"><a xlink:title=" ">
<path fill="none" stroke="#63b8ff" d="M405.03,-54.75C402.64,-47.72 399.21,-37.62 396.23,-28.84"/>
<polygon fill="#63b8ff" stroke="#63b8ff" points="399.45,-27.43 392.92,-19.09 392.82,-29.68 399.45,-27.43"/>
</a>
</g>
</g>
<!-- Node14 -->
<g id="Node000014" class="node">
<title>Node14</title>
<g id="a_Node000014"><a xlink:title=" ">
<polygon fill="#e0e0e0" stroke="#999999" points="644.5,-19 455.5,-19 455.5,0 644.5,0 644.5,-19"/>
<text text-anchor="middle" x="550" y="-7" font-family="Helvetica,sans-Serif" font-size="10.00">QtQmlIntegration/QtQmlIntegration</text>
</a>
</g>
</g>
<!-- Node10&#45;&gt;Node14 -->
<g id="edge18_Node000010_Node000014" class="edge">
<title>Node10&#45;&gt;Node14</title>
<g id="a_edge18_Node000010_Node000014"><a xlink:title=" ">
<path fill="none" stroke="#63b8ff" d="M430.81,-54.98C454.17,-46.27 490.7,-32.63 517.17,-22.75"/>
<polygon fill="#63b8ff" stroke="#63b8ff" points="518.63,-25.95 526.77,-19.17 516.18,-19.39 518.63,-25.95"/>
</a>
</g>
</g>
</g>
</svg>

<g id="navigator" transform="translate(0 0)" fill="#404254">
  <rect fill="#f2f5e9" fill-opacity="0.5" stroke="#606060" stroke-width=".5" x="0" y="0" width="60" height="60"/>
  <use id="zoomplus" xlink:href="#zoomPlus" x="17" y="9" onmousedown="handleZoom(evt,'in')"/>
  <use id="zoomminus" xlink:href="#zoomMin" x="42" y="9" onmousedown="handleZoom(evt,'out')"/>
  <use id="reset" xlink:href="#resetDef" x="30" y="36" onmousedown="handleReset()"/>
   <use id="arrowup" xlink:href="#arrowUp" x="0" y="0" onmousedown="handlePan(0,-1)"/>
  <use id="arrowright" xlink:href="#arrowRight" x="0" y="0" onmousedown="handlePan(1,0)"/>
  <use id="arrowdown" xlink:href="#arrowDown" x="0" y="0" onmousedown="handlePan(0,1)"/>
  <use id="arrowleft" xlink:href="#arrowLeft" x="0" y="0" onmousedown="handlePan(-1,0)"/>
</g>
<svg viewBox="0 0 15 15" width="100%" height="30px" preserveAspectRatio="xMaxYMin meet">
 <g id="arrow_out" transform="scale(0.3 0.3)">
  <a xlink:href="APMParameterMetaData_8h__incl_org.svg" target="_base">
   <rect id="button" ry="5" rx="5" y="6" x="6" height="38" width="38"
        fill="#f2f5e9" fill-opacity="0.5" stroke="#606060" stroke-width="1.0"/>
   <path id="arrow"
     d="M 11.500037,31.436501 C 11.940474,20.09759 22.043105,11.32322 32.158766,21.979434 L 37.068811,17.246167 C 37.068811,17.246167 37.088388,32 37.088388,32 L 22.160133,31.978069 C 22.160133,31.978069 26.997745,27.140456 26.997745,27.140456 C 18.528582,18.264221 13.291696,25.230495 11.500037,31.436501 z"
     style="fill:#404040;"/>
  </a>
 </g>
</svg>

<style type='text/css'>
<![CDATA[
[data-mouse-over-selected='false'] { opacity: 0.7; }
[data-mouse-over-selected='true']  { opacity: 1.0; }
]]>
</style>
<script type="application/ecmascript"><![CDATA[
document.addEventListener('DOMContentLoaded', (event) => {
  highlightEdges();
  highlightAdjacentNodes();
});
]]></script>
</svg>
