<?xml version="1.0" encoding="UTF-8" standalone="no"?>
<!DOCTYPE svg PUBLIC "-//W3C//DTD SVG 1.1//EN"
 "http://www.w3.org/Graphics/SVG/1.1/DTD/svg11.dtd">
<!-- Generated by graphviz version 2.43.0 (0)
 -->
<!-- Title: src/Settings/AppSettings.h Pages: 1 -->
<svg width="5588pt" height="93pt"
 viewBox="0.00 0.00 5588.00 93.00" xmlns="http://www.w3.org/2000/svg" xmlns:xlink="http://www.w3.org/1999/xlink">
<g id="graph0" class="graph" transform="scale(1 1) rotate(0) translate(4 89)">
<title>src/Settings/AppSettings.h</title>
<!-- Node1 -->
<g id="Node000001" class="node">
<title>Node1</title>
<g id="a_Node000001"><a xlink:title=" ">
<polygon fill="#999999" stroke="#666666" points="2702,-85 2558,-85 2558,-66 2702,-66 2702,-85"/>
<text text-anchor="middle" x="2630" y="-73" font-family="Helvetica,sans-Serif" font-size="10.00">src/Settings/AppSettings.h</text>
</a>
</g>
</g>
<!-- Node2 -->
<g id="Node000002" class="node">
<title>Node2</title>
<g id="a_Node000002"><a xlink:href="QGCCorePlugin_8cc.html" target="_top" xlink:title=" ">
<polygon fill="white" stroke="#666666" points="140,-24.5 0,-24.5 0,-5.5 140,-5.5 140,-24.5"/>
<text text-anchor="middle" x="70" y="-12.5" font-family="Helvetica,sans-Serif" font-size="10.00">src/API/QGCCorePlugin.cc</text>
</a>
</g>
</g>
<!-- Node1&#45;&gt;Node2 -->
<g id="edge1_Node000001_Node000002" class="edge">
<title>Node1&#45;&gt;Node2</title>
<g id="a_edge1_Node000001_Node000002"><a xlink:title=" ">
<path fill="none" stroke="#63b8ff" d="M2547.6,-74.77C2173.21,-75.71 629.96,-76.64 149,-30 136.66,-28.8 123.35,-26.75 111.24,-24.57"/>
<polygon fill="#63b8ff" stroke="#63b8ff" points="2547.82,-78.27 2557.81,-74.74 2547.8,-71.27 2547.82,-78.27"/>
</a>
</g>
</g>
<!-- Node3 -->
<g id="Node000003" class="node">
<title>Node3</title>
<g id="a_Node000003"><a xlink:href="OnboardLogController_8cc.html" target="_top" xlink:title=" ">
<polygon fill="white" stroke="#666666" points="322,-30 158,-30 158,0 322,0 322,-30"/>
<text text-anchor="start" x="166" y="-18" font-family="Helvetica,sans-Serif" font-size="10.00">src/AnalyzeView/OnboardLogs</text>
<text text-anchor="middle" x="240" y="-7" font-family="Helvetica,sans-Serif" font-size="10.00">/OnboardLogController.cc</text>
</a>
</g>
</g>
<!-- Node1&#45;&gt;Node3 -->
<g id="edge2_Node000001_Node000003" class="edge">
<title>Node1&#45;&gt;Node3</title>
<g id="a_edge2_Node000001_Node000003"><a xlink:title=" ">
<path fill="none" stroke="#63b8ff" d="M2547.59,-74.38C2190.46,-73.63 774.57,-68.24 331,-30 328.13,-29.75 325.22,-29.47 322.28,-29.16"/>
<polygon fill="#63b8ff" stroke="#63b8ff" points="2547.84,-77.88 2557.85,-74.4 2547.85,-70.88 2547.84,-77.88"/>
</a>
</g>
</g>
<!-- Node4 -->
<g id="Node000004" class="node">
<title>Node4</title>
<g id="a_Node000004"><a xlink:href="AndroidInterface_8cc.html" target="_top" xlink:title=" ">
<polygon fill="white" stroke="#666666" points="509.5,-24.5 340.5,-24.5 340.5,-5.5 509.5,-5.5 509.5,-24.5"/>
<text text-anchor="middle" x="425" y="-12.5" font-family="Helvetica,sans-Serif" font-size="10.00">src/Android/AndroidInterface.cc</text>
</a>
</g>
</g>
<!-- Node1&#45;&gt;Node4 -->
<g id="edge3_Node000001_Node000004" class="edge">
<title>Node1&#45;&gt;Node4</title>
<g id="a_edge3_Node000001_Node000004"><a xlink:title=" ">
<path fill="none" stroke="#63b8ff" d="M2547.68,-74.18C2209.11,-72.64 922.84,-64.59 518,-30 503.52,-28.76 487.87,-26.69 473.61,-24.52"/>
<polygon fill="#63b8ff" stroke="#63b8ff" points="2547.88,-77.68 2557.9,-74.22 2547.91,-70.68 2547.88,-77.68"/>
</a>
</g>
</g>
<!-- Node5 -->
<g id="Node000005" class="node">
<title>Node5</title>
<g id="a_Node000005"><a xlink:href="VehicleCameraControl_8cc.html" target="_top" xlink:title=" ">
<polygon fill="white" stroke="#666666" points="676.5,-30 527.5,-30 527.5,0 676.5,0 676.5,-30"/>
<text text-anchor="start" x="535.5" y="-18" font-family="Helvetica,sans-Serif" font-size="10.00">src/Camera/VehicleCamera</text>
<text text-anchor="middle" x="602" y="-7" font-family="Helvetica,sans-Serif" font-size="10.00">Control.cc</text>
</a>
</g>
</g>
<!-- Node1&#45;&gt;Node5 -->
<g id="edge4_Node000001_Node000005" class="edge">
<title>Node1&#45;&gt;Node5</title>
<g id="a_edge4_Node000001_Node000005"><a xlink:title=" ">
<path fill="none" stroke="#63b8ff" d="M2547.63,-74.18C2226.18,-72.67 1055.79,-64.87 686,-30 682.91,-29.71 679.76,-29.37 676.58,-29"/>
<polygon fill="#63b8ff" stroke="#63b8ff" points="2547.78,-77.68 2557.8,-74.22 2547.81,-70.68 2547.78,-77.68"/>
</a>
</g>
</g>
<!-- Node6 -->
<g id="Node000006" class="node">
<title>Node6</title>
<g id="a_Node000006"><a xlink:href="MAVLinkProtocol_8cc.html" target="_top" xlink:title=" ">
<polygon fill="white" stroke="#666666" points="865,-24.5 695,-24.5 695,-5.5 865,-5.5 865,-24.5"/>
<text text-anchor="middle" x="780" y="-12.5" font-family="Helvetica,sans-Serif" font-size="10.00">src/Comms/MAVLinkProtocol.cc</text>
</a>
</g>
</g>
<!-- Node1&#45;&gt;Node6 -->
<g id="edge5_Node000001_Node000006" class="edge">
<title>Node1&#45;&gt;Node6</title>
<g id="a_edge5_Node000001_Node000006"><a xlink:title=" ">
<path fill="none" stroke="#63b8ff" d="M2547.47,-73.75C2246.07,-70.81 1205.22,-58.75 874,-30 859.53,-28.74 843.91,-26.7 829.63,-24.55"/>
<polygon fill="#63b8ff" stroke="#63b8ff" points="2547.84,-77.26 2557.87,-73.85 2547.91,-70.26 2547.84,-77.26"/>
</a>
</g>
</g>
<!-- Node7 -->
<g id="Node000007" class="node">
<title>Node7</title>
<g id="a_Node000007"><a xlink:href="FollowMe_8cc.html" target="_top" xlink:title=" ">
<polygon fill="white" stroke="#666666" points="1026.5,-24.5 883.5,-24.5 883.5,-5.5 1026.5,-5.5 1026.5,-24.5"/>
<text text-anchor="middle" x="955" y="-12.5" font-family="Helvetica,sans-Serif" font-size="10.00">src/FollowMe/FollowMe.cc</text>
</a>
</g>
</g>
<!-- Node1&#45;&gt;Node7 -->
<g id="edge6_Node000001_Node000007" class="edge">
<title>Node1&#45;&gt;Node7</title>
<g id="a_edge6_Node000001_Node000007"><a xlink:title=" ">
<path fill="none" stroke="#63b8ff" d="M2547.46,-73.78C2264.21,-71.08 1332.78,-60.05 1035,-30 1022.65,-28.75 1009.34,-26.71 997.19,-24.56"/>
<polygon fill="#63b8ff" stroke="#63b8ff" points="2547.63,-77.28 2557.66,-73.88 2547.7,-70.29 2547.63,-77.28"/>
</a>
</g>
</g>
<!-- Node8 -->
<g id="Node000008" class="node">
<title>Node8</title>
<g id="a_Node000008"><a xlink:href="CorridorScanComplexItem_8cc.html" target="_top" xlink:title=" ">
<polygon fill="white" stroke="#666666" points="1205.5,-30 1044.5,-30 1044.5,0 1205.5,0 1205.5,-30"/>
<text text-anchor="start" x="1052.5" y="-18" font-family="Helvetica,sans-Serif" font-size="10.00">src/MissionManager</text>
<text text-anchor="middle" x="1125" y="-7" font-family="Helvetica,sans-Serif" font-size="10.00">/CorridorScanComplexItem.cc</text>
</a>
</g>
</g>
<!-- Node1&#45;&gt;Node8 -->
<g id="edge7_Node000001_Node000008" class="edge">
<title>Node1&#45;&gt;Node8</title>
<g id="a_edge7_Node000001_Node000008"><a xlink:title=" ">
<path fill="none" stroke="#63b8ff" d="M2547.63,-73.24C2286.08,-69.03 1476.27,-54.34 1215,-30 1212.01,-29.72 1208.97,-29.41 1205.89,-29.06"/>
<polygon fill="#63b8ff" stroke="#63b8ff" points="2547.77,-76.74 2557.82,-73.4 2547.88,-69.74 2547.77,-76.74"/>
</a>
</g>
</g>
<!-- Node9 -->
<g id="Node000009" class="node">
<title>Node9</title>
<g id="a_Node000009"><a xlink:href="GeoFenceController_8cc.html" target="_top" xlink:title=" ">
<polygon fill="white" stroke="#666666" points="1352,-30 1224,-30 1224,0 1352,0 1352,-30"/>
<text text-anchor="start" x="1232" y="-18" font-family="Helvetica,sans-Serif" font-size="10.00">src/MissionManager</text>
<text text-anchor="middle" x="1288" y="-7" font-family="Helvetica,sans-Serif" font-size="10.00">/GeoFenceController.cc</text>
</a>
</g>
</g>
<!-- Node1&#45;&gt;Node9 -->
<g id="edge8_Node000001_Node000009" class="edge">
<title>Node1&#45;&gt;Node9</title>
<g id="a_edge8_Node000001_Node000009"><a xlink:title=" ">
<path fill="none" stroke="#63b8ff" d="M2547.47,-73.27C2304.12,-69.39 1592.08,-56.05 1361,-30 1358.05,-29.67 1355.04,-29.28 1352.01,-28.85"/>
<polygon fill="#63b8ff" stroke="#63b8ff" points="2547.61,-76.77 2557.66,-73.43 2547.72,-69.78 2547.61,-76.77"/>
</a>
</g>
</g>
<!-- Node10 -->
<g id="Node000010" class="node">
<title>Node10</title>
<g id="a_Node000010"><a xlink:href="MissionController_8cc.html" target="_top" xlink:title=" ">
<polygon fill="white" stroke="#666666" points="1488,-30 1370,-30 1370,0 1488,0 1488,-30"/>
<text text-anchor="start" x="1378" y="-18" font-family="Helvetica,sans-Serif" font-size="10.00">src/MissionManager</text>
<text text-anchor="middle" x="1429" y="-7" font-family="Helvetica,sans-Serif" font-size="10.00">/MissionController.cc</text>
</a>
</g>
</g>
<!-- Node1&#45;&gt;Node10 -->
<g id="edge9_Node000001_Node000010" class="edge">
<title>Node1&#45;&gt;Node10</title>
<g id="a_edge9_Node000001_Node000010"><a xlink:title=" ">
<path fill="none" stroke="#63b8ff" d="M2547.84,-73.02C2322.95,-68.7 1700.52,-54.78 1497,-30 1494.13,-29.65 1491.2,-29.24 1488.24,-28.79"/>
<polygon fill="#63b8ff" stroke="#63b8ff" points="2547.86,-76.52 2557.93,-73.21 2548,-69.52 2547.86,-76.52"/>
</a>
</g>
</g>
<!-- Node11 -->
<g id="Node000011" class="node">
<title>Node11</title>
<g id="a_Node000011"><a xlink:href="MissionFlightStatusCalculator_8cc.html" target="_top" xlink:title=" ">
<polygon fill="white" stroke="#666666" points="1684,-30 1506,-30 1506,0 1684,0 1684,-30"/>
<text text-anchor="start" x="1514" y="-18" font-family="Helvetica,sans-Serif" font-size="10.00">src/MissionManager</text>
<text text-anchor="middle" x="1595" y="-7" font-family="Helvetica,sans-Serif" font-size="10.00">/MissionFlightStatusCalculator.cc</text>
</a>
</g>
</g>
<!-- Node1&#45;&gt;Node11 -->
<g id="edge10_Node000001_Node000011" class="edge">
<title>Node1&#45;&gt;Node11</title>
<g id="a_edge10_Node000001_Node000011"><a xlink:title=" ">
<path fill="none" stroke="#63b8ff" d="M2547.37,-73.2C2383.89,-70.03 2007.71,-59.89 1693,-30 1690.09,-29.72 1687.14,-29.42 1684.16,-29.1"/>
<polygon fill="#63b8ff" stroke="#63b8ff" points="2547.77,-76.7 2557.83,-73.39 2547.9,-69.7 2547.77,-76.7"/>
</a>
</g>
</g>
<!-- Node12 -->
<g id="Node000012" class="node">
<title>Node12</title>
<g id="a_Node000012"><a xlink:href="PlanMasterController_8cc.html" target="_top" xlink:title=" ">
<polygon fill="white" stroke="#666666" points="1837.5,-30 1702.5,-30 1702.5,0 1837.5,0 1837.5,-30"/>
<text text-anchor="start" x="1710.5" y="-18" font-family="Helvetica,sans-Serif" font-size="10.00">src/MissionManager</text>
<text text-anchor="middle" x="1770" y="-7" font-family="Helvetica,sans-Serif" font-size="10.00">/PlanMasterController.cc</text>
</a>
</g>
</g>
<!-- Node1&#45;&gt;Node12 -->
<g id="edge11_Node000001_Node000012" class="edge">
<title>Node1&#45;&gt;Node12</title>
<g id="a_edge11_Node000001_Node000012"><a xlink:title=" ">
<path fill="none" stroke="#63b8ff" d="M2547.95,-73.16C2405.06,-70.07 2101.5,-60.25 1847,-30 1843.9,-29.63 1840.73,-29.22 1837.54,-28.76"/>
<polygon fill="#63b8ff" stroke="#63b8ff" points="2547.88,-76.65 2557.95,-73.37 2548.03,-69.66 2547.88,-76.65"/>
</a>
</g>
</g>
<!-- Node13 -->
<g id="Node000013" class="node">
<title>Node13</title>
<g id="a_Node000013"><a xlink:href="RallyPointController_8cc.html" target="_top" xlink:title=" ">
<polygon fill="white" stroke="#666666" points="1986,-30 1856,-30 1856,0 1986,0 1986,-30"/>
<text text-anchor="start" x="1864" y="-18" font-family="Helvetica,sans-Serif" font-size="10.00">src/MissionManager</text>
<text text-anchor="middle" x="1921" y="-7" font-family="Helvetica,sans-Serif" font-size="10.00">/RallyPointController.cc</text>
</a>
</g>
</g>
<!-- Node1&#45;&gt;Node13 -->
<g id="edge12_Node000001_Node000013" class="edge">
<title>Node1&#45;&gt;Node13</title>
<g id="a_edge12_Node000001_Node000013"><a xlink:title=" ">
<path fill="none" stroke="#63b8ff" d="M2547.5,-71.8C2426.08,-67.13 2192.29,-55.49 1995,-30 1992.15,-29.63 1989.24,-29.22 1986.3,-28.78"/>
<polygon fill="#63b8ff" stroke="#63b8ff" points="2547.7,-75.31 2557.83,-72.19 2547.97,-68.32 2547.7,-75.31"/>
</a>
</g>
</g>
<!-- Node14 -->
<g id="Node000014" class="node">
<title>Node14</title>
<g id="a_Node000014"><a xlink:href="SimpleMissionItem_8cc.html" target="_top" xlink:title=" ">
<polygon fill="white" stroke="#666666" points="2131.5,-30 2004.5,-30 2004.5,0 2131.5,0 2131.5,-30"/>
<text text-anchor="start" x="2012.5" y="-18" font-family="Helvetica,sans-Serif" font-size="10.00">src/MissionManager</text>
<text text-anchor="middle" x="2068" y="-7" font-family="Helvetica,sans-Serif" font-size="10.00">/SimpleMissionItem.cc</text>
</a>
</g>
</g>
<!-- Node1&#45;&gt;Node14 -->
<g id="edge13_Node000001_Node000014" class="edge">
<title>Node1&#45;&gt;Node14</title>
<g id="a_edge13_Node000001_Node000014"><a xlink:title=" ">
<path fill="none" stroke="#63b8ff" d="M2547.82,-69.59C2450.24,-63.18 2282.73,-50.3 2140,-30 2137.23,-29.61 2134.4,-29.18 2131.54,-28.72"/>
<polygon fill="#63b8ff" stroke="#63b8ff" points="2547.71,-73.09 2557.91,-70.25 2548.16,-66.11 2547.71,-73.09"/>
</a>
</g>
</g>
<!-- Node15 -->
<g id="Node000015" class="node">
<title>Node15</title>
<g id="a_Node000015"><a xlink:href="StructureScanComplexItem_8cc.html" target="_top" xlink:title=" ">
<polygon fill="white" stroke="#666666" points="2316.5,-30 2149.5,-30 2149.5,0 2316.5,0 2316.5,-30"/>
<text text-anchor="start" x="2157.5" y="-18" font-family="Helvetica,sans-Serif" font-size="10.00">src/MissionManager</text>
<text text-anchor="middle" x="2233" y="-7" font-family="Helvetica,sans-Serif" font-size="10.00">/StructureScanComplexItem.cc</text>
</a>
</g>
</g>
<!-- Node1&#45;&gt;Node15 -->
<g id="edge14_Node000001_Node000015" class="edge">
<title>Node1&#45;&gt;Node15</title>
<g id="a_edge14_Node000001_Node000015"><a xlink:title=" ">
<path fill="none" stroke="#63b8ff" d="M2560.92,-64.54C2499.09,-55.6 2405.97,-42.07 2325,-30 2322.28,-29.6 2319.52,-29.18 2316.73,-28.76"/>
<polygon fill="#63b8ff" stroke="#63b8ff" points="2560.55,-68.03 2570.94,-65.99 2561.55,-61.1 2560.55,-68.03"/>
</a>
</g>
</g>
<!-- Node16 -->
<g id="Node000016" class="node">
<title>Node16</title>
<g id="a_Node000016"><a xlink:href="SurveyComplexItem_8cc.html" target="_top" xlink:title=" ">
<polygon fill="white" stroke="#666666" points="2467.5,-30 2334.5,-30 2334.5,0 2467.5,0 2467.5,-30"/>
<text text-anchor="start" x="2342.5" y="-18" font-family="Helvetica,sans-Serif" font-size="10.00">src/MissionManager</text>
<text text-anchor="middle" x="2401" y="-7" font-family="Helvetica,sans-Serif" font-size="10.00">/SurveyComplexItem.cc</text>
</a>
</g>
</g>
<!-- Node1&#45;&gt;Node16 -->
<g id="edge15_Node000001_Node000016" class="edge">
<title>Node1&#45;&gt;Node16</title>
<g id="a_edge15_Node000001_Node000016"><a xlink:title=" ">
<path fill="none" stroke="#63b8ff" d="M2586.72,-63.44C2549.67,-53.98 2496.14,-40.3 2456.05,-30.06"/>
<polygon fill="#63b8ff" stroke="#63b8ff" points="2586.15,-66.91 2596.7,-65.99 2587.88,-60.13 2586.15,-66.91"/>
</a>
</g>
</g>
<!-- Node17 -->
<g id="Node000017" class="node">
<title>Node17</title>
<g id="a_Node000017"><a xlink:href="QGCApplication_8cc.html" target="_top" xlink:title=" ">
<polygon fill="white" stroke="#666666" points="2610,-24.5 2486,-24.5 2486,-5.5 2610,-5.5 2610,-24.5"/>
<text text-anchor="middle" x="2548" y="-12.5" font-family="Helvetica,sans-Serif" font-size="10.00">src/QGCApplication.cc</text>
</a>
</g>
</g>
<!-- Node1&#45;&gt;Node17 -->
<g id="edge16_Node000001_Node000017" class="edge">
<title>Node1&#45;&gt;Node17</title>
<g id="a_edge16_Node000001_Node000017"><a xlink:title=" ">
<path fill="none" stroke="#63b8ff" d="M2609.46,-59.85C2593.93,-48.77 2573.13,-33.93 2560.15,-24.67"/>
<polygon fill="#63b8ff" stroke="#63b8ff" points="2607.73,-62.91 2617.9,-65.87 2611.79,-57.21 2607.73,-62.91"/>
</a>
</g>
</g>
<!-- Node18 -->
<g id="Node000018" class="node">
<title>Node18</title>
<g id="a_Node000018"><a xlink:href="MavlinkActionManager_8cc.html" target="_top" xlink:title=" ">
<polygon fill="white" stroke="#666666" points="2795.5,-30 2628.5,-30 2628.5,0 2795.5,0 2795.5,-30"/>
<text text-anchor="start" x="2636.5" y="-18" font-family="Helvetica,sans-Serif" font-size="10.00">src/QmlControls/MavlinkAction</text>
<text text-anchor="middle" x="2712" y="-7" font-family="Helvetica,sans-Serif" font-size="10.00">Manager.cc</text>
</a>
</g>
</g>
<!-- Node1&#45;&gt;Node18 -->
<g id="edge17_Node000001_Node000018" class="edge">
<title>Node1&#45;&gt;Node18</title>
<g id="a_edge17_Node000001_Node000018"><a xlink:title=" ">
<path fill="none" stroke="#63b8ff" d="M2650.28,-60.03C2663.08,-50.9 2679.52,-39.17 2692.22,-30.11"/>
<polygon fill="#63b8ff" stroke="#63b8ff" points="2648.21,-57.21 2642.1,-65.87 2652.27,-62.91 2648.21,-57.21"/>
</a>
</g>
</g>
<!-- Node19 -->
<g id="Node000019" class="node">
<title>Node19</title>
<g id="a_Node000019"><a xlink:href="ParameterEditorController_8cc.html" target="_top" xlink:title=" ">
<polygon fill="white" stroke="#666666" points="2962,-30 2814,-30 2814,0 2962,0 2962,-30"/>
<text text-anchor="start" x="2822" y="-18" font-family="Helvetica,sans-Serif" font-size="10.00">src/QmlControls/Parameter</text>
<text text-anchor="middle" x="2888" y="-7" font-family="Helvetica,sans-Serif" font-size="10.00">EditorController.cc</text>
</a>
</g>
</g>
<!-- Node1&#45;&gt;Node19 -->
<g id="edge18_Node000001_Node000019" class="edge">
<title>Node1&#45;&gt;Node19</title>
<g id="a_edge18_Node000001_Node000019"><a xlink:title=" ">
<path fill="none" stroke="#63b8ff" d="M2677.43,-63.74C2719.21,-54.27 2780.33,-40.41 2825.97,-30.06"/>
<polygon fill="#63b8ff" stroke="#63b8ff" points="2676.49,-60.37 2667.52,-65.99 2678.04,-67.2 2676.49,-60.37"/>
</a>
</g>
</g>
<!-- Node20 -->
<g id="Node000020" class="node">
<title>Node20</title>
<g id="a_Node000020"><a xlink:href="QGCFileDialogController_8cc.html" target="_top" xlink:title=" ">
<polygon fill="white" stroke="#666666" points="3148,-30 2980,-30 2980,0 3148,0 3148,-30"/>
<text text-anchor="start" x="2988" y="-18" font-family="Helvetica,sans-Serif" font-size="10.00">src/QmlControls/QGCFileDialog</text>
<text text-anchor="middle" x="3064" y="-7" font-family="Helvetica,sans-Serif" font-size="10.00">Controller.cc</text>
</a>
</g>
</g>
<!-- Node1&#45;&gt;Node20 -->
<g id="edge19_Node000001_Node000020" class="edge">
<title>Node1&#45;&gt;Node20</title>
<g id="a_edge19_Node000001_Node000020"><a xlink:title=" ">
<path fill="none" stroke="#63b8ff" d="M2708.26,-64.73C2777.41,-55.99 2880.98,-42.65 2971,-30 2973.91,-29.59 2976.87,-29.17 2979.86,-28.74"/>
<polygon fill="#63b8ff" stroke="#63b8ff" points="2707.79,-61.26 2698.31,-65.99 2708.67,-68.21 2707.79,-61.26"/>
</a>
</g>
</g>
<!-- Node21 -->
<g id="Node000021" class="node">
<title>Node21</title>
<g id="a_Node000021"><a xlink:href="QGroundControlQmlGlobal_8cc.html" target="_top" xlink:title=" ">
<polygon fill="white" stroke="#666666" points="3342,-30 3166,-30 3166,0 3342,0 3342,-30"/>
<text text-anchor="start" x="3174" y="-18" font-family="Helvetica,sans-Serif" font-size="10.00">src/QmlControls/QGroundControl</text>
<text text-anchor="middle" x="3254" y="-7" font-family="Helvetica,sans-Serif" font-size="10.00">QmlGlobal.cc</text>
</a>
</g>
</g>
<!-- Node1&#45;&gt;Node21 -->
<g id="edge20_Node000001_Node000021" class="edge">
<title>Node1&#45;&gt;Node21</title>
<g id="a_edge20_Node000001_Node000021"><a xlink:title=" ">
<path fill="none" stroke="#63b8ff" d="M2712.26,-69.07C2816.09,-61.86 3000.07,-47.93 3157,-30 3159.87,-29.67 3162.79,-29.33 3165.74,-28.96"/>
<polygon fill="#63b8ff" stroke="#63b8ff" points="2711.9,-65.58 2702.16,-69.76 2712.38,-72.57 2711.9,-65.58"/>
</a>
</g>
</g>
<!-- Node22 -->
<g id="Node000022" class="node">
<title>Node22</title>
<g id="a_Node000022"><a xlink:href="ScreenToolsController_8cc.html" target="_top" xlink:title=" ">
<polygon fill="white" stroke="#666666" points="3515.5,-30 3360.5,-30 3360.5,0 3515.5,0 3515.5,-30"/>
<text text-anchor="start" x="3368.5" y="-18" font-family="Helvetica,sans-Serif" font-size="10.00">src/QmlControls/ScreenTools</text>
<text text-anchor="middle" x="3438" y="-7" font-family="Helvetica,sans-Serif" font-size="10.00">Controller.cc</text>
</a>
</g>
</g>
<!-- Node1&#45;&gt;Node22 -->
<g id="edge21_Node000001_Node000022" class="edge">
<title>Node1&#45;&gt;Node22</title>
<g id="a_edge21_Node000001_Node000022"><a xlink:title=" ">
<path fill="none" stroke="#63b8ff" d="M2712.29,-72.04C2846.4,-67.45 3120.34,-55.61 3351,-30 3354.04,-29.66 3357.14,-29.29 3360.26,-28.9"/>
<polygon fill="#63b8ff" stroke="#63b8ff" points="2711.97,-68.55 2702.09,-72.39 2712.2,-75.55 2711.97,-68.55"/>
</a>
</g>
</g>
<!-- Node23 -->
<g id="Node000023" class="node">
<title>Node23</title>
<g id="a_Node000023"><a xlink:href="EsriMapProvider_8cpp.html" target="_top" xlink:title=" ">
<polygon fill="white" stroke="#666666" points="3700.5,-30 3533.5,-30 3533.5,0 3700.5,0 3700.5,-30"/>
<text text-anchor="start" x="3541.5" y="-18" font-family="Helvetica,sans-Serif" font-size="10.00">src/QtLocationPlugin</text>
<text text-anchor="middle" x="3617" y="-7" font-family="Helvetica,sans-Serif" font-size="10.00">/Providers/EsriMapProvider.cpp</text>
</a>
</g>
</g>
<!-- Node1&#45;&gt;Node23 -->
<g id="edge22_Node000001_Node000023" class="edge">
<title>Node1&#45;&gt;Node23</title>
<g id="a_edge22_Node000001_Node000023"><a xlink:title=" ">
<path fill="none" stroke="#63b8ff" d="M2712.22,-73.2C2870.12,-70.07 3226.61,-60.04 3525,-30 3527.73,-29.72 3530.51,-29.42 3533.31,-29.1"/>
<polygon fill="#63b8ff" stroke="#63b8ff" points="2712.04,-69.7 2702.11,-73.39 2712.18,-76.7 2712.04,-69.7"/>
</a>
</g>
</g>
<!-- Node24 -->
<g id="Node000024" class="node">
<title>Node24</title>
<g id="a_Node000024"><a xlink:href="GenericMapProvider_8cpp.html" target="_top" xlink:title=" ">
<polygon fill="white" stroke="#666666" points="3905.5,-30 3718.5,-30 3718.5,0 3905.5,0 3905.5,-30"/>
<text text-anchor="start" x="3726.5" y="-18" font-family="Helvetica,sans-Serif" font-size="10.00">src/QtLocationPlugin</text>
<text text-anchor="middle" x="3812" y="-7" font-family="Helvetica,sans-Serif" font-size="10.00">/Providers/GenericMapProvider.cpp</text>
</a>
</g>
</g>
<!-- Node1&#45;&gt;Node24 -->
<g id="edge23_Node000001_Node000024" class="edge">
<title>Node1&#45;&gt;Node24</title>
<g id="a_edge23_Node000001_Node000024"><a xlink:title=" ">
<path fill="none" stroke="#63b8ff" d="M2712.43,-73.78C2893.35,-71.61 3338.7,-63.06 3710,-30 3712.76,-29.75 3715.56,-29.49 3718.38,-29.2"/>
<polygon fill="#63b8ff" stroke="#63b8ff" points="2712.15,-70.28 2702.2,-73.9 2712.24,-77.28 2712.15,-70.28"/>
</a>
</g>
</g>
<!-- Node25 -->
<g id="Node000025" class="node">
<title>Node25</title>
<g id="a_Node000025"><a xlink:href="MapboxMapProvider_8cpp.html" target="_top" xlink:title=" ">
<polygon fill="white" stroke="#666666" points="4112,-30 3924,-30 3924,0 4112,0 4112,-30"/>
<text text-anchor="start" x="3932" y="-18" font-family="Helvetica,sans-Serif" font-size="10.00">src/QtLocationPlugin</text>
<text text-anchor="middle" x="4018" y="-7" font-family="Helvetica,sans-Serif" font-size="10.00">/Providers/MapboxMapProvider.cpp</text>
</a>
</g>
</g>
<!-- Node1&#45;&gt;Node25 -->
<g id="edge24_Node000001_Node000025" class="edge">
<title>Node1&#45;&gt;Node25</title>
<g id="a_edge24_Node000001_Node000025"><a xlink:title=" ">
<path fill="none" stroke="#63b8ff" d="M2712.29,-74.51C2916.36,-73.92 3461.96,-68.54 3915,-30 3917.88,-29.76 3920.8,-29.49 3923.74,-29.2"/>
<polygon fill="#63b8ff" stroke="#63b8ff" points="2712.24,-71.01 2702.25,-74.54 2712.26,-78.01 2712.24,-71.01"/>
</a>
</g>
</g>
<!-- Node26 -->
<g id="Node000026" class="node">
<title>Node26</title>
<g id="a_Node000026"><a xlink:href="TianDiTuProvider_8cpp.html" target="_top" xlink:title=" ">
<polygon fill="white" stroke="#666666" points="4300,-30 4130,-30 4130,0 4300,0 4300,-30"/>
<text text-anchor="start" x="4138" y="-18" font-family="Helvetica,sans-Serif" font-size="10.00">src/QtLocationPlugin</text>
<text text-anchor="middle" x="4215" y="-7" font-family="Helvetica,sans-Serif" font-size="10.00">/Providers/TianDiTuProvider.cpp</text>
</a>
</g>
</g>
<!-- Node1&#45;&gt;Node26 -->
<g id="edge25_Node000001_Node000026" class="edge">
<title>Node1&#45;&gt;Node26</title>
<g id="a_edge25_Node000001_Node000026"><a xlink:title=" ">
<path fill="none" stroke="#63b8ff" d="M2712.6,-73.32C2983.61,-69.25 3844.2,-54.66 4121,-30 4123.96,-29.74 4126.97,-29.44 4130,-29.12"/>
<polygon fill="#63b8ff" stroke="#63b8ff" points="2712.38,-69.82 2702.44,-73.47 2712.49,-76.82 2712.38,-69.82"/>
</a>
</g>
</g>
<!-- Node27 -->
<g id="Node000027" class="node">
<title>Node27</title>
<g id="a_Node000027"><a xlink:href="QGeoFileTileCacheQGC_8cpp.html" target="_top" xlink:title=" ">
<polygon fill="white" stroke="#666666" points="4472,-30 4318,-30 4318,0 4472,0 4472,-30"/>
<text text-anchor="start" x="4326" y="-18" font-family="Helvetica,sans-Serif" font-size="10.00">src/QtLocationPlugin</text>
<text text-anchor="middle" x="4395" y="-7" font-family="Helvetica,sans-Serif" font-size="10.00">/QGeoFileTileCacheQGC.cpp</text>
</a>
</g>
</g>
<!-- Node1&#45;&gt;Node27 -->
<g id="edge26_Node000001_Node000027" class="edge">
<title>Node1&#45;&gt;Node27</title>
<g id="a_edge26_Node000001_Node000027"><a xlink:title=" ">
<path fill="none" stroke="#63b8ff" d="M2712.39,-73.79C3005.04,-71.03 3993.76,-59.7 4309,-30 4311.86,-29.73 4314.77,-29.42 4317.71,-29.09"/>
<polygon fill="#63b8ff" stroke="#63b8ff" points="2712.24,-70.29 2702.28,-73.88 2712.31,-77.29 2712.24,-70.29"/>
</a>
</g>
</g>
<!-- Node28 -->
<g id="Node000028" class="node">
<title>Node28</title>
<g id="a_Node000028"><a xlink:href="AppSettings_8cc.html" target="_top" xlink:title=" ">
<polygon fill="white" stroke="#666666" points="4639.5,-24.5 4490.5,-24.5 4490.5,-5.5 4639.5,-5.5 4639.5,-24.5"/>
<text text-anchor="middle" x="4565" y="-12.5" font-family="Helvetica,sans-Serif" font-size="10.00">src/Settings/AppSettings.cc</text>
</a>
</g>
</g>
<!-- Node1&#45;&gt;Node28 -->
<g id="edge27_Node000001_Node000028" class="edge">
<title>Node1&#45;&gt;Node28</title>
<g id="a_edge27_Node000001_Node000028"><a xlink:title=" ">
<path fill="none" stroke="#63b8ff" d="M2712.54,-74.07C3024.35,-72.18 4130.47,-63.26 4481,-30 4494.1,-28.76 4508.24,-26.69 4521.12,-24.51"/>
<polygon fill="#63b8ff" stroke="#63b8ff" points="2712.21,-70.57 2702.23,-74.13 2712.25,-77.57 2712.21,-70.57"/>
</a>
</g>
</g>
<!-- Node29 -->
<g id="Node000029" class="node">
<title>Node29</title>
<g id="a_Node000029"><a xlink:href="SettingsManager_8cc.html" target="_top" xlink:title=" ">
<polygon fill="white" stroke="#666666" points="4830,-24.5 4658,-24.5 4658,-5.5 4830,-5.5 4830,-24.5"/>
<text text-anchor="middle" x="4744" y="-12.5" font-family="Helvetica,sans-Serif" font-size="10.00">src/Settings/SettingsManager.cc</text>
</a>
</g>
</g>
<!-- Node1&#45;&gt;Node29 -->
<g id="edge28_Node000001_Node000029" class="edge">
<title>Node1&#45;&gt;Node29</title>
<g id="a_edge28_Node000001_Node000029"><a xlink:title=" ">
<path fill="none" stroke="#63b8ff" d="M2712.46,-74.05C3041.78,-72.05 4263.43,-62.53 4649,-30 4663.78,-28.75 4679.77,-26.68 4694.34,-24.51"/>
<polygon fill="#63b8ff" stroke="#63b8ff" points="2712.03,-70.55 2702.05,-74.11 2712.07,-77.55 2712.03,-70.55"/>
</a>
</g>
</g>
<!-- Node30 -->
<g id="Node000030" class="node">
<title>Node30</title>
<g id="a_Node000030"><a xlink:href="MAVLinkLogManager_8cc.html" target="_top" xlink:title=" ">
<polygon fill="white" stroke="#666666" points="5035.5,-24.5 4848.5,-24.5 4848.5,-5.5 5035.5,-5.5 5035.5,-24.5"/>
<text text-anchor="middle" x="4942" y="-12.5" font-family="Helvetica,sans-Serif" font-size="10.00">src/Vehicle/MAVLinkLogManager.cc</text>
</a>
</g>
</g>
<!-- Node1&#45;&gt;Node30 -->
<g id="edge29_Node000001_Node000030" class="edge">
<title>Node1&#45;&gt;Node30</title>
<g id="a_edge29_Node000001_Node000030"><a xlink:title=" ">
<path fill="none" stroke="#63b8ff" d="M2712.3,-74.11C3060.46,-72.27 4413.78,-63.07 4839,-30 4855.01,-28.75 4872.34,-26.68 4888.13,-24.51"/>
<polygon fill="#63b8ff" stroke="#63b8ff" points="2712.04,-70.61 2702.05,-74.16 2712.07,-77.61 2712.04,-70.61"/>
</a>
</g>
</g>
<!-- Node31 -->
<g id="Node000031" class="node">
<title>Node31</title>
<g id="a_Node000031"><a xlink:href="Vehicle_8cc.html" target="_top" xlink:title=" ">
<polygon fill="white" stroke="#666666" points="5174.5,-24.5 5053.5,-24.5 5053.5,-5.5 5174.5,-5.5 5174.5,-24.5"/>
<text text-anchor="middle" x="5114" y="-12.5" font-family="Helvetica,sans-Serif" font-size="10.00">src/Vehicle/Vehicle.cc</text>
</a>
</g>
</g>
<!-- Node1&#45;&gt;Node31 -->
<g id="edge30_Node000001_Node000031" class="edge">
<title>Node1&#45;&gt;Node31</title>
<g id="a_edge30_Node000001_Node000031"><a xlink:title=" ">
<path fill="none" stroke="#63b8ff" d="M2712.37,-73.87C3108.64,-70.73 4809.55,-55.84 5045,-30 5055.94,-28.8 5067.71,-26.71 5078.38,-24.51"/>
<polygon fill="#63b8ff" stroke="#63b8ff" points="2712.11,-70.37 2702.13,-73.95 2712.16,-77.37 2712.11,-70.37"/>
</a>
</g>
</g>
<!-- Node32 -->
<g id="Node000032" class="node">
<title>Node32</title>
<g id="a_Node000032"><a xlink:href="VideoManager_8cc.html" target="_top" xlink:title=" ">
<polygon fill="white" stroke="#666666" points="5383.5,-24.5 5192.5,-24.5 5192.5,-5.5 5383.5,-5.5 5383.5,-24.5"/>
<text text-anchor="middle" x="5288" y="-12.5" font-family="Helvetica,sans-Serif" font-size="10.00">src/VideoManager/VideoManager.cc</text>
</a>
</g>
</g>
<!-- Node1&#45;&gt;Node32 -->
<g id="edge31_Node000001_Node000032" class="edge">
<title>Node1&#45;&gt;Node32</title>
<g id="a_edge31_Node000001_Node000032"><a xlink:title=" ">
<path fill="none" stroke="#63b8ff" d="M2712.28,-74.36C3093.09,-73.49 4686.91,-67.66 5184,-30 5200.17,-28.78 5217.66,-26.71 5233.61,-24.54"/>
<polygon fill="#63b8ff" stroke="#63b8ff" points="2712.17,-70.86 2702.17,-74.38 2712.18,-77.86 2712.17,-70.86"/>
</a>
</g>
</g>
<!-- Node33 -->
<g id="Node000033" class="node">
<title>Node33</title>
<g id="a_Node000033"><a xlink:href="GStreamer_8cc.html" target="_top" xlink:title=" ">
<polygon fill="white" stroke="#666666" points="5580,-30 5402,-30 5402,0 5580,0 5580,-30"/>
<text text-anchor="start" x="5410" y="-18" font-family="Helvetica,sans-Serif" font-size="10.00">src/VideoManager/VideoReceiver</text>
<text text-anchor="middle" x="5491" y="-7" font-family="Helvetica,sans-Serif" font-size="10.00">/GStreamer/GStreamer.cc</text>
</a>
</g>
</g>
<!-- Node1&#45;&gt;Node33 -->
<g id="edge32_Node000001_Node000033" class="edge">
<title>Node1&#45;&gt;Node33</title>
<g id="a_edge32_Node000001_Node000033"><a xlink:title=" ">
<path fill="none" stroke="#63b8ff" d="M2712.07,-74.57C3111.22,-74.71 4852.3,-72.8 5393,-30 5395.91,-29.77 5398.87,-29.51 5401.85,-29.22"/>
<polygon fill="#63b8ff" stroke="#63b8ff" points="2712.05,-71.07 2702.05,-74.57 2712.05,-78.07 2712.05,-71.07"/>
</a>
</g>
</g>
</g>
</svg>
