<?xml version="1.0" encoding="UTF-8" standalone="no"?>
<!DOCTYPE svg PUBLIC "-//W3C//DTD SVG 1.1//EN"
 "http://www.w3.org/Graphics/SVG/1.1/DTD/svg11.dtd">
<!-- Generated by graphviz version 2.43.0 (0)
 -->
<!-- Title: src/Utilities/Audio/AudioOutput.cc Pages: 1 -->
<svg width="1838pt" height="313pt"
 viewBox="0.00 0.00 1838.00 313.00" xmlns="http://www.w3.org/2000/svg" xmlns:xlink="http://www.w3.org/1999/xlink">
<g id="graph0" class="graph" transform="scale(1 1) rotate(0) translate(4 309)">
<title>src/Utilities/Audio/AudioOutput.cc</title>
<!-- Node1 -->
<g id="Node000001" class="node">
<title>Node1</title>
<g id="a_Node000001"><a xlink:title=" ">
<polygon fill="#999999" stroke="#666666" points="1291,-305 1188,-305 1188,-275 1291,-275 1291,-305"/>
<text text-anchor="start" x="1196" y="-293" font-family="Helvetica,sans-Serif" font-size="10.00">src/Utilities/Audio</text>
<text text-anchor="middle" x="1239.5" y="-282" font-family="Helvetica,sans-Serif" font-size="10.00">/AudioOutput.cc</text>
</a>
</g>
</g>
<!-- Node2 -->
<g id="Node000002" class="node">
<title>Node2</title>
<g id="a_Node000002"><a xlink:href="AudioOutput_8h.html" target="_top" xlink:title=" ">
<polygon fill="white" stroke="#666666" points="753.5,-74 667.5,-74 667.5,-55 753.5,-55 753.5,-74"/>
<text text-anchor="middle" x="710.5" y="-62" font-family="Helvetica,sans-Serif" font-size="10.00">AudioOutput.h</text>
</a>
</g>
</g>
<!-- Node1&#45;&gt;Node2 -->
<g id="edge1_Node000001_Node000002" class="edge">
<title>Node1&#45;&gt;Node2</title>
<g id="a_edge1_Node000001_Node000002"><a xlink:title=" ">
<path fill="none" stroke="#63b8ff" d="M1187.95,-284.6C1075.87,-273.99 815.06,-243.41 752.5,-184 724.24,-157.16 714.97,-110.1 711.95,-84.1"/>
<polygon fill="#63b8ff" stroke="#63b8ff" points="715.42,-83.68 710.97,-74.07 708.45,-84.36 715.42,-83.68"/>
</a>
</g>
</g>
<!-- Node5 -->
<g id="Node000005" class="node">
<title>Node5</title>
<g id="a_Node000005"><a xlink:href="Fact_8h.html" target="_top" xlink:title=" ">
<polygon fill="white" stroke="#666666" points="482,-129 437,-129 437,-110 482,-110 482,-129"/>
<text text-anchor="middle" x="459.5" y="-117" font-family="Helvetica,sans-Serif" font-size="10.00">Fact.h</text>
</a>
</g>
</g>
<!-- Node1&#45;&gt;Node5 -->
<g id="edge4_Node000001_Node000005" class="edge">
<title>Node1&#45;&gt;Node5</title>
<g id="a_edge4_Node000001_Node000005"><a xlink:title=" ">
<path fill="none" stroke="#63b8ff" d="M1187.75,-286.68C1070.56,-281.03 788,-265.09 696.5,-239 611.75,-214.84 521.12,-160.48 480.87,-134.65"/>
<polygon fill="#63b8ff" stroke="#63b8ff" points="482.7,-131.66 472.41,-129.16 478.89,-137.54 482.7,-131.66"/>
</a>
</g>
</g>
<!-- Node14 -->
<g id="Node000014" class="node">
<title>Node14</title>
<g id="a_Node000014"><a xlink:href="QGCLoggingCategory_8h.html" target="_top" xlink:title=" ">
<polygon fill="white" stroke="#666666" points="1074.5,-239 946.5,-239 946.5,-220 1074.5,-220 1074.5,-239"/>
<text text-anchor="middle" x="1010.5" y="-227" font-family="Helvetica,sans-Serif" font-size="10.00">QGCLoggingCategory.h</text>
</a>
</g>
</g>
<!-- Node1&#45;&gt;Node14 -->
<g id="edge20_Node000001_Node000014" class="edge">
<title>Node1&#45;&gt;Node14</title>
<g id="a_edge20_Node000001_Node000014"><a xlink:title=" ">
<path fill="none" stroke="#63b8ff" d="M1187.82,-275.8C1147.38,-265.47 1091.78,-251.26 1053.69,-241.53"/>
<polygon fill="#63b8ff" stroke="#63b8ff" points="1054.47,-238.12 1043.92,-239.04 1052.74,-244.9 1054.47,-238.12"/>
</a>
</g>
</g>
<!-- Node21 -->
<g id="Node000021" class="node">
<title>Node21</title>
<g id="a_Node000021"><a xlink:href="QGCApplication_8h.html" target="_top" xlink:title=" ">
<polygon fill="white" stroke="#666666" points="1290.5,-239 1188.5,-239 1188.5,-220 1290.5,-220 1290.5,-239"/>
<text text-anchor="middle" x="1239.5" y="-227" font-family="Helvetica,sans-Serif" font-size="10.00">QGCApplication.h</text>
</a>
</g>
</g>
<!-- Node1&#45;&gt;Node21 -->
<g id="edge32_Node000001_Node000021" class="edge">
<title>Node1&#45;&gt;Node21</title>
<g id="a_edge32_Node000001_Node000021"><a xlink:title=" ">
<path fill="none" stroke="#63b8ff" d="M1239.5,-274.84C1239.5,-267.21 1239.5,-257.7 1239.5,-249.45"/>
<polygon fill="#63b8ff" stroke="#63b8ff" points="1243,-249.27 1239.5,-239.27 1236,-249.27 1243,-249.27"/>
</a>
</g>
</g>
<!-- Node27 -->
<g id="Node000027" class="node">
<title>Node27</title>
<g id="a_Node000027"><a xlink:title=" ">
<polygon fill="#e0e0e0" stroke="#999999" points="1460.5,-239 1308.5,-239 1308.5,-220 1460.5,-220 1460.5,-239"/>
<text text-anchor="middle" x="1384.5" y="-227" font-family="Helvetica,sans-Serif" font-size="10.00">QtCore/QRegularExpression</text>
</a>
</g>
</g>
<!-- Node1&#45;&gt;Node27 -->
<g id="edge40_Node000001_Node000027" class="edge">
<title>Node1&#45;&gt;Node27</title>
<g id="a_edge40_Node000001_Node000027"><a xlink:title=" ">
<path fill="none" stroke="#63b8ff" d="M1274.23,-274.99C1298.42,-265.23 1330.4,-252.33 1353.69,-242.93"/>
<polygon fill="#63b8ff" stroke="#63b8ff" points="1355.12,-246.13 1363.09,-239.14 1352.5,-239.63 1355.12,-246.13"/>
</a>
</g>
</g>
<!-- Node28 -->
<g id="Node000028" class="node">
<title>Node28</title>
<g id="a_Node000028"><a xlink:title=" ">
<polygon fill="#e0e0e0" stroke="#999999" points="1622,-239 1479,-239 1479,-220 1622,-220 1622,-239"/>
<text text-anchor="middle" x="1550.5" y="-227" font-family="Helvetica,sans-Serif" font-size="10.00">QtCore/QApplicationStatic</text>
</a>
</g>
</g>
<!-- Node1&#45;&gt;Node28 -->
<g id="edge41_Node000001_Node000028" class="edge">
<title>Node1&#45;&gt;Node28</title>
<g id="a_edge41_Node000001_Node000028"><a xlink:title=" ">
<path fill="none" stroke="#63b8ff" d="M1291.2,-279.27C1347.58,-268.67 1437.46,-251.76 1495.21,-240.9"/>
<polygon fill="#63b8ff" stroke="#63b8ff" points="1496.07,-244.3 1505.25,-239.01 1494.78,-237.42 1496.07,-244.3"/>
</a>
</g>
</g>
<!-- Node29 -->
<g id="Node000029" class="node">
<title>Node29</title>
<g id="a_Node000029"><a xlink:title=" ">
<polygon fill="#e0e0e0" stroke="#999999" points="1810.5,-239 1640.5,-239 1640.5,-220 1810.5,-220 1810.5,-239"/>
<text text-anchor="middle" x="1725.5" y="-227" font-family="Helvetica,sans-Serif" font-size="10.00">QtTextToSpeech/QTextToSpeech</text>
</a>
</g>
</g>
<!-- Node1&#45;&gt;Node29 -->
<g id="edge42_Node000001_Node000029" class="edge">
<title>Node1&#45;&gt;Node29</title>
<g id="a_edge42_Node000001_Node000029"><a xlink:title=" ">
<path fill="none" stroke="#63b8ff" d="M1291.05,-282.79C1375.49,-272.63 1543.9,-252.36 1644.44,-240.26"/>
<polygon fill="#63b8ff" stroke="#63b8ff" points="1645.04,-243.71 1654.55,-239.04 1644.21,-236.76 1645.04,-243.71"/>
</a>
</g>
</g>
<!-- Node3 -->
<g id="Node000003" class="node">
<title>Node3</title>
<g id="a_Node000003"><a xlink:title=" ">
<polygon fill="#e0e0e0" stroke="#999999" points="937,-19 794,-19 794,0 937,0 937,-19"/>
<text text-anchor="middle" x="865.5" y="-7" font-family="Helvetica,sans-Serif" font-size="10.00">QtCore/QLoggingCategory</text>
</a>
</g>
</g>
<!-- Node2&#45;&gt;Node3 -->
<g id="edge2_Node000002_Node000003" class="edge">
<title>Node2&#45;&gt;Node3</title>
<g id="a_edge2_Node000002_Node000003"><a xlink:title=" ">
<path fill="none" stroke="#63b8ff" d="M735.4,-54.98C761.2,-46.16 801.72,-32.31 830.68,-22.41"/>
<polygon fill="#63b8ff" stroke="#63b8ff" points="832.07,-25.63 840.4,-19.08 829.81,-19.01 832.07,-25.63"/>
</a>
</g>
</g>
<!-- Node4 -->
<g id="Node000004" class="node">
<title>Node4</title>
<g id="a_Node000004"><a xlink:title=" ">
<polygon fill="#e0e0e0" stroke="#999999" points="775.5,-19 683.5,-19 683.5,0 775.5,0 775.5,-19"/>
<text text-anchor="middle" x="729.5" y="-7" font-family="Helvetica,sans-Serif" font-size="10.00">QtCore/QObject</text>
</a>
</g>
</g>
<!-- Node2&#45;&gt;Node4 -->
<g id="edge3_Node000002_Node000004" class="edge">
<title>Node2&#45;&gt;Node4</title>
<g id="a_edge3_Node000002_Node000004"><a xlink:title=" ">
<path fill="none" stroke="#63b8ff" d="M713.64,-54.75C716.18,-47.65 719.86,-37.4 723.03,-28.56"/>
<polygon fill="#63b8ff" stroke="#63b8ff" points="726.34,-29.68 726.42,-19.09 719.75,-27.32 726.34,-29.68"/>
</a>
</g>
</g>
<!-- Node5&#45;&gt;Node3 -->
<g id="edge5_Node000005_Node000003" class="edge">
<title>Node5&#45;&gt;Node3</title>
<g id="a_edge5_Node000005_Node000003"><a xlink:title=" ">
<path fill="none" stroke="#63b8ff" d="M482.31,-118.27C533.85,-117.08 662.58,-110.38 762.5,-74 794.34,-62.41 826.95,-40.22 846.71,-25.38"/>
<polygon fill="#63b8ff" stroke="#63b8ff" points="849.04,-28.01 854.84,-19.15 844.78,-22.46 849.04,-28.01"/>
</a>
</g>
</g>
<!-- Node5&#45;&gt;Node4 -->
<g id="edge7_Node000005_Node000004" class="edge">
<title>Node5&#45;&gt;Node4</title>
<g id="a_edge7_Node000005_Node000004"><a xlink:title=" ">
<path fill="none" stroke="#63b8ff" d="M464.6,-109.94C473.35,-96.04 492.62,-68.75 516.5,-55 530.04,-47.2 615.03,-30.9 673.47,-20.34"/>
<polygon fill="#63b8ff" stroke="#63b8ff" points="674.1,-23.78 683.32,-18.57 672.86,-16.89 674.1,-23.78"/>
</a>
</g>
</g>
<!-- Node6 -->
<g id="Node000006" class="node">
<title>Node6</title>
<g id="a_Node000006"><a xlink:title=" ">
<polygon fill="#e0e0e0" stroke="#999999" points="649,-74 526,-74 526,-55 649,-55 649,-74"/>
<text text-anchor="middle" x="587.5" y="-62" font-family="Helvetica,sans-Serif" font-size="10.00">QtCore/QMutexLocker</text>
</a>
</g>
</g>
<!-- Node5&#45;&gt;Node6 -->
<g id="edge6_Node000005_Node000006" class="edge">
<title>Node5&#45;&gt;Node6</title>
<g id="a_edge6_Node000005_Node000006"><a xlink:title=" ">
<path fill="none" stroke="#63b8ff" d="M480.07,-109.98C500.93,-101.34 533.47,-87.87 557.27,-78.02"/>
<polygon fill="#63b8ff" stroke="#63b8ff" points="558.66,-81.23 566.56,-74.17 555.98,-74.76 558.66,-81.23"/>
</a>
</g>
</g>
<!-- Node7 -->
<g id="Node000007" class="node">
<title>Node7</title>
<g id="a_Node000007"><a xlink:title=" ">
<polygon fill="#e0e0e0" stroke="#999999" points="243.5,-74 103.5,-74 103.5,-55 243.5,-55 243.5,-74"/>
<text text-anchor="middle" x="173.5" y="-62" font-family="Helvetica,sans-Serif" font-size="10.00">QtCore/QRecursiveMutex</text>
</a>
</g>
</g>
<!-- Node5&#45;&gt;Node7 -->
<g id="edge8_Node000005_Node000007" class="edge">
<title>Node5&#45;&gt;Node7</title>
<g id="a_edge8_Node000005_Node000007"><a xlink:title=" ">
<path fill="none" stroke="#63b8ff" d="M436.58,-114.25C392.07,-106 292.78,-87.6 229.71,-75.92"/>
<polygon fill="#63b8ff" stroke="#63b8ff" points="230,-72.41 219.53,-74.03 228.72,-79.29 230,-72.41"/>
</a>
</g>
</g>
<!-- Node8 -->
<g id="Node000008" class="node">
<title>Node8</title>
<g id="a_Node000008"><a xlink:title=" ">
<polygon fill="#e0e0e0" stroke="#999999" points="89,-19 0,-19 0,0 89,0 89,-19"/>
<text text-anchor="middle" x="44.5" y="-7" font-family="Helvetica,sans-Serif" font-size="10.00">QtCore/QString</text>
</a>
</g>
</g>
<!-- Node5&#45;&gt;Node8 -->
<g id="edge9_Node000005_Node000008" class="edge">
<title>Node5&#45;&gt;Node8</title>
<g id="a_edge9_Node000005_Node000008"><a xlink:title=" ">
<path fill="none" stroke="#63b8ff" d="M436.91,-114.76C403.11,-108.71 337.78,-95.27 285.5,-74 269.82,-67.62 268.3,-61.07 252.5,-55 225.03,-44.45 151.15,-29.79 99.29,-20.23"/>
<polygon fill="#63b8ff" stroke="#63b8ff" points="99.7,-16.74 89.23,-18.38 98.43,-23.63 99.7,-16.74"/>
</a>
</g>
</g>
<!-- Node9 -->
<g id="Node000009" class="node">
<title>Node9</title>
<g id="a_Node000009"><a xlink:title=" ">
<polygon fill="#e0e0e0" stroke="#999999" points="202,-19 107,-19 107,0 202,0 202,-19"/>
<text text-anchor="middle" x="154.5" y="-7" font-family="Helvetica,sans-Serif" font-size="10.00">QtCore/QVariant</text>
</a>
</g>
</g>
<!-- Node5&#45;&gt;Node9 -->
<g id="edge10_Node000005_Node000009" class="edge">
<title>Node5&#45;&gt;Node9</title>
<g id="a_edge10_Node000005_Node000009"><a xlink:title=" ">
<path fill="none" stroke="#63b8ff" d="M436.56,-111.39C410.23,-103.07 365.87,-88.57 328.5,-74 309.03,-66.41 304.97,-62.59 285.5,-55 254.15,-42.78 217.88,-30.6 191.46,-22.09"/>
<polygon fill="#63b8ff" stroke="#63b8ff" points="192.44,-18.73 181.85,-19.01 190.31,-25.39 192.44,-18.73"/>
</a>
</g>
</g>
<!-- Node10 -->
<g id="Node000010" class="node">
<title>Node10</title>
<g id="a_Node000010"><a xlink:title=" ">
<polygon fill="#e0e0e0" stroke="#999999" points="665,-19 476,-19 476,0 665,0 665,-19"/>
<text text-anchor="middle" x="570.5" y="-7" font-family="Helvetica,sans-Serif" font-size="10.00">QtQmlIntegration/QtQmlIntegration</text>
</a>
</g>
</g>
<!-- Node5&#45;&gt;Node10 -->
<g id="edge11_Node000005_Node000010" class="edge">
<title>Node5&#45;&gt;Node10</title>
<g id="a_edge11_Node000005_Node000010"><a xlink:title=" ">
<path fill="none" stroke="#63b8ff" d="M460.77,-109.66C463.1,-96.34 469.2,-70.99 483.5,-55 496.55,-40.41 515.5,-29.94 532.39,-22.83"/>
<polygon fill="#63b8ff" stroke="#63b8ff" points="534.02,-25.95 542.04,-19.02 531.45,-19.44 534.02,-25.95"/>
</a>
</g>
</g>
<!-- Node11 -->
<g id="Node000011" class="node">
<title>Node11</title>
<g id="a_Node000011"><a xlink:href="FactMetaData_8h.html" target="_top" xlink:title=" ">
<polygon fill="white" stroke="#666666" points="431,-74 338,-74 338,-55 431,-55 431,-74"/>
<text text-anchor="middle" x="384.5" y="-62" font-family="Helvetica,sans-Serif" font-size="10.00">FactMetaData.h</text>
</a>
</g>
</g>
<!-- Node5&#45;&gt;Node11 -->
<g id="edge12_Node000005_Node000011" class="edge">
<title>Node5&#45;&gt;Node11</title>
<g id="a_edge12_Node000005_Node000011"><a xlink:title=" ">
<path fill="none" stroke="#63b8ff" d="M447.45,-109.98C436.04,-101.92 418.67,-89.65 405.07,-80.03"/>
<polygon fill="#63b8ff" stroke="#63b8ff" points="406.96,-77.08 396.77,-74.17 402.92,-82.8 406.96,-77.08"/>
</a>
</g>
</g>
<!-- Node11&#45;&gt;Node3 -->
<g id="edge13_Node000011_Node000003" class="edge">
<title>Node11&#45;&gt;Node3</title>
<g id="a_edge13_Node000011_Node000003"><a xlink:title=" ">
<path fill="none" stroke="#63b8ff" d="M431.06,-58.37C512.55,-49.39 681.99,-30.72 783.51,-19.53"/>
<polygon fill="#63b8ff" stroke="#63b8ff" points="784.16,-22.98 793.72,-18.41 783.4,-16.03 784.16,-22.98"/>
</a>
</g>
</g>
<!-- Node11&#45;&gt;Node4 -->
<g id="edge16_Node000011_Node000004" class="edge">
<title>Node11&#45;&gt;Node4</title>
<g id="a_edge16_Node000011_Node000004"><a xlink:title=" ">
<path fill="none" stroke="#63b8ff" d="M431.03,-56.35C493.92,-46.69 605.94,-29.48 673.41,-19.12"/>
<polygon fill="#63b8ff" stroke="#63b8ff" points="674.08,-22.55 683.43,-17.58 673.02,-15.64 674.08,-22.55"/>
</a>
</g>
</g>
<!-- Node11&#45;&gt;Node8 -->
<g id="edge17_Node000011_Node000008" class="edge">
<title>Node11&#45;&gt;Node8</title>
<g id="a_edge17_Node000011_Node000008"><a xlink:title=" ">
<path fill="none" stroke="#63b8ff" d="M337.76,-56.33C283,-47.91 189.25,-33.45 99.15,-19.25"/>
<polygon fill="#63b8ff" stroke="#63b8ff" points="99.45,-15.76 89.03,-17.66 98.36,-22.67 99.45,-15.76"/>
</a>
</g>
</g>
<!-- Node11&#45;&gt;Node9 -->
<g id="edge18_Node000011_Node000009" class="edge">
<title>Node11&#45;&gt;Node9</title>
<g id="a_edge18_Node000011_Node000009"><a xlink:title=" ">
<path fill="none" stroke="#63b8ff" d="M347.55,-54.98C307.93,-45.86 244.91,-31.33 201.73,-21.38"/>
<polygon fill="#63b8ff" stroke="#63b8ff" points="202.27,-17.92 191.74,-19.08 200.7,-24.74 202.27,-17.92"/>
</a>
</g>
</g>
<!-- Node11&#45;&gt;Node10 -->
<g id="edge19_Node000011_Node000010" class="edge">
<title>Node11&#45;&gt;Node10</title>
<g id="a_edge19_Node000011_Node000010"><a xlink:title=" ">
<path fill="none" stroke="#63b8ff" d="M414.38,-54.98C445.88,-46.01 495.67,-31.82 530.53,-21.89"/>
<polygon fill="#63b8ff" stroke="#63b8ff" points="531.72,-25.19 540.38,-19.08 529.81,-18.46 531.72,-25.19"/>
</a>
</g>
</g>
<!-- Node12 -->
<g id="Node000012" class="node">
<title>Node12</title>
<g id="a_Node000012"><a xlink:title=" ">
<polygon fill="#e0e0e0" stroke="#999999" points="458,-19 351,-19 351,0 458,0 458,-19"/>
<text text-anchor="middle" x="404.5" y="-7" font-family="Helvetica,sans-Serif" font-size="10.00">QtCore/QJsonArray</text>
</a>
</g>
</g>
<!-- Node11&#45;&gt;Node12 -->
<g id="edge14_Node000011_Node000012" class="edge">
<title>Node11&#45;&gt;Node12</title>
<g id="a_edge14_Node000011_Node000012"><a xlink:title=" ">
<path fill="none" stroke="#63b8ff" d="M387.8,-54.75C390.48,-47.65 394.35,-37.4 397.69,-28.56"/>
<polygon fill="#63b8ff" stroke="#63b8ff" points="401,-29.68 401.26,-19.09 394.45,-27.21 401,-29.68"/>
</a>
</g>
</g>
<!-- Node13 -->
<g id="Node000013" class="node">
<title>Node13</title>
<g id="a_Node000013"><a xlink:title=" ">
<polygon fill="#e0e0e0" stroke="#999999" points="333,-19 220,-19 220,0 333,0 333,-19"/>
<text text-anchor="middle" x="276.5" y="-7" font-family="Helvetica,sans-Serif" font-size="10.00">QtCore/QJsonObject</text>
</a>
</g>
</g>
<!-- Node11&#45;&gt;Node13 -->
<g id="edge15_Node000011_Node000013" class="edge">
<title>Node11&#45;&gt;Node13</title>
<g id="a_edge15_Node000011_Node000013"><a xlink:title=" ">
<path fill="none" stroke="#63b8ff" d="M367.15,-54.98C349.93,-46.54 323.3,-33.47 303.35,-23.68"/>
<polygon fill="#63b8ff" stroke="#63b8ff" points="304.69,-20.43 294.17,-19.17 301.6,-26.72 304.69,-20.43"/>
</a>
</g>
</g>
<!-- Node14&#45;&gt;Node3 -->
<g id="edge28_Node000014_Node000003" class="edge">
<title>Node14&#45;&gt;Node3</title>
<g id="a_edge28_Node000014_Node000003"><a xlink:title=" ">
<path fill="none" stroke="#63b8ff" d="M1017.1,-219.88C1023.22,-211.31 1031.89,-197.53 1035.5,-184 1050.27,-128.6 1071.57,-100.36 1036.5,-55 1024.28,-39.19 980.22,-27.95 939.89,-20.72"/>
<polygon fill="#63b8ff" stroke="#63b8ff" points="940.46,-17.27 930.01,-19.01 939.27,-24.17 940.46,-17.27"/>
</a>
</g>
</g>
<!-- Node14&#45;&gt;Node4 -->
<g id="edge29_Node000014_Node000004" class="edge">
<title>Node14&#45;&gt;Node4</title>
<g id="a_edge29_Node000014_Node000004"><a xlink:title=" ">
<path fill="none" stroke="#63b8ff" d="M946.36,-225.59C882.37,-221.2 790.36,-210.37 767.5,-184 729.92,-140.65 781.55,-109.12 762.5,-55 758.84,-44.61 751.85,-34.6 745.24,-26.72"/>
<polygon fill="#63b8ff" stroke="#63b8ff" points="747.67,-24.2 738.39,-19.09 742.46,-28.87 747.67,-24.2"/>
</a>
</g>
</g>
<!-- Node15 -->
<g id="Node000015" class="node">
<title>Node15</title>
<g id="a_Node000015"><a xlink:href="QmlObjectListModel_8h.html" target="_top" xlink:title=" ">
<polygon fill="white" stroke="#666666" points="1027,-184 902,-184 902,-165 1027,-165 1027,-184"/>
<text text-anchor="middle" x="964.5" y="-172" font-family="Helvetica,sans-Serif" font-size="10.00">QmlObjectListModel.h</text>
</a>
</g>
</g>
<!-- Node14&#45;&gt;Node15 -->
<g id="edge21_Node000014_Node000015" class="edge">
<title>Node14&#45;&gt;Node15</title>
<g id="a_edge21_Node000014_Node000015"><a xlink:title=" ">
<path fill="none" stroke="#63b8ff" d="M1002.9,-219.75C996.34,-212.18 986.68,-201.05 978.69,-191.84"/>
<polygon fill="#63b8ff" stroke="#63b8ff" points="981.15,-189.35 971.95,-184.09 975.87,-193.94 981.15,-189.35"/>
</a>
</g>
</g>
<!-- Node19 -->
<g id="Node000019" class="node">
<title>Node19</title>
<g id="a_Node000019"><a xlink:title=" ">
<polygon fill="#e0e0e0" stroke="#999999" points="884,-184 777,-184 777,-165 884,-165 884,-184"/>
<text text-anchor="middle" x="830.5" y="-172" font-family="Helvetica,sans-Serif" font-size="10.00">QtCore/QStringList</text>
</a>
</g>
</g>
<!-- Node14&#45;&gt;Node19 -->
<g id="edge30_Node000014_Node000019" class="edge">
<title>Node14&#45;&gt;Node19</title>
<g id="a_edge30_Node000014_Node000019"><a xlink:title=" ">
<path fill="none" stroke="#63b8ff" d="M981.58,-219.98C951.23,-211.05 903.33,-196.94 869.62,-187.02"/>
<polygon fill="#63b8ff" stroke="#63b8ff" points="870.23,-183.55 859.65,-184.08 868.25,-190.26 870.23,-183.55"/>
</a>
</g>
</g>
<!-- Node20 -->
<g id="Node000020" class="node">
<title>Node20</title>
<g id="a_Node000020"><a xlink:title=" ">
<polygon fill="#e0e0e0" stroke="#999999" points="1165.5,-184 1083.5,-184 1083.5,-165 1165.5,-165 1165.5,-184"/>
<text text-anchor="middle" x="1124.5" y="-172" font-family="Helvetica,sans-Serif" font-size="10.00">QtCore/QMap</text>
</a>
</g>
</g>
<!-- Node14&#45;&gt;Node20 -->
<g id="edge31_Node000014_Node000020" class="edge">
<title>Node14&#45;&gt;Node20</title>
<g id="a_edge31_Node000014_Node000020"><a xlink:title=" ">
<path fill="none" stroke="#63b8ff" d="M1028.82,-219.98C1047.16,-211.46 1075.61,-198.23 1096.73,-188.41"/>
<polygon fill="#63b8ff" stroke="#63b8ff" points="1098.26,-191.56 1105.85,-184.17 1095.31,-185.21 1098.26,-191.56"/>
</a>
</g>
</g>
<!-- Node15&#45;&gt;Node3 -->
<g id="edge27_Node000015_Node000003" class="edge">
<title>Node15&#45;&gt;Node3</title>
<g id="a_edge27_Node000015_Node000003"><a xlink:title=" ">
<path fill="none" stroke="#63b8ff" d="M939.09,-164.98C922.14,-157.97 900.79,-146.34 888.5,-129 867.27,-99.03 864.33,-54.56 864.58,-29.49"/>
<polygon fill="#63b8ff" stroke="#63b8ff" points="868.09,-29.27 864.89,-19.17 861.09,-29.06 868.09,-29.27"/>
</a>
</g>
</g>
<!-- Node16 -->
<g id="Node000016" class="node">
<title>Node16</title>
<g id="a_Node000016"><a xlink:href="ObjectListModelBase_8h.html" target="_top" xlink:title=" ">
<polygon fill="white" stroke="#666666" points="1025.5,-129 897.5,-129 897.5,-110 1025.5,-110 1025.5,-129"/>
<text text-anchor="middle" x="961.5" y="-117" font-family="Helvetica,sans-Serif" font-size="10.00">ObjectListModelBase.h</text>
</a>
</g>
</g>
<!-- Node15&#45;&gt;Node16 -->
<g id="edge22_Node000015_Node000016" class="edge">
<title>Node15&#45;&gt;Node16</title>
<g id="a_edge22_Node000015_Node000016"><a xlink:title=" ">
<path fill="none" stroke="#63b8ff" d="M964,-164.75C963.61,-157.8 963.05,-147.85 962.55,-139.13"/>
<polygon fill="#63b8ff" stroke="#63b8ff" points="966.05,-138.88 961.99,-129.09 959.06,-139.27 966.05,-138.88"/>
</a>
</g>
</g>
<!-- Node17 -->
<g id="Node000017" class="node">
<title>Node17</title>
<g id="a_Node000017"><a xlink:href="ObjectItemModelBase_8h.html" target="_top" xlink:title=" ">
<polygon fill="white" stroke="#666666" points="1027.5,-74 893.5,-74 893.5,-55 1027.5,-55 1027.5,-74"/>
<text text-anchor="middle" x="960.5" y="-62" font-family="Helvetica,sans-Serif" font-size="10.00">ObjectItemModelBase.h</text>
</a>
</g>
</g>
<!-- Node16&#45;&gt;Node17 -->
<g id="edge23_Node000016_Node000017" class="edge">
<title>Node16&#45;&gt;Node17</title>
<g id="a_edge23_Node000016_Node000017"><a xlink:title=" ">
<path fill="none" stroke="#63b8ff" d="M961.33,-109.75C961.2,-102.8 961.02,-92.85 960.85,-84.13"/>
<polygon fill="#63b8ff" stroke="#63b8ff" points="964.35,-84.02 960.66,-74.09 957.35,-84.15 964.35,-84.02"/>
</a>
</g>
</g>
<!-- Node17&#45;&gt;Node3 -->
<g id="edge25_Node000017_Node000003" class="edge">
<title>Node17&#45;&gt;Node3</title>
<g id="a_edge25_Node000017_Node000003"><a xlink:title=" ">
<path fill="none" stroke="#63b8ff" d="M945.24,-54.98C930.37,-46.69 907.52,-33.94 890.08,-24.22"/>
<polygon fill="#63b8ff" stroke="#63b8ff" points="891.48,-20.99 881.04,-19.17 888.07,-27.1 891.48,-20.99"/>
</a>
</g>
</g>
<!-- Node17&#45;&gt;Node10 -->
<g id="edge26_Node000017_Node000010" class="edge">
<title>Node17&#45;&gt;Node10</title>
<g id="a_edge26_Node000017_Node000010"><a xlink:title=" ">
<path fill="none" stroke="#63b8ff" d="M897.84,-54.98C828.43,-45.55 716.68,-30.36 643.4,-20.41"/>
<polygon fill="#63b8ff" stroke="#63b8ff" points="643.71,-16.92 633.33,-19.04 642.77,-23.85 643.71,-16.92"/>
</a>
</g>
</g>
<!-- Node18 -->
<g id="Node000018" class="node">
<title>Node18</title>
<g id="a_Node000018"><a xlink:title=" ">
<polygon fill="#e0e0e0" stroke="#999999" points="1109.5,-19 955.5,-19 955.5,0 1109.5,0 1109.5,-19"/>
<text text-anchor="middle" x="1032.5" y="-7" font-family="Helvetica,sans-Serif" font-size="10.00">QtCore/QAbstractItemModel</text>
</a>
</g>
</g>
<!-- Node17&#45;&gt;Node18 -->
<g id="edge24_Node000017_Node000018" class="edge">
<title>Node17&#45;&gt;Node18</title>
<g id="a_edge24_Node000017_Node000018"><a xlink:title=" ">
<path fill="none" stroke="#63b8ff" d="M972.07,-54.98C982.92,-47 999.38,-34.88 1012.38,-25.31"/>
<polygon fill="#63b8ff" stroke="#63b8ff" points="1014.74,-27.92 1020.72,-19.17 1010.59,-22.28 1014.74,-27.92"/>
</a>
</g>
</g>
<!-- Node21&#45;&gt;Node3 -->
<g id="edge33_Node000021_Node000003" class="edge">
<title>Node21&#45;&gt;Node3</title>
<g id="a_edge33_Node000021_Node000003"><a xlink:title=" ">
<path fill="none" stroke="#63b8ff" d="M1233.31,-219.98C1212.18,-191.56 1139.57,-99.27 1056.5,-55 1023,-37.15 982.45,-26.4 947.35,-19.96"/>
<polygon fill="#63b8ff" stroke="#63b8ff" points="947.57,-16.45 937.12,-18.18 946.37,-23.35 947.57,-16.45"/>
</a>
</g>
</g>
<!-- Node21&#45;&gt;Node20 -->
<g id="edge35_Node000021_Node000020" class="edge">
<title>Node21&#45;&gt;Node20</title>
<g id="a_edge35_Node000021_Node000020"><a xlink:title=" ">
<path fill="none" stroke="#63b8ff" d="M1221.02,-219.98C1202.52,-211.46 1173.82,-198.23 1152.52,-188.41"/>
<polygon fill="#63b8ff" stroke="#63b8ff" points="1153.86,-185.18 1143.31,-184.17 1150.93,-191.53 1153.86,-185.18"/>
</a>
</g>
</g>
<!-- Node22 -->
<g id="Node000022" class="node">
<title>Node22</title>
<g id="a_Node000022"><a xlink:title=" ">
<polygon fill="#e0e0e0" stroke="#999999" points="1349.5,-184 1221.5,-184 1221.5,-165 1349.5,-165 1349.5,-184"/>
<text text-anchor="middle" x="1285.5" y="-172" font-family="Helvetica,sans-Serif" font-size="10.00">QtCore/QElapsedTimer</text>
</a>
</g>
</g>
<!-- Node21&#45;&gt;Node22 -->
<g id="edge34_Node000021_Node000022" class="edge">
<title>Node21&#45;&gt;Node22</title>
<g id="a_edge34_Node000021_Node000022"><a xlink:title=" ">
<path fill="none" stroke="#63b8ff" d="M1247.1,-219.75C1253.66,-212.18 1263.32,-201.05 1271.31,-191.84"/>
<polygon fill="#63b8ff" stroke="#63b8ff" points="1274.13,-193.94 1278.05,-184.09 1268.85,-189.35 1274.13,-193.94"/>
</a>
</g>
</g>
<!-- Node23 -->
<g id="Node000023" class="node">
<title>Node23</title>
<g id="a_Node000023"><a xlink:title=" ">
<polygon fill="#e0e0e0" stroke="#999999" points="1445,-184 1368,-184 1368,-165 1445,-165 1445,-184"/>
<text text-anchor="middle" x="1406.5" y="-172" font-family="Helvetica,sans-Serif" font-size="10.00">QtCore/QSet</text>
</a>
</g>
</g>
<!-- Node21&#45;&gt;Node23 -->
<g id="edge36_Node000021_Node000023" class="edge">
<title>Node21&#45;&gt;Node23</title>
<g id="a_edge36_Node000021_Node000023"><a xlink:title=" ">
<path fill="none" stroke="#63b8ff" d="M1266.33,-219.98C1294.37,-211.09 1338.55,-197.07 1369.8,-187.15"/>
<polygon fill="#63b8ff" stroke="#63b8ff" points="1370.99,-190.44 1379.46,-184.08 1368.87,-183.77 1370.99,-190.44"/>
</a>
</g>
</g>
<!-- Node24 -->
<g id="Node000024" class="node">
<title>Node24</title>
<g id="a_Node000024"><a xlink:title=" ">
<polygon fill="#e0e0e0" stroke="#999999" points="1552,-184 1463,-184 1463,-165 1552,-165 1552,-184"/>
<text text-anchor="middle" x="1507.5" y="-172" font-family="Helvetica,sans-Serif" font-size="10.00">QtCore/QTimer</text>
</a>
</g>
</g>
<!-- Node21&#45;&gt;Node24 -->
<g id="edge37_Node000021_Node000024" class="edge">
<title>Node21&#45;&gt;Node24</title>
<g id="a_edge37_Node000021_Node000024"><a xlink:title=" ">
<path fill="none" stroke="#63b8ff" d="M1282.56,-219.98C1329.21,-210.76 1403.7,-196.03 1454.06,-186.07"/>
<polygon fill="#63b8ff" stroke="#63b8ff" points="1454.97,-189.46 1464.1,-184.08 1453.61,-182.59 1454.97,-189.46"/>
</a>
</g>
</g>
<!-- Node25 -->
<g id="Node000025" class="node">
<title>Node25</title>
<g id="a_Node000025"><a xlink:title=" ">
<polygon fill="#e0e0e0" stroke="#999999" points="1679,-184 1570,-184 1570,-165 1679,-165 1679,-184"/>
<text text-anchor="middle" x="1624.5" y="-172" font-family="Helvetica,sans-Serif" font-size="10.00">QtCore/QTranslator</text>
</a>
</g>
</g>
<!-- Node21&#45;&gt;Node25 -->
<g id="edge38_Node000021_Node000025" class="edge">
<title>Node21&#45;&gt;Node25</title>
<g id="a_edge38_Node000021_Node000025"><a xlink:title=" ">
<path fill="none" stroke="#63b8ff" d="M1290.56,-221.25C1293.59,-220.83 1296.58,-220.41 1299.5,-220 1389.72,-207.43 1494.07,-193.2 1559.67,-184.29"/>
<polygon fill="#63b8ff" stroke="#63b8ff" points="1560.42,-187.72 1569.86,-182.9 1559.48,-180.78 1560.42,-187.72"/>
</a>
</g>
</g>
<!-- Node26 -->
<g id="Node000026" class="node">
<title>Node26</title>
<g id="a_Node000026"><a xlink:title=" ">
<polygon fill="#e0e0e0" stroke="#999999" points="1830,-184 1697,-184 1697,-165 1830,-165 1830,-184"/>
<text text-anchor="middle" x="1763.5" y="-172" font-family="Helvetica,sans-Serif" font-size="10.00">QtWidgets/QApplication</text>
</a>
</g>
</g>
<!-- Node21&#45;&gt;Node26 -->
<g id="edge39_Node000021_Node000026" class="edge">
<title>Node21&#45;&gt;Node26</title>
<g id="a_edge39_Node000021_Node000026"><a xlink:title=" ">
<path fill="none" stroke="#63b8ff" d="M1290.54,-221.1C1293.57,-220.71 1296.57,-220.34 1299.5,-220 1468.67,-200.2 1514.07,-201.71 1686.65,-184.17"/>
<polygon fill="#63b8ff" stroke="#63b8ff" points="1687.26,-187.63 1696.85,-183.13 1686.55,-180.66 1687.26,-187.63"/>
</a>
</g>
</g>
</g>
</svg>
