<?xml version="1.0" encoding="UTF-8" standalone="no"?>
<!DOCTYPE svg PUBLIC "-//W3C//DTD SVG 1.1//EN"
 "http://www.w3.org/Graphics/SVG/1.1/DTD/svg11.dtd">
<!-- Generated by graphviz version 2.43.0 (0)
 -->
<!-- Title: src/Settings/AutoConnectSettings.cc Pages: 1 -->
<svg width="1506pt" height="368pt"
 viewBox="0.00 0.00 1505.77 368.00" xmlns="http://www.w3.org/2000/svg" xmlns:xlink="http://www.w3.org/1999/xlink">
<g id="graph0" class="graph" transform="scale(1 1) rotate(0) translate(4 364)">
<title>src/Settings/AutoConnectSettings.cc</title>
<!-- Node1 -->
<g id="Node000001" class="node">
<title>Node1</title>
<g id="a_Node000001"><a xlink:title=" ">
<polygon fill="#999999" stroke="#666666" points="801.5,-360 662.5,-360 662.5,-330 801.5,-330 801.5,-360"/>
<text text-anchor="start" x="670.5" y="-348" font-family="Helvetica,sans-Serif" font-size="10.00">src/Settings/AutoConnect</text>
<text text-anchor="middle" x="732" y="-337" font-family="Helvetica,sans-Serif" font-size="10.00">Settings.cc</text>
</a>
</g>
</g>
<!-- Node2 -->
<g id="Node000002" class="node">
<title>Node2</title>
<g id="a_Node000002"><a xlink:href="AutoConnectSettings_8h.html" target="_top" xlink:title=" ">
<polygon fill="white" stroke="#666666" points="750,-294 622,-294 622,-275 750,-275 750,-294"/>
<text text-anchor="middle" x="686" y="-282" font-family="Helvetica,sans-Serif" font-size="10.00">AutoConnectSettings.h</text>
</a>
</g>
</g>
<!-- Node1&#45;&gt;Node2 -->
<g id="edge1_Node000001_Node000002" class="edge">
<title>Node1&#45;&gt;Node2</title>
<g id="a_edge1_Node000001_Node000002"><a xlink:title=" ">
<path fill="none" stroke="#63b8ff" d="M720.86,-329.84C714.32,-321.52 706.02,-310.96 699.16,-302.23"/>
<polygon fill="#63b8ff" stroke="#63b8ff" points="701.83,-299.96 692.89,-294.27 696.32,-304.29 701.83,-299.96"/>
</a>
</g>
</g>
<!-- Node16 -->
<g id="Node000016" class="node">
<title>Node16</title>
<g id="a_Node000016"><a xlink:href="LinkManager_8h.html" target="_top" xlink:title=" ">
<polygon fill="white" stroke="#666666" points="1061,-184 973,-184 973,-165 1061,-165 1061,-184"/>
<text text-anchor="middle" x="1017" y="-172" font-family="Helvetica,sans-Serif" font-size="10.00">LinkManager.h</text>
</a>
</g>
</g>
<!-- Node1&#45;&gt;Node16 -->
<g id="edge24_Node000001_Node000016" class="edge">
<title>Node1&#45;&gt;Node16</title>
<g id="a_edge24_Node000001_Node000016"><a xlink:title=" ">
<path fill="none" stroke="#63b8ff" d="M755.81,-329.92C809.7,-298.06 940.46,-220.75 993.78,-189.23"/>
<polygon fill="#63b8ff" stroke="#63b8ff" points="995.69,-192.16 1002.52,-184.06 992.13,-186.14 995.69,-192.16"/>
</a>
</g>
</g>
<!-- Node3 -->
<g id="Node000003" class="node">
<title>Node3</title>
<g id="a_Node000003"><a xlink:title=" ">
<polygon fill="#e0e0e0" stroke="#999999" points="778.5,-19 589.5,-19 589.5,0 778.5,0 778.5,-19"/>
<text text-anchor="middle" x="684" y="-7" font-family="Helvetica,sans-Serif" font-size="10.00">QtQmlIntegration/QtQmlIntegration</text>
</a>
</g>
</g>
<!-- Node2&#45;&gt;Node3 -->
<g id="edge2_Node000002_Node000003" class="edge">
<title>Node2&#45;&gt;Node3</title>
<g id="a_edge2_Node000002_Node000003"><a xlink:title=" ">
<path fill="none" stroke="#63b8ff" d="M686,-274.82C686,-256.48 686,-212.44 686,-175.5 686,-175.5 686,-175.5 686,-118.5 686,-87.18 685.15,-50.77 684.56,-29.23"/>
<polygon fill="#63b8ff" stroke="#63b8ff" points="688.05,-29.07 684.27,-19.18 681.06,-29.27 688.05,-29.07"/>
</a>
</g>
</g>
<!-- Node4 -->
<g id="Node000004" class="node">
<title>Node4</title>
<g id="a_Node000004"><a xlink:href="SettingsGroup_8h.html" target="_top" xlink:title=" ">
<polygon fill="white" stroke="#666666" points="657.5,-239 562.5,-239 562.5,-220 657.5,-220 657.5,-239"/>
<text text-anchor="middle" x="610" y="-227" font-family="Helvetica,sans-Serif" font-size="10.00">SettingsGroup.h</text>
</a>
</g>
</g>
<!-- Node2&#45;&gt;Node4 -->
<g id="edge3_Node000002_Node000004" class="edge">
<title>Node2&#45;&gt;Node4</title>
<g id="a_edge3_Node000002_Node000004"><a xlink:title=" ">
<path fill="none" stroke="#63b8ff" d="M673.79,-274.98C662.22,-266.92 644.62,-254.65 630.84,-245.03"/>
<polygon fill="#63b8ff" stroke="#63b8ff" points="632.64,-242.02 622.43,-239.17 628.63,-247.76 632.64,-242.02"/>
</a>
</g>
</g>
<!-- Node5 -->
<g id="Node000005" class="node">
<title>Node5</title>
<g id="a_Node000005"><a xlink:href="SettingsFact_8h.html" target="_top" xlink:title=" ">
<polygon fill="white" stroke="#666666" points="652.5,-184 567.5,-184 567.5,-165 652.5,-165 652.5,-184"/>
<text text-anchor="middle" x="610" y="-172" font-family="Helvetica,sans-Serif" font-size="10.00">SettingsFact.h</text>
</a>
</g>
</g>
<!-- Node4&#45;&gt;Node5 -->
<g id="edge4_Node000004_Node000005" class="edge">
<title>Node4&#45;&gt;Node5</title>
<g id="a_edge4_Node000004_Node000005"><a xlink:title=" ">
<path fill="none" stroke="#63b8ff" d="M610,-219.75C610,-212.8 610,-202.85 610,-194.13"/>
<polygon fill="#63b8ff" stroke="#63b8ff" points="613.5,-194.09 610,-184.09 606.5,-194.09 613.5,-194.09"/>
</a>
</g>
</g>
<!-- Node6 -->
<g id="Node000006" class="node">
<title>Node6</title>
<g id="a_Node000006"><a xlink:title=" ">
<polygon fill="#e0e0e0" stroke="#999999" points="1058.5,-19 915.5,-19 915.5,0 1058.5,0 1058.5,-19"/>
<text text-anchor="middle" x="987" y="-7" font-family="Helvetica,sans-Serif" font-size="10.00">QtCore/QLoggingCategory</text>
</a>
</g>
</g>
<!-- Node5&#45;&gt;Node6 -->
<g id="edge5_Node000005_Node000006" class="edge">
<title>Node5&#45;&gt;Node6</title>
<g id="a_edge5_Node000005_Node000006"><a xlink:title=" ">
<path fill="none" stroke="#63b8ff" d="M652.57,-172.04C729.04,-168.69 885.92,-158.37 931,-129 965.53,-106.5 979.23,-56.52 984.29,-29.21"/>
<polygon fill="#63b8ff" stroke="#63b8ff" points="987.8,-29.47 985.97,-19.04 980.89,-28.33 987.8,-29.47"/>
</a>
</g>
</g>
<!-- Node7 -->
<g id="Node000007" class="node">
<title>Node7</title>
<g id="a_Node000007"><a xlink:title=" ">
<polygon fill="#e0e0e0" stroke="#999999" points="92,-19 0,-19 0,0 92,0 92,-19"/>
<text text-anchor="middle" x="46" y="-7" font-family="Helvetica,sans-Serif" font-size="10.00">QtCore/QObject</text>
</a>
</g>
</g>
<!-- Node5&#45;&gt;Node7 -->
<g id="edge6_Node000005_Node000007" class="edge">
<title>Node5&#45;&gt;Node7</title>
<g id="a_edge6_Node000005_Node000007"><a xlink:title=" ">
<path fill="none" stroke="#63b8ff" d="M567.39,-169.33C458.67,-158.06 173.97,-124.4 95,-74 77.26,-62.68 63.39,-42.59 55,-28.04"/>
<polygon fill="#63b8ff" stroke="#63b8ff" points="57.95,-26.13 50.09,-19.02 51.8,-29.48 57.95,-26.13"/>
</a>
</g>
</g>
<!-- Node8 -->
<g id="Node000008" class="node">
<title>Node8</title>
<g id="a_Node000008"><a xlink:title=" ">
<polygon fill="#e0e0e0" stroke="#999999" points="570.5,-19 481.5,-19 481.5,0 570.5,0 570.5,-19"/>
<text text-anchor="middle" x="526" y="-7" font-family="Helvetica,sans-Serif" font-size="10.00">QtCore/QString</text>
</a>
</g>
</g>
<!-- Node5&#45;&gt;Node8 -->
<g id="edge7_Node000005_Node000008" class="edge">
<title>Node5&#45;&gt;Node8</title>
<g id="a_edge7_Node000005_Node000008"><a xlink:title=" ">
<path fill="none" stroke="#63b8ff" d="M614.97,-164.91C626.26,-144.15 651.14,-90.34 628,-55 617.14,-38.41 598.6,-27.97 580.28,-21.42"/>
<polygon fill="#63b8ff" stroke="#63b8ff" points="581.35,-18.09 570.76,-18.33 579.19,-24.75 581.35,-18.09"/>
</a>
</g>
</g>
<!-- Node9 -->
<g id="Node000009" class="node">
<title>Node9</title>
<g id="a_Node000009"><a xlink:href="Fact_8h.html" target="_top" xlink:title=" ">
<polygon fill="white" stroke="#666666" points="392.5,-129 347.5,-129 347.5,-110 392.5,-110 392.5,-129"/>
<text text-anchor="middle" x="370" y="-117" font-family="Helvetica,sans-Serif" font-size="10.00">Fact.h</text>
</a>
</g>
</g>
<!-- Node5&#45;&gt;Node9 -->
<g id="edge8_Node000005_Node000009" class="edge">
<title>Node5&#45;&gt;Node9</title>
<g id="a_edge8_Node000005_Node000009"><a xlink:title=" ">
<path fill="none" stroke="#63b8ff" d="M571.44,-164.98C524.58,-154.64 446.35,-137.36 402.44,-127.66"/>
<polygon fill="#63b8ff" stroke="#63b8ff" points="403.09,-124.22 392.58,-125.49 401.59,-131.06 403.09,-124.22"/>
</a>
</g>
</g>
<!-- Node9&#45;&gt;Node3 -->
<g id="edge15_Node000009_Node000003" class="edge">
<title>Node9&#45;&gt;Node3</title>
<g id="a_edge15_Node000009_Node000003"><a xlink:title=" ">
<path fill="none" stroke="#63b8ff" d="M385.42,-109.82C414.73,-93.38 476.51,-58.95 487,-55 529.03,-39.2 578.3,-28.07 617.06,-20.89"/>
<polygon fill="#63b8ff" stroke="#63b8ff" points="617.96,-24.28 627.18,-19.06 616.72,-17.4 617.96,-24.28"/>
</a>
</g>
</g>
<!-- Node9&#45;&gt;Node6 -->
<g id="edge9_Node000009_Node000006" class="edge">
<title>Node9&#45;&gt;Node6</title>
<g id="a_edge9_Node000009_Node000006"><a xlink:title=" ">
<path fill="none" stroke="#63b8ff" d="M392.73,-117.75C478.37,-114.72 781.24,-102.21 873,-74 908.43,-63.11 945.14,-40.2 967.02,-25.08"/>
<polygon fill="#63b8ff" stroke="#63b8ff" points="969.29,-27.76 975.44,-19.14 965.26,-22.05 969.29,-27.76"/>
</a>
</g>
</g>
<!-- Node9&#45;&gt;Node7 -->
<g id="edge11_Node000009_Node000007" class="edge">
<title>Node9&#45;&gt;Node7</title>
<g id="a_edge11_Node000009_Node000007"><a xlink:title=" ">
<path fill="none" stroke="#63b8ff" d="M347.37,-117.62C303.89,-115.23 206.39,-106.37 132,-74 105.04,-62.27 78.52,-40.75 62.22,-26.04"/>
<polygon fill="#63b8ff" stroke="#63b8ff" points="64.39,-23.28 54.67,-19.06 59.64,-28.42 64.39,-23.28"/>
</a>
</g>
</g>
<!-- Node9&#45;&gt;Node8 -->
<g id="edge13_Node000009_Node000008" class="edge">
<title>Node9&#45;&gt;Node8</title>
<g id="a_edge13_Node000009_Node000008"><a xlink:title=" ">
<path fill="none" stroke="#63b8ff" d="M347.4,-111.3C317.54,-100.64 270.91,-79.26 291,-55 296.77,-48.03 403.63,-29.92 471.24,-19.07"/>
<polygon fill="#63b8ff" stroke="#63b8ff" points="472,-22.5 481.32,-17.46 470.9,-15.59 472,-22.5"/>
</a>
</g>
</g>
<!-- Node10 -->
<g id="Node000010" class="node">
<title>Node10</title>
<g id="a_Node000010"><a xlink:title=" ">
<polygon fill="#e0e0e0" stroke="#999999" points="619.5,-74 496.5,-74 496.5,-55 619.5,-55 619.5,-74"/>
<text text-anchor="middle" x="558" y="-62" font-family="Helvetica,sans-Serif" font-size="10.00">QtCore/QMutexLocker</text>
</a>
</g>
</g>
<!-- Node9&#45;&gt;Node10 -->
<g id="edge10_Node000009_Node000010" class="edge">
<title>Node9&#45;&gt;Node10</title>
<g id="a_edge10_Node000009_Node000010"><a xlink:title=" ">
<path fill="none" stroke="#63b8ff" d="M392.68,-112.11C423.7,-103.36 479.85,-87.53 518.02,-76.77"/>
<polygon fill="#63b8ff" stroke="#63b8ff" points="519.11,-80.1 527.79,-74.02 517.22,-73.36 519.11,-80.1"/>
</a>
</g>
</g>
<!-- Node11 -->
<g id="Node000011" class="node">
<title>Node11</title>
<g id="a_Node000011"><a xlink:title=" ">
<polygon fill="#e0e0e0" stroke="#999999" points="440,-74 300,-74 300,-55 440,-55 440,-74"/>
<text text-anchor="middle" x="370" y="-62" font-family="Helvetica,sans-Serif" font-size="10.00">QtCore/QRecursiveMutex</text>
</a>
</g>
</g>
<!-- Node9&#45;&gt;Node11 -->
<g id="edge12_Node000009_Node000011" class="edge">
<title>Node9&#45;&gt;Node11</title>
<g id="a_edge12_Node000009_Node000011"><a xlink:title=" ">
<path fill="none" stroke="#63b8ff" d="M370,-109.75C370,-102.8 370,-92.85 370,-84.13"/>
<polygon fill="#63b8ff" stroke="#63b8ff" points="373.5,-84.09 370,-74.09 366.5,-84.09 373.5,-84.09"/>
</a>
</g>
</g>
<!-- Node12 -->
<g id="Node000012" class="node">
<title>Node12</title>
<g id="a_Node000012"><a xlink:title=" ">
<polygon fill="#e0e0e0" stroke="#999999" points="205.5,-19 110.5,-19 110.5,0 205.5,0 205.5,-19"/>
<text text-anchor="middle" x="158" y="-7" font-family="Helvetica,sans-Serif" font-size="10.00">QtCore/QVariant</text>
</a>
</g>
</g>
<!-- Node9&#45;&gt;Node12 -->
<g id="edge14_Node000009_Node000012" class="edge">
<title>Node9&#45;&gt;Node12</title>
<g id="a_edge14_Node000009_Node000012"><a xlink:title=" ">
<path fill="none" stroke="#63b8ff" d="M347.2,-117.61C294.56,-115.02 167.02,-105.56 141,-74 130.27,-60.98 137.6,-41.81 145.72,-27.95"/>
<polygon fill="#63b8ff" stroke="#63b8ff" points="148.79,-29.64 151.25,-19.33 142.9,-25.86 148.79,-29.64"/>
</a>
</g>
</g>
<!-- Node13 -->
<g id="Node000013" class="node">
<title>Node13</title>
<g id="a_Node000013"><a xlink:href="FactMetaData_8h.html" target="_top" xlink:title=" ">
<polygon fill="white" stroke="#666666" points="243.5,-74 150.5,-74 150.5,-55 243.5,-55 243.5,-74"/>
<text text-anchor="middle" x="197" y="-62" font-family="Helvetica,sans-Serif" font-size="10.00">FactMetaData.h</text>
</a>
</g>
</g>
<!-- Node9&#45;&gt;Node13 -->
<g id="edge16_Node000009_Node000013" class="edge">
<title>Node9&#45;&gt;Node13</title>
<g id="a_edge16_Node000009_Node000013"><a xlink:title=" ">
<path fill="none" stroke="#63b8ff" d="M347.38,-111.57C318.71,-102.79 268.87,-87.52 234.47,-76.98"/>
<polygon fill="#63b8ff" stroke="#63b8ff" points="235.36,-73.59 224.77,-74.01 233.31,-80.28 235.36,-73.59"/>
</a>
</g>
</g>
<!-- Node13&#45;&gt;Node3 -->
<g id="edge23_Node000013_Node000003" class="edge">
<title>Node13&#45;&gt;Node3</title>
<g id="a_edge23_Node000013_Node000003"><a xlink:title=" ">
<path fill="none" stroke="#63b8ff" d="M243.7,-58.42C324.57,-49.62 491.94,-31.4 595.44,-20.14"/>
<polygon fill="#63b8ff" stroke="#63b8ff" points="595.99,-23.6 605.56,-19.04 595.24,-16.64 595.99,-23.6"/>
</a>
</g>
</g>
<!-- Node13&#45;&gt;Node6 -->
<g id="edge17_Node000013_Node000006" class="edge">
<title>Node13&#45;&gt;Node6</title>
<g id="a_edge17_Node000013_Node000006"><a xlink:title=" ">
<path fill="none" stroke="#63b8ff" d="M243.83,-58.97C258.89,-57.59 275.64,-56.14 291,-55 561.15,-34.9 631.96,-41.33 905.26,-19.11"/>
<polygon fill="#63b8ff" stroke="#63b8ff" points="905.81,-22.57 915.49,-18.27 905.23,-15.6 905.81,-22.57"/>
</a>
</g>
</g>
<!-- Node13&#45;&gt;Node7 -->
<g id="edge20_Node000013_Node000007" class="edge">
<title>Node13&#45;&gt;Node7</title>
<g id="a_edge20_Node000013_Node000007"><a xlink:title=" ">
<path fill="none" stroke="#63b8ff" d="M172.74,-54.98C147.68,-46.19 108.37,-32.39 80.17,-22.49"/>
<polygon fill="#63b8ff" stroke="#63b8ff" points="81.3,-19.18 70.7,-19.17 78.98,-25.78 81.3,-19.18"/>
</a>
</g>
</g>
<!-- Node13&#45;&gt;Node8 -->
<g id="edge21_Node000013_Node000008" class="edge">
<title>Node13&#45;&gt;Node8</title>
<g id="a_edge21_Node000013_Node000008"><a xlink:title=" ">
<path fill="none" stroke="#63b8ff" d="M243.79,-55.96C303.78,-46.3 407.64,-29.57 471.25,-19.32"/>
<polygon fill="#63b8ff" stroke="#63b8ff" points="472.16,-22.72 481.48,-17.67 471.05,-15.81 472.16,-22.72"/>
</a>
</g>
</g>
<!-- Node13&#45;&gt;Node12 -->
<g id="edge22_Node000013_Node000012" class="edge">
<title>Node13&#45;&gt;Node12</title>
<g id="a_edge22_Node000013_Node000012"><a xlink:title=" ">
<path fill="none" stroke="#63b8ff" d="M190.56,-54.75C185.11,-47.34 177.14,-36.5 170.44,-27.41"/>
<polygon fill="#63b8ff" stroke="#63b8ff" points="173.07,-25.07 164.32,-19.09 167.43,-29.22 173.07,-25.07"/>
</a>
</g>
</g>
<!-- Node14 -->
<g id="Node000014" class="node">
<title>Node14</title>
<g id="a_Node000014"><a xlink:title=" ">
<polygon fill="#e0e0e0" stroke="#999999" points="330.5,-19 223.5,-19 223.5,0 330.5,0 330.5,-19"/>
<text text-anchor="middle" x="277" y="-7" font-family="Helvetica,sans-Serif" font-size="10.00">QtCore/QJsonArray</text>
</a>
</g>
</g>
<!-- Node13&#45;&gt;Node14 -->
<g id="edge18_Node000013_Node000014" class="edge">
<title>Node13&#45;&gt;Node14</title>
<g id="a_edge18_Node000013_Node000014"><a xlink:title=" ">
<path fill="none" stroke="#63b8ff" d="M209.85,-54.98C222.14,-46.84 240.91,-34.41 255.48,-24.76"/>
<polygon fill="#63b8ff" stroke="#63b8ff" points="257.51,-27.61 263.91,-19.17 253.64,-21.78 257.51,-27.61"/>
</a>
</g>
</g>
<!-- Node15 -->
<g id="Node000015" class="node">
<title>Node15</title>
<g id="a_Node000015"><a xlink:title=" ">
<polygon fill="#e0e0e0" stroke="#999999" points="461.5,-19 348.5,-19 348.5,0 461.5,0 461.5,-19"/>
<text text-anchor="middle" x="405" y="-7" font-family="Helvetica,sans-Serif" font-size="10.00">QtCore/QJsonObject</text>
</a>
</g>
</g>
<!-- Node13&#45;&gt;Node15 -->
<g id="edge19_Node000013_Node000015" class="edge">
<title>Node13&#45;&gt;Node15</title>
<g id="a_edge19_Node000013_Node000015"><a xlink:title=" ">
<path fill="none" stroke="#63b8ff" d="M230.42,-54.98C265.94,-45.93 322.27,-31.58 361.3,-21.64"/>
<polygon fill="#63b8ff" stroke="#63b8ff" points="362.49,-24.94 371.32,-19.08 360.76,-18.16 362.49,-24.94"/>
</a>
</g>
</g>
<!-- Node16&#45;&gt;Node3 -->
<g id="edge30_Node000016_Node000003" class="edge">
<title>Node16&#45;&gt;Node3</title>
<g id="a_edge30_Node000016_Node000003"><a xlink:title=" ">
<path fill="none" stroke="#63b8ff" d="M972.74,-170.32C929.18,-165.78 861.7,-154.88 809,-129 759.54,-104.71 716.52,-53.99 696.29,-27.47"/>
<polygon fill="#63b8ff" stroke="#63b8ff" points="698.9,-25.11 690.11,-19.19 693.28,-29.3 698.9,-25.11"/>
</a>
</g>
</g>
<!-- Node16&#45;&gt;Node6 -->
<g id="edge26_Node000016_Node000006" class="edge">
<title>Node16&#45;&gt;Node6</title>
<g id="a_edge26_Node000016_Node000006"><a xlink:title=" ">
<path fill="none" stroke="#63b8ff" d="M1061.18,-172.69C1173.86,-170.18 1465.15,-160.66 1494,-129 1499.69,-122.76 1497.72,-117.58 1494,-110 1476.43,-74.16 1460.06,-69.82 1423,-55 1360.63,-30.06 1176.91,-18.36 1068.89,-13.49"/>
<polygon fill="#63b8ff" stroke="#63b8ff" points="1068.82,-9.99 1058.68,-13.04 1068.51,-16.98 1068.82,-9.99"/>
</a>
</g>
</g>
<!-- Node16&#45;&gt;Node10 -->
<g id="edge28_Node000016_Node000010" class="edge">
<title>Node16&#45;&gt;Node10</title>
<g id="a_edge28_Node000016_Node000010"><a xlink:title=" ">
<path fill="none" stroke="#63b8ff" d="M972.77,-168.37C919.1,-161.65 826.1,-148.38 748,-129 691.23,-114.91 627.04,-91.93 589.69,-77.82"/>
<polygon fill="#63b8ff" stroke="#63b8ff" points="590.49,-74.37 579.89,-74.09 587.99,-80.92 590.49,-74.37"/>
</a>
</g>
</g>
<!-- Node17 -->
<g id="Node000017" class="node">
<title>Node17</title>
<g id="a_Node000017"><a xlink:title=" ">
<polygon fill="#e0e0e0" stroke="#999999" points="1056,-129 978,-129 978,-110 1056,-110 1056,-129"/>
<text text-anchor="middle" x="1017" y="-117" font-family="Helvetica,sans-Serif" font-size="10.00">QtCore/QList</text>
</a>
</g>
</g>
<!-- Node16&#45;&gt;Node17 -->
<g id="edge25_Node000016_Node000017" class="edge">
<title>Node16&#45;&gt;Node17</title>
<g id="a_edge25_Node000016_Node000017"><a xlink:title=" ">
<path fill="none" stroke="#63b8ff" d="M1017,-164.75C1017,-157.8 1017,-147.85 1017,-139.13"/>
<polygon fill="#63b8ff" stroke="#63b8ff" points="1020.5,-139.09 1017,-129.09 1013.5,-139.09 1020.5,-139.09"/>
</a>
</g>
</g>
<!-- Node18 -->
<g id="Node000018" class="node">
<title>Node18</title>
<g id="a_Node000018"><a xlink:title=" ">
<polygon fill="#e0e0e0" stroke="#999999" points="1166,-129 1074,-129 1074,-110 1166,-110 1166,-129"/>
<text text-anchor="middle" x="1120" y="-117" font-family="Helvetica,sans-Serif" font-size="10.00">QtCore/QMutex</text>
</a>
</g>
</g>
<!-- Node16&#45;&gt;Node18 -->
<g id="edge27_Node000016_Node000018" class="edge">
<title>Node16&#45;&gt;Node18</title>
<g id="a_edge27_Node000016_Node000018"><a xlink:title=" ">
<path fill="none" stroke="#63b8ff" d="M1033.55,-164.98C1049.89,-156.57 1075.13,-143.59 1094.13,-133.81"/>
<polygon fill="#63b8ff" stroke="#63b8ff" points="1095.86,-136.86 1103.15,-129.17 1092.66,-130.63 1095.86,-136.86"/>
</a>
</g>
</g>
<!-- Node19 -->
<g id="Node000019" class="node">
<title>Node19</title>
<g id="a_Node000019"><a xlink:title=" ">
<polygon fill="#e0e0e0" stroke="#999999" points="1291.5,-129 1184.5,-129 1184.5,-110 1291.5,-110 1291.5,-129"/>
<text text-anchor="middle" x="1238" y="-117" font-family="Helvetica,sans-Serif" font-size="10.00">QtCore/QStringList</text>
</a>
</g>
</g>
<!-- Node16&#45;&gt;Node19 -->
<g id="edge29_Node000016_Node000019" class="edge">
<title>Node16&#45;&gt;Node19</title>
<g id="a_edge29_Node000016_Node000019"><a xlink:title=" ">
<path fill="none" stroke="#63b8ff" d="M1052.51,-164.98C1090.49,-155.87 1150.87,-141.4 1192.36,-131.45"/>
<polygon fill="#63b8ff" stroke="#63b8ff" points="1193.31,-134.82 1202.21,-129.08 1191.67,-128.01 1193.31,-134.82"/>
</a>
</g>
</g>
<!-- Node20 -->
<g id="Node000020" class="node">
<title>Node20</title>
<g id="a_Node000020"><a xlink:title=" ">
<polygon fill="#e0e0e0" stroke="#999999" points="1485,-129 1441,-129 1441,-110 1485,-110 1485,-129"/>
<text text-anchor="middle" x="1463" y="-117" font-family="Helvetica,sans-Serif" font-size="10.00">limits</text>
</a>
</g>
</g>
<!-- Node16&#45;&gt;Node20 -->
<g id="edge31_Node000016_Node000020" class="edge">
<title>Node16&#45;&gt;Node20</title>
<g id="a_edge31_Node000016_Node000020"><a xlink:title=" ">
<path fill="none" stroke="#63b8ff" d="M1061.26,-171.1C1135.72,-166.55 1290.84,-154.89 1430.71,-128.95"/>
<polygon fill="#63b8ff" stroke="#63b8ff" points="1431.57,-132.35 1440.75,-127.06 1430.27,-125.47 1431.57,-132.35"/>
</a>
</g>
</g>
<!-- Node21 -->
<g id="Node000021" class="node">
<title>Node21</title>
<g id="a_Node000021"><a xlink:href="LinkConfiguration_8h.html" target="_top" xlink:title=" ">
<polygon fill="white" stroke="#666666" points="863.5,-74 752.5,-74 752.5,-55 863.5,-55 863.5,-74"/>
<text text-anchor="middle" x="808" y="-62" font-family="Helvetica,sans-Serif" font-size="10.00">LinkConfiguration.h</text>
</a>
</g>
</g>
<!-- Node16&#45;&gt;Node21 -->
<g id="edge32_Node000016_Node000021" class="edge">
<title>Node16&#45;&gt;Node21</title>
<g id="a_edge32_Node000016_Node000021"><a xlink:title=" ">
<path fill="none" stroke="#63b8ff" d="M972.92,-168.68C922.67,-162.29 844.81,-149.4 824,-129 812.21,-117.45 808.65,-98.57 807.77,-84.4"/>
<polygon fill="#63b8ff" stroke="#63b8ff" points="811.27,-84.19 807.54,-74.27 804.27,-84.35 811.27,-84.19"/>
</a>
</g>
</g>
<!-- Node23 -->
<g id="Node000023" class="node">
<title>Node23</title>
<g id="a_Node000023"><a xlink:href="LinkInterface_8h.html" target="_top" xlink:title=" ">
<polygon fill="white" stroke="#666666" points="921.5,-129 832.5,-129 832.5,-110 921.5,-110 921.5,-129"/>
<text text-anchor="middle" x="877" y="-117" font-family="Helvetica,sans-Serif" font-size="10.00">LinkInterface.h</text>
</a>
</g>
</g>
<!-- Node16&#45;&gt;Node23 -->
<g id="edge37_Node000016_Node000023" class="edge">
<title>Node16&#45;&gt;Node23</title>
<g id="a_edge37_Node000016_Node000023"><a xlink:title=" ">
<path fill="none" stroke="#63b8ff" d="M994.51,-164.98C971.48,-156.27 935.46,-142.63 909.37,-132.75"/>
<polygon fill="#63b8ff" stroke="#63b8ff" points="910.49,-129.44 899.9,-129.17 908.02,-135.98 910.49,-129.44"/>
</a>
</g>
</g>
<!-- Node24 -->
<g id="Node000024" class="node">
<title>Node24</title>
<g id="a_Node000024"><a xlink:href="QGCSerialPortInfo_8h.html" target="_top" xlink:title=" ">
<polygon fill="white" stroke="#666666" points="1422.5,-129 1309.5,-129 1309.5,-110 1422.5,-110 1422.5,-129"/>
<text text-anchor="middle" x="1366" y="-117" font-family="Helvetica,sans-Serif" font-size="10.00">QGCSerialPortInfo.h</text>
</a>
</g>
</g>
<!-- Node16&#45;&gt;Node24 -->
<g id="edge41_Node000016_Node000024" class="edge">
<title>Node16&#45;&gt;Node24</title>
<g id="a_edge41_Node000016_Node000024"><a xlink:title=" ">
<path fill="none" stroke="#63b8ff" d="M1061.2,-166.79C1121.43,-157.64 1229.76,-141.19 1299.73,-130.56"/>
<polygon fill="#63b8ff" stroke="#63b8ff" points="1300.41,-134 1309.77,-129.04 1299.36,-127.08 1300.41,-134"/>
</a>
</g>
</g>
<!-- Node21&#45;&gt;Node3 -->
<g id="edge36_Node000021_Node000003" class="edge">
<title>Node21&#45;&gt;Node3</title>
<g id="a_edge36_Node000021_Node000003"><a xlink:title=" ">
<path fill="none" stroke="#63b8ff" d="M788.08,-54.98C767.95,-46.38 736.62,-32.99 713.59,-23.15"/>
<polygon fill="#63b8ff" stroke="#63b8ff" points="714.86,-19.88 704.29,-19.17 712.1,-26.32 714.86,-19.88"/>
</a>
</g>
</g>
<!-- Node21&#45;&gt;Node6 -->
<g id="edge33_Node000021_Node000006" class="edge">
<title>Node21&#45;&gt;Node6</title>
<g id="a_edge33_Node000021_Node000006"><a xlink:title=" ">
<path fill="none" stroke="#63b8ff" d="M836.76,-54.98C866.94,-46.05 914.57,-31.94 948.1,-22.02"/>
<polygon fill="#63b8ff" stroke="#63b8ff" points="949.42,-25.28 958.02,-19.08 947.43,-18.57 949.42,-25.28"/>
</a>
</g>
</g>
<!-- Node21&#45;&gt;Node8 -->
<g id="edge35_Node000021_Node000008" class="edge">
<title>Node21&#45;&gt;Node8</title>
<g id="a_edge35_Node000021_Node000008"><a xlink:title=" ">
<path fill="none" stroke="#63b8ff" d="M762.69,-54.98C713.11,-45.67 633.63,-30.73 580.63,-20.77"/>
<polygon fill="#63b8ff" stroke="#63b8ff" points="581.2,-17.31 570.73,-18.91 579.91,-24.19 581.2,-17.31"/>
</a>
</g>
</g>
<!-- Node22 -->
<g id="Node000022" class="node">
<title>Node22</title>
<g id="a_Node000022"><a xlink:title=" ">
<polygon fill="#e0e0e0" stroke="#999999" points="897.5,-19 796.5,-19 796.5,0 897.5,0 897.5,-19"/>
<text text-anchor="middle" x="847" y="-7" font-family="Helvetica,sans-Serif" font-size="10.00">QtCore/QSettings</text>
</a>
</g>
</g>
<!-- Node21&#45;&gt;Node22 -->
<g id="edge34_Node000021_Node000022" class="edge">
<title>Node21&#45;&gt;Node22</title>
<g id="a_edge34_Node000021_Node000022"><a xlink:title=" ">
<path fill="none" stroke="#63b8ff" d="M814.44,-54.75C819.89,-47.34 827.86,-36.5 834.56,-27.41"/>
<polygon fill="#63b8ff" stroke="#63b8ff" points="837.57,-29.22 840.68,-19.09 831.93,-25.07 837.57,-29.22"/>
</a>
</g>
</g>
<!-- Node23&#45;&gt;Node3 -->
<g id="edge39_Node000023_Node000003" class="edge">
<title>Node23&#45;&gt;Node3</title>
<g id="a_edge39_Node000023_Node000003"><a xlink:title=" ">
<path fill="none" stroke="#63b8ff" d="M879.34,-109.94C882.44,-96.54 886.11,-70.53 873,-55 859.2,-38.66 812.66,-27.59 769.22,-20.57"/>
<polygon fill="#63b8ff" stroke="#63b8ff" points="769.56,-17.09 759.15,-19.01 768.49,-24 769.56,-17.09"/>
</a>
</g>
</g>
<!-- Node23&#45;&gt;Node6 -->
<g id="edge38_Node000023_Node000006" class="edge">
<title>Node23&#45;&gt;Node6</title>
<g id="a_edge38_Node000023_Node000006"><a xlink:title=" ">
<path fill="none" stroke="#63b8ff" d="M893.44,-109.99C907.86,-102 928.83,-89.04 944,-74 957.85,-60.27 969.93,-41.47 977.73,-27.89"/>
<polygon fill="#63b8ff" stroke="#63b8ff" points="980.83,-29.52 982.61,-19.07 974.7,-26.12 980.83,-29.52"/>
</a>
</g>
</g>
<!-- Node23&#45;&gt;Node21 -->
<g id="edge40_Node000023_Node000021" class="edge">
<title>Node23&#45;&gt;Node21</title>
<g id="a_edge40_Node000023_Node000021"><a xlink:title=" ">
<path fill="none" stroke="#63b8ff" d="M865.91,-109.98C855.51,-102 839.74,-89.88 827.28,-80.31"/>
<polygon fill="#63b8ff" stroke="#63b8ff" points="829.35,-77.49 819.29,-74.17 825.09,-83.04 829.35,-77.49"/>
</a>
</g>
</g>
<!-- Node24&#45;&gt;Node6 -->
<g id="edge42_Node000024_Node000006" class="edge">
<title>Node24&#45;&gt;Node6</title>
<g id="a_edge42_Node000024_Node000006"><a xlink:title=" ">
<path fill="none" stroke="#63b8ff" d="M1378.59,-109.89C1395.81,-97.09 1422.89,-72.66 1407,-55 1384.86,-30.39 1185.04,-18.36 1069.17,-13.41"/>
<polygon fill="#63b8ff" stroke="#63b8ff" points="1069.06,-9.9 1058.92,-12.98 1068.76,-16.89 1069.06,-9.9"/>
</a>
</g>
</g>
<!-- Node25 -->
<g id="Node000025" class="node">
<title>Node25</title>
<g id="a_Node000025"><a xlink:title=" ">
<polygon fill="#e0e0e0" stroke="#999999" points="1397.5,-74 1248.5,-74 1248.5,-55 1397.5,-55 1397.5,-74"/>
<text text-anchor="middle" x="1323" y="-62" font-family="Helvetica,sans-Serif" font-size="10.00">QtCore/QtSystemDetection</text>
</a>
</g>
</g>
<!-- Node24&#45;&gt;Node25 -->
<g id="edge43_Node000024_Node000025" class="edge">
<title>Node24&#45;&gt;Node25</title>
<g id="a_edge43_Node000024_Node000025"><a xlink:title=" ">
<path fill="none" stroke="#63b8ff" d="M1358.9,-109.75C1352.83,-102.26 1343.91,-91.28 1336.49,-82.13"/>
<polygon fill="#63b8ff" stroke="#63b8ff" points="1338.99,-79.65 1329.97,-74.09 1333.55,-84.06 1338.99,-79.65"/>
</a>
</g>
</g>
<!-- Node26 -->
<g id="Node000026" class="node">
<title>Node26</title>
<g id="a_Node000026"><a xlink:title=" ">
<polygon fill="#e0e0e0" stroke="#999999" points="1230,-74 1078,-74 1078,-55 1230,-55 1230,-74"/>
<text text-anchor="middle" x="1154" y="-62" font-family="Helvetica,sans-Serif" font-size="10.00">QtSerialPort/QSerialPortInfo</text>
</a>
</g>
</g>
<!-- Node24&#45;&gt;Node26 -->
<g id="edge44_Node000024_Node000026" class="edge">
<title>Node24&#45;&gt;Node26</title>
<g id="a_edge44_Node000024_Node000026"><a xlink:title=" ">
<path fill="none" stroke="#63b8ff" d="M1331.94,-109.98C1295.58,-100.89 1237.83,-86.46 1198.03,-76.51"/>
<polygon fill="#63b8ff" stroke="#63b8ff" points="1198.88,-73.11 1188.33,-74.08 1197.18,-79.9 1198.88,-73.11"/>
</a>
</g>
</g>
</g>
</svg>
