<?xml version="1.0" encoding="UTF-8" standalone="no"?>
<!DOCTYPE svg PUBLIC "-//W3C//DTD SVG 1.1//EN"
 "http://www.w3.org/Graphics/SVG/1.1/DTD/svg11.dtd">
<!-- Generated by graphviz version 2.43.0 (0)
 -->
<!-- Title: src/Vehicle/Autotune.cpp Pages: 1 -->
<svg width="1813pt" height="357pt"
 viewBox="0.00 0.00 1813.00 357.00" xmlns="http://www.w3.org/2000/svg" xmlns:xlink="http://www.w3.org/1999/xlink">
<g id="graph0" class="graph" transform="scale(1 1) rotate(0) translate(4 353)">
<title>src/Vehicle/Autotune.cpp</title>
<!-- Node1 -->
<g id="Node000001" class="node">
<title>Node1</title>
<g id="a_Node000001"><a xlink:title=" ">
<polygon fill="#999999" stroke="#666666" points="779.5,-349 642.5,-349 642.5,-330 779.5,-330 779.5,-349"/>
<text text-anchor="middle" x="711" y="-337" font-family="Helvetica,sans-Serif" font-size="10.00">src/Vehicle/Autotune.cpp</text>
</a>
</g>
</g>
<!-- Node2 -->
<g id="Node000002" class="node">
<title>Node2</title>
<g id="a_Node000002"><a xlink:href="Autotune_8h.html" target="_top" xlink:title=" ">
<polygon fill="white" stroke="#666666" points="295,-239 225,-239 225,-220 295,-220 295,-239"/>
<text text-anchor="middle" x="260" y="-227" font-family="Helvetica,sans-Serif" font-size="10.00">Autotune.h</text>
</a>
</g>
</g>
<!-- Node1&#45;&gt;Node2 -->
<g id="edge1_Node000001_Node000002" class="edge">
<title>Node1&#45;&gt;Node2</title>
<g id="a_edge1_Node000001_Node000002"><a xlink:title=" ">
<path fill="none" stroke="#63b8ff" d="M675.23,-329.94C593.79,-310.43 394.64,-262.74 305.01,-241.28"/>
<polygon fill="#63b8ff" stroke="#63b8ff" points="305.69,-237.84 295.15,-238.92 304.06,-244.65 305.69,-237.84"/>
</a>
</g>
</g>
<!-- Node12 -->
<g id="Node000012" class="node">
<title>Node12</title>
<g id="a_Node000012"><a xlink:href="MAVLinkLib_8h.html" target="_top" xlink:title=" ">
<polygon fill="white" stroke="#666666" points="192,-294 110,-294 110,-275 192,-275 192,-294"/>
<text text-anchor="middle" x="151" y="-282" font-family="Helvetica,sans-Serif" font-size="10.00">MAVLinkLib.h</text>
</a>
</g>
</g>
<!-- Node1&#45;&gt;Node12 -->
<g id="edge12_Node000001_Node000012" class="edge">
<title>Node1&#45;&gt;Node12</title>
<g id="a_edge12_Node000001_Node000012"><a xlink:title=" ">
<path fill="none" stroke="#63b8ff" d="M642.33,-332C528.54,-321.23 303.41,-299.92 202.29,-290.35"/>
<polygon fill="#63b8ff" stroke="#63b8ff" points="202.61,-286.87 192.32,-289.41 201.95,-293.84 202.61,-286.87"/>
</a>
</g>
</g>
<!-- Node15 -->
<g id="Node000015" class="node">
<title>Node15</title>
<g id="a_Node000015"><a xlink:href="QGC_8h.html" target="_top" xlink:title=" ">
<polygon fill="white" stroke="#666666" points="1421.5,-294 1374.5,-294 1374.5,-275 1421.5,-275 1421.5,-294"/>
<text text-anchor="middle" x="1398" y="-282" font-family="Helvetica,sans-Serif" font-size="10.00">QGC.h</text>
</a>
</g>
</g>
<!-- Node1&#45;&gt;Node15 -->
<g id="edge16_Node000001_Node000015" class="edge">
<title>Node1&#45;&gt;Node15</title>
<g id="a_edge16_Node000001_Node000015"><a xlink:title=" ">
<path fill="none" stroke="#63b8ff" d="M779.7,-333.2C924.59,-322.02 1256.92,-296.38 1364.05,-288.12"/>
<polygon fill="#63b8ff" stroke="#63b8ff" points="1364.57,-291.59 1374.27,-287.33 1364.03,-284.61 1364.57,-291.59"/>
</a>
</g>
</g>
<!-- Node17 -->
<g id="Node000017" class="node">
<title>Node17</title>
<g id="a_Node000017"><a xlink:href="Vehicle_8h.html" target="_top" xlink:title=" ">
<polygon fill="white" stroke="#666666" points="944.5,-294 883.5,-294 883.5,-275 944.5,-275 944.5,-294"/>
<text text-anchor="middle" x="914" y="-282" font-family="Helvetica,sans-Serif" font-size="10.00">Vehicle.h</text>
</a>
</g>
</g>
<!-- Node1&#45;&gt;Node17 -->
<g id="edge18_Node000001_Node000017" class="edge">
<title>Node1&#45;&gt;Node17</title>
<g id="a_edge18_Node000001_Node000017"><a xlink:title=" ">
<path fill="none" stroke="#63b8ff" d="M743.62,-329.98C779.01,-320.74 835.56,-305.98 873.7,-296.02"/>
<polygon fill="#63b8ff" stroke="#63b8ff" points="874.67,-299.39 883.46,-293.47 872.9,-292.61 874.67,-299.39"/>
</a>
</g>
</g>
<!-- Node3 -->
<g id="Node000003" class="node">
<title>Node3</title>
<g id="a_Node000003"><a xlink:title=" ">
<polygon fill="#e0e0e0" stroke="#999999" points="335.5,-129 246.5,-129 246.5,-110 335.5,-110 335.5,-129"/>
<text text-anchor="middle" x="291" y="-117" font-family="Helvetica,sans-Serif" font-size="10.00">QtCore/QTimer</text>
</a>
</g>
</g>
<!-- Node2&#45;&gt;Node3 -->
<g id="edge2_Node000002_Node000003" class="edge">
<title>Node2&#45;&gt;Node3</title>
<g id="a_edge2_Node000002_Node000003"><a xlink:title=" ">
<path fill="none" stroke="#63b8ff" d="M262.54,-219.66C267.58,-202.09 278.96,-162.45 285.7,-138.95"/>
<polygon fill="#63b8ff" stroke="#63b8ff" points="289.12,-139.74 288.51,-129.16 282.39,-137.8 289.12,-139.74"/>
</a>
</g>
</g>
<!-- Node4 -->
<g id="Node000004" class="node">
<title>Node4</title>
<g id="a_Node000004"><a xlink:title=" ">
<polygon fill="#e0e0e0" stroke="#999999" points="515.5,-19 326.5,-19 326.5,0 515.5,0 515.5,-19"/>
<text text-anchor="middle" x="421" y="-7" font-family="Helvetica,sans-Serif" font-size="10.00">QtQmlIntegration/QtQmlIntegration</text>
</a>
</g>
</g>
<!-- Node2&#45;&gt;Node4 -->
<g id="edge3_Node000002_Node000004" class="edge">
<title>Node2&#45;&gt;Node4</title>
<g id="a_edge3_Node000002_Node000004"><a xlink:title=" ">
<path fill="none" stroke="#63b8ff" d="M254.47,-219.76C242.18,-199.12 215.32,-146.36 237,-110 266.13,-61.13 328.51,-34.81 372.54,-21.75"/>
<polygon fill="#63b8ff" stroke="#63b8ff" points="373.52,-25.1 382.19,-19 371.61,-18.37 373.52,-25.1"/>
</a>
</g>
</g>
<!-- Node5 -->
<g id="Node000005" class="node">
<title>Node5</title>
<g id="a_Node000005"><a xlink:href="VehicleTypes_8h.html" target="_top" xlink:title=" ">
<polygon fill="white" stroke="#666666" points="1312.5,-184 1223.5,-184 1223.5,-165 1312.5,-165 1312.5,-184"/>
<text text-anchor="middle" x="1268" y="-172" font-family="Helvetica,sans-Serif" font-size="10.00">VehicleTypes.h</text>
</a>
</g>
</g>
<!-- Node2&#45;&gt;Node5 -->
<g id="edge4_Node000002_Node000005" class="edge">
<title>Node2&#45;&gt;Node5</title>
<g id="a_edge4_Node000002_Node000005"><a xlink:title=" ">
<path fill="none" stroke="#63b8ff" d="M295.17,-225.78C319.08,-223.98 351.44,-221.67 380,-220 729.11,-199.64 817.03,-206.52 1166,-184 1181.27,-183.01 1197.81,-181.73 1213.04,-180.46"/>
<polygon fill="#63b8ff" stroke="#63b8ff" points="1213.67,-183.92 1223.34,-179.59 1213.08,-176.94 1213.67,-183.92"/>
</a>
</g>
</g>
<!-- Node7 -->
<g id="Node000007" class="node">
<title>Node7</title>
<g id="a_Node000007"><a xlink:href="QGCMAVLinkTypes_8h.html" target="_top" xlink:title=" ">
<polygon fill="white" stroke="#666666" points="1440.5,-129 1323.5,-129 1323.5,-110 1440.5,-110 1440.5,-129"/>
<text text-anchor="middle" x="1382" y="-117" font-family="Helvetica,sans-Serif" font-size="10.00">QGCMAVLinkTypes.h</text>
</a>
</g>
</g>
<!-- Node2&#45;&gt;Node7 -->
<g id="edge11_Node000002_Node000007" class="edge">
<title>Node2&#45;&gt;Node7</title>
<g id="a_edge11_Node000002_Node000007"><a xlink:title=" ">
<path fill="none" stroke="#63b8ff" d="M295.16,-225.71C319.07,-223.88 351.43,-221.56 380,-220 484.48,-214.3 1225.54,-226.84 1321,-184 1342.71,-174.26 1360.58,-152.88 1371.24,-137.62"/>
<polygon fill="#63b8ff" stroke="#63b8ff" points="1374.31,-139.34 1376.92,-129.07 1368.48,-135.46 1374.31,-139.34"/>
</a>
</g>
</g>
<!-- Node9 -->
<g id="Node000009" class="node">
<title>Node9</title>
<g id="a_Node000009"><a xlink:href="MAVLinkMessageType_8h.html" target="_top" xlink:title=" ">
<polygon fill="white" stroke="#666666" points="190,-129 56,-129 56,-110 190,-110 190,-129"/>
<text text-anchor="middle" x="123" y="-117" font-family="Helvetica,sans-Serif" font-size="10.00">MAVLinkMessageType.h</text>
</a>
</g>
</g>
<!-- Node2&#45;&gt;Node9 -->
<g id="edge8_Node000002_Node000009" class="edge">
<title>Node2&#45;&gt;Node9</title>
<g id="a_edge8_Node000002_Node000009"><a xlink:title=" ">
<path fill="none" stroke="#63b8ff" d="M248.79,-219.66C225.39,-201.22 171.13,-158.45 142.12,-135.57"/>
<polygon fill="#63b8ff" stroke="#63b8ff" points="144,-132.6 133.98,-129.16 139.67,-138.1 144,-132.6"/>
</a>
</g>
</g>
<!-- Node6 -->
<g id="Node000006" class="node">
<title>Node6</title>
<g id="a_Node000006"><a xlink:title=" ">
<polygon fill="#e0e0e0" stroke="#999999" points="1305.5,-129 1204.5,-129 1204.5,-110 1305.5,-110 1305.5,-129"/>
<text text-anchor="middle" x="1255" y="-117" font-family="Helvetica,sans-Serif" font-size="10.00">MAVLinkEnums.h</text>
</a>
</g>
</g>
<!-- Node5&#45;&gt;Node6 -->
<g id="edge5_Node000005_Node000006" class="edge">
<title>Node5&#45;&gt;Node6</title>
<g id="a_edge5_Node000005_Node000006"><a xlink:title=" ">
<path fill="none" stroke="#63b8ff" d="M1265.85,-164.75C1264.13,-157.72 1261.65,-147.62 1259.5,-138.84"/>
<polygon fill="#63b8ff" stroke="#63b8ff" points="1262.89,-137.97 1257.11,-129.09 1256.09,-139.63 1262.89,-137.97"/>
</a>
</g>
</g>
<!-- Node5&#45;&gt;Node7 -->
<g id="edge6_Node000005_Node000007" class="edge">
<title>Node5&#45;&gt;Node7</title>
<g id="a_edge6_Node000005_Node000007"><a xlink:title=" ">
<path fill="none" stroke="#63b8ff" d="M1286.32,-164.98C1304.66,-156.46 1333.11,-143.23 1354.23,-133.41"/>
<polygon fill="#63b8ff" stroke="#63b8ff" points="1355.76,-136.56 1363.35,-129.17 1352.81,-130.21 1355.76,-136.56"/>
</a>
</g>
</g>
<!-- Node8 -->
<g id="Node000008" class="node">
<title>Node8</title>
<g id="a_Node000008"><a xlink:title=" ">
<polygon fill="#e0e0e0" stroke="#999999" points="1407,-74 1357,-74 1357,-55 1407,-55 1407,-74"/>
<text text-anchor="middle" x="1382" y="-62" font-family="Helvetica,sans-Serif" font-size="10.00">cstdint</text>
</a>
</g>
</g>
<!-- Node7&#45;&gt;Node8 -->
<g id="edge7_Node000007_Node000008" class="edge">
<title>Node7&#45;&gt;Node8</title>
<g id="a_edge7_Node000007_Node000008"><a xlink:title=" ">
<path fill="none" stroke="#63b8ff" d="M1382,-109.75C1382,-102.8 1382,-92.85 1382,-84.13"/>
<polygon fill="#63b8ff" stroke="#63b8ff" points="1385.5,-84.09 1382,-74.09 1378.5,-84.09 1385.5,-84.09"/>
</a>
</g>
</g>
<!-- Node10 -->
<g id="Node000010" class="node">
<title>Node10</title>
<g id="a_Node000010"><a xlink:title=" ">
<polygon fill="#e0e0e0" stroke="#999999" points="169.5,-74 116.5,-74 116.5,-55 169.5,-55 169.5,-74"/>
<text text-anchor="middle" x="143" y="-62" font-family="Helvetica,sans-Serif" font-size="10.00">stdint.h</text>
</a>
</g>
</g>
<!-- Node9&#45;&gt;Node10 -->
<g id="edge9_Node000009_Node000010" class="edge">
<title>Node9&#45;&gt;Node10</title>
<g id="a_edge9_Node000009_Node000010"><a xlink:title=" ">
<path fill="none" stroke="#63b8ff" d="M126.3,-109.75C128.98,-102.65 132.85,-92.4 136.19,-83.56"/>
<polygon fill="#63b8ff" stroke="#63b8ff" points="139.5,-84.68 139.76,-74.09 132.95,-82.21 139.5,-84.68"/>
</a>
</g>
</g>
<!-- Node11 -->
<g id="Node000011" class="node">
<title>Node11</title>
<g id="a_Node000011"><a xlink:title=" ">
<polygon fill="#e0e0e0" stroke="#999999" points="98,-74 0,-74 0,-55 98,-55 98,-74"/>
<text text-anchor="middle" x="49" y="-62" font-family="Helvetica,sans-Serif" font-size="10.00">mavlink_types.h</text>
</a>
</g>
</g>
<!-- Node9&#45;&gt;Node11 -->
<g id="edge10_Node000009_Node000011" class="edge">
<title>Node9&#45;&gt;Node11</title>
<g id="a_edge10_Node000009_Node000011"><a xlink:title=" ">
<path fill="none" stroke="#63b8ff" d="M111.11,-109.98C99.85,-101.92 82.71,-89.65 69.29,-80.03"/>
<polygon fill="#63b8ff" stroke="#63b8ff" points="71.27,-77.15 61.11,-74.17 67.2,-82.84 71.27,-77.15"/>
</a>
</g>
</g>
<!-- Node12&#45;&gt;Node9 -->
<g id="edge13_Node000012_Node000009" class="edge">
<title>Node12&#45;&gt;Node9</title>
<g id="a_edge13_Node000012_Node000009"><a xlink:title=" ">
<path fill="none" stroke="#63b8ff" d="M149.17,-274.99C147.28,-266.05 144.28,-251.56 142,-239 135.61,-203.76 129.24,-162.43 125.74,-139.06"/>
<polygon fill="#63b8ff" stroke="#63b8ff" points="129.2,-138.52 124.26,-129.14 122.27,-139.55 129.2,-138.52"/>
</a>
</g>
</g>
<!-- Node13 -->
<g id="Node000013" class="node">
<title>Node13</title>
<g id="a_Node000013"><a xlink:title=" ">
<polygon fill="#e0e0e0" stroke="#999999" points="207,-239 151,-239 151,-220 207,-220 207,-239"/>
<text text-anchor="middle" x="179" y="-227" font-family="Helvetica,sans-Serif" font-size="10.00">stddef.h</text>
</a>
</g>
</g>
<!-- Node12&#45;&gt;Node13 -->
<g id="edge14_Node000012_Node000013" class="edge">
<title>Node12&#45;&gt;Node13</title>
<g id="a_edge14_Node000012_Node000013"><a xlink:title=" ">
<path fill="none" stroke="#63b8ff" d="M155.62,-274.75C159.46,-267.49 165.02,-256.95 169.76,-247.98"/>
<polygon fill="#63b8ff" stroke="#63b8ff" points="172.89,-249.57 174.46,-239.09 166.7,-246.3 172.89,-249.57"/>
</a>
</g>
</g>
<!-- Node14 -->
<g id="Node000014" class="node">
<title>Node14</title>
<g id="a_Node000014"><a xlink:title=" ">
<polygon fill="#e0e0e0" stroke="#999999" points="94.5,-239 29.5,-239 29.5,-220 94.5,-220 94.5,-239"/>
<text text-anchor="middle" x="62" y="-227" font-family="Helvetica,sans-Serif" font-size="10.00">mavlink.h</text>
</a>
</g>
</g>
<!-- Node12&#45;&gt;Node14 -->
<g id="edge15_Node000012_Node000014" class="edge">
<title>Node12&#45;&gt;Node14</title>
<g id="a_edge15_Node000012_Node000014"><a xlink:title=" ">
<path fill="none" stroke="#63b8ff" d="M136.7,-274.98C122.9,-266.77 101.76,-254.18 85.49,-244.49"/>
<polygon fill="#63b8ff" stroke="#63b8ff" points="86.94,-241.28 76.56,-239.17 83.36,-247.29 86.94,-241.28"/>
</a>
</g>
</g>
<!-- Node16 -->
<g id="Node000016" class="node">
<title>Node16</title>
<g id="a_Node000016"><a xlink:title=" ">
<polygon fill="#e0e0e0" stroke="#999999" points="1805,-239 1713,-239 1713,-220 1805,-220 1805,-239"/>
<text text-anchor="middle" x="1759" y="-227" font-family="Helvetica,sans-Serif" font-size="10.00">QtCore/QtTypes</text>
</a>
</g>
</g>
<!-- Node15&#45;&gt;Node16 -->
<g id="edge17_Node000015_Node000016" class="edge">
<title>Node15&#45;&gt;Node16</title>
<g id="a_edge17_Node000015_Node000016"><a xlink:title=" ">
<path fill="none" stroke="#63b8ff" d="M1421.69,-280.02C1478.25,-271.72 1622.44,-250.55 1702.78,-238.75"/>
<polygon fill="#63b8ff" stroke="#63b8ff" points="1703.34,-242.21 1712.73,-237.29 1702.33,-235.28 1703.34,-242.21"/>
</a>
</g>
</g>
<!-- Node17&#45;&gt;Node3 -->
<g id="edge27_Node000017_Node000003" class="edge">
<title>Node17&#45;&gt;Node3</title>
<g id="a_edge27_Node000017_Node000003"><a xlink:title=" ">
<path fill="none" stroke="#63b8ff" d="M883.16,-282.87C771.32,-280.34 391.3,-269.56 347,-239 313.24,-215.71 299.26,-166.47 293.94,-139.37"/>
<polygon fill="#63b8ff" stroke="#63b8ff" points="297.34,-138.49 292.16,-129.25 290.44,-139.7 297.34,-138.49"/>
</a>
</g>
</g>
<!-- Node17&#45;&gt;Node4 -->
<g id="edge30_Node000017_Node000004" class="edge">
<title>Node17&#45;&gt;Node4</title>
<g id="a_edge30_Node000017_Node000004"><a xlink:title=" ">
<path fill="none" stroke="#63b8ff" d="M883.35,-283.31C774.93,-282.3 414.21,-276.18 380,-239 324.55,-178.74 382.94,-70.2 409.4,-27.98"/>
<polygon fill="#63b8ff" stroke="#63b8ff" points="412.47,-29.67 414.93,-19.37 406.58,-25.89 412.47,-29.67"/>
</a>
</g>
</g>
<!-- Node17&#45;&gt;Node5 -->
<g id="edge59_Node000017_Node000005" class="edge">
<title>Node17&#45;&gt;Node5</title>
<g id="a_edge59_Node000017_Node000005"><a xlink:title=" ">
<path fill="none" stroke="#63b8ff" d="M944.9,-282.74C1078.93,-279.31 1604.27,-264.26 1628,-239 1670.88,-193.36 1433.73,-180.35 1322.8,-176.79"/>
<polygon fill="#63b8ff" stroke="#63b8ff" points="1322.89,-173.29 1312.79,-176.48 1322.68,-180.28 1322.89,-173.29"/>
</a>
</g>
</g>
<!-- Node18 -->
<g id="Node000018" class="node">
<title>Node18</title>
<g id="a_Node000018"><a xlink:title=" ">
<polygon fill="#e0e0e0" stroke="#999999" points="454.5,-239 389.5,-239 389.5,-220 454.5,-220 454.5,-239"/>
<text text-anchor="middle" x="422" y="-227" font-family="Helvetica,sans-Serif" font-size="10.00">functional</text>
</a>
</g>
</g>
<!-- Node17&#45;&gt;Node18 -->
<g id="edge19_Node000017_Node000018" class="edge">
<title>Node17&#45;&gt;Node18</title>
<g id="a_edge19_Node000017_Node000018"><a xlink:title=" ">
<path fill="none" stroke="#63b8ff" d="M883.31,-281.54C811.83,-276.75 628.55,-263.14 464.76,-238.95"/>
<polygon fill="#63b8ff" stroke="#63b8ff" points="464.91,-235.43 454.5,-237.42 463.87,-242.35 464.91,-235.43"/>
</a>
</g>
</g>
<!-- Node19 -->
<g id="Node000019" class="node">
<title>Node19</title>
<g id="a_Node000019"><a xlink:title=" ">
<polygon fill="#e0e0e0" stroke="#999999" points="531,-239 473,-239 473,-220 531,-220 531,-239"/>
<text text-anchor="middle" x="502" y="-227" font-family="Helvetica,sans-Serif" font-size="10.00">memory</text>
</a>
</g>
</g>
<!-- Node17&#45;&gt;Node19 -->
<g id="edge20_Node000017_Node000019" class="edge">
<title>Node17&#45;&gt;Node19</title>
<g id="a_edge20_Node000017_Node000019"><a xlink:title=" ">
<path fill="none" stroke="#63b8ff" d="M883.31,-280.91C820.79,-275.42 674.05,-261.35 541.34,-239.07"/>
<polygon fill="#63b8ff" stroke="#63b8ff" points="541.84,-235.61 531.4,-237.39 540.67,-242.51 541.84,-235.61"/>
</a>
</g>
</g>
<!-- Node20 -->
<g id="Node000020" class="node">
<title>Node20</title>
<g id="a_Node000020"><a xlink:title=" ">
<polygon fill="#e0e0e0" stroke="#999999" points="677,-239 549,-239 549,-220 677,-220 677,-239"/>
<text text-anchor="middle" x="613" y="-227" font-family="Helvetica,sans-Serif" font-size="10.00">QtCore/QElapsedTimer</text>
</a>
</g>
</g>
<!-- Node17&#45;&gt;Node20 -->
<g id="edge21_Node000017_Node000020" class="edge">
<title>Node17&#45;&gt;Node20</title>
<g id="a_edge21_Node000017_Node000020"><a xlink:title=" ">
<path fill="none" stroke="#63b8ff" d="M883.48,-278.13C833.83,-269.38 734.73,-251.93 671.26,-240.76"/>
<polygon fill="#63b8ff" stroke="#63b8ff" points="671.85,-237.31 661.39,-239.02 670.63,-244.2 671.85,-237.31"/>
</a>
</g>
</g>
<!-- Node21 -->
<g id="Node000021" class="node">
<title>Node21</title>
<g id="a_Node000021"><a xlink:title=" ">
<polygon fill="#e0e0e0" stroke="#999999" points="901,-239 823,-239 823,-220 901,-220 901,-239"/>
<text text-anchor="middle" x="862" y="-227" font-family="Helvetica,sans-Serif" font-size="10.00">QtCore/QFile</text>
</a>
</g>
</g>
<!-- Node17&#45;&gt;Node21 -->
<g id="edge22_Node000017_Node000021" class="edge">
<title>Node17&#45;&gt;Node21</title>
<g id="a_edge22_Node000017_Node000021"><a xlink:title=" ">
<path fill="none" stroke="#63b8ff" d="M905.41,-274.75C897.84,-267.03 886.62,-255.6 877.49,-246.28"/>
<polygon fill="#63b8ff" stroke="#63b8ff" points="879.93,-243.78 870.43,-239.09 874.93,-248.68 879.93,-243.78"/>
</a>
</g>
</g>
<!-- Node22 -->
<g id="Node000022" class="node">
<title>Node22</title>
<g id="a_Node000022"><a xlink:title=" ">
<polygon fill="#e0e0e0" stroke="#999999" points="1123,-19 1031,-19 1031,0 1123,0 1123,-19"/>
<text text-anchor="middle" x="1077" y="-7" font-family="Helvetica,sans-Serif" font-size="10.00">QtCore/QObject</text>
</a>
</g>
</g>
<!-- Node17&#45;&gt;Node22 -->
<g id="edge23_Node000017_Node000022" class="edge">
<title>Node17&#45;&gt;Node22</title>
<g id="a_edge23_Node000017_Node000022"><a xlink:title=" ">
<path fill="none" stroke="#63b8ff" d="M944.66,-283.25C1075.46,-281.96 1582.96,-274.69 1644,-239 1673,-222.04 1685,-209.09 1685,-175.5 1685,-175.5 1685,-175.5 1685,-118.5 1685,-62.76 1283.74,-26.31 1133.17,-14.59"/>
<polygon fill="#63b8ff" stroke="#63b8ff" points="1133.44,-11.1 1123.2,-13.82 1132.9,-18.08 1133.44,-11.1"/>
</a>
</g>
</g>
<!-- Node23 -->
<g id="Node000023" class="node">
<title>Node23</title>
<g id="a_Node000023"><a xlink:title=" ">
<polygon fill="#e0e0e0" stroke="#999999" points="1014.5,-239 919.5,-239 919.5,-220 1014.5,-220 1014.5,-239"/>
<text text-anchor="middle" x="967" y="-227" font-family="Helvetica,sans-Serif" font-size="10.00">QtCore/QPointer</text>
</a>
</g>
</g>
<!-- Node17&#45;&gt;Node23 -->
<g id="edge24_Node000017_Node000023" class="edge">
<title>Node17&#45;&gt;Node23</title>
<g id="a_edge24_Node000017_Node000023"><a xlink:title=" ">
<path fill="none" stroke="#63b8ff" d="M922.75,-274.75C930.47,-267.03 941.9,-255.6 951.22,-246.28"/>
<polygon fill="#63b8ff" stroke="#63b8ff" points="953.81,-248.64 958.41,-239.09 948.86,-243.69 953.81,-248.64"/>
</a>
</g>
</g>
<!-- Node24 -->
<g id="Node000024" class="node">
<title>Node24</title>
<g id="a_Node000024"><a xlink:title=" ">
<polygon fill="#e0e0e0" stroke="#999999" points="1161.5,-239 1032.5,-239 1032.5,-220 1161.5,-220 1161.5,-239"/>
<text text-anchor="middle" x="1097" y="-227" font-family="Helvetica,sans-Serif" font-size="10.00">QtCore/QSharedPointer</text>
</a>
</g>
</g>
<!-- Node17&#45;&gt;Node24 -->
<g id="edge25_Node000017_Node000024" class="edge">
<title>Node17&#45;&gt;Node24</title>
<g id="a_edge25_Node000017_Node000024"><a xlink:title=" ">
<path fill="none" stroke="#63b8ff" d="M943.4,-274.98C974.39,-266.01 1023.38,-251.82 1057.67,-241.89"/>
<polygon fill="#63b8ff" stroke="#63b8ff" points="1058.74,-245.23 1067.37,-239.08 1056.79,-238.5 1058.74,-245.23"/>
</a>
</g>
</g>
<!-- Node25 -->
<g id="Node000025" class="node">
<title>Node25</title>
<g id="a_Node000025"><a xlink:title=" ">
<polygon fill="#e0e0e0" stroke="#999999" points="1266,-239 1180,-239 1180,-220 1266,-220 1266,-239"/>
<text text-anchor="middle" x="1223" y="-227" font-family="Helvetica,sans-Serif" font-size="10.00">QtCore/QTime</text>
</a>
</g>
</g>
<!-- Node17&#45;&gt;Node25 -->
<g id="edge26_Node000017_Node000025" class="edge">
<title>Node17&#45;&gt;Node25</title>
<g id="a_edge26_Node000017_Node000025"><a xlink:title=" ">
<path fill="none" stroke="#63b8ff" d="M944.76,-278.22C997.28,-269.22 1104.88,-250.76 1169.8,-239.62"/>
<polygon fill="#63b8ff" stroke="#63b8ff" points="1170.57,-243.04 1179.84,-237.9 1169.39,-236.14 1170.57,-243.04"/>
</a>
</g>
</g>
<!-- Node26 -->
<g id="Node000026" class="node">
<title>Node26</title>
<g id="a_Node000026"><a xlink:title=" ">
<polygon fill="#e0e0e0" stroke="#999999" points="1435.5,-239 1322.5,-239 1322.5,-220 1435.5,-220 1435.5,-239"/>
<text text-anchor="middle" x="1379" y="-227" font-family="Helvetica,sans-Serif" font-size="10.00">QtCore/QVariantList</text>
</a>
</g>
</g>
<!-- Node17&#45;&gt;Node26 -->
<g id="edge28_Node000017_Node000026" class="edge">
<title>Node17&#45;&gt;Node26</title>
<g id="a_edge28_Node000017_Node000026"><a xlink:title=" ">
<path fill="none" stroke="#63b8ff" d="M944.66,-280.11C1010.96,-272.76 1172.61,-254.75 1308,-239 1309.46,-238.83 1310.95,-238.66 1312.44,-238.48"/>
<polygon fill="#63b8ff" stroke="#63b8ff" points="1312.9,-241.95 1322.42,-237.31 1312.08,-235 1312.9,-241.95"/>
</a>
</g>
</g>
<!-- Node27 -->
<g id="Node000027" class="node">
<title>Node27</title>
<g id="a_Node000027"><a xlink:title=" ">
<polygon fill="#e0e0e0" stroke="#999999" points="1618.5,-239 1453.5,-239 1453.5,-220 1618.5,-220 1618.5,-239"/>
<text text-anchor="middle" x="1536" y="-227" font-family="Helvetica,sans-Serif" font-size="10.00">QtPositioning/QGeoCoordinate</text>
</a>
</g>
</g>
<!-- Node17&#45;&gt;Node27 -->
<g id="edge29_Node000017_Node000027" class="edge">
<title>Node17&#45;&gt;Node27</title>
<g id="a_edge29_Node000017_Node000027"><a xlink:title=" ">
<path fill="none" stroke="#63b8ff" d="M944.77,-281.01C1024.85,-274.5 1246.54,-256.36 1443.03,-239.08"/>
<polygon fill="#63b8ff" stroke="#63b8ff" points="1443.6,-242.54 1453.25,-238.18 1442.98,-235.57 1443.6,-242.54"/>
</a>
</g>
</g>
<!-- Node28 -->
<g id="Node000028" class="node">
<title>Node28</title>
<g id="a_Node000028"><a xlink:href="QGCMAVLink_8h.html" target="_top" xlink:title=" ">
<polygon fill="white" stroke="#666666" points="1157.5,-184 1068.5,-184 1068.5,-165 1157.5,-165 1157.5,-184"/>
<text text-anchor="middle" x="1113" y="-172" font-family="Helvetica,sans-Serif" font-size="10.00">QGCMAVLink.h</text>
</a>
</g>
</g>
<!-- Node17&#45;&gt;Node28 -->
<g id="edge31_Node000017_Node000028" class="edge">
<title>Node17&#45;&gt;Node28</title>
<g id="a_edge31_Node000017_Node000028"><a xlink:title=" ">
<path fill="none" stroke="#63b8ff" d="M944.72,-282C1027.99,-277.64 1253.22,-263.63 1275,-239 1308.86,-200.71 1227.18,-185.29 1167.91,-179.24"/>
<polygon fill="#63b8ff" stroke="#63b8ff" points="1168.16,-175.75 1157.87,-178.28 1167.5,-182.72 1168.16,-175.75"/>
</a>
</g>
</g>
<!-- Node31 -->
<g id="Node000031" class="node">
<title>Node31</title>
<g id="a_Node000031"><a xlink:href="VehicleFactGroup_8h.html" target="_top" xlink:title=" ">
<polygon fill="white" stroke="#666666" points="805,-239 695,-239 695,-220 805,-220 805,-239"/>
<text text-anchor="middle" x="750" y="-227" font-family="Helvetica,sans-Serif" font-size="10.00">VehicleFactGroup.h</text>
</a>
</g>
</g>
<!-- Node17&#45;&gt;Node31 -->
<g id="edge39_Node000017_Node000031" class="edge">
<title>Node17&#45;&gt;Node31</title>
<g id="a_edge39_Node000017_Node000031"><a xlink:title=" ">
<path fill="none" stroke="#63b8ff" d="M887.65,-274.98C860.24,-266.13 817.11,-252.19 786.44,-242.28"/>
<polygon fill="#63b8ff" stroke="#63b8ff" points="787.15,-238.83 776.56,-239.08 785,-245.49 787.15,-238.83"/>
</a>
</g>
</g>
<!-- Node28&#45;&gt;Node4 -->
<g id="edge35_Node000028_Node000004" class="edge">
<title>Node28&#45;&gt;Node4</title>
<g id="a_edge35_Node000028_Node000004"><a xlink:title=" ">
<path fill="none" stroke="#63b8ff" d="M1068.46,-172.83C990.99,-170.77 826.92,-162.46 693,-129 671.14,-123.54 667.59,-116.44 646,-110 566.98,-86.44 532.73,-119.56 464,-74 447.39,-62.99 435.5,-43.15 428.5,-28.57"/>
<polygon fill="#63b8ff" stroke="#63b8ff" points="431.53,-26.78 424.26,-19.08 425.14,-29.64 431.53,-26.78"/>
</a>
</g>
</g>
<!-- Node28&#45;&gt;Node6 -->
<g id="edge36_Node000028_Node000006" class="edge">
<title>Node28&#45;&gt;Node6</title>
<g id="a_edge36_Node000028_Node000006"><a xlink:title=" ">
<path fill="none" stroke="#63b8ff" d="M1135.81,-164.98C1159.17,-156.27 1195.7,-142.63 1222.17,-132.75"/>
<polygon fill="#63b8ff" stroke="#63b8ff" points="1223.63,-135.95 1231.77,-129.17 1221.18,-129.39 1223.63,-135.95"/>
</a>
</g>
</g>
<!-- Node28&#45;&gt;Node7 -->
<g id="edge38_Node000028_Node000007" class="edge">
<title>Node28&#45;&gt;Node7</title>
<g id="a_edge38_Node000028_Node000007"><a xlink:title=" ">
<path fill="none" stroke="#63b8ff" d="M1156.22,-164.98C1203.04,-155.76 1277.81,-141.03 1328.36,-131.07"/>
<polygon fill="#63b8ff" stroke="#63b8ff" points="1329.31,-134.45 1338.44,-129.08 1327.95,-127.58 1329.31,-134.45"/>
</a>
</g>
</g>
<!-- Node28&#45;&gt;Node9 -->
<g id="edge37_Node000028_Node000009" class="edge">
<title>Node28&#45;&gt;Node9</title>
<g id="a_edge37_Node000028_Node000009"><a xlink:title=" ">
<path fill="none" stroke="#63b8ff" d="M1068.31,-171.6C939.34,-166.05 555.4,-148.95 237,-129 225.16,-128.26 212.64,-127.4 200.39,-126.52"/>
<polygon fill="#63b8ff" stroke="#63b8ff" points="200.42,-123.01 190.19,-125.78 199.91,-129.99 200.42,-123.01"/>
</a>
</g>
</g>
<!-- Node28&#45;&gt;Node22 -->
<g id="edge33_Node000028_Node000022" class="edge">
<title>Node28&#45;&gt;Node22</title>
<g id="a_edge33_Node000028_Node000022"><a xlink:title=" ">
<path fill="none" stroke="#63b8ff" d="M1109.89,-164.72C1106.82,-155.81 1102.13,-141.57 1099,-129 1090.31,-94.1 1083.37,-52.65 1079.75,-29.17"/>
<polygon fill="#63b8ff" stroke="#63b8ff" points="1083.2,-28.57 1078.25,-19.2 1076.28,-29.61 1083.2,-28.57"/>
</a>
</g>
</g>
<!-- Node29 -->
<g id="Node000029" class="node">
<title>Node29</title>
<g id="a_Node000029"><a xlink:title=" ">
<polygon fill="#e0e0e0" stroke="#999999" points="1186,-129 1108,-129 1108,-110 1186,-110 1186,-129"/>
<text text-anchor="middle" x="1147" y="-117" font-family="Helvetica,sans-Serif" font-size="10.00">QtCore/QList</text>
</a>
</g>
</g>
<!-- Node28&#45;&gt;Node29 -->
<g id="edge32_Node000028_Node000029" class="edge">
<title>Node28&#45;&gt;Node29</title>
<g id="a_edge32_Node000028_Node000029"><a xlink:title=" ">
<path fill="none" stroke="#63b8ff" d="M1118.61,-164.75C1123.32,-157.42 1130.17,-146.73 1135.97,-137.7"/>
<polygon fill="#63b8ff" stroke="#63b8ff" points="1139.04,-139.4 1141.49,-129.09 1133.14,-135.62 1139.04,-139.4"/>
</a>
</g>
</g>
<!-- Node30 -->
<g id="Node000030" class="node">
<title>Node30</title>
<g id="a_Node000030"><a xlink:title=" ">
<polygon fill="#e0e0e0" stroke="#999999" points="1010.5,-19 921.5,-19 921.5,0 1010.5,0 1010.5,-19"/>
<text text-anchor="middle" x="966" y="-7" font-family="Helvetica,sans-Serif" font-size="10.00">QtCore/QString</text>
</a>
</g>
</g>
<!-- Node28&#45;&gt;Node30 -->
<g id="edge34_Node000028_Node000030" class="edge">
<title>Node28&#45;&gt;Node30</title>
<g id="a_edge34_Node000028_Node000030"><a xlink:title=" ">
<path fill="none" stroke="#63b8ff" d="M1105.1,-164.74C1081.57,-138.65 1011.7,-61.17 980.88,-27"/>
<polygon fill="#63b8ff" stroke="#63b8ff" points="983.24,-24.39 973.94,-19.31 978.04,-29.08 983.24,-24.39"/>
</a>
</g>
</g>
<!-- Node32 -->
<g id="Node000032" class="node">
<title>Node32</title>
<g id="a_Node000032"><a xlink:href="FactGroup_8h.html" target="_top" xlink:title=" ">
<polygon fill="white" stroke="#666666" points="508,-184 434,-184 434,-165 508,-165 508,-184"/>
<text text-anchor="middle" x="471" y="-172" font-family="Helvetica,sans-Serif" font-size="10.00">FactGroup.h</text>
</a>
</g>
</g>
<!-- Node31&#45;&gt;Node32 -->
<g id="edge40_Node000031_Node000032" class="edge">
<title>Node31&#45;&gt;Node32</title>
<g id="a_edge40_Node000031_Node000032"><a xlink:title=" ">
<path fill="none" stroke="#63b8ff" d="M705.17,-219.98C653.91,-210.25 570.34,-194.37 518.13,-184.45"/>
<polygon fill="#63b8ff" stroke="#63b8ff" points="518.61,-180.98 508.13,-182.55 517.3,-187.86 518.61,-180.98"/>
</a>
</g>
</g>
<!-- Node32&#45;&gt;Node3 -->
<g id="edge43_Node000032_Node000003" class="edge">
<title>Node32&#45;&gt;Node3</title>
<g id="a_edge43_Node000032_Node000003"><a xlink:title=" ">
<path fill="none" stroke="#63b8ff" d="M442.08,-164.98C411.73,-156.05 363.83,-141.94 330.12,-132.02"/>
<polygon fill="#63b8ff" stroke="#63b8ff" points="330.73,-128.55 320.15,-129.08 328.75,-135.26 330.73,-128.55"/>
</a>
</g>
</g>
<!-- Node32&#45;&gt;Node4 -->
<g id="edge44_Node000032_Node000004" class="edge">
<title>Node32&#45;&gt;Node4</title>
<g id="a_edge44_Node000032_Node000004"><a xlink:title=" ">
<path fill="none" stroke="#63b8ff" d="M455.57,-164.8C443.65,-157.11 428.04,-144.69 421,-129 406.31,-96.27 411.64,-53.14 416.52,-28.97"/>
<polygon fill="#63b8ff" stroke="#63b8ff" points="419.98,-29.55 418.73,-19.03 413.14,-28.04 419.98,-29.55"/>
</a>
</g>
</g>
<!-- Node32&#45;&gt;Node9 -->
<g id="edge58_Node000032_Node000009" class="edge">
<title>Node32&#45;&gt;Node9</title>
<g id="a_edge58_Node000032_Node000009"><a xlink:title=" ">
<path fill="none" stroke="#63b8ff" d="M433.76,-167.83C375.31,-158.93 261.26,-141.56 188.77,-130.52"/>
<polygon fill="#63b8ff" stroke="#63b8ff" points="189.24,-127.05 178.83,-129 188.19,-133.97 189.24,-127.05"/>
</a>
</g>
</g>
<!-- Node33 -->
<g id="Node000033" class="node">
<title>Node33</title>
<g id="a_Node000033"><a xlink:title=" ">
<polygon fill="#e0e0e0" stroke="#999999" points="512,-129 430,-129 430,-110 512,-110 512,-129"/>
<text text-anchor="middle" x="471" y="-117" font-family="Helvetica,sans-Serif" font-size="10.00">QtCore/QMap</text>
</a>
</g>
</g>
<!-- Node32&#45;&gt;Node33 -->
<g id="edge41_Node000032_Node000033" class="edge">
<title>Node32&#45;&gt;Node33</title>
<g id="a_edge41_Node000032_Node000033"><a xlink:title=" ">
<path fill="none" stroke="#63b8ff" d="M471,-164.75C471,-157.8 471,-147.85 471,-139.13"/>
<polygon fill="#63b8ff" stroke="#63b8ff" points="474.5,-139.09 471,-129.09 467.5,-139.09 474.5,-139.09"/>
</a>
</g>
</g>
<!-- Node34 -->
<g id="Node000034" class="node">
<title>Node34</title>
<g id="a_Node000034"><a xlink:title=" ">
<polygon fill="#e0e0e0" stroke="#999999" points="637.5,-129 530.5,-129 530.5,-110 637.5,-110 637.5,-129"/>
<text text-anchor="middle" x="584" y="-117" font-family="Helvetica,sans-Serif" font-size="10.00">QtCore/QStringList</text>
</a>
</g>
</g>
<!-- Node32&#45;&gt;Node34 -->
<g id="edge42_Node000032_Node000034" class="edge">
<title>Node32&#45;&gt;Node34</title>
<g id="a_edge42_Node000032_Node000034"><a xlink:title=" ">
<path fill="none" stroke="#63b8ff" d="M489.16,-164.98C507.25,-156.5 535.28,-143.35 556.19,-133.54"/>
<polygon fill="#63b8ff" stroke="#63b8ff" points="557.95,-136.59 565.51,-129.17 554.97,-130.25 557.95,-136.59"/>
</a>
</g>
</g>
<!-- Node35 -->
<g id="Node000035" class="node">
<title>Node35</title>
<g id="a_Node000035"><a xlink:href="Fact_8h.html" target="_top" xlink:title=" ">
<polygon fill="white" stroke="#666666" points="747.5,-129 702.5,-129 702.5,-110 747.5,-110 747.5,-129"/>
<text text-anchor="middle" x="725" y="-117" font-family="Helvetica,sans-Serif" font-size="10.00">Fact.h</text>
</a>
</g>
</g>
<!-- Node32&#45;&gt;Node35 -->
<g id="edge45_Node000032_Node000035" class="edge">
<title>Node32&#45;&gt;Node35</title>
<g id="a_edge45_Node000032_Node000035"><a xlink:title=" ">
<path fill="none" stroke="#63b8ff" d="M508.21,-165.74C557.91,-155.37 645.19,-137.15 692.42,-127.3"/>
<polygon fill="#63b8ff" stroke="#63b8ff" points="693.34,-130.68 702.42,-125.21 691.91,-123.83 693.34,-130.68"/>
</a>
</g>
</g>
<!-- Node35&#45;&gt;Node4 -->
<g id="edge51_Node000035_Node000004" class="edge">
<title>Node35&#45;&gt;Node4</title>
<g id="a_edge51_Node000035_Node000004"><a xlink:title=" ">
<path fill="none" stroke="#63b8ff" d="M702.16,-114.12C644.84,-103.11 499.34,-75.11 497,-74 472.64,-62.4 449.58,-41.16 435.39,-26.46"/>
<polygon fill="#63b8ff" stroke="#63b8ff" points="437.85,-23.97 428.46,-19.06 432.75,-28.75 437.85,-23.97"/>
</a>
</g>
</g>
<!-- Node35&#45;&gt;Node22 -->
<g id="edge47_Node000035_Node000022" class="edge">
<title>Node35&#45;&gt;Node22</title>
<g id="a_edge47_Node000035_Node000022"><a xlink:title=" ">
<path fill="none" stroke="#63b8ff" d="M747.7,-116.92C791.37,-113.31 889.63,-102.48 967,-74 1000.5,-61.67 1035.61,-39.54 1056.91,-24.94"/>
<polygon fill="#63b8ff" stroke="#63b8ff" points="1058.95,-27.79 1065.14,-19.19 1054.94,-22.05 1058.95,-27.79"/>
</a>
</g>
</g>
<!-- Node35&#45;&gt;Node30 -->
<g id="edge49_Node000035_Node000030" class="edge">
<title>Node35&#45;&gt;Node30</title>
<g id="a_edge49_Node000035_Node000030"><a xlink:title=" ">
<path fill="none" stroke="#63b8ff" d="M747.67,-116.87C798.19,-112.8 917.87,-100.54 947,-74 959.35,-62.75 963.8,-43.83 965.34,-29.57"/>
<polygon fill="#63b8ff" stroke="#63b8ff" points="968.85,-29.58 966.05,-19.36 961.87,-29.09 968.85,-29.58"/>
</a>
</g>
</g>
<!-- Node36 -->
<g id="Node000036" class="node">
<title>Node36</title>
<g id="a_Node000036"><a xlink:title=" ">
<polygon fill="#e0e0e0" stroke="#999999" points="629.5,-74 506.5,-74 506.5,-55 629.5,-55 629.5,-74"/>
<text text-anchor="middle" x="568" y="-62" font-family="Helvetica,sans-Serif" font-size="10.00">QtCore/QMutexLocker</text>
</a>
</g>
</g>
<!-- Node35&#45;&gt;Node36 -->
<g id="edge46_Node000035_Node000036" class="edge">
<title>Node35&#45;&gt;Node36</title>
<g id="a_edge46_Node000035_Node000036"><a xlink:title=" ">
<path fill="none" stroke="#63b8ff" d="M702.17,-110.79C676.12,-102 633.2,-87.51 602.93,-77.29"/>
<polygon fill="#63b8ff" stroke="#63b8ff" points="603.79,-73.89 593.2,-74.01 601.55,-80.52 603.79,-73.89"/>
</a>
</g>
</g>
<!-- Node37 -->
<g id="Node000037" class="node">
<title>Node37</title>
<g id="a_Node000037"><a xlink:title=" ">
<polygon fill="#e0e0e0" stroke="#999999" points="938,-74 798,-74 798,-55 938,-55 938,-74"/>
<text text-anchor="middle" x="868" y="-62" font-family="Helvetica,sans-Serif" font-size="10.00">QtCore/QRecursiveMutex</text>
</a>
</g>
</g>
<!-- Node35&#45;&gt;Node37 -->
<g id="edge48_Node000035_Node000037" class="edge">
<title>Node35&#45;&gt;Node37</title>
<g id="a_edge48_Node000035_Node000037"><a xlink:title=" ">
<path fill="none" stroke="#63b8ff" d="M747.66,-110.1C771.26,-101.35 808.47,-87.56 835.26,-77.63"/>
<polygon fill="#63b8ff" stroke="#63b8ff" points="836.81,-80.79 844.97,-74.03 834.38,-74.23 836.81,-80.79"/>
</a>
</g>
</g>
<!-- Node38 -->
<g id="Node000038" class="node">
<title>Node38</title>
<g id="a_Node000038"><a xlink:title=" ">
<polygon fill="#e0e0e0" stroke="#999999" points="705.5,-19 610.5,-19 610.5,0 705.5,0 705.5,-19"/>
<text text-anchor="middle" x="658" y="-7" font-family="Helvetica,sans-Serif" font-size="10.00">QtCore/QVariant</text>
</a>
</g>
</g>
<!-- Node35&#45;&gt;Node38 -->
<g id="edge50_Node000035_Node000038" class="edge">
<title>Node35&#45;&gt;Node38</title>
<g id="a_edge50_Node000035_Node000038"><a xlink:title=" ">
<path fill="none" stroke="#63b8ff" d="M712.19,-109.69C701.34,-101.6 686.13,-88.66 677,-74 668.45,-60.26 663.56,-42.46 660.89,-29.2"/>
<polygon fill="#63b8ff" stroke="#63b8ff" points="664.33,-28.55 659.13,-19.32 657.43,-29.78 664.33,-28.55"/>
</a>
</g>
</g>
<!-- Node39 -->
<g id="Node000039" class="node">
<title>Node39</title>
<g id="a_Node000039"><a xlink:href="FactMetaData_8h.html" target="_top" xlink:title=" ">
<polygon fill="white" stroke="#666666" points="779.5,-74 686.5,-74 686.5,-55 779.5,-55 779.5,-74"/>
<text text-anchor="middle" x="733" y="-62" font-family="Helvetica,sans-Serif" font-size="10.00">FactMetaData.h</text>
</a>
</g>
</g>
<!-- Node35&#45;&gt;Node39 -->
<g id="edge52_Node000035_Node000039" class="edge">
<title>Node35&#45;&gt;Node39</title>
<g id="a_edge52_Node000035_Node000039"><a xlink:title=" ">
<path fill="none" stroke="#63b8ff" d="M726.32,-109.75C727.37,-102.8 728.87,-92.85 730.19,-84.13"/>
<polygon fill="#63b8ff" stroke="#63b8ff" points="733.67,-84.5 731.7,-74.09 726.75,-83.45 733.67,-84.5"/>
</a>
</g>
</g>
<!-- Node39&#45;&gt;Node4 -->
<g id="edge57_Node000039_Node000004" class="edge">
<title>Node39&#45;&gt;Node4</title>
<g id="a_edge57_Node000039_Node000004"><a xlink:title=" ">
<path fill="none" stroke="#63b8ff" d="M686.29,-55.57C631.65,-46.28 541.07,-30.9 481.2,-20.73"/>
<polygon fill="#63b8ff" stroke="#63b8ff" points="481.58,-17.24 471.13,-19.02 480.41,-24.14 481.58,-17.24"/>
</a>
</g>
</g>
<!-- Node39&#45;&gt;Node22 -->
<g id="edge54_Node000039_Node000022" class="edge">
<title>Node39&#45;&gt;Node22</title>
<g id="a_edge54_Node000039_Node000022"><a xlink:title=" ">
<path fill="none" stroke="#63b8ff" d="M779.75,-56.3C842.48,-46.63 953.75,-29.49 1020.92,-19.14"/>
<polygon fill="#63b8ff" stroke="#63b8ff" points="1021.55,-22.58 1030.9,-17.6 1020.48,-15.67 1021.55,-22.58"/>
</a>
</g>
</g>
<!-- Node39&#45;&gt;Node30 -->
<g id="edge55_Node000039_Node000030" class="edge">
<title>Node39&#45;&gt;Node30</title>
<g id="a_edge55_Node000039_Node000030"><a xlink:title=" ">
<path fill="none" stroke="#63b8ff" d="M770.44,-54.98C810.65,-45.84 874.68,-31.27 918.44,-21.32"/>
<polygon fill="#63b8ff" stroke="#63b8ff" points="919.3,-24.71 928.27,-19.08 917.74,-17.89 919.3,-24.71"/>
</a>
</g>
</g>
<!-- Node39&#45;&gt;Node38 -->
<g id="edge56_Node000039_Node000038" class="edge">
<title>Node39&#45;&gt;Node38</title>
<g id="a_edge56_Node000039_Node000038"><a xlink:title=" ">
<path fill="none" stroke="#63b8ff" d="M720.95,-54.98C709.54,-46.92 692.17,-34.65 678.57,-25.03"/>
<polygon fill="#63b8ff" stroke="#63b8ff" points="680.46,-22.08 670.27,-19.17 676.42,-27.8 680.46,-22.08"/>
</a>
</g>
</g>
<!-- Node40 -->
<g id="Node000040" class="node">
<title>Node40</title>
<g id="a_Node000040"><a xlink:title=" ">
<polygon fill="#e0e0e0" stroke="#999999" points="810,-19 724,-19 724,0 810,0 810,-19"/>
<text text-anchor="middle" x="767" y="-7" font-family="Helvetica,sans-Serif" font-size="10.00">QtCore/QHash</text>
</a>
</g>
</g>
<!-- Node39&#45;&gt;Node40 -->
<g id="edge53_Node000039_Node000040" class="edge">
<title>Node39&#45;&gt;Node40</title>
<g id="a_edge53_Node000039_Node000040"><a xlink:title=" ">
<path fill="none" stroke="#63b8ff" d="M738.61,-54.75C743.32,-47.42 750.17,-36.73 755.97,-27.7"/>
<polygon fill="#63b8ff" stroke="#63b8ff" points="759.04,-29.4 761.49,-19.09 753.14,-25.62 759.04,-29.4"/>
</a>
</g>
</g>
</g>
</svg>
