<?xml version="1.0" encoding="UTF-8" standalone="no"?>
<!DOCTYPE svg PUBLIC "-//W3C//DTD SVG 1.1//EN"
 "http://www.w3.org/Graphics/SVG/1.1/DTD/svg11.dtd">
<!-- Generated by graphviz version 2.43.0 (0)
 -->
<!-- Title: src/Comms/Bluetooth/BluetoothConfiguration.cc Pages: 1 -->
<svg width="3998pt" height="214pt"
 viewBox="0.00 0.00 3997.95 214.00" xmlns="http://www.w3.org/2000/svg" xmlns:xlink="http://www.w3.org/1999/xlink">
<g id="graph0" class="graph" transform="scale(1 1) rotate(0) translate(4 210)">
<title>src/Comms/Bluetooth/BluetoothConfiguration.cc</title>
<!-- Node1 -->
<g id="Node000001" class="node">
<title>Node1</title>
<g id="a_Node000001"><a xlink:title=" ">
<polygon fill="#999999" stroke="#666666" points="3353.95,-206 3207.95,-206 3207.95,-176 3353.95,-176 3353.95,-206"/>
<text text-anchor="start" x="3215.95" y="-194" font-family="Helvetica,sans-Serif" font-size="10.00">src/Comms/Bluetooth</text>
<text text-anchor="middle" x="3280.95" y="-183" font-family="Helvetica,sans-Serif" font-size="10.00">/BluetoothConfiguration.cc</text>
</a>
</g>
</g>
<!-- Node2 -->
<g id="Node000002" class="node">
<title>Node2</title>
<g id="a_Node000002"><a xlink:href="BluetoothConfiguration_8h.html" target="_top" xlink:title=" ">
<polygon fill="white" stroke="#666666" points="2571.95,-140 2433.95,-140 2433.95,-121 2571.95,-121 2571.95,-140"/>
<text text-anchor="middle" x="2502.95" y="-128" font-family="Helvetica,sans-Serif" font-size="10.00">BluetoothConfiguration.h</text>
</a>
</g>
</g>
<!-- Node1&#45;&gt;Node2 -->
<g id="edge1_Node000001_Node000002" class="edge">
<title>Node1&#45;&gt;Node2</title>
<g id="a_edge1_Node000001_Node000002"><a xlink:title=" ">
<path fill="none" stroke="#63b8ff" d="M3207.76,-184.5C3061.33,-173.49 2733.43,-148.83 2582.17,-137.46"/>
<polygon fill="#63b8ff" stroke="#63b8ff" points="2582.26,-133.95 2572.03,-136.69 2581.74,-140.93 2582.26,-133.95"/>
</a>
</g>
</g>
<!-- Node10 -->
<g id="Node000010" class="node">
<title>Node10</title>
<g id="a_Node000010"><a xlink:title=" ">
<polygon fill="#e0e0e0" stroke="#999999" points="3367.95,-79.5 3193.95,-79.5 3193.95,-60.5 3367.95,-60.5 3367.95,-79.5"/>
<text text-anchor="middle" x="3280.95" y="-67.5" font-family="Helvetica,sans-Serif" font-size="10.00">QtBluetooth/QBluetoothHostInfo</text>
</a>
</g>
</g>
<!-- Node1&#45;&gt;Node10 -->
<g id="edge34_Node000001_Node000010" class="edge">
<title>Node1&#45;&gt;Node10</title>
<g id="a_edge34_Node000001_Node000010"><a xlink:title=" ">
<path fill="none" stroke="#63b8ff" d="M3207.69,-189.25C3122.74,-186.64 2990.33,-176.63 2958.95,-140 2953.46,-133.59 2953.46,-127.41 2958.95,-121 2961.02,-118.58 3119.27,-94.86 3213.12,-80.98"/>
<polygon fill="#63b8ff" stroke="#63b8ff" points="3213.73,-84.43 3223.12,-79.5 3212.71,-77.5 3213.73,-84.43"/>
</a>
</g>
</g>
<!-- Node16 -->
<g id="Node000016" class="node">
<title>Node16</title>
<g id="a_Node000016"><a xlink:href="QGCLoggingCategory_8h.html" target="_top" xlink:title=" ">
<polygon fill="white" stroke="#666666" points="3095.95,-140 2967.95,-140 2967.95,-121 3095.95,-121 3095.95,-140"/>
<text text-anchor="middle" x="3031.95" y="-128" font-family="Helvetica,sans-Serif" font-size="10.00">QGCLoggingCategory.h</text>
</a>
</g>
</g>
<!-- Node1&#45;&gt;Node16 -->
<g id="edge17_Node000001_Node000016" class="edge">
<title>Node1&#45;&gt;Node16</title>
<g id="a_edge17_Node000001_Node000016"><a xlink:title=" ">
<path fill="none" stroke="#63b8ff" d="M3221.31,-175.99C3177.41,-165.67 3118.58,-151.85 3078.21,-142.37"/>
<polygon fill="#63b8ff" stroke="#63b8ff" points="3078.9,-138.93 3068.36,-140.05 3077.3,-145.75 3078.9,-138.93"/>
</a>
</g>
</g>
<!-- Node18 -->
<g id="Node000018" class="node">
<title>Node18</title>
<g id="a_Node000018"><a xlink:href="QGCNetworkHelper_8h.html" target="_top" xlink:title=" ">
<polygon fill="white" stroke="#666666" points="909.95,-140 789.95,-140 789.95,-121 909.95,-121 909.95,-140"/>
<text text-anchor="middle" x="849.95" y="-128" font-family="Helvetica,sans-Serif" font-size="10.00">QGCNetworkHelper.h</text>
</a>
</g>
</g>
<!-- Node1&#45;&gt;Node18 -->
<g id="edge19_Node000001_Node000018" class="edge">
<title>Node1&#45;&gt;Node18</title>
<g id="a_edge19_Node000001_Node000018"><a xlink:title=" ">
<path fill="none" stroke="#63b8ff" d="M3207.87,-188.24C2848.63,-179.6 1273.21,-141.69 920.28,-133.19"/>
<polygon fill="#63b8ff" stroke="#63b8ff" points="920.27,-129.69 910.19,-132.95 920.11,-136.69 920.27,-129.69"/>
</a>
</g>
</g>
<!-- Node31 -->
<g id="Node000031" class="node">
<title>Node31</title>
<g id="a_Node000031"><a xlink:title=" ">
<polygon fill="#e0e0e0" stroke="#999999" points="3269.45,-140 3114.45,-140 3114.45,-121 3269.45,-121 3269.45,-140"/>
<text text-anchor="middle" x="3191.95" y="-128" font-family="Helvetica,sans-Serif" font-size="10.00">QtBluetooth/QBluetoothUuid</text>
</a>
</g>
</g>
<!-- Node1&#45;&gt;Node31 -->
<g id="edge35_Node000001_Node000031" class="edge">
<title>Node1&#45;&gt;Node31</title>
<g id="a_edge35_Node000001_Node000031"><a xlink:title=" ">
<path fill="none" stroke="#63b8ff" d="M3259.41,-175.84C3245.48,-166.68 3227.43,-154.82 3213.5,-145.66"/>
<polygon fill="#63b8ff" stroke="#63b8ff" points="3215.31,-142.66 3205.03,-140.09 3211.46,-148.51 3215.31,-142.66"/>
</a>
</g>
</g>
<!-- Node32 -->
<g id="Node000032" class="node">
<title>Node32</title>
<g id="a_Node000032"><a xlink:title=" ">
<polygon fill="#e0e0e0" stroke="#999999" points="3454.45,-140 3287.45,-140 3287.45,-121 3454.45,-121 3454.45,-140"/>
<text text-anchor="middle" x="3370.95" y="-128" font-family="Helvetica,sans-Serif" font-size="10.00">QtConcurrent/QtConcurrentRun</text>
</a>
</g>
</g>
<!-- Node1&#45;&gt;Node32 -->
<g id="edge36_Node000001_Node000032" class="edge">
<title>Node1&#45;&gt;Node32</title>
<g id="a_edge36_Node000001_Node000032"><a xlink:title=" ">
<path fill="none" stroke="#63b8ff" d="M3302.74,-175.84C3316.82,-166.68 3335.08,-154.82 3349.17,-145.66"/>
<polygon fill="#63b8ff" stroke="#63b8ff" points="3351.25,-148.48 3357.73,-140.09 3347.44,-142.61 3351.25,-148.48"/>
</a>
</g>
</g>
<!-- Node33 -->
<g id="Node000033" class="node">
<title>Node33</title>
<g id="a_Node000033"><a xlink:title=" ">
<polygon fill="#e0e0e0" stroke="#999999" points="3610.95,-140 3472.95,-140 3472.95,-121 3610.95,-121 3610.95,-140"/>
<text text-anchor="middle" x="3541.95" y="-128" font-family="Helvetica,sans-Serif" font-size="10.00">QtCore/QCoreApplication</text>
</a>
</g>
</g>
<!-- Node1&#45;&gt;Node33 -->
<g id="edge37_Node000001_Node000033" class="edge">
<title>Node1&#45;&gt;Node33</title>
<g id="a_edge37_Node000001_Node000033"><a xlink:title=" ">
<path fill="none" stroke="#63b8ff" d="M3343.47,-175.99C3389.68,-165.63 3451.68,-151.73 3494.01,-142.25"/>
<polygon fill="#63b8ff" stroke="#63b8ff" points="3494.8,-145.66 3503.79,-140.05 3493.27,-138.83 3494.8,-145.66"/>
</a>
</g>
</g>
<!-- Node34 -->
<g id="Node000034" class="node">
<title>Node34</title>
<g id="a_Node000034"><a xlink:title=" ">
<polygon fill="#e0e0e0" stroke="#999999" points="3748.95,-140 3628.95,-140 3628.95,-121 3748.95,-121 3748.95,-140"/>
<text text-anchor="middle" x="3688.95" y="-128" font-family="Helvetica,sans-Serif" font-size="10.00">QtCore/QPermissions</text>
</a>
</g>
</g>
<!-- Node1&#45;&gt;Node34 -->
<g id="edge38_Node000001_Node000034" class="edge">
<title>Node1&#45;&gt;Node34</title>
<g id="a_edge38_Node000001_Node000034"><a xlink:title=" ">
<path fill="none" stroke="#63b8ff" d="M3354.37,-179.47C3429.52,-168.7 3545.48,-152.07 3619.26,-141.49"/>
<polygon fill="#63b8ff" stroke="#63b8ff" points="3619.98,-144.93 3629.38,-140.04 3618.98,-138 3619.98,-144.93"/>
</a>
</g>
</g>
<!-- Node35 -->
<g id="Node000035" class="node">
<title>Node35</title>
<g id="a_Node000035"><a xlink:title=" ">
<polygon fill="#e0e0e0" stroke="#999999" points="3856.45,-140 3767.45,-140 3767.45,-121 3856.45,-121 3856.45,-140"/>
<text text-anchor="middle" x="3811.95" y="-128" font-family="Helvetica,sans-Serif" font-size="10.00">QtCore/QTimer</text>
</a>
</g>
</g>
<!-- Node1&#45;&gt;Node35 -->
<g id="edge39_Node000001_Node000035" class="edge">
<title>Node1&#45;&gt;Node35</title>
<g id="a_edge39_Node000001_Node000035"><a xlink:title=" ">
<path fill="none" stroke="#63b8ff" d="M3354.23,-183.5C3445.88,-175.11 3607.85,-159.41 3756.93,-140.07"/>
<polygon fill="#63b8ff" stroke="#63b8ff" points="3757.73,-143.49 3767.19,-138.73 3756.82,-136.55 3757.73,-143.49"/>
</a>
</g>
</g>
<!-- Node36 -->
<g id="Node000036" class="node">
<title>Node36</title>
<g id="a_Node000036"><a xlink:title=" ">
<polygon fill="#e0e0e0" stroke="#999999" points="3989.95,-140 3873.95,-140 3873.95,-121 3989.95,-121 3989.95,-140"/>
<text text-anchor="middle" x="3931.95" y="-128" font-family="Helvetica,sans-Serif" font-size="10.00">QtCore/QVariantMap</text>
</a>
</g>
</g>
<!-- Node1&#45;&gt;Node36 -->
<g id="edge40_Node000001_Node000036" class="edge">
<title>Node1&#45;&gt;Node36</title>
<g id="a_edge40_Node000001_Node000036"><a xlink:title=" ">
<path fill="none" stroke="#63b8ff" d="M3354.01,-184.77C3462.88,-176.74 3674.39,-160.29 3863.54,-140.22"/>
<polygon fill="#63b8ff" stroke="#63b8ff" points="3864.09,-143.69 3873.67,-139.14 3863.35,-136.72 3864.09,-143.69"/>
</a>
</g>
</g>
<!-- Node3 -->
<g id="Node000003" class="node">
<title>Node3</title>
<g id="a_Node000003"><a xlink:href="LinkConfiguration_8h.html" target="_top" xlink:title=" ">
<polygon fill="white" stroke="#666666" points="2558.45,-79.5 2447.45,-79.5 2447.45,-60.5 2558.45,-60.5 2558.45,-79.5"/>
<text text-anchor="middle" x="2502.95" y="-67.5" font-family="Helvetica,sans-Serif" font-size="10.00">LinkConfiguration.h</text>
</a>
</g>
</g>
<!-- Node2&#45;&gt;Node3 -->
<g id="edge2_Node000002_Node000003" class="edge">
<title>Node2&#45;&gt;Node3</title>
<g id="a_edge2_Node000002_Node000003"><a xlink:title=" ">
<path fill="none" stroke="#63b8ff" d="M2502.95,-120.87C2502.95,-112.75 2502.95,-100.31 2502.95,-89.89"/>
<polygon fill="#63b8ff" stroke="#63b8ff" points="2506.45,-89.67 2502.95,-79.67 2499.45,-89.67 2506.45,-89.67"/>
</a>
</g>
</g>
<!-- Node5 -->
<g id="Node000005" class="node">
<title>Node5</title>
<g id="a_Node000005"><a xlink:title=" ">
<polygon fill="#e0e0e0" stroke="#999999" points="2394.45,-19 2305.45,-19 2305.45,0 2394.45,0 2394.45,-19"/>
<text text-anchor="middle" x="2349.95" y="-7" font-family="Helvetica,sans-Serif" font-size="10.00">QtCore/QString</text>
</a>
</g>
</g>
<!-- Node2&#45;&gt;Node5 -->
<g id="edge14_Node000002_Node000005" class="edge">
<title>Node2&#45;&gt;Node5</title>
<g id="a_edge14_Node000002_Node000005"><a xlink:title=" ">
<path fill="none" stroke="#63b8ff" d="M2489.48,-120.85C2476.13,-112.16 2455.24,-98.18 2437.95,-85 2412.51,-65.6 2384.53,-41.38 2367.1,-25.93"/>
<polygon fill="#63b8ff" stroke="#63b8ff" points="2369.24,-23.15 2359.45,-19.1 2364.59,-28.37 2369.24,-23.15"/>
</a>
</g>
</g>
<!-- Node6 -->
<g id="Node000006" class="node">
<title>Node6</title>
<g id="a_Node000006"><a xlink:title=" ">
<polygon fill="#e0e0e0" stroke="#999999" points="2720.45,-19 2531.45,-19 2531.45,0 2720.45,0 2720.45,-19"/>
<text text-anchor="middle" x="2625.95" y="-7" font-family="Helvetica,sans-Serif" font-size="10.00">QtQmlIntegration/QtQmlIntegration</text>
</a>
</g>
</g>
<!-- Node2&#45;&gt;Node6 -->
<g id="edge16_Node000002_Node000006" class="edge">
<title>Node2&#45;&gt;Node6</title>
<g id="a_edge16_Node000002_Node000006"><a xlink:title=" ">
<path fill="none" stroke="#63b8ff" d="M2517.84,-120.89C2531.43,-112.65 2551.67,-99.36 2566.95,-85 2585.65,-67.43 2603.4,-43.72 2614.45,-27.81"/>
<polygon fill="#63b8ff" stroke="#63b8ff" points="2617.41,-29.69 2620.15,-19.45 2611.63,-25.75 2617.41,-29.69"/>
</a>
</g>
</g>
<!-- Node7 -->
<g id="Node000007" class="node">
<title>Node7</title>
<g id="a_Node000007"><a xlink:title=" ">
<polygon fill="#e0e0e0" stroke="#999999" points="2786.95,-79.5 2614.95,-79.5 2614.95,-60.5 2786.95,-60.5 2786.95,-79.5"/>
<text text-anchor="middle" x="2700.95" y="-67.5" font-family="Helvetica,sans-Serif" font-size="10.00">QtBluetooth/QBluetoothAddress</text>
</a>
</g>
</g>
<!-- Node2&#45;&gt;Node7 -->
<g id="edge6_Node000002_Node000007" class="edge">
<title>Node2&#45;&gt;Node7</title>
<g id="a_edge6_Node000002_Node000007"><a xlink:title=" ">
<path fill="none" stroke="#63b8ff" d="M2531.74,-120.99C2566.2,-110.81 2624.05,-93.72 2662.36,-82.4"/>
<polygon fill="#63b8ff" stroke="#63b8ff" points="2663.53,-85.71 2672.13,-79.52 2661.55,-78.99 2663.53,-85.71"/>
</a>
</g>
</g>
<!-- Node8 -->
<g id="Node000008" class="node">
<title>Node8</title>
<g id="a_Node000008"><a xlink:title=" ">
<polygon fill="#e0e0e0" stroke="#999999" points="2972.45,-85 2805.45,-85 2805.45,-55 2972.45,-55 2972.45,-85"/>
<text text-anchor="start" x="2813.45" y="-73" font-family="Helvetica,sans-Serif" font-size="10.00">QtBluetooth/QBluetoothDevice</text>
<text text-anchor="middle" x="2888.95" y="-62" font-family="Helvetica,sans-Serif" font-size="10.00">DiscoveryAgent</text>
</a>
</g>
</g>
<!-- Node2&#45;&gt;Node8 -->
<g id="edge7_Node000002_Node000008" class="edge">
<title>Node2&#45;&gt;Node8</title>
<g id="a_edge7_Node000002_Node000008"><a xlink:title=" ">
<path fill="none" stroke="#63b8ff" d="M2559.08,-120.99C2620.89,-111.63 2721.28,-96.41 2795.1,-85.22"/>
<polygon fill="#63b8ff" stroke="#63b8ff" points="2795.97,-88.63 2805.34,-83.67 2794.93,-81.71 2795.97,-88.63"/>
</a>
</g>
</g>
<!-- Node9 -->
<g id="Node000009" class="node">
<title>Node9</title>
<g id="a_Node000009"><a xlink:title=" ">
<polygon fill="#e0e0e0" stroke="#999999" points="3175.45,-79.5 2990.45,-79.5 2990.45,-60.5 3175.45,-60.5 3175.45,-79.5"/>
<text text-anchor="middle" x="3082.95" y="-67.5" font-family="Helvetica,sans-Serif" font-size="10.00">QtBluetooth/QBluetoothDeviceInfo</text>
</a>
</g>
</g>
<!-- Node2&#45;&gt;Node9 -->
<g id="edge8_Node000002_Node000009" class="edge">
<title>Node2&#45;&gt;Node9</title>
<g id="a_edge8_Node000002_Node000009"><a xlink:title=" ">
<path fill="none" stroke="#63b8ff" d="M2572.32,-124C2665.4,-116.39 2835.85,-101.7 2980.95,-85 2991.69,-83.76 3003.05,-82.33 3014.14,-80.86"/>
<polygon fill="#63b8ff" stroke="#63b8ff" points="3014.77,-84.31 3024.22,-79.51 3013.84,-77.37 3014.77,-84.31"/>
</a>
</g>
</g>
<!-- Node2&#45;&gt;Node10 -->
<g id="edge9_Node000002_Node000010" class="edge">
<title>Node2&#45;&gt;Node10</title>
<g id="a_edge9_Node000002_Node000010"><a xlink:title=" ">
<path fill="none" stroke="#63b8ff" d="M2572.33,-126.8C2695.78,-121.59 2961.64,-108.53 3184.95,-85 3195.6,-83.88 3206.87,-82.45 3217.81,-80.94"/>
<polygon fill="#63b8ff" stroke="#63b8ff" points="3218.32,-84.4 3227.73,-79.53 3217.34,-77.47 3218.32,-84.4"/>
</a>
</g>
</g>
<!-- Node11 -->
<g id="Node000011" class="node">
<title>Node11</title>
<g id="a_Node000011"><a xlink:title=" ">
<polygon fill="#e0e0e0" stroke="#999999" points="1996.95,-85 1838.95,-85 1838.95,-55 1996.95,-55 1996.95,-85"/>
<text text-anchor="start" x="1846.95" y="-73" font-family="Helvetica,sans-Serif" font-size="10.00">QtBluetooth/QBluetoothLocal</text>
<text text-anchor="middle" x="1917.95" y="-62" font-family="Helvetica,sans-Serif" font-size="10.00">Device</text>
</a>
</g>
</g>
<!-- Node2&#45;&gt;Node11 -->
<g id="edge10_Node000002_Node000011" class="edge">
<title>Node2&#45;&gt;Node11</title>
<g id="a_edge10_Node000002_Node000011"><a xlink:title=" ">
<path fill="none" stroke="#63b8ff" d="M2433.65,-124.8C2339.43,-118.07 2165.44,-104.47 2007,-85.07"/>
<polygon fill="#63b8ff" stroke="#63b8ff" points="2007.42,-81.6 1997.07,-83.85 2006.57,-88.55 2007.42,-81.6"/>
</a>
</g>
</g>
<!-- Node12 -->
<g id="Node000012" class="node">
<title>Node12</title>
<g id="a_Node000012"><a xlink:title=" ">
<polygon fill="#e0e0e0" stroke="#999999" points="2146.45,-79.5 2015.45,-79.5 2015.45,-60.5 2146.45,-60.5 2146.45,-79.5"/>
<text text-anchor="middle" x="2080.95" y="-67.5" font-family="Helvetica,sans-Serif" font-size="10.00">QtCore/QFutureWatcher</text>
</a>
</g>
</g>
<!-- Node2&#45;&gt;Node12 -->
<g id="edge11_Node000002_Node000012" class="edge">
<title>Node2&#45;&gt;Node12</title>
<g id="a_edge11_Node000002_Node000012"><a xlink:title=" ">
<path fill="none" stroke="#63b8ff" d="M2433.78,-121.89C2363.43,-113.86 2251.36,-100.27 2154.95,-85 2148.1,-83.91 2140.91,-82.68 2133.81,-81.4"/>
<polygon fill="#63b8ff" stroke="#63b8ff" points="2134,-77.87 2123.53,-79.51 2132.73,-84.76 2134,-77.87"/>
</a>
</g>
</g>
<!-- Node13 -->
<g id="Node000013" class="node">
<title>Node13</title>
<g id="a_Node000013"><a xlink:title=" ">
<polygon fill="#e0e0e0" stroke="#999999" points="1820.95,-79.5 1742.95,-79.5 1742.95,-60.5 1820.95,-60.5 1820.95,-79.5"/>
<text text-anchor="middle" x="1781.95" y="-67.5" font-family="Helvetica,sans-Serif" font-size="10.00">QtCore/QList</text>
</a>
</g>
</g>
<!-- Node2&#45;&gt;Node13 -->
<g id="edge12_Node000002_Node000013" class="edge">
<title>Node2&#45;&gt;Node13</title>
<g id="a_edge12_Node000002_Node000013"><a xlink:title=" ">
<path fill="none" stroke="#63b8ff" d="M2433.57,-129.87C2310.85,-129.41 2047.89,-123.51 1829.95,-85 1825.77,-84.26 1821.43,-83.29 1817.15,-82.21"/>
<polygon fill="#63b8ff" stroke="#63b8ff" points="1817.94,-78.8 1807.37,-79.53 1816.09,-85.55 1817.94,-78.8"/>
</a>
</g>
</g>
<!-- Node14 -->
<g id="Node000014" class="node">
<title>Node14</title>
<g id="a_Node000014"><a xlink:title=" ">
<polygon fill="#e0e0e0" stroke="#999999" points="2259.45,-79.5 2164.45,-79.5 2164.45,-60.5 2259.45,-60.5 2259.45,-79.5"/>
<text text-anchor="middle" x="2211.95" y="-67.5" font-family="Helvetica,sans-Serif" font-size="10.00">QtCore/QPointer</text>
</a>
</g>
</g>
<!-- Node2&#45;&gt;Node14 -->
<g id="edge13_Node000002_Node000014" class="edge">
<title>Node2&#45;&gt;Node14</title>
<g id="a_edge13_Node000002_Node000014"><a xlink:title=" ">
<path fill="none" stroke="#63b8ff" d="M2453.27,-120.95C2405.59,-112.55 2331.63,-98.98 2267.95,-85 2263.6,-84.04 2259.06,-83 2254.54,-81.92"/>
<polygon fill="#63b8ff" stroke="#63b8ff" points="2255.29,-78.5 2244.75,-79.54 2253.64,-85.3 2255.29,-78.5"/>
</a>
</g>
</g>
<!-- Node15 -->
<g id="Node000015" class="node">
<title>Node15</title>
<g id="a_Node000015"><a xlink:title=" ">
<polygon fill="#e0e0e0" stroke="#999999" points="2390.45,-79.5 2277.45,-79.5 2277.45,-60.5 2390.45,-60.5 2390.45,-79.5"/>
<text text-anchor="middle" x="2333.95" y="-67.5" font-family="Helvetica,sans-Serif" font-size="10.00">QtCore/QVariantList</text>
</a>
</g>
</g>
<!-- Node2&#45;&gt;Node15 -->
<g id="edge15_Node000002_Node000015" class="edge">
<title>Node2&#45;&gt;Node15</title>
<g id="a_edge15_Node000002_Node000015"><a xlink:title=" ">
<path fill="none" stroke="#63b8ff" d="M2478.38,-120.99C2449.34,-110.94 2400.85,-94.16 2368.16,-82.84"/>
<polygon fill="#63b8ff" stroke="#63b8ff" points="2369.15,-79.48 2358.56,-79.52 2366.86,-86.1 2369.15,-79.48"/>
</a>
</g>
</g>
<!-- Node4 -->
<g id="Node000004" class="node">
<title>Node4</title>
<g id="a_Node000004"><a xlink:title=" ">
<polygon fill="#e0e0e0" stroke="#999999" points="2513.45,-19 2412.45,-19 2412.45,0 2513.45,0 2513.45,-19"/>
<text text-anchor="middle" x="2462.95" y="-7" font-family="Helvetica,sans-Serif" font-size="10.00">QtCore/QSettings</text>
</a>
</g>
</g>
<!-- Node3&#45;&gt;Node4 -->
<g id="edge3_Node000003_Node000004" class="edge">
<title>Node3&#45;&gt;Node4</title>
<g id="a_edge3_Node000003_Node000004"><a xlink:title=" ">
<path fill="none" stroke="#63b8ff" d="M2497.05,-60.37C2491.2,-51.81 2482.08,-38.47 2474.74,-27.74"/>
<polygon fill="#63b8ff" stroke="#63b8ff" points="2477.41,-25.45 2468.88,-19.17 2471.63,-29.4 2477.41,-25.45"/>
</a>
</g>
</g>
<!-- Node3&#45;&gt;Node5 -->
<g id="edge4_Node000003_Node000005" class="edge">
<title>Node3&#45;&gt;Node5</title>
<g id="a_edge4_Node000003_Node000005"><a xlink:title=" ">
<path fill="none" stroke="#63b8ff" d="M2480.71,-60.49C2454.64,-50.53 2411.27,-33.95 2381.69,-22.63"/>
<polygon fill="#63b8ff" stroke="#63b8ff" points="2382.82,-19.32 2372.23,-19.02 2380.32,-25.86 2382.82,-19.32"/>
</a>
</g>
</g>
<!-- Node3&#45;&gt;Node6 -->
<g id="edge5_Node000003_Node000006" class="edge">
<title>Node3&#45;&gt;Node6</title>
<g id="a_edge5_Node000003_Node000006"><a xlink:title=" ">
<path fill="none" stroke="#63b8ff" d="M2520.84,-60.49C2541.33,-50.75 2575.15,-34.66 2598.87,-23.38"/>
<polygon fill="#63b8ff" stroke="#63b8ff" points="2600.52,-26.47 2608.05,-19.02 2597.51,-20.15 2600.52,-26.47"/>
</a>
</g>
</g>
<!-- Node17 -->
<g id="Node000017" class="node">
<title>Node17</title>
<g id="a_Node000017"><a xlink:title=" ">
<polygon fill="#e0e0e0" stroke="#999999" points="3529.45,-79.5 3386.45,-79.5 3386.45,-60.5 3529.45,-60.5 3529.45,-79.5"/>
<text text-anchor="middle" x="3457.95" y="-67.5" font-family="Helvetica,sans-Serif" font-size="10.00">QtCore/QLoggingCategory</text>
</a>
</g>
</g>
<!-- Node16&#45;&gt;Node17 -->
<g id="edge18_Node000016_Node000017" class="edge">
<title>Node16&#45;&gt;Node17</title>
<g id="a_edge18_Node000016_Node000017"><a xlink:title=" ">
<path fill="none" stroke="#63b8ff" d="M3095.97,-122.08C3165.32,-113.84 3279.17,-99.75 3376.95,-85 3384.59,-83.85 3392.62,-82.56 3400.54,-81.24"/>
<polygon fill="#63b8ff" stroke="#63b8ff" points="3401.19,-84.68 3410.47,-79.56 3400.02,-77.77 3401.19,-84.68"/>
</a>
</g>
</g>
<!-- Node18&#45;&gt;Node5 -->
<g id="edge23_Node000018_Node000005" class="edge">
<title>Node18&#45;&gt;Node5</title>
<g id="a_edge23_Node000018_Node000005"><a xlink:title=" ">
<path fill="none" stroke="#63b8ff" d="M789.86,-128.57C601.56,-125.36 33.86,-113.36 6.95,-85 -2.22,-75.33 -2.39,-64.52 6.95,-55 48.35,-12.81 1946.52,-10.55 2295.22,-10.49"/>
<polygon fill="#63b8ff" stroke="#63b8ff" points="2295.32,-13.99 2305.32,-10.49 2295.32,-6.99 2295.32,-13.99"/>
</a>
</g>
</g>
<!-- Node18&#45;&gt;Node13 -->
<g id="edge21_Node000018_Node000013" class="edge">
<title>Node18&#45;&gt;Node13</title>
<g id="a_edge21_Node000018_Node000013"><a xlink:title=" ">
<path fill="none" stroke="#63b8ff" d="M910.22,-128.3C1082.51,-124.57 1574.94,-111.81 1733.95,-85 1738.19,-84.29 1742.58,-83.32 1746.91,-82.24"/>
<polygon fill="#63b8ff" stroke="#63b8ff" points="1748.08,-85.55 1756.8,-79.53 1746.23,-78.8 1748.08,-85.55"/>
</a>
</g>
</g>
<!-- Node19 -->
<g id="Node000019" class="node">
<title>Node19</title>
<g id="a_Node000019"><a xlink:title=" ">
<polygon fill="#e0e0e0" stroke="#999999" points="147.45,-79.5 16.45,-79.5 16.45,-60.5 147.45,-60.5 147.45,-79.5"/>
<text text-anchor="middle" x="81.95" y="-67.5" font-family="Helvetica,sans-Serif" font-size="10.00">QtCore/QJsonDocument</text>
</a>
</g>
</g>
<!-- Node18&#45;&gt;Node19 -->
<g id="edge20_Node000018_Node000019" class="edge">
<title>Node18&#45;&gt;Node19</title>
<g id="a_edge20_Node000018_Node000019"><a xlink:title=" ">
<path fill="none" stroke="#63b8ff" d="M789.84,-128.13C669.22,-124.84 389.23,-114.43 155.95,-85 148.2,-84.02 140.03,-82.74 132.07,-81.34"/>
<polygon fill="#63b8ff" stroke="#63b8ff" points="132.6,-77.88 122.14,-79.53 131.35,-84.77 132.6,-77.88"/>
</a>
</g>
</g>
<!-- Node20 -->
<g id="Node000020" class="node">
<title>Node20</title>
<g id="a_Node000020"><a xlink:title=" ">
<polygon fill="#e0e0e0" stroke="#999999" points="244.45,-79.5 165.45,-79.5 165.45,-60.5 244.45,-60.5 244.45,-79.5"/>
<text text-anchor="middle" x="204.95" y="-67.5" font-family="Helvetica,sans-Serif" font-size="10.00">QtCore/QPair</text>
</a>
</g>
</g>
<!-- Node18&#45;&gt;Node20 -->
<g id="edge22_Node000018_Node000020" class="edge">
<title>Node18&#45;&gt;Node20</title>
<g id="a_edge22_Node000018_Node000020"><a xlink:title=" ">
<path fill="none" stroke="#63b8ff" d="M789.69,-129.16C681.38,-127.63 447.01,-120.13 252.95,-85 248.82,-84.25 244.54,-83.29 240.3,-82.21"/>
<polygon fill="#63b8ff" stroke="#63b8ff" points="241.19,-78.83 230.62,-79.56 239.34,-85.58 241.19,-78.83"/>
</a>
</g>
</g>
<!-- Node21 -->
<g id="Node000021" class="node">
<title>Node21</title>
<g id="a_Node000021"><a xlink:title=" ">
<polygon fill="#e0e0e0" stroke="#999999" points="337.45,-79.5 262.45,-79.5 262.45,-60.5 337.45,-60.5 337.45,-79.5"/>
<text text-anchor="middle" x="299.95" y="-67.5" font-family="Helvetica,sans-Serif" font-size="10.00">QtCore/QUrl</text>
</a>
</g>
</g>
<!-- Node18&#45;&gt;Node21 -->
<g id="edge24_Node000018_Node000021" class="edge">
<title>Node18&#45;&gt;Node21</title>
<g id="a_edge24_Node000018_Node000021"><a xlink:title=" ">
<path fill="none" stroke="#63b8ff" d="M789.65,-128.21C694.53,-125.26 504.19,-115.72 345.95,-85 342.1,-84.25 338.11,-83.31 334.16,-82.26"/>
<polygon fill="#63b8ff" stroke="#63b8ff" points="335.12,-78.89 324.54,-79.51 333.2,-85.62 335.12,-78.89"/>
</a>
</g>
</g>
<!-- Node22 -->
<g id="Node000022" class="node">
<title>Node22</title>
<g id="a_Node000022"><a xlink:title=" ">
<polygon fill="#e0e0e0" stroke="#999999" points="450.45,-79.5 355.45,-79.5 355.45,-60.5 450.45,-60.5 450.45,-79.5"/>
<text text-anchor="middle" x="402.95" y="-67.5" font-family="Helvetica,sans-Serif" font-size="10.00">QtCore/QVariant</text>
</a>
</g>
</g>
<!-- Node18&#45;&gt;Node22 -->
<g id="edge25_Node000018_Node000022" class="edge">
<title>Node18&#45;&gt;Node22</title>
<g id="a_edge25_Node000018_Node000022"><a xlink:title=" ">
<path fill="none" stroke="#63b8ff" d="M789.64,-125.12C712.53,-118.94 575.09,-106.03 458.95,-85 453.97,-84.1 448.76,-83 443.62,-81.83"/>
<polygon fill="#63b8ff" stroke="#63b8ff" points="444.44,-78.43 433.9,-79.51 442.81,-85.24 444.44,-78.43"/>
</a>
</g>
</g>
<!-- Node23 -->
<g id="Node000023" class="node">
<title>Node23</title>
<g id="a_Node000023"><a xlink:title=" ">
<polygon fill="#e0e0e0" stroke="#999999" points="611.45,-85 468.45,-85 468.45,-55 611.45,-55 611.45,-85"/>
<text text-anchor="start" x="476.45" y="-73" font-family="Helvetica,sans-Serif" font-size="10.00">QtHttpServer/QHttpServer</text>
<text text-anchor="middle" x="539.95" y="-62" font-family="Helvetica,sans-Serif" font-size="10.00">Request</text>
</a>
</g>
</g>
<!-- Node18&#45;&gt;Node23 -->
<g id="edge26_Node000018_Node000023" class="edge">
<title>Node18&#45;&gt;Node23</title>
<g id="a_edge26_Node000018_Node000023"><a xlink:title=" ">
<path fill="none" stroke="#63b8ff" d="M804.88,-120.99C756.94,-111.95 680.09,-97.45 621.48,-86.39"/>
<polygon fill="#63b8ff" stroke="#63b8ff" points="621.98,-82.92 611.5,-84.5 620.68,-89.8 621.98,-82.92"/>
</a>
</g>
</g>
<!-- Node24 -->
<g id="Node000024" class="node">
<title>Node24</title>
<g id="a_Node000024"><a xlink:title=" ">
<polygon fill="#e0e0e0" stroke="#999999" points="772.45,-85 629.45,-85 629.45,-55 772.45,-55 772.45,-85"/>
<text text-anchor="start" x="637.45" y="-73" font-family="Helvetica,sans-Serif" font-size="10.00">QtHttpServer/QHttpServer</text>
<text text-anchor="middle" x="700.95" y="-62" font-family="Helvetica,sans-Serif" font-size="10.00">Responder</text>
</a>
</g>
</g>
<!-- Node18&#45;&gt;Node24 -->
<g id="edge27_Node000018_Node000024" class="edge">
<title>Node18&#45;&gt;Node24</title>
<g id="a_edge27_Node000018_Node000024"><a xlink:title=" ">
<path fill="none" stroke="#63b8ff" d="M828.29,-120.99C806.84,-112.57 773.37,-99.43 746.12,-88.73"/>
<polygon fill="#63b8ff" stroke="#63b8ff" points="747.36,-85.46 736.77,-85.06 744.8,-91.98 747.36,-85.46"/>
</a>
</g>
</g>
<!-- Node25 -->
<g id="Node000025" class="node">
<title>Node25</title>
<g id="a_Node000025"><a xlink:title=" ">
<polygon fill="#e0e0e0" stroke="#999999" points="909.45,-79.5 790.45,-79.5 790.45,-60.5 909.45,-60.5 909.45,-79.5"/>
<text text-anchor="middle" x="849.95" y="-67.5" font-family="Helvetica,sans-Serif" font-size="10.00">QtNetwork/QHttpPart</text>
</a>
</g>
</g>
<!-- Node18&#45;&gt;Node25 -->
<g id="edge28_Node000018_Node000025" class="edge">
<title>Node18&#45;&gt;Node25</title>
<g id="a_edge28_Node000018_Node000025"><a xlink:title=" ">
<path fill="none" stroke="#63b8ff" d="M849.95,-120.87C849.95,-112.75 849.95,-100.31 849.95,-89.89"/>
<polygon fill="#63b8ff" stroke="#63b8ff" points="853.45,-89.67 849.95,-79.67 846.45,-89.67 853.45,-89.67"/>
</a>
</g>
</g>
<!-- Node26 -->
<g id="Node000026" class="node">
<title>Node26</title>
<g id="a_Node000026"><a xlink:title=" ">
<polygon fill="#e0e0e0" stroke="#999999" points="1076.45,-79.5 927.45,-79.5 927.45,-60.5 1076.45,-60.5 1076.45,-79.5"/>
<text text-anchor="middle" x="1001.95" y="-67.5" font-family="Helvetica,sans-Serif" font-size="10.00">QtNetwork/QNetworkReply</text>
</a>
</g>
</g>
<!-- Node18&#45;&gt;Node26 -->
<g id="edge29_Node000018_Node000026" class="edge">
<title>Node18&#45;&gt;Node26</title>
<g id="a_edge29_Node000018_Node000026"><a xlink:title=" ">
<path fill="none" stroke="#63b8ff" d="M872.06,-120.99C897.95,-111.03 941.03,-94.45 970.43,-83.13"/>
<polygon fill="#63b8ff" stroke="#63b8ff" points="971.75,-86.38 979.82,-79.52 969.23,-79.84 971.75,-86.38"/>
</a>
</g>
</g>
<!-- Node27 -->
<g id="Node000027" class="node">
<title>Node27</title>
<g id="a_Node000027"><a xlink:title=" ">
<polygon fill="#e0e0e0" stroke="#999999" points="1255.45,-79.5 1094.45,-79.5 1094.45,-60.5 1255.45,-60.5 1255.45,-79.5"/>
<text text-anchor="middle" x="1174.95" y="-67.5" font-family="Helvetica,sans-Serif" font-size="10.00">QtNetwork/QNetworkRequest</text>
</a>
</g>
</g>
<!-- Node18&#45;&gt;Node27 -->
<g id="edge30_Node000018_Node000027" class="edge">
<title>Node18&#45;&gt;Node27</title>
<g id="a_edge30_Node000018_Node000027"><a xlink:title=" ">
<path fill="none" stroke="#63b8ff" d="M897.21,-120.99C955.58,-110.49 1054.82,-92.62 1117.52,-81.34"/>
<polygon fill="#63b8ff" stroke="#63b8ff" points="1118.42,-84.73 1127.64,-79.52 1117.18,-77.84 1118.42,-84.73"/>
</a>
</g>
</g>
<!-- Node28 -->
<g id="Node000028" class="node">
<title>Node28</title>
<g id="a_Node000028"><a xlink:title=" ">
<polygon fill="#e0e0e0" stroke="#999999" points="1417.95,-79.5 1273.95,-79.5 1273.95,-60.5 1417.95,-60.5 1417.95,-79.5"/>
<text text-anchor="middle" x="1345.95" y="-67.5" font-family="Helvetica,sans-Serif" font-size="10.00">QtNetwork/QSslCertificate</text>
</a>
</g>
</g>
<!-- Node18&#45;&gt;Node28 -->
<g id="edge31_Node000018_Node000028" class="edge">
<title>Node18&#45;&gt;Node28</title>
<g id="a_edge31_Node000018_Node000028"><a xlink:title=" ">
<path fill="none" stroke="#63b8ff" d="M910.09,-124.22C990.78,-116.86 1138.47,-102.44 1263.95,-85 1271.99,-83.88 1280.44,-82.58 1288.75,-81.23"/>
<polygon fill="#63b8ff" stroke="#63b8ff" points="1289.47,-84.66 1298.77,-79.57 1288.33,-77.75 1289.47,-84.66"/>
</a>
</g>
</g>
<!-- Node29 -->
<g id="Node000029" class="node">
<title>Node29</title>
<g id="a_Node000029"><a xlink:title=" ">
<polygon fill="#e0e0e0" stroke="#999999" points="1595.45,-79.5 1436.45,-79.5 1436.45,-60.5 1595.45,-60.5 1595.45,-79.5"/>
<text text-anchor="middle" x="1515.95" y="-67.5" font-family="Helvetica,sans-Serif" font-size="10.00">QtNetwork/QSslConfiguration</text>
</a>
</g>
</g>
<!-- Node18&#45;&gt;Node29 -->
<g id="edge32_Node000018_Node000029" class="edge">
<title>Node18&#45;&gt;Node29</title>
<g id="a_edge32_Node000018_Node000029"><a xlink:title=" ">
<path fill="none" stroke="#63b8ff" d="M910.33,-126.42C1015.51,-120.7 1239.1,-106.98 1426.95,-85 1436.41,-83.89 1446.4,-82.52 1456.13,-81.07"/>
<polygon fill="#63b8ff" stroke="#63b8ff" points="1456.8,-84.51 1466.15,-79.54 1455.74,-77.59 1456.8,-84.51"/>
</a>
</g>
</g>
<!-- Node30 -->
<g id="Node000030" class="node">
<title>Node30</title>
<g id="a_Node000030"><a xlink:title=" ">
<polygon fill="#e0e0e0" stroke="#999999" points="1724.95,-79.5 1612.95,-79.5 1612.95,-60.5 1724.95,-60.5 1724.95,-79.5"/>
<text text-anchor="middle" x="1668.95" y="-67.5" font-family="Helvetica,sans-Serif" font-size="10.00">QtNetwork/QSslKey</text>
</a>
</g>
</g>
<!-- Node18&#45;&gt;Node30 -->
<g id="edge33_Node000018_Node000030" class="edge">
<title>Node18&#45;&gt;Node30</title>
<g id="a_edge33_Node000018_Node000030"><a xlink:title=" ">
<path fill="none" stroke="#63b8ff" d="M910.37,-129.07C1038.69,-127.46 1347.67,-119.95 1603.95,-85 1610.41,-84.12 1617.18,-82.95 1623.81,-81.65"/>
<polygon fill="#63b8ff" stroke="#63b8ff" points="1624.95,-84.99 1634.04,-79.55 1623.54,-78.13 1624.95,-84.99"/>
</a>
</g>
</g>
</g>
</svg>
