<?xml version="1.0" encoding="UTF-8" standalone="no"?>
<!DOCTYPE svg PUBLIC "-//W3C//DTD SVG 1.1//EN"
 "http://www.w3.org/Graphics/SVG/1.1/DTD/svg11.dtd">
<!-- Generated by graphviz version 2.43.0 (0)
 -->
<!-- Title: src/Viewer3D/Providers/Osm/CityMapGeometry.cc Pages: 1 -->
<svg width="2116pt" height="368pt"
 viewBox="0.00 0.00 2116.00 368.00" xmlns="http://www.w3.org/2000/svg" xmlns:xlink="http://www.w3.org/1999/xlink">
<g id="graph0" class="graph" transform="scale(1 1) rotate(0) translate(4 364)">
<title>src/Viewer3D/Providers/Osm/CityMapGeometry.cc</title>
<!-- Node1 -->
<g id="Node000001" class="node">
<title>Node1</title>
<g id="a_Node000001"><a xlink:title=" ">
<polygon fill="#999999" stroke="#666666" points="1209,-360 1063,-360 1063,-330 1209,-330 1209,-360"/>
<text text-anchor="start" x="1071" y="-348" font-family="Helvetica,sans-Serif" font-size="10.00">src/Viewer3D/Providers</text>
<text text-anchor="middle" x="1136" y="-337" font-family="Helvetica,sans-Serif" font-size="10.00">/Osm/CityMapGeometry.cc</text>
</a>
</g>
</g>
<!-- Node2 -->
<g id="Node000002" class="node">
<title>Node2</title>
<g id="a_Node000002"><a xlink:href="CityMapGeometry_8h.html" target="_top" xlink:title=" ">
<polygon fill="white" stroke="#666666" points="977.5,-74 864.5,-74 864.5,-55 977.5,-55 977.5,-74"/>
<text text-anchor="middle" x="921" y="-62" font-family="Helvetica,sans-Serif" font-size="10.00">CityMapGeometry.h</text>
</a>
</g>
</g>
<!-- Node1&#45;&gt;Node2 -->
<g id="edge1_Node000001_Node000002" class="edge">
<title>Node1&#45;&gt;Node2</title>
<g id="a_edge1_Node000001_Node000002"><a xlink:title=" ">
<path fill="none" stroke="#63b8ff" d="M1076.77,-329.97C1028.4,-314.57 968,-284.53 968,-230.5 968,-230.5 968,-230.5 968,-173.5 968,-138.92 947.49,-102.9 933.57,-82.43"/>
<polygon fill="#63b8ff" stroke="#63b8ff" points="936.37,-80.32 927.73,-74.18 930.65,-84.37 936.37,-80.32"/>
</a>
</g>
</g>
<!-- Node8 -->
<g id="Node000008" class="node">
<title>Node8</title>
<g id="a_Node000008"><a xlink:href="OsmParser_8h.html" target="_top" xlink:title=" ">
<polygon fill="white" stroke="#666666" points="1120.5,-129 1043.5,-129 1043.5,-110 1120.5,-110 1120.5,-129"/>
<text text-anchor="middle" x="1082" y="-117" font-family="Helvetica,sans-Serif" font-size="10.00">OsmParser.h</text>
</a>
</g>
</g>
<!-- Node1&#45;&gt;Node8 -->
<g id="edge7_Node000001_Node000008" class="edge">
<title>Node1&#45;&gt;Node8</title>
<g id="a_edge7_Node000001_Node000008"><a xlink:title=" ">
<path fill="none" stroke="#63b8ff" d="M1132.54,-329.68C1123.12,-290.68 1097.01,-182.61 1086.48,-139.05"/>
<polygon fill="#63b8ff" stroke="#63b8ff" points="1089.86,-138.13 1084.11,-129.23 1083.06,-139.77 1089.86,-138.13"/>
</a>
</g>
</g>
<!-- Node11 -->
<g id="Node000011" class="node">
<title>Node11</title>
<g id="a_Node000011"><a xlink:href="Viewer3DMapProvider_8h.html" target="_top" xlink:title=" ">
<polygon fill="white" stroke="#666666" points="1244,-74 1110,-74 1110,-55 1244,-55 1244,-74"/>
<text text-anchor="middle" x="1177" y="-62" font-family="Helvetica,sans-Serif" font-size="10.00">Viewer3DMapProvider.h</text>
</a>
</g>
</g>
<!-- Node1&#45;&gt;Node11 -->
<g id="edge34_Node000001_Node000011" class="edge">
<title>Node1&#45;&gt;Node11</title>
<g id="a_edge34_Node000001_Node000011"><a xlink:title=" ">
<path fill="none" stroke="#63b8ff" d="M1141.59,-329.92C1149.5,-308.72 1163,-267.16 1163,-230.5 1163,-230.5 1163,-230.5 1163,-173.5 1163,-141.93 1168.96,-105.59 1173.1,-84.14"/>
<polygon fill="#63b8ff" stroke="#63b8ff" points="1176.57,-84.62 1175.11,-74.13 1169.71,-83.24 1176.57,-84.62"/>
</a>
</g>
</g>
<!-- Node15 -->
<g id="Node000015" class="node">
<title>Node15</title>
<g id="a_Node000015"><a xlink:href="QGCLoggingCategory_8h.html" target="_top" xlink:title=" ">
<polygon fill="white" stroke="#666666" points="535,-74 407,-74 407,-55 535,-55 535,-74"/>
<text text-anchor="middle" x="471" y="-62" font-family="Helvetica,sans-Serif" font-size="10.00">QGCLoggingCategory.h</text>
</a>
</g>
</g>
<!-- Node1&#45;&gt;Node15 -->
<g id="edge19_Node000001_Node000015" class="edge">
<title>Node1&#45;&gt;Node15</title>
<g id="a_edge19_Node000001_Node000015"><a xlink:title=" ">
<path fill="none" stroke="#63b8ff" d="M1062.81,-338.56C895.23,-325.14 498,-287.31 498,-230.5 498,-230.5 498,-230.5 498,-173.5 498,-141.09 486.42,-104.81 478.42,-83.63"/>
<polygon fill="#63b8ff" stroke="#63b8ff" points="481.67,-82.3 474.75,-74.27 475.15,-84.86 481.67,-82.3"/>
</a>
</g>
</g>
<!-- Node21 -->
<g id="Node000021" class="node">
<title>Node21</title>
<g id="a_Node000021"><a xlink:href="SettingsManager_8h.html" target="_top" xlink:title=" ">
<polygon fill="white" stroke="#666666" points="2047.5,-74 1940.5,-74 1940.5,-55 2047.5,-55 2047.5,-74"/>
<text text-anchor="middle" x="1994" y="-62" font-family="Helvetica,sans-Serif" font-size="10.00">SettingsManager.h</text>
</a>
</g>
</g>
<!-- Node1&#45;&gt;Node21 -->
<g id="edge28_Node000001_Node000021" class="edge">
<title>Node1&#45;&gt;Node21</title>
<g id="a_edge28_Node000001_Node000021"><a xlink:title=" ">
<path fill="none" stroke="#63b8ff" d="M1209.09,-341.71C1412.79,-334.35 1972,-307.17 1972,-230.5 1972,-230.5 1972,-230.5 1972,-173.5 1972,-141.4 1981.45,-104.99 1987.96,-83.71"/>
<polygon fill="#63b8ff" stroke="#63b8ff" points="1991.33,-84.65 1991.03,-74.06 1984.66,-82.53 1991.33,-84.65"/>
</a>
</g>
</g>
<!-- Node24 -->
<g id="Node000024" class="node">
<title>Node24</title>
<g id="a_Node000024"><a xlink:href="Viewer3DSettings_8h.html" target="_top" xlink:title=" ">
<polygon fill="white" stroke="#666666" points="1396.5,-294 1283.5,-294 1283.5,-275 1396.5,-275 1396.5,-294"/>
<text text-anchor="middle" x="1340" y="-282" font-family="Helvetica,sans-Serif" font-size="10.00">Viewer3DSettings.h</text>
</a>
</g>
</g>
<!-- Node1&#45;&gt;Node24 -->
<g id="edge35_Node000001_Node000024" class="edge">
<title>Node1&#45;&gt;Node24</title>
<g id="a_edge35_Node000001_Node000024"><a xlink:title=" ">
<path fill="none" stroke="#63b8ff" d="M1184.86,-329.99C1220.22,-319.85 1267.4,-306.32 1300.41,-296.85"/>
<polygon fill="#63b8ff" stroke="#63b8ff" points="1301.52,-300.17 1310.17,-294.05 1299.59,-293.45 1301.52,-300.17"/>
</a>
</g>
</g>
<!-- Node3 -->
<g id="Node000003" class="node">
<title>Node3</title>
<g id="a_Node000003"><a xlink:title=" ">
<polygon fill="#e0e0e0" stroke="#999999" points="1433.5,-19 1290.5,-19 1290.5,0 1433.5,0 1433.5,-19"/>
<text text-anchor="middle" x="1362" y="-7" font-family="Helvetica,sans-Serif" font-size="10.00">QtCore/QLoggingCategory</text>
</a>
</g>
</g>
<!-- Node2&#45;&gt;Node3 -->
<g id="edge2_Node000002_Node000003" class="edge">
<title>Node2&#45;&gt;Node3</title>
<g id="a_edge2_Node000002_Node000003"><a xlink:title=" ">
<path fill="none" stroke="#63b8ff" d="M977.75,-56.68C1054.92,-47.41 1193.38,-30.76 1281.33,-20.2"/>
<polygon fill="#63b8ff" stroke="#63b8ff" points="1281.75,-23.67 1291.27,-19 1280.92,-16.72 1281.75,-23.67"/>
</a>
</g>
</g>
<!-- Node4 -->
<g id="Node000004" class="node">
<title>Node4</title>
<g id="a_Node000004"><a xlink:title=" ">
<polygon fill="#e0e0e0" stroke="#999999" points="620.5,-19 531.5,-19 531.5,0 620.5,0 620.5,-19"/>
<text text-anchor="middle" x="576" y="-7" font-family="Helvetica,sans-Serif" font-size="10.00">QtCore/QString</text>
</a>
</g>
</g>
<!-- Node2&#45;&gt;Node4 -->
<g id="edge3_Node000002_Node000004" class="edge">
<title>Node2&#45;&gt;Node4</title>
<g id="a_edge3_Node000002_Node000004"><a xlink:title=" ">
<path fill="none" stroke="#63b8ff" d="M864.66,-54.96C808.21,-46.38 718.53,-32.72 630.91,-19.13"/>
<polygon fill="#63b8ff" stroke="#63b8ff" points="631.21,-15.64 620.79,-17.57 630.13,-22.56 631.21,-15.64"/>
</a>
</g>
</g>
<!-- Node5 -->
<g id="Node000005" class="node">
<title>Node5</title>
<g id="a_Node000005"><a xlink:title=" ">
<polygon fill="#e0e0e0" stroke="#999999" points="1026.5,-19 931.5,-19 931.5,0 1026.5,0 1026.5,-19"/>
<text text-anchor="middle" x="979" y="-7" font-family="Helvetica,sans-Serif" font-size="10.00">QtCore/QVariant</text>
</a>
</g>
</g>
<!-- Node2&#45;&gt;Node5 -->
<g id="edge4_Node000002_Node000005" class="edge">
<title>Node2&#45;&gt;Node5</title>
<g id="a_edge4_Node000002_Node000005"><a xlink:title=" ">
<path fill="none" stroke="#63b8ff" d="M930.32,-54.98C938.81,-47.23 951.56,-35.58 961.88,-26.14"/>
<polygon fill="#63b8ff" stroke="#63b8ff" points="964.49,-28.5 969.51,-19.17 959.77,-23.33 964.49,-28.5"/>
</a>
</g>
</g>
<!-- Node6 -->
<g id="Node000006" class="node">
<title>Node6</title>
<g id="a_Node000006"><a xlink:title=" ">
<polygon fill="#e0e0e0" stroke="#999999" points="1876.5,-19 1687.5,-19 1687.5,0 1876.5,0 1876.5,-19"/>
<text text-anchor="middle" x="1782" y="-7" font-family="Helvetica,sans-Serif" font-size="10.00">QtQmlIntegration/QtQmlIntegration</text>
</a>
</g>
</g>
<!-- Node2&#45;&gt;Node6 -->
<g id="edge5_Node000002_Node000006" class="edge">
<title>Node2&#45;&gt;Node6</title>
<g id="a_edge5_Node000002_Node000006"><a xlink:title=" ">
<path fill="none" stroke="#63b8ff" d="M977.53,-60.62C1101.81,-54.19 1408.42,-37.8 1677.01,-19.05"/>
<polygon fill="#63b8ff" stroke="#63b8ff" points="1677.62,-22.52 1687.35,-18.33 1677.13,-15.54 1677.62,-22.52"/>
</a>
</g>
</g>
<!-- Node7 -->
<g id="Node000007" class="node">
<title>Node7</title>
<g id="a_Node000007"><a xlink:title=" ">
<polygon fill="#e0e0e0" stroke="#999999" points="809,-19 639,-19 639,0 809,0 809,-19"/>
<text text-anchor="middle" x="724" y="-7" font-family="Helvetica,sans-Serif" font-size="10.00">QtQuick3D/QQuick3DGeometry</text>
</a>
</g>
</g>
<!-- Node2&#45;&gt;Node7 -->
<g id="edge6_Node000002_Node000007" class="edge">
<title>Node2&#45;&gt;Node7</title>
<g id="a_edge6_Node000002_Node000007"><a xlink:title=" ">
<path fill="none" stroke="#63b8ff" d="M889.35,-54.98C855.84,-45.97 802.8,-31.7 765.86,-21.76"/>
<polygon fill="#63b8ff" stroke="#63b8ff" points="766.47,-18.3 755.9,-19.08 764.65,-25.06 766.47,-18.3"/>
</a>
</g>
</g>
<!-- Node8&#45;&gt;Node3 -->
<g id="edge8_Node000008_Node000003" class="edge">
<title>Node8&#45;&gt;Node3</title>
<g id="a_edge8_Node000008_Node000003"><a xlink:title=" ">
<path fill="none" stroke="#63b8ff" d="M1081.9,-109.59C1082.27,-95.7 1085.14,-69.03 1101,-55 1114.43,-43.11 1208.5,-29.18 1279.88,-20.11"/>
<polygon fill="#63b8ff" stroke="#63b8ff" points="1280.75,-23.53 1290.24,-18.81 1279.88,-16.59 1280.75,-23.53"/>
</a>
</g>
</g>
<!-- Node8&#45;&gt;Node5 -->
<g id="edge9_Node000008_Node000005" class="edge">
<title>Node8&#45;&gt;Node5</title>
<g id="a_edge9_Node000008_Node000005"><a xlink:title=" ">
<path fill="none" stroke="#63b8ff" d="M1070.72,-109.86C1059.81,-101.27 1043.07,-87.48 1030,-74 1015.61,-59.15 1001.01,-40.54 991.15,-27.32"/>
<polygon fill="#63b8ff" stroke="#63b8ff" points="993.87,-25.12 985.13,-19.13 988.23,-29.27 993.87,-25.12"/>
</a>
</g>
</g>
<!-- Node8&#45;&gt;Node6 -->
<g id="edge12_Node000008_Node000006" class="edge">
<title>Node8&#45;&gt;Node6</title>
<g id="a_edge12_Node000008_Node000006"><a xlink:title=" ">
<path fill="none" stroke="#63b8ff" d="M1120.66,-117.34C1224.86,-113.87 1509.71,-102.02 1599,-74 1615.15,-68.93 1616.45,-61.67 1632,-55 1665.3,-40.71 1704.64,-29.23 1734.67,-21.51"/>
<polygon fill="#63b8ff" stroke="#63b8ff" points="1735.63,-24.87 1744.47,-19.03 1733.92,-18.09 1735.63,-24.87"/>
</a>
</g>
</g>
<!-- Node9 -->
<g id="Node000009" class="node">
<title>Node9</title>
<g id="a_Node000009"><a xlink:title=" ">
<polygon fill="#e0e0e0" stroke="#999999" points="690.5,-74 591.5,-74 591.5,-55 690.5,-55 690.5,-74"/>
<text text-anchor="middle" x="641" y="-62" font-family="Helvetica,sans-Serif" font-size="10.00">QtGui/QVector2D</text>
</a>
</g>
</g>
<!-- Node8&#45;&gt;Node9 -->
<g id="edge10_Node000008_Node000009" class="edge">
<title>Node8&#45;&gt;Node9</title>
<g id="a_edge10_Node000008_Node000009"><a xlink:title=" ">
<path fill="none" stroke="#63b8ff" d="M1043.35,-114.4C975.96,-107.15 832.31,-91.35 700.9,-74.22"/>
<polygon fill="#63b8ff" stroke="#63b8ff" points="701.03,-70.71 690.66,-72.88 700.12,-77.65 701.03,-70.71"/>
</a>
</g>
</g>
<!-- Node10 -->
<g id="Node000010" class="node">
<title>Node10</title>
<g id="a_Node000010"><a xlink:title=" ">
<polygon fill="#e0e0e0" stroke="#999999" points="807.5,-74 708.5,-74 708.5,-55 807.5,-55 807.5,-74"/>
<text text-anchor="middle" x="758" y="-62" font-family="Helvetica,sans-Serif" font-size="10.00">QtGui/QVector3D</text>
</a>
</g>
</g>
<!-- Node8&#45;&gt;Node10 -->
<g id="edge11_Node000008_Node000010" class="edge">
<title>Node8&#45;&gt;Node10</title>
<g id="a_edge11_Node000008_Node000010"><a xlink:title=" ">
<path fill="none" stroke="#63b8ff" d="M1043.24,-112.16C987.36,-103.02 883.66,-86.06 817.88,-75.3"/>
<polygon fill="#63b8ff" stroke="#63b8ff" points="818.1,-71.78 807.66,-73.62 816.97,-78.69 818.1,-71.78"/>
</a>
</g>
</g>
<!-- Node8&#45;&gt;Node11 -->
<g id="edge13_Node000008_Node000011" class="edge">
<title>Node8&#45;&gt;Node11</title>
<g id="a_edge13_Node000008_Node000011"><a xlink:title=" ">
<path fill="none" stroke="#63b8ff" d="M1097.26,-109.98C1112.13,-101.69 1134.98,-88.94 1152.42,-79.22"/>
<polygon fill="#63b8ff" stroke="#63b8ff" points="1154.43,-82.1 1161.46,-74.17 1151.02,-75.99 1154.43,-82.1"/>
</a>
</g>
</g>
<!-- Node11&#45;&gt;Node3 -->
<g id="edge15_Node000011_Node000003" class="edge">
<title>Node11&#45;&gt;Node3</title>
<g id="a_edge15_Node000011_Node000003"><a xlink:title=" ">
<path fill="none" stroke="#63b8ff" d="M1206.72,-54.98C1238.05,-46.01 1287.57,-31.82 1322.24,-21.89"/>
<polygon fill="#63b8ff" stroke="#63b8ff" points="1323.39,-25.2 1332.04,-19.08 1321.47,-18.47 1323.39,-25.2"/>
</a>
</g>
</g>
<!-- Node11&#45;&gt;Node6 -->
<g id="edge18_Node000011_Node000006" class="edge">
<title>Node11&#45;&gt;Node6</title>
<g id="a_edge18_Node000011_Node000006"><a xlink:title=" ">
<path fill="none" stroke="#63b8ff" d="M1244.06,-57.63C1348.94,-48.44 1552.65,-30.59 1677.08,-19.69"/>
<polygon fill="#63b8ff" stroke="#63b8ff" points="1677.73,-23.15 1687.38,-18.79 1677.12,-16.17 1677.73,-23.15"/>
</a>
</g>
</g>
<!-- Node12 -->
<g id="Node000012" class="node">
<title>Node12</title>
<g id="a_Node000012"><a xlink:title=" ">
<polygon fill="#e0e0e0" stroke="#999999" points="1089.5,-19 1044.5,-19 1044.5,0 1089.5,0 1089.5,-19"/>
<text text-anchor="middle" x="1067" y="-7" font-family="Helvetica,sans-Serif" font-size="10.00">utility</text>
</a>
</g>
</g>
<!-- Node11&#45;&gt;Node12 -->
<g id="edge14_Node000011_Node000012" class="edge">
<title>Node11&#45;&gt;Node12</title>
<g id="a_edge14_Node000011_Node000012"><a xlink:title=" ">
<path fill="none" stroke="#63b8ff" d="M1159.33,-54.98C1141.71,-46.5 1114.42,-33.35 1094.07,-23.54"/>
<polygon fill="#63b8ff" stroke="#63b8ff" points="1095.52,-20.36 1084.99,-19.17 1092.48,-26.66 1095.52,-20.36"/>
</a>
</g>
</g>
<!-- Node13 -->
<g id="Node000013" class="node">
<title>Node13</title>
<g id="a_Node000013"><a xlink:title=" ">
<polygon fill="#e0e0e0" stroke="#999999" points="1669,-19 1577,-19 1577,0 1669,0 1669,-19"/>
<text text-anchor="middle" x="1623" y="-7" font-family="Helvetica,sans-Serif" font-size="10.00">QtCore/QObject</text>
</a>
</g>
</g>
<!-- Node11&#45;&gt;Node13 -->
<g id="edge16_Node000011_Node000013" class="edge">
<title>Node11&#45;&gt;Node13</title>
<g id="a_edge16_Node000011_Node000013"><a xlink:title=" ">
<path fill="none" stroke="#63b8ff" d="M1244.21,-56.68C1320.06,-48.79 1447.38,-34.99 1566.76,-19.12"/>
<polygon fill="#63b8ff" stroke="#63b8ff" points="1567.36,-22.57 1576.81,-17.78 1566.43,-15.63 1567.36,-22.57"/>
</a>
</g>
</g>
<!-- Node14 -->
<g id="Node000014" class="node">
<title>Node14</title>
<g id="a_Node000014"><a xlink:title=" ">
<polygon fill="#e0e0e0" stroke="#999999" points="1272.5,-19 1107.5,-19 1107.5,0 1272.5,0 1272.5,-19"/>
<text text-anchor="middle" x="1190" y="-7" font-family="Helvetica,sans-Serif" font-size="10.00">QtPositioning/QGeoCoordinate</text>
</a>
</g>
</g>
<!-- Node11&#45;&gt;Node14 -->
<g id="edge17_Node000011_Node000014" class="edge">
<title>Node11&#45;&gt;Node14</title>
<g id="a_edge17_Node000011_Node000014"><a xlink:title=" ">
<path fill="none" stroke="#63b8ff" d="M1179.15,-54.75C1180.87,-47.72 1183.35,-37.62 1185.5,-28.84"/>
<polygon fill="#63b8ff" stroke="#63b8ff" points="1188.91,-29.63 1187.89,-19.09 1182.11,-27.97 1188.91,-29.63"/>
</a>
</g>
</g>
<!-- Node15&#45;&gt;Node3 -->
<g id="edge21_Node000015_Node000003" class="edge">
<title>Node15&#45;&gt;Node3</title>
<g id="a_edge21_Node000015_Node000003"><a xlink:title=" ">
<path fill="none" stroke="#63b8ff" d="M535.25,-58.3C550.57,-57.14 566.86,-55.97 582,-55 889.55,-35.32 969.73,-43.29 1280.29,-19.09"/>
<polygon fill="#63b8ff" stroke="#63b8ff" points="1280.79,-22.56 1290.49,-18.29 1280.25,-15.59 1280.79,-22.56"/>
</a>
</g>
</g>
<!-- Node15&#45;&gt;Node4 -->
<g id="edge25_Node000015_Node000004" class="edge">
<title>Node15&#45;&gt;Node4</title>
<g id="a_edge25_Node000015_Node000004"><a xlink:title=" ">
<path fill="none" stroke="#63b8ff" d="M487.87,-54.98C504.61,-46.54 530.5,-33.47 549.89,-23.68"/>
<polygon fill="#63b8ff" stroke="#63b8ff" points="551.47,-26.8 558.82,-19.17 548.32,-20.55 551.47,-26.8"/>
</a>
</g>
</g>
<!-- Node15&#45;&gt;Node13 -->
<g id="edge22_Node000015_Node000013" class="edge">
<title>Node15&#45;&gt;Node13</title>
<g id="a_edge22_Node000015_Node000013"><a xlink:title=" ">
<path fill="none" stroke="#63b8ff" d="M535.24,-58.14C550.56,-56.99 566.85,-55.86 582,-55 1016.5,-30.44 1129.75,-60.1 1566.78,-18.99"/>
<polygon fill="#63b8ff" stroke="#63b8ff" points="1567.21,-22.46 1576.84,-18.03 1566.55,-15.49 1567.21,-22.46"/>
</a>
</g>
</g>
<!-- Node16 -->
<g id="Node000016" class="node">
<title>Node16</title>
<g id="a_Node000016"><a xlink:title=" ">
<polygon fill="#e0e0e0" stroke="#999999" points="913,-19 827,-19 827,0 913,0 913,-19"/>
<text text-anchor="middle" x="870" y="-7" font-family="Helvetica,sans-Serif" font-size="10.00">QtCore/QHash</text>
</a>
</g>
</g>
<!-- Node15&#45;&gt;Node16 -->
<g id="edge20_Node000015_Node000016" class="edge">
<title>Node15&#45;&gt;Node16</title>
<g id="a_edge20_Node000015_Node000016"><a xlink:title=" ">
<path fill="none" stroke="#63b8ff" d="M535.05,-55.96C602.57,-47.85 712.31,-34.25 816.79,-19.13"/>
<polygon fill="#63b8ff" stroke="#63b8ff" points="817.5,-22.57 826.89,-17.66 816.49,-15.64 817.5,-22.57"/>
</a>
</g>
</g>
<!-- Node17 -->
<g id="Node000017" class="node">
<title>Node17</title>
<g id="a_Node000017"><a xlink:title=" ">
<polygon fill="#e0e0e0" stroke="#999999" points="134,-19 0,-19 0,0 134,0 134,-19"/>
<text text-anchor="middle" x="67" y="-7" font-family="Helvetica,sans-Serif" font-size="10.00">QtCore/QReadWriteLock</text>
</a>
</g>
</g>
<!-- Node15&#45;&gt;Node17 -->
<g id="edge23_Node000015_Node000017" class="edge">
<title>Node15&#45;&gt;Node17</title>
<g id="a_edge23_Node000015_Node000017"><a xlink:title=" ">
<path fill="none" stroke="#63b8ff" d="M406.98,-55.1C335.01,-45.66 218.28,-30.35 142.07,-20.35"/>
<polygon fill="#63b8ff" stroke="#63b8ff" points="142.42,-16.86 132.05,-19.03 141.51,-23.81 142.42,-16.86"/>
</a>
</g>
</g>
<!-- Node18 -->
<g id="Node000018" class="node">
<title>Node18</title>
<g id="a_Node000018"><a xlink:title=" ">
<polygon fill="#e0e0e0" stroke="#999999" points="229.5,-19 152.5,-19 152.5,0 229.5,0 229.5,-19"/>
<text text-anchor="middle" x="191" y="-7" font-family="Helvetica,sans-Serif" font-size="10.00">QtCore/QSet</text>
</a>
</g>
</g>
<!-- Node15&#45;&gt;Node18 -->
<g id="edge24_Node000015_Node000018" class="edge">
<title>Node15&#45;&gt;Node18</title>
<g id="a_edge24_Node000015_Node000018"><a xlink:title=" ">
<path fill="none" stroke="#63b8ff" d="M426.01,-54.98C375,-45.33 292.12,-29.64 239.64,-19.71"/>
<polygon fill="#63b8ff" stroke="#63b8ff" points="240.04,-16.22 229.57,-17.8 238.74,-23.1 240.04,-16.22"/>
</a>
</g>
</g>
<!-- Node19 -->
<g id="Node000019" class="node">
<title>Node19</title>
<g id="a_Node000019"><a xlink:title=" ">
<polygon fill="#e0e0e0" stroke="#999999" points="410.5,-19 247.5,-19 247.5,0 410.5,0 410.5,-19"/>
<text text-anchor="middle" x="329" y="-7" font-family="Helvetica,sans-Serif" font-size="10.00">QtCore/QSortFilterProxyModel</text>
</a>
</g>
</g>
<!-- Node15&#45;&gt;Node19 -->
<g id="edge26_Node000015_Node000019" class="edge">
<title>Node15&#45;&gt;Node19</title>
<g id="a_edge26_Node000015_Node000019"><a xlink:title=" ">
<path fill="none" stroke="#63b8ff" d="M448.19,-54.98C424.83,-46.27 388.3,-32.63 361.83,-22.75"/>
<polygon fill="#63b8ff" stroke="#63b8ff" points="362.82,-19.39 352.23,-19.17 360.37,-25.95 362.82,-19.39"/>
</a>
</g>
</g>
<!-- Node20 -->
<g id="Node000020" class="node">
<title>Node20</title>
<g id="a_Node000020"><a xlink:title=" ">
<polygon fill="#e0e0e0" stroke="#999999" points="513.5,-19 428.5,-19 428.5,0 513.5,0 513.5,-19"/>
<text text-anchor="middle" x="471" y="-7" font-family="Helvetica,sans-Serif" font-size="10.00">QtQml/qqml.h</text>
</a>
</g>
</g>
<!-- Node15&#45;&gt;Node20 -->
<g id="edge27_Node000015_Node000020" class="edge">
<title>Node15&#45;&gt;Node20</title>
<g id="a_edge27_Node000015_Node000020"><a xlink:title=" ">
<path fill="none" stroke="#63b8ff" d="M471,-54.75C471,-47.8 471,-37.85 471,-29.13"/>
<polygon fill="#63b8ff" stroke="#63b8ff" points="474.5,-29.09 471,-19.09 467.5,-29.09 474.5,-29.09"/>
</a>
</g>
</g>
<!-- Node21&#45;&gt;Node3 -->
<g id="edge29_Node000021_Node000003" class="edge">
<title>Node21&#45;&gt;Node3</title>
<g id="a_edge29_Node000021_Node000003"><a xlink:title=" ">
<path fill="none" stroke="#63b8ff" d="M1940.39,-59.6C1843.57,-52.46 1632.86,-36.5 1443.68,-19.04"/>
<polygon fill="#63b8ff" stroke="#63b8ff" points="1443.82,-15.54 1433.54,-18.1 1443.18,-22.51 1443.82,-15.54"/>
</a>
</g>
</g>
<!-- Node21&#45;&gt;Node6 -->
<g id="edge31_Node000021_Node000006" class="edge">
<title>Node21&#45;&gt;Node6</title>
<g id="a_edge31_Node000021_Node000006"><a xlink:title=" ">
<path fill="none" stroke="#63b8ff" d="M1959.94,-54.98C1923.58,-45.89 1865.83,-31.46 1826.03,-21.51"/>
<polygon fill="#63b8ff" stroke="#63b8ff" points="1826.88,-18.11 1816.33,-19.08 1825.18,-24.9 1826.88,-18.11"/>
</a>
</g>
</g>
<!-- Node21&#45;&gt;Node13 -->
<g id="edge30_Node000021_Node000013" class="edge">
<title>Node21&#45;&gt;Node13</title>
<g id="a_edge30_Node000021_Node000013"><a xlink:title=" ">
<path fill="none" stroke="#63b8ff" d="M1940.47,-56.11C1879.86,-47.7 1777.86,-33.44 1679.28,-19.03"/>
<polygon fill="#63b8ff" stroke="#63b8ff" points="1679.54,-15.53 1669.14,-17.54 1678.53,-22.45 1679.54,-15.53"/>
</a>
</g>
</g>
<!-- Node22 -->
<g id="Node000022" class="node">
<title>Node22</title>
<g id="a_Node000022"><a xlink:title=" ">
<polygon fill="#e0e0e0" stroke="#999999" points="2007.5,-19 1894.5,-19 1894.5,0 2007.5,0 2007.5,-19"/>
<text text-anchor="middle" x="1951" y="-7" font-family="Helvetica,sans-Serif" font-size="10.00">QtCore/QJsonObject</text>
</a>
</g>
</g>
<!-- Node21&#45;&gt;Node22 -->
<g id="edge32_Node000021_Node000022" class="edge">
<title>Node21&#45;&gt;Node22</title>
<g id="a_edge32_Node000021_Node000022"><a xlink:title=" ">
<path fill="none" stroke="#63b8ff" d="M1986.9,-54.75C1980.83,-47.26 1971.91,-36.28 1964.49,-27.13"/>
<polygon fill="#63b8ff" stroke="#63b8ff" points="1966.99,-24.65 1957.97,-19.09 1961.55,-29.06 1966.99,-24.65"/>
</a>
</g>
</g>
<!-- Node23 -->
<g id="Node000023" class="node">
<title>Node23</title>
<g id="a_Node000023"><a xlink:title=" ">
<polygon fill="#e0e0e0" stroke="#999999" points="2108,-19 2026,-19 2026,0 2108,0 2108,-19"/>
<text text-anchor="middle" x="2067" y="-7" font-family="Helvetica,sans-Serif" font-size="10.00">QtCore/QMap</text>
</a>
</g>
</g>
<!-- Node21&#45;&gt;Node23 -->
<g id="edge33_Node000021_Node000023" class="edge">
<title>Node21&#45;&gt;Node23</title>
<g id="a_edge33_Node000021_Node000023"><a xlink:title=" ">
<path fill="none" stroke="#63b8ff" d="M2005.73,-54.98C2016.73,-47 2033.42,-34.88 2046.6,-25.31"/>
<polygon fill="#63b8ff" stroke="#63b8ff" points="2049.02,-27.88 2055.06,-19.17 2044.91,-22.21 2049.02,-27.88"/>
</a>
</g>
</g>
<!-- Node24&#45;&gt;Node6 -->
<g id="edge36_Node000024_Node000006" class="edge">
<title>Node24&#45;&gt;Node6</title>
<g id="a_edge36_Node000024_Node000006"><a xlink:title=" ">
<path fill="none" stroke="#63b8ff" d="M1396.67,-278.73C1541.17,-265.81 1912,-227.58 1912,-175.5 1912,-175.5 1912,-175.5 1912,-118.5 1912,-69.41 1856.47,-38.35 1817.99,-22.73"/>
<polygon fill="#63b8ff" stroke="#63b8ff" points="1819.21,-19.45 1808.62,-19.09 1816.67,-25.97 1819.21,-19.45"/>
</a>
</g>
</g>
<!-- Node25 -->
<g id="Node000025" class="node">
<title>Node25</title>
<g id="a_Node000025"><a xlink:href="SettingsGroup_8h.html" target="_top" xlink:title=" ">
<polygon fill="white" stroke="#666666" points="1387.5,-239 1292.5,-239 1292.5,-220 1387.5,-220 1387.5,-239"/>
<text text-anchor="middle" x="1340" y="-227" font-family="Helvetica,sans-Serif" font-size="10.00">SettingsGroup.h</text>
</a>
</g>
</g>
<!-- Node24&#45;&gt;Node25 -->
<g id="edge37_Node000024_Node000025" class="edge">
<title>Node24&#45;&gt;Node25</title>
<g id="a_edge37_Node000024_Node000025"><a xlink:title=" ">
<path fill="none" stroke="#63b8ff" d="M1340,-274.75C1340,-267.8 1340,-257.85 1340,-249.13"/>
<polygon fill="#63b8ff" stroke="#63b8ff" points="1343.5,-249.09 1340,-239.09 1336.5,-249.09 1343.5,-249.09"/>
</a>
</g>
</g>
<!-- Node26 -->
<g id="Node000026" class="node">
<title>Node26</title>
<g id="a_Node000026"><a xlink:href="SettingsFact_8h.html" target="_top" xlink:title=" ">
<polygon fill="white" stroke="#666666" points="1382.5,-184 1297.5,-184 1297.5,-165 1382.5,-165 1382.5,-184"/>
<text text-anchor="middle" x="1340" y="-172" font-family="Helvetica,sans-Serif" font-size="10.00">SettingsFact.h</text>
</a>
</g>
</g>
<!-- Node25&#45;&gt;Node26 -->
<g id="edge38_Node000025_Node000026" class="edge">
<title>Node25&#45;&gt;Node26</title>
<g id="a_edge38_Node000025_Node000026"><a xlink:title=" ">
<path fill="none" stroke="#63b8ff" d="M1340,-219.75C1340,-212.8 1340,-202.85 1340,-194.13"/>
<polygon fill="#63b8ff" stroke="#63b8ff" points="1343.5,-194.09 1340,-184.09 1336.5,-194.09 1343.5,-194.09"/>
</a>
</g>
</g>
<!-- Node26&#45;&gt;Node3 -->
<g id="edge39_Node000026_Node000003" class="edge">
<title>Node26&#45;&gt;Node3</title>
<g id="a_edge39_Node000026_Node000003"><a xlink:title=" ">
<path fill="none" stroke="#63b8ff" d="M1335.64,-164.84C1326.17,-144.81 1305.77,-94.01 1321,-55 1325.4,-43.73 1334.14,-33.59 1342.43,-25.85"/>
<polygon fill="#63b8ff" stroke="#63b8ff" points="1344.82,-28.4 1350.07,-19.2 1340.23,-23.12 1344.82,-28.4"/>
</a>
</g>
</g>
<!-- Node26&#45;&gt;Node4 -->
<g id="edge41_Node000026_Node000004" class="edge">
<title>Node26&#45;&gt;Node4</title>
<g id="a_edge41_Node000026_Node000004"><a xlink:title=" ">
<path fill="none" stroke="#63b8ff" d="M1297.39,-170.97C1144.81,-161.49 632.13,-125.98 582,-74 570.84,-62.43 570.41,-43.56 572.13,-29.39"/>
<polygon fill="#63b8ff" stroke="#63b8ff" points="575.62,-29.7 573.8,-19.26 568.72,-28.56 575.62,-29.7"/>
</a>
</g>
</g>
<!-- Node26&#45;&gt;Node13 -->
<g id="edge40_Node000026_Node000013" class="edge">
<title>Node26&#45;&gt;Node13</title>
<g id="a_edge40_Node000026_Node000013"><a xlink:title=" ">
<path fill="none" stroke="#63b8ff" d="M1382.55,-171.56C1491.52,-165.62 1776.04,-143.6 1833,-74 1838.35,-67.46 1838.32,-61.56 1833,-55 1828.09,-48.94 1739.89,-31.79 1679.37,-20.64"/>
<polygon fill="#63b8ff" stroke="#63b8ff" points="1679.64,-17.13 1669.17,-18.77 1678.37,-24.02 1679.64,-17.13"/>
</a>
</g>
</g>
<!-- Node27 -->
<g id="Node000027" class="node">
<title>Node27</title>
<g id="a_Node000027"><a xlink:href="Fact_8h.html" target="_top" xlink:title=" ">
<polygon fill="white" stroke="#666666" points="1430.5,-129 1385.5,-129 1385.5,-110 1430.5,-110 1430.5,-129"/>
<text text-anchor="middle" x="1408" y="-117" font-family="Helvetica,sans-Serif" font-size="10.00">Fact.h</text>
</a>
</g>
</g>
<!-- Node26&#45;&gt;Node27 -->
<g id="edge42_Node000026_Node000027" class="edge">
<title>Node26&#45;&gt;Node27</title>
<g id="a_edge42_Node000026_Node000027"><a xlink:title=" ">
<path fill="none" stroke="#63b8ff" d="M1350.93,-164.98C1361.08,-157.07 1376.42,-145.11 1388.65,-135.58"/>
<polygon fill="#63b8ff" stroke="#63b8ff" points="1391.14,-138.08 1396.88,-129.17 1386.84,-132.56 1391.14,-138.08"/>
</a>
</g>
</g>
<!-- Node27&#45;&gt;Node3 -->
<g id="edge43_Node000027_Node000003" class="edge">
<title>Node27&#45;&gt;Node3</title>
<g id="a_edge43_Node000027_Node000003"><a xlink:title=" ">
<path fill="none" stroke="#63b8ff" d="M1385.46,-112.66C1366.66,-106.47 1341.07,-94.66 1329,-74 1319.76,-58.19 1332.1,-39.53 1344.24,-26.55"/>
<polygon fill="#63b8ff" stroke="#63b8ff" points="1346.93,-28.8 1351.57,-19.28 1342,-23.83 1346.93,-28.8"/>
</a>
</g>
</g>
<!-- Node27&#45;&gt;Node4 -->
<g id="edge47_Node000027_Node000004" class="edge">
<title>Node27&#45;&gt;Node4</title>
<g id="a_edge47_Node000027_Node000004"><a xlink:title=" ">
<path fill="none" stroke="#63b8ff" d="M1385.27,-117.8C1294.43,-114.81 957.55,-102.03 855,-74 836.4,-68.92 834.31,-61.03 816,-55 798.66,-49.29 695.97,-31.11 630.65,-19.83"/>
<polygon fill="#63b8ff" stroke="#63b8ff" points="630.96,-16.33 620.51,-18.08 629.77,-23.23 630.96,-16.33"/>
</a>
</g>
</g>
<!-- Node27&#45;&gt;Node5 -->
<g id="edge48_Node000027_Node000005" class="edge">
<title>Node27&#45;&gt;Node5</title>
<g id="a_edge48_Node000027_Node000005"><a xlink:title=" ">
<path fill="none" stroke="#63b8ff" d="M1385.46,-117.8C1333.88,-115.67 1203.77,-107.14 1101,-74 1063.68,-61.97 1024.05,-39.25 1000.42,-24.5"/>
<polygon fill="#63b8ff" stroke="#63b8ff" points="1002.21,-21.49 991.9,-19.09 998.46,-27.4 1002.21,-21.49"/>
</a>
</g>
</g>
<!-- Node27&#45;&gt;Node6 -->
<g id="edge49_Node000027_Node000006" class="edge">
<title>Node27&#45;&gt;Node6</title>
<g id="a_edge49_Node000027_Node000006"><a xlink:title=" ">
<path fill="none" stroke="#63b8ff" d="M1430.65,-115.62C1471.52,-110.06 1560.07,-96.4 1632,-74 1652.34,-67.67 1656.4,-63.34 1676,-55 1701.52,-44.13 1730.58,-31.95 1751.8,-23.08"/>
<polygon fill="#63b8ff" stroke="#63b8ff" points="1753.38,-26.22 1761.26,-19.14 1750.68,-19.76 1753.38,-26.22"/>
</a>
</g>
</g>
<!-- Node27&#45;&gt;Node13 -->
<g id="edge45_Node000027_Node000013" class="edge">
<title>Node27&#45;&gt;Node13</title>
<g id="a_edge45_Node000027_Node000013"><a xlink:title=" ">
<path fill="none" stroke="#63b8ff" d="M1430.64,-117.76C1512.69,-114.87 1791.01,-102.98 1817,-74 1822.64,-67.71 1822.26,-61.6 1817,-55 1808.33,-44.11 1733.73,-29.3 1679.62,-19.82"/>
<polygon fill="#63b8ff" stroke="#63b8ff" points="1679.89,-16.32 1669.44,-18.06 1678.69,-23.21 1679.89,-16.32"/>
</a>
</g>
</g>
<!-- Node28 -->
<g id="Node000028" class="node">
<title>Node28</title>
<g id="a_Node000028"><a xlink:title=" ">
<polygon fill="#e0e0e0" stroke="#999999" points="1807.5,-74 1684.5,-74 1684.5,-55 1807.5,-55 1807.5,-74"/>
<text text-anchor="middle" x="1746" y="-62" font-family="Helvetica,sans-Serif" font-size="10.00">QtCore/QMutexLocker</text>
</a>
</g>
</g>
<!-- Node27&#45;&gt;Node28 -->
<g id="edge44_Node000027_Node000028" class="edge">
<title>Node27&#45;&gt;Node28</title>
<g id="a_edge44_Node000027_Node000028"><a xlink:title=" ">
<path fill="none" stroke="#63b8ff" d="M1430.7,-114.94C1481.34,-107 1605.1,-87.59 1681.64,-75.59"/>
<polygon fill="#63b8ff" stroke="#63b8ff" points="1682.31,-79.03 1691.65,-74.02 1681.23,-72.11 1682.31,-79.03"/>
</a>
</g>
</g>
<!-- Node29 -->
<g id="Node000029" class="node">
<title>Node29</title>
<g id="a_Node000029"><a xlink:title=" ">
<polygon fill="#e0e0e0" stroke="#999999" points="1478,-74 1338,-74 1338,-55 1478,-55 1478,-74"/>
<text text-anchor="middle" x="1408" y="-62" font-family="Helvetica,sans-Serif" font-size="10.00">QtCore/QRecursiveMutex</text>
</a>
</g>
</g>
<!-- Node27&#45;&gt;Node29 -->
<g id="edge46_Node000027_Node000029" class="edge">
<title>Node27&#45;&gt;Node29</title>
<g id="a_edge46_Node000027_Node000029"><a xlink:title=" ">
<path fill="none" stroke="#63b8ff" d="M1408,-109.75C1408,-102.8 1408,-92.85 1408,-84.13"/>
<polygon fill="#63b8ff" stroke="#63b8ff" points="1411.5,-84.09 1408,-74.09 1404.5,-84.09 1411.5,-84.09"/>
</a>
</g>
</g>
<!-- Node30 -->
<g id="Node000030" class="node">
<title>Node30</title>
<g id="a_Node000030"><a xlink:href="FactMetaData_8h.html" target="_top" xlink:title=" ">
<polygon fill="white" stroke="#666666" points="1589.5,-74 1496.5,-74 1496.5,-55 1589.5,-55 1589.5,-74"/>
<text text-anchor="middle" x="1543" y="-62" font-family="Helvetica,sans-Serif" font-size="10.00">FactMetaData.h</text>
</a>
</g>
</g>
<!-- Node27&#45;&gt;Node30 -->
<g id="edge50_Node000027_Node000030" class="edge">
<title>Node27&#45;&gt;Node30</title>
<g id="a_edge50_Node000027_Node000030"><a xlink:title=" ">
<path fill="none" stroke="#63b8ff" d="M1429.69,-109.98C1451.8,-101.3 1486.32,-87.75 1511.45,-77.88"/>
<polygon fill="#63b8ff" stroke="#63b8ff" points="1512.89,-81.08 1520.92,-74.17 1510.33,-74.57 1512.89,-81.08"/>
</a>
</g>
</g>
<!-- Node30&#45;&gt;Node3 -->
<g id="edge52_Node000030_Node000003" class="edge">
<title>Node30&#45;&gt;Node3</title>
<g id="a_edge52_Node000030_Node000003"><a xlink:title=" ">
<path fill="none" stroke="#63b8ff" d="M1513.92,-54.98C1483.4,-46.05 1435.24,-31.94 1401.34,-22.02"/>
<polygon fill="#63b8ff" stroke="#63b8ff" points="1401.89,-18.53 1391.31,-19.08 1399.92,-25.25 1401.89,-18.53"/>
</a>
</g>
</g>
<!-- Node30&#45;&gt;Node4 -->
<g id="edge56_Node000030_Node000004" class="edge">
<title>Node30&#45;&gt;Node4</title>
<g id="a_edge56_Node000030_Node000004"><a xlink:title=" ">
<path fill="none" stroke="#63b8ff" d="M1496.3,-56.02C1493.15,-55.64 1490.03,-55.29 1487,-55 1110.88,-18.66 1011.1,-56.03 630.92,-18.95"/>
<polygon fill="#63b8ff" stroke="#63b8ff" points="631.03,-15.44 620.74,-17.94 630.35,-22.41 631.03,-15.44"/>
</a>
</g>
</g>
<!-- Node30&#45;&gt;Node5 -->
<g id="edge57_Node000030_Node000005" class="edge">
<title>Node30&#45;&gt;Node5</title>
<g id="a_edge57_Node000030_Node000005"><a xlink:title=" ">
<path fill="none" stroke="#63b8ff" d="M1496.28,-56.15C1493.14,-55.74 1490.03,-55.35 1487,-55 1290.03,-32.24 1236.89,-41.81 1036.59,-19.11"/>
<polygon fill="#63b8ff" stroke="#63b8ff" points="1036.96,-15.63 1026.63,-17.96 1036.16,-22.58 1036.96,-15.63"/>
</a>
</g>
</g>
<!-- Node30&#45;&gt;Node6 -->
<g id="edge58_Node000030_Node000006" class="edge">
<title>Node30&#45;&gt;Node6</title>
<g id="a_edge58_Node000030_Node000006"><a xlink:title=" ">
<path fill="none" stroke="#63b8ff" d="M1581.4,-54.98C1622.74,-45.82 1688.6,-31.21 1733.49,-21.26"/>
<polygon fill="#63b8ff" stroke="#63b8ff" points="1734.29,-24.66 1743.3,-19.08 1732.78,-17.83 1734.29,-24.66"/>
</a>
</g>
</g>
<!-- Node30&#45;&gt;Node13 -->
<g id="edge55_Node000030_Node000013" class="edge">
<title>Node30&#45;&gt;Node13</title>
<g id="a_edge55_Node000030_Node000013"><a xlink:title=" ">
<path fill="none" stroke="#63b8ff" d="M1555.85,-54.98C1568.14,-46.84 1586.91,-34.41 1601.48,-24.76"/>
<polygon fill="#63b8ff" stroke="#63b8ff" points="1603.51,-27.61 1609.91,-19.17 1599.64,-21.78 1603.51,-27.61"/>
</a>
</g>
</g>
<!-- Node30&#45;&gt;Node16 -->
<g id="edge51_Node000030_Node000016" class="edge">
<title>Node30&#45;&gt;Node16</title>
<g id="a_edge51_Node000030_Node000016"><a xlink:title=" ">
<path fill="none" stroke="#63b8ff" d="M1496.29,-56.1C1493.15,-55.7 1490.03,-55.33 1487,-55 1240.12,-28.45 1173.76,-46.83 923.23,-19.02"/>
<polygon fill="#63b8ff" stroke="#63b8ff" points="923.41,-15.52 913.08,-17.88 922.63,-22.47 923.41,-15.52"/>
</a>
</g>
</g>
<!-- Node30&#45;&gt;Node22 -->
<g id="edge54_Node000030_Node000022" class="edge">
<title>Node30&#45;&gt;Node22</title>
<g id="a_edge54_Node000030_Node000022"><a xlink:title=" ">
<path fill="none" stroke="#63b8ff" d="M1589.6,-57.47C1653.65,-49.18 1772.77,-33.74 1884.21,-19.23"/>
<polygon fill="#63b8ff" stroke="#63b8ff" points="1884.82,-22.68 1894.28,-17.92 1883.91,-15.74 1884.82,-22.68"/>
</a>
</g>
</g>
<!-- Node31 -->
<g id="Node000031" class="node">
<title>Node31</title>
<g id="a_Node000031"><a xlink:title=" ">
<polygon fill="#e0e0e0" stroke="#999999" points="1558.5,-19 1451.5,-19 1451.5,0 1558.5,0 1558.5,-19"/>
<text text-anchor="middle" x="1505" y="-7" font-family="Helvetica,sans-Serif" font-size="10.00">QtCore/QJsonArray</text>
</a>
</g>
</g>
<!-- Node30&#45;&gt;Node31 -->
<g id="edge53_Node000030_Node000031" class="edge">
<title>Node30&#45;&gt;Node31</title>
<g id="a_edge53_Node000030_Node000031"><a xlink:title=" ">
<path fill="none" stroke="#63b8ff" d="M1536.73,-54.75C1531.41,-47.34 1523.64,-36.5 1517.12,-27.41"/>
<polygon fill="#63b8ff" stroke="#63b8ff" points="1519.83,-25.18 1511.16,-19.09 1514.14,-29.26 1519.83,-25.18"/>
</a>
</g>
</g>
</g>
</svg>
