<?xml version="1.0" encoding="UTF-8" standalone="no"?>
<!DOCTYPE svg PUBLIC "-//W3C//DTD SVG 1.1//EN"
 "http://www.w3.org/Graphics/SVG/1.1/DTD/svg11.dtd">
<!-- Generated by graphviz version 2.43.0 (0)
 -->
<!-- Title: MapProvider Pages: 1 -->
<svg width="482pt" height="1174pt"
 viewBox="0.00 0.00 482.00 1174.00" xmlns="http://www.w3.org/2000/svg" xmlns:xlink="http://www.w3.org/1999/xlink">
<g id="graph0" class="graph" transform="scale(1 1) rotate(0) translate(4 1170)">
<title>MapProvider</title>
<!-- Node1 -->
<g id="Node000001" class="node">
<title>Node1</title>
<g id="a_Node000001"><a xlink:title=" ">
<polygon fill="#999999" stroke="#666666" points="78,-536 0,-536 0,-517 78,-517 78,-536"/>
<text text-anchor="middle" x="39" y="-524" font-family="Helvetica,sans-Serif" font-size="10.00">MapProvider</text>
</a>
</g>
</g>
<!-- Node2 -->
<g id="Node000002" class="node">
<title>Node2</title>
<g id="a_Node000002"><a xlink:href="classBingMapProvider.html" target="_top" xlink:title=" ">
<polygon fill="white" stroke="#666666" points="237,-1110 137,-1110 137,-1091 237,-1091 237,-1110"/>
<text text-anchor="middle" x="187" y="-1098" font-family="Helvetica,sans-Serif" font-size="10.00">BingMapProvider</text>
</a>
</g>
</g>
<!-- Node1&#45;&gt;Node2 -->
<g id="edge1_Node000001_Node000002" class="edge">
<title>Node1&#45;&gt;Node2</title>
<g id="a_edge1_Node000001_Node000002"><a xlink:title=" ">
<path fill="none" stroke="#63b8ff" d="M40.23,-546.16C41.58,-611.6 50.88,-827.21 114,-990.5 129.8,-1031.38 162.4,-1072.81 177.71,-1090.98"/>
<polygon fill="#63b8ff" stroke="#63b8ff" points="43.73,-545.98 40.06,-536.04 36.73,-546.09 43.73,-545.98"/>
</a>
</g>
</g>
<!-- Node6 -->
<g id="Node000006" class="node">
<title>Node6</title>
<g id="a_Node000006"><a xlink:href="classCustomURLMapProvider.html" target="_top" xlink:title=" ">
<polygon fill="white" stroke="#666666" points="254.5,-981 119.5,-981 119.5,-962 254.5,-962 254.5,-981"/>
<text text-anchor="middle" x="187" y="-969" font-family="Helvetica,sans-Serif" font-size="10.00">CustomURLMapProvider</text>
</a>
</g>
</g>
<!-- Node1&#45;&gt;Node6 -->
<g id="edge5_Node000001_Node000006" class="edge">
<title>Node1&#45;&gt;Node6</title>
<g id="a_edge5_Node000001_Node000006"><a xlink:title=" ">
<path fill="none" stroke="#63b8ff" d="M40.65,-546.15C43.54,-621.79 57.74,-892.95 114,-953.5 117.16,-956.9 120.85,-959.7 124.87,-962"/>
<polygon fill="#63b8ff" stroke="#63b8ff" points="44.14,-545.97 40.29,-536.1 37.15,-546.22 44.14,-545.97"/>
</a>
</g>
</g>
<!-- Node7 -->
<g id="Node000007" class="node">
<title>Node7</title>
<g id="a_Node000007"><a xlink:href="classCyberJapanMapProvider.html" target="_top" xlink:title=" ">
<polygon fill="white" stroke="#666666" points="254,-944 120,-944 120,-925 254,-925 254,-944"/>
<text text-anchor="middle" x="187" y="-932" font-family="Helvetica,sans-Serif" font-size="10.00">CyberJapanMapProvider</text>
</a>
</g>
</g>
<!-- Node1&#45;&gt;Node7 -->
<g id="edge6_Node000001_Node000007" class="edge">
<title>Node1&#45;&gt;Node7</title>
<g id="a_edge6_Node000001_Node000007"><a xlink:title=" ">
<path fill="none" stroke="#63b8ff" d="M40.61,-546.49C43.04,-600.58 55.03,-753.03 114,-861.5 128.71,-888.56 156.42,-912.38 172.84,-924.99"/>
<polygon fill="#63b8ff" stroke="#63b8ff" points="44.1,-546.09 40.22,-536.23 37.11,-546.35 44.1,-546.09"/>
</a>
</g>
</g>
<!-- Node13 -->
<g id="Node000013" class="node">
<title>Node13</title>
<g id="a_Node000013"><a xlink:href="classElevationProvider.html" target="_top" xlink:title=" ">
<polygon fill="white" stroke="#666666" points="238.5,-852 135.5,-852 135.5,-833 238.5,-833 238.5,-852"/>
<text text-anchor="middle" x="187" y="-840" font-family="Helvetica,sans-Serif" font-size="10.00">ElevationProvider</text>
</a>
</g>
</g>
<!-- Node1&#45;&gt;Node13 -->
<g id="edge12_Node000001_Node000013" class="edge">
<title>Node1&#45;&gt;Node13</title>
<g id="a_edge12_Node000001_Node000013"><a xlink:title=" ">
<path fill="none" stroke="#63b8ff" d="M39.98,-546.4C40.96,-595.81 49.86,-725.81 114,-805.5 124.31,-818.31 140.23,-827.14 154.49,-832.95"/>
<polygon fill="#63b8ff" stroke="#63b8ff" points="43.48,-546.1 39.88,-536.14 36.48,-546.18 43.48,-546.1"/>
</a>
</g>
</g>
<!-- Node15 -->
<g id="Node000015" class="node">
<title>Node15</title>
<g id="a_Node000015"><a xlink:href="classEniroMapProvider.html" target="_top" xlink:title=" ">
<polygon fill="white" stroke="#666666" points="238.5,-796 135.5,-796 135.5,-777 238.5,-777 238.5,-796"/>
<text text-anchor="middle" x="187" y="-784" font-family="Helvetica,sans-Serif" font-size="10.00">EniroMapProvider</text>
</a>
</g>
</g>
<!-- Node1&#45;&gt;Node15 -->
<g id="edge14_Node000001_Node000015" class="edge">
<title>Node1&#45;&gt;Node15</title>
<g id="a_edge14_Node000001_Node000015"><a xlink:title=" ">
<path fill="none" stroke="#63b8ff" d="M39.9,-546.18C40.79,-592.17 49.68,-707.42 114,-768.5 119.98,-774.18 127.47,-778.14 135.34,-780.89"/>
<polygon fill="#63b8ff" stroke="#63b8ff" points="43.4,-546.02 39.82,-536.05 36.4,-546.08 43.4,-546.02"/>
</a>
</g>
</g>
<!-- Node16 -->
<g id="Node000016" class="node">
<title>Node16</title>
<g id="a_Node000016"><a xlink:href="classEsriMapProvider.html" target="_top" xlink:title=" ">
<polygon fill="white" stroke="#666666" points="235,-759 139,-759 139,-740 235,-740 235,-759"/>
<text text-anchor="middle" x="187" y="-747" font-family="Helvetica,sans-Serif" font-size="10.00">EsriMapProvider</text>
</a>
</g>
</g>
<!-- Node1&#45;&gt;Node16 -->
<g id="edge15_Node000001_Node000016" class="edge">
<title>Node1&#45;&gt;Node16</title>
<g id="a_edge15_Node000001_Node000016"><a xlink:title=" ">
<path fill="none" stroke="#63b8ff" d="M51.83,-544.56C81.33,-589.63 157.42,-705.84 179.75,-739.95"/>
<polygon fill="#63b8ff" stroke="#63b8ff" points="54.68,-542.53 46.27,-536.08 48.82,-546.37 54.68,-542.53"/>
</a>
</g>
</g>
<!-- Node20 -->
<g id="Node000020" class="node">
<title>Node20</title>
<g id="a_Node000020"><a xlink:href="classGoogleMapProvider.html" target="_top" xlink:title=" ">
<polygon fill="white" stroke="#666666" points="243.5,-630 130.5,-630 130.5,-611 243.5,-611 243.5,-630"/>
<text text-anchor="middle" x="187" y="-618" font-family="Helvetica,sans-Serif" font-size="10.00">GoogleMapProvider</text>
</a>
</g>
</g>
<!-- Node1&#45;&gt;Node20 -->
<g id="edge19_Node000001_Node000020" class="edge">
<title>Node1&#45;&gt;Node20</title>
<g id="a_edge19_Node000001_Node000020"><a xlink:title=" ">
<path fill="none" stroke="#63b8ff" d="M63.47,-541.61C93.82,-561.15 145.77,-594.6 171.16,-610.94"/>
<polygon fill="#63b8ff" stroke="#63b8ff" points="65.11,-538.5 54.8,-536.03 61.32,-544.39 65.11,-538.5"/>
</a>
</g>
</g>
<!-- Node26 -->
<g id="Node000026" class="node">
<title>Node26</title>
<g id="a_Node000026"><a xlink:href="classLINZBasemapMapProvider.html" target="_top" xlink:title=" ">
<polygon fill="white" stroke="#666666" points="260,-555 114,-555 114,-536 260,-536 260,-555"/>
<text text-anchor="middle" x="187" y="-543" font-family="Helvetica,sans-Serif" font-size="10.00">LINZBasemapMapProvider</text>
</a>
</g>
</g>
<!-- Node1&#45;&gt;Node26 -->
<g id="edge25_Node000001_Node000026" class="edge">
<title>Node1&#45;&gt;Node26</title>
<g id="a_edge25_Node000001_Node000026"><a xlink:title=" ">
<path fill="none" stroke="#63b8ff" d="M88.47,-532.81C96.67,-533.87 105.34,-535 114,-536.13"/>
<polygon fill="#63b8ff" stroke="#63b8ff" points="88.73,-529.31 78.36,-531.49 87.82,-536.25 88.73,-529.31"/>
</a>
</g>
</g>
<!-- Node27 -->
<g id="Node000027" class="node">
<title>Node27</title>
<g id="a_Node000027"><a xlink:href="classMapQuestMapProvider.html" target="_top" xlink:title=" ">
<polygon fill="white" stroke="#666666" points="251,-518 123,-518 123,-499 251,-499 251,-518"/>
<text text-anchor="middle" x="187" y="-506" font-family="Helvetica,sans-Serif" font-size="10.00">MapQuestMapProvider</text>
</a>
</g>
</g>
<!-- Node1&#45;&gt;Node27 -->
<g id="edge26_Node000001_Node000027" class="edge">
<title>Node1&#45;&gt;Node27</title>
<g id="a_edge26_Node000001_Node000027"><a xlink:title=" ">
<path fill="none" stroke="#63b8ff" d="M88.57,-520.51C99.53,-519.16 111.32,-517.71 122.77,-516.29"/>
<polygon fill="#63b8ff" stroke="#63b8ff" points="87.86,-517.07 78.36,-521.77 88.71,-524.02 87.86,-517.07"/>
</a>
</g>
</g>
<!-- Node30 -->
<g id="Node000030" class="node">
<title>Node30</title>
<g id="a_Node000030"><a xlink:href="classMapboxMapProvider.html" target="_top" xlink:title=" ">
<polygon fill="white" stroke="#666666" points="245.5,-370 128.5,-370 128.5,-351 245.5,-351 245.5,-370"/>
<text text-anchor="middle" x="187" y="-358" font-family="Helvetica,sans-Serif" font-size="10.00">MapboxMapProvider</text>
</a>
</g>
</g>
<!-- Node1&#45;&gt;Node30 -->
<g id="edge29_Node000001_Node000030" class="edge">
<title>Node1&#45;&gt;Node30</title>
<g id="a_edge29_Node000001_Node000030"><a xlink:title=" ">
<path fill="none" stroke="#63b8ff" d="M55.68,-508.67C86.46,-473.68 153.82,-397.09 177.53,-370.13"/>
<polygon fill="#63b8ff" stroke="#63b8ff" points="52.67,-506.79 48.7,-516.61 57.93,-511.42 52.67,-506.79"/>
</a>
</g>
</g>
<!-- Node40 -->
<g id="Node000040" class="node">
<title>Node40</title>
<g id="a_Node000040"><a xlink:href="classOpenAIPMapProvider.html" target="_top" xlink:title=" ">
<polygon fill="white" stroke="#666666" points="246.5,-333 127.5,-333 127.5,-314 246.5,-314 246.5,-333"/>
<text text-anchor="middle" x="187" y="-321" font-family="Helvetica,sans-Serif" font-size="10.00">OpenAIPMapProvider</text>
</a>
</g>
</g>
<!-- Node1&#45;&gt;Node40 -->
<g id="edge39_Node000001_Node000040" class="edge">
<title>Node1&#45;&gt;Node40</title>
<g id="a_edge39_Node000001_Node000040"><a xlink:title=" ">
<path fill="none" stroke="#63b8ff" d="M42.19,-506.56C47.42,-468.75 64.17,-386.48 114,-342.5 118.36,-338.65 123.41,-335.57 128.78,-333.1"/>
<polygon fill="#63b8ff" stroke="#63b8ff" points="38.68,-506.42 40.91,-516.78 45.62,-507.29 38.68,-506.42"/>
</a>
</g>
</g>
<!-- Node41 -->
<g id="Node000041" class="node">
<title>Node41</title>
<g id="a_Node000041"><a xlink:href="classOpenStreetMapProvider.html" target="_top" xlink:title=" ">
<polygon fill="white" stroke="#666666" points="253.5,-296 120.5,-296 120.5,-277 253.5,-277 253.5,-296"/>
<text text-anchor="middle" x="187" y="-284" font-family="Helvetica,sans-Serif" font-size="10.00">OpenStreetMapProvider</text>
</a>
</g>
</g>
<!-- Node1&#45;&gt;Node41 -->
<g id="edge40_Node000001_Node000041" class="edge">
<title>Node1&#45;&gt;Node41</title>
<g id="a_edge40_Node000001_Node000041"><a xlink:title=" ">
<path fill="none" stroke="#63b8ff" d="M40.63,-506.83C43.09,-463.76 55.18,-360.61 114,-305.5 118.15,-301.61 123,-298.5 128.19,-296.01"/>
<polygon fill="#63b8ff" stroke="#63b8ff" points="37.13,-506.71 40.17,-516.86 44.12,-507.03 37.13,-506.71"/>
</a>
</g>
</g>
<!-- Node42 -->
<g id="Node000042" class="node">
<title>Node42</title>
<g id="a_Node000042"><a xlink:href="classStatkartMapProvider.html" target="_top" xlink:title=" ">
<polygon fill="white" stroke="#666666" points="245,-204 129,-204 129,-185 245,-185 245,-204"/>
<text text-anchor="middle" x="187" y="-192" font-family="Helvetica,sans-Serif" font-size="10.00">StatkartMapProvider</text>
</a>
</g>
</g>
<!-- Node1&#45;&gt;Node42 -->
<g id="edge41_Node000001_Node000042" class="edge">
<title>Node1&#45;&gt;Node42</title>
<g id="a_edge41_Node000001_Node000042"><a xlink:title=" ">
<path fill="none" stroke="#63b8ff" d="M42.31,-506.8C48.28,-461.85 67.12,-349.34 114,-268.5 129.65,-241.52 157.29,-217.03 173.39,-204.11"/>
<polygon fill="#63b8ff" stroke="#63b8ff" points="38.81,-506.58 41.04,-516.94 45.76,-507.46 38.81,-506.58"/>
</a>
</g>
</g>
<!-- Node45 -->
<g id="Node000045" class="node">
<title>Node45</title>
<g id="a_Node000045"><a xlink:href="classSvalbardMapProvider.html" target="_top" xlink:title=" ">
<polygon fill="white" stroke="#666666" points="247.5,-167 126.5,-167 126.5,-148 247.5,-148 247.5,-167"/>
<text text-anchor="middle" x="187" y="-155" font-family="Helvetica,sans-Serif" font-size="10.00">SvalbardMapProvider</text>
</a>
</g>
</g>
<!-- Node1&#45;&gt;Node45 -->
<g id="edge44_Node000001_Node000045" class="edge">
<title>Node1&#45;&gt;Node45</title>
<g id="a_edge44_Node000001_Node000045"><a xlink:title=" ">
<path fill="none" stroke="#63b8ff" d="M41.5,-506.66C46.96,-439.92 67.86,-224.99 114,-176.5 117.65,-172.66 121.98,-169.56 126.68,-167.07"/>
<polygon fill="#63b8ff" stroke="#63b8ff" points="38.01,-506.45 40.71,-516.7 44.99,-507 38.01,-506.45"/>
</a>
</g>
</g>
<!-- Node46 -->
<g id="Node000046" class="node">
<title>Node46</title>
<g id="a_Node000046"><a xlink:href="classTianDiTuProvider.html" target="_top" xlink:title=" ">
<polygon fill="white" stroke="#666666" points="236.5,-102 137.5,-102 137.5,-83 236.5,-83 236.5,-102"/>
<text text-anchor="middle" x="187" y="-90" font-family="Helvetica,sans-Serif" font-size="10.00">TianDiTuProvider</text>
</a>
</g>
</g>
<!-- Node1&#45;&gt;Node46 -->
<g id="edge45_Node000001_Node000046" class="edge">
<title>Node1&#45;&gt;Node46</title>
<g id="a_edge45_Node000001_Node000046"><a xlink:title=" ">
<path fill="none" stroke="#63b8ff" d="M41.76,-506.51C48.25,-436.18 72.68,-201.12 114,-139.5 125.64,-122.14 146.08,-109.71 162.22,-102.01"/>
<polygon fill="#63b8ff" stroke="#63b8ff" points="38.25,-506.39 40.84,-516.66 45.23,-507.02 38.25,-506.39"/>
</a>
</g>
</g>
<!-- Node49 -->
<g id="Node000049" class="node">
<title>Node49</title>
<g id="a_Node000049"><a xlink:href="classVWorldMapProvider.html" target="_top" xlink:title=" ">
<polygon fill="#fff0f0" stroke="red" points="243.5,-65 130.5,-65 130.5,-46 243.5,-46 243.5,-65"/>
<text text-anchor="middle" x="187" y="-53" font-family="Helvetica,sans-Serif" font-size="10.00">VWorldMapProvider</text>
</a>
</g>
</g>
<!-- Node1&#45;&gt;Node49 -->
<g id="edge48_Node000001_Node000049" class="edge">
<title>Node1&#45;&gt;Node49</title>
<g id="a_edge48_Node000001_Node000049"><a xlink:title=" ">
<path fill="none" stroke="#63b8ff" d="M40.47,-506.74C42.73,-428.22 55.01,-139.43 114,-74.5 118.52,-69.52 124.18,-65.79 130.32,-62.99"/>
<polygon fill="#63b8ff" stroke="#63b8ff" points="36.97,-506.66 40.2,-516.74 43.97,-506.84 36.97,-506.66"/>
</a>
</g>
</g>
<!-- Node3 -->
<g id="Node000003" class="node">
<title>Node3</title>
<g id="a_Node000003"><a xlink:href="classBingHybridMapProvider.html" target="_top" xlink:title=" ">
<polygon fill="white" stroke="#666666" points="451,-1166 319,-1166 319,-1147 451,-1147 451,-1166"/>
<text text-anchor="middle" x="385" y="-1154" font-family="Helvetica,sans-Serif" font-size="10.00">BingHybridMapProvider</text>
</a>
</g>
</g>
<!-- Node2&#45;&gt;Node3 -->
<g id="edge2_Node000002_Node000003" class="edge">
<title>Node2&#45;&gt;Node3</title>
<g id="a_edge2_Node000002_Node000003"><a xlink:title=" ">
<path fill="none" stroke="#63b8ff" d="M221.63,-1113.67C242.76,-1121.6 270.7,-1131.5 296,-1138.5 307.27,-1141.62 319.49,-1144.46 331.14,-1146.91"/>
<polygon fill="#63b8ff" stroke="#63b8ff" points="222.74,-1110.34 212.15,-1110.06 220.25,-1116.89 222.74,-1110.34"/>
</a>
</g>
</g>
<!-- Node4 -->
<g id="Node000004" class="node">
<title>Node4</title>
<g id="a_Node000004"><a xlink:href="classBingRoadMapProvider.html" target="_top" xlink:title=" ">
<polygon fill="white" stroke="#666666" points="447.5,-1129 322.5,-1129 322.5,-1110 447.5,-1110 447.5,-1129"/>
<text text-anchor="middle" x="385" y="-1117" font-family="Helvetica,sans-Serif" font-size="10.00">BingRoadMapProvider</text>
</a>
</g>
</g>
<!-- Node2&#45;&gt;Node4 -->
<g id="edge3_Node000002_Node000004" class="edge">
<title>Node2&#45;&gt;Node4</title>
<g id="a_edge3_Node000002_Node000004"><a xlink:title=" ">
<path fill="none" stroke="#63b8ff" d="M247.17,-1106.24C270.98,-1108.54 298.43,-1111.21 322.47,-1113.54"/>
<polygon fill="#63b8ff" stroke="#63b8ff" points="247.5,-1102.75 237.21,-1105.27 246.82,-1109.72 247.5,-1102.75"/>
</a>
</g>
</g>
<!-- Node5 -->
<g id="Node000005" class="node">
<title>Node5</title>
<g id="a_Node000005"><a xlink:href="classBingSatelliteMapProvider.html" target="_top" xlink:title=" ">
<polygon fill="white" stroke="#666666" points="455,-1092 315,-1092 315,-1073 455,-1073 455,-1092"/>
<text text-anchor="middle" x="385" y="-1080" font-family="Helvetica,sans-Serif" font-size="10.00">BingSatelliteMapProvider</text>
</a>
</g>
</g>
<!-- Node2&#45;&gt;Node5 -->
<g id="edge4_Node000002_Node000005" class="edge">
<title>Node2&#45;&gt;Node5</title>
<g id="a_edge4_Node000002_Node000005"><a xlink:title=" ">
<path fill="none" stroke="#63b8ff" d="M247.38,-1095.05C268.63,-1093.09 292.77,-1090.88 314.78,-1088.86"/>
<polygon fill="#63b8ff" stroke="#63b8ff" points="246.84,-1091.58 237.21,-1095.98 247.48,-1098.55 246.84,-1091.58"/>
</a>
</g>
</g>
<!-- Node8 -->
<g id="Node000008" class="node">
<title>Node8</title>
<g id="a_Node000008"><a xlink:href="classJapanAnaglyphMapProvider.html" target="_top" xlink:title=" ">
<polygon fill="white" stroke="#666666" points="460.5,-1055 309.5,-1055 309.5,-1036 460.5,-1036 460.5,-1055"/>
<text text-anchor="middle" x="385" y="-1043" font-family="Helvetica,sans-Serif" font-size="10.00">JapanAnaglyphMapProvider</text>
</a>
</g>
</g>
<!-- Node7&#45;&gt;Node8 -->
<g id="edge7_Node000007_Node000008" class="edge">
<title>Node7&#45;&gt;Node8</title>
<g id="a_edge7_Node000007_Node000008"><a xlink:title=" ">
<path fill="none" stroke="#63b8ff" d="M253.47,-948.87C255.76,-950.27 257.95,-951.81 260,-953.5 288.25,-976.72 267.1,-1005.08 296,-1027.5 300.31,-1030.85 305.09,-1033.61 310.13,-1035.9"/>
<polygon fill="#63b8ff" stroke="#63b8ff" points="254.72,-945.57 244.22,-944.1 251.51,-951.79 254.72,-945.57"/>
</a>
</g>
</g>
<!-- Node9 -->
<g id="Node000009" class="node">
<title>Node9</title>
<g id="a_Node000009"><a xlink:href="classJapanReliefMapProvider.html" target="_top" xlink:title=" ">
<polygon fill="white" stroke="#666666" points="452,-1018 318,-1018 318,-999 452,-999 452,-1018"/>
<text text-anchor="middle" x="385" y="-1006" font-family="Helvetica,sans-Serif" font-size="10.00">JapanReliefMapProvider</text>
</a>
</g>
</g>
<!-- Node7&#45;&gt;Node9 -->
<g id="edge8_Node000007_Node000009" class="edge">
<title>Node7&#45;&gt;Node9</title>
<g id="a_edge8_Node000007_Node000009"><a xlink:title=" ">
<path fill="none" stroke="#63b8ff" d="M248.26,-947.71C252.34,-949.41 256.3,-951.34 260,-953.5 279.81,-965.07 275.87,-979.49 296,-990.5 302.7,-994.17 310.07,-997.09 317.59,-999.42"/>
<polygon fill="#63b8ff" stroke="#63b8ff" points="249.18,-944.31 238.59,-944.1 246.74,-950.87 249.18,-944.31"/>
</a>
</g>
</g>
<!-- Node10 -->
<g id="Node000010" class="node">
<title>Node10</title>
<g id="a_Node000010"><a xlink:href="classJapanSeamlessMapProvider.html" target="_top" xlink:title=" ">
<polygon fill="white" stroke="#666666" points="461,-981 309,-981 309,-962 461,-962 461,-981"/>
<text text-anchor="middle" x="385" y="-969" font-family="Helvetica,sans-Serif" font-size="10.00">JapanSeamlessMapProvider</text>
</a>
</g>
</g>
<!-- Node7&#45;&gt;Node10 -->
<g id="edge9_Node000007_Node000010" class="edge">
<title>Node7&#45;&gt;Node10</title>
<g id="a_edge9_Node000007_Node000010"><a xlink:title=" ">
<path fill="none" stroke="#63b8ff" d="M248.64,-945.95C275.81,-951.08 307.48,-957.06 333.36,-961.94"/>
<polygon fill="#63b8ff" stroke="#63b8ff" points="248.95,-942.44 238.47,-944.03 247.65,-949.32 248.95,-942.44"/>
</a>
</g>
</g>
<!-- Node11 -->
<g id="Node000011" class="node">
<title>Node11</title>
<g id="a_Node000011"><a xlink:href="classJapanSlopeMapProvider.html" target="_top" xlink:title=" ">
<polygon fill="white" stroke="#666666" points="451,-944 319,-944 319,-925 451,-925 451,-944"/>
<text text-anchor="middle" x="385" y="-932" font-family="Helvetica,sans-Serif" font-size="10.00">JapanSlopeMapProvider</text>
</a>
</g>
</g>
<!-- Node7&#45;&gt;Node11 -->
<g id="edge10_Node000007_Node000011" class="edge">
<title>Node7&#45;&gt;Node11</title>
<g id="a_edge10_Node000007_Node000011"><a xlink:title=" ">
<path fill="none" stroke="#63b8ff" d="M264.27,-934.5C282.31,-934.5 301.38,-934.5 318.87,-934.5"/>
<polygon fill="#63b8ff" stroke="#63b8ff" points="264.08,-931 254.08,-934.5 264.08,-938 264.08,-931"/>
</a>
</g>
</g>
<!-- Node12 -->
<g id="Node000012" class="node">
<title>Node12</title>
<g id="a_Node000012"><a xlink:href="classJapanStdMapProvider.html" target="_top" xlink:title=" ">
<polygon fill="white" stroke="#666666" points="445.5,-907 324.5,-907 324.5,-888 445.5,-888 445.5,-907"/>
<text text-anchor="middle" x="385" y="-895" font-family="Helvetica,sans-Serif" font-size="10.00">JapanStdMapProvider</text>
</a>
</g>
</g>
<!-- Node7&#45;&gt;Node12 -->
<g id="edge11_Node000007_Node000012" class="edge">
<title>Node7&#45;&gt;Node12</title>
<g id="a_edge11_Node000007_Node000012"><a xlink:title=" ">
<path fill="none" stroke="#63b8ff" d="M248.64,-923.05C275.81,-917.92 307.48,-911.94 333.36,-907.06"/>
<polygon fill="#63b8ff" stroke="#63b8ff" points="247.65,-919.68 238.47,-924.97 248.95,-926.56 247.65,-919.68"/>
</a>
</g>
</g>
<!-- Node14 -->
<g id="Node000014" class="node">
<title>Node14</title>
<g id="a_Node000014"><a xlink:href="classCopernicusElevationProvider.html" target="_top" xlink:title="https://spacedata.copernicus.eu/collections/copernicus&#45;digital&#45;elevation&#45;model">
<polygon fill="white" stroke="#666666" points="463.5,-870 306.5,-870 306.5,-851 463.5,-851 463.5,-870"/>
<text text-anchor="middle" x="385" y="-858" font-family="Helvetica,sans-Serif" font-size="10.00">CopernicusElevationProvider</text>
</a>
</g>
</g>
<!-- Node13&#45;&gt;Node14 -->
<g id="edge13_Node000013_Node000014" class="edge">
<title>Node13&#45;&gt;Node14</title>
<g id="a_edge13_Node000013_Node000014"><a xlink:title=" ">
<path fill="none" stroke="#63b8ff" d="M248.91,-848.09C267.12,-849.77 287.34,-851.62 306.48,-853.38"/>
<polygon fill="#63b8ff" stroke="#63b8ff" points="249.01,-844.59 238.73,-847.16 248.37,-851.56 249.01,-844.59"/>
</a>
</g>
</g>
<!-- Node17 -->
<g id="Node000017" class="node">
<title>Node17</title>
<g id="a_Node000017"><a xlink:href="classEsriTerrainMapProvider.html" target="_top" xlink:title=" ">
<polygon fill="white" stroke="#666666" points="449.5,-833 320.5,-833 320.5,-814 449.5,-814 449.5,-833"/>
<text text-anchor="middle" x="385" y="-821" font-family="Helvetica,sans-Serif" font-size="10.00">EsriTerrainMapProvider</text>
</a>
</g>
</g>
<!-- Node16&#45;&gt;Node17 -->
<g id="edge16_Node000016_Node000017" class="edge">
<title>Node16&#45;&gt;Node17</title>
<g id="a_edge16_Node000016_Node000017"><a xlink:title=" ">
<path fill="none" stroke="#63b8ff" d="M244.81,-761.32C250.1,-763.35 255.26,-765.73 260,-768.5 279.81,-780.07 275.87,-794.49 296,-805.5 303.53,-809.62 311.88,-812.79 320.36,-815.25"/>
<polygon fill="#63b8ff" stroke="#63b8ff" points="245.77,-757.95 235.18,-758.02 243.5,-764.57 245.77,-757.95"/>
</a>
</g>
</g>
<!-- Node18 -->
<g id="Node000018" class="node">
<title>Node18</title>
<g id="a_Node000018"><a xlink:href="classEsriWorldSatelliteMapProvider.html" target="_top" xlink:title=" ">
<polygon fill="white" stroke="#666666" points="467,-796 303,-796 303,-777 467,-777 467,-796"/>
<text text-anchor="middle" x="385" y="-784" font-family="Helvetica,sans-Serif" font-size="10.00">EsriWorldSatelliteMapProvider</text>
</a>
</g>
</g>
<!-- Node16&#45;&gt;Node18 -->
<g id="edge17_Node000016_Node000018" class="edge">
<title>Node16&#45;&gt;Node18</title>
<g id="a_edge17_Node000016_Node000018"><a xlink:title=" ">
<path fill="none" stroke="#63b8ff" d="M245.47,-760.35C273.39,-765.62 306.64,-771.9 333.56,-776.98"/>
<polygon fill="#63b8ff" stroke="#63b8ff" points="245.92,-756.87 235.45,-758.46 244.62,-763.75 245.92,-756.87"/>
</a>
</g>
</g>
<!-- Node19 -->
<g id="Node000019" class="node">
<title>Node19</title>
<g id="a_Node000019"><a xlink:href="classEsriWorldStreetMapProvider.html" target="_top" xlink:title=" ">
<polygon fill="white" stroke="#666666" points="461.5,-759 308.5,-759 308.5,-740 461.5,-740 461.5,-759"/>
<text text-anchor="middle" x="385" y="-747" font-family="Helvetica,sans-Serif" font-size="10.00">EsriWorldStreetMapProvider</text>
</a>
</g>
</g>
<!-- Node16&#45;&gt;Node19 -->
<g id="edge18_Node000016_Node000019" class="edge">
<title>Node16&#45;&gt;Node19</title>
<g id="a_edge18_Node000016_Node000019"><a xlink:title=" ">
<path fill="none" stroke="#63b8ff" d="M245.47,-749.5C265.13,-749.5 287.44,-749.5 308.32,-749.5"/>
<polygon fill="#63b8ff" stroke="#63b8ff" points="245.45,-746 235.45,-749.5 245.45,-753 245.45,-746"/>
</a>
</g>
</g>
<!-- Node21 -->
<g id="Node000021" class="node">
<title>Node21</title>
<g id="a_Node000021"><a xlink:href="classGoogleHybridMapProvider.html" target="_top" xlink:title=" ">
<polygon fill="white" stroke="#666666" points="457.5,-722 312.5,-722 312.5,-703 457.5,-703 457.5,-722"/>
<text text-anchor="middle" x="385" y="-710" font-family="Helvetica,sans-Serif" font-size="10.00">GoogleHybridMapProvider</text>
</a>
</g>
</g>
<!-- Node20&#45;&gt;Node21 -->
<g id="edge20_Node000020_Node000021" class="edge">
<title>Node20&#45;&gt;Node21</title>
<g id="a_edge20_Node000020_Node000021"><a xlink:title=" ">
<path fill="none" stroke="#63b8ff" d="M206.66,-636.78C227.17,-653.79 261.76,-679.97 296,-694.5 304.04,-697.91 312.77,-700.69 321.51,-702.95"/>
<polygon fill="#63b8ff" stroke="#63b8ff" points="208.68,-633.9 198.78,-630.11 204.16,-639.24 208.68,-633.9"/>
</a>
</g>
</g>
<!-- Node22 -->
<g id="Node000022" class="node">
<title>Node22</title>
<g id="a_Node000022"><a xlink:href="classGoogleLabelsMapProvider.html" target="_top" xlink:title=" ">
<polygon fill="white" stroke="#666666" points="457,-685 313,-685 313,-666 457,-666 457,-685"/>
<text text-anchor="middle" x="385" y="-673" font-family="Helvetica,sans-Serif" font-size="10.00">GoogleLabelsMapProvider</text>
</a>
</g>
</g>
<!-- Node20&#45;&gt;Node22 -->
<g id="edge21_Node000020_Node000022" class="edge">
<title>Node20&#45;&gt;Node22</title>
<g id="a_edge21_Node000020_Node000022"><a xlink:title=" ">
<path fill="none" stroke="#63b8ff" d="M222.5,-633.58C243.53,-641.24 271.07,-650.71 296,-657.5 307.43,-660.61 319.84,-663.47 331.62,-665.94"/>
<polygon fill="#63b8ff" stroke="#63b8ff" points="223.62,-630.27 213.03,-630.1 221.2,-636.84 223.62,-630.27"/>
</a>
</g>
</g>
<!-- Node23 -->
<g id="Node000023" class="node">
<title>Node23</title>
<g id="a_Node000023"><a xlink:href="classGoogleSatelliteMapProvider.html" target="_top" xlink:title=" ">
<polygon fill="white" stroke="#666666" points="461.5,-648 308.5,-648 308.5,-629 461.5,-629 461.5,-648"/>
<text text-anchor="middle" x="385" y="-636" font-family="Helvetica,sans-Serif" font-size="10.00">GoogleSatelliteMapProvider</text>
</a>
</g>
</g>
<!-- Node20&#45;&gt;Node23 -->
<g id="edge22_Node000020_Node000023" class="edge">
<title>Node20&#45;&gt;Node23</title>
<g id="a_edge22_Node000020_Node000023"><a xlink:title=" ">
<path fill="none" stroke="#63b8ff" d="M253.78,-626.54C271.33,-628.15 290.43,-629.91 308.46,-631.56"/>
<polygon fill="#63b8ff" stroke="#63b8ff" points="253.92,-623.04 243.64,-625.61 253.28,-630.01 253.92,-623.04"/>
</a>
</g>
</g>
<!-- Node24 -->
<g id="Node000024" class="node">
<title>Node24</title>
<g id="a_Node000024"><a xlink:href="classGoogleStreetMapProvider.html" target="_top" xlink:title=" ">
<polygon fill="white" stroke="#666666" points="456,-611 314,-611 314,-592 456,-592 456,-611"/>
<text text-anchor="middle" x="385" y="-599" font-family="Helvetica,sans-Serif" font-size="10.00">GoogleStreetMapProvider</text>
</a>
</g>
</g>
<!-- Node20&#45;&gt;Node24 -->
<g id="edge23_Node000020_Node000024" class="edge">
<title>Node20&#45;&gt;Node24</title>
<g id="a_edge23_Node000020_Node000024"><a xlink:title=" ">
<path fill="none" stroke="#63b8ff" d="M253.85,-614.12C273.15,-612.25 294.32,-610.19 313.88,-608.3"/>
<polygon fill="#63b8ff" stroke="#63b8ff" points="253.26,-610.66 243.64,-615.11 253.93,-617.62 253.26,-610.66"/>
</a>
</g>
</g>
<!-- Node25 -->
<g id="Node000025" class="node">
<title>Node25</title>
<g id="a_Node000025"><a xlink:href="classGoogleTerrainMapProvider.html" target="_top" xlink:title=" ">
<polygon fill="white" stroke="#666666" points="458,-574 312,-574 312,-555 458,-555 458,-574"/>
<text text-anchor="middle" x="385" y="-562" font-family="Helvetica,sans-Serif" font-size="10.00">GoogleTerrainMapProvider</text>
</a>
</g>
</g>
<!-- Node20&#45;&gt;Node25 -->
<g id="edge24_Node000020_Node000025" class="edge">
<title>Node20&#45;&gt;Node25</title>
<g id="a_edge24_Node000020_Node000025"><a xlink:title=" ">
<path fill="none" stroke="#63b8ff" d="M222.52,-607.51C243.56,-599.89 271.11,-590.43 296,-583.5 308.5,-580.02 322.14,-576.8 334.88,-574.04"/>
<polygon fill="#63b8ff" stroke="#63b8ff" points="221.24,-604.26 213.05,-610.98 223.64,-610.83 221.24,-604.26"/>
</a>
</g>
</g>
<!-- Node28 -->
<g id="Node000028" class="node">
<title>Node28</title>
<g id="a_Node000028"><a xlink:href="classMapQuestMapMapProvider.html" target="_top" xlink:title=" ">
<polygon fill="white" stroke="#666666" points="459.5,-537 310.5,-537 310.5,-518 459.5,-518 459.5,-537"/>
<text text-anchor="middle" x="385" y="-525" font-family="Helvetica,sans-Serif" font-size="10.00">MapQuestMapMapProvider</text>
</a>
</g>
</g>
<!-- Node27&#45;&gt;Node28 -->
<g id="edge27_Node000027_Node000028" class="edge">
<title>Node27&#45;&gt;Node28</title>
<g id="a_edge27_Node000027_Node000028"><a xlink:title=" ">
<path fill="none" stroke="#63b8ff" d="M261.46,-515.62C277.48,-517.17 294.42,-518.82 310.44,-520.37"/>
<polygon fill="#63b8ff" stroke="#63b8ff" points="261.39,-512.1 251.09,-514.62 260.71,-519.06 261.39,-512.1"/>
</a>
</g>
</g>
<!-- Node29 -->
<g id="Node000029" class="node">
<title>Node29</title>
<g id="a_Node000029"><a xlink:href="classMapQuestSatMapProvider.html" target="_top" xlink:title=" ">
<polygon fill="white" stroke="#666666" points="456.5,-500 313.5,-500 313.5,-481 456.5,-481 456.5,-500"/>
<text text-anchor="middle" x="385" y="-488" font-family="Helvetica,sans-Serif" font-size="10.00">MapQuestSatMapProvider</text>
</a>
</g>
</g>
<!-- Node27&#45;&gt;Node29 -->
<g id="edge28_Node000027_Node000029" class="edge">
<title>Node27&#45;&gt;Node29</title>
<g id="a_edge28_Node000027_Node000029"><a xlink:title=" ">
<path fill="none" stroke="#63b8ff" d="M261.48,-501.75C278.41,-500.2 296.39,-498.55 313.2,-497"/>
<polygon fill="#63b8ff" stroke="#63b8ff" points="260.73,-498.31 251.09,-502.71 261.37,-505.28 260.73,-498.31"/>
</a>
</g>
</g>
<!-- Node31 -->
<g id="Node000031" class="node">
<title>Node31</title>
<g id="a_Node000031"><a xlink:href="classMapboxBrightMapProvider.html" target="_top" xlink:title=" ">
<polygon fill="white" stroke="#666666" points="458,-463 312,-463 312,-444 458,-444 458,-463"/>
<text text-anchor="middle" x="385" y="-451" font-family="Helvetica,sans-Serif" font-size="10.00">MapboxBrightMapProvider</text>
</a>
</g>
</g>
<!-- Node30&#45;&gt;Node31 -->
<g id="edge30_Node000030_Node000031" class="edge">
<title>Node30&#45;&gt;Node31</title>
<g id="a_edge30_Node000030_Node000031"><a xlink:title=" ">
<path fill="none" stroke="#63b8ff" d="M206.35,-376.78C226.79,-394.02 261.51,-420.74 296,-435.5 304.03,-438.94 312.76,-441.73 321.49,-444"/>
<polygon fill="#63b8ff" stroke="#63b8ff" points="208.62,-374.11 198.76,-370.25 204.06,-379.42 208.62,-374.11"/>
</a>
</g>
</g>
<!-- Node32 -->
<g id="Node000032" class="node">
<title>Node32</title>
<g id="a_Node000032"><a xlink:href="classMapboxCustomMapProvider.html" target="_top" xlink:title=" ">
<polygon fill="white" stroke="#666666" points="462.5,-426 307.5,-426 307.5,-407 462.5,-407 462.5,-426"/>
<text text-anchor="middle" x="385" y="-414" font-family="Helvetica,sans-Serif" font-size="10.00">MapboxCustomMapProvider</text>
</a>
</g>
</g>
<!-- Node30&#45;&gt;Node32 -->
<g id="edge31_Node000030_Node000032" class="edge">
<title>Node30&#45;&gt;Node32</title>
<g id="a_edge31_Node000030_Node000032"><a xlink:title=" ">
<path fill="none" stroke="#63b8ff" d="M221.63,-373.67C242.76,-381.6 270.7,-391.5 296,-398.5 307.27,-401.62 319.49,-404.46 331.14,-406.91"/>
<polygon fill="#63b8ff" stroke="#63b8ff" points="222.74,-370.34 212.15,-370.06 220.25,-376.89 222.74,-370.34"/>
</a>
</g>
</g>
<!-- Node33 -->
<g id="Node000033" class="node">
<title>Node33</title>
<g id="a_Node000033"><a xlink:href="classMapboxDarkMapProvider.html" target="_top" xlink:title=" ">
<polygon fill="white" stroke="#666666" points="455,-389 315,-389 315,-370 455,-370 455,-389"/>
<text text-anchor="middle" x="385" y="-377" font-family="Helvetica,sans-Serif" font-size="10.00">MapboxDarkMapProvider</text>
</a>
</g>
</g>
<!-- Node30&#45;&gt;Node33 -->
<g id="edge32_Node000030_Node000033" class="edge">
<title>Node30&#45;&gt;Node33</title>
<g id="a_edge32_Node000030_Node000033"><a xlink:title=" ">
<path fill="none" stroke="#63b8ff" d="M255.86,-367.08C274.95,-368.93 295.73,-370.94 314.9,-372.8"/>
<polygon fill="#63b8ff" stroke="#63b8ff" points="256.04,-363.58 245.75,-366.1 255.36,-370.55 256.04,-363.58"/>
</a>
</g>
</g>
<!-- Node34 -->
<g id="Node000034" class="node">
<title>Node34</title>
<g id="a_Node000034"><a xlink:href="classMapboxHybridMapProvider.html" target="_top" xlink:title=" ">
<polygon fill="white" stroke="#666666" points="459.5,-352 310.5,-352 310.5,-333 459.5,-333 459.5,-352"/>
<text text-anchor="middle" x="385" y="-340" font-family="Helvetica,sans-Serif" font-size="10.00">MapboxHybridMapProvider</text>
</a>
</g>
</g>
<!-- Node30&#45;&gt;Node34 -->
<g id="edge33_Node000030_Node000034" class="edge">
<title>Node30&#45;&gt;Node34</title>
<g id="a_edge33_Node000030_Node000034"><a xlink:title=" ">
<path fill="none" stroke="#63b8ff" d="M255.9,-354.26C273.45,-352.65 292.44,-350.91 310.28,-349.27"/>
<polygon fill="#63b8ff" stroke="#63b8ff" points="255.38,-350.8 245.75,-355.2 256.02,-357.77 255.38,-350.8"/>
</a>
</g>
</g>
<!-- Node35 -->
<g id="Node000035" class="node">
<title>Node35</title>
<g id="a_Node000035"><a xlink:href="classMapboxLightMapProvider.html" target="_top" xlink:title=" ">
<polygon fill="white" stroke="#666666" points="455.5,-315 314.5,-315 314.5,-296 455.5,-296 455.5,-315"/>
<text text-anchor="middle" x="385" y="-303" font-family="Helvetica,sans-Serif" font-size="10.00">MapboxLightMapProvider</text>
</a>
</g>
</g>
<!-- Node30&#45;&gt;Node35 -->
<g id="edge34_Node000030_Node000035" class="edge">
<title>Node30&#45;&gt;Node35</title>
<g id="a_edge34_Node000030_Node000035"><a xlink:title=" ">
<path fill="none" stroke="#63b8ff" d="M242.59,-348.2C248.52,-346.47 254.43,-344.56 260,-342.5 276.78,-336.29 279.12,-330.43 296,-324.5 306.62,-320.77 318.22,-317.63 329.42,-315.05"/>
<polygon fill="#63b8ff" stroke="#63b8ff" points="241.34,-344.92 232.63,-350.96 243.2,-351.66 241.34,-344.92"/>
</a>
</g>
</g>
<!-- Node36 -->
<g id="Node000036" class="node">
<title>Node36</title>
<g id="a_Node000036"><a xlink:href="classMapboxOutdoorsMapProvider.html" target="_top" xlink:title=" ">
<polygon fill="white" stroke="#666666" points="465.5,-278 304.5,-278 304.5,-259 465.5,-259 465.5,-278"/>
<text text-anchor="middle" x="385" y="-266" font-family="Helvetica,sans-Serif" font-size="10.00">MapboxOutdoorsMapProvider</text>
</a>
</g>
</g>
<!-- Node30&#45;&gt;Node36 -->
<g id="edge35_Node000030_Node000036" class="edge">
<title>Node30&#45;&gt;Node36</title>
<g id="a_edge35_Node000030_Node000036"><a xlink:title=" ">
<path fill="none" stroke="#63b8ff" d="M253.35,-346.64C255.66,-345.38 257.89,-344 260,-342.5 283.81,-325.57 271.92,-304.04 296,-287.5 301.54,-283.69 307.7,-280.63 314.12,-278.17"/>
<polygon fill="#63b8ff" stroke="#63b8ff" points="251.68,-343.56 244.11,-350.97 254.65,-349.9 251.68,-343.56"/>
</a>
</g>
</g>
<!-- Node37 -->
<g id="Node000037" class="node">
<title>Node37</title>
<g id="a_Node000037"><a xlink:href="classMapboxSatelliteMapProvider.html" target="_top" xlink:title=" ">
<polygon fill="white" stroke="#666666" points="464,-241 306,-241 306,-222 464,-222 464,-241"/>
<text text-anchor="middle" x="385" y="-229" font-family="Helvetica,sans-Serif" font-size="10.00">MapboxSatelliteMapProvider</text>
</a>
</g>
</g>
<!-- Node30&#45;&gt;Node37 -->
<g id="edge36_Node000030_Node000037" class="edge">
<title>Node30&#45;&gt;Node37</title>
<g id="a_edge36_Node000030_Node000037"><a xlink:title=" ">
<path fill="none" stroke="#63b8ff" d="M254.51,-346.7C256.43,-345.42 258.27,-344.02 260,-342.5 292.97,-313.5 262.57,-278.96 296,-250.5 300.4,-246.75 305.37,-243.69 310.65,-241.19"/>
<polygon fill="#63b8ff" stroke="#63b8ff" points="252.66,-343.72 245.59,-351.62 256.04,-349.85 252.66,-343.72"/>
</a>
</g>
</g>
<!-- Node38 -->
<g id="Node000038" class="node">
<title>Node38</title>
<g id="a_Node000038"><a xlink:href="classMapboxStreetMapProvider.html" target="_top" xlink:title=" ">
<polygon fill="white" stroke="#666666" points="458,-204 312,-204 312,-185 458,-185 458,-204"/>
<text text-anchor="middle" x="385" y="-192" font-family="Helvetica,sans-Serif" font-size="10.00">MapboxStreetMapProvider</text>
</a>
</g>
</g>
<!-- Node30&#45;&gt;Node38 -->
<g id="edge37_Node000030_Node000038" class="edge">
<title>Node30&#45;&gt;Node38</title>
<g id="a_edge37_Node000030_Node000038"><a xlink:title=" ">
<path fill="none" stroke="#63b8ff" d="M254.58,-347.01C256.5,-345.64 258.31,-344.14 260,-342.5 302.66,-300.99 252.68,-254.32 296,-213.5 300.66,-209.11 306.09,-205.63 311.92,-202.9"/>
<polygon fill="#63b8ff" stroke="#63b8ff" points="252.52,-344.16 245.64,-352.21 256.04,-350.21 252.52,-344.16"/>
</a>
</g>
</g>
<!-- Node39 -->
<g id="Node000039" class="node">
<title>Node39</title>
<g id="a_Node000039"><a xlink:href="classMapboxStreetsBasicMapProvider.html" target="_top" xlink:title=" ">
<polygon fill="white" stroke="#666666" points="474,-167 296,-167 296,-148 474,-148 474,-167"/>
<text text-anchor="middle" x="385" y="-155" font-family="Helvetica,sans-Serif" font-size="10.00">MapboxStreetsBasicMapProvider</text>
</a>
</g>
</g>
<!-- Node30&#45;&gt;Node39 -->
<g id="edge38_Node000030_Node000039" class="edge">
<title>Node30&#45;&gt;Node39</title>
<g id="a_edge38_Node000030_Node000039"><a xlink:title=" ">
<path fill="none" stroke="#63b8ff" d="M254.59,-347.23C256.51,-345.8 258.32,-344.23 260,-342.5 312.54,-288.29 242.59,-229.86 296,-176.5 299.76,-172.74 304.07,-169.65 308.73,-167.11"/>
<polygon fill="#63b8ff" stroke="#63b8ff" points="252.33,-344.5 245.53,-352.63 255.92,-350.51 252.33,-344.5"/>
</a>
</g>
</g>
<!-- Node43 -->
<g id="Node000043" class="node">
<title>Node43</title>
<g id="a_Node000043"><a xlink:href="classStatkartBaseMapProvider.html" target="_top" xlink:title=" ">
<polygon fill="white" stroke="#666666" points="455,-130 315,-130 315,-111 455,-111 455,-130"/>
<text text-anchor="middle" x="385" y="-118" font-family="Helvetica,sans-Serif" font-size="10.00">StatkartBaseMapProvider</text>
</a>
</g>
</g>
<!-- Node42&#45;&gt;Node43 -->
<g id="edge42_Node000042_Node000043" class="edge">
<title>Node42&#45;&gt;Node43</title>
<g id="a_edge42_Node000042_Node000043"><a xlink:title=" ">
<path fill="none" stroke="#63b8ff" d="M250.41,-181.27C253.73,-179.84 256.95,-178.26 260,-176.5 279.89,-165.06 275.93,-150.62 296,-139.5 302.97,-135.64 310.66,-132.56 318.5,-130.11"/>
<polygon fill="#63b8ff" stroke="#63b8ff" points="248.95,-178.08 240.85,-184.92 251.44,-184.63 248.95,-178.08"/>
</a>
</g>
</g>
<!-- Node44 -->
<g id="Node000044" class="node">
<title>Node44</title>
<g id="a_Node000044"><a xlink:href="classStatkartTopoMapProvider.html" target="_top" xlink:title=" ">
<polygon fill="white" stroke="#666666" points="454.5,-93 315.5,-93 315.5,-74 454.5,-74 454.5,-93"/>
<text text-anchor="middle" x="385" y="-81" font-family="Helvetica,sans-Serif" font-size="10.00">StatkartTopoMapProvider</text>
</a>
</g>
</g>
<!-- Node42&#45;&gt;Node44 -->
<g id="edge43_Node000042_Node000044" class="edge">
<title>Node42&#45;&gt;Node44</title>
<g id="a_edge43_Node000042_Node000044"><a xlink:title=" ">
<path fill="none" stroke="#63b8ff" d="M254.35,-180.52C256.32,-179.29 258.21,-177.95 260,-176.5 288.4,-153.46 267.23,-125.08 296,-102.5 301.78,-97.97 308.4,-94.46 315.37,-91.75"/>
<polygon fill="#63b8ff" stroke="#63b8ff" points="252.53,-177.52 245.29,-185.26 255.77,-183.72 252.53,-177.52"/>
</a>
</g>
</g>
<!-- Node47 -->
<g id="Node000047" class="node">
<title>Node47</title>
<g id="a_Node000047"><a xlink:href="classTianDiTuRoadProvider.html" target="_top" xlink:title=" ">
<polygon fill="white" stroke="#666666" points="447,-56 323,-56 323,-37 447,-37 447,-56"/>
<text text-anchor="middle" x="385" y="-44" font-family="Helvetica,sans-Serif" font-size="10.00">TianDiTuRoadProvider</text>
</a>
</g>
</g>
<!-- Node46&#45;&gt;Node47 -->
<g id="edge46_Node000046_Node000047" class="edge">
<title>Node46&#45;&gt;Node47</title>
<g id="a_edge46_Node000046_Node000047"><a xlink:title=" ">
<path fill="none" stroke="#63b8ff" d="M236.14,-80.46C264.76,-73.3 295.6,-65.59 296,-65.5 309.7,-62.31 324.64,-59.01 338.26,-56.08"/>
<polygon fill="#63b8ff" stroke="#63b8ff" points="235.01,-77.13 226.16,-82.96 236.71,-83.93 235.01,-77.13"/>
</a>
</g>
</g>
<!-- Node48 -->
<g id="Node000048" class="node">
<title>Node48</title>
<g id="a_Node000048"><a xlink:href="classTianDiTuSatelliteProvider.html" target="_top" xlink:title=" ">
<polygon fill="white" stroke="#666666" points="455,-19 315,-19 315,0 455,0 455,-19"/>
<text text-anchor="middle" x="385" y="-7" font-family="Helvetica,sans-Serif" font-size="10.00">TianDiTuSatelliteProvider</text>
</a>
</g>
</g>
<!-- Node46&#45;&gt;Node48 -->
<g id="edge47_Node000046_Node000048" class="edge">
<title>Node46&#45;&gt;Node48</title>
<g id="a_edge47_Node000046_Node000048"><a xlink:title=" ">
<path fill="none" stroke="#63b8ff" d="M246.19,-81.62C251.04,-79.63 255.72,-77.28 260,-74.5 281.77,-60.36 274,-42.28 296,-28.5 302.23,-24.6 309.13,-21.49 316.26,-19.02"/>
<polygon fill="#63b8ff" stroke="#63b8ff" points="244.94,-78.35 236.7,-85.01 247.3,-84.94 244.94,-78.35"/>
</a>
</g>
</g>
</g>
</svg>
