<?xml version="1.0" encoding="UTF-8" standalone="no"?>
<!DOCTYPE svg PUBLIC "-//W3C//DTD SVG 1.1//EN"
 "http://www.w3.org/Graphics/SVG/1.1/DTD/svg11.dtd">
<!-- Generated by graphviz version 2.43.0 (0)
 -->
<!-- Title: CameraCalc Pages: 1 -->
<svg width="369pt" height="223pt"
 viewBox="0.00 0.00 369.00 223.00" xmlns="http://www.w3.org/2000/svg" xmlns:xlink="http://www.w3.org/1999/xlink">
<g id="graph0" class="graph" transform="scale(1 1) rotate(0) translate(4 219)">
<title>CameraCalc</title>
<!-- Node1 -->
<g id="Node000001" class="node">
<title>Node1</title>
<g id="a_Node000001"><a xlink:title=" ">
<polygon fill="#999999" stroke="#666666" points="113,-19 37,-19 37,0 113,0 113,-19"/>
<text text-anchor="middle" x="75" y="-7" font-family="Helvetica,sans-Serif" font-size="10.00">CameraCalc</text>
</a>
</g>
</g>
<!-- Node2 -->
<g id="Node000002" class="node">
<title>Node2</title>
<g id="a_Node000002"><a xlink:href="classCameraSpec.html" target="_top" xlink:title=" ">
<polygon fill="white" stroke="#666666" points="78,-122 0,-122 0,-103 78,-103 78,-122"/>
<text text-anchor="middle" x="39" y="-110" font-family="Helvetica,sans-Serif" font-size="10.00">CameraSpec</text>
</a>
</g>
</g>
<!-- Node2&#45;&gt;Node1 -->
<g id="edge1_Node000001_Node000002" class="edge">
<title>Node2&#45;&gt;Node1</title>
<g id="a_edge1_Node000001_Node000002"><a xlink:title=" ">
<path fill="none" stroke="#63b8ff" d="M45.45,-93.41C53.26,-71.49 66.1,-35.47 71.94,-19.09"/>
<polygon fill="#63b8ff" stroke="#63b8ff" points="42.13,-92.29 42.07,-102.89 48.72,-94.64 42.13,-92.29"/>
</a>
</g>
</g>
<!-- Node3 -->
<g id="Node000003" class="node">
<title>Node3</title>
<g id="a_Node000003"><a xlink:title=" ">
<polygon fill="white" stroke="#666666" points="121,-215 65,-215 65,-196 121,-196 121,-215"/>
<text text-anchor="middle" x="93" y="-203" font-family="Helvetica,sans-Serif" font-size="10.00">QObject</text>
</a>
</g>
</g>
<!-- Node3&#45;&gt;Node2 -->
<g id="edge2_Node000002_Node000003" class="edge">
<title>Node3&#45;&gt;Node2</title>
<g id="a_edge2_Node000002_Node000003"><a xlink:title=" ">
<path fill="none" stroke="#63b8ff" d="M82.61,-186.99C71.06,-167.53 52.87,-136.87 44.08,-122.07"/>
<polygon fill="#63b8ff" stroke="#63b8ff" points="79.71,-188.96 87.82,-195.77 85.73,-185.39 79.71,-188.96"/>
</a>
</g>
</g>
<!-- Node4 -->
<g id="Node000004" class="node">
<title>Node4</title>
<g id="a_Node000004"><a xlink:href="classFact.html" target="_top" xlink:title="A Fact is used to hold a single value within the system.">
<polygon fill="white" stroke="#666666" points="127,-85 91,-85 91,-66 127,-66 127,-85"/>
<text text-anchor="middle" x="109" y="-73" font-family="Helvetica,sans-Serif" font-size="10.00">Fact</text>
</a>
</g>
</g>
<!-- Node3&#45;&gt;Node4 -->
<g id="edge4_Node000004_Node000003" class="edge">
<title>Node3&#45;&gt;Node4</title>
<g id="a_edge4_Node000004_Node000003"><a xlink:title=" ">
<path fill="none" stroke="#63b8ff" d="M95.37,-185.53C98.9,-157.3 105.39,-105.39 107.93,-85.02"/>
<polygon fill="#63b8ff" stroke="#63b8ff" points="91.87,-185.35 94.1,-195.7 98.81,-186.21 91.87,-185.35"/>
</a>
</g>
</g>
<!-- Node5 -->
<g id="Node000005" class="node">
<title>Node5</title>
<g id="a_Node000005"><a xlink:href="classFactMetaData.html" target="_top" xlink:title=" ">
<polygon fill="white" stroke="#666666" points="205,-159 121,-159 121,-140 205,-140 205,-159"/>
<text text-anchor="middle" x="163" y="-147" font-family="Helvetica,sans-Serif" font-size="10.00">FactMetaData</text>
</a>
</g>
</g>
<!-- Node3&#45;&gt;Node5 -->
<g id="edge6_Node000005_Node000003" class="edge">
<title>Node3&#45;&gt;Node5</title>
<g id="a_edge6_Node000005_Node000003"><a xlink:title=" ">
<path fill="none" stroke="#63b8ff" d="M112.31,-189.6C124.91,-179.88 140.93,-167.53 151.55,-159.33"/>
<polygon fill="#63b8ff" stroke="#63b8ff" points="110.03,-186.94 104.25,-195.82 114.3,-192.49 110.03,-186.94"/>
</a>
</g>
</g>
<!-- Node4&#45;&gt;Node1 -->
<g id="edge3_Node000001_Node000004" class="edge">
<title>Node4&#45;&gt;Node1</title>
<g id="a_edge3_Node000001_Node000004"><a xlink:title=" ">
<path fill="none" stroke="#9a32cd" stroke-dasharray="5,2" d="M99.54,-56.68C93.09,-44.55 84.83,-29.01 79.73,-19.41"/>
<polygon fill="#9a32cd" stroke="#9a32cd" points="96.63,-58.68 104.41,-65.87 102.81,-55.4 96.63,-58.68"/>
</a>
</g>
<text text-anchor="middle" x="158" y="-40" font-family="Helvetica,sans-Serif" font-size="10.00" fill="grey"> xlatManualCameraName</text>
</g>
<!-- Node5&#45;&gt;Node4 -->
<g id="edge5_Node000004_Node000005" class="edge">
<title>Node5&#45;&gt;Node4</title>
<g id="a_edge5_Node000004_Node000005"><a xlink:title=" ">
<path fill="none" stroke="#9a32cd" stroke-dasharray="5,2" d="M150.45,-131.76C139.48,-117.14 124,-96.5 115.4,-85.03"/>
<polygon fill="#9a32cd" stroke="#9a32cd" points="147.79,-134.06 156.59,-139.96 153.39,-129.86 147.79,-134.06"/>
</a>
</g>
<text text-anchor="middle" x="172" y="-110" font-family="Helvetica,sans-Serif" font-size="10.00" fill="grey"> _metaData</text>
</g>
<!-- Node6 -->
<g id="Node000006" class="node">
<title>Node6</title>
<g id="a_Node000006"><a xlink:href="classFactValueSliderListModel.html" target="_top" xlink:title="Provides a list model of values for incrementing/decrementing the value of a Fact.">
<polygon fill="white" stroke="#666666" points="361,-159 223,-159 223,-140 361,-140 361,-159"/>
<text text-anchor="middle" x="292" y="-147" font-family="Helvetica,sans-Serif" font-size="10.00">FactValueSliderListModel</text>
</a>
</g>
</g>
<!-- Node6&#45;&gt;Node4 -->
<g id="edge7_Node000004_Node000006" class="edge">
<title>Node6&#45;&gt;Node4</title>
<g id="a_edge7_Node000004_Node000006"><a xlink:title=" ">
<path fill="none" stroke="#9a32cd" stroke-dasharray="5,2" d="M269.22,-134.87C252.03,-125.02 227.61,-111.92 205,-103 178.62,-92.6 146.64,-84.65 127.06,-80.28"/>
<polygon fill="#9a32cd" stroke="#9a32cd" points="267.57,-137.96 277.97,-139.97 271.09,-131.91 267.57,-137.96"/>
</a>
</g>
<text text-anchor="middle" x="291" y="-110" font-family="Helvetica,sans-Serif" font-size="10.00" fill="grey"> _valueSliderModel</text>
</g>
<!-- Node7 -->
<g id="Node000007" class="node">
<title>Node7</title>
<g id="a_Node000007"><a xlink:title=" ">
<polygon fill="white" stroke="#666666" points="348,-215 236,-215 236,-196 348,-196 348,-215"/>
<text text-anchor="middle" x="292" y="-203" font-family="Helvetica,sans-Serif" font-size="10.00">QAbstractListModel</text>
</a>
</g>
</g>
<!-- Node7&#45;&gt;Node6 -->
<g id="edge8_Node000006_Node000007" class="edge">
<title>Node7&#45;&gt;Node6</title>
<g id="a_edge8_Node000006_Node000007"><a xlink:title=" ">
<path fill="none" stroke="#63b8ff" d="M292,-185.3C292,-176.41 292,-166.28 292,-159.25"/>
<polygon fill="#63b8ff" stroke="#63b8ff" points="288.5,-185.58 292,-195.58 295.5,-185.58 288.5,-185.58"/>
</a>
</g>
</g>
</g>
</svg>
