<?xml version="1.0" encoding="UTF-8" standalone="no"?>
<!DOCTYPE svg PUBLIC "-//W3C//DTD SVG 1.1//EN"
 "http://www.w3.org/Graphics/SVG/1.1/DTD/svg11.dtd">
<!-- Generated by graphviz version 2.43.0 (0)
 -->
<!-- Title: ParameterEditorCategory Pages: 1 -->
<svg width="211pt" height="261pt"
 viewBox="0.00 0.00 210.50 261.00" xmlns="http://www.w3.org/2000/svg" xmlns:xlink="http://www.w3.org/1999/xlink">

<svg id="main" version="1.1" xmlns="http://www.w3.org/2000/svg" xmlns:xlink="http://www.w3.org/1999/xlink" xml:space="preserve" onload="init(evt)">
<style type="text/css"><![CDATA[
.node, .edge {opacity: 0.7;}
.node.selected, .edge.selected {opacity: 1;}
.edge:hover path { stroke: red; }
.edge:hover polygon { stroke: red; fill: red; }
]]></style>
<script type="application/ecmascript" xlink:href="svg.min.js"/>
<svg id="graph" class="graph">
<g id="graph0" class="graph" transform="scale(1 1) rotate(0) translate(4 257)">
<title>ParameterEditorCategory</title>
<!-- Node1 -->
<g id="Node000001" class="node">
<title>Node1</title>
<g id="a_Node000001"><a xlink:title=" ">
<polygon fill="#999999" stroke="#666666" points="140,-19 0,-19 0,0 140,0 140,-19"/>
<text text-anchor="middle" x="70" y="-7" font-family="Helvetica,sans-Serif" font-size="10.00">ParameterEditorCategory</text>
</a>
</g>
</g>
<!-- Node2 -->
<g id="Node000002" class="node">
<title>Node2</title>
<g id="a_Node000002"><a xlink:title=" ">
<polygon fill="white" stroke="#666666" points="64,-85 8,-85 8,-66 64,-66 64,-85"/>
<text text-anchor="middle" x="36" y="-73" font-family="Helvetica,sans-Serif" font-size="10.00">QObject</text>
</a>
</g>
</g>
<!-- Node2&#45;&gt;Node1 -->
<g id="edge1_Node000001_Node000002" class="edge">
<title>Node2&#45;&gt;Node1</title>
<g id="a_edge1_Node000001_Node000002"><a xlink:title=" ">
<path fill="none" stroke="#63b8ff" d="M45.46,-56.68C51.91,-44.55 60.17,-29.01 65.27,-19.41"/>
<polygon fill="#63b8ff" stroke="#63b8ff" points="42.19,-55.4 40.59,-65.87 48.37,-58.68 42.19,-55.4"/>
</a>
</g>
</g>
<!-- Node3 -->
<g id="Node000003" class="node">
<title>Node3</title>
<g id="a_Node000003"><a xlink:href="classQmlObjectListModel.html" target="_top" xlink:title=" ">
<polygon fill="white" stroke="#666666" points="198,-85 82,-85 82,-66 198,-66 198,-85"/>
<text text-anchor="middle" x="140" y="-73" font-family="Helvetica,sans-Serif" font-size="10.00">QmlObjectListModel</text>
</a>
</g>
</g>
<!-- Node3&#45;&gt;Node1 -->
<g id="edge2_Node000001_Node000003" class="edge">
<title>Node3&#45;&gt;Node1</title>
<g id="a_edge2_Node000001_Node000003"><a xlink:title=" ">
<path fill="none" stroke="#9a32cd" stroke-dasharray="5,2" d="M122.86,-58.83C109.31,-46.44 90.87,-29.59 79.74,-19.41"/>
<polygon fill="#9a32cd" stroke="#9a32cd" points="120.82,-61.7 130.56,-65.87 125.54,-56.54 120.82,-61.7"/>
</a>
</g>
<text text-anchor="middle" x="127.5" y="-40" font-family="Helvetica,sans-Serif" font-size="10.00" fill="grey"> groups</text>
</g>
<!-- Node4 -->
<g id="Node000004" class="node">
<title>Node4</title>
<g id="a_Node000004"><a xlink:href="classObjectListModelBase.html" target="_top" xlink:title=" ">
<polygon fill="white" stroke="#666666" points="199.5,-141 80.5,-141 80.5,-122 199.5,-122 199.5,-141"/>
<text text-anchor="middle" x="140" y="-129" font-family="Helvetica,sans-Serif" font-size="10.00">ObjectListModelBase</text>
</a>
</g>
</g>
<!-- Node4&#45;&gt;Node3 -->
<g id="edge3_Node000003_Node000004" class="edge">
<title>Node4&#45;&gt;Node3</title>
<g id="a_edge3_Node000003_Node000004"><a xlink:title=" ">
<path fill="none" stroke="#63b8ff" d="M140,-111.3C140,-102.41 140,-92.28 140,-85.25"/>
<polygon fill="#63b8ff" stroke="#63b8ff" points="136.5,-111.58 140,-121.58 143.5,-111.58 136.5,-111.58"/>
</a>
</g>
</g>
<!-- Node5 -->
<g id="Node000005" class="node">
<title>Node5</title>
<g id="a_Node000005"><a xlink:href="classObjectItemModelBase.html" target="_top" xlink:title=" ">
<polygon fill="white" stroke="#666666" points="202.5,-197 77.5,-197 77.5,-178 202.5,-178 202.5,-197"/>
<text text-anchor="middle" x="140" y="-185" font-family="Helvetica,sans-Serif" font-size="10.00">ObjectItemModelBase</text>
</a>
</g>
</g>
<!-- Node5&#45;&gt;Node4 -->
<g id="edge4_Node000004_Node000005" class="edge">
<title>Node5&#45;&gt;Node4</title>
<g id="a_edge4_Node000004_Node000005"><a xlink:title=" ">
<path fill="none" stroke="#63b8ff" d="M140,-167.3C140,-158.41 140,-148.28 140,-141.25"/>
<polygon fill="#63b8ff" stroke="#63b8ff" points="136.5,-167.58 140,-177.58 143.5,-167.58 136.5,-167.58"/>
</a>
</g>
</g>
<!-- Node6 -->
<g id="Node000006" class="node">
<title>Node6</title>
<g id="a_Node000006"><a xlink:title=" ">
<polygon fill="white" stroke="#666666" points="198.5,-253 81.5,-253 81.5,-234 198.5,-234 198.5,-253"/>
<text text-anchor="middle" x="140" y="-241" font-family="Helvetica,sans-Serif" font-size="10.00">QAbstractItemModel</text>
</a>
</g>
</g>
<!-- Node6&#45;&gt;Node5 -->
<g id="edge5_Node000005_Node000006" class="edge">
<title>Node6&#45;&gt;Node5</title>
<g id="a_edge5_Node000005_Node000006"><a xlink:title=" ">
<path fill="none" stroke="#63b8ff" d="M140,-223.3C140,-214.41 140,-204.28 140,-197.25"/>
<polygon fill="#63b8ff" stroke="#63b8ff" points="136.5,-223.58 140,-233.58 143.5,-223.58 136.5,-223.58"/>
</a>
</g>
</g>
</g>
</svg>
</svg>

<style type='text/css'>
<![CDATA[
[data-mouse-over-selected='false'] { opacity: 0.7; }
[data-mouse-over-selected='true']  { opacity: 1.0; }
]]>
</style>
<script type="application/ecmascript"><![CDATA[
document.addEventListener('DOMContentLoaded', (event) => {
  highlightEdges();
  highlightAdjacentNodes();
});
]]></script>
</svg>
