<?xml version="1.0" encoding="UTF-8" standalone="no"?>
<!DOCTYPE svg PUBLIC "-//W3C//DTD SVG 1.1//EN"
 "http://www.w3.org/Graphics/SVG/1.1/DTD/svg11.dtd">
<!-- Generated by graphviz version 2.43.0 (0)
 -->
<!-- Title: SurveyPlanCreator Pages: 1 -->
<svg width="382pt" height="337pt"
 viewBox="0.00 0.00 381.50 337.00" xmlns="http://www.w3.org/2000/svg" xmlns:xlink="http://www.w3.org/1999/xlink">

<svg id="main" version="1.1" xmlns="http://www.w3.org/2000/svg" xmlns:xlink="http://www.w3.org/1999/xlink" xml:space="preserve" onload="init(evt)">
<style type="text/css"><![CDATA[
.node, .edge {opacity: 0.7;}
.node.selected, .edge.selected {opacity: 1;}
.edge:hover path { stroke: red; }
.edge:hover polygon { stroke: red; fill: red; }
]]></style>
<script type="application/ecmascript" xlink:href="svg.min.js"/>
<svg id="graph" class="graph">
<g id="graph0" class="graph" transform="scale(1 1) rotate(0) translate(4 333)">
<title>SurveyPlanCreator</title>
<!-- Node1 -->
<g id="Node000001" class="node">
<title>Node1</title>
<g id="a_Node000001"><a xlink:title=" ">
<polygon fill="#999999" stroke="#666666" points="107,-19 0,-19 0,0 107,0 107,-19"/>
<text text-anchor="middle" x="53.5" y="-7" font-family="Helvetica,sans-Serif" font-size="10.00">SurveyPlanCreator</text>
</a>
</g>
</g>
<!-- Node2 -->
<g id="Node000002" class="node">
<title>Node2</title>
<g id="a_Node000002"><a xlink:href="classPlanCreator.html" target="_top" xlink:title="Base class for PlanCreator objects which are used to create a full plan in a single step.">
<polygon fill="white" stroke="#666666" points="90.5,-75 16.5,-75 16.5,-56 90.5,-56 90.5,-75"/>
<text text-anchor="middle" x="53.5" y="-63" font-family="Helvetica,sans-Serif" font-size="10.00">PlanCreator</text>
</a>
</g>
</g>
<!-- Node2&#45;&gt;Node1 -->
<g id="edge1_Node000001_Node000002" class="edge">
<title>Node2&#45;&gt;Node1</title>
<g id="a_edge1_Node000001_Node000002"><a xlink:title=" ">
<path fill="none" stroke="#63b8ff" d="M53.5,-45.3C53.5,-36.41 53.5,-26.28 53.5,-19.25"/>
<polygon fill="#63b8ff" stroke="#63b8ff" points="50,-45.58 53.5,-55.58 57,-45.58 50,-45.58"/>
</a>
</g>
</g>
<!-- Node3 -->
<g id="Node000003" class="node">
<title>Node3</title>
<g id="a_Node000003"><a xlink:title=" ">
<polygon fill="white" stroke="#666666" points="123.5,-329 67.5,-329 67.5,-310 123.5,-310 123.5,-329"/>
<text text-anchor="middle" x="95.5" y="-317" font-family="Helvetica,sans-Serif" font-size="10.00">QObject</text>
</a>
</g>
</g>
<!-- Node3&#45;&gt;Node2 -->
<g id="edge2_Node000002_Node000003" class="edge">
<title>Node3&#45;&gt;Node2</title>
<g id="a_edge2_Node000002_Node000003"><a xlink:title=" ">
<path fill="none" stroke="#63b8ff" d="M57.54,-310.7C33.72,-303.34 7.5,-289.55 7.5,-264.5 7.5,-264.5 7.5,-264.5 7.5,-130.5 7.5,-106.96 28.27,-86.16 41.89,-75.05"/>
<polygon fill="#63b8ff" stroke="#63b8ff" points="56.6,-314.07 67.17,-313.39 58.48,-307.33 56.6,-314.07"/>
</a>
</g>
</g>
<!-- Node4 -->
<g id="Node000004" class="node">
<title>Node4</title>
<g id="a_Node000004"><a xlink:href="classPlanMasterController.html" target="_top" xlink:title="Master controller for mission, fence, rally.">
<polygon fill="white" stroke="#666666" points="155,-273 36,-273 36,-254 155,-254 155,-273"/>
<text text-anchor="middle" x="95.5" y="-261" font-family="Helvetica,sans-Serif" font-size="10.00">PlanMasterController</text>
</a>
</g>
</g>
<!-- Node3&#45;&gt;Node4 -->
<g id="edge4_Node000004_Node000003" class="edge">
<title>Node3&#45;&gt;Node4</title>
<g id="a_edge4_Node000004_Node000003"><a xlink:title=" ">
<path fill="none" stroke="#63b8ff" d="M95.5,-299.3C95.5,-290.41 95.5,-280.28 95.5,-273.25"/>
<polygon fill="#63b8ff" stroke="#63b8ff" points="92,-299.58 95.5,-309.58 99,-299.58 92,-299.58"/>
</a>
</g>
</g>
<!-- Node6 -->
<g id="Node000006" class="node">
<title>Node6</title>
<g id="a_Node000006"><a xlink:href="classPlanElementController.html" target="_top" xlink:title=" ">
<polygon fill="white" stroke="#666666" points="225.5,-207 99.5,-207 99.5,-188 225.5,-188 225.5,-207"/>
<text text-anchor="middle" x="162.5" y="-195" font-family="Helvetica,sans-Serif" font-size="10.00">PlanElementController</text>
</a>
</g>
</g>
<!-- Node3&#45;&gt;Node6 -->
<g id="edge7_Node000006_Node000003" class="edge">
<title>Node3&#45;&gt;Node6</title>
<g id="a_edge7_Node000006_Node000003"><a xlink:title=" ">
<path fill="none" stroke="#63b8ff" d="M122.81,-305.07C136.48,-297.25 152.42,-286.3 163.5,-273 177.89,-255.72 185.83,-246.58 179.5,-225 177.59,-218.5 173.55,-212.08 169.88,-207.18"/>
<polygon fill="#63b8ff" stroke="#63b8ff" points="120.91,-302.12 113.81,-309.98 124.26,-308.27 120.91,-302.12"/>
</a>
</g>
</g>
<!-- Node4&#45;&gt;Node2 -->
<g id="edge3_Node000002_Node000004" class="edge">
<title>Node4&#45;&gt;Node2</title>
<g id="a_edge3_Node000002_Node000004"><a xlink:title=" ">
<path fill="none" stroke="#9a32cd" stroke-dasharray="5,2" d="M85.09,-245.25C74.89,-227.22 60.1,-197.75 54.5,-170 47.54,-135.47 50.65,-93.15 52.49,-75.2"/>
<polygon fill="#9a32cd" stroke="#9a32cd" points="82.13,-247.12 90.2,-254 88.18,-243.6 82.13,-247.12"/>
</a>
</g>
<text text-anchor="middle" x="110.5" y="-162" font-family="Helvetica,sans-Serif" font-size="10.00" fill="grey"> _planMasterController</text>
</g>
<!-- Node4&#45;&gt;Node6 -->
<g id="edge8_Node000006_Node000004" class="edge">
<title>Node4&#45;&gt;Node6</title>
<g id="a_edge8_Node000006_Node000004"><a xlink:title=" ">
<path fill="none" stroke="#9a32cd" stroke-dasharray="5,2" d="M86.82,-244.44C84.94,-237.83 84.55,-230.61 88.5,-225 94.31,-216.74 102.95,-211.05 112.29,-207.12"/>
<polygon fill="#9a32cd" stroke="#9a32cd" points="83.65,-245.95 90.56,-253.98 90.17,-243.4 83.65,-245.95"/>
</a>
</g>
<text text-anchor="middle" x="134" y="-228" font-family="Helvetica,sans-Serif" font-size="10.00" fill="grey"> _masterController</text>
</g>
<!-- Node5 -->
<g id="Node000005" class="node">
<title>Node5</title>
<g id="a_Node000005"><a xlink:href="classMissionController.html" target="_top" xlink:title=" ">
<polygon fill="white" stroke="#666666" points="231.5,-141 129.5,-141 129.5,-122 231.5,-122 231.5,-141"/>
<text text-anchor="middle" x="180.5" y="-129" font-family="Helvetica,sans-Serif" font-size="10.00">MissionController</text>
</a>
</g>
</g>
<!-- Node5&#45;&gt;Node2 -->
<g id="edge5_Node000002_Node000005" class="edge">
<title>Node5&#45;&gt;Node2</title>
<g id="a_edge5_Node000002_Node000005"><a xlink:title=" ">
<path fill="none" stroke="#9a32cd" stroke-dasharray="5,2" d="M154.43,-117.36C129.4,-104.75 92.32,-86.06 70.76,-75.2"/>
<polygon fill="#9a32cd" stroke="#9a32cd" points="152.87,-120.49 163.37,-121.87 156.02,-114.24 152.87,-120.49"/>
</a>
</g>
<text text-anchor="middle" x="173" y="-96" font-family="Helvetica,sans-Serif" font-size="10.00" fill="grey"> _missionController</text>
</g>
<!-- Node6&#45;&gt;Node5 -->
<g id="edge6_Node000005_Node000006" class="edge">
<title>Node6&#45;&gt;Node5</title>
<g id="a_edge6_Node000005_Node000006"><a xlink:title=" ">
<path fill="none" stroke="#63b8ff" d="M167.72,-177.95C171.1,-165.93 175.35,-150.82 178,-141.41"/>
<polygon fill="#63b8ff" stroke="#63b8ff" points="164.27,-177.29 164.93,-187.87 171,-179.19 164.27,-177.29"/>
</a>
</g>
</g>
<!-- Node7 -->
<g id="Node000007" class="node">
<title>Node7</title>
<g id="a_Node000007"><a xlink:href="classQmlObjectListModel.html" target="_top" xlink:title=" ">
<polygon fill="white" stroke="#666666" points="359.5,-207 243.5,-207 243.5,-188 359.5,-188 359.5,-207"/>
<text text-anchor="middle" x="301.5" y="-195" font-family="Helvetica,sans-Serif" font-size="10.00">QmlObjectListModel</text>
</a>
</g>
</g>
<!-- Node7&#45;&gt;Node5 -->
<g id="edge9_Node000005_Node000007" class="edge">
<title>Node7&#45;&gt;Node5</title>
<g id="a_edge9_Node000005_Node000007"><a xlink:title=" ">
<path fill="none" stroke="#9a32cd" stroke-dasharray="5,2" d="M276.03,-183.03C252.2,-170.42 217.3,-151.97 196.95,-141.2"/>
<polygon fill="#9a32cd" stroke="#9a32cd" points="274.71,-186.29 285.18,-187.87 277.98,-180.1 274.71,-186.29"/>
</a>
</g>
<text text-anchor="middle" x="311" y="-162" font-family="Helvetica,sans-Serif" font-size="10.00" fill="grey"> insertSimpleMissionItem</text>
</g>
<!-- Node8 -->
<g id="Node000008" class="node">
<title>Node8</title>
<g id="a_Node000008"><a xlink:href="classObjectListModelBase.html" target="_top" xlink:title="Base class for custom object list models: QmlObjectListModel, SparselObjectListModel.">
<polygon fill="white" stroke="#666666" points="361,-273 242,-273 242,-254 361,-254 361,-273"/>
<text text-anchor="middle" x="301.5" y="-261" font-family="Helvetica,sans-Serif" font-size="10.00">ObjectListModelBase</text>
</a>
</g>
</g>
<!-- Node8&#45;&gt;Node7 -->
<g id="edge10_Node000007_Node000008" class="edge">
<title>Node8&#45;&gt;Node7</title>
<g id="a_edge10_Node000007_Node000008"><a xlink:title=" ">
<path fill="none" stroke="#63b8ff" d="M301.5,-243.58C301.5,-231.63 301.5,-216.72 301.5,-207.41"/>
<polygon fill="#63b8ff" stroke="#63b8ff" points="298,-243.87 301.5,-253.87 305,-243.87 298,-243.87"/>
</a>
</g>
</g>
<!-- Node9 -->
<g id="Node000009" class="node">
<title>Node9</title>
<g id="a_Node000009"><a xlink:title=" ">
<polygon fill="white" stroke="#666666" points="357.5,-329 245.5,-329 245.5,-310 357.5,-310 357.5,-329"/>
<text text-anchor="middle" x="301.5" y="-317" font-family="Helvetica,sans-Serif" font-size="10.00">QAbstractListModel</text>
</a>
</g>
</g>
<!-- Node9&#45;&gt;Node8 -->
<g id="edge11_Node000008_Node000009" class="edge">
<title>Node9&#45;&gt;Node8</title>
<g id="a_edge11_Node000008_Node000009"><a xlink:title=" ">
<path fill="none" stroke="#63b8ff" d="M301.5,-299.3C301.5,-290.41 301.5,-280.28 301.5,-273.25"/>
<polygon fill="#63b8ff" stroke="#63b8ff" points="298,-299.58 301.5,-309.58 305,-299.58 298,-299.58"/>
</a>
</g>
</g>
</g>
</svg>
</svg>

<style type='text/css'>
<![CDATA[
[data-mouse-over-selected='false'] { opacity: 0.7; }
[data-mouse-over-selected='true']  { opacity: 1.0; }
]]>
</style>
<script type="application/ecmascript"><![CDATA[
document.addEventListener('DOMContentLoaded', (event) => {
  highlightEdges();
  highlightAdjacentNodes();
});
]]></script>
</svg>
