<?xml version="1.0" encoding="UTF-8" standalone="no"?>
<!DOCTYPE svg PUBLIC "-//W3C//DTD SVG 1.1//EN"
 "http://www.w3.org/Graphics/SVG/1.1/DTD/svg11.dtd">
<!-- Generated by graphviz version 2.43.0 (0)
 -->
<!-- Title: src/Vehicle/ComponentInformation/ComponentInformationTranslation.cc Pages: 1 -->
<svg width="2137pt" height="203pt"
 viewBox="0.00 0.00 2136.50 203.00" xmlns="http://www.w3.org/2000/svg" xmlns:xlink="http://www.w3.org/1999/xlink">
<g id="graph0" class="graph" transform="scale(1 1) rotate(0) translate(4 199)">
<title>src/Vehicle/ComponentInformation/ComponentInformationTranslation.cc</title>
<!-- Node1 -->
<g id="Node000001" class="node">
<title>Node1</title>
<g id="a_Node000001"><a xlink:title=" ">
<polygon fill="#999999" stroke="#666666" points="1539.5,-195 1339.5,-195 1339.5,-165 1539.5,-165 1539.5,-195"/>
<text text-anchor="start" x="1347.5" y="-183" font-family="Helvetica,sans-Serif" font-size="10.00">src/Vehicle/ComponentInformation</text>
<text text-anchor="middle" x="1439.5" y="-172" font-family="Helvetica,sans-Serif" font-size="10.00">/ComponentInformationTranslation.cc</text>
</a>
</g>
</g>
<!-- Node2 -->
<g id="Node000002" class="node">
<title>Node2</title>
<g id="a_Node000002"><a xlink:href="ComponentInformationTranslation_8h.html" target="_top" xlink:title=" ">
<polygon fill="white" stroke="#666666" points="1218.5,-129 1026.5,-129 1026.5,-110 1218.5,-110 1218.5,-129"/>
<text text-anchor="middle" x="1122.5" y="-117" font-family="Helvetica,sans-Serif" font-size="10.00">ComponentInformationTranslation.h</text>
</a>
</g>
</g>
<!-- Node1&#45;&gt;Node2 -->
<g id="edge1_Node000001_Node000002" class="edge">
<title>Node1&#45;&gt;Node2</title>
<g id="a_edge1_Node000001_Node000002"><a xlink:title=" ">
<path fill="none" stroke="#63b8ff" d="M1363.57,-164.99C1306.73,-154.5 1230.24,-140.38 1178.79,-130.89"/>
<polygon fill="#63b8ff" stroke="#63b8ff" points="1179.32,-127.43 1168.85,-129.05 1178.05,-134.31 1179.32,-127.43"/>
</a>
</g>
</g>
<!-- Node8 -->
<g id="Node000008" class="node">
<title>Node8</title>
<g id="a_Node000008"><a xlink:href="QGCCachedFileDownload_8h.html" target="_top" xlink:title="Cached file download with time&#45;based expiration and fallback support.">
<polygon fill="white" stroke="#666666" points="1593,-129 1444,-129 1444,-110 1593,-110 1593,-129"/>
<text text-anchor="middle" x="1518.5" y="-117" font-family="Helvetica,sans-Serif" font-size="10.00">QGCCachedFileDownload.h</text>
</a>
</g>
</g>
<!-- Node1&#45;&gt;Node8 -->
<g id="edge7_Node000001_Node000008" class="edge">
<title>Node1&#45;&gt;Node8</title>
<g id="a_edge7_Node000001_Node000008"><a xlink:title=" ">
<path fill="none" stroke="#63b8ff" d="M1458.62,-164.84C1470.68,-155.91 1486.21,-144.41 1498.44,-135.35"/>
<polygon fill="#63b8ff" stroke="#63b8ff" points="1500.71,-138.03 1506.66,-129.27 1496.54,-132.4 1500.71,-138.03"/>
</a>
</g>
</g>
<!-- Node11 -->
<g id="Node000011" class="node">
<title>Node11</title>
<g id="a_Node000011"><a xlink:href="JsonParsing_8h.html" target="_top" xlink:title=" ">
<polygon fill="white" stroke="#666666" points="370,-129 289,-129 289,-110 370,-110 370,-129"/>
<text text-anchor="middle" x="329.5" y="-117" font-family="Helvetica,sans-Serif" font-size="10.00">JsonParsing.h</text>
</a>
</g>
</g>
<!-- Node1&#45;&gt;Node11 -->
<g id="edge13_Node000001_Node000011" class="edge">
<title>Node1&#45;&gt;Node11</title>
<g id="a_edge13_Node000001_Node000011"><a xlink:title=" ">
<path fill="none" stroke="#63b8ff" d="M1339.04,-173.71C1109.17,-161.59 551.58,-132.2 380.36,-123.18"/>
<polygon fill="#63b8ff" stroke="#63b8ff" points="380.29,-119.67 370.12,-122.64 379.92,-126.66 380.29,-119.67"/>
</a>
</g>
</g>
<!-- Node12 -->
<g id="Node000012" class="node">
<title>Node12</title>
<g id="a_Node000012"><a xlink:title=" ">
<polygon fill="#e0e0e0" stroke="#999999" points="131,-74 0,-74 0,-55 131,-55 131,-74"/>
<text text-anchor="middle" x="65.5" y="-62" font-family="Helvetica,sans-Serif" font-size="10.00">QtCore/QJsonDocument</text>
</a>
</g>
</g>
<!-- Node1&#45;&gt;Node12 -->
<g id="edge39_Node000001_Node000012" class="edge">
<title>Node1&#45;&gt;Node12</title>
<g id="a_edge39_Node000001_Node000012"><a xlink:title=" ">
<path fill="none" stroke="#63b8ff" d="M1339.12,-177.83C1096.23,-174.49 481.92,-162.86 279.5,-129 213.11,-117.89 138.31,-92.63 97.06,-77.53"/>
<polygon fill="#63b8ff" stroke="#63b8ff" points="98.16,-74.2 87.57,-74.02 95.73,-80.77 98.16,-74.2"/>
</a>
</g>
</g>
<!-- Node15 -->
<g id="Node000015" class="node">
<title>Node15</title>
<g id="a_Node000015"><a xlink:href="QGCCompression_8h.html" target="_top" xlink:title=" ">
<polygon fill="white" stroke="#666666" points="744,-129 633,-129 633,-110 744,-110 744,-129"/>
<text text-anchor="middle" x="688.5" y="-117" font-family="Helvetica,sans-Serif" font-size="10.00">QGCCompression.h</text>
</a>
</g>
</g>
<!-- Node1&#45;&gt;Node15 -->
<g id="edge18_Node000001_Node000015" class="edge">
<title>Node1&#45;&gt;Node15</title>
<g id="a_edge18_Node000001_Node000015"><a xlink:title=" ">
<path fill="none" stroke="#63b8ff" d="M1339.38,-171.2C1183.47,-159.06 886.86,-135.95 754.79,-125.66"/>
<polygon fill="#63b8ff" stroke="#63b8ff" points="754.67,-122.14 744.43,-124.86 754.13,-129.12 754.67,-122.14"/>
</a>
</g>
</g>
<!-- Node20 -->
<g id="Node000020" class="node">
<title>Node20</title>
<g id="a_Node000020"><a xlink:href="QGCLoggingCategory_8h.html" target="_top" xlink:title=" ">
<polygon fill="white" stroke="#666666" points="1425.5,-129 1297.5,-129 1297.5,-110 1425.5,-110 1425.5,-129"/>
<text text-anchor="middle" x="1361.5" y="-117" font-family="Helvetica,sans-Serif" font-size="10.00">QGCLoggingCategory.h</text>
</a>
</g>
</g>
<!-- Node1&#45;&gt;Node20 -->
<g id="edge27_Node000001_Node000020" class="edge">
<title>Node1&#45;&gt;Node20</title>
<g id="a_edge27_Node000001_Node000020"><a xlink:title=" ">
<path fill="none" stroke="#63b8ff" d="M1420.62,-164.84C1408.72,-155.91 1393.38,-144.41 1381.3,-135.35"/>
<polygon fill="#63b8ff" stroke="#63b8ff" points="1383.29,-132.47 1373.19,-129.27 1379.09,-138.07 1383.29,-132.47"/>
</a>
</g>
</g>
<!-- Node25 -->
<g id="Node000025" class="node">
<title>Node25</title>
<g id="a_Node000025"><a xlink:title=" ">
<polygon fill="#e0e0e0" stroke="#999999" points="1742,-129 1611,-129 1611,-110 1742,-110 1742,-129"/>
<text text-anchor="middle" x="1676.5" y="-117" font-family="Helvetica,sans-Serif" font-size="10.00">QtCore/QStandardPaths</text>
</a>
</g>
</g>
<!-- Node1&#45;&gt;Node25 -->
<g id="edge36_Node000001_Node000025" class="edge">
<title>Node1&#45;&gt;Node25</title>
<g id="a_edge36_Node000001_Node000025"><a xlink:title=" ">
<path fill="none" stroke="#63b8ff" d="M1496.27,-164.99C1537.88,-154.72 1593.58,-140.97 1631.99,-131.49"/>
<polygon fill="#63b8ff" stroke="#63b8ff" points="1632.98,-134.85 1641.85,-129.05 1631.3,-128.05 1632.98,-134.85"/>
</a>
</g>
</g>
<!-- Node26 -->
<g id="Node000026" class="node">
<title>Node26</title>
<g id="a_Node000026"><a xlink:title=" ">
<polygon fill="#e0e0e0" stroke="#999999" points="1835,-129 1760,-129 1760,-110 1835,-110 1835,-129"/>
<text text-anchor="middle" x="1797.5" y="-117" font-family="Helvetica,sans-Serif" font-size="10.00">QtCore/QDir</text>
</a>
</g>
</g>
<!-- Node1&#45;&gt;Node26 -->
<g id="edge37_Node000001_Node000026" class="edge">
<title>Node1&#45;&gt;Node26</title>
<g id="a_edge37_Node000001_Node000026"><a xlink:title=" ">
<path fill="none" stroke="#63b8ff" d="M1530.72,-164.97C1590.43,-155.64 1670.42,-142.9 1749.69,-129.28"/>
<polygon fill="#63b8ff" stroke="#63b8ff" points="1750.6,-132.68 1759.86,-127.53 1749.41,-125.78 1750.6,-132.68"/>
</a>
</g>
</g>
<!-- Node27 -->
<g id="Node000027" class="node">
<title>Node27</title>
<g id="a_Node000027"><a xlink:title=" ">
<polygon fill="#e0e0e0" stroke="#999999" points="1960,-129 1853,-129 1853,-110 1960,-110 1960,-129"/>
<text text-anchor="middle" x="1906.5" y="-117" font-family="Helvetica,sans-Serif" font-size="10.00">QtCore/QJsonArray</text>
</a>
</g>
</g>
<!-- Node1&#45;&gt;Node27 -->
<g id="edge38_Node000001_Node000027" class="edge">
<title>Node1&#45;&gt;Node27</title>
<g id="a_edge38_Node000001_Node000027"><a xlink:title=" ">
<path fill="none" stroke="#63b8ff" d="M1539.83,-166.99C1619.33,-157.39 1733.54,-143.4 1842.54,-129.24"/>
<polygon fill="#63b8ff" stroke="#63b8ff" points="1843.27,-132.68 1852.74,-127.92 1842.37,-125.74 1843.27,-132.68"/>
</a>
</g>
</g>
<!-- Node28 -->
<g id="Node000028" class="node">
<title>Node28</title>
<g id="a_Node000028"><a xlink:title=" ">
<polygon fill="#e0e0e0" stroke="#999999" points="2128.5,-129 1978.5,-129 1978.5,-110 2128.5,-110 2128.5,-129"/>
<text text-anchor="middle" x="2053.5" y="-117" font-family="Helvetica,sans-Serif" font-size="10.00">QtCore/QXmlStreamReader</text>
</a>
</g>
</g>
<!-- Node1&#45;&gt;Node28 -->
<g id="edge40_Node000001_Node000028" class="edge">
<title>Node1&#45;&gt;Node28</title>
<g id="a_edge40_Node000001_Node000028"><a xlink:title=" ">
<path fill="none" stroke="#63b8ff" d="M1539.65,-169.76C1643.94,-160.08 1812.37,-144.33 1968.15,-129.13"/>
<polygon fill="#63b8ff" stroke="#63b8ff" points="1968.78,-132.58 1978.4,-128.13 1968.1,-125.61 1968.78,-132.58"/>
</a>
</g>
</g>
<!-- Node3 -->
<g id="Node000003" class="node">
<title>Node3</title>
<g id="a_Node000003"><a xlink:title=" ">
<polygon fill="#e0e0e0" stroke="#999999" points="766,-74 653,-74 653,-55 766,-55 766,-74"/>
<text text-anchor="middle" x="709.5" y="-62" font-family="Helvetica,sans-Serif" font-size="10.00">QtCore/QJsonObject</text>
</a>
</g>
</g>
<!-- Node2&#45;&gt;Node3 -->
<g id="edge2_Node000002_Node000003" class="edge">
<title>Node2&#45;&gt;Node3</title>
<g id="a_edge2_Node000002_Node000003"><a xlink:title=" ">
<path fill="none" stroke="#63b8ff" d="M1056.14,-109.98C979.22,-100.11 853.17,-83.94 776.13,-74.05"/>
<polygon fill="#63b8ff" stroke="#63b8ff" points="776.43,-70.56 766.06,-72.76 775.53,-77.5 776.43,-70.56"/>
</a>
</g>
</g>
<!-- Node4 -->
<g id="Node000004" class="node">
<title>Node4</title>
<g id="a_Node000004"><a xlink:title=" ">
<polygon fill="#e0e0e0" stroke="#999999" points="1104.5,-74 1018.5,-74 1018.5,-55 1104.5,-55 1104.5,-74"/>
<text text-anchor="middle" x="1061.5" y="-62" font-family="Helvetica,sans-Serif" font-size="10.00">QtCore/QHash</text>
</a>
</g>
</g>
<!-- Node2&#45;&gt;Node4 -->
<g id="edge3_Node000002_Node000004" class="edge">
<title>Node2&#45;&gt;Node4</title>
<g id="a_edge3_Node000002_Node000004"><a xlink:title=" ">
<path fill="none" stroke="#63b8ff" d="M1112.7,-109.98C1103.68,-102.15 1090.09,-90.34 1079.18,-80.86"/>
<polygon fill="#63b8ff" stroke="#63b8ff" points="1081.32,-78.09 1071.48,-74.17 1076.73,-83.37 1081.32,-78.09"/>
</a>
</g>
</g>
<!-- Node5 -->
<g id="Node000005" class="node">
<title>Node5</title>
<g id="a_Node000005"><a xlink:title=" ">
<polygon fill="#e0e0e0" stroke="#999999" points="1946.5,-74 1854.5,-74 1854.5,-55 1946.5,-55 1946.5,-74"/>
<text text-anchor="middle" x="1900.5" y="-62" font-family="Helvetica,sans-Serif" font-size="10.00">QtCore/QObject</text>
</a>
</g>
</g>
<!-- Node2&#45;&gt;Node5 -->
<g id="edge4_Node000002_Node000005" class="edge">
<title>Node2&#45;&gt;Node5</title>
<g id="a_edge4_Node000002_Node000005"><a xlink:title=" ">
<path fill="none" stroke="#63b8ff" d="M1218.51,-113.08C1393.44,-103.15 1753.7,-82.34 1844.23,-73.96"/>
<polygon fill="#63b8ff" stroke="#63b8ff" points="1844.72,-77.42 1854.33,-72.95 1844.03,-70.46 1844.72,-77.42"/>
</a>
</g>
</g>
<!-- Node6 -->
<g id="Node000006" class="node">
<title>Node6</title>
<g id="a_Node000006"><a xlink:title=" ">
<polygon fill="#e0e0e0" stroke="#999999" points="1035,-19 946,-19 946,0 1035,0 1035,-19"/>
<text text-anchor="middle" x="990.5" y="-7" font-family="Helvetica,sans-Serif" font-size="10.00">QtCore/QString</text>
</a>
</g>
</g>
<!-- Node2&#45;&gt;Node6 -->
<g id="edge5_Node000002_Node000006" class="edge">
<title>Node2&#45;&gt;Node6</title>
<g id="a_edge5_Node000002_Node000006"><a xlink:title=" ">
<path fill="none" stroke="#63b8ff" d="M1075.21,-109.94C1052.52,-103.57 1026.62,-92.63 1009.5,-74 998.31,-61.82 993.69,-43.3 991.8,-29.39"/>
<polygon fill="#63b8ff" stroke="#63b8ff" points="995.24,-28.65 990.76,-19.04 988.28,-29.34 995.24,-28.65"/>
</a>
</g>
</g>
<!-- Node7 -->
<g id="Node000007" class="node">
<title>Node7</title>
<g id="a_Node000007"><a xlink:title=" ">
<polygon fill="#e0e0e0" stroke="#999999" points="1266,-74 1123,-74 1123,-55 1266,-55 1266,-74"/>
<text text-anchor="middle" x="1194.5" y="-62" font-family="Helvetica,sans-Serif" font-size="10.00">QtCore/QLoggingCategory</text>
</a>
</g>
</g>
<!-- Node2&#45;&gt;Node7 -->
<g id="edge6_Node000002_Node000007" class="edge">
<title>Node2&#45;&gt;Node7</title>
<g id="a_edge6_Node000002_Node000007"><a xlink:title=" ">
<path fill="none" stroke="#63b8ff" d="M1134.07,-109.98C1144.92,-102 1161.38,-89.88 1174.38,-80.31"/>
<polygon fill="#63b8ff" stroke="#63b8ff" points="1176.74,-82.92 1182.72,-74.17 1172.59,-77.28 1176.74,-82.92"/>
</a>
</g>
</g>
<!-- Node8&#45;&gt;Node5 -->
<g id="edge10_Node000008_Node000005" class="edge">
<title>Node8&#45;&gt;Node5</title>
<g id="a_edge10_Node000008_Node000005"><a xlink:title=" ">
<path fill="none" stroke="#63b8ff" d="M1583.69,-109.98C1647.53,-101.56 1747.85,-88.11 1844.37,-74.14"/>
<polygon fill="#63b8ff" stroke="#63b8ff" points="1844.9,-77.6 1854.3,-72.7 1843.9,-70.68 1844.9,-77.6"/>
</a>
</g>
</g>
<!-- Node8&#45;&gt;Node6 -->
<g id="edge11_Node000008_Node000006" class="edge">
<title>Node8&#45;&gt;Node6</title>
<g id="a_edge11_Node000008_Node000006"><a xlink:title=" ">
<path fill="none" stroke="#63b8ff" d="M1593.09,-110.94C1717.84,-98.3 1955.31,-74.21 1955.5,-74 1961.16,-67.73 1961.33,-61.11 1955.5,-55 1923.91,-21.91 1244.98,-12.9 1045.28,-10.96"/>
<polygon fill="#63b8ff" stroke="#63b8ff" points="1045.06,-7.46 1035.03,-10.86 1045,-14.46 1045.06,-7.46"/>
</a>
</g>
</g>
<!-- Node8&#45;&gt;Node7 -->
<g id="edge9_Node000008_Node000007" class="edge">
<title>Node8&#45;&gt;Node7</title>
<g id="a_edge9_Node000008_Node000007"><a xlink:title=" ">
<path fill="none" stroke="#63b8ff" d="M1466.44,-109.98C1409.26,-100.63 1317.46,-85.61 1256.57,-75.65"/>
<polygon fill="#63b8ff" stroke="#63b8ff" points="1257.13,-72.2 1246.7,-74.04 1256,-79.11 1257.13,-72.2"/>
</a>
</g>
</g>
<!-- Node9 -->
<g id="Node000009" class="node">
<title>Node9</title>
<g id="a_Node000009"><a xlink:title=" ">
<polygon fill="#e0e0e0" stroke="#999999" points="1614,-19 1505,-19 1505,0 1614,0 1614,-19"/>
<text text-anchor="middle" x="1559.5" y="-7" font-family="Helvetica,sans-Serif" font-size="10.00">QtCore/QDateTime</text>
</a>
</g>
</g>
<!-- Node8&#45;&gt;Node9 -->
<g id="edge8_Node000008_Node000009" class="edge">
<title>Node8&#45;&gt;Node9</title>
<g id="a_edge8_Node000008_Node000009"><a xlink:title=" ">
<path fill="none" stroke="#63b8ff" d="M1593.15,-110.92C1596.31,-110.6 1599.44,-110.3 1602.5,-110 1645.37,-105.83 1959.49,-105.84 1988.5,-74 2038.55,-19.07 1756.32,-11.09 1624.5,-10.32"/>
<polygon fill="#63b8ff" stroke="#63b8ff" points="1624.15,-6.82 1614.14,-10.28 1624.12,-13.82 1624.15,-6.82"/>
</a>
</g>
</g>
<!-- Node10 -->
<g id="Node000010" class="node">
<title>Node10</title>
<g id="a_Node000010"><a xlink:title=" ">
<polygon fill="#e0e0e0" stroke="#999999" points="2116,-74 2041,-74 2041,-55 2116,-55 2116,-74"/>
<text text-anchor="middle" x="2078.5" y="-62" font-family="Helvetica,sans-Serif" font-size="10.00">QtCore/QUrl</text>
</a>
</g>
</g>
<!-- Node8&#45;&gt;Node10 -->
<g id="edge12_Node000008_Node000010" class="edge">
<title>Node8&#45;&gt;Node10</title>
<g id="a_edge12_Node000008_Node000010"><a xlink:title=" ">
<path fill="none" stroke="#63b8ff" d="M1593.15,-110.88C1596.31,-110.58 1599.44,-110.29 1602.5,-110 1790.81,-92.48 1838.81,-97.27 2026.5,-74 2027.8,-73.84 2029.12,-73.67 2030.45,-73.49"/>
<polygon fill="#63b8ff" stroke="#63b8ff" points="2031.37,-76.9 2040.78,-72.02 2030.38,-69.97 2031.37,-76.9"/>
</a>
</g>
</g>
<!-- Node11&#45;&gt;Node3 -->
<g id="edge15_Node000011_Node000003" class="edge">
<title>Node11&#45;&gt;Node3</title>
<g id="a_edge15_Node000011_Node000003"><a xlink:title=" ">
<path fill="none" stroke="#63b8ff" d="M370.17,-112.83C435.31,-103.74 563.71,-85.83 642.54,-74.84"/>
<polygon fill="#63b8ff" stroke="#63b8ff" points="643.43,-78.25 652.85,-73.4 642.46,-71.32 643.43,-78.25"/>
</a>
</g>
</g>
<!-- Node11&#45;&gt;Node12 -->
<g id="edge14_Node000011_Node000012" class="edge">
<title>Node11&#45;&gt;Node12</title>
<g id="a_edge14_Node000011_Node000012"><a xlink:title=" ">
<path fill="none" stroke="#63b8ff" d="M288.83,-110.33C242.96,-101.13 168.22,-86.12 117.98,-76.04"/>
<polygon fill="#63b8ff" stroke="#63b8ff" points="118.46,-72.56 107.97,-74.03 117.08,-79.43 118.46,-72.56"/>
</a>
</g>
</g>
<!-- Node13 -->
<g id="Node000013" class="node">
<title>Node13</title>
<g id="a_Node000013"><a xlink:title=" ">
<polygon fill="#e0e0e0" stroke="#999999" points="257.5,-74 149.5,-74 149.5,-55 257.5,-55 257.5,-74"/>
<text text-anchor="middle" x="203.5" y="-62" font-family="Helvetica,sans-Serif" font-size="10.00">QtCore/QJsonValue</text>
</a>
</g>
</g>
<!-- Node11&#45;&gt;Node13 -->
<g id="edge16_Node000011_Node000013" class="edge">
<title>Node11&#45;&gt;Node13</title>
<g id="a_edge16_Node000011_Node000013"><a xlink:title=" ">
<path fill="none" stroke="#63b8ff" d="M309.26,-109.98C288.8,-101.38 256.97,-87.99 233.57,-78.15"/>
<polygon fill="#63b8ff" stroke="#63b8ff" points="234.69,-74.82 224.11,-74.17 231.97,-81.27 234.69,-74.82"/>
</a>
</g>
</g>
<!-- Node14 -->
<g id="Node000014" class="node">
<title>Node14</title>
<g id="a_Node000014"><a xlink:title=" ">
<polygon fill="#e0e0e0" stroke="#999999" points="383,-74 276,-74 276,-55 383,-55 383,-74"/>
<text text-anchor="middle" x="329.5" y="-62" font-family="Helvetica,sans-Serif" font-size="10.00">QtCore/QStringList</text>
</a>
</g>
</g>
<!-- Node11&#45;&gt;Node14 -->
<g id="edge17_Node000011_Node000014" class="edge">
<title>Node11&#45;&gt;Node14</title>
<g id="a_edge17_Node000011_Node000014"><a xlink:title=" ">
<path fill="none" stroke="#63b8ff" d="M329.5,-109.75C329.5,-102.8 329.5,-92.85 329.5,-84.13"/>
<polygon fill="#63b8ff" stroke="#63b8ff" points="333,-84.09 329.5,-74.09 326,-84.09 333,-84.09"/>
</a>
</g>
</g>
<!-- Node15&#45;&gt;Node6 -->
<g id="edge25_Node000015_Node000006" class="edge">
<title>Node15&#45;&gt;Node6</title>
<g id="a_edge25_Node000015_Node000006"><a xlink:title=" ">
<path fill="none" stroke="#63b8ff" d="M705.21,-109.89C737.97,-93.02 807.93,-57.09 813.5,-55 853.34,-40.09 900.07,-28.58 935.51,-21"/>
<polygon fill="#63b8ff" stroke="#63b8ff" points="936.59,-24.35 945.65,-18.88 935.15,-17.5 936.59,-24.35"/>
</a>
</g>
</g>
<!-- Node15&#45;&gt;Node14 -->
<g id="edge26_Node000015_Node000014" class="edge">
<title>Node15&#45;&gt;Node14</title>
<g id="a_edge26_Node000015_Node000014"><a xlink:title=" ">
<path fill="none" stroke="#63b8ff" d="M632.8,-110.28C568.08,-100.72 461.49,-84.99 393.44,-74.94"/>
<polygon fill="#63b8ff" stroke="#63b8ff" points="393.68,-71.44 383.28,-73.44 392.66,-78.36 393.68,-71.44"/>
</a>
</g>
</g>
<!-- Node16 -->
<g id="Node000016" class="node">
<title>Node16</title>
<g id="a_Node000016"><a xlink:href="QGCCompressionTypes_8h.html" target="_top" xlink:title="Shared type definitions for compression/archive operations.">
<polygon fill="white" stroke="#666666" points="962,-74 823,-74 823,-55 962,-55 962,-74"/>
<text text-anchor="middle" x="892.5" y="-62" font-family="Helvetica,sans-Serif" font-size="10.00">QGCCompressionTypes.h</text>
</a>
</g>
</g>
<!-- Node15&#45;&gt;Node16 -->
<g id="edge19_Node000015_Node000016" class="edge">
<title>Node15&#45;&gt;Node16</title>
<g id="a_edge19_Node000015_Node000016"><a xlink:title=" ">
<path fill="none" stroke="#63b8ff" d="M721.28,-109.98C756.12,-100.93 811.37,-86.58 849.64,-76.64"/>
<polygon fill="#63b8ff" stroke="#63b8ff" points="850.67,-79.98 859.47,-74.08 848.91,-73.21 850.67,-79.98"/>
</a>
</g>
</g>
<!-- Node18 -->
<g id="Node000018" class="node">
<title>Node18</title>
<g id="a_Node000018"><a xlink:title=" ">
<polygon fill="#e0e0e0" stroke="#999999" points="511.5,-74 401.5,-74 401.5,-55 511.5,-55 511.5,-74"/>
<text text-anchor="middle" x="456.5" y="-62" font-family="Helvetica,sans-Serif" font-size="10.00">QtCore/QByteArray</text>
</a>
</g>
</g>
<!-- Node15&#45;&gt;Node18 -->
<g id="edge23_Node000015_Node000018" class="edge">
<title>Node15&#45;&gt;Node18</title>
<g id="a_edge23_Node000015_Node000018"><a xlink:title=" ">
<path fill="none" stroke="#63b8ff" d="M651.23,-109.98C611.18,-100.84 547.43,-86.27 503.86,-76.32"/>
<polygon fill="#63b8ff" stroke="#63b8ff" points="504.6,-72.9 494.07,-74.08 503.04,-79.72 504.6,-72.9"/>
</a>
</g>
</g>
<!-- Node19 -->
<g id="Node000019" class="node">
<title>Node19</title>
<g id="a_Node000019"><a xlink:title=" ">
<polygon fill="#e0e0e0" stroke="#999999" points="635,-74 530,-74 530,-55 635,-55 635,-74"/>
<text text-anchor="middle" x="582.5" y="-62" font-family="Helvetica,sans-Serif" font-size="10.00">QtCore/QIODevice</text>
</a>
</g>
</g>
<!-- Node15&#45;&gt;Node19 -->
<g id="edge24_Node000015_Node000019" class="edge">
<title>Node15&#45;&gt;Node19</title>
<g id="a_edge24_Node000015_Node000019"><a xlink:title=" ">
<path fill="none" stroke="#63b8ff" d="M671.47,-109.98C654.57,-101.54 628.44,-88.47 608.86,-78.68"/>
<polygon fill="#63b8ff" stroke="#63b8ff" points="610.35,-75.51 599.84,-74.17 607.22,-81.77 610.35,-75.51"/>
</a>
</g>
</g>
<!-- Node16&#45;&gt;Node6 -->
<g id="edge21_Node000016_Node000006" class="edge">
<title>Node16&#45;&gt;Node6</title>
<g id="a_edge21_Node000016_Node000006"><a xlink:title=" ">
<path fill="none" stroke="#63b8ff" d="M908.25,-54.98C923.73,-46.61 947.59,-33.7 965.64,-23.95"/>
<polygon fill="#63b8ff" stroke="#63b8ff" points="967.34,-27.01 974.47,-19.17 964.01,-20.85 967.34,-27.01"/>
</a>
</g>
</g>
<!-- Node16&#45;&gt;Node9 -->
<g id="edge20_Node000016_Node000009" class="edge">
<title>Node16&#45;&gt;Node9</title>
<g id="a_edge20_Node000016_Node000009"><a xlink:title=" ">
<path fill="none" stroke="#63b8ff" d="M962.31,-57.95C1091.95,-47.65 1368.17,-25.7 1494.28,-15.68"/>
<polygon fill="#63b8ff" stroke="#63b8ff" points="1494.86,-19.15 1504.55,-14.87 1494.3,-12.17 1494.86,-19.15"/>
</a>
</g>
</g>
<!-- Node17 -->
<g id="Node000017" class="node">
<title>Node17</title>
<g id="a_Node000017"><a xlink:title=" ">
<polygon fill="#e0e0e0" stroke="#999999" points="925,-19 860,-19 860,0 925,0 925,-19"/>
<text text-anchor="middle" x="892.5" y="-7" font-family="Helvetica,sans-Serif" font-size="10.00">functional</text>
</a>
</g>
</g>
<!-- Node16&#45;&gt;Node17 -->
<g id="edge22_Node000016_Node000017" class="edge">
<title>Node16&#45;&gt;Node17</title>
<g id="a_edge22_Node000016_Node000017"><a xlink:title=" ">
<path fill="none" stroke="#63b8ff" d="M892.5,-54.75C892.5,-47.8 892.5,-37.85 892.5,-29.13"/>
<polygon fill="#63b8ff" stroke="#63b8ff" points="896,-29.09 892.5,-19.09 889,-29.09 896,-29.09"/>
</a>
</g>
</g>
<!-- Node20&#45;&gt;Node4 -->
<g id="edge28_Node000020_Node000004" class="edge">
<title>Node20&#45;&gt;Node4</title>
<g id="a_edge28_Node000020_Node000004"><a xlink:title=" ">
<path fill="none" stroke="#63b8ff" d="M1313.3,-109.98C1259.04,-100.4 1171.12,-84.87 1114.84,-74.92"/>
<polygon fill="#63b8ff" stroke="#63b8ff" points="1115.17,-71.43 1104.71,-73.13 1113.95,-78.32 1115.17,-71.43"/>
</a>
</g>
</g>
<!-- Node20&#45;&gt;Node5 -->
<g id="edge30_Node000020_Node000005" class="edge">
<title>Node20&#45;&gt;Node5</title>
<g id="a_edge30_Node000020_Node000005"><a xlink:title=" ">
<path fill="none" stroke="#63b8ff" d="M1425.66,-111.02C1428.99,-110.67 1432.28,-110.33 1435.5,-110 1614.2,-91.89 1662.18,-95.83 1844.14,-74.09"/>
<polygon fill="#63b8ff" stroke="#63b8ff" points="1844.81,-77.53 1854.32,-72.86 1843.97,-70.58 1844.81,-77.53"/>
</a>
</g>
</g>
<!-- Node20&#45;&gt;Node6 -->
<g id="edge33_Node000020_Node000006" class="edge">
<title>Node20&#45;&gt;Node6</title>
<g id="a_edge33_Node000020_Node000006"><a xlink:title=" ">
<path fill="none" stroke="#63b8ff" d="M1352.87,-109.84C1338.32,-95.79 1307.36,-68.3 1275.5,-55 1199.86,-23.42 1104.44,-14.03 1045.46,-11.37"/>
<polygon fill="#63b8ff" stroke="#63b8ff" points="1045.37,-7.86 1035.24,-10.96 1045.09,-14.86 1045.37,-7.86"/>
</a>
</g>
</g>
<!-- Node20&#45;&gt;Node7 -->
<g id="edge29_Node000020_Node000007" class="edge">
<title>Node20&#45;&gt;Node7</title>
<g id="a_edge29_Node000020_Node000007"><a xlink:title=" ">
<path fill="none" stroke="#63b8ff" d="M1334.67,-109.98C1306.63,-101.09 1262.45,-87.07 1231.2,-77.15"/>
<polygon fill="#63b8ff" stroke="#63b8ff" points="1232.13,-73.77 1221.54,-74.08 1230.01,-80.44 1232.13,-73.77"/>
</a>
</g>
</g>
<!-- Node21 -->
<g id="Node000021" class="node">
<title>Node21</title>
<g id="a_Node000021"><a xlink:title=" ">
<polygon fill="#e0e0e0" stroke="#999999" points="1836.5,-74 1702.5,-74 1702.5,-55 1836.5,-55 1836.5,-74"/>
<text text-anchor="middle" x="1769.5" y="-62" font-family="Helvetica,sans-Serif" font-size="10.00">QtCore/QReadWriteLock</text>
</a>
</g>
</g>
<!-- Node20&#45;&gt;Node21 -->
<g id="edge31_Node000020_Node000021" class="edge">
<title>Node20&#45;&gt;Node21</title>
<g id="a_edge31_Node000020_Node000021"><a xlink:title=" ">
<path fill="none" stroke="#63b8ff" d="M1425.7,-110.16C1498.4,-100.72 1616.74,-85.34 1693.86,-75.33"/>
<polygon fill="#63b8ff" stroke="#63b8ff" points="1694.52,-78.77 1703.99,-74.01 1693.62,-71.83 1694.52,-78.77"/>
</a>
</g>
</g>
<!-- Node22 -->
<g id="Node000022" class="node">
<title>Node22</title>
<g id="a_Node000022"><a xlink:title=" ">
<polygon fill="#e0e0e0" stroke="#999999" points="1400,-74 1323,-74 1323,-55 1400,-55 1400,-74"/>
<text text-anchor="middle" x="1361.5" y="-62" font-family="Helvetica,sans-Serif" font-size="10.00">QtCore/QSet</text>
</a>
</g>
</g>
<!-- Node20&#45;&gt;Node22 -->
<g id="edge32_Node000020_Node000022" class="edge">
<title>Node20&#45;&gt;Node22</title>
<g id="a_edge32_Node000020_Node000022"><a xlink:title=" ">
<path fill="none" stroke="#63b8ff" d="M1361.5,-109.75C1361.5,-102.8 1361.5,-92.85 1361.5,-84.13"/>
<polygon fill="#63b8ff" stroke="#63b8ff" points="1365,-84.09 1361.5,-74.09 1358,-84.09 1365,-84.09"/>
</a>
</g>
</g>
<!-- Node23 -->
<g id="Node000023" class="node">
<title>Node23</title>
<g id="a_Node000023"><a xlink:title=" ">
<polygon fill="#e0e0e0" stroke="#999999" points="1581,-74 1418,-74 1418,-55 1581,-55 1581,-74"/>
<text text-anchor="middle" x="1499.5" y="-62" font-family="Helvetica,sans-Serif" font-size="10.00">QtCore/QSortFilterProxyModel</text>
</a>
</g>
</g>
<!-- Node20&#45;&gt;Node23 -->
<g id="edge34_Node000020_Node000023" class="edge">
<title>Node20&#45;&gt;Node23</title>
<g id="a_edge34_Node000020_Node000023"><a xlink:title=" ">
<path fill="none" stroke="#63b8ff" d="M1383.67,-109.98C1406.27,-101.3 1441.56,-87.75 1467.25,-77.88"/>
<polygon fill="#63b8ff" stroke="#63b8ff" points="1468.84,-81.02 1476.92,-74.17 1466.33,-74.49 1468.84,-81.02"/>
</a>
</g>
</g>
<!-- Node24 -->
<g id="Node000024" class="node">
<title>Node24</title>
<g id="a_Node000024"><a xlink:title=" ">
<polygon fill="#e0e0e0" stroke="#999999" points="1684,-74 1599,-74 1599,-55 1684,-55 1684,-74"/>
<text text-anchor="middle" x="1641.5" y="-62" font-family="Helvetica,sans-Serif" font-size="10.00">QtQml/qqml.h</text>
</a>
</g>
</g>
<!-- Node20&#45;&gt;Node24 -->
<g id="edge35_Node000020_Node000024" class="edge">
<title>Node20&#45;&gt;Node24</title>
<g id="a_edge35_Node000020_Node000024"><a xlink:title=" ">
<path fill="none" stroke="#63b8ff" d="M1406.49,-109.98C1456.2,-100.58 1536.17,-85.44 1588.78,-75.48"/>
<polygon fill="#63b8ff" stroke="#63b8ff" points="1589.74,-78.86 1598.92,-73.56 1588.44,-71.98 1589.74,-78.86"/>
</a>
</g>
</g>
</g>
</svg>
