<?xml version="1.0" encoding="UTF-8" standalone="no"?>
<!DOCTYPE svg PUBLIC "-//W3C//DTD SVG 1.1//EN"
 "http://www.w3.org/Graphics/SVG/1.1/DTD/svg11.dtd">
<!-- Generated by graphviz version 2.43.0 (0)
 -->
<!-- Title: src/Vehicle/ComponentInformation/ComponentInformationCache.h Pages: 1 -->
<svg width="291pt" height="93pt"
 viewBox="0.00 0.00 290.50 93.00" xmlns="http://www.w3.org/2000/svg" xmlns:xlink="http://www.w3.org/1999/xlink">
<g id="graph0" class="graph" transform="scale(1 1) rotate(0) translate(4 89)">
<title>src/Vehicle/ComponentInformation/ComponentInformationCache.h</title>
<!-- Node1 -->
<g id="Node000001" class="node">
<title>Node1</title>
<g id="a_Node000001"><a xlink:title=" ">
<polygon fill="#999999" stroke="#666666" points="237,-85 52,-85 52,-55 237,-55 237,-85"/>
<text text-anchor="start" x="60" y="-73" font-family="Helvetica,sans-Serif" font-size="10.00">src/Vehicle/ComponentInformation</text>
<text text-anchor="middle" x="144.5" y="-62" font-family="Helvetica,sans-Serif" font-size="10.00">/ComponentInformationCache.h</text>
</a>
</g>
</g>
<!-- Node2 -->
<g id="Node000002" class="node">
<title>Node2</title>
<g id="a_Node000002"><a xlink:title=" ">
<polygon fill="#e0e0e0" stroke="#999999" points="89,-19 0,-19 0,0 89,0 89,-19"/>
<text text-anchor="middle" x="44.5" y="-7" font-family="Helvetica,sans-Serif" font-size="10.00">QtCore/QString</text>
</a>
</g>
</g>
<!-- Node1&#45;&gt;Node2 -->
<g id="edge1_Node000001_Node000002" class="edge">
<title>Node1&#45;&gt;Node2</title>
<g id="a_edge1_Node000001_Node000002"><a xlink:title=" ">
<path fill="none" stroke="#63b8ff" d="M120.55,-54.99C104.61,-45.66 83.77,-33.47 67.94,-24.21"/>
<polygon fill="#63b8ff" stroke="#63b8ff" points="69.67,-21.17 59.27,-19.14 66.13,-27.21 69.67,-21.17"/>
</a>
</g>
</g>
<!-- Node3 -->
<g id="Node000003" class="node">
<title>Node3</title>
<g id="a_Node000003"><a xlink:title=" ">
<polygon fill="#e0e0e0" stroke="#999999" points="182,-19 107,-19 107,0 182,0 182,-19"/>
<text text-anchor="middle" x="144.5" y="-7" font-family="Helvetica,sans-Serif" font-size="10.00">QtCore/QDir</text>
</a>
</g>
</g>
<!-- Node1&#45;&gt;Node3 -->
<g id="edge2_Node000001_Node000003" class="edge">
<title>Node1&#45;&gt;Node3</title>
<g id="a_edge2_Node000001_Node000003"><a xlink:title=" ">
<path fill="none" stroke="#63b8ff" d="M144.5,-54.84C144.5,-47.21 144.5,-37.7 144.5,-29.45"/>
<polygon fill="#63b8ff" stroke="#63b8ff" points="148,-29.27 144.5,-19.27 141,-29.27 148,-29.27"/>
</a>
</g>
</g>
<!-- Node4 -->
<g id="Node000004" class="node">
<title>Node4</title>
<g id="a_Node000004"><a xlink:title=" ">
<polygon fill="#e0e0e0" stroke="#999999" points="282.5,-19 200.5,-19 200.5,0 282.5,0 282.5,-19"/>
<text text-anchor="middle" x="241.5" y="-7" font-family="Helvetica,sans-Serif" font-size="10.00">QtCore/QMap</text>
</a>
</g>
</g>
<!-- Node1&#45;&gt;Node4 -->
<g id="edge3_Node000001_Node000004" class="edge">
<title>Node1&#45;&gt;Node4</title>
<g id="a_edge3_Node000001_Node000004"><a xlink:title=" ">
<path fill="none" stroke="#63b8ff" d="M167.98,-54.84C183.3,-45.6 203.21,-33.59 218.45,-24.4"/>
<polygon fill="#63b8ff" stroke="#63b8ff" points="220.49,-27.26 227.25,-19.09 216.88,-21.26 220.49,-27.26"/>
</a>
</g>
</g>
</g>
</svg>
