<?xml version="1.0" encoding="UTF-8" standalone="no"?>
<!DOCTYPE svg PUBLIC "-//W3C//DTD SVG 1.1//EN"
 "http://www.w3.org/Graphics/SVG/1.1/DTD/svg11.dtd">
<!-- Generated by graphviz version 2.43.0 (0)
 -->
<!-- Title: src/Vehicle/ComponentInformation/ComponentInformationManager.h Pages: 1 -->
<svg width="1086pt" height="104pt"
 viewBox="0.00 0.00 1086.00 104.00" xmlns="http://www.w3.org/2000/svg" xmlns:xlink="http://www.w3.org/1999/xlink">
<g id="graph0" class="graph" transform="scale(1 1) rotate(0) translate(4 100)">
<title>src/Vehicle/ComponentInformation/ComponentInformationManager.h</title>
<!-- Node1 -->
<g id="Node000001" class="node">
<title>Node1</title>
<g id="a_Node000001"><a xlink:title=" ">
<polygon fill="#999999" stroke="#666666" points="659,-96 474,-96 474,-66 659,-66 659,-96"/>
<text text-anchor="start" x="482" y="-84" font-family="Helvetica,sans-Serif" font-size="10.00">src/Vehicle/ComponentInformation</text>
<text text-anchor="middle" x="566.5" y="-73" font-family="Helvetica,sans-Serif" font-size="10.00">/ComponentInformationManager.h</text>
</a>
</g>
</g>
<!-- Node2 -->
<g id="Node000002" class="node">
<title>Node2</title>
<g id="a_Node000002"><a xlink:href="ParameterManager_8cc.html" target="_top" xlink:title=" ">
<polygon fill="white" stroke="#666666" points="143,-30 0,-30 0,0 143,0 143,-30"/>
<text text-anchor="start" x="8" y="-18" font-family="Helvetica,sans-Serif" font-size="10.00">src/FactSystem/Parameter</text>
<text text-anchor="middle" x="71.5" y="-7" font-family="Helvetica,sans-Serif" font-size="10.00">Manager.cc</text>
</a>
</g>
</g>
<!-- Node1&#45;&gt;Node2 -->
<g id="edge1_Node000001_Node000002" class="edge">
<title>Node1&#45;&gt;Node2</title>
<g id="a_edge1_Node000001_Node000002"><a xlink:title=" ">
<path fill="none" stroke="#63b8ff" d="M463.53,-69.14C379.43,-59.9 257.57,-45.66 151.5,-30 148.85,-29.61 146.15,-29.2 143.43,-28.77"/>
<polygon fill="#63b8ff" stroke="#63b8ff" points="463.28,-72.63 473.6,-70.24 464.04,-65.67 463.28,-72.63"/>
</a>
</g>
</g>
<!-- Node3 -->
<g id="Node000003" class="node">
<title>Node3</title>
<g id="a_Node000003"><a xlink:href="CompInfoGeneral_8cc.html" target="_top" xlink:title=" ">
<polygon fill="white" stroke="#666666" points="346,-30 161,-30 161,0 346,0 346,-30"/>
<text text-anchor="start" x="169" y="-18" font-family="Helvetica,sans-Serif" font-size="10.00">src/Vehicle/ComponentInformation</text>
<text text-anchor="middle" x="253.5" y="-7" font-family="Helvetica,sans-Serif" font-size="10.00">/CompInfoGeneral.cc</text>
</a>
</g>
</g>
<!-- Node1&#45;&gt;Node3 -->
<g id="edge2_Node000001_Node000003" class="edge">
<title>Node1&#45;&gt;Node3</title>
<g id="a_edge2_Node000001_Node000003"><a xlink:title=" ">
<path fill="none" stroke="#63b8ff" d="M487.81,-63.91C436.77,-53.47 370.92,-40.01 322.03,-30.01"/>
<polygon fill="#63b8ff" stroke="#63b8ff" points="487.31,-67.38 497.81,-65.95 488.71,-60.52 487.31,-67.38"/>
</a>
</g>
</g>
<!-- Node4 -->
<g id="Node000004" class="node">
<title>Node4</title>
<g id="a_Node000004"><a xlink:href="ComponentInformationManager_8cc.html" target="_top" xlink:title=" ">
<polygon fill="white" stroke="#666666" points="552.5,-30 364.5,-30 364.5,0 552.5,0 552.5,-30"/>
<text text-anchor="start" x="372.5" y="-18" font-family="Helvetica,sans-Serif" font-size="10.00">src/Vehicle/ComponentInformation</text>
<text text-anchor="middle" x="458.5" y="-7" font-family="Helvetica,sans-Serif" font-size="10.00">/ComponentInformationManager.cc</text>
</a>
</g>
</g>
<!-- Node1&#45;&gt;Node4 -->
<g id="edge3_Node000001_Node000004" class="edge">
<title>Node1&#45;&gt;Node4</title>
<g id="a_edge3_Node000001_Node000004"><a xlink:title=" ">
<path fill="none" stroke="#63b8ff" d="M533.92,-60.69C517.25,-50.82 497.33,-39.01 482.15,-30.01"/>
<polygon fill="#63b8ff" stroke="#63b8ff" points="532.41,-63.87 542.8,-65.95 535.98,-57.85 532.41,-63.87"/>
</a>
</g>
</g>
<!-- Node5 -->
<g id="Node000005" class="node">
<title>Node5</title>
<g id="a_Node000005"><a xlink:href="RequestMetaDataTypeStateMachine_8cc.html" target="_top" xlink:title=" ">
<polygon fill="white" stroke="#666666" points="780.5,-30 570.5,-30 570.5,0 780.5,0 780.5,-30"/>
<text text-anchor="start" x="578.5" y="-18" font-family="Helvetica,sans-Serif" font-size="10.00">src/Vehicle/ComponentInformation</text>
<text text-anchor="middle" x="675.5" y="-7" font-family="Helvetica,sans-Serif" font-size="10.00">/RequestMetaDataTypeStateMachine.cc</text>
</a>
</g>
</g>
<!-- Node1&#45;&gt;Node5 -->
<g id="edge4_Node000001_Node000005" class="edge">
<title>Node1&#45;&gt;Node5</title>
<g id="a_edge4_Node000001_Node000005"><a xlink:title=" ">
<path fill="none" stroke="#63b8ff" d="M599.38,-60.69C616.21,-50.82 636.31,-39.01 651.64,-30.01"/>
<polygon fill="#63b8ff" stroke="#63b8ff" points="597.27,-57.87 590.42,-65.95 600.82,-63.91 597.27,-57.87"/>
</a>
</g>
</g>
<!-- Node6 -->
<g id="Node000006" class="node">
<title>Node6</title>
<g id="a_Node000006"><a xlink:href="InitialConnectStateMachine_8cc.html" target="_top" xlink:title=" ">
<polygon fill="white" stroke="#666666" points="938.5,-30 798.5,-30 798.5,0 938.5,0 938.5,-30"/>
<text text-anchor="start" x="806.5" y="-18" font-family="Helvetica,sans-Serif" font-size="10.00">src/Vehicle/InitialConnect</text>
<text text-anchor="middle" x="868.5" y="-7" font-family="Helvetica,sans-Serif" font-size="10.00">StateMachine.cc</text>
</a>
</g>
</g>
<!-- Node1&#45;&gt;Node6 -->
<g id="edge5_Node000001_Node000006" class="edge">
<title>Node1&#45;&gt;Node6</title>
<g id="a_edge5_Node000001_Node000006"><a xlink:title=" ">
<path fill="none" stroke="#63b8ff" d="M642.73,-63.84C691.94,-53.42 755.31,-39.99 802.38,-30.01"/>
<polygon fill="#63b8ff" stroke="#63b8ff" points="641.83,-60.46 632.78,-65.95 643.28,-67.31 641.83,-60.46"/>
</a>
</g>
</g>
<!-- Node7 -->
<g id="Node000007" class="node">
<title>Node7</title>
<g id="a_Node000007"><a xlink:href="Vehicle_8cc.html" target="_top" xlink:title=" ">
<polygon fill="white" stroke="#666666" points="1078,-24.5 957,-24.5 957,-5.5 1078,-5.5 1078,-24.5"/>
<text text-anchor="middle" x="1017.5" y="-12.5" font-family="Helvetica,sans-Serif" font-size="10.00">src/Vehicle/Vehicle.cc</text>
</a>
</g>
</g>
<!-- Node1&#45;&gt;Node7 -->
<g id="edge6_Node000001_Node000007" class="edge">
<title>Node1&#45;&gt;Node7</title>
<g id="a_edge6_Node000001_Node000007"><a xlink:title=" ">
<path fill="none" stroke="#63b8ff" d="M669.3,-68.4C746.13,-59.27 853.64,-45.53 947.5,-30 957.16,-28.4 967.52,-26.46 977.24,-24.53"/>
<polygon fill="#63b8ff" stroke="#63b8ff" points="668.66,-64.95 659.14,-69.6 669.48,-71.9 668.66,-64.95"/>
</a>
</g>
</g>
</g>
</svg>
