<?xml version="1.0" encoding="UTF-8" standalone="no"?>
<!DOCTYPE svg PUBLIC "-//W3C//DTD SVG 1.1//EN"
 "http://www.w3.org/Graphics/SVG/1.1/DTD/svg11.dtd">
<!-- Generated by graphviz version 2.43.0 (0)
 -->
<!-- Title: src/MissionManager/ComplexMissionItem.h Pages: 1 -->
<svg width="1958pt" height="236pt"
 viewBox="0.00 0.00 1958.00 236.00" xmlns="http://www.w3.org/2000/svg" xmlns:xlink="http://www.w3.org/1999/xlink">
<g id="graph0" class="graph" transform="scale(1 1) rotate(0) translate(4 232)">
<title>src/MissionManager/ComplexMissionItem.h</title>
<!-- Node1 -->
<g id="Node000001" class="node">
<title>Node1</title>
<g id="a_Node000001"><a xlink:title=" ">
<polygon fill="#999999" stroke="#666666" points="818,-228 686,-228 686,-198 818,-198 818,-228"/>
<text text-anchor="start" x="694" y="-216" font-family="Helvetica,sans-Serif" font-size="10.00">src/MissionManager</text>
<text text-anchor="middle" x="752" y="-205" font-family="Helvetica,sans-Serif" font-size="10.00">/ComplexMissionItem.h</text>
</a>
</g>
</g>
<!-- Node2 -->
<g id="Node000002" class="node">
<title>Node2</title>
<g id="a_Node000002"><a xlink:href="ComplexMissionItem_8cc.html" target="_top" xlink:title=" ">
<polygon fill="white" stroke="#666666" points="273.5,-162 136.5,-162 136.5,-132 273.5,-132 273.5,-162"/>
<text text-anchor="start" x="144.5" y="-150" font-family="Helvetica,sans-Serif" font-size="10.00">src/MissionManager</text>
<text text-anchor="middle" x="205" y="-139" font-family="Helvetica,sans-Serif" font-size="10.00">/ComplexMissionItem.cc</text>
</a>
</g>
</g>
<!-- Node1&#45;&gt;Node2 -->
<g id="edge1_Node000001_Node000002" class="edge">
<title>Node1&#45;&gt;Node2</title>
<g id="a_edge1_Node000001_Node000002"><a xlink:title=" ">
<path fill="none" stroke="#63b8ff" d="M675.46,-205.61C582.26,-197.42 420.18,-181.88 282,-162 279.31,-161.61 276.57,-161.2 273.81,-160.77"/>
<polygon fill="#63b8ff" stroke="#63b8ff" points="675.38,-209.11 685.65,-206.5 675.99,-202.14 675.38,-209.11"/>
</a>
</g>
</g>
<!-- Node3 -->
<g id="Node000003" class="node">
<title>Node3</title>
<g id="a_Node000003"><a xlink:href="KMLPlanDomDocument_8cc.html" target="_top" xlink:title=" ">
<polygon fill="white" stroke="#666666" points="440.5,-162 291.5,-162 291.5,-132 440.5,-132 440.5,-162"/>
<text text-anchor="start" x="299.5" y="-150" font-family="Helvetica,sans-Serif" font-size="10.00">src/MissionManager</text>
<text text-anchor="middle" x="366" y="-139" font-family="Helvetica,sans-Serif" font-size="10.00">/KMLPlanDomDocument.cc</text>
</a>
</g>
</g>
<!-- Node1&#45;&gt;Node3 -->
<g id="edge2_Node000001_Node000003" class="edge">
<title>Node1&#45;&gt;Node3</title>
<g id="a_edge2_Node000001_Node000003"><a xlink:title=" ">
<path fill="none" stroke="#63b8ff" d="M675.81,-199.5C614.53,-189.44 526.21,-174.88 449,-162 446.26,-161.54 443.47,-161.08 440.65,-160.61"/>
<polygon fill="#63b8ff" stroke="#63b8ff" points="675.35,-202.98 685.79,-201.14 676.49,-196.07 675.35,-202.98"/>
</a>
</g>
</g>
<!-- Node4 -->
<g id="Node000004" class="node">
<title>Node4</title>
<g id="a_Node000004"><a xlink:href="LandingComplexItem_8h.html" target="_top" xlink:title=" ">
<polygon fill="white" stroke="#666666" points="591.5,-162 458.5,-162 458.5,-132 591.5,-132 591.5,-162"/>
<text text-anchor="start" x="466.5" y="-150" font-family="Helvetica,sans-Serif" font-size="10.00">src/MissionManager</text>
<text text-anchor="middle" x="525" y="-139" font-family="Helvetica,sans-Serif" font-size="10.00">/LandingComplexItem.h</text>
</a>
</g>
</g>
<!-- Node1&#45;&gt;Node4 -->
<g id="edge3_Node000001_Node000004" class="edge">
<title>Node1&#45;&gt;Node4</title>
<g id="a_edge3_Node000001_Node000004"><a xlink:title=" ">
<path fill="none" stroke="#63b8ff" d="M692.13,-195.12C655.53,-184.8 609.27,-171.76 574.7,-162.01"/>
<polygon fill="#63b8ff" stroke="#63b8ff" points="691.61,-198.61 702.18,-197.95 693.51,-191.87 691.61,-198.61"/>
</a>
</g>
</g>
<!-- Node11 -->
<g id="Node000011" class="node">
<title>Node11</title>
<g id="a_Node000011"><a xlink:href="MissionFlightStatusCalculator_8cc.html" target="_top" xlink:title=" ">
<polygon fill="white" stroke="#666666" points="713,-96 535,-96 535,-66 713,-66 713,-96"/>
<text text-anchor="start" x="543" y="-84" font-family="Helvetica,sans-Serif" font-size="10.00">src/MissionManager</text>
<text text-anchor="middle" x="624" y="-73" font-family="Helvetica,sans-Serif" font-size="10.00">/MissionFlightStatusCalculator.cc</text>
</a>
</g>
</g>
<!-- Node1&#45;&gt;Node11 -->
<g id="edge11_Node000001_Node000011" class="edge">
<title>Node1&#45;&gt;Node11</title>
<g id="a_edge11_Node000001_Node000011"><a xlink:title=" ">
<path fill="none" stroke="#63b8ff" d="M730.82,-190.49C704.5,-163.76 660.32,-118.89 637.92,-96.14"/>
<polygon fill="#63b8ff" stroke="#63b8ff" points="728.55,-193.17 738.06,-197.84 733.54,-188.26 728.55,-193.17"/>
</a>
</g>
</g>
<!-- Node12 -->
<g id="Node000012" class="node">
<title>Node12</title>
<g id="a_Node000012"><a xlink:href="MissionSettingsItem_8h.html" target="_top" xlink:title=" ">
<polygon fill="white" stroke="#666666" points="862,-162 734,-162 734,-132 862,-132 862,-162"/>
<text text-anchor="start" x="742" y="-150" font-family="Helvetica,sans-Serif" font-size="10.00">src/MissionManager</text>
<text text-anchor="middle" x="798" y="-139" font-family="Helvetica,sans-Serif" font-size="10.00">/MissionSettingsItem.h</text>
</a>
</g>
</g>
<!-- Node1&#45;&gt;Node12 -->
<g id="edge12_Node000001_Node000012" class="edge">
<title>Node1&#45;&gt;Node12</title>
<g id="a_edge12_Node000001_Node000012"><a xlink:title=" ">
<path fill="none" stroke="#63b8ff" d="M768.15,-189.53C774.69,-180.43 782.05,-170.19 787.82,-162.16"/>
<polygon fill="#63b8ff" stroke="#63b8ff" points="765.2,-187.63 762.21,-197.8 770.89,-191.72 765.2,-187.63"/>
</a>
</g>
</g>
<!-- Node15 -->
<g id="Node000015" class="node">
<title>Node15</title>
<g id="a_Node000015"><a xlink:href="StructureScanComplexItem_8h.html" target="_top" xlink:title=" ">
<polygon fill="white" stroke="#666666" points="1213,-162 1051,-162 1051,-132 1213,-132 1213,-162"/>
<text text-anchor="start" x="1059" y="-150" font-family="Helvetica,sans-Serif" font-size="10.00">src/MissionManager</text>
<text text-anchor="middle" x="1132" y="-139" font-family="Helvetica,sans-Serif" font-size="10.00">/StructureScanComplexItem.h</text>
</a>
</g>
</g>
<!-- Node1&#45;&gt;Node15 -->
<g id="edge17_Node000001_Node000015" class="edge">
<title>Node1&#45;&gt;Node15</title>
<g id="a_edge17_Node000001_Node000015"><a xlink:title=" ">
<path fill="none" stroke="#63b8ff" d="M828.29,-199.15C892.76,-188.29 984.87,-172.78 1050.71,-161.69"/>
<polygon fill="#63b8ff" stroke="#63b8ff" points="827.47,-195.74 818.19,-200.85 828.63,-202.64 827.47,-195.74"/>
</a>
</g>
</g>
<!-- Node18 -->
<g id="Node000018" class="node">
<title>Node18</title>
<g id="a_Node000018"><a xlink:href="TransectStyleComplexItem_8h.html" target="_top" xlink:title=" ">
<polygon fill="white" stroke="#666666" points="1623,-162 1463,-162 1463,-132 1623,-132 1623,-162"/>
<text text-anchor="start" x="1471" y="-150" font-family="Helvetica,sans-Serif" font-size="10.00">src/MissionManager</text>
<text text-anchor="middle" x="1543" y="-139" font-family="Helvetica,sans-Serif" font-size="10.00">/TransectStyleComplexItem.h</text>
</a>
</g>
</g>
<!-- Node1&#45;&gt;Node18 -->
<g id="edge21_Node000001_Node000018" class="edge">
<title>Node1&#45;&gt;Node18</title>
<g id="a_edge21_Node000001_Node000018"><a xlink:title=" ">
<path fill="none" stroke="#63b8ff" d="M828.12,-205.84C977.96,-193.72 1309.89,-166.86 1462.9,-154.48"/>
<polygon fill="#63b8ff" stroke="#63b8ff" points="827.76,-202.36 818.08,-206.65 828.33,-209.34 827.76,-202.36"/>
</a>
</g>
</g>
<!-- Node26 -->
<g id="Node000026" class="node">
<title>Node26</title>
<g id="a_Node000026"><a xlink:href="TerrainProfile_8cc.html" target="_top" xlink:title=" ">
<polygon fill="white" stroke="#666666" points="1816.5,-156.5 1641.5,-156.5 1641.5,-137.5 1816.5,-137.5 1816.5,-156.5"/>
<text text-anchor="middle" x="1729" y="-144.5" font-family="Helvetica,sans-Serif" font-size="10.00">src/QmlControls/TerrainProfile.cc</text>
</a>
</g>
</g>
<!-- Node1&#45;&gt;Node26 -->
<g id="edge31_Node000001_Node000026" class="edge">
<title>Node1&#45;&gt;Node26</title>
<g id="a_edge31_Node000001_Node000026"><a xlink:title=" ">
<path fill="none" stroke="#63b8ff" d="M828.33,-209.89C981.18,-205.17 1335.62,-191.75 1632,-162 1646.22,-160.57 1661.55,-158.57 1675.74,-156.53"/>
<polygon fill="#63b8ff" stroke="#63b8ff" points="828,-206.4 818.11,-210.2 828.21,-213.39 828,-206.4"/>
</a>
</g>
</g>
<!-- Node5 -->
<g id="Node000005" class="node">
<title>Node5</title>
<g id="a_Node000005"><a xlink:href="FixedWingLandingComplexItem_8h.html" target="_top" xlink:title=" ">
<polygon fill="white" stroke="#666666" points="185.5,-96 2.5,-96 2.5,-66 185.5,-66 185.5,-96"/>
<text text-anchor="start" x="10.5" y="-84" font-family="Helvetica,sans-Serif" font-size="10.00">src/MissionManager</text>
<text text-anchor="middle" x="94" y="-73" font-family="Helvetica,sans-Serif" font-size="10.00">/FixedWingLandingComplexItem.h</text>
</a>
</g>
</g>
<!-- Node4&#45;&gt;Node5 -->
<g id="edge4_Node000004_Node000005" class="edge">
<title>Node4&#45;&gt;Node5</title>
<g id="a_edge4_Node000004_Node000005"><a xlink:title=" ">
<path fill="none" stroke="#63b8ff" d="M448.4,-132.04C409.41,-126.29 277.25,-107.72 185.52,-94.84"/>
<polygon fill="#63b8ff" stroke="#63b8ff" points="447.89,-135.51 458.3,-133.55 448.94,-128.59 447.89,-135.51"/>
</a>
</g>
</g>
<!-- Node8 -->
<g id="Node000008" class="node">
<title>Node8</title>
<g id="a_Node000008"><a xlink:href="LandingComplexItem_8cc.html" target="_top" xlink:title=" ">
<polygon fill="white" stroke="#666666" points="340.5,-96 203.5,-96 203.5,-66 340.5,-66 340.5,-96"/>
<text text-anchor="start" x="211.5" y="-84" font-family="Helvetica,sans-Serif" font-size="10.00">src/MissionManager</text>
<text text-anchor="middle" x="272" y="-73" font-family="Helvetica,sans-Serif" font-size="10.00">/LandingComplexItem.cc</text>
</a>
</g>
</g>
<!-- Node4&#45;&gt;Node8 -->
<g id="edge7_Node000004_Node000008" class="edge">
<title>Node4&#45;&gt;Node8</title>
<g id="a_edge7_Node000004_Node000008"><a xlink:title=" ">
<path fill="none" stroke="#63b8ff" d="M459.58,-129.45C418.59,-119.08 366.33,-105.86 327.39,-96.01"/>
<polygon fill="#63b8ff" stroke="#63b8ff" points="458.93,-132.9 469.48,-131.95 460.64,-126.11 458.93,-132.9"/>
</a>
</g>
</g>
<!-- Node9 -->
<g id="Node000009" class="node">
<title>Node9</title>
<g id="a_Node000009"><a xlink:href="VTOLLandingComplexItem_8h.html" target="_top" xlink:title=" ">
<polygon fill="white" stroke="#666666" points="517,-96 359,-96 359,-66 517,-66 517,-96"/>
<text text-anchor="start" x="367" y="-84" font-family="Helvetica,sans-Serif" font-size="10.00">src/MissionManager</text>
<text text-anchor="middle" x="438" y="-73" font-family="Helvetica,sans-Serif" font-size="10.00">/VTOLLandingComplexItem.h</text>
</a>
</g>
</g>
<!-- Node4&#45;&gt;Node9 -->
<g id="edge8_Node000004_Node000009" class="edge">
<title>Node4&#45;&gt;Node9</title>
<g id="a_edge8_Node000004_Node000009"><a xlink:title=" ">
<path fill="none" stroke="#63b8ff" d="M497.48,-125.75C484.39,-116.13 469.07,-104.86 457.25,-96.16"/>
<polygon fill="#63b8ff" stroke="#63b8ff" points="495.56,-128.69 505.69,-131.8 499.71,-123.05 495.56,-128.69"/>
</a>
</g>
</g>
<!-- Node6 -->
<g id="Node000006" class="node">
<title>Node6</title>
<g id="a_Node000006"><a xlink:href="FixedWingLandingComplexItem_8cc.html" target="_top" xlink:title=" ">
<polygon fill="white" stroke="#666666" points="188,-30 0,-30 0,0 188,0 188,-30"/>
<text text-anchor="start" x="8" y="-18" font-family="Helvetica,sans-Serif" font-size="10.00">src/MissionManager</text>
<text text-anchor="middle" x="94" y="-7" font-family="Helvetica,sans-Serif" font-size="10.00">/FixedWingLandingComplexItem.cc</text>
</a>
</g>
</g>
<!-- Node5&#45;&gt;Node6 -->
<g id="edge5_Node000005_Node000006" class="edge">
<title>Node5&#45;&gt;Node6</title>
<g id="a_edge5_Node000005_Node000006"><a xlink:title=" ">
<path fill="none" stroke="#63b8ff" d="M94,-55.54C94,-46.96 94,-37.61 94,-30.16"/>
<polygon fill="#63b8ff" stroke="#63b8ff" points="90.5,-55.8 94,-65.8 97.5,-55.8 90.5,-55.8"/>
</a>
</g>
</g>
<!-- Node7 -->
<g id="Node000007" class="node">
<title>Node7</title>
<g id="a_Node000007"><a xlink:href="MissionController_8cc.html" target="_top" xlink:title=" ">
<polygon fill="white" stroke="#666666" points="1117,-30 999,-30 999,0 1117,0 1117,-30"/>
<text text-anchor="start" x="1007" y="-18" font-family="Helvetica,sans-Serif" font-size="10.00">src/MissionManager</text>
<text text-anchor="middle" x="1058" y="-7" font-family="Helvetica,sans-Serif" font-size="10.00">/MissionController.cc</text>
</a>
</g>
</g>
<!-- Node5&#45;&gt;Node7 -->
<g id="edge6_Node000005_Node000007" class="edge">
<title>Node5&#45;&gt;Node7</title>
<g id="a_edge6_Node000005_Node000007"><a xlink:title=" ">
<path fill="none" stroke="#63b8ff" d="M195.54,-65.9C503.62,-35.89 860.42,-22.25 998.95,-17.76"/>
<polygon fill="#63b8ff" stroke="#63b8ff" points="195.13,-62.42 185.52,-66.88 195.81,-69.39 195.13,-62.42"/>
</a>
</g>
</g>
<!-- Node9&#45;&gt;Node7 -->
<g id="edge9_Node000009_Node000007" class="edge">
<title>Node9&#45;&gt;Node7</title>
<g id="a_edge9_Node000009_Node000007"><a xlink:title=" ">
<path fill="none" stroke="#63b8ff" d="M527.17,-65.9C704.69,-43.75 902.28,-27.63 998.82,-20.32"/>
<polygon fill="#63b8ff" stroke="#63b8ff" points="526.61,-62.45 517.12,-67.17 527.48,-69.39 526.61,-62.45"/>
</a>
</g>
</g>
<!-- Node10 -->
<g id="Node000010" class="node">
<title>Node10</title>
<g id="a_Node000010"><a xlink:href="VTOLLandingComplexItem_8cc.html" target="_top" xlink:title=" ">
<polygon fill="white" stroke="#666666" points="519.5,-30 356.5,-30 356.5,0 519.5,0 519.5,-30"/>
<text text-anchor="start" x="364.5" y="-18" font-family="Helvetica,sans-Serif" font-size="10.00">src/MissionManager</text>
<text text-anchor="middle" x="438" y="-7" font-family="Helvetica,sans-Serif" font-size="10.00">/VTOLLandingComplexItem.cc</text>
</a>
</g>
</g>
<!-- Node9&#45;&gt;Node10 -->
<g id="edge10_Node000009_Node000010" class="edge">
<title>Node9&#45;&gt;Node10</title>
<g id="a_edge10_Node000009_Node000010"><a xlink:title=" ">
<path fill="none" stroke="#63b8ff" d="M438,-55.54C438,-46.96 438,-37.61 438,-30.16"/>
<polygon fill="#63b8ff" stroke="#63b8ff" points="434.5,-55.8 438,-65.8 441.5,-55.8 434.5,-55.8"/>
</a>
</g>
</g>
<!-- Node12&#45;&gt;Node7 -->
<g id="edge13_Node000012_Node000007" class="edge">
<title>Node12&#45;&gt;Node7</title>
<g id="a_edge13_Node000012_Node000007"><a xlink:title=" ">
<path fill="none" stroke="#63b8ff" d="M872.29,-136.36C927.62,-127.9 997.34,-114.12 1020,-96 1040.9,-79.29 1050.94,-48.34 1055.23,-30.22"/>
<polygon fill="#63b8ff" stroke="#63b8ff" points="871.51,-132.94 862.14,-137.88 872.55,-139.86 871.51,-132.94"/>
</a>
</g>
</g>
<!-- Node12&#45;&gt;Node11 -->
<g id="edge14_Node000012_Node000011" class="edge">
<title>Node12&#45;&gt;Node11</title>
<g id="a_edge14_Node000012_Node000011"><a xlink:title=" ">
<path fill="none" stroke="#63b8ff" d="M750.3,-128.46C722.54,-118.25 688.03,-105.55 662.1,-96.01"/>
<polygon fill="#63b8ff" stroke="#63b8ff" points="749.22,-131.79 759.81,-131.95 751.64,-125.22 749.22,-131.79"/>
</a>
</g>
</g>
<!-- Node13 -->
<g id="Node000013" class="node">
<title>Node13</title>
<g id="a_Node000013"><a xlink:href="MissionSettingsItem_8cc.html" target="_top" xlink:title=" ">
<polygon fill="white" stroke="#666666" points="864.5,-96 731.5,-96 731.5,-66 864.5,-66 864.5,-96"/>
<text text-anchor="start" x="739.5" y="-84" font-family="Helvetica,sans-Serif" font-size="10.00">src/MissionManager</text>
<text text-anchor="middle" x="798" y="-73" font-family="Helvetica,sans-Serif" font-size="10.00">/MissionSettingsItem.cc</text>
</a>
</g>
</g>
<!-- Node12&#45;&gt;Node13 -->
<g id="edge15_Node000012_Node000013" class="edge">
<title>Node12&#45;&gt;Node13</title>
<g id="a_edge15_Node000012_Node000013"><a xlink:title=" ">
<path fill="none" stroke="#63b8ff" d="M798,-121.54C798,-112.96 798,-103.61 798,-96.16"/>
<polygon fill="#63b8ff" stroke="#63b8ff" points="794.5,-121.8 798,-131.8 801.5,-121.8 794.5,-121.8"/>
</a>
</g>
</g>
<!-- Node14 -->
<g id="Node000014" class="node">
<title>Node14</title>
<g id="a_Node000014"><a xlink:href="TakeoffMissionItem_8cc.html" target="_top" xlink:title=" ">
<polygon fill="white" stroke="#666666" points="1011,-96 883,-96 883,-66 1011,-66 1011,-96"/>
<text text-anchor="start" x="891" y="-84" font-family="Helvetica,sans-Serif" font-size="10.00">src/MissionManager</text>
<text text-anchor="middle" x="947" y="-73" font-family="Helvetica,sans-Serif" font-size="10.00">/TakeoffMissionItem.cc</text>
</a>
</g>
</g>
<!-- Node12&#45;&gt;Node14 -->
<g id="edge16_Node000012_Node000014" class="edge">
<title>Node12&#45;&gt;Node14</title>
<g id="a_edge16_Node000012_Node000014"><a xlink:title=" ">
<path fill="none" stroke="#63b8ff" d="M840.09,-127.92C863.64,-117.8 892.56,-105.38 914.38,-96.01"/>
<polygon fill="#63b8ff" stroke="#63b8ff" points="838.51,-124.79 830.7,-131.95 841.27,-131.22 838.51,-124.79"/>
</a>
</g>
</g>
<!-- Node15&#45;&gt;Node7 -->
<g id="edge18_Node000015_Node000007" class="edge">
<title>Node15&#45;&gt;Node7</title>
<g id="a_edge18_Node000015_Node000007"><a xlink:title=" ">
<path fill="none" stroke="#63b8ff" d="M1113.84,-123.51C1107.49,-115.13 1100.56,-105.38 1095,-96 1081.89,-73.89 1070.05,-46.34 1063.46,-30.02"/>
<polygon fill="#63b8ff" stroke="#63b8ff" points="1111.27,-125.91 1120.17,-131.67 1116.8,-121.62 1111.27,-125.91"/>
</a>
</g>
</g>
<!-- Node16 -->
<g id="Node000016" class="node">
<title>Node16</title>
<g id="a_Node000016"><a xlink:href="StructureScanComplexItem_8cc.html" target="_top" xlink:title=" ">
<polygon fill="white" stroke="#666666" points="1271.5,-96 1104.5,-96 1104.5,-66 1271.5,-66 1271.5,-96"/>
<text text-anchor="start" x="1112.5" y="-84" font-family="Helvetica,sans-Serif" font-size="10.00">src/MissionManager</text>
<text text-anchor="middle" x="1188" y="-73" font-family="Helvetica,sans-Serif" font-size="10.00">/StructureScanComplexItem.cc</text>
</a>
</g>
</g>
<!-- Node15&#45;&gt;Node16 -->
<g id="edge19_Node000015_Node000016" class="edge">
<title>Node15&#45;&gt;Node16</title>
<g id="a_edge19_Node000015_Node000016"><a xlink:title=" ">
<path fill="none" stroke="#63b8ff" d="M1151.17,-124.09C1159.26,-114.85 1168.44,-104.36 1175.61,-96.16"/>
<polygon fill="#63b8ff" stroke="#63b8ff" points="1148.38,-121.97 1144.43,-131.8 1153.65,-126.58 1148.38,-121.97"/>
</a>
</g>
</g>
<!-- Node17 -->
<g id="Node000017" class="node">
<title>Node17</title>
<g id="a_Node000017"><a xlink:href="StructureScanPlanCreator_8cc.html" target="_top" xlink:title=" ">
<polygon fill="white" stroke="#666666" points="1446.5,-96 1289.5,-96 1289.5,-66 1446.5,-66 1446.5,-96"/>
<text text-anchor="start" x="1297.5" y="-84" font-family="Helvetica,sans-Serif" font-size="10.00">src/MissionManager</text>
<text text-anchor="middle" x="1368" y="-73" font-family="Helvetica,sans-Serif" font-size="10.00">/StructureScanPlanCreator.cc</text>
</a>
</g>
</g>
<!-- Node15&#45;&gt;Node17 -->
<g id="edge20_Node000015_Node000017" class="edge">
<title>Node15&#45;&gt;Node17</title>
<g id="a_edge20_Node000015_Node000017"><a xlink:title=" ">
<path fill="none" stroke="#63b8ff" d="M1193.75,-129.25C1231.88,-118.91 1280.24,-105.8 1316.33,-96.01"/>
<polygon fill="#63b8ff" stroke="#63b8ff" points="1192.53,-125.96 1183.79,-131.95 1194.36,-132.72 1192.53,-125.96"/>
</a>
</g>
</g>
<!-- Node19 -->
<g id="Node000019" class="node">
<title>Node19</title>
<g id="a_Node000019"><a xlink:href="CorridorScanComplexItem_8h.html" target="_top" xlink:title=" ">
<polygon fill="white" stroke="#666666" points="1621.5,-96 1464.5,-96 1464.5,-66 1621.5,-66 1621.5,-96"/>
<text text-anchor="start" x="1472.5" y="-84" font-family="Helvetica,sans-Serif" font-size="10.00">src/MissionManager</text>
<text text-anchor="middle" x="1543" y="-73" font-family="Helvetica,sans-Serif" font-size="10.00">/CorridorScanComplexItem.h</text>
</a>
</g>
</g>
<!-- Node18&#45;&gt;Node19 -->
<g id="edge22_Node000018_Node000019" class="edge">
<title>Node18&#45;&gt;Node19</title>
<g id="a_edge22_Node000018_Node000019"><a xlink:title=" ">
<path fill="none" stroke="#63b8ff" d="M1543,-121.54C1543,-112.96 1543,-103.61 1543,-96.16"/>
<polygon fill="#63b8ff" stroke="#63b8ff" points="1539.5,-121.8 1543,-131.8 1546.5,-121.8 1539.5,-121.8"/>
</a>
</g>
</g>
<!-- Node22 -->
<g id="Node000022" class="node">
<title>Node22</title>
<g id="a_Node000022"><a xlink:href="SurveyComplexItem_8h.html" target="_top" xlink:title=" ">
<polygon fill="white" stroke="#666666" points="1768,-96 1640,-96 1640,-66 1768,-66 1768,-96"/>
<text text-anchor="start" x="1648" y="-84" font-family="Helvetica,sans-Serif" font-size="10.00">src/MissionManager</text>
<text text-anchor="middle" x="1704" y="-73" font-family="Helvetica,sans-Serif" font-size="10.00">/SurveyComplexItem.h</text>
</a>
</g>
</g>
<!-- Node18&#45;&gt;Node22 -->
<g id="edge26_Node000018_Node000022" class="edge">
<title>Node18&#45;&gt;Node22</title>
<g id="a_edge26_Node000018_Node000022"><a xlink:title=" ">
<path fill="none" stroke="#63b8ff" d="M1587.81,-128.19C1613.37,-118.02 1644.97,-105.47 1668.75,-96.01"/>
<polygon fill="#63b8ff" stroke="#63b8ff" points="1586.33,-125.01 1578.33,-131.95 1588.92,-131.51 1586.33,-125.01"/>
</a>
</g>
</g>
<!-- Node25 -->
<g id="Node000025" class="node">
<title>Node25</title>
<g id="a_Node000025"><a xlink:href="TransectStyleComplexItem_8cc.html" target="_top" xlink:title=" ">
<polygon fill="white" stroke="#666666" points="1950,-96 1786,-96 1786,-66 1950,-66 1950,-96"/>
<text text-anchor="start" x="1794" y="-84" font-family="Helvetica,sans-Serif" font-size="10.00">src/MissionManager</text>
<text text-anchor="middle" x="1868" y="-73" font-family="Helvetica,sans-Serif" font-size="10.00">/TransectStyleComplexItem.cc</text>
</a>
</g>
</g>
<!-- Node18&#45;&gt;Node25 -->
<g id="edge30_Node000018_Node000025" class="edge">
<title>Node18&#45;&gt;Node25</title>
<g id="a_edge30_Node000018_Node000025"><a xlink:title=" ">
<path fill="none" stroke="#63b8ff" d="M1624.38,-129.98C1677.42,-119.53 1745.98,-106.03 1796.84,-96.01"/>
<polygon fill="#63b8ff" stroke="#63b8ff" points="1623.46,-126.59 1614.32,-131.95 1624.81,-133.46 1623.46,-126.59"/>
</a>
</g>
</g>
<!-- Node19&#45;&gt;Node7 -->
<g id="edge25_Node000019_Node000007" class="edge">
<title>Node19&#45;&gt;Node7</title>
<g id="a_edge25_Node000019_Node000007"><a xlink:title=" ">
<path fill="none" stroke="#63b8ff" d="M1454.11,-65.9C1327.97,-48.06 1192.89,-31.74 1117.27,-22.86"/>
<polygon fill="#63b8ff" stroke="#63b8ff" points="1453.94,-69.41 1464.34,-67.36 1454.93,-62.48 1453.94,-69.41"/>
</a>
</g>
</g>
<!-- Node20 -->
<g id="Node000020" class="node">
<title>Node20</title>
<g id="a_Node000020"><a xlink:href="CorridorScanComplexItem_8cc.html" target="_top" xlink:title=" ">
<polygon fill="white" stroke="#666666" points="1623.5,-30 1462.5,-30 1462.5,0 1623.5,0 1623.5,-30"/>
<text text-anchor="start" x="1470.5" y="-18" font-family="Helvetica,sans-Serif" font-size="10.00">src/MissionManager</text>
<text text-anchor="middle" x="1543" y="-7" font-family="Helvetica,sans-Serif" font-size="10.00">/CorridorScanComplexItem.cc</text>
</a>
</g>
</g>
<!-- Node19&#45;&gt;Node20 -->
<g id="edge23_Node000019_Node000020" class="edge">
<title>Node19&#45;&gt;Node20</title>
<g id="a_edge23_Node000019_Node000020"><a xlink:title=" ">
<path fill="none" stroke="#63b8ff" d="M1543,-55.54C1543,-46.96 1543,-37.61 1543,-30.16"/>
<polygon fill="#63b8ff" stroke="#63b8ff" points="1539.5,-55.8 1543,-65.8 1546.5,-55.8 1539.5,-55.8"/>
</a>
</g>
</g>
<!-- Node21 -->
<g id="Node000021" class="node">
<title>Node21</title>
<g id="a_Node000021"><a xlink:href="CorridorScanPlanCreator_8cc.html" target="_top" xlink:title=" ">
<polygon fill="white" stroke="#666666" points="1444,-30 1292,-30 1292,0 1444,0 1444,-30"/>
<text text-anchor="start" x="1300" y="-18" font-family="Helvetica,sans-Serif" font-size="10.00">src/MissionManager</text>
<text text-anchor="middle" x="1368" y="-7" font-family="Helvetica,sans-Serif" font-size="10.00">/CorridorScanPlanCreator.cc</text>
</a>
</g>
</g>
<!-- Node19&#45;&gt;Node21 -->
<g id="edge24_Node000019_Node000021" class="edge">
<title>Node19&#45;&gt;Node21</title>
<g id="a_edge24_Node000019_Node000021"><a xlink:title=" ">
<path fill="none" stroke="#63b8ff" d="M1495.03,-62.46C1467.11,-52.25 1432.4,-39.55 1406.31,-30.01"/>
<polygon fill="#63b8ff" stroke="#63b8ff" points="1494,-65.81 1504.6,-65.95 1496.41,-59.23 1494,-65.81"/>
</a>
</g>
</g>
<!-- Node22&#45;&gt;Node7 -->
<g id="edge27_Node000022_Node000007" class="edge">
<title>Node22&#45;&gt;Node7</title>
<g id="a_edge27_Node000022_Node000007"><a xlink:title=" ">
<path fill="none" stroke="#63b8ff" d="M1629.8,-66.08C1436.04,-39.78 1219.35,-25.21 1117.09,-19.22"/>
<polygon fill="#63b8ff" stroke="#63b8ff" points="1629.51,-69.57 1639.89,-67.47 1630.46,-62.64 1629.51,-69.57"/>
</a>
</g>
</g>
<!-- Node23 -->
<g id="Node000023" class="node">
<title>Node23</title>
<g id="a_Node000023"><a xlink:href="SurveyComplexItem_8cc.html" target="_top" xlink:title=" ">
<polygon fill="white" stroke="#666666" points="1915.5,-30 1782.5,-30 1782.5,0 1915.5,0 1915.5,-30"/>
<text text-anchor="start" x="1790.5" y="-18" font-family="Helvetica,sans-Serif" font-size="10.00">src/MissionManager</text>
<text text-anchor="middle" x="1849" y="-7" font-family="Helvetica,sans-Serif" font-size="10.00">/SurveyComplexItem.cc</text>
</a>
</g>
</g>
<!-- Node22&#45;&gt;Node23 -->
<g id="edge28_Node000022_Node000023" class="edge">
<title>Node22&#45;&gt;Node23</title>
<g id="a_edge28_Node000022_Node000023"><a xlink:title=" ">
<path fill="none" stroke="#63b8ff" d="M1745.27,-61.78C1768.13,-51.69 1796.12,-39.34 1817.25,-30.01"/>
<polygon fill="#63b8ff" stroke="#63b8ff" points="1743.56,-58.71 1735.82,-65.95 1746.38,-65.12 1743.56,-58.71"/>
</a>
</g>
</g>
<!-- Node24 -->
<g id="Node000024" class="node">
<title>Node24</title>
<g id="a_Node000024"><a xlink:href="SurveyPlanCreator_8cc.html" target="_top" xlink:title=" ">
<polygon fill="white" stroke="#666666" points="1764.5,-30 1641.5,-30 1641.5,0 1764.5,0 1764.5,-30"/>
<text text-anchor="start" x="1649.5" y="-18" font-family="Helvetica,sans-Serif" font-size="10.00">src/MissionManager</text>
<text text-anchor="middle" x="1703" y="-7" font-family="Helvetica,sans-Serif" font-size="10.00">/SurveyPlanCreator.cc</text>
</a>
</g>
</g>
<!-- Node22&#45;&gt;Node24 -->
<g id="edge29_Node000022_Node000024" class="edge">
<title>Node22&#45;&gt;Node24</title>
<g id="a_edge29_Node000022_Node000024"><a xlink:title=" ">
<path fill="none" stroke="#63b8ff" d="M1703.62,-55.54C1703.48,-46.96 1703.34,-37.61 1703.22,-30.16"/>
<polygon fill="#63b8ff" stroke="#63b8ff" points="1700.12,-55.85 1703.78,-65.8 1707.12,-55.74 1700.12,-55.85"/>
</a>
</g>
</g>
</g>
</svg>
