<?xml version="1.0" encoding="UTF-8" standalone="no"?>
<!DOCTYPE svg PUBLIC "-//W3C//DTD SVG 1.1//EN"
 "http://www.w3.org/Graphics/SVG/1.1/DTD/svg11.dtd">
<!-- Generated by graphviz version 2.43.0 (0)
 -->
<!-- Title: src/MissionManager/CorridorScanComplexItem.h Pages: 1 -->
<svg width="476pt" height="104pt"
 viewBox="0.00 0.00 475.50 104.00" xmlns="http://www.w3.org/2000/svg" xmlns:xlink="http://www.w3.org/1999/xlink">
<g id="graph0" class="graph" transform="scale(1 1) rotate(0) translate(4 100)">
<title>src/MissionManager/CorridorScanComplexItem.h</title>
<!-- Node1 -->
<g id="Node000001" class="node">
<title>Node1</title>
<g id="a_Node000001"><a xlink:title=" ">
<polygon fill="#999999" stroke="#666666" points="334,-96 177,-96 177,-66 334,-66 334,-96"/>
<text text-anchor="start" x="185" y="-84" font-family="Helvetica,sans-Serif" font-size="10.00">src/MissionManager</text>
<text text-anchor="middle" x="255.5" y="-73" font-family="Helvetica,sans-Serif" font-size="10.00">/CorridorScanComplexItem.h</text>
</a>
</g>
</g>
<!-- Node2 -->
<g id="Node000002" class="node">
<title>Node2</title>
<g id="a_Node000002"><a xlink:href="CorridorScanComplexItem_8cc.html" target="_top" xlink:title=" ">
<polygon fill="white" stroke="#666666" points="161,-30 0,-30 0,0 161,0 161,-30"/>
<text text-anchor="start" x="8" y="-18" font-family="Helvetica,sans-Serif" font-size="10.00">src/MissionManager</text>
<text text-anchor="middle" x="80.5" y="-7" font-family="Helvetica,sans-Serif" font-size="10.00">/CorridorScanComplexItem.cc</text>
</a>
</g>
</g>
<!-- Node1&#45;&gt;Node2 -->
<g id="edge1_Node000001_Node000002" class="edge">
<title>Node1&#45;&gt;Node2</title>
<g id="a_edge1_Node000001_Node000002"><a xlink:title=" ">
<path fill="none" stroke="#63b8ff" d="M207.53,-62.46C179.61,-52.25 144.9,-39.55 118.81,-30.01"/>
<polygon fill="#63b8ff" stroke="#63b8ff" points="206.5,-65.81 217.1,-65.95 208.91,-59.23 206.5,-65.81"/>
</a>
</g>
</g>
<!-- Node3 -->
<g id="Node000003" class="node">
<title>Node3</title>
<g id="a_Node000003"><a xlink:href="CorridorScanPlanCreator_8cc.html" target="_top" xlink:title=" ">
<polygon fill="white" stroke="#666666" points="331.5,-30 179.5,-30 179.5,0 331.5,0 331.5,-30"/>
<text text-anchor="start" x="187.5" y="-18" font-family="Helvetica,sans-Serif" font-size="10.00">src/MissionManager</text>
<text text-anchor="middle" x="255.5" y="-7" font-family="Helvetica,sans-Serif" font-size="10.00">/CorridorScanPlanCreator.cc</text>
</a>
</g>
</g>
<!-- Node1&#45;&gt;Node3 -->
<g id="edge2_Node000001_Node000003" class="edge">
<title>Node1&#45;&gt;Node3</title>
<g id="a_edge2_Node000001_Node000003"><a xlink:title=" ">
<path fill="none" stroke="#63b8ff" d="M255.5,-55.54C255.5,-46.96 255.5,-37.61 255.5,-30.16"/>
<polygon fill="#63b8ff" stroke="#63b8ff" points="252,-55.8 255.5,-65.8 259,-55.8 252,-55.8"/>
</a>
</g>
</g>
<!-- Node4 -->
<g id="Node000004" class="node">
<title>Node4</title>
<g id="a_Node000004"><a xlink:href="MissionController_8cc.html" target="_top" xlink:title=" ">
<polygon fill="white" stroke="#666666" points="467.5,-30 349.5,-30 349.5,0 467.5,0 467.5,-30"/>
<text text-anchor="start" x="357.5" y="-18" font-family="Helvetica,sans-Serif" font-size="10.00">src/MissionManager</text>
<text text-anchor="middle" x="408.5" y="-7" font-family="Helvetica,sans-Serif" font-size="10.00">/MissionController.cc</text>
</a>
</g>
</g>
<!-- Node1&#45;&gt;Node4 -->
<g id="edge3_Node000001_Node000004" class="edge">
<title>Node1&#45;&gt;Node4</title>
<g id="a_edge3_Node000001_Node000004"><a xlink:title=" ">
<path fill="none" stroke="#63b8ff" d="M298.4,-62.05C322.64,-51.91 352.5,-39.43 375,-30.01"/>
<polygon fill="#63b8ff" stroke="#63b8ff" points="296.95,-58.87 289.08,-65.95 299.65,-65.32 296.95,-58.87"/>
</a>
</g>
</g>
</g>
</svg>
