<?xml version="1.0" encoding="UTF-8" standalone="no"?>
<!DOCTYPE svg PUBLIC "-//W3C//DTD SVG 1.1//EN"
 "http://www.w3.org/Graphics/SVG/1.1/DTD/svg11.dtd">
<!-- Generated by graphviz version 2.43.0 (0)
 -->
<!-- Title: src/AnalyzeView/GeoTag/DataFlashParser.cc Pages: 1 -->
<!--zoomable 148 -->

<svg id="main" version="1.1" xmlns="http://www.w3.org/2000/svg" xmlns:xlink="http://www.w3.org/1999/xlink" xml:space="preserve" onload="init(evt)">
<style type="text/css"><![CDATA[
.node, .edge {opacity: 0.7;}
.node.selected, .edge.selected {opacity: 1;}
.edge:hover path { stroke: red; }
.edge:hover polygon { stroke: red; fill: red; }
]]></style>

<defs>
  <circle id="rim" cx="0" cy="0" r="7"/>
  <circle id="rim2" cx="0" cy="0" r="3.5"/>
  <g id="zoomPlus">
    <use xlink:href="#rim" fill="#404040"><set attributeName="fill" to="#808080" begin="zoomplus.mouseover" end="zoomplus.mouseout"/></use>
    <path d="M-4,0h8M0,-4v8" fill="none" stroke="white" stroke-width="1.5" pointer-events="none"/>
  </g>
  <g id="zoomMin">
    <use xlink:href="#rim" fill="#404040"><set attributeName="fill" to="#808080" begin="zoomminus.mouseover" end="zoomminus.mouseout"/></use>
    <path d="M-4,0h8" fill="none" stroke="white" stroke-width="1.5" pointer-events="none"/>
  </g>
  <g id="arrowUp" transform="translate(30 24)">
    <use xlink:href="#rim"/>
    <path pointer-events="none" fill="none" stroke="white" stroke-width="1.5" d="M0,-3.0v7 M-2.5,-0.5L0,-3.0L2.5,-0.5"/>
  </g>
  <g id="arrowRight" transform="rotate(90) translate(36 -43)">
    <use xlink:href="#rim"/>
    <path pointer-events="none" fill="none" stroke="white" stroke-width="1.5" d="M0,-3.0v7 M-2.5,-0.5L0,-3.0L2.5,-0.5"/>
  </g>
  <g id="arrowDown" transform="rotate(180) translate(-30 -48)">
    <use xlink:href="#rim"/>
    <path pointer-events="none" fill="none" stroke="white" stroke-width="1.5" d="M0,-3.0v7 M-2.5,-0.5L0,-3.0L2.5,-0.5"/>
  </g>
  <g id="arrowLeft" transform="rotate(270) translate(-36 17)">
    <use xlink:href="#rim"/>
    <path pointer-events="none" fill="none" stroke="white" stroke-width="1.5" d="M0,-3.0v7 M-2.5,-0.5L0,-3.0L2.5,-0.5"/>
  </g>
  <g id="resetDef">
    <use xlink:href="#rim2" fill="#404040"><set attributeName="fill" to="#808080" begin="reset.mouseover" end="reset.mouseout"/></use>
  </g>
</defs>
<script type="application/ecmascript">
var viewWidth = 2144;
var viewHeight = 148;
var sectionId = 'dynsection-0';
</script>
<script type="application/ecmascript" xlink:href="svg.min.js"/>
<svg id="graph" class="graph">
<g id="viewport">
<title>src/AnalyzeView/GeoTag/DataFlashParser.cc</title>
<!-- Node1 -->
<g id="Node000001" class="node">
<title>Node1</title>
<g id="a_Node000001"><a xlink:title=" ">
<polygon fill="#999999" stroke="#666666" points="1220,-140 1084,-140 1084,-110 1220,-110 1220,-140"/>
<text text-anchor="start" x="1092" y="-128" font-family="Helvetica,sans-Serif" font-size="10.00">src/AnalyzeView/GeoTag</text>
<text text-anchor="middle" x="1152" y="-117" font-family="Helvetica,sans-Serif" font-size="10.00">/DataFlashParser.cc</text>
</a>
</g>
</g>
<!-- Node2 -->
<g id="Node000002" class="node">
<title>Node2</title>
<g id="a_Node000002"><a xlink:href="DataFlashParser_8h.html" target="_top" xlink:title=" ">
<polygon fill="white" stroke="#666666" points="390,-74 286,-74 286,-55 390,-55 390,-74"/>
<text text-anchor="middle" x="338" y="-62" font-family="Helvetica,sans-Serif" font-size="10.00">DataFlashParser.h</text>
</a>
</g>
</g>
<!-- Node1&#45;&gt;Node2 -->
<g id="edge1_Node000001_Node000002" class="edge">
<title>Node1&#45;&gt;Node2</title>
<g id="a_edge1_Node000001_Node000002"><a xlink:title=" ">
<path fill="none" stroke="#63b8ff" d="M1084,-119.11C928.77,-107.96 550.21,-80.75 400.46,-69.99"/>
<polygon fill="#63b8ff" stroke="#63b8ff" points="400.31,-66.47 390.08,-69.24 399.8,-73.45 400.31,-66.47"/>
</a>
</g>
</g>
<!-- Node8 -->
<g id="Node000008" class="node">
<title>Node8</title>
<g id="a_Node000008"><a xlink:href="DataFlashUtility_8h.html" target="_top" xlink:title=" ">
<polygon fill="white" stroke="#666666" points="813,-74 709,-74 709,-55 813,-55 813,-74"/>
<text text-anchor="middle" x="761" y="-62" font-family="Helvetica,sans-Serif" font-size="10.00">DataFlashUtility.h</text>
</a>
</g>
</g>
<!-- Node1&#45;&gt;Node8 -->
<g id="edge7_Node000001_Node000008" class="edge">
<title>Node1&#45;&gt;Node8</title>
<g id="a_edge7_Node000001_Node000008"><a xlink:title=" ">
<path fill="none" stroke="#63b8ff" d="M1083.89,-113.81C1010.38,-102.81 894.31,-85.45 823.19,-74.8"/>
<polygon fill="#63b8ff" stroke="#63b8ff" points="823.44,-71.3 813.03,-73.28 822.4,-78.23 823.44,-71.3"/>
</a>
</g>
</g>
<!-- Node14 -->
<g id="Node000014" class="node">
<title>Node14</title>
<g id="a_Node000014"><a xlink:href="GeoTagData_8h.html" target="_top" xlink:title=" ">
<polygon fill="white" stroke="#666666" points="1194.5,-74 1109.5,-74 1109.5,-55 1194.5,-55 1194.5,-74"/>
<text text-anchor="middle" x="1152" y="-62" font-family="Helvetica,sans-Serif" font-size="10.00">GeoTagData.h</text>
</a>
</g>
</g>
<!-- Node1&#45;&gt;Node14 -->
<g id="edge16_Node000001_Node000014" class="edge">
<title>Node1&#45;&gt;Node14</title>
<g id="a_edge16_Node000001_Node000014"><a xlink:title=" ">
<path fill="none" stroke="#63b8ff" d="M1152,-109.84C1152,-102.21 1152,-92.7 1152,-84.45"/>
<polygon fill="#63b8ff" stroke="#63b8ff" points="1155.5,-84.27 1152,-74.27 1148.5,-84.27 1155.5,-84.27"/>
</a>
</g>
</g>
<!-- Node17 -->
<g id="Node000017" class="node">
<title>Node17</title>
<g id="a_Node000017"><a xlink:href="QGCLoggingCategory_8h.html" target="_top" xlink:title=" ">
<polygon fill="white" stroke="#666666" points="1568,-74 1440,-74 1440,-55 1568,-55 1568,-74"/>
<text text-anchor="middle" x="1504" y="-62" font-family="Helvetica,sans-Serif" font-size="10.00">QGCLoggingCategory.h</text>
</a>
</g>
</g>
<!-- Node1&#45;&gt;Node17 -->
<g id="edge20_Node000001_Node000017" class="edge">
<title>Node1&#45;&gt;Node17</title>
<g id="a_edge20_Node000001_Node000017"><a xlink:title=" ">
<path fill="none" stroke="#63b8ff" d="M1220.29,-112.65C1284.77,-101.93 1380.6,-86.01 1442.7,-75.69"/>
<polygon fill="#63b8ff" stroke="#63b8ff" points="1443.45,-79.11 1452.74,-74.02 1442.3,-72.21 1443.45,-79.11"/>
</a>
</g>
</g>
<!-- Node24 -->
<g id="Node000024" class="node">
<title>Node24</title>
<g id="a_Node000024"><a xlink:title=" ">
<polygon fill="#e0e0e0" stroke="#999999" points="1633.5,-74 1586.5,-74 1586.5,-55 1633.5,-55 1633.5,-74"/>
<text text-anchor="middle" x="1610" y="-62" font-family="Helvetica,sans-Serif" font-size="10.00">cmath</text>
</a>
</g>
</g>
<!-- Node1&#45;&gt;Node24 -->
<g id="edge29_Node000001_Node000024" class="edge">
<title>Node1&#45;&gt;Node24</title>
<g id="a_edge29_Node000001_Node000024"><a xlink:title=" ">
<path fill="none" stroke="#63b8ff" d="M1220.14,-118.84C1302.38,-111.97 1444.94,-98.02 1576.44,-73.85"/>
<polygon fill="#63b8ff" stroke="#63b8ff" points="1577.1,-77.29 1586.29,-72.01 1575.82,-70.4 1577.1,-77.29"/>
</a>
</g>
</g>
<!-- Node3 -->
<g id="Node000003" class="node">
<title>Node3</title>
<g id="a_Node000003"><a xlink:title=" ">
<polygon fill="#e0e0e0" stroke="#999999" points="320,-19 210,-19 210,0 320,0 320,-19"/>
<text text-anchor="middle" x="265" y="-7" font-family="Helvetica,sans-Serif" font-size="10.00">QtCore/QByteArray</text>
</a>
</g>
</g>
<!-- Node2&#45;&gt;Node3 -->
<g id="edge2_Node000002_Node000003" class="edge">
<title>Node2&#45;&gt;Node3</title>
<g id="a_edge2_Node000002_Node000003"><a xlink:title=" ">
<path fill="none" stroke="#63b8ff" d="M326.27,-54.98C315.27,-47 298.58,-34.88 285.4,-25.31"/>
<polygon fill="#63b8ff" stroke="#63b8ff" points="287.09,-22.21 276.94,-19.17 282.98,-27.88 287.09,-22.21"/>
</a>
</g>
</g>
<!-- Node4 -->
<g id="Node000004" class="node">
<title>Node4</title>
<g id="a_Node000004"><a xlink:title=" ">
<polygon fill="#e0e0e0" stroke="#999999" points="78,-19 0,-19 0,0 78,0 78,-19"/>
<text text-anchor="middle" x="39" y="-7" font-family="Helvetica,sans-Serif" font-size="10.00">QtCore/QList</text>
</a>
</g>
</g>
<!-- Node2&#45;&gt;Node4 -->
<g id="edge3_Node000002_Node000004" class="edge">
<title>Node2&#45;&gt;Node4</title>
<g id="a_edge3_Node000002_Node000004"><a xlink:title=" ">
<path fill="none" stroke="#63b8ff" d="M289.96,-54.98C234.64,-45.18 144.21,-29.15 88.34,-19.25"/>
<polygon fill="#63b8ff" stroke="#63b8ff" points="88.79,-15.77 78.33,-17.47 87.56,-22.66 88.79,-15.77"/>
</a>
</g>
</g>
<!-- Node5 -->
<g id="Node000005" class="node">
<title>Node5</title>
<g id="a_Node000005"><a xlink:title=" ">
<polygon fill="#e0e0e0" stroke="#999999" points="481.5,-19 338.5,-19 338.5,0 481.5,0 481.5,-19"/>
<text text-anchor="middle" x="410" y="-7" font-family="Helvetica,sans-Serif" font-size="10.00">QtCore/QLoggingCategory</text>
</a>
</g>
</g>
<!-- Node2&#45;&gt;Node5 -->
<g id="edge4_Node000002_Node000005" class="edge">
<title>Node2&#45;&gt;Node5</title>
<g id="a_edge4_Node000002_Node000005"><a xlink:title=" ">
<path fill="none" stroke="#63b8ff" d="M349.57,-54.98C360.42,-47 376.88,-34.88 389.88,-25.31"/>
<polygon fill="#63b8ff" stroke="#63b8ff" points="392.24,-27.92 398.22,-19.17 388.09,-22.28 392.24,-27.92"/>
</a>
</g>
</g>
<!-- Node6 -->
<g id="Node000006" class="node">
<title>Node6</title>
<g id="a_Node000006"><a xlink:title=" ">
<polygon fill="#e0e0e0" stroke="#999999" points="588.5,-19 499.5,-19 499.5,0 588.5,0 588.5,-19"/>
<text text-anchor="middle" x="544" y="-7" font-family="Helvetica,sans-Serif" font-size="10.00">QtCore/QString</text>
</a>
</g>
</g>
<!-- Node2&#45;&gt;Node6 -->
<g id="edge5_Node000002_Node000006" class="edge">
<title>Node2&#45;&gt;Node6</title>
<g id="a_edge5_Node000002_Node000006"><a xlink:title=" ">
<path fill="none" stroke="#63b8ff" d="M371.1,-54.98C406.28,-45.93 462.07,-31.58 500.72,-21.64"/>
<polygon fill="#63b8ff" stroke="#63b8ff" points="501.83,-24.96 510.64,-19.08 500.09,-18.18 501.83,-24.96"/>
</a>
</g>
</g>
<!-- Node7 -->
<g id="Node000007" class="node">
<title>Node7</title>
<g id="a_Node000007"><a xlink:title=" ">
<polygon fill="#e0e0e0" stroke="#999999" points="192,-19 96,-19 96,0 192,0 192,-19"/>
<text text-anchor="middle" x="144" y="-7" font-family="Helvetica,sans-Serif" font-size="10.00">QtCore/QtGlobal</text>
</a>
</g>
</g>
<!-- Node2&#45;&gt;Node7 -->
<g id="edge6_Node000002_Node000007" class="edge">
<title>Node2&#45;&gt;Node7</title>
<g id="a_edge6_Node000002_Node000007"><a xlink:title=" ">
<path fill="none" stroke="#63b8ff" d="M306.83,-54.98C273.84,-45.97 221.6,-31.7 185.23,-21.76"/>
<polygon fill="#63b8ff" stroke="#63b8ff" points="185.98,-18.34 175.41,-19.08 184.14,-25.09 185.98,-18.34"/>
</a>
</g>
</g>
<!-- Node8&#45;&gt;Node3 -->
<g id="edge8_Node000008_Node000003" class="edge">
<title>Node8&#45;&gt;Node3</title>
<g id="a_edge8_Node000008_Node000003"><a xlink:title=" ">
<path fill="none" stroke="#63b8ff" d="M708.74,-58.62C629.36,-51.09 473.37,-35.87 330.41,-19.14"/>
<polygon fill="#63b8ff" stroke="#63b8ff" points="330.49,-15.62 320.15,-17.93 329.67,-22.57 330.49,-15.62"/>
</a>
</g>
</g>
<!-- Node8&#45;&gt;Node5 -->
<g id="edge9_Node000008_Node000005" class="edge">
<title>Node8&#45;&gt;Node5</title>
<g id="a_edge9_Node000008_Node000005"><a xlink:title=" ">
<path fill="none" stroke="#63b8ff" d="M708.83,-55.62C647.07,-46.3 544.11,-30.75 476.63,-20.56"/>
<polygon fill="#63b8ff" stroke="#63b8ff" points="476.94,-17.07 466.53,-19.04 475.9,-23.99 476.94,-17.07"/>
</a>
</g>
</g>
<!-- Node8&#45;&gt;Node6 -->
<g id="edge11_Node000008_Node000006" class="edge">
<title>Node8&#45;&gt;Node6</title>
<g id="a_edge11_Node000008_Node000006"><a xlink:title=" ">
<path fill="none" stroke="#63b8ff" d="M726.14,-54.98C688.91,-45.89 629.8,-31.46 589.07,-21.51"/>
<polygon fill="#63b8ff" stroke="#63b8ff" points="589.68,-18.05 579.14,-19.08 588.02,-24.85 589.68,-18.05"/>
</a>
</g>
</g>
<!-- Node9 -->
<g id="Node000009" class="node">
<title>Node9</title>
<g id="a_Node000009"><a xlink:title=" ">
<polygon fill="#e0e0e0" stroke="#999999" points="689,-19 607,-19 607,0 689,0 689,-19"/>
<text text-anchor="middle" x="648" y="-7" font-family="Helvetica,sans-Serif" font-size="10.00">QtCore/QMap</text>
</a>
</g>
</g>
<!-- Node8&#45;&gt;Node9 -->
<g id="edge10_Node000008_Node000009" class="edge">
<title>Node8&#45;&gt;Node9</title>
<g id="a_edge10_Node000008_Node000009"><a xlink:title=" ">
<path fill="none" stroke="#63b8ff" d="M742.84,-54.98C724.75,-46.5 696.72,-33.35 675.81,-23.54"/>
<polygon fill="#63b8ff" stroke="#63b8ff" points="677.03,-20.25 666.49,-19.17 674.05,-26.59 677.03,-20.25"/>
</a>
</g>
</g>
<!-- Node10 -->
<g id="Node000010" class="node">
<title>Node10</title>
<g id="a_Node000010"><a xlink:title=" ">
<polygon fill="#e0e0e0" stroke="#999999" points="814.5,-19 707.5,-19 707.5,0 814.5,0 814.5,-19"/>
<text text-anchor="middle" x="761" y="-7" font-family="Helvetica,sans-Serif" font-size="10.00">QtCore/QStringList</text>
</a>
</g>
</g>
<!-- Node8&#45;&gt;Node10 -->
<g id="edge12_Node000008_Node000010" class="edge">
<title>Node8&#45;&gt;Node10</title>
<g id="a_edge12_Node000008_Node000010"><a xlink:title=" ">
<path fill="none" stroke="#63b8ff" d="M761,-54.75C761,-47.8 761,-37.85 761,-29.13"/>
<polygon fill="#63b8ff" stroke="#63b8ff" points="764.5,-29.09 761,-19.09 757.5,-29.09 764.5,-29.09"/>
</a>
</g>
</g>
<!-- Node11 -->
<g id="Node000011" class="node">
<title>Node11</title>
<g id="a_Node000011"><a xlink:title=" ">
<polygon fill="#e0e0e0" stroke="#999999" points="927.5,-19 832.5,-19 832.5,0 927.5,0 927.5,-19"/>
<text text-anchor="middle" x="880" y="-7" font-family="Helvetica,sans-Serif" font-size="10.00">QtCore/QVariant</text>
</a>
</g>
</g>
<!-- Node8&#45;&gt;Node11 -->
<g id="edge13_Node000008_Node000011" class="edge">
<title>Node8&#45;&gt;Node11</title>
<g id="a_edge13_Node000008_Node000011"><a xlink:title=" ">
<path fill="none" stroke="#63b8ff" d="M780.12,-54.98C799.35,-46.42 829.23,-33.11 851.31,-23.28"/>
<polygon fill="#63b8ff" stroke="#63b8ff" points="852.82,-26.44 860.53,-19.17 849.97,-20.04 852.82,-26.44"/>
</a>
</g>
</g>
<!-- Node12 -->
<g id="Node000012" class="node">
<title>Node12</title>
<g id="a_Node000012"><a xlink:title=" ">
<polygon fill="#e0e0e0" stroke="#999999" points="1079,-19 1029,-19 1029,0 1079,0 1079,-19"/>
<text text-anchor="middle" x="1054" y="-7" font-family="Helvetica,sans-Serif" font-size="10.00">cstdint</text>
</a>
</g>
</g>
<!-- Node8&#45;&gt;Node12 -->
<g id="edge14_Node000008_Node000012" class="edge">
<title>Node8&#45;&gt;Node12</title>
<g id="a_edge14_Node000008_Node000012"><a xlink:title=" ">
<path fill="none" stroke="#63b8ff" d="M813.08,-55.57C865.33,-47.38 948.01,-33.72 1019,-19 1019.1,-18.98 1019.2,-18.96 1019.3,-18.94"/>
<polygon fill="#63b8ff" stroke="#63b8ff" points="1019.8,-22.41 1028.81,-16.83 1018.29,-15.58 1019.8,-22.41"/>
</a>
</g>
</g>
<!-- Node13 -->
<g id="Node000013" class="node">
<title>Node13</title>
<g id="a_Node000013"><a xlink:title=" ">
<polygon fill="#e0e0e0" stroke="#999999" points="1010.5,-19 945.5,-19 945.5,0 1010.5,0 1010.5,-19"/>
<text text-anchor="middle" x="978" y="-7" font-family="Helvetica,sans-Serif" font-size="10.00">functional</text>
</a>
</g>
</g>
<!-- Node8&#45;&gt;Node13 -->
<g id="edge15_Node000008_Node000013" class="edge">
<title>Node8&#45;&gt;Node13</title>
<g id="a_edge15_Node000008_Node000013"><a xlink:title=" ">
<path fill="none" stroke="#63b8ff" d="M795.86,-54.98C833.86,-45.71 894.66,-30.85 935.44,-20.89"/>
<polygon fill="#63b8ff" stroke="#63b8ff" points="936.47,-24.25 945.35,-18.47 934.81,-17.45 936.47,-24.25"/>
</a>
</g>
</g>
<!-- Node14&#45;&gt;Node12 -->
<g id="edge19_Node000014_Node000012" class="edge">
<title>Node14&#45;&gt;Node12</title>
<g id="a_edge19_Node000014_Node000012"><a xlink:title=" ">
<path fill="none" stroke="#63b8ff" d="M1136.25,-54.98C1120.77,-46.61 1096.91,-33.7 1078.86,-23.95"/>
<polygon fill="#63b8ff" stroke="#63b8ff" points="1080.49,-20.85 1070.03,-19.17 1077.16,-27.01 1080.49,-20.85"/>
</a>
</g>
</g>
<!-- Node15 -->
<g id="Node000015" class="node">
<title>Node15</title>
<g id="a_Node000015"><a xlink:title=" ">
<polygon fill="#e0e0e0" stroke="#999999" points="1206.5,-19 1097.5,-19 1097.5,0 1206.5,0 1206.5,-19"/>
<text text-anchor="middle" x="1152" y="-7" font-family="Helvetica,sans-Serif" font-size="10.00">QtGui/QQuaternion</text>
</a>
</g>
</g>
<!-- Node14&#45;&gt;Node15 -->
<g id="edge17_Node000014_Node000015" class="edge">
<title>Node14&#45;&gt;Node15</title>
<g id="a_edge17_Node000014_Node000015"><a xlink:title=" ">
<path fill="none" stroke="#63b8ff" d="M1152,-54.75C1152,-47.8 1152,-37.85 1152,-29.13"/>
<polygon fill="#63b8ff" stroke="#63b8ff" points="1155.5,-29.09 1152,-19.09 1148.5,-29.09 1155.5,-29.09"/>
</a>
</g>
</g>
<!-- Node16 -->
<g id="Node000016" class="node">
<title>Node16</title>
<g id="a_Node000016"><a xlink:title=" ">
<polygon fill="#e0e0e0" stroke="#999999" points="1389.5,-19 1224.5,-19 1224.5,0 1389.5,0 1389.5,-19"/>
<text text-anchor="middle" x="1307" y="-7" font-family="Helvetica,sans-Serif" font-size="10.00">QtPositioning/QGeoCoordinate</text>
</a>
</g>
</g>
<!-- Node14&#45;&gt;Node16 -->
<g id="edge18_Node000014_Node000016" class="edge">
<title>Node14&#45;&gt;Node16</title>
<g id="a_edge18_Node000014_Node000016"><a xlink:title=" ">
<path fill="none" stroke="#63b8ff" d="M1176.9,-54.98C1202.7,-46.16 1243.22,-32.31 1272.18,-22.41"/>
<polygon fill="#63b8ff" stroke="#63b8ff" points="1273.57,-25.63 1281.9,-19.08 1271.31,-19.01 1273.57,-25.63"/>
</a>
</g>
</g>
<!-- Node17&#45;&gt;Node5 -->
<g id="edge22_Node000017_Node000005" class="edge">
<title>Node17&#45;&gt;Node5</title>
<g id="a_edge22_Node000017_Node000005"><a xlink:title=" ">
<path fill="none" stroke="#63b8ff" d="M1439.92,-61.21C1250.59,-54.36 694.8,-33.65 491.5,-19.05"/>
<polygon fill="#63b8ff" stroke="#63b8ff" points="491.74,-15.56 481.51,-18.32 491.23,-22.54 491.74,-15.56"/>
</a>
</g>
</g>
<!-- Node17&#45;&gt;Node6 -->
<g id="edge26_Node000017_Node000006" class="edge">
<title>Node17&#45;&gt;Node6</title>
<g id="a_edge26_Node000017_Node000006"><a xlink:title=" ">
<path fill="none" stroke="#63b8ff" d="M1439.83,-61.24C1264.69,-54.95 780.04,-36.55 598.7,-18.92"/>
<polygon fill="#63b8ff" stroke="#63b8ff" points="599.04,-15.44 588.74,-17.92 598.34,-22.4 599.04,-15.44"/>
</a>
</g>
</g>
<!-- Node18 -->
<g id="Node000018" class="node">
<title>Node18</title>
<g id="a_Node000018"><a xlink:title=" ">
<polygon fill="#e0e0e0" stroke="#999999" points="1494,-19 1408,-19 1408,0 1494,0 1494,-19"/>
<text text-anchor="middle" x="1451" y="-7" font-family="Helvetica,sans-Serif" font-size="10.00">QtCore/QHash</text>
</a>
</g>
</g>
<!-- Node17&#45;&gt;Node18 -->
<g id="edge21_Node000017_Node000018" class="edge">
<title>Node17&#45;&gt;Node18</title>
<g id="a_edge21_Node000017_Node000018"><a xlink:title=" ">
<path fill="none" stroke="#63b8ff" d="M1495.25,-54.75C1487.53,-47.03 1476.1,-35.6 1466.78,-26.28"/>
<polygon fill="#63b8ff" stroke="#63b8ff" points="1469.14,-23.69 1459.59,-19.09 1464.19,-28.64 1469.14,-23.69"/>
</a>
</g>
</g>
<!-- Node19 -->
<g id="Node000019" class="node">
<title>Node19</title>
<g id="a_Node000019"><a xlink:title=" ">
<polygon fill="#e0e0e0" stroke="#999999" points="1604,-19 1512,-19 1512,0 1604,0 1604,-19"/>
<text text-anchor="middle" x="1558" y="-7" font-family="Helvetica,sans-Serif" font-size="10.00">QtCore/QObject</text>
</a>
</g>
</g>
<!-- Node17&#45;&gt;Node19 -->
<g id="edge23_Node000017_Node000019" class="edge">
<title>Node17&#45;&gt;Node19</title>
<g id="a_edge23_Node000017_Node000019"><a xlink:title=" ">
<path fill="none" stroke="#63b8ff" d="M1512.92,-54.75C1520.78,-47.03 1532.43,-35.6 1541.92,-26.28"/>
<polygon fill="#63b8ff" stroke="#63b8ff" points="1544.56,-28.59 1549.25,-19.09 1539.66,-23.6 1544.56,-28.59"/>
</a>
</g>
</g>
<!-- Node20 -->
<g id="Node000020" class="node">
<title>Node20</title>
<g id="a_Node000020"><a xlink:title=" ">
<polygon fill="#e0e0e0" stroke="#999999" points="1756,-19 1622,-19 1622,0 1756,0 1756,-19"/>
<text text-anchor="middle" x="1689" y="-7" font-family="Helvetica,sans-Serif" font-size="10.00">QtCore/QReadWriteLock</text>
</a>
</g>
</g>
<!-- Node17&#45;&gt;Node20 -->
<g id="edge24_Node000017_Node000020" class="edge">
<title>Node17&#45;&gt;Node20</title>
<g id="a_edge24_Node000017_Node000020"><a xlink:title=" ">
<path fill="none" stroke="#63b8ff" d="M1533.72,-54.98C1565.05,-46.01 1614.57,-31.82 1649.24,-21.89"/>
<polygon fill="#63b8ff" stroke="#63b8ff" points="1650.39,-25.2 1659.04,-19.08 1648.47,-18.47 1650.39,-25.2"/>
</a>
</g>
</g>
<!-- Node21 -->
<g id="Node000021" class="node">
<title>Node21</title>
<g id="a_Node000021"><a xlink:title=" ">
<polygon fill="#e0e0e0" stroke="#999999" points="1851.5,-19 1774.5,-19 1774.5,0 1851.5,0 1851.5,-19"/>
<text text-anchor="middle" x="1813" y="-7" font-family="Helvetica,sans-Serif" font-size="10.00">QtCore/QSet</text>
</a>
</g>
</g>
<!-- Node17&#45;&gt;Node21 -->
<g id="edge25_Node000017_Node000021" class="edge">
<title>Node17&#45;&gt;Node21</title>
<g id="a_edge25_Node000017_Node000021"><a xlink:title=" ">
<path fill="none" stroke="#63b8ff" d="M1554.54,-54.98C1604.97,-46.46 1684.96,-32.88 1764.32,-19.11"/>
<polygon fill="#63b8ff" stroke="#63b8ff" points="1765.24,-22.5 1774.49,-17.34 1764.04,-15.6 1765.24,-22.5"/>
</a>
</g>
</g>
<!-- Node22 -->
<g id="Node000022" class="node">
<title>Node22</title>
<g id="a_Node000022"><a xlink:title=" ">
<polygon fill="#e0e0e0" stroke="#999999" points="2032.5,-19 1869.5,-19 1869.5,0 2032.5,0 2032.5,-19"/>
<text text-anchor="middle" x="1951" y="-7" font-family="Helvetica,sans-Serif" font-size="10.00">QtCore/QSortFilterProxyModel</text>
</a>
</g>
</g>
<!-- Node17&#45;&gt;Node22 -->
<g id="edge27_Node000017_Node000022" class="edge">
<title>Node17&#45;&gt;Node22</title>
<g id="a_edge27_Node000017_Node000022"><a xlink:title=" ">
<path fill="none" stroke="#63b8ff" d="M1568.04,-55.91C1647.34,-46.5 1782.53,-30.48 1869.24,-20.19"/>
<polygon fill="#63b8ff" stroke="#63b8ff" points="1869.79,-23.65 1879.31,-19 1868.97,-16.7 1869.79,-23.65"/>
</a>
</g>
</g>
<!-- Node23 -->
<g id="Node000023" class="node">
<title>Node23</title>
<g id="a_Node000023"><a xlink:title=" ">
<polygon fill="#e0e0e0" stroke="#999999" points="2135.5,-19 2050.5,-19 2050.5,0 2135.5,0 2135.5,-19"/>
<text text-anchor="middle" x="2093" y="-7" font-family="Helvetica,sans-Serif" font-size="10.00">QtQml/qqml.h</text>
</a>
</g>
</g>
<!-- Node17&#45;&gt;Node23 -->
<g id="edge28_Node000017_Node000023" class="edge">
<title>Node17&#45;&gt;Node23</title>
<g id="a_edge28_Node000017_Node000023"><a xlink:title=" ">
<path fill="none" stroke="#63b8ff" d="M1568.16,-55.98C1571.49,-55.64 1574.78,-55.31 1578,-55 1780.57,-35.51 1834.94,-43.75 2040.25,-19.11"/>
<polygon fill="#63b8ff" stroke="#63b8ff" points="2040.96,-22.55 2050.46,-17.88 2040.12,-15.6 2040.96,-22.55"/>
</a>
</g>
</g>
</g>
</svg>

<g id="navigator" transform="translate(0 0)" fill="#404254">
  <rect fill="#f2f5e9" fill-opacity="0.5" stroke="#606060" stroke-width=".5" x="0" y="0" width="60" height="60"/>
  <use id="zoomplus" xlink:href="#zoomPlus" x="17" y="9" onmousedown="handleZoom(evt,'in')"/>
  <use id="zoomminus" xlink:href="#zoomMin" x="42" y="9" onmousedown="handleZoom(evt,'out')"/>
  <use id="reset" xlink:href="#resetDef" x="30" y="36" onmousedown="handleReset()"/>
   <use id="arrowup" xlink:href="#arrowUp" x="0" y="0" onmousedown="handlePan(0,-1)"/>
  <use id="arrowright" xlink:href="#arrowRight" x="0" y="0" onmousedown="handlePan(1,0)"/>
  <use id="arrowdown" xlink:href="#arrowDown" x="0" y="0" onmousedown="handlePan(0,1)"/>
  <use id="arrowleft" xlink:href="#arrowLeft" x="0" y="0" onmousedown="handlePan(-1,0)"/>
</g>
<svg viewBox="0 0 15 15" width="100%" height="30px" preserveAspectRatio="xMaxYMin meet">
 <g id="arrow_out" transform="scale(0.3 0.3)">
  <a xlink:href="DataFlashParser_8cc__incl_org.svg" target="_base">
   <rect id="button" ry="5" rx="5" y="6" x="6" height="38" width="38"
        fill="#f2f5e9" fill-opacity="0.5" stroke="#606060" stroke-width="1.0"/>
   <path id="arrow"
     d="M 11.500037,31.436501 C 11.940474,20.09759 22.043105,11.32322 32.158766,21.979434 L 37.068811,17.246167 C 37.068811,17.246167 37.088388,32 37.088388,32 L 22.160133,31.978069 C 22.160133,31.978069 26.997745,27.140456 26.997745,27.140456 C 18.528582,18.264221 13.291696,25.230495 11.500037,31.436501 z"
     style="fill:#404040;"/>
  </a>
 </g>
</svg>

<style type='text/css'>
<![CDATA[
[data-mouse-over-selected='false'] { opacity: 0.7; }
[data-mouse-over-selected='true']  { opacity: 1.0; }
]]>
</style>
<script type="application/ecmascript"><![CDATA[
document.addEventListener('DOMContentLoaded', (event) => {
  highlightEdges();
  highlightAdjacentNodes();
});
]]></script>
</svg>
