<?xml version="1.0" encoding="UTF-8" standalone="no"?>
<!DOCTYPE svg PUBLIC "-//W3C//DTD SVG 1.1//EN"
 "http://www.w3.org/Graphics/SVG/1.1/DTD/svg11.dtd">
<!-- Generated by graphviz version 2.43.0 (0)
 -->
<!-- Title: src/Utilities/Parsing/DataFlash/DataFlashUtility.h Pages: 1 -->
<svg width="326pt" height="104pt"
 viewBox="0.00 0.00 326.00 104.00" xmlns="http://www.w3.org/2000/svg" xmlns:xlink="http://www.w3.org/1999/xlink">
<g id="graph0" class="graph" transform="scale(1 1) rotate(0) translate(4 100)">
<title>src/Utilities/Parsing/DataFlash/DataFlashUtility.h</title>
<!-- Node1 -->
<g id="Node000001" class="node">
<title>Node1</title>
<g id="a_Node000001"><a xlink:title=" ">
<polygon fill="#999999" stroke="#666666" points="231.5,-96 72.5,-96 72.5,-66 231.5,-66 231.5,-96"/>
<text text-anchor="start" x="80.5" y="-84" font-family="Helvetica,sans-Serif" font-size="10.00">src/Utilities/Parsing</text>
<text text-anchor="middle" x="152" y="-73" font-family="Helvetica,sans-Serif" font-size="10.00">/DataFlash/DataFlashUtility.h</text>
</a>
</g>
</g>
<!-- Node2 -->
<g id="Node000002" class="node">
<title>Node2</title>
<g id="a_Node000002"><a xlink:href="DataFlashParser_8cc.html" target="_top" xlink:title=" ">
<polygon fill="white" stroke="#666666" points="136,-30 0,-30 0,0 136,0 136,-30"/>
<text text-anchor="start" x="8" y="-18" font-family="Helvetica,sans-Serif" font-size="10.00">src/AnalyzeView/GeoTag</text>
<text text-anchor="middle" x="68" y="-7" font-family="Helvetica,sans-Serif" font-size="10.00">/DataFlashParser.cc</text>
</a>
</g>
</g>
<!-- Node1&#45;&gt;Node2 -->
<g id="edge1_Node000001_Node000002" class="edge">
<title>Node1&#45;&gt;Node2</title>
<g id="a_edge1_Node000001_Node000002"><a xlink:title=" ">
<path fill="none" stroke="#63b8ff" d="M125.06,-59.48C112.51,-49.91 97.89,-38.77 86.59,-30.16"/>
<polygon fill="#63b8ff" stroke="#63b8ff" points="123.28,-62.52 133.36,-65.8 127.52,-56.95 123.28,-62.52"/>
</a>
</g>
</g>
<!-- Node3 -->
<g id="Node000003" class="node">
<title>Node3</title>
<g id="a_Node000003"><a xlink:href="DataFlashUtility_8cc.html" target="_top" xlink:title=" ">
<polygon fill="white" stroke="#666666" points="318,-30 154,-30 154,0 318,0 318,-30"/>
<text text-anchor="start" x="162" y="-18" font-family="Helvetica,sans-Serif" font-size="10.00">src/Utilities/Parsing</text>
<text text-anchor="middle" x="236" y="-7" font-family="Helvetica,sans-Serif" font-size="10.00">/DataFlash/DataFlashUtility.cc</text>
</a>
</g>
</g>
<!-- Node1&#45;&gt;Node3 -->
<g id="edge2_Node000001_Node000003" class="edge">
<title>Node1&#45;&gt;Node3</title>
<g id="a_edge2_Node000001_Node000003"><a xlink:title=" ">
<path fill="none" stroke="#63b8ff" d="M178.94,-59.48C191.49,-49.91 206.11,-38.77 217.41,-30.16"/>
<polygon fill="#63b8ff" stroke="#63b8ff" points="176.48,-56.95 170.64,-65.8 180.72,-62.52 176.48,-56.95"/>
</a>
</g>
</g>
</g>
</svg>
