<?xml version="1.0" encoding="UTF-8" standalone="no"?>
<!DOCTYPE svg PUBLIC "-//W3C//DTD SVG 1.1//EN"
 "http://www.w3.org/Graphics/SVG/1.1/DTD/svg11.dtd">
<!-- Generated by graphviz version 2.43.0 (0)
 -->
<!-- Title: src/Utilities/DeviceInfo.cc Pages: 1 -->
<svg width="902pt" height="148pt"
 viewBox="0.00 0.00 901.50 148.00" xmlns="http://www.w3.org/2000/svg" xmlns:xlink="http://www.w3.org/1999/xlink">
<g id="graph0" class="graph" transform="scale(1 1) rotate(0) translate(4 144)">
<title>src/Utilities/DeviceInfo.cc</title>
<!-- Node1 -->
<g id="Node000001" class="node">
<title>Node1</title>
<g id="a_Node000001"><a xlink:title=" ">
<polygon fill="#999999" stroke="#666666" points="738.5,-140 597.5,-140 597.5,-121 738.5,-121 738.5,-140"/>
<text text-anchor="middle" x="668" y="-128" font-family="Helvetica,sans-Serif" font-size="10.00">src/Utilities/DeviceInfo.cc</text>
</a>
</g>
</g>
<!-- Node2 -->
<g id="Node000002" class="node">
<title>Node2</title>
<g id="a_Node000002"><a xlink:href="DeviceInfo_8h.html" target="_top" xlink:title=" ">
<polygon fill="white" stroke="#666666" points="486,-85 408,-85 408,-66 486,-66 486,-85"/>
<text text-anchor="middle" x="447" y="-73" font-family="Helvetica,sans-Serif" font-size="10.00">DeviceInfo.h</text>
</a>
</g>
</g>
<!-- Node1&#45;&gt;Node2 -->
<g id="edge1_Node000001_Node000002" class="edge">
<title>Node1&#45;&gt;Node2</title>
<g id="a_edge1_Node000001_Node000002"><a xlink:title=" ">
<path fill="none" stroke="#63b8ff" d="M632.49,-120.98C594.51,-111.87 534.13,-97.4 492.64,-87.45"/>
<polygon fill="#63b8ff" stroke="#63b8ff" points="493.33,-84.01 482.79,-85.08 491.69,-90.82 493.33,-84.01"/>
</a>
</g>
</g>
<!-- Node7 -->
<g id="Node000007" class="node">
<title>Node7</title>
<g id="a_Node000007"><a xlink:href="QGCLoggingCategory_8h.html" target="_top" xlink:title=" ">
<polygon fill="white" stroke="#666666" points="732,-85 604,-85 604,-66 732,-66 732,-85"/>
<text text-anchor="middle" x="668" y="-73" font-family="Helvetica,sans-Serif" font-size="10.00">QGCLoggingCategory.h</text>
</a>
</g>
</g>
<!-- Node1&#45;&gt;Node7 -->
<g id="edge6_Node000001_Node000007" class="edge">
<title>Node1&#45;&gt;Node7</title>
<g id="a_edge6_Node000001_Node000007"><a xlink:title=" ">
<path fill="none" stroke="#63b8ff" d="M668,-120.75C668,-113.8 668,-103.85 668,-95.13"/>
<polygon fill="#63b8ff" stroke="#63b8ff" points="671.5,-95.09 668,-85.09 664.5,-95.09 671.5,-95.09"/>
</a>
</g>
</g>
<!-- Node9 -->
<g id="Node000009" class="node">
<title>Node9</title>
<g id="a_Node000009"><a xlink:title=" ">
<polygon fill="#e0e0e0" stroke="#999999" points="893.5,-85 750.5,-85 750.5,-66 893.5,-66 893.5,-85"/>
<text text-anchor="middle" x="822" y="-73" font-family="Helvetica,sans-Serif" font-size="10.00">QtCore/QApplicationStatic</text>
</a>
</g>
</g>
<!-- Node1&#45;&gt;Node9 -->
<g id="edge8_Node000001_Node000009" class="edge">
<title>Node1&#45;&gt;Node9</title>
<g id="a_edge8_Node000001_Node000009"><a xlink:title=" ">
<path fill="none" stroke="#63b8ff" d="M692.74,-120.98C718.37,-112.16 758.63,-98.31 787.41,-88.41"/>
<polygon fill="#63b8ff" stroke="#63b8ff" points="788.75,-91.65 797.06,-85.08 786.47,-85.03 788.75,-91.65"/>
</a>
</g>
</g>
<!-- Node3 -->
<g id="Node000003" class="node">
<title>Node3</title>
<g id="a_Node000003"><a xlink:title=" ">
<polygon fill="#e0e0e0" stroke="#999999" points="170,-24.5 0,-24.5 0,-5.5 170,-5.5 170,-24.5"/>
<text text-anchor="middle" x="85" y="-12.5" font-family="Helvetica,sans-Serif" font-size="10.00">QtPositioning/QGeoPositionInfo</text>
</a>
</g>
</g>
<!-- Node2&#45;&gt;Node3 -->
<g id="edge2_Node000002_Node000003" class="edge">
<title>Node2&#45;&gt;Node3</title>
<g id="a_edge2_Node000002_Node000003"><a xlink:title=" ">
<path fill="none" stroke="#63b8ff" d="M407.92,-68.18C345.49,-58.1 222.72,-38.26 147.85,-26.16"/>
<polygon fill="#63b8ff" stroke="#63b8ff" points="148.04,-22.64 137.61,-24.5 146.93,-29.55 148.04,-22.64"/>
</a>
</g>
</g>
<!-- Node4 -->
<g id="Node000004" class="node">
<title>Node4</title>
<g id="a_Node000004"><a xlink:title=" ">
<polygon fill="#e0e0e0" stroke="#999999" points="367.5,-30 188.5,-30 188.5,0 367.5,0 367.5,-30"/>
<text text-anchor="start" x="196.5" y="-18" font-family="Helvetica,sans-Serif" font-size="10.00">QtSensors/QAmbientTemperature</text>
<text text-anchor="middle" x="278" y="-7" font-family="Helvetica,sans-Serif" font-size="10.00">Sensor</text>
</a>
</g>
</g>
<!-- Node2&#45;&gt;Node4 -->
<g id="edge3_Node000002_Node000004" class="edge">
<title>Node2&#45;&gt;Node4</title>
<g id="a_edge3_Node000002_Node000004"><a xlink:title=" ">
<path fill="none" stroke="#63b8ff" d="M422.43,-65.99C397.89,-57.5 359.47,-44.2 328.42,-33.45"/>
<polygon fill="#63b8ff" stroke="#63b8ff" points="329.22,-30.03 318.63,-30.06 326.94,-36.64 329.22,-30.03"/>
</a>
</g>
</g>
<!-- Node5 -->
<g id="Node000005" class="node">
<title>Node5</title>
<g id="a_Node000005"><a xlink:title=" ">
<polygon fill="#e0e0e0" stroke="#999999" points="508,-24.5 386,-24.5 386,-5.5 508,-5.5 508,-24.5"/>
<text text-anchor="middle" x="447" y="-12.5" font-family="Helvetica,sans-Serif" font-size="10.00">QtSensors/QCompass</text>
</a>
</g>
</g>
<!-- Node2&#45;&gt;Node5 -->
<g id="edge4_Node000002_Node000005" class="edge">
<title>Node2&#45;&gt;Node5</title>
<g id="a_edge4_Node000002_Node000005"><a xlink:title=" ">
<path fill="none" stroke="#63b8ff" d="M447,-65.87C447,-57.75 447,-45.31 447,-34.89"/>
<polygon fill="#63b8ff" stroke="#63b8ff" points="450.5,-34.67 447,-24.67 443.5,-34.67 450.5,-34.67"/>
</a>
</g>
</g>
<!-- Node6 -->
<g id="Node000006" class="node">
<title>Node6</title>
<g id="a_Node000006"><a xlink:title=" ">
<polygon fill="#e0e0e0" stroke="#999999" points="678,-24.5 526,-24.5 526,-5.5 678,-5.5 678,-24.5"/>
<text text-anchor="middle" x="602" y="-12.5" font-family="Helvetica,sans-Serif" font-size="10.00">QtSensors/QPressureSensor</text>
</a>
</g>
</g>
<!-- Node2&#45;&gt;Node6 -->
<g id="edge5_Node000002_Node000006" class="edge">
<title>Node2&#45;&gt;Node6</title>
<g id="a_edge5_Node000002_Node000006"><a xlink:title=" ">
<path fill="none" stroke="#63b8ff" d="M469.54,-65.99C495.94,-56.03 539.88,-39.45 569.85,-28.13"/>
<polygon fill="#63b8ff" stroke="#63b8ff" points="571.31,-31.32 579.43,-24.52 568.84,-24.77 571.31,-31.32"/>
</a>
</g>
</g>
<!-- Node8 -->
<g id="Node000008" class="node">
<title>Node8</title>
<g id="a_Node000008"><a xlink:title=" ">
<polygon fill="#e0e0e0" stroke="#999999" points="839.5,-24.5 696.5,-24.5 696.5,-5.5 839.5,-5.5 839.5,-24.5"/>
<text text-anchor="middle" x="768" y="-12.5" font-family="Helvetica,sans-Serif" font-size="10.00">QtCore/QLoggingCategory</text>
</a>
</g>
</g>
<!-- Node7&#45;&gt;Node8 -->
<g id="edge7_Node000007_Node000008" class="edge">
<title>Node7&#45;&gt;Node8</title>
<g id="a_edge7_Node000007_Node000008"><a xlink:title=" ">
<path fill="none" stroke="#63b8ff" d="M682.76,-65.87C699,-56.36 725.35,-40.95 744.46,-29.77"/>
<polygon fill="#63b8ff" stroke="#63b8ff" points="746.32,-32.74 753.18,-24.67 742.79,-26.7 746.32,-32.74"/>
</a>
</g>
</g>
</g>
</svg>
