<?xml version="1.0" encoding="UTF-8" standalone="no"?>
<!DOCTYPE svg PUBLIC "-//W3C//DTD SVG 1.1//EN"
 "http://www.w3.org/Graphics/SVG/1.1/DTD/svg11.dtd">
<!-- Generated by graphviz version 2.43.0 (0)
 -->
<!-- Title: src/AutoPilotPlugins Pages: 1 -->
<!--zoomable 196 -->

<svg id="main" version="1.1" xmlns="http://www.w3.org/2000/svg" xmlns:xlink="http://www.w3.org/1999/xlink" xml:space="preserve" onload="init(evt)">
<style type="text/css"><![CDATA[
.node, .edge {opacity: 0.7;}
.node.selected, .edge.selected {opacity: 1;}
.edge:hover path { stroke: red; }
.edge:hover polygon { stroke: red; fill: red; }
]]></style>

<defs>
  <circle id="rim" cx="0" cy="0" r="7"/>
  <circle id="rim2" cx="0" cy="0" r="3.5"/>
  <g id="zoomPlus">
    <use xlink:href="#rim" fill="#404040"><set attributeName="fill" to="#808080" begin="zoomplus.mouseover" end="zoomplus.mouseout"/></use>
    <path d="M-4,0h8M0,-4v8" fill="none" stroke="white" stroke-width="1.5" pointer-events="none"/>
  </g>
  <g id="zoomMin">
    <use xlink:href="#rim" fill="#404040"><set attributeName="fill" to="#808080" begin="zoomminus.mouseover" end="zoomminus.mouseout"/></use>
    <path d="M-4,0h8" fill="none" stroke="white" stroke-width="1.5" pointer-events="none"/>
  </g>
  <g id="arrowUp" transform="translate(30 24)">
    <use xlink:href="#rim"/>
    <path pointer-events="none" fill="none" stroke="white" stroke-width="1.5" d="M0,-3.0v7 M-2.5,-0.5L0,-3.0L2.5,-0.5"/>
  </g>
  <g id="arrowRight" transform="rotate(90) translate(36 -43)">
    <use xlink:href="#rim"/>
    <path pointer-events="none" fill="none" stroke="white" stroke-width="1.5" d="M0,-3.0v7 M-2.5,-0.5L0,-3.0L2.5,-0.5"/>
  </g>
  <g id="arrowDown" transform="rotate(180) translate(-30 -48)">
    <use xlink:href="#rim"/>
    <path pointer-events="none" fill="none" stroke="white" stroke-width="1.5" d="M0,-3.0v7 M-2.5,-0.5L0,-3.0L2.5,-0.5"/>
  </g>
  <g id="arrowLeft" transform="rotate(270) translate(-36 17)">
    <use xlink:href="#rim"/>
    <path pointer-events="none" fill="none" stroke="white" stroke-width="1.5" d="M0,-3.0v7 M-2.5,-0.5L0,-3.0L2.5,-0.5"/>
  </g>
  <g id="resetDef">
    <use xlink:href="#rim2" fill="#404040"><set attributeName="fill" to="#808080" begin="reset.mouseover" end="reset.mouseout"/></use>
  </g>
</defs>
<script type="application/ecmascript">
var viewWidth = 729;
var viewHeight = 196;
var sectionId = 'dynsection-0';
</script>
<script type="application/ecmascript" xlink:href="svg.min.js"/>
<svg id="graph" class="graph">
<g id="viewport">
<title>src/AutoPilotPlugins</title>
<g id="clust1" class="cluster">
<title>clusterdir_68267d1309a1af8e8297ef4c3efbcdba</title>
<g id="a_clust1"><a xlink:href="dir_68267d1309a1af8e8297ef4c3efbcdba.html" target="_top" xlink:title="src">
<polygon fill="#edf0f7" stroke="#404040" stroke-dasharray="5,2" points="8,-8 8,-180 713,-180 713,-8 8,-8"/>
<text text-anchor="middle" x="360.5" y="-168" font-family="Helvetica,sans-Serif" font-size="10.00">src</text>
</a>
</g>
</g>
<g id="clust2" class="cluster">
<title>clusterdir_cc8aaf6495c50689825ad8387a418235</title>
<g id="a_clust2"><a xlink:href="dir_cc8aaf6495c50689825ad8387a418235.html" target="_top">
<polygon fill="#edf0f7" stroke="#404040" stroke-width="2" points="136,-63 136,-153 430,-153 430,-63 136,-63"/>
</a>
</g>
</g>
<!-- dir_179bf47964619e91d8f4b948968d2dcb -->
<g id="node1" class="node">
<title>dir_179bf47964619e91d8f4b948968d2dcb</title>
<g id="a_node1"><a xlink:href="dir_179bf47964619e91d8f4b948968d2dcb.html" target="_top" xlink:title="MAVLink">
<polygon fill="#a2b4d6" stroke="red" points="664.5,-90 605.5,-90 605.5,-71 664.5,-71 664.5,-90"/>
<text text-anchor="middle" x="635" y="-78" font-family="Helvetica,sans-Serif" font-size="10.00">MAVLink</text>
</a>
</g>
</g>
<!-- dir_2728a19ac4d342276b17ec9828d0d8ad -->
<g id="node2" class="node">
<title>dir_2728a19ac4d342276b17ec9828d0d8ad</title>
<g id="a_node2"><a xlink:href="dir_2728a19ac4d342276b17ec9828d0d8ad.html" target="_top" xlink:title="Comms">
<polygon fill="#a2b4d6" stroke="red" points="492,-90 438,-90 438,-71 492,-71 492,-90"/>
<text text-anchor="middle" x="465" y="-78" font-family="Helvetica,sans-Serif" font-size="10.00">Comms</text>
</a>
</g>
</g>
<!-- dir_57fd63fe491ef075147d1cb32299e674 -->
<g id="node3" class="node">
<title>dir_57fd63fe491ef075147d1cb32299e674</title>
<g id="a_node3"><a xlink:href="dir_57fd63fe491ef075147d1cb32299e674.html" target="_top" xlink:title="QmlControls">
<polygon fill="#a2b4d6" stroke="#404040" points="587.5,-90 510.5,-90 510.5,-71 587.5,-71 587.5,-90"/>
<text text-anchor="middle" x="549" y="-78" font-family="Helvetica,sans-Serif" font-size="10.00">QmlControls</text>
</a>
</g>
</g>
<!-- dir_924006918299b661f7f5467ff93fed23 -->
<g id="node4" class="node">
<title>dir_924006918299b661f7f5467ff93fed23</title>
<g id="a_node4"><a xlink:href="dir_924006918299b661f7f5467ff93fed23.html" target="_top" xlink:title="Vehicle">
<polygon fill="#a2b4d6" stroke="red" points="215,-35 163,-35 163,-16 215,-16 215,-35"/>
<text text-anchor="middle" x="189" y="-23" font-family="Helvetica,sans-Serif" font-size="10.00">Vehicle</text>
</a>
</g>
</g>
<!-- dir_96e291b54c69d4ab37cadc9baf789be5 -->
<g id="node5" class="node">
<title>dir_96e291b54c69d4ab37cadc9baf789be5</title>
<g id="a_node5"><a xlink:href="dir_96e291b54c69d4ab37cadc9baf789be5.html" target="_top" xlink:title="FirmwarePlugin">
<polygon fill="#a2b4d6" stroke="red" points="128,-90 36,-90 36,-71 128,-71 128,-90"/>
<text text-anchor="middle" x="82" y="-78" font-family="Helvetica,sans-Serif" font-size="10.00">FirmwarePlugin</text>
</a>
</g>
</g>
<!-- dir_9fa1f6896f2c68d8c6f5e454a6a72ce4 -->
<g id="node6" class="node">
<title>dir_9fa1f6896f2c68d8c6f5e454a6a72ce4</title>
<g id="a_node6"><a xlink:href="dir_9fa1f6896f2c68d8c6f5e454a6a72ce4.html" target="_top" xlink:title="FactSystem">
<polygon fill="#a2b4d6" stroke="red" points="452.5,-35 379.5,-35 379.5,-16 452.5,-16 452.5,-35"/>
<text text-anchor="middle" x="416" y="-23" font-family="Helvetica,sans-Serif" font-size="10.00">FactSystem</text>
</a>
</g>
</g>
<!-- dir_ff383ddf1aa4eab0c4ce7910366d05a5 -->
<g id="node7" class="node">
<title>dir_ff383ddf1aa4eab0c4ce7910366d05a5</title>
<g id="a_node7"><a xlink:href="dir_ff383ddf1aa4eab0c4ce7910366d05a5.html" target="_top" xlink:title="Utilities">
<polygon fill="#a2b4d6" stroke="red" points="361.5,-35 306.5,-35 306.5,-16 361.5,-16 361.5,-35"/>
<text text-anchor="middle" x="334" y="-23" font-family="Helvetica,sans-Serif" font-size="10.00">Utilities</text>
</a>
</g>
</g>
<!-- dir_df3471da428c92590d85ed8754a76078 -->
<g id="node8" class="node">
<title>dir_df3471da428c92590d85ed8754a76078</title>
<g id="a_node8"><a xlink:href="dir_df3471da428c92590d85ed8754a76078.html" target="_top" xlink:title="Joystick">
<polygon fill="#a2b4d6" stroke="#404040" points="288.5,-35 233.5,-35 233.5,-16 288.5,-16 288.5,-35"/>
<text text-anchor="middle" x="261" y="-23" font-family="Helvetica,sans-Serif" font-size="10.00">Joystick</text>
</a>
</g>
</g>
<!-- dir_cc8aaf6495c50689825ad8387a418235 -->
<g id="node9" class="node">
<title>dir_cc8aaf6495c50689825ad8387a418235</title>
<text text-anchor="middle" x="264" y="-133" font-family="Helvetica,sans-Serif" font-size="10.00">AutoPilotPlugins</text>
</g>
<!-- dir_cc8aaf6495c50689825ad8387a418235&#45;&gt;dir_924006918299b661f7f5467ff93fed23 -->
<g id="edge1" class="edge">
<title>dir_cc8aaf6495c50689825ad8387a418235&#45;&gt;dir_924006918299b661f7f5467ff93fed23</title>
<g id="a_edge1"><a xlink:href="dir_000009_000079.html" target="_top">
<path fill="none" stroke="#63b8ff" d="M215.89,-127.07C148.38,-116.41 33.03,-97.27 27,-90 -9.14,-46.45 94.37,-32.63 152.49,-28.35"/>
<polygon fill="#63b8ff" stroke="#63b8ff" points="153.03,-31.83 162.77,-27.66 152.56,-24.84 153.03,-31.83"/>
</a>
</g>
<g id="a_edge1&#45;headlabel"><a xlink:href="dir_000009_000079.html" target="_top" xlink:title="45">
<text text-anchor="middle" x="149.64" y="-32.4" font-family="Helvetica,sans-Serif" font-size="10.00" fill="#63b8ff">45</text>
</a>
</g>
</g>
<!-- dir_cc8aaf6495c50689825ad8387a418235&#45;&gt;dir_96e291b54c69d4ab37cadc9baf789be5 -->
<g id="edge2" class="edge">
<title>dir_cc8aaf6495c50689825ad8387a418235&#45;&gt;dir_96e291b54c69d4ab37cadc9baf789be5</title>
<g id="a_edge2"><a xlink:href="dir_000009_000024.html" target="_top">
<path fill="none" stroke="#63b8ff" d="M234.76,-125.98C203.94,-117.01 155.22,-102.82 121.11,-92.89"/>
<polygon fill="#63b8ff" stroke="#63b8ff" points="122.05,-89.52 111.47,-90.08 120.09,-96.24 122.05,-89.52"/>
</a>
</g>
<g id="a_edge2&#45;headlabel"><a xlink:href="dir_000009_000024.html" target="_top" xlink:title="4">
<text text-anchor="middle" x="126.3" y="-85.3" font-family="Helvetica,sans-Serif" font-size="10.00" fill="#63b8ff">4</text>
</a>
</g>
</g>
<!-- dir_cc8aaf6495c50689825ad8387a418235&#45;&gt;dir_9fa1f6896f2c68d8c6f5e454a6a72ce4 -->
<g id="edge3" class="edge">
<title>dir_cc8aaf6495c50689825ad8387a418235&#45;&gt;dir_9fa1f6896f2c68d8c6f5e454a6a72ce4</title>
<g id="a_edge3"><a xlink:href="dir_000009_000022.html" target="_top">
<path fill="none" stroke="#63b8ff" d="M276.18,-125.84C302.2,-107.36 363.42,-63.86 395.53,-41.05"/>
<polygon fill="#63b8ff" stroke="#63b8ff" points="397.64,-43.84 403.76,-35.2 393.58,-38.14 397.64,-43.84"/>
</a>
</g>
<g id="a_edge3&#45;headlabel"><a xlink:href="dir_000009_000022.html" target="_top" xlink:title="38">
<text text-anchor="middle" x="396.35" y="-45.74" font-family="Helvetica,sans-Serif" font-size="10.00" fill="#63b8ff">38</text>
</a>
</g>
</g>
<!-- dir_cc8aaf6495c50689825ad8387a418235&#45;&gt;dir_ff383ddf1aa4eab0c4ce7910366d05a5 -->
<g id="edge4" class="edge">
<title>dir_cc8aaf6495c50689825ad8387a418235&#45;&gt;dir_ff383ddf1aa4eab0c4ce7910366d05a5</title>
<g id="a_edge4"><a xlink:href="dir_000009_000078.html" target="_top">
<path fill="none" stroke="#63b8ff" d="M272.25,-125.74C280.18,-117.07 292.21,-103.22 301,-90 310.77,-75.3 319.85,-57.37 326.01,-44.31"/>
<polygon fill="#63b8ff" stroke="#63b8ff" points="329.27,-45.59 330.27,-35.04 322.91,-42.66 329.27,-45.59"/>
</a>
</g>
<g id="a_edge4&#45;headlabel"><a xlink:href="dir_000009_000078.html" target="_top" xlink:title="23">
<text text-anchor="middle" x="330.35" y="-47.54" font-family="Helvetica,sans-Serif" font-size="10.00" fill="#63b8ff">23</text>
</a>
</g>
</g>
<!-- dir_b125c1a6d6bd38bad076914ead21a0c9 -->
<g id="node10" class="node">
<title>dir_b125c1a6d6bd38bad076914ead21a0c9</title>
<g id="a_node10"><a xlink:href="dir_b125c1a6d6bd38bad076914ead21a0c9.html" target="_top" xlink:title="APM">
<polygon fill="#a2b4d6" stroke="#404040" points="368,-145 330,-145 330,-126 368,-126 368,-145"/>
<text text-anchor="middle" x="349" y="-133" font-family="Helvetica,sans-Serif" font-size="10.00">APM</text>
</a>
</g>
</g>
<!-- dir_b125c1a6d6bd38bad076914ead21a0c9&#45;&gt;dir_179bf47964619e91d8f4b948968d2dcb -->
<g id="edge5" class="edge">
<title>dir_b125c1a6d6bd38bad076914ead21a0c9&#45;&gt;dir_179bf47964619e91d8f4b948968d2dcb</title>
<g id="a_edge5"><a xlink:href="dir_000005_000044.html" target="_top">
<path fill="none" stroke="#63b8ff" d="M368.26,-128.5C371.49,-127.59 374.83,-126.72 378,-126 471.08,-104.79 498.42,-108.5 595.25,-90.24"/>
<polygon fill="#63b8ff" stroke="#63b8ff" points="596,-93.66 605.16,-88.34 594.68,-86.79 596,-93.66"/>
</a>
</g>
<g id="a_edge5&#45;headlabel"><a xlink:href="dir_000005_000044.html" target="_top" xlink:title="7">
<text text-anchor="middle" x="593" y="-94.63" font-family="Helvetica,sans-Serif" font-size="10.00" fill="#63b8ff">7</text>
</a>
</g>
</g>
<!-- dir_b125c1a6d6bd38bad076914ead21a0c9&#45;&gt;dir_2728a19ac4d342276b17ec9828d0d8ad -->
<g id="edge6" class="edge">
<title>dir_b125c1a6d6bd38bad076914ead21a0c9&#45;&gt;dir_2728a19ac4d342276b17ec9828d0d8ad</title>
<g id="a_edge6"><a xlink:href="dir_000005_000013.html" target="_top">
<path fill="none" stroke="#63b8ff" d="M367.64,-125.98C386.3,-117.46 415.25,-104.23 436.74,-94.41"/>
<polygon fill="#63b8ff" stroke="#63b8ff" points="438.38,-97.51 446.02,-90.17 435.47,-91.14 438.38,-97.51"/>
</a>
</g>
<g id="a_edge6&#45;headlabel"><a xlink:href="dir_000005_000013.html" target="_top" xlink:title="3">
<text text-anchor="middle" x="436.29" y="-99.09" font-family="Helvetica,sans-Serif" font-size="10.00" fill="#63b8ff">3</text>
</a>
</g>
</g>
<!-- dir_b125c1a6d6bd38bad076914ead21a0c9&#45;&gt;dir_57fd63fe491ef075147d1cb32299e674 -->
<g id="edge8" class="edge">
<title>dir_b125c1a6d6bd38bad076914ead21a0c9&#45;&gt;dir_57fd63fe491ef075147d1cb32299e674</title>
<g id="a_edge8"><a xlink:href="dir_000005_000063.html" target="_top">
<path fill="none" stroke="#63b8ff" d="M368.01,-128.84C371.33,-127.87 374.76,-126.9 378,-126 421.06,-114.09 470.46,-101.33 505.06,-92.54"/>
<polygon fill="#63b8ff" stroke="#63b8ff" points="506.02,-95.91 514.85,-90.06 504.3,-89.12 506.02,-95.91"/>
</a>
</g>
<g id="a_edge8&#45;headlabel"><a xlink:href="dir_000005_000063.html" target="_top" xlink:title="2">
<text text-anchor="middle" x="503.23" y="-97.04" font-family="Helvetica,sans-Serif" font-size="10.00" fill="#63b8ff">2</text>
</a>
</g>
</g>
<!-- dir_b125c1a6d6bd38bad076914ead21a0c9&#45;&gt;dir_924006918299b661f7f5467ff93fed23 -->
<g id="edge9" class="edge">
<title>dir_b125c1a6d6bd38bad076914ead21a0c9&#45;&gt;dir_924006918299b661f7f5467ff93fed23</title>
<g id="a_edge9"><a xlink:href="dir_000005_000079.html" target="_top">
<path fill="none" stroke="#63b8ff" d="M329.89,-128.68C291.19,-116.88 207.11,-91.15 206,-90 194.52,-78.05 190.59,-59.23 189.35,-45.18"/>
<polygon fill="#63b8ff" stroke="#63b8ff" points="192.84,-44.96 188.83,-35.15 185.85,-45.32 192.84,-44.96"/>
</a>
</g>
<g id="a_edge9&#45;headlabel"><a xlink:href="dir_000005_000079.html" target="_top" xlink:title="21">
<text text-anchor="middle" x="195.86" y="-45.9" font-family="Helvetica,sans-Serif" font-size="10.00" fill="#63b8ff">21</text>
</a>
</g>
</g>
<!-- dir_b125c1a6d6bd38bad076914ead21a0c9&#45;&gt;dir_96e291b54c69d4ab37cadc9baf789be5 -->
<g id="edge10" class="edge">
<title>dir_b125c1a6d6bd38bad076914ead21a0c9&#45;&gt;dir_96e291b54c69d4ab37cadc9baf789be5</title>
<g id="a_edge10"><a xlink:href="dir_000005_000024.html" target="_top">
<path fill="none" stroke="#63b8ff" d="M329.8,-128.37C326.87,-127.52 323.86,-126.7 321,-126 287.13,-117.73 197.46,-101.61 138.1,-91.2"/>
<polygon fill="#63b8ff" stroke="#63b8ff" points="138.57,-87.73 128.12,-89.46 137.36,-94.63 138.57,-87.73"/>
</a>
</g>
<g id="a_edge10&#45;headlabel"><a xlink:href="dir_000005_000024.html" target="_top" xlink:title="3">
<text text-anchor="middle" x="142.6" y="-83.06" font-family="Helvetica,sans-Serif" font-size="10.00" fill="#63b8ff">3</text>
</a>
</g>
</g>
<!-- dir_b125c1a6d6bd38bad076914ead21a0c9&#45;&gt;dir_9fa1f6896f2c68d8c6f5e454a6a72ce4 -->
<g id="edge11" class="edge">
<title>dir_b125c1a6d6bd38bad076914ead21a0c9&#45;&gt;dir_9fa1f6896f2c68d8c6f5e454a6a72ce4</title>
<g id="a_edge11"><a xlink:href="dir_000005_000022.html" target="_top">
<path fill="none" stroke="#63b8ff" d="M354.48,-125.66C365.58,-107.77 390.87,-67 405.33,-43.69"/>
<polygon fill="#63b8ff" stroke="#63b8ff" points="408.33,-45.5 410.63,-35.16 402.38,-41.81 408.33,-45.5"/>
</a>
</g>
<g id="a_edge11&#45;headlabel"><a xlink:href="dir_000005_000022.html" target="_top" xlink:title="15">
<text text-anchor="middle" x="408.85" y="-47.55" font-family="Helvetica,sans-Serif" font-size="10.00" fill="#63b8ff">15</text>
</a>
</g>
</g>
<!-- dir_b125c1a6d6bd38bad076914ead21a0c9&#45;&gt;dir_ff383ddf1aa4eab0c4ce7910366d05a5 -->
<g id="edge12" class="edge">
<title>dir_b125c1a6d6bd38bad076914ead21a0c9&#45;&gt;dir_ff383ddf1aa4eab0c4ce7910366d05a5</title>
<g id="a_edge12"><a xlink:href="dir_000005_000078.html" target="_top">
<path fill="none" stroke="#63b8ff" d="M347.77,-125.66C345.34,-108.17 339.88,-68.8 336.61,-45.27"/>
<polygon fill="#63b8ff" stroke="#63b8ff" points="340.05,-44.58 335.2,-35.16 333.11,-45.54 340.05,-44.58"/>
</a>
</g>
<g id="a_edge12&#45;headlabel"><a xlink:href="dir_000005_000078.html" target="_top" xlink:title="7">
<text text-anchor="middle" x="343.35" y="-45.25" font-family="Helvetica,sans-Serif" font-size="10.00" fill="#63b8ff">7</text>
</a>
</g>
</g>
<!-- dir_2a5f5dccd383e4c8e6d85fe2660fb274 -->
<g id="node11" class="node">
<title>dir_2a5f5dccd383e4c8e6d85fe2660fb274</title>
<g id="a_node11"><a xlink:href="dir_2a5f5dccd383e4c8e6d85fe2660fb274.html" target="_top" xlink:title="Common">
<polygon fill="#a2b4d6" stroke="#404040" points="291.5,-90 230.5,-90 230.5,-71 291.5,-71 291.5,-90"/>
<text text-anchor="middle" x="261" y="-78" font-family="Helvetica,sans-Serif" font-size="10.00">Common</text>
</a>
</g>
</g>
<!-- dir_b125c1a6d6bd38bad076914ead21a0c9&#45;&gt;dir_2a5f5dccd383e4c8e6d85fe2660fb274 -->
<g id="edge7" class="edge">
<title>dir_b125c1a6d6bd38bad076914ead21a0c9&#45;&gt;dir_2a5f5dccd383e4c8e6d85fe2660fb274</title>
<g id="a_edge7"><a xlink:href="dir_000005_000012.html" target="_top">
<path fill="none" stroke="#63b8ff" d="M334.86,-125.98C321.21,-117.77 300.31,-105.18 284.22,-95.49"/>
<polygon fill="#63b8ff" stroke="#63b8ff" points="285.77,-92.33 275.4,-90.17 282.16,-98.33 285.77,-92.33"/>
</a>
</g>
<g id="a_edge7&#45;headlabel"><a xlink:href="dir_000005_000012.html" target="_top" xlink:title="4">
<text text-anchor="middle" x="290.31" y="-89.25" font-family="Helvetica,sans-Serif" font-size="10.00" fill="#63b8ff">4</text>
</a>
</g>
</g>
<!-- dir_2a5f5dccd383e4c8e6d85fe2660fb274&#45;&gt;dir_924006918299b661f7f5467ff93fed23 -->
<g id="edge13" class="edge">
<title>dir_2a5f5dccd383e4c8e6d85fe2660fb274&#45;&gt;dir_924006918299b661f7f5467ff93fed23</title>
<g id="a_edge13"><a xlink:href="dir_000012_000079.html" target="_top">
<path fill="none" stroke="#63b8ff" d="M249.43,-70.98C238.58,-63 222.12,-50.88 209.12,-41.31"/>
<polygon fill="#63b8ff" stroke="#63b8ff" points="210.91,-38.28 200.78,-35.17 206.76,-43.92 210.91,-38.28"/>
</a>
</g>
<g id="a_edge13&#45;headlabel"><a xlink:href="dir_000012_000079.html" target="_top" xlink:title="4">
<text text-anchor="middle" x="215.48" y="-35.62" font-family="Helvetica,sans-Serif" font-size="10.00" fill="#63b8ff">4</text>
</a>
</g>
</g>
<!-- dir_2a5f5dccd383e4c8e6d85fe2660fb274&#45;&gt;dir_9fa1f6896f2c68d8c6f5e454a6a72ce4 -->
<g id="edge14" class="edge">
<title>dir_2a5f5dccd383e4c8e6d85fe2660fb274&#45;&gt;dir_9fa1f6896f2c68d8c6f5e454a6a72ce4</title>
<g id="a_edge14"><a xlink:href="dir_000012_000022.html" target="_top">
<path fill="none" stroke="#63b8ff" d="M277.87,-70.94C283.56,-68.22 289.98,-65.32 296,-63 321.31,-53.24 350.4,-44.34 373.6,-37.77"/>
<polygon fill="#63b8ff" stroke="#63b8ff" points="374.79,-41.07 383.48,-35.01 372.91,-34.33 374.79,-41.07"/>
</a>
</g>
<g id="a_edge14&#45;headlabel"><a xlink:href="dir_000012_000022.html" target="_top" xlink:title="6">
<text text-anchor="middle" x="372.09" y="-42.27" font-family="Helvetica,sans-Serif" font-size="10.00" fill="#63b8ff">6</text>
</a>
</g>
</g>
<!-- dir_2a5f5dccd383e4c8e6d85fe2660fb274&#45;&gt;dir_ff383ddf1aa4eab0c4ce7910366d05a5 -->
<g id="edge16" class="edge">
<title>dir_2a5f5dccd383e4c8e6d85fe2660fb274&#45;&gt;dir_ff383ddf1aa4eab0c4ce7910366d05a5</title>
<g id="a_edge16"><a xlink:href="dir_000012_000078.html" target="_top">
<path fill="none" stroke="#63b8ff" d="M272.73,-70.98C283.73,-63 300.42,-50.88 313.6,-41.31"/>
<polygon fill="#63b8ff" stroke="#63b8ff" points="316.02,-43.88 322.06,-35.17 311.91,-38.21 316.02,-43.88"/>
</a>
</g>
<g id="a_edge16&#45;headlabel"><a xlink:href="dir_000012_000078.html" target="_top" xlink:title="6">
<text text-anchor="middle" x="314.78" y="-45.79" font-family="Helvetica,sans-Serif" font-size="10.00" fill="#63b8ff">6</text>
</a>
</g>
</g>
<!-- dir_2a5f5dccd383e4c8e6d85fe2660fb274&#45;&gt;dir_df3471da428c92590d85ed8754a76078 -->
<g id="edge15" class="edge">
<title>dir_2a5f5dccd383e4c8e6d85fe2660fb274&#45;&gt;dir_df3471da428c92590d85ed8754a76078</title>
<g id="a_edge15"><a xlink:href="dir_000012_000039.html" target="_top">
<path fill="none" stroke="#63b8ff" d="M261,-70.75C261,-63.8 261,-53.85 261,-45.13"/>
<polygon fill="#63b8ff" stroke="#63b8ff" points="264.5,-45.09 261,-35.09 257.5,-45.09 264.5,-45.09"/>
</a>
</g>
<g id="a_edge15&#45;headlabel"><a xlink:href="dir_000012_000039.html" target="_top" xlink:title="2">
<text text-anchor="middle" x="267.34" y="-46.18" font-family="Helvetica,sans-Serif" font-size="10.00" fill="#63b8ff">2</text>
</a>
</g>
</g>
<!-- dir_d4d2b3dd86a3ea68436437dd517fe4b3 -->
<g id="node12" class="node">
<title>dir_d4d2b3dd86a3ea68436437dd517fe4b3</title>
<g id="a_node12"><a xlink:href="dir_d4d2b3dd86a3ea68436437dd517fe4b3.html" target="_top" xlink:title="Generic">
<polygon fill="#a2b4d6" stroke="#404040" points="198,-145 144,-145 144,-126 198,-126 198,-145"/>
<text text-anchor="middle" x="171" y="-133" font-family="Helvetica,sans-Serif" font-size="10.00">Generic</text>
</a>
</g>
</g>
<!-- dir_d4d2b3dd86a3ea68436437dd517fe4b3&#45;&gt;dir_2a5f5dccd383e4c8e6d85fe2660fb274 -->
<g id="edge17" class="edge">
<title>dir_d4d2b3dd86a3ea68436437dd517fe4b3&#45;&gt;dir_2a5f5dccd383e4c8e6d85fe2660fb274</title>
<g id="a_edge17"><a xlink:href="dir_000029_000012.html" target="_top">
<path fill="none" stroke="#63b8ff" d="M185.46,-125.98C199.42,-117.77 220.79,-105.18 237.25,-95.49"/>
<polygon fill="#63b8ff" stroke="#63b8ff" points="239.44,-98.26 246.28,-90.17 235.88,-92.23 239.44,-98.26"/>
</a>
</g>
<g id="a_edge17&#45;headlabel"><a xlink:href="dir_000029_000012.html" target="_top" xlink:title="1">
<text text-anchor="middle" x="237.78" y="-100.03" font-family="Helvetica,sans-Serif" font-size="10.00" fill="#63b8ff">1</text>
</a>
</g>
</g>
<!-- dir_5165ca8cd6f95386faa10f608d8bf1fd -->
<g id="node13" class="node">
<title>dir_5165ca8cd6f95386faa10f608d8bf1fd</title>
<g id="a_node13"><a xlink:href="dir_5165ca8cd6f95386faa10f608d8bf1fd.html" target="_top" xlink:title="PX4">
<polygon fill="#a2b4d6" stroke="#404040" points="421.5,-145 386.5,-145 386.5,-126 421.5,-126 421.5,-145"/>
<text text-anchor="middle" x="404" y="-133" font-family="Helvetica,sans-Serif" font-size="10.00">PX4</text>
</a>
</g>
</g>
<!-- dir_5165ca8cd6f95386faa10f608d8bf1fd&#45;&gt;dir_179bf47964619e91d8f4b948968d2dcb -->
<g id="edge18" class="edge">
<title>dir_5165ca8cd6f95386faa10f608d8bf1fd&#45;&gt;dir_179bf47964619e91d8f4b948968d2dcb</title>
<g id="a_edge18"><a xlink:href="dir_000061_000044.html" target="_top">
<path fill="none" stroke="#63b8ff" d="M421.74,-130.43C458.71,-121.95 544.75,-102.21 595.52,-90.56"/>
<polygon fill="#63b8ff" stroke="#63b8ff" points="596.52,-93.92 605.49,-88.27 594.96,-87.1 596.52,-93.92"/>
</a>
</g>
<g id="a_edge18&#45;headlabel"><a xlink:href="dir_000061_000044.html" target="_top" xlink:title="3">
<text text-anchor="middle" x="593.65" y="-94.99" font-family="Helvetica,sans-Serif" font-size="10.00" fill="#63b8ff">3</text>
</a>
</g>
</g>
<!-- dir_5165ca8cd6f95386faa10f608d8bf1fd&#45;&gt;dir_2728a19ac4d342276b17ec9828d0d8ad -->
<g id="edge19" class="edge">
<title>dir_5165ca8cd6f95386faa10f608d8bf1fd&#45;&gt;dir_2728a19ac4d342276b17ec9828d0d8ad</title>
<g id="a_edge19"><a xlink:href="dir_000061_000013.html" target="_top">
<path fill="none" stroke="#63b8ff" d="M413.8,-125.98C422.82,-118.15 436.41,-106.34 447.32,-96.86"/>
<polygon fill="#63b8ff" stroke="#63b8ff" points="449.77,-99.37 455.02,-90.17 445.18,-94.09 449.77,-99.37"/>
</a>
</g>
<g id="a_edge19&#45;headlabel"><a xlink:href="dir_000061_000013.html" target="_top" xlink:title="1">
<text text-anchor="middle" x="448.92" y="-101.37" font-family="Helvetica,sans-Serif" font-size="10.00" fill="#63b8ff">1</text>
</a>
</g>
</g>
<!-- dir_5165ca8cd6f95386faa10f608d8bf1fd&#45;&gt;dir_57fd63fe491ef075147d1cb32299e674 -->
<g id="edge21" class="edge">
<title>dir_5165ca8cd6f95386faa10f608d8bf1fd&#45;&gt;dir_57fd63fe491ef075147d1cb32299e674</title>
<g id="a_edge21"><a xlink:href="dir_000061_000063.html" target="_top">
<path fill="none" stroke="#63b8ff" d="M421.78,-128C445.22,-119.43 486.91,-104.2 516.15,-93.51"/>
<polygon fill="#63b8ff" stroke="#63b8ff" points="517.36,-96.79 525.55,-90.07 514.96,-90.22 517.36,-96.79"/>
</a>
</g>
<g id="a_edge21&#45;headlabel"><a xlink:href="dir_000061_000063.html" target="_top" xlink:title="2">
<text text-anchor="middle" x="514.96" y="-98.19" font-family="Helvetica,sans-Serif" font-size="10.00" fill="#63b8ff">2</text>
</a>
</g>
</g>
<!-- dir_5165ca8cd6f95386faa10f608d8bf1fd&#45;&gt;dir_924006918299b661f7f5467ff93fed23 -->
<g id="edge22" class="edge">
<title>dir_5165ca8cd6f95386faa10f608d8bf1fd&#45;&gt;dir_924006918299b661f7f5467ff93fed23</title>
<g id="a_edge22"><a xlink:href="dir_000061_000079.html" target="_top">
<path fill="none" stroke="#63b8ff" d="M386.34,-128.73C383.24,-127.77 380.03,-126.83 377,-126 308.78,-107.37 277.88,-133.35 222,-90 214.2,-83.95 203.36,-60.92 196.26,-44.33"/>
<polygon fill="#63b8ff" stroke="#63b8ff" points="199.47,-42.93 192.39,-35.05 193.01,-45.63 199.47,-42.93"/>
</a>
</g>
<g id="a_edge22&#45;headlabel"><a xlink:href="dir_000061_000079.html" target="_top" xlink:title="18">
<text text-anchor="middle" x="203.47" y="-42.66" font-family="Helvetica,sans-Serif" font-size="10.00" fill="#63b8ff">18</text>
</a>
</g>
</g>
<!-- dir_5165ca8cd6f95386faa10f608d8bf1fd&#45;&gt;dir_9fa1f6896f2c68d8c6f5e454a6a72ce4 -->
<g id="edge23" class="edge">
<title>dir_5165ca8cd6f95386faa10f608d8bf1fd&#45;&gt;dir_9fa1f6896f2c68d8c6f5e454a6a72ce4</title>
<g id="a_edge23"><a xlink:href="dir_000061_000022.html" target="_top">
<path fill="none" stroke="#63b8ff" d="M421.68,-134.59C478.41,-134.45 654.16,-130.71 689,-90 696.8,-80.88 696.9,-72.03 689,-63 660.21,-30.1 533.25,-25.58 463.06,-25.68"/>
<polygon fill="#63b8ff" stroke="#63b8ff" points="462.71,-22.18 452.73,-25.73 462.74,-29.18 462.71,-22.18"/>
</a>
</g>
<g id="a_edge23&#45;headlabel"><a xlink:href="dir_000061_000022.html" target="_top" xlink:title="15">
<text text-anchor="middle" x="466.29" y="-16.82" font-family="Helvetica,sans-Serif" font-size="10.00" fill="#63b8ff">15</text>
</a>
</g>
</g>
<!-- dir_5165ca8cd6f95386faa10f608d8bf1fd&#45;&gt;dir_ff383ddf1aa4eab0c4ce7910366d05a5 -->
<g id="edge24" class="edge">
<title>dir_5165ca8cd6f95386faa10f608d8bf1fd&#45;&gt;dir_ff383ddf1aa4eab0c4ce7910366d05a5</title>
<g id="a_edge24"><a xlink:href="dir_000061_000078.html" target="_top">
<path fill="none" stroke="#63b8ff" d="M421.52,-134.42C476.09,-133.77 641.26,-128.58 674,-90 681.76,-80.85 682.09,-71.87 674,-63 652.64,-39.58 434.36,-40.17 372.08,-34.53"/>
<polygon fill="#63b8ff" stroke="#63b8ff" points="372.15,-31.01 361.8,-33.31 371.32,-37.96 372.15,-31.01"/>
</a>
</g>
<g id="a_edge24&#45;headlabel"><a xlink:href="dir_000061_000078.html" target="_top" xlink:title="7">
<text text-anchor="middle" x="376.05" y="-26.11" font-family="Helvetica,sans-Serif" font-size="10.00" fill="#63b8ff">7</text>
</a>
</g>
</g>
<!-- dir_5165ca8cd6f95386faa10f608d8bf1fd&#45;&gt;dir_2a5f5dccd383e4c8e6d85fe2660fb274 -->
<g id="edge20" class="edge">
<title>dir_5165ca8cd6f95386faa10f608d8bf1fd&#45;&gt;dir_2a5f5dccd383e4c8e6d85fe2660fb274</title>
<g id="a_edge20"><a xlink:href="dir_000061_000012.html" target="_top">
<path fill="none" stroke="#63b8ff" d="M386.47,-128C363.52,-119.5 322.83,-104.42 294.02,-93.74"/>
<polygon fill="#63b8ff" stroke="#63b8ff" points="294.97,-90.36 284.37,-90.16 292.53,-96.92 294.97,-90.36"/>
</a>
</g>
<g id="a_edge20&#45;headlabel"><a xlink:href="dir_000061_000012.html" target="_top" xlink:title="4">
<text text-anchor="middle" x="299.32" y="-86.44" font-family="Helvetica,sans-Serif" font-size="10.00" fill="#63b8ff">4</text>
</a>
</g>
</g>
</g>
</svg>

<g id="navigator" transform="translate(0 0)" fill="#404254">
  <rect fill="#f2f5e9" fill-opacity="0.5" stroke="#606060" stroke-width=".5" x="0" y="0" width="60" height="60"/>
  <use id="zoomplus" xlink:href="#zoomPlus" x="17" y="9" onmousedown="handleZoom(evt,'in')"/>
  <use id="zoomminus" xlink:href="#zoomMin" x="42" y="9" onmousedown="handleZoom(evt,'out')"/>
  <use id="reset" xlink:href="#resetDef" x="30" y="36" onmousedown="handleReset()"/>
   <use id="arrowup" xlink:href="#arrowUp" x="0" y="0" onmousedown="handlePan(0,-1)"/>
  <use id="arrowright" xlink:href="#arrowRight" x="0" y="0" onmousedown="handlePan(1,0)"/>
  <use id="arrowdown" xlink:href="#arrowDown" x="0" y="0" onmousedown="handlePan(0,1)"/>
  <use id="arrowleft" xlink:href="#arrowLeft" x="0" y="0" onmousedown="handlePan(-1,0)"/>
</g>
<svg viewBox="0 0 15 15" width="100%" height="30px" preserveAspectRatio="xMaxYMin meet">
 <g id="arrow_out" transform="scale(0.3 0.3)">
  <a xlink:href="dir_cc8aaf6495c50689825ad8387a418235_dep_org.svg" target="_base">
   <rect id="button" ry="5" rx="5" y="6" x="6" height="38" width="38"
        fill="#f2f5e9" fill-opacity="0.5" stroke="#606060" stroke-width="1.0"/>
   <path id="arrow"
     d="M 11.500037,31.436501 C 11.940474,20.09759 22.043105,11.32322 32.158766,21.979434 L 37.068811,17.246167 C 37.068811,17.246167 37.088388,32 37.088388,32 L 22.160133,31.978069 C 22.160133,31.978069 26.997745,27.140456 26.997745,27.140456 C 18.528582,18.264221 13.291696,25.230495 11.500037,31.436501 z"
     style="fill:#404040;"/>
  </a>
 </g>
</svg>

<style type='text/css'>
<![CDATA[
[data-mouse-over-selected='false'] { opacity: 0.7; }
[data-mouse-over-selected='true']  { opacity: 1.0; }
]]>
</style>
<script type="application/ecmascript"><![CDATA[
document.addEventListener('DOMContentLoaded', (event) => {
  highlightEdges();
  highlightAdjacentNodes();
});
]]></script>
</svg>
