<?xml version="1.0" encoding="UTF-8" standalone="no"?>
<!DOCTYPE svg PUBLIC "-//W3C//DTD SVG 1.1//EN"
 "http://www.w3.org/Graphics/SVG/1.1/DTD/svg11.dtd">
<!-- Generated by graphviz version 2.43.0 (0)
 -->
<!-- Title: src/Viewer3D Pages: 1 -->
<svg width="511pt" height="196pt"
 viewBox="0.00 0.00 511.00 196.00" xmlns="http://www.w3.org/2000/svg" xmlns:xlink="http://www.w3.org/1999/xlink">
<g id="graph0" class="graph" transform="scale(1 1) rotate(0) translate(4 192)">
<title>src/Viewer3D</title>
<g id="clust1" class="cluster">
<title>clusterdir_68267d1309a1af8e8297ef4c3efbcdba</title>
<g id="a_clust1"><a xlink:href="dir_68267d1309a1af8e8297ef4c3efbcdba.html" target="_top" xlink:title="src">
<polygon fill="#edf0f7" stroke="#404040" stroke-dasharray="5,2" points="8,-8 8,-180 495,-180 495,-8 8,-8"/>
<text text-anchor="middle" x="251.5" y="-168" font-family="Helvetica,sans-Serif" font-size="10.00">src</text>
</a>
</g>
</g>
<g id="clust2" class="cluster">
<title>clusterdir_9cbcceb567f1ef79a3eec933222d5ab5</title>
<g id="a_clust2"><a xlink:href="dir_9cbcceb567f1ef79a3eec933222d5ab5.html" target="_top">
<polygon fill="#edf0f7" stroke="#404040" stroke-width="2" points="16,-63 16,-153 198,-153 198,-63 16,-63"/>
</a>
</g>
</g>
<!-- dir_87225e6cbcb4cf5309991212c88ac25b -->
<g id="node1" class="node">
<title>dir_87225e6cbcb4cf5309991212c88ac25b</title>
<g id="a_node1"><a xlink:href="dir_87225e6cbcb4cf5309991212c88ac25b.html" target="_top" xlink:title="Settings">
<polygon fill="#a2b4d6" stroke="#404040" points="160,-35 104,-35 104,-16 160,-16 160,-35"/>
<text text-anchor="middle" x="132" y="-23" font-family="Helvetica,sans-Serif" font-size="10.00">Settings</text>
</a>
</g>
</g>
<!-- dir_924006918299b661f7f5467ff93fed23 -->
<g id="node2" class="node">
<title>dir_924006918299b661f7f5467ff93fed23</title>
<g id="a_node2"><a xlink:href="dir_924006918299b661f7f5467ff93fed23.html" target="_top" xlink:title="Vehicle">
<polygon fill="#a2b4d6" stroke="red" points="258,-90 206,-90 206,-71 258,-71 258,-90"/>
<text text-anchor="middle" x="232" y="-78" font-family="Helvetica,sans-Serif" font-size="10.00">Vehicle</text>
</a>
</g>
</g>
<!-- dir_9fa1f6896f2c68d8c6f5e454a6a72ce4 -->
<g id="node3" class="node">
<title>dir_9fa1f6896f2c68d8c6f5e454a6a72ce4</title>
<g id="a_node3"><a xlink:href="dir_9fa1f6896f2c68d8c6f5e454a6a72ce4.html" target="_top" xlink:title="FactSystem">
<polygon fill="#a2b4d6" stroke="red" points="349.5,-90 276.5,-90 276.5,-71 349.5,-71 349.5,-90"/>
<text text-anchor="middle" x="313" y="-78" font-family="Helvetica,sans-Serif" font-size="10.00">FactSystem</text>
</a>
</g>
</g>
<!-- dir_b65c89e2d6b2a8a756744f99b41d1c7e -->
<g id="node4" class="node">
<title>dir_b65c89e2d6b2a8a756744f99b41d1c7e</title>
<g id="a_node4"><a xlink:href="dir_b65c89e2d6b2a8a756744f99b41d1c7e.html" target="_top" xlink:title="QtLocationPlugin">
<polygon fill="#a2b4d6" stroke="red" points="466.5,-90 367.5,-90 367.5,-71 466.5,-71 466.5,-90"/>
<text text-anchor="middle" x="417" y="-78" font-family="Helvetica,sans-Serif" font-size="10.00">QtLocationPlugin</text>
</a>
</g>
</g>
<!-- dir_ff383ddf1aa4eab0c4ce7910366d05a5 -->
<g id="node5" class="node">
<title>dir_ff383ddf1aa4eab0c4ce7910366d05a5</title>
<g id="a_node5"><a xlink:href="dir_ff383ddf1aa4eab0c4ce7910366d05a5.html" target="_top" xlink:title="Utilities">
<polygon fill="#a2b4d6" stroke="red" points="359.5,-35 304.5,-35 304.5,-16 359.5,-16 359.5,-35"/>
<text text-anchor="middle" x="332" y="-23" font-family="Helvetica,sans-Serif" font-size="10.00">Utilities</text>
</a>
</g>
</g>
<!-- dir_9cbcceb567f1ef79a3eec933222d5ab5 -->
<g id="node6" class="node">
<title>dir_9cbcceb567f1ef79a3eec933222d5ab5</title>
<text text-anchor="middle" x="158" y="-133" font-family="Helvetica,sans-Serif" font-size="10.00">Viewer3D</text>
</g>
<!-- dir_9cbcceb567f1ef79a3eec933222d5ab5&#45;&gt;dir_87225e6cbcb4cf5309991212c88ac25b -->
<g id="edge1" class="edge">
<title>dir_9cbcceb567f1ef79a3eec933222d5ab5&#45;&gt;dir_87225e6cbcb4cf5309991212c88ac25b</title>
<g id="a_edge1"><a xlink:href="dir_000075_000061.html" target="_top">
<path fill="none" stroke="#63b8ff" d="M146.07,-125.8C136.17,-117.77 122.81,-104.87 117,-90 111.21,-75.18 116.29,-57.51 122.05,-44.57"/>
<polygon fill="#63b8ff" stroke="#63b8ff" points="125.32,-45.87 126.63,-35.36 119.05,-42.76 125.32,-45.87"/>
</a>
</g>
<g id="a_edge1&#45;headlabel"><a xlink:href="dir_000075_000061.html" target="_top" xlink:title="10">
<text text-anchor="middle" x="126.26" y="-47.86" font-family="Helvetica,sans-Serif" font-size="10.00" fill="#63b8ff">10</text>
</a>
</g>
</g>
<!-- dir_9cbcceb567f1ef79a3eec933222d5ab5&#45;&gt;dir_924006918299b661f7f5467ff93fed23 -->
<g id="edge2" class="edge">
<title>dir_9cbcceb567f1ef79a3eec933222d5ab5&#45;&gt;dir_924006918299b661f7f5467ff93fed23</title>
<g id="a_edge2"><a xlink:href="dir_000075_000071.html" target="_top">
<path fill="none" stroke="#63b8ff" d="M169.89,-125.98C181.15,-117.92 198.29,-105.65 211.71,-96.03"/>
<polygon fill="#63b8ff" stroke="#63b8ff" points="213.8,-98.84 219.89,-90.17 209.73,-93.15 213.8,-98.84"/>
</a>
</g>
<g id="a_edge2&#45;headlabel"><a xlink:href="dir_000075_000071.html" target="_top" xlink:title="2">
<text text-anchor="middle" x="212.53" y="-100.74" font-family="Helvetica,sans-Serif" font-size="10.00" fill="#63b8ff">2</text>
</a>
</g>
</g>
<!-- dir_9cbcceb567f1ef79a3eec933222d5ab5&#45;&gt;dir_9fa1f6896f2c68d8c6f5e454a6a72ce4 -->
<g id="edge3" class="edge">
<title>dir_9cbcceb567f1ef79a3eec933222d5ab5&#45;&gt;dir_9fa1f6896f2c68d8c6f5e454a6a72ce4</title>
<g id="a_edge3"><a xlink:href="dir_000075_000021.html" target="_top">
<path fill="none" stroke="#63b8ff" d="M182.9,-125.98C208.7,-117.16 249.22,-103.31 278.18,-93.41"/>
<polygon fill="#63b8ff" stroke="#63b8ff" points="279.57,-96.63 287.9,-90.08 277.31,-90.01 279.57,-96.63"/>
</a>
</g>
<g id="a_edge3&#45;headlabel"><a xlink:href="dir_000075_000021.html" target="_top" xlink:title="1">
<text text-anchor="middle" x="277.09" y="-97.98" font-family="Helvetica,sans-Serif" font-size="10.00" fill="#63b8ff">1</text>
</a>
</g>
</g>
<!-- dir_9cbcceb567f1ef79a3eec933222d5ab5&#45;&gt;dir_b65c89e2d6b2a8a756744f99b41d1c7e -->
<g id="edge5" class="edge">
<title>dir_9cbcceb567f1ef79a3eec933222d5ab5&#45;&gt;dir_b65c89e2d6b2a8a756744f99b41d1c7e</title>
<g id="a_edge5"><a xlink:href="dir_000075_000058.html" target="_top">
<path fill="none" stroke="#63b8ff" d="M190.02,-127.95C233.79,-118.99 312.84,-102.81 365.13,-92.11"/>
<polygon fill="#63b8ff" stroke="#63b8ff" points="366.12,-95.49 375.21,-90.05 364.71,-88.63 366.12,-95.49"/>
</a>
</g>
<g id="a_edge5&#45;headlabel"><a xlink:href="dir_000075_000058.html" target="_top" xlink:title="10">
<text text-anchor="middle" x="363.16" y="-96.49" font-family="Helvetica,sans-Serif" font-size="10.00" fill="#63b8ff">10</text>
</a>
</g>
</g>
<!-- dir_9cbcceb567f1ef79a3eec933222d5ab5&#45;&gt;dir_ff383ddf1aa4eab0c4ce7910366d05a5 -->
<g id="edge6" class="edge">
<title>dir_9cbcceb567f1ef79a3eec933222d5ab5&#45;&gt;dir_ff383ddf1aa4eab0c4ce7910366d05a5</title>
<g id="a_edge6"><a xlink:href="dir_000075_000070.html" target="_top">
<path fill="none" stroke="#63b8ff" d="M190.09,-135.07C263.29,-135.61 439.14,-132.38 476,-90 508.53,-52.6 422.65,-36.32 369.84,-30.01"/>
<polygon fill="#63b8ff" stroke="#63b8ff" points="370.09,-26.51 359.76,-28.87 369.31,-33.47 370.09,-26.51"/>
</a>
</g>
<g id="a_edge6&#45;headlabel"><a xlink:href="dir_000075_000070.html" target="_top" xlink:title="14">
<text text-anchor="middle" x="373.98" y="-21.59" font-family="Helvetica,sans-Serif" font-size="10.00" fill="#63b8ff">14</text>
</a>
</g>
</g>
<!-- dir_af039e943f56c8ae21a8f462501fba72 -->
<g id="node7" class="node">
<title>dir_af039e943f56c8ae21a8f462501fba72</title>
<g id="a_node7"><a xlink:href="dir_af039e943f56c8ae21a8f462501fba72.html" target="_top" xlink:title="Providers">
<polygon fill="#a2b4d6" stroke="#404040" points="188,-90 126,-90 126,-71 188,-71 188,-90"/>
<text text-anchor="middle" x="157" y="-78" font-family="Helvetica,sans-Serif" font-size="10.00">Providers</text>
</a>
</g>
</g>
<!-- dir_9cbcceb567f1ef79a3eec933222d5ab5&#45;&gt;dir_af039e943f56c8ae21a8f462501fba72 -->
<g id="edge4" class="edge">
<title>dir_9cbcceb567f1ef79a3eec933222d5ab5&#45;&gt;dir_af039e943f56c8ae21a8f462501fba72</title>
<g id="a_edge4"><a xlink:href="dir_000075_000052.html" target="_top">
<path fill="none" stroke="#63b8ff" d="M157.83,-125.75C157.7,-118.8 157.52,-108.85 157.35,-100.13"/>
<polygon fill="#63b8ff" stroke="#63b8ff" points="160.85,-100.02 157.16,-90.09 153.85,-100.15 160.85,-100.02"/>
</a>
</g>
<g id="a_edge4&#45;headlabel"><a xlink:href="dir_000075_000052.html" target="_top" xlink:title="1">
<text text-anchor="middle" x="163.76" y="-101.06" font-family="Helvetica,sans-Serif" font-size="10.00" fill="#63b8ff">1</text>
</a>
</g>
</g>
<!-- dir_af039e943f56c8ae21a8f462501fba72&#45;&gt;dir_87225e6cbcb4cf5309991212c88ac25b -->
<g id="edge7" class="edge">
<title>dir_af039e943f56c8ae21a8f462501fba72&#45;&gt;dir_87225e6cbcb4cf5309991212c88ac25b</title>
<g id="a_edge7"><a xlink:href="dir_000052_000061.html" target="_top">
<path fill="none" stroke="#63b8ff" d="M152.87,-70.75C149.49,-63.57 144.58,-53.18 140.38,-44.27"/>
<polygon fill="#63b8ff" stroke="#63b8ff" points="143.48,-42.64 136.05,-35.09 137.15,-45.63 143.48,-42.64"/>
</a>
</g>
<g id="a_edge7&#45;headlabel"><a xlink:href="dir_000052_000061.html" target="_top" xlink:title="4">
<text text-anchor="middle" x="147.58" y="-42.18" font-family="Helvetica,sans-Serif" font-size="10.00" fill="#63b8ff">4</text>
</a>
</g>
</g>
<!-- dir_af039e943f56c8ae21a8f462501fba72&#45;&gt;dir_ff383ddf1aa4eab0c4ce7910366d05a5 -->
<g id="edge8" class="edge">
<title>dir_af039e943f56c8ae21a8f462501fba72&#45;&gt;dir_ff383ddf1aa4eab0c4ce7910366d05a5</title>
<g id="a_edge8"><a xlink:href="dir_000052_000070.html" target="_top">
<path fill="none" stroke="#63b8ff" d="M173.47,-70.97C179.23,-68.19 185.81,-65.24 192,-63 225.97,-50.69 265.96,-40.69 294.49,-34.29"/>
<polygon fill="#63b8ff" stroke="#63b8ff" points="295.43,-37.67 304.44,-32.1 293.92,-30.83 295.43,-37.67"/>
</a>
</g>
<g id="a_edge8&#45;headlabel"><a xlink:href="dir_000052_000070.html" target="_top" xlink:title="4">
<text text-anchor="middle" x="292.53" y="-38.71" font-family="Helvetica,sans-Serif" font-size="10.00" fill="#63b8ff">4</text>
</a>
</g>
</g>
<!-- dir_2e05f91a6b167cb643579860f39449a4 -->
<g id="node8" class="node">
<title>dir_2e05f91a6b167cb643579860f39449a4</title>
<g id="a_node8"><a xlink:href="dir_2e05f91a6b167cb643579860f39449a4.html" target="_top" xlink:title="Viewer3DQml">
<polygon fill="#a2b4d6" stroke="#404040" points="108,-145 24,-145 24,-126 108,-126 108,-145"/>
<text text-anchor="middle" x="66" y="-133" font-family="Helvetica,sans-Serif" font-size="10.00">Viewer3DQml</text>
</a>
</g>
</g>
</g>
</svg>
