<?xml version="1.0" encoding="UTF-8" standalone="no"?>
<!DOCTYPE svg PUBLIC "-//W3C//DTD SVG 1.1//EN"
 "http://www.w3.org/Graphics/SVG/1.1/DTD/svg11.dtd">
<!-- Generated by graphviz version 2.43.0 (0)
 -->
<!-- Title: src/Settings Pages: 1 -->
<!--zoomable 133 -->

<svg id="main" version="1.1" xmlns="http://www.w3.org/2000/svg" xmlns:xlink="http://www.w3.org/1999/xlink" xml:space="preserve" onload="init(evt)">
<style type="text/css"><![CDATA[
.node, .edge {opacity: 0.7;}
.node.selected, .edge.selected {opacity: 1;}
.edge:hover path { stroke: red; }
.edge:hover polygon { stroke: red; fill: red; }
]]></style>

<defs>
  <circle id="rim" cx="0" cy="0" r="7"/>
  <circle id="rim2" cx="0" cy="0" r="3.5"/>
  <g id="zoomPlus">
    <use xlink:href="#rim" fill="#404040"><set attributeName="fill" to="#808080" begin="zoomplus.mouseover" end="zoomplus.mouseout"/></use>
    <path d="M-4,0h8M0,-4v8" fill="none" stroke="white" stroke-width="1.5" pointer-events="none"/>
  </g>
  <g id="zoomMin">
    <use xlink:href="#rim" fill="#404040"><set attributeName="fill" to="#808080" begin="zoomminus.mouseover" end="zoomminus.mouseout"/></use>
    <path d="M-4,0h8" fill="none" stroke="white" stroke-width="1.5" pointer-events="none"/>
  </g>
  <g id="arrowUp" transform="translate(30 24)">
    <use xlink:href="#rim"/>
    <path pointer-events="none" fill="none" stroke="white" stroke-width="1.5" d="M0,-3.0v7 M-2.5,-0.5L0,-3.0L2.5,-0.5"/>
  </g>
  <g id="arrowRight" transform="rotate(90) translate(36 -43)">
    <use xlink:href="#rim"/>
    <path pointer-events="none" fill="none" stroke="white" stroke-width="1.5" d="M0,-3.0v7 M-2.5,-0.5L0,-3.0L2.5,-0.5"/>
  </g>
  <g id="arrowDown" transform="rotate(180) translate(-30 -48)">
    <use xlink:href="#rim"/>
    <path pointer-events="none" fill="none" stroke="white" stroke-width="1.5" d="M0,-3.0v7 M-2.5,-0.5L0,-3.0L2.5,-0.5"/>
  </g>
  <g id="arrowLeft" transform="rotate(270) translate(-36 17)">
    <use xlink:href="#rim"/>
    <path pointer-events="none" fill="none" stroke="white" stroke-width="1.5" d="M0,-3.0v7 M-2.5,-0.5L0,-3.0L2.5,-0.5"/>
  </g>
  <g id="resetDef">
    <use xlink:href="#rim2" fill="#404040"><set attributeName="fill" to="#808080" begin="reset.mouseover" end="reset.mouseout"/></use>
  </g>
</defs>
<script type="application/ecmascript">
var viewWidth = 658;
var viewHeight = 133;
var sectionId = 'dynsection-0';
</script>
<script type="application/ecmascript" xlink:href="svg.min.js"/>
<svg id="graph" class="graph">
<g id="viewport">
<title>src/Settings</title>
<g id="clust1" class="cluster">
<title>clusterdir_68267d1309a1af8e8297ef4c3efbcdba</title>
<g id="a_clust1"><a xlink:href="dir_68267d1309a1af8e8297ef4c3efbcdba.html" target="_top" xlink:title="src">
<polygon fill="#edf0f7" stroke="#404040" stroke-dasharray="5,2" points="8,-8 8,-117 642,-117 642,-8 8,-8"/>
<text text-anchor="middle" x="325" y="-105" font-family="Helvetica,sans-Serif" font-size="10.00">src</text>
</a>
</g>
</g>
<!-- dir_179bf47964619e91d8f4b948968d2dcb -->
<g id="node1" class="node">
<title>dir_179bf47964619e91d8f4b948968d2dcb</title>
<g id="a_node1"><a xlink:href="dir_179bf47964619e91d8f4b948968d2dcb.html" target="_top" xlink:title="MAVLink">
<polygon fill="#a2b4d6" stroke="red" points="75.5,-35 16.5,-35 16.5,-16 75.5,-16 75.5,-35"/>
<text text-anchor="middle" x="46" y="-23" font-family="Helvetica,sans-Serif" font-size="10.00">MAVLink</text>
</a>
</g>
</g>
<!-- dir_2728a19ac4d342276b17ec9828d0d8ad -->
<g id="node2" class="node">
<title>dir_2728a19ac4d342276b17ec9828d0d8ad</title>
<g id="a_node2"><a xlink:href="dir_2728a19ac4d342276b17ec9828d0d8ad.html" target="_top" xlink:title="Comms">
<polygon fill="#a2b4d6" stroke="red" points="148,-35 94,-35 94,-16 148,-16 148,-35"/>
<text text-anchor="middle" x="121" y="-23" font-family="Helvetica,sans-Serif" font-size="10.00">Comms</text>
</a>
</g>
</g>
<!-- dir_32137984f496da46263d816e0d6dc804 -->
<g id="node3" class="node">
<title>dir_32137984f496da46263d816e0d6dc804</title>
<g id="a_node3"><a xlink:href="dir_32137984f496da46263d816e0d6dc804.html" target="_top" xlink:title="API">
<polygon fill="#a2b4d6" stroke="#404040" points="198,-35 166,-35 166,-16 198,-16 198,-35"/>
<text text-anchor="middle" x="182" y="-23" font-family="Helvetica,sans-Serif" font-size="10.00">API</text>
</a>
</g>
</g>
<!-- dir_57fd63fe491ef075147d1cb32299e674 -->
<g id="node4" class="node">
<title>dir_57fd63fe491ef075147d1cb32299e674</title>
<g id="a_node4"><a xlink:href="dir_57fd63fe491ef075147d1cb32299e674.html" target="_top" xlink:title="QmlControls">
<polygon fill="#a2b4d6" stroke="#404040" points="293.5,-35 216.5,-35 216.5,-16 293.5,-16 293.5,-35"/>
<text text-anchor="middle" x="255" y="-23" font-family="Helvetica,sans-Serif" font-size="10.00">QmlControls</text>
</a>
</g>
</g>
<!-- dir_924006918299b661f7f5467ff93fed23 -->
<g id="node5" class="node">
<title>dir_924006918299b661f7f5467ff93fed23</title>
<g id="a_node5"><a xlink:href="dir_924006918299b661f7f5467ff93fed23.html" target="_top" xlink:title="Vehicle">
<polygon fill="#a2b4d6" stroke="red" points="364,-35 312,-35 312,-16 364,-16 364,-35"/>
<text text-anchor="middle" x="338" y="-23" font-family="Helvetica,sans-Serif" font-size="10.00">Vehicle</text>
</a>
</g>
</g>
<!-- dir_9fa1f6896f2c68d8c6f5e454a6a72ce4 -->
<g id="node6" class="node">
<title>dir_9fa1f6896f2c68d8c6f5e454a6a72ce4</title>
<g id="a_node6"><a xlink:href="dir_9fa1f6896f2c68d8c6f5e454a6a72ce4.html" target="_top" xlink:title="FactSystem">
<polygon fill="#a2b4d6" stroke="red" points="455.5,-35 382.5,-35 382.5,-16 455.5,-16 455.5,-35"/>
<text text-anchor="middle" x="419" y="-23" font-family="Helvetica,sans-Serif" font-size="10.00">FactSystem</text>
</a>
</g>
</g>
<!-- dir_e70d0c0f198ee0280d1f11c0ba8073e0 -->
<g id="node7" class="node">
<title>dir_e70d0c0f198ee0280d1f11c0ba8073e0</title>
<g id="a_node7"><a xlink:href="dir_e70d0c0f198ee0280d1f11c0ba8073e0.html" target="_top" xlink:title="VideoManager">
<polygon fill="#a2b4d6" stroke="red" points="560.5,-35 473.5,-35 473.5,-16 560.5,-16 560.5,-35"/>
<text text-anchor="middle" x="517" y="-23" font-family="Helvetica,sans-Serif" font-size="10.00">VideoManager</text>
</a>
</g>
</g>
<!-- dir_ff383ddf1aa4eab0c4ce7910366d05a5 -->
<g id="node8" class="node">
<title>dir_ff383ddf1aa4eab0c4ce7910366d05a5</title>
<g id="a_node8"><a xlink:href="dir_ff383ddf1aa4eab0c4ce7910366d05a5.html" target="_top" xlink:title="Utilities">
<polygon fill="#a2b4d6" stroke="red" points="633.5,-35 578.5,-35 578.5,-16 633.5,-16 633.5,-35"/>
<text text-anchor="middle" x="606" y="-23" font-family="Helvetica,sans-Serif" font-size="10.00">Utilities</text>
</a>
</g>
</g>
<!-- dir_87225e6cbcb4cf5309991212c88ac25b -->
<g id="node9" class="node">
<title>dir_87225e6cbcb4cf5309991212c88ac25b</title>
<g id="a_node9"><a xlink:href="dir_87225e6cbcb4cf5309991212c88ac25b.html" target="_top" xlink:title="Settings">
<polygon fill="#edf0f7" stroke="#404040" stroke-width="2" points="324,-90 268,-90 268,-71 324,-71 324,-90"/>
<text text-anchor="middle" x="296" y="-78" font-family="Helvetica,sans-Serif" font-size="10.00">Settings</text>
</a>
</g>
</g>
<!-- dir_87225e6cbcb4cf5309991212c88ac25b&#45;&gt;dir_179bf47964619e91d8f4b948968d2dcb -->
<g id="edge1" class="edge">
<title>dir_87225e6cbcb4cf5309991212c88ac25b&#45;&gt;dir_179bf47964619e91d8f4b948968d2dcb</title>
<g id="a_edge1"><a xlink:href="dir_000069_000044.html" target="_top">
<path fill="none" stroke="#63b8ff" d="M268,-73.66C229.39,-65.59 157.37,-50.49 85.89,-35.18"/>
<polygon fill="#63b8ff" stroke="#63b8ff" points="86.32,-31.69 75.81,-33.02 84.85,-38.54 86.32,-31.69"/>
</a>
</g>
<g id="a_edge1&#45;headlabel"><a xlink:href="dir_000069_000044.html" target="_top" xlink:title="1">
<text text-anchor="middle" x="90.43" y="-27.17" font-family="Helvetica,sans-Serif" font-size="10.00" fill="#63b8ff">1</text>
</a>
</g>
</g>
<!-- dir_87225e6cbcb4cf5309991212c88ac25b&#45;&gt;dir_2728a19ac4d342276b17ec9828d0d8ad -->
<g id="edge2" class="edge">
<title>dir_87225e6cbcb4cf5309991212c88ac25b&#45;&gt;dir_2728a19ac4d342276b17ec9828d0d8ad</title>
<g id="a_edge2"><a xlink:href="dir_000069_000013.html" target="_top">
<path fill="none" stroke="#63b8ff" d="M267.88,-70.98C238.03,-61.94 190.7,-47.61 157.87,-37.67"/>
<polygon fill="#63b8ff" stroke="#63b8ff" points="158.77,-34.28 148.18,-34.73 156.74,-40.98 158.77,-34.28"/>
</a>
</g>
<g id="a_edge2&#45;headlabel"><a xlink:href="dir_000069_000013.html" target="_top" xlink:title="2">
<text text-anchor="middle" x="163.03" y="-30.11" font-family="Helvetica,sans-Serif" font-size="10.00" fill="#63b8ff">2</text>
</a>
</g>
</g>
<!-- dir_87225e6cbcb4cf5309991212c88ac25b&#45;&gt;dir_32137984f496da46263d816e0d6dc804 -->
<g id="edge3" class="edge">
<title>dir_87225e6cbcb4cf5309991212c88ac25b&#45;&gt;dir_32137984f496da46263d816e0d6dc804</title>
<g id="a_edge3"><a xlink:href="dir_000069_000004.html" target="_top">
<path fill="none" stroke="#63b8ff" d="M277.68,-70.98C258.58,-62.1 228.5,-48.12 207.17,-38.2"/>
<polygon fill="#63b8ff" stroke="#63b8ff" points="208.6,-35.01 198.06,-33.97 205.65,-41.36 208.6,-35.01"/>
</a>
</g>
<g id="a_edge3&#45;headlabel"><a xlink:href="dir_000069_000004.html" target="_top" xlink:title="2">
<text text-anchor="middle" x="213.06" y="-31.45" font-family="Helvetica,sans-Serif" font-size="10.00" fill="#63b8ff">2</text>
</a>
</g>
</g>
<!-- dir_87225e6cbcb4cf5309991212c88ac25b&#45;&gt;dir_57fd63fe491ef075147d1cb32299e674 -->
<g id="edge4" class="edge">
<title>dir_87225e6cbcb4cf5309991212c88ac25b&#45;&gt;dir_57fd63fe491ef075147d1cb32299e674</title>
<g id="a_edge4"><a xlink:href="dir_000069_000063.html" target="_top">
<path fill="none" stroke="#63b8ff" d="M289.23,-70.75C283.44,-63.26 274.94,-52.28 267.86,-43.13"/>
<polygon fill="#63b8ff" stroke="#63b8ff" points="270.53,-40.86 261.64,-35.09 264.99,-45.14 270.53,-40.86"/>
</a>
</g>
<g id="a_edge4&#45;headlabel"><a xlink:href="dir_000069_000063.html" target="_top" xlink:title="1">
<text text-anchor="middle" x="274.98" y="-39.46" font-family="Helvetica,sans-Serif" font-size="10.00" fill="#63b8ff">1</text>
</a>
</g>
</g>
<!-- dir_87225e6cbcb4cf5309991212c88ac25b&#45;&gt;dir_924006918299b661f7f5467ff93fed23 -->
<g id="edge5" class="edge">
<title>dir_87225e6cbcb4cf5309991212c88ac25b&#45;&gt;dir_924006918299b661f7f5467ff93fed23</title>
<g id="a_edge5"><a xlink:href="dir_000069_000079.html" target="_top">
<path fill="none" stroke="#63b8ff" d="M302.94,-70.75C308.87,-63.26 317.57,-52.28 324.82,-43.13"/>
<polygon fill="#63b8ff" stroke="#63b8ff" points="327.73,-45.1 331.19,-35.09 322.24,-40.75 327.73,-45.1"/>
</a>
</g>
<g id="a_edge5&#45;headlabel"><a xlink:href="dir_000069_000079.html" target="_top" xlink:title="2">
<text text-anchor="middle" x="327.72" y="-47.18" font-family="Helvetica,sans-Serif" font-size="10.00" fill="#63b8ff">2</text>
</a>
</g>
</g>
<!-- dir_87225e6cbcb4cf5309991212c88ac25b&#45;&gt;dir_9fa1f6896f2c68d8c6f5e454a6a72ce4 -->
<g id="edge6" class="edge">
<title>dir_87225e6cbcb4cf5309991212c88ac25b&#45;&gt;dir_9fa1f6896f2c68d8c6f5e454a6a72ce4</title>
<g id="a_edge6"><a xlink:href="dir_000069_000022.html" target="_top">
<path fill="none" stroke="#63b8ff" d="M315.76,-70.98C335.73,-62.38 366.8,-48.99 389.65,-39.15"/>
<polygon fill="#63b8ff" stroke="#63b8ff" points="391.08,-42.34 398.88,-35.17 388.31,-35.91 391.08,-42.34"/>
</a>
</g>
<g id="a_edge6&#45;headlabel"><a xlink:href="dir_000069_000022.html" target="_top" xlink:title="1">
<text text-anchor="middle" x="388.9" y="-43.87" font-family="Helvetica,sans-Serif" font-size="10.00" fill="#63b8ff">1</text>
</a>
</g>
</g>
<!-- dir_87225e6cbcb4cf5309991212c88ac25b&#45;&gt;dir_e70d0c0f198ee0280d1f11c0ba8073e0 -->
<g id="edge7" class="edge">
<title>dir_87225e6cbcb4cf5309991212c88ac25b&#45;&gt;dir_e70d0c0f198ee0280d1f11c0ba8073e0</title>
<g id="a_edge7"><a xlink:href="dir_000069_000082.html" target="_top">
<path fill="none" stroke="#63b8ff" d="M324.44,-72.68C361.64,-63.76 427.28,-48.02 471.45,-37.42"/>
<polygon fill="#63b8ff" stroke="#63b8ff" points="472.45,-40.78 481.36,-35.05 470.82,-33.98 472.45,-40.78"/>
</a>
</g>
<g id="a_edge7&#45;headlabel"><a xlink:href="dir_000069_000082.html" target="_top" xlink:title="2">
<text text-anchor="middle" x="469.62" y="-41.88" font-family="Helvetica,sans-Serif" font-size="10.00" fill="#63b8ff">2</text>
</a>
</g>
</g>
<!-- dir_87225e6cbcb4cf5309991212c88ac25b&#45;&gt;dir_ff383ddf1aa4eab0c4ce7910366d05a5 -->
<g id="edge8" class="edge">
<title>dir_87225e6cbcb4cf5309991212c88ac25b&#45;&gt;dir_ff383ddf1aa4eab0c4ce7910366d05a5</title>
<g id="a_edge8"><a xlink:href="dir_000069_000078.html" target="_top">
<path fill="none" stroke="#63b8ff" d="M324.12,-75.6C372.19,-68.8 473.44,-53.85 568.11,-35.27"/>
<polygon fill="#63b8ff" stroke="#63b8ff" points="569.01,-38.66 578.13,-33.29 567.65,-31.79 569.01,-38.66"/>
</a>
</g>
<g id="a_edge8&#45;headlabel"><a xlink:href="dir_000069_000078.html" target="_top" xlink:title="8">
<text text-anchor="middle" x="566.03" y="-39.64" font-family="Helvetica,sans-Serif" font-size="10.00" fill="#63b8ff">8</text>
</a>
</g>
</g>
</g>
</svg>

<g id="navigator" transform="translate(0 0)" fill="#404254">
  <rect fill="#f2f5e9" fill-opacity="0.5" stroke="#606060" stroke-width=".5" x="0" y="0" width="60" height="60"/>
  <use id="zoomplus" xlink:href="#zoomPlus" x="17" y="9" onmousedown="handleZoom(evt,'in')"/>
  <use id="zoomminus" xlink:href="#zoomMin" x="42" y="9" onmousedown="handleZoom(evt,'out')"/>
  <use id="reset" xlink:href="#resetDef" x="30" y="36" onmousedown="handleReset()"/>
   <use id="arrowup" xlink:href="#arrowUp" x="0" y="0" onmousedown="handlePan(0,-1)"/>
  <use id="arrowright" xlink:href="#arrowRight" x="0" y="0" onmousedown="handlePan(1,0)"/>
  <use id="arrowdown" xlink:href="#arrowDown" x="0" y="0" onmousedown="handlePan(0,1)"/>
  <use id="arrowleft" xlink:href="#arrowLeft" x="0" y="0" onmousedown="handlePan(-1,0)"/>
</g>
<svg viewBox="0 0 15 15" width="100%" height="30px" preserveAspectRatio="xMaxYMin meet">
 <g id="arrow_out" transform="scale(0.3 0.3)">
  <a xlink:href="dir_87225e6cbcb4cf5309991212c88ac25b_dep_org.svg" target="_base">
   <rect id="button" ry="5" rx="5" y="6" x="6" height="38" width="38"
        fill="#f2f5e9" fill-opacity="0.5" stroke="#606060" stroke-width="1.0"/>
   <path id="arrow"
     d="M 11.500037,31.436501 C 11.940474,20.09759 22.043105,11.32322 32.158766,21.979434 L 37.068811,17.246167 C 37.068811,17.246167 37.088388,32 37.088388,32 L 22.160133,31.978069 C 22.160133,31.978069 26.997745,27.140456 26.997745,27.140456 C 18.528582,18.264221 13.291696,25.230495 11.500037,31.436501 z"
     style="fill:#404040;"/>
  </a>
 </g>
</svg>

<style type='text/css'>
<![CDATA[
[data-mouse-over-selected='false'] { opacity: 0.7; }
[data-mouse-over-selected='true']  { opacity: 1.0; }
]]>
</style>
<script type="application/ecmascript"><![CDATA[
document.addEventListener('DOMContentLoaded', (event) => {
  highlightEdges();
  highlightAdjacentNodes();
});
]]></script>
</svg>
