<?xml version="1.0" encoding="UTF-8" standalone="no"?>
<!DOCTYPE svg PUBLIC "-//W3C//DTD SVG 1.1//EN"
 "http://www.w3.org/Graphics/SVG/1.1/DTD/svg11.dtd">
<!-- Generated by graphviz version 2.43.0 (0)
 -->
<!-- Title: src/Vehicle Pages: 1 -->
<svg width="1495pt" height="196pt"
 viewBox="0.00 0.00 1495.00 196.00" xmlns="http://www.w3.org/2000/svg" xmlns:xlink="http://www.w3.org/1999/xlink">
<g id="graph0" class="graph" transform="scale(1 1) rotate(0) translate(4 192)">
<title>src/Vehicle</title>
<g id="clust1" class="cluster">
<title>clusterdir_68267d1309a1af8e8297ef4c3efbcdba</title>
<g id="a_clust1"><a xlink:href="dir_68267d1309a1af8e8297ef4c3efbcdba.html" target="_top" xlink:title="src">
<polygon fill="#edf0f7" stroke="#404040" stroke-dasharray="5,2" points="8,-8 8,-180 1479,-180 1479,-8 8,-8"/>
<text text-anchor="middle" x="743.5" y="-168" font-family="Helvetica,sans-Serif" font-size="10.00">src</text>
</a>
</g>
</g>
<g id="clust2" class="cluster">
<title>clusterdir_924006918299b661f7f5467ff93fed23</title>
<g id="a_clust2"><a xlink:href="dir_924006918299b661f7f5467ff93fed23.html" target="_top">
<polygon fill="#edf0f7" stroke="#404040" stroke-width="2" points="600,-63 600,-153 917,-153 917,-63 600,-63"/>
</a>
</g>
</g>
<!-- dir_179bf47964619e91d8f4b948968d2dcb -->
<g id="node1" class="node">
<title>dir_179bf47964619e91d8f4b948968d2dcb</title>
<g id="a_node1"><a xlink:href="dir_179bf47964619e91d8f4b948968d2dcb.html" target="_top" xlink:title="MAVLink">
<polygon fill="#a2b4d6" stroke="red" points="702.5,-35 643.5,-35 643.5,-16 702.5,-16 702.5,-35"/>
<text text-anchor="middle" x="673" y="-23" font-family="Helvetica,sans-Serif" font-size="10.00">MAVLink</text>
</a>
</g>
</g>
<!-- dir_2728a19ac4d342276b17ec9828d0d8ad -->
<g id="node2" class="node">
<title>dir_2728a19ac4d342276b17ec9828d0d8ad</title>
<g id="a_node2"><a xlink:href="dir_2728a19ac4d342276b17ec9828d0d8ad.html" target="_top" xlink:title="Comms">
<polygon fill="#a2b4d6" stroke="red" points="164,-90 110,-90 110,-71 164,-71 164,-90"/>
<text text-anchor="middle" x="137" y="-78" font-family="Helvetica,sans-Serif" font-size="10.00">Comms</text>
</a>
</g>
</g>
<!-- dir_2e789b5f2ef5f5e229d12665af24e261 -->
<g id="node3" class="node">
<title>dir_2e789b5f2ef5f5e229d12665af24e261</title>
<g id="a_node3"><a xlink:href="dir_2e789b5f2ef5f5e229d12665af24e261.html" target="_top" xlink:title="PositionManager">
<polygon fill="#a2b4d6" stroke="#404040" points="500,-90 402,-90 402,-71 500,-71 500,-90"/>
<text text-anchor="middle" x="451" y="-78" font-family="Helvetica,sans-Serif" font-size="10.00">PositionManager</text>
</a>
</g>
</g>
<!-- dir_32137984f496da46263d816e0d6dc804 -->
<g id="node4" class="node">
<title>dir_32137984f496da46263d816e0d6dc804</title>
<g id="a_node4"><a xlink:href="dir_32137984f496da46263d816e0d6dc804.html" target="_top" xlink:title="API">
<polygon fill="#a2b4d6" stroke="#404040" points="214,-90 182,-90 182,-71 214,-71 214,-90"/>
<text text-anchor="middle" x="198" y="-78" font-family="Helvetica,sans-Serif" font-size="10.00">API</text>
</a>
</g>
</g>
<!-- dir_57fd63fe491ef075147d1cb32299e674 -->
<g id="node5" class="node">
<title>dir_57fd63fe491ef075147d1cb32299e674</title>
<g id="a_node5"><a xlink:href="dir_57fd63fe491ef075147d1cb32299e674.html" target="_top" xlink:title="QmlControls">
<polygon fill="#a2b4d6" stroke="#404040" points="804.5,-35 727.5,-35 727.5,-16 804.5,-16 804.5,-35"/>
<text text-anchor="middle" x="766" y="-23" font-family="Helvetica,sans-Serif" font-size="10.00">QmlControls</text>
</a>
</g>
</g>
<!-- dir_66c47b9977029413dec9bdf1834743ad -->
<g id="node6" class="node">
<title>dir_66c47b9977029413dec9bdf1834743ad</title>
<g id="a_node6"><a xlink:href="dir_66c47b9977029413dec9bdf1834743ad.html" target="_top" xlink:title="Gimbal">
<polygon fill="#a2b4d6" stroke="#404040" points="590,-90 538,-90 538,-71 590,-71 590,-90"/>
<text text-anchor="middle" x="564" y="-78" font-family="Helvetica,sans-Serif" font-size="10.00">Gimbal</text>
</a>
</g>
</g>
<!-- dir_87225e6cbcb4cf5309991212c88ac25b -->
<g id="node7" class="node">
<title>dir_87225e6cbcb4cf5309991212c88ac25b</title>
<g id="a_node7"><a xlink:href="dir_87225e6cbcb4cf5309991212c88ac25b.html" target="_top" xlink:title="Settings">
<polygon fill="#a2b4d6" stroke="#404040" points="92,-90 36,-90 36,-71 92,-71 92,-90"/>
<text text-anchor="middle" x="64" y="-78" font-family="Helvetica,sans-Serif" font-size="10.00">Settings</text>
</a>
</g>
</g>
<!-- dir_96e291b54c69d4ab37cadc9baf789be5 -->
<g id="node8" class="node">
<title>dir_96e291b54c69d4ab37cadc9baf789be5</title>
<g id="a_node8"><a xlink:href="dir_96e291b54c69d4ab37cadc9baf789be5.html" target="_top" xlink:title="FirmwarePlugin">
<polygon fill="#a2b4d6" stroke="red" points="452,-35 360,-35 360,-16 452,-16 452,-35"/>
<text text-anchor="middle" x="406" y="-23" font-family="Helvetica,sans-Serif" font-size="10.00">FirmwarePlugin</text>
</a>
</g>
</g>
<!-- dir_9ca388931d97c86fb1978224ef335a40 -->
<g id="node9" class="node">
<title>dir_9ca388931d97c86fb1978224ef335a40</title>
<g id="a_node9"><a xlink:href="dir_9ca388931d97c86fb1978224ef335a40.html" target="_top" xlink:title="Terrain">
<polygon fill="#a2b4d6" stroke="red" points="302,-90 252,-90 252,-71 302,-71 302,-90"/>
<text text-anchor="middle" x="277" y="-78" font-family="Helvetica,sans-Serif" font-size="10.00">Terrain</text>
</a>
</g>
</g>
<!-- dir_9d6d731e60392cad6f85c77edbb5871d -->
<g id="node10" class="node">
<title>dir_9d6d731e60392cad6f85c77edbb5871d</title>
<g id="a_node10"><a xlink:href="dir_9d6d731e60392cad6f85c77edbb5871d.html" target="_top" xlink:title="ADSB">
<polygon fill="#a2b4d6" stroke="#404040" points="364,-90 320,-90 320,-71 364,-71 364,-90"/>
<text text-anchor="middle" x="342" y="-78" font-family="Helvetica,sans-Serif" font-size="10.00">ADSB</text>
</a>
</g>
</g>
<!-- dir_9fa1f6896f2c68d8c6f5e454a6a72ce4 -->
<g id="node11" class="node">
<title>dir_9fa1f6896f2c68d8c6f5e454a6a72ce4</title>
<g id="a_node11"><a xlink:href="dir_9fa1f6896f2c68d8c6f5e454a6a72ce4.html" target="_top" xlink:title="FactSystem">
<polygon fill="#a2b4d6" stroke="red" points="898.5,-35 825.5,-35 825.5,-16 898.5,-16 898.5,-35"/>
<text text-anchor="middle" x="862" y="-23" font-family="Helvetica,sans-Serif" font-size="10.00">FactSystem</text>
</a>
</g>
</g>
<!-- dir_a316e9605cf2e65295ae387cbf599266 -->
<g id="node12" class="node">
<title>dir_a316e9605cf2e65295ae387cbf599266</title>
<g id="a_node12"><a xlink:href="dir_a316e9605cf2e65295ae387cbf599266.html" target="_top" xlink:title="Camera">
<polygon fill="#a2b4d6" stroke="#404040" points="1136.5,-90 1081.5,-90 1081.5,-71 1136.5,-71 1136.5,-90"/>
<text text-anchor="middle" x="1109" y="-78" font-family="Helvetica,sans-Serif" font-size="10.00">Camera</text>
</a>
</g>
</g>
<!-- dir_cc8aaf6495c50689825ad8387a418235 -->
<g id="node13" class="node">
<title>dir_cc8aaf6495c50689825ad8387a418235</title>
<g id="a_node13"><a xlink:href="dir_cc8aaf6495c50689825ad8387a418235.html" target="_top" xlink:title="AutoPilotPlugins">
<polygon fill="#a2b4d6" stroke="red" points="1251,-90 1155,-90 1155,-71 1251,-71 1251,-90"/>
<text text-anchor="middle" x="1203" y="-78" font-family="Helvetica,sans-Serif" font-size="10.00">AutoPilotPlugins</text>
</a>
</g>
</g>
<!-- dir_df3471da428c92590d85ed8754a76078 -->
<g id="node14" class="node">
<title>dir_df3471da428c92590d85ed8754a76078</title>
<g id="a_node14"><a xlink:href="dir_df3471da428c92590d85ed8754a76078.html" target="_top" xlink:title="Joystick">
<polygon fill="#a2b4d6" stroke="#404040" points="1022.5,-90 967.5,-90 967.5,-71 1022.5,-71 1022.5,-90"/>
<text text-anchor="middle" x="995" y="-78" font-family="Helvetica,sans-Serif" font-size="10.00">Joystick</text>
</a>
</g>
</g>
<!-- dir_e70d0c0f198ee0280d1f11c0ba8073e0 -->
<g id="node15" class="node">
<title>dir_e70d0c0f198ee0280d1f11c0ba8073e0</title>
<g id="a_node15"><a xlink:href="dir_e70d0c0f198ee0280d1f11c0ba8073e0.html" target="_top" xlink:title="VideoManager">
<polygon fill="#a2b4d6" stroke="red" points="1356.5,-90 1269.5,-90 1269.5,-71 1356.5,-71 1356.5,-90"/>
<text text-anchor="middle" x="1313" y="-78" font-family="Helvetica,sans-Serif" font-size="10.00">VideoManager</text>
</a>
</g>
</g>
<!-- dir_fc93cbb76f1edc6741d2b3ade811eb27 -->
<g id="node16" class="node">
<title>dir_fc93cbb76f1edc6741d2b3ade811eb27</title>
<g id="a_node16"><a xlink:href="dir_fc93cbb76f1edc6741d2b3ade811eb27.html" target="_top" xlink:title="MissionManager">
<polygon fill="#a2b4d6" stroke="#404040" points="1471.5,-90 1374.5,-90 1374.5,-71 1471.5,-71 1471.5,-90"/>
<text text-anchor="middle" x="1423" y="-78" font-family="Helvetica,sans-Serif" font-size="10.00">MissionManager</text>
</a>
</g>
</g>
<!-- dir_ff383ddf1aa4eab0c4ce7910366d05a5 -->
<g id="node17" class="node">
<title>dir_ff383ddf1aa4eab0c4ce7910366d05a5</title>
<g id="a_node17"><a xlink:href="dir_ff383ddf1aa4eab0c4ce7910366d05a5.html" target="_top" xlink:title="Utilities">
<polygon fill="#a2b4d6" stroke="red" points="971.5,-35 916.5,-35 916.5,-16 971.5,-16 971.5,-35"/>
<text text-anchor="middle" x="944" y="-23" font-family="Helvetica,sans-Serif" font-size="10.00">Utilities</text>
</a>
</g>
</g>
<!-- dir_924006918299b661f7f5467ff93fed23 -->
<g id="node18" class="node">
<title>dir_924006918299b661f7f5467ff93fed23</title>
<text text-anchor="middle" x="732" y="-133" font-family="Helvetica,sans-Serif" font-size="10.00">Vehicle</text>
</g>
<!-- dir_924006918299b661f7f5467ff93fed23&#45;&gt;dir_179bf47964619e91d8f4b948968d2dcb -->
<g id="edge3" class="edge">
<title>dir_924006918299b661f7f5467ff93fed23&#45;&gt;dir_179bf47964619e91d8f4b948968d2dcb</title>
<g id="a_edge3"><a xlink:href="dir_000071_000041.html" target="_top">
<path fill="none" stroke="#63b8ff" d="M705.7,-127.75C702.77,-127.11 699.83,-126.51 697,-126 630.05,-113.95 438.19,-140.85 393,-90 385.03,-81.03 385.08,-72.02 393,-63 408.59,-45.25 559.47,-33.53 633.05,-28.83"/>
<polygon fill="#63b8ff" stroke="#63b8ff" points="633.55,-32.31 643.32,-28.19 633.12,-25.32 633.55,-32.31"/>
</a>
</g>
<g id="a_edge3&#45;headlabel"><a xlink:href="dir_000071_000041.html" target="_top" xlink:title="24">
<text text-anchor="middle" x="630.14" y="-32.86" font-family="Helvetica,sans-Serif" font-size="10.00" fill="#63b8ff">24</text>
</a>
</g>
</g>
<!-- dir_924006918299b661f7f5467ff93fed23&#45;&gt;dir_2728a19ac4d342276b17ec9828d0d8ad -->
<g id="edge5" class="edge">
<title>dir_924006918299b661f7f5467ff93fed23&#45;&gt;dir_2728a19ac4d342276b17ec9828d0d8ad</title>
<g id="a_edge5"><a xlink:href="dir_000071_000013.html" target="_top">
<path fill="none" stroke="#63b8ff" d="M705.72,-127.61C702.79,-127 699.84,-126.44 697,-126 469.57,-90.83 405.61,-123.97 174.11,-89.89"/>
<polygon fill="#63b8ff" stroke="#63b8ff" points="174.44,-86.4 164.03,-88.38 173.41,-93.33 174.44,-86.4"/>
</a>
</g>
<g id="a_edge5&#45;headlabel"><a xlink:href="dir_000071_000013.html" target="_top" xlink:title="14">
<text text-anchor="middle" x="178.42" y="-81.63" font-family="Helvetica,sans-Serif" font-size="10.00" fill="#63b8ff">14</text>
</a>
</g>
</g>
<!-- dir_924006918299b661f7f5467ff93fed23&#45;&gt;dir_2e789b5f2ef5f5e229d12665af24e261 -->
<g id="edge6" class="edge">
<title>dir_924006918299b661f7f5467ff93fed23&#45;&gt;dir_2e789b5f2ef5f5e229d12665af24e261</title>
<g id="a_edge6"><a xlink:href="dir_000071_000049.html" target="_top">
<path fill="none" stroke="#63b8ff" d="M705.66,-127.93C702.75,-127.25 699.81,-126.6 697,-126 633.44,-112.55 560.1,-99.61 510.15,-91.19"/>
<polygon fill="#63b8ff" stroke="#63b8ff" points="510.62,-87.72 500.18,-89.51 509.46,-94.62 510.62,-87.72"/>
</a>
</g>
<g id="a_edge6&#45;headlabel"><a xlink:href="dir_000071_000049.html" target="_top" xlink:title="2">
<text text-anchor="middle" x="514.63" y="-83.01" font-family="Helvetica,sans-Serif" font-size="10.00" fill="#63b8ff">2</text>
</a>
</g>
</g>
<!-- dir_924006918299b661f7f5467ff93fed23&#45;&gt;dir_32137984f496da46263d816e0d6dc804 -->
<g id="edge7" class="edge">
<title>dir_924006918299b661f7f5467ff93fed23&#45;&gt;dir_32137984f496da46263d816e0d6dc804</title>
<g id="a_edge7"><a xlink:href="dir_000071_000004.html" target="_top">
<path fill="none" stroke="#63b8ff" d="M705.72,-127.64C702.79,-127.01 699.84,-126.45 697,-126 490.53,-93.22 433.82,-126.68 228,-90 226.71,-89.77 225.4,-89.51 224.08,-89.22"/>
<polygon fill="#63b8ff" stroke="#63b8ff" points="224.61,-85.75 214.05,-86.69 222.89,-92.53 224.61,-85.75"/>
</a>
</g>
<g id="a_edge7&#45;headlabel"><a xlink:href="dir_000071_000004.html" target="_top" xlink:title="7">
<text text-anchor="middle" x="228.79" y="-81.37" font-family="Helvetica,sans-Serif" font-size="10.00" fill="#63b8ff">7</text>
</a>
</g>
</g>
<!-- dir_924006918299b661f7f5467ff93fed23&#45;&gt;dir_57fd63fe491ef075147d1cb32299e674 -->
<g id="edge8" class="edge">
<title>dir_924006918299b661f7f5467ff93fed23&#45;&gt;dir_57fd63fe491ef075147d1cb32299e674</title>
<g id="a_edge8"><a xlink:href="dir_000071_000055.html" target="_top">
<path fill="none" stroke="#63b8ff" d="M705.64,-128.02C702.73,-127.33 699.8,-126.64 697,-126 619.26,-108.23 477.05,-123.5 529,-63 555.8,-31.79 671.35,-41.31 712,-35 713.71,-34.73 715.45,-34.46 717.2,-34.19"/>
<polygon fill="#63b8ff" stroke="#63b8ff" points="718.02,-37.61 727.36,-32.6 716.94,-30.69 718.02,-37.61"/>
</a>
</g>
<g id="a_edge8&#45;headlabel"><a xlink:href="dir_000071_000055.html" target="_top" xlink:title="12">
<text text-anchor="middle" x="714.91" y="-38.47" font-family="Helvetica,sans-Serif" font-size="10.00" fill="#63b8ff">12</text>
</a>
</g>
</g>
<!-- dir_924006918299b661f7f5467ff93fed23&#45;&gt;dir_66c47b9977029413dec9bdf1834743ad -->
<g id="edge9" class="edge">
<title>dir_924006918299b661f7f5467ff93fed23&#45;&gt;dir_66c47b9977029413dec9bdf1834743ad</title>
<g id="a_edge9"><a xlink:href="dir_000071_000031.html" target="_top">
<path fill="none" stroke="#63b8ff" d="M705.75,-126.22C677.27,-117.23 631.63,-102.83 599.85,-92.81"/>
<polygon fill="#63b8ff" stroke="#63b8ff" points="600.66,-89.39 590.07,-89.72 598.55,-96.07 600.66,-89.39"/>
</a>
</g>
<g id="a_edge9&#45;headlabel"><a xlink:href="dir_000071_000031.html" target="_top" xlink:title="2">
<text text-anchor="middle" x="604.94" y="-85.27" font-family="Helvetica,sans-Serif" font-size="10.00" fill="#63b8ff">2</text>
</a>
</g>
</g>
<!-- dir_924006918299b661f7f5467ff93fed23&#45;&gt;dir_87225e6cbcb4cf5309991212c88ac25b -->
<g id="edge10" class="edge">
<title>dir_924006918299b661f7f5467ff93fed23&#45;&gt;dir_87225e6cbcb4cf5309991212c88ac25b</title>
<g id="a_edge10"><a xlink:href="dir_000071_000061.html" target="_top">
<path fill="none" stroke="#63b8ff" d="M705.73,-127.59C702.8,-126.98 699.84,-126.43 697,-126 437.91,-87.03 365.49,-126.8 102.43,-89.94"/>
<polygon fill="#63b8ff" stroke="#63b8ff" points="102.59,-86.43 92.19,-88.48 101.6,-93.36 102.59,-86.43"/>
</a>
</g>
<g id="a_edge10&#45;headlabel"><a xlink:href="dir_000071_000061.html" target="_top" xlink:title="14">
<text text-anchor="middle" x="106.54" y="-81.63" font-family="Helvetica,sans-Serif" font-size="10.00" fill="#63b8ff">14</text>
</a>
</g>
</g>
<!-- dir_924006918299b661f7f5467ff93fed23&#45;&gt;dir_96e291b54c69d4ab37cadc9baf789be5 -->
<g id="edge11" class="edge">
<title>dir_924006918299b661f7f5467ff93fed23&#45;&gt;dir_96e291b54c69d4ab37cadc9baf789be5</title>
<g id="a_edge11"><a xlink:href="dir_000071_000023.html" target="_top">
<path fill="none" stroke="#63b8ff" d="M705.72,-127.64C702.79,-127.02 699.84,-126.45 697,-126 647.03,-118 277.34,-127.17 243,-90 208.27,-52.41 289.88,-36.79 349.72,-30.51"/>
<polygon fill="#63b8ff" stroke="#63b8ff" points="350.25,-33.97 359.86,-29.51 349.57,-27.01 350.25,-33.97"/>
</a>
</g>
<g id="a_edge11&#45;headlabel"><a xlink:href="dir_000071_000023.html" target="_top" xlink:title="7">
<text text-anchor="middle" x="346.95" y="-34.65" font-family="Helvetica,sans-Serif" font-size="10.00" fill="#63b8ff">7</text>
</a>
</g>
</g>
<!-- dir_924006918299b661f7f5467ff93fed23&#45;&gt;dir_9ca388931d97c86fb1978224ef335a40 -->
<g id="edge12" class="edge">
<title>dir_924006918299b661f7f5467ff93fed23&#45;&gt;dir_9ca388931d97c86fb1978224ef335a40</title>
<g id="a_edge12"><a xlink:href="dir_000071_000065.html" target="_top">
<path fill="none" stroke="#63b8ff" d="M705.71,-127.68C702.78,-127.05 699.84,-126.47 697,-126 530.29,-98.13 482.65,-118.18 312.23,-89.94"/>
<polygon fill="#63b8ff" stroke="#63b8ff" points="312.6,-86.46 302.16,-88.24 311.44,-93.36 312.6,-86.46"/>
</a>
</g>
<g id="a_edge12&#45;headlabel"><a xlink:href="dir_000071_000065.html" target="_top" xlink:title="2">
<text text-anchor="middle" x="316.62" y="-81.76" font-family="Helvetica,sans-Serif" font-size="10.00" fill="#63b8ff">2</text>
</a>
</g>
</g>
<!-- dir_924006918299b661f7f5467ff93fed23&#45;&gt;dir_9d6d731e60392cad6f85c77edbb5871d -->
<g id="edge13" class="edge">
<title>dir_924006918299b661f7f5467ff93fed23&#45;&gt;dir_9d6d731e60392cad6f85c77edbb5871d</title>
<g id="a_edge13"><a xlink:href="dir_000071_000001.html" target="_top">
<path fill="none" stroke="#63b8ff" d="M705.7,-127.74C702.78,-127.1 699.83,-126.5 697,-126 556.51,-101.11 518.57,-114.44 378,-90 376.75,-89.78 375.49,-89.55 374.21,-89.3"/>
<polygon fill="#63b8ff" stroke="#63b8ff" points="374.89,-85.87 364.38,-87.22 373.44,-92.72 374.89,-85.87"/>
</a>
</g>
<g id="a_edge13&#45;headlabel"><a xlink:href="dir_000071_000001.html" target="_top" xlink:title="1">
<text text-anchor="middle" x="379" y="-81.34" font-family="Helvetica,sans-Serif" font-size="10.00" fill="#63b8ff">1</text>
</a>
</g>
</g>
<!-- dir_924006918299b661f7f5467ff93fed23&#45;&gt;dir_9fa1f6896f2c68d8c6f5e454a6a72ce4 -->
<g id="edge14" class="edge">
<title>dir_924006918299b661f7f5467ff93fed23&#45;&gt;dir_9fa1f6896f2c68d8c6f5e454a6a72ce4</title>
<g id="a_edge14"><a xlink:href="dir_000071_000021.html" target="_top">
<path fill="none" stroke="#63b8ff" d="M758.29,-134.77C824.74,-134.84 996.66,-130.97 1032,-90 1039.84,-80.91 1039.54,-72.33 1032,-63 1030.02,-60.55 958.28,-45.76 908.64,-35.78"/>
<polygon fill="#63b8ff" stroke="#63b8ff" points="909.22,-32.33 898.73,-33.79 907.84,-39.19 909.22,-32.33"/>
</a>
</g>
<g id="a_edge14&#45;headlabel"><a xlink:href="dir_000071_000021.html" target="_top" xlink:title="36">
<text text-anchor="middle" x="913.3" y="-27.75" font-family="Helvetica,sans-Serif" font-size="10.00" fill="#63b8ff">36</text>
</a>
</g>
</g>
<!-- dir_924006918299b661f7f5467ff93fed23&#45;&gt;dir_a316e9605cf2e65295ae387cbf599266 -->
<g id="edge15" class="edge">
<title>dir_924006918299b661f7f5467ff93fed23&#45;&gt;dir_a316e9605cf2e65295ae387cbf599266</title>
<g id="a_edge15"><a xlink:href="dir_000071_000011.html" target="_top">
<path fill="none" stroke="#63b8ff" d="M758.15,-131.64C814.69,-125.31 952.43,-109.18 1067,-90 1068.47,-89.75 1069.96,-89.5 1071.47,-89.23"/>
<polygon fill="#63b8ff" stroke="#63b8ff" points="1072.3,-92.63 1081.49,-87.35 1071.01,-85.75 1072.3,-92.63"/>
</a>
</g>
<g id="a_edge15&#45;headlabel"><a xlink:href="dir_000071_000011.html" target="_top" xlink:title="1">
<text text-anchor="middle" x="1069.3" y="-93.58" font-family="Helvetica,sans-Serif" font-size="10.00" fill="#63b8ff">1</text>
</a>
</g>
</g>
<!-- dir_924006918299b661f7f5467ff93fed23&#45;&gt;dir_cc8aaf6495c50689825ad8387a418235 -->
<g id="edge16" class="edge">
<title>dir_924006918299b661f7f5467ff93fed23&#45;&gt;dir_cc8aaf6495c50689825ad8387a418235</title>
<g id="a_edge16"><a xlink:href="dir_000071_000009.html" target="_top">
<path fill="none" stroke="#63b8ff" d="M758.2,-132.06C822.28,-126.01 992.22,-109.49 1144.79,-90.11"/>
<polygon fill="#63b8ff" stroke="#63b8ff" points="1145.34,-93.57 1154.82,-88.83 1144.45,-86.62 1145.34,-93.57"/>
</a>
</g>
<g id="a_edge16&#45;headlabel"><a xlink:href="dir_000071_000009.html" target="_top" xlink:title="1">
<text text-anchor="middle" x="1142.14" y="-94.34" font-family="Helvetica,sans-Serif" font-size="10.00" fill="#63b8ff">1</text>
</a>
</g>
</g>
<!-- dir_924006918299b661f7f5467ff93fed23&#45;&gt;dir_df3471da428c92590d85ed8754a76078 -->
<g id="edge17" class="edge">
<title>dir_924006918299b661f7f5467ff93fed23&#45;&gt;dir_df3471da428c92590d85ed8754a76078</title>
<g id="a_edge17"><a xlink:href="dir_000071_000037.html" target="_top">
<path fill="none" stroke="#63b8ff" d="M758.2,-129.23C799.58,-120.91 882.6,-104.21 953,-90 954.46,-89.71 955.95,-89.41 957.45,-89.1"/>
<polygon fill="#63b8ff" stroke="#63b8ff" points="958.33,-92.49 967.44,-87.08 956.94,-85.63 958.33,-92.49"/>
</a>
</g>
<g id="a_edge17&#45;headlabel"><a xlink:href="dir_000071_000037.html" target="_top" xlink:title="3">
<text text-anchor="middle" x="955.37" y="-93.49" font-family="Helvetica,sans-Serif" font-size="10.00" fill="#63b8ff">3</text>
</a>
</g>
</g>
<!-- dir_924006918299b661f7f5467ff93fed23&#45;&gt;dir_e70d0c0f198ee0280d1f11c0ba8073e0 -->
<g id="edge18" class="edge">
<title>dir_924006918299b661f7f5467ff93fed23&#45;&gt;dir_e70d0c0f198ee0280d1f11c0ba8073e0</title>
<g id="a_edge18"><a xlink:href="dir_000071_000073.html" target="_top">
<path fill="none" stroke="#63b8ff" d="M758.17,-132.99C833.96,-128.47 1060.33,-113.95 1259.31,-89.99"/>
<polygon fill="#63b8ff" stroke="#63b8ff" points="1259.86,-93.44 1269.36,-88.76 1259.01,-86.5 1259.86,-93.44"/>
</a>
</g>
<g id="a_edge18&#45;headlabel"><a xlink:href="dir_000071_000073.html" target="_top" xlink:title="1">
<text text-anchor="middle" x="1256.63" y="-94.2" font-family="Helvetica,sans-Serif" font-size="10.00" fill="#63b8ff">1</text>
</a>
</g>
</g>
<!-- dir_924006918299b661f7f5467ff93fed23&#45;&gt;dir_fc93cbb76f1edc6741d2b3ade811eb27 -->
<g id="edge19" class="edge">
<title>dir_924006918299b661f7f5467ff93fed23&#45;&gt;dir_fc93cbb76f1edc6741d2b3ade811eb27</title>
<g id="a_edge19"><a xlink:href="dir_000071_000042.html" target="_top">
<path fill="none" stroke="#63b8ff" d="M758.03,-133.4C843.43,-129.65 1122.94,-116.14 1364.2,-90.12"/>
<polygon fill="#63b8ff" stroke="#63b8ff" points="1364.65,-93.59 1374.21,-89.03 1363.89,-86.63 1364.65,-93.59"/>
</a>
</g>
<g id="a_edge19&#45;headlabel"><a xlink:href="dir_000071_000042.html" target="_top" xlink:title="8">
<text text-anchor="middle" x="1361.39" y="-94.3" font-family="Helvetica,sans-Serif" font-size="10.00" fill="#63b8ff">8</text>
</a>
</g>
</g>
<!-- dir_924006918299b661f7f5467ff93fed23&#45;&gt;dir_ff383ddf1aa4eab0c4ce7910366d05a5 -->
<g id="edge20" class="edge">
<title>dir_924006918299b661f7f5467ff93fed23&#45;&gt;dir_ff383ddf1aa4eab0c4ce7910366d05a5</title>
<g id="a_edge20"><a xlink:href="dir_000071_000070.html" target="_top">
<path fill="none" stroke="#63b8ff" d="M758.4,-134.87C826.03,-135.2 1002.7,-131.94 1039,-90 1046.85,-80.93 1045.8,-72.89 1039,-63 1026.16,-44.31 1002.32,-35.19 981.74,-30.74"/>
<polygon fill="#63b8ff" stroke="#63b8ff" points="982.13,-27.25 971.66,-28.86 980.84,-34.13 982.13,-27.25"/>
</a>
</g>
<g id="a_edge20&#45;headlabel"><a xlink:href="dir_000071_000070.html" target="_top" xlink:title="56">
<text text-anchor="middle" x="986.18" y="-22.62" font-family="Helvetica,sans-Serif" font-size="10.00" fill="#63b8ff">56</text>
</a>
</g>
</g>
<!-- dir_0e83d4a8b4baa21ef2c89e096cf3e5bc -->
<g id="node19" class="node">
<title>dir_0e83d4a8b4baa21ef2c89e096cf3e5bc</title>
<g id="a_node19"><a xlink:href="dir_0e83d4a8b4baa21ef2c89e096cf3e5bc.html" target="_top" xlink:title="Actuators">
<polygon fill="#a2b4d6" stroke="#404040" points="819.5,-90 756.5,-90 756.5,-71 819.5,-71 819.5,-90"/>
<text text-anchor="middle" x="788" y="-78" font-family="Helvetica,sans-Serif" font-size="10.00">Actuators</text>
</a>
</g>
</g>
<!-- dir_924006918299b661f7f5467ff93fed23&#45;&gt;dir_0e83d4a8b4baa21ef2c89e096cf3e5bc -->
<g id="edge2" class="edge">
<title>dir_924006918299b661f7f5467ff93fed23&#45;&gt;dir_0e83d4a8b4baa21ef2c89e096cf3e5bc</title>
<g id="a_edge2"><a xlink:href="dir_000071_000000.html" target="_top">
<path fill="none" stroke="#63b8ff" d="M741,-125.98C749.19,-118.23 761.51,-106.58 771.47,-97.14"/>
<polygon fill="#63b8ff" stroke="#63b8ff" points="773.98,-99.59 778.84,-90.17 769.17,-94.5 773.98,-99.59"/>
</a>
</g>
<g id="a_edge2&#45;headlabel"><a xlink:href="dir_000071_000000.html" target="_top" xlink:title="1">
<text text-anchor="middle" x="773.32" y="-101.62" font-family="Helvetica,sans-Serif" font-size="10.00" fill="#63b8ff">1</text>
</a>
</g>
</g>
<!-- dir_099b2a591f7ca13c5ad31f510e166074 -->
<g id="node20" class="node">
<title>dir_099b2a591f7ca13c5ad31f510e166074</title>
<g id="a_node20"><a xlink:href="dir_099b2a591f7ca13c5ad31f510e166074.html" target="_top" xlink:title="ComponentInformation">
<polygon fill="#a2b4d6" stroke="#404040" points="738,-90 608,-90 608,-71 738,-71 738,-90"/>
<text text-anchor="middle" x="673" y="-78" font-family="Helvetica,sans-Serif" font-size="10.00">ComponentInformation</text>
</a>
</g>
</g>
<!-- dir_924006918299b661f7f5467ff93fed23&#45;&gt;dir_099b2a591f7ca13c5ad31f510e166074 -->
<g id="edge1" class="edge">
<title>dir_924006918299b661f7f5467ff93fed23&#45;&gt;dir_099b2a591f7ca13c5ad31f510e166074</title>
<g id="a_edge1"><a xlink:href="dir_000071_000014.html" target="_top">
<path fill="none" stroke="#63b8ff" d="M722.52,-125.98C713.8,-118.15 700.66,-106.34 690.1,-96.86"/>
<polygon fill="#63b8ff" stroke="#63b8ff" points="692.43,-94.25 682.65,-90.17 687.75,-99.46 692.43,-94.25"/>
</a>
</g>
<g id="a_edge1&#45;headlabel"><a xlink:href="dir_000071_000014.html" target="_top" xlink:title="3">
<text text-anchor="middle" x="697" y="-92.04" font-family="Helvetica,sans-Serif" font-size="10.00" fill="#63b8ff">3</text>
</a>
</g>
</g>
<!-- dir_19a5c61fecac98fc9d80b8b21b219efb -->
<g id="node21" class="node">
<title>dir_19a5c61fecac98fc9d80b8b21b219efb</title>
<g id="a_node21"><a xlink:href="dir_19a5c61fecac98fc9d80b8b21b219efb.html" target="_top" xlink:title="FactGroups">
<polygon fill="#a2b4d6" stroke="#404040" points="908.5,-90 837.5,-90 837.5,-71 908.5,-71 908.5,-90"/>
<text text-anchor="middle" x="873" y="-78" font-family="Helvetica,sans-Serif" font-size="10.00">FactGroups</text>
</a>
</g>
</g>
<!-- dir_924006918299b661f7f5467ff93fed23&#45;&gt;dir_19a5c61fecac98fc9d80b8b21b219efb -->
<g id="edge4" class="edge">
<title>dir_924006918299b661f7f5467ff93fed23&#45;&gt;dir_19a5c61fecac98fc9d80b8b21b219efb</title>
<g id="a_edge4"><a xlink:href="dir_000071_000020.html" target="_top">
<path fill="none" stroke="#63b8ff" d="M754.65,-125.98C777.85,-117.27 814.12,-103.63 840.4,-93.75"/>
<polygon fill="#63b8ff" stroke="#63b8ff" points="841.8,-96.97 849.93,-90.17 839.34,-90.41 841.8,-96.97"/>
</a>
</g>
<g id="a_edge4&#45;headlabel"><a xlink:href="dir_000071_000020.html" target="_top" xlink:title="20">
<text text-anchor="middle" x="839.44" y="-98.39" font-family="Helvetica,sans-Serif" font-size="10.00" fill="#63b8ff">20</text>
</a>
</g>
</g>
<!-- dir_0e83d4a8b4baa21ef2c89e096cf3e5bc&#45;&gt;dir_179bf47964619e91d8f4b948968d2dcb -->
<g id="edge21" class="edge">
<title>dir_0e83d4a8b4baa21ef2c89e096cf3e5bc&#45;&gt;dir_179bf47964619e91d8f4b948968d2dcb</title>
<g id="a_edge21"><a xlink:href="dir_000000_000041.html" target="_top">
<path fill="none" stroke="#63b8ff" d="M769.52,-70.98C751.02,-62.46 722.32,-49.23 701.02,-39.41"/>
<polygon fill="#63b8ff" stroke="#63b8ff" points="702.36,-36.18 691.81,-35.17 699.43,-42.53 702.36,-36.18"/>
</a>
</g>
<g id="a_edge21&#45;headlabel"><a xlink:href="dir_000000_000041.html" target="_top" xlink:title="1">
<text text-anchor="middle" x="706.81" y="-32.6" font-family="Helvetica,sans-Serif" font-size="10.00" fill="#63b8ff">1</text>
</a>
</g>
</g>
<!-- dir_0e83d4a8b4baa21ef2c89e096cf3e5bc&#45;&gt;dir_57fd63fe491ef075147d1cb32299e674 -->
<g id="edge22" class="edge">
<title>dir_0e83d4a8b4baa21ef2c89e096cf3e5bc&#45;&gt;dir_57fd63fe491ef075147d1cb32299e674</title>
<g id="a_edge22"><a xlink:href="dir_000000_000055.html" target="_top">
<path fill="none" stroke="#63b8ff" d="M784.37,-70.75C781.42,-63.65 777.17,-53.4 773.49,-44.56"/>
<polygon fill="#63b8ff" stroke="#63b8ff" points="776.63,-42.98 769.57,-35.09 770.17,-45.67 776.63,-42.98"/>
</a>
</g>
<g id="a_edge22&#45;headlabel"><a xlink:href="dir_000000_000055.html" target="_top" xlink:title="6">
<text text-anchor="middle" x="780.63" y="-42.71" font-family="Helvetica,sans-Serif" font-size="10.00" fill="#63b8ff">6</text>
</a>
</g>
</g>
<!-- dir_0e83d4a8b4baa21ef2c89e096cf3e5bc&#45;&gt;dir_9fa1f6896f2c68d8c6f5e454a6a72ce4 -->
<g id="edge23" class="edge">
<title>dir_0e83d4a8b4baa21ef2c89e096cf3e5bc&#45;&gt;dir_9fa1f6896f2c68d8c6f5e454a6a72ce4</title>
<g id="a_edge23"><a xlink:href="dir_000000_000021.html" target="_top">
<path fill="none" stroke="#63b8ff" d="M799.89,-70.98C811.15,-62.92 828.29,-50.65 841.71,-41.03"/>
<polygon fill="#63b8ff" stroke="#63b8ff" points="843.8,-43.84 849.89,-35.17 839.73,-38.15 843.8,-43.84"/>
</a>
</g>
<g id="a_edge23&#45;headlabel"><a xlink:href="dir_000000_000021.html" target="_top" xlink:title="5">
<text text-anchor="middle" x="842.53" y="-45.74" font-family="Helvetica,sans-Serif" font-size="10.00" fill="#63b8ff">5</text>
</a>
</g>
</g>
<!-- dir_0e83d4a8b4baa21ef2c89e096cf3e5bc&#45;&gt;dir_ff383ddf1aa4eab0c4ce7910366d05a5 -->
<g id="edge24" class="edge">
<title>dir_0e83d4a8b4baa21ef2c89e096cf3e5bc&#45;&gt;dir_ff383ddf1aa4eab0c4ce7910366d05a5</title>
<g id="a_edge24"><a xlink:href="dir_000000_000070.html" target="_top">
<path fill="none" stroke="#63b8ff" d="M808.32,-70.97C814.88,-68.31 822.21,-65.44 829,-63 854.64,-53.79 883.92,-44.51 906.51,-37.62"/>
<polygon fill="#63b8ff" stroke="#63b8ff" points="907.83,-40.88 916.39,-34.63 905.8,-34.18 907.83,-40.88"/>
</a>
</g>
<g id="a_edge24&#45;headlabel"><a xlink:href="dir_000000_000070.html" target="_top" xlink:title="1">
<text text-anchor="middle" x="905.21" y="-42.13" font-family="Helvetica,sans-Serif" font-size="10.00" fill="#63b8ff">1</text>
</a>
</g>
</g>
<!-- dir_099b2a591f7ca13c5ad31f510e166074&#45;&gt;dir_179bf47964619e91d8f4b948968d2dcb -->
<g id="edge25" class="edge">
<title>dir_099b2a591f7ca13c5ad31f510e166074&#45;&gt;dir_179bf47964619e91d8f4b948968d2dcb</title>
<g id="a_edge25"><a xlink:href="dir_000014_000041.html" target="_top">
<path fill="none" stroke="#63b8ff" d="M673,-70.75C673,-63.8 673,-53.85 673,-45.13"/>
<polygon fill="#63b8ff" stroke="#63b8ff" points="676.5,-45.09 673,-35.09 669.5,-45.09 676.5,-45.09"/>
</a>
</g>
<g id="a_edge25&#45;headlabel"><a xlink:href="dir_000014_000041.html" target="_top" xlink:title="4">
<text text-anchor="middle" x="679.34" y="-46.18" font-family="Helvetica,sans-Serif" font-size="10.00" fill="#63b8ff">4</text>
</a>
</g>
</g>
<!-- dir_099b2a591f7ca13c5ad31f510e166074&#45;&gt;dir_96e291b54c69d4ab37cadc9baf789be5 -->
<g id="edge26" class="edge">
<title>dir_099b2a591f7ca13c5ad31f510e166074&#45;&gt;dir_96e291b54c69d4ab37cadc9baf789be5</title>
<g id="a_edge26"><a xlink:href="dir_000014_000023.html" target="_top">
<path fill="none" stroke="#63b8ff" d="M638.69,-70.92C627.64,-68.26 615.33,-65.4 604,-63 556.34,-52.92 501.89,-42.99 462.17,-36.05"/>
<polygon fill="#63b8ff" stroke="#63b8ff" points="462.6,-32.57 452.14,-34.3 461.4,-39.46 462.6,-32.57"/>
</a>
</g>
<g id="a_edge26&#45;headlabel"><a xlink:href="dir_000014_000023.html" target="_top" xlink:title="2">
<text text-anchor="middle" x="466.62" y="-27.89" font-family="Helvetica,sans-Serif" font-size="10.00" fill="#63b8ff">2</text>
</a>
</g>
</g>
<!-- dir_099b2a591f7ca13c5ad31f510e166074&#45;&gt;dir_9fa1f6896f2c68d8c6f5e454a6a72ce4 -->
<g id="edge27" class="edge">
<title>dir_099b2a591f7ca13c5ad31f510e166074&#45;&gt;dir_9fa1f6896f2c68d8c6f5e454a6a72ce4</title>
<g id="a_edge27"><a xlink:href="dir_000014_000021.html" target="_top">
<path fill="none" stroke="#63b8ff" d="M703.37,-70.98C735.37,-62.01 785.96,-47.82 821.38,-37.89"/>
<polygon fill="#63b8ff" stroke="#63b8ff" points="822.71,-41.15 831.4,-35.08 820.82,-34.41 822.71,-41.15"/>
</a>
</g>
<g id="a_edge27&#45;headlabel"><a xlink:href="dir_000014_000021.html" target="_top" xlink:title="2">
<text text-anchor="middle" x="820.02" y="-42.36" font-family="Helvetica,sans-Serif" font-size="10.00" fill="#63b8ff">2</text>
</a>
</g>
</g>
<!-- dir_099b2a591f7ca13c5ad31f510e166074&#45;&gt;dir_ff383ddf1aa4eab0c4ce7910366d05a5 -->
<g id="edge28" class="edge">
<title>dir_099b2a591f7ca13c5ad31f510e166074&#45;&gt;dir_ff383ddf1aa4eab0c4ce7910366d05a5</title>
<g id="a_edge28"><a xlink:href="dir_000014_000070.html" target="_top">
<path fill="none" stroke="#63b8ff" d="M710.32,-70.96C722.33,-68.3 735.7,-65.43 748,-63 815.78,-49.62 835.6,-49.51 906.29,-35.26"/>
<polygon fill="#63b8ff" stroke="#63b8ff" points="907.03,-38.68 916.13,-33.25 905.63,-31.82 907.03,-38.68"/>
</a>
</g>
<g id="a_edge28&#45;headlabel"><a xlink:href="dir_000014_000070.html" target="_top" xlink:title="19">
<text text-anchor="middle" x="904.07" y="-39.68" font-family="Helvetica,sans-Serif" font-size="10.00" fill="#63b8ff">19</text>
</a>
</g>
</g>
<!-- dir_19a5c61fecac98fc9d80b8b21b219efb&#45;&gt;dir_179bf47964619e91d8f4b948968d2dcb -->
<g id="edge29" class="edge">
<title>dir_19a5c61fecac98fc9d80b8b21b219efb&#45;&gt;dir_179bf47964619e91d8f4b948968d2dcb</title>
<g id="a_edge29"><a xlink:href="dir_000020_000041.html" target="_top">
<path fill="none" stroke="#63b8ff" d="M851.71,-70.88C844.56,-68.16 836.5,-65.27 829,-63 789.85,-51.13 744.19,-40.85 712.43,-34.25"/>
<polygon fill="#63b8ff" stroke="#63b8ff" points="713.13,-30.83 702.63,-32.24 711.72,-37.68 713.13,-30.83"/>
</a>
</g>
<g id="a_edge29&#45;headlabel"><a xlink:href="dir_000020_000041.html" target="_top" xlink:title="1">
<text text-anchor="middle" x="717.22" y="-26.27" font-family="Helvetica,sans-Serif" font-size="10.00" fill="#63b8ff">1</text>
</a>
</g>
</g>
<!-- dir_19a5c61fecac98fc9d80b8b21b219efb&#45;&gt;dir_9fa1f6896f2c68d8c6f5e454a6a72ce4 -->
<g id="edge30" class="edge">
<title>dir_19a5c61fecac98fc9d80b8b21b219efb&#45;&gt;dir_9fa1f6896f2c68d8c6f5e454a6a72ce4</title>
<g id="a_edge30"><a xlink:href="dir_000020_000021.html" target="_top">
<path fill="none" stroke="#63b8ff" d="M871.18,-70.75C869.74,-63.8 867.68,-53.85 865.87,-45.13"/>
<polygon fill="#63b8ff" stroke="#63b8ff" points="869.24,-44.17 863.78,-35.09 862.39,-45.59 869.24,-44.17"/>
</a>
</g>
<g id="a_edge30&#45;headlabel"><a xlink:href="dir_000020_000021.html" target="_top" xlink:title="19">
<text text-anchor="middle" x="872.75" y="-44.61" font-family="Helvetica,sans-Serif" font-size="10.00" fill="#63b8ff">19</text>
</a>
</g>
</g>
<!-- dir_19a5c61fecac98fc9d80b8b21b219efb&#45;&gt;dir_ff383ddf1aa4eab0c4ce7910366d05a5 -->
<g id="edge31" class="edge">
<title>dir_19a5c61fecac98fc9d80b8b21b219efb&#45;&gt;dir_ff383ddf1aa4eab0c4ce7910366d05a5</title>
<g id="a_edge31"><a xlink:href="dir_000020_000070.html" target="_top">
<path fill="none" stroke="#63b8ff" d="M884.41,-70.98C895.11,-63 911.34,-50.88 924.16,-41.31"/>
<polygon fill="#63b8ff" stroke="#63b8ff" points="926.47,-43.96 932.39,-35.17 922.28,-38.35 926.47,-43.96"/>
</a>
</g>
<g id="a_edge31&#45;headlabel"><a xlink:href="dir_000020_000070.html" target="_top" xlink:title="5">
<text text-anchor="middle" x="925.28" y="-45.88" font-family="Helvetica,sans-Serif" font-size="10.00" fill="#63b8ff">5</text>
</a>
</g>
</g>
<!-- dir_2614be1028e2e1372057bba9632f3a37 -->
<g id="node22" class="node">
<title>dir_2614be1028e2e1372057bba9632f3a37</title>
<g id="a_node22"><a xlink:href="dir_2614be1028e2e1372057bba9632f3a37.html" target="_top" xlink:title="VehicleSetup">
<polygon fill="#a2b4d6" stroke="#404040" points="688,-145 608,-145 608,-126 688,-126 688,-145"/>
<text text-anchor="middle" x="648" y="-133" font-family="Helvetica,sans-Serif" font-size="10.00">VehicleSetup</text>
</a>
</g>
</g>
<!-- dir_2614be1028e2e1372057bba9632f3a37&#45;&gt;dir_179bf47964619e91d8f4b948968d2dcb -->
<g id="edge33" class="edge">
<title>dir_2614be1028e2e1372057bba9632f3a37&#45;&gt;dir_179bf47964619e91d8f4b948968d2dcb</title>
<g id="a_edge33"><a xlink:href="dir_000072_000041.html" target="_top">
<path fill="none" stroke="#63b8ff" d="M607.91,-134.71C476.74,-135 66.54,-132.47 27,-90 18.82,-81.22 18.76,-71.72 27,-63 37.46,-51.94 493.72,-33.43 633.03,-28.02"/>
<polygon fill="#63b8ff" stroke="#63b8ff" points="633.4,-31.51 643.26,-27.63 633.13,-24.52 633.4,-31.51"/>
</a>
</g>
<g id="a_edge33&#45;headlabel"><a xlink:href="dir_000072_000041.html" target="_top" xlink:title="1">
<text text-anchor="middle" x="629.92" y="-31.99" font-family="Helvetica,sans-Serif" font-size="10.00" fill="#63b8ff">1</text>
</a>
</g>
</g>
<!-- dir_2614be1028e2e1372057bba9632f3a37&#45;&gt;dir_2728a19ac4d342276b17ec9828d0d8ad -->
<g id="edge34" class="edge">
<title>dir_2614be1028e2e1372057bba9632f3a37&#45;&gt;dir_2728a19ac4d342276b17ec9828d0d8ad</title>
<g id="a_edge34"><a xlink:href="dir_000072_000013.html" target="_top">
<path fill="none" stroke="#63b8ff" d="M607.72,-132.61C527.15,-128.43 340.28,-116.69 173.96,-89.93"/>
<polygon fill="#63b8ff" stroke="#63b8ff" points="174.48,-86.47 164.05,-88.31 173.35,-93.37 174.48,-86.47"/>
</a>
</g>
<g id="a_edge34&#45;headlabel"><a xlink:href="dir_000072_000013.html" target="_top" xlink:title="3">
<text text-anchor="middle" x="178.48" y="-81.74" font-family="Helvetica,sans-Serif" font-size="10.00" fill="#63b8ff">3</text>
</a>
</g>
</g>
<!-- dir_2614be1028e2e1372057bba9632f3a37&#45;&gt;dir_32137984f496da46263d816e0d6dc804 -->
<g id="edge35" class="edge">
<title>dir_2614be1028e2e1372057bba9632f3a37&#45;&gt;dir_32137984f496da46263d816e0d6dc804</title>
<g id="a_edge35"><a xlink:href="dir_000072_000004.html" target="_top">
<path fill="none" stroke="#63b8ff" d="M608,-132.54C532.93,-128.35 366.05,-116.67 228,-90 226.71,-89.75 225.4,-89.47 224.08,-89.18"/>
<polygon fill="#63b8ff" stroke="#63b8ff" points="224.63,-85.7 214.07,-86.6 222.88,-92.48 224.63,-85.7"/>
</a>
</g>
<g id="a_edge35&#45;headlabel"><a xlink:href="dir_000072_000004.html" target="_top" xlink:title="2">
<text text-anchor="middle" x="228.82" y="-81.35" font-family="Helvetica,sans-Serif" font-size="10.00" fill="#63b8ff">2</text>
</a>
</g>
</g>
<!-- dir_2614be1028e2e1372057bba9632f3a37&#45;&gt;dir_87225e6cbcb4cf5309991212c88ac25b -->
<g id="edge36" class="edge">
<title>dir_2614be1028e2e1372057bba9632f3a37&#45;&gt;dir_87225e6cbcb4cf5309991212c88ac25b</title>
<g id="a_edge36"><a xlink:href="dir_000072_000061.html" target="_top">
<path fill="none" stroke="#63b8ff" d="M607.96,-133.23C518.8,-129.96 297.07,-119.5 102.33,-89.98"/>
<polygon fill="#63b8ff" stroke="#63b8ff" points="102.62,-86.48 92.2,-88.42 101.55,-93.4 102.62,-86.48"/>
</a>
</g>
<g id="a_edge36&#45;headlabel"><a xlink:href="dir_000072_000061.html" target="_top" xlink:title="2">
<text text-anchor="middle" x="106.6" y="-81.72" font-family="Helvetica,sans-Serif" font-size="10.00" fill="#63b8ff">2</text>
</a>
</g>
</g>
<!-- dir_2614be1028e2e1372057bba9632f3a37&#45;&gt;dir_9fa1f6896f2c68d8c6f5e454a6a72ce4 -->
<g id="edge37" class="edge">
<title>dir_2614be1028e2e1372057bba9632f3a37&#45;&gt;dir_9fa1f6896f2c68d8c6f5e454a6a72ce4</title>
<g id="a_edge37"><a xlink:href="dir_000072_000021.html" target="_top">
<path fill="none" stroke="#63b8ff" d="M688.11,-127.51C691.11,-126.99 694.11,-126.49 697,-126 746.07,-117.75 885.77,-127.91 918,-90 925.77,-80.86 923.72,-73.55 918,-63 912.68,-53.18 903.44,-45.58 893.99,-39.93"/>
<polygon fill="#63b8ff" stroke="#63b8ff" points="895.45,-36.74 884.98,-35.09 892.13,-42.91 895.45,-36.74"/>
</a>
</g>
<g id="a_edge37&#45;headlabel"><a xlink:href="dir_000072_000021.html" target="_top" xlink:title="6">
<text text-anchor="middle" x="899.96" y="-33.44" font-family="Helvetica,sans-Serif" font-size="10.00" fill="#63b8ff">6</text>
</a>
</g>
</g>
<!-- dir_2614be1028e2e1372057bba9632f3a37&#45;&gt;dir_df3471da428c92590d85ed8754a76078 -->
<g id="edge38" class="edge">
<title>dir_2614be1028e2e1372057bba9632f3a37&#45;&gt;dir_df3471da428c92590d85ed8754a76078</title>
<g id="a_edge38"><a xlink:href="dir_000072_000037.html" target="_top">
<path fill="none" stroke="#63b8ff" d="M688.09,-127.44C691.11,-126.94 694.1,-126.46 697,-126 810.51,-108.18 839.75,-109.4 953,-90 954.47,-89.75 955.96,-89.48 957.47,-89.21"/>
<polygon fill="#63b8ff" stroke="#63b8ff" points="958.31,-92.62 967.48,-87.31 957.01,-85.74 958.31,-92.62"/>
</a>
</g>
<g id="a_edge38&#45;headlabel"><a xlink:href="dir_000072_000037.html" target="_top" xlink:title="1">
<text text-anchor="middle" x="955.3" y="-93.57" font-family="Helvetica,sans-Serif" font-size="10.00" fill="#63b8ff">1</text>
</a>
</g>
</g>
<!-- dir_2614be1028e2e1372057bba9632f3a37&#45;&gt;dir_ff383ddf1aa4eab0c4ce7910366d05a5 -->
<g id="edge39" class="edge">
<title>dir_2614be1028e2e1372057bba9632f3a37&#45;&gt;dir_ff383ddf1aa4eab0c4ce7910366d05a5</title>
<g id="a_edge39"><a xlink:href="dir_000072_000070.html" target="_top">
<path fill="none" stroke="#63b8ff" d="M688.1,-127.49C691.11,-126.98 694.1,-126.48 697,-126 747.6,-117.62 886.38,-123.76 925,-90 937.58,-79 942,-60.06 943.47,-45.71"/>
<polygon fill="#63b8ff" stroke="#63b8ff" points="946.98,-45.64 944.12,-35.44 940,-45.2 946.98,-45.64"/>
</a>
</g>
<g id="a_edge39&#45;headlabel"><a xlink:href="dir_000072_000070.html" target="_top" xlink:title="10">
<text text-anchor="middle" x="949.59" y="-46.9" font-family="Helvetica,sans-Serif" font-size="10.00" fill="#63b8ff">10</text>
</a>
</g>
</g>
<!-- dir_2614be1028e2e1372057bba9632f3a37&#45;&gt;dir_099b2a591f7ca13c5ad31f510e166074 -->
<g id="edge32" class="edge">
<title>dir_2614be1028e2e1372057bba9632f3a37&#45;&gt;dir_099b2a591f7ca13c5ad31f510e166074</title>
<g id="a_edge32"><a xlink:href="dir_000072_000014.html" target="_top">
<path fill="none" stroke="#63b8ff" d="M652.13,-125.75C655.51,-118.57 660.42,-108.18 664.62,-99.27"/>
<polygon fill="#63b8ff" stroke="#63b8ff" points="667.85,-100.63 668.95,-90.09 661.52,-97.64 667.85,-100.63"/>
</a>
</g>
<g id="a_edge32&#45;headlabel"><a xlink:href="dir_000072_000014.html" target="_top" xlink:title="1">
<text text-anchor="middle" x="668.88" y="-102.59" font-family="Helvetica,sans-Serif" font-size="10.00" fill="#63b8ff">1</text>
</a>
</g>
</g>
</g>
</svg>
