<?xml version="1.0" encoding="UTF-8" standalone="no"?>
<!DOCTYPE svg PUBLIC "-//W3C//DTD SVG 1.1//EN"
 "http://www.w3.org/Graphics/SVG/1.1/DTD/svg11.dtd">
<!-- Generated by graphviz version 2.43.0 (0)
 -->
<!-- Title: src/GPS Pages: 1 -->
<svg width="615pt" height="141pt"
 viewBox="0.00 0.00 615.00 141.00" xmlns="http://www.w3.org/2000/svg" xmlns:xlink="http://www.w3.org/1999/xlink">
<g id="graph0" class="graph" transform="scale(1 1) rotate(0) translate(4 137)">
<title>src/GPS</title>
<g id="clust1" class="cluster">
<title>clusterdir_68267d1309a1af8e8297ef4c3efbcdba</title>
<g id="a_clust1"><a xlink:href="dir_68267d1309a1af8e8297ef4c3efbcdba.html" target="_top" xlink:title="src">
<polygon fill="#edf0f7" stroke="#404040" stroke-dasharray="5,2" points="8,-8 8,-125 599,-125 599,-8 8,-8"/>
<text text-anchor="middle" x="303.5" y="-113" font-family="Helvetica,sans-Serif" font-size="10.00">src</text>
</a>
</g>
</g>
<g id="clust2" class="cluster">
<title>clusterdir_43f56a1598361543d7a95c3972bc4b20</title>
<g id="a_clust2"><a xlink:href="dir_43f56a1598361543d7a95c3972bc4b20.html" target="_top">
<polygon fill="#edf0f7" stroke="#404040" stroke-width="2" points="196,-63 196,-98 312,-98 312,-63 196,-63"/>
</a>
</g>
</g>
<!-- dir_2728a19ac4d342276b17ec9828d0d8ad -->
<g id="node1" class="node">
<title>dir_2728a19ac4d342276b17ec9828d0d8ad</title>
<g id="a_node1"><a xlink:href="dir_2728a19ac4d342276b17ec9828d0d8ad.html" target="_top" xlink:title="Comms">
<polygon fill="#a2b4d6" stroke="red" points="70,-35 16,-35 16,-16 70,-16 70,-35"/>
<text text-anchor="middle" x="43" y="-23" font-family="Helvetica,sans-Serif" font-size="10.00">Comms</text>
</a>
</g>
</g>
<!-- dir_87225e6cbcb4cf5309991212c88ac25b -->
<g id="node2" class="node">
<title>dir_87225e6cbcb4cf5309991212c88ac25b</title>
<g id="a_node2"><a xlink:href="dir_87225e6cbcb4cf5309991212c88ac25b.html" target="_top" xlink:title="Settings">
<polygon fill="#a2b4d6" stroke="#404040" points="309,-35 253,-35 253,-16 309,-16 309,-35"/>
<text text-anchor="middle" x="281" y="-23" font-family="Helvetica,sans-Serif" font-size="10.00">Settings</text>
</a>
</g>
</g>
<!-- dir_924006918299b661f7f5467ff93fed23 -->
<g id="node3" class="node">
<title>dir_924006918299b661f7f5467ff93fed23</title>
<g id="a_node3"><a xlink:href="dir_924006918299b661f7f5467ff93fed23.html" target="_top" xlink:title="Vehicle">
<polygon fill="#a2b4d6" stroke="red" points="379,-35 327,-35 327,-16 379,-16 379,-35"/>
<text text-anchor="middle" x="353" y="-23" font-family="Helvetica,sans-Serif" font-size="10.00">Vehicle</text>
</a>
</g>
</g>
<!-- dir_9fa1f6896f2c68d8c6f5e454a6a72ce4 -->
<g id="node4" class="node">
<title>dir_9fa1f6896f2c68d8c6f5e454a6a72ce4</title>
<g id="a_node4"><a xlink:href="dir_9fa1f6896f2c68d8c6f5e454a6a72ce4.html" target="_top" xlink:title="FactSystem">
<polygon fill="#a2b4d6" stroke="red" points="161.5,-35 88.5,-35 88.5,-16 161.5,-16 161.5,-35"/>
<text text-anchor="middle" x="125" y="-23" font-family="Helvetica,sans-Serif" font-size="10.00">FactSystem</text>
</a>
</g>
</g>
<!-- dir_ff383ddf1aa4eab0c4ce7910366d05a5 -->
<g id="node5" class="node">
<title>dir_ff383ddf1aa4eab0c4ce7910366d05a5</title>
<g id="a_node5"><a xlink:href="dir_ff383ddf1aa4eab0c4ce7910366d05a5.html" target="_top" xlink:title="Utilities">
<polygon fill="#a2b4d6" stroke="red" points="234.5,-35 179.5,-35 179.5,-16 234.5,-16 234.5,-35"/>
<text text-anchor="middle" x="207" y="-23" font-family="Helvetica,sans-Serif" font-size="10.00">Utilities</text>
</a>
</g>
</g>
<!-- dir_57fd63fe491ef075147d1cb32299e674 -->
<g id="node6" class="node">
<title>dir_57fd63fe491ef075147d1cb32299e674</title>
<g id="a_node6"><a xlink:href="dir_57fd63fe491ef075147d1cb32299e674.html" target="_top" xlink:title="QmlControls">
<polygon fill="#a2b4d6" stroke="#404040" points="474.5,-35 397.5,-35 397.5,-16 474.5,-16 474.5,-35"/>
<text text-anchor="middle" x="436" y="-23" font-family="Helvetica,sans-Serif" font-size="10.00">QmlControls</text>
</a>
</g>
</g>
<!-- dir_2e789b5f2ef5f5e229d12665af24e261 -->
<g id="node7" class="node">
<title>dir_2e789b5f2ef5f5e229d12665af24e261</title>
<g id="a_node7"><a xlink:href="dir_2e789b5f2ef5f5e229d12665af24e261.html" target="_top" xlink:title="PositionManager">
<polygon fill="#a2b4d6" stroke="#404040" points="591,-35 493,-35 493,-16 591,-16 591,-35"/>
<text text-anchor="middle" x="542" y="-23" font-family="Helvetica,sans-Serif" font-size="10.00">PositionManager</text>
</a>
</g>
</g>
<!-- dir_43f56a1598361543d7a95c3972bc4b20 -->
<g id="node8" class="node">
<title>dir_43f56a1598361543d7a95c3972bc4b20</title>
<text text-anchor="middle" x="222" y="-78" font-family="Helvetica,sans-Serif" font-size="10.00">GPS</text>
</g>
<!-- dir_43f56a1598361543d7a95c3972bc4b20&#45;&gt;dir_2728a19ac4d342276b17ec9828d0d8ad -->
<g id="edge1" class="edge">
<title>dir_43f56a1598361543d7a95c3972bc4b20&#45;&gt;dir_2728a19ac4d342276b17ec9828d0d8ad</title>
<g id="a_edge1"><a xlink:href="dir_000033_000013.html" target="_top">
<path fill="none" stroke="#63b8ff" d="M203.85,-74.13C174.89,-65.55 117.63,-48.6 79.83,-37.41"/>
<polygon fill="#63b8ff" stroke="#63b8ff" points="80.78,-34.04 70.2,-34.55 78.79,-40.75 80.78,-34.04"/>
</a>
</g>
<g id="a_edge1&#45;headlabel"><a xlink:href="dir_000033_000013.html" target="_top" xlink:title="1">
<text text-anchor="middle" x="85.03" y="-29.83" font-family="Helvetica,sans-Serif" font-size="10.00" fill="#63b8ff">1</text>
</a>
</g>
</g>
<!-- dir_43f56a1598361543d7a95c3972bc4b20&#45;&gt;dir_87225e6cbcb4cf5309991212c88ac25b -->
<g id="edge2" class="edge">
<title>dir_43f56a1598361543d7a95c3972bc4b20&#45;&gt;dir_87225e6cbcb4cf5309991212c88ac25b</title>
<g id="a_edge2"><a xlink:href="dir_000033_000069.html" target="_top">
<path fill="none" stroke="#63b8ff" d="M231.48,-70.98C240.2,-63.15 253.34,-51.34 263.9,-41.86"/>
<polygon fill="#63b8ff" stroke="#63b8ff" points="266.25,-44.46 271.35,-35.17 261.57,-39.25 266.25,-44.46"/>
</a>
</g>
<g id="a_edge2&#45;headlabel"><a xlink:href="dir_000033_000069.html" target="_top" xlink:title="5">
<text text-anchor="middle" x="265.47" y="-46.47" font-family="Helvetica,sans-Serif" font-size="10.00" fill="#63b8ff">5</text>
</a>
</g>
</g>
<!-- dir_43f56a1598361543d7a95c3972bc4b20&#45;&gt;dir_924006918299b661f7f5467ff93fed23 -->
<g id="edge3" class="edge">
<title>dir_43f56a1598361543d7a95c3972bc4b20&#45;&gt;dir_924006918299b661f7f5467ff93fed23</title>
<g id="a_edge3"><a xlink:href="dir_000033_000079.html" target="_top">
<path fill="none" stroke="#63b8ff" d="M234.87,-70.87C239.25,-68.15 244.24,-65.26 249,-63 270.89,-52.61 296.56,-43.57 316.93,-37.09"/>
<polygon fill="#63b8ff" stroke="#63b8ff" points="318.24,-40.34 326.75,-34.03 316.16,-33.66 318.24,-40.34"/>
</a>
</g>
<g id="a_edge3&#45;headlabel"><a xlink:href="dir_000033_000079.html" target="_top" xlink:title="4">
<text text-anchor="middle" x="315.66" y="-41.62" font-family="Helvetica,sans-Serif" font-size="10.00" fill="#63b8ff">4</text>
</a>
</g>
</g>
<!-- dir_43f56a1598361543d7a95c3972bc4b20&#45;&gt;dir_9fa1f6896f2c68d8c6f5e454a6a72ce4 -->
<g id="edge4" class="edge">
<title>dir_43f56a1598361543d7a95c3972bc4b20&#45;&gt;dir_9fa1f6896f2c68d8c6f5e454a6a72ce4</title>
<g id="a_edge4"><a xlink:href="dir_000033_000022.html" target="_top">
<path fill="none" stroke="#63b8ff" d="M206.42,-70.98C191.23,-62.69 167.9,-49.94 150.1,-40.22"/>
<polygon fill="#63b8ff" stroke="#63b8ff" points="151.32,-36.89 140.87,-35.17 147.97,-43.04 151.32,-36.89"/>
</a>
</g>
<g id="a_edge4&#45;headlabel"><a xlink:href="dir_000033_000022.html" target="_top" xlink:title="3">
<text text-anchor="middle" x="155.84" y="-33.63" font-family="Helvetica,sans-Serif" font-size="10.00" fill="#63b8ff">3</text>
</a>
</g>
</g>
<!-- dir_43f56a1598361543d7a95c3972bc4b20&#45;&gt;dir_ff383ddf1aa4eab0c4ce7910366d05a5 -->
<g id="edge5" class="edge">
<title>dir_43f56a1598361543d7a95c3972bc4b20&#45;&gt;dir_ff383ddf1aa4eab0c4ce7910366d05a5</title>
<g id="a_edge5"><a xlink:href="dir_000033_000078.html" target="_top">
<path fill="none" stroke="#63b8ff" d="M219.52,-70.75C217.54,-63.72 214.68,-53.62 212.19,-44.84"/>
<polygon fill="#63b8ff" stroke="#63b8ff" points="215.52,-43.76 209.43,-35.09 208.79,-45.66 215.52,-43.76"/>
</a>
</g>
<g id="a_edge5&#45;headlabel"><a xlink:href="dir_000033_000078.html" target="_top" xlink:title="9">
<text text-anchor="middle" x="219.23" y="-43.94" font-family="Helvetica,sans-Serif" font-size="10.00" fill="#63b8ff">9</text>
</a>
</g>
</g>
<!-- dir_0bd4555d491f4d14ccab59835439da5b -->
<g id="node9" class="node">
<title>dir_0bd4555d491f4d14ccab59835439da5b</title>
<g id="a_node9"><a xlink:href="dir_0bd4555d491f4d14ccab59835439da5b.html" target="_top" xlink:title="NTRIP">
<polygon fill="#a2b4d6" stroke="#404040" points="304,-90 258,-90 258,-71 304,-71 304,-90"/>
<text text-anchor="middle" x="281" y="-78" font-family="Helvetica,sans-Serif" font-size="10.00">NTRIP</text>
</a>
</g>
</g>
<!-- dir_0bd4555d491f4d14ccab59835439da5b&#45;&gt;dir_87225e6cbcb4cf5309991212c88ac25b -->
<g id="edge8" class="edge">
<title>dir_0bd4555d491f4d14ccab59835439da5b&#45;&gt;dir_87225e6cbcb4cf5309991212c88ac25b</title>
<g id="a_edge8"><a xlink:href="dir_000051_000069.html" target="_top">
<path fill="none" stroke="#63b8ff" d="M281,-70.75C281,-63.8 281,-53.85 281,-45.13"/>
<polygon fill="#63b8ff" stroke="#63b8ff" points="284.5,-45.09 281,-35.09 277.5,-45.09 284.5,-45.09"/>
</a>
</g>
<g id="a_edge8&#45;headlabel"><a xlink:href="dir_000051_000069.html" target="_top" xlink:title="2">
<text text-anchor="middle" x="287.34" y="-46.18" font-family="Helvetica,sans-Serif" font-size="10.00" fill="#63b8ff">2</text>
</a>
</g>
</g>
<!-- dir_0bd4555d491f4d14ccab59835439da5b&#45;&gt;dir_924006918299b661f7f5467ff93fed23 -->
<g id="edge9" class="edge">
<title>dir_0bd4555d491f4d14ccab59835439da5b&#45;&gt;dir_924006918299b661f7f5467ff93fed23</title>
<g id="a_edge9"><a xlink:href="dir_000051_000079.html" target="_top">
<path fill="none" stroke="#63b8ff" d="M292.57,-70.98C303.42,-63 319.88,-50.88 332.88,-41.31"/>
<polygon fill="#63b8ff" stroke="#63b8ff" points="335.24,-43.92 341.22,-35.17 331.09,-38.28 335.24,-43.92"/>
</a>
</g>
<g id="a_edge9&#45;headlabel"><a xlink:href="dir_000051_000079.html" target="_top" xlink:title="2">
<text text-anchor="middle" x="334.03" y="-45.83" font-family="Helvetica,sans-Serif" font-size="10.00" fill="#63b8ff">2</text>
</a>
</g>
</g>
<!-- dir_0bd4555d491f4d14ccab59835439da5b&#45;&gt;dir_9fa1f6896f2c68d8c6f5e454a6a72ce4 -->
<g id="edge10" class="edge">
<title>dir_0bd4555d491f4d14ccab59835439da5b&#45;&gt;dir_9fa1f6896f2c68d8c6f5e454a6a72ce4</title>
<g id="a_edge10"><a xlink:href="dir_000051_000022.html" target="_top">
<path fill="none" stroke="#63b8ff" d="M265.65,-70.84C260.46,-68.11 254.57,-65.23 249,-63 223.57,-52.81 194.2,-44.04 170.43,-37.65"/>
<polygon fill="#63b8ff" stroke="#63b8ff" points="171.18,-34.23 160.61,-35.06 169.39,-41 171.18,-34.23"/>
</a>
</g>
<g id="a_edge10&#45;headlabel"><a xlink:href="dir_000051_000022.html" target="_top" xlink:title="2">
<text text-anchor="middle" x="175.38" y="-29.9" font-family="Helvetica,sans-Serif" font-size="10.00" fill="#63b8ff">2</text>
</a>
</g>
</g>
<!-- dir_0bd4555d491f4d14ccab59835439da5b&#45;&gt;dir_ff383ddf1aa4eab0c4ce7910366d05a5 -->
<g id="edge11" class="edge">
<title>dir_0bd4555d491f4d14ccab59835439da5b&#45;&gt;dir_ff383ddf1aa4eab0c4ce7910366d05a5</title>
<g id="a_edge11"><a xlink:href="dir_000051_000078.html" target="_top">
<path fill="none" stroke="#63b8ff" d="M269.11,-70.98C257.85,-62.92 240.71,-50.65 227.29,-41.03"/>
<polygon fill="#63b8ff" stroke="#63b8ff" points="229.27,-38.15 219.11,-35.17 225.2,-43.84 229.27,-38.15"/>
</a>
</g>
<g id="a_edge11&#45;headlabel"><a xlink:href="dir_000051_000078.html" target="_top" xlink:title="4">
<text text-anchor="middle" x="233.85" y="-35.43" font-family="Helvetica,sans-Serif" font-size="10.00" fill="#63b8ff">4</text>
</a>
</g>
</g>
<!-- dir_0bd4555d491f4d14ccab59835439da5b&#45;&gt;dir_57fd63fe491ef075147d1cb32299e674 -->
<g id="edge7" class="edge">
<title>dir_0bd4555d491f4d14ccab59835439da5b&#45;&gt;dir_57fd63fe491ef075147d1cb32299e674</title>
<g id="a_edge7"><a xlink:href="dir_000051_000063.html" target="_top">
<path fill="none" stroke="#63b8ff" d="M304.21,-71.57C330,-62.74 371.93,-48.41 401.56,-38.28"/>
<polygon fill="#63b8ff" stroke="#63b8ff" points="402.76,-41.56 411.09,-35.02 400.5,-34.94 402.76,-41.56"/>
</a>
</g>
<g id="a_edge7&#45;headlabel"><a xlink:href="dir_000051_000063.html" target="_top" xlink:title="2">
<text text-anchor="middle" x="400.28" y="-42.91" font-family="Helvetica,sans-Serif" font-size="10.00" fill="#63b8ff">2</text>
</a>
</g>
</g>
<!-- dir_0bd4555d491f4d14ccab59835439da5b&#45;&gt;dir_2e789b5f2ef5f5e229d12665af24e261 -->
<g id="edge6" class="edge">
<title>dir_0bd4555d491f4d14ccab59835439da5b&#45;&gt;dir_2e789b5f2ef5f5e229d12665af24e261</title>
<g id="a_edge6"><a xlink:href="dir_000051_000057.html" target="_top">
<path fill="none" stroke="#63b8ff" d="M304.16,-74.8C345.59,-66.38 433.32,-48.57 489.87,-37.09"/>
<polygon fill="#63b8ff" stroke="#63b8ff" points="490.6,-40.51 499.7,-35.09 489.21,-33.65 490.6,-40.51"/>
</a>
</g>
<g id="a_edge6&#45;headlabel"><a xlink:href="dir_000051_000057.html" target="_top" xlink:title="1">
<text text-anchor="middle" x="487.64" y="-41.51" font-family="Helvetica,sans-Serif" font-size="10.00" fill="#63b8ff">1</text>
</a>
</g>
</g>
</g>
</svg>
