<?xml version="1.0" encoding="UTF-8" standalone="no"?>
<!DOCTYPE svg PUBLIC "-//W3C//DTD SVG 1.1//EN"
 "http://www.w3.org/Graphics/SVG/1.1/DTD/svg11.dtd">
<!-- Generated by graphviz version 2.43.0 (0)
 -->
<!-- Title: src/Comms Pages: 1 -->
<!--zoomable 196 -->

<svg id="main" version="1.1" xmlns="http://www.w3.org/2000/svg" xmlns:xlink="http://www.w3.org/1999/xlink" xml:space="preserve" onload="init(evt)">
<style type="text/css"><![CDATA[
.node, .edge {opacity: 0.7;}
.node.selected, .edge.selected {opacity: 1;}
.edge:hover path { stroke: red; }
.edge:hover polygon { stroke: red; fill: red; }
]]></style>

<defs>
  <circle id="rim" cx="0" cy="0" r="7"/>
  <circle id="rim2" cx="0" cy="0" r="3.5"/>
  <g id="zoomPlus">
    <use xlink:href="#rim" fill="#404040"><set attributeName="fill" to="#808080" begin="zoomplus.mouseover" end="zoomplus.mouseout"/></use>
    <path d="M-4,0h8M0,-4v8" fill="none" stroke="white" stroke-width="1.5" pointer-events="none"/>
  </g>
  <g id="zoomMin">
    <use xlink:href="#rim" fill="#404040"><set attributeName="fill" to="#808080" begin="zoomminus.mouseover" end="zoomminus.mouseout"/></use>
    <path d="M-4,0h8" fill="none" stroke="white" stroke-width="1.5" pointer-events="none"/>
  </g>
  <g id="arrowUp" transform="translate(30 24)">
    <use xlink:href="#rim"/>
    <path pointer-events="none" fill="none" stroke="white" stroke-width="1.5" d="M0,-3.0v7 M-2.5,-0.5L0,-3.0L2.5,-0.5"/>
  </g>
  <g id="arrowRight" transform="rotate(90) translate(36 -43)">
    <use xlink:href="#rim"/>
    <path pointer-events="none" fill="none" stroke="white" stroke-width="1.5" d="M0,-3.0v7 M-2.5,-0.5L0,-3.0L2.5,-0.5"/>
  </g>
  <g id="arrowDown" transform="rotate(180) translate(-30 -48)">
    <use xlink:href="#rim"/>
    <path pointer-events="none" fill="none" stroke="white" stroke-width="1.5" d="M0,-3.0v7 M-2.5,-0.5L0,-3.0L2.5,-0.5"/>
  </g>
  <g id="arrowLeft" transform="rotate(270) translate(-36 17)">
    <use xlink:href="#rim"/>
    <path pointer-events="none" fill="none" stroke="white" stroke-width="1.5" d="M0,-3.0v7 M-2.5,-0.5L0,-3.0L2.5,-0.5"/>
  </g>
  <g id="resetDef">
    <use xlink:href="#rim2" fill="#404040"><set attributeName="fill" to="#808080" begin="reset.mouseover" end="reset.mouseout"/></use>
  </g>
</defs>
<script type="application/ecmascript">
var viewWidth = 935;
var viewHeight = 196;
var sectionId = 'dynsection-0';
</script>
<script type="application/ecmascript" xlink:href="svg.min.js"/>
<svg id="graph" class="graph">
<g id="viewport">
<title>src/Comms</title>
<g id="clust1" class="cluster">
<title>clusterdir_68267d1309a1af8e8297ef4c3efbcdba</title>
<g id="a_clust1"><a xlink:href="dir_68267d1309a1af8e8297ef4c3efbcdba.html" target="_top" xlink:title="src">
<polygon fill="#edf0f7" stroke="#404040" stroke-dasharray="5,2" points="8,-8 8,-180 919,-180 919,-8 8,-8"/>
<text text-anchor="middle" x="463.5" y="-168" font-family="Helvetica,sans-Serif" font-size="10.00">src</text>
</a>
</g>
</g>
<g id="clust2" class="cluster">
<title>clusterdir_2728a19ac4d342276b17ec9828d0d8ad</title>
<g id="a_clust2"><a xlink:href="dir_2728a19ac4d342276b17ec9828d0d8ad.html" target="_top">
<polygon fill="#edf0f7" stroke="#404040" stroke-width="2" points="16,-63 16,-153 168,-153 168,-63 16,-63"/>
</a>
</g>
</g>
<!-- dir_179bf47964619e91d8f4b948968d2dcb -->
<g id="node1" class="node">
<title>dir_179bf47964619e91d8f4b948968d2dcb</title>
<g id="a_node1"><a xlink:href="dir_179bf47964619e91d8f4b948968d2dcb.html" target="_top" xlink:title="MAVLink">
<polygon fill="#a2b4d6" stroke="red" points="665.5,-90 606.5,-90 606.5,-71 665.5,-71 665.5,-90"/>
<text text-anchor="middle" x="636" y="-78" font-family="Helvetica,sans-Serif" font-size="10.00">MAVLink</text>
</a>
</g>
</g>
<!-- dir_2e789b5f2ef5f5e229d12665af24e261 -->
<g id="node2" class="node">
<title>dir_2e789b5f2ef5f5e229d12665af24e261</title>
<g id="a_node2"><a xlink:href="dir_2e789b5f2ef5f5e229d12665af24e261.html" target="_top" xlink:title="PositionManager">
<polygon fill="#a2b4d6" stroke="#404040" points="364,-90 266,-90 266,-71 364,-71 364,-90"/>
<text text-anchor="middle" x="315" y="-78" font-family="Helvetica,sans-Serif" font-size="10.00">PositionManager</text>
</a>
</g>
</g>
<!-- dir_43f56a1598361543d7a95c3972bc4b20 -->
<g id="node3" class="node">
<title>dir_43f56a1598361543d7a95c3972bc4b20</title>
<g id="a_node3"><a xlink:href="dir_43f56a1598361543d7a95c3972bc4b20.html" target="_top" xlink:title="GPS">
<polygon fill="#a2b4d6" stroke="#404040" points="418,-90 382,-90 382,-71 418,-71 418,-90"/>
<text text-anchor="middle" x="400" y="-78" font-family="Helvetica,sans-Serif" font-size="10.00">GPS</text>
</a>
</g>
</g>
<!-- dir_57fd63fe491ef075147d1cb32299e674 -->
<g id="node4" class="node">
<title>dir_57fd63fe491ef075147d1cb32299e674</title>
<g id="a_node4"><a xlink:href="dir_57fd63fe491ef075147d1cb32299e674.html" target="_top" xlink:title="QmlControls">
<polygon fill="#a2b4d6" stroke="#404040" points="513.5,-90 436.5,-90 436.5,-71 513.5,-71 513.5,-90"/>
<text text-anchor="middle" x="475" y="-78" font-family="Helvetica,sans-Serif" font-size="10.00">QmlControls</text>
</a>
</g>
</g>
<!-- dir_87225e6cbcb4cf5309991212c88ac25b -->
<g id="node5" class="node">
<title>dir_87225e6cbcb4cf5309991212c88ac25b</title>
<g id="a_node5"><a xlink:href="dir_87225e6cbcb4cf5309991212c88ac25b.html" target="_top" xlink:title="Settings">
<polygon fill="#a2b4d6" stroke="#404040" points="588,-90 532,-90 532,-71 588,-71 588,-90"/>
<text text-anchor="middle" x="560" y="-78" font-family="Helvetica,sans-Serif" font-size="10.00">Settings</text>
</a>
</g>
</g>
<!-- dir_924006918299b661f7f5467ff93fed23 -->
<g id="node6" class="node">
<title>dir_924006918299b661f7f5467ff93fed23</title>
<g id="a_node6"><a xlink:href="dir_924006918299b661f7f5467ff93fed23.html" target="_top" xlink:title="Vehicle">
<polygon fill="#a2b4d6" stroke="red" points="228,-90 176,-90 176,-71 228,-71 228,-90"/>
<text text-anchor="middle" x="202" y="-78" font-family="Helvetica,sans-Serif" font-size="10.00">Vehicle</text>
</a>
</g>
</g>
<!-- dir_ff383ddf1aa4eab0c4ce7910366d05a5 -->
<g id="node7" class="node">
<title>dir_ff383ddf1aa4eab0c4ce7910366d05a5</title>
<g id="a_node7"><a xlink:href="dir_ff383ddf1aa4eab0c4ce7910366d05a5.html" target="_top" xlink:title="Utilities">
<polygon fill="#a2b4d6" stroke="red" points="274.5,-35 219.5,-35 219.5,-16 274.5,-16 274.5,-35"/>
<text text-anchor="middle" x="247" y="-23" font-family="Helvetica,sans-Serif" font-size="10.00">Utilities</text>
</a>
</g>
</g>
<!-- dir_96e291b54c69d4ab37cadc9baf789be5 -->
<g id="node8" class="node">
<title>dir_96e291b54c69d4ab37cadc9baf789be5</title>
<g id="a_node8"><a xlink:href="dir_96e291b54c69d4ab37cadc9baf789be5.html" target="_top" xlink:title="FirmwarePlugin">
<polygon fill="#a2b4d6" stroke="red" points="911,-90 819,-90 819,-71 911,-71 911,-90"/>
<text text-anchor="middle" x="865" y="-78" font-family="Helvetica,sans-Serif" font-size="10.00">FirmwarePlugin</text>
</a>
</g>
</g>
<!-- dir_fc93cbb76f1edc6741d2b3ade811eb27 -->
<g id="node9" class="node">
<title>dir_fc93cbb76f1edc6741d2b3ade811eb27</title>
<g id="a_node9"><a xlink:href="dir_fc93cbb76f1edc6741d2b3ade811eb27.html" target="_top" xlink:title="MissionManager">
<polygon fill="#a2b4d6" stroke="#404040" points="780.5,-90 683.5,-90 683.5,-71 780.5,-71 780.5,-90"/>
<text text-anchor="middle" x="732" y="-78" font-family="Helvetica,sans-Serif" font-size="10.00">MissionManager</text>
</a>
</g>
</g>
<!-- dir_2728a19ac4d342276b17ec9828d0d8ad -->
<g id="node10" class="node">
<title>dir_2728a19ac4d342276b17ec9828d0d8ad</title>
<text text-anchor="middle" x="51" y="-133" font-family="Helvetica,sans-Serif" font-size="10.00">Comms</text>
</g>
<!-- dir_2728a19ac4d342276b17ec9828d0d8ad&#45;&gt;dir_179bf47964619e91d8f4b948968d2dcb -->
<g id="edge1" class="edge">
<title>dir_2728a19ac4d342276b17ec9828d0d8ad&#45;&gt;dir_179bf47964619e91d8f4b948968d2dcb</title>
<g id="a_edge1"><a xlink:href="dir_000013_000041.html" target="_top">
<path fill="none" stroke="#63b8ff" d="M78.39,-127.71C81.61,-127.06 84.87,-126.47 88,-126 309.02,-93 370.72,-121.37 596.11,-89.89"/>
<polygon fill="#63b8ff" stroke="#63b8ff" points="596.86,-93.31 606.27,-88.44 595.88,-86.38 596.86,-93.31"/>
</a>
</g>
<g id="a_edge1&#45;headlabel"><a xlink:href="dir_000013_000041.html" target="_top" xlink:title="8">
<text text-anchor="middle" x="593.7" y="-94.13" font-family="Helvetica,sans-Serif" font-size="10.00" fill="#63b8ff">8</text>
</a>
</g>
</g>
<!-- dir_2728a19ac4d342276b17ec9828d0d8ad&#45;&gt;dir_2e789b5f2ef5f5e229d12665af24e261 -->
<g id="edge2" class="edge">
<title>dir_2728a19ac4d342276b17ec9828d0d8ad&#45;&gt;dir_2e789b5f2ef5f5e229d12665af24e261</title>
<g id="a_edge2"><a xlink:href="dir_000013_000049.html" target="_top">
<path fill="none" stroke="#63b8ff" d="M78.06,-128.18C81.4,-127.43 84.78,-126.69 88,-126 146.25,-113.6 213.18,-100.64 259.19,-91.92"/>
<polygon fill="#63b8ff" stroke="#63b8ff" points="260.08,-95.31 269.26,-90.02 258.78,-88.44 260.08,-95.31"/>
</a>
</g>
<g id="a_edge2&#45;headlabel"><a xlink:href="dir_000013_000049.html" target="_top" xlink:title="1">
<text text-anchor="middle" x="257.08" y="-96.27" font-family="Helvetica,sans-Serif" font-size="10.00" fill="#63b8ff">1</text>
</a>
</g>
</g>
<!-- dir_2728a19ac4d342276b17ec9828d0d8ad&#45;&gt;dir_43f56a1598361543d7a95c3972bc4b20 -->
<g id="edge3" class="edge">
<title>dir_2728a19ac4d342276b17ec9828d0d8ad&#45;&gt;dir_43f56a1598361543d7a95c3972bc4b20</title>
<g id="a_edge3"><a xlink:href="dir_000013_000032.html" target="_top">
<path fill="none" stroke="#63b8ff" d="M78.01,-127.97C81.37,-127.25 84.76,-126.58 88,-126 210.52,-104.25 246.46,-116.61 371.84,-89.88"/>
<polygon fill="#63b8ff" stroke="#63b8ff" points="372.79,-93.25 381.82,-87.71 371.3,-86.41 372.79,-93.25"/>
</a>
</g>
<g id="a_edge3&#45;headlabel"><a xlink:href="dir_000013_000032.html" target="_top" xlink:title="2">
<text text-anchor="middle" x="369.88" y="-94.29" font-family="Helvetica,sans-Serif" font-size="10.00" fill="#63b8ff">2</text>
</a>
</g>
</g>
<!-- dir_2728a19ac4d342276b17ec9828d0d8ad&#45;&gt;dir_57fd63fe491ef075147d1cb32299e674 -->
<g id="edge4" class="edge">
<title>dir_2728a19ac4d342276b17ec9828d0d8ad&#45;&gt;dir_57fd63fe491ef075147d1cb32299e674</title>
<g id="a_edge4"><a xlink:href="dir_000013_000055.html" target="_top">
<path fill="none" stroke="#63b8ff" d="M78,-127.9C81.36,-127.2 84.75,-126.54 88,-126 234.23,-101.53 275.23,-110.8 426.16,-90.01"/>
<polygon fill="#63b8ff" stroke="#63b8ff" points="426.85,-93.45 436.26,-88.6 425.88,-86.52 426.85,-93.45"/>
</a>
</g>
<g id="a_edge4&#45;headlabel"><a xlink:href="dir_000013_000055.html" target="_top" xlink:title="2">
<text text-anchor="middle" x="423.68" y="-94.26" font-family="Helvetica,sans-Serif" font-size="10.00" fill="#63b8ff">2</text>
</a>
</g>
</g>
<!-- dir_2728a19ac4d342276b17ec9828d0d8ad&#45;&gt;dir_87225e6cbcb4cf5309991212c88ac25b -->
<g id="edge6" class="edge">
<title>dir_2728a19ac4d342276b17ec9828d0d8ad&#45;&gt;dir_87225e6cbcb4cf5309991212c88ac25b</title>
<g id="a_edge6"><a xlink:href="dir_000013_000061.html" target="_top">
<path fill="none" stroke="#63b8ff" d="M78.39,-127.75C81.62,-127.09 84.87,-126.49 88,-126 276.42,-96.72 329.5,-119 521.65,-89.98"/>
<polygon fill="#63b8ff" stroke="#63b8ff" points="522.45,-93.4 531.8,-88.42 521.38,-86.48 522.45,-93.4"/>
</a>
</g>
<g id="a_edge6&#45;headlabel"><a xlink:href="dir_000013_000061.html" target="_top" xlink:title="10">
<text text-anchor="middle" x="519.33" y="-94.25" font-family="Helvetica,sans-Serif" font-size="10.00" fill="#63b8ff">10</text>
</a>
</g>
</g>
<!-- dir_2728a19ac4d342276b17ec9828d0d8ad&#45;&gt;dir_924006918299b661f7f5467ff93fed23 -->
<g id="edge7" class="edge">
<title>dir_2728a19ac4d342276b17ec9828d0d8ad&#45;&gt;dir_924006918299b661f7f5467ff93fed23</title>
<g id="a_edge7"><a xlink:href="dir_000013_000071.html" target="_top">
<path fill="none" stroke="#63b8ff" d="M75.26,-125.98C100.32,-117.19 139.63,-103.39 167.83,-93.49"/>
<polygon fill="#63b8ff" stroke="#63b8ff" points="169.02,-96.78 177.3,-90.17 166.7,-90.18 169.02,-96.78"/>
</a>
</g>
<g id="a_edge7&#45;headlabel"><a xlink:href="dir_000013_000071.html" target="_top" xlink:title="3">
<text text-anchor="middle" x="166.57" y="-98.15" font-family="Helvetica,sans-Serif" font-size="10.00" fill="#63b8ff">3</text>
</a>
</g>
</g>
<!-- dir_2728a19ac4d342276b17ec9828d0d8ad&#45;&gt;dir_ff383ddf1aa4eab0c4ce7910366d05a5 -->
<g id="edge8" class="edge">
<title>dir_2728a19ac4d342276b17ec9828d0d8ad&#45;&gt;dir_ff383ddf1aa4eab0c4ce7910366d05a5</title>
<g id="a_edge8"><a xlink:href="dir_000013_000070.html" target="_top">
<path fill="none" stroke="#63b8ff" d="M78.2,-128.19C129.52,-116.27 235.63,-91.48 237,-90 248,-78.1 249.74,-59.27 249.18,-45.21"/>
<polygon fill="#63b8ff" stroke="#63b8ff" points="252.67,-44.85 248.38,-35.16 245.69,-45.41 252.67,-44.85"/>
</a>
</g>
<g id="a_edge8&#45;headlabel"><a xlink:href="dir_000013_000070.html" target="_top" xlink:title="24">
<text text-anchor="middle" x="255.78" y="-45.71" font-family="Helvetica,sans-Serif" font-size="10.00" fill="#63b8ff">24</text>
</a>
</g>
</g>
<!-- dir_6f5bfe2c385659368deb97491e87c625 -->
<g id="node11" class="node">
<title>dir_6f5bfe2c385659368deb97491e87c625</title>
<g id="a_node11"><a xlink:href="dir_6f5bfe2c385659368deb97491e87c625.html" target="_top" xlink:title="Bluetooth">
<polygon fill="#a2b4d6" stroke="#404040" points="123,-90 59,-90 59,-71 123,-71 123,-90"/>
<text text-anchor="middle" x="91" y="-78" font-family="Helvetica,sans-Serif" font-size="10.00">Bluetooth</text>
</a>
</g>
</g>
<!-- dir_2728a19ac4d342276b17ec9828d0d8ad&#45;&gt;dir_6f5bfe2c385659368deb97491e87c625 -->
<g id="edge5" class="edge">
<title>dir_2728a19ac4d342276b17ec9828d0d8ad&#45;&gt;dir_6f5bfe2c385659368deb97491e87c625</title>
<g id="a_edge5"><a xlink:href="dir_000013_000010.html" target="_top">
<path fill="none" stroke="#63b8ff" d="M57.61,-125.75C63.26,-118.26 71.54,-107.28 78.45,-98.13"/>
<polygon fill="#63b8ff" stroke="#63b8ff" points="81.29,-100.18 84.52,-90.09 75.7,-95.96 81.29,-100.18"/>
</a>
</g>
<g id="a_edge5&#45;headlabel"><a xlink:href="dir_000013_000010.html" target="_top" xlink:title="2">
<text text-anchor="middle" x="81.39" y="-102.26" font-family="Helvetica,sans-Serif" font-size="10.00" fill="#63b8ff">2</text>
</a>
</g>
</g>
<!-- dir_6f5bfe2c385659368deb97491e87c625&#45;&gt;dir_ff383ddf1aa4eab0c4ce7910366d05a5 -->
<g id="edge9" class="edge">
<title>dir_6f5bfe2c385659368deb97491e87c625&#45;&gt;dir_ff383ddf1aa4eab0c4ce7910366d05a5</title>
<g id="a_edge9"><a xlink:href="dir_000010_000070.html" target="_top">
<path fill="none" stroke="#63b8ff" d="M108.38,-70.96C114.22,-68.25 120.83,-65.34 127,-63 154.26,-52.66 185.82,-43.15 209.74,-36.44"/>
<polygon fill="#63b8ff" stroke="#63b8ff" points="210.78,-39.78 219.48,-33.73 208.91,-33.03 210.78,-39.78"/>
</a>
</g>
<g id="a_edge9&#45;headlabel"><a xlink:href="dir_000010_000070.html" target="_top" xlink:title="2">
<text text-anchor="middle" x="208.08" y="-40.98" font-family="Helvetica,sans-Serif" font-size="10.00" fill="#63b8ff">2</text>
</a>
</g>
</g>
<!-- dir_be4221ccc9fe222843af7e15bd5fcbb7 -->
<g id="node12" class="node">
<title>dir_be4221ccc9fe222843af7e15bd5fcbb7</title>
<g id="a_node12"><a xlink:href="dir_be4221ccc9fe222843af7e15bd5fcbb7.html" target="_top" xlink:title="MockLink">
<polygon fill="#a2b4d6" stroke="#404040" points="159.5,-145 96.5,-145 96.5,-126 159.5,-126 159.5,-145"/>
<text text-anchor="middle" x="128" y="-133" font-family="Helvetica,sans-Serif" font-size="10.00">MockLink</text>
</a>
</g>
</g>
<!-- dir_be4221ccc9fe222843af7e15bd5fcbb7&#45;&gt;dir_179bf47964619e91d8f4b948968d2dcb -->
<g id="edge10" class="edge">
<title>dir_be4221ccc9fe222843af7e15bd5fcbb7&#45;&gt;dir_179bf47964619e91d8f4b948968d2dcb</title>
<g id="a_edge10"><a xlink:href="dir_000043_000041.html" target="_top">
<path fill="none" stroke="#63b8ff" d="M159.73,-132.81C234.19,-128.55 426.06,-115.96 596.37,-89.9"/>
<polygon fill="#63b8ff" stroke="#63b8ff" points="596.91,-93.36 606.26,-88.37 595.84,-86.44 596.91,-93.36"/>
</a>
</g>
<g id="a_edge10&#45;headlabel"><a xlink:href="dir_000043_000041.html" target="_top" xlink:title="6">
<text text-anchor="middle" x="593.8" y="-94.21" font-family="Helvetica,sans-Serif" font-size="10.00" fill="#63b8ff">6</text>
</a>
</g>
</g>
<!-- dir_be4221ccc9fe222843af7e15bd5fcbb7&#45;&gt;dir_ff383ddf1aa4eab0c4ce7910366d05a5 -->
<g id="edge13" class="edge">
<title>dir_be4221ccc9fe222843af7e15bd5fcbb7&#45;&gt;dir_ff383ddf1aa4eab0c4ce7910366d05a5</title>
<g id="a_edge13"><a xlink:href="dir_000043_000070.html" target="_top">
<path fill="none" stroke="#63b8ff" d="M159.73,-134.84C285.8,-135.88 746.58,-136.43 790,-90 798.2,-81.23 798.2,-71.77 790,-63 755.66,-26.28 403.03,-25.39 285.15,-26.13"/>
<polygon fill="#63b8ff" stroke="#63b8ff" points="284.78,-22.63 274.81,-26.2 284.83,-29.63 284.78,-22.63"/>
</a>
</g>
<g id="a_edge13&#45;headlabel"><a xlink:href="dir_000043_000070.html" target="_top" xlink:title="6">
<text text-anchor="middle" x="288.36" y="-17.27" font-family="Helvetica,sans-Serif" font-size="10.00" fill="#63b8ff">6</text>
</a>
</g>
</g>
<!-- dir_be4221ccc9fe222843af7e15bd5fcbb7&#45;&gt;dir_96e291b54c69d4ab37cadc9baf789be5 -->
<g id="edge11" class="edge">
<title>dir_be4221ccc9fe222843af7e15bd5fcbb7&#45;&gt;dir_96e291b54c69d4ab37cadc9baf789be5</title>
<g id="a_edge11"><a xlink:href="dir_000043_000023.html" target="_top">
<path fill="none" stroke="#63b8ff" d="M159.79,-133.26C256.76,-129.29 557.2,-115.66 805,-90 806.27,-89.87 807.55,-89.73 808.84,-89.59"/>
<polygon fill="#63b8ff" stroke="#63b8ff" points="809.34,-93.05 818.86,-88.39 808.51,-86.1 809.34,-93.05"/>
</a>
</g>
<g id="a_edge11&#45;headlabel"><a xlink:href="dir_000043_000023.html" target="_top" xlink:title="2">
<text text-anchor="middle" x="806.11" y="-93.8" font-family="Helvetica,sans-Serif" font-size="10.00" fill="#63b8ff">2</text>
</a>
</g>
</g>
<!-- dir_be4221ccc9fe222843af7e15bd5fcbb7&#45;&gt;dir_fc93cbb76f1edc6741d2b3ade811eb27 -->
<g id="edge12" class="edge">
<title>dir_be4221ccc9fe222843af7e15bd5fcbb7&#45;&gt;dir_fc93cbb76f1edc6741d2b3ade811eb27</title>
<g id="a_edge12"><a xlink:href="dir_000043_000042.html" target="_top">
<path fill="none" stroke="#63b8ff" d="M159.52,-132.68C242.1,-127.74 471.74,-113 673.04,-90.16"/>
<polygon fill="#63b8ff" stroke="#63b8ff" points="673.67,-93.61 683.21,-88.99 672.88,-86.65 673.67,-93.61"/>
</a>
</g>
<g id="a_edge12&#45;headlabel"><a xlink:href="dir_000043_000042.html" target="_top" xlink:title="2">
<text text-anchor="middle" x="670.42" y="-94.34" font-family="Helvetica,sans-Serif" font-size="10.00" fill="#63b8ff">2</text>
</a>
</g>
</g>
</g>
</svg>

<g id="navigator" transform="translate(0 0)" fill="#404254">
  <rect fill="#f2f5e9" fill-opacity="0.5" stroke="#606060" stroke-width=".5" x="0" y="0" width="60" height="60"/>
  <use id="zoomplus" xlink:href="#zoomPlus" x="17" y="9" onmousedown="handleZoom(evt,'in')"/>
  <use id="zoomminus" xlink:href="#zoomMin" x="42" y="9" onmousedown="handleZoom(evt,'out')"/>
  <use id="reset" xlink:href="#resetDef" x="30" y="36" onmousedown="handleReset()"/>
   <use id="arrowup" xlink:href="#arrowUp" x="0" y="0" onmousedown="handlePan(0,-1)"/>
  <use id="arrowright" xlink:href="#arrowRight" x="0" y="0" onmousedown="handlePan(1,0)"/>
  <use id="arrowdown" xlink:href="#arrowDown" x="0" y="0" onmousedown="handlePan(0,1)"/>
  <use id="arrowleft" xlink:href="#arrowLeft" x="0" y="0" onmousedown="handlePan(-1,0)"/>
</g>
<svg viewBox="0 0 15 15" width="100%" height="30px" preserveAspectRatio="xMaxYMin meet">
 <g id="arrow_out" transform="scale(0.3 0.3)">
  <a xlink:href="dir_2728a19ac4d342276b17ec9828d0d8ad_dep_org.svg" target="_base">
   <rect id="button" ry="5" rx="5" y="6" x="6" height="38" width="38"
        fill="#f2f5e9" fill-opacity="0.5" stroke="#606060" stroke-width="1.0"/>
   <path id="arrow"
     d="M 11.500037,31.436501 C 11.940474,20.09759 22.043105,11.32322 32.158766,21.979434 L 37.068811,17.246167 C 37.068811,17.246167 37.088388,32 37.088388,32 L 22.160133,31.978069 C 22.160133,31.978069 26.997745,27.140456 26.997745,27.140456 C 18.528582,18.264221 13.291696,25.230495 11.500037,31.436501 z"
     style="fill:#404040;"/>
  </a>
 </g>
</svg>

<style type='text/css'>
<![CDATA[
[data-mouse-over-selected='false'] { opacity: 0.7; }
[data-mouse-over-selected='true']  { opacity: 1.0; }
]]>
</style>
<script type="application/ecmascript"><![CDATA[
document.addEventListener('DOMContentLoaded', (event) => {
  highlightEdges();
  highlightAdjacentNodes();
});
]]></script>
</svg>
