<?xml version="1.0" encoding="UTF-8" standalone="no"?>
<!DOCTYPE svg PUBLIC "-//W3C//DTD SVG 1.1//EN"
 "http://www.w3.org/Graphics/SVG/1.1/DTD/svg11.dtd">
<!-- Generated by graphviz version 2.43.0 (0)
 -->
<!-- Title: src/VideoManager Pages: 1 -->
<svg width="548pt" height="196pt"
 viewBox="0.00 0.00 548.00 196.00" xmlns="http://www.w3.org/2000/svg" xmlns:xlink="http://www.w3.org/1999/xlink">
<g id="graph0" class="graph" transform="scale(1 1) rotate(0) translate(4 192)">
<title>src/VideoManager</title>
<g id="clust1" class="cluster">
<title>clusterdir_68267d1309a1af8e8297ef4c3efbcdba</title>
<g id="a_clust1"><a xlink:href="dir_68267d1309a1af8e8297ef4c3efbcdba.html" target="_top" xlink:title="src">
<polygon fill="#edf0f7" stroke="#404040" stroke-dasharray="5,2" points="8,-8 8,-180 532,-180 532,-8 8,-8"/>
<text text-anchor="middle" x="270" y="-168" font-family="Helvetica,sans-Serif" font-size="10.00">src</text>
</a>
</g>
</g>
<g id="clust2" class="cluster">
<title>clusterdir_e70d0c0f198ee0280d1f11c0ba8073e0</title>
<g id="a_clust2"><a xlink:href="dir_e70d0c0f198ee0280d1f11c0ba8073e0.html" target="_top">
<polygon fill="#edf0f7" stroke="#404040" stroke-width="2" points="173,-63 173,-153 277,-153 277,-63 173,-63"/>
</a>
</g>
</g>
<!-- dir_32137984f496da46263d816e0d6dc804 -->
<g id="node1" class="node">
<title>dir_32137984f496da46263d816e0d6dc804</title>
<g id="a_node1"><a xlink:href="dir_32137984f496da46263d816e0d6dc804.html" target="_top" xlink:title="API">
<polygon fill="#a2b4d6" stroke="#404040" points="68,-90 36,-90 36,-71 68,-71 68,-90"/>
<text text-anchor="middle" x="52" y="-78" font-family="Helvetica,sans-Serif" font-size="10.00">API</text>
</a>
</g>
</g>
<!-- dir_57fd63fe491ef075147d1cb32299e674 -->
<g id="node2" class="node">
<title>dir_57fd63fe491ef075147d1cb32299e674</title>
<g id="a_node2"><a xlink:href="dir_57fd63fe491ef075147d1cb32299e674.html" target="_top" xlink:title="QmlControls">
<polygon fill="#a2b4d6" stroke="#404040" points="163.5,-90 86.5,-90 86.5,-71 163.5,-71 163.5,-90"/>
<text text-anchor="middle" x="125" y="-78" font-family="Helvetica,sans-Serif" font-size="10.00">QmlControls</text>
</a>
</g>
</g>
<!-- dir_87225e6cbcb4cf5309991212c88ac25b -->
<g id="node3" class="node">
<title>dir_87225e6cbcb4cf5309991212c88ac25b</title>
<g id="a_node3"><a xlink:href="dir_87225e6cbcb4cf5309991212c88ac25b.html" target="_top" xlink:title="Settings">
<polygon fill="#a2b4d6" stroke="#404040" points="189,-35 133,-35 133,-16 189,-16 189,-35"/>
<text text-anchor="middle" x="161" y="-23" font-family="Helvetica,sans-Serif" font-size="10.00">Settings</text>
</a>
</g>
</g>
<!-- dir_924006918299b661f7f5467ff93fed23 -->
<g id="node4" class="node">
<title>dir_924006918299b661f7f5467ff93fed23</title>
<g id="a_node4"><a xlink:href="dir_924006918299b661f7f5467ff93fed23.html" target="_top" xlink:title="Vehicle">
<polygon fill="#a2b4d6" stroke="red" points="339,-90 287,-90 287,-71 339,-71 339,-90"/>
<text text-anchor="middle" x="313" y="-78" font-family="Helvetica,sans-Serif" font-size="10.00">Vehicle</text>
</a>
</g>
</g>
<!-- dir_9fa1f6896f2c68d8c6f5e454a6a72ce4 -->
<g id="node5" class="node">
<title>dir_9fa1f6896f2c68d8c6f5e454a6a72ce4</title>
<g id="a_node5"><a xlink:href="dir_9fa1f6896f2c68d8c6f5e454a6a72ce4.html" target="_top" xlink:title="FactSystem">
<polygon fill="#a2b4d6" stroke="red" points="430.5,-90 357.5,-90 357.5,-71 430.5,-71 430.5,-90"/>
<text text-anchor="middle" x="394" y="-78" font-family="Helvetica,sans-Serif" font-size="10.00">FactSystem</text>
</a>
</g>
</g>
<!-- dir_a316e9605cf2e65295ae387cbf599266 -->
<g id="node6" class="node">
<title>dir_a316e9605cf2e65295ae387cbf599266</title>
<g id="a_node6"><a xlink:href="dir_a316e9605cf2e65295ae387cbf599266.html" target="_top" xlink:title="Camera">
<polygon fill="#a2b4d6" stroke="#404040" points="503.5,-90 448.5,-90 448.5,-71 503.5,-71 503.5,-90"/>
<text text-anchor="middle" x="476" y="-78" font-family="Helvetica,sans-Serif" font-size="10.00">Camera</text>
</a>
</g>
</g>
<!-- dir_ff383ddf1aa4eab0c4ce7910366d05a5 -->
<g id="node7" class="node">
<title>dir_ff383ddf1aa4eab0c4ce7910366d05a5</title>
<g id="a_node7"><a xlink:href="dir_ff383ddf1aa4eab0c4ce7910366d05a5.html" target="_top" xlink:title="Utilities">
<polygon fill="#a2b4d6" stroke="red" points="315.5,-35 260.5,-35 260.5,-16 315.5,-16 315.5,-35"/>
<text text-anchor="middle" x="288" y="-23" font-family="Helvetica,sans-Serif" font-size="10.00">Utilities</text>
</a>
</g>
</g>
<!-- dir_e70d0c0f198ee0280d1f11c0ba8073e0 -->
<g id="node8" class="node">
<title>dir_e70d0c0f198ee0280d1f11c0ba8073e0</title>
<text text-anchor="middle" x="225" y="-133" font-family="Helvetica,sans-Serif" font-size="10.00">VideoManager</text>
</g>
<!-- dir_e70d0c0f198ee0280d1f11c0ba8073e0&#45;&gt;dir_32137984f496da46263d816e0d6dc804 -->
<g id="edge1" class="edge">
<title>dir_e70d0c0f198ee0280d1f11c0ba8073e0&#45;&gt;dir_32137984f496da46263d816e0d6dc804</title>
<g id="a_edge1"><a xlink:href="dir_000082_000004.html" target="_top">
<path fill="none" stroke="#63b8ff" d="M196.21,-125.99C166.53,-117.17 118.95,-102.89 78,-90 77.9,-89.97 77.8,-89.94 77.7,-89.91"/>
<polygon fill="#63b8ff" stroke="#63b8ff" points="78.8,-86.58 68.21,-86.86 76.66,-93.25 78.8,-86.58"/>
</a>
</g>
<g id="a_edge1&#45;headlabel"><a xlink:href="dir_000082_000004.html" target="_top" xlink:title="1">
<text text-anchor="middle" x="83.09" y="-82.48" font-family="Helvetica,sans-Serif" font-size="10.00" fill="#63b8ff">1</text>
</a>
</g>
</g>
<!-- dir_e70d0c0f198ee0280d1f11c0ba8073e0&#45;&gt;dir_57fd63fe491ef075147d1cb32299e674 -->
<g id="edge2" class="edge">
<title>dir_e70d0c0f198ee0280d1f11c0ba8073e0&#45;&gt;dir_57fd63fe491ef075147d1cb32299e674</title>
<g id="a_edge2"><a xlink:href="dir_000082_000063.html" target="_top">
<path fill="none" stroke="#63b8ff" d="M208.93,-125.98C193.14,-117.61 168.78,-104.7 150.37,-94.95"/>
<polygon fill="#63b8ff" stroke="#63b8ff" points="151.83,-91.76 141.36,-90.17 148.56,-97.95 151.83,-91.76"/>
</a>
</g>
<g id="a_edge2&#45;headlabel"><a xlink:href="dir_000082_000063.html" target="_top" xlink:title="3">
<text text-anchor="middle" x="156.34" y="-88.44" font-family="Helvetica,sans-Serif" font-size="10.00" fill="#63b8ff">3</text>
</a>
</g>
</g>
<!-- dir_e70d0c0f198ee0280d1f11c0ba8073e0&#45;&gt;dir_87225e6cbcb4cf5309991212c88ac25b -->
<g id="edge3" class="edge">
<title>dir_e70d0c0f198ee0280d1f11c0ba8073e0&#45;&gt;dir_87225e6cbcb4cf5309991212c88ac25b</title>
<g id="a_edge3"><a xlink:href="dir_000082_000069.html" target="_top">
<path fill="none" stroke="#63b8ff" d="M181.15,-130.91C128.8,-125.61 45.93,-113.66 27,-90 -1.53,-54.34 73.81,-37.61 122.78,-30.7"/>
<polygon fill="#63b8ff" stroke="#63b8ff" points="123.33,-34.16 132.78,-29.37 122.4,-27.22 123.33,-34.16"/>
</a>
</g>
<g id="a_edge3&#45;headlabel"><a xlink:href="dir_000082_000069.html" target="_top" xlink:title="6">
<text text-anchor="middle" x="120.14" y="-34.95" font-family="Helvetica,sans-Serif" font-size="10.00" fill="#63b8ff">6</text>
</a>
</g>
</g>
<!-- dir_e70d0c0f198ee0280d1f11c0ba8073e0&#45;&gt;dir_924006918299b661f7f5467ff93fed23 -->
<g id="edge4" class="edge">
<title>dir_e70d0c0f198ee0280d1f11c0ba8073e0&#45;&gt;dir_924006918299b661f7f5467ff93fed23</title>
<g id="a_edge4"><a xlink:href="dir_000082_000079.html" target="_top">
<path fill="none" stroke="#63b8ff" d="M239.14,-125.98C252.79,-117.77 273.69,-105.18 289.78,-95.49"/>
<polygon fill="#63b8ff" stroke="#63b8ff" points="291.84,-98.33 298.6,-90.17 288.23,-92.33 291.84,-98.33"/>
</a>
</g>
<g id="a_edge4&#45;headlabel"><a xlink:href="dir_000082_000079.html" target="_top" xlink:title="3">
<text text-anchor="middle" x="290.23" y="-100.11" font-family="Helvetica,sans-Serif" font-size="10.00" fill="#63b8ff">3</text>
</a>
</g>
</g>
<!-- dir_e70d0c0f198ee0280d1f11c0ba8073e0&#45;&gt;dir_9fa1f6896f2c68d8c6f5e454a6a72ce4 -->
<g id="edge5" class="edge">
<title>dir_e70d0c0f198ee0280d1f11c0ba8073e0&#45;&gt;dir_9fa1f6896f2c68d8c6f5e454a6a72ce4</title>
<g id="a_edge5"><a xlink:href="dir_000082_000022.html" target="_top">
<path fill="none" stroke="#63b8ff" d="M252.15,-125.98C280.53,-117.09 325.23,-103.07 356.86,-93.15"/>
<polygon fill="#63b8ff" stroke="#63b8ff" points="358.14,-96.41 366.63,-90.08 356.05,-89.73 358.14,-96.41"/>
</a>
</g>
<g id="a_edge5&#45;headlabel"><a xlink:href="dir_000082_000022.html" target="_top" xlink:title="1">
<text text-anchor="middle" x="355.56" y="-97.7" font-family="Helvetica,sans-Serif" font-size="10.00" fill="#63b8ff">1</text>
</a>
</g>
</g>
<!-- dir_e70d0c0f198ee0280d1f11c0ba8073e0&#45;&gt;dir_a316e9605cf2e65295ae387cbf599266 -->
<g id="edge6" class="edge">
<title>dir_e70d0c0f198ee0280d1f11c0ba8073e0&#45;&gt;dir_a316e9605cf2e65295ae387cbf599266</title>
<g id="a_edge6"><a xlink:href="dir_000082_000011.html" target="_top">
<path fill="none" stroke="#63b8ff" d="M267.91,-125.98C309.24,-117.7 373.77,-104.55 438.19,-90.36"/>
<polygon fill="#63b8ff" stroke="#63b8ff" points="439.1,-93.74 448.11,-88.17 437.59,-86.91 439.1,-93.74"/>
</a>
</g>
<g id="a_edge6&#45;headlabel"><a xlink:href="dir_000082_000011.html" target="_top" xlink:title="2">
<text text-anchor="middle" x="436.2" y="-94.79" font-family="Helvetica,sans-Serif" font-size="10.00" fill="#63b8ff">2</text>
</a>
</g>
</g>
<!-- dir_e70d0c0f198ee0280d1f11c0ba8073e0&#45;&gt;dir_ff383ddf1aa4eab0c4ce7910366d05a5 -->
<g id="edge8" class="edge">
<title>dir_e70d0c0f198ee0280d1f11c0ba8073e0&#45;&gt;dir_ff383ddf1aa4eab0c4ce7910366d05a5</title>
<g id="a_edge8"><a xlink:href="dir_000082_000078.html" target="_top">
<path fill="none" stroke="#63b8ff" d="M268.61,-134.39C341.24,-133.18 482.05,-126.1 513,-90 520.81,-80.89 520.78,-72.14 513,-63 489.4,-35.26 383.44,-28.54 325.74,-26.96"/>
<polygon fill="#63b8ff" stroke="#63b8ff" points="325.64,-23.45 315.56,-26.72 325.47,-30.45 325.64,-23.45"/>
</a>
</g>
<g id="a_edge8&#45;headlabel"><a xlink:href="dir_000082_000078.html" target="_top" xlink:title="7">
<text text-anchor="middle" x="329.3" y="-18.2" font-family="Helvetica,sans-Serif" font-size="10.00" fill="#63b8ff">7</text>
</a>
</g>
</g>
<!-- dir_f85c3baaca5db5ced6424567291f311c -->
<g id="node9" class="node">
<title>dir_f85c3baaca5db5ced6424567291f311c</title>
<g id="a_node9"><a xlink:href="dir_f85c3baaca5db5ced6424567291f311c.html" target="_top" xlink:title="VideoReceiver">
<polygon fill="#a2b4d6" stroke="#404040" points="268.5,-90 181.5,-90 181.5,-71 268.5,-71 268.5,-90"/>
<text text-anchor="middle" x="225" y="-78" font-family="Helvetica,sans-Serif" font-size="10.00">VideoReceiver</text>
</a>
</g>
</g>
<!-- dir_e70d0c0f198ee0280d1f11c0ba8073e0&#45;&gt;dir_f85c3baaca5db5ced6424567291f311c -->
<g id="edge7" class="edge">
<title>dir_e70d0c0f198ee0280d1f11c0ba8073e0&#45;&gt;dir_f85c3baaca5db5ced6424567291f311c</title>
<g id="a_edge7"><a xlink:href="dir_000082_000083.html" target="_top">
<path fill="none" stroke="#63b8ff" d="M225,-125.75C225,-118.8 225,-108.85 225,-100.13"/>
<polygon fill="#63b8ff" stroke="#63b8ff" points="228.5,-100.09 225,-90.09 221.5,-100.09 228.5,-100.09"/>
</a>
</g>
<g id="a_edge7&#45;headlabel"><a xlink:href="dir_000082_000083.html" target="_top" xlink:title="5">
<text text-anchor="middle" x="231.34" y="-101.18" font-family="Helvetica,sans-Serif" font-size="10.00" fill="#63b8ff">5</text>
</a>
</g>
</g>
<!-- dir_f85c3baaca5db5ced6424567291f311c&#45;&gt;dir_87225e6cbcb4cf5309991212c88ac25b -->
<g id="edge9" class="edge">
<title>dir_f85c3baaca5db5ced6424567291f311c&#45;&gt;dir_87225e6cbcb4cf5309991212c88ac25b</title>
<g id="a_edge9"><a xlink:href="dir_000083_000069.html" target="_top">
<path fill="none" stroke="#63b8ff" d="M214.72,-70.98C205.16,-63.07 190.72,-51.11 179.22,-41.58"/>
<polygon fill="#63b8ff" stroke="#63b8ff" points="181.4,-38.85 171.47,-35.17 176.94,-44.24 181.4,-38.85"/>
</a>
</g>
<g id="a_edge9&#45;headlabel"><a xlink:href="dir_000083_000069.html" target="_top" xlink:title="3">
<text text-anchor="middle" x="185.98" y="-36.46" font-family="Helvetica,sans-Serif" font-size="10.00" fill="#63b8ff">3</text>
</a>
</g>
</g>
<!-- dir_f85c3baaca5db5ced6424567291f311c&#45;&gt;dir_ff383ddf1aa4eab0c4ce7910366d05a5 -->
<g id="edge10" class="edge">
<title>dir_f85c3baaca5db5ced6424567291f311c&#45;&gt;dir_ff383ddf1aa4eab0c4ce7910366d05a5</title>
<g id="a_edge10"><a xlink:href="dir_000083_000078.html" target="_top">
<path fill="none" stroke="#63b8ff" d="M235.12,-70.98C244.44,-63.15 258.47,-51.34 269.74,-41.86"/>
<polygon fill="#63b8ff" stroke="#63b8ff" points="272.29,-44.29 277.69,-35.17 267.79,-38.93 272.29,-44.29"/>
</a>
</g>
<g id="a_edge10&#45;headlabel"><a xlink:href="dir_000083_000078.html" target="_top" xlink:title="5">
<text text-anchor="middle" x="271.37" y="-46.27" font-family="Helvetica,sans-Serif" font-size="10.00" fill="#63b8ff">5</text>
</a>
</g>
</g>
</g>
</svg>
