<?xml version="1.0" encoding="UTF-8" standalone="no"?>
<!DOCTYPE svg PUBLIC "-//W3C//DTD SVG 1.1//EN"
 "http://www.w3.org/Graphics/SVG/1.1/DTD/svg11.dtd">
<!-- Generated by graphviz version 2.43.0 (0)
 -->
<!-- Title: src/FactSystem/Fact.cc Pages: 1 -->
<!--zoomable 192 -->

<svg id="main" version="1.1" xmlns="http://www.w3.org/2000/svg" xmlns:xlink="http://www.w3.org/1999/xlink" xml:space="preserve" onload="init(evt)">
<style type="text/css"><![CDATA[
.node, .edge {opacity: 0.7;}
.node.selected, .edge.selected {opacity: 1;}
.edge:hover path { stroke: red; }
.edge:hover polygon { stroke: red; fill: red; }
]]></style>

<defs>
  <circle id="rim" cx="0" cy="0" r="7"/>
  <circle id="rim2" cx="0" cy="0" r="3.5"/>
  <g id="zoomPlus">
    <use xlink:href="#rim" fill="#404040"><set attributeName="fill" to="#808080" begin="zoomplus.mouseover" end="zoomplus.mouseout"/></use>
    <path d="M-4,0h8M0,-4v8" fill="none" stroke="white" stroke-width="1.5" pointer-events="none"/>
  </g>
  <g id="zoomMin">
    <use xlink:href="#rim" fill="#404040"><set attributeName="fill" to="#808080" begin="zoomminus.mouseover" end="zoomminus.mouseout"/></use>
    <path d="M-4,0h8" fill="none" stroke="white" stroke-width="1.5" pointer-events="none"/>
  </g>
  <g id="arrowUp" transform="translate(30 24)">
    <use xlink:href="#rim"/>
    <path pointer-events="none" fill="none" stroke="white" stroke-width="1.5" d="M0,-3.0v7 M-2.5,-0.5L0,-3.0L2.5,-0.5"/>
  </g>
  <g id="arrowRight" transform="rotate(90) translate(36 -43)">
    <use xlink:href="#rim"/>
    <path pointer-events="none" fill="none" stroke="white" stroke-width="1.5" d="M0,-3.0v7 M-2.5,-0.5L0,-3.0L2.5,-0.5"/>
  </g>
  <g id="arrowDown" transform="rotate(180) translate(-30 -48)">
    <use xlink:href="#rim"/>
    <path pointer-events="none" fill="none" stroke="white" stroke-width="1.5" d="M0,-3.0v7 M-2.5,-0.5L0,-3.0L2.5,-0.5"/>
  </g>
  <g id="arrowLeft" transform="rotate(270) translate(-36 17)">
    <use xlink:href="#rim"/>
    <path pointer-events="none" fill="none" stroke="white" stroke-width="1.5" d="M0,-3.0v7 M-2.5,-0.5L0,-3.0L2.5,-0.5"/>
  </g>
  <g id="resetDef">
    <use xlink:href="#rim2" fill="#404040"><set attributeName="fill" to="#808080" begin="reset.mouseover" end="reset.mouseout"/></use>
  </g>
</defs>
<script type="application/ecmascript">
var viewWidth = 2609;
var viewHeight = 192;
var sectionId = 'dynsection-0';
</script>
<script type="application/ecmascript" xlink:href="svg.min.js"/>
<svg id="graph" class="graph">
<g id="viewport">
<title>src/FactSystem/Fact.cc</title>
<!-- Node1 -->
<g id="Node000001" class="node">
<title>Node1</title>
<g id="a_Node000001"><a xlink:title=" ">
<polygon fill="#999999" stroke="#666666" points="1264,-184 1138,-184 1138,-165 1264,-165 1264,-184"/>
<text text-anchor="middle" x="1201" y="-172" font-family="Helvetica,sans-Serif" font-size="10.00">src/FactSystem/Fact.cc</text>
</a>
</g>
</g>
<!-- Node2 -->
<g id="Node000002" class="node">
<title>Node2</title>
<g id="a_Node000002"><a xlink:href="Fact_8h.html" target="_top" xlink:title=" ">
<polygon fill="white" stroke="#666666" points="1522.5,-129 1477.5,-129 1477.5,-110 1522.5,-110 1522.5,-129"/>
<text text-anchor="middle" x="1500" y="-117" font-family="Helvetica,sans-Serif" font-size="10.00">Fact.h</text>
</a>
</g>
</g>
<!-- Node1&#45;&gt;Node2 -->
<g id="edge1_Node000001_Node000002" class="edge">
<title>Node1&#45;&gt;Node2</title>
<g id="a_edge1_Node000001_Node000002"><a xlink:title=" ">
<path fill="none" stroke="#63b8ff" d="M1249.04,-164.98C1310.2,-154.14 1414.25,-135.7 1467.1,-126.33"/>
<polygon fill="#63b8ff" stroke="#63b8ff" points="1468.02,-129.72 1477.26,-124.53 1466.8,-122.83 1468.02,-129.72"/>
</a>
</g>
</g>
<!-- Node14 -->
<g id="Node000014" class="node">
<title>Node14</title>
<g id="a_Node000014"><a xlink:href="FactValueSliderListModel_8h.html" target="_top" xlink:title=" ">
<polygon fill="white" stroke="#666666" points="1343.5,-74 1196.5,-74 1196.5,-55 1343.5,-55 1343.5,-74"/>
<text text-anchor="middle" x="1270" y="-62" font-family="Helvetica,sans-Serif" font-size="10.00">FactValueSliderListModel.h</text>
</a>
</g>
</g>
<!-- Node1&#45;&gt;Node14 -->
<g id="edge18_Node000001_Node000014" class="edge">
<title>Node1&#45;&gt;Node14</title>
<g id="a_edge18_Node000001_Node000014"><a xlink:title=" ">
<path fill="none" stroke="#63b8ff" d="M1206.65,-164.66C1218.08,-146.77 1244.12,-106 1259.02,-82.69"/>
<polygon fill="#63b8ff" stroke="#63b8ff" points="1262.03,-84.47 1264.47,-74.16 1256.13,-80.7 1262.03,-84.47"/>
</a>
</g>
</g>
<!-- Node17 -->
<g id="Node000017" class="node">
<title>Node17</title>
<g id="a_Node000017"><a xlink:href="QGCApplication_8h.html" target="_top" xlink:title=" ">
<polygon fill="white" stroke="#666666" points="561,-74 459,-74 459,-55 561,-55 561,-74"/>
<text text-anchor="middle" x="510" y="-62" font-family="Helvetica,sans-Serif" font-size="10.00">QGCApplication.h</text>
</a>
</g>
</g>
<!-- Node1&#45;&gt;Node17 -->
<g id="edge25_Node000001_Node000017" class="edge">
<title>Node1&#45;&gt;Node17</title>
<g id="a_edge25_Node000001_Node000017"><a xlink:title=" ">
<path fill="none" stroke="#63b8ff" d="M1137.71,-165.99C1070.08,-157.75 959.77,-143.74 865,-129 757.83,-112.33 633.15,-89.14 563.72,-75.89"/>
<polygon fill="#63b8ff" stroke="#63b8ff" points="564.37,-72.45 553.89,-74.01 563.06,-79.33 564.37,-72.45"/>
</a>
</g>
</g>
<!-- Node24 -->
<g id="Node000024" class="node">
<title>Node24</title>
<g id="a_Node000024"><a xlink:href="QGCCorePlugin_8h.html" target="_top" xlink:title=" ">
<polygon fill="white" stroke="#666666" points="974,-129 874,-129 874,-110 974,-110 974,-129"/>
<text text-anchor="middle" x="924" y="-117" font-family="Helvetica,sans-Serif" font-size="10.00">QGCCorePlugin.h</text>
</a>
</g>
</g>
<!-- Node1&#45;&gt;Node24 -->
<g id="edge33_Node000001_Node000024" class="edge">
<title>Node1&#45;&gt;Node24</title>
<g id="a_edge33_Node000001_Node000024"><a xlink:title=" ">
<path fill="none" stroke="#63b8ff" d="M1156.5,-164.98C1108.18,-155.74 1030.96,-140.97 978.91,-131.01"/>
<polygon fill="#63b8ff" stroke="#63b8ff" points="979.33,-127.52 968.85,-129.08 978.02,-134.4 979.33,-127.52"/>
</a>
</g>
</g>
<!-- Node28 -->
<g id="Node000028" class="node">
<title>Node28</title>
<g id="a_Node000028"><a xlink:href="QGCLoggingCategory_8h.html" target="_top" xlink:title=" ">
<polygon fill="white" stroke="#666666" points="1978,-74 1850,-74 1850,-55 1978,-55 1978,-74"/>
<text text-anchor="middle" x="1914" y="-62" font-family="Helvetica,sans-Serif" font-size="10.00">QGCLoggingCategory.h</text>
</a>
</g>
</g>
<!-- Node1&#45;&gt;Node28 -->
<g id="edge43_Node000001_Node000028" class="edge">
<title>Node1&#45;&gt;Node28</title>
<g id="a_edge43_Node000001_Node000028"><a xlink:title=" ">
<path fill="none" stroke="#63b8ff" d="M1264.23,-165.59C1330.9,-157.12 1438.97,-142.98 1532,-129 1646.93,-111.73 1780.83,-88.83 1855.67,-75.77"/>
<polygon fill="#63b8ff" stroke="#63b8ff" points="1856.59,-79.17 1865.83,-74 1855.38,-72.27 1856.59,-79.17"/>
</a>
</g>
</g>
<!-- Node32 -->
<g id="Node000032" class="node">
<title>Node32</title>
<g id="a_Node000032"><a xlink:href="SettingsManager_8h.html" target="_top" xlink:title=" ">
<polygon fill="white" stroke="#666666" points="1139.5,-74 1032.5,-74 1032.5,-55 1139.5,-55 1139.5,-74"/>
<text text-anchor="middle" x="1086" y="-62" font-family="Helvetica,sans-Serif" font-size="10.00">SettingsManager.h</text>
</a>
</g>
</g>
<!-- Node1&#45;&gt;Node32 -->
<g id="edge52_Node000001_Node000032" class="edge">
<title>Node1&#45;&gt;Node32</title>
<g id="a_edge52_Node000001_Node000032"><a xlink:title=" ">
<path fill="none" stroke="#63b8ff" d="M1191.59,-164.66C1172.12,-146.38 1127.19,-104.18 1102.68,-81.17"/>
<polygon fill="#63b8ff" stroke="#63b8ff" points="1104.91,-78.45 1095.22,-74.16 1100.11,-83.56 1104.91,-78.45"/>
</a>
</g>
</g>
<!-- Node3 -->
<g id="Node000003" class="node">
<title>Node3</title>
<g id="a_Node000003"><a xlink:title=" ">
<polygon fill="#e0e0e0" stroke="#999999" points="1713.5,-19 1570.5,-19 1570.5,0 1713.5,0 1713.5,-19"/>
<text text-anchor="middle" x="1642" y="-7" font-family="Helvetica,sans-Serif" font-size="10.00">QtCore/QLoggingCategory</text>
</a>
</g>
</g>
<!-- Node2&#45;&gt;Node3 -->
<g id="edge2_Node000002_Node000003" class="edge">
<title>Node2&#45;&gt;Node3</title>
<g id="a_edge2_Node000002_Node000003"><a xlink:title=" ">
<path fill="none" stroke="#63b8ff" d="M1477.52,-109.95C1450.81,-98.53 1412,-77.16 1430,-55 1439.17,-43.7 1514.77,-29.8 1573.1,-20.57"/>
<polygon fill="#63b8ff" stroke="#63b8ff" points="1573.69,-24.02 1583.03,-19.01 1572.61,-17.1 1573.69,-24.02"/>
</a>
</g>
</g>
<!-- Node4 -->
<g id="Node000004" class="node">
<title>Node4</title>
<g id="a_Node000004"><a xlink:title=" ">
<polygon fill="#e0e0e0" stroke="#999999" points="1561.5,-74 1438.5,-74 1438.5,-55 1561.5,-55 1561.5,-74"/>
<text text-anchor="middle" x="1500" y="-62" font-family="Helvetica,sans-Serif" font-size="10.00">QtCore/QMutexLocker</text>
</a>
</g>
</g>
<!-- Node2&#45;&gt;Node4 -->
<g id="edge3_Node000002_Node000004" class="edge">
<title>Node2&#45;&gt;Node4</title>
<g id="a_edge3_Node000002_Node000004"><a xlink:title=" ">
<path fill="none" stroke="#63b8ff" d="M1500,-109.75C1500,-102.8 1500,-92.85 1500,-84.13"/>
<polygon fill="#63b8ff" stroke="#63b8ff" points="1503.5,-84.09 1500,-74.09 1496.5,-84.09 1503.5,-84.09"/>
</a>
</g>
</g>
<!-- Node5 -->
<g id="Node000005" class="node">
<title>Node5</title>
<g id="a_Node000005"><a xlink:title=" ">
<polygon fill="#e0e0e0" stroke="#999999" points="1125,-19 1033,-19 1033,0 1125,0 1125,-19"/>
<text text-anchor="middle" x="1079" y="-7" font-family="Helvetica,sans-Serif" font-size="10.00">QtCore/QObject</text>
</a>
</g>
</g>
<!-- Node2&#45;&gt;Node5 -->
<g id="edge4_Node000002_Node000005" class="edge">
<title>Node2&#45;&gt;Node5</title>
<g id="a_edge4_Node000002_Node000005"><a xlink:title=" ">
<path fill="none" stroke="#63b8ff" d="M1477.37,-118.22C1424.97,-116.95 1291.88,-110.11 1188,-74 1170.24,-67.82 1127.25,-41.35 1100.87,-24.6"/>
<polygon fill="#63b8ff" stroke="#63b8ff" points="1102.62,-21.56 1092.31,-19.13 1098.85,-27.46 1102.62,-21.56"/>
</a>
</g>
</g>
<!-- Node6 -->
<g id="Node000006" class="node">
<title>Node6</title>
<g id="a_Node000006"><a xlink:title=" ">
<polygon fill="#e0e0e0" stroke="#999999" points="1720,-74 1580,-74 1580,-55 1720,-55 1720,-74"/>
<text text-anchor="middle" x="1650" y="-62" font-family="Helvetica,sans-Serif" font-size="10.00">QtCore/QRecursiveMutex</text>
</a>
</g>
</g>
<!-- Node2&#45;&gt;Node6 -->
<g id="edge5_Node000002_Node000006" class="edge">
<title>Node2&#45;&gt;Node6</title>
<g id="a_edge5_Node000002_Node000006"><a xlink:title=" ">
<path fill="none" stroke="#63b8ff" d="M1522.78,-110.45C1547.63,-101.67 1587.68,-87.52 1616.19,-77.44"/>
<polygon fill="#63b8ff" stroke="#63b8ff" points="1617.5,-80.7 1625.76,-74.07 1615.16,-74.1 1617.5,-80.7"/>
</a>
</g>
</g>
<!-- Node7 -->
<g id="Node000007" class="node">
<title>Node7</title>
<g id="a_Node000007"><a xlink:title=" ">
<polygon fill="#e0e0e0" stroke="#999999" points="2050.5,-19 1961.5,-19 1961.5,0 2050.5,0 2050.5,-19"/>
<text text-anchor="middle" x="2006" y="-7" font-family="Helvetica,sans-Serif" font-size="10.00">QtCore/QString</text>
</a>
</g>
</g>
<!-- Node2&#45;&gt;Node7 -->
<g id="edge6_Node000002_Node000007" class="edge">
<title>Node2&#45;&gt;Node7</title>
<g id="a_edge6_Node000002_Node000007"><a xlink:title=" ">
<path fill="none" stroke="#63b8ff" d="M1522.78,-117.9C1614.13,-115.28 1950.69,-103.7 1987,-74 2000.07,-63.31 2004.4,-44 2005.71,-29.48"/>
<polygon fill="#63b8ff" stroke="#63b8ff" points="2009.23,-29.27 2006.23,-19.11 2002.24,-28.92 2009.23,-29.27"/>
</a>
</g>
</g>
<!-- Node8 -->
<g id="Node000008" class="node">
<title>Node8</title>
<g id="a_Node000008"><a xlink:title=" ">
<polygon fill="#e0e0e0" stroke="#999999" points="2163.5,-19 2068.5,-19 2068.5,0 2163.5,0 2163.5,-19"/>
<text text-anchor="middle" x="2116" y="-7" font-family="Helvetica,sans-Serif" font-size="10.00">QtCore/QVariant</text>
</a>
</g>
</g>
<!-- Node2&#45;&gt;Node8 -->
<g id="edge7_Node000002_Node000008" class="edge">
<title>Node2&#45;&gt;Node8</title>
<g id="a_edge7_Node000002_Node000008"><a xlink:title=" ">
<path fill="none" stroke="#63b8ff" d="M1522.64,-117.82C1608.61,-115.06 1914.68,-103.32 2007,-74 2041,-63.2 2075.86,-40.43 2096.73,-25.3"/>
<polygon fill="#63b8ff" stroke="#63b8ff" points="2099.07,-27.92 2105.02,-19.15 2094.9,-22.3 2099.07,-27.92"/>
</a>
</g>
</g>
<!-- Node9 -->
<g id="Node000009" class="node">
<title>Node9</title>
<g id="a_Node000009"><a xlink:title=" ">
<polygon fill="#e0e0e0" stroke="#999999" points="1014.5,-19 825.5,-19 825.5,0 1014.5,0 1014.5,-19"/>
<text text-anchor="middle" x="920" y="-7" font-family="Helvetica,sans-Serif" font-size="10.00">QtQmlIntegration/QtQmlIntegration</text>
</a>
</g>
</g>
<!-- Node2&#45;&gt;Node9 -->
<g id="edge8_Node000002_Node000009" class="edge">
<title>Node2&#45;&gt;Node9</title>
<g id="a_edge8_Node000002_Node000009"><a xlink:title=" ">
<path fill="none" stroke="#63b8ff" d="M1477.32,-117.73C1394.66,-114.74 1109.86,-102.52 1024,-74 991.44,-63.19 958.4,-40.59 938.55,-25.48"/>
<polygon fill="#63b8ff" stroke="#63b8ff" points="940.45,-22.52 930.41,-19.13 936.15,-28.04 940.45,-22.52"/>
</a>
</g>
</g>
<!-- Node10 -->
<g id="Node000010" class="node">
<title>Node10</title>
<g id="a_Node000010"><a xlink:href="FactMetaData_8h.html" target="_top" xlink:title=" ">
<polygon fill="white" stroke="#666666" points="1831.5,-74 1738.5,-74 1738.5,-55 1831.5,-55 1831.5,-74"/>
<text text-anchor="middle" x="1785" y="-62" font-family="Helvetica,sans-Serif" font-size="10.00">FactMetaData.h</text>
</a>
</g>
</g>
<!-- Node2&#45;&gt;Node10 -->
<g id="edge9_Node000002_Node000010" class="edge">
<title>Node2&#45;&gt;Node10</title>
<g id="a_edge9_Node000002_Node000010"><a xlink:title=" ">
<path fill="none" stroke="#63b8ff" d="M1522.84,-114.25C1567.2,-106 1666.14,-87.6 1728.99,-75.92"/>
<polygon fill="#63b8ff" stroke="#63b8ff" points="1729.94,-79.3 1739.13,-74.03 1728.66,-72.42 1729.94,-79.3"/>
</a>
</g>
</g>
<!-- Node10&#45;&gt;Node3 -->
<g id="edge11_Node000010_Node000003" class="edge">
<title>Node10&#45;&gt;Node3</title>
<g id="a_edge11_Node000010_Node000003"><a xlink:title=" ">
<path fill="none" stroke="#63b8ff" d="M1762.02,-54.98C1738.5,-46.27 1701.71,-32.63 1675.06,-22.75"/>
<polygon fill="#63b8ff" stroke="#63b8ff" points="1675.99,-19.36 1665.39,-19.17 1673.55,-25.93 1675.99,-19.36"/>
</a>
</g>
</g>
<!-- Node10&#45;&gt;Node5 -->
<g id="edge14_Node000010_Node000005" class="edge">
<title>Node10&#45;&gt;Node5</title>
<g id="a_edge14_Node000010_Node000005"><a xlink:title=" ">
<path fill="none" stroke="#63b8ff" d="M1738.29,-56.09C1735.15,-55.69 1732.03,-55.32 1729,-55 1469.33,-27.48 1399.77,-46.38 1135.4,-18.92"/>
<polygon fill="#63b8ff" stroke="#63b8ff" points="1135.41,-15.4 1125.1,-17.83 1134.68,-22.36 1135.41,-15.4"/>
</a>
</g>
</g>
<!-- Node10&#45;&gt;Node7 -->
<g id="edge15_Node000010_Node000007" class="edge">
<title>Node10&#45;&gt;Node7</title>
<g id="a_edge15_Node000010_Node000007"><a xlink:title=" ">
<path fill="none" stroke="#63b8ff" d="M1820.51,-54.98C1858.49,-45.87 1918.87,-31.4 1960.36,-21.45"/>
<polygon fill="#63b8ff" stroke="#63b8ff" points="1961.31,-24.82 1970.21,-19.08 1959.67,-18.01 1961.31,-24.82"/>
</a>
</g>
</g>
<!-- Node10&#45;&gt;Node8 -->
<g id="edge16_Node000010_Node000008" class="edge">
<title>Node10&#45;&gt;Node8</title>
<g id="a_edge16_Node000010_Node000008"><a xlink:title=" ">
<path fill="none" stroke="#63b8ff" d="M1831.72,-56.02C1891.26,-46.48 1994.16,-30.01 2058.47,-19.71"/>
<polygon fill="#63b8ff" stroke="#63b8ff" points="2059.12,-23.15 2068.44,-18.11 2058.02,-16.24 2059.12,-23.15"/>
</a>
</g>
</g>
<!-- Node10&#45;&gt;Node9 -->
<g id="edge17_Node000010_Node000009" class="edge">
<title>Node10&#45;&gt;Node9</title>
<g id="a_edge17_Node000010_Node000009"><a xlink:title=" ">
<path fill="none" stroke="#63b8ff" d="M1738.29,-56.05C1735.15,-55.66 1732.03,-55.31 1729,-55 1420.21,-23.76 1338.79,-39.44 1024.96,-19.04"/>
<polygon fill="#63b8ff" stroke="#63b8ff" points="1024.86,-15.52 1014.65,-18.36 1024.4,-22.51 1024.86,-15.52"/>
</a>
</g>
</g>
<!-- Node11 -->
<g id="Node000011" class="node">
<title>Node11</title>
<g id="a_Node000011"><a xlink:title=" ">
<polygon fill="#e0e0e0" stroke="#999999" points="1943,-19 1857,-19 1857,0 1943,0 1943,-19"/>
<text text-anchor="middle" x="1900" y="-7" font-family="Helvetica,sans-Serif" font-size="10.00">QtCore/QHash</text>
</a>
</g>
</g>
<!-- Node10&#45;&gt;Node11 -->
<g id="edge10_Node000010_Node000011" class="edge">
<title>Node10&#45;&gt;Node11</title>
<g id="a_edge10_Node000010_Node000011"><a xlink:title=" ">
<path fill="none" stroke="#63b8ff" d="M1803.48,-54.98C1821.98,-46.46 1850.68,-33.23 1871.98,-23.41"/>
<polygon fill="#63b8ff" stroke="#63b8ff" points="1873.57,-26.53 1881.19,-19.17 1870.64,-20.18 1873.57,-26.53"/>
</a>
</g>
</g>
<!-- Node12 -->
<g id="Node000012" class="node">
<title>Node12</title>
<g id="a_Node000012"><a xlink:title=" ">
<polygon fill="#e0e0e0" stroke="#999999" points="1838.5,-19 1731.5,-19 1731.5,0 1838.5,0 1838.5,-19"/>
<text text-anchor="middle" x="1785" y="-7" font-family="Helvetica,sans-Serif" font-size="10.00">QtCore/QJsonArray</text>
</a>
</g>
</g>
<!-- Node10&#45;&gt;Node12 -->
<g id="edge12_Node000010_Node000012" class="edge">
<title>Node10&#45;&gt;Node12</title>
<g id="a_edge12_Node000010_Node000012"><a xlink:title=" ">
<path fill="none" stroke="#63b8ff" d="M1785,-54.75C1785,-47.8 1785,-37.85 1785,-29.13"/>
<polygon fill="#63b8ff" stroke="#63b8ff" points="1788.5,-29.09 1785,-19.09 1781.5,-29.09 1788.5,-29.09"/>
</a>
</g>
</g>
<!-- Node13 -->
<g id="Node000013" class="node">
<title>Node13</title>
<g id="a_Node000013"><a xlink:title=" ">
<polygon fill="#e0e0e0" stroke="#999999" points="1552.5,-19 1439.5,-19 1439.5,0 1552.5,0 1552.5,-19"/>
<text text-anchor="middle" x="1496" y="-7" font-family="Helvetica,sans-Serif" font-size="10.00">QtCore/QJsonObject</text>
</a>
</g>
</g>
<!-- Node10&#45;&gt;Node13 -->
<g id="edge13_Node000010_Node000013" class="edge">
<title>Node10&#45;&gt;Node13</title>
<g id="a_edge13_Node000010_Node000013"><a xlink:title=" ">
<path fill="none" stroke="#63b8ff" d="M1738.57,-54.98C1688.05,-45.72 1607.26,-30.9 1552.95,-20.94"/>
<polygon fill="#63b8ff" stroke="#63b8ff" points="1553.26,-17.44 1542.8,-19.08 1552,-24.33 1553.26,-17.44"/>
</a>
</g>
</g>
<!-- Node14&#45;&gt;Node3 -->
<g id="edge22_Node000014_Node000003" class="edge">
<title>Node14&#45;&gt;Node3</title>
<g id="a_edge22_Node000014_Node000003"><a xlink:title=" ">
<path fill="none" stroke="#63b8ff" d="M1329.77,-54.98C1395.84,-45.57 1502.13,-30.43 1572.03,-20.47"/>
<polygon fill="#63b8ff" stroke="#63b8ff" points="1572.67,-23.91 1582.07,-19.04 1571.68,-16.98 1572.67,-23.91"/>
</a>
</g>
</g>
<!-- Node14&#45;&gt;Node5 -->
<g id="edge23_Node000014_Node000005" class="edge">
<title>Node14&#45;&gt;Node5</title>
<g id="a_edge23_Node000014_Node000005"><a xlink:title=" ">
<path fill="none" stroke="#63b8ff" d="M1239.31,-54.98C1206.83,-45.97 1155.4,-31.7 1119.59,-21.76"/>
<polygon fill="#63b8ff" stroke="#63b8ff" points="1120.5,-18.38 1109.93,-19.08 1118.63,-25.13 1120.5,-18.38"/>
</a>
</g>
</g>
<!-- Node14&#45;&gt;Node9 -->
<g id="edge24_Node000014_Node000009" class="edge">
<title>Node14&#45;&gt;Node9</title>
<g id="a_edge24_Node000014_Node000009"><a xlink:title=" ">
<path fill="none" stroke="#63b8ff" d="M1213.77,-54.98C1151.86,-45.61 1052.41,-30.55 986.64,-20.59"/>
<polygon fill="#63b8ff" stroke="#63b8ff" points="986.8,-17.07 976.38,-19.04 985.75,-24 986.8,-17.07"/>
</a>
</g>
</g>
<!-- Node14&#45;&gt;Node11 -->
<g id="edge21_Node000014_Node000011" class="edge">
<title>Node14&#45;&gt;Node11</title>
<g id="a_edge21_Node000014_Node000011"><a xlink:title=" ">
<path fill="none" stroke="#63b8ff" d="M1343.65,-59.84C1451.74,-54.03 1659.9,-41.14 1846.89,-19.03"/>
<polygon fill="#63b8ff" stroke="#63b8ff" points="1847.4,-22.49 1856.91,-17.83 1846.57,-15.54 1847.4,-22.49"/>
</a>
</g>
</g>
<!-- Node15 -->
<g id="Node000015" class="node">
<title>Node15</title>
<g id="a_Node000015"><a xlink:title=" ">
<polygon fill="#e0e0e0" stroke="#999999" points="1292.5,-19 1143.5,-19 1143.5,0 1292.5,0 1292.5,-19"/>
<text text-anchor="middle" x="1218" y="-7" font-family="Helvetica,sans-Serif" font-size="10.00">QtCore/QAbstractListModel</text>
</a>
</g>
</g>
<!-- Node14&#45;&gt;Node15 -->
<g id="edge19_Node000014_Node000015" class="edge">
<title>Node14&#45;&gt;Node15</title>
<g id="a_edge19_Node000014_Node000015"><a xlink:title=" ">
<path fill="none" stroke="#63b8ff" d="M1261.41,-54.75C1253.84,-47.03 1242.62,-35.6 1233.49,-26.28"/>
<polygon fill="#63b8ff" stroke="#63b8ff" points="1235.93,-23.78 1226.43,-19.09 1230.93,-28.68 1235.93,-23.78"/>
</a>
</g>
</g>
<!-- Node16 -->
<g id="Node000016" class="node">
<title>Node16</title>
<g id="a_Node000016"><a xlink:title=" ">
<polygon fill="#e0e0e0" stroke="#999999" points="1421,-19 1311,-19 1311,0 1421,0 1421,-19"/>
<text text-anchor="middle" x="1366" y="-7" font-family="Helvetica,sans-Serif" font-size="10.00">QtCore/QByteArray</text>
</a>
</g>
</g>
<!-- Node14&#45;&gt;Node16 -->
<g id="edge20_Node000014_Node000016" class="edge">
<title>Node14&#45;&gt;Node16</title>
<g id="a_edge20_Node000014_Node000016"><a xlink:title=" ">
<path fill="none" stroke="#63b8ff" d="M1285.42,-54.98C1300.45,-46.69 1323.54,-33.94 1341.16,-24.22"/>
<polygon fill="#63b8ff" stroke="#63b8ff" points="1343.23,-27.07 1350.3,-19.17 1339.85,-20.94 1343.23,-27.07"/>
</a>
</g>
</g>
<!-- Node17&#45;&gt;Node3 -->
<g id="edge26_Node000017_Node000003" class="edge">
<title>Node17&#45;&gt;Node3</title>
<g id="a_edge26_Node000017_Node000003"><a xlink:title=" ">
<path fill="none" stroke="#63b8ff" d="M561.16,-60.76C594.21,-59.02 638.14,-56.78 677,-55 1066.89,-37.15 1167.68,-47.63 1560.28,-19.08"/>
<polygon fill="#63b8ff" stroke="#63b8ff" points="1560.77,-22.55 1570.49,-18.33 1560.26,-15.57 1560.77,-22.55"/>
</a>
</g>
</g>
<!-- Node18 -->
<g id="Node000018" class="node">
<title>Node18</title>
<g id="a_Node000018"><a xlink:title=" ">
<polygon fill="#e0e0e0" stroke="#999999" points="128,-19 0,-19 0,0 128,0 128,-19"/>
<text text-anchor="middle" x="64" y="-7" font-family="Helvetica,sans-Serif" font-size="10.00">QtCore/QElapsedTimer</text>
</a>
</g>
</g>
<!-- Node17&#45;&gt;Node18 -->
<g id="edge27_Node000017_Node000018" class="edge">
<title>Node17&#45;&gt;Node18</title>
<g id="a_edge27_Node000017_Node000018"><a xlink:title=" ">
<path fill="none" stroke="#63b8ff" d="M458.84,-57.42C380.11,-48.06 228.86,-30.09 138.13,-19.31"/>
<polygon fill="#63b8ff" stroke="#63b8ff" points="138.53,-15.83 128.19,-18.13 137.71,-22.78 138.53,-15.83"/>
</a>
</g>
</g>
<!-- Node19 -->
<g id="Node000019" class="node">
<title>Node19</title>
<g id="a_Node000019"><a xlink:title=" ">
<polygon fill="#e0e0e0" stroke="#999999" points="614,-19 532,-19 532,0 614,0 614,-19"/>
<text text-anchor="middle" x="573" y="-7" font-family="Helvetica,sans-Serif" font-size="10.00">QtCore/QMap</text>
</a>
</g>
</g>
<!-- Node17&#45;&gt;Node19 -->
<g id="edge28_Node000017_Node000019" class="edge">
<title>Node17&#45;&gt;Node19</title>
<g id="a_edge28_Node000017_Node000019"><a xlink:title=" ">
<path fill="none" stroke="#63b8ff" d="M520.12,-54.98C529.44,-47.15 543.47,-35.34 554.74,-25.86"/>
<polygon fill="#63b8ff" stroke="#63b8ff" points="557.29,-28.29 562.69,-19.17 552.79,-22.93 557.29,-28.29"/>
</a>
</g>
</g>
<!-- Node20 -->
<g id="Node000020" class="node">
<title>Node20</title>
<g id="a_Node000020"><a xlink:title=" ">
<polygon fill="#e0e0e0" stroke="#999999" points="807.5,-19 730.5,-19 730.5,0 807.5,0 807.5,-19"/>
<text text-anchor="middle" x="769" y="-7" font-family="Helvetica,sans-Serif" font-size="10.00">QtCore/QSet</text>
</a>
</g>
</g>
<!-- Node17&#45;&gt;Node20 -->
<g id="edge29_Node000017_Node000020" class="edge">
<title>Node17&#45;&gt;Node20</title>
<g id="a_edge29_Node000017_Node000020"><a xlink:title=" ">
<path fill="none" stroke="#63b8ff" d="M551.61,-54.98C597.67,-45.56 671.81,-30.39 720.47,-20.43"/>
<polygon fill="#63b8ff" stroke="#63b8ff" points="721.35,-23.82 730.45,-18.39 719.95,-16.96 721.35,-23.82"/>
</a>
</g>
</g>
<!-- Node21 -->
<g id="Node000021" class="node">
<title>Node21</title>
<g id="a_Node000021"><a xlink:title=" ">
<polygon fill="#e0e0e0" stroke="#999999" points="235.5,-19 146.5,-19 146.5,0 235.5,0 235.5,-19"/>
<text text-anchor="middle" x="191" y="-7" font-family="Helvetica,sans-Serif" font-size="10.00">QtCore/QTimer</text>
</a>
</g>
</g>
<!-- Node17&#45;&gt;Node21 -->
<g id="edge30_Node000017_Node000021" class="edge">
<title>Node17&#45;&gt;Node21</title>
<g id="a_edge30_Node000017_Node000021"><a xlink:title=" ">
<path fill="none" stroke="#63b8ff" d="M458.75,-54.98C400.39,-45.29 305.44,-29.51 245.69,-19.59"/>
<polygon fill="#63b8ff" stroke="#63b8ff" points="246.13,-16.11 235.69,-17.92 244.98,-23.02 246.13,-16.11"/>
</a>
</g>
</g>
<!-- Node22 -->
<g id="Node000022" class="node">
<title>Node22</title>
<g id="a_Node000022"><a xlink:title=" ">
<polygon fill="#e0e0e0" stroke="#999999" points="362.5,-19 253.5,-19 253.5,0 362.5,0 362.5,-19"/>
<text text-anchor="middle" x="308" y="-7" font-family="Helvetica,sans-Serif" font-size="10.00">QtCore/QTranslator</text>
</a>
</g>
</g>
<!-- Node17&#45;&gt;Node22 -->
<g id="edge31_Node000017_Node000022" class="edge">
<title>Node17&#45;&gt;Node22</title>
<g id="a_edge31_Node000017_Node000022"><a xlink:title=" ">
<path fill="none" stroke="#63b8ff" d="M477.55,-54.98C443.04,-45.93 388.34,-31.58 350.44,-21.64"/>
<polygon fill="#63b8ff" stroke="#63b8ff" points="351.27,-18.23 340.71,-19.08 349.49,-25.01 351.27,-18.23"/>
</a>
</g>
</g>
<!-- Node23 -->
<g id="Node000023" class="node">
<title>Node23</title>
<g id="a_Node000023"><a xlink:title=" ">
<polygon fill="#e0e0e0" stroke="#999999" points="513.5,-19 380.5,-19 380.5,0 513.5,0 513.5,-19"/>
<text text-anchor="middle" x="447" y="-7" font-family="Helvetica,sans-Serif" font-size="10.00">QtWidgets/QApplication</text>
</a>
</g>
</g>
<!-- Node17&#45;&gt;Node23 -->
<g id="edge32_Node000017_Node000023" class="edge">
<title>Node17&#45;&gt;Node23</title>
<g id="a_edge32_Node000017_Node000023"><a xlink:title=" ">
<path fill="none" stroke="#63b8ff" d="M499.88,-54.98C490.56,-47.15 476.53,-35.34 465.26,-25.86"/>
<polygon fill="#63b8ff" stroke="#63b8ff" points="467.21,-22.93 457.31,-19.17 462.71,-28.29 467.21,-22.93"/>
</a>
</g>
</g>
<!-- Node24&#45;&gt;Node3 -->
<g id="edge34_Node000024_Node000003" class="edge">
<title>Node24&#45;&gt;Node3</title>
<g id="a_edge34_Node000024_Node000003"><a xlink:title=" ">
<path fill="none" stroke="#63b8ff" d="M974.27,-116.05C1054.8,-111.5 1217.46,-99.77 1353,-74 1383.83,-68.14 1390.49,-62.32 1421,-55 1476.08,-41.78 1539.51,-29.28 1584.25,-20.92"/>
<polygon fill="#63b8ff" stroke="#63b8ff" points="1585.16,-24.31 1594.36,-19.04 1583.89,-17.43 1585.16,-24.31"/>
</a>
</g>
</g>
<!-- Node24&#45;&gt;Node5 -->
<g id="edge35_Node000024_Node000005" class="edge">
<title>Node24&#45;&gt;Node5</title>
<g id="a_edge35_Node000024_Node000005"><a xlink:title=" ">
<path fill="none" stroke="#63b8ff" d="M936.42,-109.84C962.95,-91.36 1025.38,-47.86 1058.12,-25.05"/>
<polygon fill="#63b8ff" stroke="#63b8ff" points="1060.31,-27.79 1066.52,-19.2 1056.31,-22.04 1060.31,-27.79"/>
</a>
</g>
</g>
<!-- Node24&#45;&gt;Node9 -->
<g id="edge37_Node000024_Node000009" class="edge">
<title>Node24&#45;&gt;Node9</title>
<g id="a_edge37_Node000024_Node000009"><a xlink:title=" ">
<path fill="none" stroke="#63b8ff" d="M873.72,-110.79C851.84,-104.66 828.22,-93.68 815,-74 797.92,-48.57 833.16,-31.67 867.33,-21.75"/>
<polygon fill="#63b8ff" stroke="#63b8ff" points="868.64,-25.02 877.37,-19.01 866.8,-18.26 868.64,-25.02"/>
</a>
</g>
</g>
<!-- Node25 -->
<g id="Node000025" class="node">
<title>Node25</title>
<g id="a_Node000025"><a xlink:title=" ">
<polygon fill="#e0e0e0" stroke="#999999" points="937.5,-74 824.5,-74 824.5,-55 937.5,-55 937.5,-74"/>
<text text-anchor="middle" x="881" y="-62" font-family="Helvetica,sans-Serif" font-size="10.00">QtCore/QVariantList</text>
</a>
</g>
</g>
<!-- Node24&#45;&gt;Node25 -->
<g id="edge36_Node000024_Node000025" class="edge">
<title>Node24&#45;&gt;Node25</title>
<g id="a_edge36_Node000024_Node000025"><a xlink:title=" ">
<path fill="none" stroke="#63b8ff" d="M916.9,-109.75C910.83,-102.26 901.91,-91.28 894.49,-82.13"/>
<polygon fill="#63b8ff" stroke="#63b8ff" points="896.99,-79.65 887.97,-74.09 891.55,-84.06 896.99,-79.65"/>
</a>
</g>
</g>
<!-- Node26 -->
<g id="Node000026" class="node">
<title>Node26</title>
<g id="a_Node000026"><a xlink:href="QGCPalette_8h.html" target="_top" xlink:title=" ">
<polygon fill="white" stroke="#666666" points="767.5,-74 686.5,-74 686.5,-55 767.5,-55 767.5,-74"/>
<text text-anchor="middle" x="727" y="-62" font-family="Helvetica,sans-Serif" font-size="10.00">QGCPalette.h</text>
</a>
</g>
</g>
<!-- Node24&#45;&gt;Node26 -->
<g id="edge38_Node000024_Node000026" class="edge">
<title>Node24&#45;&gt;Node26</title>
<g id="a_edge38_Node000024_Node000026"><a xlink:title=" ">
<path fill="none" stroke="#63b8ff" d="M892.35,-109.98C858.84,-100.97 805.8,-86.7 768.86,-76.76"/>
<polygon fill="#63b8ff" stroke="#63b8ff" points="769.47,-73.3 758.9,-74.08 767.65,-80.06 769.47,-73.3"/>
</a>
</g>
</g>
<!-- Node26&#45;&gt;Node5 -->
<g id="edge39_Node000026_Node000005" class="edge">
<title>Node26&#45;&gt;Node5</title>
<g id="a_edge39_Node000026_Node000005"><a xlink:title=" ">
<path fill="none" stroke="#63b8ff" d="M767.84,-57.44C823.21,-49.22 925.43,-33.98 1022.78,-19.18"/>
<polygon fill="#63b8ff" stroke="#63b8ff" points="1023.43,-22.62 1032.79,-17.66 1022.38,-15.7 1023.43,-22.62"/>
</a>
</g>
</g>
<!-- Node26&#45;&gt;Node9 -->
<g id="edge42_Node000026_Node000009" class="edge">
<title>Node26&#45;&gt;Node9</title>
<g id="a_edge42_Node000026_Node000009"><a xlink:title=" ">
<path fill="none" stroke="#63b8ff" d="M758.01,-54.98C790.83,-45.97 842.8,-31.7 878.99,-21.76"/>
<polygon fill="#63b8ff" stroke="#63b8ff" points="880.03,-25.11 888.75,-19.08 878.18,-18.36 880.03,-25.11"/>
</a>
</g>
</g>
<!-- Node26&#45;&gt;Node19 -->
<g id="edge41_Node000026_Node000019" class="edge">
<title>Node26&#45;&gt;Node19</title>
<g id="a_edge41_Node000026_Node000019"><a xlink:title=" ">
<path fill="none" stroke="#63b8ff" d="M702.26,-54.98C676.63,-46.16 636.37,-32.31 607.59,-22.41"/>
<polygon fill="#63b8ff" stroke="#63b8ff" points="608.53,-19.03 597.94,-19.08 606.25,-25.65 608.53,-19.03"/>
</a>
</g>
</g>
<!-- Node27 -->
<g id="Node000027" class="node">
<title>Node27</title>
<g id="a_Node000027"><a xlink:title=" ">
<polygon fill="#e0e0e0" stroke="#999999" points="712,-19 632,-19 632,0 712,0 712,-19"/>
<text text-anchor="middle" x="672" y="-7" font-family="Helvetica,sans-Serif" font-size="10.00">QtGui/QColor</text>
</a>
</g>
</g>
<!-- Node26&#45;&gt;Node27 -->
<g id="edge40_Node000026_Node000027" class="edge">
<title>Node26&#45;&gt;Node27</title>
<g id="a_edge40_Node000026_Node000027"><a xlink:title=" ">
<path fill="none" stroke="#63b8ff" d="M717.92,-54.75C709.91,-47.03 698.04,-35.6 688.38,-26.28"/>
<polygon fill="#63b8ff" stroke="#63b8ff" points="690.54,-23.51 680.91,-19.09 685.69,-28.55 690.54,-23.51"/>
</a>
</g>
</g>
<!-- Node28&#45;&gt;Node3 -->
<g id="edge45_Node000028_Node000003" class="edge">
<title>Node28&#45;&gt;Node3</title>
<g id="a_edge45_Node000028_Node000003"><a xlink:title=" ">
<path fill="none" stroke="#63b8ff" d="M1870.3,-54.98C1822.85,-45.74 1747.03,-30.97 1695.92,-21.01"/>
<polygon fill="#63b8ff" stroke="#63b8ff" points="1696.53,-17.56 1686.04,-19.08 1695.19,-24.43 1696.53,-17.56"/>
</a>
</g>
</g>
<!-- Node28&#45;&gt;Node5 -->
<g id="edge46_Node000028_Node000005" class="edge">
<title>Node28&#45;&gt;Node5</title>
<g id="a_edge46_Node000028_Node000005"><a xlink:title=" ">
<path fill="none" stroke="#63b8ff" d="M1849.93,-55.8C1846.91,-55.51 1843.92,-55.24 1841,-55 1531.27,-29.1 1449.34,-50.15 1135.41,-18.91"/>
<polygon fill="#63b8ff" stroke="#63b8ff" points="1135.4,-15.39 1125.1,-17.87 1134.7,-22.35 1135.4,-15.39"/>
</a>
</g>
</g>
<!-- Node28&#45;&gt;Node7 -->
<g id="edge49_Node000028_Node000007" class="edge">
<title>Node28&#45;&gt;Node7</title>
<g id="a_edge49_Node000028_Node000007"><a xlink:title=" ">
<path fill="none" stroke="#63b8ff" d="M1928.78,-54.98C1943.18,-46.69 1965.31,-33.94 1982.19,-24.22"/>
<polygon fill="#63b8ff" stroke="#63b8ff" points="1984.03,-27.19 1990.95,-19.17 1980.54,-21.13 1984.03,-27.19"/>
</a>
</g>
</g>
<!-- Node28&#45;&gt;Node11 -->
<g id="edge44_Node000028_Node000011" class="edge">
<title>Node28&#45;&gt;Node11</title>
<g id="a_edge44_Node000028_Node000011"><a xlink:title=" ">
<path fill="none" stroke="#63b8ff" d="M1911.69,-54.75C1909.83,-47.72 1907.16,-37.62 1904.85,-28.84"/>
<polygon fill="#63b8ff" stroke="#63b8ff" points="1908.21,-27.86 1902.27,-19.09 1901.44,-29.65 1908.21,-27.86"/>
</a>
</g>
</g>
<!-- Node28&#45;&gt;Node20 -->
<g id="edge48_Node000028_Node000020" class="edge">
<title>Node28&#45;&gt;Node20</title>
<g id="a_edge48_Node000028_Node000020"><a xlink:title=" ">
<path fill="none" stroke="#63b8ff" d="M1849.93,-55.74C1846.92,-55.47 1843.93,-55.22 1841,-55 1389.79,-20.86 1270.96,-67 817.75,-19.02"/>
<polygon fill="#63b8ff" stroke="#63b8ff" points="817.98,-15.53 807.66,-17.95 817.24,-22.49 817.98,-15.53"/>
</a>
</g>
</g>
<!-- Node29 -->
<g id="Node000029" class="node">
<title>Node29</title>
<g id="a_Node000029"><a xlink:title=" ">
<polygon fill="#e0e0e0" stroke="#999999" points="2316,-19 2182,-19 2182,0 2316,0 2316,-19"/>
<text text-anchor="middle" x="2249" y="-7" font-family="Helvetica,sans-Serif" font-size="10.00">QtCore/QReadWriteLock</text>
</a>
</g>
</g>
<!-- Node28&#45;&gt;Node29 -->
<g id="edge47_Node000028_Node000029" class="edge">
<title>Node28&#45;&gt;Node29</title>
<g id="a_edge47_Node000028_Node000029"><a xlink:title=" ">
<path fill="none" stroke="#63b8ff" d="M1967.82,-54.98C2026.95,-45.63 2121.87,-30.61 2184.83,-20.65"/>
<polygon fill="#63b8ff" stroke="#63b8ff" points="2185.7,-24.06 2195.03,-19.04 2184.61,-17.14 2185.7,-24.06"/>
</a>
</g>
</g>
<!-- Node30 -->
<g id="Node000030" class="node">
<title>Node30</title>
<g id="a_Node000030"><a xlink:title=" ">
<polygon fill="#e0e0e0" stroke="#999999" points="2497.5,-19 2334.5,-19 2334.5,0 2497.5,0 2497.5,-19"/>
<text text-anchor="middle" x="2416" y="-7" font-family="Helvetica,sans-Serif" font-size="10.00">QtCore/QSortFilterProxyModel</text>
</a>
</g>
</g>
<!-- Node28&#45;&gt;Node30 -->
<g id="edge50_Node000028_Node000030" class="edge">
<title>Node28&#45;&gt;Node30</title>
<g id="a_edge50_Node000028_Node000030"><a xlink:title=" ">
<path fill="none" stroke="#63b8ff" d="M1978.09,-56.73C2066.12,-47.44 2224.93,-30.67 2325.18,-20.09"/>
<polygon fill="#63b8ff" stroke="#63b8ff" points="2325.72,-23.55 2335.3,-19.02 2324.99,-16.59 2325.72,-23.55"/>
</a>
</g>
</g>
<!-- Node31 -->
<g id="Node000031" class="node">
<title>Node31</title>
<g id="a_Node000031"><a xlink:title=" ">
<polygon fill="#e0e0e0" stroke="#999999" points="2600.5,-19 2515.5,-19 2515.5,0 2600.5,0 2600.5,-19"/>
<text text-anchor="middle" x="2558" y="-7" font-family="Helvetica,sans-Serif" font-size="10.00">QtQml/qqml.h</text>
</a>
</g>
</g>
<!-- Node28&#45;&gt;Node31 -->
<g id="edge51_Node000028_Node000031" class="edge">
<title>Node28&#45;&gt;Node31</title>
<g id="a_edge51_Node000028_Node000031"><a xlink:title=" ">
<path fill="none" stroke="#63b8ff" d="M1978.24,-60.58C2085.45,-55.3 2307.79,-42.55 2505.47,-19.08"/>
<polygon fill="#63b8ff" stroke="#63b8ff" points="2505.95,-22.55 2515.46,-17.88 2505.12,-15.6 2505.95,-22.55"/>
</a>
</g>
</g>
<!-- Node32&#45;&gt;Node3 -->
<g id="edge53_Node000032_Node000003" class="edge">
<title>Node32&#45;&gt;Node3</title>
<g id="a_edge53_Node000032_Node000003"><a xlink:title=" ">
<path fill="none" stroke="#63b8ff" d="M1139.56,-58.72C1225.88,-50.95 1401.41,-34.97 1560.5,-19.14"/>
<polygon fill="#63b8ff" stroke="#63b8ff" points="1560.87,-22.62 1570.48,-18.14 1560.18,-15.65 1560.87,-22.62"/>
</a>
</g>
</g>
<!-- Node32&#45;&gt;Node5 -->
<g id="edge54_Node000032_Node000005" class="edge">
<title>Node32&#45;&gt;Node5</title>
<g id="a_edge54_Node000032_Node000005"><a xlink:title=" ">
<path fill="none" stroke="#63b8ff" d="M1084.84,-54.75C1083.93,-47.8 1082.61,-37.85 1081.46,-29.13"/>
<polygon fill="#63b8ff" stroke="#63b8ff" points="1084.91,-28.54 1080.13,-19.09 1077.97,-29.46 1084.91,-28.54"/>
</a>
</g>
</g>
<!-- Node32&#45;&gt;Node9 -->
<g id="edge55_Node000032_Node000009" class="edge">
<title>Node32&#45;&gt;Node9</title>
<g id="a_edge55_Node000032_Node000009"><a xlink:title=" ">
<path fill="none" stroke="#63b8ff" d="M1059.33,-54.98C1031.46,-46.09 987.55,-32.07 956.48,-22.15"/>
<polygon fill="#63b8ff" stroke="#63b8ff" points="957.47,-18.79 946.88,-19.08 955.34,-25.46 957.47,-18.79"/>
</a>
</g>
</g>
<!-- Node32&#45;&gt;Node13 -->
<g id="edge56_Node000032_Node000013" class="edge">
<title>Node32&#45;&gt;Node13</title>
<g id="a_edge56_Node000032_Node000013"><a xlink:title=" ">
<path fill="none" stroke="#63b8ff" d="M1139.6,-56.57C1214.02,-46.95 1348.57,-29.56 1429.36,-19.11"/>
<polygon fill="#63b8ff" stroke="#63b8ff" points="1429.96,-22.57 1439.43,-17.81 1429.06,-15.62 1429.96,-22.57"/>
</a>
</g>
</g>
<!-- Node32&#45;&gt;Node19 -->
<g id="edge57_Node000032_Node000019" class="edge">
<title>Node32&#45;&gt;Node19</title>
<g id="a_edge57_Node000032_Node000019"><a xlink:title=" ">
<path fill="none" stroke="#63b8ff" d="M1032.39,-59.62C947.84,-53.22 778.18,-39.24 624.28,-19.08"/>
<polygon fill="#63b8ff" stroke="#63b8ff" points="624.54,-15.58 614.16,-17.74 623.62,-22.52 624.54,-15.58"/>
</a>
</g>
</g>
</g>
</svg>

<g id="navigator" transform="translate(0 0)" fill="#404254">
  <rect fill="#f2f5e9" fill-opacity="0.5" stroke="#606060" stroke-width=".5" x="0" y="0" width="60" height="60"/>
  <use id="zoomplus" xlink:href="#zoomPlus" x="17" y="9" onmousedown="handleZoom(evt,'in')"/>
  <use id="zoomminus" xlink:href="#zoomMin" x="42" y="9" onmousedown="handleZoom(evt,'out')"/>
  <use id="reset" xlink:href="#resetDef" x="30" y="36" onmousedown="handleReset()"/>
   <use id="arrowup" xlink:href="#arrowUp" x="0" y="0" onmousedown="handlePan(0,-1)"/>
  <use id="arrowright" xlink:href="#arrowRight" x="0" y="0" onmousedown="handlePan(1,0)"/>
  <use id="arrowdown" xlink:href="#arrowDown" x="0" y="0" onmousedown="handlePan(0,1)"/>
  <use id="arrowleft" xlink:href="#arrowLeft" x="0" y="0" onmousedown="handlePan(-1,0)"/>
</g>
<svg viewBox="0 0 15 15" width="100%" height="30px" preserveAspectRatio="xMaxYMin meet">
 <g id="arrow_out" transform="scale(0.3 0.3)">
  <a xlink:href="Fact_8cc__incl_org.svg" target="_base">
   <rect id="button" ry="5" rx="5" y="6" x="6" height="38" width="38"
        fill="#f2f5e9" fill-opacity="0.5" stroke="#606060" stroke-width="1.0"/>
   <path id="arrow"
     d="M 11.500037,31.436501 C 11.940474,20.09759 22.043105,11.32322 32.158766,21.979434 L 37.068811,17.246167 C 37.068811,17.246167 37.088388,32 37.088388,32 L 22.160133,31.978069 C 22.160133,31.978069 26.997745,27.140456 26.997745,27.140456 C 18.528582,18.264221 13.291696,25.230495 11.500037,31.436501 z"
     style="fill:#404040;"/>
  </a>
 </g>
</svg>

<style type='text/css'>
<![CDATA[
[data-mouse-over-selected='false'] { opacity: 0.7; }
[data-mouse-over-selected='true']  { opacity: 1.0; }
]]>
</style>
<script type="application/ecmascript"><![CDATA[
document.addEventListener('DOMContentLoaded', (event) => {
  highlightEdges();
  highlightAdjacentNodes();
});
]]></script>
</svg>
