<?xml version="1.0" encoding="UTF-8" standalone="no"?>
<!DOCTYPE svg PUBLIC "-//W3C//DTD SVG 1.1//EN"
 "http://www.w3.org/Graphics/SVG/1.1/DTD/svg11.dtd">
<!-- Generated by graphviz version 2.43.0 (0)
 -->
<!-- Title: src/FactSystem/FactGroupListModel.h Pages: 1 -->
<!--zoomable 170 -->

<svg id="main" version="1.1" xmlns="http://www.w3.org/2000/svg" xmlns:xlink="http://www.w3.org/1999/xlink" xml:space="preserve" onload="init(evt)">
<style type="text/css"><![CDATA[
.node, .edge {opacity: 0.7;}
.node.selected, .edge.selected {opacity: 1;}
.edge:hover path { stroke: red; }
.edge:hover polygon { stroke: red; fill: red; }
]]></style>

<defs>
  <circle id="rim" cx="0" cy="0" r="7"/>
  <circle id="rim2" cx="0" cy="0" r="3.5"/>
  <g id="zoomPlus">
    <use xlink:href="#rim" fill="#404040"><set attributeName="fill" to="#808080" begin="zoomplus.mouseover" end="zoomplus.mouseout"/></use>
    <path d="M-4,0h8M0,-4v8" fill="none" stroke="white" stroke-width="1.5" pointer-events="none"/>
  </g>
  <g id="zoomMin">
    <use xlink:href="#rim" fill="#404040"><set attributeName="fill" to="#808080" begin="zoomminus.mouseover" end="zoomminus.mouseout"/></use>
    <path d="M-4,0h8" fill="none" stroke="white" stroke-width="1.5" pointer-events="none"/>
  </g>
  <g id="arrowUp" transform="translate(30 24)">
    <use xlink:href="#rim"/>
    <path pointer-events="none" fill="none" stroke="white" stroke-width="1.5" d="M0,-3.0v7 M-2.5,-0.5L0,-3.0L2.5,-0.5"/>
  </g>
  <g id="arrowRight" transform="rotate(90) translate(36 -43)">
    <use xlink:href="#rim"/>
    <path pointer-events="none" fill="none" stroke="white" stroke-width="1.5" d="M0,-3.0v7 M-2.5,-0.5L0,-3.0L2.5,-0.5"/>
  </g>
  <g id="arrowDown" transform="rotate(180) translate(-30 -48)">
    <use xlink:href="#rim"/>
    <path pointer-events="none" fill="none" stroke="white" stroke-width="1.5" d="M0,-3.0v7 M-2.5,-0.5L0,-3.0L2.5,-0.5"/>
  </g>
  <g id="arrowLeft" transform="rotate(270) translate(-36 17)">
    <use xlink:href="#rim"/>
    <path pointer-events="none" fill="none" stroke="white" stroke-width="1.5" d="M0,-3.0v7 M-2.5,-0.5L0,-3.0L2.5,-0.5"/>
  </g>
  <g id="resetDef">
    <use xlink:href="#rim2" fill="#404040"><set attributeName="fill" to="#808080" begin="reset.mouseover" end="reset.mouseout"/></use>
  </g>
</defs>
<script type="application/ecmascript">
var viewWidth = 593;
var viewHeight = 170;
var sectionId = 'dynsection-1';
</script>
<script type="application/ecmascript" xlink:href="svg.min.js"/>
<svg id="graph" class="graph">
<g id="viewport">
<title>src/FactSystem/FactGroupListModel.h</title>
<!-- Node1 -->
<g id="Node000001" class="node">
<title>Node1</title>
<g id="a_Node000001"><a xlink:title=" ">
<polygon fill="#999999" stroke="#666666" points="312,-162 170,-162 170,-132 312,-132 312,-162"/>
<text text-anchor="start" x="178" y="-150" font-family="Helvetica,sans-Serif" font-size="10.00">src/FactSystem/FactGroup</text>
<text text-anchor="middle" x="241" y="-139" font-family="Helvetica,sans-Serif" font-size="10.00">ListModel.h</text>
</a>
</g>
</g>
<!-- Node2 -->
<g id="Node000002" class="node">
<title>Node2</title>
<g id="a_Node000002"><a xlink:href="FactGroupListModel_8cc.html" target="_top" xlink:title=" ">
<polygon fill="white" stroke="#666666" points="142,-96 0,-96 0,-66 142,-66 142,-96"/>
<text text-anchor="start" x="8" y="-84" font-family="Helvetica,sans-Serif" font-size="10.00">src/FactSystem/FactGroup</text>
<text text-anchor="middle" x="71" y="-73" font-family="Helvetica,sans-Serif" font-size="10.00">ListModel.cc</text>
</a>
</g>
</g>
<!-- Node1&#45;&gt;Node2 -->
<g id="edge1_Node000001_Node000002" class="edge">
<title>Node1&#45;&gt;Node2</title>
<g id="a_edge1_Node000001_Node000002"><a xlink:title=" ">
<path fill="none" stroke="#63b8ff" d="M194.04,-128.32C166.99,-118.14 133.45,-105.51 108.22,-96.01"/>
<polygon fill="#63b8ff" stroke="#63b8ff" points="193.1,-131.71 203.69,-131.95 195.57,-125.16 193.1,-131.71"/>
</a>
</g>
</g>
<!-- Node3 -->
<g id="Node000003" class="node">
<title>Node3</title>
<g id="a_Node000003"><a xlink:href="BatteryFactGroupListModel_8h.html" target="_top" xlink:title=" ">
<polygon fill="white" stroke="#666666" points="321.5,-96 160.5,-96 160.5,-66 321.5,-66 321.5,-96"/>
<text text-anchor="start" x="168.5" y="-84" font-family="Helvetica,sans-Serif" font-size="10.00">src/Vehicle/FactGroups</text>
<text text-anchor="middle" x="241" y="-73" font-family="Helvetica,sans-Serif" font-size="10.00">/BatteryFactGroupListModel.h</text>
</a>
</g>
</g>
<!-- Node1&#45;&gt;Node3 -->
<g id="edge2_Node000001_Node000003" class="edge">
<title>Node1&#45;&gt;Node3</title>
<g id="a_edge2_Node000001_Node000003"><a xlink:title=" ">
<path fill="none" stroke="#63b8ff" d="M241,-121.54C241,-112.96 241,-103.61 241,-96.16"/>
<polygon fill="#63b8ff" stroke="#63b8ff" points="237.5,-121.8 241,-131.8 244.5,-121.8 237.5,-121.8"/>
</a>
</g>
</g>
<!-- Node6 -->
<g id="Node000006" class="node">
<title>Node6</title>
<g id="a_Node000006"><a xlink:href="EscStatusFactGroupListModel_8h.html" target="_top" xlink:title=" ">
<polygon fill="white" stroke="#666666" points="512,-96 340,-96 340,-66 512,-66 512,-96"/>
<text text-anchor="start" x="348" y="-84" font-family="Helvetica,sans-Serif" font-size="10.00">src/Vehicle/FactGroups</text>
<text text-anchor="middle" x="426" y="-73" font-family="Helvetica,sans-Serif" font-size="10.00">/EscStatusFactGroupListModel.h</text>
</a>
</g>
</g>
<!-- Node1&#45;&gt;Node6 -->
<g id="edge5_Node000001_Node000006" class="edge">
<title>Node1&#45;&gt;Node6</title>
<g id="a_edge5_Node000001_Node000006"><a xlink:title=" ">
<path fill="none" stroke="#63b8ff" d="M291.33,-128.59C320.9,-118.36 357.8,-105.59 385.5,-96.01"/>
<polygon fill="#63b8ff" stroke="#63b8ff" points="289.91,-125.38 281.6,-131.95 292.19,-131.99 289.91,-125.38"/>
</a>
</g>
</g>
<!-- Node4 -->
<g id="Node000004" class="node">
<title>Node4</title>
<g id="a_Node000004"><a xlink:href="BatteryFactGroupListModel_8cc.html" target="_top" xlink:title=" ">
<polygon fill="white" stroke="#666666" points="251.5,-30 86.5,-30 86.5,0 251.5,0 251.5,-30"/>
<text text-anchor="start" x="94.5" y="-18" font-family="Helvetica,sans-Serif" font-size="10.00">src/Vehicle/FactGroups</text>
<text text-anchor="middle" x="169" y="-7" font-family="Helvetica,sans-Serif" font-size="10.00">/BatteryFactGroupListModel.cc</text>
</a>
</g>
</g>
<!-- Node3&#45;&gt;Node4 -->
<g id="edge3_Node000003_Node000004" class="edge">
<title>Node3&#45;&gt;Node4</title>
<g id="a_edge3_Node000003_Node000004"><a xlink:title=" ">
<path fill="none" stroke="#63b8ff" d="M217.29,-58.92C206.67,-49.49 194.43,-38.61 184.93,-30.16"/>
<polygon fill="#63b8ff" stroke="#63b8ff" points="215.22,-61.77 225.02,-65.8 219.87,-56.54 215.22,-61.77"/>
</a>
</g>
</g>
<!-- Node5 -->
<g id="Node000005" class="node">
<title>Node5</title>
<g id="a_Node000005"><a xlink:href="Vehicle_8cc.html" target="_top" xlink:title=" ">
<polygon fill="white" stroke="#666666" points="390.5,-24.5 269.5,-24.5 269.5,-5.5 390.5,-5.5 390.5,-24.5"/>
<text text-anchor="middle" x="330" y="-12.5" font-family="Helvetica,sans-Serif" font-size="10.00">src/Vehicle/Vehicle.cc</text>
</a>
</g>
</g>
<!-- Node3&#45;&gt;Node5 -->
<g id="edge4_Node000003_Node000005" class="edge">
<title>Node3&#45;&gt;Node5</title>
<g id="a_edge4_Node000003_Node000005"><a xlink:title=" ">
<path fill="none" stroke="#63b8ff" d="M268.99,-59.87C285.46,-48.03 305.46,-33.65 317.96,-24.66"/>
<polygon fill="#63b8ff" stroke="#63b8ff" points="266.83,-57.12 260.75,-65.8 270.91,-62.8 266.83,-57.12"/>
</a>
</g>
</g>
<!-- Node6&#45;&gt;Node5 -->
<g id="edge7_Node000006_Node000005" class="edge">
<title>Node6&#45;&gt;Node5</title>
<g id="a_edge7_Node000006_Node000005"><a xlink:title=" ">
<path fill="none" stroke="#63b8ff" d="M396.3,-60.2C378.43,-48.29 356.6,-33.73 342.99,-24.66"/>
<polygon fill="#63b8ff" stroke="#63b8ff" points="394.43,-63.16 404.69,-65.8 398.32,-57.34 394.43,-63.16"/>
</a>
</g>
</g>
<!-- Node7 -->
<g id="Node000007" class="node">
<title>Node7</title>
<g id="a_Node000007"><a xlink:href="EscStatusFactGroupListModel_8cc.html" target="_top" xlink:title=" ">
<polygon fill="white" stroke="#666666" points="585,-30 409,-30 409,0 585,0 585,-30"/>
<text text-anchor="start" x="417" y="-18" font-family="Helvetica,sans-Serif" font-size="10.00">src/Vehicle/FactGroups</text>
<text text-anchor="middle" x="497" y="-7" font-family="Helvetica,sans-Serif" font-size="10.00">/EscStatusFactGroupListModel.cc</text>
</a>
</g>
</g>
<!-- Node6&#45;&gt;Node7 -->
<g id="edge6_Node000006_Node000007" class="edge">
<title>Node6&#45;&gt;Node7</title>
<g id="a_edge6_Node000006_Node000007"><a xlink:title=" ">
<path fill="none" stroke="#63b8ff" d="M449.38,-58.92C459.85,-49.49 471.92,-38.61 481.29,-30.16"/>
<polygon fill="#63b8ff" stroke="#63b8ff" points="446.84,-56.5 441.76,-65.8 451.53,-61.7 446.84,-56.5"/>
</a>
</g>
</g>
</g>
</svg>

<g id="navigator" transform="translate(0 0)" fill="#404254">
  <rect fill="#f2f5e9" fill-opacity="0.5" stroke="#606060" stroke-width=".5" x="0" y="0" width="60" height="60"/>
  <use id="zoomplus" xlink:href="#zoomPlus" x="17" y="9" onmousedown="handleZoom(evt,'in')"/>
  <use id="zoomminus" xlink:href="#zoomMin" x="42" y="9" onmousedown="handleZoom(evt,'out')"/>
  <use id="reset" xlink:href="#resetDef" x="30" y="36" onmousedown="handleReset()"/>
   <use id="arrowup" xlink:href="#arrowUp" x="0" y="0" onmousedown="handlePan(0,-1)"/>
  <use id="arrowright" xlink:href="#arrowRight" x="0" y="0" onmousedown="handlePan(1,0)"/>
  <use id="arrowdown" xlink:href="#arrowDown" x="0" y="0" onmousedown="handlePan(0,1)"/>
  <use id="arrowleft" xlink:href="#arrowLeft" x="0" y="0" onmousedown="handlePan(-1,0)"/>
</g>
<svg viewBox="0 0 15 15" width="100%" height="30px" preserveAspectRatio="xMaxYMin meet">
 <g id="arrow_out" transform="scale(0.3 0.3)">
  <a xlink:href="FactGroupListModel_8h__dep__incl_org.svg" target="_base">
   <rect id="button" ry="5" rx="5" y="6" x="6" height="38" width="38"
        fill="#f2f5e9" fill-opacity="0.5" stroke="#606060" stroke-width="1.0"/>
   <path id="arrow"
     d="M 11.500037,31.436501 C 11.940474,20.09759 22.043105,11.32322 32.158766,21.979434 L 37.068811,17.246167 C 37.068811,17.246167 37.088388,32 37.088388,32 L 22.160133,31.978069 C 22.160133,31.978069 26.997745,27.140456 26.997745,27.140456 C 18.528582,18.264221 13.291696,25.230495 11.500037,31.436501 z"
     style="fill:#404040;"/>
  </a>
 </g>
</svg>

<style type='text/css'>
<![CDATA[
[data-mouse-over-selected='false'] { opacity: 0.7; }
[data-mouse-over-selected='true']  { opacity: 1.0; }
]]>
</style>
<script type="application/ecmascript"><![CDATA[
document.addEventListener('DOMContentLoaded', (event) => {
  highlightEdges();
  highlightAdjacentNodes();
});
]]></script>
</svg>
