<?xml version="1.0" encoding="UTF-8" standalone="no"?>
<!DOCTYPE svg PUBLIC "-//W3C//DTD SVG 1.1//EN"
 "http://www.w3.org/Graphics/SVG/1.1/DTD/svg11.dtd">
<!-- Generated by graphviz version 2.43.0 (0)
 -->
<!-- Title: src/QmlControls/FactValueGrid.h Pages: 1 -->
<svg width="809pt" height="170pt"
 viewBox="0.00 0.00 808.50 170.00" xmlns="http://www.w3.org/2000/svg" xmlns:xlink="http://www.w3.org/1999/xlink">
<g id="graph0" class="graph" transform="scale(1 1) rotate(0) translate(4 166)">
<title>src/QmlControls/FactValueGrid.h</title>
<!-- Node1 -->
<g id="Node000001" class="node">
<title>Node1</title>
<g id="a_Node000001"><a xlink:title=" ">
<polygon fill="#999999" stroke="#666666" points="618,-162 474,-162 474,-132 618,-132 618,-162"/>
<text text-anchor="start" x="482" y="-150" font-family="Helvetica,sans-Serif" font-size="10.00">src/QmlControls/FactValue</text>
<text text-anchor="middle" x="546" y="-139" font-family="Helvetica,sans-Serif" font-size="10.00">Grid.h</text>
</a>
</g>
</g>
<!-- Node2 -->
<g id="Node000002" class="node">
<title>Node2</title>
<g id="a_Node000002"><a xlink:href="FactValueGrid_8cc.html" target="_top" xlink:title=" ">
<polygon fill="white" stroke="#666666" points="310,-30 166,-30 166,0 310,0 310,-30"/>
<text text-anchor="start" x="174" y="-18" font-family="Helvetica,sans-Serif" font-size="10.00">src/QmlControls/FactValue</text>
<text text-anchor="middle" x="238" y="-7" font-family="Helvetica,sans-Serif" font-size="10.00">Grid.cc</text>
</a>
</g>
</g>
<!-- Node1&#45;&gt;Node2 -->
<g id="edge1_Node000001_Node000002" class="edge">
<title>Node1&#45;&gt;Node2</title>
<g id="a_edge1_Node000001_Node000002"><a xlink:title=" ">
<path fill="none" stroke="#63b8ff" d="M463.72,-144.82C411.71,-140.58 345.1,-128.41 295,-96 269.94,-79.79 252.51,-48.36 243.98,-30.09"/>
<polygon fill="#63b8ff" stroke="#63b8ff" points="463.69,-148.33 473.92,-145.56 464.2,-141.34 463.69,-148.33"/>
</a>
</g>
</g>
<!-- Node3 -->
<g id="Node000003" class="node">
<title>Node3</title>
<g id="a_Node000003"><a xlink:href="HorizontalFactValueGrid_8h.html" target="_top" xlink:title=" ">
<polygon fill="white" stroke="#666666" points="452,-96 304,-96 304,-66 452,-66 452,-96"/>
<text text-anchor="start" x="312" y="-84" font-family="Helvetica,sans-Serif" font-size="10.00">src/QmlControls/Horizontal</text>
<text text-anchor="middle" x="378" y="-73" font-family="Helvetica,sans-Serif" font-size="10.00">FactValueGrid.h</text>
</a>
</g>
</g>
<!-- Node1&#45;&gt;Node3 -->
<g id="edge2_Node000001_Node000003" class="edge">
<title>Node1&#45;&gt;Node3</title>
<g id="a_edge2_Node000001_Node000003"><a xlink:title=" ">
<path fill="none" stroke="#63b8ff" d="M499.6,-128.32C472.86,-118.14 439.71,-105.51 414.78,-96.01"/>
<polygon fill="#63b8ff" stroke="#63b8ff" points="498.54,-131.67 509.13,-131.95 501.03,-125.12 498.54,-131.67"/>
</a>
</g>
</g>
<!-- Node6 -->
<g id="Node000006" class="node">
<title>Node6</title>
<g id="a_Node000006"><a xlink:href="SubtitleWriter_8cc.html" target="_top" xlink:title=" ">
<polygon fill="white" stroke="#666666" points="631.5,-30 486.5,-30 486.5,0 631.5,0 631.5,-30"/>
<text text-anchor="start" x="494.5" y="-18" font-family="Helvetica,sans-Serif" font-size="10.00">src/VideoManager/Subtitle</text>
<text text-anchor="middle" x="559" y="-7" font-family="Helvetica,sans-Serif" font-size="10.00">Writer.cc</text>
</a>
</g>
</g>
<!-- Node1&#45;&gt;Node6 -->
<g id="edge12_Node000001_Node000006" class="edge">
<title>Node1&#45;&gt;Node6</title>
<g id="a_edge12_Node000001_Node000006"><a xlink:title=" ">
<path fill="none" stroke="#63b8ff" d="M596.55,-126.99C609.78,-119.44 622.44,-109.31 630,-96 636.59,-84.41 636.14,-77.84 630,-66 621.81,-50.21 606.08,-38.35 591.51,-30.16"/>
<polygon fill="#63b8ff" stroke="#63b8ff" points="594.59,-124.07 587.36,-131.81 597.84,-130.27 594.59,-124.07"/>
</a>
</g>
</g>
<!-- Node7 -->
<g id="Node000007" class="node">
<title>Node7</title>
<g id="a_Node000007"><a xlink:href="InstrumentValueData_8cc.html" target="_top" xlink:title=" ">
<polygon fill="white" stroke="#666666" points="800.5,-30 649.5,-30 649.5,0 800.5,0 800.5,-30"/>
<text text-anchor="start" x="657.5" y="-18" font-family="Helvetica,sans-Serif" font-size="10.00">src/QmlControls/Instrument</text>
<text text-anchor="middle" x="725" y="-7" font-family="Helvetica,sans-Serif" font-size="10.00">ValueData.cc</text>
</a>
</g>
</g>
<!-- Node1&#45;&gt;Node7 -->
<g id="edge6_Node000001_Node000007" class="edge">
<title>Node1&#45;&gt;Node7</title>
<g id="a_edge6_Node000001_Node000007"><a xlink:title=" ">
<path fill="none" stroke="#63b8ff" d="M591.03,-127.69C609.21,-119.3 629.89,-108.45 647,-96 673.82,-76.49 699.62,-47.35 713.78,-30.15"/>
<polygon fill="#63b8ff" stroke="#63b8ff" points="589.47,-124.55 581.78,-131.84 592.34,-130.93 589.47,-124.55"/>
</a>
</g>
</g>
<!-- Node8 -->
<g id="Node000008" class="node">
<title>Node8</title>
<g id="a_Node000008"><a xlink:href="InstrumentValueData_8h.html" target="_top" xlink:title=" ">
<polygon fill="white" stroke="#666666" points="621.5,-96 470.5,-96 470.5,-66 621.5,-66 621.5,-96"/>
<text text-anchor="start" x="478.5" y="-84" font-family="Helvetica,sans-Serif" font-size="10.00">src/QmlControls/Instrument</text>
<text text-anchor="middle" x="546" y="-73" font-family="Helvetica,sans-Serif" font-size="10.00">ValueData.h</text>
</a>
</g>
</g>
<!-- Node1&#45;&gt;Node8 -->
<g id="edge7_Node000001_Node000008" class="edge">
<title>Node1&#45;&gt;Node8</title>
<g id="a_edge7_Node000001_Node000008"><a xlink:title=" ">
<path fill="none" stroke="#63b8ff" d="M546,-121.54C546,-112.96 546,-103.61 546,-96.16"/>
<polygon fill="#63b8ff" stroke="#63b8ff" points="542.5,-121.8 546,-131.8 549.5,-121.8 542.5,-121.8"/>
</a>
</g>
</g>
<!-- Node4 -->
<g id="Node000004" class="node">
<title>Node4</title>
<g id="a_Node000004"><a xlink:href="QGCCorePlugin_8cc.html" target="_top" xlink:title=" ">
<polygon fill="white" stroke="#666666" points="468,-24.5 328,-24.5 328,-5.5 468,-5.5 468,-24.5"/>
<text text-anchor="middle" x="398" y="-12.5" font-family="Helvetica,sans-Serif" font-size="10.00">src/API/QGCCorePlugin.cc</text>
</a>
</g>
</g>
<!-- Node3&#45;&gt;Node4 -->
<g id="edge3_Node000003_Node000004" class="edge">
<title>Node3&#45;&gt;Node4</title>
<g id="a_edge3_Node000003_Node000004"><a xlink:title=" ">
<path fill="none" stroke="#63b8ff" d="M385.52,-55.94C388.92,-45.06 392.73,-32.86 395.24,-24.84"/>
<polygon fill="#63b8ff" stroke="#63b8ff" points="382.08,-55.21 382.44,-65.8 388.76,-57.3 382.08,-55.21"/>
</a>
</g>
</g>
<!-- Node5 -->
<g id="Node000005" class="node">
<title>Node5</title>
<g id="a_Node000005"><a xlink:href="HorizontalFactValueGrid_8cc.html" target="_top" xlink:title=" ">
<polygon fill="white" stroke="#666666" points="148,-30 0,-30 0,0 148,0 148,-30"/>
<text text-anchor="start" x="8" y="-18" font-family="Helvetica,sans-Serif" font-size="10.00">src/QmlControls/Horizontal</text>
<text text-anchor="middle" x="74" y="-7" font-family="Helvetica,sans-Serif" font-size="10.00">FactValueGrid.cc</text>
</a>
</g>
</g>
<!-- Node3&#45;&gt;Node5 -->
<g id="edge4_Node000003_Node000005" class="edge">
<title>Node3&#45;&gt;Node5</title>
<g id="a_edge4_Node000003_Node000005"><a xlink:title=" ">
<path fill="none" stroke="#63b8ff" d="M301.26,-63.84C251.73,-53.42 187.94,-39.99 140.56,-30.01"/>
<polygon fill="#63b8ff" stroke="#63b8ff" points="300.78,-67.32 311.29,-65.95 302.22,-60.47 300.78,-67.32"/>
</a>
</g>
</g>
<!-- Node3&#45;&gt;Node6 -->
<g id="edge5_Node000003_Node000006" class="edge">
<title>Node3&#45;&gt;Node6</title>
<g id="a_edge5_Node000003_Node000006"><a xlink:title=" ">
<path fill="none" stroke="#63b8ff" d="M427.24,-62.59C456.18,-52.36 492.28,-39.59 519.37,-30.01"/>
<polygon fill="#63b8ff" stroke="#63b8ff" points="425.98,-59.32 417.72,-65.95 428.32,-65.92 425.98,-59.32"/>
</a>
</g>
</g>
<!-- Node8&#45;&gt;Node2 -->
<g id="edge9_Node000008_Node000002" class="edge">
<title>Node8&#45;&gt;Node2</title>
<g id="a_edge9_Node000008_Node000002"><a xlink:title=" ">
<path fill="none" stroke="#63b8ff" d="M468.57,-63.91C418.34,-53.47 353.54,-40.01 305.43,-30.01"/>
<polygon fill="#63b8ff" stroke="#63b8ff" points="467.91,-67.35 478.41,-65.95 469.33,-60.49 467.91,-67.35"/>
</a>
</g>
</g>
<!-- Node8&#45;&gt;Node4 -->
<g id="edge8_Node000008_Node000004" class="edge">
<title>Node8&#45;&gt;Node4</title>
<g id="a_edge8_Node000008_Node000004"><a xlink:title=" ">
<path fill="none" stroke="#63b8ff" d="M504.24,-61.94C475.88,-49.68 439.68,-34.02 417.7,-24.52"/>
<polygon fill="#63b8ff" stroke="#63b8ff" points="502.95,-65.2 513.52,-65.95 505.73,-58.77 502.95,-65.2"/>
</a>
</g>
</g>
<!-- Node8&#45;&gt;Node6 -->
<g id="edge11_Node000008_Node000006" class="edge">
<title>Node8&#45;&gt;Node6</title>
<g id="a_edge11_Node000008_Node000006"><a xlink:title=" ">
<path fill="none" stroke="#63b8ff" d="M550.91,-55.83C552.67,-47.17 554.59,-37.7 556.12,-30.16"/>
<polygon fill="#63b8ff" stroke="#63b8ff" points="547.45,-55.3 548.89,-65.8 554.31,-56.69 547.45,-55.3"/>
</a>
</g>
</g>
<!-- Node8&#45;&gt;Node7 -->
<g id="edge10_Node000008_Node000007" class="edge">
<title>Node8&#45;&gt;Node7</title>
<g id="a_edge10_Node000008_Node000007"><a xlink:title=" ">
<path fill="none" stroke="#63b8ff" d="M595.07,-62.46C623.62,-52.25 659.13,-39.55 685.81,-30.01"/>
<polygon fill="#63b8ff" stroke="#63b8ff" points="593.52,-59.29 585.28,-65.95 595.88,-65.88 593.52,-59.29"/>
</a>
</g>
</g>
</g>
</svg>
