<?xml version="1.0" encoding="UTF-8" standalone="no"?>
<!DOCTYPE svg PUBLIC "-//W3C//DTD SVG 1.1//EN"
 "http://www.w3.org/Graphics/SVG/1.1/DTD/svg11.dtd">
<!-- Generated by graphviz version 2.43.0 (0)
 -->
<!-- Title: src/Vehicle/VehicleSetup/FirmwareImage.cc Pages: 1 -->
<svg width="2556pt" height="313pt"
 viewBox="0.00 0.00 2556.00 313.00" xmlns="http://www.w3.org/2000/svg" xmlns:xlink="http://www.w3.org/1999/xlink">
<g id="graph0" class="graph" transform="scale(1 1) rotate(0) translate(4 309)">
<title>src/Vehicle/VehicleSetup/FirmwareImage.cc</title>
<!-- Node1 -->
<g id="Node000001" class="node">
<title>Node1</title>
<g id="a_Node000001"><a xlink:title=" ">
<polygon fill="#999999" stroke="#666666" points="1885.5,-305 1750.5,-305 1750.5,-275 1885.5,-275 1885.5,-305"/>
<text text-anchor="start" x="1758.5" y="-293" font-family="Helvetica,sans-Serif" font-size="10.00">src/Vehicle/VehicleSetup</text>
<text text-anchor="middle" x="1818" y="-282" font-family="Helvetica,sans-Serif" font-size="10.00">/FirmwareImage.cc</text>
</a>
</g>
</g>
<!-- Node2 -->
<g id="Node000002" class="node">
<title>Node2</title>
<g id="a_Node000002"><a xlink:href="FirmwareImage_8h.html" target="_top" xlink:title=" ">
<polygon fill="white" stroke="#666666" points="2097,-239 1995,-239 1995,-220 2097,-220 2097,-239"/>
<text text-anchor="middle" x="2046" y="-227" font-family="Helvetica,sans-Serif" font-size="10.00">FirmwareImage.h</text>
</a>
</g>
</g>
<!-- Node1&#45;&gt;Node2 -->
<g id="edge1_Node000001_Node000002" class="edge">
<title>Node1&#45;&gt;Node2</title>
<g id="a_edge1_Node000001_Node000002"><a xlink:title=" ">
<path fill="none" stroke="#63b8ff" d="M1872.61,-274.99C1912.47,-264.76 1965.77,-251.09 2002.7,-241.61"/>
<polygon fill="#63b8ff" stroke="#63b8ff" points="2003.85,-244.93 2012.66,-239.05 2002.11,-238.15 2003.85,-244.93"/>
</a>
</g>
</g>
<!-- Node7 -->
<g id="Node000007" class="node">
<title>Node7</title>
<g id="a_Node000007"><a xlink:title=" ">
<polygon fill="#e0e0e0" stroke="#999999" points="2548,-184 2432,-184 2432,-165 2548,-165 2548,-184"/>
<text text-anchor="middle" x="2490" y="-172" font-family="Helvetica,sans-Serif" font-size="10.00">QtCore/QTextStream</text>
</a>
</g>
</g>
<!-- Node1&#45;&gt;Node7 -->
<g id="edge56_Node000001_Node000007" class="edge">
<title>Node1&#45;&gt;Node7</title>
<g id="a_edge56_Node000001_Node000007"><a xlink:title=" ">
<path fill="none" stroke="#63b8ff" d="M1885.69,-282.88C1944.93,-276.21 2032.73,-263.1 2106,-239 2123.94,-233.1 2125.94,-225.5 2144,-220 2169.9,-212.11 2328.4,-193.53 2421.64,-183.05"/>
<polygon fill="#63b8ff" stroke="#63b8ff" points="2422.3,-186.5 2431.84,-181.9 2421.52,-179.54 2422.3,-186.5"/>
</a>
</g>
</g>
<!-- Node8 -->
<g id="Node000008" class="node">
<title>Node8</title>
<g id="a_Node000008"><a xlink:href="JsonParsing_8h.html" target="_top" xlink:title=" ">
<polygon fill="white" stroke="#666666" points="892.5,-239 811.5,-239 811.5,-220 892.5,-220 892.5,-239"/>
<text text-anchor="middle" x="852" y="-227" font-family="Helvetica,sans-Serif" font-size="10.00">JsonParsing.h</text>
</a>
</g>
</g>
<!-- Node1&#45;&gt;Node8 -->
<g id="edge7_Node000001_Node000008" class="edge">
<title>Node1&#45;&gt;Node8</title>
<g id="a_edge7_Node000001_Node000008"><a xlink:title=" ">
<path fill="none" stroke="#63b8ff" d="M1750.46,-284.91C1567.37,-273.82 1064.49,-243.37 902.79,-233.58"/>
<polygon fill="#63b8ff" stroke="#63b8ff" points="902.84,-230.07 892.64,-232.96 902.41,-237.06 902.84,-230.07"/>
</a>
</g>
</g>
<!-- Node9 -->
<g id="Node000009" class="node">
<title>Node9</title>
<g id="a_Node000009"><a xlink:title=" ">
<polygon fill="#e0e0e0" stroke="#999999" points="741.5,-184 610.5,-184 610.5,-165 741.5,-165 741.5,-184"/>
<text text-anchor="middle" x="676" y="-172" font-family="Helvetica,sans-Serif" font-size="10.00">QtCore/QJsonDocument</text>
</a>
</g>
</g>
<!-- Node1&#45;&gt;Node9 -->
<g id="edge57_Node000001_Node000009" class="edge">
<title>Node1&#45;&gt;Node9</title>
<g id="a_edge57_Node000001_Node000009"><a xlink:title=" ">
<path fill="none" stroke="#63b8ff" d="M1750.16,-289.32C1552.82,-289.66 981.72,-286.42 802,-239 762.69,-228.63 721.39,-205.01 697.2,-189.69"/>
<polygon fill="#63b8ff" stroke="#63b8ff" points="698.82,-186.56 688.52,-184.07 695.02,-192.44 698.82,-186.56"/>
</a>
</g>
</g>
<!-- Node10 -->
<g id="Node000010" class="node">
<title>Node10</title>
<g id="a_Node000010"><a xlink:title=" ">
<polygon fill="#e0e0e0" stroke="#999999" points="811.5,-129 698.5,-129 698.5,-110 811.5,-110 811.5,-129"/>
<text text-anchor="middle" x="755" y="-117" font-family="Helvetica,sans-Serif" font-size="10.00">QtCore/QJsonObject</text>
</a>
</g>
</g>
<!-- Node1&#45;&gt;Node10 -->
<g id="edge58_Node000001_Node000010" class="edge">
<title>Node1&#45;&gt;Node10</title>
<g id="a_edge58_Node000001_Node000010"><a xlink:title=" ">
<path fill="none" stroke="#63b8ff" d="M1750.27,-288.51C1546.84,-286.63 943.35,-277.82 751,-239 681.4,-224.95 641.66,-242.21 601,-184 596.16,-177.08 595.92,-171.75 601,-165 612.25,-150.04 654.18,-138.52 691.45,-130.95"/>
<polygon fill="#63b8ff" stroke="#63b8ff" points="692.16,-134.38 701.3,-129.02 690.81,-127.51 692.16,-134.38"/>
</a>
</g>
</g>
<!-- Node13 -->
<g id="Node000013" class="node">
<title>Node13</title>
<g id="a_Node000013"><a xlink:href="QGCApplication_8h.html" target="_top" xlink:title=" ">
<polygon fill="white" stroke="#666666" points="1671,-239 1569,-239 1569,-220 1671,-220 1671,-239"/>
<text text-anchor="middle" x="1620" y="-227" font-family="Helvetica,sans-Serif" font-size="10.00">QGCApplication.h</text>
</a>
</g>
</g>
<!-- Node1&#45;&gt;Node13 -->
<g id="edge12_Node000001_Node000013" class="edge">
<title>Node1&#45;&gt;Node13</title>
<g id="a_edge12_Node000001_Node000013"><a xlink:title=" ">
<path fill="none" stroke="#63b8ff" d="M1770.57,-274.99C1736.4,-264.89 1690.86,-251.44 1658.84,-241.98"/>
<polygon fill="#63b8ff" stroke="#63b8ff" points="1659.53,-238.53 1648.95,-239.05 1657.55,-245.24 1659.53,-238.53"/>
</a>
</g>
</g>
<!-- Node21 -->
<g id="Node000021" class="node">
<title>Node21</title>
<g id="a_Node000021"><a xlink:href="CompInfoParam_8h.html" target="_top" xlink:title=" ">
<polygon fill="white" stroke="#666666" points="519,-239 415,-239 415,-220 519,-220 519,-239"/>
<text text-anchor="middle" x="467" y="-227" font-family="Helvetica,sans-Serif" font-size="10.00">CompInfoParam.h</text>
</a>
</g>
</g>
<!-- Node1&#45;&gt;Node21 -->
<g id="edge20_Node000001_Node000021" class="edge">
<title>Node1&#45;&gt;Node21</title>
<g id="a_edge20_Node000001_Node000021"><a xlink:title=" ">
<path fill="none" stroke="#63b8ff" d="M1750.2,-287.34C1562.28,-282.5 1018.88,-266.98 568,-239 555.46,-238.22 542.05,-237.22 529.25,-236.17"/>
<polygon fill="#63b8ff" stroke="#63b8ff" points="529.38,-232.67 519.13,-235.33 528.8,-239.65 529.38,-232.67"/>
</a>
</g>
</g>
<!-- Node32 -->
<g id="Node000032" class="node">
<title>Node32</title>
<g id="a_Node000032"><a xlink:href="Bootloader_8h.html" target="_top" xlink:title=" ">
<polygon fill="white" stroke="#666666" points="2152,-184 2074,-184 2074,-165 2152,-165 2152,-184"/>
<text text-anchor="middle" x="2113" y="-172" font-family="Helvetica,sans-Serif" font-size="10.00">Bootloader.h</text>
</a>
</g>
</g>
<!-- Node1&#45;&gt;Node32 -->
<g id="edge39_Node000001_Node000032" class="edge">
<title>Node1&#45;&gt;Node32</title>
<g id="a_edge39_Node000001_Node000032"><a xlink:title=" ">
<path fill="none" stroke="#63b8ff" d="M1850.95,-274.87C1884.67,-260.54 1938.7,-237.99 1986,-220 2016.65,-208.34 2051.87,-196.09 2077.44,-187.4"/>
<polygon fill="#63b8ff" stroke="#63b8ff" points="2078.72,-190.66 2087.07,-184.14 2076.48,-184.03 2078.72,-190.66"/>
</a>
</g>
</g>
<!-- Node34 -->
<g id="Node000034" class="node">
<title>Node34</title>
<g id="a_Node000034"><a xlink:href="QGCLoggingCategory_8h.html" target="_top" xlink:title=" ">
<polygon fill="white" stroke="#666666" points="1207,-239 1079,-239 1079,-220 1207,-220 1207,-239"/>
<text text-anchor="middle" x="1143" y="-227" font-family="Helvetica,sans-Serif" font-size="10.00">QGCLoggingCategory.h</text>
</a>
</g>
</g>
<!-- Node1&#45;&gt;Node34 -->
<g id="edge43_Node000001_Node000034" class="edge">
<title>Node1&#45;&gt;Node34</title>
<g id="a_edge43_Node000001_Node000034"><a xlink:title=" ">
<path fill="none" stroke="#63b8ff" d="M1750.5,-283.15C1623.43,-272.14 1349.6,-248.41 1217.41,-236.95"/>
<polygon fill="#63b8ff" stroke="#63b8ff" points="1217.63,-233.46 1207.37,-236.08 1217.03,-240.43 1217.63,-233.46"/>
</a>
</g>
</g>
<!-- Node39 -->
<g id="Node000039" class="node">
<title>Node39</title>
<g id="a_Node000039"><a xlink:title=" ">
<polygon fill="#e0e0e0" stroke="#999999" points="2231,-239 2153,-239 2153,-220 2231,-220 2231,-239"/>
<text text-anchor="middle" x="2192" y="-227" font-family="Helvetica,sans-Serif" font-size="10.00">QtCore/QFile</text>
</a>
</g>
</g>
<!-- Node1&#45;&gt;Node39 -->
<g id="edge55_Node000001_Node000039" class="edge">
<title>Node1&#45;&gt;Node39</title>
<g id="a_edge55_Node000001_Node000039"><a xlink:title=" ">
<path fill="none" stroke="#63b8ff" d="M1885.65,-278.55C1950.62,-268.5 2051.54,-252.83 2139,-239 2140.27,-238.8 2141.55,-238.6 2142.85,-238.39"/>
<polygon fill="#63b8ff" stroke="#63b8ff" points="2143.6,-241.81 2152.93,-236.79 2142.5,-234.9 2143.6,-241.81"/>
</a>
</g>
</g>
<!-- Node40 -->
<g id="Node000040" class="node">
<title>Node40</title>
<g id="a_Node000040"><a xlink:title=" ">
<polygon fill="#e0e0e0" stroke="#999999" points="2346.5,-239 2249.5,-239 2249.5,-220 2346.5,-220 2346.5,-239"/>
<text text-anchor="middle" x="2298" y="-227" font-family="Helvetica,sans-Serif" font-size="10.00">QtCore/QFileInfo</text>
</a>
</g>
</g>
<!-- Node1&#45;&gt;Node40 -->
<g id="edge59_Node000001_Node000040" class="edge">
<title>Node1&#45;&gt;Node40</title>
<g id="a_edge59_Node000001_Node000040"><a xlink:title=" ">
<path fill="none" stroke="#63b8ff" d="M1885.68,-281.56C1966.97,-272.5 2107.74,-256.39 2239.04,-239.09"/>
<polygon fill="#63b8ff" stroke="#63b8ff" points="2239.82,-242.52 2249.28,-237.74 2238.91,-235.58 2239.82,-242.52"/>
</a>
</g>
</g>
<!-- Node41 -->
<g id="Node000041" class="node">
<title>Node41</title>
<g id="a_Node000041"><a xlink:title=" ">
<polygon fill="#e0e0e0" stroke="#999999" points="2439.5,-239 2364.5,-239 2364.5,-220 2439.5,-220 2439.5,-239"/>
<text text-anchor="middle" x="2402" y="-227" font-family="Helvetica,sans-Serif" font-size="10.00">QtCore/QDir</text>
</a>
</g>
</g>
<!-- Node1&#45;&gt;Node41 -->
<g id="edge60_Node000001_Node000041" class="edge">
<title>Node1&#45;&gt;Node41</title>
<g id="a_edge60_Node000001_Node000041"><a xlink:title=" ">
<path fill="none" stroke="#63b8ff" d="M1885.75,-284.67C1986.02,-277.83 2180.02,-262.92 2354.26,-239.13"/>
<polygon fill="#63b8ff" stroke="#63b8ff" points="2354.96,-242.57 2364.39,-237.73 2354,-235.63 2354.96,-242.57"/>
</a>
</g>
</g>
<!-- Node3 -->
<g id="Node000003" class="node">
<title>Node3</title>
<g id="a_Node000003"><a xlink:title=" ">
<polygon fill="#e0e0e0" stroke="#999999" points="996,-129 904,-129 904,-110 996,-110 996,-129"/>
<text text-anchor="middle" x="950" y="-117" font-family="Helvetica,sans-Serif" font-size="10.00">QtCore/QObject</text>
</a>
</g>
</g>
<!-- Node2&#45;&gt;Node3 -->
<g id="edge2_Node000002_Node000003" class="edge">
<title>Node2&#45;&gt;Node3</title>
<g id="a_edge2_Node000002_Node000003"><a xlink:title=" ">
<path fill="none" stroke="#63b8ff" d="M2046.31,-219.8C2046.28,-205.7 2043.91,-178.12 2027,-165 1986.98,-133.95 1166.6,-131.3 1116,-129 1079.45,-127.34 1038.39,-125.24 1006.25,-123.54"/>
<polygon fill="#63b8ff" stroke="#63b8ff" points="1006.32,-120.04 996.15,-123.01 1005.95,-127.03 1006.32,-120.04"/>
</a>
</g>
</g>
<!-- Node4 -->
<g id="Node000004" class="node">
<title>Node4</title>
<g id="a_Node000004"><a xlink:title=" ">
<polygon fill="#e0e0e0" stroke="#999999" points="2084.5,-129 1995.5,-129 1995.5,-110 2084.5,-110 2084.5,-129"/>
<text text-anchor="middle" x="2040" y="-117" font-family="Helvetica,sans-Serif" font-size="10.00">QtCore/QString</text>
</a>
</g>
</g>
<!-- Node2&#45;&gt;Node4 -->
<g id="edge3_Node000002_Node000004" class="edge">
<title>Node2&#45;&gt;Node4</title>
<g id="a_edge3_Node000002_Node000004"><a xlink:title=" ">
<path fill="none" stroke="#63b8ff" d="M2097.09,-221.82C2191.75,-209.44 2384.85,-184.17 2385,-184 2390.57,-177.65 2390.58,-171.34 2385,-165 2366.17,-143.58 2187.25,-129.54 2094.77,-123.65"/>
<polygon fill="#63b8ff" stroke="#63b8ff" points="2094.95,-120.16 2084.75,-123.03 2094.51,-127.14 2094.95,-120.16"/>
</a>
</g>
</g>
<!-- Node5 -->
<g id="Node000005" class="node">
<title>Node5</title>
<g id="a_Node000005"><a xlink:title=" ">
<polygon fill="#e0e0e0" stroke="#999999" points="2376,-184 2266,-184 2266,-165 2376,-165 2376,-184"/>
<text text-anchor="middle" x="2321" y="-172" font-family="Helvetica,sans-Serif" font-size="10.00">QtCore/QByteArray</text>
</a>
</g>
</g>
<!-- Node2&#45;&gt;Node5 -->
<g id="edge4_Node000002_Node000005" class="edge">
<title>Node2&#45;&gt;Node5</title>
<g id="a_edge4_Node000002_Node000005"><a xlink:title=" ">
<path fill="none" stroke="#63b8ff" d="M2090.18,-219.98C2138.15,-210.74 2214.81,-195.97 2266.48,-186.01"/>
<polygon fill="#63b8ff" stroke="#63b8ff" points="2267.31,-189.41 2276.47,-184.08 2265.99,-182.54 2267.31,-189.41"/>
</a>
</g>
</g>
<!-- Node6 -->
<g id="Node000006" class="node">
<title>Node6</title>
<g id="a_Node000006"><a xlink:title=" ">
<polygon fill="#e0e0e0" stroke="#999999" points="2248,-184 2170,-184 2170,-165 2248,-165 2248,-184"/>
<text text-anchor="middle" x="2209" y="-172" font-family="Helvetica,sans-Serif" font-size="10.00">QtCore/QList</text>
</a>
</g>
</g>
<!-- Node2&#45;&gt;Node6 -->
<g id="edge5_Node000002_Node000006" class="edge">
<title>Node2&#45;&gt;Node6</title>
<g id="a_edge5_Node000002_Node000006"><a xlink:title=" ">
<path fill="none" stroke="#63b8ff" d="M2072.19,-219.98C2099.44,-211.13 2142.3,-197.19 2172.78,-187.28"/>
<polygon fill="#63b8ff" stroke="#63b8ff" points="2174.18,-190.5 2182.61,-184.08 2172.01,-183.85 2174.18,-190.5"/>
</a>
</g>
</g>
<!-- Node2&#45;&gt;Node7 -->
<g id="edge6_Node000002_Node000007" class="edge">
<title>Node2&#45;&gt;Node7</title>
<g id="a_edge6_Node000002_Node000007"><a xlink:title=" ">
<path fill="none" stroke="#63b8ff" d="M2097.09,-221.75C2101.79,-221.15 2106.48,-220.56 2111,-220 2247.34,-203.09 2281.56,-200.05 2418,-184 2419.27,-183.85 2420.54,-183.7 2421.83,-183.55"/>
<polygon fill="#63b8ff" stroke="#63b8ff" points="2422.32,-187.02 2431.84,-182.37 2421.5,-180.06 2422.32,-187.02"/>
</a>
</g>
</g>
<!-- Node8&#45;&gt;Node9 -->
<g id="edge8_Node000008_Node000009" class="edge">
<title>Node8&#45;&gt;Node9</title>
<g id="a_edge8_Node000008_Node000009"><a xlink:title=" ">
<path fill="none" stroke="#63b8ff" d="M823.72,-219.98C794.05,-211.05 747.21,-196.94 714.25,-187.02"/>
<polygon fill="#63b8ff" stroke="#63b8ff" points="715.08,-183.61 704.5,-184.08 713.07,-190.32 715.08,-183.61"/>
</a>
</g>
</g>
<!-- Node8&#45;&gt;Node10 -->
<g id="edge9_Node000008_Node000010" class="edge">
<title>Node8&#45;&gt;Node10</title>
<g id="a_edge9_Node000008_Node000010"><a xlink:title=" ">
<path fill="none" stroke="#63b8ff" d="M835.93,-219.99C822.16,-212.08 802.48,-199.25 789,-184 777.11,-170.54 767.86,-152.2 762.03,-138.69"/>
<polygon fill="#63b8ff" stroke="#63b8ff" points="765.12,-137.01 758.1,-129.08 758.64,-139.66 765.12,-137.01"/>
</a>
</g>
</g>
<!-- Node11 -->
<g id="Node000011" class="node">
<title>Node11</title>
<g id="a_Node000011"><a xlink:title=" ">
<polygon fill="#e0e0e0" stroke="#999999" points="906,-184 798,-184 798,-165 906,-165 906,-184"/>
<text text-anchor="middle" x="852" y="-172" font-family="Helvetica,sans-Serif" font-size="10.00">QtCore/QJsonValue</text>
</a>
</g>
</g>
<!-- Node8&#45;&gt;Node11 -->
<g id="edge10_Node000008_Node000011" class="edge">
<title>Node8&#45;&gt;Node11</title>
<g id="a_edge10_Node000008_Node000011"><a xlink:title=" ">
<path fill="none" stroke="#63b8ff" d="M852,-219.75C852,-212.8 852,-202.85 852,-194.13"/>
<polygon fill="#63b8ff" stroke="#63b8ff" points="855.5,-194.09 852,-184.09 848.5,-194.09 855.5,-194.09"/>
</a>
</g>
</g>
<!-- Node12 -->
<g id="Node000012" class="node">
<title>Node12</title>
<g id="a_Node000012"><a xlink:title=" ">
<polygon fill="#e0e0e0" stroke="#999999" points="1031.5,-184 924.5,-184 924.5,-165 1031.5,-165 1031.5,-184"/>
<text text-anchor="middle" x="978" y="-172" font-family="Helvetica,sans-Serif" font-size="10.00">QtCore/QStringList</text>
</a>
</g>
</g>
<!-- Node8&#45;&gt;Node12 -->
<g id="edge11_Node000008_Node000012" class="edge">
<title>Node8&#45;&gt;Node12</title>
<g id="a_edge11_Node000008_Node000012"><a xlink:title=" ">
<path fill="none" stroke="#63b8ff" d="M872.24,-219.98C892.7,-211.38 924.53,-197.99 947.93,-188.15"/>
<polygon fill="#63b8ff" stroke="#63b8ff" points="949.53,-191.27 957.39,-184.17 946.81,-184.82 949.53,-191.27"/>
</a>
</g>
</g>
<!-- Node14 -->
<g id="Node000014" class="node">
<title>Node14</title>
<g id="a_Node000014"><a xlink:title=" ">
<polygon fill="#e0e0e0" stroke="#999999" points="1168.5,-19 1025.5,-19 1025.5,0 1168.5,0 1168.5,-19"/>
<text text-anchor="middle" x="1097" y="-7" font-family="Helvetica,sans-Serif" font-size="10.00">QtCore/QLoggingCategory</text>
</a>
</g>
</g>
<!-- Node13&#45;&gt;Node14 -->
<g id="edge13_Node000013_Node000014" class="edge">
<title>Node13&#45;&gt;Node14</title>
<g id="a_edge13_Node000013_Node000014"><a xlink:title=" ">
<path fill="none" stroke="#63b8ff" d="M1568.58,-224.81C1522.63,-219.97 1454.37,-208.94 1400,-184 1315.07,-145.04 1316.56,-98.75 1234,-55 1205.98,-40.15 1172.11,-29.09 1145.05,-21.72"/>
<polygon fill="#63b8ff" stroke="#63b8ff" points="1145.61,-18.24 1135.04,-19.07 1143.82,-25.01 1145.61,-18.24"/>
</a>
</g>
</g>
<!-- Node15 -->
<g id="Node000015" class="node">
<title>Node15</title>
<g id="a_Node000015"><a xlink:title=" ">
<polygon fill="#e0e0e0" stroke="#999999" points="1922,-184 1794,-184 1794,-165 1922,-165 1922,-184"/>
<text text-anchor="middle" x="1858" y="-172" font-family="Helvetica,sans-Serif" font-size="10.00">QtCore/QElapsedTimer</text>
</a>
</g>
</g>
<!-- Node13&#45;&gt;Node15 -->
<g id="edge14_Node000013_Node000015" class="edge">
<title>Node13&#45;&gt;Node15</title>
<g id="a_edge14_Node000013_Node000015"><a xlink:title=" ">
<path fill="none" stroke="#63b8ff" d="M1658.24,-219.98C1699.41,-210.82 1764.99,-196.21 1809.7,-186.26"/>
<polygon fill="#63b8ff" stroke="#63b8ff" points="1810.46,-189.67 1819.46,-184.08 1808.94,-182.84 1810.46,-189.67"/>
</a>
</g>
</g>
<!-- Node16 -->
<g id="Node000016" class="node">
<title>Node16</title>
<g id="a_Node000016"><a xlink:title=" ">
<polygon fill="#e0e0e0" stroke="#999999" points="1352,-184 1270,-184 1270,-165 1352,-165 1352,-184"/>
<text text-anchor="middle" x="1311" y="-172" font-family="Helvetica,sans-Serif" font-size="10.00">QtCore/QMap</text>
</a>
</g>
</g>
<!-- Node13&#45;&gt;Node16 -->
<g id="edge15_Node000013_Node000016" class="edge">
<title>Node13&#45;&gt;Node16</title>
<g id="a_edge15_Node000013_Node000016"><a xlink:title=" ">
<path fill="none" stroke="#63b8ff" d="M1570.35,-219.98C1513.22,-210.19 1419.87,-194.17 1362.12,-184.27"/>
<polygon fill="#63b8ff" stroke="#63b8ff" points="1362.57,-180.79 1352.12,-182.55 1361.38,-187.69 1362.57,-180.79"/>
</a>
</g>
</g>
<!-- Node17 -->
<g id="Node000017" class="node">
<title>Node17</title>
<g id="a_Node000017"><a xlink:title=" ">
<polygon fill="#e0e0e0" stroke="#999999" points="2017.5,-184 1940.5,-184 1940.5,-165 2017.5,-165 2017.5,-184"/>
<text text-anchor="middle" x="1979" y="-172" font-family="Helvetica,sans-Serif" font-size="10.00">QtCore/QSet</text>
</a>
</g>
</g>
<!-- Node13&#45;&gt;Node17 -->
<g id="edge16_Node000013_Node000017" class="edge">
<title>Node13&#45;&gt;Node17</title>
<g id="a_edge16_Node000013_Node000017"><a xlink:title=" ">
<path fill="none" stroke="#63b8ff" d="M1671.26,-221.7C1730.92,-213.66 1832.67,-199.58 1930.21,-184.08"/>
<polygon fill="#63b8ff" stroke="#63b8ff" points="1930.92,-187.51 1940.25,-182.48 1929.82,-180.6 1930.92,-187.51"/>
</a>
</g>
</g>
<!-- Node18 -->
<g id="Node000018" class="node">
<title>Node18</title>
<g id="a_Node000018"><a xlink:title=" ">
<polygon fill="#e0e0e0" stroke="#999999" points="1497.5,-184 1408.5,-184 1408.5,-165 1497.5,-165 1497.5,-184"/>
<text text-anchor="middle" x="1453" y="-172" font-family="Helvetica,sans-Serif" font-size="10.00">QtCore/QTimer</text>
</a>
</g>
</g>
<!-- Node13&#45;&gt;Node18 -->
<g id="edge17_Node000013_Node000018" class="edge">
<title>Node13&#45;&gt;Node18</title>
<g id="a_edge17_Node000013_Node000018"><a xlink:title=" ">
<path fill="none" stroke="#63b8ff" d="M1593.17,-219.98C1565.13,-211.09 1520.95,-197.07 1489.7,-187.15"/>
<polygon fill="#63b8ff" stroke="#63b8ff" points="1490.63,-183.77 1480.04,-184.08 1488.51,-190.44 1490.63,-183.77"/>
</a>
</g>
</g>
<!-- Node19 -->
<g id="Node000019" class="node">
<title>Node19</title>
<g id="a_Node000019"><a xlink:title=" ">
<polygon fill="#e0e0e0" stroke="#999999" points="1624.5,-184 1515.5,-184 1515.5,-165 1624.5,-165 1624.5,-184"/>
<text text-anchor="middle" x="1570" y="-172" font-family="Helvetica,sans-Serif" font-size="10.00">QtCore/QTranslator</text>
</a>
</g>
</g>
<!-- Node13&#45;&gt;Node19 -->
<g id="edge18_Node000013_Node000019" class="edge">
<title>Node13&#45;&gt;Node19</title>
<g id="a_edge18_Node000013_Node000019"><a xlink:title=" ">
<path fill="none" stroke="#63b8ff" d="M1611.74,-219.75C1604.54,-212.11 1593.89,-200.82 1585.15,-191.56"/>
<polygon fill="#63b8ff" stroke="#63b8ff" points="1587.51,-188.96 1578.1,-184.09 1582.42,-193.76 1587.51,-188.96"/>
</a>
</g>
</g>
<!-- Node20 -->
<g id="Node000020" class="node">
<title>Node20</title>
<g id="a_Node000020"><a xlink:title=" ">
<polygon fill="#e0e0e0" stroke="#999999" points="1775.5,-184 1642.5,-184 1642.5,-165 1775.5,-165 1775.5,-184"/>
<text text-anchor="middle" x="1709" y="-172" font-family="Helvetica,sans-Serif" font-size="10.00">QtWidgets/QApplication</text>
</a>
</g>
</g>
<!-- Node13&#45;&gt;Node20 -->
<g id="edge19_Node000013_Node000020" class="edge">
<title>Node13&#45;&gt;Node20</title>
<g id="a_edge19_Node000013_Node000020"><a xlink:title=" ">
<path fill="none" stroke="#63b8ff" d="M1634.3,-219.98C1648.1,-211.77 1669.24,-199.18 1685.51,-189.49"/>
<polygon fill="#63b8ff" stroke="#63b8ff" points="1687.64,-192.29 1694.44,-184.17 1684.06,-186.28 1687.64,-192.29"/>
</a>
</g>
</g>
<!-- Node21&#45;&gt;Node3 -->
<g id="edge38_Node000021_Node000003" class="edge">
<title>Node21&#45;&gt;Node3</title>
<g id="a_edge38_Node000021_Node000003"><a xlink:title=" ">
<path fill="none" stroke="#63b8ff" d="M481.27,-219.87C505.13,-205.88 555.04,-178.45 601,-165 654.53,-149.34 809.31,-133.37 893.63,-125.51"/>
<polygon fill="#63b8ff" stroke="#63b8ff" points="894.16,-128.98 903.8,-124.57 893.52,-122.01 894.16,-128.98"/>
</a>
</g>
</g>
<!-- Node21&#45;&gt;Node14 -->
<g id="edge37_Node000021_Node000014" class="edge">
<title>Node21&#45;&gt;Node14</title>
<g id="a_edge37_Node000021_Node000014"><a xlink:title=" ">
<path fill="none" stroke="#63b8ff" d="M476.31,-219.69C490.73,-206.41 519.75,-181.11 548,-165 562.61,-156.67 672.96,-115.06 689,-110 814.27,-70.49 965.29,-37.31 1043.78,-21.12"/>
<polygon fill="#63b8ff" stroke="#63b8ff" points="1044.81,-24.48 1053.9,-19.04 1043.4,-17.62 1044.81,-24.48"/>
</a>
</g>
</g>
<!-- Node22 -->
<g id="Node000022" class="node">
<title>Node22</title>
<g id="a_Node000022"><a xlink:href="CompInfo_8h.html" target="_top" xlink:title=" ">
<polygon fill="white" stroke="#666666" points="366.5,-184 293.5,-184 293.5,-165 366.5,-165 366.5,-184"/>
<text text-anchor="middle" x="330" y="-172" font-family="Helvetica,sans-Serif" font-size="10.00">CompInfo.h</text>
</a>
</g>
</g>
<!-- Node21&#45;&gt;Node22 -->
<g id="edge21_Node000021_Node000022" class="edge">
<title>Node21&#45;&gt;Node22</title>
<g id="a_edge21_Node000021_Node000022"><a xlink:title=" ">
<path fill="none" stroke="#63b8ff" d="M444.99,-219.98C422.55,-211.3 387.52,-197.75 362.01,-187.88"/>
<polygon fill="#63b8ff" stroke="#63b8ff" points="363,-184.51 352.41,-184.17 360.48,-191.04 363,-184.51"/>
</a>
</g>
</g>
<!-- Node23 -->
<g id="Node000023" class="node">
<title>Node23</title>
<g id="a_Node000023"><a xlink:href="MAVLinkLib_8h.html" target="_top" xlink:title=" ">
<polygon fill="white" stroke="#666666" points="274,-129 192,-129 192,-110 274,-110 274,-129"/>
<text text-anchor="middle" x="233" y="-117" font-family="Helvetica,sans-Serif" font-size="10.00">MAVLinkLib.h</text>
</a>
</g>
</g>
<!-- Node21&#45;&gt;Node23 -->
<g id="edge28_Node000021_Node000023" class="edge">
<title>Node21&#45;&gt;Node23</title>
<g id="a_edge28_Node000021_Node000023"><a xlink:title=" ">
<path fill="none" stroke="#63b8ff" d="M414.98,-224.86C376.3,-220.11 323.59,-209.17 284,-184 266.16,-172.66 251.76,-152.91 242.87,-138.44"/>
<polygon fill="#63b8ff" stroke="#63b8ff" points="245.68,-136.31 237.62,-129.43 239.64,-139.83 245.68,-136.31"/>
</a>
</g>
</g>
<!-- Node28 -->
<g id="Node000028" class="node">
<title>Node28</title>
<g id="a_Node000028"><a xlink:href="FactMetaData_8h.html" target="_top" xlink:title=" ">
<polygon fill="white" stroke="#666666" points="477.5,-184 384.5,-184 384.5,-165 477.5,-165 477.5,-184"/>
<text text-anchor="middle" x="431" y="-172" font-family="Helvetica,sans-Serif" font-size="10.00">FactMetaData.h</text>
</a>
</g>
</g>
<!-- Node21&#45;&gt;Node28 -->
<g id="edge29_Node000021_Node000028" class="edge">
<title>Node21&#45;&gt;Node28</title>
<g id="a_edge29_Node000021_Node000028"><a xlink:title=" ">
<path fill="none" stroke="#63b8ff" d="M461.06,-219.75C456.02,-212.34 448.66,-201.5 442.49,-192.41"/>
<polygon fill="#63b8ff" stroke="#63b8ff" points="445.35,-190.39 436.83,-184.09 439.56,-194.33 445.35,-190.39"/>
</a>
</g>
</g>
<!-- Node22&#45;&gt;Node3 -->
<g id="edge27_Node000022_Node000003" class="edge">
<title>Node22&#45;&gt;Node3</title>
<g id="a_edge27_Node000022_Node000003"><a xlink:title=" ">
<path fill="none" stroke="#63b8ff" d="M366.78,-166.21C369.56,-165.77 372.32,-165.36 375,-165 425.48,-158.3 758.89,-134.14 893.64,-124.51"/>
<polygon fill="#63b8ff" stroke="#63b8ff" points="894.04,-127.99 903.76,-123.79 893.54,-121.01 894.04,-127.99"/>
</a>
</g>
</g>
<!-- Node22&#45;&gt;Node23 -->
<g id="edge22_Node000022_Node000023" class="edge">
<title>Node22&#45;&gt;Node23</title>
<g id="a_edge22_Node000022_Node000023"><a xlink:title=" ">
<path fill="none" stroke="#63b8ff" d="M314.42,-164.98C299.23,-156.69 275.9,-143.94 258.1,-134.22"/>
<polygon fill="#63b8ff" stroke="#63b8ff" points="259.32,-130.89 248.87,-129.17 255.97,-137.04 259.32,-130.89"/>
</a>
</g>
</g>
<!-- Node24 -->
<g id="Node000024" class="node">
<title>Node24</title>
<g id="a_Node000024"><a xlink:title=" ">
<polygon fill="#e0e0e0" stroke="#999999" points="326.5,-74 273.5,-74 273.5,-55 326.5,-55 326.5,-74"/>
<text text-anchor="middle" x="300" y="-62" font-family="Helvetica,sans-Serif" font-size="10.00">stdint.h</text>
</a>
</g>
</g>
<!-- Node23&#45;&gt;Node24 -->
<g id="edge23_Node000023_Node000024" class="edge">
<title>Node23&#45;&gt;Node24</title>
<g id="a_edge23_Node000023_Node000024"><a xlink:title=" ">
<path fill="none" stroke="#63b8ff" d="M243.76,-109.98C253.77,-102.07 268.89,-90.11 280.93,-80.58"/>
<polygon fill="#63b8ff" stroke="#63b8ff" points="283.37,-83.12 289.04,-74.17 279.03,-77.63 283.37,-83.12"/>
</a>
</g>
</g>
<!-- Node25 -->
<g id="Node000025" class="node">
<title>Node25</title>
<g id="a_Node000025"><a xlink:title=" ">
<polygon fill="#e0e0e0" stroke="#999999" points="98,-74 0,-74 0,-55 98,-55 98,-74"/>
<text text-anchor="middle" x="49" y="-62" font-family="Helvetica,sans-Serif" font-size="10.00">mavlink_types.h</text>
</a>
</g>
</g>
<!-- Node23&#45;&gt;Node25 -->
<g id="edge24_Node000023_Node000025" class="edge">
<title>Node23&#45;&gt;Node25</title>
<g id="a_edge24_Node000023_Node000025"><a xlink:title=" ">
<path fill="none" stroke="#63b8ff" d="M203.44,-109.98C172.28,-101.01 123.03,-86.82 88.54,-76.89"/>
<polygon fill="#63b8ff" stroke="#63b8ff" points="89.37,-73.49 78.79,-74.08 87.43,-80.21 89.37,-73.49"/>
</a>
</g>
</g>
<!-- Node26 -->
<g id="Node000026" class="node">
<title>Node26</title>
<g id="a_Node000026"><a xlink:title=" ">
<polygon fill="#e0e0e0" stroke="#999999" points="172,-74 116,-74 116,-55 172,-55 172,-74"/>
<text text-anchor="middle" x="144" y="-62" font-family="Helvetica,sans-Serif" font-size="10.00">stddef.h</text>
</a>
</g>
</g>
<!-- Node23&#45;&gt;Node26 -->
<g id="edge25_Node000023_Node000026" class="edge">
<title>Node23&#45;&gt;Node26</title>
<g id="a_edge25_Node000023_Node000026"><a xlink:title=" ">
<path fill="none" stroke="#63b8ff" d="M218.7,-109.98C204.9,-101.77 183.76,-89.18 167.49,-79.49"/>
<polygon fill="#63b8ff" stroke="#63b8ff" points="168.94,-76.28 158.56,-74.17 165.36,-82.29 168.94,-76.28"/>
</a>
</g>
</g>
<!-- Node27 -->
<g id="Node000027" class="node">
<title>Node27</title>
<g id="a_Node000027"><a xlink:title=" ">
<polygon fill="#e0e0e0" stroke="#999999" points="255.5,-74 190.5,-74 190.5,-55 255.5,-55 255.5,-74"/>
<text text-anchor="middle" x="223" y="-62" font-family="Helvetica,sans-Serif" font-size="10.00">mavlink.h</text>
</a>
</g>
</g>
<!-- Node23&#45;&gt;Node27 -->
<g id="edge26_Node000023_Node000027" class="edge">
<title>Node23&#45;&gt;Node27</title>
<g id="a_edge26_Node000023_Node000027"><a xlink:title=" ">
<path fill="none" stroke="#63b8ff" d="M231.35,-109.75C230.04,-102.8 228.16,-92.85 226.52,-84.13"/>
<polygon fill="#63b8ff" stroke="#63b8ff" points="229.91,-83.27 224.62,-74.09 223.04,-84.56 229.91,-83.27"/>
</a>
</g>
</g>
<!-- Node28&#45;&gt;Node3 -->
<g id="edge33_Node000028_Node000003" class="edge">
<title>Node28&#45;&gt;Node3</title>
<g id="a_edge33_Node000028_Node000003"><a xlink:title=" ">
<path fill="none" stroke="#63b8ff" d="M477.51,-168.75C572.89,-159.01 790.3,-136.81 893.55,-126.26"/>
<polygon fill="#63b8ff" stroke="#63b8ff" points="894.18,-129.72 903.78,-125.22 893.47,-122.75 894.18,-129.72"/>
</a>
</g>
</g>
<!-- Node28&#45;&gt;Node4 -->
<g id="edge34_Node000028_Node000004" class="edge">
<title>Node28&#45;&gt;Node4</title>
<g id="a_edge34_Node000028_Node000004"><a xlink:title=" ">
<path fill="none" stroke="#63b8ff" d="M477.53,-170.87C511.69,-169.02 559.22,-166.59 601,-165 1213.46,-141.74 1371.73,-185.44 1985.25,-129.03"/>
<polygon fill="#63b8ff" stroke="#63b8ff" points="1985.6,-132.51 1995.23,-128.11 1984.95,-125.54 1985.6,-132.51"/>
</a>
</g>
</g>
<!-- Node28&#45;&gt;Node10 -->
<g id="edge32_Node000028_Node000010" class="edge">
<title>Node28&#45;&gt;Node10</title>
<g id="a_edge32_Node000028_Node000010"><a xlink:title=" ">
<path fill="none" stroke="#63b8ff" d="M477.77,-165.85C534.37,-156.59 629.9,-140.96 692.71,-130.69"/>
<polygon fill="#63b8ff" stroke="#63b8ff" points="693.58,-134.09 702.88,-129.03 692.45,-127.19 693.58,-134.09"/>
</a>
</g>
</g>
<!-- Node28&#45;&gt;Node14 -->
<g id="edge30_Node000028_Node000014" class="edge">
<title>Node28&#45;&gt;Node14</title>
<g id="a_edge30_Node000028_Node000014"><a xlink:title=" ">
<path fill="none" stroke="#63b8ff" d="M477.77,-166.22C524.05,-158.28 590.94,-144.61 612,-129 642.74,-106.22 623.73,-75.57 656,-55 713.73,-18.2 904.28,-11.06 1015.11,-10.12"/>
<polygon fill="#63b8ff" stroke="#63b8ff" points="1015.27,-13.62 1025.25,-10.05 1015.23,-6.62 1015.27,-13.62"/>
</a>
</g>
</g>
<!-- Node29 -->
<g id="Node000029" class="node">
<title>Node29</title>
<g id="a_Node000029"><a xlink:title=" ">
<polygon fill="#e0e0e0" stroke="#999999" points="603.5,-129 496.5,-129 496.5,-110 603.5,-110 603.5,-129"/>
<text text-anchor="middle" x="550" y="-117" font-family="Helvetica,sans-Serif" font-size="10.00">QtCore/QJsonArray</text>
</a>
</g>
</g>
<!-- Node28&#45;&gt;Node29 -->
<g id="edge31_Node000028_Node000029" class="edge">
<title>Node28&#45;&gt;Node29</title>
<g id="a_edge31_Node000028_Node000029"><a xlink:title=" ">
<path fill="none" stroke="#63b8ff" d="M450.12,-164.98C469.35,-156.42 499.23,-143.11 521.31,-133.28"/>
<polygon fill="#63b8ff" stroke="#63b8ff" points="522.82,-136.44 530.53,-129.17 519.97,-130.04 522.82,-136.44"/>
</a>
</g>
</g>
<!-- Node30 -->
<g id="Node000030" class="node">
<title>Node30</title>
<g id="a_Node000030"><a xlink:title=" ">
<polygon fill="#e0e0e0" stroke="#999999" points="478.5,-129 383.5,-129 383.5,-110 478.5,-110 478.5,-129"/>
<text text-anchor="middle" x="431" y="-117" font-family="Helvetica,sans-Serif" font-size="10.00">QtCore/QVariant</text>
</a>
</g>
</g>
<!-- Node28&#45;&gt;Node30 -->
<g id="edge35_Node000028_Node000030" class="edge">
<title>Node28&#45;&gt;Node30</title>
<g id="a_edge35_Node000028_Node000030"><a xlink:title=" ">
<path fill="none" stroke="#63b8ff" d="M431,-164.75C431,-157.8 431,-147.85 431,-139.13"/>
<polygon fill="#63b8ff" stroke="#63b8ff" points="434.5,-139.09 431,-129.09 427.5,-139.09 434.5,-139.09"/>
</a>
</g>
</g>
<!-- Node31 -->
<g id="Node000031" class="node">
<title>Node31</title>
<g id="a_Node000031"><a xlink:title=" ">
<polygon fill="#e0e0e0" stroke="#999999" points="449.5,-19 260.5,-19 260.5,0 449.5,0 449.5,-19"/>
<text text-anchor="middle" x="355" y="-7" font-family="Helvetica,sans-Serif" font-size="10.00">QtQmlIntegration/QtQmlIntegration</text>
</a>
</g>
</g>
<!-- Node28&#45;&gt;Node31 -->
<g id="edge36_Node000028_Node000031" class="edge">
<title>Node28&#45;&gt;Node31</title>
<g id="a_edge36_Node000028_Node000031"><a xlink:title=" ">
<path fill="none" stroke="#63b8ff" d="M414.17,-164.96C401.02,-157.37 383.45,-145 374,-129 355.52,-97.71 353.4,-54.07 353.93,-29.41"/>
<polygon fill="#63b8ff" stroke="#63b8ff" points="357.43,-29.38 354.32,-19.26 350.44,-29.11 357.43,-29.38"/>
</a>
</g>
</g>
<!-- Node32&#45;&gt;Node3 -->
<g id="edge41_Node000032_Node000003" class="edge">
<title>Node32&#45;&gt;Node3</title>
<g id="a_edge41_Node000032_Node000003"><a xlink:title=" ">
<path fill="none" stroke="#63b8ff" d="M2074,-166.7C2069.29,-166.04 2064.54,-165.45 2060,-165 1642.18,-123.68 1535.44,-147.74 1116,-129 1079.45,-127.37 1038.39,-125.27 1006.25,-123.56"/>
<polygon fill="#63b8ff" stroke="#63b8ff" points="1006.32,-120.06 996.15,-123.02 1005.95,-127.05 1006.32,-120.06"/>
</a>
</g>
</g>
<!-- Node32&#45;&gt;Node14 -->
<g id="edge40_Node000032_Node000014" class="edge">
<title>Node32&#45;&gt;Node14</title>
<g id="a_edge40_Node000032_Node000014"><a xlink:title=" ">
<path fill="none" stroke="#63b8ff" d="M2113.22,-164.91C2113.06,-150.97 2110.51,-123.62 2094,-110 2023.92,-52.19 1404.25,-22.47 1178.67,-13.49"/>
<polygon fill="#63b8ff" stroke="#63b8ff" points="1178.68,-9.99 1168.55,-13.09 1178.4,-16.98 1178.68,-9.99"/>
</a>
</g>
</g>
<!-- Node33 -->
<g id="Node000033" class="node">
<title>Node33</title>
<g id="a_Node000033"><a xlink:title=" ">
<polygon fill="#e0e0e0" stroke="#999999" points="1977.5,-129 1844.5,-129 1844.5,-110 1977.5,-110 1977.5,-129"/>
<text text-anchor="middle" x="1911" y="-117" font-family="Helvetica,sans-Serif" font-size="10.00">QtSerialPort/QSerialPort</text>
</a>
</g>
</g>
<!-- Node32&#45;&gt;Node33 -->
<g id="edge42_Node000032_Node000033" class="edge">
<title>Node32&#45;&gt;Node33</title>
<g id="a_edge42_Node000032_Node000033"><a xlink:title=" ">
<path fill="none" stroke="#63b8ff" d="M2080.55,-164.98C2046.04,-155.93 1991.34,-141.58 1953.44,-131.64"/>
<polygon fill="#63b8ff" stroke="#63b8ff" points="1954.27,-128.23 1943.71,-129.08 1952.49,-135.01 1954.27,-128.23"/>
</a>
</g>
</g>
<!-- Node34&#45;&gt;Node3 -->
<g id="edge52_Node000034_Node000003" class="edge">
<title>Node34&#45;&gt;Node3</title>
<g id="a_edge52_Node000034_Node000003"><a xlink:title=" ">
<path fill="none" stroke="#63b8ff" d="M1129.9,-219.88C1110.56,-207.27 1073.08,-183.32 1040,-165 1019.54,-153.67 995.81,-141.99 977.85,-133.45"/>
<polygon fill="#63b8ff" stroke="#63b8ff" points="979.07,-130.15 968.53,-129.04 976.08,-136.48 979.07,-130.15"/>
</a>
</g>
</g>
<!-- Node34&#45;&gt;Node12 -->
<g id="edge53_Node000034_Node000012" class="edge">
<title>Node34&#45;&gt;Node12</title>
<g id="a_edge53_Node000034_Node000012"><a xlink:title=" ">
<path fill="none" stroke="#63b8ff" d="M1116.49,-219.98C1088.79,-211.09 1045.14,-197.07 1014.26,-187.15"/>
<polygon fill="#63b8ff" stroke="#63b8ff" points="1015.31,-183.81 1004.72,-184.08 1013.17,-190.47 1015.31,-183.81"/>
</a>
</g>
</g>
<!-- Node34&#45;&gt;Node14 -->
<g id="edge51_Node000034_Node000014" class="edge">
<title>Node34&#45;&gt;Node14</title>
<g id="a_edge51_Node000034_Node000014"><a xlink:title=" ">
<path fill="none" stroke="#63b8ff" d="M1136.45,-219.83C1130.33,-211.22 1121.47,-197.41 1117,-184 1098.98,-129.94 1096.64,-61.76 1096.67,-29.32"/>
<polygon fill="#63b8ff" stroke="#63b8ff" points="1100.17,-29.1 1096.76,-19.07 1093.17,-29.04 1100.17,-29.1"/>
</a>
</g>
</g>
<!-- Node34&#45;&gt;Node16 -->
<g id="edge54_Node000034_Node000016" class="edge">
<title>Node34&#45;&gt;Node16</title>
<g id="a_edge54_Node000034_Node000016"><a xlink:title=" ">
<path fill="none" stroke="#63b8ff" d="M1169.99,-219.98C1198.2,-211.09 1242.64,-197.07 1274.08,-187.15"/>
<polygon fill="#63b8ff" stroke="#63b8ff" points="1275.31,-190.43 1283.8,-184.08 1273.21,-183.75 1275.31,-190.43"/>
</a>
</g>
</g>
<!-- Node35 -->
<g id="Node000035" class="node">
<title>Node35</title>
<g id="a_Node000035"><a xlink:href="QmlObjectListModel_8h.html" target="_top" xlink:title=" ">
<polygon fill="white" stroke="#666666" points="1251.5,-184 1126.5,-184 1126.5,-165 1251.5,-165 1251.5,-184"/>
<text text-anchor="middle" x="1189" y="-172" font-family="Helvetica,sans-Serif" font-size="10.00">QmlObjectListModel.h</text>
</a>
</g>
</g>
<!-- Node34&#45;&gt;Node35 -->
<g id="edge44_Node000034_Node000035" class="edge">
<title>Node34&#45;&gt;Node35</title>
<g id="a_edge44_Node000034_Node000035"><a xlink:title=" ">
<path fill="none" stroke="#63b8ff" d="M1150.6,-219.75C1157.16,-212.18 1166.82,-201.05 1174.81,-191.84"/>
<polygon fill="#63b8ff" stroke="#63b8ff" points="1177.63,-193.94 1181.55,-184.09 1172.35,-189.35 1177.63,-193.94"/>
</a>
</g>
</g>
<!-- Node35&#45;&gt;Node14 -->
<g id="edge50_Node000035_Node000014" class="edge">
<title>Node35&#45;&gt;Node14</title>
<g id="a_edge50_Node000035_Node000014"><a xlink:title=" ">
<path fill="none" stroke="#63b8ff" d="M1213.87,-164.86C1240.1,-154.24 1275.88,-134.57 1262,-110 1235.69,-63.41 1177.85,-36.2 1138.14,-22.34"/>
<polygon fill="#63b8ff" stroke="#63b8ff" points="1139.07,-18.95 1128.47,-19.1 1136.84,-25.59 1139.07,-18.95"/>
</a>
</g>
</g>
<!-- Node36 -->
<g id="Node000036" class="node">
<title>Node36</title>
<g id="a_Node000036"><a xlink:href="ObjectListModelBase_8h.html" target="_top" xlink:title=" ">
<polygon fill="white" stroke="#666666" points="1253,-129 1125,-129 1125,-110 1253,-110 1253,-129"/>
<text text-anchor="middle" x="1189" y="-117" font-family="Helvetica,sans-Serif" font-size="10.00">ObjectListModelBase.h</text>
</a>
</g>
</g>
<!-- Node35&#45;&gt;Node36 -->
<g id="edge45_Node000035_Node000036" class="edge">
<title>Node35&#45;&gt;Node36</title>
<g id="a_edge45_Node000035_Node000036"><a xlink:title=" ">
<path fill="none" stroke="#63b8ff" d="M1189,-164.75C1189,-157.8 1189,-147.85 1189,-139.13"/>
<polygon fill="#63b8ff" stroke="#63b8ff" points="1192.5,-139.09 1189,-129.09 1185.5,-139.09 1192.5,-139.09"/>
</a>
</g>
</g>
<!-- Node37 -->
<g id="Node000037" class="node">
<title>Node37</title>
<g id="a_Node000037"><a xlink:href="ObjectItemModelBase_8h.html" target="_top" xlink:title=" ">
<polygon fill="white" stroke="#666666" points="604,-74 470,-74 470,-55 604,-55 604,-74"/>
<text text-anchor="middle" x="537" y="-62" font-family="Helvetica,sans-Serif" font-size="10.00">ObjectItemModelBase.h</text>
</a>
</g>
</g>
<!-- Node36&#45;&gt;Node37 -->
<g id="edge46_Node000036_Node000037" class="edge">
<title>Node36&#45;&gt;Node37</title>
<g id="a_edge46_Node000036_Node000037"><a xlink:title=" ">
<path fill="none" stroke="#63b8ff" d="M1125,-113.3C1004.57,-103.51 744.72,-82.39 614.58,-71.81"/>
<polygon fill="#63b8ff" stroke="#63b8ff" points="614.54,-68.29 604.29,-70.97 613.98,-75.27 614.54,-68.29"/>
</a>
</g>
</g>
<!-- Node37&#45;&gt;Node14 -->
<g id="edge48_Node000037_Node000014" class="edge">
<title>Node37&#45;&gt;Node14</title>
<g id="a_edge48_Node000037_Node000014"><a xlink:title=" ">
<path fill="none" stroke="#63b8ff" d="M604.18,-56.39C608.85,-55.91 613.5,-55.45 618,-55 757.33,-41.22 919.59,-26.4 1015,-17.82"/>
<polygon fill="#63b8ff" stroke="#63b8ff" points="1015.51,-21.29 1025.16,-16.91 1014.88,-14.31 1015.51,-21.29"/>
</a>
</g>
</g>
<!-- Node37&#45;&gt;Node31 -->
<g id="edge49_Node000037_Node000031" class="edge">
<title>Node37&#45;&gt;Node31</title>
<g id="a_edge49_Node000037_Node000031"><a xlink:title=" ">
<path fill="none" stroke="#63b8ff" d="M507.76,-54.98C476.94,-46.01 428.22,-31.82 394.11,-21.89"/>
<polygon fill="#63b8ff" stroke="#63b8ff" points="395.05,-18.52 384.47,-19.08 393.09,-25.24 395.05,-18.52"/>
</a>
</g>
</g>
<!-- Node38 -->
<g id="Node000038" class="node">
<title>Node38</title>
<g id="a_Node000038"><a xlink:title=" ">
<polygon fill="#e0e0e0" stroke="#999999" points="622,-19 468,-19 468,0 622,0 622,-19"/>
<text text-anchor="middle" x="545" y="-7" font-family="Helvetica,sans-Serif" font-size="10.00">QtCore/QAbstractItemModel</text>
</a>
</g>
</g>
<!-- Node37&#45;&gt;Node38 -->
<g id="edge47_Node000037_Node000038" class="edge">
<title>Node37&#45;&gt;Node38</title>
<g id="a_edge47_Node000037_Node000038"><a xlink:title=" ">
<path fill="none" stroke="#63b8ff" d="M538.32,-54.75C539.37,-47.8 540.87,-37.85 542.19,-29.13"/>
<polygon fill="#63b8ff" stroke="#63b8ff" points="545.67,-29.5 543.7,-19.09 538.75,-28.45 545.67,-29.5"/>
</a>
</g>
</g>
</g>
</svg>
