<?xml version="1.0" encoding="UTF-8" standalone="no"?>
<!DOCTYPE svg PUBLIC "-//W3C//DTD SVG 1.1//EN"
 "http://www.w3.org/Graphics/SVG/1.1/DTD/svg11.dtd">
<!-- Generated by graphviz version 2.43.0 (0)
 -->
<!-- Title: src/FirmwarePlugin/FirmwarePluginFactory.cc Pages: 1 -->
<svg width="1446pt" height="313pt"
 viewBox="0.00 0.00 1446.00 313.00" xmlns="http://www.w3.org/2000/svg" xmlns:xlink="http://www.w3.org/1999/xlink">
<g id="graph0" class="graph" transform="scale(1 1) rotate(0) translate(4 309)">
<title>src/FirmwarePlugin/FirmwarePluginFactory.cc</title>
<!-- Node1 -->
<g id="Node000001" class="node">
<title>Node1</title>
<g id="a_Node000001"><a xlink:title=" ">
<polygon fill="#999999" stroke="#666666" points="907,-305 764,-305 764,-275 907,-275 907,-305"/>
<text text-anchor="start" x="772" y="-293" font-family="Helvetica,sans-Serif" font-size="10.00">src/FirmwarePlugin</text>
<text text-anchor="middle" x="835.5" y="-282" font-family="Helvetica,sans-Serif" font-size="10.00">/FirmwarePluginFactory.cc</text>
</a>
</g>
</g>
<!-- Node2 -->
<g id="Node000002" class="node">
<title>Node2</title>
<g id="a_Node000002"><a xlink:href="FirmwarePluginFactory_8h.html" target="_top" xlink:title=" ">
<polygon fill="white" stroke="#666666" points="756,-184 621,-184 621,-165 756,-165 756,-184"/>
<text text-anchor="middle" x="688.5" y="-172" font-family="Helvetica,sans-Serif" font-size="10.00">FirmwarePluginFactory.h</text>
</a>
</g>
</g>
<!-- Node1&#45;&gt;Node2 -->
<g id="edge1_Node000001_Node000002" class="edge">
<title>Node1&#45;&gt;Node2</title>
<g id="a_edge1_Node000001_Node000002"><a xlink:title=" ">
<path fill="none" stroke="#63b8ff" d="M817.18,-274.85C789.28,-253.31 736.38,-212.47 707.87,-190.46"/>
<polygon fill="#63b8ff" stroke="#63b8ff" points="709.91,-187.61 699.86,-184.27 705.64,-193.15 709.91,-187.61"/>
</a>
</g>
</g>
<!-- Node14 -->
<g id="Node000014" class="node">
<title>Node14</title>
<g id="a_Node000014"><a xlink:href="FirmwarePlugin_8h.html" target="_top" xlink:title=" ">
<polygon fill="white" stroke="#666666" points="540,-184 439,-184 439,-165 540,-165 540,-184"/>
<text text-anchor="middle" x="489.5" y="-172" font-family="Helvetica,sans-Serif" font-size="10.00">FirmwarePlugin.h</text>
</a>
</g>
</g>
<!-- Node1&#45;&gt;Node14 -->
<g id="edge15_Node000001_Node000014" class="edge">
<title>Node1&#45;&gt;Node14</title>
<g id="a_edge15_Node000001_Node000014"><a xlink:title=" ">
<path fill="none" stroke="#63b8ff" d="M792.73,-274.97C723.91,-252.39 589.82,-208.41 525.55,-187.33"/>
<polygon fill="#63b8ff" stroke="#63b8ff" points="526.45,-183.94 515.85,-184.14 524.26,-190.59 526.45,-183.94"/>
</a>
</g>
</g>
<!-- Node23 -->
<g id="Node000023" class="node">
<title>Node23</title>
<g id="a_Node000023"><a xlink:href="QGCLoggingCategory_8h.html" target="_top" xlink:title=" ">
<polygon fill="white" stroke="#666666" points="961.5,-239 833.5,-239 833.5,-220 961.5,-220 961.5,-239"/>
<text text-anchor="middle" x="897.5" y="-227" font-family="Helvetica,sans-Serif" font-size="10.00">QGCLoggingCategory.h</text>
</a>
</g>
</g>
<!-- Node1&#45;&gt;Node23 -->
<g id="edge34_Node000001_Node000023" class="edge">
<title>Node1&#45;&gt;Node23</title>
<g id="a_edge34_Node000001_Node000023"><a xlink:title=" ">
<path fill="none" stroke="#63b8ff" d="M850.51,-274.84C859.69,-266.17 871.45,-255.08 880.91,-246.15"/>
<polygon fill="#63b8ff" stroke="#63b8ff" points="883.34,-248.67 888.21,-239.27 878.53,-243.58 883.34,-248.67"/>
</a>
</g>
</g>
<!-- Node29 -->
<g id="Node000029" class="node">
<title>Node29</title>
<g id="a_Node000029"><a xlink:title=" ">
<polygon fill="#e0e0e0" stroke="#999999" points="1099.5,-239 979.5,-239 979.5,-220 1099.5,-220 1099.5,-239"/>
<text text-anchor="middle" x="1039.5" y="-227" font-family="Helvetica,sans-Serif" font-size="10.00">QtCore/QGlobalStatic</text>
</a>
</g>
</g>
<!-- Node1&#45;&gt;Node29 -->
<g id="edge45_Node000001_Node000029" class="edge">
<title>Node1&#45;&gt;Node29</title>
<g id="a_edge45_Node000001_Node000029"><a xlink:title=" ">
<path fill="none" stroke="#63b8ff" d="M884.36,-274.99C919.72,-264.85 966.9,-251.32 999.91,-241.85"/>
<polygon fill="#63b8ff" stroke="#63b8ff" points="1001.02,-245.17 1009.67,-239.05 999.09,-238.45 1001.02,-245.17"/>
</a>
</g>
</g>
<!-- Node3 -->
<g id="Node000003" class="node">
<title>Node3</title>
<g id="a_Node000003"><a xlink:title=" ">
<polygon fill="#e0e0e0" stroke="#999999" points="108.5,-74 30.5,-74 30.5,-55 108.5,-55 108.5,-74"/>
<text text-anchor="middle" x="69.5" y="-62" font-family="Helvetica,sans-Serif" font-size="10.00">QtCore/QList</text>
</a>
</g>
</g>
<!-- Node2&#45;&gt;Node3 -->
<g id="edge2_Node000002_Node000003" class="edge">
<title>Node2&#45;&gt;Node3</title>
<g id="a_edge2_Node000002_Node000003"><a xlink:title=" ">
<path fill="none" stroke="#63b8ff" d="M620.87,-168.4C517.27,-160.27 324.18,-143.78 256.5,-129 199.55,-116.56 135.77,-92.64 99.34,-77.97"/>
<polygon fill="#63b8ff" stroke="#63b8ff" points="100.41,-74.62 89.82,-74.1 97.77,-81.11 100.41,-74.62"/>
</a>
</g>
</g>
<!-- Node4 -->
<g id="Node000004" class="node">
<title>Node4</title>
<g id="a_Node000004"><a xlink:title=" ">
<polygon fill="#e0e0e0" stroke="#999999" points="1271,-74 1128,-74 1128,-55 1271,-55 1271,-74"/>
<text text-anchor="middle" x="1199.5" y="-62" font-family="Helvetica,sans-Serif" font-size="10.00">QtCore/QLoggingCategory</text>
</a>
</g>
</g>
<!-- Node2&#45;&gt;Node4 -->
<g id="edge3_Node000002_Node000004" class="edge">
<title>Node2&#45;&gt;Node4</title>
<g id="a_edge3_Node000002_Node000004"><a xlink:title=" ">
<path fill="none" stroke="#63b8ff" d="M756.26,-169.94C819.6,-165.17 916.2,-154.15 996.5,-129 1014.52,-123.36 1016.85,-116.71 1034.5,-110 1072.07,-95.71 1116.09,-84.08 1149.21,-76.3"/>
<polygon fill="#63b8ff" stroke="#63b8ff" points="1150.16,-79.67 1159.12,-74.01 1148.58,-72.85 1150.16,-79.67"/>
</a>
</g>
</g>
<!-- Node5 -->
<g id="Node000005" class="node">
<title>Node5</title>
<g id="a_Node000005"><a xlink:href="QGCMAVLink_8h.html" target="_top" xlink:title=" ">
<polygon fill="white" stroke="#666666" points="668,-129 579,-129 579,-110 668,-110 668,-129"/>
<text text-anchor="middle" x="623.5" y="-117" font-family="Helvetica,sans-Serif" font-size="10.00">QGCMAVLink.h</text>
</a>
</g>
</g>
<!-- Node2&#45;&gt;Node5 -->
<g id="edge4_Node000002_Node000005" class="edge">
<title>Node2&#45;&gt;Node5</title>
<g id="a_edge4_Node000002_Node000005"><a xlink:title=" ">
<path fill="none" stroke="#63b8ff" d="M678.06,-164.98C668.35,-157.07 653.68,-145.11 642,-135.58"/>
<polygon fill="#63b8ff" stroke="#63b8ff" points="644.1,-132.78 634.13,-129.17 639.67,-138.2 644.1,-132.78"/>
</a>
</g>
</g>
<!-- Node5&#45;&gt;Node3 -->
<g id="edge5_Node000005_Node000003" class="edge">
<title>Node5&#45;&gt;Node3</title>
<g id="a_edge5_Node000005_Node000003"><a xlink:title=" ">
<path fill="none" stroke="#63b8ff" d="M578.72,-111.06C575.94,-110.68 573.18,-110.32 570.5,-110 373.2,-86.38 319.55,-99.21 118.73,-74.03"/>
<polygon fill="#63b8ff" stroke="#63b8ff" points="119.11,-70.55 108.75,-72.77 118.23,-77.5 119.11,-70.55"/>
</a>
</g>
</g>
<!-- Node5&#45;&gt;Node4 -->
<g id="edge6_Node000005_Node000004" class="edge">
<title>Node5&#45;&gt;Node4</title>
<g id="a_edge6_Node000005_Node000004"><a xlink:title=" ">
<path fill="none" stroke="#63b8ff" d="M668.25,-111.19C671.38,-110.76 674.48,-110.36 677.5,-110 869.96,-87.05 921.56,-92.23 1117.91,-74.12"/>
<polygon fill="#63b8ff" stroke="#63b8ff" points="1118.35,-77.6 1127.98,-73.19 1117.7,-70.63 1118.35,-77.6"/>
</a>
</g>
</g>
<!-- Node6 -->
<g id="Node000006" class="node">
<title>Node6</title>
<g id="a_Node000006"><a xlink:title=" ">
<polygon fill="#e0e0e0" stroke="#999999" points="889.5,-74 797.5,-74 797.5,-55 889.5,-55 889.5,-74"/>
<text text-anchor="middle" x="843.5" y="-62" font-family="Helvetica,sans-Serif" font-size="10.00">QtCore/QObject</text>
</a>
</g>
</g>
<!-- Node5&#45;&gt;Node6 -->
<g id="edge7_Node000005_Node000006" class="edge">
<title>Node5&#45;&gt;Node6</title>
<g id="a_edge7_Node000005_Node000006"><a xlink:title=" ">
<path fill="none" stroke="#63b8ff" d="M658.85,-109.98C696.66,-100.87 756.76,-86.4 798.07,-76.45"/>
<polygon fill="#63b8ff" stroke="#63b8ff" points="798.97,-79.83 807.88,-74.08 797.33,-73.02 798.97,-79.83"/>
</a>
</g>
</g>
<!-- Node7 -->
<g id="Node000007" class="node">
<title>Node7</title>
<g id="a_Node000007"><a xlink:title=" ">
<polygon fill="#e0e0e0" stroke="#999999" points="316,-74 227,-74 227,-55 316,-55 316,-74"/>
<text text-anchor="middle" x="271.5" y="-62" font-family="Helvetica,sans-Serif" font-size="10.00">QtCore/QString</text>
</a>
</g>
</g>
<!-- Node5&#45;&gt;Node7 -->
<g id="edge8_Node000005_Node000007" class="edge">
<title>Node5&#45;&gt;Node7</title>
<g id="a_edge8_Node000005_Node000007"><a xlink:title=" ">
<path fill="none" stroke="#63b8ff" d="M578.97,-111.32C576.11,-110.87 573.26,-110.42 570.5,-110 464.91,-93.78 435.98,-90.73 326.43,-74.13"/>
<polygon fill="#63b8ff" stroke="#63b8ff" points="326.7,-70.63 316.28,-72.59 325.64,-77.55 326.7,-70.63"/>
</a>
</g>
</g>
<!-- Node8 -->
<g id="Node000008" class="node">
<title>Node8</title>
<g id="a_Node000008"><a xlink:title=" ">
<polygon fill="#e0e0e0" stroke="#999999" points="654,-74 465,-74 465,-55 654,-55 654,-74"/>
<text text-anchor="middle" x="559.5" y="-62" font-family="Helvetica,sans-Serif" font-size="10.00">QtQmlIntegration/QtQmlIntegration</text>
</a>
</g>
</g>
<!-- Node5&#45;&gt;Node8 -->
<g id="edge9_Node000005_Node000008" class="edge">
<title>Node5&#45;&gt;Node8</title>
<g id="a_edge9_Node000005_Node000008"><a xlink:title=" ">
<path fill="none" stroke="#63b8ff" d="M613.22,-109.98C603.66,-102.07 589.22,-90.11 577.72,-80.58"/>
<polygon fill="#63b8ff" stroke="#63b8ff" points="579.9,-77.85 569.97,-74.17 575.44,-83.24 579.9,-77.85"/>
</a>
</g>
</g>
<!-- Node9 -->
<g id="Node000009" class="node">
<title>Node9</title>
<g id="a_Node000009"><a xlink:href="MAVLinkLib_8h.html" target="_top" xlink:title=" ">
<polygon fill="white" stroke="#666666" points="208.5,-74 126.5,-74 126.5,-55 208.5,-55 208.5,-74"/>
<text text-anchor="middle" x="167.5" y="-62" font-family="Helvetica,sans-Serif" font-size="10.00">MAVLinkLib.h</text>
</a>
</g>
</g>
<!-- Node5&#45;&gt;Node9 -->
<g id="edge10_Node000005_Node000009" class="edge">
<title>Node5&#45;&gt;Node9</title>
<g id="a_edge10_Node000005_Node000009"><a xlink:title=" ">
<path fill="none" stroke="#63b8ff" d="M578.99,-111.17C576.12,-110.76 573.27,-110.36 570.5,-110 417.77,-89.96 376.06,-94.73 218.7,-73.93"/>
<polygon fill="#63b8ff" stroke="#63b8ff" points="219.04,-70.44 208.66,-72.59 218.11,-77.38 219.04,-70.44"/>
</a>
</g>
</g>
<!-- Node10 -->
<g id="Node000010" class="node">
<title>Node10</title>
<g id="a_Node000010"><a xlink:title=" ">
<polygon fill="#e0e0e0" stroke="#999999" points="53,-19 0,-19 0,0 53,0 53,-19"/>
<text text-anchor="middle" x="26.5" y="-7" font-family="Helvetica,sans-Serif" font-size="10.00">stdint.h</text>
</a>
</g>
</g>
<!-- Node9&#45;&gt;Node10 -->
<g id="edge11_Node000009_Node000010" class="edge">
<title>Node9&#45;&gt;Node10</title>
<g id="a_edge11_Node000009_Node000010"><a xlink:title=" ">
<path fill="none" stroke="#63b8ff" d="M144.85,-54.98C121.65,-46.27 85.38,-32.63 59.1,-22.75"/>
<polygon fill="#63b8ff" stroke="#63b8ff" points="60.16,-19.41 49.57,-19.17 57.7,-25.97 60.16,-19.41"/>
</a>
</g>
</g>
<!-- Node11 -->
<g id="Node000011" class="node">
<title>Node11</title>
<g id="a_Node000011"><a xlink:title=" ">
<polygon fill="#e0e0e0" stroke="#999999" points="169.5,-19 71.5,-19 71.5,0 169.5,0 169.5,-19"/>
<text text-anchor="middle" x="120.5" y="-7" font-family="Helvetica,sans-Serif" font-size="10.00">mavlink_types.h</text>
</a>
</g>
</g>
<!-- Node9&#45;&gt;Node11 -->
<g id="edge12_Node000009_Node000011" class="edge">
<title>Node9&#45;&gt;Node11</title>
<g id="a_edge12_Node000009_Node000011"><a xlink:title=" ">
<path fill="none" stroke="#63b8ff" d="M159.74,-54.75C153.03,-47.18 143.16,-36.05 134.99,-26.84"/>
<polygon fill="#63b8ff" stroke="#63b8ff" points="137.37,-24.25 128.12,-19.09 132.13,-28.89 137.37,-24.25"/>
</a>
</g>
</g>
<!-- Node12 -->
<g id="Node000012" class="node">
<title>Node12</title>
<g id="a_Node000012"><a xlink:title=" ">
<polygon fill="#e0e0e0" stroke="#999999" points="243.5,-19 187.5,-19 187.5,0 243.5,0 243.5,-19"/>
<text text-anchor="middle" x="215.5" y="-7" font-family="Helvetica,sans-Serif" font-size="10.00">stddef.h</text>
</a>
</g>
</g>
<!-- Node9&#45;&gt;Node12 -->
<g id="edge13_Node000009_Node000012" class="edge">
<title>Node9&#45;&gt;Node12</title>
<g id="a_edge13_Node000009_Node000012"><a xlink:title=" ">
<path fill="none" stroke="#63b8ff" d="M175.43,-54.75C182.35,-47.11 192.57,-35.82 200.95,-26.56"/>
<polygon fill="#63b8ff" stroke="#63b8ff" points="203.6,-28.85 207.72,-19.09 198.41,-24.15 203.6,-28.85"/>
</a>
</g>
</g>
<!-- Node13 -->
<g id="Node000013" class="node">
<title>Node13</title>
<g id="a_Node000013"><a xlink:title=" ">
<polygon fill="#e0e0e0" stroke="#999999" points="327,-19 262,-19 262,0 327,0 327,-19"/>
<text text-anchor="middle" x="294.5" y="-7" font-family="Helvetica,sans-Serif" font-size="10.00">mavlink.h</text>
</a>
</g>
</g>
<!-- Node9&#45;&gt;Node13 -->
<g id="edge14_Node000009_Node000013" class="edge">
<title>Node9&#45;&gt;Node13</title>
<g id="a_edge14_Node000009_Node000013"><a xlink:title=" ">
<path fill="none" stroke="#63b8ff" d="M187.9,-54.98C208.52,-46.38 240.61,-32.99 264.19,-23.15"/>
<polygon fill="#63b8ff" stroke="#63b8ff" points="265.84,-26.25 273.72,-19.17 263.15,-19.79 265.84,-26.25"/>
</a>
</g>
</g>
<!-- Node14&#45;&gt;Node3 -->
<g id="edge16_Node000014_Node000003" class="edge">
<title>Node14&#45;&gt;Node3</title>
<g id="a_edge16_Node000014_Node000003"><a xlink:title=" ">
<path fill="none" stroke="#63b8ff" d="M438.88,-173.64C373.25,-172.26 256.22,-164.42 163.5,-129 134.09,-117.77 104.76,-95.8 86.88,-80.89"/>
<polygon fill="#63b8ff" stroke="#63b8ff" points="88.94,-78.05 79.07,-74.21 84.39,-83.37 88.94,-78.05"/>
</a>
</g>
</g>
<!-- Node14&#45;&gt;Node5 -->
<g id="edge20_Node000014_Node000005" class="edge">
<title>Node14&#45;&gt;Node5</title>
<g id="a_edge20_Node000014_Node000005"><a xlink:title=" ">
<path fill="none" stroke="#63b8ff" d="M511.03,-164.98C532.97,-156.3 567.24,-142.75 592.19,-132.88"/>
<polygon fill="#63b8ff" stroke="#63b8ff" points="593.57,-136.1 601.58,-129.17 590.99,-129.59 593.57,-136.1"/>
</a>
</g>
</g>
<!-- Node14&#45;&gt;Node7 -->
<g id="edge17_Node000014_Node000007" class="edge">
<title>Node14&#45;&gt;Node7</title>
<g id="a_edge17_Node000014_Node000007"><a xlink:title=" ">
<path fill="none" stroke="#63b8ff" d="M438.8,-171.14C377.34,-167.09 279.17,-156.41 256.5,-129 245.82,-116.09 252.49,-96.91 260.02,-83.01"/>
<polygon fill="#63b8ff" stroke="#63b8ff" points="263.06,-84.75 265.17,-74.37 257.04,-81.16 263.06,-84.75"/>
</a>
</g>
</g>
<!-- Node15 -->
<g id="Node000015" class="node">
<title>Node15</title>
<g id="a_Node000015"><a xlink:title=" ">
<polygon fill="#e0e0e0" stroke="#999999" points="378,-129 265,-129 265,-110 378,-110 378,-129"/>
<text text-anchor="middle" x="321.5" y="-117" font-family="Helvetica,sans-Serif" font-size="10.00">QtCore/QVariantList</text>
</a>
</g>
</g>
<!-- Node14&#45;&gt;Node15 -->
<g id="edge18_Node000014_Node000015" class="edge">
<title>Node14&#45;&gt;Node15</title>
<g id="a_edge18_Node000014_Node000015"><a xlink:title=" ">
<path fill="none" stroke="#63b8ff" d="M462.51,-164.98C434.3,-156.09 389.86,-142.07 358.42,-132.15"/>
<polygon fill="#63b8ff" stroke="#63b8ff" points="359.29,-128.75 348.7,-129.08 357.19,-135.43 359.29,-128.75"/>
</a>
</g>
</g>
<!-- Node16 -->
<g id="Node000016" class="node">
<title>Node16</title>
<g id="a_Node000016"><a xlink:title=" ">
<polygon fill="#e0e0e0" stroke="#999999" points="561,-129 396,-129 396,-110 561,-110 561,-129"/>
<text text-anchor="middle" x="478.5" y="-117" font-family="Helvetica,sans-Serif" font-size="10.00">QtPositioning/QGeoCoordinate</text>
</a>
</g>
</g>
<!-- Node14&#45;&gt;Node16 -->
<g id="edge19_Node000014_Node000016" class="edge">
<title>Node14&#45;&gt;Node16</title>
<g id="a_edge19_Node000014_Node000016"><a xlink:title=" ">
<path fill="none" stroke="#63b8ff" d="M487.68,-164.75C486.24,-157.8 484.18,-147.85 482.37,-139.13"/>
<polygon fill="#63b8ff" stroke="#63b8ff" points="485.74,-138.17 480.28,-129.09 478.89,-139.59 485.74,-138.17"/>
</a>
</g>
</g>
<!-- Node17 -->
<g id="Node000017" class="node">
<title>Node17</title>
<g id="a_Node000017"><a xlink:href="FollowMe_8h.html" target="_top" xlink:title=" ">
<polygon fill="white" stroke="#666666" points="987.5,-129 915.5,-129 915.5,-110 987.5,-110 987.5,-129"/>
<text text-anchor="middle" x="951.5" y="-117" font-family="Helvetica,sans-Serif" font-size="10.00">FollowMe.h</text>
</a>
</g>
</g>
<!-- Node14&#45;&gt;Node17 -->
<g id="edge21_Node000014_Node000017" class="edge">
<title>Node14&#45;&gt;Node17</title>
<g id="a_edge21_Node000014_Node000017"><a xlink:title=" ">
<path fill="none" stroke="#63b8ff" d="M540.26,-167.68C630.7,-157.3 818.35,-135.77 905.36,-125.79"/>
<polygon fill="#63b8ff" stroke="#63b8ff" points="905.92,-129.25 915.45,-124.64 905.12,-122.3 905.92,-129.25"/>
</a>
</g>
</g>
<!-- Node20 -->
<g id="Node000020" class="node">
<title>Node20</title>
<g id="a_Node000020"><a xlink:href="FactMetaData_8h.html" target="_top" xlink:title=" ">
<polygon fill="white" stroke="#666666" points="779,-129 686,-129 686,-110 779,-110 779,-129"/>
<text text-anchor="middle" x="732.5" y="-117" font-family="Helvetica,sans-Serif" font-size="10.00">FactMetaData.h</text>
</a>
</g>
</g>
<!-- Node14&#45;&gt;Node20 -->
<g id="edge26_Node000014_Node000020" class="edge">
<title>Node14&#45;&gt;Node20</title>
<g id="a_edge26_Node000014_Node000020"><a xlink:title=" ">
<path fill="none" stroke="#63b8ff" d="M528.54,-164.98C570.58,-155.82 637.54,-141.21 683.18,-131.26"/>
<polygon fill="#63b8ff" stroke="#63b8ff" points="684.13,-134.63 693.15,-129.08 682.64,-127.79 684.13,-134.63"/>
</a>
</g>
</g>
<!-- Node17&#45;&gt;Node4 -->
<g id="edge22_Node000017_Node000004" class="edge">
<title>Node17&#45;&gt;Node4</title>
<g id="a_edge22_Node000017_Node000004"><a xlink:title=" ">
<path fill="none" stroke="#63b8ff" d="M987.56,-110.79C1030.33,-101.65 1101.85,-86.37 1149.84,-76.11"/>
<polygon fill="#63b8ff" stroke="#63b8ff" points="1150.65,-79.52 1159.7,-74.01 1149.19,-72.67 1150.65,-79.52"/>
</a>
</g>
</g>
<!-- Node17&#45;&gt;Node6 -->
<g id="edge23_Node000017_Node000006" class="edge">
<title>Node17&#45;&gt;Node6</title>
<g id="a_edge23_Node000017_Node000006"><a xlink:title=" ">
<path fill="none" stroke="#63b8ff" d="M934.15,-109.98C916.93,-101.54 890.3,-88.47 870.35,-78.68"/>
<polygon fill="#63b8ff" stroke="#63b8ff" points="871.69,-75.43 861.17,-74.17 868.6,-81.72 871.69,-75.43"/>
</a>
</g>
</g>
<!-- Node18 -->
<g id="Node000018" class="node">
<title>Node18</title>
<g id="a_Node000018"><a xlink:title=" ">
<polygon fill="#e0e0e0" stroke="#999999" points="1110,-74 1021,-74 1021,-55 1110,-55 1110,-74"/>
<text text-anchor="middle" x="1065.5" y="-62" font-family="Helvetica,sans-Serif" font-size="10.00">QtCore/QTimer</text>
</a>
</g>
</g>
<!-- Node17&#45;&gt;Node18 -->
<g id="edge24_Node000017_Node000018" class="edge">
<title>Node17&#45;&gt;Node18</title>
<g id="a_edge24_Node000017_Node000018"><a xlink:title=" ">
<path fill="none" stroke="#63b8ff" d="M969.82,-109.98C988.16,-101.46 1016.61,-88.23 1037.73,-78.41"/>
<polygon fill="#63b8ff" stroke="#63b8ff" points="1039.26,-81.56 1046.85,-74.17 1036.31,-75.21 1039.26,-81.56"/>
</a>
</g>
</g>
<!-- Node19 -->
<g id="Node000019" class="node">
<title>Node19</title>
<g id="a_Node000019"><a xlink:title=" ">
<polygon fill="#e0e0e0" stroke="#999999" points="1003,-74 908,-74 908,-55 1003,-55 1003,-74"/>
<text text-anchor="middle" x="955.5" y="-62" font-family="Helvetica,sans-Serif" font-size="10.00">QtCore/QVariant</text>
</a>
</g>
</g>
<!-- Node17&#45;&gt;Node19 -->
<g id="edge25_Node000017_Node000019" class="edge">
<title>Node17&#45;&gt;Node19</title>
<g id="a_edge25_Node000017_Node000019"><a xlink:title=" ">
<path fill="none" stroke="#63b8ff" d="M952.16,-109.75C952.68,-102.8 953.44,-92.85 954.09,-84.13"/>
<polygon fill="#63b8ff" stroke="#63b8ff" points="957.59,-84.32 954.85,-74.09 950.61,-83.8 957.59,-84.32"/>
</a>
</g>
</g>
<!-- Node20&#45;&gt;Node4 -->
<g id="edge27_Node000020_Node000004" class="edge">
<title>Node20&#45;&gt;Node4</title>
<g id="a_edge27_Node000020_Node000004"><a xlink:title=" ">
<path fill="none" stroke="#63b8ff" d="M779.42,-113.18C858.61,-104.19 1019.74,-85.9 1117.81,-74.77"/>
<polygon fill="#63b8ff" stroke="#63b8ff" points="1118.44,-78.22 1127.98,-73.62 1117.65,-71.27 1118.44,-78.22"/>
</a>
</g>
</g>
<!-- Node20&#45;&gt;Node6 -->
<g id="edge30_Node000020_Node000006" class="edge">
<title>Node20&#45;&gt;Node6</title>
<g id="a_edge30_Node000020_Node000006"><a xlink:title=" ">
<path fill="none" stroke="#63b8ff" d="M750.33,-109.98C768.11,-101.5 795.65,-88.35 816.18,-78.54"/>
<polygon fill="#63b8ff" stroke="#63b8ff" points="817.83,-81.64 825.34,-74.17 814.81,-75.32 817.83,-81.64"/>
</a>
</g>
</g>
<!-- Node20&#45;&gt;Node7 -->
<g id="edge31_Node000020_Node000007" class="edge">
<title>Node20&#45;&gt;Node7</title>
<g id="a_edge31_Node000020_Node000007"><a xlink:title=" ">
<path fill="none" stroke="#63b8ff" d="M685.72,-111.1C682.94,-110.72 680.18,-110.34 677.5,-110 524.72,-90.39 483.15,-94.07 326.27,-74.03"/>
<polygon fill="#63b8ff" stroke="#63b8ff" points="326.63,-70.55 316.26,-72.74 325.73,-77.49 326.63,-70.55"/>
</a>
</g>
</g>
<!-- Node20&#45;&gt;Node8 -->
<g id="edge33_Node000020_Node000008" class="edge">
<title>Node20&#45;&gt;Node8</title>
<g id="a_edge33_Node000020_Node000008"><a xlink:title=" ">
<path fill="none" stroke="#63b8ff" d="M704.7,-109.98C675.53,-101.05 629.5,-86.94 597.1,-77.02"/>
<polygon fill="#63b8ff" stroke="#63b8ff" points="598.1,-73.66 587.51,-74.08 596.05,-80.36 598.1,-73.66"/>
</a>
</g>
</g>
<!-- Node20&#45;&gt;Node19 -->
<g id="edge32_Node000020_Node000019" class="edge">
<title>Node20&#45;&gt;Node19</title>
<g id="a_edge32_Node000020_Node000019"><a xlink:title=" ">
<path fill="none" stroke="#63b8ff" d="M768.33,-109.98C806.66,-100.87 867.58,-86.4 909.45,-76.45"/>
<polygon fill="#63b8ff" stroke="#63b8ff" points="910.47,-79.8 919.39,-74.08 908.85,-72.99 910.47,-79.8"/>
</a>
</g>
</g>
<!-- Node21 -->
<g id="Node000021" class="node">
<title>Node21</title>
<g id="a_Node000021"><a xlink:title=" ">
<polygon fill="#e0e0e0" stroke="#999999" points="779,-74 672,-74 672,-55 779,-55 779,-74"/>
<text text-anchor="middle" x="725.5" y="-62" font-family="Helvetica,sans-Serif" font-size="10.00">QtCore/QJsonArray</text>
</a>
</g>
</g>
<!-- Node20&#45;&gt;Node21 -->
<g id="edge28_Node000020_Node000021" class="edge">
<title>Node20&#45;&gt;Node21</title>
<g id="a_edge28_Node000020_Node000021"><a xlink:title=" ">
<path fill="none" stroke="#63b8ff" d="M731.34,-109.75C730.43,-102.8 729.11,-92.85 727.96,-84.13"/>
<polygon fill="#63b8ff" stroke="#63b8ff" points="731.41,-83.54 726.63,-74.09 724.47,-84.46 731.41,-83.54"/>
</a>
</g>
</g>
<!-- Node22 -->
<g id="Node000022" class="node">
<title>Node22</title>
<g id="a_Node000022"><a xlink:title=" ">
<polygon fill="#e0e0e0" stroke="#999999" points="447,-74 334,-74 334,-55 447,-55 447,-74"/>
<text text-anchor="middle" x="390.5" y="-62" font-family="Helvetica,sans-Serif" font-size="10.00">QtCore/QJsonObject</text>
</a>
</g>
</g>
<!-- Node20&#45;&gt;Node22 -->
<g id="edge29_Node000020_Node000022" class="edge">
<title>Node20&#45;&gt;Node22</title>
<g id="a_edge29_Node000020_Node000022"><a xlink:title=" ">
<path fill="none" stroke="#63b8ff" d="M685.66,-111.24C626.07,-102.01 522.81,-86 455.59,-75.59"/>
<polygon fill="#63b8ff" stroke="#63b8ff" points="455.95,-72.1 445.53,-74.03 454.87,-79.02 455.95,-72.1"/>
</a>
</g>
</g>
<!-- Node23&#45;&gt;Node4 -->
<g id="edge41_Node000023_Node000004" class="edge">
<title>Node23&#45;&gt;Node4</title>
<g id="a_edge41_Node000023_Node000004"><a xlink:title=" ">
<path fill="none" stroke="#63b8ff" d="M961.56,-220.27C1050.37,-208.72 1200.53,-188.58 1204.5,-184 1228.55,-156.21 1216.63,-109.56 1207.21,-83.86"/>
<polygon fill="#63b8ff" stroke="#63b8ff" points="1210.35,-82.28 1203.44,-74.25 1203.83,-84.84 1210.35,-82.28"/>
</a>
</g>
</g>
<!-- Node23&#45;&gt;Node6 -->
<g id="edge42_Node000023_Node000006" class="edge">
<title>Node23&#45;&gt;Node6</title>
<g id="a_edge42_Node000023_Node000006"><a xlink:title=" ">
<path fill="none" stroke="#63b8ff" d="M876.98,-220C862.48,-212.77 844.15,-200.86 835.5,-184 819.01,-151.86 828.83,-108.22 836.68,-83.87"/>
<polygon fill="#63b8ff" stroke="#63b8ff" points="840.08,-84.74 840.04,-74.15 833.47,-82.45 840.08,-84.74"/>
</a>
</g>
</g>
<!-- Node24 -->
<g id="Node000024" class="node">
<title>Node24</title>
<g id="a_Node000024"><a xlink:href="QmlObjectListModel_8h.html" target="_top" xlink:title=" ">
<polygon fill="white" stroke="#666666" points="1195,-184 1070,-184 1070,-165 1195,-165 1195,-184"/>
<text text-anchor="middle" x="1132.5" y="-172" font-family="Helvetica,sans-Serif" font-size="10.00">QmlObjectListModel.h</text>
</a>
</g>
</g>
<!-- Node23&#45;&gt;Node24 -->
<g id="edge35_Node000023_Node000024" class="edge">
<title>Node23&#45;&gt;Node24</title>
<g id="a_edge35_Node000023_Node000024"><a xlink:title=" ">
<path fill="none" stroke="#63b8ff" d="M935.26,-219.98C975.82,-210.84 1040.39,-196.27 1084.53,-186.32"/>
<polygon fill="#63b8ff" stroke="#63b8ff" points="1085.46,-189.7 1094.45,-184.08 1083.92,-182.87 1085.46,-189.7"/>
</a>
</g>
</g>
<!-- Node27 -->
<g id="Node000027" class="node">
<title>Node27</title>
<g id="a_Node000027"><a xlink:title=" ">
<polygon fill="#e0e0e0" stroke="#999999" points="951,-184 844,-184 844,-165 951,-165 951,-184"/>
<text text-anchor="middle" x="897.5" y="-172" font-family="Helvetica,sans-Serif" font-size="10.00">QtCore/QStringList</text>
</a>
</g>
</g>
<!-- Node23&#45;&gt;Node27 -->
<g id="edge43_Node000023_Node000027" class="edge">
<title>Node23&#45;&gt;Node27</title>
<g id="a_edge43_Node000023_Node000027"><a xlink:title=" ">
<path fill="none" stroke="#63b8ff" d="M897.5,-219.75C897.5,-212.8 897.5,-202.85 897.5,-194.13"/>
<polygon fill="#63b8ff" stroke="#63b8ff" points="901,-194.09 897.5,-184.09 894,-194.09 901,-194.09"/>
</a>
</g>
</g>
<!-- Node28 -->
<g id="Node000028" class="node">
<title>Node28</title>
<g id="a_Node000028"><a xlink:title=" ">
<polygon fill="#e0e0e0" stroke="#999999" points="1051.5,-184 969.5,-184 969.5,-165 1051.5,-165 1051.5,-184"/>
<text text-anchor="middle" x="1010.5" y="-172" font-family="Helvetica,sans-Serif" font-size="10.00">QtCore/QMap</text>
</a>
</g>
</g>
<!-- Node23&#45;&gt;Node28 -->
<g id="edge44_Node000023_Node000028" class="edge">
<title>Node23&#45;&gt;Node28</title>
<g id="a_edge44_Node000023_Node000028"><a xlink:title=" ">
<path fill="none" stroke="#63b8ff" d="M915.66,-219.98C933.75,-211.5 961.78,-198.35 982.69,-188.54"/>
<polygon fill="#63b8ff" stroke="#63b8ff" points="984.45,-191.59 992.01,-184.17 981.47,-185.25 984.45,-191.59"/>
</a>
</g>
</g>
<!-- Node24&#45;&gt;Node4 -->
<g id="edge40_Node000024_Node000004" class="edge">
<title>Node24&#45;&gt;Node4</title>
<g id="a_edge40_Node000024_Node000004"><a xlink:title=" ">
<path fill="none" stroke="#63b8ff" d="M1145.31,-164.69C1156.16,-156.6 1171.37,-143.66 1180.5,-129 1189.05,-115.26 1193.94,-97.46 1196.61,-84.2"/>
<polygon fill="#63b8ff" stroke="#63b8ff" points="1200.07,-84.78 1198.37,-74.32 1193.17,-83.55 1200.07,-84.78"/>
</a>
</g>
</g>
<!-- Node25 -->
<g id="Node000025" class="node">
<title>Node25</title>
<g id="a_Node000025"><a xlink:href="ObjectListModelBase_8h.html" target="_top" xlink:title=" ">
<polygon fill="white" stroke="#666666" points="1171.5,-129 1043.5,-129 1043.5,-110 1171.5,-110 1171.5,-129"/>
<text text-anchor="middle" x="1107.5" y="-117" font-family="Helvetica,sans-Serif" font-size="10.00">ObjectListModelBase.h</text>
</a>
</g>
</g>
<!-- Node24&#45;&gt;Node25 -->
<g id="edge36_Node000024_Node000025" class="edge">
<title>Node24&#45;&gt;Node25</title>
<g id="a_edge36_Node000024_Node000025"><a xlink:title=" ">
<path fill="none" stroke="#63b8ff" d="M1128.37,-164.75C1124.99,-157.57 1120.08,-147.18 1115.88,-138.27"/>
<polygon fill="#63b8ff" stroke="#63b8ff" points="1118.98,-136.64 1111.55,-129.09 1112.65,-139.63 1118.98,-136.64"/>
</a>
</g>
</g>
<!-- Node25&#45;&gt;Node4 -->
<g id="edge38_Node000025_Node000004" class="edge">
<title>Node25&#45;&gt;Node4</title>
<g id="a_edge38_Node000025_Node000004"><a xlink:title=" ">
<path fill="none" stroke="#63b8ff" d="M1122.28,-109.98C1136.68,-101.69 1158.81,-88.94 1175.69,-79.22"/>
<polygon fill="#63b8ff" stroke="#63b8ff" points="1177.53,-82.19 1184.45,-74.17 1174.04,-76.13 1177.53,-82.19"/>
</a>
</g>
</g>
<!-- Node25&#45;&gt;Node8 -->
<g id="edge39_Node000025_Node000008" class="edge">
<title>Node25&#45;&gt;Node8</title>
<g id="a_edge39_Node000025_Node000008"><a xlink:title=" ">
<path fill="none" stroke="#63b8ff" d="M1043.3,-112.29C948.33,-103.11 769.64,-85.82 658.02,-75.03"/>
<polygon fill="#63b8ff" stroke="#63b8ff" points="658.06,-71.52 647.77,-74.04 657.39,-78.48 658.06,-71.52"/>
</a>
</g>
</g>
<!-- Node26 -->
<g id="Node000026" class="node">
<title>Node26</title>
<g id="a_Node000026"><a xlink:title=" ">
<polygon fill="#e0e0e0" stroke="#999999" points="1438,-74 1289,-74 1289,-55 1438,-55 1438,-74"/>
<text text-anchor="middle" x="1363.5" y="-62" font-family="Helvetica,sans-Serif" font-size="10.00">QtCore/QAbstractListModel</text>
</a>
</g>
</g>
<!-- Node25&#45;&gt;Node26 -->
<g id="edge37_Node000025_Node000026" class="edge">
<title>Node25&#45;&gt;Node26</title>
<g id="a_edge37_Node000025_Node000026"><a xlink:title=" ">
<path fill="none" stroke="#63b8ff" d="M1148.63,-109.98C1193.1,-100.78 1264.05,-86.09 1312.15,-76.13"/>
<polygon fill="#63b8ff" stroke="#63b8ff" points="1312.96,-79.54 1322.05,-74.08 1311.54,-72.68 1312.96,-79.54"/>
</a>
</g>
</g>
</g>
</svg>
