<?xml version="1.0" encoding="UTF-8" standalone="no"?>
<!DOCTYPE svg PUBLIC "-//W3C//DTD SVG 1.1//EN"
 "http://www.w3.org/Graphics/SVG/1.1/DTD/svg11.dtd">
<!-- Generated by graphviz version 2.43.0 (0)
 -->
<!-- Title: src/QmlControls/FlightPathSegment.cc Pages: 1 -->
<svg width="1516pt" height="258pt"
 viewBox="0.00 0.00 1515.50 258.00" xmlns="http://www.w3.org/2000/svg" xmlns:xlink="http://www.w3.org/1999/xlink">
<g id="graph0" class="graph" transform="scale(1 1) rotate(0) translate(4 254)">
<title>src/QmlControls/FlightPathSegment.cc</title>
<!-- Node1 -->
<g id="Node000001" class="node">
<title>Node1</title>
<g id="a_Node000001"><a xlink:title=" ">
<polygon fill="#999999" stroke="#666666" points="1172.5,-250 1026.5,-250 1026.5,-220 1172.5,-220 1172.5,-250"/>
<text text-anchor="start" x="1034.5" y="-238" font-family="Helvetica,sans-Serif" font-size="10.00">src/QmlControls/FlightPath</text>
<text text-anchor="middle" x="1099.5" y="-227" font-family="Helvetica,sans-Serif" font-size="10.00">Segment.cc</text>
</a>
</g>
</g>
<!-- Node2 -->
<g id="Node000002" class="node">
<title>Node2</title>
<g id="a_Node000002"><a xlink:href="FlightPathSegment_8h.html" target="_top" xlink:title=" ">
<polygon fill="white" stroke="#666666" points="851.5,-184 733.5,-184 733.5,-165 851.5,-165 851.5,-184"/>
<text text-anchor="middle" x="792.5" y="-172" font-family="Helvetica,sans-Serif" font-size="10.00">FlightPathSegment.h</text>
</a>
</g>
</g>
<!-- Node1&#45;&gt;Node2 -->
<g id="edge1_Node000001_Node000002" class="edge">
<title>Node1&#45;&gt;Node2</title>
<g id="a_edge1_Node000001_Node000002"><a xlink:title=" ">
<path fill="none" stroke="#63b8ff" d="M1026.36,-220.06C971.44,-209.6 897.4,-195.49 847.47,-185.97"/>
<polygon fill="#63b8ff" stroke="#63b8ff" points="847.98,-182.51 837.5,-184.08 846.67,-189.39 847.98,-182.51"/>
</a>
</g>
</g>
<!-- Node15 -->
<g id="Node000015" class="node">
<title>Node15</title>
<g id="a_Node000015"><a xlink:href="QGC_8h.html" target="_top" xlink:title=" ">
<polygon fill="white" stroke="#666666" points="1357,-184 1310,-184 1310,-165 1357,-165 1357,-184"/>
<text text-anchor="middle" x="1333.5" y="-172" font-family="Helvetica,sans-Serif" font-size="10.00">QGC.h</text>
</a>
</g>
</g>
<!-- Node1&#45;&gt;Node15 -->
<g id="edge19_Node000001_Node000015" class="edge">
<title>Node1&#45;&gt;Node15</title>
<g id="a_edge19_Node000001_Node000015"><a xlink:title=" ">
<path fill="none" stroke="#63b8ff" d="M1155.55,-219.99C1200.54,-208.74 1262.2,-193.32 1299.87,-183.91"/>
<polygon fill="#63b8ff" stroke="#63b8ff" points="1300.97,-187.24 1309.83,-181.42 1299.28,-180.45 1300.97,-187.24"/>
</a>
</g>
</g>
<!-- Node17 -->
<g id="Node000017" class="node">
<title>Node17</title>
<g id="a_Node000017"><a xlink:href="QGCLoggingCategory_8h.html" target="_top" xlink:title=" ">
<polygon fill="white" stroke="#666666" points="1163.5,-184 1035.5,-184 1035.5,-165 1163.5,-165 1163.5,-184"/>
<text text-anchor="middle" x="1099.5" y="-172" font-family="Helvetica,sans-Serif" font-size="10.00">QGCLoggingCategory.h</text>
</a>
</g>
</g>
<!-- Node1&#45;&gt;Node17 -->
<g id="edge21_Node000001_Node000017" class="edge">
<title>Node1&#45;&gt;Node17</title>
<g id="a_edge21_Node000001_Node000017"><a xlink:title=" ">
<path fill="none" stroke="#63b8ff" d="M1099.5,-219.84C1099.5,-212.21 1099.5,-202.7 1099.5,-194.45"/>
<polygon fill="#63b8ff" stroke="#63b8ff" points="1103,-194.27 1099.5,-184.27 1096,-194.27 1103,-194.27"/>
</a>
</g>
</g>
<!-- Node3 -->
<g id="Node000003" class="node">
<title>Node3</title>
<g id="a_Node000003"><a xlink:title=" ">
<polygon fill="#e0e0e0" stroke="#999999" points="1013,-19 870,-19 870,0 1013,0 1013,-19"/>
<text text-anchor="middle" x="941.5" y="-7" font-family="Helvetica,sans-Serif" font-size="10.00">QtCore/QLoggingCategory</text>
</a>
</g>
</g>
<!-- Node2&#45;&gt;Node3 -->
<g id="edge2_Node000002_Node000003" class="edge">
<title>Node2&#45;&gt;Node3</title>
<g id="a_edge2_Node000002_Node000003"><a xlink:title=" ">
<path fill="none" stroke="#63b8ff" d="M800.29,-164.98C816.02,-147.79 852.7,-107.69 883.5,-74 898.21,-57.91 915.01,-39.51 926.73,-26.68"/>
<polygon fill="#63b8ff" stroke="#63b8ff" points="929.46,-28.87 933.62,-19.13 924.29,-24.15 929.46,-28.87"/>
</a>
</g>
</g>
<!-- Node4 -->
<g id="Node000004" class="node">
<title>Node4</title>
<g id="a_Node000004"><a xlink:title=" ">
<polygon fill="#e0e0e0" stroke="#999999" points="355.5,-19 263.5,-19 263.5,0 355.5,0 355.5,-19"/>
<text text-anchor="middle" x="309.5" y="-7" font-family="Helvetica,sans-Serif" font-size="10.00">QtCore/QObject</text>
</a>
</g>
</g>
<!-- Node2&#45;&gt;Node4 -->
<g id="edge3_Node000002_Node000004" class="edge">
<title>Node2&#45;&gt;Node4</title>
<g id="a_edge3_Node000002_Node000004"><a xlink:title=" ">
<path fill="none" stroke="#63b8ff" d="M733.26,-174C586.46,-173.84 212.23,-164.4 136.5,-74 131.08,-67.53 131.33,-61.67 136.5,-55 143.95,-45.39 207.21,-30.85 255.1,-21.03"/>
<polygon fill="#63b8ff" stroke="#63b8ff" points="255.95,-24.43 265.06,-19.01 254.56,-17.57 255.95,-24.43"/>
</a>
</g>
</g>
<!-- Node5 -->
<g id="Node000005" class="node">
<title>Node5</title>
<g id="a_Node000005"><a xlink:title=" ">
<polygon fill="#e0e0e0" stroke="#999999" points="544,-129 455,-129 455,-110 544,-110 544,-129"/>
<text text-anchor="middle" x="499.5" y="-117" font-family="Helvetica,sans-Serif" font-size="10.00">QtCore/QTimer</text>
</a>
</g>
</g>
<!-- Node2&#45;&gt;Node5 -->
<g id="edge4_Node000002_Node000005" class="edge">
<title>Node2&#45;&gt;Node5</title>
<g id="a_edge4_Node000002_Node000005"><a xlink:title=" ">
<path fill="none" stroke="#63b8ff" d="M745.42,-164.98C693.19,-155.54 609.03,-140.31 553.98,-130.36"/>
<polygon fill="#63b8ff" stroke="#63b8ff" points="554.52,-126.9 544.06,-128.56 553.27,-133.78 554.52,-126.9"/>
</a>
</g>
</g>
<!-- Node6 -->
<g id="Node000006" class="node">
<title>Node6</title>
<g id="a_Node000006"><a xlink:title=" ">
<polygon fill="#e0e0e0" stroke="#999999" points="875,-74 710,-74 710,-55 875,-55 875,-74"/>
<text text-anchor="middle" x="792.5" y="-62" font-family="Helvetica,sans-Serif" font-size="10.00">QtPositioning/QGeoCoordinate</text>
</a>
</g>
</g>
<!-- Node2&#45;&gt;Node6 -->
<g id="edge5_Node000002_Node000006" class="edge">
<title>Node2&#45;&gt;Node6</title>
<g id="a_edge5_Node000002_Node000006"><a xlink:title=" ">
<path fill="none" stroke="#63b8ff" d="M792.5,-164.66C792.5,-147.17 792.5,-107.8 792.5,-84.27"/>
<polygon fill="#63b8ff" stroke="#63b8ff" points="796,-84.16 792.5,-74.16 789,-84.16 796,-84.16"/>
</a>
</g>
</g>
<!-- Node7 -->
<g id="Node000007" class="node">
<title>Node7</title>
<g id="a_Node000007"><a xlink:title=" ">
<polygon fill="#e0e0e0" stroke="#999999" points="1220,-19 1031,-19 1031,0 1220,0 1220,-19"/>
<text text-anchor="middle" x="1125.5" y="-7" font-family="Helvetica,sans-Serif" font-size="10.00">QtQmlIntegration/QtQmlIntegration</text>
</a>
</g>
</g>
<!-- Node2&#45;&gt;Node7 -->
<g id="edge6_Node000002_Node000007" class="edge">
<title>Node2&#45;&gt;Node7</title>
<g id="a_edge6_Node000002_Node000007"><a xlink:title=" ">
<path fill="none" stroke="#63b8ff" d="M809.93,-164.97C864.54,-138.24 1032.55,-56 1098.51,-23.71"/>
<polygon fill="#63b8ff" stroke="#63b8ff" points="1100.39,-26.69 1107.84,-19.15 1097.32,-20.4 1100.39,-26.69"/>
</a>
</g>
</g>
<!-- Node8 -->
<g id="Node000008" class="node">
<title>Node8</title>
<g id="a_Node000008"><a xlink:href="TerrainQuery_8h.html" target="_top" xlink:title=" ">
<polygon fill="white" stroke="#666666" points="648.5,-129 562.5,-129 562.5,-110 648.5,-110 648.5,-129"/>
<text text-anchor="middle" x="605.5" y="-117" font-family="Helvetica,sans-Serif" font-size="10.00">TerrainQuery.h</text>
</a>
</g>
</g>
<!-- Node2&#45;&gt;Node8 -->
<g id="edge7_Node000002_Node000008" class="edge">
<title>Node2&#45;&gt;Node8</title>
<g id="a_edge7_Node000002_Node000008"><a xlink:title=" ">
<path fill="none" stroke="#63b8ff" d="M762.46,-164.98C730.79,-156.01 680.73,-141.82 645.69,-131.89"/>
<polygon fill="#63b8ff" stroke="#63b8ff" points="646.36,-128.44 635.78,-129.08 644.45,-135.18 646.36,-128.44"/>
</a>
</g>
</g>
<!-- Node8&#45;&gt;Node3 -->
<g id="edge8_Node000008_Node000003" class="edge">
<title>Node8&#45;&gt;Node3</title>
<g id="a_edge8_Node000008_Node000003"><a xlink:title=" ">
<path fill="none" stroke="#63b8ff" d="M615.26,-109.97C631.65,-96.12 666.31,-68.89 700.5,-55 751.29,-34.37 811.99,-23.23 859.77,-17.26"/>
<polygon fill="#63b8ff" stroke="#63b8ff" points="860.25,-20.73 869.76,-16.06 859.42,-13.78 860.25,-20.73"/>
</a>
</g>
</g>
<!-- Node8&#45;&gt;Node4 -->
<g id="edge9_Node000008_Node000004" class="edge">
<title>Node8&#45;&gt;Node4</title>
<g id="a_edge9_Node000008_Node000004"><a xlink:title=" ">
<path fill="none" stroke="#63b8ff" d="M562.4,-111.58C559.05,-111.04 555.72,-110.51 552.5,-110 501.84,-101.94 362.11,-108.88 324.5,-74 312.44,-62.82 309.24,-43.89 308.72,-29.61"/>
<polygon fill="#63b8ff" stroke="#63b8ff" points="312.22,-29.4 308.77,-19.38 305.22,-29.36 312.22,-29.4"/>
</a>
</g>
</g>
<!-- Node8&#45;&gt;Node6 -->
<g id="edge13_Node000008_Node000006" class="edge">
<title>Node8&#45;&gt;Node6</title>
<g id="a_edge13_Node000008_Node000006"><a xlink:title=" ">
<path fill="none" stroke="#63b8ff" d="M635.54,-109.98C667.21,-101.01 717.27,-86.82 752.31,-76.89"/>
<polygon fill="#63b8ff" stroke="#63b8ff" points="753.55,-80.18 762.22,-74.08 751.64,-73.44 753.55,-80.18"/>
</a>
</g>
</g>
<!-- Node9 -->
<g id="Node000009" class="node">
<title>Node9</title>
<g id="a_Node000009"><a xlink:title=" ">
<polygon fill="#e0e0e0" stroke="#999999" points="429,-74 334,-74 334,-55 429,-55 429,-74"/>
<text text-anchor="middle" x="381.5" y="-62" font-family="Helvetica,sans-Serif" font-size="10.00">QtCore/QPointer</text>
</a>
</g>
</g>
<!-- Node8&#45;&gt;Node9 -->
<g id="edge10_Node000008_Node000009" class="edge">
<title>Node8&#45;&gt;Node9</title>
<g id="a_edge10_Node000008_Node000009"><a xlink:title=" ">
<path fill="none" stroke="#63b8ff" d="M569.51,-109.98C531.01,-100.87 469.81,-86.4 427.76,-76.45"/>
<polygon fill="#63b8ff" stroke="#63b8ff" points="428.31,-72.98 417.77,-74.08 426.7,-79.79 428.31,-72.98"/>
</a>
</g>
</g>
<!-- Node10 -->
<g id="Node000010" class="node">
<title>Node10</title>
<g id="a_Node000010"><a xlink:title=" ">
<polygon fill="#e0e0e0" stroke="#999999" points="539.5,-74 447.5,-74 447.5,-55 539.5,-55 539.5,-74"/>
<text text-anchor="middle" x="493.5" y="-62" font-family="Helvetica,sans-Serif" font-size="10.00">QtCore/QQueue</text>
</a>
</g>
</g>
<!-- Node8&#45;&gt;Node10 -->
<g id="edge11_Node000008_Node000010" class="edge">
<title>Node8&#45;&gt;Node10</title>
<g id="a_edge11_Node000008_Node000010"><a xlink:title=" ">
<path fill="none" stroke="#63b8ff" d="M587.51,-109.98C569.57,-101.5 541.78,-88.35 521.07,-78.54"/>
<polygon fill="#63b8ff" stroke="#63b8ff" points="522.36,-75.28 511.82,-74.17 519.36,-81.61 522.36,-75.28"/>
</a>
</g>
</g>
<!-- Node11 -->
<g id="Node000011" class="node">
<title>Node11</title>
<g id="a_Node000011"><a xlink:title=" ">
<polygon fill="#e0e0e0" stroke="#999999" points="653,-74 558,-74 558,-55 653,-55 653,-74"/>
<text text-anchor="middle" x="605.5" y="-62" font-family="Helvetica,sans-Serif" font-size="10.00">QtCore/QVariant</text>
</a>
</g>
</g>
<!-- Node8&#45;&gt;Node11 -->
<g id="edge12_Node000008_Node000011" class="edge">
<title>Node8&#45;&gt;Node11</title>
<g id="a_edge12_Node000008_Node000011"><a xlink:title=" ">
<path fill="none" stroke="#63b8ff" d="M605.5,-109.75C605.5,-102.8 605.5,-92.85 605.5,-84.13"/>
<polygon fill="#63b8ff" stroke="#63b8ff" points="609,-84.09 605.5,-74.09 602,-84.09 609,-84.09"/>
</a>
</g>
</g>
<!-- Node12 -->
<g id="Node000012" class="node">
<title>Node12</title>
<g id="a_Node000012"><a xlink:href="TerrainQueryInterface_8h.html" target="_top" xlink:title=" ">
<polygon fill="white" stroke="#666666" points="277,-74 146,-74 146,-55 277,-55 277,-74"/>
<text text-anchor="middle" x="211.5" y="-62" font-family="Helvetica,sans-Serif" font-size="10.00">TerrainQueryInterface.h</text>
</a>
</g>
</g>
<!-- Node8&#45;&gt;Node12 -->
<g id="edge14_Node000008_Node000012" class="edge">
<title>Node8&#45;&gt;Node12</title>
<g id="a_edge14_Node000008_Node000012"><a xlink:title=" ">
<path fill="none" stroke="#63b8ff" d="M562.42,-111.48C559.06,-110.97 555.73,-110.47 552.5,-110 461.41,-96.76 356.37,-83.32 287.21,-74.73"/>
<polygon fill="#63b8ff" stroke="#63b8ff" points="287.62,-71.26 277.27,-73.5 286.76,-78.21 287.62,-71.26"/>
</a>
</g>
</g>
<!-- Node12&#45;&gt;Node3 -->
<g id="edge15_Node000012_Node000003" class="edge">
<title>Node12&#45;&gt;Node3</title>
<g id="a_edge15_Node000012_Node000003"><a xlink:title=" ">
<path fill="none" stroke="#63b8ff" d="M277.23,-58.52C292.73,-57.36 309.2,-56.13 324.5,-55 516.25,-40.87 741.57,-24.74 859.72,-16.32"/>
<polygon fill="#63b8ff" stroke="#63b8ff" points="860.05,-19.8 869.77,-15.6 859.55,-12.82 860.05,-19.8"/>
</a>
</g>
</g>
<!-- Node12&#45;&gt;Node4 -->
<g id="edge17_Node000012_Node000004" class="edge">
<title>Node12&#45;&gt;Node4</title>
<g id="a_edge17_Node000012_Node000004"><a xlink:title=" ">
<path fill="none" stroke="#63b8ff" d="M227.25,-54.98C242.73,-46.61 266.59,-33.7 284.64,-23.95"/>
<polygon fill="#63b8ff" stroke="#63b8ff" points="286.34,-27.01 293.47,-19.17 283.01,-20.85 286.34,-27.01"/>
</a>
</g>
</g>
<!-- Node13 -->
<g id="Node000013" class="node">
<title>Node13</title>
<g id="a_Node000013"><a xlink:title=" ">
<polygon fill="#e0e0e0" stroke="#999999" points="245.5,-19 167.5,-19 167.5,0 245.5,0 245.5,-19"/>
<text text-anchor="middle" x="206.5" y="-7" font-family="Helvetica,sans-Serif" font-size="10.00">QtCore/QList</text>
</a>
</g>
</g>
<!-- Node12&#45;&gt;Node13 -->
<g id="edge16_Node000012_Node000013" class="edge">
<title>Node12&#45;&gt;Node13</title>
<g id="a_edge16_Node000012_Node000013"><a xlink:title=" ">
<path fill="none" stroke="#63b8ff" d="M210.67,-54.75C210.02,-47.8 209.08,-37.85 208.26,-29.13"/>
<polygon fill="#63b8ff" stroke="#63b8ff" points="211.73,-28.72 207.31,-19.09 204.77,-29.37 211.73,-28.72"/>
</a>
</g>
</g>
<!-- Node14 -->
<g id="Node000014" class="node">
<title>Node14</title>
<g id="a_Node000014"><a xlink:title=" ">
<polygon fill="#e0e0e0" stroke="#999999" points="149,-19 0,-19 0,0 149,0 149,-19"/>
<text text-anchor="middle" x="74.5" y="-7" font-family="Helvetica,sans-Serif" font-size="10.00">QtNetwork/QNetworkReply</text>
</a>
</g>
</g>
<!-- Node12&#45;&gt;Node14 -->
<g id="edge18_Node000012_Node000014" class="edge">
<title>Node12&#45;&gt;Node14</title>
<g id="a_edge18_Node000012_Node000014"><a xlink:title=" ">
<path fill="none" stroke="#63b8ff" d="M189.49,-54.98C167.05,-46.3 132.02,-32.75 106.51,-22.88"/>
<polygon fill="#63b8ff" stroke="#63b8ff" points="107.5,-19.51 96.91,-19.17 104.98,-26.04 107.5,-19.51"/>
</a>
</g>
</g>
<!-- Node16 -->
<g id="Node000016" class="node">
<title>Node16</title>
<g id="a_Node000016"><a xlink:title=" ">
<polygon fill="#e0e0e0" stroke="#999999" points="1507.5,-129 1415.5,-129 1415.5,-110 1507.5,-110 1507.5,-129"/>
<text text-anchor="middle" x="1461.5" y="-117" font-family="Helvetica,sans-Serif" font-size="10.00">QtCore/QtTypes</text>
</a>
</g>
</g>
<!-- Node15&#45;&gt;Node16 -->
<g id="edge20_Node000015_Node000016" class="edge">
<title>Node15&#45;&gt;Node16</title>
<g id="a_edge20_Node000015_Node000016"><a xlink:title=" ">
<path fill="none" stroke="#63b8ff" d="M1354.07,-164.98C1374.93,-156.34 1407.47,-142.87 1431.27,-133.02"/>
<polygon fill="#63b8ff" stroke="#63b8ff" points="1432.66,-136.23 1440.56,-129.17 1429.98,-129.76 1432.66,-136.23"/>
</a>
</g>
</g>
<!-- Node17&#45;&gt;Node3 -->
<g id="edge28_Node000017_Node000003" class="edge">
<title>Node17&#45;&gt;Node3</title>
<g id="a_edge28_Node000017_Node000003"><a xlink:title=" ">
<path fill="none" stroke="#63b8ff" d="M1085.14,-164.99C1071.78,-156.71 1051.71,-143.32 1036.5,-129 1002.26,-96.78 969.62,-51.95 952.97,-27.71"/>
<polygon fill="#63b8ff" stroke="#63b8ff" points="955.73,-25.54 947.22,-19.22 949.93,-29.46 955.73,-25.54"/>
</a>
</g>
</g>
<!-- Node17&#45;&gt;Node4 -->
<g id="edge29_Node000017_Node000004" class="edge">
<title>Node17&#45;&gt;Node4</title>
<g id="a_edge29_Node000017_Node000004"><a xlink:title=" ">
<path fill="none" stroke="#63b8ff" d="M1082.8,-164.96C1065.6,-156.11 1038.06,-141.82 1014.5,-129 955.76,-97.04 947.47,-74.49 883.5,-55 787.83,-25.85 490.96,-15.08 365.93,-11.77"/>
<polygon fill="#63b8ff" stroke="#63b8ff" points="365.88,-8.27 355.8,-11.51 365.7,-15.26 365.88,-8.27"/>
</a>
</g>
</g>
<!-- Node18 -->
<g id="Node000018" class="node">
<title>Node18</title>
<g id="a_Node000018"><a xlink:href="QmlObjectListModel_8h.html" target="_top" xlink:title=" ">
<polygon fill="white" stroke="#666666" points="1397,-129 1272,-129 1272,-110 1397,-110 1397,-129"/>
<text text-anchor="middle" x="1334.5" y="-117" font-family="Helvetica,sans-Serif" font-size="10.00">QmlObjectListModel.h</text>
</a>
</g>
</g>
<!-- Node17&#45;&gt;Node18 -->
<g id="edge22_Node000017_Node000018" class="edge">
<title>Node17&#45;&gt;Node18</title>
<g id="a_edge22_Node000017_Node000018"><a xlink:title=" ">
<path fill="none" stroke="#63b8ff" d="M1137.26,-164.98C1177.82,-155.84 1242.39,-141.27 1286.53,-131.32"/>
<polygon fill="#63b8ff" stroke="#63b8ff" points="1287.46,-134.7 1296.45,-129.08 1285.92,-127.87 1287.46,-134.7"/>
</a>
</g>
</g>
<!-- Node21 -->
<g id="Node000021" class="node">
<title>Node21</title>
<g id="a_Node000021"><a xlink:title=" ">
<polygon fill="#e0e0e0" stroke="#999999" points="1153,-129 1046,-129 1046,-110 1153,-110 1153,-129"/>
<text text-anchor="middle" x="1099.5" y="-117" font-family="Helvetica,sans-Serif" font-size="10.00">QtCore/QStringList</text>
</a>
</g>
</g>
<!-- Node17&#45;&gt;Node21 -->
<g id="edge30_Node000017_Node000021" class="edge">
<title>Node17&#45;&gt;Node21</title>
<g id="a_edge30_Node000017_Node000021"><a xlink:title=" ">
<path fill="none" stroke="#63b8ff" d="M1099.5,-164.75C1099.5,-157.8 1099.5,-147.85 1099.5,-139.13"/>
<polygon fill="#63b8ff" stroke="#63b8ff" points="1103,-139.09 1099.5,-129.09 1096,-139.09 1103,-139.09"/>
</a>
</g>
</g>
<!-- Node22 -->
<g id="Node000022" class="node">
<title>Node22</title>
<g id="a_Node000022"><a xlink:title=" ">
<polygon fill="#e0e0e0" stroke="#999999" points="1253.5,-129 1171.5,-129 1171.5,-110 1253.5,-110 1253.5,-129"/>
<text text-anchor="middle" x="1212.5" y="-117" font-family="Helvetica,sans-Serif" font-size="10.00">QtCore/QMap</text>
</a>
</g>
</g>
<!-- Node17&#45;&gt;Node22 -->
<g id="edge31_Node000017_Node000022" class="edge">
<title>Node17&#45;&gt;Node22</title>
<g id="a_edge31_Node000017_Node000022"><a xlink:title=" ">
<path fill="none" stroke="#63b8ff" d="M1117.66,-164.98C1135.75,-156.5 1163.78,-143.35 1184.69,-133.54"/>
<polygon fill="#63b8ff" stroke="#63b8ff" points="1186.45,-136.59 1194.01,-129.17 1183.47,-130.25 1186.45,-136.59"/>
</a>
</g>
</g>
<!-- Node18&#45;&gt;Node3 -->
<g id="edge27_Node000018_Node000003" class="edge">
<title>Node18&#45;&gt;Node3</title>
<g id="a_edge27_Node000018_Node000003"><a xlink:title=" ">
<path fill="none" stroke="#63b8ff" d="M1303.33,-109.94C1232.97,-90.6 1061.78,-43.55 982.74,-21.83"/>
<polygon fill="#63b8ff" stroke="#63b8ff" points="983.24,-18.34 972.67,-19.07 981.38,-25.09 983.24,-18.34"/>
</a>
</g>
</g>
<!-- Node19 -->
<g id="Node000019" class="node">
<title>Node19</title>
<g id="a_Node000019"><a xlink:href="ObjectListModelBase_8h.html" target="_top" xlink:title=" ">
<polygon fill="white" stroke="#666666" points="1335.5,-74 1207.5,-74 1207.5,-55 1335.5,-55 1335.5,-74"/>
<text text-anchor="middle" x="1271.5" y="-62" font-family="Helvetica,sans-Serif" font-size="10.00">ObjectListModelBase.h</text>
</a>
</g>
</g>
<!-- Node18&#45;&gt;Node19 -->
<g id="edge23_Node000018_Node000019" class="edge">
<title>Node18&#45;&gt;Node19</title>
<g id="a_edge23_Node000018_Node000019"><a xlink:title=" ">
<path fill="none" stroke="#63b8ff" d="M1324.38,-109.98C1315.06,-102.15 1301.03,-90.34 1289.76,-80.86"/>
<polygon fill="#63b8ff" stroke="#63b8ff" points="1291.71,-77.93 1281.81,-74.17 1287.21,-83.29 1291.71,-77.93"/>
</a>
</g>
</g>
<!-- Node19&#45;&gt;Node3 -->
<g id="edge25_Node000019_Node000003" class="edge">
<title>Node19&#45;&gt;Node3</title>
<g id="a_edge25_Node000019_Node000003"><a xlink:title=" ">
<path fill="none" stroke="#63b8ff" d="M1218.48,-54.98C1160.23,-45.63 1066.73,-30.61 1004.72,-20.65"/>
<polygon fill="#63b8ff" stroke="#63b8ff" points="1005.09,-17.17 994.66,-19.04 1003.98,-24.08 1005.09,-17.17"/>
</a>
</g>
</g>
<!-- Node19&#45;&gt;Node7 -->
<g id="edge26_Node000019_Node000007" class="edge">
<title>Node19&#45;&gt;Node7</title>
<g id="a_edge26_Node000019_Node000007"><a xlink:title=" ">
<path fill="none" stroke="#63b8ff" d="M1248.04,-54.98C1223.92,-46.23 1186.13,-32.51 1158.9,-22.62"/>
<polygon fill="#63b8ff" stroke="#63b8ff" points="1159.98,-19.29 1149.38,-19.17 1157.59,-25.87 1159.98,-19.29"/>
</a>
</g>
</g>
<!-- Node20 -->
<g id="Node000020" class="node">
<title>Node20</title>
<g id="a_Node000020"><a xlink:title=" ">
<polygon fill="#e0e0e0" stroke="#999999" points="1387,-19 1238,-19 1238,0 1387,0 1387,-19"/>
<text text-anchor="middle" x="1312.5" y="-7" font-family="Helvetica,sans-Serif" font-size="10.00">QtCore/QAbstractListModel</text>
</a>
</g>
</g>
<!-- Node19&#45;&gt;Node20 -->
<g id="edge24_Node000019_Node000020" class="edge">
<title>Node19&#45;&gt;Node20</title>
<g id="a_edge24_Node000019_Node000020"><a xlink:title=" ">
<path fill="none" stroke="#63b8ff" d="M1278.27,-54.75C1284.06,-47.26 1292.56,-36.28 1299.64,-27.13"/>
<polygon fill="#63b8ff" stroke="#63b8ff" points="1302.51,-29.14 1305.86,-19.09 1296.97,-24.86 1302.51,-29.14"/>
</a>
</g>
</g>
</g>
</svg>
