<?xml version="1.0" encoding="UTF-8" standalone="no"?>
<!DOCTYPE svg PUBLIC "-//W3C//DTD SVG 1.1//EN"
 "http://www.w3.org/Graphics/SVG/1.1/DTD/svg11.dtd">
<!-- Generated by graphviz version 2.43.0 (0)
 -->
<!-- Title: src/Settings/FlightMapSettings.h Pages: 1 -->
<svg width="1117pt" height="93pt"
 viewBox="0.00 0.00 1117.00 93.00" xmlns="http://www.w3.org/2000/svg" xmlns:xlink="http://www.w3.org/1999/xlink">
<g id="graph0" class="graph" transform="scale(1 1) rotate(0) translate(4 89)">
<title>src/Settings/FlightMapSettings.h</title>
<!-- Node1 -->
<g id="Node000001" class="node">
<title>Node1</title>
<g id="a_Node000001"><a xlink:title=" ">
<polygon fill="#999999" stroke="#666666" points="637,-85 463,-85 463,-66 637,-66 637,-85"/>
<text text-anchor="middle" x="550" y="-73" font-family="Helvetica,sans-Serif" font-size="10.00">src/Settings/FlightMapSettings.h</text>
</a>
</g>
</g>
<!-- Node2 -->
<g id="Node000002" class="node">
<title>Node2</title>
<g id="a_Node000002"><a xlink:href="QGroundControlQmlGlobal_8cc.html" target="_top" xlink:title=" ">
<polygon fill="white" stroke="#666666" points="176,-30 0,-30 0,0 176,0 176,-30"/>
<text text-anchor="start" x="8" y="-18" font-family="Helvetica,sans-Serif" font-size="10.00">src/QmlControls/QGroundControl</text>
<text text-anchor="middle" x="88" y="-7" font-family="Helvetica,sans-Serif" font-size="10.00">QmlGlobal.cc</text>
</a>
</g>
</g>
<!-- Node1&#45;&gt;Node2 -->
<g id="edge1_Node000001_Node000002" class="edge">
<title>Node1&#45;&gt;Node2</title>
<g id="a_edge1_Node000001_Node000002"><a xlink:title=" ">
<path fill="none" stroke="#63b8ff" d="M465.99,-64.79C391.97,-56.11 281.25,-42.81 185,-30 182.05,-29.61 179.05,-29.2 176.02,-28.79"/>
<polygon fill="#63b8ff" stroke="#63b8ff" points="465.85,-68.3 476.19,-65.98 466.66,-61.34 465.85,-68.3"/>
</a>
</g>
</g>
<!-- Node3 -->
<g id="Node000003" class="node">
<title>Node3</title>
<g id="a_Node000003"><a xlink:href="QGCMapEngineManager_8cc.html" target="_top" xlink:title=" ">
<polygon fill="white" stroke="#666666" points="345.5,-30 194.5,-30 194.5,0 345.5,0 345.5,-30"/>
<text text-anchor="start" x="202.5" y="-18" font-family="Helvetica,sans-Serif" font-size="10.00">src/QtLocationPlugin</text>
<text text-anchor="middle" x="270" y="-7" font-family="Helvetica,sans-Serif" font-size="10.00">/QGCMapEngineManager.cc</text>
</a>
</g>
</g>
<!-- Node1&#45;&gt;Node3 -->
<g id="edge2_Node000001_Node000003" class="edge">
<title>Node1&#45;&gt;Node3</title>
<g id="a_edge2_Node000001_Node000003"><a xlink:title=" ">
<path fill="none" stroke="#63b8ff" d="M499.36,-63.92C453.93,-54.43 386.92,-40.43 337.05,-30.01"/>
<polygon fill="#63b8ff" stroke="#63b8ff" points="498.78,-67.37 509.29,-65.99 500.21,-60.52 498.78,-67.37"/>
</a>
</g>
</g>
<!-- Node4 -->
<g id="Node000004" class="node">
<title>Node4</title>
<g id="a_Node000004"><a xlink:href="FlightMapSettings_8cc.html" target="_top" xlink:title=" ">
<polygon fill="white" stroke="#666666" points="542.5,-24.5 363.5,-24.5 363.5,-5.5 542.5,-5.5 542.5,-24.5"/>
<text text-anchor="middle" x="453" y="-12.5" font-family="Helvetica,sans-Serif" font-size="10.00">src/Settings/FlightMapSettings.cc</text>
</a>
</g>
</g>
<!-- Node1&#45;&gt;Node4 -->
<g id="edge3_Node000001_Node000004" class="edge">
<title>Node1&#45;&gt;Node4</title>
<g id="a_edge3_Node000001_Node000004"><a xlink:title=" ">
<path fill="none" stroke="#63b8ff" d="M526.98,-60.62C508.49,-49.46 483.08,-34.14 467.37,-24.67"/>
<polygon fill="#63b8ff" stroke="#63b8ff" points="525.32,-63.7 535.69,-65.87 528.93,-57.71 525.32,-63.7"/>
</a>
</g>
</g>
<!-- Node5 -->
<g id="Node000005" class="node">
<title>Node5</title>
<g id="a_Node000005"><a xlink:href="SettingsManager_8cc.html" target="_top" xlink:title=" ">
<polygon fill="white" stroke="#666666" points="733,-24.5 561,-24.5 561,-5.5 733,-5.5 733,-24.5"/>
<text text-anchor="middle" x="647" y="-12.5" font-family="Helvetica,sans-Serif" font-size="10.00">src/Settings/SettingsManager.cc</text>
</a>
</g>
</g>
<!-- Node1&#45;&gt;Node5 -->
<g id="edge4_Node000001_Node000005" class="edge">
<title>Node1&#45;&gt;Node5</title>
<g id="a_edge4_Node000001_Node000005"><a xlink:title=" ">
<path fill="none" stroke="#63b8ff" d="M573.02,-60.62C591.51,-49.46 616.92,-34.14 632.63,-24.67"/>
<polygon fill="#63b8ff" stroke="#63b8ff" points="571.07,-57.71 564.31,-65.87 574.68,-63.7 571.07,-57.71"/>
</a>
</g>
</g>
<!-- Node6 -->
<g id="Node000006" class="node">
<title>Node6</title>
<g id="a_Node000006"><a xlink:href="TerrainTileManager_8cc.html" target="_top" xlink:title=" ">
<polygon fill="white" stroke="#666666" points="927,-24.5 751,-24.5 751,-5.5 927,-5.5 927,-24.5"/>
<text text-anchor="middle" x="839" y="-12.5" font-family="Helvetica,sans-Serif" font-size="10.00">src/Terrain/TerrainTileManager.cc</text>
</a>
</g>
</g>
<!-- Node1&#45;&gt;Node6 -->
<g id="edge5_Node000001_Node000006" class="edge">
<title>Node1&#45;&gt;Node6</title>
<g id="a_edge5_Node000001_Node000006"><a xlink:title=" ">
<path fill="none" stroke="#63b8ff" d="M602.06,-63.96C657.84,-52.67 745.32,-34.96 796.93,-24.52"/>
<polygon fill="#63b8ff" stroke="#63b8ff" points="601.13,-60.58 592.02,-65.99 602.52,-67.44 601.13,-60.58"/>
</a>
</g>
</g>
<!-- Node7 -->
<g id="Node000007" class="node">
<title>Node7</title>
<g id="a_Node000007"><a xlink:href="Viewer3DTerrainTexture_8cc.html" target="_top" xlink:title=" ">
<polygon fill="white" stroke="#666666" points="1109,-30 945,-30 945,0 1109,0 1109,-30"/>
<text text-anchor="start" x="953" y="-18" font-family="Helvetica,sans-Serif" font-size="10.00">src/Viewer3D/Viewer3DTerrain</text>
<text text-anchor="middle" x="1027" y="-7" font-family="Helvetica,sans-Serif" font-size="10.00">Texture.cc</text>
</a>
</g>
</g>
<!-- Node1&#45;&gt;Node7 -->
<g id="edge6_Node000001_Node000007" class="edge">
<title>Node1&#45;&gt;Node7</title>
<g id="a_edge6_Node000001_Node000007"><a xlink:title=" ">
<path fill="none" stroke="#63b8ff" d="M642.13,-64.87C720.41,-56.45 835.71,-43.49 936,-30 938.85,-29.62 941.75,-29.22 944.68,-28.81"/>
<polygon fill="#63b8ff" stroke="#63b8ff" points="641.38,-61.43 631.81,-65.98 642.13,-68.39 641.38,-61.43"/>
</a>
</g>
</g>
</g>
</svg>
