<?xml version="1.0" encoding="UTF-8" standalone="no"?>
<!DOCTYPE svg PUBLIC "-//W3C//DTD SVG 1.1//EN"
 "http://www.w3.org/Graphics/SVG/1.1/DTD/svg11.dtd">
<!-- Generated by graphviz version 2.43.0 (0)
 -->
<!-- Title: src/Settings/FlyViewSettings.h Pages: 1 -->
<svg width="688pt" height="93pt"
 viewBox="0.00 0.00 688.00 93.00" xmlns="http://www.w3.org/2000/svg" xmlns:xlink="http://www.w3.org/1999/xlink">
<g id="graph0" class="graph" transform="scale(1 1) rotate(0) translate(4 89)">
<title>src/Settings/FlyViewSettings.h</title>
<!-- Node1 -->
<g id="Node000001" class="node">
<title>Node1</title>
<g id="a_Node000001"><a xlink:title=" ">
<polygon fill="#999999" stroke="#666666" points="441.5,-85 277.5,-85 277.5,-66 441.5,-66 441.5,-85"/>
<text text-anchor="middle" x="359.5" y="-73" font-family="Helvetica,sans-Serif" font-size="10.00">src/Settings/FlyViewSettings.h</text>
</a>
</g>
</g>
<!-- Node2 -->
<g id="Node000002" class="node">
<title>Node2</title>
<g id="a_Node000002"><a xlink:href="SimulatedCameraControl_8cc.html" target="_top" xlink:title=" ">
<polygon fill="white" stroke="#666666" points="163,-30 0,-30 0,0 163,0 163,-30"/>
<text text-anchor="start" x="8" y="-18" font-family="Helvetica,sans-Serif" font-size="10.00">src/Camera/SimulatedCamera</text>
<text text-anchor="middle" x="81.5" y="-7" font-family="Helvetica,sans-Serif" font-size="10.00">Control.cc</text>
</a>
</g>
</g>
<!-- Node1&#45;&gt;Node2 -->
<g id="edge1_Node000001_Node000002" class="edge">
<title>Node1&#45;&gt;Node2</title>
<g id="a_edge1_Node000001_Node000002"><a xlink:title=" ">
<path fill="none" stroke="#63b8ff" d="M309.23,-63.92C264.11,-54.43 197.58,-40.43 148.07,-30.01"/>
<polygon fill="#63b8ff" stroke="#63b8ff" points="308.57,-67.36 319.08,-65.99 310.01,-60.51 308.57,-67.36"/>
</a>
</g>
</g>
<!-- Node3 -->
<g id="Node000003" class="node">
<title>Node3</title>
<g id="a_Node000003"><a xlink:href="FlyViewSettings_8cc.html" target="_top" xlink:title=" ">
<polygon fill="white" stroke="#666666" points="350,-24.5 181,-24.5 181,-5.5 350,-5.5 350,-24.5"/>
<text text-anchor="middle" x="265.5" y="-12.5" font-family="Helvetica,sans-Serif" font-size="10.00">src/Settings/FlyViewSettings.cc</text>
</a>
</g>
</g>
<!-- Node1&#45;&gt;Node3 -->
<g id="edge2_Node000001_Node000003" class="edge">
<title>Node1&#45;&gt;Node3</title>
<g id="a_edge2_Node000001_Node000003"><a xlink:title=" ">
<path fill="none" stroke="#63b8ff" d="M336.95,-60.47C319.05,-49.32 294.58,-34.1 279.43,-24.67"/>
<polygon fill="#63b8ff" stroke="#63b8ff" points="335.29,-63.56 345.63,-65.87 338.99,-57.61 335.29,-63.56"/>
</a>
</g>
</g>
<!-- Node4 -->
<g id="Node000004" class="node">
<title>Node4</title>
<g id="a_Node000004"><a xlink:href="SettingsManager_8cc.html" target="_top" xlink:title=" ">
<polygon fill="white" stroke="#666666" points="540.5,-24.5 368.5,-24.5 368.5,-5.5 540.5,-5.5 540.5,-24.5"/>
<text text-anchor="middle" x="454.5" y="-12.5" font-family="Helvetica,sans-Serif" font-size="10.00">src/Settings/SettingsManager.cc</text>
</a>
</g>
</g>
<!-- Node1&#45;&gt;Node4 -->
<g id="edge3_Node000001_Node000004" class="edge">
<title>Node1&#45;&gt;Node4</title>
<g id="a_edge3_Node000001_Node000004"><a xlink:title=" ">
<path fill="none" stroke="#63b8ff" d="M382.29,-60.47C400.38,-49.32 425.11,-34.1 440.42,-24.67"/>
<polygon fill="#63b8ff" stroke="#63b8ff" points="380.2,-57.64 373.52,-65.87 383.87,-63.6 380.2,-57.64"/>
</a>
</g>
</g>
<!-- Node5 -->
<g id="Node000005" class="node">
<title>Node5</title>
<g id="a_Node000005"><a xlink:href="Vehicle_8cc.html" target="_top" xlink:title=" ">
<polygon fill="white" stroke="#666666" points="680,-24.5 559,-24.5 559,-5.5 680,-5.5 680,-24.5"/>
<text text-anchor="middle" x="619.5" y="-12.5" font-family="Helvetica,sans-Serif" font-size="10.00">src/Vehicle/Vehicle.cc</text>
</a>
</g>
</g>
<!-- Node1&#45;&gt;Node5 -->
<g id="edge4_Node000001_Node000005" class="edge">
<title>Node1&#45;&gt;Node5</title>
<g id="a_edge4_Node000001_Node000005"><a xlink:title=" ">
<path fill="none" stroke="#63b8ff" d="M407.27,-63.75C457.5,-52.45 535.51,-34.9 581.65,-24.52"/>
<polygon fill="#63b8ff" stroke="#63b8ff" points="406.29,-60.38 397.31,-65.99 407.83,-67.21 406.29,-60.38"/>
</a>
</g>
</g>
</g>
</svg>
