<?xml version="1.0" encoding="UTF-8" standalone="no"?>
<!DOCTYPE svg PUBLIC "-//W3C//DTD SVG 1.1//EN"
 "http://www.w3.org/Graphics/SVG/1.1/DTD/svg11.dtd">
<!-- Generated by graphviz version 2.43.0 (0)
 -->
<!-- Title: src/FollowMe/FollowMe.h Pages: 1 -->
<svg width="4126pt" height="291pt"
 viewBox="0.00 0.00 4126.00 291.00" xmlns="http://www.w3.org/2000/svg" xmlns:xlink="http://www.w3.org/1999/xlink">
<g id="graph0" class="graph" transform="scale(1 1) rotate(0) translate(4 287)">
<title>src/FollowMe/FollowMe.h</title>
<!-- Node1 -->
<g id="Node000001" class="node">
<title>Node1</title>
<g id="a_Node000001"><a xlink:title=" ">
<polygon fill="#999999" stroke="#666666" points="1882,-283 1743,-283 1743,-264 1882,-264 1882,-283"/>
<text text-anchor="middle" x="1812.5" y="-271" font-family="Helvetica,sans-Serif" font-size="10.00">src/FollowMe/FollowMe.h</text>
</a>
</g>
</g>
<!-- Node2 -->
<g id="Node000002" class="node">
<title>Node2</title>
<g id="a_Node000002"><a xlink:href="APMFirmwarePlugin_8h.html" target="_top" xlink:title=" ">
<polygon fill="white" stroke="#666666" points="688,-162 537,-162 537,-132 688,-132 688,-162"/>
<text text-anchor="start" x="545" y="-150" font-family="Helvetica,sans-Serif" font-size="10.00">src/FirmwarePlugin</text>
<text text-anchor="middle" x="612.5" y="-139" font-family="Helvetica,sans-Serif" font-size="10.00">/APM/APMFirmwarePlugin.h</text>
</a>
</g>
</g>
<!-- Node1&#45;&gt;Node2 -->
<g id="edge1_Node000001_Node000002" class="edge">
<title>Node1&#45;&gt;Node2</title>
<g id="a_edge1_Node000001_Node000002"><a xlink:title=" ">
<path fill="none" stroke="#63b8ff" d="M1732.59,-269.28C1606.8,-263.74 1355.02,-250.75 1142.5,-228 943.26,-206.68 894.45,-193.14 696.5,-162 693.73,-161.56 690.9,-161.11 688.05,-160.66"/>
<polygon fill="#63b8ff" stroke="#63b8ff" points="1732.75,-272.79 1742.89,-269.73 1733.06,-265.79 1732.75,-272.79"/>
</a>
</g>
</g>
<!-- Node15 -->
<g id="Node000015" class="node">
<title>Node15</title>
<g id="a_Node000015"><a xlink:href="FirmwarePlugin_8h.html" target="_top" xlink:title=" ">
<polygon fill="white" stroke="#666666" points="2290.5,-228 2180.5,-228 2180.5,-198 2290.5,-198 2290.5,-228"/>
<text text-anchor="start" x="2188.5" y="-216" font-family="Helvetica,sans-Serif" font-size="10.00">src/FirmwarePlugin</text>
<text text-anchor="middle" x="2235.5" y="-205" font-family="Helvetica,sans-Serif" font-size="10.00">/FirmwarePlugin.h</text>
</a>
</g>
</g>
<!-- Node1&#45;&gt;Node15 -->
<g id="edge22_Node000001_Node000015" class="edge">
<title>Node1&#45;&gt;Node15</title>
<g id="a_edge22_Node000001_Node000015"><a xlink:title=" ">
<path fill="none" stroke="#63b8ff" d="M1883.94,-262.62C1967.6,-251.05 2104.39,-232.13 2180.32,-221.63"/>
<polygon fill="#63b8ff" stroke="#63b8ff" points="1883.43,-259.16 1874.01,-263.99 1884.39,-266.09 1883.43,-259.16"/>
</a>
</g>
</g>
<!-- Node26 -->
<g id="Node000026" class="node">
<title>Node26</title>
<g id="a_Node000026"><a xlink:href="FollowMe_8cc.html" target="_top" xlink:title=" ">
<polygon fill="white" stroke="#666666" points="849,-156.5 706,-156.5 706,-137.5 849,-137.5 849,-156.5"/>
<text text-anchor="middle" x="777.5" y="-144.5" font-family="Helvetica,sans-Serif" font-size="10.00">src/FollowMe/FollowMe.cc</text>
</a>
</g>
</g>
<!-- Node1&#45;&gt;Node26 -->
<g id="edge52_Node000001_Node000026" class="edge">
<title>Node1&#45;&gt;Node26</title>
<g id="a_edge52_Node000001_Node000026"><a xlink:title=" ">
<path fill="none" stroke="#63b8ff" d="M1732.81,-264.86C1568.65,-248.77 1181.07,-208.99 857.5,-162 846.48,-160.4 834.64,-158.45 823.54,-156.53"/>
<polygon fill="#63b8ff" stroke="#63b8ff" points="1732.53,-268.35 1742.82,-265.84 1733.21,-261.38 1732.53,-268.35"/>
</a>
</g>
</g>
<!-- Node42 -->
<g id="Node000042" class="node">
<title>Node42</title>
<g id="a_Node000042"><a xlink:href="QGCApplication_8cc.html" target="_top" xlink:title=" ">
<polygon fill="white" stroke="#666666" points="2432.5,-222.5 2308.5,-222.5 2308.5,-203.5 2432.5,-203.5 2432.5,-222.5"/>
<text text-anchor="middle" x="2370.5" y="-210.5" font-family="Helvetica,sans-Serif" font-size="10.00">src/QGCApplication.cc</text>
</a>
</g>
</g>
<!-- Node1&#45;&gt;Node42 -->
<g id="edge53_Node000001_Node000042" class="edge">
<title>Node1&#45;&gt;Node42</title>
<g id="a_edge53_Node000001_Node000042"><a xlink:title=" ">
<path fill="none" stroke="#63b8ff" d="M1892.11,-267.77C1988.79,-261.43 2156.65,-248.55 2299.5,-228 2309.82,-226.51 2320.91,-224.52 2331.19,-222.5"/>
<polygon fill="#63b8ff" stroke="#63b8ff" points="1891.87,-264.27 1882.12,-268.41 1892.33,-271.26 1891.87,-264.27"/>
</a>
</g>
</g>
<!-- Node3 -->
<g id="Node000003" class="node">
<title>Node3</title>
<g id="a_Node000003"><a xlink:href="APMFirmwarePlugin_8cc.html" target="_top" xlink:title=" ">
<polygon fill="white" stroke="#666666" points="356,-30 201,-30 201,0 356,0 356,-30"/>
<text text-anchor="start" x="209" y="-18" font-family="Helvetica,sans-Serif" font-size="10.00">src/FirmwarePlugin</text>
<text text-anchor="middle" x="278.5" y="-7" font-family="Helvetica,sans-Serif" font-size="10.00">/APM/APMFirmwarePlugin.cc</text>
</a>
</g>
</g>
<!-- Node2&#45;&gt;Node3 -->
<g id="edge2_Node000002_Node000003" class="edge">
<title>Node2&#45;&gt;Node3</title>
<g id="a_edge2_Node000002_Node000003"><a xlink:title=" ">
<path fill="none" stroke="#63b8ff" d="M526.35,-140.39C421.84,-132.7 257.18,-117.35 238.5,-96 221.11,-76.14 244.46,-47.38 262.1,-30.29"/>
<polygon fill="#63b8ff" stroke="#63b8ff" points="526.36,-143.9 536.59,-141.14 526.87,-136.92 526.36,-143.9"/>
</a>
</g>
</g>
<!-- Node4 -->
<g id="Node000004" class="node">
<title>Node4</title>
<g id="a_Node000004"><a xlink:href="ArduCopterFirmwarePlugin_8h.html" target="_top" xlink:title=" ">
<polygon fill="white" stroke="#666666" points="817.5,-96 633.5,-96 633.5,-66 817.5,-66 817.5,-96"/>
<text text-anchor="start" x="641.5" y="-84" font-family="Helvetica,sans-Serif" font-size="10.00">src/FirmwarePlugin</text>
<text text-anchor="middle" x="725.5" y="-73" font-family="Helvetica,sans-Serif" font-size="10.00">/APM/ArduCopterFirmwarePlugin.h</text>
</a>
</g>
</g>
<!-- Node2&#45;&gt;Node4 -->
<g id="edge3_Node000002_Node000004" class="edge">
<title>Node2&#45;&gt;Node4</title>
<g id="a_edge3_Node000002_Node000004"><a xlink:title=" ">
<path fill="none" stroke="#63b8ff" d="M646.1,-126.97C663.64,-117.03 684.73,-105.09 700.76,-96.01"/>
<polygon fill="#63b8ff" stroke="#63b8ff" points="644.27,-123.98 637.3,-131.95 647.72,-130.07 644.27,-123.98"/>
</a>
</g>
</g>
<!-- Node8 -->
<g id="Node000008" class="node">
<title>Node8</title>
<g id="a_Node000008"><a xlink:href="ArduPlaneFirmwarePlugin_8h.html" target="_top" xlink:title=" ">
<polygon fill="white" stroke="#666666" points="427,-96 248,-96 248,-66 427,-66 427,-96"/>
<text text-anchor="start" x="256" y="-84" font-family="Helvetica,sans-Serif" font-size="10.00">src/FirmwarePlugin</text>
<text text-anchor="middle" x="337.5" y="-73" font-family="Helvetica,sans-Serif" font-size="10.00">/APM/ArduPlaneFirmwarePlugin.h</text>
</a>
</g>
</g>
<!-- Node2&#45;&gt;Node8 -->
<g id="edge8_Node000002_Node000008" class="edge">
<title>Node2&#45;&gt;Node8</title>
<g id="a_edge8_Node000002_Node000008"><a xlink:title=" ">
<path fill="none" stroke="#63b8ff" d="M542.24,-129.65C497.56,-119.25 440.3,-105.93 397.71,-96.01"/>
<polygon fill="#63b8ff" stroke="#63b8ff" points="541.62,-133.1 552.15,-131.95 543.2,-126.28 541.62,-133.1"/>
</a>
</g>
</g>
<!-- Node10 -->
<g id="Node000010" class="node">
<title>Node10</title>
<g id="a_Node000010"><a xlink:href="ArduRoverFirmwarePlugin_8h.html" target="_top" xlink:title=" ">
<polygon fill="white" stroke="#666666" points="1015.5,-96 835.5,-96 835.5,-66 1015.5,-66 1015.5,-96"/>
<text text-anchor="start" x="843.5" y="-84" font-family="Helvetica,sans-Serif" font-size="10.00">src/FirmwarePlugin</text>
<text text-anchor="middle" x="925.5" y="-73" font-family="Helvetica,sans-Serif" font-size="10.00">/APM/ArduRoverFirmwarePlugin.h</text>
</a>
</g>
</g>
<!-- Node2&#45;&gt;Node10 -->
<g id="edge12_Node000002_Node000010" class="edge">
<title>Node2&#45;&gt;Node10</title>
<g id="a_edge12_Node000002_Node000010"><a xlink:title=" ">
<path fill="none" stroke="#63b8ff" d="M691.19,-129.91C742.23,-119.47 808.08,-106.01 856.97,-96.01"/>
<polygon fill="#63b8ff" stroke="#63b8ff" points="690.29,-126.52 681.19,-131.95 691.69,-133.38 690.29,-126.52"/>
</a>
</g>
</g>
<!-- Node13 -->
<g id="Node000013" class="node">
<title>Node13</title>
<g id="a_Node000013"><a xlink:href="ArduSubFirmwarePlugin_8h.html" target="_top" xlink:title=" ">
<polygon fill="white" stroke="#666666" points="615.5,-96 445.5,-96 445.5,-66 615.5,-66 615.5,-96"/>
<text text-anchor="start" x="453.5" y="-84" font-family="Helvetica,sans-Serif" font-size="10.00">src/FirmwarePlugin</text>
<text text-anchor="middle" x="530.5" y="-73" font-family="Helvetica,sans-Serif" font-size="10.00">/APM/ArduSubFirmwarePlugin.h</text>
</a>
</g>
</g>
<!-- Node2&#45;&gt;Node13 -->
<g id="edge18_Node000002_Node000013" class="edge">
<title>Node2&#45;&gt;Node13</title>
<g id="a_edge18_Node000002_Node000013"><a xlink:title=" ">
<path fill="none" stroke="#63b8ff" d="M586.21,-125.48C573.95,-115.91 559.68,-104.77 548.65,-96.16"/>
<polygon fill="#63b8ff" stroke="#63b8ff" points="584.26,-128.4 594.3,-131.8 588.57,-122.88 584.26,-128.4"/>
</a>
</g>
</g>
<!-- Node4&#45;&gt;Node3 -->
<g id="edge5_Node000004_Node000003" class="edge">
<title>Node4&#45;&gt;Node3</title>
<g id="a_edge5_Node000004_Node000003"><a xlink:title=" ">
<path fill="none" stroke="#63b8ff" d="M623.22,-65.82C519.07,-51.38 371.92,-30.96 365.5,-30 362.47,-29.55 359.39,-29.08 356.28,-28.6"/>
<polygon fill="#63b8ff" stroke="#63b8ff" points="622.77,-69.29 633.16,-67.2 623.73,-62.36 622.77,-69.29"/>
</a>
</g>
</g>
<!-- Node5 -->
<g id="Node000005" class="node">
<title>Node5</title>
<g id="a_Node000005"><a xlink:href="APMAirframeComponentController_8cc.html" target="_top" xlink:title=" ">
<polygon fill="white" stroke="#666666" points="1206.5,-30 980.5,-30 980.5,0 1206.5,0 1206.5,-30"/>
<text text-anchor="start" x="988.5" y="-18" font-family="Helvetica,sans-Serif" font-size="10.00">src/AutoPilotPlugins</text>
<text text-anchor="middle" x="1093.5" y="-7" font-family="Helvetica,sans-Serif" font-size="10.00">/APM/APMAirframeComponentController.cc</text>
</a>
</g>
</g>
<!-- Node4&#45;&gt;Node5 -->
<g id="edge4_Node000004_Node000005" class="edge">
<title>Node4&#45;&gt;Node5</title>
<g id="a_edge4_Node000004_Node000005"><a xlink:title=" ">
<path fill="none" stroke="#63b8ff" d="M816.15,-64.24C876.41,-53.75 954.85,-40.11 1012.93,-30.01"/>
<polygon fill="#63b8ff" stroke="#63b8ff" points="815.51,-60.79 806.26,-65.95 816.71,-67.69 815.51,-60.79"/>
</a>
</g>
</g>
<!-- Node6 -->
<g id="Node000006" class="node">
<title>Node6</title>
<g id="a_Node000006"><a xlink:href="APMFirmwarePluginFactory_8cc.html" target="_top" xlink:title=" ">
<polygon fill="white" stroke="#666666" points="756,-30 567,-30 567,0 756,0 756,-30"/>
<text text-anchor="start" x="575" y="-18" font-family="Helvetica,sans-Serif" font-size="10.00">src/FirmwarePlugin</text>
<text text-anchor="middle" x="661.5" y="-7" font-family="Helvetica,sans-Serif" font-size="10.00">/APM/APMFirmwarePluginFactory.cc</text>
</a>
</g>
</g>
<!-- Node4&#45;&gt;Node6 -->
<g id="edge6_Node000004_Node000006" class="edge">
<title>Node4&#45;&gt;Node6</title>
<g id="a_edge6_Node000004_Node000006"><a xlink:title=" ">
<path fill="none" stroke="#63b8ff" d="M704.15,-58.65C694.77,-49.27 684.03,-38.53 675.66,-30.16"/>
<polygon fill="#63b8ff" stroke="#63b8ff" points="701.75,-61.2 711.3,-65.8 706.7,-56.25 701.75,-61.2"/>
</a>
</g>
</g>
<!-- Node7 -->
<g id="Node000007" class="node">
<title>Node7</title>
<g id="a_Node000007"><a xlink:href="ArduCopterFirmwarePlugin_8cc.html" target="_top" xlink:title=" ">
<polygon fill="white" stroke="#666666" points="962.5,-30 774.5,-30 774.5,0 962.5,0 962.5,-30"/>
<text text-anchor="start" x="782.5" y="-18" font-family="Helvetica,sans-Serif" font-size="10.00">src/FirmwarePlugin</text>
<text text-anchor="middle" x="868.5" y="-7" font-family="Helvetica,sans-Serif" font-size="10.00">/APM/ArduCopterFirmwarePlugin.cc</text>
</a>
</g>
</g>
<!-- Node4&#45;&gt;Node7 -->
<g id="edge7_Node000004_Node000007" class="edge">
<title>Node4&#45;&gt;Node7</title>
<g id="a_edge7_Node000004_Node000007"><a xlink:title=" ">
<path fill="none" stroke="#63b8ff" d="M766.2,-61.78C788.75,-51.69 816.34,-39.34 837.19,-30.01"/>
<polygon fill="#63b8ff" stroke="#63b8ff" points="764.58,-58.68 756.88,-65.95 767.44,-65.06 764.58,-58.68"/>
</a>
</g>
</g>
<!-- Node8&#45;&gt;Node3 -->
<g id="edge9_Node000008_Node000003" class="edge">
<title>Node8&#45;&gt;Node3</title>
<g id="a_edge9_Node000008_Node000003"><a xlink:title=" ">
<path fill="none" stroke="#63b8ff" d="M317.56,-58.37C308.98,-49.06 299.19,-38.44 291.56,-30.16"/>
<polygon fill="#63b8ff" stroke="#63b8ff" points="315.05,-60.82 324.41,-65.8 320.2,-56.07 315.05,-60.82"/>
</a>
</g>
</g>
<!-- Node8&#45;&gt;Node6 -->
<g id="edge10_Node000008_Node000006" class="edge">
<title>Node8&#45;&gt;Node6</title>
<g id="a_edge10_Node000008_Node000006"><a xlink:title=" ">
<path fill="none" stroke="#63b8ff" d="M418.63,-63.98C471.51,-53.53 539.85,-40.03 590.56,-30.01"/>
<polygon fill="#63b8ff" stroke="#63b8ff" points="417.74,-60.58 408.6,-65.95 419.09,-67.45 417.74,-60.58"/>
</a>
</g>
</g>
<!-- Node9 -->
<g id="Node000009" class="node">
<title>Node9</title>
<g id="a_Node000009"><a xlink:href="ArduPlaneFirmwarePlugin_8cc.html" target="_top" xlink:title=" ">
<polygon fill="white" stroke="#666666" points="183,-30 0,-30 0,0 183,0 183,-30"/>
<text text-anchor="start" x="8" y="-18" font-family="Helvetica,sans-Serif" font-size="10.00">src/FirmwarePlugin</text>
<text text-anchor="middle" x="91.5" y="-7" font-family="Helvetica,sans-Serif" font-size="10.00">/APM/ArduPlaneFirmwarePlugin.cc</text>
</a>
</g>
</g>
<!-- Node8&#45;&gt;Node9 -->
<g id="edge11_Node000008_Node000009" class="edge">
<title>Node8&#45;&gt;Node9</title>
<g id="a_edge11_Node000008_Node000009"><a xlink:title=" ">
<path fill="none" stroke="#63b8ff" d="M273.64,-63.39C233.82,-53.03 183.14,-39.84 145.36,-30.01"/>
<polygon fill="#63b8ff" stroke="#63b8ff" points="272.96,-66.82 283.51,-65.95 274.72,-60.05 272.96,-66.82"/>
</a>
</g>
</g>
<!-- Node10&#45;&gt;Node3 -->
<g id="edge15_Node000010_Node000003" class="edge">
<title>Node10&#45;&gt;Node3</title>
<g id="a_edge15_Node000010_Node000003"><a xlink:title=" ">
<path fill="none" stroke="#63b8ff" d="M825.24,-65.91C620.48,-43.94 566.28,-53.95 365.5,-30 362.46,-29.64 359.37,-29.25 356.24,-28.83"/>
<polygon fill="#63b8ff" stroke="#63b8ff" points="825.1,-69.42 835.42,-67.02 825.86,-62.46 825.1,-69.42"/>
</a>
</g>
</g>
<!-- Node10&#45;&gt;Node5 -->
<g id="edge13_Node000010_Node000005" class="edge">
<title>Node10&#45;&gt;Node5</title>
<g id="a_edge13_Node000010_Node000005"><a xlink:title=" ">
<path fill="none" stroke="#63b8ff" d="M971.9,-62.32C998.64,-52.14 1031.79,-39.51 1056.72,-30.01"/>
<polygon fill="#63b8ff" stroke="#63b8ff" points="970.47,-59.12 962.37,-65.95 972.96,-65.67 970.47,-59.12"/>
</a>
</g>
</g>
<!-- Node10&#45;&gt;Node6 -->
<g id="edge16_Node000010_Node000006" class="edge">
<title>Node10&#45;&gt;Node6</title>
<g id="a_edge16_Node000010_Node000006"><a xlink:title=" ">
<path fill="none" stroke="#63b8ff" d="M857.78,-63.58C814.92,-53.19 760.11,-39.9 719.3,-30.01"/>
<polygon fill="#63b8ff" stroke="#63b8ff" points="857.02,-67 867.56,-65.95 858.67,-60.2 857.02,-67"/>
</a>
</g>
</g>
<!-- Node11 -->
<g id="Node000011" class="node">
<title>Node11</title>
<g id="a_Node000011"><a xlink:href="APMFollowComponentController_8cc.html" target="_top" xlink:title=" ">
<polygon fill="white" stroke="#666666" points="1440,-30 1225,-30 1225,0 1440,0 1440,-30"/>
<text text-anchor="start" x="1233" y="-18" font-family="Helvetica,sans-Serif" font-size="10.00">src/AutoPilotPlugins</text>
<text text-anchor="middle" x="1332.5" y="-7" font-family="Helvetica,sans-Serif" font-size="10.00">/APM/APMFollowComponentController.cc</text>
</a>
</g>
</g>
<!-- Node10&#45;&gt;Node11 -->
<g id="edge14_Node000010_Node000011" class="edge">
<title>Node10&#45;&gt;Node11</title>
<g id="a_edge14_Node000010_Node000011"><a xlink:title=" ">
<path fill="none" stroke="#63b8ff" d="M1024.68,-64.4C1091.43,-53.91 1178.71,-40.18 1243.28,-30.03"/>
<polygon fill="#63b8ff" stroke="#63b8ff" points="1023.9,-60.98 1014.57,-65.99 1024.99,-67.9 1023.9,-60.98"/>
</a>
</g>
</g>
<!-- Node12 -->
<g id="Node000012" class="node">
<title>Node12</title>
<g id="a_Node000012"><a xlink:href="ArduRoverFirmwarePlugin_8cc.html" target="_top" xlink:title=" ">
<polygon fill="white" stroke="#666666" points="1643,-30 1458,-30 1458,0 1643,0 1643,-30"/>
<text text-anchor="start" x="1466" y="-18" font-family="Helvetica,sans-Serif" font-size="10.00">src/FirmwarePlugin</text>
<text text-anchor="middle" x="1550.5" y="-7" font-family="Helvetica,sans-Serif" font-size="10.00">/APM/ArduRoverFirmwarePlugin.cc</text>
</a>
</g>
</g>
<!-- Node10&#45;&gt;Node12 -->
<g id="edge17_Node000010_Node000012" class="edge">
<title>Node10&#45;&gt;Node12</title>
<g id="a_edge17_Node000010_Node000012"><a xlink:title=" ">
<path fill="none" stroke="#63b8ff" d="M1025.54,-65.93C1214.11,-44.95 1263.74,-50.51 1448.5,-30 1451.61,-29.65 1454.77,-29.29 1457.96,-28.91"/>
<polygon fill="#63b8ff" stroke="#63b8ff" points="1025.13,-62.45 1015.58,-67.04 1025.91,-69.41 1025.13,-62.45"/>
</a>
</g>
</g>
<!-- Node13&#45;&gt;Node3 -->
<g id="edge19_Node000013_Node000003" class="edge">
<title>Node13&#45;&gt;Node3</title>
<g id="a_edge19_Node000013_Node000003"><a xlink:title=" ">
<path fill="none" stroke="#63b8ff" d="M465.34,-63.45C424.51,-53.08 372.46,-39.86 333.67,-30.01"/>
<polygon fill="#63b8ff" stroke="#63b8ff" points="464.64,-66.89 475.2,-65.95 466.37,-60.1 464.64,-66.89"/>
</a>
</g>
</g>
<!-- Node13&#45;&gt;Node6 -->
<g id="edge20_Node000013_Node000006" class="edge">
<title>Node13&#45;&gt;Node6</title>
<g id="a_edge20_Node000013_Node000006"><a xlink:title=" ">
<path fill="none" stroke="#63b8ff" d="M568.34,-61.51C588.89,-51.47 613.89,-39.26 632.82,-30.01"/>
<polygon fill="#63b8ff" stroke="#63b8ff" points="566.7,-58.42 559.25,-65.95 569.77,-64.71 566.7,-58.42"/>
</a>
</g>
</g>
<!-- Node14 -->
<g id="Node000014" class="node">
<title>Node14</title>
<g id="a_Node000014"><a xlink:href="ArduSubFirmwarePlugin_8cc.html" target="_top" xlink:title=" ">
<polygon fill="white" stroke="#666666" points="548.5,-30 374.5,-30 374.5,0 548.5,0 548.5,-30"/>
<text text-anchor="start" x="382.5" y="-18" font-family="Helvetica,sans-Serif" font-size="10.00">src/FirmwarePlugin</text>
<text text-anchor="middle" x="461.5" y="-7" font-family="Helvetica,sans-Serif" font-size="10.00">/APM/ArduSubFirmwarePlugin.cc</text>
</a>
</g>
</g>
<!-- Node13&#45;&gt;Node14 -->
<g id="edge21_Node000013_Node000014" class="edge">
<title>Node13&#45;&gt;Node14</title>
<g id="a_edge21_Node000013_Node000014"><a xlink:title=" ">
<path fill="none" stroke="#63b8ff" d="M507.78,-58.92C497.6,-49.49 485.87,-38.61 476.77,-30.16"/>
<polygon fill="#63b8ff" stroke="#63b8ff" points="505.47,-61.56 515.19,-65.8 510.24,-56.43 505.47,-61.56"/>
</a>
</g>
</g>
<!-- Node15&#45;&gt;Node2 -->
<g id="edge27_Node000015_Node000002" class="edge">
<title>Node15&#45;&gt;Node2</title>
<g id="a_edge27_Node000015_Node000002"><a xlink:title=" ">
<path fill="none" stroke="#63b8ff" d="M2169.95,-211.03C1914.98,-207.08 989.06,-191 696.5,-162 693.85,-161.74 691.16,-161.44 688.45,-161.12"/>
<polygon fill="#63b8ff" stroke="#63b8ff" points="2170.11,-214.53 2180.16,-211.19 2170.21,-207.53 2170.11,-214.53"/>
</a>
</g>
</g>
<!-- Node16 -->
<g id="Node000016" class="node">
<title>Node16</title>
<g id="a_Node000016"><a xlink:href="AutoPilotPlugin_8cc.html" target="_top" xlink:title=" ">
<polygon fill="white" stroke="#666666" points="3319,-162 3206,-162 3206,-132 3319,-132 3319,-162"/>
<text text-anchor="start" x="3214" y="-150" font-family="Helvetica,sans-Serif" font-size="10.00">src/AutoPilotPlugins</text>
<text text-anchor="middle" x="3262.5" y="-139" font-family="Helvetica,sans-Serif" font-size="10.00">/AutoPilotPlugin.cc</text>
</a>
</g>
</g>
<!-- Node15&#45;&gt;Node16 -->
<g id="edge23_Node000015_Node000016" class="edge">
<title>Node15&#45;&gt;Node16</title>
<g id="a_edge23_Node000015_Node000016"><a xlink:title=" ">
<path fill="none" stroke="#63b8ff" d="M2300.57,-198.04C2697.01,-148.24 2803.89,-211.16 3196.5,-162 3199.52,-161.62 3202.61,-161.18 3205.72,-160.68"/>
<polygon fill="#63b8ff" stroke="#63b8ff" points="2300.03,-194.58 2290.55,-199.32 2300.91,-201.53 2300.03,-194.58"/>
</a>
</g>
</g>
<!-- Node17 -->
<g id="Node000017" class="node">
<title>Node17</title>
<g id="a_Node000017"><a xlink:href="QGCCameraManager_8cc.html" target="_top" xlink:title=" ">
<polygon fill="white" stroke="#666666" points="3528,-156.5 3337,-156.5 3337,-137.5 3528,-137.5 3528,-156.5"/>
<text text-anchor="middle" x="3432.5" y="-144.5" font-family="Helvetica,sans-Serif" font-size="10.00">src/Camera/QGCCameraManager.cc</text>
</a>
</g>
</g>
<!-- Node15&#45;&gt;Node17 -->
<g id="edge24_Node000015_Node000017" class="edge">
<title>Node15&#45;&gt;Node17</title>
<g id="a_edge24_Node000015_Node000017"><a xlink:title=" ">
<path fill="none" stroke="#63b8ff" d="M2300.67,-198.03C2755.29,-141.74 2875.86,-200.29 3328.5,-162 3344.29,-160.66 3361.36,-158.62 3377.02,-156.5"/>
<polygon fill="#63b8ff" stroke="#63b8ff" points="2300.04,-194.58 2290.55,-199.3 2300.91,-201.53 2300.04,-194.58"/>
</a>
</g>
</g>
<!-- Node18 -->
<g id="Node000018" class="node">
<title>Node18</title>
<g id="a_Node000018"><a xlink:href="MockLink_8cc.html" target="_top" xlink:title=" ">
<polygon fill="white" stroke="#666666" points="3667,-162 3546,-162 3546,-132 3667,-132 3667,-162"/>
<text text-anchor="start" x="3554" y="-150" font-family="Helvetica,sans-Serif" font-size="10.00">src/Comms/MockLink</text>
<text text-anchor="middle" x="3606.5" y="-139" font-family="Helvetica,sans-Serif" font-size="10.00">/MockLink.cc</text>
</a>
</g>
</g>
<!-- Node15&#45;&gt;Node18 -->
<g id="edge25_Node000015_Node000018" class="edge">
<title>Node15&#45;&gt;Node18</title>
<g id="a_edge25_Node000015_Node000018"><a xlink:title=" ">
<path fill="none" stroke="#63b8ff" d="M2300.67,-198.04C2847.63,-132.04 2994,-224.57 3537.5,-162 3540.17,-161.69 3542.89,-161.33 3545.64,-160.94"/>
<polygon fill="#63b8ff" stroke="#63b8ff" points="2300.05,-194.59 2290.55,-199.28 2300.9,-201.54 2300.05,-194.59"/>
</a>
</g>
</g>
<!-- Node19 -->
<g id="Node000019" class="node">
<title>Node19</title>
<g id="a_Node000019"><a xlink:href="ParameterManager_8cc.html" target="_top" xlink:title=" ">
<polygon fill="white" stroke="#666666" points="3828,-162 3685,-162 3685,-132 3828,-132 3828,-162"/>
<text text-anchor="start" x="3693" y="-150" font-family="Helvetica,sans-Serif" font-size="10.00">src/FactSystem/Parameter</text>
<text text-anchor="middle" x="3756.5" y="-139" font-family="Helvetica,sans-Serif" font-size="10.00">Manager.cc</text>
</a>
</g>
</g>
<!-- Node15&#45;&gt;Node19 -->
<g id="edge26_Node000015_Node000019" class="edge">
<title>Node15&#45;&gt;Node19</title>
<g id="a_edge26_Node000015_Node000019"><a xlink:title=" ">
<path fill="none" stroke="#63b8ff" d="M2300.89,-198.02C2909.06,-125.36 3070.75,-222.59 3676.5,-162 3679.17,-161.73 3681.88,-161.43 3684.61,-161.09"/>
<polygon fill="#63b8ff" stroke="#63b8ff" points="2300.05,-194.59 2290.54,-199.27 2300.89,-201.54 2300.05,-194.59"/>
</a>
</g>
</g>
<!-- Node20 -->
<g id="Node000020" class="node">
<title>Node20</title>
<g id="a_Node000020"><a xlink:href="FirmwarePlugin_8cc.html" target="_top" xlink:title=" ">
<polygon fill="white" stroke="#666666" points="3956.5,-162 3846.5,-162 3846.5,-132 3956.5,-132 3956.5,-162"/>
<text text-anchor="start" x="3854.5" y="-150" font-family="Helvetica,sans-Serif" font-size="10.00">src/FirmwarePlugin</text>
<text text-anchor="middle" x="3901.5" y="-139" font-family="Helvetica,sans-Serif" font-size="10.00">/FirmwarePlugin.cc</text>
</a>
</g>
</g>
<!-- Node15&#45;&gt;Node20 -->
<g id="edge28_Node000015_Node000020" class="edge">
<title>Node15&#45;&gt;Node20</title>
<g id="a_edge28_Node000015_Node000020"><a xlink:title=" ">
<path fill="none" stroke="#63b8ff" d="M2300.58,-198.06C2980.15,-117.8 3161.94,-243.03 3837.5,-162 3840.44,-161.65 3843.44,-161.22 3846.46,-160.74"/>
<polygon fill="#63b8ff" stroke="#63b8ff" points="2300.06,-194.6 2290.54,-199.26 2300.89,-201.55 2300.06,-194.6"/>
</a>
</g>
</g>
<!-- Node21 -->
<g id="Node000021" class="node">
<title>Node21</title>
<g id="a_Node000021"><a xlink:href="FirmwarePluginFactory_8cc.html" target="_top" xlink:title=" ">
<polygon fill="white" stroke="#666666" points="4118,-162 3975,-162 3975,-132 4118,-132 4118,-162"/>
<text text-anchor="start" x="3983" y="-150" font-family="Helvetica,sans-Serif" font-size="10.00">src/FirmwarePlugin</text>
<text text-anchor="middle" x="4046.5" y="-139" font-family="Helvetica,sans-Serif" font-size="10.00">/FirmwarePluginFactory.cc</text>
</a>
</g>
</g>
<!-- Node15&#45;&gt;Node21 -->
<g id="edge29_Node000015_Node000021" class="edge">
<title>Node15&#45;&gt;Node21</title>
<g id="a_edge29_Node000015_Node000021"><a xlink:title=" ">
<path fill="none" stroke="#63b8ff" d="M2300.6,-198.06C3036.68,-111.56 3231.65,-232.95 3965.5,-162 3968.48,-161.71 3971.52,-161.38 3974.59,-161"/>
<polygon fill="#63b8ff" stroke="#63b8ff" points="2300.06,-194.6 2290.54,-199.25 2300.88,-201.55 2300.06,-194.6"/>
</a>
</g>
</g>
<!-- Node22 -->
<g id="Node000022" class="node">
<title>Node22</title>
<g id="a_Node000022"><a xlink:href="FirmwarePluginManager_8cc.html" target="_top" xlink:title=" ">
<polygon fill="white" stroke="#666666" points="1018,-162 867,-162 867,-132 1018,-132 1018,-162"/>
<text text-anchor="start" x="875" y="-150" font-family="Helvetica,sans-Serif" font-size="10.00">src/FirmwarePlugin</text>
<text text-anchor="middle" x="942.5" y="-139" font-family="Helvetica,sans-Serif" font-size="10.00">/FirmwarePluginManager.cc</text>
</a>
</g>
</g>
<!-- Node15&#45;&gt;Node22 -->
<g id="edge30_Node000015_Node000022" class="edge">
<title>Node15&#45;&gt;Node22</title>
<g id="a_edge30_Node000015_Node000022"><a xlink:title=" ">
<path fill="none" stroke="#63b8ff" d="M2170.31,-212.14C1988.67,-211.9 1461.56,-207.08 1026.5,-162 1023.85,-161.73 1021.16,-161.42 1018.45,-161.09"/>
<polygon fill="#63b8ff" stroke="#63b8ff" points="2170.49,-215.64 2180.5,-212.14 2170.5,-208.64 2170.49,-215.64"/>
</a>
</g>
</g>
<!-- Node23 -->
<g id="Node000023" class="node">
<title>Node23</title>
<g id="a_Node000023"><a xlink:href="PX4FirmwarePlugin_8h.html" target="_top" xlink:title=" ">
<polygon fill="white" stroke="#666666" points="1181,-162 1036,-162 1036,-132 1181,-132 1181,-162"/>
<text text-anchor="start" x="1044" y="-150" font-family="Helvetica,sans-Serif" font-size="10.00">src/FirmwarePlugin</text>
<text text-anchor="middle" x="1108.5" y="-139" font-family="Helvetica,sans-Serif" font-size="10.00">/PX4/PX4FirmwarePlugin.h</text>
</a>
</g>
</g>
<!-- Node15&#45;&gt;Node23 -->
<g id="edge31_Node000015_Node000023" class="edge">
<title>Node15&#45;&gt;Node23</title>
<g id="a_edge31_Node000015_Node000023"><a xlink:title=" ">
<path fill="none" stroke="#63b8ff" d="M2169.84,-211.67C2004.65,-210.23 1558.64,-202.57 1189.5,-162 1186.8,-161.7 1184.06,-161.37 1181.3,-161.02"/>
<polygon fill="#63b8ff" stroke="#63b8ff" points="2170.28,-215.17 2180.31,-211.76 2170.34,-208.17 2170.28,-215.17"/>
</a>
</g>
</g>
<!-- Node15&#45;&gt;Node26 -->
<g id="edge34_Node000015_Node000026" class="edge">
<title>Node15&#45;&gt;Node26</title>
<g id="a_edge34_Node000015_Node000026"><a xlink:title=" ">
<path fill="none" stroke="#63b8ff" d="M2170.21,-210.82C1932.96,-206.34 1116.87,-189.27 857.5,-162 845.3,-160.72 832.15,-158.69 820.11,-156.57"/>
<polygon fill="#63b8ff" stroke="#63b8ff" points="2170.34,-214.32 2180.4,-211.01 2170.47,-207.32 2170.34,-214.32"/>
</a>
</g>
</g>
<!-- Node27 -->
<g id="Node000027" class="node">
<title>Node27</title>
<g id="a_Node000027"><a xlink:href="Joystick_8cc.html" target="_top" xlink:title=" ">
<polygon fill="white" stroke="#666666" points="1326,-156.5 1199,-156.5 1199,-137.5 1326,-137.5 1326,-156.5"/>
<text text-anchor="middle" x="1262.5" y="-144.5" font-family="Helvetica,sans-Serif" font-size="10.00">src/Joystick/Joystick.cc</text>
</a>
</g>
</g>
<!-- Node15&#45;&gt;Node27 -->
<g id="edge35_Node000015_Node000027" class="edge">
<title>Node15&#45;&gt;Node27</title>
<g id="a_edge35_Node000015_Node000027"><a xlink:title=" ">
<path fill="none" stroke="#63b8ff" d="M2170.17,-211.36C2021.45,-209.27 1646.44,-200.28 1335.5,-162 1324.49,-160.64 1312.63,-158.62 1301.75,-156.53"/>
<polygon fill="#63b8ff" stroke="#63b8ff" points="2170.44,-214.87 2180.48,-211.5 2170.53,-207.87 2170.44,-214.87"/>
</a>
</g>
</g>
<!-- Node28 -->
<g id="Node000028" class="node">
<title>Node28</title>
<g id="a_Node000028"><a xlink:href="CameraSection_8cc.html" target="_top" xlink:title=" ">
<polygon fill="white" stroke="#666666" points="1458.5,-162 1344.5,-162 1344.5,-132 1458.5,-132 1458.5,-162"/>
<text text-anchor="start" x="1352.5" y="-150" font-family="Helvetica,sans-Serif" font-size="10.00">src/MissionManager</text>
<text text-anchor="middle" x="1401.5" y="-139" font-family="Helvetica,sans-Serif" font-size="10.00">/CameraSection.cc</text>
</a>
</g>
</g>
<!-- Node15&#45;&gt;Node28 -->
<g id="edge36_Node000015_Node000028" class="edge">
<title>Node15&#45;&gt;Node28</title>
<g id="a_edge36_Node000015_Node000028"><a xlink:title=" ">
<path fill="none" stroke="#63b8ff" d="M2170.27,-210.92C2037.41,-208.01 1726.15,-197.66 1467.5,-162 1464.6,-161.6 1461.64,-161.14 1458.65,-160.65"/>
<polygon fill="#63b8ff" stroke="#63b8ff" points="2170.21,-214.42 2180.28,-211.13 2170.36,-207.42 2170.21,-214.42"/>
</a>
</g>
</g>
<!-- Node29 -->
<g id="Node000029" class="node">
<title>Node29</title>
<g id="a_Node000029"><a xlink:href="MissionCommandTree_8cc.html" target="_top" xlink:title=" ">
<polygon fill="white" stroke="#666666" points="1618,-162 1477,-162 1477,-132 1618,-132 1618,-162"/>
<text text-anchor="start" x="1485" y="-150" font-family="Helvetica,sans-Serif" font-size="10.00">src/MissionManager</text>
<text text-anchor="middle" x="1547.5" y="-139" font-family="Helvetica,sans-Serif" font-size="10.00">/MissionCommandTree.cc</text>
</a>
</g>
</g>
<!-- Node15&#45;&gt;Node29 -->
<g id="edge37_Node000015_Node000029" class="edge">
<title>Node15&#45;&gt;Node29</title>
<g id="a_edge37_Node000015_Node000029"><a xlink:title=" ">
<path fill="none" stroke="#63b8ff" d="M2170.33,-208.6C2058.81,-202.33 1824.36,-187.27 1627.5,-162 1624.42,-161.61 1621.28,-161.17 1618.12,-160.72"/>
<polygon fill="#63b8ff" stroke="#63b8ff" points="2170.23,-212.1 2180.41,-209.16 2170.62,-205.11 2170.23,-212.1"/>
</a>
</g>
</g>
<!-- Node30 -->
<g id="Node000030" class="node">
<title>Node30</title>
<g id="a_Node000030"><a xlink:href="MissionController_8cc.html" target="_top" xlink:title=" ">
<polygon fill="white" stroke="#666666" points="1754.5,-162 1636.5,-162 1636.5,-132 1754.5,-132 1754.5,-162"/>
<text text-anchor="start" x="1644.5" y="-150" font-family="Helvetica,sans-Serif" font-size="10.00">src/MissionManager</text>
<text text-anchor="middle" x="1695.5" y="-139" font-family="Helvetica,sans-Serif" font-size="10.00">/MissionController.cc</text>
</a>
</g>
</g>
<!-- Node15&#45;&gt;Node30 -->
<g id="edge38_Node000015_Node000030" class="edge">
<title>Node15&#45;&gt;Node30</title>
<g id="a_edge38_Node000015_Node000030"><a xlink:title=" ">
<path fill="none" stroke="#63b8ff" d="M2170.21,-207.11C2078.88,-199.81 1907.96,-184.47 1763.5,-162 1760.64,-161.56 1757.72,-161.07 1754.78,-160.56"/>
<polygon fill="#63b8ff" stroke="#63b8ff" points="2170.16,-210.62 2180.41,-207.92 2170.71,-203.64 2170.16,-210.62"/>
</a>
</g>
</g>
<!-- Node31 -->
<g id="Node000031" class="node">
<title>Node31</title>
<g id="a_Node000031"><a xlink:href="MissionFlightStatusCalculator_8cc.html" target="_top" xlink:title=" ">
<polygon fill="white" stroke="#666666" points="1950.5,-162 1772.5,-162 1772.5,-132 1950.5,-132 1950.5,-162"/>
<text text-anchor="start" x="1780.5" y="-150" font-family="Helvetica,sans-Serif" font-size="10.00">src/MissionManager</text>
<text text-anchor="middle" x="1861.5" y="-139" font-family="Helvetica,sans-Serif" font-size="10.00">/MissionFlightStatusCalculator.cc</text>
</a>
</g>
</g>
<!-- Node15&#45;&gt;Node31 -->
<g id="edge39_Node000015_Node000031" class="edge">
<title>Node15&#45;&gt;Node31</title>
<g id="a_edge39_Node000015_Node000031"><a xlink:title=" ">
<path fill="none" stroke="#63b8ff" d="M2170.11,-200.81C2107.12,-190.03 2011.62,-173.69 1943.55,-162.04"/>
<polygon fill="#63b8ff" stroke="#63b8ff" points="2169.87,-204.32 2180.32,-202.56 2171.05,-197.42 2169.87,-204.32"/>
</a>
</g>
</g>
<!-- Node32 -->
<g id="Node000032" class="node">
<title>Node32</title>
<g id="a_Node000032"><a xlink:href="MissionManager_8cc.html" target="_top" xlink:title=" ">
<polygon fill="white" stroke="#666666" points="2082.5,-162 1968.5,-162 1968.5,-132 2082.5,-132 2082.5,-162"/>
<text text-anchor="start" x="1976.5" y="-150" font-family="Helvetica,sans-Serif" font-size="10.00">src/MissionManager</text>
<text text-anchor="middle" x="2025.5" y="-139" font-family="Helvetica,sans-Serif" font-size="10.00">/MissionManager.cc</text>
</a>
</g>
</g>
<!-- Node15&#45;&gt;Node32 -->
<g id="edge40_Node000015_Node000032" class="edge">
<title>Node15&#45;&gt;Node32</title>
<g id="a_edge40_Node000015_Node000032"><a xlink:title=" ">
<path fill="none" stroke="#63b8ff" d="M2179.68,-194.99C2145.89,-184.69 2103.32,-171.72 2071.48,-162.01"/>
<polygon fill="#63b8ff" stroke="#63b8ff" points="2178.83,-198.39 2189.41,-197.95 2180.87,-191.69 2178.83,-198.39"/>
</a>
</g>
</g>
<!-- Node33 -->
<g id="Node000033" class="node">
<title>Node33</title>
<g id="a_Node000033"><a xlink:href="PlanManager_8cc.html" target="_top" xlink:title=" ">
<polygon fill="white" stroke="#666666" points="2214.5,-162 2100.5,-162 2100.5,-132 2214.5,-132 2214.5,-162"/>
<text text-anchor="start" x="2108.5" y="-150" font-family="Helvetica,sans-Serif" font-size="10.00">src/MissionManager</text>
<text text-anchor="middle" x="2157.5" y="-139" font-family="Helvetica,sans-Serif" font-size="10.00">/PlanManager.cc</text>
</a>
</g>
</g>
<!-- Node15&#45;&gt;Node33 -->
<g id="edge41_Node000015_Node000033" class="edge">
<title>Node15&#45;&gt;Node33</title>
<g id="a_edge41_Node000015_Node000033"><a xlink:title=" ">
<path fill="none" stroke="#63b8ff" d="M2210.15,-191.2C2198.57,-181.7 2185.15,-170.69 2174.76,-162.16"/>
<polygon fill="#63b8ff" stroke="#63b8ff" points="2208.24,-194.16 2218.19,-197.8 2212.68,-188.75 2208.24,-194.16"/>
</a>
</g>
</g>
<!-- Node34 -->
<g id="Node000034" class="node">
<title>Node34</title>
<g id="a_Node000034"><a xlink:href="TransectStyleComplexItem_8cc.html" target="_top" xlink:title=" ">
<polygon fill="white" stroke="#666666" points="2396.5,-162 2232.5,-162 2232.5,-132 2396.5,-132 2396.5,-162"/>
<text text-anchor="start" x="2240.5" y="-150" font-family="Helvetica,sans-Serif" font-size="10.00">src/MissionManager</text>
<text text-anchor="middle" x="2314.5" y="-139" font-family="Helvetica,sans-Serif" font-size="10.00">/TransectStyleComplexItem.cc</text>
</a>
</g>
</g>
<!-- Node15&#45;&gt;Node34 -->
<g id="edge42_Node000015_Node000034" class="edge">
<title>Node15&#45;&gt;Node34</title>
<g id="a_edge42_Node000015_Node000034"><a xlink:title=" ">
<path fill="none" stroke="#63b8ff" d="M2260.83,-191.48C2272.64,-181.91 2286.39,-170.77 2297.02,-162.16"/>
<polygon fill="#63b8ff" stroke="#63b8ff" points="2258.6,-188.78 2253.03,-197.8 2263.01,-194.22 2258.6,-188.78"/>
</a>
</g>
</g>
<!-- Node35 -->
<g id="Node000035" class="node">
<title>Node35</title>
<g id="a_Node000035"><a xlink:href="CompInfoParam_8cc.html" target="_top" xlink:title=" ">
<polygon fill="white" stroke="#666666" points="2600,-162 2415,-162 2415,-132 2600,-132 2600,-162"/>
<text text-anchor="start" x="2423" y="-150" font-family="Helvetica,sans-Serif" font-size="10.00">src/Vehicle/ComponentInformation</text>
<text text-anchor="middle" x="2507.5" y="-139" font-family="Helvetica,sans-Serif" font-size="10.00">/CompInfoParam.cc</text>
</a>
</g>
</g>
<!-- Node15&#45;&gt;Node35 -->
<g id="edge43_Node000015_Node000035" class="edge">
<title>Node15&#45;&gt;Node35</title>
<g id="a_edge43_Node000015_Node000035"><a xlink:title=" ">
<path fill="none" stroke="#63b8ff" d="M2300.44,-196.72C2345.2,-186.19 2404.24,-172.3 2447.82,-162.04"/>
<polygon fill="#63b8ff" stroke="#63b8ff" points="2299.48,-193.35 2290.54,-199.05 2301.08,-200.17 2299.48,-193.35"/>
</a>
</g>
</g>
<!-- Node36 -->
<g id="Node000036" class="node">
<title>Node36</title>
<g id="a_Node000036"><a xlink:href="InitialConnectStateMachine_8cc.html" target="_top" xlink:title=" ">
<polygon fill="white" stroke="#666666" points="2635.5,-96 2495.5,-96 2495.5,-66 2635.5,-66 2635.5,-96"/>
<text text-anchor="start" x="2503.5" y="-84" font-family="Helvetica,sans-Serif" font-size="10.00">src/Vehicle/InitialConnect</text>
<text text-anchor="middle" x="2565.5" y="-73" font-family="Helvetica,sans-Serif" font-size="10.00">StateMachine.cc</text>
</a>
</g>
</g>
<!-- Node15&#45;&gt;Node36 -->
<g id="edge44_Node000015_Node000036" class="edge">
<title>Node15&#45;&gt;Node36</title>
<g id="a_edge44_Node000015_Node000036"><a xlink:title=" ">
<path fill="none" stroke="#63b8ff" d="M2300.65,-198.18C2383.42,-188.68 2564.42,-211.52 2608.5,-162 2626.32,-141.98 2601.51,-113.27 2582.83,-96.24"/>
<polygon fill="#63b8ff" stroke="#63b8ff" points="2300.01,-194.74 2290.59,-199.58 2300.98,-201.67 2300.01,-194.74"/>
</a>
</g>
</g>
<!-- Node37 -->
<g id="Node000037" class="node">
<title>Node37</title>
<g id="a_Node000037"><a xlink:href="StandardModes_8h.html" target="_top" xlink:title=" ">
<polygon fill="white" stroke="#666666" points="2813,-156.5 2656,-156.5 2656,-137.5 2813,-137.5 2813,-156.5"/>
<text text-anchor="middle" x="2734.5" y="-144.5" font-family="Helvetica,sans-Serif" font-size="10.00">src/Vehicle/StandardModes.h</text>
</a>
</g>
</g>
<!-- Node15&#45;&gt;Node37 -->
<g id="edge45_Node000015_Node000037" class="edge">
<title>Node15&#45;&gt;Node37</title>
<g id="a_edge45_Node000015_Node000037"><a xlink:title=" ">
<path fill="none" stroke="#63b8ff" d="M2300.72,-197.92C2452.13,-173.95 2493.15,-180.96 2641.5,-162 2654.13,-160.39 2667.7,-158.45 2680.46,-156.55"/>
<polygon fill="#63b8ff" stroke="#63b8ff" points="2299.9,-194.51 2290.58,-199.55 2301.01,-201.42 2299.9,-194.51"/>
</a>
</g>
</g>
<!-- Node39 -->
<g id="Node000039" class="node">
<title>Node39</title>
<g id="a_Node000039"><a xlink:href="Vehicle_8cc.html" target="_top" xlink:title=" ">
<polygon fill="white" stroke="#666666" points="2954,-90.5 2833,-90.5 2833,-71.5 2954,-71.5 2954,-90.5"/>
<text text-anchor="middle" x="2893.5" y="-78.5" font-family="Helvetica,sans-Serif" font-size="10.00">src/Vehicle/Vehicle.cc</text>
</a>
</g>
</g>
<!-- Node15&#45;&gt;Node39 -->
<g id="edge49_Node000015_Node000039" class="edge">
<title>Node15&#45;&gt;Node39</title>
<g id="a_edge49_Node000015_Node000039"><a xlink:title=" ">
<path fill="none" stroke="#63b8ff" d="M2300.74,-198.1C2430.41,-183.13 2719.73,-211.59 2821.5,-162 2854.26,-146.04 2878.89,-107.98 2888.76,-90.74"/>
<polygon fill="#63b8ff" stroke="#63b8ff" points="2300.03,-194.67 2290.56,-199.42 2300.93,-201.61 2300.03,-194.67"/>
</a>
</g>
</g>
<!-- Node40 -->
<g id="Node000040" class="node">
<title>Node40</title>
<g id="a_Node000040"><a xlink:href="FirmwareImage_8cc.html" target="_top" xlink:title=" ">
<polygon fill="white" stroke="#666666" points="3005,-162 2870,-162 2870,-132 3005,-132 3005,-162"/>
<text text-anchor="start" x="2878" y="-150" font-family="Helvetica,sans-Serif" font-size="10.00">src/Vehicle/VehicleSetup</text>
<text text-anchor="middle" x="2937.5" y="-139" font-family="Helvetica,sans-Serif" font-size="10.00">/FirmwareImage.cc</text>
</a>
</g>
</g>
<!-- Node15&#45;&gt;Node40 -->
<g id="edge50_Node000015_Node000040" class="edge">
<title>Node15&#45;&gt;Node40</title>
<g id="a_edge50_Node000015_Node000040"><a xlink:title=" ">
<path fill="none" stroke="#63b8ff" d="M2300.52,-198.01C2546.45,-164.16 2612.8,-190.5 2855.5,-162 2860.09,-161.46 2864.81,-160.84 2869.57,-160.16"/>
<polygon fill="#63b8ff" stroke="#63b8ff" points="2299.98,-194.55 2290.56,-199.4 2300.95,-201.49 2299.98,-194.55"/>
</a>
</g>
</g>
<!-- Node41 -->
<g id="Node000041" class="node">
<title>Node41</title>
<g id="a_Node000041"><a xlink:href="VehicleSupports_8cc.html" target="_top" xlink:title=" ">
<polygon fill="white" stroke="#666666" points="3187.5,-156.5 3023.5,-156.5 3023.5,-137.5 3187.5,-137.5 3187.5,-156.5"/>
<text text-anchor="middle" x="3105.5" y="-144.5" font-family="Helvetica,sans-Serif" font-size="10.00">src/Vehicle/VehicleSupports.cc</text>
</a>
</g>
</g>
<!-- Node15&#45;&gt;Node41 -->
<g id="edge51_Node000015_Node000041" class="edge">
<title>Node15&#45;&gt;Node41</title>
<g id="a_edge51_Node000015_Node000041"><a xlink:title=" ">
<path fill="none" stroke="#63b8ff" d="M2300.92,-197.98C2616.69,-156.68 2701.36,-193.89 3014.5,-162 3028.02,-160.62 3042.59,-158.62 3056.03,-156.55"/>
<polygon fill="#63b8ff" stroke="#63b8ff" points="2300.01,-194.57 2290.56,-199.35 2300.93,-201.51 2300.01,-194.57"/>
</a>
</g>
</g>
<!-- Node24 -->
<g id="Node000024" class="node">
<title>Node24</title>
<g id="a_Node000024"><a xlink:href="PX4FirmwarePlugin_8cc.html" target="_top" xlink:title=" ">
<polygon fill="white" stroke="#666666" points="1183,-96 1034,-96 1034,-66 1183,-66 1183,-96"/>
<text text-anchor="start" x="1042" y="-84" font-family="Helvetica,sans-Serif" font-size="10.00">src/FirmwarePlugin</text>
<text text-anchor="middle" x="1108.5" y="-73" font-family="Helvetica,sans-Serif" font-size="10.00">/PX4/PX4FirmwarePlugin.cc</text>
</a>
</g>
</g>
<!-- Node23&#45;&gt;Node24 -->
<g id="edge32_Node000023_Node000024" class="edge">
<title>Node23&#45;&gt;Node24</title>
<g id="a_edge32_Node000023_Node000024"><a xlink:title=" ">
<path fill="none" stroke="#63b8ff" d="M1108.5,-121.54C1108.5,-112.96 1108.5,-103.61 1108.5,-96.16"/>
<polygon fill="#63b8ff" stroke="#63b8ff" points="1105,-121.8 1108.5,-131.8 1112,-121.8 1105,-121.8"/>
</a>
</g>
</g>
<!-- Node25 -->
<g id="Node000025" class="node">
<title>Node25</title>
<g id="a_Node000025"><a xlink:href="PX4FirmwarePluginFactory_8cc.html" target="_top" xlink:title=" ">
<polygon fill="white" stroke="#666666" points="1384,-96 1201,-96 1201,-66 1384,-66 1384,-96"/>
<text text-anchor="start" x="1209" y="-84" font-family="Helvetica,sans-Serif" font-size="10.00">src/FirmwarePlugin</text>
<text text-anchor="middle" x="1292.5" y="-73" font-family="Helvetica,sans-Serif" font-size="10.00">/PX4/PX4FirmwarePluginFactory.cc</text>
</a>
</g>
</g>
<!-- Node23&#45;&gt;Node25 -->
<g id="edge33_Node000023_Node000025" class="edge">
<title>Node23&#45;&gt;Node25</title>
<g id="a_edge33_Node000023_Node000025"><a xlink:title=" ">
<path fill="none" stroke="#63b8ff" d="M1158.55,-128.59C1187.97,-118.36 1224.67,-105.59 1252.21,-96.01"/>
<polygon fill="#63b8ff" stroke="#63b8ff" points="1157.17,-125.36 1148.88,-131.95 1159.47,-131.98 1157.17,-125.36"/>
</a>
</g>
</g>
<!-- Node37&#45;&gt;Node36 -->
<g id="edge46_Node000037_Node000036" class="edge">
<title>Node37&#45;&gt;Node36</title>
<g id="a_edge46_Node000037_Node000036"><a xlink:title=" ">
<path fill="none" stroke="#63b8ff" d="M2702.25,-133.79C2673.87,-123.04 2632.56,-107.4 2602.77,-96.12"/>
<polygon fill="#63b8ff" stroke="#63b8ff" points="2701.12,-137.1 2711.71,-137.37 2703.6,-130.55 2701.12,-137.1"/>
</a>
</g>
</g>
<!-- Node38 -->
<g id="Node000038" class="node">
<title>Node38</title>
<g id="a_Node000038"><a xlink:href="StandardModes_8cc.html" target="_top" xlink:title=" ">
<polygon fill="white" stroke="#666666" points="2815,-90.5 2654,-90.5 2654,-71.5 2815,-71.5 2815,-90.5"/>
<text text-anchor="middle" x="2734.5" y="-78.5" font-family="Helvetica,sans-Serif" font-size="10.00">src/Vehicle/StandardModes.cc</text>
</a>
</g>
</g>
<!-- Node37&#45;&gt;Node38 -->
<g id="edge47_Node000037_Node000038" class="edge">
<title>Node37&#45;&gt;Node38</title>
<g id="a_edge47_Node000037_Node000038"><a xlink:title=" ">
<path fill="none" stroke="#63b8ff" d="M2734.5,-127.08C2734.5,-115.13 2734.5,-100.22 2734.5,-90.91"/>
<polygon fill="#63b8ff" stroke="#63b8ff" points="2731,-127.37 2734.5,-137.37 2738,-127.37 2731,-127.37"/>
</a>
</g>
</g>
<!-- Node37&#45;&gt;Node39 -->
<g id="edge48_Node000037_Node000039" class="edge">
<title>Node37&#45;&gt;Node39</title>
<g id="a_edge48_Node000037_Node000039"><a xlink:title=" ">
<path fill="none" stroke="#63b8ff" d="M2765.53,-133.51C2796.95,-120.86 2844.73,-101.63 2872.14,-90.6"/>
<polygon fill="#63b8ff" stroke="#63b8ff" points="2763.91,-130.39 2755.94,-137.37 2766.53,-136.88 2763.91,-130.39"/>
</a>
</g>
</g>
</g>
</svg>
