<?xml version="1.0" encoding="UTF-8" standalone="no"?>
<!DOCTYPE svg PUBLIC "-//W3C//DTD SVG 1.1//EN"
 "http://www.w3.org/Graphics/SVG/1.1/DTD/svg11.dtd">
<!-- Generated by graphviz version 2.43.0 (0)
 -->
<!-- Title: src/FollowMe/FollowMe.h Pages: 1 -->
<svg width="3594pt" height="291pt"
 viewBox="0.00 0.00 3594.00 291.00" xmlns="http://www.w3.org/2000/svg" xmlns:xlink="http://www.w3.org/1999/xlink">
<g id="graph0" class="graph" transform="scale(1 1) rotate(0) translate(4 287)">
<title>src/FollowMe/FollowMe.h</title>
<!-- Node1 -->
<g id="Node000001" class="node">
<title>Node1</title>
<g id="a_Node000001"><a xlink:title=" ">
<polygon fill="#999999" stroke="#666666" points="1735,-283 1596,-283 1596,-264 1735,-264 1735,-283"/>
<text text-anchor="middle" x="1665.5" y="-271" font-family="Helvetica,sans-Serif" font-size="10.00">src/FollowMe/FollowMe.h</text>
</a>
</g>
</g>
<!-- Node2 -->
<g id="Node000002" class="node">
<title>Node2</title>
<g id="a_Node000002"><a xlink:href="APMFirmwarePlugin_8h.html" target="_top" xlink:title=" ">
<polygon fill="white" stroke="#666666" points="688,-162 537,-162 537,-132 688,-132 688,-162"/>
<text text-anchor="start" x="545" y="-150" font-family="Helvetica,sans-Serif" font-size="10.00">src/FirmwarePlugin</text>
<text text-anchor="middle" x="612.5" y="-139" font-family="Helvetica,sans-Serif" font-size="10.00">/APM/APMFirmwarePlugin.h</text>
</a>
</g>
</g>
<!-- Node1&#45;&gt;Node2 -->
<g id="edge1_Node000001_Node000002" class="edge">
<title>Node1&#45;&gt;Node2</title>
<g id="a_edge1_Node000001_Node000002"><a xlink:title=" ">
<path fill="none" stroke="#63b8ff" d="M1585.77,-268.39C1475.68,-262.24 1271.04,-249.04 1097.5,-228 918.19,-206.26 874.69,-191.51 696.5,-162 693.73,-161.54 690.91,-161.07 688.05,-160.6"/>
<polygon fill="#63b8ff" stroke="#63b8ff" points="1585.62,-271.89 1595.8,-268.95 1586.01,-264.9 1585.62,-271.89"/>
</a>
</g>
</g>
<!-- Node15 -->
<g id="Node000015" class="node">
<title>Node15</title>
<g id="a_Node000015"><a xlink:href="FirmwarePlugin_8h.html" target="_top" xlink:title=" ">
<polygon fill="white" stroke="#666666" points="2016.5,-228 1906.5,-228 1906.5,-198 2016.5,-198 2016.5,-228"/>
<text text-anchor="start" x="1914.5" y="-216" font-family="Helvetica,sans-Serif" font-size="10.00">src/FirmwarePlugin</text>
<text text-anchor="middle" x="1961.5" y="-205" font-family="Helvetica,sans-Serif" font-size="10.00">/FirmwarePlugin.h</text>
</a>
</g>
</g>
<!-- Node1&#45;&gt;Node15 -->
<g id="edge22_Node000001_Node000015" class="edge">
<title>Node1&#45;&gt;Node15</title>
<g id="a_edge22_Node000001_Node000015"><a xlink:title=" ">
<path fill="none" stroke="#63b8ff" d="M1718.42,-262.04C1771.39,-251.57 1852.54,-235.53 1906.3,-224.91"/>
<polygon fill="#63b8ff" stroke="#63b8ff" points="1717.67,-258.62 1708.54,-263.99 1719.03,-265.49 1717.67,-258.62"/>
</a>
</g>
</g>
<!-- Node26 -->
<g id="Node000026" class="node">
<title>Node26</title>
<g id="a_Node000026"><a xlink:href="FollowMe_8cc.html" target="_top" xlink:title=" ">
<polygon fill="white" stroke="#666666" points="849,-156.5 706,-156.5 706,-137.5 849,-137.5 849,-156.5"/>
<text text-anchor="middle" x="777.5" y="-144.5" font-family="Helvetica,sans-Serif" font-size="10.00">src/FollowMe/FollowMe.cc</text>
</a>
</g>
</g>
<!-- Node1&#45;&gt;Node26 -->
<g id="edge49_Node000001_Node000026" class="edge">
<title>Node1&#45;&gt;Node26</title>
<g id="a_edge49_Node000001_Node000026"><a xlink:title=" ">
<path fill="none" stroke="#63b8ff" d="M1586.62,-262.71C1441.88,-244.51 1124.24,-203.56 857.5,-162 846.77,-160.33 835.26,-158.4 824.41,-156.51"/>
<polygon fill="#63b8ff" stroke="#63b8ff" points="1586.38,-266.2 1596.74,-263.98 1587.25,-259.26 1586.38,-266.2"/>
</a>
</g>
</g>
<!-- Node39 -->
<g id="Node000039" class="node">
<title>Node39</title>
<g id="a_Node000039"><a xlink:href="QGCApplication_8cc.html" target="_top" xlink:title=" ">
<polygon fill="white" stroke="#666666" points="2158.5,-222.5 2034.5,-222.5 2034.5,-203.5 2158.5,-203.5 2158.5,-222.5"/>
<text text-anchor="middle" x="2096.5" y="-210.5" font-family="Helvetica,sans-Serif" font-size="10.00">src/QGCApplication.cc</text>
</a>
</g>
</g>
<!-- Node1&#45;&gt;Node39 -->
<g id="edge50_Node000001_Node000039" class="edge">
<title>Node1&#45;&gt;Node39</title>
<g id="a_edge50_Node000001_Node000039"><a xlink:title=" ">
<path fill="none" stroke="#63b8ff" d="M1745.12,-264.32C1818.22,-256.41 1929.44,-243.39 2025.5,-228 2035.3,-226.43 2045.81,-224.5 2055.67,-222.57"/>
<polygon fill="#63b8ff" stroke="#63b8ff" points="1744.63,-260.85 1735.06,-265.4 1745.38,-267.81 1744.63,-260.85"/>
</a>
</g>
</g>
<!-- Node3 -->
<g id="Node000003" class="node">
<title>Node3</title>
<g id="a_Node000003"><a xlink:href="APMFirmwarePlugin_8cc.html" target="_top" xlink:title=" ">
<polygon fill="white" stroke="#666666" points="356,-30 201,-30 201,0 356,0 356,-30"/>
<text text-anchor="start" x="209" y="-18" font-family="Helvetica,sans-Serif" font-size="10.00">src/FirmwarePlugin</text>
<text text-anchor="middle" x="278.5" y="-7" font-family="Helvetica,sans-Serif" font-size="10.00">/APM/APMFirmwarePlugin.cc</text>
</a>
</g>
</g>
<!-- Node2&#45;&gt;Node3 -->
<g id="edge2_Node000002_Node000003" class="edge">
<title>Node2&#45;&gt;Node3</title>
<g id="a_edge2_Node000002_Node000003"><a xlink:title=" ">
<path fill="none" stroke="#63b8ff" d="M526.35,-140.39C421.84,-132.7 257.18,-117.35 238.5,-96 221.11,-76.14 244.46,-47.38 262.1,-30.29"/>
<polygon fill="#63b8ff" stroke="#63b8ff" points="526.36,-143.9 536.59,-141.14 526.87,-136.92 526.36,-143.9"/>
</a>
</g>
</g>
<!-- Node4 -->
<g id="Node000004" class="node">
<title>Node4</title>
<g id="a_Node000004"><a xlink:href="ArduCopterFirmwarePlugin_8h.html" target="_top" xlink:title=" ">
<polygon fill="white" stroke="#666666" points="817.5,-96 633.5,-96 633.5,-66 817.5,-66 817.5,-96"/>
<text text-anchor="start" x="641.5" y="-84" font-family="Helvetica,sans-Serif" font-size="10.00">src/FirmwarePlugin</text>
<text text-anchor="middle" x="725.5" y="-73" font-family="Helvetica,sans-Serif" font-size="10.00">/APM/ArduCopterFirmwarePlugin.h</text>
</a>
</g>
</g>
<!-- Node2&#45;&gt;Node4 -->
<g id="edge3_Node000002_Node000004" class="edge">
<title>Node2&#45;&gt;Node4</title>
<g id="a_edge3_Node000002_Node000004"><a xlink:title=" ">
<path fill="none" stroke="#63b8ff" d="M646.1,-126.97C663.64,-117.03 684.73,-105.09 700.76,-96.01"/>
<polygon fill="#63b8ff" stroke="#63b8ff" points="644.27,-123.98 637.3,-131.95 647.72,-130.07 644.27,-123.98"/>
</a>
</g>
</g>
<!-- Node8 -->
<g id="Node000008" class="node">
<title>Node8</title>
<g id="a_Node000008"><a xlink:href="ArduPlaneFirmwarePlugin_8h.html" target="_top" xlink:title=" ">
<polygon fill="white" stroke="#666666" points="427,-96 248,-96 248,-66 427,-66 427,-96"/>
<text text-anchor="start" x="256" y="-84" font-family="Helvetica,sans-Serif" font-size="10.00">src/FirmwarePlugin</text>
<text text-anchor="middle" x="337.5" y="-73" font-family="Helvetica,sans-Serif" font-size="10.00">/APM/ArduPlaneFirmwarePlugin.h</text>
</a>
</g>
</g>
<!-- Node2&#45;&gt;Node8 -->
<g id="edge8_Node000002_Node000008" class="edge">
<title>Node2&#45;&gt;Node8</title>
<g id="a_edge8_Node000002_Node000008"><a xlink:title=" ">
<path fill="none" stroke="#63b8ff" d="M542.24,-129.65C497.56,-119.25 440.3,-105.93 397.71,-96.01"/>
<polygon fill="#63b8ff" stroke="#63b8ff" points="541.62,-133.1 552.15,-131.95 543.2,-126.28 541.62,-133.1"/>
</a>
</g>
</g>
<!-- Node10 -->
<g id="Node000010" class="node">
<title>Node10</title>
<g id="a_Node000010"><a xlink:href="ArduRoverFirmwarePlugin_8h.html" target="_top" xlink:title=" ">
<polygon fill="white" stroke="#666666" points="1015.5,-96 835.5,-96 835.5,-66 1015.5,-66 1015.5,-96"/>
<text text-anchor="start" x="843.5" y="-84" font-family="Helvetica,sans-Serif" font-size="10.00">src/FirmwarePlugin</text>
<text text-anchor="middle" x="925.5" y="-73" font-family="Helvetica,sans-Serif" font-size="10.00">/APM/ArduRoverFirmwarePlugin.h</text>
</a>
</g>
</g>
<!-- Node2&#45;&gt;Node10 -->
<g id="edge12_Node000002_Node000010" class="edge">
<title>Node2&#45;&gt;Node10</title>
<g id="a_edge12_Node000002_Node000010"><a xlink:title=" ">
<path fill="none" stroke="#63b8ff" d="M691.19,-129.91C742.23,-119.47 808.08,-106.01 856.97,-96.01"/>
<polygon fill="#63b8ff" stroke="#63b8ff" points="690.29,-126.52 681.19,-131.95 691.69,-133.38 690.29,-126.52"/>
</a>
</g>
</g>
<!-- Node13 -->
<g id="Node000013" class="node">
<title>Node13</title>
<g id="a_Node000013"><a xlink:href="ArduSubFirmwarePlugin_8h.html" target="_top" xlink:title=" ">
<polygon fill="white" stroke="#666666" points="615.5,-96 445.5,-96 445.5,-66 615.5,-66 615.5,-96"/>
<text text-anchor="start" x="453.5" y="-84" font-family="Helvetica,sans-Serif" font-size="10.00">src/FirmwarePlugin</text>
<text text-anchor="middle" x="530.5" y="-73" font-family="Helvetica,sans-Serif" font-size="10.00">/APM/ArduSubFirmwarePlugin.h</text>
</a>
</g>
</g>
<!-- Node2&#45;&gt;Node13 -->
<g id="edge18_Node000002_Node000013" class="edge">
<title>Node2&#45;&gt;Node13</title>
<g id="a_edge18_Node000002_Node000013"><a xlink:title=" ">
<path fill="none" stroke="#63b8ff" d="M586.21,-125.48C573.95,-115.91 559.68,-104.77 548.65,-96.16"/>
<polygon fill="#63b8ff" stroke="#63b8ff" points="584.26,-128.4 594.3,-131.8 588.57,-122.88 584.26,-128.4"/>
</a>
</g>
</g>
<!-- Node4&#45;&gt;Node3 -->
<g id="edge5_Node000004_Node000003" class="edge">
<title>Node4&#45;&gt;Node3</title>
<g id="a_edge5_Node000004_Node000003"><a xlink:title=" ">
<path fill="none" stroke="#63b8ff" d="M623.22,-65.82C519.07,-51.38 371.92,-30.96 365.5,-30 362.47,-29.55 359.39,-29.08 356.28,-28.6"/>
<polygon fill="#63b8ff" stroke="#63b8ff" points="622.77,-69.29 633.16,-67.2 623.73,-62.36 622.77,-69.29"/>
</a>
</g>
</g>
<!-- Node5 -->
<g id="Node000005" class="node">
<title>Node5</title>
<g id="a_Node000005"><a xlink:href="APMAirframeComponentController_8cc.html" target="_top" xlink:title=" ">
<polygon fill="white" stroke="#666666" points="1206.5,-30 980.5,-30 980.5,0 1206.5,0 1206.5,-30"/>
<text text-anchor="start" x="988.5" y="-18" font-family="Helvetica,sans-Serif" font-size="10.00">src/AutoPilotPlugins</text>
<text text-anchor="middle" x="1093.5" y="-7" font-family="Helvetica,sans-Serif" font-size="10.00">/APM/APMAirframeComponentController.cc</text>
</a>
</g>
</g>
<!-- Node4&#45;&gt;Node5 -->
<g id="edge4_Node000004_Node000005" class="edge">
<title>Node4&#45;&gt;Node5</title>
<g id="a_edge4_Node000004_Node000005"><a xlink:title=" ">
<path fill="none" stroke="#63b8ff" d="M816.15,-64.24C876.41,-53.75 954.85,-40.11 1012.93,-30.01"/>
<polygon fill="#63b8ff" stroke="#63b8ff" points="815.51,-60.79 806.26,-65.95 816.71,-67.69 815.51,-60.79"/>
</a>
</g>
</g>
<!-- Node6 -->
<g id="Node000006" class="node">
<title>Node6</title>
<g id="a_Node000006"><a xlink:href="APMFirmwarePluginFactory_8cc.html" target="_top" xlink:title=" ">
<polygon fill="white" stroke="#666666" points="756,-30 567,-30 567,0 756,0 756,-30"/>
<text text-anchor="start" x="575" y="-18" font-family="Helvetica,sans-Serif" font-size="10.00">src/FirmwarePlugin</text>
<text text-anchor="middle" x="661.5" y="-7" font-family="Helvetica,sans-Serif" font-size="10.00">/APM/APMFirmwarePluginFactory.cc</text>
</a>
</g>
</g>
<!-- Node4&#45;&gt;Node6 -->
<g id="edge6_Node000004_Node000006" class="edge">
<title>Node4&#45;&gt;Node6</title>
<g id="a_edge6_Node000004_Node000006"><a xlink:title=" ">
<path fill="none" stroke="#63b8ff" d="M704.15,-58.65C694.77,-49.27 684.03,-38.53 675.66,-30.16"/>
<polygon fill="#63b8ff" stroke="#63b8ff" points="701.75,-61.2 711.3,-65.8 706.7,-56.25 701.75,-61.2"/>
</a>
</g>
</g>
<!-- Node7 -->
<g id="Node000007" class="node">
<title>Node7</title>
<g id="a_Node000007"><a xlink:href="ArduCopterFirmwarePlugin_8cc.html" target="_top" xlink:title=" ">
<polygon fill="white" stroke="#666666" points="962.5,-30 774.5,-30 774.5,0 962.5,0 962.5,-30"/>
<text text-anchor="start" x="782.5" y="-18" font-family="Helvetica,sans-Serif" font-size="10.00">src/FirmwarePlugin</text>
<text text-anchor="middle" x="868.5" y="-7" font-family="Helvetica,sans-Serif" font-size="10.00">/APM/ArduCopterFirmwarePlugin.cc</text>
</a>
</g>
</g>
<!-- Node4&#45;&gt;Node7 -->
<g id="edge7_Node000004_Node000007" class="edge">
<title>Node4&#45;&gt;Node7</title>
<g id="a_edge7_Node000004_Node000007"><a xlink:title=" ">
<path fill="none" stroke="#63b8ff" d="M766.2,-61.78C788.75,-51.69 816.34,-39.34 837.19,-30.01"/>
<polygon fill="#63b8ff" stroke="#63b8ff" points="764.58,-58.68 756.88,-65.95 767.44,-65.06 764.58,-58.68"/>
</a>
</g>
</g>
<!-- Node8&#45;&gt;Node3 -->
<g id="edge9_Node000008_Node000003" class="edge">
<title>Node8&#45;&gt;Node3</title>
<g id="a_edge9_Node000008_Node000003"><a xlink:title=" ">
<path fill="none" stroke="#63b8ff" d="M317.56,-58.37C308.98,-49.06 299.19,-38.44 291.56,-30.16"/>
<polygon fill="#63b8ff" stroke="#63b8ff" points="315.05,-60.82 324.41,-65.8 320.2,-56.07 315.05,-60.82"/>
</a>
</g>
</g>
<!-- Node8&#45;&gt;Node6 -->
<g id="edge10_Node000008_Node000006" class="edge">
<title>Node8&#45;&gt;Node6</title>
<g id="a_edge10_Node000008_Node000006"><a xlink:title=" ">
<path fill="none" stroke="#63b8ff" d="M418.63,-63.98C471.51,-53.53 539.85,-40.03 590.56,-30.01"/>
<polygon fill="#63b8ff" stroke="#63b8ff" points="417.74,-60.58 408.6,-65.95 419.09,-67.45 417.74,-60.58"/>
</a>
</g>
</g>
<!-- Node9 -->
<g id="Node000009" class="node">
<title>Node9</title>
<g id="a_Node000009"><a xlink:href="ArduPlaneFirmwarePlugin_8cc.html" target="_top" xlink:title=" ">
<polygon fill="white" stroke="#666666" points="183,-30 0,-30 0,0 183,0 183,-30"/>
<text text-anchor="start" x="8" y="-18" font-family="Helvetica,sans-Serif" font-size="10.00">src/FirmwarePlugin</text>
<text text-anchor="middle" x="91.5" y="-7" font-family="Helvetica,sans-Serif" font-size="10.00">/APM/ArduPlaneFirmwarePlugin.cc</text>
</a>
</g>
</g>
<!-- Node8&#45;&gt;Node9 -->
<g id="edge11_Node000008_Node000009" class="edge">
<title>Node8&#45;&gt;Node9</title>
<g id="a_edge11_Node000008_Node000009"><a xlink:title=" ">
<path fill="none" stroke="#63b8ff" d="M273.64,-63.39C233.82,-53.03 183.14,-39.84 145.36,-30.01"/>
<polygon fill="#63b8ff" stroke="#63b8ff" points="272.96,-66.82 283.51,-65.95 274.72,-60.05 272.96,-66.82"/>
</a>
</g>
</g>
<!-- Node10&#45;&gt;Node3 -->
<g id="edge15_Node000010_Node000003" class="edge">
<title>Node10&#45;&gt;Node3</title>
<g id="a_edge15_Node000010_Node000003"><a xlink:title=" ">
<path fill="none" stroke="#63b8ff" d="M825.24,-65.91C620.48,-43.94 566.28,-53.95 365.5,-30 362.46,-29.64 359.37,-29.25 356.24,-28.83"/>
<polygon fill="#63b8ff" stroke="#63b8ff" points="825.1,-69.42 835.42,-67.02 825.86,-62.46 825.1,-69.42"/>
</a>
</g>
</g>
<!-- Node10&#45;&gt;Node5 -->
<g id="edge13_Node000010_Node000005" class="edge">
<title>Node10&#45;&gt;Node5</title>
<g id="a_edge13_Node000010_Node000005"><a xlink:title=" ">
<path fill="none" stroke="#63b8ff" d="M971.9,-62.32C998.64,-52.14 1031.79,-39.51 1056.72,-30.01"/>
<polygon fill="#63b8ff" stroke="#63b8ff" points="970.47,-59.12 962.37,-65.95 972.96,-65.67 970.47,-59.12"/>
</a>
</g>
</g>
<!-- Node10&#45;&gt;Node6 -->
<g id="edge16_Node000010_Node000006" class="edge">
<title>Node10&#45;&gt;Node6</title>
<g id="a_edge16_Node000010_Node000006"><a xlink:title=" ">
<path fill="none" stroke="#63b8ff" d="M857.78,-63.58C814.92,-53.19 760.11,-39.9 719.3,-30.01"/>
<polygon fill="#63b8ff" stroke="#63b8ff" points="857.02,-67 867.56,-65.95 858.67,-60.2 857.02,-67"/>
</a>
</g>
</g>
<!-- Node11 -->
<g id="Node000011" class="node">
<title>Node11</title>
<g id="a_Node000011"><a xlink:href="APMFollowComponentController_8cc.html" target="_top" xlink:title=" ">
<polygon fill="white" stroke="#666666" points="1440,-30 1225,-30 1225,0 1440,0 1440,-30"/>
<text text-anchor="start" x="1233" y="-18" font-family="Helvetica,sans-Serif" font-size="10.00">src/AutoPilotPlugins</text>
<text text-anchor="middle" x="1332.5" y="-7" font-family="Helvetica,sans-Serif" font-size="10.00">/APM/APMFollowComponentController.cc</text>
</a>
</g>
</g>
<!-- Node10&#45;&gt;Node11 -->
<g id="edge14_Node000010_Node000011" class="edge">
<title>Node10&#45;&gt;Node11</title>
<g id="a_edge14_Node000010_Node000011"><a xlink:title=" ">
<path fill="none" stroke="#63b8ff" d="M1024.68,-64.4C1091.43,-53.91 1178.71,-40.18 1243.28,-30.03"/>
<polygon fill="#63b8ff" stroke="#63b8ff" points="1023.9,-60.98 1014.57,-65.99 1024.99,-67.9 1023.9,-60.98"/>
</a>
</g>
</g>
<!-- Node12 -->
<g id="Node000012" class="node">
<title>Node12</title>
<g id="a_Node000012"><a xlink:href="ArduRoverFirmwarePlugin_8cc.html" target="_top" xlink:title=" ">
<polygon fill="white" stroke="#666666" points="1643,-30 1458,-30 1458,0 1643,0 1643,-30"/>
<text text-anchor="start" x="1466" y="-18" font-family="Helvetica,sans-Serif" font-size="10.00">src/FirmwarePlugin</text>
<text text-anchor="middle" x="1550.5" y="-7" font-family="Helvetica,sans-Serif" font-size="10.00">/APM/ArduRoverFirmwarePlugin.cc</text>
</a>
</g>
</g>
<!-- Node10&#45;&gt;Node12 -->
<g id="edge17_Node000010_Node000012" class="edge">
<title>Node10&#45;&gt;Node12</title>
<g id="a_edge17_Node000010_Node000012"><a xlink:title=" ">
<path fill="none" stroke="#63b8ff" d="M1025.54,-65.93C1214.11,-44.95 1263.74,-50.51 1448.5,-30 1451.61,-29.65 1454.77,-29.29 1457.96,-28.91"/>
<polygon fill="#63b8ff" stroke="#63b8ff" points="1025.13,-62.45 1015.58,-67.04 1025.91,-69.41 1025.13,-62.45"/>
</a>
</g>
</g>
<!-- Node13&#45;&gt;Node3 -->
<g id="edge19_Node000013_Node000003" class="edge">
<title>Node13&#45;&gt;Node3</title>
<g id="a_edge19_Node000013_Node000003"><a xlink:title=" ">
<path fill="none" stroke="#63b8ff" d="M465.34,-63.45C424.51,-53.08 372.46,-39.86 333.67,-30.01"/>
<polygon fill="#63b8ff" stroke="#63b8ff" points="464.64,-66.89 475.2,-65.95 466.37,-60.1 464.64,-66.89"/>
</a>
</g>
</g>
<!-- Node13&#45;&gt;Node6 -->
<g id="edge20_Node000013_Node000006" class="edge">
<title>Node13&#45;&gt;Node6</title>
<g id="a_edge20_Node000013_Node000006"><a xlink:title=" ">
<path fill="none" stroke="#63b8ff" d="M568.34,-61.51C588.89,-51.47 613.89,-39.26 632.82,-30.01"/>
<polygon fill="#63b8ff" stroke="#63b8ff" points="566.7,-58.42 559.25,-65.95 569.77,-64.71 566.7,-58.42"/>
</a>
</g>
</g>
<!-- Node14 -->
<g id="Node000014" class="node">
<title>Node14</title>
<g id="a_Node000014"><a xlink:href="ArduSubFirmwarePlugin_8cc.html" target="_top" xlink:title=" ">
<polygon fill="white" stroke="#666666" points="548.5,-30 374.5,-30 374.5,0 548.5,0 548.5,-30"/>
<text text-anchor="start" x="382.5" y="-18" font-family="Helvetica,sans-Serif" font-size="10.00">src/FirmwarePlugin</text>
<text text-anchor="middle" x="461.5" y="-7" font-family="Helvetica,sans-Serif" font-size="10.00">/APM/ArduSubFirmwarePlugin.cc</text>
</a>
</g>
</g>
<!-- Node13&#45;&gt;Node14 -->
<g id="edge21_Node000013_Node000014" class="edge">
<title>Node13&#45;&gt;Node14</title>
<g id="a_edge21_Node000013_Node000014"><a xlink:title=" ">
<path fill="none" stroke="#63b8ff" d="M507.78,-58.92C497.6,-49.49 485.87,-38.61 476.77,-30.16"/>
<polygon fill="#63b8ff" stroke="#63b8ff" points="505.47,-61.56 515.19,-65.8 510.24,-56.43 505.47,-61.56"/>
</a>
</g>
</g>
<!-- Node15&#45;&gt;Node2 -->
<g id="edge27_Node000015_Node000002" class="edge">
<title>Node15&#45;&gt;Node2</title>
<g id="a_edge27_Node000015_Node000002"><a xlink:title=" ">
<path fill="none" stroke="#63b8ff" d="M1896.24,-212.31C1708.99,-212.57 1154.1,-208.99 696.5,-162 693.85,-161.73 691.16,-161.43 688.45,-161.1"/>
<polygon fill="#63b8ff" stroke="#63b8ff" points="1896.47,-215.81 1906.46,-212.29 1896.45,-208.81 1896.47,-215.81"/>
</a>
</g>
</g>
<!-- Node16 -->
<g id="Node000016" class="node">
<title>Node16</title>
<g id="a_Node000016"><a xlink:href="AutoPilotPlugin_8cc.html" target="_top" xlink:title=" ">
<polygon fill="white" stroke="#666666" points="2787,-162 2674,-162 2674,-132 2787,-132 2787,-162"/>
<text text-anchor="start" x="2682" y="-150" font-family="Helvetica,sans-Serif" font-size="10.00">src/AutoPilotPlugins</text>
<text text-anchor="middle" x="2730.5" y="-139" font-family="Helvetica,sans-Serif" font-size="10.00">/AutoPilotPlugin.cc</text>
</a>
</g>
</g>
<!-- Node15&#45;&gt;Node16 -->
<g id="edge23_Node000015_Node000016" class="edge">
<title>Node15&#45;&gt;Node16</title>
<g id="a_edge23_Node000015_Node000016"><a xlink:title=" ">
<path fill="none" stroke="#63b8ff" d="M2026.62,-198.01C2306.9,-160.6 2382.78,-196.97 2659.5,-162 2664.11,-161.42 2668.87,-160.71 2673.65,-159.93"/>
<polygon fill="#63b8ff" stroke="#63b8ff" points="2026,-194.56 2016.56,-199.38 2026.94,-201.5 2026,-194.56"/>
</a>
</g>
</g>
<!-- Node17 -->
<g id="Node000017" class="node">
<title>Node17</title>
<g id="a_Node000017"><a xlink:href="QGCCameraManager_8cc.html" target="_top" xlink:title=" ">
<polygon fill="white" stroke="#666666" points="2996,-156.5 2805,-156.5 2805,-137.5 2996,-137.5 2996,-156.5"/>
<text text-anchor="middle" x="2900.5" y="-144.5" font-family="Helvetica,sans-Serif" font-size="10.00">src/Camera/QGCCameraManager.cc</text>
</a>
</g>
</g>
<!-- Node15&#45;&gt;Node17 -->
<g id="edge24_Node000015_Node000017" class="edge">
<title>Node15&#45;&gt;Node17</title>
<g id="a_edge24_Node000015_Node000017"><a xlink:title=" ">
<path fill="none" stroke="#63b8ff" d="M2026.71,-198.01C2367.37,-153.96 2458.19,-192.61 2796.5,-162 2811.92,-160.6 2828.57,-158.59 2843.93,-156.53"/>
<polygon fill="#63b8ff" stroke="#63b8ff" points="2026.02,-194.57 2016.55,-199.34 2026.92,-201.51 2026.02,-194.57"/>
</a>
</g>
</g>
<!-- Node18 -->
<g id="Node000018" class="node">
<title>Node18</title>
<g id="a_Node000018"><a xlink:href="MockLink_8cc.html" target="_top" xlink:title=" ">
<polygon fill="white" stroke="#666666" points="3135,-162 3014,-162 3014,-132 3135,-132 3135,-162"/>
<text text-anchor="start" x="3022" y="-150" font-family="Helvetica,sans-Serif" font-size="10.00">src/Comms/MockLink</text>
<text text-anchor="middle" x="3074.5" y="-139" font-family="Helvetica,sans-Serif" font-size="10.00">/MockLink.cc</text>
</a>
</g>
</g>
<!-- Node15&#45;&gt;Node18 -->
<g id="edge25_Node000015_Node000018" class="edge">
<title>Node15&#45;&gt;Node18</title>
<g id="a_edge25_Node000015_Node000018"><a xlink:title=" ">
<path fill="none" stroke="#63b8ff" d="M2026.51,-198.05C2459.65,-144.27 2575.98,-213.12 3005.5,-162 3008.17,-161.68 3010.89,-161.32 3013.63,-160.91"/>
<polygon fill="#63b8ff" stroke="#63b8ff" points="2026.04,-194.58 2016.55,-199.3 2026.91,-201.53 2026.04,-194.58"/>
</a>
</g>
</g>
<!-- Node19 -->
<g id="Node000019" class="node">
<title>Node19</title>
<g id="a_Node000019"><a xlink:href="ParameterManager_8cc.html" target="_top" xlink:title=" ">
<polygon fill="white" stroke="#666666" points="3296,-162 3153,-162 3153,-132 3296,-132 3296,-162"/>
<text text-anchor="start" x="3161" y="-150" font-family="Helvetica,sans-Serif" font-size="10.00">src/FactSystem/Parameter</text>
<text text-anchor="middle" x="3224.5" y="-139" font-family="Helvetica,sans-Serif" font-size="10.00">Manager.cc</text>
</a>
</g>
</g>
<!-- Node15&#45;&gt;Node19 -->
<g id="edge26_Node000015_Node000019" class="edge">
<title>Node15&#45;&gt;Node19</title>
<g id="a_edge26_Node000015_Node000019"><a xlink:title=" ">
<path fill="none" stroke="#63b8ff" d="M2026.81,-198.02C2521.08,-137.61 2652.91,-212.67 3144.5,-162 3147.16,-161.73 3149.87,-161.41 3152.61,-161.07"/>
<polygon fill="#63b8ff" stroke="#63b8ff" points="2026.04,-194.59 2016.55,-199.29 2026.9,-201.54 2026.04,-194.59"/>
</a>
</g>
</g>
<!-- Node20 -->
<g id="Node000020" class="node">
<title>Node20</title>
<g id="a_Node000020"><a xlink:href="FirmwarePlugin_8cc.html" target="_top" xlink:title=" ">
<polygon fill="white" stroke="#666666" points="3424.5,-162 3314.5,-162 3314.5,-132 3424.5,-132 3424.5,-162"/>
<text text-anchor="start" x="3322.5" y="-150" font-family="Helvetica,sans-Serif" font-size="10.00">src/FirmwarePlugin</text>
<text text-anchor="middle" x="3369.5" y="-139" font-family="Helvetica,sans-Serif" font-size="10.00">/FirmwarePlugin.cc</text>
</a>
</g>
</g>
<!-- Node15&#45;&gt;Node20 -->
<g id="edge28_Node000015_Node000020" class="edge">
<title>Node15&#45;&gt;Node20</title>
<g id="a_edge28_Node000015_Node000020"><a xlink:title=" ">
<path fill="none" stroke="#63b8ff" d="M2026.59,-198.05C2592.18,-130.08 2743.91,-230.71 3305.5,-162 3308.44,-161.64 3311.43,-161.21 3314.45,-160.73"/>
<polygon fill="#63b8ff" stroke="#63b8ff" points="2026.05,-194.59 2016.55,-199.27 2026.89,-201.54 2026.05,-194.59"/>
</a>
</g>
</g>
<!-- Node21 -->
<g id="Node000021" class="node">
<title>Node21</title>
<g id="a_Node000021"><a xlink:href="FirmwarePluginFactory_8cc.html" target="_top" xlink:title=" ">
<polygon fill="white" stroke="#666666" points="3586,-162 3443,-162 3443,-132 3586,-132 3586,-162"/>
<text text-anchor="start" x="3451" y="-150" font-family="Helvetica,sans-Serif" font-size="10.00">src/FirmwarePlugin</text>
<text text-anchor="middle" x="3514.5" y="-139" font-family="Helvetica,sans-Serif" font-size="10.00">/FirmwarePluginFactory.cc</text>
</a>
</g>
</g>
<!-- Node15&#45;&gt;Node21 -->
<g id="edge29_Node000015_Node000021" class="edge">
<title>Node15&#45;&gt;Node21</title>
<g id="a_edge29_Node000015_Node000021"><a xlink:title=" ">
<path fill="none" stroke="#63b8ff" d="M2026.66,-198.05C2648.72,-123.85 2813.89,-223.14 3433.5,-162 3436.48,-161.71 3439.52,-161.37 3442.59,-160.99"/>
<polygon fill="#63b8ff" stroke="#63b8ff" points="2026.05,-194.59 2016.54,-199.26 2026.89,-201.54 2026.05,-194.59"/>
</a>
</g>
</g>
<!-- Node22 -->
<g id="Node000022" class="node">
<title>Node22</title>
<g id="a_Node000022"><a xlink:href="FirmwarePluginManager_8cc.html" target="_top" xlink:title=" ">
<polygon fill="white" stroke="#666666" points="1018,-162 867,-162 867,-132 1018,-132 1018,-162"/>
<text text-anchor="start" x="875" y="-150" font-family="Helvetica,sans-Serif" font-size="10.00">src/FirmwarePlugin</text>
<text text-anchor="middle" x="942.5" y="-139" font-family="Helvetica,sans-Serif" font-size="10.00">/FirmwarePluginManager.cc</text>
</a>
</g>
</g>
<!-- Node15&#45;&gt;Node22 -->
<g id="edge30_Node000015_Node000022" class="edge">
<title>Node15&#45;&gt;Node22</title>
<g id="a_edge30_Node000015_Node000022"><a xlink:title=" ">
<path fill="none" stroke="#63b8ff" d="M1896.12,-211.01C1743.44,-208.16 1351.7,-197.68 1026.5,-162 1023.71,-161.69 1020.87,-161.36 1018,-160.99"/>
<polygon fill="#63b8ff" stroke="#63b8ff" points="1896.2,-214.52 1906.26,-211.2 1896.33,-207.52 1896.2,-214.52"/>
</a>
</g>
</g>
<!-- Node23 -->
<g id="Node000023" class="node">
<title>Node23</title>
<g id="a_Node000023"><a xlink:href="PX4FirmwarePlugin_8h.html" target="_top" xlink:title=" ">
<polygon fill="white" stroke="#666666" points="1181,-162 1036,-162 1036,-132 1181,-132 1181,-162"/>
<text text-anchor="start" x="1044" y="-150" font-family="Helvetica,sans-Serif" font-size="10.00">src/FirmwarePlugin</text>
<text text-anchor="middle" x="1108.5" y="-139" font-family="Helvetica,sans-Serif" font-size="10.00">/PX4/PX4FirmwarePlugin.h</text>
</a>
</g>
</g>
<!-- Node15&#45;&gt;Node23 -->
<g id="edge31_Node000015_Node000023" class="edge">
<title>Node15&#45;&gt;Node23</title>
<g id="a_edge31_Node000015_Node000023"><a xlink:title=" ">
<path fill="none" stroke="#63b8ff" d="M1896.03,-210.11C1762.68,-205.75 1450.13,-192.87 1189.5,-162 1186.81,-161.68 1184.07,-161.33 1181.3,-160.96"/>
<polygon fill="#63b8ff" stroke="#63b8ff" points="1895.98,-213.61 1906.09,-210.44 1896.2,-206.62 1895.98,-213.61"/>
</a>
</g>
</g>
<!-- Node15&#45;&gt;Node26 -->
<g id="edge34_Node000015_Node000026" class="edge">
<title>Node15&#45;&gt;Node26</title>
<g id="a_edge34_Node000015_Node000026"><a xlink:title=" ">
<path fill="none" stroke="#63b8ff" d="M1896.37,-211.95C1725.46,-211.21 1250.23,-205.08 857.5,-162 845.45,-160.68 832.46,-158.66 820.53,-156.57"/>
<polygon fill="#63b8ff" stroke="#63b8ff" points="1896.44,-215.45 1906.46,-211.99 1896.47,-208.45 1896.44,-215.45"/>
</a>
</g>
</g>
<!-- Node27 -->
<g id="Node000027" class="node">
<title>Node27</title>
<g id="a_Node000027"><a xlink:href="Joystick_8cc.html" target="_top" xlink:title=" ">
<polygon fill="white" stroke="#666666" points="1326,-156.5 1199,-156.5 1199,-137.5 1326,-137.5 1326,-156.5"/>
<text text-anchor="middle" x="1262.5" y="-144.5" font-family="Helvetica,sans-Serif" font-size="10.00">src/Joystick/Joystick.cc</text>
</a>
</g>
</g>
<!-- Node15&#45;&gt;Node27 -->
<g id="edge35_Node000015_Node000027" class="edge">
<title>Node15&#45;&gt;Node27</title>
<g id="a_edge35_Node000015_Node000027"><a xlink:title=" ">
<path fill="none" stroke="#63b8ff" d="M1896.13,-209.14C1781.96,-203.63 1539.02,-189.56 1335.5,-162 1324.89,-160.56 1313.48,-158.59 1302.91,-156.57"/>
<polygon fill="#63b8ff" stroke="#63b8ff" points="1896.28,-212.66 1906.44,-209.64 1896.61,-205.66 1896.28,-212.66"/>
</a>
</g>
</g>
<!-- Node28 -->
<g id="Node000028" class="node">
<title>Node28</title>
<g id="a_Node000028"><a xlink:href="CameraSection_8cc.html" target="_top" xlink:title=" ">
<polygon fill="white" stroke="#666666" points="1458.5,-162 1344.5,-162 1344.5,-132 1458.5,-132 1458.5,-162"/>
<text text-anchor="start" x="1352.5" y="-150" font-family="Helvetica,sans-Serif" font-size="10.00">src/MissionManager</text>
<text text-anchor="middle" x="1401.5" y="-139" font-family="Helvetica,sans-Serif" font-size="10.00">/CameraSection.cc</text>
</a>
</g>
</g>
<!-- Node15&#45;&gt;Node28 -->
<g id="edge36_Node000015_Node000028" class="edge">
<title>Node15&#45;&gt;Node28</title>
<g id="a_edge36_Node000015_Node000028"><a xlink:title=" ">
<path fill="none" stroke="#63b8ff" d="M1896.42,-207.67C1801.66,-200.85 1620.35,-185.87 1467.5,-162 1464.61,-161.55 1461.65,-161.05 1458.67,-160.52"/>
<polygon fill="#63b8ff" stroke="#63b8ff" points="1896.2,-211.16 1906.43,-208.38 1896.7,-204.18 1896.2,-211.16"/>
</a>
</g>
</g>
<!-- Node29 -->
<g id="Node000029" class="node">
<title>Node29</title>
<g id="a_Node000029"><a xlink:href="MissionCommandTree_8cc.html" target="_top" xlink:title=" ">
<polygon fill="white" stroke="#666666" points="1618,-162 1477,-162 1477,-132 1618,-132 1618,-162"/>
<text text-anchor="start" x="1485" y="-150" font-family="Helvetica,sans-Serif" font-size="10.00">src/MissionManager</text>
<text text-anchor="middle" x="1547.5" y="-139" font-family="Helvetica,sans-Serif" font-size="10.00">/MissionCommandTree.cc</text>
</a>
</g>
</g>
<!-- Node15&#45;&gt;Node29 -->
<g id="edge37_Node000015_Node000029" class="edge">
<title>Node15&#45;&gt;Node29</title>
<g id="a_edge37_Node000015_Node000029"><a xlink:title=" ">
<path fill="none" stroke="#63b8ff" d="M1896.43,-202.74C1829.06,-193.05 1720.81,-177.15 1627.5,-162 1624.44,-161.5 1621.31,-160.99 1618.15,-160.46"/>
<polygon fill="#63b8ff" stroke="#63b8ff" points="1896.07,-206.23 1906.47,-204.19 1897.07,-199.3 1896.07,-206.23"/>
</a>
</g>
</g>
<!-- Node30 -->
<g id="Node000030" class="node">
<title>Node30</title>
<g id="a_Node000030"><a xlink:href="MissionController_8cc.html" target="_top" xlink:title=" ">
<polygon fill="white" stroke="#666666" points="1754.5,-162 1636.5,-162 1636.5,-132 1754.5,-132 1754.5,-162"/>
<text text-anchor="start" x="1644.5" y="-150" font-family="Helvetica,sans-Serif" font-size="10.00">src/MissionManager</text>
<text text-anchor="middle" x="1695.5" y="-139" font-family="Helvetica,sans-Serif" font-size="10.00">/MissionController.cc</text>
</a>
</g>
</g>
<!-- Node15&#45;&gt;Node30 -->
<g id="edge38_Node000015_Node000030" class="edge">
<title>Node15&#45;&gt;Node30</title>
<g id="a_edge38_Node000015_Node000030"><a xlink:title=" ">
<path fill="none" stroke="#63b8ff" d="M1896.45,-196.35C1852.84,-185.86 1795.9,-172.16 1753.77,-162.02"/>
<polygon fill="#63b8ff" stroke="#63b8ff" points="1895.84,-199.8 1906.38,-198.74 1897.48,-193 1895.84,-199.8"/>
</a>
</g>
</g>
<!-- Node31 -->
<g id="Node000031" class="node">
<title>Node31</title>
<g id="a_Node000031"><a xlink:href="MissionManager_8cc.html" target="_top" xlink:title=" ">
<polygon fill="white" stroke="#666666" points="1886.5,-162 1772.5,-162 1772.5,-132 1886.5,-132 1886.5,-162"/>
<text text-anchor="start" x="1780.5" y="-150" font-family="Helvetica,sans-Serif" font-size="10.00">src/MissionManager</text>
<text text-anchor="middle" x="1829.5" y="-139" font-family="Helvetica,sans-Serif" font-size="10.00">/MissionManager.cc</text>
</a>
</g>
</g>
<!-- Node15&#45;&gt;Node31 -->
<g id="edge39_Node000015_Node000031" class="edge">
<title>Node15&#45;&gt;Node31</title>
<g id="a_edge39_Node000015_Node000031"><a xlink:title=" ">
<path fill="none" stroke="#63b8ff" d="M1923.37,-193.51C1902.66,-183.47 1877.47,-171.26 1858.4,-162.01"/>
<polygon fill="#63b8ff" stroke="#63b8ff" points="1922.01,-196.74 1932.53,-197.95 1925.06,-190.44 1922.01,-196.74"/>
</a>
</g>
</g>
<!-- Node32 -->
<g id="Node000032" class="node">
<title>Node32</title>
<g id="a_Node000032"><a xlink:href="PlanManager_8cc.html" target="_top" xlink:title=" ">
<polygon fill="white" stroke="#666666" points="2018.5,-162 1904.5,-162 1904.5,-132 2018.5,-132 2018.5,-162"/>
<text text-anchor="start" x="1912.5" y="-150" font-family="Helvetica,sans-Serif" font-size="10.00">src/MissionManager</text>
<text text-anchor="middle" x="1961.5" y="-139" font-family="Helvetica,sans-Serif" font-size="10.00">/PlanManager.cc</text>
</a>
</g>
</g>
<!-- Node15&#45;&gt;Node32 -->
<g id="edge40_Node000015_Node000032" class="edge">
<title>Node15&#45;&gt;Node32</title>
<g id="a_edge40_Node000015_Node000032"><a xlink:title=" ">
<path fill="none" stroke="#63b8ff" d="M1961.5,-187.54C1961.5,-178.96 1961.5,-169.61 1961.5,-162.16"/>
<polygon fill="#63b8ff" stroke="#63b8ff" points="1958,-187.8 1961.5,-197.8 1965,-187.8 1958,-187.8"/>
</a>
</g>
</g>
<!-- Node33 -->
<g id="Node000033" class="node">
<title>Node33</title>
<g id="a_Node000033"><a xlink:href="TransectStyleComplexItem_8cc.html" target="_top" xlink:title=" ">
<polygon fill="white" stroke="#666666" points="2200.5,-162 2036.5,-162 2036.5,-132 2200.5,-132 2200.5,-162"/>
<text text-anchor="start" x="2044.5" y="-150" font-family="Helvetica,sans-Serif" font-size="10.00">src/MissionManager</text>
<text text-anchor="middle" x="2118.5" y="-139" font-family="Helvetica,sans-Serif" font-size="10.00">/TransectStyleComplexItem.cc</text>
</a>
</g>
</g>
<!-- Node15&#45;&gt;Node33 -->
<g id="edge41_Node000015_Node000033" class="edge">
<title>Node15&#45;&gt;Node33</title>
<g id="a_edge41_Node000015_Node000033"><a xlink:title=" ">
<path fill="none" stroke="#63b8ff" d="M2005.52,-194.05C2030.4,-183.91 2061.03,-171.43 2084.13,-162.01"/>
<polygon fill="#63b8ff" stroke="#63b8ff" points="2003.89,-190.94 1995.95,-197.95 2006.54,-197.42 2003.89,-190.94"/>
</a>
</g>
</g>
<!-- Node34 -->
<g id="Node000034" class="node">
<title>Node34</title>
<g id="a_Node000034"><a xlink:href="CompInfoParam_8cc.html" target="_top" xlink:title=" ">
<polygon fill="white" stroke="#666666" points="2404,-162 2219,-162 2219,-132 2404,-132 2404,-162"/>
<text text-anchor="start" x="2227" y="-150" font-family="Helvetica,sans-Serif" font-size="10.00">src/Vehicle/ComponentInformation</text>
<text text-anchor="middle" x="2311.5" y="-139" font-family="Helvetica,sans-Serif" font-size="10.00">/CompInfoParam.cc</text>
</a>
</g>
</g>
<!-- Node15&#45;&gt;Node34 -->
<g id="edge42_Node000015_Node000034" class="edge">
<title>Node15&#45;&gt;Node34</title>
<g id="a_edge42_Node000015_Node000034"><a xlink:title=" ">
<path fill="none" stroke="#63b8ff" d="M2026.85,-197.78C2099.32,-183.64 2171.27,-171.15 2225.6,-162.04"/>
<polygon fill="#63b8ff" stroke="#63b8ff" points="2025.77,-194.43 2016.63,-199.79 2027.11,-201.3 2025.77,-194.43"/>
</a>
</g>
</g>
<!-- Node35 -->
<g id="Node000035" class="node">
<title>Node35</title>
<g id="a_Node000035"><a xlink:href="InitialConnectStateMachine_8cc.html" target="_top" xlink:title=" ">
<polygon fill="white" stroke="#666666" points="2439.5,-96 2299.5,-96 2299.5,-66 2439.5,-66 2439.5,-96"/>
<text text-anchor="start" x="2307.5" y="-84" font-family="Helvetica,sans-Serif" font-size="10.00">src/Vehicle/InitialConnect</text>
<text text-anchor="middle" x="2369.5" y="-73" font-family="Helvetica,sans-Serif" font-size="10.00">StateMachine.cc</text>
</a>
</g>
</g>
<!-- Node15&#45;&gt;Node35 -->
<g id="edge43_Node000015_Node000035" class="edge">
<title>Node15&#45;&gt;Node35</title>
<g id="a_edge43_Node000015_Node000035"><a xlink:title=" ">
<path fill="none" stroke="#63b8ff" d="M2026.86,-198.3C2100.63,-191.55 2384.95,-192.24 2412.5,-162 2430.66,-142.07 2405.37,-113.07 2386.58,-96.01"/>
<polygon fill="#63b8ff" stroke="#63b8ff" points="2026.1,-194.86 2016.58,-199.5 2026.92,-201.82 2026.1,-194.86"/>
</a>
</g>
</g>
<!-- Node36 -->
<g id="Node000036" class="node">
<title>Node36</title>
<g id="a_Node000036"><a xlink:href="StandardModes_8h.html" target="_top" xlink:title=" ">
<polygon fill="white" stroke="#666666" points="2617,-156.5 2460,-156.5 2460,-137.5 2617,-137.5 2617,-156.5"/>
<text text-anchor="middle" x="2538.5" y="-144.5" font-family="Helvetica,sans-Serif" font-size="10.00">src/Vehicle/StandardModes.h</text>
</a>
</g>
</g>
<!-- Node15&#45;&gt;Node36 -->
<g id="edge44_Node000015_Node000036" class="edge">
<title>Node15&#45;&gt;Node36</title>
<g id="a_edge44_Node000015_Node000036"><a xlink:title=" ">
<path fill="none" stroke="#63b8ff" d="M2026.68,-197.96C2212.49,-170.4 2262.71,-183.57 2445.5,-162 2458.63,-160.45 2472.77,-158.48 2485.95,-156.51"/>
<polygon fill="#63b8ff" stroke="#63b8ff" points="2025.94,-194.53 2016.57,-199.48 2026.98,-201.45 2025.94,-194.53"/>
</a>
</g>
</g>
<!-- Node38 -->
<g id="Node000038" class="node">
<title>Node38</title>
<g id="a_Node000038"><a xlink:href="Vehicle_8cc.html" target="_top" xlink:title=" ">
<polygon fill="white" stroke="#666666" points="2758,-90.5 2637,-90.5 2637,-71.5 2758,-71.5 2758,-90.5"/>
<text text-anchor="middle" x="2697.5" y="-78.5" font-family="Helvetica,sans-Serif" font-size="10.00">src/Vehicle/Vehicle.cc</text>
</a>
</g>
</g>
<!-- Node15&#45;&gt;Node38 -->
<g id="edge48_Node000015_Node000038" class="edge">
<title>Node15&#45;&gt;Node38</title>
<g id="a_edge48_Node000015_Node000038"><a xlink:title=" ">
<path fill="none" stroke="#63b8ff" d="M2026.83,-198.1C2173.97,-181.51 2507.98,-218.62 2625.5,-162 2658.49,-146.1 2683.17,-107.65 2692.93,-90.5"/>
<polygon fill="#63b8ff" stroke="#63b8ff" points="2026.05,-194.67 2016.56,-199.39 2026.92,-201.61 2026.05,-194.67"/>
</a>
</g>
</g>
<!-- Node24 -->
<g id="Node000024" class="node">
<title>Node24</title>
<g id="a_Node000024"><a xlink:href="PX4FirmwarePlugin_8cc.html" target="_top" xlink:title=" ">
<polygon fill="white" stroke="#666666" points="1183,-96 1034,-96 1034,-66 1183,-66 1183,-96"/>
<text text-anchor="start" x="1042" y="-84" font-family="Helvetica,sans-Serif" font-size="10.00">src/FirmwarePlugin</text>
<text text-anchor="middle" x="1108.5" y="-73" font-family="Helvetica,sans-Serif" font-size="10.00">/PX4/PX4FirmwarePlugin.cc</text>
</a>
</g>
</g>
<!-- Node23&#45;&gt;Node24 -->
<g id="edge32_Node000023_Node000024" class="edge">
<title>Node23&#45;&gt;Node24</title>
<g id="a_edge32_Node000023_Node000024"><a xlink:title=" ">
<path fill="none" stroke="#63b8ff" d="M1108.5,-121.54C1108.5,-112.96 1108.5,-103.61 1108.5,-96.16"/>
<polygon fill="#63b8ff" stroke="#63b8ff" points="1105,-121.8 1108.5,-131.8 1112,-121.8 1105,-121.8"/>
</a>
</g>
</g>
<!-- Node25 -->
<g id="Node000025" class="node">
<title>Node25</title>
<g id="a_Node000025"><a xlink:href="PX4FirmwarePluginFactory_8cc.html" target="_top" xlink:title=" ">
<polygon fill="white" stroke="#666666" points="1384,-96 1201,-96 1201,-66 1384,-66 1384,-96"/>
<text text-anchor="start" x="1209" y="-84" font-family="Helvetica,sans-Serif" font-size="10.00">src/FirmwarePlugin</text>
<text text-anchor="middle" x="1292.5" y="-73" font-family="Helvetica,sans-Serif" font-size="10.00">/PX4/PX4FirmwarePluginFactory.cc</text>
</a>
</g>
</g>
<!-- Node23&#45;&gt;Node25 -->
<g id="edge33_Node000023_Node000025" class="edge">
<title>Node23&#45;&gt;Node25</title>
<g id="a_edge33_Node000023_Node000025"><a xlink:title=" ">
<path fill="none" stroke="#63b8ff" d="M1158.55,-128.59C1187.97,-118.36 1224.67,-105.59 1252.21,-96.01"/>
<polygon fill="#63b8ff" stroke="#63b8ff" points="1157.17,-125.36 1148.88,-131.95 1159.47,-131.98 1157.17,-125.36"/>
</a>
</g>
</g>
<!-- Node36&#45;&gt;Node35 -->
<g id="edge45_Node000036_Node000035" class="edge">
<title>Node36&#45;&gt;Node35</title>
<g id="a_edge45_Node000036_Node000035"><a xlink:title=" ">
<path fill="none" stroke="#63b8ff" d="M2506.25,-133.79C2477.87,-123.04 2436.56,-107.4 2406.77,-96.12"/>
<polygon fill="#63b8ff" stroke="#63b8ff" points="2505.12,-137.1 2515.71,-137.37 2507.6,-130.55 2505.12,-137.1"/>
</a>
</g>
</g>
<!-- Node37 -->
<g id="Node000037" class="node">
<title>Node37</title>
<g id="a_Node000037"><a xlink:href="StandardModes_8cc.html" target="_top" xlink:title=" ">
<polygon fill="white" stroke="#666666" points="2619,-90.5 2458,-90.5 2458,-71.5 2619,-71.5 2619,-90.5"/>
<text text-anchor="middle" x="2538.5" y="-78.5" font-family="Helvetica,sans-Serif" font-size="10.00">src/Vehicle/StandardModes.cc</text>
</a>
</g>
</g>
<!-- Node36&#45;&gt;Node37 -->
<g id="edge46_Node000036_Node000037" class="edge">
<title>Node36&#45;&gt;Node37</title>
<g id="a_edge46_Node000036_Node000037"><a xlink:title=" ">
<path fill="none" stroke="#63b8ff" d="M2538.5,-127.08C2538.5,-115.13 2538.5,-100.22 2538.5,-90.91"/>
<polygon fill="#63b8ff" stroke="#63b8ff" points="2535,-127.37 2538.5,-137.37 2542,-127.37 2535,-127.37"/>
</a>
</g>
</g>
<!-- Node36&#45;&gt;Node38 -->
<g id="edge47_Node000036_Node000038" class="edge">
<title>Node36&#45;&gt;Node38</title>
<g id="a_edge47_Node000036_Node000038"><a xlink:title=" ">
<path fill="none" stroke="#63b8ff" d="M2569.53,-133.51C2600.95,-120.86 2648.73,-101.63 2676.14,-90.6"/>
<polygon fill="#63b8ff" stroke="#63b8ff" points="2567.91,-130.39 2559.94,-137.37 2570.53,-136.88 2567.91,-130.39"/>
</a>
</g>
</g>
</g>
</svg>
