<?xml version="1.0" encoding="UTF-8" standalone="no"?>
<!DOCTYPE svg PUBLIC "-//W3C//DTD SVG 1.1//EN"
 "http://www.w3.org/Graphics/SVG/1.1/DTD/svg11.dtd">
<!-- Generated by graphviz version 2.43.0 (0)
 -->
<!-- Title: src/Vehicle/Actuators/GeometryImage.h Pages: 1 -->
<svg width="1542pt" height="258pt"
 viewBox="0.00 0.00 1541.50 258.00" xmlns="http://www.w3.org/2000/svg" xmlns:xlink="http://www.w3.org/1999/xlink">
<g id="graph0" class="graph" transform="scale(1 1) rotate(0) translate(4 254)">
<title>src/Vehicle/Actuators/GeometryImage.h</title>
<!-- Node1 -->
<g id="Node000001" class="node">
<title>Node1</title>
<g id="a_Node000001"><a xlink:title=" ">
<polygon fill="#999999" stroke="#666666" points="1232.5,-250 1113.5,-250 1113.5,-220 1232.5,-220 1232.5,-250"/>
<text text-anchor="start" x="1121.5" y="-238" font-family="Helvetica,sans-Serif" font-size="10.00">src/Vehicle/Actuators</text>
<text text-anchor="middle" x="1173" y="-227" font-family="Helvetica,sans-Serif" font-size="10.00">/GeometryImage.h</text>
</a>
</g>
</g>
<!-- Node2 -->
<g id="Node000002" class="node">
<title>Node2</title>
<g id="a_Node000002"><a xlink:href="QGCPalette_8h.html" target="_top" xlink:title=" ">
<polygon fill="white" stroke="#666666" points="284.5,-74 203.5,-74 203.5,-55 284.5,-55 284.5,-74"/>
<text text-anchor="middle" x="244" y="-62" font-family="Helvetica,sans-Serif" font-size="10.00">QGCPalette.h</text>
</a>
</g>
</g>
<!-- Node1&#45;&gt;Node2 -->
<g id="edge1_Node000001_Node000002" class="edge">
<title>Node1&#45;&gt;Node2</title>
<g id="a_edge1_Node000001_Node000002"><a xlink:title=" ">
<path fill="none" stroke="#63b8ff" d="M1113.3,-234C927.87,-233.52 370.25,-228.36 303,-184 268.27,-161.09 253.15,-111.31 247.28,-84.13"/>
<polygon fill="#63b8ff" stroke="#63b8ff" points="250.71,-83.45 245.35,-74.31 243.84,-84.8 250.71,-83.45"/>
</a>
</g>
</g>
<!-- Node3 -->
<g id="Node000003" class="node">
<title>Node3</title>
<g id="a_Node000003"><a xlink:title=" ">
<polygon fill="#e0e0e0" stroke="#999999" points="290,-19 198,-19 198,0 290,0 290,-19"/>
<text text-anchor="middle" x="244" y="-7" font-family="Helvetica,sans-Serif" font-size="10.00">QtCore/QObject</text>
</a>
</g>
</g>
<!-- Node1&#45;&gt;Node3 -->
<g id="edge28_Node000001_Node000003" class="edge">
<title>Node1&#45;&gt;Node3</title>
<g id="a_edge28_Node000001_Node000003"><a xlink:title=" ">
<path fill="none" stroke="#63b8ff" d="M1113.5,-230.26C974.12,-219.87 617.57,-183.78 343,-74 312.72,-61.89 281.69,-40.18 262.63,-25.55"/>
<polygon fill="#63b8ff" stroke="#63b8ff" points="264.56,-22.62 254.53,-19.21 260.24,-28.13 264.56,-22.62"/>
</a>
</g>
</g>
<!-- Node7 -->
<g id="Node000007" class="node">
<title>Node7</title>
<g id="a_Node000007"><a xlink:href="Common_8h.html" target="_top" xlink:title=" ">
<polygon fill="white" stroke="#666666" points="1089,-184 1019,-184 1019,-165 1089,-165 1089,-184"/>
<text text-anchor="middle" x="1054" y="-172" font-family="Helvetica,sans-Serif" font-size="10.00">Common.h</text>
</a>
</g>
</g>
<!-- Node1&#45;&gt;Node7 -->
<g id="edge6_Node000001_Node000007" class="edge">
<title>Node1&#45;&gt;Node7</title>
<g id="a_edge6_Node000001_Node000007"><a xlink:title=" ">
<path fill="none" stroke="#63b8ff" d="M1144.5,-219.99C1125.09,-210.45 1099.57,-197.9 1080.58,-188.57"/>
<polygon fill="#63b8ff" stroke="#63b8ff" points="1082.09,-185.41 1071.57,-184.14 1079,-191.69 1082.09,-185.41"/>
</a>
</g>
</g>
<!-- Node12 -->
<g id="Node000012" class="node">
<title>Node12</title>
<g id="a_Node000012"><a xlink:title=" ">
<polygon fill="#e0e0e0" stroke="#999999" points="1239.5,-19 1150.5,-19 1150.5,0 1239.5,0 1239.5,-19"/>
<text text-anchor="middle" x="1195" y="-7" font-family="Helvetica,sans-Serif" font-size="10.00">QtCore/QString</text>
</a>
</g>
</g>
<!-- Node1&#45;&gt;Node12 -->
<g id="edge29_Node000001_Node000012" class="edge">
<title>Node1&#45;&gt;Node12</title>
<g id="a_edge29_Node000001_Node000012"><a xlink:title=" ">
<path fill="none" stroke="#63b8ff" d="M1177.61,-219.64C1186.25,-191.88 1204.59,-128.73 1211,-74 1211.98,-65.61 1212.45,-63.32 1211,-55 1209.43,-46 1206.2,-36.42 1203.06,-28.46"/>
<polygon fill="#63b8ff" stroke="#63b8ff" points="1206.23,-26.97 1199.11,-19.12 1199.78,-29.69 1206.23,-26.97"/>
</a>
</g>
</g>
<!-- Node20 -->
<g id="Node000020" class="node">
<title>Node20</title>
<g id="a_Node000020"><a xlink:title=" ">
<polygon fill="#e0e0e0" stroke="#999999" points="1426.5,-184 1261.5,-184 1261.5,-165 1426.5,-165 1426.5,-184"/>
<text text-anchor="middle" x="1344" y="-172" font-family="Helvetica,sans-Serif" font-size="10.00">QtQuick/QQuickImageProvider</text>
</a>
</g>
</g>
<!-- Node1&#45;&gt;Node20 -->
<g id="edge30_Node000001_Node000020" class="edge">
<title>Node1&#45;&gt;Node20</title>
<g id="a_edge30_Node000001_Node000020"><a xlink:title=" ">
<path fill="none" stroke="#63b8ff" d="M1213.96,-219.99C1243,-210.05 1281.55,-196.86 1309.12,-187.43"/>
<polygon fill="#63b8ff" stroke="#63b8ff" points="1310.42,-190.69 1318.75,-184.14 1308.15,-184.06 1310.42,-190.69"/>
</a>
</g>
</g>
<!-- Node21 -->
<g id="Node000021" class="node">
<title>Node21</title>
<g id="a_Node000021"><a xlink:title=" ">
<polygon fill="#e0e0e0" stroke="#999999" points="1533.5,-184 1444.5,-184 1444.5,-165 1533.5,-165 1533.5,-184"/>
<text text-anchor="middle" x="1489" y="-172" font-family="Helvetica,sans-Serif" font-size="10.00">QtGui/QPainter</text>
</a>
</g>
</g>
<!-- Node1&#45;&gt;Node21 -->
<g id="edge31_Node000001_Node000021" class="edge">
<title>Node1&#45;&gt;Node21</title>
<g id="a_edge31_Node000001_Node000021"><a xlink:title=" ">
<path fill="none" stroke="#63b8ff" d="M1232.81,-222.93C1290.75,-212.2 1377.89,-196.07 1434.11,-185.66"/>
<polygon fill="#63b8ff" stroke="#63b8ff" points="1435.04,-189.05 1444.23,-183.79 1433.76,-182.17 1435.04,-189.05"/>
</a>
</g>
</g>
<!-- Node2&#45;&gt;Node3 -->
<g id="edge2_Node000002_Node000003" class="edge">
<title>Node2&#45;&gt;Node3</title>
<g id="a_edge2_Node000002_Node000003"><a xlink:title=" ">
<path fill="none" stroke="#63b8ff" d="M244,-54.75C244,-47.8 244,-37.85 244,-29.13"/>
<polygon fill="#63b8ff" stroke="#63b8ff" points="247.5,-29.09 244,-19.09 240.5,-29.09 247.5,-29.09"/>
</a>
</g>
</g>
<!-- Node4 -->
<g id="Node000004" class="node">
<title>Node4</title>
<g id="a_Node000004"><a xlink:title=" ">
<polygon fill="#e0e0e0" stroke="#999999" points="180,-19 100,-19 100,0 180,0 180,-19"/>
<text text-anchor="middle" x="140" y="-7" font-family="Helvetica,sans-Serif" font-size="10.00">QtGui/QColor</text>
</a>
</g>
</g>
<!-- Node2&#45;&gt;Node4 -->
<g id="edge3_Node000002_Node000004" class="edge">
<title>Node2&#45;&gt;Node4</title>
<g id="a_edge3_Node000002_Node000004"><a xlink:title=" ">
<path fill="none" stroke="#63b8ff" d="M227.29,-54.98C210.79,-46.57 185.3,-33.59 166.12,-23.81"/>
<polygon fill="#63b8ff" stroke="#63b8ff" points="167.51,-20.59 157.01,-19.17 164.33,-26.83 167.51,-20.59"/>
</a>
</g>
</g>
<!-- Node5 -->
<g id="Node000005" class="node">
<title>Node5</title>
<g id="a_Node000005"><a xlink:title=" ">
<polygon fill="#e0e0e0" stroke="#999999" points="82,-19 0,-19 0,0 82,0 82,-19"/>
<text text-anchor="middle" x="41" y="-7" font-family="Helvetica,sans-Serif" font-size="10.00">QtCore/QMap</text>
</a>
</g>
</g>
<!-- Node2&#45;&gt;Node5 -->
<g id="edge4_Node000002_Node000005" class="edge">
<title>Node2&#45;&gt;Node5</title>
<g id="a_edge4_Node000002_Node000005"><a xlink:title=" ">
<path fill="none" stroke="#63b8ff" d="M211.38,-54.98C176.71,-45.93 121.74,-31.58 83.65,-21.64"/>
<polygon fill="#63b8ff" stroke="#63b8ff" points="84.43,-18.22 73.87,-19.08 82.66,-24.99 84.43,-18.22"/>
</a>
</g>
</g>
<!-- Node6 -->
<g id="Node000006" class="node">
<title>Node6</title>
<g id="a_Node000006"><a xlink:title=" ">
<polygon fill="#e0e0e0" stroke="#999999" points="497.5,-19 308.5,-19 308.5,0 497.5,0 497.5,-19"/>
<text text-anchor="middle" x="403" y="-7" font-family="Helvetica,sans-Serif" font-size="10.00">QtQmlIntegration/QtQmlIntegration</text>
</a>
</g>
</g>
<!-- Node2&#45;&gt;Node6 -->
<g id="edge5_Node000002_Node000006" class="edge">
<title>Node2&#45;&gt;Node6</title>
<g id="a_edge5_Node000002_Node000006"><a xlink:title=" ">
<path fill="none" stroke="#63b8ff" d="M269.55,-54.98C296.12,-46.13 337.94,-32.19 367.67,-22.28"/>
<polygon fill="#63b8ff" stroke="#63b8ff" points="368.87,-25.56 377.25,-19.08 366.66,-18.92 368.87,-25.56"/>
</a>
</g>
</g>
<!-- Node8 -->
<g id="Node000008" class="node">
<title>Node8</title>
<g id="a_Node000008"><a xlink:href="Fact_8h.html" target="_top" xlink:title=" ">
<polygon fill="white" stroke="#666666" points="800.5,-129 755.5,-129 755.5,-110 800.5,-110 800.5,-129"/>
<text text-anchor="middle" x="778" y="-117" font-family="Helvetica,sans-Serif" font-size="10.00">Fact.h</text>
</a>
</g>
</g>
<!-- Node7&#45;&gt;Node8 -->
<g id="edge7_Node000007_Node000008" class="edge">
<title>Node7&#45;&gt;Node8</title>
<g id="a_edge7_Node000007_Node000008"><a xlink:title=" ">
<path fill="none" stroke="#63b8ff" d="M1018.76,-166.73C964.92,-156.39 862.94,-136.81 810.68,-126.77"/>
<polygon fill="#63b8ff" stroke="#63b8ff" points="811.09,-123.29 800.61,-124.84 809.77,-130.17 811.09,-123.29"/>
</a>
</g>
</g>
<!-- Node9 -->
<g id="Node000009" class="node">
<title>Node9</title>
<g id="a_Node000009"><a xlink:title=" ">
<polygon fill="#e0e0e0" stroke="#999999" points="1132.5,-19 989.5,-19 989.5,0 1132.5,0 1132.5,-19"/>
<text text-anchor="middle" x="1061" y="-7" font-family="Helvetica,sans-Serif" font-size="10.00">QtCore/QLoggingCategory</text>
</a>
</g>
</g>
<!-- Node7&#45;&gt;Node9 -->
<g id="edge26_Node000007_Node000009" class="edge">
<title>Node7&#45;&gt;Node9</title>
<g id="a_edge26_Node000007_Node000009"><a xlink:title=" ">
<path fill="none" stroke="#63b8ff" d="M1018.83,-169.6C976.62,-163.22 913.67,-147.29 932,-110 952.58,-68.13 1000.19,-38.91 1031.46,-23.42"/>
<polygon fill="#63b8ff" stroke="#63b8ff" points="1033.08,-26.53 1040.59,-19.06 1030.06,-20.21 1033.08,-26.53"/>
</a>
</g>
</g>
<!-- Node7&#45;&gt;Node12 -->
<g id="edge24_Node000007_Node000012" class="edge">
<title>Node7&#45;&gt;Node12</title>
<g id="a_edge24_Node000007_Node000012"><a xlink:title=" ">
<path fill="none" stroke="#63b8ff" d="M1089.2,-170.21C1117.05,-165.66 1154.69,-154.82 1176,-129 1199.46,-100.57 1199.57,-54.85 1197.4,-29.3"/>
<polygon fill="#63b8ff" stroke="#63b8ff" points="1200.85,-28.7 1196.32,-19.12 1193.89,-29.44 1200.85,-28.7"/>
</a>
</g>
</g>
<!-- Node18 -->
<g id="Node000018" class="node">
<title>Node18</title>
<g id="a_Node000018"><a xlink:title=" ">
<polygon fill="#e0e0e0" stroke="#999999" points="1049,-129 941,-129 941,-110 1049,-110 1049,-129"/>
<text text-anchor="middle" x="995" y="-117" font-family="Helvetica,sans-Serif" font-size="10.00">QtCore/QJsonValue</text>
</a>
</g>
</g>
<!-- Node7&#45;&gt;Node18 -->
<g id="edge25_Node000007_Node000018" class="edge">
<title>Node7&#45;&gt;Node18</title>
<g id="a_edge25_Node000007_Node000018"><a xlink:title=" ">
<path fill="none" stroke="#63b8ff" d="M1044.52,-164.98C1035.8,-157.15 1022.66,-145.34 1012.1,-135.86"/>
<polygon fill="#63b8ff" stroke="#63b8ff" points="1014.43,-133.25 1004.65,-129.17 1009.75,-138.46 1014.43,-133.25"/>
</a>
</g>
</g>
<!-- Node19 -->
<g id="Node000019" class="node">
<title>Node19</title>
<g id="a_Node000019"><a xlink:title=" ">
<polygon fill="#e0e0e0" stroke="#999999" points="1166.5,-129 1067.5,-129 1067.5,-110 1166.5,-110 1166.5,-129"/>
<text text-anchor="middle" x="1117" y="-117" font-family="Helvetica,sans-Serif" font-size="10.00">QtGui/QVector3D</text>
</a>
</g>
</g>
<!-- Node7&#45;&gt;Node19 -->
<g id="edge27_Node000007_Node000019" class="edge">
<title>Node7&#45;&gt;Node19</title>
<g id="a_edge27_Node000007_Node000019"><a xlink:title=" ">
<path fill="none" stroke="#63b8ff" d="M1064.12,-164.98C1073.44,-157.15 1087.47,-145.34 1098.74,-135.86"/>
<polygon fill="#63b8ff" stroke="#63b8ff" points="1101.29,-138.29 1106.69,-129.17 1096.79,-132.93 1101.29,-138.29"/>
</a>
</g>
</g>
<!-- Node8&#45;&gt;Node3 -->
<g id="edge10_Node000008_Node000003" class="edge">
<title>Node8&#45;&gt;Node3</title>
<g id="a_edge10_Node000008_Node000003"><a xlink:title=" ">
<path fill="none" stroke="#63b8ff" d="M755.42,-117.79C696.85,-115.53 535.63,-106.59 406,-74 356.83,-61.64 302.5,-38.19 270.91,-23.51"/>
<polygon fill="#63b8ff" stroke="#63b8ff" points="272.03,-20.17 261.49,-19.07 269.05,-26.5 272.03,-20.17"/>
</a>
</g>
</g>
<!-- Node8&#45;&gt;Node6 -->
<g id="edge14_Node000008_Node000006" class="edge">
<title>Node8&#45;&gt;Node6</title>
<g id="a_edge14_Node000008_Node000006"><a xlink:title=" ">
<path fill="none" stroke="#63b8ff" d="M755.03,-118.78C684.46,-119.19 472.52,-116.75 422,-74 409.11,-63.09 404.75,-43.82 403.38,-29.36"/>
<polygon fill="#63b8ff" stroke="#63b8ff" points="406.86,-28.84 402.82,-19.05 399.87,-29.22 406.86,-28.84"/>
</a>
</g>
</g>
<!-- Node8&#45;&gt;Node9 -->
<g id="edge8_Node000008_Node000009" class="edge">
<title>Node8&#45;&gt;Node9</title>
<g id="a_edge8_Node000008_Node000009"><a xlink:title=" ">
<path fill="none" stroke="#63b8ff" d="M794.55,-109.92C819.99,-96.94 870.43,-72.03 915,-55 949.21,-41.93 989.04,-30 1018.44,-21.79"/>
<polygon fill="#63b8ff" stroke="#63b8ff" points="1019.67,-25.08 1028.38,-19.05 1017.81,-18.34 1019.67,-25.08"/>
</a>
</g>
</g>
<!-- Node10 -->
<g id="Node000010" class="node">
<title>Node10</title>
<g id="a_Node000010"><a xlink:title=" ">
<polygon fill="#e0e0e0" stroke="#999999" points="554.5,-74 431.5,-74 431.5,-55 554.5,-55 554.5,-74"/>
<text text-anchor="middle" x="493" y="-62" font-family="Helvetica,sans-Serif" font-size="10.00">QtCore/QMutexLocker</text>
</a>
</g>
</g>
<!-- Node8&#45;&gt;Node10 -->
<g id="edge9_Node000008_Node000010" class="edge">
<title>Node8&#45;&gt;Node10</title>
<g id="a_edge9_Node000008_Node000010"><a xlink:title=" ">
<path fill="none" stroke="#63b8ff" d="M755.16,-114.25C710.8,-106 611.86,-87.6 549.01,-75.92"/>
<polygon fill="#63b8ff" stroke="#63b8ff" points="549.34,-72.42 538.87,-74.03 548.06,-79.3 549.34,-72.42"/>
</a>
</g>
</g>
<!-- Node11 -->
<g id="Node000011" class="node">
<title>Node11</title>
<g id="a_Node000011"><a xlink:title=" ">
<polygon fill="#e0e0e0" stroke="#999999" points="713,-74 573,-74 573,-55 713,-55 713,-74"/>
<text text-anchor="middle" x="643" y="-62" font-family="Helvetica,sans-Serif" font-size="10.00">QtCore/QRecursiveMutex</text>
</a>
</g>
</g>
<!-- Node8&#45;&gt;Node11 -->
<g id="edge11_Node000008_Node000011" class="edge">
<title>Node8&#45;&gt;Node11</title>
<g id="a_edge11_Node000008_Node000011"><a xlink:title=" ">
<path fill="none" stroke="#63b8ff" d="M756.31,-109.98C734.2,-101.3 699.68,-87.75 674.55,-77.88"/>
<polygon fill="#63b8ff" stroke="#63b8ff" points="675.67,-74.57 665.08,-74.17 673.11,-81.08 675.67,-74.57"/>
</a>
</g>
</g>
<!-- Node8&#45;&gt;Node12 -->
<g id="edge12_Node000008_Node000012" class="edge">
<title>Node8&#45;&gt;Node12</title>
<g id="a_edge12_Node000008_Node000012"><a xlink:title=" ">
<path fill="none" stroke="#63b8ff" d="M800.72,-112.62C867.58,-95.3 1064.49,-44.3 1152.11,-21.61"/>
<polygon fill="#63b8ff" stroke="#63b8ff" points="1153.19,-24.94 1161.99,-19.05 1151.43,-18.17 1153.19,-24.94"/>
</a>
</g>
</g>
<!-- Node13 -->
<g id="Node000013" class="node">
<title>Node13</title>
<g id="a_Node000013"><a xlink:title=" ">
<polygon fill="#e0e0e0" stroke="#999999" points="971.5,-19 876.5,-19 876.5,0 971.5,0 971.5,-19"/>
<text text-anchor="middle" x="924" y="-7" font-family="Helvetica,sans-Serif" font-size="10.00">QtCore/QVariant</text>
</a>
</g>
</g>
<!-- Node8&#45;&gt;Node13 -->
<g id="edge13_Node000008_Node000013" class="edge">
<title>Node8&#45;&gt;Node13</title>
<g id="a_edge13_Node000008_Node000013"><a xlink:title=" ">
<path fill="none" stroke="#63b8ff" d="M789.7,-109.84C814.58,-91.44 872.99,-48.23 903.94,-25.34"/>
<polygon fill="#63b8ff" stroke="#63b8ff" points="906.29,-27.96 912.24,-19.2 902.12,-22.33 906.29,-27.96"/>
</a>
</g>
</g>
<!-- Node14 -->
<g id="Node000014" class="node">
<title>Node14</title>
<g id="a_Node000014"><a xlink:href="FactMetaData_8h.html" target="_top" xlink:title=" ">
<polygon fill="white" stroke="#666666" points="824.5,-74 731.5,-74 731.5,-55 824.5,-55 824.5,-74"/>
<text text-anchor="middle" x="778" y="-62" font-family="Helvetica,sans-Serif" font-size="10.00">FactMetaData.h</text>
</a>
</g>
</g>
<!-- Node8&#45;&gt;Node14 -->
<g id="edge15_Node000008_Node000014" class="edge">
<title>Node8&#45;&gt;Node14</title>
<g id="a_edge15_Node000008_Node000014"><a xlink:title=" ">
<path fill="none" stroke="#63b8ff" d="M778,-109.75C778,-102.8 778,-92.85 778,-84.13"/>
<polygon fill="#63b8ff" stroke="#63b8ff" points="781.5,-84.09 778,-74.09 774.5,-84.09 781.5,-84.09"/>
</a>
</g>
</g>
<!-- Node14&#45;&gt;Node3 -->
<g id="edge20_Node000014_Node000003" class="edge">
<title>Node14&#45;&gt;Node3</title>
<g id="a_edge20_Node000014_Node000003"><a xlink:title=" ">
<path fill="none" stroke="#63b8ff" d="M731.28,-56.17C728.14,-55.75 725.03,-55.36 722,-55 537.92,-33.22 488.08,-41.13 300.39,-19.08"/>
<polygon fill="#63b8ff" stroke="#63b8ff" points="300.53,-15.58 290.18,-17.87 299.7,-22.53 300.53,-15.58"/>
</a>
</g>
</g>
<!-- Node14&#45;&gt;Node6 -->
<g id="edge23_Node000014_Node000006" class="edge">
<title>Node14&#45;&gt;Node6</title>
<g id="a_edge23_Node000014_Node000006"><a xlink:title=" ">
<path fill="none" stroke="#63b8ff" d="M731.26,-56.36C728.12,-55.9 725.02,-55.44 722,-55 637.57,-42.7 540.46,-29.26 475.78,-20.4"/>
<polygon fill="#63b8ff" stroke="#63b8ff" points="476.06,-16.9 465.68,-19.02 475.11,-23.84 476.06,-16.9"/>
</a>
</g>
</g>
<!-- Node14&#45;&gt;Node9 -->
<g id="edge17_Node000014_Node000009" class="edge">
<title>Node14&#45;&gt;Node9</title>
<g id="a_edge17_Node000014_Node000009"><a xlink:title=" ">
<path fill="none" stroke="#63b8ff" d="M823.47,-54.98C872.94,-45.72 952.05,-30.9 1005.23,-20.94"/>
<polygon fill="#63b8ff" stroke="#63b8ff" points="1005.99,-24.36 1015.17,-19.08 1004.7,-17.48 1005.99,-24.36"/>
</a>
</g>
</g>
<!-- Node14&#45;&gt;Node12 -->
<g id="edge21_Node000014_Node000012" class="edge">
<title>Node14&#45;&gt;Node12</title>
<g id="a_edge21_Node000014_Node000012"><a xlink:title=" ">
<path fill="none" stroke="#63b8ff" d="M824.62,-58.37C892.03,-50.82 1020.92,-35.92 1140.43,-19.18"/>
<polygon fill="#63b8ff" stroke="#63b8ff" points="1141.07,-22.62 1150.49,-17.76 1140.09,-15.69 1141.07,-22.62"/>
</a>
</g>
</g>
<!-- Node14&#45;&gt;Node13 -->
<g id="edge22_Node000014_Node000013" class="edge">
<title>Node14&#45;&gt;Node13</title>
<g id="a_edge22_Node000014_Node000013"><a xlink:title=" ">
<path fill="none" stroke="#63b8ff" d="M801.46,-54.98C825.58,-46.23 863.37,-32.51 890.6,-22.62"/>
<polygon fill="#63b8ff" stroke="#63b8ff" points="891.91,-25.87 900.12,-19.17 889.52,-19.29 891.91,-25.87"/>
</a>
</g>
</g>
<!-- Node15 -->
<g id="Node000015" class="node">
<title>Node15</title>
<g id="a_Node000015"><a xlink:title=" ">
<polygon fill="#e0e0e0" stroke="#999999" points="733,-19 647,-19 647,0 733,0 733,-19"/>
<text text-anchor="middle" x="690" y="-7" font-family="Helvetica,sans-Serif" font-size="10.00">QtCore/QHash</text>
</a>
</g>
</g>
<!-- Node14&#45;&gt;Node15 -->
<g id="edge16_Node000014_Node000015" class="edge">
<title>Node14&#45;&gt;Node15</title>
<g id="a_edge16_Node000014_Node000015"><a xlink:title=" ">
<path fill="none" stroke="#63b8ff" d="M763.86,-54.98C750.21,-46.77 729.31,-34.18 713.22,-24.49"/>
<polygon fill="#63b8ff" stroke="#63b8ff" points="714.77,-21.33 704.4,-19.17 711.16,-27.33 714.77,-21.33"/>
</a>
</g>
</g>
<!-- Node16 -->
<g id="Node000016" class="node">
<title>Node16</title>
<g id="a_Node000016"><a xlink:title=" ">
<polygon fill="#e0e0e0" stroke="#999999" points="858.5,-19 751.5,-19 751.5,0 858.5,0 858.5,-19"/>
<text text-anchor="middle" x="805" y="-7" font-family="Helvetica,sans-Serif" font-size="10.00">QtCore/QJsonArray</text>
</a>
</g>
</g>
<!-- Node14&#45;&gt;Node16 -->
<g id="edge18_Node000014_Node000016" class="edge">
<title>Node14&#45;&gt;Node16</title>
<g id="a_edge18_Node000014_Node000016"><a xlink:title=" ">
<path fill="none" stroke="#63b8ff" d="M782.46,-54.75C786.12,-47.57 791.41,-37.18 795.95,-28.27"/>
<polygon fill="#63b8ff" stroke="#63b8ff" points="799.2,-29.59 800.62,-19.09 792.97,-26.41 799.2,-29.59"/>
</a>
</g>
</g>
<!-- Node17 -->
<g id="Node000017" class="node">
<title>Node17</title>
<g id="a_Node000017"><a xlink:title=" ">
<polygon fill="#e0e0e0" stroke="#999999" points="628.5,-19 515.5,-19 515.5,0 628.5,0 628.5,-19"/>
<text text-anchor="middle" x="572" y="-7" font-family="Helvetica,sans-Serif" font-size="10.00">QtCore/QJsonObject</text>
</a>
</g>
</g>
<!-- Node14&#45;&gt;Node17 -->
<g id="edge19_Node000014_Node000017" class="edge">
<title>Node14&#45;&gt;Node17</title>
<g id="a_edge19_Node000014_Node000017"><a xlink:title=" ">
<path fill="none" stroke="#63b8ff" d="M744.9,-54.98C709.72,-45.93 653.93,-31.58 615.28,-21.64"/>
<polygon fill="#63b8ff" stroke="#63b8ff" points="615.91,-18.18 605.36,-19.08 614.17,-24.96 615.91,-18.18"/>
</a>
</g>
</g>
</g>
</svg>
