<?xml version="1.0" encoding="UTF-8" standalone="no"?>
<!DOCTYPE svg PUBLIC "-//W3C//DTD SVG 1.1//EN"
 "http://www.w3.org/Graphics/SVG/1.1/DTD/svg11.dtd">
<!-- Generated by graphviz version 2.43.0 (0)
 -->
<!-- Title: src/AnalyzeView/GeoTag/GeoTagController.h Pages: 1 -->
<svg width="1634pt" height="148pt"
 viewBox="0.00 0.00 1633.50 148.00" xmlns="http://www.w3.org/2000/svg" xmlns:xlink="http://www.w3.org/1999/xlink">
<g id="graph0" class="graph" transform="scale(1 1) rotate(0) translate(4 144)">
<title>src/AnalyzeView/GeoTag/GeoTagController.h</title>
<!-- Node1 -->
<g id="Node000001" class="node">
<title>Node1</title>
<g id="a_Node000001"><a xlink:title=" ">
<polygon fill="#999999" stroke="#666666" points="947.5,-140 811.5,-140 811.5,-110 947.5,-110 947.5,-140"/>
<text text-anchor="start" x="819.5" y="-128" font-family="Helvetica,sans-Serif" font-size="10.00">src/AnalyzeView/GeoTag</text>
<text text-anchor="middle" x="879.5" y="-117" font-family="Helvetica,sans-Serif" font-size="10.00">/GeoTagController.h</text>
</a>
</g>
</g>
<!-- Node2 -->
<g id="Node000002" class="node">
<title>Node2</title>
<g id="a_Node000002"><a xlink:href="GeoTagData_8h.html" target="_top" xlink:title=" ">
<polygon fill="white" stroke="#666666" points="222,-74 137,-74 137,-55 222,-55 222,-74"/>
<text text-anchor="middle" x="179.5" y="-62" font-family="Helvetica,sans-Serif" font-size="10.00">GeoTagData.h</text>
</a>
</g>
</g>
<!-- Node1&#45;&gt;Node2 -->
<g id="edge1_Node000001_Node000002" class="edge">
<title>Node1&#45;&gt;Node2</title>
<g id="a_edge1_Node000001_Node000002"><a xlink:title=" ">
<path fill="none" stroke="#63b8ff" d="M811.47,-119.48C696.01,-111.62 454.34,-94.3 250.5,-74 244.64,-73.42 238.52,-72.76 232.43,-72.07"/>
<polygon fill="#63b8ff" stroke="#63b8ff" points="232.61,-68.57 222.27,-70.9 231.8,-75.52 232.61,-68.57"/>
</a>
</g>
</g>
<!-- Node4 -->
<g id="Node000004" class="node">
<title>Node4</title>
<g id="a_Node000004"><a xlink:title=" ">
<polygon fill="#e0e0e0" stroke="#999999" points="361,-19 196,-19 196,0 361,0 361,-19"/>
<text text-anchor="middle" x="278.5" y="-7" font-family="Helvetica,sans-Serif" font-size="10.00">QtPositioning/QGeoCoordinate</text>
</a>
</g>
</g>
<!-- Node1&#45;&gt;Node4 -->
<g id="edge14_Node000001_Node000004" class="edge">
<title>Node1&#45;&gt;Node4</title>
<g id="a_edge14_Node000001_Node000004"><a xlink:title=" ">
<path fill="none" stroke="#63b8ff" d="M811.4,-123.15C662.86,-120.61 320.09,-110.78 283.5,-74 272.18,-62.62 272.09,-43.72 274.13,-29.5"/>
<polygon fill="#63b8ff" stroke="#63b8ff" points="277.64,-29.8 276.06,-19.32 270.76,-28.5 277.64,-29.8"/>
</a>
</g>
</g>
<!-- Node6 -->
<g id="Node000006" class="node">
<title>Node6</title>
<g id="a_Node000006"><a xlink:title=" ">
<polygon fill="#e0e0e0" stroke="#999999" points="420.5,-74 292.5,-74 292.5,-55 420.5,-55 420.5,-74"/>
<text text-anchor="middle" x="356.5" y="-62" font-family="Helvetica,sans-Serif" font-size="10.00">QtCore/QElapsedTimer</text>
</a>
</g>
</g>
<!-- Node1&#45;&gt;Node6 -->
<g id="edge5_Node000001_Node000006" class="edge">
<title>Node1&#45;&gt;Node6</title>
<g id="a_edge5_Node000001_Node000006"><a xlink:title=" ">
<path fill="none" stroke="#63b8ff" d="M811.41,-116.49C725.5,-107 572.89,-90.09 430.88,-74.04"/>
<polygon fill="#63b8ff" stroke="#63b8ff" points="431,-70.53 420.67,-72.89 430.22,-77.49 431,-70.53"/>
</a>
</g>
</g>
<!-- Node7 -->
<g id="Node000007" class="node">
<title>Node7</title>
<g id="a_Node000007"><a xlink:title=" ">
<polygon fill="#e0e0e0" stroke="#999999" points="536,-74 439,-74 439,-55 536,-55 536,-74"/>
<text text-anchor="middle" x="487.5" y="-62" font-family="Helvetica,sans-Serif" font-size="10.00">QtCore/QFileInfo</text>
</a>
</g>
</g>
<!-- Node1&#45;&gt;Node7 -->
<g id="edge6_Node000001_Node000007" class="edge">
<title>Node1&#45;&gt;Node7</title>
<g id="a_edge6_Node000001_Node000007"><a xlink:title=" ">
<path fill="none" stroke="#63b8ff" d="M811.22,-113.81C736.27,-102.62 617.18,-84.85 546.24,-74.27"/>
<polygon fill="#63b8ff" stroke="#63b8ff" points="546.55,-70.77 536.14,-72.76 545.51,-77.7 546.55,-70.77"/>
</a>
</g>
</g>
<!-- Node8 -->
<g id="Node000008" class="node">
<title>Node8</title>
<g id="a_Node000008"><a xlink:title=" ">
<polygon fill="#e0e0e0" stroke="#999999" points="668.5,-74 554.5,-74 554.5,-55 668.5,-55 668.5,-74"/>
<text text-anchor="middle" x="611.5" y="-62" font-family="Helvetica,sans-Serif" font-size="10.00">QtCore/QFileInfoList</text>
</a>
</g>
</g>
<!-- Node1&#45;&gt;Node8 -->
<g id="edge7_Node000001_Node000008" class="edge">
<title>Node1&#45;&gt;Node8</title>
<g id="a_edge7_Node000001_Node000008"><a xlink:title=" ">
<path fill="none" stroke="#63b8ff" d="M815.31,-109.99C767.75,-99.61 703.93,-85.68 660.46,-76.19"/>
<polygon fill="#63b8ff" stroke="#63b8ff" points="661.2,-72.77 650.69,-74.05 659.71,-79.61 661.2,-72.77"/>
</a>
</g>
</g>
<!-- Node9 -->
<g id="Node000009" class="node">
<title>Node9</title>
<g id="a_Node000009"><a xlink:title=" ">
<polygon fill="#e0e0e0" stroke="#999999" points="818,-74 687,-74 687,-55 818,-55 818,-74"/>
<text text-anchor="middle" x="752.5" y="-62" font-family="Helvetica,sans-Serif" font-size="10.00">QtCore/QFutureWatcher</text>
</a>
</g>
</g>
<!-- Node1&#45;&gt;Node9 -->
<g id="edge8_Node000001_Node000009" class="edge">
<title>Node1&#45;&gt;Node9</title>
<g id="a_edge8_Node000001_Node000009"><a xlink:title=" ">
<path fill="none" stroke="#63b8ff" d="M849.08,-109.99C828.27,-100.4 800.88,-87.79 780.59,-78.44"/>
<polygon fill="#63b8ff" stroke="#63b8ff" points="781.8,-75.14 771.26,-74.14 778.87,-81.5 781.8,-75.14"/>
</a>
</g>
</g>
<!-- Node10 -->
<g id="Node000010" class="node">
<title>Node10</title>
<g id="a_Node000010"><a xlink:title=" ">
<polygon fill="#e0e0e0" stroke="#999999" points="922.5,-74 836.5,-74 836.5,-55 922.5,-55 922.5,-74"/>
<text text-anchor="middle" x="879.5" y="-62" font-family="Helvetica,sans-Serif" font-size="10.00">QtCore/QHash</text>
</a>
</g>
</g>
<!-- Node1&#45;&gt;Node10 -->
<g id="edge9_Node000001_Node000010" class="edge">
<title>Node1&#45;&gt;Node10</title>
<g id="a_edge9_Node000001_Node000010"><a xlink:title=" ">
<path fill="none" stroke="#63b8ff" d="M879.5,-109.84C879.5,-102.21 879.5,-92.7 879.5,-84.45"/>
<polygon fill="#63b8ff" stroke="#63b8ff" points="883,-84.27 879.5,-74.27 876,-84.27 883,-84.27"/>
</a>
</g>
</g>
<!-- Node11 -->
<g id="Node000011" class="node">
<title>Node11</title>
<g id="a_Node000011"><a xlink:title=" ">
<polygon fill="#e0e0e0" stroke="#999999" points="1022.5,-74 940.5,-74 940.5,-55 1022.5,-55 1022.5,-74"/>
<text text-anchor="middle" x="981.5" y="-62" font-family="Helvetica,sans-Serif" font-size="10.00">QtCore/QMap</text>
</a>
</g>
</g>
<!-- Node1&#45;&gt;Node11 -->
<g id="edge10_Node000001_Node000011" class="edge">
<title>Node1&#45;&gt;Node11</title>
<g id="a_edge10_Node000001_Node000011"><a xlink:title=" ">
<path fill="none" stroke="#63b8ff" d="M903.93,-109.99C920.19,-100.66 941.45,-88.47 957.6,-79.21"/>
<polygon fill="#63b8ff" stroke="#63b8ff" points="959.5,-82.15 966.44,-74.14 956.02,-76.08 959.5,-82.15"/>
</a>
</g>
</g>
<!-- Node12 -->
<g id="Node000012" class="node">
<title>Node12</title>
<g id="a_Node000012"><a xlink:title=" ">
<polygon fill="#e0e0e0" stroke="#999999" points="1132.5,-74 1040.5,-74 1040.5,-55 1132.5,-55 1132.5,-74"/>
<text text-anchor="middle" x="1086.5" y="-62" font-family="Helvetica,sans-Serif" font-size="10.00">QtCore/QMutex</text>
</a>
</g>
</g>
<!-- Node1&#45;&gt;Node12 -->
<g id="edge11_Node000001_Node000012" class="edge">
<title>Node1&#45;&gt;Node12</title>
<g id="a_edge11_Node000001_Node000012"><a xlink:title=" ">
<path fill="none" stroke="#63b8ff" d="M929.08,-109.99C964.96,-99.85 1012.83,-86.32 1046.33,-76.85"/>
<polygon fill="#63b8ff" stroke="#63b8ff" points="1047.56,-80.14 1056.23,-74.05 1045.66,-73.41 1047.56,-80.14"/>
</a>
</g>
</g>
<!-- Node13 -->
<g id="Node000013" class="node">
<title>Node13</title>
<g id="a_Node000013"><a xlink:title=" ">
<polygon fill="#e0e0e0" stroke="#999999" points="1242.5,-74 1150.5,-74 1150.5,-55 1242.5,-55 1242.5,-74"/>
<text text-anchor="middle" x="1196.5" y="-62" font-family="Helvetica,sans-Serif" font-size="10.00">QtCore/QObject</text>
</a>
</g>
</g>
<!-- Node1&#45;&gt;Node13 -->
<g id="edge12_Node000001_Node000013" class="edge">
<title>Node1&#45;&gt;Node13</title>
<g id="a_edge12_Node000001_Node000013"><a xlink:title=" ">
<path fill="none" stroke="#63b8ff" d="M947.5,-111.45C1004.93,-100.85 1086.19,-85.86 1140.07,-75.91"/>
<polygon fill="#63b8ff" stroke="#63b8ff" points="1140.93,-79.31 1150.13,-74.06 1139.66,-72.43 1140.93,-79.31"/>
</a>
</g>
</g>
<!-- Node14 -->
<g id="Node000014" class="node">
<title>Node14</title>
<g id="a_Node000014"><a xlink:title=" ">
<polygon fill="#e0e0e0" stroke="#999999" points="1350,-74 1261,-74 1261,-55 1350,-55 1350,-74"/>
<text text-anchor="middle" x="1305.5" y="-62" font-family="Helvetica,sans-Serif" font-size="10.00">QtCore/QString</text>
</a>
</g>
</g>
<!-- Node1&#45;&gt;Node14 -->
<g id="edge13_Node000001_Node000014" class="edge">
<title>Node1&#45;&gt;Node14</title>
<g id="a_edge13_Node000001_Node000014"><a xlink:title=" ">
<path fill="none" stroke="#63b8ff" d="M947.79,-115.29C1020.26,-105.94 1138.42,-90.4 1250.58,-74.1"/>
<polygon fill="#63b8ff" stroke="#63b8ff" points="1251.33,-77.53 1260.72,-72.63 1250.32,-70.61 1251.33,-77.53"/>
</a>
</g>
</g>
<!-- Node15 -->
<g id="Node000015" class="node">
<title>Node15</title>
<g id="a_Node000015"><a xlink:title=" ">
<polygon fill="#e0e0e0" stroke="#999999" points="1557,-74 1368,-74 1368,-55 1557,-55 1557,-74"/>
<text text-anchor="middle" x="1462.5" y="-62" font-family="Helvetica,sans-Serif" font-size="10.00">QtQmlIntegration/QtQmlIntegration</text>
</a>
</g>
</g>
<!-- Node1&#45;&gt;Node15 -->
<g id="edge15_Node000001_Node000015" class="edge">
<title>Node1&#45;&gt;Node15</title>
<g id="a_edge15_Node000001_Node000015"><a xlink:title=" ">
<path fill="none" stroke="#63b8ff" d="M947.52,-117.17C1051.28,-106.76 1249.44,-86.88 1367.39,-75.04"/>
<polygon fill="#63b8ff" stroke="#63b8ff" points="1367.9,-78.51 1377.5,-74.03 1367.2,-71.55 1367.9,-78.51"/>
</a>
</g>
</g>
<!-- Node16 -->
<g id="Node000016" class="node">
<title>Node16</title>
<g id="a_Node000016"><a xlink:title=" ">
<polygon fill="#e0e0e0" stroke="#999999" points="1625.5,-74 1575.5,-74 1575.5,-55 1625.5,-55 1625.5,-74"/>
<text text-anchor="middle" x="1600.5" y="-62" font-family="Helvetica,sans-Serif" font-size="10.00">atomic</text>
</a>
</g>
</g>
<!-- Node1&#45;&gt;Node16 -->
<g id="edge16_Node000001_Node000016" class="edge">
<title>Node1&#45;&gt;Node16</title>
<g id="a_edge16_Node000001_Node000016"><a xlink:title=" ">
<path fill="none" stroke="#63b8ff" d="M947.72,-122.92C1069.92,-120.14 1334.23,-110.27 1565.41,-73.88"/>
<polygon fill="#63b8ff" stroke="#63b8ff" points="1566.02,-77.33 1575.35,-72.3 1564.92,-70.42 1566.02,-77.33"/>
</a>
</g>
</g>
<!-- Node3 -->
<g id="Node000003" class="node">
<title>Node3</title>
<g id="a_Node000003"><a xlink:title=" ">
<polygon fill="#e0e0e0" stroke="#999999" points="109,-19 0,-19 0,0 109,0 109,-19"/>
<text text-anchor="middle" x="54.5" y="-7" font-family="Helvetica,sans-Serif" font-size="10.00">QtGui/QQuaternion</text>
</a>
</g>
</g>
<!-- Node2&#45;&gt;Node3 -->
<g id="edge2_Node000002_Node000003" class="edge">
<title>Node2&#45;&gt;Node3</title>
<g id="a_edge2_Node000002_Node000003"><a xlink:title=" ">
<path fill="none" stroke="#63b8ff" d="M159.42,-54.98C139.13,-46.38 107.54,-32.99 84.33,-23.15"/>
<polygon fill="#63b8ff" stroke="#63b8ff" points="85.52,-19.85 74.95,-19.17 82.79,-26.3 85.52,-19.85"/>
</a>
</g>
</g>
<!-- Node2&#45;&gt;Node4 -->
<g id="edge3_Node000002_Node000004" class="edge">
<title>Node2&#45;&gt;Node4</title>
<g id="a_edge3_Node000002_Node000004"><a xlink:title=" ">
<path fill="none" stroke="#63b8ff" d="M195.41,-54.98C211.05,-46.61 235.16,-33.7 253.38,-23.95"/>
<polygon fill="#63b8ff" stroke="#63b8ff" points="255.14,-26.98 262.3,-19.17 251.84,-20.8 255.14,-26.98"/>
</a>
</g>
</g>
<!-- Node5 -->
<g id="Node000005" class="node">
<title>Node5</title>
<g id="a_Node000005"><a xlink:title=" ">
<polygon fill="#e0e0e0" stroke="#999999" points="177.5,-19 127.5,-19 127.5,0 177.5,0 177.5,-19"/>
<text text-anchor="middle" x="152.5" y="-7" font-family="Helvetica,sans-Serif" font-size="10.00">cstdint</text>
</a>
</g>
</g>
<!-- Node2&#45;&gt;Node5 -->
<g id="edge4_Node000002_Node000005" class="edge">
<title>Node2&#45;&gt;Node5</title>
<g id="a_edge4_Node000002_Node000005"><a xlink:title=" ">
<path fill="none" stroke="#63b8ff" d="M175.04,-54.75C171.38,-47.57 166.09,-37.18 161.55,-28.27"/>
<polygon fill="#63b8ff" stroke="#63b8ff" points="164.53,-26.41 156.88,-19.09 158.3,-29.59 164.53,-26.41"/>
</a>
</g>
</g>
</g>
</svg>
