<?xml version="1.0" encoding="UTF-8" standalone="no"?>
<!DOCTYPE svg PUBLIC "-//W3C//DTD SVG 1.1//EN"
 "http://www.w3.org/Graphics/SVG/1.1/DTD/svg11.dtd">
<!-- Generated by graphviz version 2.43.0 (0)
 -->
<!-- Title: src/GPS/GPSRTKFactGroup.cc Pages: 1 -->
<svg width="1582pt" height="302pt"
 viewBox="0.00 0.00 1582.00 302.00" xmlns="http://www.w3.org/2000/svg" xmlns:xlink="http://www.w3.org/1999/xlink">
<g id="graph0" class="graph" transform="scale(1 1) rotate(0) translate(4 298)">
<title>src/GPS/GPSRTKFactGroup.cc</title>
<!-- Node1 -->
<g id="Node000001" class="node">
<title>Node1</title>
<g id="a_Node000001"><a xlink:title=" ">
<polygon fill="#999999" stroke="#666666" points="1228,-294 1071,-294 1071,-275 1228,-275 1228,-294"/>
<text text-anchor="middle" x="1149.5" y="-282" font-family="Helvetica,sans-Serif" font-size="10.00">src/GPS/GPSRTKFactGroup.cc</text>
</a>
</g>
</g>
<!-- Node2 -->
<g id="Node000002" class="node">
<title>Node2</title>
<g id="a_Node000002"><a xlink:href="GPSRTKFactGroup_8h.html" target="_top" xlink:title=" ">
<polygon fill="white" stroke="#666666" points="1164,-239 1051,-239 1051,-220 1164,-220 1164,-239"/>
<text text-anchor="middle" x="1107.5" y="-227" font-family="Helvetica,sans-Serif" font-size="10.00">GPSRTKFactGroup.h</text>
</a>
</g>
</g>
<!-- Node1&#45;&gt;Node2 -->
<g id="edge1_Node000001_Node000002" class="edge">
<title>Node1&#45;&gt;Node2</title>
<g id="a_edge1_Node000001_Node000002"><a xlink:title=" ">
<path fill="none" stroke="#63b8ff" d="M1142.56,-274.75C1136.63,-267.26 1127.93,-256.28 1120.68,-247.13"/>
<polygon fill="#63b8ff" stroke="#63b8ff" points="1123.26,-244.75 1114.31,-239.09 1117.77,-249.1 1123.26,-244.75"/>
</a>
</g>
</g>
<!-- Node22 -->
<g id="Node000022" class="node">
<title>Node22</title>
<g id="a_Node000022"><a xlink:href="QGCLoggingCategory_8h.html" target="_top" xlink:title=" ">
<polygon fill="white" stroke="#666666" points="1263.5,-74 1135.5,-74 1135.5,-55 1263.5,-55 1263.5,-74"/>
<text text-anchor="middle" x="1199.5" y="-62" font-family="Helvetica,sans-Serif" font-size="10.00">QGCLoggingCategory.h</text>
</a>
</g>
</g>
<!-- Node1&#45;&gt;Node22 -->
<g id="edge30_Node000001_Node000022" class="edge">
<title>Node1&#45;&gt;Node22</title>
<g id="a_edge30_Node000001_Node000022"><a xlink:title=" ">
<path fill="none" stroke="#63b8ff" d="M1155.43,-274.71C1161,-266.02 1169.12,-252.16 1173.5,-239 1191.6,-184.7 1197.13,-116.63 1198.8,-84.26"/>
<polygon fill="#63b8ff" stroke="#63b8ff" points="1202.31,-84.19 1199.26,-74.05 1195.31,-83.88 1202.31,-84.19"/>
</a>
</g>
</g>
<!-- Node3 -->
<g id="Node000003" class="node">
<title>Node3</title>
<g id="a_Node000003"><a xlink:title=" ">
<polygon fill="#e0e0e0" stroke="#999999" points="1042,-19 899,-19 899,0 1042,0 1042,-19"/>
<text text-anchor="middle" x="970.5" y="-7" font-family="Helvetica,sans-Serif" font-size="10.00">QtCore/QLoggingCategory</text>
</a>
</g>
</g>
<!-- Node2&#45;&gt;Node3 -->
<g id="edge2_Node000002_Node000003" class="edge">
<title>Node2&#45;&gt;Node3</title>
<g id="a_edge2_Node000002_Node000003"><a xlink:title=" ">
<path fill="none" stroke="#63b8ff" d="M1107.95,-219.78C1108.88,-192.27 1108.18,-106.08 1066.5,-55 1053.96,-39.63 1034.91,-29.31 1017.08,-22.51"/>
<polygon fill="#63b8ff" stroke="#63b8ff" points="1017.95,-19.1 1007.35,-19.09 1015.62,-25.71 1017.95,-19.1"/>
</a>
</g>
</g>
<!-- Node4 -->
<g id="Node000004" class="node">
<title>Node4</title>
<g id="a_Node000004"><a xlink:href="FactGroup_8h.html" target="_top" xlink:title=" ">
<polygon fill="white" stroke="#666666" points="502.5,-184 428.5,-184 428.5,-165 502.5,-165 502.5,-184"/>
<text text-anchor="middle" x="465.5" y="-172" font-family="Helvetica,sans-Serif" font-size="10.00">FactGroup.h</text>
</a>
</g>
</g>
<!-- Node2&#45;&gt;Node4 -->
<g id="edge3_Node000002_Node000004" class="edge">
<title>Node2&#45;&gt;Node4</title>
<g id="a_edge3_Node000002_Node000004"><a xlink:title=" ">
<path fill="none" stroke="#63b8ff" d="M1050.81,-223.82C925.86,-213.5 628.68,-188.97 512.86,-179.41"/>
<polygon fill="#63b8ff" stroke="#63b8ff" points="512.81,-175.89 502.55,-178.56 512.23,-182.87 512.81,-175.89"/>
</a>
</g>
</g>
<!-- Node4&#45;&gt;Node3 -->
<g id="edge4_Node000004_Node000003" class="edge">
<title>Node4&#45;&gt;Node3</title>
<g id="a_edge4_Node000004_Node000003"><a xlink:title=" ">
<path fill="none" stroke="#63b8ff" d="M502.63,-173.71C608.3,-173.78 908.68,-170.25 996.5,-129 1033.35,-111.69 1071.14,-90.1 1050.5,-55 1041.76,-40.14 1026.06,-29.88 1010.87,-22.99"/>
<polygon fill="#63b8ff" stroke="#63b8ff" points="1012.12,-19.72 1001.55,-19.13 1009.44,-26.19 1012.12,-19.72"/>
</a>
</g>
</g>
<!-- Node5 -->
<g id="Node000005" class="node">
<title>Node5</title>
<g id="a_Node000005"><a xlink:title=" ">
<polygon fill="#e0e0e0" stroke="#999999" points="314,-19 207,-19 207,0 314,0 314,-19"/>
<text text-anchor="middle" x="260.5" y="-7" font-family="Helvetica,sans-Serif" font-size="10.00">QtCore/QJsonArray</text>
</a>
</g>
</g>
<!-- Node4&#45;&gt;Node5 -->
<g id="edge5_Node000004_Node000005" class="edge">
<title>Node4&#45;&gt;Node5</title>
<g id="a_edge5_Node000004_Node000005"><a xlink:title=" ">
<path fill="none" stroke="#63b8ff" d="M465.22,-164.82C464.31,-151.25 460.57,-125.01 445.5,-110 407.25,-71.91 376.28,-100.94 329.5,-74 307.8,-61.51 287.27,-41.1 274.33,-26.8"/>
<polygon fill="#63b8ff" stroke="#63b8ff" points="276.88,-24.4 267.64,-19.2 271.62,-29.02 276.88,-24.4"/>
</a>
</g>
</g>
<!-- Node6 -->
<g id="Node000006" class="node">
<title>Node6</title>
<g id="a_Node000006"><a xlink:title=" ">
<polygon fill="#e0e0e0" stroke="#999999" points="204.5,-129 122.5,-129 122.5,-110 204.5,-110 204.5,-129"/>
<text text-anchor="middle" x="163.5" y="-117" font-family="Helvetica,sans-Serif" font-size="10.00">QtCore/QMap</text>
</a>
</g>
</g>
<!-- Node4&#45;&gt;Node6 -->
<g id="edge6_Node000004_Node000006" class="edge">
<title>Node4&#45;&gt;Node6</title>
<g id="a_edge6_Node000004_Node000006"><a xlink:title=" ">
<path fill="none" stroke="#63b8ff" d="M428.47,-167C374.87,-157.59 275.46,-140.15 214.82,-129.51"/>
<polygon fill="#63b8ff" stroke="#63b8ff" points="215.16,-126.01 204.7,-127.73 213.95,-132.91 215.16,-126.01"/>
</a>
</g>
</g>
<!-- Node7 -->
<g id="Node000007" class="node">
<title>Node7</title>
<g id="a_Node000007"><a xlink:title=" ">
<polygon fill="#e0e0e0" stroke="#999999" points="330,-129 223,-129 223,-110 330,-110 330,-129"/>
<text text-anchor="middle" x="276.5" y="-117" font-family="Helvetica,sans-Serif" font-size="10.00">QtCore/QStringList</text>
</a>
</g>
</g>
<!-- Node4&#45;&gt;Node7 -->
<g id="edge7_Node000004_Node000007" class="edge">
<title>Node4&#45;&gt;Node7</title>
<g id="a_edge7_Node000004_Node000007"><a xlink:title=" ">
<path fill="none" stroke="#63b8ff" d="M435.13,-164.98C403.13,-156.01 352.54,-141.82 317.12,-131.89"/>
<polygon fill="#63b8ff" stroke="#63b8ff" points="317.68,-128.41 307.1,-129.08 315.79,-135.15 317.68,-128.41"/>
</a>
</g>
</g>
<!-- Node8 -->
<g id="Node000008" class="node">
<title>Node8</title>
<g id="a_Node000008"><a xlink:title=" ">
<polygon fill="#e0e0e0" stroke="#999999" points="437,-129 348,-129 348,-110 437,-110 437,-129"/>
<text text-anchor="middle" x="392.5" y="-117" font-family="Helvetica,sans-Serif" font-size="10.00">QtCore/QTimer</text>
</a>
</g>
</g>
<!-- Node4&#45;&gt;Node8 -->
<g id="edge8_Node000004_Node000008" class="edge">
<title>Node4&#45;&gt;Node8</title>
<g id="a_edge8_Node000004_Node000008"><a xlink:title=" ">
<path fill="none" stroke="#63b8ff" d="M453.77,-164.98C442.77,-157 426.08,-144.88 412.9,-135.31"/>
<polygon fill="#63b8ff" stroke="#63b8ff" points="414.59,-132.21 404.44,-129.17 410.48,-137.88 414.59,-132.21"/>
</a>
</g>
</g>
<!-- Node9 -->
<g id="Node000009" class="node">
<title>Node9</title>
<g id="a_Node000009"><a xlink:title=" ">
<polygon fill="#e0e0e0" stroke="#999999" points="189,-19 0,-19 0,0 189,0 189,-19"/>
<text text-anchor="middle" x="94.5" y="-7" font-family="Helvetica,sans-Serif" font-size="10.00">QtQmlIntegration/QtQmlIntegration</text>
</a>
</g>
</g>
<!-- Node4&#45;&gt;Node9 -->
<g id="edge9_Node000004_Node000009" class="edge">
<title>Node4&#45;&gt;Node9</title>
<g id="a_edge9_Node000004_Node000009"><a xlink:title=" ">
<path fill="none" stroke="#63b8ff" d="M428.39,-174.19C347.24,-174.89 157.72,-171.77 113.5,-129 86.76,-103.13 88.08,-55.69 91.32,-29.36"/>
<polygon fill="#63b8ff" stroke="#63b8ff" points="94.83,-29.6 92.81,-19.2 87.9,-28.59 94.83,-29.6"/>
</a>
</g>
</g>
<!-- Node10 -->
<g id="Node000010" class="node">
<title>Node10</title>
<g id="a_Node000010"><a xlink:href="Fact_8h.html" target="_top" xlink:title=" ">
<polygon fill="white" stroke="#666666" points="557,-129 512,-129 512,-110 557,-110 557,-129"/>
<text text-anchor="middle" x="534.5" y="-117" font-family="Helvetica,sans-Serif" font-size="10.00">Fact.h</text>
</a>
</g>
</g>
<!-- Node4&#45;&gt;Node10 -->
<g id="edge10_Node000004_Node000010" class="edge">
<title>Node4&#45;&gt;Node10</title>
<g id="a_edge10_Node000004_Node000010"><a xlink:title=" ">
<path fill="none" stroke="#63b8ff" d="M476.59,-164.98C486.99,-157 502.76,-144.88 515.22,-135.31"/>
<polygon fill="#63b8ff" stroke="#63b8ff" points="517.41,-138.04 523.21,-129.17 513.15,-132.49 517.41,-138.04"/>
</a>
</g>
</g>
<!-- Node19 -->
<g id="Node000019" class="node">
<title>Node19</title>
<g id="a_Node000019"><a xlink:href="MAVLinkMessageType_8h.html" target="_top" xlink:title=" ">
<polygon fill="white" stroke="#666666" points="987.5,-129 853.5,-129 853.5,-110 987.5,-110 987.5,-129"/>
<text text-anchor="middle" x="920.5" y="-117" font-family="Helvetica,sans-Serif" font-size="10.00">MAVLinkMessageType.h</text>
</a>
</g>
</g>
<!-- Node4&#45;&gt;Node19 -->
<g id="edge27_Node000004_Node000019" class="edge">
<title>Node4&#45;&gt;Node19</title>
<g id="a_edge27_Node000004_Node000019"><a xlink:title=" ">
<path fill="none" stroke="#63b8ff" d="M502.73,-169.16C576.91,-160.52 744.48,-141 843.38,-129.48"/>
<polygon fill="#63b8ff" stroke="#63b8ff" points="843.79,-132.96 853.32,-128.33 842.98,-126.01 843.79,-132.96"/>
</a>
</g>
</g>
<!-- Node10&#45;&gt;Node3 -->
<g id="edge11_Node000010_Node000003" class="edge">
<title>Node10&#45;&gt;Node3</title>
<g id="a_edge11_Node000010_Node000003"><a xlink:title=" ">
<path fill="none" stroke="#63b8ff" d="M557.12,-116.57C604.84,-112.13 719.01,-99.56 811.5,-74 824.42,-70.43 898.12,-40.34 940.5,-22.9"/>
<polygon fill="#63b8ff" stroke="#63b8ff" points="941.88,-26.11 949.79,-19.07 939.21,-19.64 941.88,-26.11"/>
</a>
</g>
</g>
<!-- Node10&#45;&gt;Node9 -->
<g id="edge17_Node000010_Node000009" class="edge">
<title>Node10&#45;&gt;Node9</title>
<g id="a_edge17_Node000010_Node000009"><a xlink:title=" ">
<path fill="none" stroke="#63b8ff" d="M511.97,-113.99C474.13,-106.34 395.49,-90.07 329.5,-74 260.45,-57.19 180.71,-35.06 134.13,-21.86"/>
<polygon fill="#63b8ff" stroke="#63b8ff" points="135,-18.47 124.42,-19.1 133.09,-25.2 135,-18.47"/>
</a>
</g>
</g>
<!-- Node11 -->
<g id="Node000011" class="node">
<title>Node11</title>
<g id="a_Node000011"><a xlink:title=" ">
<polygon fill="#e0e0e0" stroke="#999999" points="470,-74 347,-74 347,-55 470,-55 470,-74"/>
<text text-anchor="middle" x="408.5" y="-62" font-family="Helvetica,sans-Serif" font-size="10.00">QtCore/QMutexLocker</text>
</a>
</g>
</g>
<!-- Node10&#45;&gt;Node11 -->
<g id="edge12_Node000010_Node000011" class="edge">
<title>Node10&#45;&gt;Node11</title>
<g id="a_edge12_Node000010_Node000011"><a xlink:title=" ">
<path fill="none" stroke="#63b8ff" d="M514.26,-109.98C493.8,-101.38 461.97,-87.99 438.57,-78.15"/>
<polygon fill="#63b8ff" stroke="#63b8ff" points="439.69,-74.82 429.11,-74.17 436.97,-81.27 439.69,-74.82"/>
</a>
</g>
</g>
<!-- Node12 -->
<g id="Node000012" class="node">
<title>Node12</title>
<g id="a_Node000012"><a xlink:title=" ">
<polygon fill="#e0e0e0" stroke="#999999" points="880.5,-19 788.5,-19 788.5,0 880.5,0 880.5,-19"/>
<text text-anchor="middle" x="834.5" y="-7" font-family="Helvetica,sans-Serif" font-size="10.00">QtCore/QObject</text>
</a>
</g>
</g>
<!-- Node10&#45;&gt;Node12 -->
<g id="edge13_Node000010_Node000012" class="edge">
<title>Node10&#45;&gt;Node12</title>
<g id="a_edge13_Node000010_Node000012"><a xlink:title=" ">
<path fill="none" stroke="#63b8ff" d="M557.08,-116.63C611.45,-111.8 747.94,-97.6 786.5,-74 804.31,-63.1 817.82,-42.94 825.9,-28.25"/>
<polygon fill="#63b8ff" stroke="#63b8ff" points="829.13,-29.63 830.61,-19.14 822.91,-26.41 829.13,-29.63"/>
</a>
</g>
</g>
<!-- Node13 -->
<g id="Node000013" class="node">
<title>Node13</title>
<g id="a_Node000013"><a xlink:title=" ">
<polygon fill="#e0e0e0" stroke="#999999" points="777.5,-74 637.5,-74 637.5,-55 777.5,-55 777.5,-74"/>
<text text-anchor="middle" x="707.5" y="-62" font-family="Helvetica,sans-Serif" font-size="10.00">QtCore/QRecursiveMutex</text>
</a>
</g>
</g>
<!-- Node10&#45;&gt;Node13 -->
<g id="edge14_Node000010_Node000013" class="edge">
<title>Node10&#45;&gt;Node13</title>
<g id="a_edge14_Node000010_Node000013"><a xlink:title=" ">
<path fill="none" stroke="#63b8ff" d="M557.12,-111.57C585.79,-102.79 635.63,-87.52 670.03,-76.98"/>
<polygon fill="#63b8ff" stroke="#63b8ff" points="671.19,-80.28 679.73,-74.01 669.14,-73.59 671.19,-80.28"/>
</a>
</g>
</g>
<!-- Node14 -->
<g id="Node000014" class="node">
<title>Node14</title>
<g id="a_Node000014"><a xlink:title=" ">
<polygon fill="#e0e0e0" stroke="#999999" points="770,-19 681,-19 681,0 770,0 770,-19"/>
<text text-anchor="middle" x="725.5" y="-7" font-family="Helvetica,sans-Serif" font-size="10.00">QtCore/QString</text>
</a>
</g>
</g>
<!-- Node10&#45;&gt;Node14 -->
<g id="edge15_Node000010_Node000014" class="edge">
<title>Node10&#45;&gt;Node14</title>
<g id="a_edge15_Node000010_Node000014"><a xlink:title=" ">
<path fill="none" stroke="#63b8ff" d="M545.98,-109.84C563.3,-96.98 597.43,-72.47 628.5,-55 650.05,-42.88 675.5,-31.31 694.91,-23"/>
<polygon fill="#63b8ff" stroke="#63b8ff" points="696.34,-26.2 704.19,-19.08 693.62,-19.75 696.34,-26.2"/>
</a>
</g>
</g>
<!-- Node15 -->
<g id="Node000015" class="node">
<title>Node15</title>
<g id="a_Node000015"><a xlink:title=" ">
<polygon fill="#e0e0e0" stroke="#999999" points="427,-19 332,-19 332,0 427,0 427,-19"/>
<text text-anchor="middle" x="379.5" y="-7" font-family="Helvetica,sans-Serif" font-size="10.00">QtCore/QVariant</text>
</a>
</g>
</g>
<!-- Node10&#45;&gt;Node15 -->
<g id="edge16_Node000010_Node000015" class="edge">
<title>Node10&#45;&gt;Node15</title>
<g id="a_edge16_Node000010_Node000015"><a xlink:title=" ">
<path fill="none" stroke="#63b8ff" d="M511.92,-115.01C462.53,-107.15 348.45,-87.69 337.5,-74 324.85,-58.17 342.41,-38.53 358.53,-25.32"/>
<polygon fill="#63b8ff" stroke="#63b8ff" points="360.88,-27.93 366.67,-19.05 356.61,-22.39 360.88,-27.93"/>
</a>
</g>
</g>
<!-- Node16 -->
<g id="Node000016" class="node">
<title>Node16</title>
<g id="a_Node000016"><a xlink:href="FactMetaData_8h.html" target="_top" xlink:title=" ">
<polygon fill="white" stroke="#666666" points="581,-74 488,-74 488,-55 581,-55 581,-74"/>
<text text-anchor="middle" x="534.5" y="-62" font-family="Helvetica,sans-Serif" font-size="10.00">FactMetaData.h</text>
</a>
</g>
</g>
<!-- Node10&#45;&gt;Node16 -->
<g id="edge18_Node000010_Node000016" class="edge">
<title>Node10&#45;&gt;Node16</title>
<g id="a_edge18_Node000010_Node000016"><a xlink:title=" ">
<path fill="none" stroke="#63b8ff" d="M534.5,-109.75C534.5,-102.8 534.5,-92.85 534.5,-84.13"/>
<polygon fill="#63b8ff" stroke="#63b8ff" points="538,-84.09 534.5,-74.09 531,-84.09 538,-84.09"/>
</a>
</g>
</g>
<!-- Node16&#45;&gt;Node3 -->
<g id="edge20_Node000016_Node000003" class="edge">
<title>Node16&#45;&gt;Node3</title>
<g id="a_edge20_Node000016_Node000003"><a xlink:title=" ">
<path fill="none" stroke="#63b8ff" d="M581.16,-57.83C655.06,-48.85 799.92,-31.24 890.59,-20.21"/>
<polygon fill="#63b8ff" stroke="#63b8ff" points="891.05,-23.68 900.55,-19 890.21,-16.73 891.05,-23.68"/>
</a>
</g>
</g>
<!-- Node16&#45;&gt;Node5 -->
<g id="edge21_Node000016_Node000005" class="edge">
<title>Node16&#45;&gt;Node5</title>
<g id="a_edge21_Node000016_Node000005"><a xlink:title=" ">
<path fill="none" stroke="#63b8ff" d="M490.48,-54.98C442.68,-45.74 366.3,-30.97 314.82,-21.01"/>
<polygon fill="#63b8ff" stroke="#63b8ff" points="315.35,-17.54 304.87,-19.08 314.02,-24.42 315.35,-17.54"/>
</a>
</g>
</g>
<!-- Node16&#45;&gt;Node9 -->
<g id="edge26_Node000016_Node000009" class="edge">
<title>Node16&#45;&gt;Node9</title>
<g id="a_edge26_Node000016_Node000009"><a xlink:title=" ">
<path fill="none" stroke="#63b8ff" d="M487.77,-56.28C484.63,-55.84 481.52,-55.4 478.5,-55 378.39,-41.61 263.28,-28.58 185.4,-20.12"/>
<polygon fill="#63b8ff" stroke="#63b8ff" points="185.46,-16.61 175.14,-19.01 184.7,-23.57 185.46,-16.61"/>
</a>
</g>
</g>
<!-- Node16&#45;&gt;Node12 -->
<g id="edge23_Node000016_Node000012" class="edge">
<title>Node16&#45;&gt;Node12</title>
<g id="a_edge23_Node000016_Node000012"><a xlink:title=" ">
<path fill="none" stroke="#63b8ff" d="M581.05,-55.28C634.3,-45.87 721.47,-30.47 778.42,-20.41"/>
<polygon fill="#63b8ff" stroke="#63b8ff" points="779.1,-23.84 788.34,-18.66 777.88,-16.95 779.1,-23.84"/>
</a>
</g>
</g>
<!-- Node16&#45;&gt;Node14 -->
<g id="edge24_Node000016_Node000014" class="edge">
<title>Node16&#45;&gt;Node14</title>
<g id="a_edge24_Node000016_Node000014"><a xlink:title=" ">
<path fill="none" stroke="#63b8ff" d="M565.19,-54.98C597.67,-45.97 649.1,-31.7 684.91,-21.76"/>
<polygon fill="#63b8ff" stroke="#63b8ff" points="685.87,-25.13 694.57,-19.08 684,-18.38 685.87,-25.13"/>
</a>
</g>
</g>
<!-- Node16&#45;&gt;Node15 -->
<g id="edge25_Node000016_Node000015" class="edge">
<title>Node16&#45;&gt;Node15</title>
<g id="a_edge25_Node000016_Node000015"><a xlink:title=" ">
<path fill="none" stroke="#63b8ff" d="M509.6,-54.98C483.8,-46.16 443.28,-32.31 414.32,-22.41"/>
<polygon fill="#63b8ff" stroke="#63b8ff" points="415.19,-19.01 404.6,-19.08 412.93,-25.63 415.19,-19.01"/>
</a>
</g>
</g>
<!-- Node17 -->
<g id="Node000017" class="node">
<title>Node17</title>
<g id="a_Node000017"><a xlink:title=" ">
<polygon fill="#e0e0e0" stroke="#999999" points="662.5,-19 576.5,-19 576.5,0 662.5,0 662.5,-19"/>
<text text-anchor="middle" x="619.5" y="-7" font-family="Helvetica,sans-Serif" font-size="10.00">QtCore/QHash</text>
</a>
</g>
</g>
<!-- Node16&#45;&gt;Node17 -->
<g id="edge19_Node000016_Node000017" class="edge">
<title>Node16&#45;&gt;Node17</title>
<g id="a_edge19_Node000016_Node000017"><a xlink:title=" ">
<path fill="none" stroke="#63b8ff" d="M548.16,-54.98C561.34,-46.77 581.53,-34.18 597.07,-24.49"/>
<polygon fill="#63b8ff" stroke="#63b8ff" points="598.96,-27.43 605.59,-19.17 595.26,-21.49 598.96,-27.43"/>
</a>
</g>
</g>
<!-- Node18 -->
<g id="Node000018" class="node">
<title>Node18</title>
<g id="a_Node000018"><a xlink:title=" ">
<polygon fill="#e0e0e0" stroke="#999999" points="558,-19 445,-19 445,0 558,0 558,-19"/>
<text text-anchor="middle" x="501.5" y="-7" font-family="Helvetica,sans-Serif" font-size="10.00">QtCore/QJsonObject</text>
</a>
</g>
</g>
<!-- Node16&#45;&gt;Node18 -->
<g id="edge22_Node000016_Node000018" class="edge">
<title>Node16&#45;&gt;Node18</title>
<g id="a_edge22_Node000016_Node000018"><a xlink:title=" ">
<path fill="none" stroke="#63b8ff" d="M529.05,-54.75C524.49,-47.42 517.83,-36.73 512.21,-27.7"/>
<polygon fill="#63b8ff" stroke="#63b8ff" points="515.1,-25.73 506.85,-19.09 509.16,-29.43 515.1,-25.73"/>
</a>
</g>
</g>
<!-- Node20 -->
<g id="Node000020" class="node">
<title>Node20</title>
<g id="a_Node000020"><a xlink:title=" ">
<polygon fill="#e0e0e0" stroke="#999999" points="1041,-74 988,-74 988,-55 1041,-55 1041,-74"/>
<text text-anchor="middle" x="1014.5" y="-62" font-family="Helvetica,sans-Serif" font-size="10.00">stdint.h</text>
</a>
</g>
</g>
<!-- Node19&#45;&gt;Node20 -->
<g id="edge28_Node000019_Node000020" class="edge">
<title>Node19&#45;&gt;Node20</title>
<g id="a_edge28_Node000019_Node000020"><a xlink:title=" ">
<path fill="none" stroke="#63b8ff" d="M935.6,-109.98C950.32,-101.69 972.92,-88.94 990.17,-79.22"/>
<polygon fill="#63b8ff" stroke="#63b8ff" points="992.13,-82.13 999.12,-74.17 988.69,-76.03 992.13,-82.13"/>
</a>
</g>
</g>
<!-- Node21 -->
<g id="Node000021" class="node">
<title>Node21</title>
<g id="a_Node000021"><a xlink:title=" ">
<polygon fill="#e0e0e0" stroke="#999999" points="969.5,-74 871.5,-74 871.5,-55 969.5,-55 969.5,-74"/>
<text text-anchor="middle" x="920.5" y="-62" font-family="Helvetica,sans-Serif" font-size="10.00">mavlink_types.h</text>
</a>
</g>
</g>
<!-- Node19&#45;&gt;Node21 -->
<g id="edge29_Node000019_Node000021" class="edge">
<title>Node19&#45;&gt;Node21</title>
<g id="a_edge29_Node000019_Node000021"><a xlink:title=" ">
<path fill="none" stroke="#63b8ff" d="M920.5,-109.75C920.5,-102.8 920.5,-92.85 920.5,-84.13"/>
<polygon fill="#63b8ff" stroke="#63b8ff" points="924,-84.09 920.5,-74.09 917,-84.09 924,-84.09"/>
</a>
</g>
</g>
<!-- Node22&#45;&gt;Node3 -->
<g id="edge32_Node000022_Node000003" class="edge">
<title>Node22&#45;&gt;Node3</title>
<g id="a_edge32_Node000022_Node000003"><a xlink:title=" ">
<path fill="none" stroke="#63b8ff" d="M1162.71,-54.98C1123.26,-45.86 1060.52,-31.33 1017.52,-21.38"/>
<polygon fill="#63b8ff" stroke="#63b8ff" points="1018.11,-17.93 1007.58,-19.08 1016.53,-24.75 1018.11,-17.93"/>
</a>
</g>
</g>
<!-- Node22&#45;&gt;Node12 -->
<g id="edge33_Node000022_Node000012" class="edge">
<title>Node22&#45;&gt;Node12</title>
<g id="a_edge33_Node000022_Node000012"><a xlink:title=" ">
<path fill="none" stroke="#63b8ff" d="M1138.88,-55C1078.57,-46.49 983.09,-32.9 890.78,-19.18"/>
<polygon fill="#63b8ff" stroke="#63b8ff" points="891.11,-15.69 880.71,-17.68 890.08,-22.61 891.11,-15.69"/>
</a>
</g>
</g>
<!-- Node22&#45;&gt;Node14 -->
<g id="edge36_Node000022_Node000014" class="edge">
<title>Node22&#45;&gt;Node14</title>
<g id="a_edge36_Node000022_Node000014"><a xlink:title=" ">
<path fill="none" stroke="#63b8ff" d="M1135.34,-57.72C1054.95,-50.25 912.72,-36.28 780.57,-19.08"/>
<polygon fill="#63b8ff" stroke="#63b8ff" points="780.63,-15.55 770.26,-17.72 779.72,-22.5 780.63,-15.55"/>
</a>
</g>
</g>
<!-- Node22&#45;&gt;Node17 -->
<g id="edge31_Node000022_Node000017" class="edge">
<title>Node22&#45;&gt;Node17</title>
<g id="a_edge31_Node000022_Node000017"><a xlink:title=" ">
<path fill="none" stroke="#63b8ff" d="M1135.12,-59.7C1037.41,-53.57 845.6,-40.13 672.64,-19.05"/>
<polygon fill="#63b8ff" stroke="#63b8ff" points="672.95,-15.56 662.59,-17.81 672.09,-22.5 672.95,-15.56"/>
</a>
</g>
</g>
<!-- Node23 -->
<g id="Node000023" class="node">
<title>Node23</title>
<g id="a_Node000023"><a xlink:title=" ">
<polygon fill="#e0e0e0" stroke="#999999" points="1194.5,-19 1060.5,-19 1060.5,0 1194.5,0 1194.5,-19"/>
<text text-anchor="middle" x="1127.5" y="-7" font-family="Helvetica,sans-Serif" font-size="10.00">QtCore/QReadWriteLock</text>
</a>
</g>
</g>
<!-- Node22&#45;&gt;Node23 -->
<g id="edge34_Node000022_Node000023" class="edge">
<title>Node22&#45;&gt;Node23</title>
<g id="a_edge34_Node000022_Node000023"><a xlink:title=" ">
<path fill="none" stroke="#63b8ff" d="M1187.93,-54.98C1177.08,-47 1160.62,-34.88 1147.62,-25.31"/>
<polygon fill="#63b8ff" stroke="#63b8ff" points="1149.41,-22.28 1139.28,-19.17 1145.26,-27.92 1149.41,-22.28"/>
</a>
</g>
</g>
<!-- Node24 -->
<g id="Node000024" class="node">
<title>Node24</title>
<g id="a_Node000024"><a xlink:title=" ">
<polygon fill="#e0e0e0" stroke="#999999" points="1290,-19 1213,-19 1213,0 1290,0 1290,-19"/>
<text text-anchor="middle" x="1251.5" y="-7" font-family="Helvetica,sans-Serif" font-size="10.00">QtCore/QSet</text>
</a>
</g>
</g>
<!-- Node22&#45;&gt;Node24 -->
<g id="edge35_Node000022_Node000024" class="edge">
<title>Node22&#45;&gt;Node24</title>
<g id="a_edge35_Node000022_Node000024"><a xlink:title=" ">
<path fill="none" stroke="#63b8ff" d="M1208.09,-54.75C1215.66,-47.03 1226.88,-35.6 1236.01,-26.28"/>
<polygon fill="#63b8ff" stroke="#63b8ff" points="1238.57,-28.68 1243.07,-19.09 1233.57,-23.78 1238.57,-28.68"/>
</a>
</g>
</g>
<!-- Node25 -->
<g id="Node000025" class="node">
<title>Node25</title>
<g id="a_Node000025"><a xlink:title=" ">
<polygon fill="#e0e0e0" stroke="#999999" points="1471,-19 1308,-19 1308,0 1471,0 1471,-19"/>
<text text-anchor="middle" x="1389.5" y="-7" font-family="Helvetica,sans-Serif" font-size="10.00">QtCore/QSortFilterProxyModel</text>
</a>
</g>
</g>
<!-- Node22&#45;&gt;Node25 -->
<g id="edge37_Node000022_Node000025" class="edge">
<title>Node22&#45;&gt;Node25</title>
<g id="a_edge37_Node000022_Node000025"><a xlink:title=" ">
<path fill="none" stroke="#63b8ff" d="M1230.03,-54.98C1262.2,-46.01 1313.06,-31.82 1348.67,-21.89"/>
<polygon fill="#63b8ff" stroke="#63b8ff" points="1350.04,-25.14 1358.73,-19.08 1348.16,-18.4 1350.04,-25.14"/>
</a>
</g>
</g>
<!-- Node26 -->
<g id="Node000026" class="node">
<title>Node26</title>
<g id="a_Node000026"><a xlink:title=" ">
<polygon fill="#e0e0e0" stroke="#999999" points="1574,-19 1489,-19 1489,0 1574,0 1574,-19"/>
<text text-anchor="middle" x="1531.5" y="-7" font-family="Helvetica,sans-Serif" font-size="10.00">QtQml/qqml.h</text>
</a>
</g>
</g>
<!-- Node22&#45;&gt;Node26 -->
<g id="edge38_Node000022_Node000026" class="edge">
<title>Node22&#45;&gt;Node26</title>
<g id="a_edge38_Node000022_Node000026"><a xlink:title=" ">
<path fill="none" stroke="#63b8ff" d="M1254.18,-54.98C1308.66,-46.45 1395,-32.86 1478.97,-19.24"/>
<polygon fill="#63b8ff" stroke="#63b8ff" points="1479.62,-22.68 1488.93,-17.62 1478.5,-15.77 1479.62,-22.68"/>
</a>
</g>
</g>
</g>
</svg>
