<?xml version="1.0" encoding="UTF-8" standalone="no"?>
<!DOCTYPE svg PUBLIC "-//W3C//DTD SVG 1.1//EN"
 "http://www.w3.org/Graphics/SVG/1.1/DTD/svg11.dtd">
<!-- Generated by graphviz version 2.43.0 (0)
 -->
<!-- Title: src/VideoManager/VideoReceiver/GStreamer/gstqml6gl/qt6/gstqsg6glnode.h Pages: 1 -->
<svg width="462pt" height="104pt"
 viewBox="0.00 0.00 462.00 104.00" xmlns="http://www.w3.org/2000/svg" xmlns:xlink="http://www.w3.org/1999/xlink">
<g id="graph0" class="graph" transform="scale(1 1) rotate(0) translate(4 100)">
<title>src/VideoManager/VideoReceiver/GStreamer/gstqml6gl/qt6/gstqsg6glnode.h</title>
<!-- Node1 -->
<g id="Node000001" class="node">
<title>Node1</title>
<g id="a_Node000001"><a xlink:title=" ">
<polygon fill="#999999" stroke="#666666" points="346,-96 120,-96 120,-66 346,-66 346,-96"/>
<text text-anchor="start" x="128" y="-84" font-family="Helvetica,sans-Serif" font-size="10.00">src/VideoManager/VideoReceiver</text>
<text text-anchor="middle" x="233" y="-73" font-family="Helvetica,sans-Serif" font-size="10.00">/GStreamer/gstqml6gl/qt6/gstqsg6glnode.h</text>
</a>
</g>
</g>
<!-- Node2 -->
<g id="Node000002" class="node">
<title>Node2</title>
<g id="a_Node000002"><a xlink:href="gstqsg6glnode_8cc.html" target="_top" xlink:title=" ">
<polygon fill="white" stroke="#666666" points="230,-30 0,-30 0,0 230,0 230,-30"/>
<text text-anchor="start" x="8" y="-18" font-family="Helvetica,sans-Serif" font-size="10.00">src/VideoManager/VideoReceiver</text>
<text text-anchor="middle" x="115" y="-7" font-family="Helvetica,sans-Serif" font-size="10.00">/GStreamer/gstqml6gl/qt6/gstqsg6glnode.cc</text>
</a>
</g>
</g>
<!-- Node1&#45;&gt;Node2 -->
<g id="edge1_Node000001_Node000002" class="edge">
<title>Node1&#45;&gt;Node2</title>
<g id="a_edge1_Node000001_Node000002"><a xlink:title=" ">
<path fill="none" stroke="#63b8ff" d="M198.16,-61.11C179.8,-51.14 157.65,-39.13 140.84,-30.01"/>
<polygon fill="#63b8ff" stroke="#63b8ff" points="196.65,-64.26 207.1,-65.95 199.98,-58.11 196.65,-64.26"/>
</a>
</g>
</g>
<!-- Node3 -->
<g id="Node000003" class="node">
<title>Node3</title>
<g id="a_Node000003"><a xlink:href="qt6glitem_8cc.html" target="_top" xlink:title=" ">
<polygon fill="white" stroke="#666666" points="454,-30 248,-30 248,0 454,0 454,-30"/>
<text text-anchor="start" x="256" y="-18" font-family="Helvetica,sans-Serif" font-size="10.00">src/VideoManager/VideoReceiver</text>
<text text-anchor="middle" x="351" y="-7" font-family="Helvetica,sans-Serif" font-size="10.00">/GStreamer/gstqml6gl/qt6/qt6glitem.cc</text>
</a>
</g>
</g>
<!-- Node1&#45;&gt;Node3 -->
<g id="edge2_Node000001_Node000003" class="edge">
<title>Node1&#45;&gt;Node3</title>
<g id="a_edge2_Node000001_Node000003"><a xlink:title=" ">
<path fill="none" stroke="#63b8ff" d="M267.84,-61.11C286.2,-51.14 308.35,-39.13 325.16,-30.01"/>
<polygon fill="#63b8ff" stroke="#63b8ff" points="266.02,-58.11 258.9,-65.95 269.35,-64.26 266.02,-58.11"/>
</a>
</g>
</g>
</g>
</svg>
