<?xml version="1.0" encoding="UTF-8" standalone="no"?>
<!DOCTYPE svg PUBLIC "-//W3C//DTD SVG 1.1//EN"
 "http://www.w3.org/Graphics/SVG/1.1/DTD/svg11.dtd">
<!-- Generated by graphviz version 2.43.0 (0)
 -->
<!-- Title: src/VideoManager/VideoReceiver/GStreamer/gstqgc/gstqml6gl/qt6/gstqt6elements.h Pages: 1 -->
<svg width="578pt" height="126pt"
 viewBox="0.00 0.00 578.00 126.00" xmlns="http://www.w3.org/2000/svg" xmlns:xlink="http://www.w3.org/1999/xlink">
<g id="graph0" class="graph" transform="scale(1 1) rotate(0) translate(4 122)">
<title>src/VideoManager/VideoReceiver/GStreamer/gstqgc/gstqml6gl/qt6/gstqt6elements.h</title>
<!-- Node1 -->
<g id="Node000001" class="node">
<title>Node1</title>
<g id="a_Node000001"><a xlink:title=" ">
<polygon fill="#999999" stroke="#666666" points="374,-118 196,-118 196,-77 374,-77 374,-118"/>
<text text-anchor="start" x="204" y="-106" font-family="Helvetica,sans-Serif" font-size="10.00">src/VideoManager/VideoReceiver</text>
<text text-anchor="start" x="204" y="-95" font-family="Helvetica,sans-Serif" font-size="10.00">/GStreamer/gstqgc/gstqml6gl</text>
<text text-anchor="middle" x="285" y="-84" font-family="Helvetica,sans-Serif" font-size="10.00">/qt6/gstqt6elements.h</text>
</a>
</g>
</g>
<!-- Node2 -->
<g id="Node000002" class="node">
<title>Node2</title>
<g id="a_Node000002"><a xlink:href="gstplugin_8cc.html" target="_top" xlink:title=" ">
<polygon fill="white" stroke="#666666" points="178,-41 0,-41 0,0 178,0 178,-41"/>
<text text-anchor="start" x="8" y="-29" font-family="Helvetica,sans-Serif" font-size="10.00">src/VideoManager/VideoReceiver</text>
<text text-anchor="start" x="8" y="-18" font-family="Helvetica,sans-Serif" font-size="10.00">/GStreamer/gstqgc/gstqml6gl</text>
<text text-anchor="middle" x="89" y="-7" font-family="Helvetica,sans-Serif" font-size="10.00">/qt6/gstplugin.cc</text>
</a>
</g>
</g>
<!-- Node1&#45;&gt;Node2 -->
<g id="edge1_Node000001_Node000002" class="edge">
<title>Node1&#45;&gt;Node2</title>
<g id="a_edge1_Node000001_Node000002"><a xlink:title=" ">
<path fill="none" stroke="#63b8ff" d="M224.64,-73.4C197.56,-63.04 165.96,-50.95 140.07,-41.04"/>
<polygon fill="#63b8ff" stroke="#63b8ff" points="223.42,-76.69 234.01,-76.99 225.93,-70.15 223.42,-76.69"/>
</a>
</g>
</g>
<!-- Node3 -->
<g id="Node000003" class="node">
<title>Node3</title>
<g id="a_Node000003"><a xlink:href="gstqml6glsink_8cc.html" target="_top" xlink:title=" ">
<polygon fill="white" stroke="#666666" points="374,-41 196,-41 196,0 374,0 374,-41"/>
<text text-anchor="start" x="204" y="-29" font-family="Helvetica,sans-Serif" font-size="10.00">src/VideoManager/VideoReceiver</text>
<text text-anchor="start" x="204" y="-18" font-family="Helvetica,sans-Serif" font-size="10.00">/GStreamer/gstqgc/gstqml6gl</text>
<text text-anchor="middle" x="285" y="-7" font-family="Helvetica,sans-Serif" font-size="10.00">/qt6/gstqml6glsink.cc</text>
</a>
</g>
</g>
<!-- Node1&#45;&gt;Node3 -->
<g id="edge2_Node000001_Node000003" class="edge">
<title>Node1&#45;&gt;Node3</title>
<g id="a_edge2_Node000001_Node000003"><a xlink:title=" ">
<path fill="none" stroke="#63b8ff" d="M285,-66.69C285,-58.08 285,-48.9 285,-41.07"/>
<polygon fill="#63b8ff" stroke="#63b8ff" points="281.5,-66.79 285,-76.79 288.5,-66.79 281.5,-66.79"/>
</a>
</g>
</g>
<!-- Node4 -->
<g id="Node000004" class="node">
<title>Node4</title>
<g id="a_Node000004"><a xlink:href="gstqt6element_8cc.html" target="_top" xlink:title=" ">
<polygon fill="white" stroke="#666666" points="570,-41 392,-41 392,0 570,0 570,-41"/>
<text text-anchor="start" x="400" y="-29" font-family="Helvetica,sans-Serif" font-size="10.00">src/VideoManager/VideoReceiver</text>
<text text-anchor="start" x="400" y="-18" font-family="Helvetica,sans-Serif" font-size="10.00">/GStreamer/gstqgc/gstqml6gl</text>
<text text-anchor="middle" x="481" y="-7" font-family="Helvetica,sans-Serif" font-size="10.00">/qt6/gstqt6element.cc</text>
</a>
</g>
</g>
<!-- Node1&#45;&gt;Node4 -->
<g id="edge3_Node000001_Node000004" class="edge">
<title>Node1&#45;&gt;Node4</title>
<g id="a_edge3_Node000001_Node000004"><a xlink:title=" ">
<path fill="none" stroke="#63b8ff" d="M345.36,-73.4C372.44,-63.04 404.04,-50.95 429.93,-41.04"/>
<polygon fill="#63b8ff" stroke="#63b8ff" points="344.07,-70.15 335.99,-76.99 346.58,-76.69 344.07,-70.15"/>
</a>
</g>
</g>
</g>
</svg>
