<?xml version="1.0" encoding="UTF-8" standalone="no"?>
<!DOCTYPE svg PUBLIC "-//W3C//DTD SVG 1.1//EN"
 "http://www.w3.org/Graphics/SVG/1.1/DTD/svg11.dtd">
<!-- Generated by graphviz version 2.43.0 (0)
 -->
<!-- Title: src/VideoManager/VideoReceiver/GStreamer/GStreamer.h Pages: 1 -->
<svg width="580pt" height="170pt"
 viewBox="0.00 0.00 580.00 170.00" xmlns="http://www.w3.org/2000/svg" xmlns:xlink="http://www.w3.org/1999/xlink">
<g id="graph0" class="graph" transform="scale(1 1) rotate(0) translate(4 166)">
<title>src/VideoManager/VideoReceiver/GStreamer/GStreamer.h</title>
<!-- Node1 -->
<g id="Node000001" class="node">
<title>Node1</title>
<g id="a_Node000001"><a xlink:title=" ">
<polygon fill="#999999" stroke="#666666" points="355,-162 177,-162 177,-132 355,-132 355,-162"/>
<text text-anchor="start" x="185" y="-150" font-family="Helvetica,sans-Serif" font-size="10.00">src/VideoManager/VideoReceiver</text>
<text text-anchor="middle" x="266" y="-139" font-family="Helvetica,sans-Serif" font-size="10.00">/GStreamer/GStreamer.h</text>
</a>
</g>
</g>
<!-- Node2 -->
<g id="Node000002" class="node">
<title>Node2</title>
<g id="a_Node000002"><a xlink:href="GStreamer_8cc.html" target="_top" xlink:title=" ">
<polygon fill="white" stroke="#666666" points="178,-30 0,-30 0,0 178,0 178,-30"/>
<text text-anchor="start" x="8" y="-18" font-family="Helvetica,sans-Serif" font-size="10.00">src/VideoManager/VideoReceiver</text>
<text text-anchor="middle" x="89" y="-7" font-family="Helvetica,sans-Serif" font-size="10.00">/GStreamer/GStreamer.cc</text>
</a>
</g>
</g>
<!-- Node1&#45;&gt;Node2 -->
<g id="edge1_Node000001_Node000002" class="edge">
<title>Node1&#45;&gt;Node2</title>
<g id="a_edge1_Node000001_Node000002"><a xlink:title=" ">
<path fill="none" stroke="#63b8ff" d="M222.3,-127.4C204.69,-118.98 184.65,-108.18 168,-96 141.06,-76.29 114.86,-47.22 100.44,-30.08"/>
<polygon fill="#63b8ff" stroke="#63b8ff" points="221.26,-130.78 231.8,-131.83 224.21,-124.43 221.26,-130.78"/>
</a>
</g>
</g>
<!-- Node3 -->
<g id="Node000003" class="node">
<title>Node3</title>
<g id="a_Node000003"><a xlink:href="GStreamerHelpers_8h.html" target="_top" xlink:title=" ">
<polygon fill="white" stroke="#666666" points="355,-96 177,-96 177,-66 355,-66 355,-96"/>
<text text-anchor="start" x="185" y="-84" font-family="Helvetica,sans-Serif" font-size="10.00">src/VideoManager/VideoReceiver</text>
<text text-anchor="middle" x="266" y="-73" font-family="Helvetica,sans-Serif" font-size="10.00">/GStreamer/GStreamerHelpers.h</text>
</a>
</g>
</g>
<!-- Node1&#45;&gt;Node3 -->
<g id="edge2_Node000001_Node000003" class="edge">
<title>Node1&#45;&gt;Node3</title>
<g id="a_edge2_Node000001_Node000003"><a xlink:title=" ">
<path fill="none" stroke="#63b8ff" d="M266,-121.54C266,-112.96 266,-103.61 266,-96.16"/>
<polygon fill="#63b8ff" stroke="#63b8ff" points="262.5,-121.8 266,-131.8 269.5,-121.8 262.5,-121.8"/>
</a>
</g>
</g>
<!-- Node6 -->
<g id="Node000006" class="node">
<title>Node6</title>
<g id="a_Node000006"><a xlink:href="GStreamerLogging_8cc.html" target="_top" xlink:title=" ">
<polygon fill="white" stroke="#666666" points="552.5,-96 373.5,-96 373.5,-66 552.5,-66 552.5,-96"/>
<text text-anchor="start" x="381.5" y="-84" font-family="Helvetica,sans-Serif" font-size="10.00">src/VideoManager/VideoReceiver</text>
<text text-anchor="middle" x="463" y="-73" font-family="Helvetica,sans-Serif" font-size="10.00">/GStreamer/GStreamerLogging.cc</text>
</a>
</g>
</g>
<!-- Node1&#45;&gt;Node6 -->
<g id="edge6_Node000001_Node000006" class="edge">
<title>Node1&#45;&gt;Node6</title>
<g id="a_edge6_Node000001_Node000006"><a xlink:title=" ">
<path fill="none" stroke="#63b8ff" d="M318.77,-128.86C350.4,-118.58 390.12,-105.68 419.87,-96.01"/>
<polygon fill="#63b8ff" stroke="#63b8ff" points="317.66,-125.54 309.23,-131.95 319.82,-132.19 317.66,-125.54"/>
</a>
</g>
</g>
<!-- Node3&#45;&gt;Node2 -->
<g id="edge3_Node000003_Node000002" class="edge">
<title>Node3&#45;&gt;Node2</title>
<g id="a_edge3_Node000003_Node000002"><a xlink:title=" ">
<path fill="none" stroke="#63b8ff" d="M217.48,-62.46C189.24,-52.25 154.13,-39.55 127.75,-30.01"/>
<polygon fill="#63b8ff" stroke="#63b8ff" points="216.56,-65.85 227.16,-65.95 218.94,-59.26 216.56,-65.85"/>
</a>
</g>
</g>
<!-- Node4 -->
<g id="Node000004" class="node">
<title>Node4</title>
<g id="a_Node000004"><a xlink:href="GStreamerHelpers_8cc.html" target="_top" xlink:title=" ">
<polygon fill="white" stroke="#666666" points="375.5,-30 196.5,-30 196.5,0 375.5,0 375.5,-30"/>
<text text-anchor="start" x="204.5" y="-18" font-family="Helvetica,sans-Serif" font-size="10.00">src/VideoManager/VideoReceiver</text>
<text text-anchor="middle" x="286" y="-7" font-family="Helvetica,sans-Serif" font-size="10.00">/GStreamer/GStreamerHelpers.cc</text>
</a>
</g>
</g>
<!-- Node3&#45;&gt;Node4 -->
<g id="edge4_Node000003_Node000004" class="edge">
<title>Node3&#45;&gt;Node4</title>
<g id="a_edge4_Node000003_Node000004"><a xlink:title=" ">
<path fill="none" stroke="#63b8ff" d="M273.47,-56.11C276.19,-47.38 279.19,-37.78 281.57,-30.16"/>
<polygon fill="#63b8ff" stroke="#63b8ff" points="270.08,-55.21 270.44,-65.8 276.76,-57.3 270.08,-55.21"/>
</a>
</g>
</g>
<!-- Node5 -->
<g id="Node000005" class="node">
<title>Node5</title>
<g id="a_Node000005"><a xlink:href="GstVideoReceiver_8cc.html" target="_top" xlink:title=" ">
<polygon fill="white" stroke="#666666" points="572,-30 394,-30 394,0 572,0 572,-30"/>
<text text-anchor="start" x="402" y="-18" font-family="Helvetica,sans-Serif" font-size="10.00">src/VideoManager/VideoReceiver</text>
<text text-anchor="middle" x="483" y="-7" font-family="Helvetica,sans-Serif" font-size="10.00">/GStreamer/GstVideoReceiver.cc</text>
</a>
</g>
</g>
<!-- Node3&#45;&gt;Node5 -->
<g id="edge5_Node000003_Node000005" class="edge">
<title>Node3&#45;&gt;Node5</title>
<g id="a_edge5_Node000003_Node000005"><a xlink:title=" ">
<path fill="none" stroke="#63b8ff" d="M323.23,-63.12C358.22,-52.8 402.44,-39.76 435.49,-30.01"/>
<polygon fill="#63b8ff" stroke="#63b8ff" points="322.22,-59.77 313.62,-65.95 324.2,-66.48 322.22,-59.77"/>
</a>
</g>
</g>
</g>
</svg>
