<?xml version="1.0" encoding="UTF-8" standalone="no"?>
<!DOCTYPE svg PUBLIC "-//W3C//DTD SVG 1.1//EN"
 "http://www.w3.org/Graphics/SVG/1.1/DTD/svg11.dtd">
<!-- Generated by graphviz version 2.43.0 (0)
 -->
<!-- Title: src/VideoManager/VideoReceiver/GStreamer/GstVideoReceiver.cc Pages: 1 -->
<svg width="1793pt" height="258pt"
 viewBox="0.00 0.00 1792.50 258.00" xmlns="http://www.w3.org/2000/svg" xmlns:xlink="http://www.w3.org/1999/xlink">
<g id="graph0" class="graph" transform="scale(1 1) rotate(0) translate(4 254)">
<title>src/VideoManager/VideoReceiver/GStreamer/GstVideoReceiver.cc</title>
<!-- Node1 -->
<g id="Node000001" class="node">
<title>Node1</title>
<g id="a_Node000001"><a xlink:title=" ">
<polygon fill="#999999" stroke="#666666" points="1509.5,-250 1331.5,-250 1331.5,-220 1509.5,-220 1509.5,-250"/>
<text text-anchor="start" x="1339.5" y="-238" font-family="Helvetica,sans-Serif" font-size="10.00">src/VideoManager/VideoReceiver</text>
<text text-anchor="middle" x="1420.5" y="-227" font-family="Helvetica,sans-Serif" font-size="10.00">/GStreamer/GstVideoReceiver.cc</text>
</a>
</g>
</g>
<!-- Node2 -->
<g id="Node000002" class="node">
<title>Node2</title>
<g id="a_Node000002"><a xlink:href="GstVideoReceiver_8h.html" target="_top" xlink:title=" ">
<polygon fill="white" stroke="#666666" points="1069.5,-184 957.5,-184 957.5,-165 1069.5,-165 1069.5,-184"/>
<text text-anchor="middle" x="1013.5" y="-172" font-family="Helvetica,sans-Serif" font-size="10.00">GstVideoReceiver.h</text>
</a>
</g>
</g>
<!-- Node1&#45;&gt;Node2 -->
<g id="edge1_Node000001_Node000002" class="edge">
<title>Node1&#45;&gt;Node2</title>
<g id="a_edge1_Node000001_Node000002"><a xlink:title=" ">
<path fill="none" stroke="#63b8ff" d="M1331.43,-221.2C1255.55,-210.29 1148.22,-194.86 1079.74,-185.02"/>
<polygon fill="#63b8ff" stroke="#63b8ff" points="1079.9,-181.51 1069.51,-183.55 1078.91,-188.44 1079.9,-181.51"/>
</a>
</g>
</g>
<!-- Node16 -->
<g id="Node000016" class="node">
<title>Node16</title>
<g id="a_Node000016"><a xlink:href="GStreamerHelpers_8h.html" target="_top" xlink:title=" ">
<polygon fill="white" stroke="#666666" points="1392.5,-184 1276.5,-184 1276.5,-165 1392.5,-165 1392.5,-184"/>
<text text-anchor="middle" x="1334.5" y="-172" font-family="Helvetica,sans-Serif" font-size="10.00">GStreamerHelpers.h</text>
</a>
</g>
</g>
<!-- Node1&#45;&gt;Node16 -->
<g id="edge16_Node000001_Node000016" class="edge">
<title>Node1&#45;&gt;Node16</title>
<g id="a_edge16_Node000001_Node000016"><a xlink:title=" ">
<path fill="none" stroke="#63b8ff" d="M1399.68,-219.84C1386.35,-210.77 1369.11,-199.04 1355.71,-189.92"/>
<polygon fill="#63b8ff" stroke="#63b8ff" points="1357.37,-186.83 1347.13,-184.09 1353.43,-192.61 1357.37,-186.83"/>
</a>
</g>
</g>
<!-- Node17 -->
<g id="Node000017" class="node">
<title>Node17</title>
<g id="a_Node000017"><a xlink:title=" ">
<polygon fill="#e0e0e0" stroke="#999999" points="1450,-129 1391,-129 1391,-110 1450,-110 1450,-129"/>
<text text-anchor="middle" x="1420.5" y="-117" font-family="Helvetica,sans-Serif" font-size="10.00">gst/gst.h</text>
</a>
</g>
</g>
<!-- Node1&#45;&gt;Node17 -->
<g id="edge33_Node000001_Node000017" class="edge">
<title>Node1&#45;&gt;Node17</title>
<g id="a_edge33_Node000001_Node000017"><a xlink:title=" ">
<path fill="none" stroke="#63b8ff" d="M1420.5,-219.63C1420.5,-199.21 1420.5,-161.81 1420.5,-139.24"/>
<polygon fill="#63b8ff" stroke="#63b8ff" points="1424,-139.23 1420.5,-129.23 1417,-139.23 1424,-139.23"/>
</a>
</g>
</g>
<!-- Node18 -->
<g id="Node000018" class="node">
<title>Node18</title>
<g id="a_Node000018"><a xlink:href="QGCLoggingCategory_8h.html" target="_top" xlink:title=" ">
<polygon fill="white" stroke="#666666" points="345.5,-184 217.5,-184 217.5,-165 345.5,-165 345.5,-184"/>
<text text-anchor="middle" x="281.5" y="-172" font-family="Helvetica,sans-Serif" font-size="10.00">QGCLoggingCategory.h</text>
</a>
</g>
</g>
<!-- Node1&#45;&gt;Node18 -->
<g id="edge19_Node000001_Node000018" class="edge">
<title>Node1&#45;&gt;Node18</title>
<g id="a_edge19_Node000001_Node000018"><a xlink:title=" ">
<path fill="none" stroke="#63b8ff" d="M1331.12,-229.41C1113.08,-218.21 557.01,-189.65 355.69,-179.31"/>
<polygon fill="#63b8ff" stroke="#63b8ff" points="355.68,-175.81 345.51,-178.79 355.32,-182.8 355.68,-175.81"/>
</a>
</g>
</g>
<!-- Node24 -->
<g id="Node000024" class="node">
<title>Node24</title>
<g id="a_Node000024"><a xlink:title=" ">
<polygon fill="#e0e0e0" stroke="#999999" points="1558,-184 1449,-184 1449,-165 1558,-165 1558,-184"/>
<text text-anchor="middle" x="1503.5" y="-172" font-family="Helvetica,sans-Serif" font-size="10.00">QtCore/QDateTime</text>
</a>
</g>
</g>
<!-- Node1&#45;&gt;Node24 -->
<g id="edge30_Node000001_Node000024" class="edge">
<title>Node1&#45;&gt;Node24</title>
<g id="a_edge30_Node000001_Node000024"><a xlink:title=" ">
<path fill="none" stroke="#63b8ff" d="M1440.59,-219.84C1453.38,-210.83 1469.9,-199.18 1482.8,-190.09"/>
<polygon fill="#63b8ff" stroke="#63b8ff" points="1484.91,-192.89 1491.06,-184.27 1480.87,-187.17 1484.91,-192.89"/>
</a>
</g>
</g>
<!-- Node25 -->
<g id="Node000025" class="node">
<title>Node25</title>
<g id="a_Node000025"><a xlink:title=" ">
<polygon fill="#e0e0e0" stroke="#999999" points="1651,-184 1576,-184 1576,-165 1651,-165 1651,-184"/>
<text text-anchor="middle" x="1613.5" y="-172" font-family="Helvetica,sans-Serif" font-size="10.00">QtCore/QUrl</text>
</a>
</g>
</g>
<!-- Node1&#45;&gt;Node25 -->
<g id="edge31_Node000001_Node000025" class="edge">
<title>Node1&#45;&gt;Node25</title>
<g id="a_edge31_Node000001_Node000025"><a xlink:title=" ">
<path fill="none" stroke="#63b8ff" d="M1466.73,-219.99C1500.04,-209.89 1544.43,-196.44 1575.64,-186.98"/>
<polygon fill="#63b8ff" stroke="#63b8ff" points="1576.73,-190.3 1585.28,-184.05 1574.7,-183.6 1576.73,-190.3"/>
</a>
</g>
</g>
<!-- Node26 -->
<g id="Node000026" class="node">
<title>Node26</title>
<g id="a_Node000026"><a xlink:title=" ">
<polygon fill="#e0e0e0" stroke="#999999" points="1784.5,-184 1668.5,-184 1668.5,-165 1784.5,-165 1784.5,-184"/>
<text text-anchor="middle" x="1726.5" y="-172" font-family="Helvetica,sans-Serif" font-size="10.00">QtQuick/QQuickItem</text>
</a>
</g>
</g>
<!-- Node1&#45;&gt;Node26 -->
<g id="edge32_Node000001_Node000026" class="edge">
<title>Node1&#45;&gt;Node26</title>
<g id="a_edge32_Node000001_Node000026"><a xlink:title=" ">
<path fill="none" stroke="#63b8ff" d="M1493.79,-219.99C1548.55,-209.52 1622.19,-195.44 1671.85,-185.95"/>
<polygon fill="#63b8ff" stroke="#63b8ff" points="1672.59,-189.37 1681.76,-184.05 1671.28,-182.49 1672.59,-189.37"/>
</a>
</g>
</g>
<!-- Node3 -->
<g id="Node000003" class="node">
<title>Node3</title>
<g id="a_Node000003"><a xlink:title=" ">
<polygon fill="#e0e0e0" stroke="#999999" points="427,-19 284,-19 284,0 427,0 427,-19"/>
<text text-anchor="middle" x="355.5" y="-7" font-family="Helvetica,sans-Serif" font-size="10.00">QtCore/QLoggingCategory</text>
</a>
</g>
</g>
<!-- Node2&#45;&gt;Node3 -->
<g id="edge2_Node000002_Node000003" class="edge">
<title>Node2&#45;&gt;Node3</title>
<g id="a_edge2_Node000002_Node000003"><a xlink:title=" ">
<path fill="none" stroke="#63b8ff" d="M957.4,-173.69C837.26,-173.33 559.2,-168.14 474.5,-129 425.49,-106.36 385.12,-54.47 366.53,-27.49"/>
<polygon fill="#63b8ff" stroke="#63b8ff" points="369.37,-25.43 360.89,-19.08 363.55,-29.33 369.37,-25.43"/>
</a>
</g>
</g>
<!-- Node4 -->
<g id="Node000004" class="node">
<title>Node4</title>
<g id="a_Node000004"><a xlink:title=" ">
<polygon fill="#e0e0e0" stroke="#999999" points="575.5,-129 483.5,-129 483.5,-110 575.5,-110 575.5,-129"/>
<text text-anchor="middle" x="529.5" y="-117" font-family="Helvetica,sans-Serif" font-size="10.00">QtCore/QMutex</text>
</a>
</g>
</g>
<!-- Node2&#45;&gt;Node4 -->
<g id="edge3_Node000002_Node000004" class="edge">
<title>Node2&#45;&gt;Node4</title>
<g id="a_edge3_Node000002_Node000004"><a xlink:title=" ">
<path fill="none" stroke="#63b8ff" d="M957.18,-168.56C877.01,-161.33 725.13,-146.9 585.71,-129.1"/>
<polygon fill="#63b8ff" stroke="#63b8ff" points="586.05,-125.61 575.69,-127.81 585.16,-132.56 586.05,-125.61"/>
</a>
</g>
</g>
<!-- Node5 -->
<g id="Node000005" class="node">
<title>Node5</title>
<g id="a_Node000005"><a xlink:title=" ">
<polygon fill="#e0e0e0" stroke="#999999" points="685.5,-129 593.5,-129 593.5,-110 685.5,-110 685.5,-129"/>
<text text-anchor="middle" x="639.5" y="-117" font-family="Helvetica,sans-Serif" font-size="10.00">QtCore/QQueue</text>
</a>
</g>
</g>
<!-- Node2&#45;&gt;Node5 -->
<g id="edge4_Node000002_Node000005" class="edge">
<title>Node2&#45;&gt;Node5</title>
<g id="a_edge4_Node000002_Node000005"><a xlink:title=" ">
<path fill="none" stroke="#63b8ff" d="M957.28,-165.91C895.64,-157.54 793.54,-143.49 695.76,-129.17"/>
<polygon fill="#63b8ff" stroke="#63b8ff" points="696.11,-125.68 685.71,-127.69 695.09,-132.61 696.11,-125.68"/>
</a>
</g>
</g>
<!-- Node6 -->
<g id="Node000006" class="node">
<title>Node6</title>
<g id="a_Node000006"><a xlink:title=" ">
<polygon fill="#e0e0e0" stroke="#999999" points="799,-129 704,-129 704,-110 799,-110 799,-129"/>
<text text-anchor="middle" x="751.5" y="-117" font-family="Helvetica,sans-Serif" font-size="10.00">QtCore/QThread</text>
</a>
</g>
</g>
<!-- Node2&#45;&gt;Node6 -->
<g id="edge5_Node000002_Node000006" class="edge">
<title>Node2&#45;&gt;Node6</title>
<g id="a_edge5_Node000002_Node000006"><a xlink:title=" ">
<path fill="none" stroke="#63b8ff" d="M971.41,-164.98C925.8,-155.76 852.98,-141.03 803.75,-131.07"/>
<polygon fill="#63b8ff" stroke="#63b8ff" points="804.42,-127.63 793.92,-129.08 803.03,-134.5 804.42,-127.63"/>
</a>
</g>
</g>
<!-- Node7 -->
<g id="Node000007" class="node">
<title>Node7</title>
<g id="a_Node000007"><a xlink:title=" ">
<polygon fill="#e0e0e0" stroke="#999999" points="1204,-74 1115,-74 1115,-55 1204,-55 1204,-74"/>
<text text-anchor="middle" x="1159.5" y="-62" font-family="Helvetica,sans-Serif" font-size="10.00">QtCore/QTimer</text>
</a>
</g>
</g>
<!-- Node2&#45;&gt;Node7 -->
<g id="edge6_Node000002_Node000007" class="edge">
<title>Node2&#45;&gt;Node7</title>
<g id="a_edge6_Node000002_Node000007"><a xlink:title=" ">
<path fill="none" stroke="#63b8ff" d="M1066.85,-164.94C1105.99,-157.44 1154.34,-145.21 1166.5,-129 1176.16,-116.14 1172.62,-97.47 1167.75,-83.7"/>
<polygon fill="#63b8ff" stroke="#63b8ff" points="1170.94,-82.26 1163.95,-74.3 1164.45,-84.89 1170.94,-82.26"/>
</a>
</g>
</g>
<!-- Node8 -->
<g id="Node000008" class="node">
<title>Node8</title>
<g id="a_Node000008"><a xlink:title=" ">
<polygon fill="#e0e0e0" stroke="#999999" points="946,-129 817,-129 817,-110 946,-110 946,-129"/>
<text text-anchor="middle" x="881.5" y="-117" font-family="Helvetica,sans-Serif" font-size="10.00">QtCore/QWaitCondition</text>
</a>
</g>
</g>
<!-- Node2&#45;&gt;Node8 -->
<g id="edge7_Node000002_Node000008" class="edge">
<title>Node2&#45;&gt;Node8</title>
<g id="a_edge7_Node000002_Node000008"><a xlink:title=" ">
<path fill="none" stroke="#63b8ff" d="M992.29,-164.98C970.77,-156.34 937.22,-142.87 912.67,-133.02"/>
<polygon fill="#63b8ff" stroke="#63b8ff" points="913.68,-129.65 903.09,-129.17 911.07,-136.14 913.68,-129.65"/>
</a>
</g>
</g>
<!-- Node9 -->
<g id="Node000009" class="node">
<title>Node9</title>
<g id="a_Node000009"><a xlink:title=" ">
<polygon fill="#e0e0e0" stroke="#999999" points="1372.5,-129 1328.5,-129 1328.5,-110 1372.5,-110 1372.5,-129"/>
<text text-anchor="middle" x="1350.5" y="-117" font-family="Helvetica,sans-Serif" font-size="10.00">glib.h</text>
</a>
</g>
</g>
<!-- Node2&#45;&gt;Node9 -->
<g id="edge8_Node000002_Node000009" class="edge">
<title>Node2&#45;&gt;Node9</title>
<g id="a_edge8_Node000002_Node000009"><a xlink:title=" ">
<path fill="none" stroke="#63b8ff" d="M1069.77,-167.25C1129.13,-160.22 1225.53,-147.56 1318.36,-128.79"/>
<polygon fill="#63b8ff" stroke="#63b8ff" points="1319.1,-132.21 1328.2,-126.77 1317.7,-125.35 1319.1,-132.21"/>
</a>
</g>
</g>
<!-- Node10 -->
<g id="Node000010" class="node">
<title>Node10</title>
<g id="a_Node000010"><a xlink:title=" ">
<polygon fill="#e0e0e0" stroke="#999999" points="1063,-129 964,-129 964,-110 1063,-110 1063,-129"/>
<text text-anchor="middle" x="1013.5" y="-117" font-family="Helvetica,sans-Serif" font-size="10.00">gst/gstelement.h</text>
</a>
</g>
</g>
<!-- Node2&#45;&gt;Node10 -->
<g id="edge9_Node000002_Node000010" class="edge">
<title>Node2&#45;&gt;Node10</title>
<g id="a_edge9_Node000002_Node000010"><a xlink:title=" ">
<path fill="none" stroke="#63b8ff" d="M1013.5,-164.75C1013.5,-157.8 1013.5,-147.85 1013.5,-139.13"/>
<polygon fill="#63b8ff" stroke="#63b8ff" points="1017,-139.09 1013.5,-129.09 1010,-139.09 1017,-139.09"/>
</a>
</g>
</g>
<!-- Node11 -->
<g id="Node000011" class="node">
<title>Node11</title>
<g id="a_Node000011"><a xlink:title=" ">
<polygon fill="#e0e0e0" stroke="#999999" points="1158,-129 1081,-129 1081,-110 1158,-110 1158,-129"/>
<text text-anchor="middle" x="1119.5" y="-117" font-family="Helvetica,sans-Serif" font-size="10.00">gst/gstpad.h</text>
</a>
</g>
</g>
<!-- Node2&#45;&gt;Node11 -->
<g id="edge10_Node000002_Node000011" class="edge">
<title>Node2&#45;&gt;Node11</title>
<g id="a_edge10_Node000002_Node000011"><a xlink:title=" ">
<path fill="none" stroke="#63b8ff" d="M1030.53,-164.98C1047.43,-156.54 1073.56,-143.47 1093.14,-133.68"/>
<polygon fill="#63b8ff" stroke="#63b8ff" points="1094.78,-136.77 1102.16,-129.17 1091.65,-130.51 1094.78,-136.77"/>
</a>
</g>
</g>
<!-- Node12 -->
<g id="Node000012" class="node">
<title>Node12</title>
<g id="a_Node000012"><a xlink:href="VideoReceiver_8h.html" target="_top" xlink:title=" ">
<polygon fill="white" stroke="#666666" points="1310,-129 1215,-129 1215,-110 1310,-110 1310,-129"/>
<text text-anchor="middle" x="1262.5" y="-117" font-family="Helvetica,sans-Serif" font-size="10.00">VideoReceiver.h</text>
</a>
</g>
</g>
<!-- Node2&#45;&gt;Node12 -->
<g id="edge11_Node000002_Node000012" class="edge">
<title>Node2&#45;&gt;Node12</title>
<g id="a_edge11_Node000002_Node000012"><a xlink:title=" ">
<path fill="none" stroke="#63b8ff" d="M1053.51,-164.98C1096.67,-155.8 1165.48,-141.15 1212.26,-131.19"/>
<polygon fill="#63b8ff" stroke="#63b8ff" points="1213.13,-134.59 1222.18,-129.08 1211.67,-127.74 1213.13,-134.59"/>
</a>
</g>
</g>
<!-- Node12&#45;&gt;Node7 -->
<g id="edge14_Node000012_Node000007" class="edge">
<title>Node12&#45;&gt;Node7</title>
<g id="a_edge14_Node000012_Node000007"><a xlink:title=" ">
<path fill="none" stroke="#63b8ff" d="M1245.95,-109.98C1229.61,-101.57 1204.37,-88.59 1185.37,-78.81"/>
<polygon fill="#63b8ff" stroke="#63b8ff" points="1186.84,-75.63 1176.35,-74.17 1183.64,-81.86 1186.84,-75.63"/>
</a>
</g>
</g>
<!-- Node13 -->
<g id="Node000013" class="node">
<title>Node13</title>
<g id="a_Node000013"><a xlink:title=" ">
<polygon fill="#e0e0e0" stroke="#999999" points="909.5,-74 817.5,-74 817.5,-55 909.5,-55 909.5,-74"/>
<text text-anchor="middle" x="863.5" y="-62" font-family="Helvetica,sans-Serif" font-size="10.00">QtCore/QObject</text>
</a>
</g>
</g>
<!-- Node12&#45;&gt;Node13 -->
<g id="edge12_Node000012_Node000013" class="edge">
<title>Node12&#45;&gt;Node13</title>
<g id="a_edge12_Node000012_Node000013"><a xlink:title=" ">
<path fill="none" stroke="#63b8ff" d="M1214.77,-112.16C1140.83,-102.34 998.92,-83.49 919.98,-73"/>
<polygon fill="#63b8ff" stroke="#63b8ff" points="920.12,-69.49 909.75,-71.64 919.2,-76.43 920.12,-69.49"/>
</a>
</g>
</g>
<!-- Node14 -->
<g id="Node000014" class="node">
<title>Node14</title>
<g id="a_Node000014"><a xlink:title=" ">
<polygon fill="#e0e0e0" stroke="#999999" points="1303,-74 1222,-74 1222,-55 1303,-55 1303,-74"/>
<text text-anchor="middle" x="1262.5" y="-62" font-family="Helvetica,sans-Serif" font-size="10.00">QtCore/QSize</text>
</a>
</g>
</g>
<!-- Node12&#45;&gt;Node14 -->
<g id="edge13_Node000012_Node000014" class="edge">
<title>Node12&#45;&gt;Node14</title>
<g id="a_edge13_Node000012_Node000014"><a xlink:title=" ">
<path fill="none" stroke="#63b8ff" d="M1262.5,-109.75C1262.5,-102.8 1262.5,-92.85 1262.5,-84.13"/>
<polygon fill="#63b8ff" stroke="#63b8ff" points="1266,-84.09 1262.5,-74.09 1259,-84.09 1266,-84.09"/>
</a>
</g>
</g>
<!-- Node15 -->
<g id="Node000015" class="node">
<title>Node15</title>
<g id="a_Node000015"><a xlink:title=" ">
<polygon fill="#e0e0e0" stroke="#999999" points="1127,-19 938,-19 938,0 1127,0 1127,-19"/>
<text text-anchor="middle" x="1032.5" y="-7" font-family="Helvetica,sans-Serif" font-size="10.00">QtQmlIntegration/QtQmlIntegration</text>
</a>
</g>
</g>
<!-- Node12&#45;&gt;Node15 -->
<g id="edge15_Node000012_Node000015" class="edge">
<title>Node12&#45;&gt;Node15</title>
<g id="a_edge15_Node000012_Node000015"><a xlink:title=" ">
<path fill="none" stroke="#63b8ff" d="M1277.52,-109.87C1297.28,-97.45 1327.68,-73.96 1311.5,-55 1289.08,-28.73 1206.9,-17.89 1137.49,-13.46"/>
<polygon fill="#63b8ff" stroke="#63b8ff" points="1137.55,-9.96 1127.35,-12.85 1137.13,-16.95 1137.55,-9.96"/>
</a>
</g>
</g>
<!-- Node16&#45;&gt;Node9 -->
<g id="edge17_Node000016_Node000009" class="edge">
<title>Node16&#45;&gt;Node9</title>
<g id="a_edge17_Node000016_Node000009"><a xlink:title=" ">
<path fill="none" stroke="#63b8ff" d="M1337.14,-164.75C1339.26,-157.72 1342.31,-147.62 1344.96,-138.84"/>
<polygon fill="#63b8ff" stroke="#63b8ff" points="1348.37,-139.67 1347.91,-129.09 1341.67,-137.65 1348.37,-139.67"/>
</a>
</g>
</g>
<!-- Node16&#45;&gt;Node17 -->
<g id="edge18_Node000016_Node000017" class="edge">
<title>Node16&#45;&gt;Node17</title>
<g id="a_edge18_Node000016_Node000017"><a xlink:title=" ">
<path fill="none" stroke="#63b8ff" d="M1348.32,-164.98C1361.65,-156.77 1382.08,-144.18 1397.81,-134.49"/>
<polygon fill="#63b8ff" stroke="#63b8ff" points="1399.75,-137.4 1406.43,-129.17 1396.08,-131.44 1399.75,-137.4"/>
</a>
</g>
</g>
<!-- Node18&#45;&gt;Node3 -->
<g id="edge26_Node000018_Node000003" class="edge">
<title>Node18&#45;&gt;Node3</title>
<g id="a_edge26_Node000018_Node000003"><a xlink:title=" ">
<path fill="none" stroke="#63b8ff" d="M273.21,-164.89C262.54,-152.69 246.27,-129.67 254.5,-110 270.33,-72.18 308.31,-41.46 332.92,-24.6"/>
<polygon fill="#63b8ff" stroke="#63b8ff" points="334.92,-27.48 341.32,-19.04 331.05,-21.65 334.92,-27.48"/>
</a>
</g>
</g>
<!-- Node18&#45;&gt;Node13 -->
<g id="edge27_Node000018_Node000013" class="edge">
<title>Node18&#45;&gt;Node13</title>
<g id="a_edge27_Node000018_Node000013"><a xlink:title=" ">
<path fill="none" stroke="#63b8ff" d="M302.81,-164.89C337.96,-151.06 410.59,-124.02 474.5,-110 591.18,-84.41 730.98,-72.98 807.17,-68.33"/>
<polygon fill="#63b8ff" stroke="#63b8ff" points="807.71,-71.81 817.49,-67.72 807.3,-64.82 807.71,-71.81"/>
</a>
</g>
</g>
<!-- Node19 -->
<g id="Node000019" class="node">
<title>Node19</title>
<g id="a_Node000019"><a xlink:href="QmlObjectListModel_8h.html" target="_top" xlink:title=" ">
<polygon fill="white" stroke="#666666" points="389,-129 264,-129 264,-110 389,-110 389,-129"/>
<text text-anchor="middle" x="326.5" y="-117" font-family="Helvetica,sans-Serif" font-size="10.00">QmlObjectListModel.h</text>
</a>
</g>
</g>
<!-- Node18&#45;&gt;Node19 -->
<g id="edge20_Node000018_Node000019" class="edge">
<title>Node18&#45;&gt;Node19</title>
<g id="a_edge20_Node000018_Node000019"><a xlink:title=" ">
<path fill="none" stroke="#63b8ff" d="M288.93,-164.75C295.35,-157.18 304.81,-146.05 312.62,-136.84"/>
<polygon fill="#63b8ff" stroke="#63b8ff" points="315.4,-138.98 319.21,-129.09 310.07,-134.45 315.4,-138.98"/>
</a>
</g>
</g>
<!-- Node22 -->
<g id="Node000022" class="node">
<title>Node22</title>
<g id="a_Node000022"><a xlink:title=" ">
<polygon fill="#e0e0e0" stroke="#999999" points="107,-129 0,-129 0,-110 107,-110 107,-129"/>
<text text-anchor="middle" x="53.5" y="-117" font-family="Helvetica,sans-Serif" font-size="10.00">QtCore/QStringList</text>
</a>
</g>
</g>
<!-- Node18&#45;&gt;Node22 -->
<g id="edge28_Node000018_Node000022" class="edge">
<title>Node18&#45;&gt;Node22</title>
<g id="a_edge28_Node000018_Node000022"><a xlink:title=" ">
<path fill="none" stroke="#63b8ff" d="M244.87,-164.98C205.59,-155.86 143.13,-141.33 100.31,-131.38"/>
<polygon fill="#63b8ff" stroke="#63b8ff" points="100.95,-127.94 90.42,-129.08 99.37,-134.76 100.95,-127.94"/>
</a>
</g>
</g>
<!-- Node23 -->
<g id="Node000023" class="node">
<title>Node23</title>
<g id="a_Node000023"><a xlink:title=" ">
<polygon fill="#e0e0e0" stroke="#999999" points="207.5,-129 125.5,-129 125.5,-110 207.5,-110 207.5,-129"/>
<text text-anchor="middle" x="166.5" y="-117" font-family="Helvetica,sans-Serif" font-size="10.00">QtCore/QMap</text>
</a>
</g>
</g>
<!-- Node18&#45;&gt;Node23 -->
<g id="edge29_Node000018_Node000023" class="edge">
<title>Node18&#45;&gt;Node23</title>
<g id="a_edge29_Node000018_Node000023"><a xlink:title=" ">
<path fill="none" stroke="#63b8ff" d="M263.02,-164.98C244.52,-156.46 215.82,-143.23 194.52,-133.41"/>
<polygon fill="#63b8ff" stroke="#63b8ff" points="195.86,-130.18 185.31,-129.17 192.93,-136.53 195.86,-130.18"/>
</a>
</g>
</g>
<!-- Node19&#45;&gt;Node3 -->
<g id="edge25_Node000019_Node000003" class="edge">
<title>Node19&#45;&gt;Node3</title>
<g id="a_edge25_Node000019_Node000003"><a xlink:title=" ">
<path fill="none" stroke="#63b8ff" d="M328.87,-109.66C333.59,-92.09 344.24,-52.45 350.54,-28.95"/>
<polygon fill="#63b8ff" stroke="#63b8ff" points="353.96,-29.72 353.18,-19.16 347.2,-27.91 353.96,-29.72"/>
</a>
</g>
</g>
<!-- Node20 -->
<g id="Node000020" class="node">
<title>Node20</title>
<g id="a_Node000020"><a xlink:href="ObjectListModelBase_8h.html" target="_top" xlink:title=" ">
<polygon fill="white" stroke="#666666" points="611.5,-74 483.5,-74 483.5,-55 611.5,-55 611.5,-74"/>
<text text-anchor="middle" x="547.5" y="-62" font-family="Helvetica,sans-Serif" font-size="10.00">ObjectListModelBase.h</text>
</a>
</g>
</g>
<!-- Node19&#45;&gt;Node20 -->
<g id="edge21_Node000019_Node000020" class="edge">
<title>Node19&#45;&gt;Node20</title>
<g id="a_edge21_Node000019_Node000020"><a xlink:title=" ">
<path fill="none" stroke="#63b8ff" d="M362.01,-109.98C399.99,-100.87 460.37,-86.4 501.86,-76.45"/>
<polygon fill="#63b8ff" stroke="#63b8ff" points="502.81,-79.82 511.71,-74.08 501.17,-73.01 502.81,-79.82"/>
</a>
</g>
</g>
<!-- Node20&#45;&gt;Node3 -->
<g id="edge23_Node000020_Node000003" class="edge">
<title>Node20&#45;&gt;Node3</title>
<g id="a_edge23_Node000020_Node000003"><a xlink:title=" ">
<path fill="none" stroke="#63b8ff" d="M516.65,-54.98C484,-45.97 432.3,-31.7 396.3,-21.76"/>
<polygon fill="#63b8ff" stroke="#63b8ff" points="397.16,-18.37 386.59,-19.08 395.3,-25.12 397.16,-18.37"/>
</a>
</g>
</g>
<!-- Node20&#45;&gt;Node15 -->
<g id="edge24_Node000020_Node000015" class="edge">
<title>Node20&#45;&gt;Node15</title>
<g id="a_edge24_Node000020_Node000015"><a xlink:title=" ">
<path fill="none" stroke="#63b8ff" d="M611.65,-56.49C697.07,-47.16 848.49,-30.61 944.51,-20.12"/>
<polygon fill="#63b8ff" stroke="#63b8ff" points="944.93,-23.59 954.49,-19.02 944.17,-16.63 944.93,-23.59"/>
</a>
</g>
</g>
<!-- Node21 -->
<g id="Node000021" class="node">
<title>Node21</title>
<g id="a_Node000021"><a xlink:title=" ">
<polygon fill="#e0e0e0" stroke="#999999" points="622,-19 473,-19 473,0 622,0 622,-19"/>
<text text-anchor="middle" x="547.5" y="-7" font-family="Helvetica,sans-Serif" font-size="10.00">QtCore/QAbstractListModel</text>
</a>
</g>
</g>
<!-- Node20&#45;&gt;Node21 -->
<g id="edge22_Node000020_Node000021" class="edge">
<title>Node20&#45;&gt;Node21</title>
<g id="a_edge22_Node000020_Node000021"><a xlink:title=" ">
<path fill="none" stroke="#63b8ff" d="M547.5,-54.75C547.5,-47.8 547.5,-37.85 547.5,-29.13"/>
<polygon fill="#63b8ff" stroke="#63b8ff" points="551,-29.09 547.5,-19.09 544,-29.09 551,-29.09"/>
</a>
</g>
</g>
</g>
</svg>
