<?xml version="1.0" encoding="UTF-8" standalone="no"?>
<!DOCTYPE svg PUBLIC "-//W3C//DTD SVG 1.1//EN"
 "http://www.w3.org/Graphics/SVG/1.1/DTD/svg11.dtd">
<!-- Generated by graphviz version 2.43.0 (0)
 -->
<!-- Title: src/MAVLink/LibEvents/HealthAndArmingCheckReport.cc Pages: 1 -->
<svg width="1552pt" height="269pt"
 viewBox="0.00 0.00 1551.50 269.00" xmlns="http://www.w3.org/2000/svg" xmlns:xlink="http://www.w3.org/1999/xlink">
<g id="graph0" class="graph" transform="scale(1 1) rotate(0) translate(4 265)">
<title>src/MAVLink/LibEvents/HealthAndArmingCheckReport.cc</title>
<!-- Node1 -->
<g id="Node000001" class="node">
<title>Node1</title>
<g id="a_Node000001"><a xlink:title=" ">
<polygon fill="#999999" stroke="#666666" points="823,-261 641,-261 641,-231 823,-231 823,-261"/>
<text text-anchor="start" x="649" y="-249" font-family="Helvetica,sans-Serif" font-size="10.00">src/MAVLink/LibEvents</text>
<text text-anchor="middle" x="732" y="-238" font-family="Helvetica,sans-Serif" font-size="10.00">/HealthAndArmingCheckReport.cc</text>
</a>
</g>
</g>
<!-- Node2 -->
<g id="Node000002" class="node">
<title>Node2</title>
<g id="a_Node000002"><a xlink:href="HealthAndArmingCheckReport_8h.html" target="_top" xlink:title=" ">
<polygon fill="white" stroke="#666666" points="242,-195 68,-195 68,-176 242,-176 242,-195"/>
<text text-anchor="middle" x="155" y="-183" font-family="Helvetica,sans-Serif" font-size="10.00">HealthAndArmingCheckReport.h</text>
</a>
</g>
</g>
<!-- Node1&#45;&gt;Node2 -->
<g id="edge1_Node000001_Node000002" class="edge">
<title>Node1&#45;&gt;Node2</title>
<g id="a_edge1_Node000001_Node000002"><a xlink:title=" ">
<path fill="none" stroke="#63b8ff" d="M640.89,-235.76C533.98,-224.92 357.61,-207.04 249.33,-196.06"/>
<polygon fill="#63b8ff" stroke="#63b8ff" points="249.37,-192.55 239.07,-195.02 248.66,-199.51 249.37,-192.55"/>
</a>
</g>
</g>
<!-- Node5 -->
<g id="Node000005" class="node">
<title>Node5</title>
<g id="a_Node000005"><a xlink:href="EventHandler_8h.html" target="_top" xlink:title=" ">
<polygon fill="white" stroke="#666666" points="375.5,-195 284.5,-195 284.5,-176 375.5,-176 375.5,-195"/>
<text text-anchor="middle" x="330" y="-183" font-family="Helvetica,sans-Serif" font-size="10.00">EventHandler.h</text>
</a>
</g>
</g>
<!-- Node1&#45;&gt;Node5 -->
<g id="edge4_Node000001_Node000005" class="edge">
<title>Node1&#45;&gt;Node5</title>
<g id="a_edge4_Node000001_Node000005"><a xlink:title=" ">
<path fill="none" stroke="#63b8ff" d="M640.78,-231.73C562.39,-220.32 451.86,-204.23 385.92,-194.64"/>
<polygon fill="#63b8ff" stroke="#63b8ff" points="386.13,-191.13 375.73,-193.16 385.13,-198.06 386.13,-191.13"/>
</a>
</g>
</g>
<!-- Node10 -->
<g id="Node000010" class="node">
<title>Node10</title>
<g id="a_Node000010"><a xlink:href="QmlObjectListModel_8h.html" target="_top" xlink:title=" ">
<polygon fill="white" stroke="#666666" points="706.5,-195 581.5,-195 581.5,-176 706.5,-176 706.5,-195"/>
<text text-anchor="middle" x="644" y="-183" font-family="Helvetica,sans-Serif" font-size="10.00">QmlObjectListModel.h</text>
</a>
</g>
</g>
<!-- Node1&#45;&gt;Node10 -->
<g id="edge12_Node000001_Node000010" class="edge">
<title>Node1&#45;&gt;Node10</title>
<g id="a_edge12_Node000001_Node000010"><a xlink:title=" ">
<path fill="none" stroke="#63b8ff" d="M710.7,-230.84C696.93,-221.68 679.07,-209.82 665.3,-200.66"/>
<polygon fill="#63b8ff" stroke="#63b8ff" points="667.19,-197.72 656.93,-195.09 663.32,-203.55 667.19,-197.72"/>
</a>
</g>
</g>
<!-- Node15 -->
<g id="Node000015" class="node">
<title>Node15</title>
<g id="a_Node000015"><a xlink:href="LibEvents_8h.html" target="_top" xlink:title=" ">
<polygon fill="white" stroke="#666666" points="870.5,-195 797.5,-195 797.5,-176 870.5,-176 870.5,-195"/>
<text text-anchor="middle" x="834" y="-183" font-family="Helvetica,sans-Serif" font-size="10.00">LibEvents.h</text>
</a>
</g>
</g>
<!-- Node1&#45;&gt;Node15 -->
<g id="edge17_Node000001_Node000015" class="edge">
<title>Node1&#45;&gt;Node15</title>
<g id="a_edge17_Node000001_Node000015"><a xlink:title=" ">
<path fill="none" stroke="#63b8ff" d="M756.43,-230.99C772.69,-221.66 793.95,-209.47 810.1,-200.21"/>
<polygon fill="#63b8ff" stroke="#63b8ff" points="812,-203.15 818.94,-195.14 808.52,-197.08 812,-203.15"/>
</a>
</g>
</g>
<!-- Node27 -->
<g id="Node000027" class="node">
<title>Node27</title>
<g id="a_Node000027"><a xlink:title=" ">
<polygon fill="#e0e0e0" stroke="#999999" points="989.5,-195 888.5,-195 888.5,-176 989.5,-176 989.5,-195"/>
<text text-anchor="middle" x="939" y="-183" font-family="Helvetica,sans-Serif" font-size="10.00">MAVLinkEnums.h</text>
</a>
</g>
</g>
<!-- Node1&#45;&gt;Node27 -->
<g id="edge29_Node000001_Node000027" class="edge">
<title>Node1&#45;&gt;Node27</title>
<g id="a_edge29_Node000001_Node000027"><a xlink:title=" ">
<path fill="none" stroke="#63b8ff" d="M781.58,-230.99C817.46,-220.85 865.33,-207.32 898.83,-197.85"/>
<polygon fill="#63b8ff" stroke="#63b8ff" points="900.06,-201.14 908.73,-195.05 898.16,-194.41 900.06,-201.14"/>
</a>
</g>
</g>
<!-- Node28 -->
<g id="Node000028" class="node">
<title>Node28</title>
<g id="a_Node000028"><a xlink:href="QGCLoggingCategory_8h.html" target="_top" xlink:title=" ">
<polygon fill="white" stroke="#666666" points="1357,-195 1229,-195 1229,-176 1357,-176 1357,-195"/>
<text text-anchor="middle" x="1293" y="-183" font-family="Helvetica,sans-Serif" font-size="10.00">QGCLoggingCategory.h</text>
</a>
</g>
</g>
<!-- Node1&#45;&gt;Node28 -->
<g id="edge30_Node000001_Node000028" class="edge">
<title>Node1&#45;&gt;Node28</title>
<g id="a_edge30_Node000001_Node000028"><a xlink:title=" ">
<path fill="none" stroke="#63b8ff" d="M823.07,-235.5C933.17,-224.02 1116.35,-204.92 1218.45,-194.27"/>
<polygon fill="#63b8ff" stroke="#63b8ff" points="1219.09,-197.73 1228.68,-193.21 1218.37,-190.76 1219.09,-197.73"/>
</a>
</g>
</g>
<!-- Node3 -->
<g id="Node000003" class="node">
<title>Node3</title>
<g id="a_Node000003"><a xlink:title=" ">
<polygon fill="#e0e0e0" stroke="#999999" points="92,-134.5 0,-134.5 0,-115.5 92,-115.5 92,-134.5"/>
<text text-anchor="middle" x="46" y="-122.5" font-family="Helvetica,sans-Serif" font-size="10.00">QtCore/QObject</text>
</a>
</g>
</g>
<!-- Node2&#45;&gt;Node3 -->
<g id="edge2_Node000002_Node000003" class="edge">
<title>Node2&#45;&gt;Node3</title>
<g id="a_edge2_Node000002_Node000003"><a xlink:title=" ">
<path fill="none" stroke="#63b8ff" d="M138.92,-175.87C121.05,-166.28 91.96,-150.67 71.09,-139.47"/>
<polygon fill="#63b8ff" stroke="#63b8ff" points="72.62,-136.31 62.15,-134.67 69.31,-142.48 72.62,-136.31"/>
</a>
</g>
</g>
<!-- Node4 -->
<g id="Node000004" class="node">
<title>Node4</title>
<g id="a_Node000004"><a xlink:title=" ">
<polygon fill="#e0e0e0" stroke="#999999" points="199.5,-134.5 110.5,-134.5 110.5,-115.5 199.5,-115.5 199.5,-134.5"/>
<text text-anchor="middle" x="155" y="-122.5" font-family="Helvetica,sans-Serif" font-size="10.00">QtCore/QString</text>
</a>
</g>
</g>
<!-- Node2&#45;&gt;Node4 -->
<g id="edge3_Node000002_Node000004" class="edge">
<title>Node2&#45;&gt;Node4</title>
<g id="a_edge3_Node000002_Node000004"><a xlink:title=" ">
<path fill="none" stroke="#63b8ff" d="M155,-175.87C155,-167.75 155,-155.31 155,-144.89"/>
<polygon fill="#63b8ff" stroke="#63b8ff" points="158.5,-144.67 155,-134.67 151.5,-144.67 158.5,-144.67"/>
</a>
</g>
</g>
<!-- Node5&#45;&gt;Node3 -->
<g id="edge5_Node000005_Node000003" class="edge">
<title>Node5&#45;&gt;Node3</title>
<g id="a_edge5_Node000005_Node000003"><a xlink:title=" ">
<path fill="none" stroke="#63b8ff" d="M284.22,-176.4C237.88,-168.02 164.23,-154.18 101,-140 96.84,-139.07 92.51,-138.05 88.19,-137"/>
<polygon fill="#63b8ff" stroke="#63b8ff" points="88.76,-133.54 78.21,-134.53 87.07,-140.33 88.76,-133.54"/>
</a>
</g>
</g>
<!-- Node5&#45;&gt;Node4 -->
<g id="edge6_Node000005_Node000004" class="edge">
<title>Node5&#45;&gt;Node4</title>
<g id="a_edge6_Node000005_Node000004"><a xlink:title=" ">
<path fill="none" stroke="#63b8ff" d="M304.55,-175.99C274.36,-165.9 223.84,-149.01 189.98,-137.69"/>
<polygon fill="#63b8ff" stroke="#63b8ff" points="191.07,-134.37 180.48,-134.52 188.85,-141.01 191.07,-134.37"/>
</a>
</g>
</g>
<!-- Node6 -->
<g id="Node000006" class="node">
<title>Node6</title>
<g id="a_Node000006"><a xlink:title=" ">
<polygon fill="#e0e0e0" stroke="#999999" points="456,-74 406,-74 406,-55 456,-55 456,-74"/>
<text text-anchor="middle" x="431" y="-62" font-family="Helvetica,sans-Serif" font-size="10.00">cstdint</text>
</a>
</g>
</g>
<!-- Node5&#45;&gt;Node6 -->
<g id="edge7_Node000005_Node000006" class="edge">
<title>Node5&#45;&gt;Node6</title>
<g id="a_edge7_Node000005_Node000006"><a xlink:title=" ">
<path fill="none" stroke="#63b8ff" d="M337.3,-175.98C344.96,-167.03 357.34,-152.54 368,-140 384.87,-120.15 404.21,-97.26 416.96,-82.14"/>
<polygon fill="#63b8ff" stroke="#63b8ff" points="419.87,-84.13 423.64,-74.23 414.52,-79.61 419.87,-84.13"/>
</a>
</g>
</g>
<!-- Node7 -->
<g id="Node000007" class="node">
<title>Node7</title>
<g id="a_Node000007"><a xlink:title=" ">
<polygon fill="#e0e0e0" stroke="#999999" points="282.5,-134.5 217.5,-134.5 217.5,-115.5 282.5,-115.5 282.5,-134.5"/>
<text text-anchor="middle" x="250" y="-122.5" font-family="Helvetica,sans-Serif" font-size="10.00">functional</text>
</a>
</g>
</g>
<!-- Node5&#45;&gt;Node7 -->
<g id="edge8_Node000005_Node000007" class="edge">
<title>Node5&#45;&gt;Node7</title>
<g id="a_edge8_Node000005_Node000007"><a xlink:title=" ">
<path fill="none" stroke="#63b8ff" d="M318.2,-175.87C305.55,-166.62 285.26,-151.78 270.09,-140.69"/>
<polygon fill="#63b8ff" stroke="#63b8ff" points="271.99,-137.74 261.85,-134.67 267.86,-143.4 271.99,-137.74"/>
</a>
</g>
</g>
<!-- Node8 -->
<g id="Node000008" class="node">
<title>Node8</title>
<g id="a_Node000008"><a xlink:title=" ">
<polygon fill="#e0e0e0" stroke="#999999" points="359,-134.5 301,-134.5 301,-115.5 359,-115.5 359,-134.5"/>
<text text-anchor="middle" x="330" y="-122.5" font-family="Helvetica,sans-Serif" font-size="10.00">memory</text>
</a>
</g>
</g>
<!-- Node5&#45;&gt;Node8 -->
<g id="edge9_Node000005_Node000008" class="edge">
<title>Node5&#45;&gt;Node8</title>
<g id="a_edge9_Node000005_Node000008"><a xlink:title=" ">
<path fill="none" stroke="#63b8ff" d="M330,-175.87C330,-167.75 330,-155.31 330,-144.89"/>
<polygon fill="#63b8ff" stroke="#63b8ff" points="333.5,-144.67 330,-134.67 326.5,-144.67 333.5,-144.67"/>
</a>
</g>
</g>
<!-- Node9 -->
<g id="Node000009" class="node">
<title>Node9</title>
<g id="a_Node000009"><a xlink:href="QGCMAVLinkTypes_8h.html" target="_top" xlink:title=" ">
<polygon fill="white" stroke="#666666" points="532.5,-134.5 415.5,-134.5 415.5,-115.5 532.5,-115.5 532.5,-134.5"/>
<text text-anchor="middle" x="474" y="-122.5" font-family="Helvetica,sans-Serif" font-size="10.00">QGCMAVLinkTypes.h</text>
</a>
</g>
</g>
<!-- Node5&#45;&gt;Node9 -->
<g id="edge10_Node000005_Node000009" class="edge">
<title>Node5&#45;&gt;Node9</title>
<g id="a_edge10_Node000005_Node000009"><a xlink:title=" ">
<path fill="none" stroke="#63b8ff" d="M350.94,-175.99C375.36,-166.07 415.93,-149.59 443.77,-138.28"/>
<polygon fill="#63b8ff" stroke="#63b8ff" points="445.09,-141.52 453.04,-134.52 442.45,-135.04 445.09,-141.52"/>
</a>
</g>
</g>
<!-- Node9&#45;&gt;Node6 -->
<g id="edge11_Node000009_Node000006" class="edge">
<title>Node9&#45;&gt;Node6</title>
<g id="a_edge11_Node000009_Node000006"><a xlink:title=" ">
<path fill="none" stroke="#63b8ff" d="M467.66,-115.37C461.3,-106.73 451.36,-93.2 443.43,-82.42"/>
<polygon fill="#63b8ff" stroke="#63b8ff" points="446.11,-80.15 437.37,-74.17 440.47,-84.3 446.11,-80.15"/>
</a>
</g>
</g>
<!-- Node11 -->
<g id="Node000011" class="node">
<title>Node11</title>
<g id="a_Node000011"><a xlink:href="ObjectListModelBase_8h.html" target="_top" xlink:title=" ">
<polygon fill="white" stroke="#666666" points="679,-134.5 551,-134.5 551,-115.5 679,-115.5 679,-134.5"/>
<text text-anchor="middle" x="615" y="-122.5" font-family="Helvetica,sans-Serif" font-size="10.00">ObjectListModelBase.h</text>
</a>
</g>
</g>
<!-- Node10&#45;&gt;Node11 -->
<g id="edge13_Node000010_Node000011" class="edge">
<title>Node10&#45;&gt;Node11</title>
<g id="a_edge13_Node000010_Node000011"><a xlink:title=" ">
<path fill="none" stroke="#63b8ff" d="M639.72,-175.87C635.57,-167.49 629.13,-154.51 623.87,-143.89"/>
<polygon fill="#63b8ff" stroke="#63b8ff" points="626.87,-142.07 619.3,-134.67 620.6,-145.18 626.87,-142.07"/>
</a>
</g>
</g>
<!-- Node12 -->
<g id="Node000012" class="node">
<title>Node12</title>
<g id="a_Node000012"><a xlink:href="ObjectItemModelBase_8h.html" target="_top" xlink:title=" ">
<polygon fill="white" stroke="#666666" points="680,-74 546,-74 546,-55 680,-55 680,-74"/>
<text text-anchor="middle" x="613" y="-62" font-family="Helvetica,sans-Serif" font-size="10.00">ObjectItemModelBase.h</text>
</a>
</g>
</g>
<!-- Node11&#45;&gt;Node12 -->
<g id="edge14_Node000011_Node000012" class="edge">
<title>Node11&#45;&gt;Node12</title>
<g id="a_edge14_Node000011_Node000012"><a xlink:title=" ">
<path fill="none" stroke="#63b8ff" d="M614.7,-115.37C614.43,-107.25 614,-94.81 613.65,-84.39"/>
<polygon fill="#63b8ff" stroke="#63b8ff" points="617.14,-84.04 613.3,-74.17 610.14,-84.28 617.14,-84.04"/>
</a>
</g>
</g>
<!-- Node13 -->
<g id="Node000013" class="node">
<title>Node13</title>
<g id="a_Node000013"><a xlink:title=" ">
<polygon fill="#e0e0e0" stroke="#999999" points="504,-19 350,-19 350,0 504,0 504,-19"/>
<text text-anchor="middle" x="427" y="-7" font-family="Helvetica,sans-Serif" font-size="10.00">QtCore/QAbstractItemModel</text>
</a>
</g>
</g>
<!-- Node12&#45;&gt;Node13 -->
<g id="edge15_Node000012_Node000013" class="edge">
<title>Node12&#45;&gt;Node13</title>
<g id="a_edge15_Node000012_Node000013"><a xlink:title=" ">
<path fill="none" stroke="#63b8ff" d="M583.12,-54.98C551.62,-46.01 501.83,-31.82 466.97,-21.89"/>
<polygon fill="#63b8ff" stroke="#63b8ff" points="467.69,-18.46 457.12,-19.08 465.78,-25.19 467.69,-18.46"/>
</a>
</g>
</g>
<!-- Node14 -->
<g id="Node000014" class="node">
<title>Node14</title>
<g id="a_Node000014"><a xlink:title=" ">
<polygon fill="#e0e0e0" stroke="#999999" points="711.5,-19 522.5,-19 522.5,0 711.5,0 711.5,-19"/>
<text text-anchor="middle" x="617" y="-7" font-family="Helvetica,sans-Serif" font-size="10.00">QtQmlIntegration/QtQmlIntegration</text>
</a>
</g>
</g>
<!-- Node12&#45;&gt;Node14 -->
<g id="edge16_Node000012_Node000014" class="edge">
<title>Node12&#45;&gt;Node14</title>
<g id="a_edge16_Node000012_Node000014"><a xlink:title=" ">
<path fill="none" stroke="#63b8ff" d="M613.66,-54.75C614.18,-47.8 614.94,-37.85 615.59,-29.13"/>
<polygon fill="#63b8ff" stroke="#63b8ff" points="619.09,-29.32 616.35,-19.09 612.11,-28.8 619.09,-29.32"/>
</a>
</g>
</g>
<!-- Node16 -->
<g id="Node000016" class="node">
<title>Node16</title>
<g id="a_Node000016"><a xlink:title=" ">
<polygon fill="#e0e0e0" stroke="#999999" points="746.5,-134.5 697.5,-134.5 697.5,-115.5 746.5,-115.5 746.5,-134.5"/>
<text text-anchor="middle" x="722" y="-122.5" font-family="Helvetica,sans-Serif" font-size="10.00">cstdlib</text>
</a>
</g>
</g>
<!-- Node15&#45;&gt;Node16 -->
<g id="edge18_Node000015_Node000016" class="edge">
<title>Node15&#45;&gt;Node16</title>
<g id="a_edge18_Node000015_Node000016"><a xlink:title=" ">
<path fill="none" stroke="#63b8ff" d="M817.47,-175.87C799.03,-166.23 768.96,-150.53 747.49,-139.31"/>
<polygon fill="#63b8ff" stroke="#63b8ff" points="749.08,-136.19 738.59,-134.67 745.84,-142.4 749.08,-136.19"/>
</a>
</g>
</g>
<!-- Node17 -->
<g id="Node000017" class="node">
<title>Node17</title>
<g id="a_Node000017"><a xlink:title=" ">
<polygon fill="#e0e0e0" stroke="#999999" points="817.5,-134.5 764.5,-134.5 764.5,-115.5 817.5,-115.5 817.5,-134.5"/>
<text text-anchor="middle" x="791" y="-122.5" font-family="Helvetica,sans-Serif" font-size="10.00">cstdarg</text>
</a>
</g>
</g>
<!-- Node15&#45;&gt;Node17 -->
<g id="edge19_Node000015_Node000017" class="edge">
<title>Node15&#45;&gt;Node17</title>
<g id="a_edge19_Node000015_Node000017"><a xlink:title=" ">
<path fill="none" stroke="#63b8ff" d="M827.66,-175.87C821.3,-167.23 811.36,-153.7 803.43,-142.92"/>
<polygon fill="#63b8ff" stroke="#63b8ff" points="806.11,-140.65 797.37,-134.67 800.47,-144.8 806.11,-140.65"/>
</a>
</g>
</g>
<!-- Node18 -->
<g id="Node000018" class="node">
<title>Node18</title>
<g id="a_Node000018"><a xlink:href="MAVLinkLib_8h.html" target="_top" xlink:title=" ">
<polygon fill="white" stroke="#666666" points="918,-134.5 836,-134.5 836,-115.5 918,-115.5 918,-134.5"/>
<text text-anchor="middle" x="877" y="-122.5" font-family="Helvetica,sans-Serif" font-size="10.00">MAVLinkLib.h</text>
</a>
</g>
</g>
<!-- Node15&#45;&gt;Node18 -->
<g id="edge20_Node000015_Node000018" class="edge">
<title>Node15&#45;&gt;Node18</title>
<g id="a_edge20_Node000015_Node000018"><a xlink:title=" ">
<path fill="none" stroke="#63b8ff" d="M840.34,-175.87C846.7,-167.23 856.64,-153.7 864.57,-142.92"/>
<polygon fill="#63b8ff" stroke="#63b8ff" points="867.53,-144.8 870.63,-134.67 861.89,-140.65 867.53,-144.8"/>
</a>
</g>
</g>
<!-- Node24 -->
<g id="Node000024" class="node">
<title>Node24</title>
<g id="a_Node000024"><a xlink:title=" ">
<polygon fill="#e0e0e0" stroke="#999999" points="1040,-134.5 936,-134.5 936,-115.5 1040,-115.5 1040,-134.5"/>
<text text-anchor="middle" x="988" y="-122.5" font-family="Helvetica,sans-Serif" font-size="10.00">protocol/receive.h</text>
</a>
</g>
</g>
<!-- Node15&#45;&gt;Node24 -->
<g id="edge26_Node000015_Node000024" class="edge">
<title>Node15&#45;&gt;Node24</title>
<g id="a_edge26_Node000015_Node000024"><a xlink:title=" ">
<path fill="none" stroke="#63b8ff" d="M856.39,-175.99C882.62,-166.03 926.28,-149.45 956.06,-138.13"/>
<polygon fill="#63b8ff" stroke="#63b8ff" points="957.47,-141.34 965.58,-134.52 954.99,-134.8 957.47,-141.34"/>
</a>
</g>
</g>
<!-- Node25 -->
<g id="Node000025" class="node">
<title>Node25</title>
<g id="a_Node000025"><a xlink:title=" ">
<polygon fill="#e0e0e0" stroke="#999999" points="1198,-140 1058,-140 1058,-110 1198,-110 1198,-140"/>
<text text-anchor="start" x="1066" y="-128" font-family="Helvetica,sans-Serif" font-size="10.00">parse/health_and_arming</text>
<text text-anchor="middle" x="1128" y="-117" font-family="Helvetica,sans-Serif" font-size="10.00">_checks.h</text>
</a>
</g>
</g>
<!-- Node15&#45;&gt;Node25 -->
<g id="edge27_Node000015_Node000025" class="edge">
<title>Node15&#45;&gt;Node25</title>
<g id="a_edge27_Node000015_Node000025"><a xlink:title=" ">
<path fill="none" stroke="#63b8ff" d="M870.64,-177.21C914.8,-168.42 990.28,-153.4 1048.12,-141.9"/>
<polygon fill="#63b8ff" stroke="#63b8ff" points="1048.84,-145.32 1057.97,-139.94 1047.47,-138.45 1048.84,-145.32"/>
</a>
</g>
</g>
<!-- Node26 -->
<g id="Node000026" class="node">
<title>Node26</title>
<g id="a_Node000026"><a xlink:title=" ">
<polygon fill="#e0e0e0" stroke="#999999" points="1382,-134.5 1216,-134.5 1216,-115.5 1382,-115.5 1382,-134.5"/>
<text text-anchor="middle" x="1299" y="-122.5" font-family="Helvetica,sans-Serif" font-size="10.00">generated/events_generated.h</text>
</a>
</g>
</g>
<!-- Node15&#45;&gt;Node26 -->
<g id="edge28_Node000015_Node000026" class="edge">
<title>Node15&#45;&gt;Node26</title>
<g id="a_edge28_Node000015_Node000026"><a xlink:title=" ">
<path fill="none" stroke="#63b8ff" d="M870.8,-177.31C873.57,-176.84 876.33,-176.4 879,-176 1024.05,-154.37 1061.59,-159.04 1207,-140 1216.27,-138.79 1226.06,-137.41 1235.65,-135.99"/>
<polygon fill="#63b8ff" stroke="#63b8ff" points="1236.17,-139.46 1245.54,-134.52 1235.13,-132.53 1236.17,-139.46"/>
</a>
</g>
</g>
<!-- Node19 -->
<g id="Node000019" class="node">
<title>Node19</title>
<g id="a_Node000019"><a xlink:href="MAVLinkMessageType_8h.html" target="_top" xlink:title=" ">
<polygon fill="white" stroke="#666666" points="832,-74 698,-74 698,-55 832,-55 832,-74"/>
<text text-anchor="middle" x="765" y="-62" font-family="Helvetica,sans-Serif" font-size="10.00">MAVLinkMessageType.h</text>
</a>
</g>
</g>
<!-- Node18&#45;&gt;Node19 -->
<g id="edge21_Node000018_Node000019" class="edge">
<title>Node18&#45;&gt;Node19</title>
<g id="a_edge21_Node000018_Node000019"><a xlink:title=" ">
<path fill="none" stroke="#63b8ff" d="M860.47,-115.37C842.03,-105.73 811.96,-90.03 790.49,-78.81"/>
<polygon fill="#63b8ff" stroke="#63b8ff" points="792.08,-75.69 781.59,-74.17 788.84,-81.9 792.08,-75.69"/>
</a>
</g>
</g>
<!-- Node22 -->
<g id="Node000022" class="node">
<title>Node22</title>
<g id="a_Node000022"><a xlink:title=" ">
<polygon fill="#e0e0e0" stroke="#999999" points="906,-74 850,-74 850,-55 906,-55 906,-74"/>
<text text-anchor="middle" x="878" y="-62" font-family="Helvetica,sans-Serif" font-size="10.00">stddef.h</text>
</a>
</g>
</g>
<!-- Node18&#45;&gt;Node22 -->
<g id="edge24_Node000018_Node000022" class="edge">
<title>Node18&#45;&gt;Node22</title>
<g id="a_edge24_Node000018_Node000022"><a xlink:title=" ">
<path fill="none" stroke="#63b8ff" d="M877.15,-115.37C877.29,-107.25 877.5,-94.81 877.68,-84.39"/>
<polygon fill="#63b8ff" stroke="#63b8ff" points="881.18,-84.23 877.85,-74.17 874.18,-84.11 881.18,-84.23"/>
</a>
</g>
</g>
<!-- Node23 -->
<g id="Node000023" class="node">
<title>Node23</title>
<g id="a_Node000023"><a xlink:title=" ">
<polygon fill="#e0e0e0" stroke="#999999" points="989.5,-74 924.5,-74 924.5,-55 989.5,-55 989.5,-74"/>
<text text-anchor="middle" x="957" y="-62" font-family="Helvetica,sans-Serif" font-size="10.00">mavlink.h</text>
</a>
</g>
</g>
<!-- Node18&#45;&gt;Node23 -->
<g id="edge25_Node000018_Node000023" class="edge">
<title>Node18&#45;&gt;Node23</title>
<g id="a_edge25_Node000018_Node000023"><a xlink:title=" ">
<path fill="none" stroke="#63b8ff" d="M888.8,-115.37C901.45,-106.12 921.74,-91.28 936.91,-80.19"/>
<polygon fill="#63b8ff" stroke="#63b8ff" points="939.14,-82.9 945.15,-74.17 935.01,-77.24 939.14,-82.9"/>
</a>
</g>
</g>
<!-- Node20 -->
<g id="Node000020" class="node">
<title>Node20</title>
<g id="a_Node000020"><a xlink:title=" ">
<polygon fill="#e0e0e0" stroke="#999999" points="788.5,-19 735.5,-19 735.5,0 788.5,0 788.5,-19"/>
<text text-anchor="middle" x="762" y="-7" font-family="Helvetica,sans-Serif" font-size="10.00">stdint.h</text>
</a>
</g>
</g>
<!-- Node19&#45;&gt;Node20 -->
<g id="edge22_Node000019_Node000020" class="edge">
<title>Node19&#45;&gt;Node20</title>
<g id="a_edge22_Node000019_Node000020"><a xlink:title=" ">
<path fill="none" stroke="#63b8ff" d="M764.5,-54.75C764.11,-47.8 763.55,-37.85 763.05,-29.13"/>
<polygon fill="#63b8ff" stroke="#63b8ff" points="766.55,-28.88 762.49,-19.09 759.56,-29.27 766.55,-28.88"/>
</a>
</g>
</g>
<!-- Node21 -->
<g id="Node000021" class="node">
<title>Node21</title>
<g id="a_Node000021"><a xlink:title=" ">
<polygon fill="#e0e0e0" stroke="#999999" points="905,-19 807,-19 807,0 905,0 905,-19"/>
<text text-anchor="middle" x="856" y="-7" font-family="Helvetica,sans-Serif" font-size="10.00">mavlink_types.h</text>
</a>
</g>
</g>
<!-- Node19&#45;&gt;Node21 -->
<g id="edge23_Node000019_Node000021" class="edge">
<title>Node19&#45;&gt;Node21</title>
<g id="a_edge23_Node000019_Node000021"><a xlink:title=" ">
<path fill="none" stroke="#63b8ff" d="M779.62,-54.98C793.86,-46.69 815.75,-33.94 832.45,-24.22"/>
<polygon fill="#63b8ff" stroke="#63b8ff" points="834.23,-27.23 841.11,-19.17 830.71,-21.18 834.23,-27.23"/>
</a>
</g>
</g>
<!-- Node29 -->
<g id="Node000029" class="node">
<title>Node29</title>
<g id="a_Node000029"><a xlink:title=" ">
<polygon fill="#e0e0e0" stroke="#999999" points="1543.5,-134.5 1400.5,-134.5 1400.5,-115.5 1543.5,-115.5 1543.5,-134.5"/>
<text text-anchor="middle" x="1472" y="-122.5" font-family="Helvetica,sans-Serif" font-size="10.00">QtCore/QLoggingCategory</text>
</a>
</g>
</g>
<!-- Node28&#45;&gt;Node29 -->
<g id="edge31_Node000028_Node000029" class="edge">
<title>Node28&#45;&gt;Node29</title>
<g id="a_edge31_Node000028_Node000029"><a xlink:title=" ">
<path fill="none" stroke="#63b8ff" d="M1319.03,-175.99C1349.92,-165.9 1401.58,-149.01 1436.22,-137.69"/>
<polygon fill="#63b8ff" stroke="#63b8ff" points="1437.52,-140.95 1445.94,-134.52 1435.35,-134.3 1437.52,-140.95"/>
</a>
</g>
</g>
</g>
</svg>
