<?xml version="1.0" encoding="UTF-8" standalone="no"?>
<!DOCTYPE svg PUBLIC "-//W3C//DTD SVG 1.1//EN"
 "http://www.w3.org/Graphics/SVG/1.1/DTD/svg11.dtd">
<!-- Generated by graphviz version 2.43.0 (0)
 -->
<!-- Title: src/MAVLink/ImageProtocolManager.cc Pages: 1 -->
<!--zoomable 258 -->

<svg id="main" version="1.1" xmlns="http://www.w3.org/2000/svg" xmlns:xlink="http://www.w3.org/1999/xlink" xml:space="preserve" onload="init(evt)">
<style type="text/css"><![CDATA[
.node, .edge {opacity: 0.7;}
.node.selected, .edge.selected {opacity: 1;}
.edge:hover path { stroke: red; }
.edge:hover polygon { stroke: red; fill: red; }
]]></style>

<defs>
  <circle id="rim" cx="0" cy="0" r="7"/>
  <circle id="rim2" cx="0" cy="0" r="3.5"/>
  <g id="zoomPlus">
    <use xlink:href="#rim" fill="#404040"><set attributeName="fill" to="#808080" begin="zoomplus.mouseover" end="zoomplus.mouseout"/></use>
    <path d="M-4,0h8M0,-4v8" fill="none" stroke="white" stroke-width="1.5" pointer-events="none"/>
  </g>
  <g id="zoomMin">
    <use xlink:href="#rim" fill="#404040"><set attributeName="fill" to="#808080" begin="zoomminus.mouseover" end="zoomminus.mouseout"/></use>
    <path d="M-4,0h8" fill="none" stroke="white" stroke-width="1.5" pointer-events="none"/>
  </g>
  <g id="arrowUp" transform="translate(30 24)">
    <use xlink:href="#rim"/>
    <path pointer-events="none" fill="none" stroke="white" stroke-width="1.5" d="M0,-3.0v7 M-2.5,-0.5L0,-3.0L2.5,-0.5"/>
  </g>
  <g id="arrowRight" transform="rotate(90) translate(36 -43)">
    <use xlink:href="#rim"/>
    <path pointer-events="none" fill="none" stroke="white" stroke-width="1.5" d="M0,-3.0v7 M-2.5,-0.5L0,-3.0L2.5,-0.5"/>
  </g>
  <g id="arrowDown" transform="rotate(180) translate(-30 -48)">
    <use xlink:href="#rim"/>
    <path pointer-events="none" fill="none" stroke="white" stroke-width="1.5" d="M0,-3.0v7 M-2.5,-0.5L0,-3.0L2.5,-0.5"/>
  </g>
  <g id="arrowLeft" transform="rotate(270) translate(-36 17)">
    <use xlink:href="#rim"/>
    <path pointer-events="none" fill="none" stroke="white" stroke-width="1.5" d="M0,-3.0v7 M-2.5,-0.5L0,-3.0L2.5,-0.5"/>
  </g>
  <g id="resetDef">
    <use xlink:href="#rim2" fill="#404040"><set attributeName="fill" to="#808080" begin="reset.mouseover" end="reset.mouseout"/></use>
  </g>
</defs>
<script type="application/ecmascript">
var viewWidth = 1482;
var viewHeight = 258;
var sectionId = 'dynsection-0';
</script>
<script type="application/ecmascript" xlink:href="svg.min.js"/>
<svg id="graph" class="graph">
<g id="viewport">
<title>src/MAVLink/ImageProtocolManager.cc</title>
<!-- Node1 -->
<g id="Node000001" class="node">
<title>Node1</title>
<g id="a_Node000001"><a xlink:title=" ">
<polygon fill="#999999" stroke="#666666" points="1012,-250 863,-250 863,-220 1012,-220 1012,-250"/>
<text text-anchor="start" x="871" y="-238" font-family="Helvetica,sans-Serif" font-size="10.00">src/MAVLink/ImageProtocol</text>
<text text-anchor="middle" x="937.5" y="-227" font-family="Helvetica,sans-Serif" font-size="10.00">Manager.cc</text>
</a>
</g>
</g>
<!-- Node2 -->
<g id="Node000002" class="node">
<title>Node2</title>
<g id="a_Node000002"><a xlink:href="ImageProtocolManager_8h.html" target="_top" xlink:title=" ">
<polygon fill="white" stroke="#666666" points="539.5,-184 401.5,-184 401.5,-165 539.5,-165 539.5,-184"/>
<text text-anchor="middle" x="470.5" y="-172" font-family="Helvetica,sans-Serif" font-size="10.00">ImageProtocolManager.h</text>
</a>
</g>
</g>
<!-- Node1&#45;&gt;Node2 -->
<g id="edge1_Node000001_Node000002" class="edge">
<title>Node1&#45;&gt;Node2</title>
<g id="a_edge1_Node000001_Node000002"><a xlink:title=" ">
<path fill="none" stroke="#63b8ff" d="M862.99,-224.67C777.03,-213.9 636.34,-196.27 548.81,-185.31"/>
<polygon fill="#63b8ff" stroke="#63b8ff" points="549.03,-181.81 538.67,-184.04 548.16,-188.76 549.03,-181.81"/>
</a>
</g>
</g>
<!-- Node13 -->
<g id="Node000013" class="node">
<title>Node13</title>
<g id="a_Node000013"><a xlink:href="QGCLoggingCategory_8h.html" target="_top" xlink:title=" ">
<polygon fill="white" stroke="#666666" points="1001.5,-184 873.5,-184 873.5,-165 1001.5,-165 1001.5,-184"/>
<text text-anchor="middle" x="937.5" y="-172" font-family="Helvetica,sans-Serif" font-size="10.00">QGCLoggingCategory.h</text>
</a>
</g>
</g>
<!-- Node1&#45;&gt;Node13 -->
<g id="edge12_Node000001_Node000013" class="edge">
<title>Node1&#45;&gt;Node13</title>
<g id="a_edge12_Node000001_Node000013"><a xlink:title=" ">
<path fill="none" stroke="#63b8ff" d="M937.5,-219.84C937.5,-212.21 937.5,-202.7 937.5,-194.45"/>
<polygon fill="#63b8ff" stroke="#63b8ff" points="941,-194.27 937.5,-184.27 934,-194.27 941,-194.27"/>
</a>
</g>
</g>
<!-- Node20 -->
<g id="Node000020" class="node">
<title>Node20</title>
<g id="a_Node000020"><a xlink:title=" ">
<polygon fill="#e0e0e0" stroke="#999999" points="1069.5,-184 1019.5,-184 1019.5,-165 1069.5,-165 1069.5,-184"/>
<text text-anchor="middle" x="1044.5" y="-172" font-family="Helvetica,sans-Serif" font-size="10.00">cstring</text>
</a>
</g>
</g>
<!-- Node1&#45;&gt;Node20 -->
<g id="edge21_Node000001_Node000020" class="edge">
<title>Node1&#45;&gt;Node20</title>
<g id="a_edge21_Node000001_Node000020"><a xlink:title=" ">
<path fill="none" stroke="#63b8ff" d="M963.13,-219.99C980.34,-210.58 1002.9,-198.24 1019.9,-188.95"/>
<polygon fill="#63b8ff" stroke="#63b8ff" points="1021.6,-192.01 1028.7,-184.14 1018.25,-185.87 1021.6,-192.01"/>
</a>
</g>
</g>
<!-- Node3 -->
<g id="Node000003" class="node">
<title>Node3</title>
<g id="a_Node000003"><a xlink:href="MAVLinkLib_8h.html" target="_top" xlink:title=" ">
<polygon fill="white" stroke="#666666" points="227.5,-129 145.5,-129 145.5,-110 227.5,-110 227.5,-129"/>
<text text-anchor="middle" x="186.5" y="-117" font-family="Helvetica,sans-Serif" font-size="10.00">MAVLinkLib.h</text>
</a>
</g>
</g>
<!-- Node2&#45;&gt;Node3 -->
<g id="edge2_Node000002_Node000003" class="edge">
<title>Node2&#45;&gt;Node3</title>
<g id="a_edge2_Node000002_Node000003"><a xlink:title=" ">
<path fill="none" stroke="#63b8ff" d="M424.87,-164.98C373.76,-155.45 291.1,-140.02 237.79,-130.07"/>
<polygon fill="#63b8ff" stroke="#63b8ff" points="238.33,-126.61 227.86,-128.22 237.05,-133.49 238.33,-126.61"/>
</a>
</g>
</g>
<!-- Node9 -->
<g id="Node000009" class="node">
<title>Node9</title>
<g id="a_Node000009"><a xlink:title=" ">
<polygon fill="#e0e0e0" stroke="#999999" points="355.5,-129 245.5,-129 245.5,-110 355.5,-110 355.5,-129"/>
<text text-anchor="middle" x="300.5" y="-117" font-family="Helvetica,sans-Serif" font-size="10.00">QtCore/QByteArray</text>
</a>
</g>
</g>
<!-- Node2&#45;&gt;Node9 -->
<g id="edge8_Node000002_Node000009" class="edge">
<title>Node2&#45;&gt;Node9</title>
<g id="a_edge8_Node000002_Node000009"><a xlink:title=" ">
<path fill="none" stroke="#63b8ff" d="M443.19,-164.98C414.65,-156.09 369.67,-142.07 337.86,-132.15"/>
<polygon fill="#63b8ff" stroke="#63b8ff" points="338.62,-128.72 328.03,-129.08 336.53,-135.4 338.62,-128.72"/>
</a>
</g>
</g>
<!-- Node10 -->
<g id="Node000010" class="node">
<title>Node10</title>
<g id="a_Node000010"><a xlink:title=" ">
<polygon fill="#e0e0e0" stroke="#999999" points="731,-129 588,-129 588,-110 731,-110 731,-129"/>
<text text-anchor="middle" x="659.5" y="-117" font-family="Helvetica,sans-Serif" font-size="10.00">QtCore/QLoggingCategory</text>
</a>
</g>
</g>
<!-- Node2&#45;&gt;Node10 -->
<g id="edge9_Node000002_Node000010" class="edge">
<title>Node2&#45;&gt;Node10</title>
<g id="a_edge9_Node000002_Node000010"><a xlink:title=" ">
<path fill="none" stroke="#63b8ff" d="M500.87,-164.98C532.87,-156.01 583.46,-141.82 618.88,-131.89"/>
<polygon fill="#63b8ff" stroke="#63b8ff" points="620.21,-135.15 628.9,-129.08 618.32,-128.41 620.21,-135.15"/>
</a>
</g>
</g>
<!-- Node11 -->
<g id="Node000011" class="node">
<title>Node11</title>
<g id="a_Node000011"><a xlink:title=" ">
<polygon fill="#e0e0e0" stroke="#999999" points="569.5,-129 477.5,-129 477.5,-110 569.5,-110 569.5,-129"/>
<text text-anchor="middle" x="523.5" y="-117" font-family="Helvetica,sans-Serif" font-size="10.00">QtCore/QObject</text>
</a>
</g>
</g>
<!-- Node2&#45;&gt;Node11 -->
<g id="edge10_Node000002_Node000011" class="edge">
<title>Node2&#45;&gt;Node11</title>
<g id="a_edge10_Node000002_Node000011"><a xlink:title=" ">
<path fill="none" stroke="#63b8ff" d="M479.25,-164.75C486.97,-157.03 498.4,-145.6 507.72,-136.28"/>
<polygon fill="#63b8ff" stroke="#63b8ff" points="510.31,-138.64 514.91,-129.09 505.36,-133.69 510.31,-138.64"/>
</a>
</g>
</g>
<!-- Node12 -->
<g id="Node000012" class="node">
<title>Node12</title>
<g id="a_Node000012"><a xlink:title=" ">
<polygon fill="#e0e0e0" stroke="#999999" points="459.5,-129 373.5,-129 373.5,-110 459.5,-110 459.5,-129"/>
<text text-anchor="middle" x="416.5" y="-117" font-family="Helvetica,sans-Serif" font-size="10.00">QtGui/QImage</text>
</a>
</g>
</g>
<!-- Node2&#45;&gt;Node12 -->
<g id="edge11_Node000002_Node000012" class="edge">
<title>Node2&#45;&gt;Node12</title>
<g id="a_edge11_Node000002_Node000012"><a xlink:title=" ">
<path fill="none" stroke="#63b8ff" d="M461.58,-164.75C453.72,-157.03 442.07,-145.6 432.58,-136.28"/>
<polygon fill="#63b8ff" stroke="#63b8ff" points="434.84,-133.6 425.25,-129.09 429.94,-138.59 434.84,-133.6"/>
</a>
</g>
</g>
<!-- Node4 -->
<g id="Node000004" class="node">
<title>Node4</title>
<g id="a_Node000004"><a xlink:href="MAVLinkMessageType_8h.html" target="_top" xlink:title=" ">
<polygon fill="white" stroke="#666666" points="140.5,-74 6.5,-74 6.5,-55 140.5,-55 140.5,-74"/>
<text text-anchor="middle" x="73.5" y="-62" font-family="Helvetica,sans-Serif" font-size="10.00">MAVLinkMessageType.h</text>
</a>
</g>
</g>
<!-- Node3&#45;&gt;Node4 -->
<g id="edge3_Node000003_Node000004" class="edge">
<title>Node3&#45;&gt;Node4</title>
<g id="a_edge3_Node000003_Node000004"><a xlink:title=" ">
<path fill="none" stroke="#63b8ff" d="M168.34,-109.98C150.25,-101.5 122.22,-88.35 101.31,-78.54"/>
<polygon fill="#63b8ff" stroke="#63b8ff" points="102.53,-75.25 91.99,-74.17 99.55,-81.59 102.53,-75.25"/>
</a>
</g>
</g>
<!-- Node7 -->
<g id="Node000007" class="node">
<title>Node7</title>
<g id="a_Node000007"><a xlink:title=" ">
<polygon fill="#e0e0e0" stroke="#999999" points="214.5,-74 158.5,-74 158.5,-55 214.5,-55 214.5,-74"/>
<text text-anchor="middle" x="186.5" y="-62" font-family="Helvetica,sans-Serif" font-size="10.00">stddef.h</text>
</a>
</g>
</g>
<!-- Node3&#45;&gt;Node7 -->
<g id="edge6_Node000003_Node000007" class="edge">
<title>Node3&#45;&gt;Node7</title>
<g id="a_edge6_Node000003_Node000007"><a xlink:title=" ">
<path fill="none" stroke="#63b8ff" d="M186.5,-109.75C186.5,-102.8 186.5,-92.85 186.5,-84.13"/>
<polygon fill="#63b8ff" stroke="#63b8ff" points="190,-84.09 186.5,-74.09 183,-84.09 190,-84.09"/>
</a>
</g>
</g>
<!-- Node8 -->
<g id="Node000008" class="node">
<title>Node8</title>
<g id="a_Node000008"><a xlink:title=" ">
<polygon fill="#e0e0e0" stroke="#999999" points="298,-74 233,-74 233,-55 298,-55 298,-74"/>
<text text-anchor="middle" x="265.5" y="-62" font-family="Helvetica,sans-Serif" font-size="10.00">mavlink.h</text>
</a>
</g>
</g>
<!-- Node3&#45;&gt;Node8 -->
<g id="edge7_Node000003_Node000008" class="edge">
<title>Node3&#45;&gt;Node8</title>
<g id="a_edge7_Node000003_Node000008"><a xlink:title=" ">
<path fill="none" stroke="#63b8ff" d="M199.19,-109.98C211.33,-101.84 229.86,-89.41 244.25,-79.76"/>
<polygon fill="#63b8ff" stroke="#63b8ff" points="246.22,-82.65 252.58,-74.17 242.32,-76.84 246.22,-82.65"/>
</a>
</g>
</g>
<!-- Node5 -->
<g id="Node000005" class="node">
<title>Node5</title>
<g id="a_Node000005"><a xlink:title=" ">
<polygon fill="#e0e0e0" stroke="#999999" points="53,-19 0,-19 0,0 53,0 53,-19"/>
<text text-anchor="middle" x="26.5" y="-7" font-family="Helvetica,sans-Serif" font-size="10.00">stdint.h</text>
</a>
</g>
</g>
<!-- Node4&#45;&gt;Node5 -->
<g id="edge4_Node000004_Node000005" class="edge">
<title>Node4&#45;&gt;Node5</title>
<g id="a_edge4_Node000004_Node000005"><a xlink:title=" ">
<path fill="none" stroke="#63b8ff" d="M65.74,-54.75C59.03,-47.18 49.16,-36.05 40.99,-26.84"/>
<polygon fill="#63b8ff" stroke="#63b8ff" points="43.37,-24.25 34.12,-19.09 38.13,-28.89 43.37,-24.25"/>
</a>
</g>
</g>
<!-- Node6 -->
<g id="Node000006" class="node">
<title>Node6</title>
<g id="a_Node000006"><a xlink:title=" ">
<polygon fill="#e0e0e0" stroke="#999999" points="169.5,-19 71.5,-19 71.5,0 169.5,0 169.5,-19"/>
<text text-anchor="middle" x="120.5" y="-7" font-family="Helvetica,sans-Serif" font-size="10.00">mavlink_types.h</text>
</a>
</g>
</g>
<!-- Node4&#45;&gt;Node6 -->
<g id="edge5_Node000004_Node000006" class="edge">
<title>Node4&#45;&gt;Node6</title>
<g id="a_edge5_Node000004_Node000006"><a xlink:title=" ">
<path fill="none" stroke="#63b8ff" d="M81.26,-54.75C87.97,-47.18 97.84,-36.05 106.01,-26.84"/>
<polygon fill="#63b8ff" stroke="#63b8ff" points="108.87,-28.89 112.88,-19.09 103.63,-24.25 108.87,-28.89"/>
</a>
</g>
</g>
<!-- Node13&#45;&gt;Node10 -->
<g id="edge14_Node000013_Node000010" class="edge">
<title>Node13&#45;&gt;Node10</title>
<g id="a_edge14_Node000013_Node000010"><a xlink:title=" ">
<path fill="none" stroke="#63b8ff" d="M892.83,-164.98C844.34,-155.74 766.85,-140.97 714.61,-131.01"/>
<polygon fill="#63b8ff" stroke="#63b8ff" points="714.99,-127.52 704.52,-129.08 713.68,-134.39 714.99,-127.52"/>
</a>
</g>
</g>
<!-- Node13&#45;&gt;Node11 -->
<g id="edge15_Node000013_Node000011" class="edge">
<title>Node13&#45;&gt;Node11</title>
<g id="a_edge15_Node000013_Node000011"><a xlink:title=" ">
<path fill="none" stroke="#63b8ff" d="M873.22,-166.12C803.5,-157.99 688.66,-144.2 579.87,-129.16"/>
<polygon fill="#63b8ff" stroke="#63b8ff" points="580.09,-125.65 569.7,-127.74 579.12,-132.59 580.09,-125.65"/>
</a>
</g>
</g>
<!-- Node14 -->
<g id="Node000014" class="node">
<title>Node14</title>
<g id="a_Node000014"><a xlink:title=" ">
<polygon fill="#e0e0e0" stroke="#999999" points="1226.5,-129 1140.5,-129 1140.5,-110 1226.5,-110 1226.5,-129"/>
<text text-anchor="middle" x="1183.5" y="-117" font-family="Helvetica,sans-Serif" font-size="10.00">QtCore/QHash</text>
</a>
</g>
</g>
<!-- Node13&#45;&gt;Node14 -->
<g id="edge13_Node000013_Node000014" class="edge">
<title>Node13&#45;&gt;Node14</title>
<g id="a_edge13_Node000013_Node000014"><a xlink:title=" ">
<path fill="none" stroke="#63b8ff" d="M977.02,-164.98C1019.67,-155.8 1087.65,-141.15 1133.86,-131.19"/>
<polygon fill="#63b8ff" stroke="#63b8ff" points="1134.63,-134.61 1143.67,-129.08 1133.15,-127.77 1134.63,-134.61"/>
</a>
</g>
</g>
<!-- Node15 -->
<g id="Node000015" class="node">
<title>Node15</title>
<g id="a_Node000015"><a xlink:title=" ">
<polygon fill="#e0e0e0" stroke="#999999" points="1378.5,-129 1244.5,-129 1244.5,-110 1378.5,-110 1378.5,-129"/>
<text text-anchor="middle" x="1311.5" y="-117" font-family="Helvetica,sans-Serif" font-size="10.00">QtCore/QReadWriteLock</text>
</a>
</g>
</g>
<!-- Node13&#45;&gt;Node15 -->
<g id="edge16_Node000013_Node000015" class="edge">
<title>Node13&#45;&gt;Node15</title>
<g id="a_edge16_Node000013_Node000015"><a xlink:title=" ">
<path fill="none" stroke="#63b8ff" d="M997.59,-164.98C1064.01,-155.57 1170.88,-140.43 1241.16,-130.47"/>
<polygon fill="#63b8ff" stroke="#63b8ff" points="1241.84,-133.91 1251.25,-129.04 1240.86,-126.98 1241.84,-133.91"/>
</a>
</g>
</g>
<!-- Node16 -->
<g id="Node000016" class="node">
<title>Node16</title>
<g id="a_Node000016"><a xlink:title=" ">
<polygon fill="#e0e0e0" stroke="#999999" points="1474,-129 1397,-129 1397,-110 1474,-110 1474,-129"/>
<text text-anchor="middle" x="1435.5" y="-117" font-family="Helvetica,sans-Serif" font-size="10.00">QtCore/QSet</text>
</a>
</g>
</g>
<!-- Node13&#45;&gt;Node16 -->
<g id="edge17_Node000013_Node000016" class="edge">
<title>Node13&#45;&gt;Node16</title>
<g id="a_edge17_Node000013_Node000016"><a xlink:title=" ">
<path fill="none" stroke="#63b8ff" d="M1001.59,-165.96C1004.6,-165.63 1007.58,-165.31 1010.5,-165 1174.69,-147.6 1219.04,-151.53 1386.85,-128.98"/>
<polygon fill="#63b8ff" stroke="#63b8ff" points="1387.33,-132.44 1396.77,-127.63 1386.39,-125.51 1387.33,-132.44"/>
</a>
</g>
</g>
<!-- Node17 -->
<g id="Node000017" class="node">
<title>Node17</title>
<g id="a_Node000017"><a xlink:title=" ">
<polygon fill="#e0e0e0" stroke="#999999" points="838,-129 749,-129 749,-110 838,-110 838,-129"/>
<text text-anchor="middle" x="793.5" y="-117" font-family="Helvetica,sans-Serif" font-size="10.00">QtCore/QString</text>
</a>
</g>
</g>
<!-- Node13&#45;&gt;Node17 -->
<g id="edge18_Node000013_Node000017" class="edge">
<title>Node13&#45;&gt;Node17</title>
<g id="a_edge18_Node000013_Node000017"><a xlink:title=" ">
<path fill="none" stroke="#63b8ff" d="M914.36,-164.98C890.68,-156.27 853.63,-142.63 826.79,-132.75"/>
<polygon fill="#63b8ff" stroke="#63b8ff" points="827.65,-129.34 817.06,-129.17 825.23,-135.91 827.65,-129.34"/>
</a>
</g>
</g>
<!-- Node18 -->
<g id="Node000018" class="node">
<title>Node18</title>
<g id="a_Node000018"><a xlink:title=" ">
<polygon fill="#e0e0e0" stroke="#999999" points="1019,-129 856,-129 856,-110 1019,-110 1019,-129"/>
<text text-anchor="middle" x="937.5" y="-117" font-family="Helvetica,sans-Serif" font-size="10.00">QtCore/QSortFilterProxyModel</text>
</a>
</g>
</g>
<!-- Node13&#45;&gt;Node18 -->
<g id="edge19_Node000013_Node000018" class="edge">
<title>Node13&#45;&gt;Node18</title>
<g id="a_edge19_Node000013_Node000018"><a xlink:title=" ">
<path fill="none" stroke="#63b8ff" d="M937.5,-164.75C937.5,-157.8 937.5,-147.85 937.5,-139.13"/>
<polygon fill="#63b8ff" stroke="#63b8ff" points="941,-139.09 937.5,-129.09 934,-139.09 941,-139.09"/>
</a>
</g>
</g>
<!-- Node19 -->
<g id="Node000019" class="node">
<title>Node19</title>
<g id="a_Node000019"><a xlink:title=" ">
<polygon fill="#e0e0e0" stroke="#999999" points="1122,-129 1037,-129 1037,-110 1122,-110 1122,-129"/>
<text text-anchor="middle" x="1079.5" y="-117" font-family="Helvetica,sans-Serif" font-size="10.00">QtQml/qqml.h</text>
</a>
</g>
</g>
<!-- Node13&#45;&gt;Node19 -->
<g id="edge20_Node000013_Node000019" class="edge">
<title>Node13&#45;&gt;Node19</title>
<g id="a_edge20_Node000013_Node000019"><a xlink:title=" ">
<path fill="none" stroke="#63b8ff" d="M960.31,-164.98C983.67,-156.27 1020.2,-142.63 1046.67,-132.75"/>
<polygon fill="#63b8ff" stroke="#63b8ff" points="1048.13,-135.95 1056.27,-129.17 1045.68,-129.39 1048.13,-135.95"/>
</a>
</g>
</g>
</g>
</svg>

<g id="navigator" transform="translate(0 0)" fill="#404254">
  <rect fill="#f2f5e9" fill-opacity="0.5" stroke="#606060" stroke-width=".5" x="0" y="0" width="60" height="60"/>
  <use id="zoomplus" xlink:href="#zoomPlus" x="17" y="9" onmousedown="handleZoom(evt,'in')"/>
  <use id="zoomminus" xlink:href="#zoomMin" x="42" y="9" onmousedown="handleZoom(evt,'out')"/>
  <use id="reset" xlink:href="#resetDef" x="30" y="36" onmousedown="handleReset()"/>
   <use id="arrowup" xlink:href="#arrowUp" x="0" y="0" onmousedown="handlePan(0,-1)"/>
  <use id="arrowright" xlink:href="#arrowRight" x="0" y="0" onmousedown="handlePan(1,0)"/>
  <use id="arrowdown" xlink:href="#arrowDown" x="0" y="0" onmousedown="handlePan(0,1)"/>
  <use id="arrowleft" xlink:href="#arrowLeft" x="0" y="0" onmousedown="handlePan(-1,0)"/>
</g>
<svg viewBox="0 0 15 15" width="100%" height="30px" preserveAspectRatio="xMaxYMin meet">
 <g id="arrow_out" transform="scale(0.3 0.3)">
  <a xlink:href="ImageProtocolManager_8cc__incl_org.svg" target="_base">
   <rect id="button" ry="5" rx="5" y="6" x="6" height="38" width="38"
        fill="#f2f5e9" fill-opacity="0.5" stroke="#606060" stroke-width="1.0"/>
   <path id="arrow"
     d="M 11.500037,31.436501 C 11.940474,20.09759 22.043105,11.32322 32.158766,21.979434 L 37.068811,17.246167 C 37.068811,17.246167 37.088388,32 37.088388,32 L 22.160133,31.978069 C 22.160133,31.978069 26.997745,27.140456 26.997745,27.140456 C 18.528582,18.264221 13.291696,25.230495 11.500037,31.436501 z"
     style="fill:#404040;"/>
  </a>
 </g>
</svg>

<style type='text/css'>
<![CDATA[
[data-mouse-over-selected='false'] { opacity: 0.7; }
[data-mouse-over-selected='true']  { opacity: 1.0; }
]]>
</style>
<script type="application/ecmascript"><![CDATA[
document.addEventListener('DOMContentLoaded', (event) => {
  highlightEdges();
  highlightAdjacentNodes();
});
]]></script>
</svg>
