<?xml version="1.0" encoding="UTF-8" standalone="no"?>
<!DOCTYPE svg PUBLIC "-//W3C//DTD SVG 1.1//EN"
 "http://www.w3.org/Graphics/SVG/1.1/DTD/svg11.dtd">
<!-- Generated by graphviz version 2.43.0 (0)
 -->
<!-- Title: src/MAVLink/ImageProtocolManager.h Pages: 1 -->
<svg width="578pt" height="203pt"
 viewBox="0.00 0.00 577.50 203.00" xmlns="http://www.w3.org/2000/svg" xmlns:xlink="http://www.w3.org/1999/xlink">
<g id="graph0" class="graph" transform="scale(1 1) rotate(0) translate(4 199)">
<title>src/MAVLink/ImageProtocolManager.h</title>
<!-- Node1 -->
<g id="Node000001" class="node">
<title>Node1</title>
<g id="a_Node000001"><a xlink:title=" ">
<polygon fill="#999999" stroke="#666666" points="434,-195 285,-195 285,-165 434,-165 434,-195"/>
<text text-anchor="start" x="293" y="-183" font-family="Helvetica,sans-Serif" font-size="10.00">src/MAVLink/ImageProtocol</text>
<text text-anchor="middle" x="359.5" y="-172" font-family="Helvetica,sans-Serif" font-size="10.00">Manager.h</text>
</a>
</g>
</g>
<!-- Node2 -->
<g id="Node000002" class="node">
<title>Node2</title>
<g id="a_Node000002"><a xlink:href="MAVLinkLib_8h.html" target="_top" xlink:title=" ">
<polygon fill="white" stroke="#666666" points="227.5,-129 145.5,-129 145.5,-110 227.5,-110 227.5,-129"/>
<text text-anchor="middle" x="186.5" y="-117" font-family="Helvetica,sans-Serif" font-size="10.00">MAVLinkLib.h</text>
</a>
</g>
</g>
<!-- Node1&#45;&gt;Node2 -->
<g id="edge1_Node000001_Node000002" class="edge">
<title>Node1&#45;&gt;Node2</title>
<g id="a_edge1_Node000001_Node000002"><a xlink:title=" ">
<path fill="none" stroke="#63b8ff" d="M318.06,-164.99C288.59,-155.02 249.44,-141.78 221.53,-132.35"/>
<polygon fill="#63b8ff" stroke="#63b8ff" points="222.39,-128.94 211.8,-129.05 220.15,-135.57 222.39,-128.94"/>
</a>
</g>
</g>
<!-- Node8 -->
<g id="Node000008" class="node">
<title>Node8</title>
<g id="a_Node000008"><a xlink:title=" ">
<polygon fill="#e0e0e0" stroke="#999999" points="355.5,-129 245.5,-129 245.5,-110 355.5,-110 355.5,-129"/>
<text text-anchor="middle" x="300.5" y="-117" font-family="Helvetica,sans-Serif" font-size="10.00">QtCore/QByteArray</text>
</a>
</g>
</g>
<!-- Node1&#45;&gt;Node8 -->
<g id="edge7_Node000001_Node000008" class="edge">
<title>Node1&#45;&gt;Node8</title>
<g id="a_edge7_Node000001_Node000008"><a xlink:title=" ">
<path fill="none" stroke="#63b8ff" d="M345.22,-164.84C336.57,-156.26 325.51,-145.3 316.56,-136.42"/>
<polygon fill="#63b8ff" stroke="#63b8ff" points="318.91,-133.82 309.34,-129.27 313.98,-138.79 318.91,-133.82"/>
</a>
</g>
</g>
<!-- Node9 -->
<g id="Node000009" class="node">
<title>Node9</title>
<g id="a_Node000009"><a xlink:title=" ">
<polygon fill="#e0e0e0" stroke="#999999" points="465.5,-129 373.5,-129 373.5,-110 465.5,-110 465.5,-129"/>
<text text-anchor="middle" x="419.5" y="-117" font-family="Helvetica,sans-Serif" font-size="10.00">QtCore/QObject</text>
</a>
</g>
</g>
<!-- Node1&#45;&gt;Node9 -->
<g id="edge8_Node000001_Node000009" class="edge">
<title>Node1&#45;&gt;Node9</title>
<g id="a_edge8_Node000001_Node000009"><a xlink:title=" ">
<path fill="none" stroke="#63b8ff" d="M374.02,-164.84C382.82,-156.26 394.07,-145.3 403.17,-136.42"/>
<polygon fill="#63b8ff" stroke="#63b8ff" points="405.79,-138.75 410.51,-129.27 400.91,-133.74 405.79,-138.75"/>
</a>
</g>
</g>
<!-- Node10 -->
<g id="Node000010" class="node">
<title>Node10</title>
<g id="a_Node000010"><a xlink:title=" ">
<polygon fill="#e0e0e0" stroke="#999999" points="569.5,-129 483.5,-129 483.5,-110 569.5,-110 569.5,-129"/>
<text text-anchor="middle" x="526.5" y="-117" font-family="Helvetica,sans-Serif" font-size="10.00">QtGui/QImage</text>
</a>
</g>
</g>
<!-- Node1&#45;&gt;Node10 -->
<g id="edge9_Node000001_Node000010" class="edge">
<title>Node1&#45;&gt;Node10</title>
<g id="a_edge9_Node000001_Node000010"><a xlink:title=" ">
<path fill="none" stroke="#63b8ff" d="M399.5,-164.99C427.74,-155.1 465.18,-141.98 492.08,-132.56"/>
<polygon fill="#63b8ff" stroke="#63b8ff" points="493.56,-135.75 501.84,-129.14 491.24,-129.14 493.56,-135.75"/>
</a>
</g>
</g>
<!-- Node3 -->
<g id="Node000003" class="node">
<title>Node3</title>
<g id="a_Node000003"><a xlink:href="MAVLinkMessageType_8h.html" target="_top" xlink:title=" ">
<polygon fill="white" stroke="#666666" points="140.5,-74 6.5,-74 6.5,-55 140.5,-55 140.5,-74"/>
<text text-anchor="middle" x="73.5" y="-62" font-family="Helvetica,sans-Serif" font-size="10.00">MAVLinkMessageType.h</text>
</a>
</g>
</g>
<!-- Node2&#45;&gt;Node3 -->
<g id="edge2_Node000002_Node000003" class="edge">
<title>Node2&#45;&gt;Node3</title>
<g id="a_edge2_Node000002_Node000003"><a xlink:title=" ">
<path fill="none" stroke="#63b8ff" d="M168.34,-109.98C150.25,-101.5 122.22,-88.35 101.31,-78.54"/>
<polygon fill="#63b8ff" stroke="#63b8ff" points="102.53,-75.25 91.99,-74.17 99.55,-81.59 102.53,-75.25"/>
</a>
</g>
</g>
<!-- Node6 -->
<g id="Node000006" class="node">
<title>Node6</title>
<g id="a_Node000006"><a xlink:title=" ">
<polygon fill="#e0e0e0" stroke="#999999" points="214.5,-74 158.5,-74 158.5,-55 214.5,-55 214.5,-74"/>
<text text-anchor="middle" x="186.5" y="-62" font-family="Helvetica,sans-Serif" font-size="10.00">stddef.h</text>
</a>
</g>
</g>
<!-- Node2&#45;&gt;Node6 -->
<g id="edge5_Node000002_Node000006" class="edge">
<title>Node2&#45;&gt;Node6</title>
<g id="a_edge5_Node000002_Node000006"><a xlink:title=" ">
<path fill="none" stroke="#63b8ff" d="M186.5,-109.75C186.5,-102.8 186.5,-92.85 186.5,-84.13"/>
<polygon fill="#63b8ff" stroke="#63b8ff" points="190,-84.09 186.5,-74.09 183,-84.09 190,-84.09"/>
</a>
</g>
</g>
<!-- Node7 -->
<g id="Node000007" class="node">
<title>Node7</title>
<g id="a_Node000007"><a xlink:title=" ">
<polygon fill="#e0e0e0" stroke="#999999" points="298,-74 233,-74 233,-55 298,-55 298,-74"/>
<text text-anchor="middle" x="265.5" y="-62" font-family="Helvetica,sans-Serif" font-size="10.00">mavlink.h</text>
</a>
</g>
</g>
<!-- Node2&#45;&gt;Node7 -->
<g id="edge6_Node000002_Node000007" class="edge">
<title>Node2&#45;&gt;Node7</title>
<g id="a_edge6_Node000002_Node000007"><a xlink:title=" ">
<path fill="none" stroke="#63b8ff" d="M199.19,-109.98C211.33,-101.84 229.86,-89.41 244.25,-79.76"/>
<polygon fill="#63b8ff" stroke="#63b8ff" points="246.22,-82.65 252.58,-74.17 242.32,-76.84 246.22,-82.65"/>
</a>
</g>
</g>
<!-- Node4 -->
<g id="Node000004" class="node">
<title>Node4</title>
<g id="a_Node000004"><a xlink:title=" ">
<polygon fill="#e0e0e0" stroke="#999999" points="53,-19 0,-19 0,0 53,0 53,-19"/>
<text text-anchor="middle" x="26.5" y="-7" font-family="Helvetica,sans-Serif" font-size="10.00">stdint.h</text>
</a>
</g>
</g>
<!-- Node3&#45;&gt;Node4 -->
<g id="edge3_Node000003_Node000004" class="edge">
<title>Node3&#45;&gt;Node4</title>
<g id="a_edge3_Node000003_Node000004"><a xlink:title=" ">
<path fill="none" stroke="#63b8ff" d="M65.74,-54.75C59.03,-47.18 49.16,-36.05 40.99,-26.84"/>
<polygon fill="#63b8ff" stroke="#63b8ff" points="43.37,-24.25 34.12,-19.09 38.13,-28.89 43.37,-24.25"/>
</a>
</g>
</g>
<!-- Node5 -->
<g id="Node000005" class="node">
<title>Node5</title>
<g id="a_Node000005"><a xlink:title=" ">
<polygon fill="#e0e0e0" stroke="#999999" points="169.5,-19 71.5,-19 71.5,0 169.5,0 169.5,-19"/>
<text text-anchor="middle" x="120.5" y="-7" font-family="Helvetica,sans-Serif" font-size="10.00">mavlink_types.h</text>
</a>
</g>
</g>
<!-- Node3&#45;&gt;Node5 -->
<g id="edge4_Node000003_Node000005" class="edge">
<title>Node3&#45;&gt;Node5</title>
<g id="a_edge4_Node000003_Node000005"><a xlink:title=" ">
<path fill="none" stroke="#63b8ff" d="M81.26,-54.75C87.97,-47.18 97.84,-36.05 106.01,-26.84"/>
<polygon fill="#63b8ff" stroke="#63b8ff" points="108.87,-28.89 112.88,-19.09 103.63,-24.25 108.87,-28.89"/>
</a>
</g>
</g>
</g>
</svg>
