<?xml version="1.0" encoding="UTF-8" standalone="no"?>
<!DOCTYPE svg PUBLIC "-//W3C//DTD SVG 1.1//EN"
 "http://www.w3.org/Graphics/SVG/1.1/DTD/svg11.dtd">
<!-- Generated by graphviz version 2.43.0 (0)
 -->
<!-- Title: Graphical Class Hierarchy Pages: 1 -->
<svg width="441pt" height="82pt"
 viewBox="0.00 0.00 441.00 82.00" xmlns="http://www.w3.org/2000/svg" xmlns:xlink="http://www.w3.org/1999/xlink">
<g id="graph0" class="graph" transform="scale(1 1) rotate(0) translate(4 78)">
<title>Graphical Class Hierarchy</title>
<!-- Node0 -->
<g id="Node000000" class="node">
<title>Node0</title>
<g id="a_Node000000"><a xlink:title=" ">
<polygon fill="#e0e0e0" stroke="#999999" points="120,-37 0,-37 0,-18 120,-18 120,-37"/>
<text text-anchor="middle" x="60" y="-25" font-family="Helvetica,sans-Serif" font-size="10.00">QAbstractTableModel</text>
</a>
</g>
</g>
<!-- Node1 -->
<g id="Node000001" class="node">
<title>Node1</title>
<g id="a_Node000001"><a xlink:href="classLogEntryTableModel.html" target="_top" xlink:title=" ">
<polygon fill="white" stroke="#666666" points="274.5,-56 159.5,-56 159.5,-37 274.5,-37 274.5,-56"/>
<text text-anchor="middle" x="217" y="-44" font-family="Helvetica,sans-Serif" font-size="10.00">LogEntryTableModel</text>
</a>
</g>
</g>
<!-- Node0&#45;&gt;Node1 -->
<g id="edge64_Node000000_Node000001" class="edge">
<title>Node0&#45;&gt;Node1</title>
<g id="a_edge64_Node000000_Node000001"><a xlink:title=" ">
<path fill="none" stroke="#63b8ff" d="M130.15,-35.98C139.94,-37.18 149.91,-38.4 159.42,-39.56"/>
<polygon fill="#63b8ff" stroke="#63b8ff" points="130.39,-32.48 120.04,-34.74 129.54,-39.43 130.39,-32.48"/>
</a>
</g>
</g>
<!-- Node4 -->
<g id="Node000004" class="node">
<title>Node4</title>
<g id="a_Node000004"><a xlink:href="classParameterTableModel.html" target="_top" xlink:title=" ">
<polygon fill="white" stroke="#666666" points="278,-19 156,-19 156,0 278,0 278,-19"/>
<text text-anchor="middle" x="217" y="-7" font-family="Helvetica,sans-Serif" font-size="10.00">ParameterTableModel</text>
</a>
</g>
</g>
<!-- Node0&#45;&gt;Node4 -->
<g id="edge67_Node000000_Node000004" class="edge">
<title>Node0&#45;&gt;Node4</title>
<g id="a_edge67_Node000000_Node000004"><a xlink:title=" ">
<path fill="none" stroke="#63b8ff" d="M130.05,-19.48C138.65,-18.48 147.39,-17.47 155.84,-16.49"/>
<polygon fill="#63b8ff" stroke="#63b8ff" points="129.57,-16.01 120.04,-20.64 130.38,-22.97 129.57,-16.01"/>
</a>
</g>
</g>
<!-- Node2 -->
<g id="Node000002" class="node">
<title>Node2</title>
<g id="a_Node000002"><a xlink:href="classLogModel.html" target="_top" xlink:title=" ">
<polygon fill="white" stroke="#666666" points="405.5,-74 341.5,-74 341.5,-55 405.5,-55 405.5,-74"/>
<text text-anchor="middle" x="373.5" y="-62" font-family="Helvetica,sans-Serif" font-size="10.00">LogModel</text>
</a>
</g>
</g>
<!-- Node1&#45;&gt;Node2 -->
<g id="edge65_Node000001_Node000002" class="edge">
<title>Node1&#45;&gt;Node2</title>
<g id="a_edge65_Node000001_Node000002"><a xlink:title=" ">
<path fill="none" stroke="#63b8ff" d="M284.84,-54.29C304.53,-56.58 325.15,-58.98 341.43,-60.88"/>
<polygon fill="#63b8ff" stroke="#63b8ff" points="284.99,-50.78 274.65,-53.1 284.18,-57.73 284.99,-50.78"/>
</a>
</g>
</g>
<!-- Node3 -->
<g id="Node000003" class="node">
<title>Node3</title>
<g id="a_Node000003"><a xlink:href="classLogStoreQueryModel.html" target="_top" xlink:title=" ">
<polygon fill="white" stroke="#666666" points="433,-37 314,-37 314,-18 433,-18 433,-37"/>
<text text-anchor="middle" x="373.5" y="-25" font-family="Helvetica,sans-Serif" font-size="10.00">LogStoreQueryModel</text>
</a>
</g>
</g>
<!-- Node1&#45;&gt;Node3 -->
<g id="edge66_Node000001_Node000003" class="edge">
<title>Node1&#45;&gt;Node3</title>
<g id="a_edge66_Node000001_Node000003"><a xlink:title=" ">
<path fill="none" stroke="#63b8ff" d="M284.65,-38.3C294.34,-37.11 304.26,-35.89 313.78,-34.72"/>
<polygon fill="#63b8ff" stroke="#63b8ff" points="284.15,-34.84 274.65,-39.53 285.01,-41.79 284.15,-34.84"/>
</a>
</g>
</g>
</g>
</svg>
