<?xml version="1.0" encoding="UTF-8" standalone="no"?>
<!DOCTYPE svg PUBLIC "-//W3C//DTD SVG 1.1//EN"
 "http://www.w3.org/Graphics/SVG/1.1/DTD/svg11.dtd">
<!-- Generated by graphviz version 2.43.0 (0)
 -->
<!-- Title: Graphical Class Hierarchy Pages: 1 -->
<svg width="692pt" height="730pt"
 viewBox="0.00 0.00 692.00 730.00" xmlns="http://www.w3.org/2000/svg" xmlns:xlink="http://www.w3.org/1999/xlink">
<g id="graph0" class="graph" transform="scale(1 1) rotate(0) translate(4 726)">
<title>Graphical Class Hierarchy</title>
<!-- Node0 -->
<g id="Node000000" class="node">
<title>Node0</title>
<g id="a_Node000000"><a xlink:title=" ">
<polygon fill="#e0e0e0" stroke="#999999" points="50,-444 0,-444 0,-425 50,-425 50,-444"/>
<text text-anchor="middle" x="25" y="-432" font-family="Helvetica,sans-Serif" font-size="10.00">QState</text>
</a>
</g>
</g>
<!-- Node1 -->
<g id="Node000001" class="node">
<title>Node1</title>
<g id="a_Node000001"><a xlink:href="classQGCAbstractState.html" target="_top" xlink:title=" ">
<polygon fill="white" stroke="#666666" points="190,-444 86,-444 86,-425 190,-425 190,-444"/>
<text text-anchor="middle" x="138" y="-432" font-family="Helvetica,sans-Serif" font-size="10.00">QGCAbstractState</text>
</a>
</g>
</g>
<!-- Node0&#45;&gt;Node1 -->
<g id="edge115_Node000000_Node000001" class="edge">
<title>Node0&#45;&gt;Node1</title>
<g id="a_edge115_Node000000_Node000001"><a xlink:title=" ">
<path fill="none" stroke="#63b8ff" d="M60.19,-434.5C68.24,-434.5 77,-434.5 85.62,-434.5"/>
<polygon fill="#63b8ff" stroke="#63b8ff" points="60.09,-431 50.09,-434.5 60.09,-438 60.09,-431"/>
</a>
</g>
</g>
<!-- Node2 -->
<g id="Node000002" class="node">
<title>Node2</title>
<g id="a_Node000002"><a xlink:href="classQGCState.html" target="_top" xlink:title=" ">
<polygon fill="white" stroke="#666666" points="290,-444 226,-444 226,-425 290,-425 290,-444"/>
<text text-anchor="middle" x="258" y="-432" font-family="Helvetica,sans-Serif" font-size="10.00">QGCState</text>
</a>
</g>
</g>
<!-- Node1&#45;&gt;Node2 -->
<g id="edge116_Node000001_Node000002" class="edge">
<title>Node1&#45;&gt;Node2</title>
<g id="a_edge116_Node000001_Node000002"><a xlink:title=" ">
<path fill="none" stroke="#63b8ff" d="M200.14,-434.5C209.08,-434.5 217.95,-434.5 225.94,-434.5"/>
<polygon fill="#63b8ff" stroke="#63b8ff" points="200.07,-431 190.07,-434.5 200.07,-438 200.07,-431"/>
</a>
</g>
</g>
<!-- Node3 -->
<g id="Node000003" class="node">
<title>Node3</title>
<g id="a_Node000003"><a xlink:href="classCircuitBreakerState.html" target="_top" xlink:title=" ">
<polygon fill="white" stroke="#666666" points="456,-722 345,-722 345,-703 456,-703 456,-722"/>
<text text-anchor="middle" x="400.5" y="-710" font-family="Helvetica,sans-Serif" font-size="10.00">CircuitBreakerState</text>
</a>
</g>
</g>
<!-- Node2&#45;&gt;Node3 -->
<g id="edge117_Node000002_Node000003" class="edge">
<title>Node2&#45;&gt;Node3</title>
<g id="a_edge117_Node000002_Node000003"><a xlink:title=" ">
<path fill="none" stroke="#63b8ff" d="M261.48,-454.38C268.69,-509.13 291.41,-660.32 326,-694.5 331.33,-699.76 337.93,-703.57 344.97,-706.32"/>
<polygon fill="#63b8ff" stroke="#63b8ff" points="264.92,-453.71 260.17,-444.24 257.98,-454.6 264.92,-453.71"/>
</a>
</g>
</g>
<!-- Node4 -->
<g id="Node000004" class="node">
<title>Node4</title>
<g id="a_Node000004"><a xlink:href="classConditionalState.html" target="_top" xlink:title=" ">
<polygon fill="white" stroke="#666666" points="449.5,-685 351.5,-685 351.5,-666 449.5,-666 449.5,-685"/>
<text text-anchor="middle" x="400.5" y="-673" font-family="Helvetica,sans-Serif" font-size="10.00">ConditionalState</text>
</a>
</g>
</g>
<!-- Node2&#45;&gt;Node4 -->
<g id="edge118_Node000002_Node000004" class="edge">
<title>Node2&#45;&gt;Node4</title>
<g id="a_edge118_Node000002_Node000004"><a xlink:title=" ">
<path fill="none" stroke="#63b8ff" d="M258.81,-454.37C259.52,-497.87 267.61,-602.05 326,-657.5 332.95,-664.1 341.92,-668.41 351.18,-671.18"/>
<polygon fill="#63b8ff" stroke="#63b8ff" points="262.31,-454.23 258.76,-444.24 255.31,-454.26 262.31,-454.23"/>
</a>
</g>
</g>
<!-- Node5 -->
<g id="Node000005" class="node">
<title>Node5</title>
<g id="a_Node000005"><a xlink:href="classDelayState.html" target="_top" xlink:title="Delays that state machine for the specified time in milliseconds.">
<polygon fill="white" stroke="#666666" points="436,-648 365,-648 365,-629 436,-629 436,-648"/>
<text text-anchor="middle" x="400.5" y="-636" font-family="Helvetica,sans-Serif" font-size="10.00">DelayState</text>
</a>
</g>
</g>
<!-- Node2&#45;&gt;Node5 -->
<g id="edge119_Node000002_Node000005" class="edge">
<title>Node2&#45;&gt;Node5</title>
<g id="a_edge119_Node000002_Node000005"><a xlink:title=" ">
<path fill="none" stroke="#63b8ff" d="M260.23,-454.68C263.68,-492.95 276.74,-576.19 326,-620.5 336.55,-629.99 351.28,-634.68 364.78,-636.92"/>
<polygon fill="#63b8ff" stroke="#63b8ff" points="263.69,-454.05 259.44,-444.34 256.71,-454.58 263.69,-454.05"/>
</a>
</g>
</g>
<!-- Node6 -->
<g id="Node000006" class="node">
<title>Node6</title>
<g id="a_Node000006"><a xlink:href="classErrorRecoveryState.html" target="_top" xlink:title="The state created by ErrorRecoveryBuilder.">
<polygon fill="white" stroke="#666666" points="456,-611 345,-611 345,-592 456,-592 456,-611"/>
<text text-anchor="middle" x="400.5" y="-599" font-family="Helvetica,sans-Serif" font-size="10.00">ErrorRecoveryState</text>
</a>
</g>
</g>
<!-- Node2&#45;&gt;Node6 -->
<g id="edge120_Node000002_Node000006" class="edge">
<title>Node2&#45;&gt;Node6</title>
<g id="a_edge120_Node000002_Node000006"><a xlink:title=" ">
<path fill="none" stroke="#63b8ff" d="M262.19,-454.23C268.45,-486.34 285.44,-549.74 326,-583.5 331.55,-588.12 338.11,-591.59 344.99,-594.18"/>
<polygon fill="#63b8ff" stroke="#63b8ff" points="265.61,-453.49 260.4,-444.27 258.72,-454.73 265.61,-453.49"/>
</a>
</g>
</g>
<!-- Node7 -->
<g id="Node000007" class="node">
<title>Node7</title>
<g id="a_Node000007"><a xlink:href="classFallbackChainState.html" target="_top" xlink:title=" ">
<polygon fill="white" stroke="#666666" points="455.5,-574 345.5,-574 345.5,-555 455.5,-555 455.5,-574"/>
<text text-anchor="middle" x="400.5" y="-562" font-family="Helvetica,sans-Serif" font-size="10.00">FallbackChainState</text>
</a>
</g>
</g>
<!-- Node2&#45;&gt;Node7 -->
<g id="edge121_Node000002_Node000007" class="edge">
<title>Node2&#45;&gt;Node7</title>
<g id="a_edge121_Node000002_Node000007"><a xlink:title=" ">
<path fill="none" stroke="#63b8ff" d="M265.16,-453.59C274.31,-478.82 293.94,-522.83 326,-546.5 331.81,-550.79 338.52,-554.07 345.47,-556.57"/>
<polygon fill="#63b8ff" stroke="#63b8ff" points="268.44,-452.36 261.88,-444.04 261.82,-454.64 268.44,-452.36"/>
</a>
</g>
</g>
<!-- Node8 -->
<g id="Node000008" class="node">
<title>Node8</title>
<g id="a_Node000008"><a xlink:href="classFunctionState.html" target="_top" xlink:title=" ">
<polygon fill="white" stroke="#666666" points="442,-537 359,-537 359,-518 442,-518 442,-537"/>
<text text-anchor="middle" x="400.5" y="-525" font-family="Helvetica,sans-Serif" font-size="10.00">FunctionState</text>
</a>
</g>
</g>
<!-- Node2&#45;&gt;Node8 -->
<g id="edge122_Node000002_Node000008" class="edge">
<title>Node2&#45;&gt;Node8</title>
<g id="a_edge122_Node000002_Node000008"><a xlink:title=" ">
<path fill="none" stroke="#63b8ff" d="M270.59,-452.88C282.43,-470.13 302.38,-495.31 326,-509.5 335.91,-515.45 347.69,-519.44 358.89,-522.11"/>
<polygon fill="#63b8ff" stroke="#63b8ff" points="273.31,-450.66 264.88,-444.24 267.47,-454.52 273.31,-450.66"/>
</a>
</g>
</g>
<!-- Node9 -->
<g id="Node000009" class="node">
<title>Node9</title>
<g id="a_Node000009"><a xlink:href="classLoopState.html" target="_top" xlink:title=" ">
<polygon fill="white" stroke="#666666" points="447.5,-500 353.5,-500 353.5,-481 447.5,-481 447.5,-500"/>
<text text-anchor="middle" x="400.5" y="-488" font-family="Helvetica,sans-Serif" font-size="10.00">LoopState&lt; T &gt;</text>
</a>
</g>
</g>
<!-- Node2&#45;&gt;Node9 -->
<g id="edge123_Node000002_Node000009" class="edge">
<title>Node2&#45;&gt;Node9</title>
<g id="a_edge123_Node000002_Node000009"><a xlink:title=" ">
<path fill="none" stroke="#63b8ff" d="M281.56,-449.37C294.2,-457.17 310.5,-466.34 326,-472.5 334.67,-475.94 344.18,-478.86 353.41,-481.28"/>
<polygon fill="#63b8ff" stroke="#63b8ff" points="283.39,-446.39 273.06,-444 279.65,-452.31 283.39,-446.39"/>
</a>
</g>
</g>
<!-- Node10 -->
<g id="Node000010" class="node">
<title>Node10</title>
<g id="a_Node000010"><a xlink:href="classParallelState.html" target="_top" xlink:title=" ">
<polygon fill="white" stroke="#666666" points="439.5,-463 361.5,-463 361.5,-444 439.5,-444 439.5,-463"/>
<text text-anchor="middle" x="400.5" y="-451" font-family="Helvetica,sans-Serif" font-size="10.00">ParallelState</text>
</a>
</g>
</g>
<!-- Node2&#45;&gt;Node10 -->
<g id="edge124_Node000002_Node000010" class="edge">
<title>Node2&#45;&gt;Node10</title>
<g id="a_edge124_Node000002_Node000010"><a xlink:title=" ">
<path fill="none" stroke="#63b8ff" d="M300.22,-440.07C319.56,-442.69 342.47,-445.79 361.4,-448.35"/>
<polygon fill="#63b8ff" stroke="#63b8ff" points="300.56,-436.59 290.18,-438.72 299.62,-443.53 300.56,-436.59"/>
</a>
</g>
</g>
<!-- Node11 -->
<g id="Node000011" class="node">
<title>Node11</title>
<g id="a_Node000011"><a xlink:href="classProgressState.html" target="_top" xlink:title=" ">
<polygon fill="white" stroke="#666666" points="442.5,-426 358.5,-426 358.5,-407 442.5,-407 442.5,-426"/>
<text text-anchor="middle" x="400.5" y="-414" font-family="Helvetica,sans-Serif" font-size="10.00">ProgressState</text>
</a>
</g>
</g>
<!-- Node2&#45;&gt;Node11 -->
<g id="edge125_Node000002_Node000011" class="edge">
<title>Node2&#45;&gt;Node11</title>
<g id="a_edge125_Node000002_Node000011"><a xlink:title=" ">
<path fill="none" stroke="#63b8ff" d="M300.25,-429.22C318.53,-426.87 339.99,-424.12 358.27,-421.78"/>
<polygon fill="#63b8ff" stroke="#63b8ff" points="299.66,-425.76 290.18,-430.51 300.55,-432.71 299.66,-425.76"/>
</a>
</g>
</g>
<!-- Node12 -->
<g id="Node000012" class="node">
<title>Node12</title>
<g id="a_Node000012"><a xlink:href="classRetryState.html" target="_top" xlink:title=" ">
<polygon fill="white" stroke="#666666" points="434.5,-389 366.5,-389 366.5,-370 434.5,-370 434.5,-389"/>
<text text-anchor="middle" x="400.5" y="-377" font-family="Helvetica,sans-Serif" font-size="10.00">RetryState</text>
</a>
</g>
</g>
<!-- Node2&#45;&gt;Node12 -->
<g id="edge126_Node000002_Node000012" class="edge">
<title>Node2&#45;&gt;Node12</title>
<g id="a_edge126_Node000002_Node000012"><a xlink:title=" ">
<path fill="none" stroke="#63b8ff" d="M283.04,-419.76C295.51,-412.59 311.2,-404.29 326,-398.5 338.89,-393.46 353.57,-389.35 366.4,-386.27"/>
<polygon fill="#63b8ff" stroke="#63b8ff" points="281.04,-416.88 274.2,-424.97 284.59,-422.91 281.04,-416.88"/>
</a>
</g>
</g>
<!-- Node13 -->
<g id="Node000013" class="node">
<title>Node13</title>
<g id="a_Node000013"><a xlink:href="classRollbackState.html" target="_top" xlink:title=" ">
<polygon fill="white" stroke="#666666" points="442.5,-352 358.5,-352 358.5,-333 442.5,-333 442.5,-352"/>
<text text-anchor="middle" x="400.5" y="-340" font-family="Helvetica,sans-Serif" font-size="10.00">RollbackState</text>
</a>
</g>
</g>
<!-- Node2&#45;&gt;Node13 -->
<g id="edge127_Node000002_Node000013" class="edge">
<title>Node2&#45;&gt;Node13</title>
<g id="a_edge127_Node000002_Node000013"><a xlink:title=" ">
<path fill="none" stroke="#63b8ff" d="M270.94,-416.41C282.91,-399.69 302.85,-375.39 326,-361.5 335.72,-355.67 347.2,-351.61 358.17,-348.79"/>
<polygon fill="#63b8ff" stroke="#63b8ff" points="267.94,-414.59 265.14,-424.8 273.7,-418.57 267.94,-414.59"/>
</a>
</g>
</g>
<!-- Node14 -->
<g id="Node000014" class="node">
<title>Node14</title>
<g id="a_Node000014"><a xlink:href="classSendMavlinkMessageState.html" target="_top" xlink:title="Sends the specified MAVLink message to the vehicle.">
<polygon fill="white" stroke="#666666" points="475,-315 326,-315 326,-296 475,-296 475,-315"/>
<text text-anchor="middle" x="400.5" y="-303" font-family="Helvetica,sans-Serif" font-size="10.00">SendMavlinkMessageState</text>
</a>
</g>
</g>
<!-- Node2&#45;&gt;Node14 -->
<g id="edge128_Node000002_Node000014" class="edge">
<title>Node2&#45;&gt;Node14</title>
<g id="a_edge128_Node000002_Node000014"><a xlink:title=" ">
<path fill="none" stroke="#63b8ff" d="M265.57,-415.1C274.98,-390.28 294.71,-347.71 326,-324.5 331.19,-320.65 337.08,-317.58 343.22,-315.13"/>
<polygon fill="#63b8ff" stroke="#63b8ff" points="262.15,-414.24 262.06,-424.84 268.74,-416.61 262.15,-414.24"/>
</a>
</g>
</g>
<!-- Node15 -->
<g id="Node000015" class="node">
<title>Node15</title>
<g id="a_Node000015"><a xlink:href="classSequenceState.html" target="_top" xlink:title=" ">
<polygon fill="white" stroke="#666666" points="445,-278 356,-278 356,-259 445,-259 445,-278"/>
<text text-anchor="middle" x="400.5" y="-266" font-family="Helvetica,sans-Serif" font-size="10.00">SequenceState</text>
</a>
</g>
</g>
<!-- Node2&#45;&gt;Node15 -->
<g id="edge129_Node000002_Node000015" class="edge">
<title>Node2&#45;&gt;Node15</title>
<g id="a_edge129_Node000002_Node000015"><a xlink:title=" ">
<path fill="none" stroke="#63b8ff" d="M262.4,-414.67C268.92,-382.93 286.2,-320.89 326,-287.5 334.38,-280.47 345.05,-276 355.65,-273.17"/>
<polygon fill="#63b8ff" stroke="#63b8ff" points="258.89,-414.41 260.47,-424.89 265.77,-415.71 258.89,-414.41"/>
</a>
</g>
</g>
<!-- Node16 -->
<g id="Node000016" class="node">
<title>Node16</title>
<g id="a_Node000016"><a xlink:href="classShowAppMessageState.html" target="_top" xlink:title="Display an application message to the user.">
<polygon fill="white" stroke="#666666" points="466,-241 335,-241 335,-222 466,-222 466,-241"/>
<text text-anchor="middle" x="400.5" y="-229" font-family="Helvetica,sans-Serif" font-size="10.00">ShowAppMessageState</text>
</a>
</g>
</g>
<!-- Node2&#45;&gt;Node16 -->
<g id="edge130_Node000002_Node000016" class="edge">
<title>Node2&#45;&gt;Node16</title>
<g id="a_edge130_Node000002_Node000016"><a xlink:title=" ">
<path fill="none" stroke="#63b8ff" d="M260.35,-414.59C264.01,-376.82 277.42,-294.62 326,-250.5 330.2,-246.69 335.06,-243.62 340.24,-241.16"/>
<polygon fill="#63b8ff" stroke="#63b8ff" points="256.84,-414.53 259.5,-424.79 263.82,-415.12 256.84,-414.53"/>
</a>
</g>
</g>
<!-- Node17 -->
<g id="Node000017" class="node">
<title>Node17</title>
<g id="a_Node000017"><a xlink:href="classSubMachineState.html" target="_top" xlink:title=" ">
<polygon fill="white" stroke="#666666" points="451,-204 350,-204 350,-185 451,-185 451,-204"/>
<text text-anchor="middle" x="400.5" y="-192" font-family="Helvetica,sans-Serif" font-size="10.00">SubMachineState</text>
</a>
</g>
</g>
<!-- Node2&#45;&gt;Node17 -->
<g id="edge131_Node000002_Node000017" class="edge">
<title>Node2&#45;&gt;Node17</title>
<g id="a_edge131_Node000002_Node000017"><a xlink:title=" ">
<path fill="none" stroke="#63b8ff" d="M258.92,-414.85C259.86,-371.85 268.37,-268.79 326,-213.5 332.56,-207.2 340.93,-202.92 349.64,-200.02"/>
<polygon fill="#63b8ff" stroke="#63b8ff" points="255.42,-414.83 258.82,-424.87 262.42,-414.9 255.42,-414.83"/>
</a>
</g>
</g>
<!-- Node18 -->
<g id="Node000018" class="node">
<title>Node18</title>
<g id="a_Node000018"><a xlink:href="classWaitStateBase.html" target="_top" xlink:title=" ">
<polygon fill="white" stroke="#666666" points="444.5,-167 356.5,-167 356.5,-148 444.5,-148 444.5,-167"/>
<text text-anchor="middle" x="400.5" y="-155" font-family="Helvetica,sans-Serif" font-size="10.00">WaitStateBase</text>
</a>
</g>
</g>
<!-- Node2&#45;&gt;Node18 -->
<g id="edge132_Node000002_Node000018" class="edge">
<title>Node2&#45;&gt;Node18</title>
<g id="a_edge132_Node000002_Node000018"><a xlink:title=" ">
<path fill="none" stroke="#63b8ff" d="M261.52,-414.79C268.86,-360.52 291.84,-210.62 326,-176.5 334.11,-168.4 345.2,-163.61 356.3,-160.81"/>
<polygon fill="#63b8ff" stroke="#63b8ff" points="258.03,-414.48 260.2,-424.85 264.97,-415.39 258.03,-414.48"/>
</a>
</g>
</g>
<!-- Node19 -->
<g id="Node000019" class="node">
<title>Node19</title>
<g id="a_Node000019"><a xlink:href="classAsyncFunctionState.html" target="_top" xlink:title=" ">
<polygon fill="white" stroke="#666666" points="654,-315 541,-315 541,-296 654,-296 654,-315"/>
<text text-anchor="middle" x="597.5" y="-303" font-family="Helvetica,sans-Serif" font-size="10.00">AsyncFunctionState</text>
</a>
</g>
</g>
<!-- Node18&#45;&gt;Node19 -->
<g id="edge133_Node000018_Node000019" class="edge">
<title>Node18&#45;&gt;Node19</title>
<g id="a_edge133_Node000018_Node000019"><a xlink:title=" ">
<path fill="none" stroke="#63b8ff" d="M454.48,-164.26C462.03,-167.1 469.2,-171.04 475,-176.5 512.77,-212.04 472.43,-252.82 511,-287.5 519.35,-295.01 530.01,-299.68 540.96,-302.52"/>
<polygon fill="#63b8ff" stroke="#63b8ff" points="455.36,-160.87 444.77,-161.23 453.27,-167.55 455.36,-160.87"/>
</a>
</g>
</g>
<!-- Node20 -->
<g id="Node000020" class="node">
<title>Node20</title>
<g id="a_Node000020"><a xlink:href="classEventQueuedState.html" target="_top" xlink:title=" ">
<polygon fill="white" stroke="#666666" points="651,-278 544,-278 544,-259 651,-259 651,-278"/>
<text text-anchor="middle" x="597.5" y="-266" font-family="Helvetica,sans-Serif" font-size="10.00">EventQueuedState</text>
</a>
</g>
</g>
<!-- Node18&#45;&gt;Node20 -->
<g id="edge134_Node000018_Node000020" class="edge">
<title>Node18&#45;&gt;Node20</title>
<g id="a_edge134_Node000018_Node000020"><a xlink:title=" ">
<path fill="none" stroke="#63b8ff" d="M454.87,-165.37C462.13,-168.07 469.11,-171.68 475,-176.5 503.31,-199.65 482.17,-228 511,-250.5 520.45,-257.87 532.21,-262.41 543.95,-265.16"/>
<polygon fill="#63b8ff" stroke="#63b8ff" points="455.44,-161.88 444.85,-162.21 453.34,-168.55 455.44,-161.88"/>
</a>
</g>
</g>
<!-- Node21 -->
<g id="Node000021" class="node">
<title>Node21</title>
<g id="a_Node000021"><a xlink:href="classRequestMessageState.html" target="_top" xlink:title=" ">
<polygon fill="white" stroke="#666666" points="660,-241 535,-241 535,-222 660,-222 660,-241"/>
<text text-anchor="middle" x="597.5" y="-229" font-family="Helvetica,sans-Serif" font-size="10.00">RequestMessageState</text>
</a>
</g>
</g>
<!-- Node18&#45;&gt;Node21 -->
<g id="edge135_Node000018_Node000021" class="edge">
<title>Node18&#45;&gt;Node21</title>
<g id="a_edge135_Node000018_Node000021"><a xlink:title=" ">
<path fill="none" stroke="#63b8ff" d="M454.42,-167.43C461.59,-169.83 468.65,-172.81 475,-176.5 494.84,-188.02 490.9,-202.43 511,-213.5 518.31,-217.52 526.42,-220.65 534.66,-223.08"/>
<polygon fill="#63b8ff" stroke="#63b8ff" points="455.22,-164.01 444.64,-164.48 453.21,-170.71 455.22,-164.01"/>
</a>
</g>
</g>
<!-- Node22 -->
<g id="Node000022" class="node">
<title>Node22</title>
<g id="a_Node000022"><a xlink:href="classRetryableRequestMessageState.html" target="_top" xlink:title=" ">
<polygon fill="white" stroke="#666666" points="684,-204 511,-204 511,-185 684,-185 684,-204"/>
<text text-anchor="middle" x="597.5" y="-192" font-family="Helvetica,sans-Serif" font-size="10.00">RetryableRequestMessageState</text>
</a>
</g>
</g>
<!-- Node18&#45;&gt;Node22 -->
<g id="edge136_Node000018_Node000022" class="edge">
<title>Node18&#45;&gt;Node22</title>
<g id="a_edge136_Node000018_Node000022"><a xlink:title=" ">
<path fill="none" stroke="#63b8ff" d="M454.94,-167.64C483.38,-173.04 518.14,-179.63 546.1,-184.94"/>
<polygon fill="#63b8ff" stroke="#63b8ff" points="455.25,-164.14 444.78,-165.71 453.95,-171.01 455.25,-164.14"/>
</a>
</g>
</g>
<!-- Node23 -->
<g id="Node000023" class="node">
<title>Node23</title>
<g id="a_Node000023"><a xlink:href="classSendMavlinkCommandState.html" target="_top" xlink:title="Sends the specified MAVLink command to the vehicle and waits for the result.">
<polygon fill="white" stroke="#666666" points="675,-167 520,-167 520,-148 675,-148 675,-167"/>
<text text-anchor="middle" x="597.5" y="-155" font-family="Helvetica,sans-Serif" font-size="10.00">SendMavlinkCommandState</text>
</a>
</g>
</g>
<!-- Node18&#45;&gt;Node23 -->
<g id="edge137_Node000018_Node000023" class="edge">
<title>Node18&#45;&gt;Node23</title>
<g id="a_edge137_Node000018_Node000023"><a xlink:title=" ">
<path fill="none" stroke="#63b8ff" d="M454.96,-157.5C475.02,-157.5 498.23,-157.5 519.98,-157.5"/>
<polygon fill="#63b8ff" stroke="#63b8ff" points="454.78,-154 444.78,-157.5 454.78,-161 454.78,-154"/>
</a>
</g>
</g>
<!-- Node24 -->
<g id="Node000024" class="node">
<title>Node24</title>
<g id="a_Node000024"><a xlink:href="classSkippableAsyncState.html" target="_top" xlink:title=" ">
<polygon fill="white" stroke="#666666" points="657,-130 538,-130 538,-111 657,-111 657,-130"/>
<text text-anchor="middle" x="597.5" y="-118" font-family="Helvetica,sans-Serif" font-size="10.00">SkippableAsyncState</text>
</a>
</g>
</g>
<!-- Node18&#45;&gt;Node24 -->
<g id="edge138_Node000018_Node000024" class="edge">
<title>Node18&#45;&gt;Node24</title>
<g id="a_edge138_Node000018_Node000024"><a xlink:title=" ">
<path fill="none" stroke="#63b8ff" d="M454.94,-147.36C483.38,-141.96 518.14,-135.37 546.1,-130.06"/>
<polygon fill="#63b8ff" stroke="#63b8ff" points="453.95,-143.99 444.78,-149.29 455.25,-150.86 453.95,-143.99"/>
</a>
</g>
</g>
<!-- Node25 -->
<g id="Node000025" class="node">
<title>Node25</title>
<g id="a_Node000025"><a xlink:href="classWaitForMavlinkMessageState.html" target="_top" xlink:title=" ">
<polygon fill="white" stroke="#666666" points="678,-93 517,-93 517,-74 678,-74 678,-93"/>
<text text-anchor="middle" x="597.5" y="-81" font-family="Helvetica,sans-Serif" font-size="10.00">WaitForMavlinkMessageState</text>
</a>
</g>
</g>
<!-- Node18&#45;&gt;Node25 -->
<g id="edge139_Node000018_Node000025" class="edge">
<title>Node18&#45;&gt;Node25</title>
<g id="a_edge139_Node000018_Node000025"><a xlink:title=" ">
<path fill="none" stroke="#63b8ff" d="M426.51,-142.7C448.21,-130.41 480.8,-113.25 511,-102.5 521.46,-98.78 532.9,-95.63 543.92,-93.04"/>
<polygon fill="#63b8ff" stroke="#63b8ff" points="424.56,-139.78 417.63,-147.8 428.05,-145.85 424.56,-139.78"/>
</a>
</g>
</g>
<!-- Node26 -->
<g id="Node000026" class="node">
<title>Node26</title>
<g id="a_Node000026"><a xlink:href="classWaitForParamResponseState.html" target="_top" xlink:title=" ">
<polygon fill="white" stroke="#666666" points="676,-56 519,-56 519,-37 676,-37 676,-56"/>
<text text-anchor="middle" x="597.5" y="-44" font-family="Helvetica,sans-Serif" font-size="10.00">WaitForParamResponseState</text>
</a>
</g>
</g>
<!-- Node18&#45;&gt;Node26 -->
<g id="edge140_Node000018_Node000026" class="edge">
<title>Node18&#45;&gt;Node26</title>
<g id="a_edge140_Node000018_Node000026"><a xlink:title=" ">
<path fill="none" stroke="#63b8ff" d="M416.71,-140.45C436.38,-119.5 472.68,-84.43 511,-65.5 518.91,-61.59 527.62,-58.48 536.37,-56.01"/>
<polygon fill="#63b8ff" stroke="#63b8ff" points="413.99,-138.24 409.79,-147.97 419.14,-142.98 413.99,-138.24"/>
</a>
</g>
</g>
<!-- Node27 -->
<g id="Node000027" class="node">
<title>Node27</title>
<g id="a_Node000027"><a xlink:href="classWaitForSignalState.html" target="_top" xlink:title=" ">
<polygon fill="white" stroke="#666666" points="652,-19 543,-19 543,0 652,0 652,-19"/>
<text text-anchor="middle" x="597.5" y="-7" font-family="Helvetica,sans-Serif" font-size="10.00">WaitForSignalState</text>
</a>
</g>
</g>
<!-- Node18&#45;&gt;Node27 -->
<g id="edge141_Node000018_Node000027" class="edge">
<title>Node18&#45;&gt;Node27</title>
<g id="a_edge141_Node000018_Node000027"><a xlink:title=" ">
<path fill="none" stroke="#63b8ff" d="M411.8,-138.96C428.64,-110.48 464.87,-56.33 511,-28.5 520.63,-22.69 531.84,-18.65 542.91,-15.84"/>
<polygon fill="#63b8ff" stroke="#63b8ff" points="408.62,-137.47 406.67,-147.88 414.69,-140.96 408.62,-137.47"/>
</a>
</g>
</g>
</g>
</svg>
