<?xml version="1.0" encoding="UTF-8" standalone="no"?>
<!DOCTYPE svg PUBLIC "-//W3C//DTD SVG 1.1//EN"
 "http://www.w3.org/Graphics/SVG/1.1/DTD/svg11.dtd">
<!-- Generated by graphviz version 2.43.0 (0)
 -->
<!-- Title: src/Vehicle/InitialConnectStateMachine.h Pages: 1 -->
<svg width="288pt" height="104pt"
 viewBox="0.00 0.00 287.50 104.00" xmlns="http://www.w3.org/2000/svg" xmlns:xlink="http://www.w3.org/1999/xlink">
<g id="graph0" class="graph" transform="scale(1 1) rotate(0) translate(4 100)">
<title>src/Vehicle/InitialConnectStateMachine.h</title>
<!-- Node1 -->
<g id="Node000001" class="node">
<title>Node1</title>
<g id="a_Node000001"><a xlink:title=" ">
<polygon fill="#999999" stroke="#666666" points="214,-96 74,-96 74,-66 214,-66 214,-96"/>
<text text-anchor="start" x="82" y="-84" font-family="Helvetica,sans-Serif" font-size="10.00">src/Vehicle/InitialConnect</text>
<text text-anchor="middle" x="144" y="-73" font-family="Helvetica,sans-Serif" font-size="10.00">StateMachine.h</text>
</a>
</g>
</g>
<!-- Node2 -->
<g id="Node000002" class="node">
<title>Node2</title>
<g id="a_Node000002"><a xlink:href="InitialConnectStateMachine_8cc.html" target="_top" xlink:title=" ">
<polygon fill="white" stroke="#666666" points="140,-30 0,-30 0,0 140,0 140,-30"/>
<text text-anchor="start" x="8" y="-18" font-family="Helvetica,sans-Serif" font-size="10.00">src/Vehicle/InitialConnect</text>
<text text-anchor="middle" x="70" y="-7" font-family="Helvetica,sans-Serif" font-size="10.00">StateMachine.cc</text>
</a>
</g>
</g>
<!-- Node1&#45;&gt;Node2 -->
<g id="edge1_Node000001_Node000002" class="edge">
<title>Node1&#45;&gt;Node2</title>
<g id="a_edge1_Node000001_Node000002"><a xlink:title=" ">
<path fill="none" stroke="#63b8ff" d="M119.95,-59.2C108.97,-49.7 96.24,-38.69 86.38,-30.16"/>
<polygon fill="#63b8ff" stroke="#63b8ff" points="117.72,-61.9 127.58,-65.8 122.3,-56.61 117.72,-61.9"/>
</a>
</g>
</g>
<!-- Node3 -->
<g id="Node000003" class="node">
<title>Node3</title>
<g id="a_Node000003"><a xlink:href="Vehicle_8cc.html" target="_top" xlink:title=" ">
<polygon fill="white" stroke="#666666" points="279.5,-24.5 158.5,-24.5 158.5,-5.5 279.5,-5.5 279.5,-24.5"/>
<text text-anchor="middle" x="219" y="-12.5" font-family="Helvetica,sans-Serif" font-size="10.00">src/Vehicle/Vehicle.cc</text>
</a>
</g>
</g>
<!-- Node1&#45;&gt;Node3 -->
<g id="edge2_Node000001_Node000003" class="edge">
<title>Node1&#45;&gt;Node3</title>
<g id="a_edge2_Node000001_Node000003"><a xlink:title=" ">
<path fill="none" stroke="#63b8ff" d="M168.31,-59.26C181.95,-47.61 198.27,-33.69 208.64,-24.84"/>
<polygon fill="#63b8ff" stroke="#63b8ff" points="165.98,-56.64 160.64,-65.8 170.52,-61.97 165.98,-56.64"/>
</a>
</g>
</g>
</g>
</svg>
