<?xml version="1.0" encoding="UTF-8" standalone="no"?>
<!DOCTYPE svg PUBLIC "-//W3C//DTD SVG 1.1//EN"
 "http://www.w3.org/Graphics/SVG/1.1/DTD/svg11.dtd">
<!-- Generated by graphviz version 2.43.0 (0)
 -->
<!-- Title: src/Joystick/JoystickSDL.h Pages: 1 -->
<svg width="1683pt" height="478pt"
 viewBox="0.00 0.00 1682.50 478.00" xmlns="http://www.w3.org/2000/svg" xmlns:xlink="http://www.w3.org/1999/xlink">
<g id="graph0" class="graph" transform="scale(1 1) rotate(0) translate(4 474)">
<title>src/Joystick/JoystickSDL.h</title>
<!-- Node1 -->
<g id="Node000001" class="node">
<title>Node1</title>
<g id="a_Node000001"><a xlink:title=" ">
<polygon fill="#999999" stroke="#666666" points="685,-470 544,-470 544,-451 685,-451 685,-470"/>
<text text-anchor="middle" x="614.5" y="-458" font-family="Helvetica,sans-Serif" font-size="10.00">src/Joystick/JoystickSDL.h</text>
</a>
</g>
</g>
<!-- Node2 -->
<g id="Node000002" class="node">
<title>Node2</title>
<g id="a_Node000002"><a xlink:title=" ">
<polygon fill="#e0e0e0" stroke="#999999" points="586.5,-415 536.5,-415 536.5,-396 586.5,-396 586.5,-415"/>
<text text-anchor="middle" x="561.5" y="-403" font-family="Helvetica,sans-Serif" font-size="10.00">atomic</text>
</a>
</g>
</g>
<!-- Node1&#45;&gt;Node2 -->
<g id="edge1_Node000001_Node000002" class="edge">
<title>Node1&#45;&gt;Node2</title>
<g id="a_edge1_Node000001_Node000002"><a xlink:title=" ">
<path fill="none" stroke="#63b8ff" d="M605.75,-450.75C598.03,-443.03 586.6,-431.6 577.28,-422.28"/>
<polygon fill="#63b8ff" stroke="#63b8ff" points="579.64,-419.69 570.09,-415.09 574.69,-424.64 579.64,-419.69"/>
</a>
</g>
</g>
<!-- Node3 -->
<g id="Node000003" class="node">
<title>Node3</title>
<g id="a_Node000003"><a xlink:title=" ">
<polygon fill="#e0e0e0" stroke="#999999" points="575,-360 476,-360 476,-341 575,-341 575,-360"/>
<text text-anchor="middle" x="525.5" y="-348" font-family="Helvetica,sans-Serif" font-size="10.00">QtGui/QVector3D</text>
</a>
</g>
</g>
<!-- Node1&#45;&gt;Node3 -->
<g id="edge2_Node000001_Node000003" class="edge">
<title>Node1&#45;&gt;Node3</title>
<g id="a_edge2_Node000001_Node000003"><a xlink:title=" ">
<path fill="none" stroke="#63b8ff" d="M613.82,-450.84C612.41,-437.75 608.13,-412.7 595.5,-396 585.34,-382.56 569.84,-372.11 556.01,-364.73"/>
<polygon fill="#63b8ff" stroke="#63b8ff" points="557.3,-361.46 546.79,-360.1 554.16,-367.71 557.3,-361.46"/>
</a>
</g>
</g>
<!-- Node4 -->
<g id="Node000004" class="node">
<title>Node4</title>
<g id="a_Node000004"><a xlink:href="Joystick_8h.html" target="_top" xlink:title=" ">
<polygon fill="white" stroke="#666666" points="795.5,-415 731.5,-415 731.5,-396 795.5,-396 795.5,-415"/>
<text text-anchor="middle" x="763.5" y="-403" font-family="Helvetica,sans-Serif" font-size="10.00">Joystick.h</text>
</a>
</g>
</g>
<!-- Node1&#45;&gt;Node4 -->
<g id="edge3_Node000001_Node000004" class="edge">
<title>Node1&#45;&gt;Node4</title>
<g id="a_edge3_Node000001_Node000004"><a xlink:title=" ">
<path fill="none" stroke="#63b8ff" d="M638.44,-450.98C663.06,-442.23 701.62,-428.51 729.42,-418.62"/>
<polygon fill="#63b8ff" stroke="#63b8ff" points="730.88,-421.82 739.12,-415.17 728.53,-415.22 730.88,-421.82"/>
</a>
</g>
</g>
<!-- Node4&#45;&gt;Node3 -->
<g id="edge18_Node000004_Node000003" class="edge">
<title>Node4&#45;&gt;Node3</title>
<g id="a_edge18_Node000004_Node000003"><a xlink:title=" ">
<path fill="none" stroke="#63b8ff" d="M731.4,-397.35C690.86,-388.32 620.72,-372.7 573.72,-362.24"/>
<polygon fill="#63b8ff" stroke="#63b8ff" points="574.29,-358.78 563.77,-360.02 572.77,-365.61 574.29,-358.78"/>
</a>
</g>
</g>
<!-- Node5 -->
<g id="Node000005" class="node">
<title>Node5</title>
<g id="a_Node000005"><a xlink:href="QGCMAVLink_8h.html" target="_top" xlink:title=" ">
<polygon fill="white" stroke="#666666" points="1336,-129 1247,-129 1247,-110 1336,-110 1336,-129"/>
<text text-anchor="middle" x="1291.5" y="-117" font-family="Helvetica,sans-Serif" font-size="10.00">QGCMAVLink.h</text>
</a>
</g>
</g>
<!-- Node4&#45;&gt;Node5 -->
<g id="edge4_Node000004_Node000005" class="edge">
<title>Node4&#45;&gt;Node5</title>
<g id="a_edge4_Node000004_Node000005"><a xlink:title=" ">
<path fill="none" stroke="#63b8ff" d="M795.69,-402.78C855.67,-397.67 978.5,-377.33 978.5,-296.5 978.5,-296.5 978.5,-296.5 978.5,-239.5 978.5,-184.85 1147.31,-146.29 1236.99,-129.66"/>
<polygon fill="#63b8ff" stroke="#63b8ff" points="1237.78,-133.07 1246.99,-127.84 1236.52,-126.19 1237.78,-133.07"/>
</a>
</g>
</g>
<!-- Node7 -->
<g id="Node000007" class="node">
<title>Node7</title>
<g id="a_Node000007"><a xlink:title=" ">
<polygon fill="#e0e0e0" stroke="#999999" points="688.5,-74 596.5,-74 596.5,-55 688.5,-55 688.5,-74"/>
<text text-anchor="middle" x="642.5" y="-62" font-family="Helvetica,sans-Serif" font-size="10.00">QtCore/QObject</text>
</a>
</g>
</g>
<!-- Node4&#45;&gt;Node7 -->
<g id="edge15_Node000004_Node000007" class="edge">
<title>Node4&#45;&gt;Node7</title>
<g id="a_edge15_Node000004_Node000007"><a xlink:title=" ">
<path fill="none" stroke="#63b8ff" d="M758.22,-395.9C747.77,-378.07 725.5,-335.46 725.5,-296.5 725.5,-296.5 725.5,-296.5 725.5,-239.5 725.5,-176.41 680.5,-111.89 656.77,-82.25"/>
<polygon fill="#63b8ff" stroke="#63b8ff" points="659.21,-79.72 650.16,-74.22 653.81,-84.16 659.21,-79.72"/>
</a>
</g>
</g>
<!-- Node9 -->
<g id="Node000009" class="node">
<title>Node9</title>
<g id="a_Node000009"><a xlink:title=" ">
<polygon fill="#e0e0e0" stroke="#999999" points="896,-74 707,-74 707,-55 896,-55 896,-74"/>
<text text-anchor="middle" x="801.5" y="-62" font-family="Helvetica,sans-Serif" font-size="10.00">QtQmlIntegration/QtQmlIntegration</text>
</a>
</g>
</g>
<!-- Node4&#45;&gt;Node9 -->
<g id="edge19_Node000004_Node000009" class="edge">
<title>Node4&#45;&gt;Node9</title>
<g id="a_edge19_Node000004_Node000009"><a xlink:title=" ">
<path fill="none" stroke="#63b8ff" d="M763.5,-395.82C763.5,-377.48 763.5,-333.44 763.5,-296.5 763.5,-296.5 763.5,-296.5 763.5,-179 763.5,-143.48 780.44,-104.79 791.7,-83"/>
<polygon fill="#63b8ff" stroke="#63b8ff" points="794.89,-84.47 796.53,-74 788.72,-81.16 794.89,-84.47"/>
</a>
</g>
</g>
<!-- Node16 -->
<g id="Node000016" class="node">
<title>Node16</title>
<g id="a_Node000016"><a xlink:title=" ">
<polygon fill="#e0e0e0" stroke="#999999" points="1102,-360 1007,-360 1007,-341 1102,-341 1102,-360"/>
<text text-anchor="middle" x="1054.5" y="-348" font-family="Helvetica,sans-Serif" font-size="10.00">QtCore/QThread</text>
</a>
</g>
</g>
<!-- Node4&#45;&gt;Node16 -->
<g id="edge16_Node000004_Node000016" class="edge">
<title>Node4&#45;&gt;Node16</title>
<g id="a_edge16_Node000004_Node000016"><a xlink:title=" ">
<path fill="none" stroke="#63b8ff" d="M795.75,-398.63C844.43,-389.76 937.38,-372.83 997.61,-361.86"/>
<polygon fill="#63b8ff" stroke="#63b8ff" points="998.5,-365.26 1007.72,-360.02 997.25,-358.37 998.5,-365.26"/>
</a>
</g>
</g>
<!-- Node17 -->
<g id="Node000017" class="node">
<title>Node17</title>
<g id="a_Node000017"><a xlink:title=" ">
<polygon fill="#e0e0e0" stroke="#999999" points="1236.5,-360 1120.5,-360 1120.5,-341 1236.5,-341 1236.5,-360"/>
<text text-anchor="middle" x="1178.5" y="-348" font-family="Helvetica,sans-Serif" font-size="10.00">QtCore/QVariantMap</text>
</a>
</g>
</g>
<!-- Node4&#45;&gt;Node17 -->
<g id="edge17_Node000004_Node000017" class="edge">
<title>Node4&#45;&gt;Node17</title>
<g id="a_edge17_Node000004_Node000017"><a xlink:title=" ">
<path fill="none" stroke="#63b8ff" d="M795.72,-400.39C862.93,-391.8 1019.34,-371.83 1110.05,-360.24"/>
<polygon fill="#63b8ff" stroke="#63b8ff" points="1110.77,-363.68 1120.24,-358.94 1109.88,-356.74 1110.77,-363.68"/>
</a>
</g>
</g>
<!-- Node18 -->
<g id="Node000018" class="node">
<title>Node18</title>
<g id="a_Node000018"><a xlink:href="RemoteControlCalibrationController_8h.html" target="_top" xlink:title=" ">
<polygon fill="white" stroke="#666666" points="950,-195 807,-195 807,-165 950,-165 950,-195"/>
<text text-anchor="start" x="815" y="-183" font-family="Helvetica,sans-Serif" font-size="10.00">RemoteControlCalibration</text>
<text text-anchor="middle" x="878.5" y="-172" font-family="Helvetica,sans-Serif" font-size="10.00">Controller.h</text>
</a>
</g>
</g>
<!-- Node4&#45;&gt;Node18 -->
<g id="edge20_Node000004_Node000018" class="edge">
<title>Node4&#45;&gt;Node18</title>
<g id="a_edge20_Node000004_Node000018"><a xlink:title=" ">
<path fill="none" stroke="#63b8ff" d="M768.01,-395.74C784.44,-363.8 841.48,-252.95 866.54,-204.25"/>
<polygon fill="#63b8ff" stroke="#63b8ff" points="869.77,-205.61 871.24,-195.12 863.55,-202.41 869.77,-205.61"/>
</a>
</g>
</g>
<!-- Node24 -->
<g id="Node000024" class="node">
<title>Node24</title>
<g id="a_Node000024"><a xlink:href="JoystickSettings_8h.html" target="_top" xlink:title=" ">
<polygon fill="white" stroke="#666666" points="697.5,-360 593.5,-360 593.5,-341 697.5,-341 697.5,-360"/>
<text text-anchor="middle" x="645.5" y="-348" font-family="Helvetica,sans-Serif" font-size="10.00">JoystickSettings.h</text>
</a>
</g>
</g>
<!-- Node4&#45;&gt;Node24 -->
<g id="edge30_Node000004_Node000024" class="edge">
<title>Node4&#45;&gt;Node24</title>
<g id="a_edge30_Node000004_Node000024"><a xlink:title=" ">
<path fill="none" stroke="#63b8ff" d="M744.54,-395.98C725.47,-387.42 695.84,-374.11 673.95,-364.28"/>
<polygon fill="#63b8ff" stroke="#63b8ff" points="675.36,-361.07 664.8,-360.17 672.49,-367.46 675.36,-361.07"/>
</a>
</g>
</g>
<!-- Node6 -->
<g id="Node000006" class="node">
<title>Node6</title>
<g id="a_Node000006"><a xlink:title=" ">
<polygon fill="#e0e0e0" stroke="#999999" points="1674.5,-74 1596.5,-74 1596.5,-55 1674.5,-55 1674.5,-74"/>
<text text-anchor="middle" x="1635.5" y="-62" font-family="Helvetica,sans-Serif" font-size="10.00">QtCore/QList</text>
</a>
</g>
</g>
<!-- Node5&#45;&gt;Node6 -->
<g id="edge5_Node000005_Node000006" class="edge">
<title>Node5&#45;&gt;Node6</title>
<g id="a_edge5_Node000005_Node000006"><a xlink:title=" ">
<path fill="none" stroke="#63b8ff" d="M1336.19,-112.15C1392.21,-104.11 1491.44,-89.6 1586.42,-74.14"/>
<polygon fill="#63b8ff" stroke="#63b8ff" points="1587.18,-77.56 1596.48,-72.5 1586.05,-70.66 1587.18,-77.56"/>
</a>
</g>
</g>
<!-- Node5&#45;&gt;Node7 -->
<g id="edge6_Node000005_Node000007" class="edge">
<title>Node5&#45;&gt;Node7</title>
<g id="a_edge6_Node000005_Node000007"><a xlink:title=" ">
<path fill="none" stroke="#63b8ff" d="M1246.75,-111.14C1243.63,-110.72 1240.52,-110.34 1237.5,-110 1001.72,-83.64 938.31,-99.93 698.74,-74.04"/>
<polygon fill="#63b8ff" stroke="#63b8ff" points="699,-70.54 688.67,-72.93 698.23,-77.5 699,-70.54"/>
</a>
</g>
</g>
<!-- Node8 -->
<g id="Node000008" class="node">
<title>Node8</title>
<g id="a_Node000008"><a xlink:title=" ">
<polygon fill="#e0e0e0" stroke="#999999" points="202,-74 113,-74 113,-55 202,-55 202,-74"/>
<text text-anchor="middle" x="157.5" y="-62" font-family="Helvetica,sans-Serif" font-size="10.00">QtCore/QString</text>
</a>
</g>
</g>
<!-- Node5&#45;&gt;Node8 -->
<g id="edge7_Node000005_Node000008" class="edge">
<title>Node5&#45;&gt;Node8</title>
<g id="a_edge7_Node000005_Node000008"><a xlink:title=" ">
<path fill="none" stroke="#63b8ff" d="M1246.76,-111.03C1243.63,-110.64 1240.52,-110.29 1237.5,-110 786.63,-66.77 667.44,-116.81 212.36,-73.93"/>
<polygon fill="#63b8ff" stroke="#63b8ff" points="212.52,-70.43 202.24,-72.97 211.86,-77.4 212.52,-70.43"/>
</a>
</g>
</g>
<!-- Node5&#45;&gt;Node9 -->
<g id="edge8_Node000005_Node000009" class="edge">
<title>Node5&#45;&gt;Node9</title>
<g id="a_edge8_Node000005_Node000009"><a xlink:title=" ">
<path fill="none" stroke="#63b8ff" d="M1246.74,-111.26C1243.61,-110.82 1240.51,-110.39 1237.5,-110 1124.52,-95.35 994.55,-82.62 906.11,-74.57"/>
<polygon fill="#63b8ff" stroke="#63b8ff" points="906.35,-71.07 896.08,-73.66 905.72,-78.05 906.35,-71.07"/>
</a>
</g>
</g>
<!-- Node10 -->
<g id="Node000010" class="node">
<title>Node10</title>
<g id="a_Node000010"><a xlink:title=" ">
<polygon fill="#e0e0e0" stroke="#999999" points="1290,-74 1189,-74 1189,-55 1290,-55 1290,-74"/>
<text text-anchor="middle" x="1239.5" y="-62" font-family="Helvetica,sans-Serif" font-size="10.00">MAVLinkEnums.h</text>
</a>
</g>
</g>
<!-- Node5&#45;&gt;Node10 -->
<g id="edge9_Node000005_Node000010" class="edge">
<title>Node5&#45;&gt;Node10</title>
<g id="a_edge9_Node000005_Node000010"><a xlink:title=" ">
<path fill="none" stroke="#63b8ff" d="M1282.91,-109.75C1275.34,-102.03 1264.12,-90.6 1254.99,-81.28"/>
<polygon fill="#63b8ff" stroke="#63b8ff" points="1257.43,-78.78 1247.93,-74.09 1252.43,-83.68 1257.43,-78.78"/>
</a>
</g>
</g>
<!-- Node11 -->
<g id="Node000011" class="node">
<title>Node11</title>
<g id="a_Node000011"><a xlink:href="MAVLinkMessageType_8h.html" target="_top" xlink:title=" ">
<polygon fill="white" stroke="#666666" points="1442.5,-74 1308.5,-74 1308.5,-55 1442.5,-55 1442.5,-74"/>
<text text-anchor="middle" x="1375.5" y="-62" font-family="Helvetica,sans-Serif" font-size="10.00">MAVLinkMessageType.h</text>
</a>
</g>
</g>
<!-- Node5&#45;&gt;Node11 -->
<g id="edge10_Node000005_Node000011" class="edge">
<title>Node5&#45;&gt;Node11</title>
<g id="a_edge10_Node000005_Node000011"><a xlink:title=" ">
<path fill="none" stroke="#63b8ff" d="M1305,-109.98C1317.9,-101.84 1337.6,-89.41 1352.9,-79.76"/>
<polygon fill="#63b8ff" stroke="#63b8ff" points="1355.17,-82.47 1361.76,-74.17 1351.43,-76.55 1355.17,-82.47"/>
</a>
</g>
</g>
<!-- Node14 -->
<g id="Node000014" class="node">
<title>Node14</title>
<g id="a_Node000014"><a xlink:href="QGCMAVLinkTypes_8h.html" target="_top" xlink:title=" ">
<polygon fill="white" stroke="#666666" points="1578,-74 1461,-74 1461,-55 1578,-55 1578,-74"/>
<text text-anchor="middle" x="1519.5" y="-62" font-family="Helvetica,sans-Serif" font-size="10.00">QGCMAVLinkTypes.h</text>
</a>
</g>
</g>
<!-- Node5&#45;&gt;Node14 -->
<g id="edge13_Node000005_Node000014" class="edge">
<title>Node5&#45;&gt;Node14</title>
<g id="a_edge13_Node000005_Node000014"><a xlink:title=" ">
<path fill="none" stroke="#63b8ff" d="M1328.13,-109.98C1367.41,-100.86 1429.87,-86.33 1472.69,-76.38"/>
<polygon fill="#63b8ff" stroke="#63b8ff" points="1473.63,-79.76 1482.58,-74.08 1472.05,-72.94 1473.63,-79.76"/>
</a>
</g>
</g>
<!-- Node12 -->
<g id="Node000012" class="node">
<title>Node12</title>
<g id="a_Node000012"><a xlink:title=" ">
<polygon fill="#e0e0e0" stroke="#999999" points="1334,-19 1281,-19 1281,0 1334,0 1334,-19"/>
<text text-anchor="middle" x="1307.5" y="-7" font-family="Helvetica,sans-Serif" font-size="10.00">stdint.h</text>
</a>
</g>
</g>
<!-- Node11&#45;&gt;Node12 -->
<g id="edge11_Node000011_Node000012" class="edge">
<title>Node11&#45;&gt;Node12</title>
<g id="a_edge11_Node000011_Node000012"><a xlink:title=" ">
<path fill="none" stroke="#63b8ff" d="M1364.57,-54.98C1354.42,-47.07 1339.08,-35.11 1326.85,-25.58"/>
<polygon fill="#63b8ff" stroke="#63b8ff" points="1328.66,-22.56 1318.62,-19.17 1324.36,-28.08 1328.66,-22.56"/>
</a>
</g>
</g>
<!-- Node13 -->
<g id="Node000013" class="node">
<title>Node13</title>
<g id="a_Node000013"><a xlink:title=" ">
<polygon fill="#e0e0e0" stroke="#999999" points="1450.5,-19 1352.5,-19 1352.5,0 1450.5,0 1450.5,-19"/>
<text text-anchor="middle" x="1401.5" y="-7" font-family="Helvetica,sans-Serif" font-size="10.00">mavlink_types.h</text>
</a>
</g>
</g>
<!-- Node11&#45;&gt;Node13 -->
<g id="edge12_Node000011_Node000013" class="edge">
<title>Node11&#45;&gt;Node13</title>
<g id="a_edge12_Node000011_Node000013"><a xlink:title=" ">
<path fill="none" stroke="#63b8ff" d="M1379.79,-54.75C1383.31,-47.57 1388.41,-37.18 1392.78,-28.27"/>
<polygon fill="#63b8ff" stroke="#63b8ff" points="1396.02,-29.61 1397.29,-19.09 1389.74,-26.53 1396.02,-29.61"/>
</a>
</g>
</g>
<!-- Node15 -->
<g id="Node000015" class="node">
<title>Node15</title>
<g id="a_Node000015"><a xlink:title=" ">
<polygon fill="#e0e0e0" stroke="#999999" points="1544.5,-19 1494.5,-19 1494.5,0 1544.5,0 1544.5,-19"/>
<text text-anchor="middle" x="1519.5" y="-7" font-family="Helvetica,sans-Serif" font-size="10.00">cstdint</text>
</a>
</g>
</g>
<!-- Node14&#45;&gt;Node15 -->
<g id="edge14_Node000014_Node000015" class="edge">
<title>Node14&#45;&gt;Node15</title>
<g id="a_edge14_Node000014_Node000015"><a xlink:title=" ">
<path fill="none" stroke="#63b8ff" d="M1519.5,-54.75C1519.5,-47.8 1519.5,-37.85 1519.5,-29.13"/>
<polygon fill="#63b8ff" stroke="#63b8ff" points="1523,-29.09 1519.5,-19.09 1516,-29.09 1523,-29.09"/>
</a>
</g>
</g>
<!-- Node18&#45;&gt;Node5 -->
<g id="edge29_Node000018_Node000005" class="edge">
<title>Node18&#45;&gt;Node5</title>
<g id="a_edge29_Node000018_Node000005"><a xlink:title=" ">
<path fill="none" stroke="#63b8ff" d="M950.27,-167.15C955.08,-166.41 959.86,-165.68 964.5,-165 1082.38,-147.64 1114.69,-146.56 1236.62,-129.09"/>
<polygon fill="#63b8ff" stroke="#63b8ff" points="1237.33,-132.53 1246.72,-127.64 1236.33,-125.6 1237.33,-132.53"/>
</a>
</g>
</g>
<!-- Node18&#45;&gt;Node9 -->
<g id="edge22_Node000018_Node000009" class="edge">
<title>Node18&#45;&gt;Node9</title>
<g id="a_edge22_Node000018_Node000009"><a xlink:title=" ">
<path fill="none" stroke="#63b8ff" d="M856.73,-164.92C844.48,-155.98 829.83,-143.39 820.5,-129 811.7,-115.42 806.83,-97.6 804.24,-84.29"/>
<polygon fill="#63b8ff" stroke="#63b8ff" points="807.68,-83.64 802.55,-74.37 800.77,-84.82 807.68,-83.64"/>
</a>
</g>
</g>
<!-- Node19 -->
<g id="Node000019" class="node">
<title>Node19</title>
<g id="a_Node000019"><a xlink:title=" ">
<polygon fill="#e0e0e0" stroke="#999999" points="957.5,-129 829.5,-129 829.5,-110 957.5,-110 957.5,-129"/>
<text text-anchor="middle" x="893.5" y="-117" font-family="Helvetica,sans-Serif" font-size="10.00">QtCore/QElapsedTimer</text>
</a>
</g>
</g>
<!-- Node18&#45;&gt;Node19 -->
<g id="edge21_Node000018_Node000019" class="edge">
<title>Node18&#45;&gt;Node19</title>
<g id="a_edge21_Node000018_Node000019"><a xlink:title=" ">
<path fill="none" stroke="#63b8ff" d="M882.13,-164.84C884.11,-157.13 886.58,-147.49 888.71,-139.17"/>
<polygon fill="#63b8ff" stroke="#63b8ff" points="892.16,-139.82 891.25,-129.27 885.38,-138.08 892.16,-139.82"/>
</a>
</g>
</g>
<!-- Node20 -->
<g id="Node000020" class="node">
<title>Node20</title>
<g id="a_Node000020"><a xlink:title=" ">
<polygon fill="#e0e0e0" stroke="#999999" points="1091.5,-129 975.5,-129 975.5,-110 1091.5,-110 1091.5,-129"/>
<text text-anchor="middle" x="1033.5" y="-117" font-family="Helvetica,sans-Serif" font-size="10.00">QtQuick/QQuickItem</text>
</a>
</g>
</g>
<!-- Node18&#45;&gt;Node20 -->
<g id="edge23_Node000018_Node000020" class="edge">
<title>Node18&#45;&gt;Node20</title>
<g id="a_edge23_Node000018_Node000020"><a xlink:title=" ">
<path fill="none" stroke="#63b8ff" d="M915.63,-164.99C941.72,-155.14 976.28,-142.1 1001.23,-132.68"/>
<polygon fill="#63b8ff" stroke="#63b8ff" points="1002.49,-135.94 1010.61,-129.14 1000.02,-129.4 1002.49,-135.94"/>
</a>
</g>
</g>
<!-- Node21 -->
<g id="Node000021" class="node">
<title>Node21</title>
<g id="a_Node000021"><a xlink:href="FactPanelController_8h.html" target="_top" xlink:title=" ">
<polygon fill="white" stroke="#666666" points="1229,-129 1110,-129 1110,-110 1229,-110 1229,-129"/>
<text text-anchor="middle" x="1169.5" y="-117" font-family="Helvetica,sans-Serif" font-size="10.00">FactPanelController.h</text>
</a>
</g>
</g>
<!-- Node18&#45;&gt;Node21 -->
<g id="edge24_Node000018_Node000021" class="edge">
<title>Node18&#45;&gt;Node21</title>
<g id="a_edge24_Node000018_Node000021"><a xlink:title=" ">
<path fill="none" stroke="#63b8ff" d="M948.2,-164.99C1000.05,-154.56 1069.72,-140.56 1116.94,-131.07"/>
<polygon fill="#63b8ff" stroke="#63b8ff" points="1117.84,-134.46 1126.95,-129.05 1116.46,-127.59 1117.84,-134.46"/>
</a>
</g>
</g>
<!-- Node21&#45;&gt;Node7 -->
<g id="edge25_Node000021_Node000007" class="edge">
<title>Node21&#45;&gt;Node7</title>
<g id="a_edge25_Node000021_Node000007"><a xlink:title=" ">
<path fill="none" stroke="#63b8ff" d="M1109.67,-111.01C1106.57,-110.66 1103.5,-110.32 1100.5,-110 924.91,-91.35 877.7,-95.58 698.7,-74.07"/>
<polygon fill="#63b8ff" stroke="#63b8ff" points="699.03,-70.59 688.68,-72.86 698.19,-77.54 699.03,-70.59"/>
</a>
</g>
</g>
<!-- Node21&#45;&gt;Node9 -->
<g id="edge28_Node000021_Node000009" class="edge">
<title>Node21&#45;&gt;Node9</title>
<g id="a_edge28_Node000021_Node000009"><a xlink:title=" ">
<path fill="none" stroke="#63b8ff" d="M1110.37,-109.98C1045.02,-100.57 939.86,-85.43 870.72,-75.47"/>
<polygon fill="#63b8ff" stroke="#63b8ff" points="871.18,-72 860.78,-74.04 870.18,-78.93 871.18,-72"/>
</a>
</g>
</g>
<!-- Node22 -->
<g id="Node000022" class="node">
<title>Node22</title>
<g id="a_Node000022"><a xlink:title=" ">
<polygon fill="#e0e0e0" stroke="#999999" points="1064,-74 957,-74 957,-55 1064,-55 1064,-74"/>
<text text-anchor="middle" x="1010.5" y="-62" font-family="Helvetica,sans-Serif" font-size="10.00">QtCore/QStringList</text>
</a>
</g>
</g>
<!-- Node21&#45;&gt;Node22 -->
<g id="edge26_Node000021_Node000022" class="edge">
<title>Node21&#45;&gt;Node22</title>
<g id="a_edge26_Node000021_Node000022"><a xlink:title=" ">
<path fill="none" stroke="#63b8ff" d="M1143.95,-109.98C1117.38,-101.13 1075.56,-87.19 1045.83,-77.28"/>
<polygon fill="#63b8ff" stroke="#63b8ff" points="1046.84,-73.92 1036.25,-74.08 1044.63,-80.56 1046.84,-73.92"/>
</a>
</g>
</g>
<!-- Node23 -->
<g id="Node000023" class="node">
<title>Node23</title>
<g id="a_Node000023"><a xlink:title=" ">
<polygon fill="#e0e0e0" stroke="#999999" points="1171,-74 1082,-74 1082,-55 1171,-55 1171,-74"/>
<text text-anchor="middle" x="1126.5" y="-62" font-family="Helvetica,sans-Serif" font-size="10.00">QtCore/QTimer</text>
</a>
</g>
</g>
<!-- Node21&#45;&gt;Node23 -->
<g id="edge27_Node000021_Node000023" class="edge">
<title>Node21&#45;&gt;Node23</title>
<g id="a_edge27_Node000021_Node000023"><a xlink:title=" ">
<path fill="none" stroke="#63b8ff" d="M1162.4,-109.75C1156.33,-102.26 1147.41,-91.28 1139.99,-82.13"/>
<polygon fill="#63b8ff" stroke="#63b8ff" points="1142.49,-79.65 1133.47,-74.09 1137.05,-84.06 1142.49,-79.65"/>
</a>
</g>
</g>
<!-- Node24&#45;&gt;Node9 -->
<g id="edge31_Node000024_Node000009" class="edge">
<title>Node24&#45;&gt;Node9</title>
<g id="a_edge31_Node000024_Node000009"><a xlink:title=" ">
<path fill="none" stroke="#63b8ff" d="M647.69,-340.94C656.34,-308.35 690.51,-189.85 749.5,-110 758,-98.5 769.99,-87.98 780.32,-80.06"/>
<polygon fill="#63b8ff" stroke="#63b8ff" points="782.51,-82.8 788.49,-74.05 778.36,-77.16 782.51,-82.8"/>
</a>
</g>
</g>
<!-- Node25 -->
<g id="Node000025" class="node">
<title>Node25</title>
<g id="a_Node000025"><a xlink:href="SettingsGroup_8h.html" target="_top" xlink:title=" ">
<polygon fill="white" stroke="#666666" points="520,-305 425,-305 425,-286 520,-286 520,-305"/>
<text text-anchor="middle" x="472.5" y="-293" font-family="Helvetica,sans-Serif" font-size="10.00">SettingsGroup.h</text>
</a>
</g>
</g>
<!-- Node24&#45;&gt;Node25 -->
<g id="edge32_Node000024_Node000025" class="edge">
<title>Node24&#45;&gt;Node25</title>
<g id="a_edge32_Node000024_Node000025"><a xlink:title=" ">
<path fill="none" stroke="#63b8ff" d="M617.7,-340.98C588.53,-332.05 542.5,-317.94 510.1,-308.02"/>
<polygon fill="#63b8ff" stroke="#63b8ff" points="511.1,-304.66 500.51,-305.08 509.05,-311.36 511.1,-304.66"/>
</a>
</g>
</g>
<!-- Node26 -->
<g id="Node000026" class="node">
<title>Node26</title>
<g id="a_Node000026"><a xlink:href="SettingsFact_8h.html" target="_top" xlink:title=" ">
<polygon fill="white" stroke="#666666" points="480,-250 395,-250 395,-231 480,-231 480,-250"/>
<text text-anchor="middle" x="437.5" y="-238" font-family="Helvetica,sans-Serif" font-size="10.00">SettingsFact.h</text>
</a>
</g>
</g>
<!-- Node25&#45;&gt;Node26 -->
<g id="edge33_Node000025_Node000026" class="edge">
<title>Node25&#45;&gt;Node26</title>
<g id="a_edge33_Node000025_Node000026"><a xlink:title=" ">
<path fill="none" stroke="#63b8ff" d="M466.72,-285.75C461.88,-278.42 454.82,-267.73 448.86,-258.7"/>
<polygon fill="#63b8ff" stroke="#63b8ff" points="451.6,-256.5 443.17,-250.09 445.76,-260.36 451.6,-256.5"/>
</a>
</g>
</g>
<!-- Node26&#45;&gt;Node7 -->
<g id="edge34_Node000026_Node000007" class="edge">
<title>Node26&#45;&gt;Node7</title>
<g id="a_edge34_Node000026_Node000007"><a xlink:title=" ">
<path fill="none" stroke="#63b8ff" d="M450.59,-230.75C476.87,-212.92 537.52,-170.57 583.5,-129 599.98,-114.1 617.08,-95.26 628.6,-81.99"/>
<polygon fill="#63b8ff" stroke="#63b8ff" points="631.45,-84.04 635.3,-74.16 626.14,-79.48 631.45,-84.04"/>
</a>
</g>
</g>
<!-- Node26&#45;&gt;Node8 -->
<g id="edge35_Node000026_Node000008" class="edge">
<title>Node26&#45;&gt;Node8</title>
<g id="a_edge35_Node000026_Node000008"><a xlink:title=" ">
<path fill="none" stroke="#63b8ff" d="M394.91,-238.4C326.39,-234.06 193.35,-214.43 133.5,-129 123.52,-114.75 133.03,-95.81 142.88,-82.34"/>
<polygon fill="#63b8ff" stroke="#63b8ff" points="145.72,-84.38 149.19,-74.37 140.24,-80.03 145.72,-84.38"/>
</a>
</g>
</g>
<!-- Node27 -->
<g id="Node000027" class="node">
<title>Node27</title>
<g id="a_Node000027"><a xlink:href="Fact_8h.html" target="_top" xlink:title=" ">
<polygon fill="white" stroke="#666666" points="391,-189.5 346,-189.5 346,-170.5 391,-170.5 391,-189.5"/>
<text text-anchor="middle" x="368.5" y="-177.5" font-family="Helvetica,sans-Serif" font-size="10.00">Fact.h</text>
</a>
</g>
</g>
<!-- Node26&#45;&gt;Node27 -->
<g id="edge36_Node000026_Node000027" class="edge">
<title>Node26&#45;&gt;Node27</title>
<g id="a_edge36_Node000026_Node000027"><a xlink:title=" ">
<path fill="none" stroke="#63b8ff" d="M427.32,-230.87C416.62,-221.8 399.56,-207.34 386.57,-196.32"/>
<polygon fill="#63b8ff" stroke="#63b8ff" points="388.61,-193.46 378.72,-189.67 384.09,-198.8 388.61,-193.46"/>
</a>
</g>
</g>
<!-- Node27&#45;&gt;Node7 -->
<g id="edge38_Node000027_Node000007" class="edge">
<title>Node27&#45;&gt;Node7</title>
<g id="a_edge38_Node000027_Node000007"><a xlink:title=" ">
<path fill="none" stroke="#63b8ff" d="M391.04,-175.57C426.8,-169.55 498.16,-155.18 553.5,-129 580.38,-116.28 607.7,-95.34 624.85,-81.01"/>
<polygon fill="#63b8ff" stroke="#63b8ff" points="627.5,-83.35 632.83,-74.2 622.95,-78.03 627.5,-83.35"/>
</a>
</g>
</g>
<!-- Node27&#45;&gt;Node8 -->
<g id="edge40_Node000027_Node000008" class="edge">
<title>Node27&#45;&gt;Node8</title>
<g id="a_edge40_Node000027_Node000008"><a xlink:title=" ">
<path fill="none" stroke="#63b8ff" d="M345.97,-177.49C293.93,-173.48 167.91,-160.65 142.5,-129 132.01,-115.94 138.65,-96.78 146.12,-82.92"/>
<polygon fill="#63b8ff" stroke="#63b8ff" points="149.13,-84.71 151.23,-74.32 143.11,-81.13 149.13,-84.71"/>
</a>
</g>
</g>
<!-- Node27&#45;&gt;Node9 -->
<g id="edge42_Node000027_Node000009" class="edge">
<title>Node27&#45;&gt;Node9</title>
<g id="a_edge42_Node000027_Node000009"><a xlink:title=" ">
<path fill="none" stroke="#63b8ff" d="M391.2,-174.15C430.52,-165.66 513.8,-147.24 583.5,-129 647.4,-112.28 721.05,-90.24 764.31,-77.01"/>
<polygon fill="#63b8ff" stroke="#63b8ff" points="765.57,-80.28 774.1,-74.01 763.52,-73.59 765.57,-80.28"/>
</a>
</g>
</g>
<!-- Node28 -->
<g id="Node000028" class="node">
<title>Node28</title>
<g id="a_Node000028"><a xlink:title=" ">
<polygon fill="#e0e0e0" stroke="#999999" points="545,-129 422,-129 422,-110 545,-110 545,-129"/>
<text text-anchor="middle" x="483.5" y="-117" font-family="Helvetica,sans-Serif" font-size="10.00">QtCore/QMutexLocker</text>
</a>
</g>
</g>
<!-- Node27&#45;&gt;Node28 -->
<g id="edge37_Node000027_Node000028" class="edge">
<title>Node27&#45;&gt;Node28</title>
<g id="a_edge37_Node000027_Node000028"><a xlink:title=" ">
<path fill="none" stroke="#63b8ff" d="M385.47,-170.37C404.41,-160.73 435.29,-145.03 457.33,-133.81"/>
<polygon fill="#63b8ff" stroke="#63b8ff" points="459.14,-136.82 466.46,-129.17 455.96,-130.58 459.14,-136.82"/>
</a>
</g>
</g>
<!-- Node29 -->
<g id="Node000029" class="node">
<title>Node29</title>
<g id="a_Node000029"><a xlink:title=" ">
<polygon fill="#e0e0e0" stroke="#999999" points="403.5,-129 263.5,-129 263.5,-110 403.5,-110 403.5,-129"/>
<text text-anchor="middle" x="333.5" y="-117" font-family="Helvetica,sans-Serif" font-size="10.00">QtCore/QRecursiveMutex</text>
</a>
</g>
</g>
<!-- Node27&#45;&gt;Node29 -->
<g id="edge39_Node000027_Node000029" class="edge">
<title>Node27&#45;&gt;Node29</title>
<g id="a_edge39_Node000027_Node000029"><a xlink:title=" ">
<path fill="none" stroke="#63b8ff" d="M363.34,-170.37C358.27,-161.9 350.4,-148.74 344.01,-138.07"/>
<polygon fill="#63b8ff" stroke="#63b8ff" points="346.82,-135.95 338.69,-129.17 340.82,-139.55 346.82,-135.95"/>
</a>
</g>
</g>
<!-- Node30 -->
<g id="Node000030" class="node">
<title>Node30</title>
<g id="a_Node000030"><a xlink:title=" ">
<polygon fill="#e0e0e0" stroke="#999999" points="95,-74 0,-74 0,-55 95,-55 95,-74"/>
<text text-anchor="middle" x="47.5" y="-62" font-family="Helvetica,sans-Serif" font-size="10.00">QtCore/QVariant</text>
</a>
</g>
</g>
<!-- Node27&#45;&gt;Node30 -->
<g id="edge41_Node000027_Node000030" class="edge">
<title>Node27&#45;&gt;Node30</title>
<g id="a_edge41_Node000027_Node000030"><a xlink:title=" ">
<path fill="none" stroke="#63b8ff" d="M345.81,-177.38C302.7,-173.62 206.72,-161.95 133.5,-129 106.98,-117.07 80.71,-95.95 64.31,-81.37"/>
<polygon fill="#63b8ff" stroke="#63b8ff" points="66.44,-78.57 56.69,-74.42 61.72,-83.74 66.44,-78.57"/>
</a>
</g>
</g>
<!-- Node31 -->
<g id="Node000031" class="node">
<title>Node31</title>
<g id="a_Node000031"><a xlink:href="FactMetaData_8h.html" target="_top" xlink:title=" ">
<polygon fill="white" stroke="#666666" points="245,-129 152,-129 152,-110 245,-110 245,-129"/>
<text text-anchor="middle" x="198.5" y="-117" font-family="Helvetica,sans-Serif" font-size="10.00">FactMetaData.h</text>
</a>
</g>
</g>
<!-- Node27&#45;&gt;Node31 -->
<g id="edge43_Node000027_Node000031" class="edge">
<title>Node27&#45;&gt;Node31</title>
<g id="a_edge43_Node000027_Node000031"><a xlink:title=" ">
<path fill="none" stroke="#63b8ff" d="M345.93,-171.23C316.99,-161.27 266.54,-143.91 232.83,-132.32"/>
<polygon fill="#63b8ff" stroke="#63b8ff" points="233.97,-129.01 223.38,-129.06 231.7,-135.62 233.97,-129.01"/>
</a>
</g>
</g>
<!-- Node31&#45;&gt;Node7 -->
<g id="edge45_Node000031_Node000007" class="edge">
<title>Node31&#45;&gt;Node7</title>
<g id="a_edge45_Node000031_Node000007"><a xlink:title=" ">
<path fill="none" stroke="#63b8ff" d="M245.23,-111.28C248.37,-110.83 251.48,-110.4 254.5,-110 372.29,-94.31 510.65,-79.25 586.21,-71.31"/>
<polygon fill="#63b8ff" stroke="#63b8ff" points="586.86,-74.76 596.44,-70.23 586.13,-67.79 586.86,-74.76"/>
</a>
</g>
</g>
<!-- Node31&#45;&gt;Node8 -->
<g id="edge46_Node000031_Node000008" class="edge">
<title>Node31&#45;&gt;Node8</title>
<g id="a_edge46_Node000031_Node000008"><a xlink:title=" ">
<path fill="none" stroke="#63b8ff" d="M191.73,-109.75C185.94,-102.26 177.44,-91.28 170.36,-82.13"/>
<polygon fill="#63b8ff" stroke="#63b8ff" points="173.03,-79.86 164.14,-74.09 167.49,-84.14 173.03,-79.86"/>
</a>
</g>
</g>
<!-- Node31&#45;&gt;Node9 -->
<g id="edge48_Node000031_Node000009" class="edge">
<title>Node31&#45;&gt;Node9</title>
<g id="a_edge48_Node000031_Node000009"><a xlink:title=" ">
<path fill="none" stroke="#63b8ff" d="M245.22,-111.16C248.36,-110.74 251.47,-110.35 254.5,-110 447.46,-87.54 498.92,-89.96 696.7,-74.06"/>
<polygon fill="#63b8ff" stroke="#63b8ff" points="697.16,-77.53 706.84,-73.24 696.59,-70.56 697.16,-77.53"/>
</a>
</g>
</g>
<!-- Node31&#45;&gt;Node30 -->
<g id="edge47_Node000031_Node000030" class="edge">
<title>Node31&#45;&gt;Node30</title>
<g id="a_edge47_Node000031_Node000030"><a xlink:title=" ">
<path fill="none" stroke="#63b8ff" d="M174.24,-109.98C149.18,-101.19 109.87,-87.39 81.67,-77.49"/>
<polygon fill="#63b8ff" stroke="#63b8ff" points="82.8,-74.18 72.2,-74.17 80.48,-80.78 82.8,-74.18"/>
</a>
</g>
</g>
<!-- Node32 -->
<g id="Node000032" class="node">
<title>Node32</title>
<g id="a_Node000032"><a xlink:title=" ">
<polygon fill="#e0e0e0" stroke="#999999" points="306.5,-74 220.5,-74 220.5,-55 306.5,-55 306.5,-74"/>
<text text-anchor="middle" x="263.5" y="-62" font-family="Helvetica,sans-Serif" font-size="10.00">QtCore/QHash</text>
</a>
</g>
</g>
<!-- Node31&#45;&gt;Node32 -->
<g id="edge44_Node000031_Node000032" class="edge">
<title>Node31&#45;&gt;Node32</title>
<g id="a_edge44_Node000031_Node000032"><a xlink:title=" ">
<path fill="none" stroke="#63b8ff" d="M208.94,-109.98C218.65,-102.07 233.32,-90.11 245,-80.58"/>
<polygon fill="#63b8ff" stroke="#63b8ff" points="247.33,-83.2 252.87,-74.17 242.9,-77.78 247.33,-83.2"/>
</a>
</g>
</g>
</g>
</svg>
