<?xml version="1.0" encoding="UTF-8" standalone="no"?>
<!DOCTYPE svg PUBLIC "-//W3C//DTD SVG 1.1//EN"
 "http://www.w3.org/Graphics/SVG/1.1/DTD/svg11.dtd">
<!-- Generated by graphviz version 2.43.0 (0)
 -->
<!-- Title: src/Settings/JoystickSettings.h Pages: 1 -->
<svg width="1041pt" height="203pt"
 viewBox="0.00 0.00 1041.00 203.00" xmlns="http://www.w3.org/2000/svg" xmlns:xlink="http://www.w3.org/1999/xlink">
<g id="graph0" class="graph" transform="scale(1 1) rotate(0) translate(4 199)">
<title>src/Settings/JoystickSettings.h</title>
<!-- Node1 -->
<g id="Node000001" class="node">
<title>Node1</title>
<g id="a_Node000001"><a xlink:title=" ">
<polygon fill="#999999" stroke="#666666" points="720.5,-195 556.5,-195 556.5,-176 720.5,-176 720.5,-195"/>
<text text-anchor="middle" x="638.5" y="-183" font-family="Helvetica,sans-Serif" font-size="10.00">src/Settings/JoystickSettings.h</text>
</a>
</g>
</g>
<!-- Node2 -->
<g id="Node000002" class="node">
<title>Node2</title>
<g id="a_Node000002"><a xlink:href="Joystick_8h.html" target="_top" xlink:title=" ">
<polygon fill="white" stroke="#666666" points="618.5,-140 496.5,-140 496.5,-121 618.5,-121 618.5,-140"/>
<text text-anchor="middle" x="557.5" y="-128" font-family="Helvetica,sans-Serif" font-size="10.00">src/Joystick/Joystick.h</text>
</a>
</g>
</g>
<!-- Node1&#45;&gt;Node2 -->
<g id="edge1_Node000001_Node000002" class="edge">
<title>Node1&#45;&gt;Node2</title>
<g id="a_edge1_Node000001_Node000002"><a xlink:title=" ">
<path fill="none" stroke="#63b8ff" d="M616.99,-170.42C602.29,-160.81 583.28,-148.37 570.75,-140.17"/>
<polygon fill="#63b8ff" stroke="#63b8ff" points="615.2,-173.44 625.49,-175.98 619.03,-167.58 615.2,-173.44"/>
</a>
</g>
</g>
<!-- Node11 -->
<g id="Node000011" class="node">
<title>Node11</title>
<g id="a_Node000011"><a xlink:href="JoystickSettings_8cc.html" target="_top" xlink:title=" ">
<polygon fill="white" stroke="#666666" points="804.5,-140 636.5,-140 636.5,-121 804.5,-121 804.5,-140"/>
<text text-anchor="middle" x="720.5" y="-128" font-family="Helvetica,sans-Serif" font-size="10.00">src/Settings/JoystickSettings.cc</text>
</a>
</g>
</g>
<!-- Node1&#45;&gt;Node11 -->
<g id="edge11_Node000001_Node000011" class="edge">
<title>Node1&#45;&gt;Node11</title>
<g id="a_edge11_Node000001_Node000011"><a xlink:title=" ">
<path fill="none" stroke="#63b8ff" d="M660.28,-170.42C675.16,-160.81 694.41,-148.37 707.09,-140.17"/>
<polygon fill="#63b8ff" stroke="#63b8ff" points="658.17,-167.62 651.67,-175.98 661.97,-173.5 658.17,-167.62"/>
</a>
</g>
</g>
<!-- Node3 -->
<g id="Node000003" class="node">
<title>Node3</title>
<g id="a_Node000003"><a xlink:href="JoystickComponent_8cc.html" target="_top" xlink:title=" ">
<polygon fill="white" stroke="#666666" points="175,-85 0,-85 0,-55 175,-55 175,-85"/>
<text text-anchor="start" x="8" y="-73" font-family="Helvetica,sans-Serif" font-size="10.00">src/AutoPilotPlugins</text>
<text text-anchor="middle" x="87.5" y="-62" font-family="Helvetica,sans-Serif" font-size="10.00">/Common/JoystickComponent.cc</text>
</a>
</g>
</g>
<!-- Node2&#45;&gt;Node3 -->
<g id="edge2_Node000002_Node000003" class="edge">
<title>Node2&#45;&gt;Node3</title>
<g id="a_edge2_Node000002_Node000003"><a xlink:title=" ">
<path fill="none" stroke="#63b8ff" d="M485.9,-121.55C410.58,-113.05 288.59,-98.91 183.5,-85 180.74,-84.64 177.95,-84.26 175.12,-83.88"/>
<polygon fill="#63b8ff" stroke="#63b8ff" points="485.89,-125.07 496.22,-122.71 486.67,-118.11 485.89,-125.07"/>
</a>
</g>
</g>
<!-- Node4 -->
<g id="Node000004" class="node">
<title>Node4</title>
<g id="a_Node000004"><a xlink:href="QGCCameraManager_8cc.html" target="_top" xlink:title=" ">
<polygon fill="white" stroke="#666666" points="384,-79.5 193,-79.5 193,-60.5 384,-60.5 384,-79.5"/>
<text text-anchor="middle" x="288.5" y="-67.5" font-family="Helvetica,sans-Serif" font-size="10.00">src/Camera/QGCCameraManager.cc</text>
</a>
</g>
</g>
<!-- Node2&#45;&gt;Node4 -->
<g id="edge3_Node000002_Node000004" class="edge">
<title>Node2&#45;&gt;Node4</title>
<g id="a_edge3_Node000002_Node000004"><a xlink:title=" ">
<path fill="none" stroke="#63b8ff" d="M508.4,-118.82C456.44,-107.52 375.5,-89.92 327.66,-79.52"/>
<polygon fill="#63b8ff" stroke="#63b8ff" points="507.87,-122.29 518.39,-120.99 509.36,-115.45 507.87,-122.29"/>
</a>
</g>
</g>
<!-- Node5 -->
<g id="Node000005" class="node">
<title>Node5</title>
<g id="a_Node000005"><a xlink:href="Joystick_8cc.html" target="_top" xlink:title=" ">
<polygon fill="white" stroke="#666666" points="529,-79.5 402,-79.5 402,-60.5 529,-60.5 529,-79.5"/>
<text text-anchor="middle" x="465.5" y="-67.5" font-family="Helvetica,sans-Serif" font-size="10.00">src/Joystick/Joystick.cc</text>
</a>
</g>
</g>
<!-- Node2&#45;&gt;Node5 -->
<g id="edge4_Node000002_Node000005" class="edge">
<title>Node2&#45;&gt;Node5</title>
<g id="a_edge4_Node000002_Node000005"><a xlink:title=" ">
<path fill="none" stroke="#63b8ff" d="M535.43,-115.47C517.91,-104.32 493.97,-89.1 479.13,-79.67"/>
<polygon fill="#63b8ff" stroke="#63b8ff" points="533.61,-118.46 543.93,-120.87 537.36,-112.55 533.61,-118.46"/>
</a>
</g>
</g>
<!-- Node6 -->
<g id="Node000006" class="node">
<title>Node6</title>
<g id="a_Node000006"><a xlink:href="JoystickManager_8cc.html" target="_top" xlink:title=" ">
<polygon fill="white" stroke="#666666" points="642,-19 473,-19 473,0 642,0 642,-19"/>
<text text-anchor="middle" x="557.5" y="-7" font-family="Helvetica,sans-Serif" font-size="10.00">src/Joystick/JoystickManager.cc</text>
</a>
</g>
</g>
<!-- Node2&#45;&gt;Node6 -->
<g id="edge5_Node000002_Node000006" class="edge">
<title>Node2&#45;&gt;Node6</title>
<g id="a_edge5_Node000002_Node000006"><a xlink:title=" ">
<path fill="none" stroke="#63b8ff" d="M557.5,-110.86C557.5,-84.81 557.5,-38.56 557.5,-19.3"/>
<polygon fill="#63b8ff" stroke="#63b8ff" points="554,-110.94 557.5,-120.94 561,-110.94 554,-110.94"/>
</a>
</g>
</g>
<!-- Node7 -->
<g id="Node000007" class="node">
<title>Node7</title>
<g id="a_Node000007"><a xlink:href="JoystickSDL_8h.html" target="_top" xlink:title=" ">
<polygon fill="white" stroke="#666666" points="727,-79.5 586,-79.5 586,-60.5 727,-60.5 727,-79.5"/>
<text text-anchor="middle" x="656.5" y="-67.5" font-family="Helvetica,sans-Serif" font-size="10.00">src/Joystick/JoystickSDL.h</text>
</a>
</g>
</g>
<!-- Node2&#45;&gt;Node7 -->
<g id="edge6_Node000002_Node000007" class="edge">
<title>Node2&#45;&gt;Node7</title>
<g id="a_edge6_Node000002_Node000007"><a xlink:title=" ">
<path fill="none" stroke="#63b8ff" d="M580.73,-115.77C599.63,-104.6 625.72,-89.19 641.83,-79.67"/>
<polygon fill="#63b8ff" stroke="#63b8ff" points="578.94,-112.77 572.11,-120.87 582.5,-118.79 578.94,-112.77"/>
</a>
</g>
</g>
<!-- Node9 -->
<g id="Node000009" class="node">
<title>Node9</title>
<g id="a_Node000009"><a xlink:href="Vehicle_8cc.html" target="_top" xlink:title=" ">
<polygon fill="white" stroke="#666666" points="866,-79.5 745,-79.5 745,-60.5 866,-60.5 866,-79.5"/>
<text text-anchor="middle" x="805.5" y="-67.5" font-family="Helvetica,sans-Serif" font-size="10.00">src/Vehicle/Vehicle.cc</text>
</a>
</g>
</g>
<!-- Node2&#45;&gt;Node9 -->
<g id="edge9_Node000002_Node000009" class="edge">
<title>Node2&#45;&gt;Node9</title>
<g id="a_edge9_Node000002_Node000009"><a xlink:title=" ">
<path fill="none" stroke="#63b8ff" d="M603.37,-118.68C651.29,-107.38 725.48,-89.88 769.4,-79.52"/>
<polygon fill="#63b8ff" stroke="#63b8ff" points="602.49,-115.29 593.56,-120.99 604.1,-122.1 602.49,-115.29"/>
</a>
</g>
</g>
<!-- Node10 -->
<g id="Node000010" class="node">
<title>Node10</title>
<g id="a_Node000010"><a xlink:href="JoystickConfigController_8cc.html" target="_top" xlink:title=" ">
<polygon fill="white" stroke="#666666" points="1033,-85 884,-85 884,-55 1033,-55 1033,-85"/>
<text text-anchor="start" x="892" y="-73" font-family="Helvetica,sans-Serif" font-size="10.00">src/Vehicle/VehicleSetup</text>
<text text-anchor="middle" x="958.5" y="-62" font-family="Helvetica,sans-Serif" font-size="10.00">/JoystickConfigController.cc</text>
</a>
</g>
</g>
<!-- Node2&#45;&gt;Node10 -->
<g id="edge10_Node000002_Node000010" class="edge">
<title>Node2&#45;&gt;Node10</title>
<g id="a_edge10_Node000002_Node000010"><a xlink:title=" ">
<path fill="none" stroke="#63b8ff" d="M628.6,-120.13C693.1,-111.49 790.78,-98.07 875.5,-85 878.24,-84.58 881.04,-84.14 883.86,-83.69"/>
<polygon fill="#63b8ff" stroke="#63b8ff" points="627.99,-116.68 618.54,-121.48 628.91,-123.62 627.99,-116.68"/>
</a>
</g>
</g>
<!-- Node7&#45;&gt;Node6 -->
<g id="edge7_Node000007_Node000006" class="edge">
<title>Node7&#45;&gt;Node6</title>
<g id="a_edge7_Node000007_Node000006"><a xlink:title=" ">
<path fill="none" stroke="#63b8ff" d="M633.27,-55.27C614.37,-44.1 588.28,-28.69 572.17,-19.17"/>
<polygon fill="#63b8ff" stroke="#63b8ff" points="631.5,-58.29 641.89,-60.37 635.06,-52.27 631.5,-58.29"/>
</a>
</g>
</g>
<!-- Node8 -->
<g id="Node000008" class="node">
<title>Node8</title>
<g id="a_Node000008"><a xlink:href="JoystickSDL_8cc.html" target="_top" xlink:title=" ">
<polygon fill="white" stroke="#666666" points="806.5,-19 660.5,-19 660.5,0 806.5,0 806.5,-19"/>
<text text-anchor="middle" x="733.5" y="-7" font-family="Helvetica,sans-Serif" font-size="10.00">src/Joystick/JoystickSDL.cc</text>
</a>
</g>
</g>
<!-- Node7&#45;&gt;Node8 -->
<g id="edge8_Node000007_Node000008" class="edge">
<title>Node7&#45;&gt;Node8</title>
<g id="a_edge8_Node000007_Node000008"><a xlink:title=" ">
<path fill="none" stroke="#63b8ff" d="M676.19,-54.04C690.73,-42.99 710.02,-28.34 722.09,-19.17"/>
<polygon fill="#63b8ff" stroke="#63b8ff" points="673.71,-51.53 667.86,-60.37 677.94,-57.11 673.71,-51.53"/>
</a>
</g>
</g>
</g>
</svg>
