<?xml version="1.0" encoding="UTF-8" standalone="no"?>
<!DOCTYPE svg PUBLIC "-//W3C//DTD SVG 1.1//EN"
 "http://www.w3.org/Graphics/SVG/1.1/DTD/svg11.dtd">
<!-- Generated by graphviz version 2.43.0 (0)
 -->
<!-- Title: src/Utilities/Parsing/Json/JsonParsing.cc Pages: 1 -->
<!--zoomable 159 -->

<svg id="main" version="1.1" xmlns="http://www.w3.org/2000/svg" xmlns:xlink="http://www.w3.org/1999/xlink" xml:space="preserve" onload="init(evt)">
<style type="text/css"><![CDATA[
.node, .edge {opacity: 0.7;}
.node.selected, .edge.selected {opacity: 1;}
.edge:hover path { stroke: red; }
.edge:hover polygon { stroke: red; fill: red; }
]]></style>

<defs>
  <circle id="rim" cx="0" cy="0" r="7"/>
  <circle id="rim2" cx="0" cy="0" r="3.5"/>
  <g id="zoomPlus">
    <use xlink:href="#rim" fill="#404040"><set attributeName="fill" to="#808080" begin="zoomplus.mouseover" end="zoomplus.mouseout"/></use>
    <path d="M-4,0h8M0,-4v8" fill="none" stroke="white" stroke-width="1.5" pointer-events="none"/>
  </g>
  <g id="zoomMin">
    <use xlink:href="#rim" fill="#404040"><set attributeName="fill" to="#808080" begin="zoomminus.mouseover" end="zoomminus.mouseout"/></use>
    <path d="M-4,0h8" fill="none" stroke="white" stroke-width="1.5" pointer-events="none"/>
  </g>
  <g id="arrowUp" transform="translate(30 24)">
    <use xlink:href="#rim"/>
    <path pointer-events="none" fill="none" stroke="white" stroke-width="1.5" d="M0,-3.0v7 M-2.5,-0.5L0,-3.0L2.5,-0.5"/>
  </g>
  <g id="arrowRight" transform="rotate(90) translate(36 -43)">
    <use xlink:href="#rim"/>
    <path pointer-events="none" fill="none" stroke="white" stroke-width="1.5" d="M0,-3.0v7 M-2.5,-0.5L0,-3.0L2.5,-0.5"/>
  </g>
  <g id="arrowDown" transform="rotate(180) translate(-30 -48)">
    <use xlink:href="#rim"/>
    <path pointer-events="none" fill="none" stroke="white" stroke-width="1.5" d="M0,-3.0v7 M-2.5,-0.5L0,-3.0L2.5,-0.5"/>
  </g>
  <g id="arrowLeft" transform="rotate(270) translate(-36 17)">
    <use xlink:href="#rim"/>
    <path pointer-events="none" fill="none" stroke="white" stroke-width="1.5" d="M0,-3.0v7 M-2.5,-0.5L0,-3.0L2.5,-0.5"/>
  </g>
  <g id="resetDef">
    <use xlink:href="#rim2" fill="#404040"><set attributeName="fill" to="#808080" begin="reset.mouseover" end="reset.mouseout"/></use>
  </g>
</defs>
<script type="application/ecmascript">
var viewWidth = 3013;
var viewHeight = 159;
var sectionId = 'dynsection-0';
</script>
<script type="application/ecmascript" xlink:href="svg.min.js"/>
<svg id="graph" class="graph">
<g id="viewport">
<title>src/Utilities/Parsing/Json/JsonParsing.cc</title>
<!-- Node1 -->
<g id="Node000001" class="node">
<title>Node1</title>
<g id="a_Node000001"><a xlink:title=" ">
<polygon fill="#999999" stroke="#666666" points="2625,-151 2513,-151 2513,-121 2625,-121 2625,-151"/>
<text text-anchor="start" x="2521" y="-139" font-family="Helvetica,sans-Serif" font-size="10.00">src/Utilities/Parsing</text>
<text text-anchor="middle" x="2569" y="-128" font-family="Helvetica,sans-Serif" font-size="10.00">/Json/JsonParsing.cc</text>
</a>
</g>
</g>
<!-- Node2 -->
<g id="Node000002" class="node">
<title>Node2</title>
<g id="a_Node000002"><a xlink:href="JsonParsing_8h.html" target="_top" xlink:title=" ">
<polygon fill="white" stroke="#666666" points="2528.5,-85 2447.5,-85 2447.5,-66 2528.5,-66 2528.5,-85"/>
<text text-anchor="middle" x="2488" y="-73" font-family="Helvetica,sans-Serif" font-size="10.00">JsonParsing.h</text>
</a>
</g>
</g>
<!-- Node1&#45;&gt;Node2 -->
<g id="edge1_Node000001_Node000002" class="edge">
<title>Node1&#45;&gt;Node2</title>
<g id="a_edge1_Node000001_Node000002"><a xlink:title=" ">
<path fill="none" stroke="#63b8ff" d="M2549.39,-120.84C2537.03,-111.91 2521.1,-100.41 2508.57,-91.35"/>
<polygon fill="#63b8ff" stroke="#63b8ff" points="2510.29,-88.28 2500.14,-85.27 2506.2,-93.96 2510.29,-88.28"/>
</a>
</g>
</g>
<!-- Node7 -->
<g id="Node000007" class="node">
<title>Node7</title>
<g id="a_Node000007"><a xlink:title=" ">
<polygon fill="#e0e0e0" stroke="#999999" points="2591,-85 2547,-85 2547,-66 2591,-66 2591,-85"/>
<text text-anchor="middle" x="2569" y="-73" font-family="Helvetica,sans-Serif" font-size="10.00">limits</text>
</a>
</g>
</g>
<!-- Node1&#45;&gt;Node7 -->
<g id="edge6_Node000001_Node000007" class="edge">
<title>Node1&#45;&gt;Node7</title>
<g id="a_edge6_Node000001_Node000007"><a xlink:title=" ">
<path fill="none" stroke="#63b8ff" d="M2569,-120.84C2569,-113.21 2569,-103.7 2569,-95.45"/>
<polygon fill="#63b8ff" stroke="#63b8ff" points="2572.5,-95.27 2569,-85.27 2565.5,-95.27 2572.5,-95.27"/>
</a>
</g>
</g>
<!-- Node8 -->
<g id="Node000008" class="node">
<title>Node8</title>
<g id="a_Node000008"><a xlink:title=" ">
<polygon fill="#e0e0e0" stroke="#999999" points="2701,-85 2609,-85 2609,-66 2701,-66 2701,-85"/>
<text text-anchor="middle" x="2655" y="-73" font-family="Helvetica,sans-Serif" font-size="10.00">QtCore/QObject</text>
</a>
</g>
</g>
<!-- Node1&#45;&gt;Node8 -->
<g id="edge7_Node000001_Node000008" class="edge">
<title>Node1&#45;&gt;Node8</title>
<g id="a_edge7_Node000001_Node000008"><a xlink:title=" ">
<path fill="none" stroke="#63b8ff" d="M2589.82,-120.84C2603.15,-111.77 2620.39,-100.04 2633.79,-90.92"/>
<polygon fill="#63b8ff" stroke="#63b8ff" points="2636.07,-93.61 2642.37,-85.09 2632.13,-87.83 2636.07,-93.61"/>
</a>
</g>
</g>
<!-- Node9 -->
<g id="Node000009" class="node">
<title>Node9</title>
<g id="a_Node000009"><a xlink:title=" ">
<polygon fill="#e0e0e0" stroke="#999999" points="2850.5,-85 2719.5,-85 2719.5,-66 2850.5,-66 2850.5,-85"/>
<text text-anchor="middle" x="2785" y="-73" font-family="Helvetica,sans-Serif" font-size="10.00">QtCore/QJsonParseError</text>
</a>
</g>
</g>
<!-- Node1&#45;&gt;Node9 -->
<g id="edge8_Node000001_Node000009" class="edge">
<title>Node1&#45;&gt;Node9</title>
<g id="a_edge8_Node000001_Node000009"><a xlink:title=" ">
<path fill="none" stroke="#63b8ff" d="M2620.74,-120.99C2658.34,-110.8 2708.56,-97.2 2743.53,-87.73"/>
<polygon fill="#63b8ff" stroke="#63b8ff" points="2744.68,-91.05 2753.42,-85.05 2742.85,-84.29 2744.68,-91.05"/>
</a>
</g>
</g>
<!-- Node10 -->
<g id="Node000010" class="node">
<title>Node10</title>
<g id="a_Node000010"><a xlink:href="QGCFileHelper_8h.html" target="_top" xlink:title=" ">
<polygon fill="white" stroke="#666666" points="477,-85 381,-85 381,-66 477,-66 477,-85"/>
<text text-anchor="middle" x="429" y="-73" font-family="Helvetica,sans-Serif" font-size="10.00">QGCFileHelper.h</text>
</a>
</g>
</g>
<!-- Node1&#45;&gt;Node10 -->
<g id="edge9_Node000001_Node000010" class="edge">
<title>Node1&#45;&gt;Node10</title>
<g id="a_edge9_Node000001_Node000010"><a xlink:title=" ">
<path fill="none" stroke="#63b8ff" d="M2512.86,-133.47C2212.1,-125.24 793.7,-86.47 487.4,-78.1"/>
<polygon fill="#63b8ff" stroke="#63b8ff" points="487.49,-74.6 477.4,-77.82 487.3,-81.6 487.49,-74.6"/>
</a>
</g>
</g>
<!-- Node17 -->
<g id="Node000017" class="node">
<title>Node17</title>
<g id="a_Node000017"><a xlink:href="QGCLoggingCategory_8h.html" target="_top" xlink:title=" ">
<polygon fill="white" stroke="#666666" points="2997,-85 2869,-85 2869,-66 2997,-66 2997,-85"/>
<text text-anchor="middle" x="2933" y="-73" font-family="Helvetica,sans-Serif" font-size="10.00">QGCLoggingCategory.h</text>
</a>
</g>
</g>
<!-- Node1&#45;&gt;Node17 -->
<g id="edge16_Node000001_Node000017" class="edge">
<title>Node1&#45;&gt;Node17</title>
<g id="a_edge16_Node000001_Node000017"><a xlink:title=" ">
<path fill="none" stroke="#63b8ff" d="M2625.08,-125.99C2691.22,-115.36 2800.9,-97.73 2869.94,-86.63"/>
<polygon fill="#63b8ff" stroke="#63b8ff" points="2870.5,-90.09 2879.82,-85.05 2869.39,-83.18 2870.5,-90.09"/>
</a>
</g>
</g>
<!-- Node19 -->
<g id="Node000019" class="node">
<title>Node19</title>
<g id="a_Node000019"><a xlink:href="QGCNetworkHelper_8h.html" target="_top" xlink:title=" ">
<polygon fill="white" stroke="#666666" points="1473,-85 1353,-85 1353,-66 1473,-66 1473,-85"/>
<text text-anchor="middle" x="1413" y="-73" font-family="Helvetica,sans-Serif" font-size="10.00">QGCNetworkHelper.h</text>
</a>
</g>
</g>
<!-- Node1&#45;&gt;Node19 -->
<g id="edge18_Node000001_Node000019" class="edge">
<title>Node1&#45;&gt;Node19</title>
<g id="a_edge18_Node000001_Node000019"><a xlink:title=" ">
<path fill="none" stroke="#63b8ff" d="M2512.85,-132.16C2321.45,-122.47 1694.7,-90.76 1483.33,-80.06"/>
<polygon fill="#63b8ff" stroke="#63b8ff" points="1483.45,-76.56 1473.29,-79.55 1483.1,-83.55 1483.45,-76.56"/>
</a>
</g>
</g>
<!-- Node3 -->
<g id="Node000003" class="node">
<title>Node3</title>
<g id="a_Node000003"><a xlink:title=" ">
<polygon fill="#e0e0e0" stroke="#999999" points="2437.5,-24.5 2306.5,-24.5 2306.5,-5.5 2437.5,-5.5 2437.5,-24.5"/>
<text text-anchor="middle" x="2372" y="-12.5" font-family="Helvetica,sans-Serif" font-size="10.00">QtCore/QJsonDocument</text>
</a>
</g>
</g>
<!-- Node2&#45;&gt;Node3 -->
<g id="edge2_Node000002_Node000003" class="edge">
<title>Node2&#45;&gt;Node3</title>
<g id="a_edge2_Node000002_Node000003"><a xlink:title=" ">
<path fill="none" stroke="#63b8ff" d="M2470.88,-65.87C2451.78,-56.23 2420.63,-40.53 2398.4,-29.31"/>
<polygon fill="#63b8ff" stroke="#63b8ff" points="2399.69,-26.05 2389.19,-24.67 2396.54,-32.3 2399.69,-26.05"/>
</a>
</g>
</g>
<!-- Node4 -->
<g id="Node000004" class="node">
<title>Node4</title>
<g id="a_Node000004"><a xlink:title=" ">
<polygon fill="#e0e0e0" stroke="#999999" points="2568.5,-24.5 2455.5,-24.5 2455.5,-5.5 2568.5,-5.5 2568.5,-24.5"/>
<text text-anchor="middle" x="2512" y="-12.5" font-family="Helvetica,sans-Serif" font-size="10.00">QtCore/QJsonObject</text>
</a>
</g>
</g>
<!-- Node2&#45;&gt;Node4 -->
<g id="edge3_Node000002_Node000004" class="edge">
<title>Node2&#45;&gt;Node4</title>
<g id="a_edge3_Node000002_Node000004"><a xlink:title=" ">
<path fill="none" stroke="#63b8ff" d="M2491.54,-65.87C2494.94,-57.57 2500.19,-44.78 2504.52,-34.22"/>
<polygon fill="#63b8ff" stroke="#63b8ff" points="2507.89,-35.25 2508.44,-24.67 2501.41,-32.59 2507.89,-35.25"/>
</a>
</g>
</g>
<!-- Node5 -->
<g id="Node000005" class="node">
<title>Node5</title>
<g id="a_Node000005"><a xlink:title=" ">
<polygon fill="#e0e0e0" stroke="#999999" points="2695,-24.5 2587,-24.5 2587,-5.5 2695,-5.5 2695,-24.5"/>
<text text-anchor="middle" x="2641" y="-12.5" font-family="Helvetica,sans-Serif" font-size="10.00">QtCore/QJsonValue</text>
</a>
</g>
</g>
<!-- Node2&#45;&gt;Node5 -->
<g id="edge4_Node000002_Node000005" class="edge">
<title>Node2&#45;&gt;Node5</title>
<g id="a_edge4_Node000002_Node000005"><a xlink:title=" ">
<path fill="none" stroke="#63b8ff" d="M2510.25,-65.99C2536.31,-56.03 2579.68,-39.45 2609.27,-28.13"/>
<polygon fill="#63b8ff" stroke="#63b8ff" points="2610.64,-31.36 2618.73,-24.52 2608.14,-24.82 2610.64,-31.36"/>
</a>
</g>
</g>
<!-- Node6 -->
<g id="Node000006" class="node">
<title>Node6</title>
<g id="a_Node000006"><a xlink:title=" ">
<polygon fill="#e0e0e0" stroke="#999999" points="2820.5,-24.5 2713.5,-24.5 2713.5,-5.5 2820.5,-5.5 2820.5,-24.5"/>
<text text-anchor="middle" x="2767" y="-12.5" font-family="Helvetica,sans-Serif" font-size="10.00">QtCore/QStringList</text>
</a>
</g>
</g>
<!-- Node2&#45;&gt;Node6 -->
<g id="edge5_Node000002_Node000006" class="edge">
<title>Node2&#45;&gt;Node6</title>
<g id="a_edge5_Node000002_Node000006"><a xlink:title=" ">
<path fill="none" stroke="#63b8ff" d="M2528.65,-66.32C2572.09,-57.53 2642.97,-43.07 2704,-30 2708.94,-28.94 2714.1,-27.82 2719.24,-26.7"/>
<polygon fill="#63b8ff" stroke="#63b8ff" points="2720.03,-30.1 2729.04,-24.53 2718.52,-23.27 2720.03,-30.1"/>
</a>
</g>
</g>
<!-- Node11 -->
<g id="Node000011" class="node">
<title>Node11</title>
<g id="a_Node000011"><a xlink:title=" ">
<polygon fill="#e0e0e0" stroke="#999999" points="334,-24.5 224,-24.5 224,-5.5 334,-5.5 334,-24.5"/>
<text text-anchor="middle" x="279" y="-12.5" font-family="Helvetica,sans-Serif" font-size="10.00">QtCore/QByteArray</text>
</a>
</g>
</g>
<!-- Node10&#45;&gt;Node11 -->
<g id="edge10_Node000010_Node000011" class="edge">
<title>Node10&#45;&gt;Node11</title>
<g id="a_edge10_Node000010_Node000011"><a xlink:title=" ">
<path fill="none" stroke="#63b8ff" d="M407.19,-65.99C381.75,-56.07 339.49,-39.59 310.49,-28.28"/>
<polygon fill="#63b8ff" stroke="#63b8ff" points="311.43,-24.89 300.84,-24.52 308.88,-31.41 311.43,-24.89"/>
</a>
</g>
</g>
<!-- Node12 -->
<g id="Node000012" class="node">
<title>Node12</title>
<g id="a_Node000012"><a xlink:title=" ">
<polygon fill="#e0e0e0" stroke="#999999" points="506,-24.5 352,-24.5 352,-5.5 506,-5.5 506,-24.5"/>
<text text-anchor="middle" x="429" y="-12.5" font-family="Helvetica,sans-Serif" font-size="10.00">QtCore/QCryptographicHash</text>
</a>
</g>
</g>
<!-- Node10&#45;&gt;Node12 -->
<g id="edge11_Node000010_Node000012" class="edge">
<title>Node10&#45;&gt;Node12</title>
<g id="a_edge11_Node000010_Node000012"><a xlink:title=" ">
<path fill="none" stroke="#63b8ff" d="M429,-65.87C429,-57.75 429,-45.31 429,-34.89"/>
<polygon fill="#63b8ff" stroke="#63b8ff" points="432.5,-34.67 429,-24.67 425.5,-34.67 432.5,-34.67"/>
</a>
</g>
</g>
<!-- Node13 -->
<g id="Node000013" class="node">
<title>Node13</title>
<g id="a_Node000013"><a xlink:title=" ">
<polygon fill="#e0e0e0" stroke="#999999" points="613.5,-24.5 524.5,-24.5 524.5,-5.5 613.5,-5.5 613.5,-24.5"/>
<text text-anchor="middle" x="569" y="-12.5" font-family="Helvetica,sans-Serif" font-size="10.00">QtCore/QString</text>
</a>
</g>
</g>
<!-- Node10&#45;&gt;Node13 -->
<g id="edge12_Node000010_Node000013" class="edge">
<title>Node10&#45;&gt;Node13</title>
<g id="a_edge12_Node000010_Node000013"><a xlink:title=" ">
<path fill="none" stroke="#63b8ff" d="M449.36,-65.99C473,-56.12 512.2,-39.73 539.25,-28.43"/>
<polygon fill="#63b8ff" stroke="#63b8ff" points="540.74,-31.6 548.62,-24.52 538.04,-25.14 540.74,-31.6"/>
</a>
</g>
</g>
<!-- Node14 -->
<g id="Node000014" class="node">
<title>Node14</title>
<g id="a_Node000014"><a xlink:title=" ">
<polygon fill="#e0e0e0" stroke="#999999" points="130,-24.5 0,-24.5 0,-5.5 130,-5.5 130,-24.5"/>
<text text-anchor="middle" x="65" y="-12.5" font-family="Helvetica,sans-Serif" font-size="10.00">QtCore/QTemporaryFile</text>
</a>
</g>
</g>
<!-- Node10&#45;&gt;Node14 -->
<g id="edge13_Node000010_Node000014" class="edge">
<title>Node10&#45;&gt;Node14</title>
<g id="a_edge13_Node000010_Node000014"><a xlink:title=" ">
<path fill="none" stroke="#63b8ff" d="M380.94,-67.65C323.35,-59.31 223.97,-44.55 139,-30 132.42,-28.87 125.52,-27.64 118.69,-26.38"/>
<polygon fill="#63b8ff" stroke="#63b8ff" points="119.25,-22.93 108.78,-24.54 117.97,-29.81 119.25,-22.93"/>
</a>
</g>
</g>
<!-- Node15 -->
<g id="Node000015" class="node">
<title>Node15</title>
<g id="a_Node000015"><a xlink:title=" ">
<polygon fill="#e0e0e0" stroke="#999999" points="706.5,-24.5 631.5,-24.5 631.5,-5.5 706.5,-5.5 706.5,-24.5"/>
<text text-anchor="middle" x="669" y="-12.5" font-family="Helvetica,sans-Serif" font-size="10.00">QtCore/QUrl</text>
</a>
</g>
</g>
<!-- Node10&#45;&gt;Node15 -->
<g id="edge14_Node000010_Node000015" class="edge">
<title>Node10&#45;&gt;Node15</title>
<g id="a_edge14_Node000010_Node000015"><a xlink:title=" ">
<path fill="none" stroke="#63b8ff" d="M469.47,-65.94C508.65,-57.48 569.64,-43.82 622,-30 625.13,-29.17 628.36,-28.29 631.6,-27.37"/>
<polygon fill="#63b8ff" stroke="#63b8ff" points="632.61,-30.72 641.25,-24.58 630.67,-24 632.61,-30.72"/>
</a>
</g>
</g>
<!-- Node16 -->
<g id="Node000016" class="node">
<title>Node16</title>
<g id="a_Node000016"><a xlink:title=" ">
<polygon fill="#e0e0e0" stroke="#999999" points="206,-24.5 148,-24.5 148,-5.5 206,-5.5 206,-24.5"/>
<text text-anchor="middle" x="177" y="-12.5" font-family="Helvetica,sans-Serif" font-size="10.00">memory</text>
</a>
</g>
</g>
<!-- Node10&#45;&gt;Node16 -->
<g id="edge15_Node000010_Node000016" class="edge">
<title>Node10&#45;&gt;Node16</title>
<g id="a_edge15_Node000010_Node000016"><a xlink:title=" ">
<path fill="none" stroke="#63b8ff" d="M380.91,-66.6C337.21,-58.93 271.18,-46.09 215,-30 212.72,-29.35 210.38,-28.62 208.03,-27.86"/>
<polygon fill="#63b8ff" stroke="#63b8ff" points="209.11,-24.53 198.52,-24.56 206.82,-31.14 209.11,-24.53"/>
</a>
</g>
</g>
<!-- Node18 -->
<g id="Node000018" class="node">
<title>Node18</title>
<g id="a_Node000018"><a xlink:title=" ">
<polygon fill="#e0e0e0" stroke="#999999" points="3004.5,-24.5 2861.5,-24.5 2861.5,-5.5 3004.5,-5.5 3004.5,-24.5"/>
<text text-anchor="middle" x="2933" y="-12.5" font-family="Helvetica,sans-Serif" font-size="10.00">QtCore/QLoggingCategory</text>
</a>
</g>
</g>
<!-- Node17&#45;&gt;Node18 -->
<g id="edge17_Node000017_Node000018" class="edge">
<title>Node17&#45;&gt;Node18</title>
<g id="a_edge17_Node000017_Node000018"><a xlink:title=" ">
<path fill="none" stroke="#63b8ff" d="M2933,-65.87C2933,-57.75 2933,-45.31 2933,-34.89"/>
<polygon fill="#63b8ff" stroke="#63b8ff" points="2936.5,-34.67 2933,-24.67 2929.5,-34.67 2936.5,-34.67"/>
</a>
</g>
</g>
<!-- Node19&#45;&gt;Node3 -->
<g id="edge19_Node000019_Node000003" class="edge">
<title>Node19&#45;&gt;Node3</title>
<g id="a_edge19_Node000019_Node000003"><a xlink:title=" ">
<path fill="none" stroke="#63b8ff" d="M1473.26,-74.25C1616.55,-73.05 1988.73,-66.36 2297,-30 2305.04,-29.05 2313.52,-27.76 2321.77,-26.34"/>
<polygon fill="#63b8ff" stroke="#63b8ff" points="2322.45,-29.77 2331.67,-24.56 2321.21,-22.88 2322.45,-29.77"/>
</a>
</g>
</g>
<!-- Node19&#45;&gt;Node13 -->
<g id="edge22_Node000019_Node000013" class="edge">
<title>Node19&#45;&gt;Node13</title>
<g id="a_edge22_Node000019_Node000013"><a xlink:title=" ">
<path fill="none" stroke="#63b8ff" d="M1352.78,-75.24C1219.94,-75.97 892.17,-72.83 622,-30 617.14,-29.23 612.09,-28.2 607.12,-27.05"/>
<polygon fill="#63b8ff" stroke="#63b8ff" points="607.66,-23.58 597.11,-24.55 605.96,-30.37 607.66,-23.58"/>
</a>
</g>
</g>
<!-- Node19&#45;&gt;Node15 -->
<g id="edge23_Node000019_Node000015" class="edge">
<title>Node19&#45;&gt;Node15</title>
<g id="a_edge23_Node000019_Node000015"><a xlink:title=" ">
<path fill="none" stroke="#63b8ff" d="M1352.78,-75.2C1231.34,-75.62 948.77,-71.55 716,-30 712.06,-29.3 707.98,-28.38 703.94,-27.35"/>
<polygon fill="#63b8ff" stroke="#63b8ff" points="704.69,-23.92 694.12,-24.62 702.81,-30.67 704.69,-23.92"/>
</a>
</g>
</g>
<!-- Node20 -->
<g id="Node000020" class="node">
<title>Node20</title>
<g id="a_Node000020"><a xlink:title=" ">
<polygon fill="#e0e0e0" stroke="#999999" points="803,-24.5 725,-24.5 725,-5.5 803,-5.5 803,-24.5"/>
<text text-anchor="middle" x="764" y="-12.5" font-family="Helvetica,sans-Serif" font-size="10.00">QtCore/QList</text>
</a>
</g>
</g>
<!-- Node19&#45;&gt;Node20 -->
<g id="edge20_Node000019_Node000020" class="edge">
<title>Node19&#45;&gt;Node20</title>
<g id="a_edge20_Node000019_Node000020"><a xlink:title=" ">
<path fill="none" stroke="#63b8ff" d="M1352.76,-74.2C1243.92,-72.75 1007.62,-65.36 812,-30 807.87,-29.25 803.58,-28.29 799.35,-27.22"/>
<polygon fill="#63b8ff" stroke="#63b8ff" points="800.24,-23.83 789.67,-24.56 798.39,-30.58 800.24,-23.83"/>
</a>
</g>
</g>
<!-- Node21 -->
<g id="Node000021" class="node">
<title>Node21</title>
<g id="a_Node000021"><a xlink:title=" ">
<polygon fill="#e0e0e0" stroke="#999999" points="900.5,-24.5 821.5,-24.5 821.5,-5.5 900.5,-5.5 900.5,-24.5"/>
<text text-anchor="middle" x="861" y="-12.5" font-family="Helvetica,sans-Serif" font-size="10.00">QtCore/QPair</text>
</a>
</g>
</g>
<!-- Node19&#45;&gt;Node21 -->
<g id="edge21_Node000019_Node000021" class="edge">
<title>Node19&#45;&gt;Node21</title>
<g id="a_edge21_Node000019_Node000021"><a xlink:title=" ">
<path fill="none" stroke="#63b8ff" d="M1352.74,-72.98C1257.68,-69.74 1067.41,-59.8 909,-30 905.03,-29.25 900.93,-28.32 896.86,-27.28"/>
<polygon fill="#63b8ff" stroke="#63b8ff" points="897.5,-23.83 886.93,-24.57 895.65,-30.58 897.5,-23.83"/>
</a>
</g>
</g>
<!-- Node22 -->
<g id="Node000022" class="node">
<title>Node22</title>
<g id="a_Node000022"><a xlink:title=" ">
<polygon fill="#e0e0e0" stroke="#999999" points="1013.5,-24.5 918.5,-24.5 918.5,-5.5 1013.5,-5.5 1013.5,-24.5"/>
<text text-anchor="middle" x="966" y="-12.5" font-family="Helvetica,sans-Serif" font-size="10.00">QtCore/QVariant</text>
</a>
</g>
</g>
<!-- Node19&#45;&gt;Node22 -->
<g id="edge24_Node000019_Node000022" class="edge">
<title>Node19&#45;&gt;Node22</title>
<g id="a_edge24_Node000019_Node000022"><a xlink:title=" ">
<path fill="none" stroke="#63b8ff" d="M1352.69,-70.12C1275.58,-63.94 1138.13,-51.03 1022,-30 1017.01,-29.1 1011.81,-28 1006.67,-26.83"/>
<polygon fill="#63b8ff" stroke="#63b8ff" points="1007.48,-23.43 996.94,-24.51 1005.86,-30.24 1007.48,-23.43"/>
</a>
</g>
</g>
<!-- Node23 -->
<g id="Node000023" class="node">
<title>Node23</title>
<g id="a_Node000023"><a xlink:title=" ">
<polygon fill="#e0e0e0" stroke="#999999" points="1174.5,-30 1031.5,-30 1031.5,0 1174.5,0 1174.5,-30"/>
<text text-anchor="start" x="1039.5" y="-18" font-family="Helvetica,sans-Serif" font-size="10.00">QtHttpServer/QHttpServer</text>
<text text-anchor="middle" x="1103" y="-7" font-family="Helvetica,sans-Serif" font-size="10.00">Request</text>
</a>
</g>
</g>
<!-- Node19&#45;&gt;Node23 -->
<g id="edge25_Node000019_Node000023" class="edge">
<title>Node19&#45;&gt;Node23</title>
<g id="a_edge25_Node000019_Node000023"><a xlink:title=" ">
<path fill="none" stroke="#63b8ff" d="M1367.92,-65.99C1319.98,-56.95 1243.14,-42.45 1184.53,-31.39"/>
<polygon fill="#63b8ff" stroke="#63b8ff" points="1185.02,-27.92 1174.55,-29.5 1183.73,-34.8 1185.02,-27.92"/>
</a>
</g>
</g>
<!-- Node24 -->
<g id="Node000024" class="node">
<title>Node24</title>
<g id="a_Node000024"><a xlink:title=" ">
<polygon fill="#e0e0e0" stroke="#999999" points="1335.5,-30 1192.5,-30 1192.5,0 1335.5,0 1335.5,-30"/>
<text text-anchor="start" x="1200.5" y="-18" font-family="Helvetica,sans-Serif" font-size="10.00">QtHttpServer/QHttpServer</text>
<text text-anchor="middle" x="1264" y="-7" font-family="Helvetica,sans-Serif" font-size="10.00">Responder</text>
</a>
</g>
</g>
<!-- Node19&#45;&gt;Node24 -->
<g id="edge26_Node000019_Node000024" class="edge">
<title>Node19&#45;&gt;Node24</title>
<g id="a_edge26_Node000019_Node000024"><a xlink:title=" ">
<path fill="none" stroke="#63b8ff" d="M1391.33,-65.99C1369.89,-57.57 1336.42,-44.43 1309.17,-33.73"/>
<polygon fill="#63b8ff" stroke="#63b8ff" points="1310.41,-30.46 1299.82,-30.06 1307.85,-36.98 1310.41,-30.46"/>
</a>
</g>
</g>
<!-- Node25 -->
<g id="Node000025" class="node">
<title>Node25</title>
<g id="a_Node000025"><a xlink:title=" ">
<polygon fill="#e0e0e0" stroke="#999999" points="1472.5,-24.5 1353.5,-24.5 1353.5,-5.5 1472.5,-5.5 1472.5,-24.5"/>
<text text-anchor="middle" x="1413" y="-12.5" font-family="Helvetica,sans-Serif" font-size="10.00">QtNetwork/QHttpPart</text>
</a>
</g>
</g>
<!-- Node19&#45;&gt;Node25 -->
<g id="edge27_Node000019_Node000025" class="edge">
<title>Node19&#45;&gt;Node25</title>
<g id="a_edge27_Node000019_Node000025"><a xlink:title=" ">
<path fill="none" stroke="#63b8ff" d="M1413,-65.87C1413,-57.75 1413,-45.31 1413,-34.89"/>
<polygon fill="#63b8ff" stroke="#63b8ff" points="1416.5,-34.67 1413,-24.67 1409.5,-34.67 1416.5,-34.67"/>
</a>
</g>
</g>
<!-- Node26 -->
<g id="Node000026" class="node">
<title>Node26</title>
<g id="a_Node000026"><a xlink:title=" ">
<polygon fill="#e0e0e0" stroke="#999999" points="1639.5,-24.5 1490.5,-24.5 1490.5,-5.5 1639.5,-5.5 1639.5,-24.5"/>
<text text-anchor="middle" x="1565" y="-12.5" font-family="Helvetica,sans-Serif" font-size="10.00">QtNetwork/QNetworkReply</text>
</a>
</g>
</g>
<!-- Node19&#45;&gt;Node26 -->
<g id="edge28_Node000019_Node000026" class="edge">
<title>Node19&#45;&gt;Node26</title>
<g id="a_edge28_Node000019_Node000026"><a xlink:title=" ">
<path fill="none" stroke="#63b8ff" d="M1435.1,-65.99C1460.99,-56.03 1504.08,-39.45 1533.47,-28.13"/>
<polygon fill="#63b8ff" stroke="#63b8ff" points="1534.8,-31.38 1542.87,-24.52 1532.28,-24.84 1534.8,-31.38"/>
</a>
</g>
</g>
<!-- Node27 -->
<g id="Node000027" class="node">
<title>Node27</title>
<g id="a_Node000027"><a xlink:title=" ">
<polygon fill="#e0e0e0" stroke="#999999" points="1818.5,-24.5 1657.5,-24.5 1657.5,-5.5 1818.5,-5.5 1818.5,-24.5"/>
<text text-anchor="middle" x="1738" y="-12.5" font-family="Helvetica,sans-Serif" font-size="10.00">QtNetwork/QNetworkRequest</text>
</a>
</g>
</g>
<!-- Node19&#45;&gt;Node27 -->
<g id="edge29_Node000019_Node000027" class="edge">
<title>Node19&#45;&gt;Node27</title>
<g id="a_edge29_Node000019_Node000027"><a xlink:title=" ">
<path fill="none" stroke="#63b8ff" d="M1460.26,-65.99C1518.63,-55.49 1617.86,-37.62 1680.57,-26.34"/>
<polygon fill="#63b8ff" stroke="#63b8ff" points="1681.46,-29.73 1690.69,-24.52 1680.22,-22.84 1681.46,-29.73"/>
</a>
</g>
</g>
<!-- Node28 -->
<g id="Node000028" class="node">
<title>Node28</title>
<g id="a_Node000028"><a xlink:title=" ">
<polygon fill="#e0e0e0" stroke="#999999" points="1981,-24.5 1837,-24.5 1837,-5.5 1981,-5.5 1981,-24.5"/>
<text text-anchor="middle" x="1909" y="-12.5" font-family="Helvetica,sans-Serif" font-size="10.00">QtNetwork/QSslCertificate</text>
</a>
</g>
</g>
<!-- Node19&#45;&gt;Node28 -->
<g id="edge30_Node000019_Node000028" class="edge">
<title>Node19&#45;&gt;Node28</title>
<g id="a_edge30_Node000019_Node000028"><a xlink:title=" ">
<path fill="none" stroke="#63b8ff" d="M1473.13,-69.22C1553.82,-61.86 1701.52,-47.44 1827,-30 1835.03,-28.88 1843.49,-27.58 1851.8,-26.23"/>
<polygon fill="#63b8ff" stroke="#63b8ff" points="1852.52,-29.66 1861.81,-24.57 1851.38,-22.75 1852.52,-29.66"/>
</a>
</g>
</g>
<!-- Node29 -->
<g id="Node000029" class="node">
<title>Node29</title>
<g id="a_Node000029"><a xlink:title=" ">
<polygon fill="#e0e0e0" stroke="#999999" points="2158.5,-24.5 1999.5,-24.5 1999.5,-5.5 2158.5,-5.5 2158.5,-24.5"/>
<text text-anchor="middle" x="2079" y="-12.5" font-family="Helvetica,sans-Serif" font-size="10.00">QtNetwork/QSslConfiguration</text>
</a>
</g>
</g>
<!-- Node19&#45;&gt;Node29 -->
<g id="edge31_Node000019_Node000029" class="edge">
<title>Node19&#45;&gt;Node29</title>
<g id="a_edge31_Node000019_Node000029"><a xlink:title=" ">
<path fill="none" stroke="#63b8ff" d="M1473.38,-71.42C1578.56,-65.7 1802.15,-51.98 1990,-30 1999.45,-28.89 2009.44,-27.52 2019.18,-26.07"/>
<polygon fill="#63b8ff" stroke="#63b8ff" points="2019.84,-29.51 2029.2,-24.54 2018.79,-22.59 2019.84,-29.51"/>
</a>
</g>
</g>
<!-- Node30 -->
<g id="Node000030" class="node">
<title>Node30</title>
<g id="a_Node000030"><a xlink:title=" ">
<polygon fill="#e0e0e0" stroke="#999999" points="2288,-24.5 2176,-24.5 2176,-5.5 2288,-5.5 2288,-24.5"/>
<text text-anchor="middle" x="2232" y="-12.5" font-family="Helvetica,sans-Serif" font-size="10.00">QtNetwork/QSslKey</text>
</a>
</g>
</g>
<!-- Node19&#45;&gt;Node30 -->
<g id="edge32_Node000019_Node000030" class="edge">
<title>Node19&#45;&gt;Node30</title>
<g id="a_edge32_Node000019_Node000030"><a xlink:title=" ">
<path fill="none" stroke="#63b8ff" d="M1473.41,-74.07C1601.73,-72.46 1910.72,-64.95 2167,-30 2173.46,-29.12 2180.22,-27.95 2186.85,-26.65"/>
<polygon fill="#63b8ff" stroke="#63b8ff" points="2188,-29.99 2197.09,-24.55 2186.59,-23.13 2188,-29.99"/>
</a>
</g>
</g>
</g>
</svg>

<g id="navigator" transform="translate(0 0)" fill="#404254">
  <rect fill="#f2f5e9" fill-opacity="0.5" stroke="#606060" stroke-width=".5" x="0" y="0" width="60" height="60"/>
  <use id="zoomplus" xlink:href="#zoomPlus" x="17" y="9" onmousedown="handleZoom(evt,'in')"/>
  <use id="zoomminus" xlink:href="#zoomMin" x="42" y="9" onmousedown="handleZoom(evt,'out')"/>
  <use id="reset" xlink:href="#resetDef" x="30" y="36" onmousedown="handleReset()"/>
   <use id="arrowup" xlink:href="#arrowUp" x="0" y="0" onmousedown="handlePan(0,-1)"/>
  <use id="arrowright" xlink:href="#arrowRight" x="0" y="0" onmousedown="handlePan(1,0)"/>
  <use id="arrowdown" xlink:href="#arrowDown" x="0" y="0" onmousedown="handlePan(0,1)"/>
  <use id="arrowleft" xlink:href="#arrowLeft" x="0" y="0" onmousedown="handlePan(-1,0)"/>
</g>
<svg viewBox="0 0 15 15" width="100%" height="30px" preserveAspectRatio="xMaxYMin meet">
 <g id="arrow_out" transform="scale(0.3 0.3)">
  <a xlink:href="JsonParsing_8cc__incl_org.svg" target="_base">
   <rect id="button" ry="5" rx="5" y="6" x="6" height="38" width="38"
        fill="#f2f5e9" fill-opacity="0.5" stroke="#606060" stroke-width="1.0"/>
   <path id="arrow"
     d="M 11.500037,31.436501 C 11.940474,20.09759 22.043105,11.32322 32.158766,21.979434 L 37.068811,17.246167 C 37.068811,17.246167 37.088388,32 37.088388,32 L 22.160133,31.978069 C 22.160133,31.978069 26.997745,27.140456 26.997745,27.140456 C 18.528582,18.264221 13.291696,25.230495 11.500037,31.436501 z"
     style="fill:#404040;"/>
  </a>
 </g>
</svg>

<style type='text/css'>
<![CDATA[
[data-mouse-over-selected='false'] { opacity: 0.7; }
[data-mouse-over-selected='true']  { opacity: 1.0; }
]]>
</style>
<script type="application/ecmascript"><![CDATA[
document.addEventListener('DOMContentLoaded', (event) => {
  highlightEdges();
  highlightAdjacentNodes();
});
]]></script>
</svg>
