<?xml version="1.0" encoding="UTF-8" standalone="no"?>
<!DOCTYPE svg PUBLIC "-//W3C//DTD SVG 1.1//EN"
 "http://www.w3.org/Graphics/SVG/1.1/DTD/svg11.dtd">
<!-- Generated by graphviz version 2.43.0 (0)
 -->
<!-- Title: src/Utilities/Geo/KMLHelper.h Pages: 1 -->
<svg width="588pt" height="137pt"
 viewBox="0.00 0.00 587.50 137.00" xmlns="http://www.w3.org/2000/svg" xmlns:xlink="http://www.w3.org/1999/xlink">
<g id="graph0" class="graph" transform="scale(1 1) rotate(0) translate(4 133)">
<title>src/Utilities/Geo/KMLHelper.h</title>
<!-- Node1 -->
<g id="Node000001" class="node">
<title>Node1</title>
<g id="a_Node000001"><a xlink:title=" ">
<polygon fill="#999999" stroke="#666666" points="218.5,-129 59.5,-129 59.5,-110 218.5,-110 218.5,-129"/>
<text text-anchor="middle" x="139" y="-117" font-family="Helvetica,sans-Serif" font-size="10.00">src/Utilities/Geo/KMLHelper.h</text>
</a>
</g>
</g>
<!-- Node2 -->
<g id="Node000002" class="node">
<title>Node2</title>
<g id="a_Node000002"><a xlink:title=" ">
<polygon fill="#e0e0e0" stroke="#999999" points="78,-19 0,-19 0,0 78,0 78,-19"/>
<text text-anchor="middle" x="39" y="-7" font-family="Helvetica,sans-Serif" font-size="10.00">QtCore/QList</text>
</a>
</g>
</g>
<!-- Node1&#45;&gt;Node2 -->
<g id="edge1_Node000001_Node000002" class="edge">
<title>Node1&#45;&gt;Node2</title>
<g id="a_edge1_Node000001_Node000002"><a xlink:title=" ">
<path fill="none" stroke="#63b8ff" d="M130.82,-109.66C114.03,-91.54 75.49,-49.91 54.07,-26.77"/>
<polygon fill="#63b8ff" stroke="#63b8ff" points="56.38,-24.12 47.02,-19.16 51.24,-28.87 56.38,-24.12"/>
</a>
</g>
</g>
<!-- Node3 -->
<g id="Node000003" class="node">
<title>Node3</title>
<g id="a_Node000003"><a xlink:title=" ">
<polygon fill="#e0e0e0" stroke="#999999" points="261.5,-19 96.5,-19 96.5,0 261.5,0 261.5,-19"/>
<text text-anchor="middle" x="179" y="-7" font-family="Helvetica,sans-Serif" font-size="10.00">QtPositioning/QGeoCoordinate</text>
</a>
</g>
</g>
<!-- Node1&#45;&gt;Node3 -->
<g id="edge2_Node000001_Node000003" class="edge">
<title>Node1&#45;&gt;Node3</title>
<g id="a_edge2_Node000001_Node000003"><a xlink:title=" ">
<path fill="none" stroke="#63b8ff" d="M141.18,-109.73C144.35,-97.36 150.67,-74.13 158,-55 161.44,-46.03 165.91,-36.34 169.84,-28.31"/>
<polygon fill="#63b8ff" stroke="#63b8ff" points="173.06,-29.7 174.42,-19.2 166.8,-26.56 173.06,-29.7"/>
</a>
</g>
</g>
<!-- Node4 -->
<g id="Node000004" class="node">
<title>Node4</title>
<g id="a_Node000004"><a xlink:href="ShapeFileHelper_8h.html" target="_top" xlink:title=" ">
<polygon fill="white" stroke="#666666" points="271,-74 167,-74 167,-55 271,-55 271,-74"/>
<text text-anchor="middle" x="219" y="-62" font-family="Helvetica,sans-Serif" font-size="10.00">ShapeFileHelper.h</text>
</a>
</g>
</g>
<!-- Node1&#45;&gt;Node4 -->
<g id="edge3_Node000001_Node000004" class="edge">
<title>Node1&#45;&gt;Node4</title>
<g id="a_edge3_Node000001_Node000004"><a xlink:title=" ">
<path fill="none" stroke="#63b8ff" d="M151.85,-109.98C164.14,-101.84 182.91,-89.41 197.48,-79.76"/>
<polygon fill="#63b8ff" stroke="#63b8ff" points="199.51,-82.61 205.91,-74.17 195.64,-76.78 199.51,-82.61"/>
</a>
</g>
</g>
<!-- Node4&#45;&gt;Node2 -->
<g id="edge4_Node000004_Node000002" class="edge">
<title>Node4&#45;&gt;Node2</title>
<g id="a_edge4_Node000004_Node000002"><a xlink:title=" ">
<path fill="none" stroke="#63b8ff" d="M190.08,-54.98C159.73,-46.05 111.83,-31.94 78.12,-22.02"/>
<polygon fill="#63b8ff" stroke="#63b8ff" points="78.73,-18.55 68.15,-19.08 76.75,-25.26 78.73,-18.55"/>
</a>
</g>
</g>
<!-- Node4&#45;&gt;Node3 -->
<g id="edge6_Node000004_Node000003" class="edge">
<title>Node4&#45;&gt;Node3</title>
<g id="a_edge6_Node000004_Node000003"><a xlink:title=" ">
<path fill="none" stroke="#63b8ff" d="M212.39,-54.75C206.74,-47.26 198.46,-36.28 191.55,-27.13"/>
<polygon fill="#63b8ff" stroke="#63b8ff" points="194.3,-24.96 185.48,-19.09 188.71,-29.18 194.3,-24.96"/>
</a>
</g>
</g>
<!-- Node5 -->
<g id="Node000005" class="node">
<title>Node5</title>
<g id="a_Node000005"><a xlink:title=" ">
<polygon fill="#e0e0e0" stroke="#999999" points="372,-19 280,-19 280,0 372,0 372,-19"/>
<text text-anchor="middle" x="326" y="-7" font-family="Helvetica,sans-Serif" font-size="10.00">QtCore/QObject</text>
</a>
</g>
</g>
<!-- Node4&#45;&gt;Node5 -->
<g id="edge5_Node000004_Node000005" class="edge">
<title>Node4&#45;&gt;Node5</title>
<g id="a_edge5_Node000004_Node000005"><a xlink:title=" ">
<path fill="none" stroke="#63b8ff" d="M236.19,-54.98C253.25,-46.54 279.63,-33.47 299.4,-23.68"/>
<polygon fill="#63b8ff" stroke="#63b8ff" points="301.09,-26.75 308.5,-19.17 297.98,-20.47 301.09,-26.75"/>
</a>
</g>
</g>
<!-- Node6 -->
<g id="Node000006" class="node">
<title>Node6</title>
<g id="a_Node000006"><a xlink:title=" ">
<polygon fill="#e0e0e0" stroke="#999999" points="579.5,-19 390.5,-19 390.5,0 579.5,0 579.5,-19"/>
<text text-anchor="middle" x="485" y="-7" font-family="Helvetica,sans-Serif" font-size="10.00">QtQmlIntegration/QtQmlIntegration</text>
</a>
</g>
</g>
<!-- Node4&#45;&gt;Node6 -->
<g id="edge7_Node000004_Node000006" class="edge">
<title>Node4&#45;&gt;Node6</title>
<g id="a_edge7_Node000004_Node000006"><a xlink:title=" ">
<path fill="none" stroke="#63b8ff" d="M261.74,-54.98C308.04,-45.76 381.98,-31.03 431.96,-21.07"/>
<polygon fill="#63b8ff" stroke="#63b8ff" points="432.8,-24.47 441.93,-19.08 431.44,-17.6 432.8,-24.47"/>
</a>
</g>
</g>
</g>
</svg>
