<?xml version="1.0" encoding="UTF-8" standalone="no"?>
<!DOCTYPE svg PUBLIC "-//W3C//DTD SVG 1.1//EN"
 "http://www.w3.org/Graphics/SVG/1.1/DTD/svg11.dtd">
<!-- Generated by graphviz version 2.43.0 (0)
 -->
<!-- Title: src/Utilities/Geo/KMLSchemaValidator.cc Pages: 1 -->
<svg width="874pt" height="148pt"
 viewBox="0.00 0.00 874.00 148.00" xmlns="http://www.w3.org/2000/svg" xmlns:xlink="http://www.w3.org/1999/xlink">
<g id="graph0" class="graph" transform="scale(1 1) rotate(0) translate(4 144)">
<title>src/Utilities/Geo/KMLSchemaValidator.cc</title>
<!-- Node1 -->
<g id="Node000001" class="node">
<title>Node1</title>
<g id="a_Node000001"><a xlink:title=" ">
<polygon fill="#999999" stroke="#666666" points="693,-140 535,-140 535,-110 693,-110 693,-140"/>
<text text-anchor="start" x="543" y="-128" font-family="Helvetica,sans-Serif" font-size="10.00">src/Utilities/Geo/KMLSchema</text>
<text text-anchor="middle" x="614" y="-117" font-family="Helvetica,sans-Serif" font-size="10.00">Validator.cc</text>
</a>
</g>
</g>
<!-- Node2 -->
<g id="Node000002" class="node">
<title>Node2</title>
<g id="a_Node000002"><a xlink:href="KMLSchemaValidator_8h.html" target="_top" xlink:title=" ">
<polygon fill="white" stroke="#666666" points="262,-74 134,-74 134,-55 262,-55 262,-74"/>
<text text-anchor="middle" x="198" y="-62" font-family="Helvetica,sans-Serif" font-size="10.00">KMLSchemaValidator.h</text>
</a>
</g>
</g>
<!-- Node1&#45;&gt;Node2 -->
<g id="edge1_Node000001_Node000002" class="edge">
<title>Node1&#45;&gt;Node2</title>
<g id="a_edge1_Node000001_Node000002"><a xlink:title=" ">
<path fill="none" stroke="#63b8ff" d="M534.77,-112.86C458,-102.06 342.63,-85.84 268.83,-75.46"/>
<polygon fill="#63b8ff" stroke="#63b8ff" points="269.09,-71.96 258.7,-74.04 268.12,-78.9 269.09,-71.96"/>
</a>
</g>
</g>
<!-- Node6 -->
<g id="Node000006" class="node">
<title>Node6</title>
<g id="a_Node000006"><a xlink:href="KMLDomDocument_8h.html" target="_top" xlink:title=" ">
<polygon fill="white" stroke="#666666" points="558,-74 438,-74 438,-55 558,-55 558,-74"/>
<text text-anchor="middle" x="498" y="-62" font-family="Helvetica,sans-Serif" font-size="10.00">KMLDomDocument.h</text>
</a>
</g>
</g>
<!-- Node1&#45;&gt;Node6 -->
<g id="edge5_Node000001_Node000006" class="edge">
<title>Node1&#45;&gt;Node6</title>
<g id="a_edge5_Node000001_Node000006"><a xlink:title=" ">
<path fill="none" stroke="#63b8ff" d="M586.22,-109.99C567.38,-100.49 542.65,-88.02 524.16,-78.69"/>
<polygon fill="#63b8ff" stroke="#63b8ff" points="525.64,-75.52 515.13,-74.14 522.48,-81.77 525.64,-75.52"/>
</a>
</g>
</g>
<!-- Node8 -->
<g id="Node000008" class="node">
<title>Node8</title>
<g id="a_Node000008"><a xlink:title=" ">
<polygon fill="#e0e0e0" stroke="#999999" points="694.5,-19 563.5,-19 563.5,0 694.5,0 694.5,-19"/>
<text text-anchor="middle" x="629" y="-7" font-family="Helvetica,sans-Serif" font-size="10.00">QtXml/QDomDocument</text>
</a>
</g>
</g>
<!-- Node1&#45;&gt;Node8 -->
<g id="edge12_Node000001_Node000008" class="edge">
<title>Node1&#45;&gt;Node8</title>
<g id="a_edge12_Node000001_Node000008"><a xlink:title=" ">
<path fill="none" stroke="#63b8ff" d="M615.9,-109.63C618.6,-89.21 623.54,-51.81 626.52,-29.24"/>
<polygon fill="#63b8ff" stroke="#63b8ff" points="630.01,-29.6 627.85,-19.23 623.07,-28.68 630.01,-29.6"/>
</a>
</g>
</g>
<!-- Node10 -->
<g id="Node000010" class="node">
<title>Node10</title>
<g id="a_Node000010"><a xlink:href="QGCLoggingCategory_8h.html" target="_top" xlink:title=" ">
<polygon fill="white" stroke="#666666" points="770,-74 642,-74 642,-55 770,-55 770,-74"/>
<text text-anchor="middle" x="706" y="-62" font-family="Helvetica,sans-Serif" font-size="10.00">QGCLoggingCategory.h</text>
</a>
</g>
</g>
<!-- Node1&#45;&gt;Node10 -->
<g id="edge9_Node000001_Node000010" class="edge">
<title>Node1&#45;&gt;Node10</title>
<g id="a_edge9_Node000001_Node000010"><a xlink:title=" ">
<path fill="none" stroke="#63b8ff" d="M636.27,-109.84C650.67,-100.68 669.33,-88.82 683.73,-79.66"/>
<polygon fill="#63b8ff" stroke="#63b8ff" points="685.92,-82.41 692.48,-74.09 682.17,-76.51 685.92,-82.41"/>
</a>
</g>
</g>
<!-- Node12 -->
<g id="Node000012" class="node">
<title>Node12</title>
<g id="a_Node000012"><a xlink:title=" ">
<polygon fill="#e0e0e0" stroke="#999999" points="866,-74 788,-74 788,-55 866,-55 866,-74"/>
<text text-anchor="middle" x="827" y="-62" font-family="Helvetica,sans-Serif" font-size="10.00">QtCore/QFile</text>
</a>
</g>
</g>
<!-- Node1&#45;&gt;Node12 -->
<g id="edge11_Node000001_Node000012" class="edge">
<title>Node1&#45;&gt;Node12</title>
<g id="a_edge11_Node000001_Node000012"><a xlink:title=" ">
<path fill="none" stroke="#63b8ff" d="M665.02,-109.99C702.1,-99.8 751.62,-86.2 786.11,-76.73"/>
<polygon fill="#63b8ff" stroke="#63b8ff" points="787.14,-80.08 795.86,-74.05 785.29,-73.33 787.14,-80.08"/>
</a>
</g>
</g>
<!-- Node3 -->
<g id="Node000003" class="node">
<title>Node3</title>
<g id="a_Node000003"><a xlink:title=" ">
<polygon fill="#e0e0e0" stroke="#999999" points="86,-19 0,-19 0,0 86,0 86,-19"/>
<text text-anchor="middle" x="43" y="-7" font-family="Helvetica,sans-Serif" font-size="10.00">QtCore/QHash</text>
</a>
</g>
</g>
<!-- Node2&#45;&gt;Node3 -->
<g id="edge2_Node000002_Node000003" class="edge">
<title>Node2&#45;&gt;Node3</title>
<g id="a_edge2_Node000002_Node000003"><a xlink:title=" ">
<path fill="none" stroke="#63b8ff" d="M173.1,-54.98C147.3,-46.16 106.78,-32.31 77.82,-22.41"/>
<polygon fill="#63b8ff" stroke="#63b8ff" points="78.69,-19.01 68.1,-19.08 76.43,-25.63 78.69,-19.01"/>
</a>
</g>
</g>
<!-- Node4 -->
<g id="Node000004" class="node">
<title>Node4</title>
<g id="a_Node000004"><a xlink:title=" ">
<polygon fill="#e0e0e0" stroke="#999999" points="181.5,-19 104.5,-19 104.5,0 181.5,0 181.5,-19"/>
<text text-anchor="middle" x="143" y="-7" font-family="Helvetica,sans-Serif" font-size="10.00">QtCore/QSet</text>
</a>
</g>
</g>
<!-- Node2&#45;&gt;Node4 -->
<g id="edge3_Node000002_Node000004" class="edge">
<title>Node2&#45;&gt;Node4</title>
<g id="a_edge3_Node000002_Node000004"><a xlink:title=" ">
<path fill="none" stroke="#63b8ff" d="M188.92,-54.75C180.91,-47.03 169.04,-35.6 159.38,-26.28"/>
<polygon fill="#63b8ff" stroke="#63b8ff" points="161.54,-23.51 151.91,-19.09 156.69,-28.55 161.54,-23.51"/>
</a>
</g>
</g>
<!-- Node5 -->
<g id="Node000005" class="node">
<title>Node5</title>
<g id="a_Node000005"><a xlink:title=" ">
<polygon fill="#e0e0e0" stroke="#999999" points="306.5,-19 199.5,-19 199.5,0 306.5,0 306.5,-19"/>
<text text-anchor="middle" x="253" y="-7" font-family="Helvetica,sans-Serif" font-size="10.00">QtCore/QStringList</text>
</a>
</g>
</g>
<!-- Node2&#45;&gt;Node5 -->
<g id="edge4_Node000002_Node000005" class="edge">
<title>Node2&#45;&gt;Node5</title>
<g id="a_edge4_Node000002_Node000005"><a xlink:title=" ">
<path fill="none" stroke="#63b8ff" d="M207.08,-54.75C215.09,-47.03 226.96,-35.6 236.62,-26.28"/>
<polygon fill="#63b8ff" stroke="#63b8ff" points="239.31,-28.55 244.09,-19.09 234.46,-23.51 239.31,-28.55"/>
</a>
</g>
</g>
<!-- Node7 -->
<g id="Node000007" class="node">
<title>Node7</title>
<g id="a_Node000007"><a xlink:title=" ">
<polygon fill="#e0e0e0" stroke="#999999" points="405,-19 325,-19 325,0 405,0 405,-19"/>
<text text-anchor="middle" x="365" y="-7" font-family="Helvetica,sans-Serif" font-size="10.00">QtGui/QColor</text>
</a>
</g>
</g>
<!-- Node6&#45;&gt;Node7 -->
<g id="edge6_Node000006_Node000007" class="edge">
<title>Node6&#45;&gt;Node7</title>
<g id="a_edge6_Node000006_Node000007"><a xlink:title=" ">
<path fill="none" stroke="#63b8ff" d="M476.63,-54.98C454.85,-46.3 420.84,-32.75 396.08,-22.88"/>
<polygon fill="#63b8ff" stroke="#63b8ff" points="397.34,-19.62 386.76,-19.17 394.75,-26.12 397.34,-19.62"/>
</a>
</g>
</g>
<!-- Node6&#45;&gt;Node8 -->
<g id="edge7_Node000006_Node000008" class="edge">
<title>Node6&#45;&gt;Node8</title>
<g id="a_edge7_Node000006_Node000008"><a xlink:title=" ">
<path fill="none" stroke="#63b8ff" d="M519.05,-54.98C540.41,-46.34 573.7,-32.87 598.06,-23.02"/>
<polygon fill="#63b8ff" stroke="#63b8ff" points="599.61,-26.17 607.57,-19.17 596.99,-19.68 599.61,-26.17"/>
</a>
</g>
</g>
<!-- Node9 -->
<g id="Node000009" class="node">
<title>Node9</title>
<g id="a_Node000009"><a xlink:title=" ">
<polygon fill="#e0e0e0" stroke="#999999" points="545,-19 423,-19 423,0 545,0 545,-19"/>
<text text-anchor="middle" x="484" y="-7" font-family="Helvetica,sans-Serif" font-size="10.00">QtXml/QDomElement</text>
</a>
</g>
</g>
<!-- Node6&#45;&gt;Node9 -->
<g id="edge8_Node000006_Node000009" class="edge">
<title>Node6&#45;&gt;Node9</title>
<g id="a_edge8_Node000006_Node000009"><a xlink:title=" ">
<path fill="none" stroke="#63b8ff" d="M495.69,-54.75C493.83,-47.72 491.16,-37.62 488.85,-28.84"/>
<polygon fill="#63b8ff" stroke="#63b8ff" points="492.21,-27.86 486.27,-19.09 485.44,-29.65 492.21,-27.86"/>
</a>
</g>
</g>
<!-- Node11 -->
<g id="Node000011" class="node">
<title>Node11</title>
<g id="a_Node000011"><a xlink:title=" ">
<polygon fill="#e0e0e0" stroke="#999999" points="855.5,-19 712.5,-19 712.5,0 855.5,0 855.5,-19"/>
<text text-anchor="middle" x="784" y="-7" font-family="Helvetica,sans-Serif" font-size="10.00">QtCore/QLoggingCategory</text>
</a>
</g>
</g>
<!-- Node10&#45;&gt;Node11 -->
<g id="edge10_Node000010_Node000011" class="edge">
<title>Node10&#45;&gt;Node11</title>
<g id="a_edge10_Node000010_Node000011"><a xlink:title=" ">
<path fill="none" stroke="#63b8ff" d="M718.53,-54.98C730.4,-46.92 748.46,-34.65 762.61,-25.03"/>
<polygon fill="#63b8ff" stroke="#63b8ff" points="764.94,-27.69 771.24,-19.17 761,-21.9 764.94,-27.69"/>
</a>
</g>
</g>
</g>
</svg>
