<?xml version="1.0" encoding="UTF-8" standalone="no"?>
<!DOCTYPE svg PUBLIC "-//W3C//DTD SVG 1.1//EN"
 "http://www.w3.org/Graphics/SVG/1.1/DTD/svg11.dtd">
<!-- Generated by graphviz version 2.43.0 (0)
 -->
<!-- Title: src/Utilities/Geo/KMLSchemaValidator.cc Pages: 1 -->
<svg width="1180pt" height="258pt"
 viewBox="0.00 0.00 1179.93 258.00" xmlns="http://www.w3.org/2000/svg" xmlns:xlink="http://www.w3.org/1999/xlink">
<g id="graph0" class="graph" transform="scale(1 1) rotate(0) translate(4 254)">
<title>src/Utilities/Geo/KMLSchemaValidator.cc</title>
<!-- Node1 -->
<g id="Node000001" class="node">
<title>Node1</title>
<g id="a_Node000001"><a xlink:title=" ">
<polygon fill="#999999" stroke="#666666" points="661.43,-250 503.43,-250 503.43,-220 661.43,-220 661.43,-250"/>
<text text-anchor="start" x="511.43" y="-238" font-family="Helvetica,sans-Serif" font-size="10.00">src/Utilities/Geo/KMLSchema</text>
<text text-anchor="middle" x="582.43" y="-227" font-family="Helvetica,sans-Serif" font-size="10.00">Validator.cc</text>
</a>
</g>
</g>
<!-- Node2 -->
<g id="Node000002" class="node">
<title>Node2</title>
<g id="a_Node000002"><a xlink:href="KMLSchemaValidator_8h.html" target="_top" xlink:title=" ">
<polygon fill="white" stroke="#666666" points="646.43,-184 518.43,-184 518.43,-165 646.43,-165 646.43,-184"/>
<text text-anchor="middle" x="582.43" y="-172" font-family="Helvetica,sans-Serif" font-size="10.00">KMLSchemaValidator.h</text>
</a>
</g>
</g>
<!-- Node1&#45;&gt;Node2 -->
<g id="edge1_Node000001_Node000002" class="edge">
<title>Node1&#45;&gt;Node2</title>
<g id="a_edge1_Node000001_Node000002"><a xlink:title=" ">
<path fill="none" stroke="#63b8ff" d="M582.43,-219.84C582.43,-212.21 582.43,-202.7 582.43,-194.45"/>
<polygon fill="#63b8ff" stroke="#63b8ff" points="585.93,-194.27 582.43,-184.27 578.93,-194.27 585.93,-194.27"/>
</a>
</g>
</g>
<!-- Node7 -->
<g id="Node000007" class="node">
<title>Node7</title>
<g id="a_Node000007"><a xlink:href="KMLDomDocument_8h.html" target="_top" xlink:title=" ">
<polygon fill="white" stroke="#666666" points="258.43,-184 138.43,-184 138.43,-165 258.43,-165 258.43,-184"/>
<text text-anchor="middle" x="198.43" y="-172" font-family="Helvetica,sans-Serif" font-size="10.00">KMLDomDocument.h</text>
</a>
</g>
</g>
<!-- Node1&#45;&gt;Node7 -->
<g id="edge6_Node000001_Node000007" class="edge">
<title>Node1&#45;&gt;Node7</title>
<g id="a_edge6_Node000001_Node000007"><a xlink:title=" ">
<path fill="none" stroke="#63b8ff" d="M503.33,-221.95C432.75,-211.2 330.59,-195.63 264.34,-185.54"/>
<polygon fill="#63b8ff" stroke="#63b8ff" points="264.84,-182.08 254.43,-184.03 263.79,-189 264.84,-182.08"/>
</a>
</g>
</g>
<!-- Node9 -->
<g id="Node000009" class="node">
<title>Node9</title>
<g id="a_Node000009"><a xlink:title=" ">
<polygon fill="#e0e0e0" stroke="#999999" points="387.93,-129 256.93,-129 256.93,-110 387.93,-110 387.93,-129"/>
<text text-anchor="middle" x="322.43" y="-117" font-family="Helvetica,sans-Serif" font-size="10.00">QtXml/QDomDocument</text>
</a>
</g>
</g>
<!-- Node1&#45;&gt;Node9 -->
<g id="edge23_Node000001_Node000009" class="edge">
<title>Node1&#45;&gt;Node9</title>
<g id="a_edge23_Node000001_Node000009"><a xlink:title=" ">
<path fill="none" stroke="#63b8ff" d="M550.29,-219.97C499.32,-197.72 400.71,-154.67 351.64,-133.25"/>
<polygon fill="#63b8ff" stroke="#63b8ff" points="352.8,-129.94 342.24,-129.14 350,-136.35 352.8,-129.94"/>
</a>
</g>
</g>
<!-- Node11 -->
<g id="Node000011" class="node">
<title>Node11</title>
<g id="a_Node000011"><a xlink:href="QGCLoggingCategory_8h.html" target="_top" xlink:title=" ">
<polygon fill="white" stroke="#666666" points="844.43,-184 716.43,-184 716.43,-165 844.43,-165 844.43,-184"/>
<text text-anchor="middle" x="780.43" y="-172" font-family="Helvetica,sans-Serif" font-size="10.00">QGCLoggingCategory.h</text>
</a>
</g>
</g>
<!-- Node1&#45;&gt;Node11 -->
<g id="edge11_Node000001_Node000011" class="edge">
<title>Node1&#45;&gt;Node11</title>
<g id="a_edge11_Node000001_Node000011"><a xlink:title=" ">
<path fill="none" stroke="#63b8ff" d="M629.86,-219.99C664.03,-209.89 709.57,-196.44 741.59,-186.98"/>
<polygon fill="#63b8ff" stroke="#63b8ff" points="742.88,-190.24 751.48,-184.05 740.9,-183.53 742.88,-190.24"/>
</a>
</g>
</g>
<!-- Node18 -->
<g id="Node000018" class="node">
<title>Node18</title>
<g id="a_Node000018"><a xlink:title=" ">
<polygon fill="#e0e0e0" stroke="#999999" points="940.43,-184 862.43,-184 862.43,-165 940.43,-165 940.43,-184"/>
<text text-anchor="middle" x="901.43" y="-172" font-family="Helvetica,sans-Serif" font-size="10.00">QtCore/QFile</text>
</a>
</g>
</g>
<!-- Node1&#45;&gt;Node18 -->
<g id="edge22_Node000001_Node000018" class="edge">
<title>Node1&#45;&gt;Node18</title>
<g id="a_edge22_Node000001_Node000018"><a xlink:title=" ">
<path fill="none" stroke="#63b8ff" d="M658.84,-219.99C718.81,-208.99 800.5,-194.01 852.11,-184.54"/>
<polygon fill="#63b8ff" stroke="#63b8ff" points="852.81,-187.97 862.02,-182.73 851.55,-181.09 852.81,-187.97"/>
</a>
</g>
</g>
<!-- Node3 -->
<g id="Node000003" class="node">
<title>Node3</title>
<g id="a_Node000003"><a xlink:title=" ">
<polygon fill="#e0e0e0" stroke="#999999" points="492.43,-129 406.43,-129 406.43,-110 492.43,-110 492.43,-129"/>
<text text-anchor="middle" x="449.43" y="-117" font-family="Helvetica,sans-Serif" font-size="10.00">QtCore/QHash</text>
</a>
</g>
</g>
<!-- Node2&#45;&gt;Node3 -->
<g id="edge2_Node000002_Node000003" class="edge">
<title>Node2&#45;&gt;Node3</title>
<g id="a_edge2_Node000002_Node000003"><a xlink:title=" ">
<path fill="none" stroke="#63b8ff" d="M561.07,-164.98C539.28,-156.3 505.27,-142.75 480.51,-132.88"/>
<polygon fill="#63b8ff" stroke="#63b8ff" points="481.78,-129.62 471.19,-129.17 479.19,-136.12 481.78,-129.62"/>
</a>
</g>
</g>
<!-- Node4 -->
<g id="Node000004" class="node">
<title>Node4</title>
<g id="a_Node000004"><a xlink:title=" ">
<polygon fill="#e0e0e0" stroke="#999999" points="797.93,-19 654.93,-19 654.93,0 797.93,0 797.93,-19"/>
<text text-anchor="middle" x="726.43" y="-7" font-family="Helvetica,sans-Serif" font-size="10.00">QtCore/QLoggingCategory</text>
</a>
</g>
</g>
<!-- Node2&#45;&gt;Node4 -->
<g id="edge3_Node000002_Node000004" class="edge">
<title>Node2&#45;&gt;Node4</title>
<g id="a_edge3_Node000002_Node000004"><a xlink:title=" ">
<path fill="none" stroke="#63b8ff" d="M589.51,-164.77C599.56,-152.43 618.62,-129.25 635.43,-110 661.58,-80.08 693.06,-46.09 711.31,-26.58"/>
<polygon fill="#63b8ff" stroke="#63b8ff" points="713.98,-28.85 718.27,-19.16 708.87,-24.07 713.98,-28.85"/>
</a>
</g>
</g>
<!-- Node5 -->
<g id="Node000005" class="node">
<title>Node5</title>
<g id="a_Node000005"><a xlink:title=" ">
<polygon fill="#e0e0e0" stroke="#999999" points="587.93,-129 510.93,-129 510.93,-110 587.93,-110 587.93,-129"/>
<text text-anchor="middle" x="549.43" y="-117" font-family="Helvetica,sans-Serif" font-size="10.00">QtCore/QSet</text>
</a>
</g>
</g>
<!-- Node2&#45;&gt;Node5 -->
<g id="edge4_Node000002_Node000005" class="edge">
<title>Node2&#45;&gt;Node5</title>
<g id="a_edge4_Node000002_Node000005"><a xlink:title=" ">
<path fill="none" stroke="#63b8ff" d="M576.98,-164.75C572.42,-157.42 565.77,-146.73 560.14,-137.7"/>
<polygon fill="#63b8ff" stroke="#63b8ff" points="563.04,-135.73 554.78,-129.09 557.1,-139.43 563.04,-135.73"/>
</a>
</g>
</g>
<!-- Node6 -->
<g id="Node000006" class="node">
<title>Node6</title>
<g id="a_Node000006"><a xlink:title=" ">
<polygon fill="#e0e0e0" stroke="#999999" points="751.93,-129 644.93,-129 644.93,-110 751.93,-110 751.93,-129"/>
<text text-anchor="middle" x="698.43" y="-117" font-family="Helvetica,sans-Serif" font-size="10.00">QtCore/QStringList</text>
</a>
</g>
</g>
<!-- Node2&#45;&gt;Node6 -->
<g id="edge5_Node000002_Node000006" class="edge">
<title>Node2&#45;&gt;Node6</title>
<g id="a_edge5_Node000002_Node000006"><a xlink:title=" ">
<path fill="none" stroke="#63b8ff" d="M601.07,-164.98C619.73,-156.46 648.69,-143.23 670.17,-133.41"/>
<polygon fill="#63b8ff" stroke="#63b8ff" points="671.82,-136.51 679.46,-129.17 668.91,-130.14 671.82,-136.51"/>
</a>
</g>
</g>
<!-- Node7&#45;&gt;Node4 -->
<g id="edge7_Node000007_Node000004" class="edge">
<title>Node7&#45;&gt;Node4</title>
<g id="a_edge7_Node000007_Node000004"><a xlink:title=" ">
<path fill="none" stroke="#63b8ff" d="M138.41,-172C69.38,-168.17 -29.72,-154.97 9.43,-110 50.72,-62.59 465.59,-28.5 644.75,-15.88"/>
<polygon fill="#63b8ff" stroke="#63b8ff" points="645.18,-19.35 654.91,-15.17 644.69,-12.37 645.18,-19.35"/>
</a>
</g>
</g>
<!-- Node8 -->
<g id="Node000008" class="node">
<title>Node8</title>
<g id="a_Node000008"><a xlink:title=" ">
<polygon fill="#e0e0e0" stroke="#999999" points="238.43,-129 158.43,-129 158.43,-110 238.43,-110 238.43,-129"/>
<text text-anchor="middle" x="198.43" y="-117" font-family="Helvetica,sans-Serif" font-size="10.00">QtGui/QColor</text>
</a>
</g>
</g>
<!-- Node7&#45;&gt;Node8 -->
<g id="edge8_Node000007_Node000008" class="edge">
<title>Node7&#45;&gt;Node8</title>
<g id="a_edge8_Node000007_Node000008"><a xlink:title=" ">
<path fill="none" stroke="#63b8ff" d="M198.43,-164.75C198.43,-157.8 198.43,-147.85 198.43,-139.13"/>
<polygon fill="#63b8ff" stroke="#63b8ff" points="201.93,-139.09 198.43,-129.09 194.93,-139.09 201.93,-139.09"/>
</a>
</g>
</g>
<!-- Node7&#45;&gt;Node9 -->
<g id="edge9_Node000007_Node000009" class="edge">
<title>Node7&#45;&gt;Node9</title>
<g id="a_edge9_Node000007_Node000009"><a xlink:title=" ">
<path fill="none" stroke="#63b8ff" d="M218.36,-164.98C238.48,-156.38 269.81,-142.99 292.84,-133.15"/>
<polygon fill="#63b8ff" stroke="#63b8ff" points="294.33,-136.32 302.15,-129.17 291.58,-129.88 294.33,-136.32"/>
</a>
</g>
</g>
<!-- Node10 -->
<g id="Node000010" class="node">
<title>Node10</title>
<g id="a_Node000010"><a xlink:title=" ">
<polygon fill="#e0e0e0" stroke="#999999" points="140.43,-129 18.43,-129 18.43,-110 140.43,-110 140.43,-129"/>
<text text-anchor="middle" x="79.43" y="-117" font-family="Helvetica,sans-Serif" font-size="10.00">QtXml/QDomElement</text>
</a>
</g>
</g>
<!-- Node7&#45;&gt;Node10 -->
<g id="edge10_Node000007_Node000010" class="edge">
<title>Node7&#45;&gt;Node10</title>
<g id="a_edge10_Node000007_Node000010"><a xlink:title=" ">
<path fill="none" stroke="#63b8ff" d="M179.31,-164.98C160.09,-156.42 130.2,-143.11 108.13,-133.28"/>
<polygon fill="#63b8ff" stroke="#63b8ff" points="109.46,-130.04 98.9,-129.17 106.61,-136.44 109.46,-130.04"/>
</a>
</g>
</g>
<!-- Node11&#45;&gt;Node4 -->
<g id="edge18_Node000011_Node000004" class="edge">
<title>Node11&#45;&gt;Node4</title>
<g id="a_edge18_Node000011_Node000004"><a xlink:title=" ">
<path fill="none" stroke="#63b8ff" d="M777.78,-164.85C774.01,-152.61 766.85,-129.55 760.43,-110 751.11,-81.61 739.81,-48.85 732.87,-28.91"/>
<polygon fill="#63b8ff" stroke="#63b8ff" points="736.11,-27.55 729.51,-19.26 729.5,-29.86 736.11,-27.55"/>
</a>
</g>
</g>
<!-- Node11&#45;&gt;Node6 -->
<g id="edge20_Node000011_Node000006" class="edge">
<title>Node11&#45;&gt;Node6</title>
<g id="a_edge20_Node000011_Node000006"><a xlink:title=" ">
<path fill="none" stroke="#63b8ff" d="M767.26,-164.98C754.66,-156.84 735.43,-144.41 720.49,-134.76"/>
<polygon fill="#63b8ff" stroke="#63b8ff" points="722.15,-131.66 711.85,-129.17 718.35,-137.54 722.15,-131.66"/>
</a>
</g>
</g>
<!-- Node12 -->
<g id="Node000012" class="node">
<title>Node12</title>
<g id="a_Node000012"><a xlink:href="QmlObjectListModel_8h.html" target="_top" xlink:title=" ">
<polygon fill="white" stroke="#666666" points="933.93,-129 808.93,-129 808.93,-110 933.93,-110 933.93,-129"/>
<text text-anchor="middle" x="871.43" y="-117" font-family="Helvetica,sans-Serif" font-size="10.00">QmlObjectListModel.h</text>
</a>
</g>
</g>
<!-- Node11&#45;&gt;Node12 -->
<g id="edge12_Node000011_Node000012" class="edge">
<title>Node11&#45;&gt;Node12</title>
<g id="a_edge12_Node000011_Node000012"><a xlink:title=" ">
<path fill="none" stroke="#63b8ff" d="M795.05,-164.98C809.3,-156.69 831.19,-143.94 847.89,-134.22"/>
<polygon fill="#63b8ff" stroke="#63b8ff" points="849.67,-137.23 856.55,-129.17 846.14,-131.18 849.67,-137.23"/>
</a>
</g>
</g>
<!-- Node16 -->
<g id="Node000016" class="node">
<title>Node16</title>
<g id="a_Node000016"><a xlink:title=" ">
<polygon fill="#e0e0e0" stroke="#999999" points="1044.43,-129 952.43,-129 952.43,-110 1044.43,-110 1044.43,-129"/>
<text text-anchor="middle" x="998.43" y="-117" font-family="Helvetica,sans-Serif" font-size="10.00">QtCore/QObject</text>
</a>
</g>
</g>
<!-- Node11&#45;&gt;Node16 -->
<g id="edge19_Node000011_Node000016" class="edge">
<title>Node11&#45;&gt;Node16</title>
<g id="a_edge19_Node000011_Node000016"><a xlink:title=" ">
<path fill="none" stroke="#63b8ff" d="M815.46,-164.98C852.93,-155.87 912.49,-141.4 953.41,-131.45"/>
<polygon fill="#63b8ff" stroke="#63b8ff" points="954.24,-134.85 963.13,-129.08 952.59,-128.04 954.24,-134.85"/>
</a>
</g>
</g>
<!-- Node17 -->
<g id="Node000017" class="node">
<title>Node17</title>
<g id="a_Node000017"><a xlink:title=" ">
<polygon fill="#e0e0e0" stroke="#999999" points="1144.43,-129 1062.43,-129 1062.43,-110 1144.43,-110 1144.43,-129"/>
<text text-anchor="middle" x="1103.43" y="-117" font-family="Helvetica,sans-Serif" font-size="10.00">QtCore/QMap</text>
</a>
</g>
</g>
<!-- Node11&#45;&gt;Node17 -->
<g id="edge21_Node000011_Node000017" class="edge">
<title>Node11&#45;&gt;Node17</title>
<g id="a_edge21_Node000011_Node000017"><a xlink:title=" ">
<path fill="none" stroke="#63b8ff" d="M833.3,-164.99C886.16,-156.46 970.06,-142.85 1052.23,-129.19"/>
<polygon fill="#63b8ff" stroke="#63b8ff" points="1052.95,-132.62 1062.24,-127.53 1051.8,-125.72 1052.95,-132.62"/>
</a>
</g>
</g>
<!-- Node12&#45;&gt;Node4 -->
<g id="edge17_Node000012_Node000004" class="edge">
<title>Node12&#45;&gt;Node4</title>
<g id="a_edge17_Node000012_Node000004"><a xlink:title=" ">
<path fill="none" stroke="#63b8ff" d="M861.75,-109.92C847.42,-97.37 819.55,-73.49 794.43,-55 779.76,-44.2 762.57,-32.96 749.16,-24.49"/>
<polygon fill="#63b8ff" stroke="#63b8ff" points="750.88,-21.43 740.54,-19.1 747.16,-27.37 750.88,-21.43"/>
</a>
</g>
</g>
<!-- Node13 -->
<g id="Node000013" class="node">
<title>Node13</title>
<g id="a_Node000013"><a xlink:href="ObjectListModelBase_8h.html" target="_top" xlink:title=" ">
<polygon fill="white" stroke="#666666" points="974.43,-74 846.43,-74 846.43,-55 974.43,-55 974.43,-74"/>
<text text-anchor="middle" x="910.43" y="-62" font-family="Helvetica,sans-Serif" font-size="10.00">ObjectListModelBase.h</text>
</a>
</g>
</g>
<!-- Node12&#45;&gt;Node13 -->
<g id="edge13_Node000012_Node000013" class="edge">
<title>Node12&#45;&gt;Node13</title>
<g id="a_edge13_Node000012_Node000013"><a xlink:title=" ">
<path fill="none" stroke="#63b8ff" d="M877.87,-109.75C883.33,-102.34 891.3,-91.5 897.99,-82.41"/>
<polygon fill="#63b8ff" stroke="#63b8ff" points="901.01,-84.22 904.11,-74.09 895.37,-80.07 901.01,-84.22"/>
</a>
</g>
</g>
<!-- Node13&#45;&gt;Node4 -->
<g id="edge15_Node000013_Node000004" class="edge">
<title>Node13&#45;&gt;Node4</title>
<g id="a_edge15_Node000013_Node000004"><a xlink:title=" ">
<path fill="none" stroke="#63b8ff" d="M880.87,-54.98C849.71,-46.01 800.46,-31.82 765.98,-21.89"/>
<polygon fill="#63b8ff" stroke="#63b8ff" points="766.81,-18.49 756.23,-19.08 764.87,-25.21 766.81,-18.49"/>
</a>
</g>
</g>
<!-- Node14 -->
<g id="Node000014" class="node">
<title>Node14</title>
<g id="a_Node000014"><a xlink:title=" ">
<polygon fill="#e0e0e0" stroke="#999999" points="1171.93,-19 1022.93,-19 1022.93,0 1171.93,0 1171.93,-19"/>
<text text-anchor="middle" x="1097.43" y="-7" font-family="Helvetica,sans-Serif" font-size="10.00">QtCore/QAbstractListModel</text>
</a>
</g>
</g>
<!-- Node13&#45;&gt;Node14 -->
<g id="edge14_Node000013_Node000014" class="edge">
<title>Node13&#45;&gt;Node14</title>
<g id="a_edge14_Node000013_Node000014"><a xlink:title=" ">
<path fill="none" stroke="#63b8ff" d="M940.48,-54.98C972.15,-46.01 1022.2,-31.82 1057.25,-21.89"/>
<polygon fill="#63b8ff" stroke="#63b8ff" points="1058.49,-25.18 1067.15,-19.08 1056.58,-18.44 1058.49,-25.18"/>
</a>
</g>
</g>
<!-- Node15 -->
<g id="Node000015" class="node">
<title>Node15</title>
<g id="a_Node000015"><a xlink:title=" ">
<polygon fill="#e0e0e0" stroke="#999999" points="1004.93,-19 815.93,-19 815.93,0 1004.93,0 1004.93,-19"/>
<text text-anchor="middle" x="910.43" y="-7" font-family="Helvetica,sans-Serif" font-size="10.00">QtQmlIntegration/QtQmlIntegration</text>
</a>
</g>
</g>
<!-- Node13&#45;&gt;Node15 -->
<g id="edge16_Node000013_Node000015" class="edge">
<title>Node13&#45;&gt;Node15</title>
<g id="a_edge16_Node000013_Node000015"><a xlink:title=" ">
<path fill="none" stroke="#63b8ff" d="M910.43,-54.75C910.43,-47.8 910.43,-37.85 910.43,-29.13"/>
<polygon fill="#63b8ff" stroke="#63b8ff" points="913.93,-29.09 910.43,-19.09 906.93,-29.09 913.93,-29.09"/>
</a>
</g>
</g>
</g>
</svg>
