<?xml version="1.0" encoding="UTF-8" standalone="no"?>
<!DOCTYPE svg PUBLIC "-//W3C//DTD SVG 1.1//EN"
 "http://www.w3.org/Graphics/SVG/1.1/DTD/svg11.dtd">
<!-- Generated by graphviz version 2.43.0 (0)
 -->
<!-- Title: src/Comms/LinkInterface.cc Pages: 1 -->
<svg width="2611pt" height="247pt"
 viewBox="0.00 0.00 2611.00 247.00" xmlns="http://www.w3.org/2000/svg" xmlns:xlink="http://www.w3.org/1999/xlink">
<g id="graph0" class="graph" transform="scale(1 1) rotate(0) translate(4 243)">
<title>src/Comms/LinkInterface.cc</title>
<!-- Node1 -->
<g id="Node000001" class="node">
<title>Node1</title>
<g id="a_Node000001"><a xlink:title=" ">
<polygon fill="#999999" stroke="#666666" points="1609.5,-239 1457.5,-239 1457.5,-220 1609.5,-220 1609.5,-239"/>
<text text-anchor="middle" x="1533.5" y="-227" font-family="Helvetica,sans-Serif" font-size="10.00">src/Comms/LinkInterface.cc</text>
</a>
</g>
</g>
<!-- Node2 -->
<g id="Node000002" class="node">
<title>Node2</title>
<g id="a_Node000002"><a xlink:href="LinkInterface_8h.html" target="_top" xlink:title=" ">
<polygon fill="white" stroke="#666666" points="89,-129 0,-129 0,-110 89,-110 89,-129"/>
<text text-anchor="middle" x="44.5" y="-117" font-family="Helvetica,sans-Serif" font-size="10.00">LinkInterface.h</text>
</a>
</g>
</g>
<!-- Node1&#45;&gt;Node2 -->
<g id="edge1_Node000001_Node000002" class="edge">
<title>Node1&#45;&gt;Node2</title>
<g id="a_edge1_Node000001_Node000002"><a xlink:title=" ">
<path fill="none" stroke="#63b8ff" d="M1457.35,-228.3C1280.59,-227.2 828.91,-220.7 453.5,-184 325.51,-171.49 176.59,-145.44 98.55,-130.89"/>
<polygon fill="#63b8ff" stroke="#63b8ff" points="98.95,-127.4 88.47,-129 97.66,-134.29 98.95,-127.4"/>
</a>
</g>
</g>
<!-- Node7 -->
<g id="Node000007" class="node">
<title>Node7</title>
<g id="a_Node000007"><a xlink:href="MAVLinkLib_8h.html" target="_top" xlink:title=" ">
<polygon fill="white" stroke="#666666" points="1215.5,-129 1133.5,-129 1133.5,-110 1215.5,-110 1215.5,-129"/>
<text text-anchor="middle" x="1174.5" y="-117" font-family="Helvetica,sans-Serif" font-size="10.00">MAVLinkLib.h</text>
</a>
</g>
</g>
<!-- Node1&#45;&gt;Node7 -->
<g id="edge7_Node000001_Node000007" class="edge">
<title>Node1&#45;&gt;Node7</title>
<g id="a_edge7_Node000001_Node000007"><a xlink:title=" ">
<path fill="none" stroke="#63b8ff" d="M1487.05,-219.97C1447.02,-212.15 1387.88,-199.44 1337.5,-184 1289.34,-169.24 1235.17,-146.96 1202.99,-133.09"/>
<polygon fill="#63b8ff" stroke="#63b8ff" points="1204.31,-129.84 1193.74,-129.07 1201.52,-136.27 1204.31,-129.84"/>
</a>
</g>
</g>
<!-- Node13 -->
<g id="Node000013" class="node">
<title>Node13</title>
<g id="a_Node000013"><a xlink:href="LinkManager_8h.html" target="_top" xlink:title=" ">
<polygon fill="white" stroke="#666666" points="550.5,-184 462.5,-184 462.5,-165 550.5,-165 550.5,-184"/>
<text text-anchor="middle" x="506.5" y="-172" font-family="Helvetica,sans-Serif" font-size="10.00">LinkManager.h</text>
</a>
</g>
</g>
<!-- Node1&#45;&gt;Node13 -->
<g id="edge13_Node000001_Node000013" class="edge">
<title>Node1&#45;&gt;Node13</title>
<g id="a_edge13_Node000001_Node000013"><a xlink:title=" ">
<path fill="none" stroke="#63b8ff" d="M1457.15,-224.56C1258.87,-214.33 731.18,-187.1 560.55,-178.29"/>
<polygon fill="#63b8ff" stroke="#63b8ff" points="560.71,-174.79 550.54,-177.77 560.35,-181.78 560.71,-174.79"/>
</a>
</g>
</g>
<!-- Node23 -->
<g id="Node000023" class="node">
<title>Node23</title>
<g id="a_Node000023"><a xlink:href="QGC_8h.html" target="_top" xlink:title=" ">
<polygon fill="white" stroke="#666666" points="1625,-184 1578,-184 1578,-165 1625,-165 1625,-184"/>
<text text-anchor="middle" x="1601.5" y="-172" font-family="Helvetica,sans-Serif" font-size="10.00">QGC.h</text>
</a>
</g>
</g>
<!-- Node1&#45;&gt;Node23 -->
<g id="edge26_Node000001_Node000023" class="edge">
<title>Node1&#45;&gt;Node23</title>
<g id="a_edge26_Node000001_Node000023"><a xlink:title=" ">
<path fill="none" stroke="#63b8ff" d="M1544.43,-219.98C1554.58,-212.07 1569.92,-200.11 1582.15,-190.58"/>
<polygon fill="#63b8ff" stroke="#63b8ff" points="1584.64,-193.08 1590.38,-184.17 1580.34,-187.56 1584.64,-193.08"/>
</a>
</g>
</g>
<!-- Node25 -->
<g id="Node000025" class="node">
<title>Node25</title>
<g id="a_Node000025"><a xlink:href="QGCApplication_8h.html" target="_top" xlink:title=" ">
<polygon fill="white" stroke="#666666" points="2020.5,-184 1918.5,-184 1918.5,-165 2020.5,-165 2020.5,-184"/>
<text text-anchor="middle" x="1969.5" y="-172" font-family="Helvetica,sans-Serif" font-size="10.00">QGCApplication.h</text>
</a>
</g>
</g>
<!-- Node1&#45;&gt;Node25 -->
<g id="edge28_Node000001_Node000025" class="edge">
<title>Node1&#45;&gt;Node25</title>
<g id="a_edge28_Node000001_Node000025"><a xlink:title=" ">
<path fill="none" stroke="#63b8ff" d="M1603.55,-219.98C1687.92,-209.73 1828.28,-192.67 1908.43,-182.92"/>
<polygon fill="#63b8ff" stroke="#63b8ff" points="1908.87,-186.4 1918.37,-181.72 1908.02,-179.45 1908.87,-186.4"/>
</a>
</g>
</g>
<!-- Node32 -->
<g id="Node000032" class="node">
<title>Node32</title>
<g id="a_Node000032"><a xlink:href="QGCLoggingCategory_8h.html" target="_top" xlink:title=" ">
<polygon fill="white" stroke="#666666" points="2166.5,-184 2038.5,-184 2038.5,-165 2166.5,-165 2166.5,-184"/>
<text text-anchor="middle" x="2102.5" y="-172" font-family="Helvetica,sans-Serif" font-size="10.00">QGCLoggingCategory.h</text>
</a>
</g>
</g>
<!-- Node1&#45;&gt;Node32 -->
<g id="edge35_Node000001_Node000032" class="edge">
<title>Node1&#45;&gt;Node32</title>
<g id="a_edge35_Node000001_Node000032"><a xlink:title=" ">
<path fill="none" stroke="#63b8ff" d="M1609.61,-222.3C1704.92,-214.4 1873.49,-199.95 2028.24,-184.1"/>
<polygon fill="#63b8ff" stroke="#63b8ff" points="2028.83,-187.56 2038.42,-183.06 2028.11,-180.6 2028.83,-187.56"/>
</a>
</g>
</g>
<!-- Node34 -->
<g id="Node000034" class="node">
<title>Node34</title>
<g id="a_Node000034"><a xlink:href="MAVLinkSigning_8h.html" target="_top" xlink:title=" ">
<polygon fill="white" stroke="#666666" points="1450.5,-184 1346.5,-184 1346.5,-165 1450.5,-165 1450.5,-184"/>
<text text-anchor="middle" x="1398.5" y="-172" font-family="Helvetica,sans-Serif" font-size="10.00">MAVLinkSigning.h</text>
</a>
</g>
</g>
<!-- Node1&#45;&gt;Node34 -->
<g id="edge37_Node000001_Node000034" class="edge">
<title>Node1&#45;&gt;Node34</title>
<g id="a_edge37_Node000001_Node000034"><a xlink:title=" ">
<path fill="none" stroke="#63b8ff" d="M1511.81,-219.98C1489.7,-211.3 1455.18,-197.75 1430.05,-187.88"/>
<polygon fill="#63b8ff" stroke="#63b8ff" points="1431.17,-184.57 1420.58,-184.17 1428.61,-191.08 1431.17,-184.57"/>
</a>
</g>
</g>
<!-- Node38 -->
<g id="Node000038" class="node">
<title>Node38</title>
<g id="a_Node000038"><a xlink:title=" ">
<polygon fill="#e0e0e0" stroke="#999999" points="2296.5,-184 2184.5,-184 2184.5,-165 2296.5,-165 2296.5,-184"/>
<text text-anchor="middle" x="2240.5" y="-172" font-family="Helvetica,sans-Serif" font-size="10.00">QtQml/QQmlEngine</text>
</a>
</g>
</g>
<!-- Node1&#45;&gt;Node38 -->
<g id="edge42_Node000001_Node000038" class="edge">
<title>Node1&#45;&gt;Node38</title>
<g id="a_edge42_Node000001_Node000038"><a xlink:title=" ">
<path fill="none" stroke="#63b8ff" d="M1609.72,-224.72C1728.21,-218.51 1963.99,-204.83 2174.17,-184.07"/>
<polygon fill="#63b8ff" stroke="#63b8ff" points="2174.55,-187.55 2184.15,-183.08 2173.86,-180.59 2174.55,-187.55"/>
</a>
</g>
</g>
<!-- Node3 -->
<g id="Node000003" class="node">
<title>Node3</title>
<g id="a_Node000003"><a xlink:title=" ">
<polygon fill="#e0e0e0" stroke="#999999" points="457,-19 268,-19 268,0 457,0 457,-19"/>
<text text-anchor="middle" x="362.5" y="-7" font-family="Helvetica,sans-Serif" font-size="10.00">QtQmlIntegration/QtQmlIntegration</text>
</a>
</g>
</g>
<!-- Node2&#45;&gt;Node3 -->
<g id="edge2_Node000002_Node000003" class="edge">
<title>Node2&#45;&gt;Node3</title>
<g id="a_edge2_Node000002_Node000003"><a xlink:title=" ">
<path fill="none" stroke="#63b8ff" d="M69.72,-109.94C126.19,-90.76 262.92,-44.32 327.55,-22.37"/>
<polygon fill="#63b8ff" stroke="#63b8ff" points="328.94,-25.6 337.28,-19.07 326.68,-18.97 328.94,-25.6"/>
</a>
</g>
</g>
<!-- Node4 -->
<g id="Node000004" class="node">
<title>Node4</title>
<g id="a_Node000004"><a xlink:href="LinkConfiguration_8h.html" target="_top" xlink:title=" ">
<polygon fill="white" stroke="#666666" points="581,-74 470,-74 470,-55 581,-55 581,-74"/>
<text text-anchor="middle" x="525.5" y="-62" font-family="Helvetica,sans-Serif" font-size="10.00">LinkConfiguration.h</text>
</a>
</g>
</g>
<!-- Node2&#45;&gt;Node4 -->
<g id="edge3_Node000002_Node000004" class="edge">
<title>Node2&#45;&gt;Node4</title>
<g id="a_edge3_Node000002_Node000004"><a xlink:title=" ">
<path fill="none" stroke="#63b8ff" d="M89.26,-111.27C92.39,-110.82 95.49,-110.39 98.5,-110 226.02,-93.33 375.63,-78.91 459.62,-71.29"/>
<polygon fill="#63b8ff" stroke="#63b8ff" points="460.13,-74.76 469.78,-70.37 459.5,-67.78 460.13,-74.76"/>
</a>
</g>
</g>
<!-- Node4&#45;&gt;Node3 -->
<g id="edge6_Node000004_Node000003" class="edge">
<title>Node4&#45;&gt;Node3</title>
<g id="a_edge6_Node000004_Node000003"><a xlink:title=" ">
<path fill="none" stroke="#63b8ff" d="M499.31,-54.98C472.06,-46.13 429.2,-32.19 398.72,-22.28"/>
<polygon fill="#63b8ff" stroke="#63b8ff" points="399.49,-18.85 388.89,-19.08 397.32,-25.5 399.49,-18.85"/>
</a>
</g>
</g>
<!-- Node5 -->
<g id="Node000005" class="node">
<title>Node5</title>
<g id="a_Node000005"><a xlink:title=" ">
<polygon fill="#e0e0e0" stroke="#999999" points="576,-19 475,-19 475,0 576,0 576,-19"/>
<text text-anchor="middle" x="525.5" y="-7" font-family="Helvetica,sans-Serif" font-size="10.00">QtCore/QSettings</text>
</a>
</g>
</g>
<!-- Node4&#45;&gt;Node5 -->
<g id="edge4_Node000004_Node000005" class="edge">
<title>Node4&#45;&gt;Node5</title>
<g id="a_edge4_Node000004_Node000005"><a xlink:title=" ">
<path fill="none" stroke="#63b8ff" d="M525.5,-54.75C525.5,-47.8 525.5,-37.85 525.5,-29.13"/>
<polygon fill="#63b8ff" stroke="#63b8ff" points="529,-29.09 525.5,-19.09 522,-29.09 529,-29.09"/>
</a>
</g>
</g>
<!-- Node6 -->
<g id="Node000006" class="node">
<title>Node6</title>
<g id="a_Node000006"><a xlink:title=" ">
<polygon fill="#e0e0e0" stroke="#999999" points="683,-19 594,-19 594,0 683,0 683,-19"/>
<text text-anchor="middle" x="638.5" y="-7" font-family="Helvetica,sans-Serif" font-size="10.00">QtCore/QString</text>
</a>
</g>
</g>
<!-- Node4&#45;&gt;Node6 -->
<g id="edge5_Node000004_Node000006" class="edge">
<title>Node4&#45;&gt;Node6</title>
<g id="a_edge5_Node000004_Node000006"><a xlink:title=" ">
<path fill="none" stroke="#63b8ff" d="M543.66,-54.98C561.75,-46.5 589.78,-33.35 610.69,-23.54"/>
<polygon fill="#63b8ff" stroke="#63b8ff" points="612.45,-26.59 620.01,-19.17 609.47,-20.25 612.45,-26.59"/>
</a>
</g>
</g>
<!-- Node8 -->
<g id="Node000008" class="node">
<title>Node8</title>
<g id="a_Node000008"><a xlink:href="MAVLinkMessageType_8h.html" target="_top" xlink:title=" ">
<polygon fill="white" stroke="#666666" points="1241.5,-74 1107.5,-74 1107.5,-55 1241.5,-55 1241.5,-74"/>
<text text-anchor="middle" x="1174.5" y="-62" font-family="Helvetica,sans-Serif" font-size="10.00">MAVLinkMessageType.h</text>
</a>
</g>
</g>
<!-- Node7&#45;&gt;Node8 -->
<g id="edge8_Node000007_Node000008" class="edge">
<title>Node7&#45;&gt;Node8</title>
<g id="a_edge8_Node000007_Node000008"><a xlink:title=" ">
<path fill="none" stroke="#63b8ff" d="M1174.5,-109.75C1174.5,-102.8 1174.5,-92.85 1174.5,-84.13"/>
<polygon fill="#63b8ff" stroke="#63b8ff" points="1178,-84.09 1174.5,-74.09 1171,-84.09 1178,-84.09"/>
</a>
</g>
</g>
<!-- Node11 -->
<g id="Node000011" class="node">
<title>Node11</title>
<g id="a_Node000011"><a xlink:title=" ">
<polygon fill="#e0e0e0" stroke="#999999" points="1315.5,-74 1259.5,-74 1259.5,-55 1315.5,-55 1315.5,-74"/>
<text text-anchor="middle" x="1287.5" y="-62" font-family="Helvetica,sans-Serif" font-size="10.00">stddef.h</text>
</a>
</g>
</g>
<!-- Node7&#45;&gt;Node11 -->
<g id="edge11_Node000007_Node000011" class="edge">
<title>Node7&#45;&gt;Node11</title>
<g id="a_edge11_Node000007_Node000011"><a xlink:title=" ">
<path fill="none" stroke="#63b8ff" d="M1192.66,-109.98C1210.75,-101.5 1238.78,-88.35 1259.69,-78.54"/>
<polygon fill="#63b8ff" stroke="#63b8ff" points="1261.45,-81.59 1269.01,-74.17 1258.47,-75.25 1261.45,-81.59"/>
</a>
</g>
</g>
<!-- Node12 -->
<g id="Node000012" class="node">
<title>Node12</title>
<g id="a_Node000012"><a xlink:title=" ">
<polygon fill="#e0e0e0" stroke="#999999" points="1399,-74 1334,-74 1334,-55 1399,-55 1399,-74"/>
<text text-anchor="middle" x="1366.5" y="-62" font-family="Helvetica,sans-Serif" font-size="10.00">mavlink.h</text>
</a>
</g>
</g>
<!-- Node7&#45;&gt;Node12 -->
<g id="edge12_Node000007_Node000012" class="edge">
<title>Node7&#45;&gt;Node12</title>
<g id="a_edge12_Node000007_Node000012"><a xlink:title=" ">
<path fill="none" stroke="#63b8ff" d="M1205.35,-109.98C1238,-100.97 1289.7,-86.7 1325.7,-76.76"/>
<polygon fill="#63b8ff" stroke="#63b8ff" points="1326.7,-80.12 1335.41,-74.08 1324.84,-73.37 1326.7,-80.12"/>
</a>
</g>
</g>
<!-- Node9 -->
<g id="Node000009" class="node">
<title>Node9</title>
<g id="a_Node000009"><a xlink:title=" ">
<polygon fill="#e0e0e0" stroke="#999999" points="1154,-19 1101,-19 1101,0 1154,0 1154,-19"/>
<text text-anchor="middle" x="1127.5" y="-7" font-family="Helvetica,sans-Serif" font-size="10.00">stdint.h</text>
</a>
</g>
</g>
<!-- Node8&#45;&gt;Node9 -->
<g id="edge9_Node000008_Node000009" class="edge">
<title>Node8&#45;&gt;Node9</title>
<g id="a_edge9_Node000008_Node000009"><a xlink:title=" ">
<path fill="none" stroke="#63b8ff" d="M1166.74,-54.75C1160.03,-47.18 1150.16,-36.05 1141.99,-26.84"/>
<polygon fill="#63b8ff" stroke="#63b8ff" points="1144.37,-24.25 1135.12,-19.09 1139.13,-28.89 1144.37,-24.25"/>
</a>
</g>
</g>
<!-- Node10 -->
<g id="Node000010" class="node">
<title>Node10</title>
<g id="a_Node000010"><a xlink:title=" ">
<polygon fill="#e0e0e0" stroke="#999999" points="1270.5,-19 1172.5,-19 1172.5,0 1270.5,0 1270.5,-19"/>
<text text-anchor="middle" x="1221.5" y="-7" font-family="Helvetica,sans-Serif" font-size="10.00">mavlink_types.h</text>
</a>
</g>
</g>
<!-- Node8&#45;&gt;Node10 -->
<g id="edge10_Node000008_Node000010" class="edge">
<title>Node8&#45;&gt;Node10</title>
<g id="a_edge10_Node000008_Node000010"><a xlink:title=" ">
<path fill="none" stroke="#63b8ff" d="M1182.26,-54.75C1188.97,-47.18 1198.84,-36.05 1207.01,-26.84"/>
<polygon fill="#63b8ff" stroke="#63b8ff" points="1209.87,-28.89 1213.88,-19.09 1204.63,-24.25 1209.87,-28.89"/>
</a>
</g>
</g>
<!-- Node13&#45;&gt;Node2 -->
<g id="edge21_Node000013_Node000002" class="edge">
<title>Node13&#45;&gt;Node2</title>
<g id="a_edge21_Node000013_Node000002"><a xlink:title=" ">
<path fill="none" stroke="#63b8ff" d="M462.34,-169.38C389.16,-162.39 237.88,-147.32 99.23,-129.04"/>
<polygon fill="#63b8ff" stroke="#63b8ff" points="99.64,-125.56 89.27,-127.71 98.72,-132.5 99.64,-125.56"/>
</a>
</g>
</g>
<!-- Node13&#45;&gt;Node3 -->
<g id="edge18_Node000013_Node000003" class="edge">
<title>Node13&#45;&gt;Node3</title>
<g id="a_edge18_Node000013_Node000003"><a xlink:title=" ">
<path fill="none" stroke="#63b8ff" d="M498.76,-164.74C475.71,-138.65 407.26,-61.17 377.08,-27"/>
<polygon fill="#63b8ff" stroke="#63b8ff" points="379.52,-24.48 370.28,-19.31 374.28,-29.12 379.52,-24.48"/>
</a>
</g>
</g>
<!-- Node13&#45;&gt;Node4 -->
<g id="edge20_Node000013_Node000004" class="edge">
<title>Node13&#45;&gt;Node4</title>
<g id="a_edge20_Node000013_Node000004"><a xlink:title=" ">
<path fill="none" stroke="#63b8ff" d="M550.85,-167.72C594.83,-160.98 657.74,-148.23 672.5,-129 677.64,-122.3 677.53,-116.78 672.5,-110 661.72,-95.47 621.04,-83.84 585.2,-76.11"/>
<polygon fill="#63b8ff" stroke="#63b8ff" points="585.76,-72.65 575.25,-74.04 584.33,-79.51 585.76,-72.65"/>
</a>
</g>
</g>
<!-- Node14 -->
<g id="Node000014" class="node">
<title>Node14</title>
<g id="a_Node000014"><a xlink:title=" ">
<polygon fill="#e0e0e0" stroke="#999999" points="185.5,-129 107.5,-129 107.5,-110 185.5,-110 185.5,-129"/>
<text text-anchor="middle" x="146.5" y="-117" font-family="Helvetica,sans-Serif" font-size="10.00">QtCore/QList</text>
</a>
</g>
</g>
<!-- Node13&#45;&gt;Node14 -->
<g id="edge14_Node000013_Node000014" class="edge">
<title>Node13&#45;&gt;Node14</title>
<g id="a_edge14_Node000013_Node000014"><a xlink:title=" ">
<path fill="none" stroke="#63b8ff" d="M462.25,-167.67C403.67,-159.84 296.89,-145.2 195.61,-129.13"/>
<polygon fill="#63b8ff" stroke="#63b8ff" points="195.94,-125.64 185.51,-127.52 194.84,-132.55 195.94,-125.64"/>
</a>
</g>
</g>
<!-- Node15 -->
<g id="Node000015" class="node">
<title>Node15</title>
<g id="a_Node000015"><a xlink:title=" ">
<polygon fill="#e0e0e0" stroke="#999999" points="295.5,-129 203.5,-129 203.5,-110 295.5,-110 295.5,-129"/>
<text text-anchor="middle" x="249.5" y="-117" font-family="Helvetica,sans-Serif" font-size="10.00">QtCore/QMutex</text>
</a>
</g>
</g>
<!-- Node13&#45;&gt;Node15 -->
<g id="edge15_Node000013_Node000015" class="edge">
<title>Node13&#45;&gt;Node15</title>
<g id="a_edge15_Node000013_Node000015"><a xlink:title=" ">
<path fill="none" stroke="#63b8ff" d="M465.21,-164.98C420.57,-155.78 349.34,-141.09 301.05,-131.13"/>
<polygon fill="#63b8ff" stroke="#63b8ff" points="301.62,-127.67 291.12,-129.08 300.2,-134.53 301.62,-127.67"/>
</a>
</g>
</g>
<!-- Node16 -->
<g id="Node000016" class="node">
<title>Node16</title>
<g id="a_Node000016"><a xlink:title=" ">
<polygon fill="#e0e0e0" stroke="#999999" points="437,-129 314,-129 314,-110 437,-110 437,-129"/>
<text text-anchor="middle" x="375.5" y="-117" font-family="Helvetica,sans-Serif" font-size="10.00">QtCore/QMutexLocker</text>
</a>
</g>
</g>
<!-- Node13&#45;&gt;Node16 -->
<g id="edge16_Node000013_Node000016" class="edge">
<title>Node13&#45;&gt;Node16</title>
<g id="a_edge16_Node000013_Node000016"><a xlink:title=" ">
<path fill="none" stroke="#63b8ff" d="M485.45,-164.98C464.09,-156.34 430.8,-142.87 406.44,-133.02"/>
<polygon fill="#63b8ff" stroke="#63b8ff" points="407.51,-129.68 396.93,-129.17 404.89,-136.17 407.51,-129.68"/>
</a>
</g>
</g>
<!-- Node17 -->
<g id="Node000017" class="node">
<title>Node17</title>
<g id="a_Node000017"><a xlink:title=" ">
<polygon fill="#e0e0e0" stroke="#999999" points="601,-129 494,-129 494,-110 601,-110 601,-129"/>
<text text-anchor="middle" x="547.5" y="-117" font-family="Helvetica,sans-Serif" font-size="10.00">QtCore/QStringList</text>
</a>
</g>
</g>
<!-- Node13&#45;&gt;Node17 -->
<g id="edge17_Node000013_Node000017" class="edge">
<title>Node13&#45;&gt;Node17</title>
<g id="a_edge17_Node000013_Node000017"><a xlink:title=" ">
<path fill="none" stroke="#63b8ff" d="M513.27,-164.75C519.06,-157.26 527.56,-146.28 534.64,-137.13"/>
<polygon fill="#63b8ff" stroke="#63b8ff" points="537.51,-139.14 540.86,-129.09 531.97,-134.86 537.51,-139.14"/>
</a>
</g>
</g>
<!-- Node18 -->
<g id="Node000018" class="node">
<title>Node18</title>
<g id="a_Node000018"><a xlink:title=" ">
<polygon fill="#e0e0e0" stroke="#999999" points="663.5,-129 619.5,-129 619.5,-110 663.5,-110 663.5,-129"/>
<text text-anchor="middle" x="641.5" y="-117" font-family="Helvetica,sans-Serif" font-size="10.00">limits</text>
</a>
</g>
</g>
<!-- Node13&#45;&gt;Node18 -->
<g id="edge19_Node000013_Node000018" class="edge">
<title>Node13&#45;&gt;Node18</title>
<g id="a_edge19_Node000013_Node000018"><a xlink:title=" ">
<path fill="none" stroke="#63b8ff" d="M528.19,-164.98C550.3,-156.3 584.82,-142.75 609.95,-132.88"/>
<polygon fill="#63b8ff" stroke="#63b8ff" points="611.39,-136.08 619.42,-129.17 608.83,-129.57 611.39,-136.08"/>
</a>
</g>
</g>
<!-- Node19 -->
<g id="Node000019" class="node">
<title>Node19</title>
<g id="a_Node000019"><a xlink:href="QGCSerialPortInfo_8h.html" target="_top" xlink:title=" ">
<polygon fill="white" stroke="#666666" points="879,-129 766,-129 766,-110 879,-110 879,-129"/>
<text text-anchor="middle" x="822.5" y="-117" font-family="Helvetica,sans-Serif" font-size="10.00">QGCSerialPortInfo.h</text>
</a>
</g>
</g>
<!-- Node13&#45;&gt;Node19 -->
<g id="edge22_Node000013_Node000019" class="edge">
<title>Node13&#45;&gt;Node19</title>
<g id="a_edge22_Node000013_Node000019"><a xlink:title=" ">
<path fill="none" stroke="#63b8ff" d="M550.77,-166.07C605.8,-156.85 699.98,-141.05 761.74,-130.69"/>
<polygon fill="#63b8ff" stroke="#63b8ff" points="762.45,-134.12 771.74,-129.01 761.29,-127.22 762.45,-134.12"/>
</a>
</g>
</g>
<!-- Node20 -->
<g id="Node000020" class="node">
<title>Node20</title>
<g id="a_Node000020"><a xlink:title=" ">
<polygon fill="#e0e0e0" stroke="#999999" points="921.5,-74 769.5,-74 769.5,-55 921.5,-55 921.5,-74"/>
<text text-anchor="middle" x="845.5" y="-62" font-family="Helvetica,sans-Serif" font-size="10.00">QtCore/QRegularExpression</text>
</a>
</g>
</g>
<!-- Node19&#45;&gt;Node20 -->
<g id="edge23_Node000019_Node000020" class="edge">
<title>Node19&#45;&gt;Node20</title>
<g id="a_edge23_Node000019_Node000020"><a xlink:title=" ">
<path fill="none" stroke="#63b8ff" d="M826.3,-109.75C829.41,-102.57 833.92,-92.18 837.79,-83.27"/>
<polygon fill="#63b8ff" stroke="#63b8ff" points="841,-84.66 841.77,-74.09 834.58,-81.87 841,-84.66"/>
</a>
</g>
</g>
<!-- Node21 -->
<g id="Node000021" class="node">
<title>Node21</title>
<g id="a_Node000021"><a xlink:title=" ">
<polygon fill="#e0e0e0" stroke="#999999" points="1089,-74 940,-74 940,-55 1089,-55 1089,-74"/>
<text text-anchor="middle" x="1014.5" y="-62" font-family="Helvetica,sans-Serif" font-size="10.00">QtCore/QtSystemDetection</text>
</a>
</g>
</g>
<!-- Node19&#45;&gt;Node21 -->
<g id="edge24_Node000019_Node000021" class="edge">
<title>Node19&#45;&gt;Node21</title>
<g id="a_edge24_Node000019_Node000021"><a xlink:title=" ">
<path fill="none" stroke="#63b8ff" d="M853.35,-109.98C886,-100.97 937.7,-86.7 973.7,-76.76"/>
<polygon fill="#63b8ff" stroke="#63b8ff" points="974.7,-80.12 983.41,-74.08 972.84,-73.37 974.7,-80.12"/>
</a>
</g>
</g>
<!-- Node22 -->
<g id="Node000022" class="node">
<title>Node22</title>
<g id="a_Node000022"><a xlink:title=" ">
<polygon fill="#e0e0e0" stroke="#999999" points="751.5,-74 599.5,-74 599.5,-55 751.5,-55 751.5,-74"/>
<text text-anchor="middle" x="675.5" y="-62" font-family="Helvetica,sans-Serif" font-size="10.00">QtSerialPort/QSerialPortInfo</text>
</a>
</g>
</g>
<!-- Node19&#45;&gt;Node22 -->
<g id="edge25_Node000019_Node000022" class="edge">
<title>Node19&#45;&gt;Node22</title>
<g id="a_edge25_Node000019_Node000022"><a xlink:title=" ">
<path fill="none" stroke="#63b8ff" d="M798.88,-109.98C774.6,-101.23 736.55,-87.51 709.13,-77.62"/>
<polygon fill="#63b8ff" stroke="#63b8ff" points="710.14,-74.27 699.55,-74.17 707.77,-80.85 710.14,-74.27"/>
</a>
</g>
</g>
<!-- Node24 -->
<g id="Node000024" class="node">
<title>Node24</title>
<g id="a_Node000024"><a xlink:title=" ">
<polygon fill="#e0e0e0" stroke="#999999" points="1715.5,-129 1623.5,-129 1623.5,-110 1715.5,-110 1715.5,-129"/>
<text text-anchor="middle" x="1669.5" y="-117" font-family="Helvetica,sans-Serif" font-size="10.00">QtCore/QtTypes</text>
</a>
</g>
</g>
<!-- Node23&#45;&gt;Node24 -->
<g id="edge27_Node000023_Node000024" class="edge">
<title>Node23&#45;&gt;Node24</title>
<g id="a_edge27_Node000023_Node000024"><a xlink:title=" ">
<path fill="none" stroke="#63b8ff" d="M1612.43,-164.98C1622.58,-157.07 1637.92,-145.11 1650.15,-135.58"/>
<polygon fill="#63b8ff" stroke="#63b8ff" points="1652.64,-138.08 1658.38,-129.17 1648.34,-132.56 1652.64,-138.08"/>
</a>
</g>
</g>
<!-- Node26 -->
<g id="Node000026" class="node">
<title>Node26</title>
<g id="a_Node000026"><a xlink:title=" ">
<polygon fill="#e0e0e0" stroke="#999999" points="1861.5,-129 1733.5,-129 1733.5,-110 1861.5,-110 1861.5,-129"/>
<text text-anchor="middle" x="1797.5" y="-117" font-family="Helvetica,sans-Serif" font-size="10.00">QtCore/QElapsedTimer</text>
</a>
</g>
</g>
<!-- Node25&#45;&gt;Node26 -->
<g id="edge29_Node000025_Node000026" class="edge">
<title>Node25&#45;&gt;Node26</title>
<g id="a_edge29_Node000025_Node000026"><a xlink:title=" ">
<path fill="none" stroke="#63b8ff" d="M1941.87,-164.98C1912.99,-156.09 1867.49,-142.07 1835.3,-132.15"/>
<polygon fill="#63b8ff" stroke="#63b8ff" points="1835.94,-128.68 1825.35,-129.08 1833.88,-135.37 1835.94,-128.68"/>
</a>
</g>
</g>
<!-- Node27 -->
<g id="Node000027" class="node">
<title>Node27</title>
<g id="a_Node000027"><a xlink:title=" ">
<polygon fill="#e0e0e0" stroke="#999999" points="1961.5,-129 1879.5,-129 1879.5,-110 1961.5,-110 1961.5,-129"/>
<text text-anchor="middle" x="1920.5" y="-117" font-family="Helvetica,sans-Serif" font-size="10.00">QtCore/QMap</text>
</a>
</g>
</g>
<!-- Node25&#45;&gt;Node27 -->
<g id="edge30_Node000025_Node000027" class="edge">
<title>Node25&#45;&gt;Node27</title>
<g id="a_edge30_Node000025_Node000027"><a xlink:title=" ">
<path fill="none" stroke="#63b8ff" d="M1961.41,-164.75C1954.34,-157.11 1943.91,-145.82 1935.35,-136.56"/>
<polygon fill="#63b8ff" stroke="#63b8ff" points="1937.8,-134.06 1928.44,-129.09 1932.66,-138.81 1937.8,-134.06"/>
</a>
</g>
</g>
<!-- Node28 -->
<g id="Node000028" class="node">
<title>Node28</title>
<g id="a_Node000028"><a xlink:title=" ">
<polygon fill="#e0e0e0" stroke="#999999" points="2057,-129 1980,-129 1980,-110 2057,-110 2057,-129"/>
<text text-anchor="middle" x="2018.5" y="-117" font-family="Helvetica,sans-Serif" font-size="10.00">QtCore/QSet</text>
</a>
</g>
</g>
<!-- Node25&#45;&gt;Node28 -->
<g id="edge31_Node000025_Node000028" class="edge">
<title>Node25&#45;&gt;Node28</title>
<g id="a_edge31_Node000025_Node000028"><a xlink:title=" ">
<path fill="none" stroke="#63b8ff" d="M1977.59,-164.75C1984.66,-157.11 1995.09,-145.82 2003.65,-136.56"/>
<polygon fill="#63b8ff" stroke="#63b8ff" points="2006.34,-138.81 2010.56,-129.09 2001.2,-134.06 2006.34,-138.81"/>
</a>
</g>
</g>
<!-- Node29 -->
<g id="Node000029" class="node">
<title>Node29</title>
<g id="a_Node000029"><a xlink:title=" ">
<polygon fill="#e0e0e0" stroke="#999999" points="2164,-129 2075,-129 2075,-110 2164,-110 2164,-129"/>
<text text-anchor="middle" x="2119.5" y="-117" font-family="Helvetica,sans-Serif" font-size="10.00">QtCore/QTimer</text>
</a>
</g>
</g>
<!-- Node25&#45;&gt;Node29 -->
<g id="edge32_Node000025_Node000029" class="edge">
<title>Node25&#45;&gt;Node29</title>
<g id="a_edge32_Node000025_Node000029"><a xlink:title=" ">
<path fill="none" stroke="#63b8ff" d="M1993.6,-164.98C2018.38,-156.23 2057.2,-142.51 2085.19,-132.62"/>
<polygon fill="#63b8ff" stroke="#63b8ff" points="2086.7,-135.8 2094.96,-129.17 2084.37,-129.2 2086.7,-135.8"/>
</a>
</g>
</g>
<!-- Node30 -->
<g id="Node000030" class="node">
<title>Node30</title>
<g id="a_Node000030"><a xlink:title=" ">
<polygon fill="#e0e0e0" stroke="#999999" points="2291,-129 2182,-129 2182,-110 2291,-110 2291,-129"/>
<text text-anchor="middle" x="2236.5" y="-117" font-family="Helvetica,sans-Serif" font-size="10.00">QtCore/QTranslator</text>
</a>
</g>
</g>
<!-- Node25&#45;&gt;Node30 -->
<g id="edge33_Node000025_Node000030" class="edge">
<title>Node25&#45;&gt;Node30</title>
<g id="a_edge33_Node000025_Node000030"><a xlink:title=" ">
<path fill="none" stroke="#63b8ff" d="M2012.4,-164.98C2058.87,-155.76 2133.09,-141.03 2183.26,-131.07"/>
<polygon fill="#63b8ff" stroke="#63b8ff" points="2184.14,-134.46 2193.27,-129.08 2182.78,-127.6 2184.14,-134.46"/>
</a>
</g>
</g>
<!-- Node31 -->
<g id="Node000031" class="node">
<title>Node31</title>
<g id="a_Node000031"><a xlink:title=" ">
<polygon fill="#e0e0e0" stroke="#999999" points="2442,-129 2309,-129 2309,-110 2442,-110 2442,-129"/>
<text text-anchor="middle" x="2375.5" y="-117" font-family="Helvetica,sans-Serif" font-size="10.00">QtWidgets/QApplication</text>
</a>
</g>
</g>
<!-- Node25&#45;&gt;Node31 -->
<g id="edge34_Node000025_Node000031" class="edge">
<title>Node25&#45;&gt;Node31</title>
<g id="a_edge34_Node000025_Node000031"><a xlink:title=" ">
<path fill="none" stroke="#63b8ff" d="M2020.56,-166.22C2023.58,-165.8 2026.58,-165.39 2029.5,-165 2122.03,-152.5 2228.6,-138.91 2298.74,-130.09"/>
<polygon fill="#63b8ff" stroke="#63b8ff" points="2299.33,-133.54 2308.81,-128.82 2298.45,-126.59 2299.33,-133.54"/>
</a>
</g>
</g>
<!-- Node33 -->
<g id="Node000033" class="node">
<title>Node33</title>
<g id="a_Node000033"><a xlink:title=" ">
<polygon fill="#e0e0e0" stroke="#999999" points="2603,-129 2460,-129 2460,-110 2603,-110 2603,-129"/>
<text text-anchor="middle" x="2531.5" y="-117" font-family="Helvetica,sans-Serif" font-size="10.00">QtCore/QLoggingCategory</text>
</a>
</g>
</g>
<!-- Node32&#45;&gt;Node33 -->
<g id="edge36_Node000032_Node000033" class="edge">
<title>Node32&#45;&gt;Node33</title>
<g id="a_edge36_Node000032_Node000033"><a xlink:title=" ">
<path fill="none" stroke="#63b8ff" d="M2166.73,-165.57C2243.02,-156.14 2370.27,-140.42 2452.52,-130.26"/>
<polygon fill="#63b8ff" stroke="#63b8ff" points="2453.07,-133.72 2462.57,-129.02 2452.21,-126.77 2453.07,-133.72"/>
</a>
</g>
</g>
<!-- Node34&#45;&gt;Node7 -->
<g id="edge41_Node000034_Node000007" class="edge">
<title>Node34&#45;&gt;Node7</title>
<g id="a_edge41_Node000034_Node000007"><a xlink:title=" ">
<path fill="none" stroke="#63b8ff" d="M1362.51,-164.98C1324.01,-155.87 1262.81,-141.4 1220.76,-131.45"/>
<polygon fill="#63b8ff" stroke="#63b8ff" points="1221.31,-127.98 1210.77,-129.08 1219.7,-134.79 1221.31,-127.98"/>
</a>
</g>
</g>
<!-- Node35 -->
<g id="Node000035" class="node">
<title>Node35</title>
<g id="a_Node000035"><a xlink:title=" ">
<polygon fill="#e0e0e0" stroke="#999999" points="1325.5,-129 1233.5,-129 1233.5,-110 1325.5,-110 1325.5,-129"/>
<text text-anchor="middle" x="1279.5" y="-117" font-family="Helvetica,sans-Serif" font-size="10.00">QtCore/QObject</text>
</a>
</g>
</g>
<!-- Node34&#45;&gt;Node35 -->
<g id="edge38_Node000034_Node000035" class="edge">
<title>Node34&#45;&gt;Node35</title>
<g id="a_edge38_Node000034_Node000035"><a xlink:title=" ">
<path fill="none" stroke="#63b8ff" d="M1379.38,-164.98C1360.15,-156.42 1330.27,-143.11 1308.19,-133.28"/>
<polygon fill="#63b8ff" stroke="#63b8ff" points="1309.53,-130.04 1298.97,-129.17 1306.68,-136.44 1309.53,-130.04"/>
</a>
</g>
</g>
<!-- Node36 -->
<g id="Node000036" class="node">
<title>Node36</title>
<g id="a_Node000036"><a xlink:title=" ">
<polygon fill="#e0e0e0" stroke="#999999" points="1453.5,-129 1343.5,-129 1343.5,-110 1453.5,-110 1453.5,-129"/>
<text text-anchor="middle" x="1398.5" y="-117" font-family="Helvetica,sans-Serif" font-size="10.00">QtCore/QByteArray</text>
</a>
</g>
</g>
<!-- Node34&#45;&gt;Node36 -->
<g id="edge39_Node000034_Node000036" class="edge">
<title>Node34&#45;&gt;Node36</title>
<g id="a_edge39_Node000034_Node000036"><a xlink:title=" ">
<path fill="none" stroke="#63b8ff" d="M1398.5,-164.75C1398.5,-157.8 1398.5,-147.85 1398.5,-139.13"/>
<polygon fill="#63b8ff" stroke="#63b8ff" points="1402,-139.09 1398.5,-129.09 1395,-139.09 1402,-139.09"/>
</a>
</g>
</g>
<!-- Node37 -->
<g id="Node000037" class="node">
<title>Node37</title>
<g id="a_Node000037"><a xlink:title=" ">
<polygon fill="#e0e0e0" stroke="#999999" points="1605.5,-129 1471.5,-129 1471.5,-110 1605.5,-110 1605.5,-129"/>
<text text-anchor="middle" x="1538.5" y="-117" font-family="Helvetica,sans-Serif" font-size="10.00">QtCore/QByteArrayView</text>
</a>
</g>
</g>
<!-- Node34&#45;&gt;Node37 -->
<g id="edge40_Node000034_Node000037" class="edge">
<title>Node34&#45;&gt;Node37</title>
<g id="a_edge40_Node000034_Node000037"><a xlink:title=" ">
<path fill="none" stroke="#63b8ff" d="M1420.99,-164.98C1444.02,-156.27 1480.04,-142.63 1506.13,-132.75"/>
<polygon fill="#63b8ff" stroke="#63b8ff" points="1507.48,-135.98 1515.6,-129.17 1505.01,-129.44 1507.48,-135.98"/>
</a>
</g>
</g>
</g>
</svg>
