<?xml version="1.0" encoding="UTF-8" standalone="no"?>
<!DOCTYPE svg PUBLIC "-//W3C//DTD SVG 1.1//EN"
 "http://www.w3.org/Graphics/SVG/1.1/DTD/svg11.dtd">
<!-- Generated by graphviz version 2.43.0 (0)
 -->
<!-- Title: src/AnalyzeView/LogEntry.cc Pages: 1 -->
<svg width="1687pt" height="302pt"
 viewBox="0.00 0.00 1686.83 302.00" xmlns="http://www.w3.org/2000/svg" xmlns:xlink="http://www.w3.org/1999/xlink">
<g id="graph0" class="graph" transform="scale(1 1) rotate(0) translate(4 298)">
<title>src/AnalyzeView/LogEntry.cc</title>
<!-- Node1 -->
<g id="Node000001" class="node">
<title>Node1</title>
<g id="a_Node000001"><a xlink:title=" ">
<polygon fill="#999999" stroke="#666666" points="1196.83,-294 1041.83,-294 1041.83,-275 1196.83,-275 1196.83,-294"/>
<text text-anchor="middle" x="1119.33" y="-282" font-family="Helvetica,sans-Serif" font-size="10.00">src/AnalyzeView/LogEntry.cc</text>
</a>
</g>
</g>
<!-- Node2 -->
<g id="Node000002" class="node">
<title>Node2</title>
<g id="a_Node000002"><a xlink:href="LogEntry_8h.html" target="_top" xlink:title=" ">
<polygon fill="white" stroke="#666666" points="451.83,-239 384.83,-239 384.83,-220 451.83,-220 451.83,-239"/>
<text text-anchor="middle" x="418.33" y="-227" font-family="Helvetica,sans-Serif" font-size="10.00">LogEntry.h</text>
</a>
</g>
</g>
<!-- Node1&#45;&gt;Node2 -->
<g id="edge1_Node000001_Node000002" class="edge">
<title>Node1&#45;&gt;Node2</title>
<g id="a_edge1_Node000001_Node000002"><a xlink:title=" ">
<path fill="none" stroke="#63b8ff" d="M1041.63,-277.63C894.2,-266.48 578.24,-242.59 462.22,-233.82"/>
<polygon fill="#63b8ff" stroke="#63b8ff" points="462.19,-230.31 451.95,-233.04 461.66,-237.29 462.19,-230.31"/>
</a>
</g>
</g>
<!-- Node15 -->
<g id="Node000015" class="node">
<title>Node15</title>
<g id="a_Node000015"><a xlink:href="QGCApplication_8h.html" target="_top" xlink:title=" ">
<polygon fill="white" stroke="#666666" points="1239.33,-239 1137.33,-239 1137.33,-220 1239.33,-220 1239.33,-239"/>
<text text-anchor="middle" x="1188.33" y="-227" font-family="Helvetica,sans-Serif" font-size="10.00">QGCApplication.h</text>
</a>
</g>
</g>
<!-- Node1&#45;&gt;Node15 -->
<g id="edge14_Node000001_Node000015" class="edge">
<title>Node1&#45;&gt;Node15</title>
<g id="a_edge14_Node000001_Node000015"><a xlink:title=" ">
<path fill="none" stroke="#63b8ff" d="M1130.42,-274.98C1140.82,-267 1156.59,-254.88 1169.05,-245.31"/>
<polygon fill="#63b8ff" stroke="#63b8ff" points="1171.24,-248.04 1177.04,-239.17 1166.98,-242.49 1171.24,-248.04"/>
</a>
</g>
</g>
<!-- Node21 -->
<g id="Node000021" class="node">
<title>Node21</title>
<g id="a_Node000021"><a xlink:href="QGCLoggingCategory_8h.html" target="_top" xlink:title=" ">
<polygon fill="white" stroke="#666666" points="1073.33,-239 945.33,-239 945.33,-220 1073.33,-220 1073.33,-239"/>
<text text-anchor="middle" x="1009.33" y="-227" font-family="Helvetica,sans-Serif" font-size="10.00">QGCLoggingCategory.h</text>
</a>
</g>
</g>
<!-- Node1&#45;&gt;Node21 -->
<g id="edge22_Node000001_Node000021" class="edge">
<title>Node1&#45;&gt;Node21</title>
<g id="a_edge22_Node000001_Node000021"><a xlink:title=" ">
<path fill="none" stroke="#63b8ff" d="M1101.66,-274.98C1084.04,-266.5 1056.75,-253.35 1036.4,-243.54"/>
<polygon fill="#63b8ff" stroke="#63b8ff" points="1037.85,-240.36 1027.32,-239.17 1034.81,-246.66 1037.85,-240.36"/>
</a>
</g>
</g>
<!-- Node27 -->
<g id="Node000027" class="node">
<title>Node27</title>
<g id="a_Node000027"><a xlink:title=" ">
<polygon fill="#e0e0e0" stroke="#999999" points="1346.83,-239 1257.83,-239 1257.83,-220 1346.83,-220 1346.83,-239"/>
<text text-anchor="middle" x="1302.33" y="-227" font-family="Helvetica,sans-Serif" font-size="10.00">QtCore/QtMath</text>
</a>
</g>
</g>
<!-- Node1&#45;&gt;Node27 -->
<g id="edge34_Node000001_Node000027" class="edge">
<title>Node1&#45;&gt;Node27</title>
<g id="a_edge34_Node000001_Node000027"><a xlink:title=" ">
<path fill="none" stroke="#63b8ff" d="M1148.73,-274.98C1179.72,-266.01 1228.71,-251.82 1263,-241.89"/>
<polygon fill="#63b8ff" stroke="#63b8ff" points="1264.07,-245.23 1272.7,-239.08 1262.12,-238.5 1264.07,-245.23"/>
</a>
</g>
</g>
<!-- Node3 -->
<g id="Node000003" class="node">
<title>Node3</title>
<g id="a_Node000003"><a xlink:title=" ">
<polygon fill="#e0e0e0" stroke="#999999" points="124.83,-184 23.83,-184 23.83,-165 124.83,-165 124.83,-184"/>
<text text-anchor="middle" x="74.33" y="-172" font-family="Helvetica,sans-Serif" font-size="10.00">QtCore/QBitArray</text>
</a>
</g>
</g>
<!-- Node2&#45;&gt;Node3 -->
<g id="edge2_Node000002_Node000003" class="edge">
<title>Node2&#45;&gt;Node3</title>
<g id="a_edge2_Node000002_Node000003"><a xlink:title=" ">
<path fill="none" stroke="#63b8ff" d="M384.72,-223.32C326.83,-214.4 207.56,-196.03 134.89,-184.83"/>
<polygon fill="#63b8ff" stroke="#63b8ff" points="135.37,-181.36 124.95,-183.3 134.31,-188.28 135.37,-181.36"/>
</a>
</g>
</g>
<!-- Node4 -->
<g id="Node000004" class="node">
<title>Node4</title>
<g id="a_Node000004"><a xlink:title=" ">
<polygon fill="#e0e0e0" stroke="#999999" points="251.83,-184 142.83,-184 142.83,-165 251.83,-165 251.83,-184"/>
<text text-anchor="middle" x="197.33" y="-172" font-family="Helvetica,sans-Serif" font-size="10.00">QtCore/QDateTime</text>
</a>
</g>
</g>
<!-- Node2&#45;&gt;Node4 -->
<g id="edge3_Node000002_Node000004" class="edge">
<title>Node2&#45;&gt;Node4</title>
<g id="a_edge3_Node000002_Node000004"><a xlink:title=" ">
<path fill="none" stroke="#63b8ff" d="M384.76,-220.45C346.87,-211.36 285.01,-196.53 242.8,-186.4"/>
<polygon fill="#63b8ff" stroke="#63b8ff" points="243.59,-182.99 233.05,-184.07 241.95,-189.8 243.59,-182.99"/>
</a>
</g>
</g>
<!-- Node5 -->
<g id="Node000005" class="node">
<title>Node5</title>
<g id="a_Node000005"><a xlink:title=" ">
<polygon fill="#e0e0e0" stroke="#999999" points="753.33,-184 625.33,-184 625.33,-165 753.33,-165 753.33,-184"/>
<text text-anchor="middle" x="689.33" y="-172" font-family="Helvetica,sans-Serif" font-size="10.00">QtCore/QElapsedTimer</text>
</a>
</g>
</g>
<!-- Node2&#45;&gt;Node5 -->
<g id="edge4_Node000002_Node000005" class="edge">
<title>Node2&#45;&gt;Node5</title>
<g id="a_edge4_Node000002_Node000005"><a xlink:title=" ">
<path fill="none" stroke="#63b8ff" d="M451.83,-221.95C497.83,-212.95 581.04,-196.68 635.74,-185.98"/>
<polygon fill="#63b8ff" stroke="#63b8ff" points="636.46,-189.41 645.61,-184.05 635.12,-182.54 636.46,-189.41"/>
</a>
</g>
</g>
<!-- Node6 -->
<g id="Node000006" class="node">
<title>Node6</title>
<g id="a_Node000006"><a xlink:title=" ">
<polygon fill="#e0e0e0" stroke="#999999" points="905.83,-19 762.83,-19 762.83,0 905.83,0 905.83,-19"/>
<text text-anchor="middle" x="834.33" y="-7" font-family="Helvetica,sans-Serif" font-size="10.00">QtCore/QLoggingCategory</text>
</a>
</g>
</g>
<!-- Node2&#45;&gt;Node6 -->
<g id="edge5_Node000002_Node000006" class="edge">
<title>Node2&#45;&gt;Node6</title>
<g id="a_edge5_Node000002_Node000006"><a xlink:title=" ">
<path fill="none" stroke="#63b8ff" d="M427.79,-219.62C443.07,-205.78 474.69,-179.17 506.33,-165 574.04,-134.67 601.59,-159.26 669.33,-129 729.41,-102.16 789.56,-51.5 817.77,-25.99"/>
<polygon fill="#63b8ff" stroke="#63b8ff" points="820.15,-28.56 825.15,-19.22 815.42,-23.4 820.15,-28.56"/>
</a>
</g>
</g>
<!-- Node7 -->
<g id="Node000007" class="node">
<title>Node7</title>
<g id="a_Node000007"><a xlink:title=" ">
<polygon fill="#e0e0e0" stroke="#999999" points="607.33,-184 515.33,-184 515.33,-165 607.33,-165 607.33,-184"/>
<text text-anchor="middle" x="561.33" y="-172" font-family="Helvetica,sans-Serif" font-size="10.00">QtCore/QObject</text>
</a>
</g>
</g>
<!-- Node2&#45;&gt;Node7 -->
<g id="edge6_Node000002_Node000007" class="edge">
<title>Node2&#45;&gt;Node7</title>
<g id="a_edge6_Node000002_Node000007"><a xlink:title=" ">
<path fill="none" stroke="#63b8ff" d="M441.31,-219.98C464.83,-211.27 501.62,-197.63 528.27,-187.75"/>
<polygon fill="#63b8ff" stroke="#63b8ff" points="529.78,-190.93 537.94,-184.17 527.34,-184.36 529.78,-190.93"/>
</a>
</g>
</g>
<!-- Node8 -->
<g id="Node000008" class="node">
<title>Node8</title>
<g id="a_Node000008"><a xlink:title=" ">
<polygon fill="#e0e0e0" stroke="#999999" points="358.83,-184 269.83,-184 269.83,-165 358.83,-165 358.83,-184"/>
<text text-anchor="middle" x="314.33" y="-172" font-family="Helvetica,sans-Serif" font-size="10.00">QtCore/QString</text>
</a>
</g>
</g>
<!-- Node2&#45;&gt;Node8 -->
<g id="edge7_Node000002_Node000008" class="edge">
<title>Node2&#45;&gt;Node8</title>
<g id="a_edge7_Node000002_Node000008"><a xlink:title=" ">
<path fill="none" stroke="#63b8ff" d="M401.62,-219.98C385.12,-211.57 359.63,-198.59 340.45,-188.81"/>
<polygon fill="#63b8ff" stroke="#63b8ff" points="341.84,-185.59 331.34,-184.17 338.66,-191.83 341.84,-185.59"/>
</a>
</g>
</g>
<!-- Node9 -->
<g id="Node000009" class="node">
<title>Node9</title>
<g id="a_Node000009"><a xlink:title=" ">
<polygon fill="#e0e0e0" stroke="#999999" points="317.83,-19 128.83,-19 128.83,0 317.83,0 317.83,-19"/>
<text text-anchor="middle" x="223.33" y="-7" font-family="Helvetica,sans-Serif" font-size="10.00">QtQmlIntegration/QtQmlIntegration</text>
</a>
</g>
</g>
<!-- Node2&#45;&gt;Node9 -->
<g id="edge8_Node000002_Node000009" class="edge">
<title>Node2&#45;&gt;Node9</title>
<g id="a_edge8_Node000002_Node000009"><a xlink:title=" ">
<path fill="none" stroke="#63b8ff" d="M384.63,-227.31C292.03,-223.71 38.9,-211.43 14.33,-184 -48.08,-114.33 111.68,-48.47 186.8,-22.34"/>
<polygon fill="#63b8ff" stroke="#63b8ff" points="188.06,-25.61 196.38,-19.06 185.79,-18.98 188.06,-25.61"/>
</a>
</g>
</g>
<!-- Node10 -->
<g id="Node000010" class="node">
<title>Node10</title>
<g id="a_Node000010"><a xlink:href="MAVLinkLib_8h.html" target="_top" xlink:title=" ">
<polygon fill="white" stroke="#666666" points="459.33,-184 377.33,-184 377.33,-165 459.33,-165 459.33,-184"/>
<text text-anchor="middle" x="418.33" y="-172" font-family="Helvetica,sans-Serif" font-size="10.00">MAVLinkLib.h</text>
</a>
</g>
</g>
<!-- Node2&#45;&gt;Node10 -->
<g id="edge9_Node000002_Node000010" class="edge">
<title>Node2&#45;&gt;Node10</title>
<g id="a_edge9_Node000002_Node000010"><a xlink:title=" ">
<path fill="none" stroke="#63b8ff" d="M418.33,-219.75C418.33,-212.8 418.33,-202.85 418.33,-194.13"/>
<polygon fill="#63b8ff" stroke="#63b8ff" points="421.83,-194.09 418.33,-184.09 414.83,-194.09 421.83,-194.09"/>
</a>
</g>
</g>
<!-- Node11 -->
<g id="Node000011" class="node">
<title>Node11</title>
<g id="a_Node000011"><a xlink:title=" ">
<polygon fill="#e0e0e0" stroke="#999999" points="397.83,-129 344.83,-129 344.83,-110 397.83,-110 397.83,-129"/>
<text text-anchor="middle" x="371.33" y="-117" font-family="Helvetica,sans-Serif" font-size="10.00">stdint.h</text>
</a>
</g>
</g>
<!-- Node10&#45;&gt;Node11 -->
<g id="edge10_Node000010_Node000011" class="edge">
<title>Node10&#45;&gt;Node11</title>
<g id="a_edge10_Node000010_Node000011"><a xlink:title=" ">
<path fill="none" stroke="#63b8ff" d="M410.57,-164.75C403.86,-157.18 393.99,-146.05 385.82,-136.84"/>
<polygon fill="#63b8ff" stroke="#63b8ff" points="388.2,-134.25 378.95,-129.09 382.96,-138.89 388.2,-134.25"/>
</a>
</g>
</g>
<!-- Node12 -->
<g id="Node000012" class="node">
<title>Node12</title>
<g id="a_Node000012"><a xlink:title=" ">
<polygon fill="#e0e0e0" stroke="#999999" points="514.33,-129 416.33,-129 416.33,-110 514.33,-110 514.33,-129"/>
<text text-anchor="middle" x="465.33" y="-117" font-family="Helvetica,sans-Serif" font-size="10.00">mavlink_types.h</text>
</a>
</g>
</g>
<!-- Node10&#45;&gt;Node12 -->
<g id="edge11_Node000010_Node000012" class="edge">
<title>Node10&#45;&gt;Node12</title>
<g id="a_edge11_Node000010_Node000012"><a xlink:title=" ">
<path fill="none" stroke="#63b8ff" d="M426.09,-164.75C432.8,-157.18 442.67,-146.05 450.84,-136.84"/>
<polygon fill="#63b8ff" stroke="#63b8ff" points="453.7,-138.89 457.71,-129.09 448.46,-134.25 453.7,-138.89"/>
</a>
</g>
</g>
<!-- Node13 -->
<g id="Node000013" class="node">
<title>Node13</title>
<g id="a_Node000013"><a xlink:title=" ">
<polygon fill="#e0e0e0" stroke="#999999" points="243.33,-129 187.33,-129 187.33,-110 243.33,-110 243.33,-129"/>
<text text-anchor="middle" x="215.33" y="-117" font-family="Helvetica,sans-Serif" font-size="10.00">stddef.h</text>
</a>
</g>
</g>
<!-- Node10&#45;&gt;Node13 -->
<g id="edge12_Node000010_Node000013" class="edge">
<title>Node10&#45;&gt;Node13</title>
<g id="a_edge12_Node000010_Node000013"><a xlink:title=" ">
<path fill="none" stroke="#63b8ff" d="M385.71,-164.98C349.6,-155.56 291.46,-140.38 253.32,-130.42"/>
<polygon fill="#63b8ff" stroke="#63b8ff" points="254.17,-127.02 243.61,-127.88 252.4,-133.8 254.17,-127.02"/>
</a>
</g>
</g>
<!-- Node14 -->
<g id="Node000014" class="node">
<title>Node14</title>
<g id="a_Node000014"><a xlink:title=" ">
<polygon fill="#e0e0e0" stroke="#999999" points="326.83,-129 261.83,-129 261.83,-110 326.83,-110 326.83,-129"/>
<text text-anchor="middle" x="294.33" y="-117" font-family="Helvetica,sans-Serif" font-size="10.00">mavlink.h</text>
</a>
</g>
</g>
<!-- Node10&#45;&gt;Node14 -->
<g id="edge13_Node000010_Node000014" class="edge">
<title>Node10&#45;&gt;Node14</title>
<g id="a_edge13_Node000010_Node000014"><a xlink:title=" ">
<path fill="none" stroke="#63b8ff" d="M398.41,-164.98C378.28,-156.38 346.95,-142.99 323.92,-133.15"/>
<polygon fill="#63b8ff" stroke="#63b8ff" points="325.19,-129.88 314.62,-129.17 322.43,-136.32 325.19,-129.88"/>
</a>
</g>
</g>
<!-- Node15&#45;&gt;Node5 -->
<g id="edge16_Node000015_Node000005" class="edge">
<title>Node15&#45;&gt;Node5</title>
<g id="a_edge16_Node000015_Node000005"><a xlink:title=" ">
<path fill="none" stroke="#63b8ff" d="M1137.28,-223.32C1059.34,-215.38 905.7,-199.58 763.7,-184.03"/>
<polygon fill="#63b8ff" stroke="#63b8ff" points="763.82,-180.52 753.5,-182.91 763.06,-187.48 763.82,-180.52"/>
</a>
</g>
</g>
<!-- Node15&#45;&gt;Node6 -->
<g id="edge15_Node000015_Node000006" class="edge">
<title>Node15&#45;&gt;Node6</title>
<g id="a_edge15_Node000015_Node000006"><a xlink:title=" ">
<path fill="none" stroke="#63b8ff" d="M1187.86,-219.67C1186.71,-206.37 1182.79,-181.04 1169.33,-165 1097.29,-79.12 967.17,-38.46 892.06,-21.32"/>
<polygon fill="#63b8ff" stroke="#63b8ff" points="892.36,-17.8 881.84,-19.06 890.85,-24.64 892.36,-17.8"/>
</a>
</g>
</g>
<!-- Node16 -->
<g id="Node000016" class="node">
<title>Node16</title>
<g id="a_Node000016"><a xlink:title=" ">
<polygon fill="#e0e0e0" stroke="#999999" points="1160.33,-184 1078.33,-184 1078.33,-165 1160.33,-165 1160.33,-184"/>
<text text-anchor="middle" x="1119.33" y="-172" font-family="Helvetica,sans-Serif" font-size="10.00">QtCore/QMap</text>
</a>
</g>
</g>
<!-- Node15&#45;&gt;Node16 -->
<g id="edge17_Node000015_Node000016" class="edge">
<title>Node15&#45;&gt;Node16</title>
<g id="a_edge17_Node000015_Node000016"><a xlink:title=" ">
<path fill="none" stroke="#63b8ff" d="M1177.24,-219.98C1166.84,-212 1151.07,-199.88 1138.61,-190.31"/>
<polygon fill="#63b8ff" stroke="#63b8ff" points="1140.68,-187.49 1130.62,-184.17 1136.42,-193.04 1140.68,-187.49"/>
</a>
</g>
</g>
<!-- Node17 -->
<g id="Node000017" class="node">
<title>Node17</title>
<g id="a_Node000017"><a xlink:title=" ">
<polygon fill="#e0e0e0" stroke="#999999" points="1444.83,-184 1367.83,-184 1367.83,-165 1444.83,-165 1444.83,-184"/>
<text text-anchor="middle" x="1406.33" y="-172" font-family="Helvetica,sans-Serif" font-size="10.00">QtCore/QSet</text>
</a>
</g>
</g>
<!-- Node15&#45;&gt;Node17 -->
<g id="edge18_Node000015_Node000017" class="edge">
<title>Node15&#45;&gt;Node17</title>
<g id="a_edge18_Node000015_Node000017"><a xlink:title=" ">
<path fill="none" stroke="#63b8ff" d="M1223.36,-219.98C1260.83,-210.87 1320.38,-196.4 1361.31,-186.45"/>
<polygon fill="#63b8ff" stroke="#63b8ff" points="1362.14,-189.85 1371.03,-184.08 1360.49,-183.04 1362.14,-189.85"/>
</a>
</g>
</g>
<!-- Node18 -->
<g id="Node000018" class="node">
<title>Node18</title>
<g id="a_Node000018"><a xlink:title=" ">
<polygon fill="#e0e0e0" stroke="#999999" points="1551.83,-184 1462.83,-184 1462.83,-165 1551.83,-165 1551.83,-184"/>
<text text-anchor="middle" x="1507.33" y="-172" font-family="Helvetica,sans-Serif" font-size="10.00">QtCore/QTimer</text>
</a>
</g>
</g>
<!-- Node15&#45;&gt;Node18 -->
<g id="edge19_Node000015_Node000018" class="edge">
<title>Node15&#45;&gt;Node18</title>
<g id="a_edge19_Node000015_Node000018"><a xlink:title=" ">
<path fill="none" stroke="#63b8ff" d="M1239.58,-219.98C1297.94,-210.29 1392.89,-194.51 1452.64,-184.59"/>
<polygon fill="#63b8ff" stroke="#63b8ff" points="1453.35,-188.02 1462.64,-182.92 1452.2,-181.11 1453.35,-188.02"/>
</a>
</g>
</g>
<!-- Node19 -->
<g id="Node000019" class="node">
<title>Node19</title>
<g id="a_Node000019"><a xlink:title=" ">
<polygon fill="#e0e0e0" stroke="#999999" points="1678.83,-184 1569.83,-184 1569.83,-165 1678.83,-165 1678.83,-184"/>
<text text-anchor="middle" x="1624.33" y="-172" font-family="Helvetica,sans-Serif" font-size="10.00">QtCore/QTranslator</text>
</a>
</g>
</g>
<!-- Node15&#45;&gt;Node19 -->
<g id="edge20_Node000015_Node000019" class="edge">
<title>Node15&#45;&gt;Node19</title>
<g id="a_edge20_Node000015_Node000019"><a xlink:title=" ">
<path fill="none" stroke="#63b8ff" d="M1239.57,-221.27C1242.87,-220.83 1246.15,-220.41 1249.33,-220 1384.55,-202.78 1421.12,-201.39 1559.56,-184.2"/>
<polygon fill="#63b8ff" stroke="#63b8ff" points="1560.21,-187.65 1569.7,-182.94 1559.35,-180.7 1560.21,-187.65"/>
</a>
</g>
</g>
<!-- Node20 -->
<g id="Node000020" class="node">
<title>Node20</title>
<g id="a_Node000020"><a xlink:title=" ">
<polygon fill="#e0e0e0" stroke="#999999" points="1349.83,-184 1216.83,-184 1216.83,-165 1349.83,-165 1349.83,-184"/>
<text text-anchor="middle" x="1283.33" y="-172" font-family="Helvetica,sans-Serif" font-size="10.00">QtWidgets/QApplication</text>
</a>
</g>
</g>
<!-- Node15&#45;&gt;Node20 -->
<g id="edge21_Node000015_Node000020" class="edge">
<title>Node15&#45;&gt;Node20</title>
<g id="a_edge21_Node000015_Node000020"><a xlink:title=" ">
<path fill="none" stroke="#63b8ff" d="M1203.59,-219.98C1218.46,-211.69 1241.31,-198.94 1258.75,-189.22"/>
<polygon fill="#63b8ff" stroke="#63b8ff" points="1260.76,-192.1 1267.79,-184.17 1257.35,-185.99 1260.76,-192.1"/>
</a>
</g>
</g>
<!-- Node21&#45;&gt;Node6 -->
<g id="edge30_Node000021_Node000006" class="edge">
<title>Node21&#45;&gt;Node6</title>
<g id="a_edge30_Node000021_Node000006"><a xlink:title=" ">
<path fill="none" stroke="#63b8ff" d="M1016.74,-219.61C1026.23,-207.08 1040.42,-183.67 1031.33,-165 996.35,-93.12 909.95,-44.78 864.07,-23.25"/>
<polygon fill="#63b8ff" stroke="#63b8ff" points="865.48,-20.05 854.93,-19.07 862.56,-26.41 865.48,-20.05"/>
</a>
</g>
</g>
<!-- Node21&#45;&gt;Node7 -->
<g id="edge31_Node000021_Node000007" class="edge">
<title>Node21&#45;&gt;Node7</title>
<g id="a_edge31_Node000021_Node000007"><a xlink:title=" ">
<path fill="none" stroke="#63b8ff" d="M945.25,-222.05C869.5,-214.25 739.39,-200.27 617.76,-184.14"/>
<polygon fill="#63b8ff" stroke="#63b8ff" points="617.9,-180.63 607.52,-182.78 616.97,-187.57 617.9,-180.63"/>
</a>
</g>
</g>
<!-- Node21&#45;&gt;Node16 -->
<g id="edge33_Node000021_Node000016" class="edge">
<title>Node21&#45;&gt;Node16</title>
<g id="a_edge33_Node000021_Node000016"><a xlink:title=" ">
<path fill="none" stroke="#63b8ff" d="M1027,-219.98C1044.62,-211.5 1071.91,-198.35 1092.26,-188.54"/>
<polygon fill="#63b8ff" stroke="#63b8ff" points="1093.85,-191.66 1101.33,-184.17 1090.81,-185.36 1093.85,-191.66"/>
</a>
</g>
</g>
<!-- Node22 -->
<g id="Node000022" class="node">
<title>Node22</title>
<g id="a_Node000022"><a xlink:href="QmlObjectListModel_8h.html" target="_top" xlink:title=" ">
<polygon fill="white" stroke="#666666" points="896.83,-184 771.83,-184 771.83,-165 896.83,-165 896.83,-184"/>
<text text-anchor="middle" x="834.33" y="-172" font-family="Helvetica,sans-Serif" font-size="10.00">QmlObjectListModel.h</text>
</a>
</g>
</g>
<!-- Node21&#45;&gt;Node22 -->
<g id="edge23_Node000021_Node000022" class="edge">
<title>Node21&#45;&gt;Node22</title>
<g id="a_edge23_Node000021_Node000022"><a xlink:title=" ">
<path fill="none" stroke="#63b8ff" d="M981.21,-219.98C951.71,-211.05 905.14,-196.94 872.36,-187.02"/>
<polygon fill="#63b8ff" stroke="#63b8ff" points="873.25,-183.63 862.67,-184.08 871.22,-190.33 873.25,-183.63"/>
</a>
</g>
</g>
<!-- Node26 -->
<g id="Node000026" class="node">
<title>Node26</title>
<g id="a_Node000026"><a xlink:title=" ">
<polygon fill="#e0e0e0" stroke="#999999" points="1021.83,-184 914.83,-184 914.83,-165 1021.83,-165 1021.83,-184"/>
<text text-anchor="middle" x="968.33" y="-172" font-family="Helvetica,sans-Serif" font-size="10.00">QtCore/QStringList</text>
</a>
</g>
</g>
<!-- Node21&#45;&gt;Node26 -->
<g id="edge32_Node000021_Node000026" class="edge">
<title>Node21&#45;&gt;Node26</title>
<g id="a_edge32_Node000021_Node000026"><a xlink:title=" ">
<path fill="none" stroke="#63b8ff" d="M1002.56,-219.75C996.77,-212.26 988.27,-201.28 981.19,-192.13"/>
<polygon fill="#63b8ff" stroke="#63b8ff" points="983.86,-189.86 974.97,-184.09 978.32,-194.14 983.86,-189.86"/>
</a>
</g>
</g>
<!-- Node22&#45;&gt;Node6 -->
<g id="edge29_Node000022_Node000006" class="edge">
<title>Node22&#45;&gt;Node6</title>
<g id="a_edge29_Node000022_Node000006"><a xlink:title=" ">
<path fill="none" stroke="#63b8ff" d="M834.33,-164.74C834.33,-139.31 834.33,-65.08 834.33,-29.69"/>
<polygon fill="#63b8ff" stroke="#63b8ff" points="837.83,-29.31 834.33,-19.31 830.83,-29.31 837.83,-29.31"/>
</a>
</g>
</g>
<!-- Node23 -->
<g id="Node000023" class="node">
<title>Node23</title>
<g id="a_Node000023"><a xlink:href="ObjectListModelBase_8h.html" target="_top" xlink:title=" ">
<polygon fill="white" stroke="#666666" points="660.33,-129 532.33,-129 532.33,-110 660.33,-110 660.33,-129"/>
<text text-anchor="middle" x="596.33" y="-117" font-family="Helvetica,sans-Serif" font-size="10.00">ObjectListModelBase.h</text>
</a>
</g>
</g>
<!-- Node22&#45;&gt;Node23 -->
<g id="edge24_Node000022_Node000023" class="edge">
<title>Node22&#45;&gt;Node23</title>
<g id="a_edge24_Node000022_Node000023"><a xlink:title=" ">
<path fill="none" stroke="#63b8ff" d="M796.09,-164.98C754.92,-155.82 689.34,-141.21 644.63,-131.26"/>
<polygon fill="#63b8ff" stroke="#63b8ff" points="645.39,-127.84 634.87,-129.08 643.87,-134.67 645.39,-127.84"/>
</a>
</g>
</g>
<!-- Node24 -->
<g id="Node000024" class="node">
<title>Node24</title>
<g id="a_Node000024"><a xlink:href="ObjectItemModelBase_8h.html" target="_top" xlink:title=" ">
<polygon fill="white" stroke="#666666" points="660.33,-74 526.33,-74 526.33,-55 660.33,-55 660.33,-74"/>
<text text-anchor="middle" x="593.33" y="-62" font-family="Helvetica,sans-Serif" font-size="10.00">ObjectItemModelBase.h</text>
</a>
</g>
</g>
<!-- Node23&#45;&gt;Node24 -->
<g id="edge25_Node000023_Node000024" class="edge">
<title>Node23&#45;&gt;Node24</title>
<g id="a_edge25_Node000023_Node000024"><a xlink:title=" ">
<path fill="none" stroke="#63b8ff" d="M595.83,-109.75C595.44,-102.8 594.88,-92.85 594.38,-84.13"/>
<polygon fill="#63b8ff" stroke="#63b8ff" points="597.88,-83.88 593.82,-74.09 590.89,-84.27 597.88,-83.88"/>
</a>
</g>
</g>
<!-- Node24&#45;&gt;Node6 -->
<g id="edge27_Node000024_Node000006" class="edge">
<title>Node24&#45;&gt;Node6</title>
<g id="a_edge27_Node000024_Node000006"><a xlink:title=" ">
<path fill="none" stroke="#63b8ff" d="M632.05,-54.98C673.74,-45.82 740.15,-31.21 785.42,-21.26"/>
<polygon fill="#63b8ff" stroke="#63b8ff" points="786.29,-24.65 795.31,-19.08 784.79,-17.81 786.29,-24.65"/>
</a>
</g>
</g>
<!-- Node24&#45;&gt;Node9 -->
<g id="edge28_Node000024_Node000009" class="edge">
<title>Node24&#45;&gt;Node9</title>
<g id="a_edge28_Node000024_Node000009"><a xlink:title=" ">
<path fill="none" stroke="#63b8ff" d="M533.88,-54.98C468.17,-45.57 362.44,-30.43 292.92,-20.47"/>
<polygon fill="#63b8ff" stroke="#63b8ff" points="293.33,-16.99 282.94,-19.04 292.34,-23.92 293.33,-16.99"/>
</a>
</g>
</g>
<!-- Node25 -->
<g id="Node000025" class="node">
<title>Node25</title>
<g id="a_Node000025"><a xlink:title=" ">
<polygon fill="#e0e0e0" stroke="#999999" points="670.33,-19 516.33,-19 516.33,0 670.33,0 670.33,-19"/>
<text text-anchor="middle" x="593.33" y="-7" font-family="Helvetica,sans-Serif" font-size="10.00">QtCore/QAbstractItemModel</text>
</a>
</g>
</g>
<!-- Node24&#45;&gt;Node25 -->
<g id="edge26_Node000024_Node000025" class="edge">
<title>Node24&#45;&gt;Node25</title>
<g id="a_edge26_Node000024_Node000025"><a xlink:title=" ">
<path fill="none" stroke="#63b8ff" d="M593.33,-54.75C593.33,-47.8 593.33,-37.85 593.33,-29.13"/>
<polygon fill="#63b8ff" stroke="#63b8ff" points="596.83,-29.09 593.33,-19.09 589.83,-29.09 596.83,-29.09"/>
</a>
</g>
</g>
</g>
</svg>
