<?xml version="1.0" encoding="UTF-8" standalone="no"?>
<!DOCTYPE svg PUBLIC "-//W3C//DTD SVG 1.1//EN"
 "http://www.w3.org/Graphics/SVG/1.1/DTD/svg11.dtd">
<!-- Generated by graphviz version 2.43.0 (0)
 -->
<!-- Title: src/Utilities/Logging/LogEntryTableModel.h Pages: 1 -->
<svg width="488pt" height="170pt"
 viewBox="0.00 0.00 488.00 170.00" xmlns="http://www.w3.org/2000/svg" xmlns:xlink="http://www.w3.org/1999/xlink">

<svg id="main" version="1.1" xmlns="http://www.w3.org/2000/svg" xmlns:xlink="http://www.w3.org/1999/xlink" xml:space="preserve" onload="init(evt)">
<style type="text/css"><![CDATA[
.node, .edge {opacity: 0.7;}
.node.selected, .edge.selected {opacity: 1;}
.edge:hover path { stroke: red; }
.edge:hover polygon { stroke: red; fill: red; }
]]></style>
<script type="application/ecmascript" xlink:href="svg.min.js"/>
<svg id="graph" class="graph">
<g id="graph0" class="graph" transform="scale(1 1) rotate(0) translate(4 166)">
<title>src/Utilities/Logging/LogEntryTableModel.h</title>
<!-- Node1 -->
<g id="Node000001" class="node">
<title>Node1</title>
<g id="a_Node000001"><a xlink:title=" ">
<polygon fill="#999999" stroke="#666666" points="269,-162 142,-162 142,-132 269,-132 269,-162"/>
<text text-anchor="start" x="150" y="-150" font-family="Helvetica,sans-Serif" font-size="10.00">src/Utilities/Logging</text>
<text text-anchor="middle" x="205.5" y="-139" font-family="Helvetica,sans-Serif" font-size="10.00">/LogEntryTableModel.h</text>
</a>
</g>
</g>
<!-- Node2 -->
<g id="Node000002" class="node">
<title>Node2</title>
<g id="a_Node000002"><a xlink:href="LogEntryTableModel_8cc.html" target="_top" xlink:title=" ">
<polygon fill="white" stroke="#666666" points="131,-96 0,-96 0,-66 131,-66 131,-96"/>
<text text-anchor="start" x="8" y="-84" font-family="Helvetica,sans-Serif" font-size="10.00">src/Utilities/Logging</text>
<text text-anchor="middle" x="65.5" y="-73" font-family="Helvetica,sans-Serif" font-size="10.00">/LogEntryTableModel.cc</text>
</a>
</g>
</g>
<!-- Node1&#45;&gt;Node2 -->
<g id="edge1_Node000001_Node000002" class="edge">
<title>Node1&#45;&gt;Node2</title>
<g id="a_edge1_Node000001_Node000002"><a xlink:title=" ">
<path fill="none" stroke="#63b8ff" d="M165.65,-127.78C143.58,-117.69 116.56,-105.34 96.15,-96.01"/>
<polygon fill="#63b8ff" stroke="#63b8ff" points="164.23,-130.98 174.78,-131.95 167.14,-124.61 164.23,-130.98"/>
</a>
</g>
</g>
<!-- Node3 -->
<g id="Node000003" class="node">
<title>Node3</title>
<g id="a_Node000003"><a xlink:href="LogModel_8h.html" target="_top" xlink:title=" ">
<polygon fill="white" stroke="#666666" points="262,-96 149,-96 149,-66 262,-66 262,-96"/>
<text text-anchor="start" x="157" y="-84" font-family="Helvetica,sans-Serif" font-size="10.00">src/Utilities/Logging</text>
<text text-anchor="middle" x="205.5" y="-73" font-family="Helvetica,sans-Serif" font-size="10.00">/LogModel.h</text>
</a>
</g>
</g>
<!-- Node1&#45;&gt;Node3 -->
<g id="edge2_Node000001_Node000003" class="edge">
<title>Node1&#45;&gt;Node3</title>
<g id="a_edge2_Node000001_Node000003"><a xlink:title=" ">
<path fill="none" stroke="#63b8ff" d="M205.5,-121.54C205.5,-112.96 205.5,-103.61 205.5,-96.16"/>
<polygon fill="#63b8ff" stroke="#63b8ff" points="202,-121.8 205.5,-131.8 209,-121.8 202,-121.8"/>
</a>
</g>
</g>
<!-- Node6 -->
<g id="Node000006" class="node">
<title>Node6</title>
<g id="a_Node000006"><a xlink:href="LogStoreQueryModel_8h.html" target="_top" xlink:title=" ">
<polygon fill="white" stroke="#666666" points="411,-96 280,-96 280,-66 411,-66 411,-96"/>
<text text-anchor="start" x="288" y="-84" font-family="Helvetica,sans-Serif" font-size="10.00">src/Utilities/Logging</text>
<text text-anchor="middle" x="345.5" y="-73" font-family="Helvetica,sans-Serif" font-size="10.00">/LogStoreQueryModel.h</text>
</a>
</g>
</g>
<!-- Node1&#45;&gt;Node6 -->
<g id="edge5_Node000001_Node000006" class="edge">
<title>Node1&#45;&gt;Node6</title>
<g id="a_edge5_Node000001_Node000006"><a xlink:title=" ">
<path fill="none" stroke="#63b8ff" d="M245.35,-127.78C267.42,-117.69 294.44,-105.34 314.85,-96.01"/>
<polygon fill="#63b8ff" stroke="#63b8ff" points="243.86,-124.61 236.22,-131.95 246.77,-130.98 243.86,-124.61"/>
</a>
</g>
</g>
<!-- Node4 -->
<g id="Node000004" class="node">
<title>Node4</title>
<g id="a_Node000004"><a xlink:href="LogManager_8cc.html" target="_top" xlink:title=" ">
<polygon fill="white" stroke="#666666" points="327,-30 214,-30 214,0 327,0 327,-30"/>
<text text-anchor="start" x="222" y="-18" font-family="Helvetica,sans-Serif" font-size="10.00">src/Utilities/Logging</text>
<text text-anchor="middle" x="270.5" y="-7" font-family="Helvetica,sans-Serif" font-size="10.00">/LogManager.cc</text>
</a>
</g>
</g>
<!-- Node3&#45;&gt;Node4 -->
<g id="edge3_Node000003_Node000004" class="edge">
<title>Node3&#45;&gt;Node4</title>
<g id="a_edge3_Node000003_Node000004"><a xlink:title=" ">
<path fill="none" stroke="#63b8ff" d="M227.19,-58.65C236.71,-49.27 247.62,-38.53 256.11,-30.16"/>
<polygon fill="#63b8ff" stroke="#63b8ff" points="224.6,-56.29 219.93,-65.8 229.51,-61.27 224.6,-56.29"/>
</a>
</g>
</g>
<!-- Node5 -->
<g id="Node000005" class="node">
<title>Node5</title>
<g id="a_Node000005"><a xlink:href="LogModel_8cc.html" target="_top" xlink:title=" ">
<polygon fill="white" stroke="#666666" points="196,-30 83,-30 83,0 196,0 196,-30"/>
<text text-anchor="start" x="91" y="-18" font-family="Helvetica,sans-Serif" font-size="10.00">src/Utilities/Logging</text>
<text text-anchor="middle" x="139.5" y="-7" font-family="Helvetica,sans-Serif" font-size="10.00">/LogModel.cc</text>
</a>
</g>
</g>
<!-- Node3&#45;&gt;Node5 -->
<g id="edge4_Node000003_Node000005" class="edge">
<title>Node3&#45;&gt;Node5</title>
<g id="a_edge4_Node000003_Node000005"><a xlink:title=" ">
<path fill="none" stroke="#63b8ff" d="M183.48,-58.65C173.81,-49.27 162.73,-38.53 154.11,-30.16"/>
<polygon fill="#63b8ff" stroke="#63b8ff" points="181.24,-61.35 190.85,-65.8 186.11,-56.32 181.24,-61.35"/>
</a>
</g>
</g>
<!-- Node6&#45;&gt;Node4 -->
<g id="edge6_Node000006_Node000004" class="edge">
<title>Node6&#45;&gt;Node4</title>
<g id="a_edge6_Node000006_Node000004"><a xlink:title=" ">
<path fill="none" stroke="#63b8ff" d="M321.13,-59.2C309.99,-49.7 297.09,-38.69 287.1,-30.16"/>
<polygon fill="#63b8ff" stroke="#63b8ff" points="318.98,-61.97 328.86,-65.8 323.52,-56.64 318.98,-61.97"/>
</a>
</g>
</g>
<!-- Node7 -->
<g id="Node000007" class="node">
<title>Node7</title>
<g id="a_Node000007"><a xlink:href="LogStoreQueryModel_8cc.html" target="_top" xlink:title=" ">
<polygon fill="white" stroke="#666666" points="480,-30 345,-30 345,0 480,0 480,-30"/>
<text text-anchor="start" x="353" y="-18" font-family="Helvetica,sans-Serif" font-size="10.00">src/Utilities/Logging</text>
<text text-anchor="middle" x="412.5" y="-7" font-family="Helvetica,sans-Serif" font-size="10.00">/LogStoreQueryModel.cc</text>
</a>
</g>
</g>
<!-- Node6&#45;&gt;Node7 -->
<g id="edge7_Node000006_Node000007" class="edge">
<title>Node6&#45;&gt;Node7</title>
<g id="a_edge7_Node000006_Node000007"><a xlink:title=" ">
<path fill="none" stroke="#63b8ff" d="M367.85,-58.65C377.67,-49.27 388.92,-38.53 397.67,-30.16"/>
<polygon fill="#63b8ff" stroke="#63b8ff" points="365.18,-56.36 360.37,-65.8 370.02,-61.42 365.18,-56.36"/>
</a>
</g>
</g>
</g>
</svg>
</svg>

<style type='text/css'>
<![CDATA[
[data-mouse-over-selected='false'] { opacity: 0.7; }
[data-mouse-over-selected='true']  { opacity: 1.0; }
]]>
</style>
<script type="application/ecmascript"><![CDATA[
document.addEventListener('DOMContentLoaded', (event) => {
  highlightEdges();
  highlightAdjacentNodes();
});
]]></script>
</svg>
