<?xml version="1.0" encoding="UTF-8" standalone="no"?>
<!DOCTYPE svg PUBLIC "-//W3C//DTD SVG 1.1//EN"
 "http://www.w3.org/Graphics/SVG/1.1/DTD/svg11.dtd">
<!-- Generated by graphviz version 2.43.0 (0)
 -->
<!-- Title: src/Utilities/Logging/LogFormatter.h Pages: 1 -->
<svg width="553pt" height="170pt"
 viewBox="0.00 0.00 553.00 170.00" xmlns="http://www.w3.org/2000/svg" xmlns:xlink="http://www.w3.org/1999/xlink">
<g id="graph0" class="graph" transform="scale(1 1) rotate(0) translate(4 166)">
<title>src/Utilities/Logging/LogFormatter.h</title>
<!-- Node1 -->
<g id="Node000001" class="node">
<title>Node1</title>
<g id="a_Node000001"><a xlink:title=" ">
<polygon fill="#999999" stroke="#666666" points="283,-162 170,-162 170,-132 283,-132 283,-162"/>
<text text-anchor="start" x="178" y="-150" font-family="Helvetica,sans-Serif" font-size="10.00">src/Utilities/Logging</text>
<text text-anchor="middle" x="226.5" y="-139" font-family="Helvetica,sans-Serif" font-size="10.00">/LogFormatter.h</text>
</a>
</g>
</g>
<!-- Node2 -->
<g id="Node000002" class="node">
<title>Node2</title>
<g id="a_Node000002"><a xlink:href="LogFormatter_8cc.html" target="_top" xlink:title=" ">
<polygon fill="white" stroke="#666666" points="113,-96 0,-96 0,-66 113,-66 113,-96"/>
<text text-anchor="start" x="8" y="-84" font-family="Helvetica,sans-Serif" font-size="10.00">src/Utilities/Logging</text>
<text text-anchor="middle" x="56.5" y="-73" font-family="Helvetica,sans-Serif" font-size="10.00">/LogFormatter.cc</text>
</a>
</g>
</g>
<!-- Node1&#45;&gt;Node2 -->
<g id="edge1_Node000001_Node000002" class="edge">
<title>Node1&#45;&gt;Node2</title>
<g id="a_edge1_Node000001_Node000002"><a xlink:title=" ">
<path fill="none" stroke="#63b8ff" d="M179.54,-128.32C152.49,-118.14 118.95,-105.51 93.72,-96.01"/>
<polygon fill="#63b8ff" stroke="#63b8ff" points="178.6,-131.71 189.19,-131.95 181.07,-125.16 178.6,-131.71"/>
</a>
</g>
</g>
<!-- Node3 -->
<g id="Node000003" class="node">
<title>Node3</title>
<g id="a_Node000003"><a xlink:href="LogManager_8cc.html" target="_top" xlink:title=" ">
<polygon fill="white" stroke="#666666" points="172,-30 59,-30 59,0 172,0 172,-30"/>
<text text-anchor="start" x="67" y="-18" font-family="Helvetica,sans-Serif" font-size="10.00">src/Utilities/Logging</text>
<text text-anchor="middle" x="115.5" y="-7" font-family="Helvetica,sans-Serif" font-size="10.00">/LogManager.cc</text>
</a>
</g>
</g>
<!-- Node1&#45;&gt;Node3 -->
<g id="edge2_Node000001_Node000003" class="edge">
<title>Node1&#45;&gt;Node3</title>
<g id="a_edge2_Node000001_Node000003"><a xlink:title=" ">
<path fill="none" stroke="#63b8ff" d="M195.4,-125.93C183.9,-117.57 171.28,-107.19 161.5,-96 143.57,-75.5 129.17,-46.95 121.52,-30.08"/>
<polygon fill="#63b8ff" stroke="#63b8ff" points="193.73,-129.04 203.92,-131.92 197.75,-123.31 193.73,-129.04"/>
</a>
</g>
</g>
<!-- Node4 -->
<g id="Node000004" class="node">
<title>Node4</title>
<g id="a_Node000004"><a xlink:href="LogManager_8h.html" target="_top" xlink:title=" ">
<polygon fill="white" stroke="#666666" points="283,-96 170,-96 170,-66 283,-66 283,-96"/>
<text text-anchor="start" x="178" y="-84" font-family="Helvetica,sans-Serif" font-size="10.00">src/Utilities/Logging</text>
<text text-anchor="middle" x="226.5" y="-73" font-family="Helvetica,sans-Serif" font-size="10.00">/LogManager.h</text>
</a>
</g>
</g>
<!-- Node1&#45;&gt;Node4 -->
<g id="edge3_Node000001_Node000004" class="edge">
<title>Node1&#45;&gt;Node4</title>
<g id="a_edge3_Node000001_Node000004"><a xlink:title=" ">
<path fill="none" stroke="#63b8ff" d="M226.5,-121.54C226.5,-112.96 226.5,-103.61 226.5,-96.16"/>
<polygon fill="#63b8ff" stroke="#63b8ff" points="223,-121.8 226.5,-131.8 230,-121.8 223,-121.8"/>
</a>
</g>
</g>
<!-- Node7 -->
<g id="Node000007" class="node">
<title>Node7</title>
<g id="a_Node000007"><a xlink:href="LogRemoteSink_8cc.html" target="_top" xlink:title=" ">
<polygon fill="white" stroke="#666666" points="414,-96 301,-96 301,-66 414,-66 414,-96"/>
<text text-anchor="start" x="309" y="-84" font-family="Helvetica,sans-Serif" font-size="10.00">src/Utilities/Logging</text>
<text text-anchor="middle" x="357.5" y="-73" font-family="Helvetica,sans-Serif" font-size="10.00">/LogRemoteSink.cc</text>
</a>
</g>
</g>
<!-- Node1&#45;&gt;Node7 -->
<g id="edge7_Node000001_Node000007" class="edge">
<title>Node1&#45;&gt;Node7</title>
<g id="a_edge7_Node000001_Node000007"><a xlink:title=" ">
<path fill="none" stroke="#63b8ff" d="M264.34,-127.51C284.89,-117.47 309.89,-105.26 328.82,-96.01"/>
<polygon fill="#63b8ff" stroke="#63b8ff" points="262.7,-124.42 255.25,-131.95 265.77,-130.71 262.7,-124.42"/>
</a>
</g>
</g>
<!-- Node8 -->
<g id="Node000008" class="node">
<title>Node8</title>
<g id="a_Node000008"><a xlink:href="LogStore_8cc.html" target="_top" xlink:title=" ">
<polygon fill="white" stroke="#666666" points="545,-96 432,-96 432,-66 545,-66 545,-96"/>
<text text-anchor="start" x="440" y="-84" font-family="Helvetica,sans-Serif" font-size="10.00">src/Utilities/Logging</text>
<text text-anchor="middle" x="488.5" y="-73" font-family="Helvetica,sans-Serif" font-size="10.00">/LogStore.cc</text>
</a>
</g>
</g>
<!-- Node1&#45;&gt;Node8 -->
<g id="edge8_Node000001_Node000008" class="edge">
<title>Node1&#45;&gt;Node8</title>
<g id="a_edge8_Node000001_Node000008"><a xlink:title=" ">
<path fill="none" stroke="#63b8ff" d="M292.8,-129.8C335.63,-119.34 390.79,-105.87 431.62,-95.89"/>
<polygon fill="#63b8ff" stroke="#63b8ff" points="291.91,-126.42 283.03,-132.19 293.57,-133.22 291.91,-126.42"/>
</a>
</g>
</g>
<!-- Node4&#45;&gt;Node3 -->
<g id="edge5_Node000004_Node000003" class="edge">
<title>Node4&#45;&gt;Node3</title>
<g id="a_edge5_Node000004_Node000003"><a xlink:title=" ">
<path fill="none" stroke="#63b8ff" d="M193.02,-60.69C175.88,-50.82 155.41,-39.01 139.8,-30.01"/>
<polygon fill="#63b8ff" stroke="#63b8ff" points="191.73,-63.99 202.14,-65.95 195.23,-57.93 191.73,-63.99"/>
</a>
</g>
</g>
<!-- Node5 -->
<g id="Node000005" class="node">
<title>Node5</title>
<g id="a_Node000005"><a xlink:href="QGCApplication_8cc.html" target="_top" xlink:title=" ">
<polygon fill="white" stroke="#666666" points="314.5,-24.5 190.5,-24.5 190.5,-5.5 314.5,-5.5 314.5,-24.5"/>
<text text-anchor="middle" x="252.5" y="-12.5" font-family="Helvetica,sans-Serif" font-size="10.00">src/QGCApplication.cc</text>
</a>
</g>
</g>
<!-- Node4&#45;&gt;Node5 -->
<g id="edge4_Node000004_Node000005" class="edge">
<title>Node4&#45;&gt;Node5</title>
<g id="a_edge4_Node000004_Node000005"><a xlink:title=" ">
<path fill="none" stroke="#63b8ff" d="M236.14,-56.28C240.59,-45.31 245.62,-32.94 248.91,-24.84"/>
<polygon fill="#63b8ff" stroke="#63b8ff" points="232.79,-55.21 232.27,-65.8 239.28,-57.85 232.79,-55.21"/>
</a>
</g>
</g>
<!-- Node6 -->
<g id="Node000006" class="node">
<title>Node6</title>
<g id="a_Node000006"><a xlink:href="main_8cc.html" target="_top" xlink:title=" ">
<polygon fill="white" stroke="#666666" points="404.5,-24.5 332.5,-24.5 332.5,-5.5 404.5,-5.5 404.5,-24.5"/>
<text text-anchor="middle" x="368.5" y="-12.5" font-family="Helvetica,sans-Serif" font-size="10.00">src/main.cc</text>
</a>
</g>
</g>
<!-- Node4&#45;&gt;Node6 -->
<g id="edge6_Node000004_Node000006" class="edge">
<title>Node4&#45;&gt;Node6</title>
<g id="a_edge6_Node000004_Node000006"><a xlink:title=" ">
<path fill="none" stroke="#63b8ff" d="M266.92,-61.78C294.08,-49.54 328.6,-33.98 349.6,-24.52"/>
<polygon fill="#63b8ff" stroke="#63b8ff" points="265.34,-58.65 257.66,-65.95 268.22,-65.04 265.34,-58.65"/>
</a>
</g>
</g>
</g>
</svg>
