<?xml version="1.0" encoding="UTF-8" standalone="no"?>
<!DOCTYPE svg PUBLIC "-//W3C//DTD SVG 1.1//EN"
 "http://www.w3.org/Graphics/SVG/1.1/DTD/svg11.dtd">
<!-- Generated by graphviz version 2.43.0 (0)
 -->
<!-- Title: src/Utilities/Logging/LogStore.h Pages: 1 -->
<svg width="860pt" height="148pt"
 viewBox="0.00 0.00 859.50 148.00" xmlns="http://www.w3.org/2000/svg" xmlns:xlink="http://www.w3.org/1999/xlink">
<g id="graph0" class="graph" transform="scale(1 1) rotate(0) translate(4 144)">
<title>src/Utilities/Logging/LogStore.h</title>
<!-- Node1 -->
<g id="Node000001" class="node">
<title>Node1</title>
<g id="a_Node000001"><a xlink:title=" ">
<polygon fill="#999999" stroke="#666666" points="523.5,-140 410.5,-140 410.5,-110 523.5,-110 523.5,-140"/>
<text text-anchor="start" x="418.5" y="-128" font-family="Helvetica,sans-Serif" font-size="10.00">src/Utilities/Logging</text>
<text text-anchor="middle" x="467" y="-117" font-family="Helvetica,sans-Serif" font-size="10.00">/LogStore.h</text>
</a>
</g>
</g>
<!-- Node2 -->
<g id="Node000002" class="node">
<title>Node2</title>
<g id="a_Node000002"><a xlink:title=" ">
<polygon fill="#e0e0e0" stroke="#999999" points="92,-74 0,-74 0,-55 92,-55 92,-74"/>
<text text-anchor="middle" x="46" y="-62" font-family="Helvetica,sans-Serif" font-size="10.00">QtCore/QFuture</text>
</a>
</g>
</g>
<!-- Node1&#45;&gt;Node2 -->
<g id="edge1_Node000001_Node000002" class="edge">
<title>Node1&#45;&gt;Node2</title>
<g id="a_edge1_Node000001_Node000002"><a xlink:title=" ">
<path fill="none" stroke="#63b8ff" d="M410.21,-116.56C340.26,-107.32 217.51,-90.88 102.26,-74.16"/>
<polygon fill="#63b8ff" stroke="#63b8ff" points="102.6,-70.68 92.2,-72.7 101.6,-77.6 102.6,-70.68"/>
</a>
</g>
</g>
<!-- Node3 -->
<g id="Node000003" class="node">
<title>Node3</title>
<g id="a_Node000003"><a xlink:title=" ">
<polygon fill="#e0e0e0" stroke="#999999" points="188,-74 110,-74 110,-55 188,-55 188,-74"/>
<text text-anchor="middle" x="149" y="-62" font-family="Helvetica,sans-Serif" font-size="10.00">QtCore/QList</text>
</a>
</g>
</g>
<!-- Node1&#45;&gt;Node3 -->
<g id="edge2_Node000001_Node000003" class="edge">
<title>Node1&#45;&gt;Node3</title>
<g id="a_edge2_Node000001_Node000003"><a xlink:title=" ">
<path fill="none" stroke="#63b8ff" d="M410.15,-113.54C349.81,-102.44 255.45,-85.08 198.2,-74.55"/>
<polygon fill="#63b8ff" stroke="#63b8ff" points="198.78,-71.1 188.31,-72.73 197.51,-77.98 198.78,-71.1"/>
</a>
</g>
</g>
<!-- Node4 -->
<g id="Node000004" class="node">
<title>Node4</title>
<g id="a_Node000004"><a xlink:title=" ">
<polygon fill="#e0e0e0" stroke="#999999" points="298,-74 206,-74 206,-55 298,-55 298,-74"/>
<text text-anchor="middle" x="252" y="-62" font-family="Helvetica,sans-Serif" font-size="10.00">QtCore/QMutex</text>
</a>
</g>
</g>
<!-- Node1&#45;&gt;Node4 -->
<g id="edge3_Node000001_Node000004" class="edge">
<title>Node1&#45;&gt;Node4</title>
<g id="a_edge3_Node000001_Node000004"><a xlink:title=" ">
<path fill="none" stroke="#63b8ff" d="M415.5,-109.99C378.08,-99.8 328.09,-86.2 293.27,-76.73"/>
<polygon fill="#63b8ff" stroke="#63b8ff" points="294,-73.3 283.44,-74.05 292.17,-80.06 294,-73.3"/>
</a>
</g>
</g>
<!-- Node5 -->
<g id="Node000005" class="node">
<title>Node5</title>
<g id="a_Node000005"><a xlink:title=" ">
<polygon fill="#e0e0e0" stroke="#999999" points="408,-74 316,-74 316,-55 408,-55 408,-74"/>
<text text-anchor="middle" x="362" y="-62" font-family="Helvetica,sans-Serif" font-size="10.00">QtCore/QObject</text>
</a>
</g>
</g>
<!-- Node1&#45;&gt;Node5 -->
<g id="edge4_Node000001_Node000005" class="edge">
<title>Node1&#45;&gt;Node5</title>
<g id="a_edge4_Node000001_Node000005"><a xlink:title=" ">
<path fill="none" stroke="#63b8ff" d="M441.85,-109.99C425.11,-100.66 403.23,-88.47 386.61,-79.21"/>
<polygon fill="#63b8ff" stroke="#63b8ff" points="387.95,-75.95 377.51,-74.14 384.54,-82.06 387.95,-75.95"/>
</a>
</g>
</g>
<!-- Node6 -->
<g id="Node000006" class="node">
<title>Node6</title>
<g id="a_Node000006"><a xlink:title=" ">
<polygon fill="#e0e0e0" stroke="#999999" points="425.5,-19 336.5,-19 336.5,0 425.5,0 425.5,-19"/>
<text text-anchor="middle" x="381" y="-7" font-family="Helvetica,sans-Serif" font-size="10.00">QtCore/QString</text>
</a>
</g>
</g>
<!-- Node1&#45;&gt;Node6 -->
<g id="edge5_Node000001_Node000006" class="edge">
<title>Node1&#45;&gt;Node6</title>
<g id="a_edge5_Node000001_Node000006"><a xlink:title=" ">
<path fill="none" stroke="#63b8ff" d="M457.06,-109.83C447.13,-95.77 431.3,-73.67 417,-55 409.82,-45.63 401.56,-35.38 394.76,-27.08"/>
<polygon fill="#63b8ff" stroke="#63b8ff" points="397.37,-24.75 388.31,-19.26 391.97,-29.2 397.37,-24.75"/>
</a>
</g>
</g>
<!-- Node7 -->
<g id="Node000007" class="node">
<title>Node7</title>
<g id="a_Node000007"><a xlink:title=" ">
<polygon fill="#e0e0e0" stroke="#999999" points="717.5,-74 588.5,-74 588.5,-55 717.5,-55 717.5,-74"/>
<text text-anchor="middle" x="653" y="-62" font-family="Helvetica,sans-Serif" font-size="10.00">QtCore/QWaitCondition</text>
</a>
</g>
</g>
<!-- Node1&#45;&gt;Node7 -->
<g id="edge6_Node000001_Node000007" class="edge">
<title>Node1&#45;&gt;Node7</title>
<g id="a_edge6_Node000001_Node000007"><a xlink:title=" ">
<path fill="none" stroke="#63b8ff" d="M511.55,-109.99C543.51,-99.94 586.06,-86.55 616.12,-77.1"/>
<polygon fill="#63b8ff" stroke="#63b8ff" points="617.31,-80.39 625.8,-74.05 615.21,-73.72 617.31,-80.39"/>
</a>
</g>
</g>
<!-- Node8 -->
<g id="Node000008" class="node">
<title>Node8</title>
<g id="a_Node000008"><a xlink:title=" ">
<polygon fill="#e0e0e0" stroke="#999999" points="759.5,-19 570.5,-19 570.5,0 759.5,0 759.5,-19"/>
<text text-anchor="middle" x="665" y="-7" font-family="Helvetica,sans-Serif" font-size="10.00">QtQmlIntegration/QtQmlIntegration</text>
</a>
</g>
</g>
<!-- Node1&#45;&gt;Node8 -->
<g id="edge7_Node000001_Node000008" class="edge">
<title>Node1&#45;&gt;Node8</title>
<g id="a_edge7_Node000001_Node000008"><a xlink:title=" ">
<path fill="none" stroke="#63b8ff" d="M489.25,-109.81C511.86,-95.54 548,-73.12 580,-55 599.39,-44.02 621.72,-32.37 638.62,-23.74"/>
<polygon fill="#63b8ff" stroke="#63b8ff" points="640.56,-26.69 647.89,-19.04 637.39,-20.44 640.56,-26.69"/>
</a>
</g>
</g>
<!-- Node9 -->
<g id="Node000009" class="node">
<title>Node9</title>
<g id="a_Node000009"><a xlink:title=" ">
<polygon fill="#e0e0e0" stroke="#999999" points="786,-74 736,-74 736,-55 786,-55 786,-74"/>
<text text-anchor="middle" x="761" y="-62" font-family="Helvetica,sans-Serif" font-size="10.00">atomic</text>
</a>
</g>
</g>
<!-- Node1&#45;&gt;Node9 -->
<g id="edge8_Node000001_Node000009" class="edge">
<title>Node1&#45;&gt;Node9</title>
<g id="a_edge8_Node000001_Node000009"><a xlink:title=" ">
<path fill="none" stroke="#63b8ff" d="M523.74,-114.02C574.26,-104.92 650.43,-90.69 725.66,-74.2"/>
<polygon fill="#63b8ff" stroke="#63b8ff" points="726.77,-77.54 735.79,-71.97 725.27,-70.7 726.77,-77.54"/>
</a>
</g>
</g>
<!-- Node10 -->
<g id="Node000010" class="node">
<title>Node10</title>
<g id="a_Node000010"><a xlink:title=" ">
<polygon fill="#e0e0e0" stroke="#999999" points="851.5,-74 804.5,-74 804.5,-55 851.5,-55 851.5,-74"/>
<text text-anchor="middle" x="828" y="-62" font-family="Helvetica,sans-Serif" font-size="10.00">vector</text>
</a>
</g>
</g>
<!-- Node1&#45;&gt;Node10 -->
<g id="edge9_Node000001_Node000010" class="edge">
<title>Node1&#45;&gt;Node10</title>
<g id="a_edge9_Node000001_Node000010"><a xlink:title=" ">
<path fill="none" stroke="#63b8ff" d="M523.6,-117.13C587.11,-109.04 693.35,-94.32 794.22,-73.97"/>
<polygon fill="#63b8ff" stroke="#63b8ff" points="795.17,-77.34 804.27,-71.92 793.78,-70.49 795.17,-77.34"/>
</a>
</g>
</g>
<!-- Node11 -->
<g id="Node000011" class="node">
<title>Node11</title>
<g id="a_Node000011"><a xlink:href="LogEntry_8h.html" target="_top" xlink:title=" ">
<polygon fill="white" stroke="#666666" points="531.5,-74 464.5,-74 464.5,-55 531.5,-55 531.5,-74"/>
<text text-anchor="middle" x="498" y="-62" font-family="Helvetica,sans-Serif" font-size="10.00">LogEntry.h</text>
</a>
</g>
</g>
<!-- Node1&#45;&gt;Node11 -->
<g id="edge10_Node000001_Node000011" class="edge">
<title>Node1&#45;&gt;Node11</title>
<g id="a_edge10_Node000001_Node000011"><a xlink:title=" ">
<path fill="none" stroke="#63b8ff" d="M474.5,-109.84C478.73,-101.87 484.04,-91.84 488.55,-83.33"/>
<polygon fill="#63b8ff" stroke="#63b8ff" points="491.77,-84.74 493.35,-74.27 485.58,-81.46 491.77,-84.74"/>
</a>
</g>
</g>
<!-- Node11&#45;&gt;Node6 -->
<g id="edge12_Node000011_Node000006" class="edge">
<title>Node11&#45;&gt;Node6</title>
<g id="a_edge12_Node000011_Node000006"><a xlink:title=" ">
<path fill="none" stroke="#63b8ff" d="M479.2,-54.98C460.38,-46.46 431.18,-33.23 409.5,-23.41"/>
<polygon fill="#63b8ff" stroke="#63b8ff" points="410.69,-20.11 400.14,-19.17 407.8,-26.48 410.69,-20.11"/>
</a>
</g>
</g>
<!-- Node11&#45;&gt;Node8 -->
<g id="edge13_Node000011_Node000008" class="edge">
<title>Node11&#45;&gt;Node8</title>
<g id="a_edge13_Node000011_Node000008"><a xlink:title=" ">
<path fill="none" stroke="#63b8ff" d="M524.83,-54.98C552.87,-46.09 597.05,-32.07 628.3,-22.15"/>
<polygon fill="#63b8ff" stroke="#63b8ff" points="629.49,-25.44 637.96,-19.08 627.37,-18.77 629.49,-25.44"/>
</a>
</g>
</g>
<!-- Node12 -->
<g id="Node000012" class="node">
<title>Node12</title>
<g id="a_Node000012"><a xlink:title=" ">
<polygon fill="#e0e0e0" stroke="#999999" points="552.5,-19 443.5,-19 443.5,0 552.5,0 552.5,-19"/>
<text text-anchor="middle" x="498" y="-7" font-family="Helvetica,sans-Serif" font-size="10.00">QtCore/QDateTime</text>
</a>
</g>
</g>
<!-- Node11&#45;&gt;Node12 -->
<g id="edge11_Node000011_Node000012" class="edge">
<title>Node11&#45;&gt;Node12</title>
<g id="a_edge11_Node000011_Node000012"><a xlink:title=" ">
<path fill="none" stroke="#63b8ff" d="M498,-54.75C498,-47.8 498,-37.85 498,-29.13"/>
<polygon fill="#63b8ff" stroke="#63b8ff" points="501.5,-29.09 498,-19.09 494.5,-29.09 501.5,-29.09"/>
</a>
</g>
</g>
</g>
</svg>
