<?xml version="1.0" encoding="UTF-8" standalone="no"?>
<!DOCTYPE svg PUBLIC "-//W3C//DTD SVG 1.1//EN"
 "http://www.w3.org/Graphics/SVG/1.1/DTD/svg11.dtd">
<!-- Generated by graphviz version 2.43.0 (0)
 -->
<!-- Title: src/QtLocationPlugin/Providers/MapProvider.h Pages: 1 -->
<!--zoomable 181 -->

<svg id="main" version="1.1" xmlns="http://www.w3.org/2000/svg" xmlns:xlink="http://www.w3.org/1999/xlink" xml:space="preserve" onload="init(evt)">
<style type="text/css"><![CDATA[
.node, .edge {opacity: 0.7;}
.node.selected, .edge.selected {opacity: 1;}
.edge:hover path { stroke: red; }
.edge:hover polygon { stroke: red; fill: red; }
]]></style>

<defs>
  <circle id="rim" cx="0" cy="0" r="7"/>
  <circle id="rim2" cx="0" cy="0" r="3.5"/>
  <g id="zoomPlus">
    <use xlink:href="#rim" fill="#404040"><set attributeName="fill" to="#808080" begin="zoomplus.mouseover" end="zoomplus.mouseout"/></use>
    <path d="M-4,0h8M0,-4v8" fill="none" stroke="white" stroke-width="1.5" pointer-events="none"/>
  </g>
  <g id="zoomMin">
    <use xlink:href="#rim" fill="#404040"><set attributeName="fill" to="#808080" begin="zoomminus.mouseover" end="zoomminus.mouseout"/></use>
    <path d="M-4,0h8" fill="none" stroke="white" stroke-width="1.5" pointer-events="none"/>
  </g>
  <g id="arrowUp" transform="translate(30 24)">
    <use xlink:href="#rim"/>
    <path pointer-events="none" fill="none" stroke="white" stroke-width="1.5" d="M0,-3.0v7 M-2.5,-0.5L0,-3.0L2.5,-0.5"/>
  </g>
  <g id="arrowRight" transform="rotate(90) translate(36 -43)">
    <use xlink:href="#rim"/>
    <path pointer-events="none" fill="none" stroke="white" stroke-width="1.5" d="M0,-3.0v7 M-2.5,-0.5L0,-3.0L2.5,-0.5"/>
  </g>
  <g id="arrowDown" transform="rotate(180) translate(-30 -48)">
    <use xlink:href="#rim"/>
    <path pointer-events="none" fill="none" stroke="white" stroke-width="1.5" d="M0,-3.0v7 M-2.5,-0.5L0,-3.0L2.5,-0.5"/>
  </g>
  <g id="arrowLeft" transform="rotate(270) translate(-36 17)">
    <use xlink:href="#rim"/>
    <path pointer-events="none" fill="none" stroke="white" stroke-width="1.5" d="M0,-3.0v7 M-2.5,-0.5L0,-3.0L2.5,-0.5"/>
  </g>
  <g id="resetDef">
    <use xlink:href="#rim2" fill="#404040"><set attributeName="fill" to="#808080" begin="reset.mouseover" end="reset.mouseout"/></use>
  </g>
</defs>
<script type="application/ecmascript">
var viewWidth = 3032;
var viewHeight = 181;
var sectionId = 'dynsection-1';
</script>
<script type="application/ecmascript" xlink:href="svg.min.js"/>
<svg id="graph" class="graph">
<g id="viewport">
<title>src/QtLocationPlugin/Providers/MapProvider.h</title>
<!-- Node1 -->
<g id="Node000001" class="node">
<title>Node1</title>
<g id="a_Node000001"><a xlink:title=" ">
<polygon fill="#999999" stroke="#666666" points="1944.5,-173 1806.5,-173 1806.5,-143 1944.5,-143 1944.5,-173"/>
<text text-anchor="start" x="1814.5" y="-161" font-family="Helvetica,sans-Serif" font-size="10.00">src/QtLocationPlugin</text>
<text text-anchor="middle" x="1875.5" y="-150" font-family="Helvetica,sans-Serif" font-size="10.00">/Providers/MapProvider.h</text>
</a>
</g>
</g>
<!-- Node2 -->
<g id="Node000002" class="node">
<title>Node2</title>
<g id="a_Node000002"><a xlink:href="BingMapProvider_8h.html" target="_top" xlink:title=" ">
<polygon fill="white" stroke="#666666" points="878.5,-101.5 718.5,-101.5 718.5,-71.5 878.5,-71.5 878.5,-101.5"/>
<text text-anchor="start" x="726.5" y="-89.5" font-family="Helvetica,sans-Serif" font-size="10.00">src/QtLocationPlugin</text>
<text text-anchor="middle" x="798.5" y="-78.5" font-family="Helvetica,sans-Serif" font-size="10.00">/Providers/BingMapProvider.h</text>
</a>
</g>
</g>
<!-- Node1&#45;&gt;Node2 -->
<g id="edge1_Node000001_Node000002" class="edge">
<title>Node1&#45;&gt;Node2</title>
<g id="a_edge1_Node000001_Node000002"><a xlink:title=" ">
<path fill="none" stroke="#63b8ff" d="M1796.26,-157.41C1628.05,-157.32 1223.22,-151.96 887.5,-107 877.31,-105.64 866.56,-103.71 856.18,-101.59"/>
<polygon fill="#63b8ff" stroke="#63b8ff" points="1796.27,-160.91 1806.27,-157.41 1796.27,-153.91 1796.27,-160.91"/>
</a>
</g>
</g>
<!-- Node5 -->
<g id="Node000005" class="node">
<title>Node5</title>
<g id="a_Node000005"><a xlink:href="ElevationMapProvider_8h.html" target="_top" xlink:title=" ">
<polygon fill="white" stroke="#666666" points="1080.5,-101.5 896.5,-101.5 896.5,-71.5 1080.5,-71.5 1080.5,-101.5"/>
<text text-anchor="start" x="904.5" y="-89.5" font-family="Helvetica,sans-Serif" font-size="10.00">src/QtLocationPlugin</text>
<text text-anchor="middle" x="988.5" y="-78.5" font-family="Helvetica,sans-Serif" font-size="10.00">/Providers/ElevationMapProvider.h</text>
</a>
</g>
</g>
<!-- Node1&#45;&gt;Node5 -->
<g id="edge4_Node000001_Node000005" class="edge">
<title>Node1&#45;&gt;Node5</title>
<g id="a_edge4_Node000001_Node000005"><a xlink:title=" ">
<path fill="none" stroke="#63b8ff" d="M1795.74,-152.36C1664.57,-144.5 1395.14,-127.43 1167.5,-107 1139.32,-104.47 1108.7,-101.29 1080.88,-98.24"/>
<polygon fill="#63b8ff" stroke="#63b8ff" points="1795.9,-155.87 1806.09,-152.98 1796.31,-148.89 1795.9,-155.87"/>
</a>
</g>
</g>
<!-- Node9 -->
<g id="Node000009" class="node">
<title>Node9</title>
<g id="a_Node000009"><a xlink:href="QGeoMapReplyQGC_8cpp.html" target="_top" xlink:title=" ">
<polygon fill="white" stroke="#666666" points="1218,-30 1081,-30 1081,0 1218,0 1218,-30"/>
<text text-anchor="start" x="1089" y="-18" font-family="Helvetica,sans-Serif" font-size="10.00">src/QtLocationPlugin</text>
<text text-anchor="middle" x="1149.5" y="-7" font-family="Helvetica,sans-Serif" font-size="10.00">/QGeoMapReplyQGC.cpp</text>
</a>
</g>
</g>
<!-- Node1&#45;&gt;Node9 -->
<g id="edge28_Node000001_Node000009" class="edge">
<title>Node1&#45;&gt;Node9</title>
<g id="a_edge28_Node000001_Node000009"><a xlink:title=" ">
<path fill="none" stroke="#63b8ff" d="M1795.9,-154.08C1634.97,-147.71 1281.97,-131.17 1232.5,-107 1197.53,-89.92 1170.33,-51.13 1157.53,-30.13"/>
<polygon fill="#63b8ff" stroke="#63b8ff" points="1796.09,-157.59 1806.21,-154.49 1796.36,-150.6 1796.09,-157.59"/>
</a>
</g>
</g>
<!-- Node12 -->
<g id="Node000012" class="node">
<title>Node12</title>
<g id="a_Node000012"><a xlink:href="EsriMapProvider_8h.html" target="_top" xlink:title=" ">
<polygon fill="white" stroke="#666666" points="1397.5,-101.5 1241.5,-101.5 1241.5,-71.5 1397.5,-71.5 1397.5,-101.5"/>
<text text-anchor="start" x="1249.5" y="-89.5" font-family="Helvetica,sans-Serif" font-size="10.00">src/QtLocationPlugin</text>
<text text-anchor="middle" x="1319.5" y="-78.5" font-family="Helvetica,sans-Serif" font-size="10.00">/Providers/EsriMapProvider.h</text>
</a>
</g>
</g>
<!-- Node1&#45;&gt;Node12 -->
<g id="edge12_Node000001_Node000012" class="edge">
<title>Node1&#45;&gt;Node12</title>
<g id="a_edge12_Node000001_Node000012"><a xlink:title=" ">
<path fill="none" stroke="#63b8ff" d="M1796.19,-151.33C1702.63,-143.99 1542.59,-129.43 1406.5,-107 1397.18,-105.46 1387.37,-103.55 1377.82,-101.53"/>
<polygon fill="#63b8ff" stroke="#63b8ff" points="1796.18,-154.84 1806.43,-152.12 1796.73,-147.86 1796.18,-154.84"/>
</a>
</g>
</g>
<!-- Node14 -->
<g id="Node000014" class="node">
<title>Node14</title>
<g id="a_Node000014"><a xlink:href="GenericMapProvider_8h.html" target="_top" xlink:title=" ">
<polygon fill="white" stroke="#666666" points="1591.5,-101.5 1415.5,-101.5 1415.5,-71.5 1591.5,-71.5 1591.5,-101.5"/>
<text text-anchor="start" x="1423.5" y="-89.5" font-family="Helvetica,sans-Serif" font-size="10.00">src/QtLocationPlugin</text>
<text text-anchor="middle" x="1503.5" y="-78.5" font-family="Helvetica,sans-Serif" font-size="10.00">/Providers/GenericMapProvider.h</text>
</a>
</g>
</g>
<!-- Node1&#45;&gt;Node14 -->
<g id="edge15_Node000001_Node000014" class="edge">
<title>Node1&#45;&gt;Node14</title>
<g id="a_edge15_Node000001_Node000014"><a xlink:title=" ">
<path fill="none" stroke="#63b8ff" d="M1796.46,-143.03C1741.46,-133.21 1666.46,-119.62 1600.5,-107 1591.39,-105.26 1581.81,-103.38 1572.36,-101.51"/>
<polygon fill="#63b8ff" stroke="#63b8ff" points="1796.04,-146.51 1806.49,-144.82 1797.26,-139.62 1796.04,-146.51"/>
</a>
</g>
</g>
<!-- Node16 -->
<g id="Node000016" class="node">
<title>Node16</title>
<g id="a_Node000016"><a xlink:href="GoogleMapProvider_8h.html" target="_top" xlink:title=" ">
<polygon fill="white" stroke="#666666" points="1783,-101.5 1610,-101.5 1610,-71.5 1783,-71.5 1783,-101.5"/>
<text text-anchor="start" x="1618" y="-89.5" font-family="Helvetica,sans-Serif" font-size="10.00">src/QtLocationPlugin</text>
<text text-anchor="middle" x="1696.5" y="-78.5" font-family="Helvetica,sans-Serif" font-size="10.00">/Providers/GoogleMapProvider.h</text>
</a>
</g>
</g>
<!-- Node1&#45;&gt;Node16 -->
<g id="edge18_Node000001_Node000016" class="edge">
<title>Node1&#45;&gt;Node16</title>
<g id="a_edge18_Node000001_Node000016"><a xlink:title=" ">
<path fill="none" stroke="#63b8ff" d="M1829.82,-139.26C1799.66,-127.55 1760.68,-112.42 1732.67,-101.54"/>
<polygon fill="#63b8ff" stroke="#63b8ff" points="1828.69,-142.58 1839.28,-142.94 1831.22,-136.05 1828.69,-142.58"/>
</a>
</g>
</g>
<!-- Node18 -->
<g id="Node000018" class="node">
<title>Node18</title>
<g id="a_Node000018"><a xlink:href="MapProvider_8cpp.html" target="_top" xlink:title=" ">
<polygon fill="white" stroke="#666666" points="1950,-101.5 1801,-101.5 1801,-71.5 1950,-71.5 1950,-101.5"/>
<text text-anchor="start" x="1809" y="-89.5" font-family="Helvetica,sans-Serif" font-size="10.00">src/QtLocationPlugin</text>
<text text-anchor="middle" x="1875.5" y="-78.5" font-family="Helvetica,sans-Serif" font-size="10.00">/Providers/MapProvider.cpp</text>
</a>
</g>
</g>
<!-- Node1&#45;&gt;Node18 -->
<g id="edge21_Node000001_Node000018" class="edge">
<title>Node1&#45;&gt;Node18</title>
<g id="a_edge21_Node000001_Node000018"><a xlink:title=" ">
<path fill="none" stroke="#63b8ff" d="M1875.5,-132.75C1875.5,-122.31 1875.5,-110.49 1875.5,-101.54"/>
<polygon fill="#63b8ff" stroke="#63b8ff" points="1872,-132.94 1875.5,-142.94 1879,-132.94 1872,-132.94"/>
</a>
</g>
</g>
<!-- Node19 -->
<g id="Node000019" class="node">
<title>Node19</title>
<g id="a_Node000019"><a xlink:href="MapboxMapProvider_8h.html" target="_top" xlink:title=" ">
<polygon fill="white" stroke="#666666" points="2145,-101.5 1968,-101.5 1968,-71.5 2145,-71.5 2145,-101.5"/>
<text text-anchor="start" x="1976" y="-89.5" font-family="Helvetica,sans-Serif" font-size="10.00">src/QtLocationPlugin</text>
<text text-anchor="middle" x="2056.5" y="-78.5" font-family="Helvetica,sans-Serif" font-size="10.00">/Providers/MapboxMapProvider.h</text>
</a>
</g>
</g>
<!-- Node1&#45;&gt;Node19 -->
<g id="edge22_Node000001_Node000019" class="edge">
<title>Node1&#45;&gt;Node19</title>
<g id="a_edge22_Node000001_Node000019"><a xlink:title=" ">
<path fill="none" stroke="#63b8ff" d="M1921.69,-139.26C1952.19,-127.55 1991.6,-112.42 2019.93,-101.54"/>
<polygon fill="#63b8ff" stroke="#63b8ff" points="1920.21,-136.08 1912.13,-142.94 1922.72,-142.62 1920.21,-136.08"/>
</a>
</g>
</g>
<!-- Node21 -->
<g id="Node000021" class="node">
<title>Node21</title>
<g id="a_Node000021"><a xlink:href="TianDiTuProvider_8h.html" target="_top" xlink:title=" ">
<polygon fill="white" stroke="#666666" points="2322,-101.5 2163,-101.5 2163,-71.5 2322,-71.5 2322,-101.5"/>
<text text-anchor="start" x="2171" y="-89.5" font-family="Helvetica,sans-Serif" font-size="10.00">src/QtLocationPlugin</text>
<text text-anchor="middle" x="2242.5" y="-78.5" font-family="Helvetica,sans-Serif" font-size="10.00">/Providers/TianDiTuProvider.h</text>
</a>
</g>
</g>
<!-- Node1&#45;&gt;Node21 -->
<g id="edge25_Node000001_Node000021" class="edge">
<title>Node1&#45;&gt;Node21</title>
<g id="a_edge25_Node000001_Node000021"><a xlink:title=" ">
<path fill="none" stroke="#63b8ff" d="M1954.91,-143.54C2010.6,-133.9 2086.72,-120.32 2153.5,-107 2162.03,-105.3 2171.01,-103.43 2179.84,-101.54"/>
<polygon fill="#63b8ff" stroke="#63b8ff" points="1954.01,-140.14 1944.76,-145.29 1955.21,-147.04 1954.01,-140.14"/>
</a>
</g>
</g>
<!-- Node23 -->
<g id="Node000023" class="node">
<title>Node23</title>
<g id="a_Node000023"><a xlink:href="QGeoTileFetcherQGC_8cpp.html" target="_top" xlink:title=" ">
<polygon fill="white" stroke="#666666" points="2483,-101.5 2340,-101.5 2340,-71.5 2483,-71.5 2483,-101.5"/>
<text text-anchor="start" x="2348" y="-89.5" font-family="Helvetica,sans-Serif" font-size="10.00">src/QtLocationPlugin</text>
<text text-anchor="middle" x="2411.5" y="-78.5" font-family="Helvetica,sans-Serif" font-size="10.00">/QGeoTileFetcherQGC.cpp</text>
</a>
</g>
</g>
<!-- Node1&#45;&gt;Node23 -->
<g id="edge29_Node000001_Node000023" class="edge">
<title>Node1&#45;&gt;Node23</title>
<g id="a_edge29_Node000001_Node000023"><a xlink:title=" ">
<path fill="none" stroke="#63b8ff" d="M1954.86,-151.35C2045.99,-144.15 2199.77,-129.82 2330.5,-107 2339.19,-105.48 2348.34,-103.58 2357.23,-101.56"/>
<polygon fill="#63b8ff" stroke="#63b8ff" points="1954.57,-147.86 1944.87,-152.13 1955.12,-154.84 1954.57,-147.86"/>
</a>
</g>
</g>
<!-- Node24 -->
<g id="Node000024" class="node">
<title>Node24</title>
<g id="a_Node000024"><a xlink:href="QGeoTiledMappingManagerEngineQGC_8cpp.html" target="_top" xlink:title=" ">
<polygon fill="white" stroke="#666666" points="2689.5,-107 2501.5,-107 2501.5,-66 2689.5,-66 2689.5,-107"/>
<text text-anchor="start" x="2509.5" y="-95" font-family="Helvetica,sans-Serif" font-size="10.00">src/QtLocationPlugin</text>
<text text-anchor="start" x="2509.5" y="-84" font-family="Helvetica,sans-Serif" font-size="10.00">/QGeoTiledMappingManagerEngine</text>
<text text-anchor="middle" x="2595.5" y="-73" font-family="Helvetica,sans-Serif" font-size="10.00">QGC.cpp</text>
</a>
</g>
</g>
<!-- Node1&#45;&gt;Node24 -->
<g id="edge30_Node000001_Node000024" class="edge">
<title>Node1&#45;&gt;Node24</title>
<g id="a_edge30_Node000001_Node000024"><a xlink:title=" ">
<path fill="none" stroke="#63b8ff" d="M1954.7,-153.28C2072.4,-147.14 2300.27,-132.91 2492.5,-107 2495.39,-106.61 2498.31,-106.19 2501.27,-105.76"/>
<polygon fill="#63b8ff" stroke="#63b8ff" points="1954.5,-149.78 1944.69,-153.8 1954.86,-156.78 1954.5,-149.78"/>
</a>
</g>
</g>
<!-- Node25 -->
<g id="Node000025" class="node">
<title>Node25</title>
<g id="a_Node000025"><a xlink:href="Viewer3DTileQuery_8cc.html" target="_top" xlink:title=" ">
<polygon fill="white" stroke="#666666" points="2857,-101.5 2708,-101.5 2708,-71.5 2857,-71.5 2857,-101.5"/>
<text text-anchor="start" x="2716" y="-89.5" font-family="Helvetica,sans-Serif" font-size="10.00">src/Viewer3D/Viewer3DTile</text>
<text text-anchor="middle" x="2782.5" y="-78.5" font-family="Helvetica,sans-Serif" font-size="10.00">Query.cc</text>
</a>
</g>
</g>
<!-- Node1&#45;&gt;Node25 -->
<g id="edge31_Node000001_Node000025" class="edge">
<title>Node1&#45;&gt;Node25</title>
<g id="a_edge31_Node000001_Node000025"><a xlink:title=" ">
<path fill="none" stroke="#63b8ff" d="M1955.03,-156.58C2102.43,-154.82 2427.71,-146.37 2698.5,-107 2708.13,-105.6 2718.29,-103.65 2728.08,-101.53"/>
<polygon fill="#63b8ff" stroke="#63b8ff" points="1954.68,-153.08 1944.72,-156.69 1954.76,-160.08 1954.68,-153.08"/>
</a>
</g>
</g>
<!-- Node26 -->
<g id="Node000026" class="node">
<title>Node26</title>
<g id="a_Node000026"><a xlink:href="Viewer3DTileReply_8cc.html" target="_top" xlink:title=" ">
<polygon fill="white" stroke="#666666" points="3024,-101.5 2875,-101.5 2875,-71.5 3024,-71.5 3024,-101.5"/>
<text text-anchor="start" x="2883" y="-89.5" font-family="Helvetica,sans-Serif" font-size="10.00">src/Viewer3D/Viewer3DTile</text>
<text text-anchor="middle" x="2949.5" y="-78.5" font-family="Helvetica,sans-Serif" font-size="10.00">Reply.cc</text>
</a>
</g>
</g>
<!-- Node1&#45;&gt;Node26 -->
<g id="edge32_Node000001_Node000026" class="edge">
<title>Node1&#45;&gt;Node26</title>
<g id="a_edge32_Node000001_Node000026"><a xlink:title=" ">
<path fill="none" stroke="#63b8ff" d="M1954.72,-157.83C2123.35,-158.54 2529.9,-154.64 2866.5,-107 2876.17,-105.63 2886.38,-103.67 2896.19,-101.52"/>
<polygon fill="#63b8ff" stroke="#63b8ff" points="1954.71,-154.33 1944.69,-157.78 1954.67,-161.33 1954.71,-154.33"/>
</a>
</g>
</g>
<!-- Node3 -->
<g id="Node000003" class="node">
<title>Node3</title>
<g id="a_Node000003"><a xlink:href="BingMapProvider_8cpp.html" target="_top" xlink:title=" ">
<polygon fill="white" stroke="#666666" points="171,-30 0,-30 0,0 171,0 171,-30"/>
<text text-anchor="start" x="8" y="-18" font-family="Helvetica,sans-Serif" font-size="10.00">src/QtLocationPlugin</text>
<text text-anchor="middle" x="85.5" y="-7" font-family="Helvetica,sans-Serif" font-size="10.00">/Providers/BingMapProvider.cpp</text>
</a>
</g>
</g>
<!-- Node2&#45;&gt;Node3 -->
<g id="edge2_Node000002_Node000003" class="edge">
<title>Node2&#45;&gt;Node3</title>
<g id="a_edge2_Node000002_Node000003"><a xlink:title=" ">
<path fill="none" stroke="#63b8ff" d="M708.07,-78.99C587.51,-69.95 367.6,-52.17 180.5,-30 177.44,-29.64 174.32,-29.25 171.18,-28.85"/>
<polygon fill="#63b8ff" stroke="#63b8ff" points="708.12,-82.51 718.35,-79.76 708.64,-75.53 708.12,-82.51"/>
</a>
</g>
</g>
<!-- Node4 -->
<g id="Node000004" class="node">
<title>Node4</title>
<g id="a_Node000004"><a xlink:href="QGCMapUrlEngine_8cpp.html" target="_top" xlink:title=" ">
<polygon fill="white" stroke="#666666" points="1756.5,-30 1626.5,-30 1626.5,0 1756.5,0 1756.5,-30"/>
<text text-anchor="start" x="1634.5" y="-18" font-family="Helvetica,sans-Serif" font-size="10.00">src/QtLocationPlugin</text>
<text text-anchor="middle" x="1691.5" y="-7" font-family="Helvetica,sans-Serif" font-size="10.00">/QGCMapUrlEngine.cpp</text>
</a>
</g>
</g>
<!-- Node2&#45;&gt;Node4 -->
<g id="edge3_Node000002_Node000004" class="edge">
<title>Node2&#45;&gt;Node4</title>
<g id="a_edge3_Node000002_Node000004"><a xlink:title=" ">
<path fill="none" stroke="#63b8ff" d="M865.66,-69.55C873,-68.17 880.39,-66.95 887.5,-66 1209.05,-23.14 1294.32,-67.85 1616.5,-30 1619.66,-29.63 1622.88,-29.2 1626.13,-28.74"/>
<polygon fill="#63b8ff" stroke="#63b8ff" points="864.84,-66.14 855.7,-71.5 866.19,-73.01 864.84,-66.14"/>
</a>
</g>
</g>
<!-- Node5&#45;&gt;Node4 -->
<g id="edge8_Node000005_Node000004" class="edge">
<title>Node5&#45;&gt;Node4</title>
<g id="a_edge8_Node000005_Node000004"><a xlink:title=" ">
<path fill="none" stroke="#63b8ff" d="M1090.8,-77C1255.44,-63.25 1565.92,-36.94 1616.5,-30 1619.65,-29.57 1622.87,-29.09 1626.11,-28.59"/>
<polygon fill="#63b8ff" stroke="#63b8ff" points="1090.33,-73.53 1080.65,-77.85 1090.91,-80.51 1090.33,-73.53"/>
</a>
</g>
</g>
<!-- Node6 -->
<g id="Node000006" class="node">
<title>Node6</title>
<g id="a_Node000006"><a xlink:href="ElevationMapProvider_8cpp.html" target="_top" xlink:title=" ">
<polygon fill="white" stroke="#666666" points="578,-30 383,-30 383,0 578,0 578,-30"/>
<text text-anchor="start" x="391" y="-18" font-family="Helvetica,sans-Serif" font-size="10.00">src/QtLocationPlugin</text>
<text text-anchor="middle" x="480.5" y="-7" font-family="Helvetica,sans-Serif" font-size="10.00">/Providers/ElevationMapProvider.cpp</text>
</a>
</g>
</g>
<!-- Node5&#45;&gt;Node6 -->
<g id="edge5_Node000005_Node000006" class="edge">
<title>Node5&#45;&gt;Node6</title>
<g id="a_edge5_Node000005_Node000006"><a xlink:title=" ">
<path fill="none" stroke="#63b8ff" d="M909.32,-69.65C901.96,-68.35 894.6,-67.11 887.5,-66 754.38,-45.22 720.18,-46.82 586.5,-30 583.74,-29.65 580.93,-29.3 578.11,-28.94"/>
<polygon fill="#63b8ff" stroke="#63b8ff" points="908.88,-73.13 919.34,-71.47 910.13,-66.24 908.88,-73.13"/>
</a>
</g>
</g>
<!-- Node7 -->
<g id="Node000007" class="node">
<title>Node7</title>
<g id="a_Node000007"><a xlink:href="QGCCachedTileSet_8cpp.html" target="_top" xlink:title=" ">
<polygon fill="white" stroke="#666666" points="727,-30 596,-30 596,0 727,0 727,-30"/>
<text text-anchor="start" x="604" y="-18" font-family="Helvetica,sans-Serif" font-size="10.00">src/QtLocationPlugin</text>
<text text-anchor="middle" x="661.5" y="-7" font-family="Helvetica,sans-Serif" font-size="10.00">/QGCCachedTileSet.cpp</text>
</a>
</g>
</g>
<!-- Node5&#45;&gt;Node7 -->
<g id="edge6_Node000005_Node000007" class="edge">
<title>Node5&#45;&gt;Node7</title>
<g id="a_edge6_Node000005_Node000007"><a xlink:title=" ">
<path fill="none" stroke="#63b8ff" d="M912.43,-69.33C856.24,-57.39 780.53,-41.3 727.02,-29.92"/>
<polygon fill="#63b8ff" stroke="#63b8ff" points="911.82,-72.78 922.33,-71.44 913.27,-65.93 911.82,-72.78"/>
</a>
</g>
</g>
<!-- Node8 -->
<g id="Node000008" class="node">
<title>Node8</title>
<g id="a_Node000008"><a xlink:href="QGCMapEngineManager_8cc.html" target="_top" xlink:title=" ">
<polygon fill="white" stroke="#666666" points="896,-30 745,-30 745,0 896,0 896,-30"/>
<text text-anchor="start" x="753" y="-18" font-family="Helvetica,sans-Serif" font-size="10.00">src/QtLocationPlugin</text>
<text text-anchor="middle" x="820.5" y="-7" font-family="Helvetica,sans-Serif" font-size="10.00">/QGCMapEngineManager.cc</text>
</a>
</g>
</g>
<!-- Node5&#45;&gt;Node8 -->
<g id="edge7_Node000005_Node000008" class="edge">
<title>Node5&#45;&gt;Node8</title>
<g id="a_edge7_Node000005_Node000008"><a xlink:title=" ">
<path fill="none" stroke="#63b8ff" d="M945.26,-67.61C917,-55.92 880.62,-40.87 854.45,-30.04"/>
<polygon fill="#63b8ff" stroke="#63b8ff" points="943.92,-70.85 954.5,-71.44 946.6,-64.38 943.92,-70.85"/>
</a>
</g>
</g>
<!-- Node5&#45;&gt;Node9 -->
<g id="edge9_Node000005_Node000009" class="edge">
<title>Node5&#45;&gt;Node9</title>
<g id="a_edge9_Node000005_Node000009"><a xlink:title=" ">
<path fill="none" stroke="#63b8ff" d="M1030.29,-67.46C1057.32,-55.79 1091.99,-40.82 1116.97,-30.04"/>
<polygon fill="#63b8ff" stroke="#63b8ff" points="1028.87,-64.26 1021.08,-71.44 1031.65,-70.69 1028.87,-64.26"/>
</a>
</g>
</g>
<!-- Node10 -->
<g id="Node000010" class="node">
<title>Node10</title>
<g id="a_Node000010"><a xlink:href="TerrainQueryCopernicus_8cc.html" target="_top" xlink:title=" ">
<polygon fill="white" stroke="#666666" points="1063,-30 914,-30 914,0 1063,0 1063,-30"/>
<text text-anchor="start" x="922" y="-18" font-family="Helvetica,sans-Serif" font-size="10.00">src/Terrain/Providers</text>
<text text-anchor="middle" x="988.5" y="-7" font-family="Helvetica,sans-Serif" font-size="10.00">/TerrainQueryCopernicus.cc</text>
</a>
</g>
</g>
<!-- Node5&#45;&gt;Node10 -->
<g id="edge10_Node000005_Node000010" class="edge">
<title>Node5&#45;&gt;Node10</title>
<g id="a_edge10_Node000005_Node000010"><a xlink:title=" ">
<path fill="none" stroke="#63b8ff" d="M988.5,-61.25C988.5,-50.81 988.5,-38.99 988.5,-30.04"/>
<polygon fill="#63b8ff" stroke="#63b8ff" points="985,-61.44 988.5,-71.44 992,-61.44 985,-61.44"/>
</a>
</g>
</g>
<!-- Node11 -->
<g id="Node000011" class="node">
<title>Node11</title>
<g id="a_Node000011"><a xlink:href="TerrainTileManager_8cc.html" target="_top" xlink:title=" ">
<polygon fill="white" stroke="#666666" points="365.5,-24.5 189.5,-24.5 189.5,-5.5 365.5,-5.5 365.5,-24.5"/>
<text text-anchor="middle" x="277.5" y="-12.5" font-family="Helvetica,sans-Serif" font-size="10.00">src/Terrain/TerrainTileManager.cc</text>
</a>
</g>
</g>
<!-- Node5&#45;&gt;Node11 -->
<g id="edge11_Node000005_Node000011" class="edge">
<title>Node5&#45;&gt;Node11</title>
<g id="a_edge11_Node000005_Node000011"><a xlink:title=" ">
<path fill="none" stroke="#63b8ff" d="M911.89,-69.7C903.68,-68.31 895.43,-67.04 887.5,-66 660.44,-36.24 601.19,-54.54 373.5,-30 359.68,-28.51 344.8,-26.53 330.98,-24.52"/>
<polygon fill="#63b8ff" stroke="#63b8ff" points="911.41,-73.17 921.86,-71.45 912.62,-66.28 911.41,-73.17"/>
</a>
</g>
</g>
<!-- Node12&#45;&gt;Node4 -->
<g id="edge14_Node000012_Node000004" class="edge">
<title>Node12&#45;&gt;Node4</title>
<g id="a_edge14_Node000012_Node000004"><a xlink:title=" ">
<path fill="none" stroke="#63b8ff" d="M1390.18,-69.34C1395.7,-68.18 1401.19,-67.05 1406.5,-66 1499.4,-47.64 1523.29,-46.69 1616.5,-30 1619.76,-29.42 1623.1,-28.81 1626.47,-28.2"/>
<polygon fill="#63b8ff" stroke="#63b8ff" points="1389.31,-65.95 1380.26,-71.47 1390.77,-72.8 1389.31,-65.95"/>
</a>
</g>
</g>
<!-- Node13 -->
<g id="Node000013" class="node">
<title>Node13</title>
<g id="a_Node000013"><a xlink:href="EsriMapProvider_8cpp.html" target="_top" xlink:title=" ">
<polygon fill="white" stroke="#666666" points="1403,-30 1236,-30 1236,0 1403,0 1403,-30"/>
<text text-anchor="start" x="1244" y="-18" font-family="Helvetica,sans-Serif" font-size="10.00">src/QtLocationPlugin</text>
<text text-anchor="middle" x="1319.5" y="-7" font-family="Helvetica,sans-Serif" font-size="10.00">/Providers/EsriMapProvider.cpp</text>
</a>
</g>
</g>
<!-- Node12&#45;&gt;Node13 -->
<g id="edge13_Node000012_Node000013" class="edge">
<title>Node12&#45;&gt;Node13</title>
<g id="a_edge13_Node000012_Node000013"><a xlink:title=" ">
<path fill="none" stroke="#63b8ff" d="M1319.5,-61.25C1319.5,-50.81 1319.5,-38.99 1319.5,-30.04"/>
<polygon fill="#63b8ff" stroke="#63b8ff" points="1316,-61.44 1319.5,-71.44 1323,-61.44 1316,-61.44"/>
</a>
</g>
</g>
<!-- Node14&#45;&gt;Node4 -->
<g id="edge17_Node000014_Node000004" class="edge">
<title>Node14&#45;&gt;Node4</title>
<g id="a_edge17_Node000014_Node000004"><a xlink:title=" ">
<path fill="none" stroke="#63b8ff" d="M1551.07,-67.92C1582.8,-56.18 1623.97,-40.97 1653.51,-30.04"/>
<polygon fill="#63b8ff" stroke="#63b8ff" points="1549.71,-64.69 1541.54,-71.44 1552.14,-71.25 1549.71,-64.69"/>
</a>
</g>
</g>
<!-- Node15 -->
<g id="Node000015" class="node">
<title>Node15</title>
<g id="a_Node000015"><a xlink:href="GenericMapProvider_8cpp.html" target="_top" xlink:title=" ">
<polygon fill="white" stroke="#666666" points="1608,-30 1421,-30 1421,0 1608,0 1608,-30"/>
<text text-anchor="start" x="1429" y="-18" font-family="Helvetica,sans-Serif" font-size="10.00">src/QtLocationPlugin</text>
<text text-anchor="middle" x="1514.5" y="-7" font-family="Helvetica,sans-Serif" font-size="10.00">/Providers/GenericMapProvider.cpp</text>
</a>
</g>
</g>
<!-- Node14&#45;&gt;Node15 -->
<g id="edge16_Node000014_Node000015" class="edge">
<title>Node14&#45;&gt;Node15</title>
<g id="a_edge16_Node000014_Node000015"><a xlink:title=" ">
<path fill="none" stroke="#63b8ff" d="M1507.34,-61.25C1508.99,-50.81 1510.86,-38.99 1512.28,-30.04"/>
<polygon fill="#63b8ff" stroke="#63b8ff" points="1503.83,-61.01 1505.73,-71.44 1510.75,-62.11 1503.83,-61.01"/>
</a>
</g>
</g>
<!-- Node16&#45;&gt;Node4 -->
<g id="edge20_Node000016_Node000004" class="edge">
<title>Node16&#45;&gt;Node4</title>
<g id="a_edge20_Node000016_Node000004"><a xlink:title=" ">
<path fill="none" stroke="#63b8ff" d="M1694.76,-61.25C1694,-50.81 1693.15,-38.99 1692.51,-30.04"/>
<polygon fill="#63b8ff" stroke="#63b8ff" points="1691.28,-61.71 1695.49,-71.44 1698.26,-61.21 1691.28,-61.71"/>
</a>
</g>
</g>
<!-- Node17 -->
<g id="Node000017" class="node">
<title>Node17</title>
<g id="a_Node000017"><a xlink:href="GoogleMapProvider_8cpp.html" target="_top" xlink:title=" ">
<polygon fill="white" stroke="#666666" points="1958.5,-30 1774.5,-30 1774.5,0 1958.5,0 1958.5,-30"/>
<text text-anchor="start" x="1782.5" y="-18" font-family="Helvetica,sans-Serif" font-size="10.00">src/QtLocationPlugin</text>
<text text-anchor="middle" x="1866.5" y="-7" font-family="Helvetica,sans-Serif" font-size="10.00">/Providers/GoogleMapProvider.cpp</text>
</a>
</g>
</g>
<!-- Node16&#45;&gt;Node17 -->
<g id="edge19_Node000016_Node000017" class="edge">
<title>Node16&#45;&gt;Node17</title>
<g id="a_edge19_Node000016_Node000017"><a xlink:title=" ">
<path fill="none" stroke="#63b8ff" d="M1740.26,-67.61C1768.85,-55.92 1805.66,-40.87 1832.15,-30.04"/>
<polygon fill="#63b8ff" stroke="#63b8ff" points="1738.83,-64.41 1730.9,-71.44 1741.48,-70.89 1738.83,-64.41"/>
</a>
</g>
</g>
<!-- Node19&#45;&gt;Node4 -->
<g id="edge24_Node000019_Node000004" class="edge">
<title>Node19&#45;&gt;Node4</title>
<g id="a_edge24_Node000019_Node000004"><a xlink:title=" ">
<path fill="none" stroke="#63b8ff" d="M1976.44,-69.49C1970.37,-68.3 1964.34,-67.13 1958.5,-66 1872.82,-49.49 1851.26,-46.11 1765.5,-30 1762.67,-29.47 1759.79,-28.93 1756.87,-28.38"/>
<polygon fill="#63b8ff" stroke="#63b8ff" points="1976.17,-73 1986.66,-71.5 1977.52,-66.13 1976.17,-73"/>
</a>
</g>
</g>
<!-- Node20 -->
<g id="Node000020" class="node">
<title>Node20</title>
<g id="a_Node000020"><a xlink:href="MapboxMapProvider_8cpp.html" target="_top" xlink:title=" ">
<polygon fill="white" stroke="#666666" points="2164.5,-30 1976.5,-30 1976.5,0 2164.5,0 2164.5,-30"/>
<text text-anchor="start" x="1984.5" y="-18" font-family="Helvetica,sans-Serif" font-size="10.00">src/QtLocationPlugin</text>
<text text-anchor="middle" x="2070.5" y="-7" font-family="Helvetica,sans-Serif" font-size="10.00">/Providers/MapboxMapProvider.cpp</text>
</a>
</g>
</g>
<!-- Node19&#45;&gt;Node20 -->
<g id="edge23_Node000019_Node000020" class="edge">
<title>Node19&#45;&gt;Node20</title>
<g id="a_edge23_Node000019_Node000020"><a xlink:title=" ">
<path fill="none" stroke="#63b8ff" d="M2061.32,-61.58C2063.44,-51.06 2065.85,-39.08 2067.67,-30.04"/>
<polygon fill="#63b8ff" stroke="#63b8ff" points="2057.88,-60.94 2059.33,-71.44 2064.74,-62.32 2057.88,-60.94"/>
</a>
</g>
</g>
<!-- Node21&#45;&gt;Node4 -->
<g id="edge27_Node000021_Node000004" class="edge">
<title>Node21&#45;&gt;Node4</title>
<g id="a_edge27_Node000021_Node000004"><a xlink:title=" ">
<path fill="none" stroke="#63b8ff" d="M2173.5,-69.51C2166.76,-68.21 2160.01,-67.01 2153.5,-66 1982.37,-39.42 1937,-54.12 1765.5,-30 1762.65,-29.6 1759.75,-29.16 1756.81,-28.7"/>
<polygon fill="#63b8ff" stroke="#63b8ff" points="2172.84,-72.95 2183.33,-71.47 2174.21,-66.08 2172.84,-72.95"/>
</a>
</g>
</g>
<!-- Node22 -->
<g id="Node000022" class="node">
<title>Node22</title>
<g id="a_Node000022"><a xlink:href="TianDiTuProvider_8cpp.html" target="_top" xlink:title=" ">
<polygon fill="white" stroke="#666666" points="2352.5,-30 2182.5,-30 2182.5,0 2352.5,0 2352.5,-30"/>
<text text-anchor="start" x="2190.5" y="-18" font-family="Helvetica,sans-Serif" font-size="10.00">src/QtLocationPlugin</text>
<text text-anchor="middle" x="2267.5" y="-7" font-family="Helvetica,sans-Serif" font-size="10.00">/Providers/TianDiTuProvider.cpp</text>
</a>
</g>
</g>
<!-- Node21&#45;&gt;Node22 -->
<g id="edge26_Node000021_Node000022" class="edge">
<title>Node21&#45;&gt;Node22</title>
<g id="a_edge26_Node000021_Node000022"><a xlink:title=" ">
<path fill="none" stroke="#63b8ff" d="M2250.99,-61.9C2254.8,-51.31 2259.16,-39.18 2262.45,-30.04"/>
<polygon fill="#63b8ff" stroke="#63b8ff" points="2247.65,-60.84 2247.56,-71.44 2254.24,-63.21 2247.65,-60.84"/>
</a>
</g>
</g>
</g>
</svg>

<g id="navigator" transform="translate(0 0)" fill="#404254">
  <rect fill="#f2f5e9" fill-opacity="0.5" stroke="#606060" stroke-width=".5" x="0" y="0" width="60" height="60"/>
  <use id="zoomplus" xlink:href="#zoomPlus" x="17" y="9" onmousedown="handleZoom(evt,'in')"/>
  <use id="zoomminus" xlink:href="#zoomMin" x="42" y="9" onmousedown="handleZoom(evt,'out')"/>
  <use id="reset" xlink:href="#resetDef" x="30" y="36" onmousedown="handleReset()"/>
   <use id="arrowup" xlink:href="#arrowUp" x="0" y="0" onmousedown="handlePan(0,-1)"/>
  <use id="arrowright" xlink:href="#arrowRight" x="0" y="0" onmousedown="handlePan(1,0)"/>
  <use id="arrowdown" xlink:href="#arrowDown" x="0" y="0" onmousedown="handlePan(0,1)"/>
  <use id="arrowleft" xlink:href="#arrowLeft" x="0" y="0" onmousedown="handlePan(-1,0)"/>
</g>
<svg viewBox="0 0 15 15" width="100%" height="30px" preserveAspectRatio="xMaxYMin meet">
 <g id="arrow_out" transform="scale(0.3 0.3)">
  <a xlink:href="MapProvider_8h__dep__incl_org.svg" target="_base">
   <rect id="button" ry="5" rx="5" y="6" x="6" height="38" width="38"
        fill="#f2f5e9" fill-opacity="0.5" stroke="#606060" stroke-width="1.0"/>
   <path id="arrow"
     d="M 11.500037,31.436501 C 11.940474,20.09759 22.043105,11.32322 32.158766,21.979434 L 37.068811,17.246167 C 37.068811,17.246167 37.088388,32 37.088388,32 L 22.160133,31.978069 C 22.160133,31.978069 26.997745,27.140456 26.997745,27.140456 C 18.528582,18.264221 13.291696,25.230495 11.500037,31.436501 z"
     style="fill:#404040;"/>
  </a>
 </g>
</svg>

<style type='text/css'>
<![CDATA[
[data-mouse-over-selected='false'] { opacity: 0.7; }
[data-mouse-over-selected='true']  { opacity: 1.0; }
]]>
</style>
<script type="application/ecmascript"><![CDATA[
document.addEventListener('DOMContentLoaded', (event) => {
  highlightEdges();
  highlightAdjacentNodes();
});
]]></script>
</svg>
