<?xml version="1.0" encoding="UTF-8" standalone="no"?>
<!DOCTYPE svg PUBLIC "-//W3C//DTD SVG 1.1//EN"
 "http://www.w3.org/Graphics/SVG/1.1/DTD/svg11.dtd">
<!-- Generated by graphviz version 2.43.0 (0)
 -->
<!-- Title: src/QtLocationPlugin/Providers/MapProvider.cpp Pages: 1 -->
<svg width="778pt" height="214pt"
 viewBox="0.00 0.00 777.50 214.00" xmlns="http://www.w3.org/2000/svg" xmlns:xlink="http://www.w3.org/1999/xlink">
<g id="graph0" class="graph" transform="scale(1 1) rotate(0) translate(4 210)">
<title>src/QtLocationPlugin/Providers/MapProvider.cpp</title>
<!-- Node1 -->
<g id="Node000001" class="node">
<title>Node1</title>
<g id="a_Node000001"><a xlink:title=" ">
<polygon fill="#999999" stroke="#666666" points="579.5,-206 430.5,-206 430.5,-176 579.5,-176 579.5,-206"/>
<text text-anchor="start" x="438.5" y="-194" font-family="Helvetica,sans-Serif" font-size="10.00">src/QtLocationPlugin</text>
<text text-anchor="middle" x="505" y="-183" font-family="Helvetica,sans-Serif" font-size="10.00">/Providers/MapProvider.cpp</text>
</a>
</g>
</g>
<!-- Node2 -->
<g id="Node000002" class="node">
<title>Node2</title>
<g id="a_Node000002"><a xlink:href="MapProvider_8h.html" target="_top" xlink:title=" ">
<polygon fill="white" stroke="#666666" points="267,-134.5 181,-134.5 181,-115.5 267,-115.5 267,-134.5"/>
<text text-anchor="middle" x="224" y="-122.5" font-family="Helvetica,sans-Serif" font-size="10.00">MapProvider.h</text>
</a>
</g>
</g>
<!-- Node1&#45;&gt;Node2 -->
<g id="edge1_Node000001_Node000002" class="edge">
<title>Node1&#45;&gt;Node2</title>
<g id="a_edge1_Node000001_Node000002"><a xlink:title=" ">
<path fill="none" stroke="#63b8ff" d="M443.33,-175.95C391.56,-164.16 318.66,-147.56 271.37,-136.79"/>
<polygon fill="#63b8ff" stroke="#63b8ff" points="271.92,-133.33 261.4,-134.52 270.37,-140.15 271.92,-133.33"/>
</a>
</g>
</g>
<!-- Node8 -->
<g id="Node000008" class="node">
<title>Node8</title>
<g id="a_Node000008"><a xlink:href="QGCLoggingCategory_8h.html" target="_top" xlink:title=" ">
<polygon fill="white" stroke="#666666" points="441,-134.5 313,-134.5 313,-115.5 441,-115.5 441,-134.5"/>
<text text-anchor="middle" x="377" y="-122.5" font-family="Helvetica,sans-Serif" font-size="10.00">QGCLoggingCategory.h</text>
</a>
</g>
</g>
<!-- Node1&#45;&gt;Node8 -->
<g id="edge7_Node000001_Node000008" class="edge">
<title>Node1&#45;&gt;Node8</title>
<g id="a_edge7_Node000001_Node000008"><a xlink:title=" ">
<path fill="none" stroke="#63b8ff" d="M476.91,-175.95C454.96,-164.98 424.67,-149.83 403.21,-139.11"/>
<polygon fill="#63b8ff" stroke="#63b8ff" points="404.54,-135.86 394.03,-134.52 401.41,-142.12 404.54,-135.86"/>
</a>
</g>
</g>
<!-- Node10 -->
<g id="Node000010" class="node">
<title>Node10</title>
<g id="a_Node000010"><a xlink:title=" ">
<polygon fill="#e0e0e0" stroke="#999999" points="551,-134.5 459,-134.5 459,-115.5 551,-115.5 551,-134.5"/>
<text text-anchor="middle" x="505" y="-122.5" font-family="Helvetica,sans-Serif" font-size="10.00">QtCore/QLocale</text>
</a>
</g>
</g>
<!-- Node1&#45;&gt;Node10 -->
<g id="edge9_Node000001_Node000010" class="edge">
<title>Node1&#45;&gt;Node10</title>
<g id="a_edge9_Node000001_Node000010"><a xlink:title=" ">
<path fill="none" stroke="#63b8ff" d="M505,-175.8C505,-166.7 505,-154.79 505,-144.9"/>
<polygon fill="#63b8ff" stroke="#63b8ff" points="508.5,-144.84 505,-134.84 501.5,-144.84 508.5,-144.84"/>
</a>
</g>
</g>
<!-- Node11 -->
<g id="Node000011" class="node">
<title>Node11</title>
<g id="a_Node000011"><a xlink:title=" ">
<polygon fill="#e0e0e0" stroke="#999999" points="644.5,-134.5 569.5,-134.5 569.5,-115.5 644.5,-115.5 644.5,-134.5"/>
<text text-anchor="middle" x="607" y="-122.5" font-family="Helvetica,sans-Serif" font-size="10.00">QtCore/QUrl</text>
</a>
</g>
</g>
<!-- Node1&#45;&gt;Node11 -->
<g id="edge10_Node000001_Node000011" class="edge">
<title>Node1&#45;&gt;Node11</title>
<g id="a_edge10_Node000001_Node000011"><a xlink:title=" ">
<path fill="none" stroke="#63b8ff" d="M527.38,-175.95C544.41,-165.27 567.71,-150.65 584.71,-139.98"/>
<polygon fill="#63b8ff" stroke="#63b8ff" points="586.82,-142.8 593.43,-134.52 583.09,-136.87 586.82,-142.8"/>
</a>
</g>
</g>
<!-- Node12 -->
<g id="Node000012" class="node">
<title>Node12</title>
<g id="a_Node000012"><a xlink:title=" ">
<polygon fill="#e0e0e0" stroke="#999999" points="769.5,-140 662.5,-140 662.5,-110 769.5,-110 769.5,-140"/>
<text text-anchor="start" x="670.5" y="-128" font-family="Helvetica,sans-Serif" font-size="10.00">QtLocation/private</text>
<text text-anchor="middle" x="716" y="-117" font-family="Helvetica,sans-Serif" font-size="10.00">/qgeomaptype_p.h</text>
</a>
</g>
</g>
<!-- Node1&#45;&gt;Node12 -->
<g id="edge11_Node000001_Node000012" class="edge">
<title>Node1&#45;&gt;Node12</title>
<g id="a_edge11_Node000001_Node000012"><a xlink:title=" ">
<path fill="none" stroke="#63b8ff" d="M551.3,-175.95C583.32,-166.24 626.1,-153.27 660.03,-142.98"/>
<polygon fill="#63b8ff" stroke="#63b8ff" points="661.25,-146.26 669.8,-140.01 659.22,-139.57 661.25,-146.26"/>
</a>
</g>
</g>
<!-- Node3 -->
<g id="Node000003" class="node">
<title>Node3</title>
<g id="a_Node000003"><a xlink:title=" ">
<polygon fill="#e0e0e0" stroke="#999999" points="110,-74 0,-74 0,-55 110,-55 110,-74"/>
<text text-anchor="middle" x="55" y="-62" font-family="Helvetica,sans-Serif" font-size="10.00">QtCore/QByteArray</text>
</a>
</g>
</g>
<!-- Node2&#45;&gt;Node3 -->
<g id="edge2_Node000002_Node000003" class="edge">
<title>Node2&#45;&gt;Node3</title>
<g id="a_edge2_Node000002_Node000003"><a xlink:title=" ">
<path fill="none" stroke="#63b8ff" d="M199.43,-115.49C170.39,-105.44 121.9,-88.66 89.2,-77.34"/>
<polygon fill="#63b8ff" stroke="#63b8ff" points="90.2,-73.98 79.6,-74.02 87.91,-80.6 90.2,-73.98"/>
</a>
</g>
</g>
<!-- Node4 -->
<g id="Node000004" class="node">
<title>Node4</title>
<g id="a_Node000004"><a xlink:title=" ">
<polygon fill="#e0e0e0" stroke="#999999" points="217.5,-74 128.5,-74 128.5,-55 217.5,-55 217.5,-74"/>
<text text-anchor="middle" x="173" y="-62" font-family="Helvetica,sans-Serif" font-size="10.00">QtCore/QString</text>
</a>
</g>
</g>
<!-- Node2&#45;&gt;Node4 -->
<g id="edge3_Node000002_Node000004" class="edge">
<title>Node2&#45;&gt;Node4</title>
<g id="a_edge3_Node000002_Node000004"><a xlink:title=" ">
<path fill="none" stroke="#63b8ff" d="M216.47,-115.37C208.79,-106.55 196.68,-92.66 187.19,-81.77"/>
<polygon fill="#63b8ff" stroke="#63b8ff" points="189.77,-79.41 180.56,-74.17 184.49,-84.01 189.77,-79.41"/>
</a>
</g>
</g>
<!-- Node5 -->
<g id="Node000005" class="node">
<title>Node5</title>
<g id="a_Node000005"><a xlink:href="QGCTileSet_8h.html" target="_top" xlink:title=" ">
<polygon fill="white" stroke="#666666" points="316.5,-74 235.5,-74 235.5,-55 316.5,-55 316.5,-74"/>
<text text-anchor="middle" x="276" y="-62" font-family="Helvetica,sans-Serif" font-size="10.00">QGCTileSet.h</text>
</a>
</g>
</g>
<!-- Node2&#45;&gt;Node5 -->
<g id="edge4_Node000002_Node000005" class="edge">
<title>Node2&#45;&gt;Node5</title>
<g id="a_edge4_Node000002_Node000005"><a xlink:title=" ">
<path fill="none" stroke="#63b8ff" d="M231.67,-115.37C239.51,-106.55 251.86,-92.66 261.54,-81.77"/>
<polygon fill="#63b8ff" stroke="#63b8ff" points="264.27,-83.97 268.3,-74.17 259.04,-79.32 264.27,-83.97"/>
</a>
</g>
</g>
<!-- Node6 -->
<g id="Node000006" class="node">
<title>Node6</title>
<g id="a_Node000006"><a xlink:title=" ">
<polygon fill="#e0e0e0" stroke="#999999" points="271,-19 163,-19 163,0 271,0 271,-19"/>
<text text-anchor="middle" x="217" y="-7" font-family="Helvetica,sans-Serif" font-size="10.00">QtCore/QMetaType</text>
</a>
</g>
</g>
<!-- Node5&#45;&gt;Node6 -->
<g id="edge5_Node000005_Node000006" class="edge">
<title>Node5&#45;&gt;Node6</title>
<g id="a_edge5_Node000005_Node000006"><a xlink:title=" ">
<path fill="none" stroke="#63b8ff" d="M266.52,-54.98C257.8,-47.15 244.66,-35.34 234.1,-25.86"/>
<polygon fill="#63b8ff" stroke="#63b8ff" points="236.43,-23.25 226.65,-19.17 231.75,-28.46 236.43,-23.25"/>
</a>
</g>
</g>
<!-- Node7 -->
<g id="Node000007" class="node">
<title>Node7</title>
<g id="a_Node000007"><a xlink:title=" ">
<polygon fill="#e0e0e0" stroke="#999999" points="381,-19 289,-19 289,0 381,0 381,-19"/>
<text text-anchor="middle" x="335" y="-7" font-family="Helvetica,sans-Serif" font-size="10.00">QtCore/QtTypes</text>
</a>
</g>
</g>
<!-- Node5&#45;&gt;Node7 -->
<g id="edge6_Node000005_Node000007" class="edge">
<title>Node5&#45;&gt;Node7</title>
<g id="a_edge6_Node000005_Node000007"><a xlink:title=" ">
<path fill="none" stroke="#63b8ff" d="M285.48,-54.98C294.2,-47.15 307.34,-35.34 317.9,-25.86"/>
<polygon fill="#63b8ff" stroke="#63b8ff" points="320.25,-28.46 325.35,-19.17 315.57,-23.25 320.25,-28.46"/>
</a>
</g>
</g>
<!-- Node9 -->
<g id="Node000009" class="node">
<title>Node9</title>
<g id="a_Node000009"><a xlink:title=" ">
<polygon fill="#e0e0e0" stroke="#999999" points="477.5,-74 334.5,-74 334.5,-55 477.5,-55 477.5,-74"/>
<text text-anchor="middle" x="406" y="-62" font-family="Helvetica,sans-Serif" font-size="10.00">QtCore/QLoggingCategory</text>
</a>
</g>
</g>
<!-- Node8&#45;&gt;Node9 -->
<g id="edge8_Node000008_Node000009" class="edge">
<title>Node8&#45;&gt;Node9</title>
<g id="a_edge8_Node000008_Node000009"><a xlink:title=" ">
<path fill="none" stroke="#63b8ff" d="M381.28,-115.37C385.43,-106.99 391.87,-94.01 397.13,-83.39"/>
<polygon fill="#63b8ff" stroke="#63b8ff" points="400.4,-84.68 401.7,-74.17 394.13,-81.57 400.4,-84.68"/>
</a>
</g>
</g>
</g>
</svg>
