<?xml version="1.0" encoding="UTF-8" standalone="no"?>
<!DOCTYPE svg PUBLIC "-//W3C//DTD SVG 1.1//EN"
 "http://www.w3.org/Graphics/SVG/1.1/DTD/svg11.dtd">
<!-- Generated by graphviz version 2.43.0 (0)
 -->
<!-- Title: src/QmlControls/MavlinkActionManager.cc Pages: 1 -->
<!--zoomable 368 -->

<svg id="main" version="1.1" xmlns="http://www.w3.org/2000/svg" xmlns:xlink="http://www.w3.org/1999/xlink" xml:space="preserve" onload="init(evt)">
<style type="text/css"><![CDATA[
.node, .edge {opacity: 0.7;}
.node.selected, .edge.selected {opacity: 1;}
.edge:hover path { stroke: red; }
.edge:hover polygon { stroke: red; fill: red; }
]]></style>

<defs>
  <circle id="rim" cx="0" cy="0" r="7"/>
  <circle id="rim2" cx="0" cy="0" r="3.5"/>
  <g id="zoomPlus">
    <use xlink:href="#rim" fill="#404040"><set attributeName="fill" to="#808080" begin="zoomplus.mouseover" end="zoomplus.mouseout"/></use>
    <path d="M-4,0h8M0,-4v8" fill="none" stroke="white" stroke-width="1.5" pointer-events="none"/>
  </g>
  <g id="zoomMin">
    <use xlink:href="#rim" fill="#404040"><set attributeName="fill" to="#808080" begin="zoomminus.mouseover" end="zoomminus.mouseout"/></use>
    <path d="M-4,0h8" fill="none" stroke="white" stroke-width="1.5" pointer-events="none"/>
  </g>
  <g id="arrowUp" transform="translate(30 24)">
    <use xlink:href="#rim"/>
    <path pointer-events="none" fill="none" stroke="white" stroke-width="1.5" d="M0,-3.0v7 M-2.5,-0.5L0,-3.0L2.5,-0.5"/>
  </g>
  <g id="arrowRight" transform="rotate(90) translate(36 -43)">
    <use xlink:href="#rim"/>
    <path pointer-events="none" fill="none" stroke="white" stroke-width="1.5" d="M0,-3.0v7 M-2.5,-0.5L0,-3.0L2.5,-0.5"/>
  </g>
  <g id="arrowDown" transform="rotate(180) translate(-30 -48)">
    <use xlink:href="#rim"/>
    <path pointer-events="none" fill="none" stroke="white" stroke-width="1.5" d="M0,-3.0v7 M-2.5,-0.5L0,-3.0L2.5,-0.5"/>
  </g>
  <g id="arrowLeft" transform="rotate(270) translate(-36 17)">
    <use xlink:href="#rim"/>
    <path pointer-events="none" fill="none" stroke="white" stroke-width="1.5" d="M0,-3.0v7 M-2.5,-0.5L0,-3.0L2.5,-0.5"/>
  </g>
  <g id="resetDef">
    <use xlink:href="#rim2" fill="#404040"><set attributeName="fill" to="#808080" begin="reset.mouseover" end="reset.mouseout"/></use>
  </g>
</defs>
<script type="application/ecmascript">
var viewWidth = 1998;
var viewHeight = 368;
var sectionId = 'dynsection-0';
</script>
<script type="application/ecmascript" xlink:href="svg.min.js"/>
<svg id="graph" class="graph">
<g id="viewport">
<title>src/QmlControls/MavlinkActionManager.cc</title>
<!-- Node1 -->
<g id="Node000001" class="node">
<title>Node1</title>
<g id="a_Node000001"><a xlink:title=" ">
<polygon fill="#999999" stroke="#666666" points="1254,-360 1087,-360 1087,-330 1254,-330 1254,-360"/>
<text text-anchor="start" x="1095" y="-348" font-family="Helvetica,sans-Serif" font-size="10.00">src/QmlControls/MavlinkAction</text>
<text text-anchor="middle" x="1170.5" y="-337" font-family="Helvetica,sans-Serif" font-size="10.00">Manager.cc</text>
</a>
</g>
</g>
<!-- Node2 -->
<g id="Node000002" class="node">
<title>Node2</title>
<g id="a_Node000002"><a xlink:href="MavlinkActionManager_8h.html" target="_top" xlink:title=" ">
<polygon fill="white" stroke="#666666" points="292,-74 155,-74 155,-55 292,-55 292,-74"/>
<text text-anchor="middle" x="223.5" y="-62" font-family="Helvetica,sans-Serif" font-size="10.00">MavlinkActionManager.h</text>
</a>
</g>
</g>
<!-- Node1&#45;&gt;Node2 -->
<g id="edge1_Node000001_Node000002" class="edge">
<title>Node1&#45;&gt;Node2</title>
<g id="a_edge1_Node000001_Node000002"><a xlink:title=" ">
<path fill="none" stroke="#63b8ff" d="M1086.95,-343.97C833.15,-342.79 88.5,-330.78 88.5,-230.5 88.5,-230.5 88.5,-230.5 88.5,-173.5 88.5,-123.45 145.78,-92.78 185.72,-77.48"/>
<polygon fill="#63b8ff" stroke="#63b8ff" points="187.01,-80.73 195.2,-74 184.61,-74.16 187.01,-80.73"/>
</a>
</g>
</g>
<!-- Node5 -->
<g id="Node000005" class="node">
<title>Node5</title>
<g id="a_Node000005"><a xlink:href="MavlinkAction_8h.html" target="_top" xlink:title=" ">
<polygon fill="white" stroke="#666666" points="98,-74 3,-74 3,-55 98,-55 98,-74"/>
<text text-anchor="middle" x="50.5" y="-62" font-family="Helvetica,sans-Serif" font-size="10.00">MavlinkAction.h</text>
</a>
</g>
</g>
<!-- Node1&#45;&gt;Node5 -->
<g id="edge4_Node000001_Node000005" class="edge">
<title>Node1&#45;&gt;Node5</title>
<g id="a_edge4_Node000001_Node000005"><a xlink:title=" ">
<path fill="none" stroke="#63b8ff" d="M1086.85,-342.14C860.51,-336.78 247.16,-320.01 159.5,-294 105.75,-278.05 50.5,-286.57 50.5,-230.5 50.5,-230.5 50.5,-230.5 50.5,-173.5 50.5,-142.19 50.5,-105.77 50.5,-84.23"/>
<polygon fill="#63b8ff" stroke="#63b8ff" points="54,-84.18 50.5,-74.18 47,-84.18 54,-84.18"/>
</a>
</g>
</g>
<!-- Node7 -->
<g id="Node000007" class="node">
<title>Node7</title>
<g id="a_Node000007"><a xlink:href="Fact_8h.html" target="_top" xlink:title=" ">
<polygon fill="white" stroke="#666666" points="755,-129 710,-129 710,-110 755,-110 755,-129"/>
<text text-anchor="middle" x="732.5" y="-117" font-family="Helvetica,sans-Serif" font-size="10.00">Fact.h</text>
</a>
</g>
</g>
<!-- Node1&#45;&gt;Node7 -->
<g id="edge8_Node000001_Node000007" class="edge">
<title>Node1&#45;&gt;Node7</title>
<g id="a_edge8_Node000001_Node000007"><a xlink:title=" ">
<path fill="none" stroke="#63b8ff" d="M1086.75,-340.66C1023.81,-335.72 936.59,-323.59 865.5,-294 827.01,-277.98 816.24,-270.99 789.5,-239 763.61,-208.03 746.29,-163.3 738.05,-138.6"/>
<polygon fill="#63b8ff" stroke="#63b8ff" points="741.38,-137.52 735,-129.06 734.71,-139.65 741.38,-137.52"/>
</a>
</g>
</g>
<!-- Node14 -->
<g id="Node000014" class="node">
<title>Node14</title>
<g id="a_Node000014"><a xlink:href="JsonParsing_8h.html" target="_top" xlink:title=" ">
<polygon fill="white" stroke="#666666" points="1428,-294 1347,-294 1347,-275 1428,-275 1428,-294"/>
<text text-anchor="middle" x="1387.5" y="-282" font-family="Helvetica,sans-Serif" font-size="10.00">JsonParsing.h</text>
</a>
</g>
</g>
<!-- Node1&#45;&gt;Node14 -->
<g id="edge21_Node000001_Node000014" class="edge">
<title>Node1&#45;&gt;Node14</title>
<g id="a_edge21_Node000001_Node000014"><a xlink:title=" ">
<path fill="none" stroke="#63b8ff" d="M1222.48,-329.99C1260.25,-319.8 1310.71,-306.2 1345.84,-296.73"/>
<polygon fill="#63b8ff" stroke="#63b8ff" points="1347.03,-300.04 1355.77,-294.05 1345.2,-293.28 1347.03,-300.04"/>
</a>
</g>
</g>
<!-- Node20 -->
<g id="Node000020" class="node">
<title>Node20</title>
<g id="a_Node000020"><a xlink:href="AppMessages_8h.html" target="_top" xlink:title=" ">
<polygon fill="white" stroke="#666666" points="1329,-129 1236,-129 1236,-110 1329,-110 1329,-129"/>
<text text-anchor="middle" x="1282.5" y="-117" font-family="Helvetica,sans-Serif" font-size="10.00">AppMessages.h</text>
</a>
</g>
</g>
<!-- Node1&#45;&gt;Node20 -->
<g id="edge29_Node000001_Node000020" class="edge">
<title>Node1&#45;&gt;Node20</title>
<g id="a_edge29_Node000001_Node000020"><a xlink:title=" ">
<path fill="none" stroke="#63b8ff" d="M1162.76,-329.79C1150.85,-305.84 1131.22,-256.51 1149.5,-220 1170.68,-177.71 1219.32,-148.76 1251.54,-133.42"/>
<polygon fill="#63b8ff" stroke="#63b8ff" points="1253.33,-136.45 1260.96,-129.1 1250.41,-130.09 1253.33,-136.45"/>
</a>
</g>
</g>
<!-- Node21 -->
<g id="Node000021" class="node">
<title>Node21</title>
<g id="a_Node000021"><a xlink:href="SettingsManager_8h.html" target="_top" xlink:title=" ">
<polygon fill="white" stroke="#666666" points="1265,-239 1158,-239 1158,-220 1265,-220 1265,-239"/>
<text text-anchor="middle" x="1211.5" y="-227" font-family="Helvetica,sans-Serif" font-size="10.00">SettingsManager.h</text>
</a>
</g>
</g>
<!-- Node1&#45;&gt;Node21 -->
<g id="edge31_Node000001_Node000021" class="edge">
<title>Node1&#45;&gt;Node21</title>
<g id="a_edge31_Node000001_Node000021"><a xlink:title=" ">
<path fill="none" stroke="#63b8ff" d="M1175.69,-329.63C1183.1,-309.12 1196.7,-271.47 1204.84,-248.93"/>
<polygon fill="#63b8ff" stroke="#63b8ff" points="1208.24,-249.82 1208.35,-239.23 1201.66,-247.45 1208.24,-249.82"/>
</a>
</g>
</g>
<!-- Node24 -->
<g id="Node000024" class="node">
<title>Node24</title>
<g id="a_Node000024"><a xlink:href="AppSettings_8h.html" target="_top" xlink:title=" ">
<polygon fill="white" stroke="#666666" points="958.5,-294 874.5,-294 874.5,-275 958.5,-275 958.5,-294"/>
<text text-anchor="middle" x="916.5" y="-282" font-family="Helvetica,sans-Serif" font-size="10.00">AppSettings.h</text>
</a>
</g>
</g>
<!-- Node1&#45;&gt;Node24 -->
<g id="edge36_Node000001_Node000024" class="edge">
<title>Node1&#45;&gt;Node24</title>
<g id="a_edge36_Node000001_Node000024"><a xlink:title=" ">
<path fill="none" stroke="#63b8ff" d="M1109.66,-329.99C1064.78,-319.65 1004.61,-305.79 963.42,-296.31"/>
<polygon fill="#63b8ff" stroke="#63b8ff" points="964.17,-292.89 953.64,-294.05 962.6,-299.71 964.17,-292.89"/>
</a>
</g>
</g>
<!-- Node27 -->
<g id="Node000027" class="node">
<title>Node27</title>
<g id="a_Node000027"><a xlink:href="QGCLoggingCategory_8h.html" target="_top" xlink:title=" ">
<polygon fill="white" stroke="#666666" points="1574.5,-294 1446.5,-294 1446.5,-275 1574.5,-275 1574.5,-294"/>
<text text-anchor="middle" x="1510.5" y="-282" font-family="Helvetica,sans-Serif" font-size="10.00">QGCLoggingCategory.h</text>
</a>
</g>
</g>
<!-- Node1&#45;&gt;Node27 -->
<g id="edge44_Node000001_Node000027" class="edge">
<title>Node1&#45;&gt;Node27</title>
<g id="a_edge44_Node000001_Node000027"><a xlink:title=" ">
<path fill="none" stroke="#63b8ff" d="M1251.94,-329.99C1313.16,-319.45 1395.63,-305.26 1450.81,-295.77"/>
<polygon fill="#63b8ff" stroke="#63b8ff" points="1451.52,-299.2 1460.79,-294.05 1450.34,-292.3 1451.52,-299.2"/>
</a>
</g>
</g>
<!-- Node30 -->
<g id="Node000030" class="node">
<title>Node30</title>
<g id="a_Node000030"><a xlink:href="QmlObjectListModel_8h.html" target="_top" xlink:title=" ">
<polygon fill="white" stroke="#666666" points="1101,-294 976,-294 976,-275 1101,-275 1101,-294"/>
<text text-anchor="middle" x="1038.5" y="-282" font-family="Helvetica,sans-Serif" font-size="10.00">QmlObjectListModel.h</text>
</a>
</g>
</g>
<!-- Node1&#45;&gt;Node30 -->
<g id="edge48_Node000001_Node000030" class="edge">
<title>Node1&#45;&gt;Node30</title>
<g id="a_edge48_Node000001_Node000030"><a xlink:title=" ">
<path fill="none" stroke="#63b8ff" d="M1138.88,-329.99C1117.15,-320.36 1088.53,-307.67 1067.41,-298.31"/>
<polygon fill="#63b8ff" stroke="#63b8ff" points="1068.55,-294.99 1057.99,-294.14 1065.72,-301.39 1068.55,-294.99"/>
</a>
</g>
</g>
<!-- Node34 -->
<g id="Node000034" class="node">
<title>Node34</title>
<g id="a_Node000034"><a xlink:title=" ">
<polygon fill="#e0e0e0" stroke="#999999" points="1668,-294 1593,-294 1593,-275 1668,-275 1668,-294"/>
<text text-anchor="middle" x="1630.5" y="-282" font-family="Helvetica,sans-Serif" font-size="10.00">QtCore/QDir</text>
</a>
</g>
</g>
<!-- Node1&#45;&gt;Node34 -->
<g id="edge53_Node000001_Node000034" class="edge">
<title>Node1&#45;&gt;Node34</title>
<g id="a_edge53_Node000001_Node000034"><a xlink:title=" ">
<path fill="none" stroke="#63b8ff" d="M1254.15,-335.32C1335.43,-326.56 1462.58,-311.98 1582.71,-294.04"/>
<polygon fill="#63b8ff" stroke="#63b8ff" points="1583.45,-297.46 1592.82,-292.51 1582.41,-290.54 1583.45,-297.46"/>
</a>
</g>
</g>
<!-- Node35 -->
<g id="Node000035" class="node">
<title>Node35</title>
<g id="a_Node000035"><a xlink:title=" ">
<polygon fill="#e0e0e0" stroke="#999999" points="1793,-294 1686,-294 1686,-275 1793,-275 1793,-294"/>
<text text-anchor="middle" x="1739.5" y="-282" font-family="Helvetica,sans-Serif" font-size="10.00">QtCore/QJsonArray</text>
</a>
</g>
</g>
<!-- Node1&#45;&gt;Node35 -->
<g id="edge54_Node000001_Node000035" class="edge">
<title>Node1&#45;&gt;Node35</title>
<g id="a_edge54_Node000001_Node000035"><a xlink:title=" ">
<path fill="none" stroke="#63b8ff" d="M1254.04,-336.74C1352.46,-327.97 1521.17,-312.24 1675.6,-294.19"/>
<polygon fill="#63b8ff" stroke="#63b8ff" points="1676.22,-297.64 1685.75,-293 1675.41,-290.69 1676.22,-297.64"/>
</a>
</g>
</g>
<!-- Node36 -->
<g id="Node000036" class="node">
<title>Node36</title>
<g id="a_Node000036"><a xlink:title=" ">
<polygon fill="#e0e0e0" stroke="#999999" points="1923.5,-294 1811.5,-294 1811.5,-275 1923.5,-275 1923.5,-294"/>
<text text-anchor="middle" x="1867.5" y="-282" font-family="Helvetica,sans-Serif" font-size="10.00">QtQml/QQmlEngine</text>
</a>
</g>
</g>
<!-- Node1&#45;&gt;Node36 -->
<g id="edge55_Node000001_Node000036" class="edge">
<title>Node1&#45;&gt;Node36</title>
<g id="a_edge55_Node000001_Node000036"><a xlink:title=" ">
<path fill="none" stroke="#63b8ff" d="M1254.2,-338.74C1373.31,-330.96 1598.78,-315.1 1800.93,-294.11"/>
<polygon fill="#63b8ff" stroke="#63b8ff" points="1801.57,-297.57 1811.15,-293.05 1800.84,-290.61 1801.57,-297.57"/>
</a>
</g>
</g>
<!-- Node3 -->
<g id="Node000003" class="node">
<title>Node3</title>
<g id="a_Node000003"><a xlink:title=" ">
<polygon fill="#e0e0e0" stroke="#999999" points="269.5,-19 177.5,-19 177.5,0 269.5,0 269.5,-19"/>
<text text-anchor="middle" x="223.5" y="-7" font-family="Helvetica,sans-Serif" font-size="10.00">QtCore/QObject</text>
</a>
</g>
</g>
<!-- Node2&#45;&gt;Node3 -->
<g id="edge2_Node000002_Node000003" class="edge">
<title>Node2&#45;&gt;Node3</title>
<g id="a_edge2_Node000002_Node000003"><a xlink:title=" ">
<path fill="none" stroke="#63b8ff" d="M223.5,-54.75C223.5,-47.8 223.5,-37.85 223.5,-29.13"/>
<polygon fill="#63b8ff" stroke="#63b8ff" points="227,-29.09 223.5,-19.09 220,-29.09 227,-29.09"/>
</a>
</g>
</g>
<!-- Node4 -->
<g id="Node000004" class="node">
<title>Node4</title>
<g id="a_Node000004"><a xlink:title=" ">
<polygon fill="#e0e0e0" stroke="#999999" points="902,-19 713,-19 713,0 902,0 902,-19"/>
<text text-anchor="middle" x="807.5" y="-7" font-family="Helvetica,sans-Serif" font-size="10.00">QtQmlIntegration/QtQmlIntegration</text>
</a>
</g>
</g>
<!-- Node2&#45;&gt;Node4 -->
<g id="edge3_Node000002_Node000004" class="edge">
<title>Node2&#45;&gt;Node4</title>
<g id="a_edge3_Node000002_Node000004"><a xlink:title=" ">
<path fill="none" stroke="#63b8ff" d="M292.21,-57.26C393.8,-48.04 584.83,-30.71 703.59,-19.93"/>
<polygon fill="#63b8ff" stroke="#63b8ff" points="704.15,-23.39 713.79,-19 703.51,-16.42 704.15,-23.39"/>
</a>
</g>
</g>
<!-- Node5&#45;&gt;Node3 -->
<g id="edge6_Node000005_Node000003" class="edge">
<title>Node5&#45;&gt;Node3</title>
<g id="a_edge6_Node000005_Node000003"><a xlink:title=" ">
<path fill="none" stroke="#63b8ff" d="M78.3,-54.98C107.47,-46.05 153.5,-31.94 185.9,-22.02"/>
<polygon fill="#63b8ff" stroke="#63b8ff" points="186.95,-25.36 195.49,-19.08 184.9,-18.66 186.95,-25.36"/>
</a>
</g>
</g>
<!-- Node5&#45;&gt;Node4 -->
<g id="edge7_Node000005_Node000004" class="edge">
<title>Node5&#45;&gt;Node4</title>
<g id="a_edge7_Node000005_Node000004"><a xlink:title=" ">
<path fill="none" stroke="#63b8ff" d="M98.32,-58.99C113.41,-57.63 130.15,-56.18 145.5,-55 390.02,-36.18 453.97,-37.09 702.77,-19.04"/>
<polygon fill="#63b8ff" stroke="#63b8ff" points="703.13,-22.52 712.85,-18.31 702.62,-15.54 703.13,-22.52"/>
</a>
</g>
</g>
<!-- Node6 -->
<g id="Node000006" class="node">
<title>Node6</title>
<g id="a_Node000006"><a xlink:title=" ">
<polygon fill="#e0e0e0" stroke="#999999" points="101,-19 0,-19 0,0 101,0 101,-19"/>
<text text-anchor="middle" x="50.5" y="-7" font-family="Helvetica,sans-Serif" font-size="10.00">MAVLinkEnums.h</text>
</a>
</g>
</g>
<!-- Node5&#45;&gt;Node6 -->
<g id="edge5_Node000005_Node000006" class="edge">
<title>Node5&#45;&gt;Node6</title>
<g id="a_edge5_Node000005_Node000006"><a xlink:title=" ">
<path fill="none" stroke="#63b8ff" d="M50.5,-54.75C50.5,-47.8 50.5,-37.85 50.5,-29.13"/>
<polygon fill="#63b8ff" stroke="#63b8ff" points="54,-29.09 50.5,-19.09 47,-29.09 54,-29.09"/>
</a>
</g>
</g>
<!-- Node7&#45;&gt;Node3 -->
<g id="edge10_Node000007_Node000003" class="edge">
<title>Node7&#45;&gt;Node3</title>
<g id="a_edge10_Node000007_Node000003"><a xlink:title=" ">
<path fill="none" stroke="#63b8ff" d="M709.71,-118.95C648.32,-119.53 475,-116.93 339.5,-74 329.83,-70.94 278.23,-41.84 247.2,-24.12"/>
<polygon fill="#63b8ff" stroke="#63b8ff" points="248.72,-20.95 238.3,-19.02 245.24,-27.03 248.72,-20.95"/>
</a>
</g>
</g>
<!-- Node7&#45;&gt;Node4 -->
<g id="edge14_Node000007_Node000004" class="edge">
<title>Node7&#45;&gt;Node4</title>
<g id="a_edge14_Node000007_Node000004"><a xlink:title=" ">
<path fill="none" stroke="#63b8ff" d="M747.98,-109.86C760.63,-102.05 778.06,-89.43 788.5,-74 797.67,-60.45 802.52,-42.36 805.01,-28.96"/>
<polygon fill="#63b8ff" stroke="#63b8ff" points="808.48,-29.43 806.6,-19 801.57,-28.33 808.48,-29.43"/>
</a>
</g>
</g>
<!-- Node8 -->
<g id="Node000008" class="node">
<title>Node8</title>
<g id="a_Node000008"><a xlink:title=" ">
<polygon fill="#e0e0e0" stroke="#999999" points="668,-74 545,-74 545,-55 668,-55 668,-74"/>
<text text-anchor="middle" x="606.5" y="-62" font-family="Helvetica,sans-Serif" font-size="10.00">QtCore/QMutexLocker</text>
</a>
</g>
</g>
<!-- Node7&#45;&gt;Node8 -->
<g id="edge9_Node000007_Node000008" class="edge">
<title>Node7&#45;&gt;Node8</title>
<g id="a_edge9_Node000007_Node000008"><a xlink:title=" ">
<path fill="none" stroke="#63b8ff" d="M712.26,-109.98C691.8,-101.38 659.97,-87.99 636.57,-78.15"/>
<polygon fill="#63b8ff" stroke="#63b8ff" points="637.69,-74.82 627.11,-74.17 634.97,-81.27 637.69,-74.82"/>
</a>
</g>
</g>
<!-- Node9 -->
<g id="Node000009" class="node">
<title>Node9</title>
<g id="a_Node000009"><a xlink:title=" ">
<polygon fill="#e0e0e0" stroke="#999999" points="488.5,-74 348.5,-74 348.5,-55 488.5,-55 488.5,-74"/>
<text text-anchor="middle" x="418.5" y="-62" font-family="Helvetica,sans-Serif" font-size="10.00">QtCore/QRecursiveMutex</text>
</a>
</g>
</g>
<!-- Node7&#45;&gt;Node9 -->
<g id="edge11_Node000007_Node000009" class="edge">
<title>Node7&#45;&gt;Node9</title>
<g id="a_edge11_Node000007_Node000009"><a xlink:title=" ">
<path fill="none" stroke="#63b8ff" d="M709.92,-114.69C662.14,-106.62 549.43,-87.6 479.01,-75.71"/>
<polygon fill="#63b8ff" stroke="#63b8ff" points="479.38,-72.23 468.94,-74.01 478.22,-79.13 479.38,-72.23"/>
</a>
</g>
</g>
<!-- Node10 -->
<g id="Node000010" class="node">
<title>Node10</title>
<g id="a_Node000010"><a xlink:title=" ">
<polygon fill="#e0e0e0" stroke="#999999" points="1009,-19 920,-19 920,0 1009,0 1009,-19"/>
<text text-anchor="middle" x="964.5" y="-7" font-family="Helvetica,sans-Serif" font-size="10.00">QtCore/QString</text>
</a>
</g>
</g>
<!-- Node7&#45;&gt;Node10 -->
<g id="edge12_Node000007_Node000010" class="edge">
<title>Node7&#45;&gt;Node10</title>
<g id="a_edge12_Node000007_Node000010"><a xlink:title=" ">
<path fill="none" stroke="#63b8ff" d="M751.09,-109.84C791.83,-90.88 889.15,-45.58 936.99,-23.31"/>
<polygon fill="#63b8ff" stroke="#63b8ff" points="938.55,-26.44 946.14,-19.05 935.6,-20.09 938.55,-26.44"/>
</a>
</g>
</g>
<!-- Node11 -->
<g id="Node000011" class="node">
<title>Node11</title>
<g id="a_Node000011"><a xlink:title=" ">
<polygon fill="#e0e0e0" stroke="#999999" points="577,-19 482,-19 482,0 577,0 577,-19"/>
<text text-anchor="middle" x="529.5" y="-7" font-family="Helvetica,sans-Serif" font-size="10.00">QtCore/QVariant</text>
</a>
</g>
</g>
<!-- Node7&#45;&gt;Node11 -->
<g id="edge13_Node000007_Node000011" class="edge">
<title>Node7&#45;&gt;Node11</title>
<g id="a_edge13_Node000007_Node000011"><a xlink:title=" ">
<path fill="none" stroke="#63b8ff" d="M709.71,-116.58C663.12,-112.17 559.39,-99.64 536.5,-74 525.78,-61.99 524.97,-43.17 526.27,-29.14"/>
<polygon fill="#63b8ff" stroke="#63b8ff" points="529.75,-29.51 527.62,-19.13 522.82,-28.57 529.75,-29.51"/>
</a>
</g>
</g>
<!-- Node12 -->
<g id="Node000012" class="node">
<title>Node12</title>
<g id="a_Node000012"><a xlink:href="FactMetaData_8h.html" target="_top" xlink:title=" ">
<polygon fill="white" stroke="#666666" points="779,-74 686,-74 686,-55 779,-55 779,-74"/>
<text text-anchor="middle" x="732.5" y="-62" font-family="Helvetica,sans-Serif" font-size="10.00">FactMetaData.h</text>
</a>
</g>
</g>
<!-- Node7&#45;&gt;Node12 -->
<g id="edge15_Node000007_Node000012" class="edge">
<title>Node7&#45;&gt;Node12</title>
<g id="a_edge15_Node000007_Node000012"><a xlink:title=" ">
<path fill="none" stroke="#63b8ff" d="M732.5,-109.75C732.5,-102.8 732.5,-92.85 732.5,-84.13"/>
<polygon fill="#63b8ff" stroke="#63b8ff" points="736,-84.09 732.5,-74.09 729,-84.09 736,-84.09"/>
</a>
</g>
</g>
<!-- Node12&#45;&gt;Node3 -->
<g id="edge17_Node000012_Node000003" class="edge">
<title>Node12&#45;&gt;Node3</title>
<g id="a_edge17_Node000012_Node000003"><a xlink:title=" ">
<path fill="none" stroke="#63b8ff" d="M685.72,-56.09C682.94,-55.7 680.18,-55.34 677.5,-55 534.61,-36.97 365.62,-22.1 279.73,-15"/>
<polygon fill="#63b8ff" stroke="#63b8ff" points="279.93,-11.5 269.67,-14.17 279.35,-18.48 279.93,-11.5"/>
</a>
</g>
</g>
<!-- Node12&#45;&gt;Node4 -->
<g id="edge20_Node000012_Node000004" class="edge">
<title>Node12&#45;&gt;Node4</title>
<g id="a_edge20_Node000012_Node000004"><a xlink:title=" ">
<path fill="none" stroke="#63b8ff" d="M744.55,-54.98C755.96,-46.92 773.33,-34.65 786.93,-25.03"/>
<polygon fill="#63b8ff" stroke="#63b8ff" points="789.08,-27.8 795.23,-19.17 785.04,-22.08 789.08,-27.8"/>
</a>
</g>
</g>
<!-- Node12&#45;&gt;Node10 -->
<g id="edge18_Node000012_Node000010" class="edge">
<title>Node12&#45;&gt;Node10</title>
<g id="a_edge18_Node000012_Node000010"><a xlink:title=" ">
<path fill="none" stroke="#63b8ff" d="M769.77,-54.98C809.82,-45.84 873.57,-31.27 917.14,-21.32"/>
<polygon fill="#63b8ff" stroke="#63b8ff" points="917.96,-24.72 926.93,-19.08 916.4,-17.9 917.96,-24.72"/>
</a>
</g>
</g>
<!-- Node12&#45;&gt;Node11 -->
<g id="edge19_Node000012_Node000011" class="edge">
<title>Node12&#45;&gt;Node11</title>
<g id="a_edge19_Node000012_Node000011"><a xlink:title=" ">
<path fill="none" stroke="#63b8ff" d="M699.88,-54.98C665.21,-45.93 610.24,-31.58 572.15,-21.64"/>
<polygon fill="#63b8ff" stroke="#63b8ff" points="572.93,-18.22 562.37,-19.08 571.16,-24.99 572.93,-18.22"/>
</a>
</g>
</g>
<!-- Node13 -->
<g id="Node000013" class="node">
<title>Node13</title>
<g id="a_Node000013"><a xlink:title=" ">
<polygon fill="#e0e0e0" stroke="#999999" points="694.5,-19 608.5,-19 608.5,0 694.5,0 694.5,-19"/>
<text text-anchor="middle" x="651.5" y="-7" font-family="Helvetica,sans-Serif" font-size="10.00">QtCore/QHash</text>
</a>
</g>
</g>
<!-- Node12&#45;&gt;Node13 -->
<g id="edge16_Node000012_Node000013" class="edge">
<title>Node12&#45;&gt;Node13</title>
<g id="a_edge16_Node000012_Node000013"><a xlink:title=" ">
<path fill="none" stroke="#63b8ff" d="M719.49,-54.98C707.04,-46.84 688.04,-34.41 673.29,-24.76"/>
<polygon fill="#63b8ff" stroke="#63b8ff" points="675.04,-21.72 664.75,-19.17 671.2,-27.57 675.04,-21.72"/>
</a>
</g>
</g>
<!-- Node15 -->
<g id="Node000015" class="node">
<title>Node15</title>
<g id="a_Node000015"><a xlink:title=" ">
<polygon fill="#e0e0e0" stroke="#999999" points="1453,-239 1322,-239 1322,-220 1453,-220 1453,-239"/>
<text text-anchor="middle" x="1387.5" y="-227" font-family="Helvetica,sans-Serif" font-size="10.00">QtCore/QJsonDocument</text>
</a>
</g>
</g>
<!-- Node14&#45;&gt;Node15 -->
<g id="edge22_Node000014_Node000015" class="edge">
<title>Node14&#45;&gt;Node15</title>
<g id="a_edge22_Node000014_Node000015"><a xlink:title=" ">
<path fill="none" stroke="#63b8ff" d="M1387.5,-274.75C1387.5,-267.8 1387.5,-257.85 1387.5,-249.13"/>
<polygon fill="#63b8ff" stroke="#63b8ff" points="1391,-249.09 1387.5,-239.09 1384,-249.09 1391,-249.09"/>
</a>
</g>
</g>
<!-- Node16 -->
<g id="Node000016" class="node">
<title>Node16</title>
<g id="a_Node000016"><a xlink:title=" ">
<polygon fill="#e0e0e0" stroke="#999999" points="1608,-184 1495,-184 1495,-165 1608,-165 1608,-184"/>
<text text-anchor="middle" x="1551.5" y="-172" font-family="Helvetica,sans-Serif" font-size="10.00">QtCore/QJsonObject</text>
</a>
</g>
</g>
<!-- Node14&#45;&gt;Node16 -->
<g id="edge23_Node000014_Node000016" class="edge">
<title>Node14&#45;&gt;Node16</title>
<g id="a_edge23_Node000014_Node000016"><a xlink:title=" ">
<path fill="none" stroke="#63b8ff" d="M1363.31,-274.91C1335.16,-263.61 1294.79,-242.53 1313.5,-220 1319.07,-213.29 1417.47,-196.57 1485.98,-185.65"/>
<polygon fill="#63b8ff" stroke="#63b8ff" points="1486.95,-189.04 1496.27,-184.01 1485.85,-182.13 1486.95,-189.04"/>
</a>
</g>
</g>
<!-- Node17 -->
<g id="Node000017" class="node">
<title>Node17</title>
<g id="a_Node000017"><a xlink:title=" ">
<polygon fill="#e0e0e0" stroke="#999999" points="1579.5,-239 1471.5,-239 1471.5,-220 1579.5,-220 1579.5,-239"/>
<text text-anchor="middle" x="1525.5" y="-227" font-family="Helvetica,sans-Serif" font-size="10.00">QtCore/QJsonValue</text>
</a>
</g>
</g>
<!-- Node14&#45;&gt;Node17 -->
<g id="edge24_Node000014_Node000017" class="edge">
<title>Node14&#45;&gt;Node17</title>
<g id="a_edge24_Node000014_Node000017"><a xlink:title=" ">
<path fill="none" stroke="#63b8ff" d="M1409.67,-274.98C1432.27,-266.3 1467.56,-252.75 1493.25,-242.88"/>
<polygon fill="#63b8ff" stroke="#63b8ff" points="1494.84,-246.02 1502.92,-239.17 1492.33,-239.49 1494.84,-246.02"/>
</a>
</g>
</g>
<!-- Node18 -->
<g id="Node000018" class="node">
<title>Node18</title>
<g id="a_Node000018"><a xlink:title=" ">
<polygon fill="#e0e0e0" stroke="#999999" points="1775,-184 1668,-184 1668,-165 1775,-165 1775,-184"/>
<text text-anchor="middle" x="1721.5" y="-172" font-family="Helvetica,sans-Serif" font-size="10.00">QtCore/QStringList</text>
</a>
</g>
</g>
<!-- Node14&#45;&gt;Node18 -->
<g id="edge25_Node000014_Node000018" class="edge">
<title>Node14&#45;&gt;Node18</title>
<g id="a_edge25_Node000014_Node000018"><a xlink:title=" ">
<path fill="none" stroke="#63b8ff" d="M1428.14,-276.47C1431.31,-275.96 1434.45,-275.47 1437.5,-275 1496.25,-266.02 1657.34,-277.63 1702.5,-239 1715.33,-228.02 1719.7,-208.76 1721.08,-194.32"/>
<polygon fill="#63b8ff" stroke="#63b8ff" points="1724.6,-194.21 1721.66,-184.03 1717.61,-193.81 1724.6,-194.21"/>
</a>
</g>
</g>
<!-- Node19 -->
<g id="Node000019" class="node">
<title>Node19</title>
<g id="a_Node000019"><a xlink:href="JsonValidation_8h.html" target="_top" xlink:title=" ">
<polygon fill="white" stroke="#666666" points="1693,-239 1598,-239 1598,-220 1693,-220 1693,-239"/>
<text text-anchor="middle" x="1645.5" y="-227" font-family="Helvetica,sans-Serif" font-size="10.00">JsonValidation.h</text>
</a>
</g>
</g>
<!-- Node14&#45;&gt;Node19 -->
<g id="edge26_Node000014_Node000019" class="edge">
<title>Node14&#45;&gt;Node19</title>
<g id="a_edge26_Node000014_Node000019"><a xlink:title=" ">
<path fill="none" stroke="#63b8ff" d="M1428.1,-275.16C1472.88,-265.96 1545.04,-251.14 1593.82,-241.12"/>
<polygon fill="#63b8ff" stroke="#63b8ff" points="1594.77,-244.49 1603.86,-239.05 1593.36,-237.64 1594.77,-244.49"/>
</a>
</g>
</g>
<!-- Node19&#45;&gt;Node16 -->
<g id="edge27_Node000019_Node000016" class="edge">
<title>Node19&#45;&gt;Node16</title>
<g id="a_edge27_Node000019_Node000016"><a xlink:title=" ">
<path fill="none" stroke="#63b8ff" d="M1630.4,-219.98C1615.68,-211.69 1593.08,-198.94 1575.83,-189.22"/>
<polygon fill="#63b8ff" stroke="#63b8ff" points="1577.31,-186.03 1566.88,-184.17 1573.87,-192.13 1577.31,-186.03"/>
</a>
</g>
</g>
<!-- Node19&#45;&gt;Node18 -->
<g id="edge28_Node000019_Node000018" class="edge">
<title>Node19&#45;&gt;Node18</title>
<g id="a_edge28_Node000019_Node000018"><a xlink:title=" ">
<path fill="none" stroke="#63b8ff" d="M1657.71,-219.98C1669.28,-211.92 1686.88,-199.65 1700.66,-190.03"/>
<polygon fill="#63b8ff" stroke="#63b8ff" points="1702.87,-192.76 1709.07,-184.17 1698.86,-187.02 1702.87,-192.76"/>
</a>
</g>
</g>
<!-- Node20&#45;&gt;Node10 -->
<g id="edge30_Node000020_Node000010" class="edge">
<title>Node20&#45;&gt;Node10</title>
<g id="a_edge30_Node000020_Node000010"><a xlink:title=" ">
<path fill="none" stroke="#63b8ff" d="M1276.94,-109.85C1267.43,-95.82 1246.61,-68.34 1221.5,-55 1157.64,-21.06 1073.43,-12.15 1019.12,-10.25"/>
<polygon fill="#63b8ff" stroke="#63b8ff" points="1019.1,-6.75 1009.01,-9.96 1018.91,-13.74 1019.1,-6.75"/>
</a>
</g>
</g>
<!-- Node21&#45;&gt;Node4 -->
<g id="edge35_Node000021_Node000004" class="edge">
<title>Node21&#45;&gt;Node4</title>
<g id="a_edge35_Node000021_Node000004"><a xlink:title=" ">
<path fill="none" stroke="#63b8ff" d="M1212.63,-220C1214.96,-198.47 1217.89,-141.33 1188.5,-110 1147.12,-65.9 980.96,-35.23 882.26,-20.49"/>
<polygon fill="#63b8ff" stroke="#63b8ff" points="882.74,-17.02 872.33,-19.03 881.72,-23.95 882.74,-17.02"/>
</a>
</g>
</g>
<!-- Node21&#45;&gt;Node16 -->
<g id="edge32_Node000021_Node000016" class="edge">
<title>Node21&#45;&gt;Node16</title>
<g id="a_edge32_Node000021_Node000016"><a xlink:title=" ">
<path fill="none" stroke="#63b8ff" d="M1265.37,-220.1C1325.45,-210.74 1422.59,-195.6 1486.75,-185.59"/>
<polygon fill="#63b8ff" stroke="#63b8ff" points="1487.41,-189.03 1496.75,-184.03 1486.33,-182.12 1487.41,-189.03"/>
</a>
</g>
</g>
<!-- Node22 -->
<g id="Node000022" class="node">
<title>Node22</title>
<g id="a_Node000022"><a xlink:title=" ">
<polygon fill="#e0e0e0" stroke="#999999" points="1317.5,-184 1235.5,-184 1235.5,-165 1317.5,-165 1317.5,-184"/>
<text text-anchor="middle" x="1276.5" y="-172" font-family="Helvetica,sans-Serif" font-size="10.00">QtCore/QMap</text>
</a>
</g>
</g>
<!-- Node21&#45;&gt;Node22 -->
<g id="edge33_Node000021_Node000022" class="edge">
<title>Node21&#45;&gt;Node22</title>
<g id="a_edge33_Node000021_Node000022"><a xlink:title=" ">
<path fill="none" stroke="#63b8ff" d="M1221.94,-219.98C1231.65,-212.07 1246.32,-200.11 1258,-190.58"/>
<polygon fill="#63b8ff" stroke="#63b8ff" points="1260.33,-193.2 1265.87,-184.17 1255.9,-187.78 1260.33,-193.2"/>
</a>
</g>
</g>
<!-- Node23 -->
<g id="Node000023" class="node">
<title>Node23</title>
<g id="a_Node000023"><a xlink:title=" ">
<polygon fill="#e0e0e0" stroke="#999999" points="1477,-184 1336,-184 1336,-165 1477,-165 1477,-184"/>
<text text-anchor="middle" x="1406.5" y="-172" font-family="Helvetica,sans-Serif" font-size="10.00">QtQml/QQmlPropertyMap</text>
</a>
</g>
</g>
<!-- Node21&#45;&gt;Node23 -->
<g id="edge34_Node000021_Node000023" class="edge">
<title>Node21&#45;&gt;Node23</title>
<g id="a_edge34_Node000021_Node000023"><a xlink:title=" ">
<path fill="none" stroke="#63b8ff" d="M1242.83,-219.98C1275.99,-210.97 1328.5,-196.7 1365.06,-186.76"/>
<polygon fill="#63b8ff" stroke="#63b8ff" points="1366.19,-190.08 1374.92,-184.08 1364.36,-183.33 1366.19,-190.08"/>
</a>
</g>
</g>
<!-- Node24&#45;&gt;Node4 -->
<g id="edge37_Node000024_Node000004" class="edge">
<title>Node24&#45;&gt;Node4</title>
<g id="a_edge37_Node000024_Node000004"><a xlink:title=" ">
<path fill="none" stroke="#63b8ff" d="M917.17,-274.83C918.54,-256.5 921.5,-212.48 921.5,-175.5 921.5,-175.5 921.5,-175.5 921.5,-118.5 921.5,-72.47 871.92,-40.18 838.15,-23.53"/>
<polygon fill="#63b8ff" stroke="#63b8ff" points="839.21,-20.16 828.68,-19.05 836.22,-26.49 839.21,-20.16"/>
</a>
</g>
</g>
<!-- Node25 -->
<g id="Node000025" class="node">
<title>Node25</title>
<g id="a_Node000025"><a xlink:href="SettingsGroup_8h.html" target="_top" xlink:title=" ">
<polygon fill="white" stroke="#666666" points="893,-239 798,-239 798,-220 893,-220 893,-239"/>
<text text-anchor="middle" x="845.5" y="-227" font-family="Helvetica,sans-Serif" font-size="10.00">SettingsGroup.h</text>
</a>
</g>
</g>
<!-- Node24&#45;&gt;Node25 -->
<g id="edge38_Node000024_Node000025" class="edge">
<title>Node24&#45;&gt;Node25</title>
<g id="a_edge38_Node000024_Node000025"><a xlink:title=" ">
<path fill="none" stroke="#63b8ff" d="M905.09,-274.98C894.39,-267 878.16,-254.88 865.34,-245.31"/>
<polygon fill="#63b8ff" stroke="#63b8ff" points="867.22,-242.35 857.11,-239.17 863.03,-247.96 867.22,-242.35"/>
</a>
</g>
</g>
<!-- Node26 -->
<g id="Node000026" class="node">
<title>Node26</title>
<g id="a_Node000026"><a xlink:href="SettingsFact_8h.html" target="_top" xlink:title=" ">
<polygon fill="white" stroke="#666666" points="888,-184 803,-184 803,-165 888,-165 888,-184"/>
<text text-anchor="middle" x="845.5" y="-172" font-family="Helvetica,sans-Serif" font-size="10.00">SettingsFact.h</text>
</a>
</g>
</g>
<!-- Node25&#45;&gt;Node26 -->
<g id="edge39_Node000025_Node000026" class="edge">
<title>Node25&#45;&gt;Node26</title>
<g id="a_edge39_Node000025_Node000026"><a xlink:title=" ">
<path fill="none" stroke="#63b8ff" d="M845.5,-219.75C845.5,-212.8 845.5,-202.85 845.5,-194.13"/>
<polygon fill="#63b8ff" stroke="#63b8ff" points="849,-194.09 845.5,-184.09 842,-194.09 849,-194.09"/>
</a>
</g>
</g>
<!-- Node26&#45;&gt;Node3 -->
<g id="edge40_Node000026_Node000003" class="edge">
<title>Node26&#45;&gt;Node3</title>
<g id="a_edge40_Node000026_Node000003"><a xlink:title=" ">
<path fill="none" stroke="#63b8ff" d="M802.75,-170.64C657.42,-160.48 188.95,-124.06 145.5,-74 127.71,-53.5 160.28,-34.49 188.61,-22.71"/>
<polygon fill="#63b8ff" stroke="#63b8ff" points="189.97,-25.94 197.97,-19 187.39,-19.43 189.97,-25.94"/>
</a>
</g>
</g>
<!-- Node26&#45;&gt;Node4 -->
<g id="edge42_Node000026_Node000004" class="edge">
<title>Node26&#45;&gt;Node4</title>
<g id="a_edge42_Node000026_Node000004"><a xlink:title=" ">
<path fill="none" stroke="#63b8ff" d="M843.46,-164.74C837.5,-139.2 820.07,-64.43 811.87,-29.23"/>
<polygon fill="#63b8ff" stroke="#63b8ff" points="815.23,-28.25 809.55,-19.31 808.42,-29.84 815.23,-28.25"/>
</a>
</g>
</g>
<!-- Node26&#45;&gt;Node7 -->
<g id="edge43_Node000026_Node000007" class="edge">
<title>Node26&#45;&gt;Node7</title>
<g id="a_edge43_Node000026_Node000007"><a xlink:title=" ">
<path fill="none" stroke="#63b8ff" d="M827.34,-164.98C809.25,-156.5 781.22,-143.35 760.31,-133.54"/>
<polygon fill="#63b8ff" stroke="#63b8ff" points="761.53,-130.25 750.99,-129.17 758.55,-136.59 761.53,-130.25"/>
</a>
</g>
</g>
<!-- Node26&#45;&gt;Node10 -->
<g id="edge41_Node000026_Node000010" class="edge">
<title>Node26&#45;&gt;Node10</title>
<g id="a_edge41_Node000026_Node000010"><a xlink:title=" ">
<path fill="none" stroke="#63b8ff" d="M851.9,-164.74C870.87,-138.76 927.03,-61.83 952.13,-27.44"/>
<polygon fill="#63b8ff" stroke="#63b8ff" points="955,-29.45 958.07,-19.31 949.35,-25.32 955,-29.45"/>
</a>
</g>
</g>
<!-- Node27&#45;&gt;Node18 -->
<g id="edge46_Node000027_Node000018" class="edge">
<title>Node27&#45;&gt;Node18</title>
<g id="a_edge46_Node000027_Node000018"><a xlink:title=" ">
<path fill="none" stroke="#63b8ff" d="M1574.66,-276.03C1577.99,-275.67 1581.28,-275.33 1584.5,-275 1629,-270.45 1955.32,-272.02 1985.5,-239 1991.2,-232.77 1990.95,-226.45 1985.5,-220 1960.36,-190.27 1855.09,-180.4 1785.31,-177.12"/>
<polygon fill="#63b8ff" stroke="#63b8ff" points="1785.43,-173.62 1775.29,-176.68 1785.13,-180.61 1785.43,-173.62"/>
</a>
</g>
</g>
<!-- Node28 -->
<g id="Node000028" class="node">
<title>Node28</title>
<g id="a_Node000028"><a xlink:title=" ">
<polygon fill="#e0e0e0" stroke="#999999" points="1893,-239 1750,-239 1750,-220 1893,-220 1893,-239"/>
<text text-anchor="middle" x="1821.5" y="-227" font-family="Helvetica,sans-Serif" font-size="10.00">QtCore/QLoggingCategory</text>
</a>
</g>
</g>
<!-- Node27&#45;&gt;Node28 -->
<g id="edge45_Node000027_Node000028" class="edge">
<title>Node27&#45;&gt;Node28</title>
<g id="a_edge45_Node000027_Node000028"><a xlink:title=" ">
<path fill="none" stroke="#63b8ff" d="M1560.47,-274.98C1615.14,-265.67 1702.75,-250.74 1761.2,-240.78"/>
<polygon fill="#63b8ff" stroke="#63b8ff" points="1762.13,-244.17 1771.4,-239.04 1760.95,-237.27 1762.13,-244.17"/>
</a>
</g>
</g>
<!-- Node29 -->
<g id="Node000029" class="node">
<title>Node29</title>
<g id="a_Node000029"><a xlink:title=" ">
<polygon fill="#e0e0e0" stroke="#999999" points="1976,-239 1911,-239 1911,-220 1976,-220 1976,-239"/>
<text text-anchor="middle" x="1943.5" y="-227" font-family="Helvetica,sans-Serif" font-size="10.00">functional</text>
</a>
</g>
</g>
<!-- Node27&#45;&gt;Node29 -->
<g id="edge47_Node000027_Node000029" class="edge">
<title>Node27&#45;&gt;Node29</title>
<g id="a_edge47_Node000027_Node000029"><a xlink:title=" ">
<path fill="none" stroke="#63b8ff" d="M1574.67,-276.12C1578,-275.74 1581.29,-275.37 1584.5,-275 1722.51,-259.26 1760.29,-261.35 1900.59,-239.18"/>
<polygon fill="#63b8ff" stroke="#63b8ff" points="1901.55,-242.58 1910.88,-237.54 1900.45,-235.66 1901.55,-242.58"/>
</a>
</g>
</g>
<!-- Node31 -->
<g id="Node000031" class="node">
<title>Node31</title>
<g id="a_Node000031"><a xlink:href="ObjectListModelBase_8h.html" target="_top" xlink:title=" ">
<polygon fill="white" stroke="#666666" points="1100.5,-239 972.5,-239 972.5,-220 1100.5,-220 1100.5,-239"/>
<text text-anchor="middle" x="1036.5" y="-227" font-family="Helvetica,sans-Serif" font-size="10.00">ObjectListModelBase.h</text>
</a>
</g>
</g>
<!-- Node30&#45;&gt;Node31 -->
<g id="edge49_Node000030_Node000031" class="edge">
<title>Node30&#45;&gt;Node31</title>
<g id="a_edge49_Node000030_Node000031"><a xlink:title=" ">
<path fill="none" stroke="#63b8ff" d="M1038.17,-274.75C1037.91,-267.8 1037.53,-257.85 1037.2,-249.13"/>
<polygon fill="#63b8ff" stroke="#63b8ff" points="1040.7,-248.95 1036.82,-239.09 1033.7,-249.21 1040.7,-248.95"/>
</a>
</g>
</g>
<!-- Node32 -->
<g id="Node000032" class="node">
<title>Node32</title>
<g id="a_Node000032"><a xlink:href="ObjectItemModelBase_8h.html" target="_top" xlink:title=" ">
<polygon fill="white" stroke="#666666" points="1101.5,-184 967.5,-184 967.5,-165 1101.5,-165 1101.5,-184"/>
<text text-anchor="middle" x="1034.5" y="-172" font-family="Helvetica,sans-Serif" font-size="10.00">ObjectItemModelBase.h</text>
</a>
</g>
</g>
<!-- Node31&#45;&gt;Node32 -->
<g id="edge50_Node000031_Node000032" class="edge">
<title>Node31&#45;&gt;Node32</title>
<g id="a_edge50_Node000031_Node000032"><a xlink:title=" ">
<path fill="none" stroke="#63b8ff" d="M1036.17,-219.75C1035.91,-212.8 1035.53,-202.85 1035.2,-194.13"/>
<polygon fill="#63b8ff" stroke="#63b8ff" points="1038.7,-193.95 1034.82,-184.09 1031.7,-194.21 1038.7,-193.95"/>
</a>
</g>
</g>
<!-- Node32&#45;&gt;Node4 -->
<g id="edge52_Node000032_Node000004" class="edge">
<title>Node32&#45;&gt;Node4</title>
<g id="a_edge52_Node000032_Node000004"><a xlink:title=" ">
<path fill="none" stroke="#63b8ff" d="M1029.66,-164.98C1017,-143.44 980.71,-86.24 935.5,-55 912.79,-39.31 884.01,-28.65 859.49,-21.71"/>
<polygon fill="#63b8ff" stroke="#63b8ff" points="860.19,-18.28 849.63,-19.05 858.37,-25.03 860.19,-18.28"/>
</a>
</g>
</g>
<!-- Node33 -->
<g id="Node000033" class="node">
<title>Node33</title>
<g id="a_Node000033"><a xlink:title=" ">
<polygon fill="#e0e0e0" stroke="#999999" points="1179.5,-129 1025.5,-129 1025.5,-110 1179.5,-110 1179.5,-129"/>
<text text-anchor="middle" x="1102.5" y="-117" font-family="Helvetica,sans-Serif" font-size="10.00">QtCore/QAbstractItemModel</text>
</a>
</g>
</g>
<!-- Node32&#45;&gt;Node33 -->
<g id="edge51_Node000032_Node000033" class="edge">
<title>Node32&#45;&gt;Node33</title>
<g id="a_edge51_Node000032_Node000033"><a xlink:title=" ">
<path fill="none" stroke="#63b8ff" d="M1045.43,-164.98C1055.58,-157.07 1070.92,-145.11 1083.15,-135.58"/>
<polygon fill="#63b8ff" stroke="#63b8ff" points="1085.64,-138.08 1091.38,-129.17 1081.34,-132.56 1085.64,-138.08"/>
</a>
</g>
</g>
</g>
</svg>

<g id="navigator" transform="translate(0 0)" fill="#404254">
  <rect fill="#f2f5e9" fill-opacity="0.5" stroke="#606060" stroke-width=".5" x="0" y="0" width="60" height="60"/>
  <use id="zoomplus" xlink:href="#zoomPlus" x="17" y="9" onmousedown="handleZoom(evt,'in')"/>
  <use id="zoomminus" xlink:href="#zoomMin" x="42" y="9" onmousedown="handleZoom(evt,'out')"/>
  <use id="reset" xlink:href="#resetDef" x="30" y="36" onmousedown="handleReset()"/>
   <use id="arrowup" xlink:href="#arrowUp" x="0" y="0" onmousedown="handlePan(0,-1)"/>
  <use id="arrowright" xlink:href="#arrowRight" x="0" y="0" onmousedown="handlePan(1,0)"/>
  <use id="arrowdown" xlink:href="#arrowDown" x="0" y="0" onmousedown="handlePan(0,1)"/>
  <use id="arrowleft" xlink:href="#arrowLeft" x="0" y="0" onmousedown="handlePan(-1,0)"/>
</g>
<svg viewBox="0 0 15 15" width="100%" height="30px" preserveAspectRatio="xMaxYMin meet">
 <g id="arrow_out" transform="scale(0.3 0.3)">
  <a xlink:href="MavlinkActionManager_8cc__incl_org.svg" target="_base">
   <rect id="button" ry="5" rx="5" y="6" x="6" height="38" width="38"
        fill="#f2f5e9" fill-opacity="0.5" stroke="#606060" stroke-width="1.0"/>
   <path id="arrow"
     d="M 11.500037,31.436501 C 11.940474,20.09759 22.043105,11.32322 32.158766,21.979434 L 37.068811,17.246167 C 37.068811,17.246167 37.088388,32 37.088388,32 L 22.160133,31.978069 C 22.160133,31.978069 26.997745,27.140456 26.997745,27.140456 C 18.528582,18.264221 13.291696,25.230495 11.500037,31.436501 z"
     style="fill:#404040;"/>
  </a>
 </g>
</svg>

<style type='text/css'>
<![CDATA[
[data-mouse-over-selected='false'] { opacity: 0.7; }
[data-mouse-over-selected='true']  { opacity: 1.0; }
]]>
</style>
<script type="application/ecmascript"><![CDATA[
document.addEventListener('DOMContentLoaded', (event) => {
  highlightEdges();
  highlightAdjacentNodes();
});
]]></script>
</svg>
