<?xml version="1.0" encoding="UTF-8" standalone="no"?>
<!DOCTYPE svg PUBLIC "-//W3C//DTD SVG 1.1//EN"
 "http://www.w3.org/Graphics/SVG/1.1/DTD/svg11.dtd">
<!-- Generated by graphviz version 2.43.0 (0)
 -->
<!-- Title: src/AnalyzeView/MAVLinkMessageField.cc Pages: 1 -->
<svg width="1838pt" height="368pt"
 viewBox="0.00 0.00 1838.00 368.00" xmlns="http://www.w3.org/2000/svg" xmlns:xlink="http://www.w3.org/1999/xlink">
<g id="graph0" class="graph" transform="scale(1 1) rotate(0) translate(4 364)">
<title>src/AnalyzeView/MAVLinkMessageField.cc</title>
<!-- Node1 -->
<g id="Node000001" class="node">
<title>Node1</title>
<g id="a_Node000001"><a xlink:title=" ">
<polygon fill="#999999" stroke="#666666" points="970,-360 785,-360 785,-330 970,-330 970,-360"/>
<text text-anchor="start" x="793" y="-348" font-family="Helvetica,sans-Serif" font-size="10.00">src/AnalyzeView/MAVLinkMessage</text>
<text text-anchor="middle" x="877.5" y="-337" font-family="Helvetica,sans-Serif" font-size="10.00">Field.cc</text>
</a>
</g>
</g>
<!-- Node2 -->
<g id="Node000002" class="node">
<title>Node2</title>
<g id="a_Node000002"><a xlink:href="MAVLinkMessageField_8h.html" target="_top" xlink:title=" ">
<polygon fill="white" stroke="#666666" points="628.5,-129 494.5,-129 494.5,-110 628.5,-110 628.5,-129"/>
<text text-anchor="middle" x="561.5" y="-117" font-family="Helvetica,sans-Serif" font-size="10.00">MAVLinkMessageField.h</text>
</a>
</g>
</g>
<!-- Node1&#45;&gt;Node2 -->
<g id="edge1_Node000001_Node000002" class="edge">
<title>Node1&#45;&gt;Node2</title>
<g id="a_edge1_Node000001_Node000002"><a xlink:title=" ">
<path fill="none" stroke="#63b8ff" d="M848.29,-329.89C829.6,-320.48 805.08,-307.41 784.5,-294 703.83,-241.46 615.78,-167.5 579.08,-135.85"/>
<polygon fill="#63b8ff" stroke="#63b8ff" points="581.12,-132.99 571.28,-129.08 576.54,-138.28 581.12,-132.99"/>
</a>
</g>
</g>
<!-- Node8 -->
<g id="Node000008" class="node">
<title>Node8</title>
<g id="a_Node000008"><a xlink:href="MAVLinkChartController_8h.html" target="_top" xlink:title=" ">
<polygon fill="white" stroke="#666666" points="412,-129 271,-129 271,-110 412,-110 412,-129"/>
<text text-anchor="middle" x="341.5" y="-117" font-family="Helvetica,sans-Serif" font-size="10.00">MAVLinkChartController.h</text>
</a>
</g>
</g>
<!-- Node1&#45;&gt;Node8 -->
<g id="edge7_Node000001_Node000008" class="edge">
<title>Node1&#45;&gt;Node8</title>
<g id="a_edge7_Node000001_Node000008"><a xlink:title=" ">
<path fill="none" stroke="#63b8ff" d="M843.03,-329.96C818.58,-319.97 785,-306.23 755.5,-294 611.06,-234.14 438.73,-161.54 370.95,-132.94"/>
<polygon fill="#63b8ff" stroke="#63b8ff" points="372.3,-129.71 361.72,-129.04 369.58,-136.15 372.3,-129.71"/>
</a>
</g>
</g>
<!-- Node11 -->
<g id="Node000011" class="node">
<title>Node11</title>
<g id="a_Node000011"><a xlink:href="MAVLinkMessage_8h.html" target="_top" xlink:title=" ">
<polygon fill="white" stroke="#666666" points="758,-129 647,-129 647,-110 758,-110 758,-129"/>
<text text-anchor="middle" x="702.5" y="-117" font-family="Helvetica,sans-Serif" font-size="10.00">MAVLinkMessage.h</text>
</a>
</g>
</g>
<!-- Node1&#45;&gt;Node11 -->
<g id="edge13_Node000001_Node000011" class="edge">
<title>Node1&#45;&gt;Node11</title>
<g id="a_edge13_Node000001_Node000011"><a xlink:title=" ">
<path fill="none" stroke="#63b8ff" d="M851.41,-329.99C836.45,-321.07 818.02,-308.49 804.5,-294 758.9,-245.13 724.49,-172.42 710.01,-138.78"/>
<polygon fill="#63b8ff" stroke="#63b8ff" points="713.13,-137.17 706.02,-129.31 706.68,-139.89 713.13,-137.17"/>
</a>
</g>
</g>
<!-- Node17 -->
<g id="Node000017" class="node">
<title>Node17</title>
<g id="a_Node000017"><a xlink:href="QGCApplication_8h.html" target="_top" xlink:title=" ">
<polygon fill="white" stroke="#666666" points="1290.5,-294 1188.5,-294 1188.5,-275 1290.5,-275 1290.5,-294"/>
<text text-anchor="middle" x="1239.5" y="-282" font-family="Helvetica,sans-Serif" font-size="10.00">QGCApplication.h</text>
</a>
</g>
</g>
<!-- Node1&#45;&gt;Node17 -->
<g id="edge23_Node000001_Node000017" class="edge">
<title>Node1&#45;&gt;Node17</title>
<g id="a_edge23_Node000001_Node000017"><a xlink:title=" ">
<path fill="none" stroke="#63b8ff" d="M964.21,-329.99C1030.35,-319.3 1119.8,-304.84 1178.53,-295.35"/>
<polygon fill="#63b8ff" stroke="#63b8ff" points="1179.1,-298.81 1188.41,-293.76 1177.98,-291.9 1179.1,-298.81"/>
</a>
</g>
</g>
<!-- Node24 -->
<g id="Node000024" class="node">
<title>Node24</title>
<g id="a_Node000024"><a xlink:href="QGCLoggingCategory_8h.html" target="_top" xlink:title=" ">
<polygon fill="white" stroke="#666666" points="941.5,-294 813.5,-294 813.5,-275 941.5,-275 941.5,-294"/>
<text text-anchor="middle" x="877.5" y="-282" font-family="Helvetica,sans-Serif" font-size="10.00">QGCLoggingCategory.h</text>
</a>
</g>
</g>
<!-- Node1&#45;&gt;Node24 -->
<g id="edge31_Node000001_Node000024" class="edge">
<title>Node1&#45;&gt;Node24</title>
<g id="a_edge31_Node000001_Node000024"><a xlink:title=" ">
<path fill="none" stroke="#63b8ff" d="M877.5,-329.84C877.5,-322.21 877.5,-312.7 877.5,-304.45"/>
<polygon fill="#63b8ff" stroke="#63b8ff" points="881,-304.27 877.5,-294.27 874,-304.27 881,-304.27"/>
</a>
</g>
</g>
<!-- Node30 -->
<g id="Node000030" class="node">
<title>Node30</title>
<g id="a_Node000030"><a xlink:title=" ">
<polygon fill="#e0e0e0" stroke="#999999" points="1428.5,-294 1308.5,-294 1308.5,-275 1428.5,-275 1428.5,-294"/>
<text text-anchor="middle" x="1368.5" y="-282" font-family="Helvetica,sans-Serif" font-size="10.00">QtCharts/QLineSeries</text>
</a>
</g>
</g>
<!-- Node1&#45;&gt;Node30 -->
<g id="edge43_Node000001_Node000030" class="edge">
<title>Node1&#45;&gt;Node30</title>
<g id="a_edge43_Node000001_Node000030"><a xlink:title=" ">
<path fill="none" stroke="#63b8ff" d="M970.13,-333.15C1053.3,-323.38 1179.05,-308.53 1298.25,-294.15"/>
<polygon fill="#63b8ff" stroke="#63b8ff" points="1298.78,-297.61 1308.29,-292.93 1297.94,-290.66 1298.78,-297.61"/>
</a>
</g>
</g>
<!-- Node31 -->
<g id="Node000031" class="node">
<title>Node31</title>
<g id="a_Node000031"><a xlink:title=" ">
<polygon fill="#e0e0e0" stroke="#999999" points="1586.5,-294 1446.5,-294 1446.5,-275 1586.5,-275 1586.5,-294"/>
<text text-anchor="middle" x="1516.5" y="-282" font-family="Helvetica,sans-Serif" font-size="10.00">QtCharts/QAbstractSeries</text>
</a>
</g>
</g>
<!-- Node1&#45;&gt;Node31 -->
<g id="edge44_Node000001_Node000031" class="edge">
<title>Node1&#45;&gt;Node31</title>
<g id="a_edge44_Node000001_Node000031"><a xlink:title=" ">
<path fill="none" stroke="#63b8ff" d="M970.2,-336.24C1079.13,-327.01 1265.63,-310.83 1436.13,-294.12"/>
<polygon fill="#63b8ff" stroke="#63b8ff" points="1436.69,-297.58 1446.3,-293.12 1436,-290.62 1436.69,-297.58"/>
</a>
</g>
</g>
<!-- Node3 -->
<g id="Node000003" class="node">
<title>Node3</title>
<g id="a_Node000003"><a xlink:title=" ">
<polygon fill="#e0e0e0" stroke="#999999" points="1037,-74 894,-74 894,-55 1037,-55 1037,-74"/>
<text text-anchor="middle" x="965.5" y="-62" font-family="Helvetica,sans-Serif" font-size="10.00">QtCore/QLoggingCategory</text>
</a>
</g>
</g>
<!-- Node2&#45;&gt;Node3 -->
<g id="edge2_Node000002_Node000003" class="edge">
<title>Node2&#45;&gt;Node3</title>
<g id="a_edge2_Node000002_Node000003"><a xlink:title=" ">
<path fill="none" stroke="#63b8ff" d="M626.41,-109.98C698.45,-100.53 814.55,-85.3 890.45,-75.35"/>
<polygon fill="#63b8ff" stroke="#63b8ff" points="890.96,-78.81 900.42,-74.04 890.05,-71.87 890.96,-78.81"/>
</a>
</g>
</g>
<!-- Node4 -->
<g id="Node000004" class="node">
<title>Node4</title>
<g id="a_Node000004"><a xlink:title=" ">
<polygon fill="#e0e0e0" stroke="#999999" points="350.5,-74 258.5,-74 258.5,-55 350.5,-55 350.5,-74"/>
<text text-anchor="middle" x="304.5" y="-62" font-family="Helvetica,sans-Serif" font-size="10.00">QtCore/QObject</text>
</a>
</g>
</g>
<!-- Node2&#45;&gt;Node4 -->
<g id="edge3_Node000002_Node000004" class="edge">
<title>Node2&#45;&gt;Node4</title>
<g id="a_edge3_Node000002_Node000004"><a xlink:title=" ">
<path fill="none" stroke="#63b8ff" d="M520.21,-109.98C475.57,-100.78 404.34,-86.09 356.05,-76.13"/>
<polygon fill="#63b8ff" stroke="#63b8ff" points="356.62,-72.67 346.12,-74.08 355.2,-79.53 356.62,-72.67"/>
</a>
</g>
</g>
<!-- Node5 -->
<g id="Node000005" class="node">
<title>Node5</title>
<g id="a_Node000005"><a xlink:title=" ">
<polygon fill="#e0e0e0" stroke="#999999" points="460.5,-74 368.5,-74 368.5,-55 460.5,-55 460.5,-74"/>
<text text-anchor="middle" x="414.5" y="-62" font-family="Helvetica,sans-Serif" font-size="10.00">QtCore/QPointF</text>
</a>
</g>
</g>
<!-- Node2&#45;&gt;Node5 -->
<g id="edge4_Node000002_Node000005" class="edge">
<title>Node2&#45;&gt;Node5</title>
<g id="a_edge4_Node000002_Node000005"><a xlink:title=" ">
<path fill="none" stroke="#63b8ff" d="M537.88,-109.98C513.6,-101.23 475.55,-87.51 448.13,-77.62"/>
<polygon fill="#63b8ff" stroke="#63b8ff" points="449.14,-74.27 438.55,-74.17 446.77,-80.85 449.14,-74.27"/>
</a>
</g>
</g>
<!-- Node6 -->
<g id="Node000006" class="node">
<title>Node6</title>
<g id="a_Node000006"><a xlink:title=" ">
<polygon fill="#e0e0e0" stroke="#999999" points="775,-74 686,-74 686,-55 775,-55 775,-74"/>
<text text-anchor="middle" x="730.5" y="-62" font-family="Helvetica,sans-Serif" font-size="10.00">QtCore/QString</text>
</a>
</g>
</g>
<!-- Node2&#45;&gt;Node6 -->
<g id="edge5_Node000002_Node000006" class="edge">
<title>Node2&#45;&gt;Node6</title>
<g id="a_edge5_Node000002_Node000006"><a xlink:title=" ">
<path fill="none" stroke="#63b8ff" d="M588.65,-109.98C617.03,-101.09 661.73,-87.07 693.36,-77.15"/>
<polygon fill="#63b8ff" stroke="#63b8ff" points="694.64,-80.41 703.13,-74.08 692.55,-73.73 694.64,-80.41"/>
</a>
</g>
</g>
<!-- Node7 -->
<g id="Node000007" class="node">
<title>Node7</title>
<g id="a_Node000007"><a xlink:title=" ">
<polygon fill="#e0e0e0" stroke="#999999" points="668,-74 479,-74 479,-55 668,-55 668,-74"/>
<text text-anchor="middle" x="573.5" y="-62" font-family="Helvetica,sans-Serif" font-size="10.00">QtQmlIntegration/QtQmlIntegration</text>
</a>
</g>
</g>
<!-- Node2&#45;&gt;Node7 -->
<g id="edge6_Node000002_Node000007" class="edge">
<title>Node2&#45;&gt;Node7</title>
<g id="a_edge6_Node000002_Node000007"><a xlink:title=" ">
<path fill="none" stroke="#63b8ff" d="M563.48,-109.75C565.07,-102.72 567.36,-92.62 569.35,-83.84"/>
<polygon fill="#63b8ff" stroke="#63b8ff" points="572.76,-84.62 571.56,-74.09 565.93,-83.07 572.76,-84.62"/>
</a>
</g>
</g>
<!-- Node8&#45;&gt;Node3 -->
<g id="edge9_Node000008_Node000003" class="edge">
<title>Node8&#45;&gt;Node3</title>
<g id="a_edge9_Node000008_Node000003"><a xlink:title=" ">
<path fill="none" stroke="#63b8ff" d="M412.27,-113.22C514.03,-105.51 707.86,-90.39 883.99,-74.03"/>
<polygon fill="#63b8ff" stroke="#63b8ff" points="884.32,-77.51 893.96,-73.1 883.67,-70.54 884.32,-77.51"/>
</a>
</g>
</g>
<!-- Node8&#45;&gt;Node4 -->
<g id="edge10_Node000008_Node000004" class="edge">
<title>Node8&#45;&gt;Node4</title>
<g id="a_edge10_Node000008_Node000004"><a xlink:title=" ">
<path fill="none" stroke="#63b8ff" d="M335.39,-109.75C330.22,-102.34 322.65,-91.5 316.31,-82.41"/>
<polygon fill="#63b8ff" stroke="#63b8ff" points="319.09,-80.29 310.5,-74.09 313.35,-84.29 319.09,-80.29"/>
</a>
</g>
</g>
<!-- Node8&#45;&gt;Node7 -->
<g id="edge12_Node000008_Node000007" class="edge">
<title>Node8&#45;&gt;Node7</title>
<g id="a_edge12_Node000008_Node000007"><a xlink:title=" ">
<path fill="none" stroke="#63b8ff" d="M378.77,-109.98C418.82,-100.84 482.57,-86.27 526.14,-76.32"/>
<polygon fill="#63b8ff" stroke="#63b8ff" points="526.96,-79.72 535.93,-74.08 525.4,-72.9 526.96,-79.72"/>
</a>
</g>
</g>
<!-- Node9 -->
<g id="Node000009" class="node">
<title>Node9</title>
<g id="a_Node000009"><a xlink:title=" ">
<polygon fill="#e0e0e0" stroke="#999999" points="109,-74 0,-74 0,-55 109,-55 109,-74"/>
<text text-anchor="middle" x="54.5" y="-62" font-family="Helvetica,sans-Serif" font-size="10.00">QtCore/QDateTime</text>
</a>
</g>
</g>
<!-- Node8&#45;&gt;Node9 -->
<g id="edge8_Node000008_Node000009" class="edge">
<title>Node8&#45;&gt;Node9</title>
<g id="a_edge8_Node000008_Node000009"><a xlink:title=" ">
<path fill="none" stroke="#63b8ff" d="M295.39,-109.98C245.22,-100.72 164.99,-85.9 111.06,-75.94"/>
<polygon fill="#63b8ff" stroke="#63b8ff" points="111.44,-72.46 100.97,-74.08 110.17,-79.34 111.44,-72.46"/>
</a>
</g>
</g>
<!-- Node10 -->
<g id="Node000010" class="node">
<title>Node10</title>
<g id="a_Node000010"><a xlink:title=" ">
<polygon fill="#e0e0e0" stroke="#999999" points="240,-74 127,-74 127,-55 240,-55 240,-74"/>
<text text-anchor="middle" x="183.5" y="-62" font-family="Helvetica,sans-Serif" font-size="10.00">QtCore/QVariantList</text>
</a>
</g>
</g>
<!-- Node8&#45;&gt;Node10 -->
<g id="edge11_Node000008_Node000010" class="edge">
<title>Node8&#45;&gt;Node10</title>
<g id="a_edge11_Node000008_Node000010"><a xlink:title=" ">
<path fill="none" stroke="#63b8ff" d="M316.11,-109.98C289.7,-101.13 248.15,-87.19 218.61,-77.28"/>
<polygon fill="#63b8ff" stroke="#63b8ff" points="219.68,-73.94 209.08,-74.08 217.45,-80.58 219.68,-73.94"/>
</a>
</g>
</g>
<!-- Node11&#45;&gt;Node3 -->
<g id="edge16_Node000011_Node000003" class="edge">
<title>Node11&#45;&gt;Node3</title>
<g id="a_edge16_Node000011_Node000003"><a xlink:title=" ">
<path fill="none" stroke="#63b8ff" d="M744.76,-109.98C790.54,-100.76 863.64,-86.03 913.05,-76.07"/>
<polygon fill="#63b8ff" stroke="#63b8ff" points="913.8,-79.49 922.91,-74.08 912.42,-72.63 913.8,-79.49"/>
</a>
</g>
</g>
<!-- Node11&#45;&gt;Node4 -->
<g id="edge14_Node000011_Node000004" class="edge">
<title>Node11&#45;&gt;Node4</title>
<g id="a_edge14_Node000011_Node000004"><a xlink:title=" ">
<path fill="none" stroke="#63b8ff" d="M646.83,-111.22C643.67,-110.8 640.55,-110.4 637.5,-110 517.21,-94.35 484.55,-91.65 360.95,-74.18"/>
<polygon fill="#63b8ff" stroke="#63b8ff" points="361.09,-70.66 350.7,-72.72 360.11,-77.59 361.09,-70.66"/>
</a>
</g>
</g>
<!-- Node11&#45;&gt;Node6 -->
<g id="edge15_Node000011_Node000006" class="edge">
<title>Node11&#45;&gt;Node6</title>
<g id="a_edge15_Node000011_Node000006"><a xlink:title=" ">
<path fill="none" stroke="#63b8ff" d="M707.12,-109.75C710.96,-102.49 716.52,-91.95 721.26,-82.98"/>
<polygon fill="#63b8ff" stroke="#63b8ff" points="724.39,-84.57 725.96,-74.09 718.2,-81.3 724.39,-84.57"/>
</a>
</g>
</g>
<!-- Node11&#45;&gt;Node7 -->
<g id="edge17_Node000011_Node000007" class="edge">
<title>Node11&#45;&gt;Node7</title>
<g id="a_edge17_Node000011_Node000007"><a xlink:title=" ">
<path fill="none" stroke="#63b8ff" d="M681.77,-109.98C660.74,-101.34 627.95,-87.87 603.96,-78.02"/>
<polygon fill="#63b8ff" stroke="#63b8ff" points="605.18,-74.73 594.6,-74.17 602.52,-81.21 605.18,-74.73"/>
</a>
</g>
</g>
<!-- Node12 -->
<g id="Node000012" class="node">
<title>Node12</title>
<g id="a_Node000012"><a xlink:href="MAVLinkLib_8h.html" target="_top" xlink:title=" ">
<polygon fill="white" stroke="#666666" points="875.5,-74 793.5,-74 793.5,-55 875.5,-55 875.5,-74"/>
<text text-anchor="middle" x="834.5" y="-62" font-family="Helvetica,sans-Serif" font-size="10.00">MAVLinkLib.h</text>
</a>
</g>
</g>
<!-- Node11&#45;&gt;Node12 -->
<g id="edge18_Node000011_Node000012" class="edge">
<title>Node11&#45;&gt;Node12</title>
<g id="a_edge18_Node000011_Node000012"><a xlink:title=" ">
<path fill="none" stroke="#63b8ff" d="M723.71,-109.98C745.23,-101.34 778.78,-87.87 803.33,-78.02"/>
<polygon fill="#63b8ff" stroke="#63b8ff" points="804.93,-81.14 812.91,-74.17 802.32,-74.65 804.93,-81.14"/>
</a>
</g>
</g>
<!-- Node13 -->
<g id="Node000013" class="node">
<title>Node13</title>
<g id="a_Node000013"><a xlink:title=" ">
<polygon fill="#e0e0e0" stroke="#999999" points="719,-19 666,-19 666,0 719,0 719,-19"/>
<text text-anchor="middle" x="692.5" y="-7" font-family="Helvetica,sans-Serif" font-size="10.00">stdint.h</text>
</a>
</g>
</g>
<!-- Node12&#45;&gt;Node13 -->
<g id="edge19_Node000012_Node000013" class="edge">
<title>Node12&#45;&gt;Node13</title>
<g id="a_edge19_Node000012_Node000013"><a xlink:title=" ">
<path fill="none" stroke="#63b8ff" d="M811.69,-54.98C788.33,-46.27 751.8,-32.63 725.33,-22.75"/>
<polygon fill="#63b8ff" stroke="#63b8ff" points="726.32,-19.39 715.73,-19.17 723.87,-25.95 726.32,-19.39"/>
</a>
</g>
</g>
<!-- Node14 -->
<g id="Node000014" class="node">
<title>Node14</title>
<g id="a_Node000014"><a xlink:title=" ">
<polygon fill="#e0e0e0" stroke="#999999" points="835.5,-19 737.5,-19 737.5,0 835.5,0 835.5,-19"/>
<text text-anchor="middle" x="786.5" y="-7" font-family="Helvetica,sans-Serif" font-size="10.00">mavlink_types.h</text>
</a>
</g>
</g>
<!-- Node12&#45;&gt;Node14 -->
<g id="edge20_Node000012_Node000014" class="edge">
<title>Node12&#45;&gt;Node14</title>
<g id="a_edge20_Node000012_Node000014"><a xlink:title=" ">
<path fill="none" stroke="#63b8ff" d="M826.57,-54.75C819.65,-47.11 809.43,-35.82 801.05,-26.56"/>
<polygon fill="#63b8ff" stroke="#63b8ff" points="803.59,-24.15 794.28,-19.09 798.4,-28.85 803.59,-24.15"/>
</a>
</g>
</g>
<!-- Node15 -->
<g id="Node000015" class="node">
<title>Node15</title>
<g id="a_Node000015"><a xlink:title=" ">
<polygon fill="#e0e0e0" stroke="#999999" points="909.5,-19 853.5,-19 853.5,0 909.5,0 909.5,-19"/>
<text text-anchor="middle" x="881.5" y="-7" font-family="Helvetica,sans-Serif" font-size="10.00">stddef.h</text>
</a>
</g>
</g>
<!-- Node12&#45;&gt;Node15 -->
<g id="edge21_Node000012_Node000015" class="edge">
<title>Node12&#45;&gt;Node15</title>
<g id="a_edge21_Node000012_Node000015"><a xlink:title=" ">
<path fill="none" stroke="#63b8ff" d="M842.26,-54.75C848.97,-47.18 858.84,-36.05 867.01,-26.84"/>
<polygon fill="#63b8ff" stroke="#63b8ff" points="869.87,-28.89 873.88,-19.09 864.63,-24.25 869.87,-28.89"/>
</a>
</g>
</g>
<!-- Node16 -->
<g id="Node000016" class="node">
<title>Node16</title>
<g id="a_Node000016"><a xlink:title=" ">
<polygon fill="#e0e0e0" stroke="#999999" points="993,-19 928,-19 928,0 993,0 993,-19"/>
<text text-anchor="middle" x="960.5" y="-7" font-family="Helvetica,sans-Serif" font-size="10.00">mavlink.h</text>
</a>
</g>
</g>
<!-- Node12&#45;&gt;Node16 -->
<g id="edge22_Node000012_Node000016" class="edge">
<title>Node12&#45;&gt;Node16</title>
<g id="a_edge22_Node000012_Node000016"><a xlink:title=" ">
<path fill="none" stroke="#63b8ff" d="M854.74,-54.98C875.2,-46.38 907.03,-32.99 930.43,-23.15"/>
<polygon fill="#63b8ff" stroke="#63b8ff" points="932.03,-26.27 939.89,-19.17 929.31,-19.82 932.03,-26.27"/>
</a>
</g>
</g>
<!-- Node17&#45;&gt;Node3 -->
<g id="edge24_Node000017_Node000003" class="edge">
<title>Node17&#45;&gt;Node3</title>
<g id="a_edge24_Node000017_Node000003"><a xlink:title=" ">
<path fill="none" stroke="#63b8ff" d="M1231.43,-274.9C1219.47,-262.32 1196.12,-238.41 1174.5,-220 1109.29,-164.5 1025.9,-106.37 987.13,-80.02"/>
<polygon fill="#63b8ff" stroke="#63b8ff" points="988.94,-77.02 978.69,-74.31 985.01,-82.82 988.94,-77.02"/>
</a>
</g>
</g>
<!-- Node18 -->
<g id="Node000018" class="node">
<title>Node18</title>
<g id="a_Node000018"><a xlink:title=" ">
<polygon fill="#e0e0e0" stroke="#999999" points="1349.5,-239 1221.5,-239 1221.5,-220 1349.5,-220 1349.5,-239"/>
<text text-anchor="middle" x="1285.5" y="-227" font-family="Helvetica,sans-Serif" font-size="10.00">QtCore/QElapsedTimer</text>
</a>
</g>
</g>
<!-- Node17&#45;&gt;Node18 -->
<g id="edge25_Node000017_Node000018" class="edge">
<title>Node17&#45;&gt;Node18</title>
<g id="a_edge25_Node000017_Node000018"><a xlink:title=" ">
<path fill="none" stroke="#63b8ff" d="M1247.1,-274.75C1253.66,-267.18 1263.32,-256.05 1271.31,-246.84"/>
<polygon fill="#63b8ff" stroke="#63b8ff" points="1274.13,-248.94 1278.05,-239.09 1268.85,-244.35 1274.13,-248.94"/>
</a>
</g>
</g>
<!-- Node19 -->
<g id="Node000019" class="node">
<title>Node19</title>
<g id="a_Node000019"><a xlink:title=" ">
<polygon fill="#e0e0e0" stroke="#999999" points="1165.5,-239 1083.5,-239 1083.5,-220 1165.5,-220 1165.5,-239"/>
<text text-anchor="middle" x="1124.5" y="-227" font-family="Helvetica,sans-Serif" font-size="10.00">QtCore/QMap</text>
</a>
</g>
</g>
<!-- Node17&#45;&gt;Node19 -->
<g id="edge26_Node000017_Node000019" class="edge">
<title>Node17&#45;&gt;Node19</title>
<g id="a_edge26_Node000017_Node000019"><a xlink:title=" ">
<path fill="none" stroke="#63b8ff" d="M1221.02,-274.98C1202.52,-266.46 1173.82,-253.23 1152.52,-243.41"/>
<polygon fill="#63b8ff" stroke="#63b8ff" points="1153.86,-240.18 1143.31,-239.17 1150.93,-246.53 1153.86,-240.18"/>
</a>
</g>
</g>
<!-- Node20 -->
<g id="Node000020" class="node">
<title>Node20</title>
<g id="a_Node000020"><a xlink:title=" ">
<polygon fill="#e0e0e0" stroke="#999999" points="1445,-239 1368,-239 1368,-220 1445,-220 1445,-239"/>
<text text-anchor="middle" x="1406.5" y="-227" font-family="Helvetica,sans-Serif" font-size="10.00">QtCore/QSet</text>
</a>
</g>
</g>
<!-- Node17&#45;&gt;Node20 -->
<g id="edge27_Node000017_Node000020" class="edge">
<title>Node17&#45;&gt;Node20</title>
<g id="a_edge27_Node000017_Node000020"><a xlink:title=" ">
<path fill="none" stroke="#63b8ff" d="M1266.33,-274.98C1294.37,-266.09 1338.55,-252.07 1369.8,-242.15"/>
<polygon fill="#63b8ff" stroke="#63b8ff" points="1370.99,-245.44 1379.46,-239.08 1368.87,-238.77 1370.99,-245.44"/>
</a>
</g>
</g>
<!-- Node21 -->
<g id="Node000021" class="node">
<title>Node21</title>
<g id="a_Node000021"><a xlink:title=" ">
<polygon fill="#e0e0e0" stroke="#999999" points="1552,-239 1463,-239 1463,-220 1552,-220 1552,-239"/>
<text text-anchor="middle" x="1507.5" y="-227" font-family="Helvetica,sans-Serif" font-size="10.00">QtCore/QTimer</text>
</a>
</g>
</g>
<!-- Node17&#45;&gt;Node21 -->
<g id="edge28_Node000017_Node000021" class="edge">
<title>Node17&#45;&gt;Node21</title>
<g id="a_edge28_Node000017_Node000021"><a xlink:title=" ">
<path fill="none" stroke="#63b8ff" d="M1282.56,-274.98C1329.21,-265.76 1403.7,-251.03 1454.06,-241.07"/>
<polygon fill="#63b8ff" stroke="#63b8ff" points="1454.97,-244.46 1464.1,-239.08 1453.61,-237.59 1454.97,-244.46"/>
</a>
</g>
</g>
<!-- Node22 -->
<g id="Node000022" class="node">
<title>Node22</title>
<g id="a_Node000022"><a xlink:title=" ">
<polygon fill="#e0e0e0" stroke="#999999" points="1679,-239 1570,-239 1570,-220 1679,-220 1679,-239"/>
<text text-anchor="middle" x="1624.5" y="-227" font-family="Helvetica,sans-Serif" font-size="10.00">QtCore/QTranslator</text>
</a>
</g>
</g>
<!-- Node17&#45;&gt;Node22 -->
<g id="edge29_Node000017_Node000022" class="edge">
<title>Node17&#45;&gt;Node22</title>
<g id="a_edge29_Node000017_Node000022"><a xlink:title=" ">
<path fill="none" stroke="#63b8ff" d="M1290.56,-276.25C1293.59,-275.83 1296.58,-275.41 1299.5,-275 1389.72,-262.43 1494.07,-248.2 1559.67,-239.29"/>
<polygon fill="#63b8ff" stroke="#63b8ff" points="1560.42,-242.72 1569.86,-237.9 1559.48,-235.78 1560.42,-242.72"/>
</a>
</g>
</g>
<!-- Node23 -->
<g id="Node000023" class="node">
<title>Node23</title>
<g id="a_Node000023"><a xlink:title=" ">
<polygon fill="#e0e0e0" stroke="#999999" points="1830,-239 1697,-239 1697,-220 1830,-220 1830,-239"/>
<text text-anchor="middle" x="1763.5" y="-227" font-family="Helvetica,sans-Serif" font-size="10.00">QtWidgets/QApplication</text>
</a>
</g>
</g>
<!-- Node17&#45;&gt;Node23 -->
<g id="edge30_Node000017_Node000023" class="edge">
<title>Node17&#45;&gt;Node23</title>
<g id="a_edge30_Node000017_Node000023"><a xlink:title=" ">
<path fill="none" stroke="#63b8ff" d="M1290.54,-276.1C1293.57,-275.71 1296.57,-275.34 1299.5,-275 1468.67,-255.2 1514.07,-256.71 1686.65,-239.17"/>
<polygon fill="#63b8ff" stroke="#63b8ff" points="1687.26,-242.63 1696.85,-238.13 1686.55,-235.66 1687.26,-242.63"/>
</a>
</g>
</g>
<!-- Node24&#45;&gt;Node3 -->
<g id="edge39_Node000024_Node000003" class="edge">
<title>Node24&#45;&gt;Node3</title>
<g id="a_edge39_Node000024_Node000003"><a xlink:title=" ">
<path fill="none" stroke="#63b8ff" d="M852.05,-274.87C835.88,-267.92 816.23,-256.39 806.5,-239 778.51,-188.96 770.81,-155.65 805.5,-110 817.07,-94.77 859.61,-83.38 897.91,-75.93"/>
<polygon fill="#63b8ff" stroke="#63b8ff" points="898.87,-79.31 908.06,-74.03 897.58,-72.43 898.87,-79.31"/>
</a>
</g>
</g>
<!-- Node24&#45;&gt;Node4 -->
<g id="edge40_Node000024_Node000004" class="edge">
<title>Node24&#45;&gt;Node4</title>
<g id="a_edge40_Node000024_Node000004"><a xlink:title=" ">
<path fill="none" stroke="#63b8ff" d="M855.04,-274.95C766.43,-241.24 440.9,-117.4 336.77,-77.78"/>
<polygon fill="#63b8ff" stroke="#63b8ff" points="337.71,-74.39 327.12,-74.1 335.22,-80.93 337.71,-74.39"/>
</a>
</g>
</g>
<!-- Node24&#45;&gt;Node19 -->
<g id="edge42_Node000024_Node000019" class="edge">
<title>Node24&#45;&gt;Node19</title>
<g id="a_edge42_Node000024_Node000019"><a xlink:title=" ">
<path fill="none" stroke="#63b8ff" d="M917.18,-274.98C960,-265.8 1028.26,-251.15 1074.66,-241.19"/>
<polygon fill="#63b8ff" stroke="#63b8ff" points="1075.46,-244.6 1084.5,-239.08 1073.99,-237.76 1075.46,-244.6"/>
</a>
</g>
</g>
<!-- Node25 -->
<g id="Node000025" class="node">
<title>Node25</title>
<g id="a_Node000025"><a xlink:href="QmlObjectListModel_8h.html" target="_top" xlink:title=" ">
<polygon fill="white" stroke="#666666" points="940,-239 815,-239 815,-220 940,-220 940,-239"/>
<text text-anchor="middle" x="877.5" y="-227" font-family="Helvetica,sans-Serif" font-size="10.00">QmlObjectListModel.h</text>
</a>
</g>
</g>
<!-- Node24&#45;&gt;Node25 -->
<g id="edge32_Node000024_Node000025" class="edge">
<title>Node24&#45;&gt;Node25</title>
<g id="a_edge32_Node000024_Node000025"><a xlink:title=" ">
<path fill="none" stroke="#63b8ff" d="M877.5,-274.75C877.5,-267.8 877.5,-257.85 877.5,-249.13"/>
<polygon fill="#63b8ff" stroke="#63b8ff" points="881,-249.09 877.5,-239.09 874,-249.09 881,-249.09"/>
</a>
</g>
</g>
<!-- Node29 -->
<g id="Node000029" class="node">
<title>Node29</title>
<g id="a_Node000029"><a xlink:title=" ">
<polygon fill="#e0e0e0" stroke="#999999" points="1065,-239 958,-239 958,-220 1065,-220 1065,-239"/>
<text text-anchor="middle" x="1011.5" y="-227" font-family="Helvetica,sans-Serif" font-size="10.00">QtCore/QStringList</text>
</a>
</g>
</g>
<!-- Node24&#45;&gt;Node29 -->
<g id="edge41_Node000024_Node000029" class="edge">
<title>Node24&#45;&gt;Node29</title>
<g id="a_edge41_Node000024_Node000029"><a xlink:title=" ">
<path fill="none" stroke="#63b8ff" d="M899.03,-274.98C920.97,-266.3 955.24,-252.75 980.19,-242.88"/>
<polygon fill="#63b8ff" stroke="#63b8ff" points="981.57,-246.1 989.58,-239.17 978.99,-239.59 981.57,-246.1"/>
</a>
</g>
</g>
<!-- Node25&#45;&gt;Node3 -->
<g id="edge38_Node000025_Node000003" class="edge">
<title>Node25&#45;&gt;Node3</title>
<g id="a_edge38_Node000025_Node000003"><a xlink:title=" ">
<path fill="none" stroke="#63b8ff" d="M904.53,-219.87C921.51,-212.96 942.26,-201.5 953.5,-184 973.17,-153.37 971.46,-108.83 968.48,-84"/>
<polygon fill="#63b8ff" stroke="#63b8ff" points="971.94,-83.51 967.09,-74.09 965.01,-84.48 971.94,-83.51"/>
</a>
</g>
</g>
<!-- Node26 -->
<g id="Node000026" class="node">
<title>Node26</title>
<g id="a_Node000026"><a xlink:href="ObjectListModelBase_8h.html" target="_top" xlink:title=" ">
<polygon fill="white" stroke="#666666" points="944.5,-184 816.5,-184 816.5,-165 944.5,-165 944.5,-184"/>
<text text-anchor="middle" x="880.5" y="-172" font-family="Helvetica,sans-Serif" font-size="10.00">ObjectListModelBase.h</text>
</a>
</g>
</g>
<!-- Node25&#45;&gt;Node26 -->
<g id="edge33_Node000025_Node000026" class="edge">
<title>Node25&#45;&gt;Node26</title>
<g id="a_edge33_Node000025_Node000026"><a xlink:title=" ">
<path fill="none" stroke="#63b8ff" d="M878,-219.75C878.39,-212.8 878.95,-202.85 879.45,-194.13"/>
<polygon fill="#63b8ff" stroke="#63b8ff" points="882.94,-194.27 880.01,-184.09 875.95,-193.88 882.94,-194.27"/>
</a>
</g>
</g>
<!-- Node27 -->
<g id="Node000027" class="node">
<title>Node27</title>
<g id="a_Node000027"><a xlink:href="ObjectItemModelBase_8h.html" target="_top" xlink:title=" ">
<polygon fill="white" stroke="#666666" points="948.5,-129 814.5,-129 814.5,-110 948.5,-110 948.5,-129"/>
<text text-anchor="middle" x="881.5" y="-117" font-family="Helvetica,sans-Serif" font-size="10.00">ObjectItemModelBase.h</text>
</a>
</g>
</g>
<!-- Node26&#45;&gt;Node27 -->
<g id="edge34_Node000026_Node000027" class="edge">
<title>Node26&#45;&gt;Node27</title>
<g id="a_edge34_Node000026_Node000027"><a xlink:title=" ">
<path fill="none" stroke="#63b8ff" d="M880.67,-164.75C880.8,-157.8 880.98,-147.85 881.15,-139.13"/>
<polygon fill="#63b8ff" stroke="#63b8ff" points="884.65,-139.15 881.34,-129.09 877.65,-139.02 884.65,-139.15"/>
</a>
</g>
</g>
<!-- Node27&#45;&gt;Node3 -->
<g id="edge36_Node000027_Node000003" class="edge">
<title>Node27&#45;&gt;Node3</title>
<g id="a_edge36_Node000027_Node000003"><a xlink:title=" ">
<path fill="none" stroke="#63b8ff" d="M895,-109.98C907.9,-101.84 927.6,-89.41 942.9,-79.76"/>
<polygon fill="#63b8ff" stroke="#63b8ff" points="945.17,-82.47 951.76,-74.17 941.43,-76.55 945.17,-82.47"/>
</a>
</g>
</g>
<!-- Node27&#45;&gt;Node7 -->
<g id="edge37_Node000027_Node000007" class="edge">
<title>Node27&#45;&gt;Node7</title>
<g id="a_edge37_Node000027_Node000007"><a xlink:title=" ">
<path fill="none" stroke="#63b8ff" d="M832.01,-109.98C777.87,-100.67 691.1,-85.74 633.22,-75.78"/>
<polygon fill="#63b8ff" stroke="#63b8ff" points="633.57,-72.28 623.12,-74.04 632.38,-79.18 633.57,-72.28"/>
</a>
</g>
</g>
<!-- Node28 -->
<g id="Node000028" class="node">
<title>Node28</title>
<g id="a_Node000028"><a xlink:title=" ">
<polygon fill="#e0e0e0" stroke="#999999" points="1209.5,-74 1055.5,-74 1055.5,-55 1209.5,-55 1209.5,-74"/>
<text text-anchor="middle" x="1132.5" y="-62" font-family="Helvetica,sans-Serif" font-size="10.00">QtCore/QAbstractItemModel</text>
</a>
</g>
</g>
<!-- Node27&#45;&gt;Node28 -->
<g id="edge35_Node000027_Node000028" class="edge">
<title>Node27&#45;&gt;Node28</title>
<g id="a_edge35_Node000027_Node000028"><a xlink:title=" ">
<path fill="none" stroke="#63b8ff" d="M921.83,-109.98C965.34,-100.8 1034.7,-86.15 1081.85,-76.19"/>
<polygon fill="#63b8ff" stroke="#63b8ff" points="1082.8,-79.57 1091.86,-74.08 1081.35,-72.72 1082.8,-79.57"/>
</a>
</g>
</g>
</g>
</svg>
