<?xml version="1.0" encoding="UTF-8" standalone="no"?>
<!DOCTYPE svg PUBLIC "-//W3C//DTD SVG 1.1//EN"
 "http://www.w3.org/Graphics/SVG/1.1/DTD/svg11.dtd">
<!-- Generated by graphviz version 2.43.0 (0)
 -->
<!-- Title: src/AnalyzeView/MAVLinkInspector/MAVLinkMessage.h Pages: 1 -->
<svg width="810pt" height="104pt"
 viewBox="0.00 0.00 810.00 104.00" xmlns="http://www.w3.org/2000/svg" xmlns:xlink="http://www.w3.org/1999/xlink">
<g id="graph0" class="graph" transform="scale(1 1) rotate(0) translate(4 100)">
<title>src/AnalyzeView/MAVLinkInspector/MAVLinkMessage.h</title>
<!-- Node1 -->
<g id="Node000001" class="node">
<title>Node1</title>
<g id="a_Node000001"><a xlink:title=" ">
<polygon fill="#999999" stroke="#666666" points="494,-96 307,-96 307,-66 494,-66 494,-96"/>
<text text-anchor="start" x="315" y="-84" font-family="Helvetica,sans-Serif" font-size="10.00">src/AnalyzeView/MAVLinkInspector</text>
<text text-anchor="middle" x="400.5" y="-73" font-family="Helvetica,sans-Serif" font-size="10.00">/MAVLinkMessage.h</text>
</a>
</g>
</g>
<!-- Node2 -->
<g id="Node000002" class="node">
<title>Node2</title>
<g id="a_Node000002"><a xlink:href="MAVLinkInspectorController_8cc.html" target="_top" xlink:title=" ">
<polygon fill="white" stroke="#666666" points="187,-30 0,-30 0,0 187,0 187,-30"/>
<text text-anchor="start" x="8" y="-18" font-family="Helvetica,sans-Serif" font-size="10.00">src/AnalyzeView/MAVLinkInspector</text>
<text text-anchor="middle" x="93.5" y="-7" font-family="Helvetica,sans-Serif" font-size="10.00">/MAVLinkInspectorController.cc</text>
</a>
</g>
</g>
<!-- Node1&#45;&gt;Node2 -->
<g id="edge1_Node000001_Node000002" class="edge">
<title>Node1&#45;&gt;Node2</title>
<g id="a_edge1_Node000001_Node000002"><a xlink:title=" ">
<path fill="none" stroke="#63b8ff" d="M323.32,-63.91C273.26,-53.47 208.67,-40.01 160.72,-30.01"/>
<polygon fill="#63b8ff" stroke="#63b8ff" points="322.62,-67.34 333.13,-65.95 324.05,-60.49 322.62,-67.34"/>
</a>
</g>
</g>
<!-- Node3 -->
<g id="Node000003" class="node">
<title>Node3</title>
<g id="a_Node000003"><a xlink:href="MAVLinkMessage_8cc.html" target="_top" xlink:title=" ">
<polygon fill="white" stroke="#666666" points="392,-30 205,-30 205,0 392,0 392,-30"/>
<text text-anchor="start" x="213" y="-18" font-family="Helvetica,sans-Serif" font-size="10.00">src/AnalyzeView/MAVLinkInspector</text>
<text text-anchor="middle" x="298.5" y="-7" font-family="Helvetica,sans-Serif" font-size="10.00">/MAVLinkMessage.cc</text>
</a>
</g>
</g>
<!-- Node1&#45;&gt;Node3 -->
<g id="edge2_Node000001_Node000003" class="edge">
<title>Node1&#45;&gt;Node3</title>
<g id="a_edge2_Node000001_Node000003"><a xlink:title=" ">
<path fill="none" stroke="#63b8ff" d="M369.29,-60.42C353.64,-50.6 335.04,-38.93 320.83,-30.01"/>
<polygon fill="#63b8ff" stroke="#63b8ff" points="367.78,-63.6 378.12,-65.95 371.51,-57.68 367.78,-63.6"/>
</a>
</g>
</g>
<!-- Node4 -->
<g id="Node000004" class="node">
<title>Node4</title>
<g id="a_Node000004"><a xlink:href="MAVLinkMessageField_8cc.html" target="_top" xlink:title=" ">
<polygon fill="white" stroke="#666666" points="597,-30 410,-30 410,0 597,0 597,-30"/>
<text text-anchor="start" x="418" y="-18" font-family="Helvetica,sans-Serif" font-size="10.00">src/AnalyzeView/MAVLinkInspector</text>
<text text-anchor="middle" x="503.5" y="-7" font-family="Helvetica,sans-Serif" font-size="10.00">/MAVLinkMessageField.cc</text>
</a>
</g>
</g>
<!-- Node1&#45;&gt;Node4 -->
<g id="edge3_Node000001_Node000004" class="edge">
<title>Node1&#45;&gt;Node4</title>
<g id="a_edge3_Node000001_Node000004"><a xlink:title=" ">
<path fill="none" stroke="#63b8ff" d="M432.01,-60.42C447.82,-50.6 466.6,-38.93 480.95,-30.01"/>
<polygon fill="#63b8ff" stroke="#63b8ff" points="429.75,-57.7 423.1,-65.95 433.44,-63.65 429.75,-57.7"/>
</a>
</g>
</g>
<!-- Node5 -->
<g id="Node000005" class="node">
<title>Node5</title>
<g id="a_Node000005"><a xlink:href="MAVLinkSystem_8cc.html" target="_top" xlink:title=" ">
<polygon fill="white" stroke="#666666" points="802,-30 615,-30 615,0 802,0 802,-30"/>
<text text-anchor="start" x="623" y="-18" font-family="Helvetica,sans-Serif" font-size="10.00">src/AnalyzeView/MAVLinkInspector</text>
<text text-anchor="middle" x="708.5" y="-7" font-family="Helvetica,sans-Serif" font-size="10.00">/MAVLinkSystem.cc</text>
</a>
</g>
</g>
<!-- Node1&#45;&gt;Node5 -->
<g id="edge4_Node000001_Node000005" class="edge">
<title>Node1&#45;&gt;Node5</title>
<g id="a_edge4_Node000001_Node000005"><a xlink:title=" ">
<path fill="none" stroke="#63b8ff" d="M477.93,-63.91C528.16,-53.47 592.96,-40.01 641.07,-30.01"/>
<polygon fill="#63b8ff" stroke="#63b8ff" points="477.17,-60.49 468.09,-65.95 478.59,-67.35 477.17,-60.49"/>
</a>
</g>
</g>
</g>
</svg>
