<?xml version="1.0" encoding="UTF-8" standalone="no"?>
<!DOCTYPE svg PUBLIC "-//W3C//DTD SVG 1.1//EN"
 "http://www.w3.org/Graphics/SVG/1.1/DTD/svg11.dtd">
<!-- Generated by graphviz version 2.43.0 (0)
 -->
<!-- Title: src/Comms/MAVLinkProtocol.cc Pages: 1 -->
<svg width="3065pt" height="247pt"
 viewBox="0.00 0.00 3064.78 247.00" xmlns="http://www.w3.org/2000/svg" xmlns:xlink="http://www.w3.org/1999/xlink">
<g id="graph0" class="graph" transform="scale(1 1) rotate(0) translate(4 243)">
<title>src/Comms/MAVLinkProtocol.cc</title>
<!-- Node1 -->
<g id="Node000001" class="node">
<title>Node1</title>
<g id="a_Node000001"><a xlink:title=" ">
<polygon fill="#999999" stroke="#666666" points="1979.28,-239 1809.28,-239 1809.28,-220 1979.28,-220 1979.28,-239"/>
<text text-anchor="middle" x="1894.28" y="-227" font-family="Helvetica,sans-Serif" font-size="10.00">src/Comms/MAVLinkProtocol.cc</text>
</a>
</g>
</g>
<!-- Node2 -->
<g id="Node000002" class="node">
<title>Node2</title>
<g id="a_Node000002"><a xlink:href="MAVLinkProtocol_8h.html" target="_top" xlink:title=" ">
<polygon fill="white" stroke="#666666" points="1325.78,-184 1218.78,-184 1218.78,-165 1325.78,-165 1325.78,-184"/>
<text text-anchor="middle" x="1272.28" y="-172" font-family="Helvetica,sans-Serif" font-size="10.00">MAVLinkProtocol.h</text>
</a>
</g>
</g>
<!-- Node1&#45;&gt;Node2 -->
<g id="edge1_Node000001_Node000002" class="edge">
<title>Node1&#45;&gt;Node2</title>
<g id="a_edge1_Node000001_Node000002"><a xlink:title=" ">
<path fill="none" stroke="#63b8ff" d="M1809.1,-221.24C1682.78,-210.48 1448.64,-190.53 1336.03,-180.93"/>
<polygon fill="#63b8ff" stroke="#63b8ff" points="1336.1,-177.43 1325.84,-180.06 1335.51,-184.4 1336.1,-177.43"/>
</a>
</g>
</g>
<!-- Node9 -->
<g id="Node000009" class="node">
<title>Node9</title>
<g id="a_Node000009"><a xlink:title=" ">
<polygon fill="#e0e0e0" stroke="#999999" points="376.78,-19 275.78,-19 275.78,0 376.78,0 376.78,-19"/>
<text text-anchor="middle" x="326.28" y="-7" font-family="Helvetica,sans-Serif" font-size="10.00">QtCore/QSettings</text>
</a>
</g>
</g>
<!-- Node1&#45;&gt;Node9 -->
<g id="edge65_Node000001_Node000009" class="edge">
<title>Node1&#45;&gt;Node9</title>
<g id="a_edge65_Node000001_Node000009"><a xlink:title=" ">
<path fill="none" stroke="#63b8ff" d="M1808.95,-229.04C1582.35,-229.82 946.84,-227.58 420.28,-184 239.25,-169.02 134.77,-265.82 15.28,-129 -57.99,-45.1 155.46,-20.36 265.34,-13.26"/>
<polygon fill="#63b8ff" stroke="#63b8ff" points="265.88,-16.74 275.64,-12.63 265.45,-9.75 265.88,-16.74"/>
</a>
</g>
</g>
<!-- Node14 -->
<g id="Node000014" class="node">
<title>Node14</title>
<g id="a_Node000014"><a xlink:href="AppSettings_8h.html" target="_top" xlink:title=" ">
<polygon fill="white" stroke="#666666" points="1137.28,-184 1053.28,-184 1053.28,-165 1137.28,-165 1137.28,-184"/>
<text text-anchor="middle" x="1095.28" y="-172" font-family="Helvetica,sans-Serif" font-size="10.00">AppSettings.h</text>
</a>
</g>
</g>
<!-- Node1&#45;&gt;Node14 -->
<g id="edge15_Node000001_Node000014" class="edge">
<title>Node1&#45;&gt;Node14</title>
<g id="a_edge15_Node000001_Node000014"><a xlink:title=" ">
<path fill="none" stroke="#63b8ff" d="M1809.1,-223.23C1679.54,-215.15 1425.21,-199.06 1209.28,-184 1189.14,-182.6 1167.01,-180.96 1147.65,-179.51"/>
<polygon fill="#63b8ff" stroke="#63b8ff" points="1147.74,-176.01 1137.5,-178.74 1147.21,-182.99 1147.74,-176.01"/>
</a>
</g>
</g>
<!-- Node23 -->
<g id="Node000023" class="node">
<title>Node23</title>
<g id="a_Node000023"><a xlink:href="LinkManager_8h.html" target="_top" xlink:title=" ">
<polygon fill="white" stroke="#666666" points="517.28,-184 429.28,-184 429.28,-165 517.28,-165 517.28,-184"/>
<text text-anchor="middle" x="473.28" y="-172" font-family="Helvetica,sans-Serif" font-size="10.00">LinkManager.h</text>
</a>
</g>
</g>
<!-- Node1&#45;&gt;Node23 -->
<g id="edge21_Node000001_Node000023" class="edge">
<title>Node1&#45;&gt;Node23</title>
<g id="a_edge21_Node000001_Node000023"><a xlink:title=" ">
<path fill="none" stroke="#63b8ff" d="M1809.12,-225.32C1544.9,-215.47 743.85,-185.59 527.58,-177.53"/>
<polygon fill="#63b8ff" stroke="#63b8ff" points="527.56,-174.02 517.43,-177.15 527.3,-181.02 527.56,-174.02"/>
</a>
</g>
</g>
<!-- Node32 -->
<g id="Node000032" class="node">
<title>Node32</title>
<g id="a_Node000032"><a xlink:href="MAVLinkLib_8h.html" target="_top" xlink:title=" ">
<polygon fill="white" stroke="#666666" points="1852.28,-184 1770.28,-184 1770.28,-165 1852.28,-165 1852.28,-184"/>
<text text-anchor="middle" x="1811.28" y="-172" font-family="Helvetica,sans-Serif" font-size="10.00">MAVLinkLib.h</text>
</a>
</g>
</g>
<!-- Node1&#45;&gt;Node32 -->
<g id="edge32_Node000001_Node000032" class="edge">
<title>Node1&#45;&gt;Node32</title>
<g id="a_edge32_Node000001_Node000032"><a xlink:title=" ">
<path fill="none" stroke="#63b8ff" d="M1880.94,-219.98C1868.19,-211.84 1848.73,-199.41 1833.61,-189.76"/>
<polygon fill="#63b8ff" stroke="#63b8ff" points="1835.17,-186.6 1824.86,-184.17 1831.4,-192.5 1835.17,-186.6"/>
</a>
</g>
</g>
<!-- Node35 -->
<g id="Node000035" class="node">
<title>Node35</title>
<g id="a_Node000035"><a xlink:href="MavlinkSettings_8h.html" target="_top" xlink:title=" ">
<polygon fill="white" stroke="#666666" points="1035.28,-184 931.28,-184 931.28,-165 1035.28,-165 1035.28,-184"/>
<text text-anchor="middle" x="983.28" y="-172" font-family="Helvetica,sans-Serif" font-size="10.00">MavlinkSettings.h</text>
</a>
</g>
</g>
<!-- Node1&#45;&gt;Node35 -->
<g id="edge36_Node000001_Node000035" class="edge">
<title>Node1&#45;&gt;Node35</title>
<g id="a_edge36_Node000001_Node000035"><a xlink:title=" ">
<path fill="none" stroke="#63b8ff" d="M1809.05,-226.47C1657.53,-222.32 1331.17,-210.97 1045.63,-184.04"/>
<polygon fill="#63b8ff" stroke="#63b8ff" points="1045.78,-180.54 1035.49,-183.08 1045.11,-187.51 1045.78,-180.54"/>
</a>
</g>
</g>
<!-- Node36 -->
<g id="Node000036" class="node">
<title>Node36</title>
<g id="a_Node000036"><a xlink:href="MultiVehicleManager_8h.html" target="_top" xlink:title=" ">
<polygon fill="white" stroke="#666666" points="1102.28,-74 974.28,-74 974.28,-55 1102.28,-55 1102.28,-74"/>
<text text-anchor="middle" x="1038.28" y="-62" font-family="Helvetica,sans-Serif" font-size="10.00">MultiVehicleManager.h</text>
</a>
</g>
</g>
<!-- Node1&#45;&gt;Node36 -->
<g id="edge39_Node000001_Node000036" class="edge">
<title>Node1&#45;&gt;Node36</title>
<g id="a_edge39_Node000001_Node000036"><a xlink:title=" ">
<path fill="none" stroke="#63b8ff" d="M1809.03,-227.76C1577.58,-225.32 952.67,-215.82 922.28,-184 905.3,-166.22 921.67,-133.26 943.28,-110 957.36,-94.85 977.65,-84.38 995.86,-77.42"/>
<polygon fill="#63b8ff" stroke="#63b8ff" points="997.2,-80.66 1005.44,-74.01 994.84,-74.07 997.2,-80.66"/>
</a>
</g>
</g>
<!-- Node37 -->
<g id="Node000037" class="node">
<title>Node37</title>
<g id="a_Node000037"><a xlink:href="QGC_8h.html" target="_top" xlink:title=" ">
<polygon fill="white" stroke="#666666" points="1917.78,-184 1870.78,-184 1870.78,-165 1917.78,-165 1917.78,-184"/>
<text text-anchor="middle" x="1894.28" y="-172" font-family="Helvetica,sans-Serif" font-size="10.00">QGC.h</text>
</a>
</g>
</g>
<!-- Node1&#45;&gt;Node37 -->
<g id="edge42_Node000001_Node000037" class="edge">
<title>Node1&#45;&gt;Node37</title>
<g id="a_edge42_Node000001_Node000037"><a xlink:title=" ">
<path fill="none" stroke="#63b8ff" d="M1894.28,-219.75C1894.28,-212.8 1894.28,-202.85 1894.28,-194.13"/>
<polygon fill="#63b8ff" stroke="#63b8ff" points="1897.78,-194.09 1894.28,-184.09 1890.78,-194.09 1897.78,-194.09"/>
</a>
</g>
</g>
<!-- Node39 -->
<g id="Node000039" class="node">
<title>Node39</title>
<g id="a_Node000039"><a xlink:href="QGCFileHelper_8h.html" target="_top" xlink:title=" ">
<polygon fill="white" stroke="#666666" points="1752.28,-184 1656.28,-184 1656.28,-165 1752.28,-165 1752.28,-184"/>
<text text-anchor="middle" x="1704.28" y="-172" font-family="Helvetica,sans-Serif" font-size="10.00">QGCFileHelper.h</text>
</a>
</g>
</g>
<!-- Node1&#45;&gt;Node39 -->
<g id="edge44_Node000001_Node000039" class="edge">
<title>Node1&#45;&gt;Node39</title>
<g id="a_edge44_Node000001_Node000039"><a xlink:title=" ">
<path fill="none" stroke="#63b8ff" d="M1863.75,-219.98C1831.58,-211.01 1780.72,-196.82 1745.11,-186.89"/>
<polygon fill="#63b8ff" stroke="#63b8ff" points="1745.62,-183.4 1735.05,-184.08 1743.74,-190.14 1745.62,-183.4"/>
</a>
</g>
</g>
<!-- Node44 -->
<g id="Node000044" class="node">
<title>Node44</title>
<g id="a_Node000044"><a xlink:href="QGCLoggingCategory_8h.html" target="_top" xlink:title=" ">
<polygon fill="white" stroke="#666666" points="2064.28,-184 1936.28,-184 1936.28,-165 2064.28,-165 2064.28,-184"/>
<text text-anchor="middle" x="2000.28" y="-172" font-family="Helvetica,sans-Serif" font-size="10.00">QGCLoggingCategory.h</text>
</a>
</g>
</g>
<!-- Node1&#45;&gt;Node44 -->
<g id="edge51_Node000001_Node000044" class="edge">
<title>Node1&#45;&gt;Node44</title>
<g id="a_edge51_Node000001_Node000044"><a xlink:title=" ">
<path fill="none" stroke="#63b8ff" d="M1911.31,-219.98C1928.21,-211.54 1954.34,-198.47 1973.92,-188.68"/>
<polygon fill="#63b8ff" stroke="#63b8ff" points="1975.56,-191.77 1982.94,-184.17 1972.43,-185.51 1975.56,-191.77"/>
</a>
</g>
</g>
<!-- Node46 -->
<g id="Node000046" class="node">
<title>Node46</title>
<g id="a_Node000046"><a xlink:href="QmlObjectListModel_8h.html" target="_top" xlink:title=" ">
<polygon fill="white" stroke="#666666" points="2207.78,-184 2082.78,-184 2082.78,-165 2207.78,-165 2207.78,-184"/>
<text text-anchor="middle" x="2145.28" y="-172" font-family="Helvetica,sans-Serif" font-size="10.00">QmlObjectListModel.h</text>
</a>
</g>
</g>
<!-- Node1&#45;&gt;Node46 -->
<g id="edge53_Node000001_Node000046" class="edge">
<title>Node1&#45;&gt;Node46</title>
<g id="a_edge53_Node000001_Node000046"><a xlink:title=" ">
<path fill="none" stroke="#63b8ff" d="M1934.61,-219.98C1978.12,-210.8 2047.48,-196.15 2094.64,-186.19"/>
<polygon fill="#63b8ff" stroke="#63b8ff" points="2095.58,-189.57 2104.64,-184.08 2094.13,-182.72 2095.58,-189.57"/>
</a>
</g>
</g>
<!-- Node50 -->
<g id="Node000050" class="node">
<title>Node50</title>
<g id="a_Node000050"><a xlink:href="SettingsManager_8h.html" target="_top" xlink:title=" ">
<polygon fill="white" stroke="#666666" points="1681.78,-74 1574.78,-74 1574.78,-55 1681.78,-55 1681.78,-74"/>
<text text-anchor="middle" x="1628.28" y="-62" font-family="Helvetica,sans-Serif" font-size="10.00">SettingsManager.h</text>
</a>
</g>
</g>
<!-- Node1&#45;&gt;Node50 -->
<g id="edge55_Node000001_Node000050" class="edge">
<title>Node1&#45;&gt;Node50</title>
<g id="a_edge55_Node000001_Node000050"><a xlink:title=" ">
<path fill="none" stroke="#63b8ff" d="M1809,-223.49C1746.76,-217.99 1669.55,-206.71 1647.28,-184 1621.23,-157.44 1622.27,-110.27 1625.29,-84.17"/>
<polygon fill="#63b8ff" stroke="#63b8ff" points="1628.78,-84.49 1626.68,-74.1 1621.85,-83.53 1628.78,-84.49"/>
</a>
</g>
</g>
<!-- Node53 -->
<g id="Node000053" class="node">
<title>Node53</title>
<g id="a_Node000053"><a xlink:title=" ">
<polygon fill="#e0e0e0" stroke="#999999" points="2368.78,-184 2225.78,-184 2225.78,-165 2368.78,-165 2368.78,-184"/>
<text text-anchor="middle" x="2297.28" y="-172" font-family="Helvetica,sans-Serif" font-size="10.00">QtCore/QApplicationStatic</text>
</a>
</g>
</g>
<!-- Node1&#45;&gt;Node53 -->
<g id="edge60_Node000001_Node000053" class="edge">
<title>Node1&#45;&gt;Node53</title>
<g id="a_edge60_Node000001_Node000053"><a xlink:title=" ">
<path fill="none" stroke="#63b8ff" d="M1959.03,-219.98C2030.9,-210.53 2146.7,-195.3 2222.41,-185.35"/>
<polygon fill="#63b8ff" stroke="#63b8ff" points="2222.9,-188.81 2232.36,-184.04 2221.99,-181.87 2222.9,-188.81"/>
</a>
</g>
</g>
<!-- Node54 -->
<g id="Node000054" class="node">
<title>Node54</title>
<g id="a_Node000054"><a xlink:title=" ">
<polygon fill="#e0e0e0" stroke="#999999" points="2461.78,-184 2386.78,-184 2386.78,-165 2461.78,-165 2461.78,-184"/>
<text text-anchor="middle" x="2424.28" y="-172" font-family="Helvetica,sans-Serif" font-size="10.00">QtCore/QDir</text>
</a>
</g>
</g>
<!-- Node1&#45;&gt;Node54 -->
<g id="edge61_Node000001_Node000054" class="edge">
<title>Node1&#45;&gt;Node54</title>
<g id="a_edge61_Node000001_Node000054"><a xlink:title=" ">
<path fill="none" stroke="#63b8ff" d="M1979.36,-223.03C2074.05,-216.41 2231.82,-203.8 2376.7,-184.11"/>
<polygon fill="#63b8ff" stroke="#63b8ff" points="2377.24,-187.57 2386.67,-182.74 2376.29,-180.63 2377.24,-187.57"/>
</a>
</g>
</g>
<!-- Node55 -->
<g id="Node000055" class="node">
<title>Node55</title>
<g id="a_Node000055"><a xlink:title=" ">
<polygon fill="#e0e0e0" stroke="#999999" points="2558.28,-184 2480.28,-184 2480.28,-165 2558.28,-165 2558.28,-184"/>
<text text-anchor="middle" x="2519.28" y="-172" font-family="Helvetica,sans-Serif" font-size="10.00">QtCore/QFile</text>
</a>
</g>
</g>
<!-- Node1&#45;&gt;Node55 -->
<g id="edge62_Node000001_Node000055" class="edge">
<title>Node1&#45;&gt;Node55</title>
<g id="a_edge62_Node000001_Node000055"><a xlink:title=" ">
<path fill="none" stroke="#63b8ff" d="M1979.6,-224.55C2090.4,-218.82 2289.98,-206.51 2470.11,-184.02"/>
<polygon fill="#63b8ff" stroke="#63b8ff" points="2470.55,-187.5 2480.04,-182.77 2469.68,-180.55 2470.55,-187.5"/>
</a>
</g>
</g>
<!-- Node56 -->
<g id="Node000056" class="node">
<title>Node56</title>
<g id="a_Node000056"><a xlink:title=" ">
<polygon fill="#e0e0e0" stroke="#999999" points="2673.78,-184 2576.78,-184 2576.78,-165 2673.78,-165 2673.78,-184"/>
<text text-anchor="middle" x="2625.28" y="-172" font-family="Helvetica,sans-Serif" font-size="10.00">QtCore/QFileInfo</text>
</a>
</g>
</g>
<!-- Node1&#45;&gt;Node56 -->
<g id="edge63_Node000001_Node000056" class="edge">
<title>Node1&#45;&gt;Node56</title>
<g id="a_edge63_Node000001_Node000056"><a xlink:title=" ">
<path fill="none" stroke="#63b8ff" d="M1979.46,-225.04C2105.42,-219.44 2349.01,-206.77 2566.57,-183.98"/>
<polygon fill="#63b8ff" stroke="#63b8ff" points="2567,-187.45 2576.58,-182.92 2566.27,-180.49 2567,-187.45"/>
</a>
</g>
</g>
<!-- Node57 -->
<g id="Node000057" class="node">
<title>Node57</title>
<g id="a_Node000057"><a xlink:title=" ">
<polygon fill="#e0e0e0" stroke="#999999" points="2800.28,-184 2692.28,-184 2692.28,-165 2800.28,-165 2800.28,-184"/>
<text text-anchor="middle" x="2746.28" y="-172" font-family="Helvetica,sans-Serif" font-size="10.00">QtCore/QMetaType</text>
</a>
</g>
</g>
<!-- Node1&#45;&gt;Node57 -->
<g id="edge64_Node000001_Node000057" class="edge">
<title>Node1&#45;&gt;Node57</title>
<g id="a_edge64_Node000001_Node000057"><a xlink:title=" ">
<path fill="none" stroke="#63b8ff" d="M1979.39,-225.87C2122.36,-220.97 2420.03,-208.73 2681.93,-184.05"/>
<polygon fill="#63b8ff" stroke="#63b8ff" points="2682.39,-187.52 2692.01,-183.09 2681.73,-180.56 2682.39,-187.52"/>
</a>
</g>
</g>
<!-- Node58 -->
<g id="Node000058" class="node">
<title>Node58</title>
<g id="a_Node000058"><a xlink:title=" ">
<polygon fill="#e0e0e0" stroke="#999999" points="2949.78,-184 2818.78,-184 2818.78,-165 2949.78,-165 2949.78,-184"/>
<text text-anchor="middle" x="2884.28" y="-172" font-family="Helvetica,sans-Serif" font-size="10.00">QtCore/QStandardPaths</text>
</a>
</g>
</g>
<!-- Node1&#45;&gt;Node58 -->
<g id="edge66_Node000001_Node000058" class="edge">
<title>Node1&#45;&gt;Node58</title>
<g id="a_edge66_Node000001_Node000058"><a xlink:title=" ">
<path fill="none" stroke="#63b8ff" d="M1979.55,-226.18C2139.73,-221.43 2496.74,-208.93 2808.32,-184.02"/>
<polygon fill="#63b8ff" stroke="#63b8ff" points="2808.77,-187.49 2818.45,-183.2 2808.2,-180.52 2808.77,-187.49"/>
</a>
</g>
</g>
<!-- Node59 -->
<g id="Node000059" class="node">
<title>Node59</title>
<g id="a_Node000059"><a xlink:title=" ">
<polygon fill="#e0e0e0" stroke="#999999" points="3056.78,-184 2967.78,-184 2967.78,-165 3056.78,-165 3056.78,-184"/>
<text text-anchor="middle" x="3012.28" y="-172" font-family="Helvetica,sans-Serif" font-size="10.00">QtCore/QTimer</text>
</a>
</g>
</g>
<!-- Node1&#45;&gt;Node59 -->
<g id="edge67_Node000001_Node000059" class="edge">
<title>Node1&#45;&gt;Node59</title>
<g id="a_edge67_Node000001_Node000059"><a xlink:title=" ">
<path fill="none" stroke="#63b8ff" d="M1979.42,-228.32C2158.68,-227.22 2588.24,-220.7 2957.43,-184.07"/>
<polygon fill="#63b8ff" stroke="#63b8ff" points="2957.91,-187.54 2967.51,-183.06 2957.21,-180.57 2957.91,-187.54"/>
</a>
</g>
</g>
<!-- Node3 -->
<g id="Node000003" class="node">
<title>Node3</title>
<g id="a_Node000003"><a xlink:title=" ">
<polygon fill="#e0e0e0" stroke="#999999" points="1410.28,-129 1300.28,-129 1300.28,-110 1410.28,-110 1410.28,-129"/>
<text text-anchor="middle" x="1355.28" y="-117" font-family="Helvetica,sans-Serif" font-size="10.00">QtCore/QByteArray</text>
</a>
</g>
</g>
<!-- Node2&#45;&gt;Node3 -->
<g id="edge2_Node000002_Node000003" class="edge">
<title>Node2&#45;&gt;Node3</title>
<g id="a_edge2_Node000002_Node000003"><a xlink:title=" ">
<path fill="none" stroke="#63b8ff" d="M1285.62,-164.98C1298.37,-156.84 1317.83,-144.41 1332.95,-134.76"/>
<polygon fill="#63b8ff" stroke="#63b8ff" points="1335.16,-137.5 1341.7,-129.17 1331.39,-131.6 1335.16,-137.5"/>
</a>
</g>
</g>
<!-- Node4 -->
<g id="Node000004" class="node">
<title>Node4</title>
<g id="a_Node000004"><a xlink:title=" ">
<polygon fill="#e0e0e0" stroke="#999999" points="1321.28,-19 1229.28,-19 1229.28,0 1321.28,0 1321.28,-19"/>
<text text-anchor="middle" x="1275.28" y="-7" font-family="Helvetica,sans-Serif" font-size="10.00">QtCore/QObject</text>
</a>
</g>
</g>
<!-- Node2&#45;&gt;Node4 -->
<g id="edge3_Node000002_Node000004" class="edge">
<title>Node2&#45;&gt;Node4</title>
<g id="a_edge3_Node000002_Node000004"><a xlink:title=" ">
<path fill="none" stroke="#63b8ff" d="M1272.44,-164.74C1272.91,-139.31 1274.28,-65.08 1274.93,-29.69"/>
<polygon fill="#63b8ff" stroke="#63b8ff" points="1278.43,-29.37 1275.12,-19.31 1271.43,-29.24 1278.43,-29.37"/>
</a>
</g>
</g>
<!-- Node5 -->
<g id="Node000005" class="node">
<title>Node5</title>
<g id="a_Node000005"><a xlink:title=" ">
<polygon fill="#e0e0e0" stroke="#999999" points="1192.78,-19 1103.78,-19 1103.78,0 1192.78,0 1192.78,-19"/>
<text text-anchor="middle" x="1148.28" y="-7" font-family="Helvetica,sans-Serif" font-size="10.00">QtCore/QString</text>
</a>
</g>
</g>
<!-- Node2&#45;&gt;Node5 -->
<g id="edge4_Node000002_Node000005" class="edge">
<title>Node2&#45;&gt;Node5</title>
<g id="a_edge4_Node000002_Node000005"><a xlink:title=" ">
<path fill="none" stroke="#63b8ff" d="M1218.52,-171.11C1188.24,-166.67 1152.7,-155.61 1133.28,-129 1111.47,-99.11 1127.35,-53.33 1138.97,-28.32"/>
<polygon fill="#63b8ff" stroke="#63b8ff" points="1142.15,-29.78 1143.43,-19.26 1135.87,-26.69 1142.15,-29.78"/>
</a>
</g>
</g>
<!-- Node6 -->
<g id="Node000006" class="node">
<title>Node6</title>
<g id="a_Node000006"><a xlink:href="LinkInterface_8h.html" target="_top" xlink:title=" ">
<polygon fill="white" stroke="#666666" points="857.78,-129 768.78,-129 768.78,-110 857.78,-110 857.78,-129"/>
<text text-anchor="middle" x="813.28" y="-117" font-family="Helvetica,sans-Serif" font-size="10.00">LinkInterface.h</text>
</a>
</g>
</g>
<!-- Node2&#45;&gt;Node6 -->
<g id="edge5_Node000002_Node000006" class="edge">
<title>Node2&#45;&gt;Node6</title>
<g id="a_edge5_Node000002_Node000006"><a xlink:title=" ">
<path fill="none" stroke="#63b8ff" d="M1218.73,-167.32C1130.81,-157.16 956.79,-137.07 868.07,-126.83"/>
<polygon fill="#63b8ff" stroke="#63b8ff" points="868.28,-123.33 857.94,-125.66 867.48,-130.28 868.28,-123.33"/>
</a>
</g>
</g>
<!-- Node10 -->
<g id="Node000010" class="node">
<title>Node10</title>
<g id="a_Node000010"><a xlink:title=" ">
<polygon fill="#e0e0e0" stroke="#999999" points="1243.78,-129 1142.78,-129 1142.78,-110 1243.78,-110 1243.78,-129"/>
<text text-anchor="middle" x="1193.28" y="-117" font-family="Helvetica,sans-Serif" font-size="10.00">MAVLinkEnums.h</text>
</a>
</g>
</g>
<!-- Node2&#45;&gt;Node10 -->
<g id="edge11_Node000002_Node000010" class="edge">
<title>Node2&#45;&gt;Node10</title>
<g id="a_edge11_Node000002_Node000010"><a xlink:title=" ">
<path fill="none" stroke="#63b8ff" d="M1259.59,-164.98C1247.45,-156.84 1228.92,-144.41 1214.53,-134.76"/>
<polygon fill="#63b8ff" stroke="#63b8ff" points="1216.46,-131.84 1206.2,-129.17 1212.56,-137.65 1216.46,-131.84"/>
</a>
</g>
</g>
<!-- Node11 -->
<g id="Node000011" class="node">
<title>Node11</title>
<g id="a_Node000011"><a xlink:href="MAVLinkMessageType_8h.html" target="_top" xlink:title=" ">
<polygon fill="white" stroke="#666666" points="1600.28,-129 1466.28,-129 1466.28,-110 1600.28,-110 1600.28,-129"/>
<text text-anchor="middle" x="1533.28" y="-117" font-family="Helvetica,sans-Serif" font-size="10.00">MAVLinkMessageType.h</text>
</a>
</g>
</g>
<!-- Node2&#45;&gt;Node11 -->
<g id="edge12_Node000002_Node000011" class="edge">
<title>Node2&#45;&gt;Node11</title>
<g id="a_edge12_Node000002_Node000011"><a xlink:title=" ">
<path fill="none" stroke="#63b8ff" d="M1314.21,-164.98C1359.55,-155.78 1431.89,-141.09 1480.93,-131.13"/>
<polygon fill="#63b8ff" stroke="#63b8ff" points="1481.91,-134.5 1491.02,-129.08 1480.52,-127.64 1481.91,-134.5"/>
</a>
</g>
</g>
<!-- Node7 -->
<g id="Node000007" class="node">
<title>Node7</title>
<g id="a_Node000007"><a xlink:title=" ">
<polygon fill="#e0e0e0" stroke="#999999" points="1002.78,-19 813.78,-19 813.78,0 1002.78,0 1002.78,-19"/>
<text text-anchor="middle" x="908.28" y="-7" font-family="Helvetica,sans-Serif" font-size="10.00">QtQmlIntegration/QtQmlIntegration</text>
</a>
</g>
</g>
<!-- Node6&#45;&gt;Node7 -->
<g id="edge6_Node000006_Node000007" class="edge">
<title>Node6&#45;&gt;Node7</title>
<g id="a_edge6_Node000006_Node000007"><a xlink:title=" ">
<path fill="none" stroke="#63b8ff" d="M821.05,-109.66C837,-91.54 873.61,-49.91 893.97,-26.77"/>
<polygon fill="#63b8ff" stroke="#63b8ff" points="896.69,-28.98 900.66,-19.16 891.43,-24.36 896.69,-28.98"/>
</a>
</g>
</g>
<!-- Node8 -->
<g id="Node000008" class="node">
<title>Node8</title>
<g id="a_Node000008"><a xlink:href="LinkConfiguration_8h.html" target="_top" xlink:title=" ">
<polygon fill="white" stroke="#666666" points="711.78,-74 600.78,-74 600.78,-55 711.78,-55 711.78,-74"/>
<text text-anchor="middle" x="656.28" y="-62" font-family="Helvetica,sans-Serif" font-size="10.00">LinkConfiguration.h</text>
</a>
</g>
</g>
<!-- Node6&#45;&gt;Node8 -->
<g id="edge7_Node000006_Node000008" class="edge">
<title>Node6&#45;&gt;Node8</title>
<g id="a_edge7_Node000006_Node000008"><a xlink:title=" ">
<path fill="none" stroke="#63b8ff" d="M788.06,-109.98C761.93,-101.16 720.88,-87.31 691.55,-77.41"/>
<polygon fill="#63b8ff" stroke="#63b8ff" points="692.3,-73.96 681.7,-74.08 690.06,-80.6 692.3,-73.96"/>
</a>
</g>
</g>
<!-- Node8&#45;&gt;Node5 -->
<g id="edge9_Node000008_Node000005" class="edge">
<title>Node8&#45;&gt;Node5</title>
<g id="a_edge9_Node000008_Node000005"><a xlink:title=" ">
<path fill="none" stroke="#63b8ff" d="M712.24,-57.47C807.28,-47.23 999.08,-26.57 1093.39,-16.41"/>
<polygon fill="#63b8ff" stroke="#63b8ff" points="1094.01,-19.87 1103.58,-15.32 1093.26,-12.91 1094.01,-19.87"/>
</a>
</g>
</g>
<!-- Node8&#45;&gt;Node7 -->
<g id="edge10_Node000008_Node000007" class="edge">
<title>Node8&#45;&gt;Node7</title>
<g id="a_edge10_Node000008_Node000007"><a xlink:title=" ">
<path fill="none" stroke="#63b8ff" d="M696.77,-54.98C740.45,-45.8 810.09,-31.15 857.43,-21.19"/>
<polygon fill="#63b8ff" stroke="#63b8ff" points="858.41,-24.57 867.47,-19.08 856.97,-17.72 858.41,-24.57"/>
</a>
</g>
</g>
<!-- Node8&#45;&gt;Node9 -->
<g id="edge8_Node000008_Node000009" class="edge">
<title>Node8&#45;&gt;Node9</title>
<g id="a_edge8_Node000008_Node000009"><a xlink:title=" ">
<path fill="none" stroke="#63b8ff" d="M603.26,-54.98C544.24,-45.5 449.01,-30.21 387.03,-20.26"/>
<polygon fill="#63b8ff" stroke="#63b8ff" points="387.43,-16.78 377,-18.65 386.32,-23.69 387.43,-16.78"/>
</a>
</g>
</g>
<!-- Node12 -->
<g id="Node000012" class="node">
<title>Node12</title>
<g id="a_Node000012"><a xlink:title=" ">
<polygon fill="#e0e0e0" stroke="#999999" points="1439.78,-74 1386.78,-74 1386.78,-55 1439.78,-55 1439.78,-74"/>
<text text-anchor="middle" x="1413.28" y="-62" font-family="Helvetica,sans-Serif" font-size="10.00">stdint.h</text>
</a>
</g>
</g>
<!-- Node11&#45;&gt;Node12 -->
<g id="edge13_Node000011_Node000012" class="edge">
<title>Node11&#45;&gt;Node12</title>
<g id="a_edge13_Node000011_Node000012"><a xlink:title=" ">
<path fill="none" stroke="#63b8ff" d="M1514,-109.98C1494.61,-101.42 1464.47,-88.11 1442.21,-78.28"/>
<polygon fill="#63b8ff" stroke="#63b8ff" points="1443.47,-75.01 1432.91,-74.17 1440.64,-81.41 1443.47,-75.01"/>
</a>
</g>
</g>
<!-- Node13 -->
<g id="Node000013" class="node">
<title>Node13</title>
<g id="a_Node000013"><a xlink:title=" ">
<polygon fill="#e0e0e0" stroke="#999999" points="1556.28,-74 1458.28,-74 1458.28,-55 1556.28,-55 1556.28,-74"/>
<text text-anchor="middle" x="1507.28" y="-62" font-family="Helvetica,sans-Serif" font-size="10.00">mavlink_types.h</text>
</a>
</g>
</g>
<!-- Node11&#45;&gt;Node13 -->
<g id="edge14_Node000011_Node000013" class="edge">
<title>Node11&#45;&gt;Node13</title>
<g id="a_edge14_Node000011_Node000013"><a xlink:title=" ">
<path fill="none" stroke="#63b8ff" d="M1528.99,-109.75C1525.47,-102.57 1520.37,-92.18 1516,-83.27"/>
<polygon fill="#63b8ff" stroke="#63b8ff" points="1519.04,-81.53 1511.49,-74.09 1512.76,-84.61 1519.04,-81.53"/>
</a>
</g>
</g>
<!-- Node14&#45;&gt;Node7 -->
<g id="edge16_Node000014_Node000007" class="edge">
<title>Node14&#45;&gt;Node7</title>
<g id="a_edge16_Node000014_Node000007"><a xlink:title=" ">
<path fill="none" stroke="#63b8ff" d="M1092.09,-164.89C1086.68,-151.41 1074.51,-125.31 1056.28,-110 1022.97,-82.03 1000.98,-98.85 965.28,-74 946.93,-61.23 930.4,-41.44 919.93,-27.35"/>
<polygon fill="#63b8ff" stroke="#63b8ff" points="922.64,-25.13 913.96,-19.05 916.95,-29.21 922.64,-25.13"/>
</a>
</g>
</g>
<!-- Node15 -->
<g id="Node000015" class="node">
<title>Node15</title>
<g id="a_Node000015"><a xlink:href="SettingsGroup_8h.html" target="_top" xlink:title=" ">
<polygon fill="white" stroke="#666666" points="1047.78,-129 952.78,-129 952.78,-110 1047.78,-110 1047.78,-129"/>
<text text-anchor="middle" x="1000.28" y="-117" font-family="Helvetica,sans-Serif" font-size="10.00">SettingsGroup.h</text>
</a>
</g>
</g>
<!-- Node14&#45;&gt;Node15 -->
<g id="edge17_Node000014_Node000015" class="edge">
<title>Node14&#45;&gt;Node15</title>
<g id="a_edge17_Node000014_Node000015"><a xlink:title=" ">
<path fill="none" stroke="#63b8ff" d="M1080.02,-164.98C1065.15,-156.69 1042.3,-143.94 1024.86,-134.22"/>
<polygon fill="#63b8ff" stroke="#63b8ff" points="1026.26,-130.99 1015.82,-129.17 1022.85,-137.1 1026.26,-130.99"/>
</a>
</g>
</g>
<!-- Node16 -->
<g id="Node000016" class="node">
<title>Node16</title>
<g id="a_Node000016"><a xlink:href="SettingsFact_8h.html" target="_top" xlink:title=" ">
<polygon fill="#fff0f0" stroke="red" points="1243.78,-74 1158.78,-74 1158.78,-55 1243.78,-55 1243.78,-74"/>
<text text-anchor="middle" x="1201.28" y="-62" font-family="Helvetica,sans-Serif" font-size="10.00">SettingsFact.h</text>
</a>
</g>
</g>
<!-- Node15&#45;&gt;Node16 -->
<g id="edge18_Node000015_Node000016" class="edge">
<title>Node15&#45;&gt;Node16</title>
<g id="a_edge18_Node000015_Node000016"><a xlink:title=" ">
<path fill="none" stroke="#63b8ff" d="M1032.57,-109.98C1066.9,-100.93 1121.34,-86.58 1159.05,-76.64"/>
<polygon fill="#63b8ff" stroke="#63b8ff" points="1159.96,-80.02 1168.73,-74.08 1158.17,-73.25 1159.96,-80.02"/>
</a>
</g>
</g>
<!-- Node16&#45;&gt;Node4 -->
<g id="edge19_Node000016_Node000004" class="edge">
<title>Node16&#45;&gt;Node4</title>
<g id="a_edge19_Node000016_Node000004"><a xlink:title=" ">
<path fill="none" stroke="#63b8ff" d="M1213.17,-54.98C1224.43,-46.92 1241.57,-34.65 1254.99,-25.03"/>
<polygon fill="#63b8ff" stroke="#63b8ff" points="1257.08,-27.84 1263.17,-19.17 1253.01,-22.15 1257.08,-27.84"/>
</a>
</g>
</g>
<!-- Node16&#45;&gt;Node5 -->
<g id="edge20_Node000016_Node000005" class="edge">
<title>Node16&#45;&gt;Node5</title>
<g id="a_edge20_Node000016_Node000005"><a xlink:title=" ">
<path fill="none" stroke="#63b8ff" d="M1192.53,-54.75C1184.81,-47.03 1173.38,-35.6 1164.06,-26.28"/>
<polygon fill="#63b8ff" stroke="#63b8ff" points="1166.42,-23.69 1156.87,-19.09 1161.47,-28.64 1166.42,-23.69"/>
</a>
</g>
</g>
<!-- Node23&#45;&gt;Node6 -->
<g id="edge29_Node000023_Node000006" class="edge">
<title>Node23&#45;&gt;Node6</title>
<g id="a_edge29_Node000023_Node000006"><a xlink:title=" ">
<path fill="none" stroke="#63b8ff" d="M517.38,-166.63C579.25,-156.98 691.73,-139.45 758.77,-129"/>
<polygon fill="#63b8ff" stroke="#63b8ff" points="759.38,-132.45 768.72,-127.45 758.3,-125.53 759.38,-132.45"/>
</a>
</g>
</g>
<!-- Node23&#45;&gt;Node7 -->
<g id="edge26_Node000023_Node000007" class="edge">
<title>Node23&#45;&gt;Node7</title>
<g id="a_edge26_Node000023_Node000007"><a xlink:title=" ">
<path fill="none" stroke="#63b8ff" d="M517.49,-170.65C568,-166.25 652.45,-155.34 720.28,-129 755.47,-115.34 846.72,-53.31 887.76,-24.85"/>
<polygon fill="#63b8ff" stroke="#63b8ff" points="889.95,-27.59 896.16,-19.01 885.95,-21.84 889.95,-27.59"/>
</a>
</g>
</g>
<!-- Node23&#45;&gt;Node8 -->
<g id="edge28_Node000023_Node000008" class="edge">
<title>Node23&#45;&gt;Node8</title>
<g id="a_edge28_Node000023_Node000008"><a xlink:title=" ">
<path fill="none" stroke="#63b8ff" d="M436,-164.91C399.14,-154.71 351.23,-135.79 373.28,-110 400.64,-78 515.57,-68.86 590.29,-66.34"/>
<polygon fill="#63b8ff" stroke="#63b8ff" points="590.66,-69.84 600.55,-66.03 590.45,-62.84 590.66,-69.84"/>
</a>
</g>
</g>
<!-- Node24 -->
<g id="Node000024" class="node">
<title>Node24</title>
<g id="a_Node000024"><a xlink:title=" ">
<polygon fill="#e0e0e0" stroke="#999999" points="460.28,-129 382.28,-129 382.28,-110 460.28,-110 460.28,-129"/>
<text text-anchor="middle" x="421.28" y="-117" font-family="Helvetica,sans-Serif" font-size="10.00">QtCore/QList</text>
</a>
</g>
</g>
<!-- Node23&#45;&gt;Node24 -->
<g id="edge22_Node000023_Node000024" class="edge">
<title>Node23&#45;&gt;Node24</title>
<g id="a_edge22_Node000023_Node000024"><a xlink:title=" ">
<path fill="none" stroke="#63b8ff" d="M464.69,-164.75C457.12,-157.03 445.9,-145.6 436.77,-136.28"/>
<polygon fill="#63b8ff" stroke="#63b8ff" points="439.21,-133.78 429.71,-129.09 434.21,-138.68 439.21,-133.78"/>
</a>
</g>
</g>
<!-- Node25 -->
<g id="Node000025" class="node">
<title>Node25</title>
<g id="a_Node000025"><a xlink:title=" ">
<polygon fill="#e0e0e0" stroke="#999999" points="570.28,-129 478.28,-129 478.28,-110 570.28,-110 570.28,-129"/>
<text text-anchor="middle" x="524.28" y="-117" font-family="Helvetica,sans-Serif" font-size="10.00">QtCore/QMutex</text>
</a>
</g>
</g>
<!-- Node23&#45;&gt;Node25 -->
<g id="edge23_Node000023_Node000025" class="edge">
<title>Node23&#45;&gt;Node25</title>
<g id="a_edge23_Node000023_Node000025"><a xlink:title=" ">
<path fill="none" stroke="#63b8ff" d="M481.7,-164.75C489.05,-157.11 499.91,-145.82 508.82,-136.56"/>
<polygon fill="#63b8ff" stroke="#63b8ff" points="511.6,-138.72 516.02,-129.09 506.56,-133.87 511.6,-138.72"/>
</a>
</g>
</g>
<!-- Node18 -->
<g id="Node000018" class="node">
<title>Node18</title>
<g id="a_Node000018"><a xlink:title=" ">
<polygon fill="#e0e0e0" stroke="#999999" points="711.78,-129 588.78,-129 588.78,-110 711.78,-110 711.78,-129"/>
<text text-anchor="middle" x="650.28" y="-117" font-family="Helvetica,sans-Serif" font-size="10.00">QtCore/QMutexLocker</text>
</a>
</g>
</g>
<!-- Node23&#45;&gt;Node18 -->
<g id="edge24_Node000023_Node000018" class="edge">
<title>Node23&#45;&gt;Node18</title>
<g id="a_edge24_Node000023_Node000018"><a xlink:title=" ">
<path fill="none" stroke="#63b8ff" d="M501.72,-164.98C531.56,-156.05 578.66,-141.94 611.81,-132.02"/>
<polygon fill="#63b8ff" stroke="#63b8ff" points="613.04,-135.3 621.62,-129.08 611.04,-128.6 613.04,-135.3"/>
</a>
</g>
</g>
<!-- Node26 -->
<g id="Node000026" class="node">
<title>Node26</title>
<g id="a_Node000026"><a xlink:title=" ">
<polygon fill="#e0e0e0" stroke="#999999" points="131.78,-129 24.78,-129 24.78,-110 131.78,-110 131.78,-129"/>
<text text-anchor="middle" x="78.28" y="-117" font-family="Helvetica,sans-Serif" font-size="10.00">QtCore/QStringList</text>
</a>
</g>
</g>
<!-- Node23&#45;&gt;Node26 -->
<g id="edge25_Node000023_Node000026" class="edge">
<title>Node23&#45;&gt;Node26</title>
<g id="a_edge25_Node000023_Node000026"><a xlink:title=" ">
<path fill="none" stroke="#63b8ff" d="M429.24,-167.61C367.52,-159.35 251.5,-143.82 141.81,-129.07"/>
<polygon fill="#63b8ff" stroke="#63b8ff" points="142.27,-125.6 131.9,-127.74 141.34,-132.54 142.27,-125.6"/>
</a>
</g>
</g>
<!-- Node27 -->
<g id="Node000027" class="node">
<title>Node27</title>
<g id="a_Node000027"><a xlink:title=" ">
<polygon fill="#e0e0e0" stroke="#999999" points="194.28,-129 150.28,-129 150.28,-110 194.28,-110 194.28,-129"/>
<text text-anchor="middle" x="172.28" y="-117" font-family="Helvetica,sans-Serif" font-size="10.00">limits</text>
</a>
</g>
</g>
<!-- Node23&#45;&gt;Node27 -->
<g id="edge27_Node000023_Node000027" class="edge">
<title>Node23&#45;&gt;Node27</title>
<g id="a_edge27_Node000023_Node000027"><a xlink:title=" ">
<path fill="none" stroke="#63b8ff" d="M429.05,-167.65C377.34,-160.5 289.04,-147.3 204.34,-129.04"/>
<polygon fill="#63b8ff" stroke="#63b8ff" points="205.08,-125.62 194.56,-126.91 203.59,-132.46 205.08,-125.62"/>
</a>
</g>
</g>
<!-- Node28 -->
<g id="Node000028" class="node">
<title>Node28</title>
<g id="a_Node000028"><a xlink:href="QGCSerialPortInfo_8h.html" target="_top" xlink:title=" ">
<polygon fill="#fff0f0" stroke="red" points="325.78,-129 212.78,-129 212.78,-110 325.78,-110 325.78,-129"/>
<text text-anchor="middle" x="269.28" y="-117" font-family="Helvetica,sans-Serif" font-size="10.00">QGCSerialPortInfo.h</text>
</a>
</g>
</g>
<!-- Node23&#45;&gt;Node28 -->
<g id="edge30_Node000023_Node000028" class="edge">
<title>Node23&#45;&gt;Node28</title>
<g id="a_edge30_Node000023_Node000028"><a xlink:title=" ">
<path fill="none" stroke="#63b8ff" d="M440.5,-164.98C405.66,-155.93 350.41,-141.58 312.14,-131.64"/>
<polygon fill="#63b8ff" stroke="#63b8ff" points="312.87,-128.21 302.31,-129.08 311.11,-134.98 312.87,-128.21"/>
</a>
</g>
</g>
<!-- Node29 -->
<g id="Node000029" class="node">
<title>Node29</title>
<g id="a_Node000029"><a xlink:title=" ">
<polygon fill="#e0e0e0" stroke="#999999" points="345.28,-74 193.28,-74 193.28,-55 345.28,-55 345.28,-74"/>
<text text-anchor="middle" x="269.28" y="-62" font-family="Helvetica,sans-Serif" font-size="10.00">QtCore/QRegularExpression</text>
</a>
</g>
</g>
<!-- Node28&#45;&gt;Node29 -->
<g id="edge31_Node000028_Node000029" class="edge">
<title>Node28&#45;&gt;Node29</title>
<g id="a_edge31_Node000028_Node000029"><a xlink:title=" ">
<path fill="none" stroke="#63b8ff" d="M269.28,-109.75C269.28,-102.8 269.28,-92.85 269.28,-84.13"/>
<polygon fill="#63b8ff" stroke="#63b8ff" points="272.78,-84.09 269.28,-74.09 265.78,-84.09 272.78,-84.09"/>
</a>
</g>
</g>
<!-- Node32&#45;&gt;Node11 -->
<g id="edge33_Node000032_Node000011" class="edge">
<title>Node32&#45;&gt;Node11</title>
<g id="a_edge33_Node000032_Node000011"><a xlink:title=" ">
<path fill="none" stroke="#63b8ff" d="M1770.26,-165.68C1722.02,-156.48 1641.74,-141.18 1588.17,-130.96"/>
<polygon fill="#63b8ff" stroke="#63b8ff" points="1588.64,-127.49 1578.16,-129.06 1587.33,-134.37 1588.64,-127.49"/>
</a>
</g>
</g>
<!-- Node33 -->
<g id="Node000033" class="node">
<title>Node33</title>
<g id="a_Node000033"><a xlink:title=" ">
<polygon fill="#e0e0e0" stroke="#999999" points="2201.28,-129 2145.28,-129 2145.28,-110 2201.28,-110 2201.28,-129"/>
<text text-anchor="middle" x="2173.28" y="-117" font-family="Helvetica,sans-Serif" font-size="10.00">stddef.h</text>
</a>
</g>
</g>
<!-- Node32&#45;&gt;Node33 -->
<g id="edge34_Node000032_Node000033" class="edge">
<title>Node32&#45;&gt;Node33</title>
<g id="a_edge34_Node000032_Node000033"><a xlink:title=" ">
<path fill="none" stroke="#63b8ff" d="M1852.46,-166.37C1855.44,-165.89 1858.41,-165.43 1861.28,-165 1979.96,-147.15 2013.22,-150.62 2134.97,-129.08"/>
<polygon fill="#63b8ff" stroke="#63b8ff" points="2135.83,-132.48 2145.06,-127.28 2134.6,-125.59 2135.83,-132.48"/>
</a>
</g>
</g>
<!-- Node34 -->
<g id="Node000034" class="node">
<title>Node34</title>
<g id="a_Node000034"><a xlink:title=" ">
<polygon fill="#e0e0e0" stroke="#999999" points="2284.78,-129 2219.78,-129 2219.78,-110 2284.78,-110 2284.78,-129"/>
<text text-anchor="middle" x="2252.28" y="-117" font-family="Helvetica,sans-Serif" font-size="10.00">mavlink.h</text>
</a>
</g>
</g>
<!-- Node32&#45;&gt;Node34 -->
<g id="edge35_Node000032_Node000034" class="edge">
<title>Node32&#45;&gt;Node34</title>
<g id="a_edge35_Node000032_Node000034"><a xlink:title=" ">
<path fill="none" stroke="#63b8ff" d="M1852.45,-166.28C1855.43,-165.83 1858.4,-165.39 1861.28,-165 2012.61,-144.35 2054.42,-152.15 2209.86,-128.9"/>
<polygon fill="#63b8ff" stroke="#63b8ff" points="2210.41,-132.36 2219.78,-127.4 2209.36,-125.44 2210.41,-132.36"/>
</a>
</g>
</g>
<!-- Node35&#45;&gt;Node7 -->
<g id="edge37_Node000035_Node000007" class="edge">
<title>Node35&#45;&gt;Node7</title>
<g id="a_edge37_Node000035_Node000007"><a xlink:title=" ">
<path fill="none" stroke="#63b8ff" d="M973.36,-164.91C964.31,-156.58 951.19,-143.15 943.28,-129 925.03,-96.35 915.4,-53.19 911.12,-29"/>
<polygon fill="#63b8ff" stroke="#63b8ff" points="914.56,-28.34 909.47,-19.04 907.65,-29.48 914.56,-28.34"/>
</a>
</g>
</g>
<!-- Node35&#45;&gt;Node15 -->
<g id="edge38_Node000035_Node000015" class="edge">
<title>Node35&#45;&gt;Node15</title>
<g id="a_edge38_Node000035_Node000015"><a xlink:title=" ">
<path fill="none" stroke="#63b8ff" d="M986.09,-164.75C988.34,-157.72 991.58,-147.62 994.4,-138.84"/>
<polygon fill="#63b8ff" stroke="#63b8ff" points="997.8,-139.68 997.53,-129.09 991.14,-137.54 997.8,-139.68"/>
</a>
</g>
</g>
<!-- Node36&#45;&gt;Node4 -->
<g id="edge40_Node000036_Node000004" class="edge">
<title>Node36&#45;&gt;Node4</title>
<g id="a_edge40_Node000036_Node000004"><a xlink:title=" ">
<path fill="none" stroke="#63b8ff" d="M1076.36,-54.98C1117.27,-45.84 1182.39,-31.27 1226.9,-21.32"/>
<polygon fill="#63b8ff" stroke="#63b8ff" points="1227.91,-24.68 1236.9,-19.08 1226.38,-17.85 1227.91,-24.68"/>
</a>
</g>
</g>
<!-- Node36&#45;&gt;Node7 -->
<g id="edge41_Node000036_Node000007" class="edge">
<title>Node36&#45;&gt;Node7</title>
<g id="a_edge41_Node000036_Node000007"><a xlink:title=" ">
<path fill="none" stroke="#63b8ff" d="M1017.39,-54.98C996.2,-46.34 963.15,-32.87 938.98,-23.02"/>
<polygon fill="#63b8ff" stroke="#63b8ff" points="940.13,-19.7 929.55,-19.17 937.49,-26.19 940.13,-19.7"/>
</a>
</g>
</g>
<!-- Node38 -->
<g id="Node000038" class="node">
<title>Node38</title>
<g id="a_Node000038"><a xlink:title=" ">
<polygon fill="#e0e0e0" stroke="#999999" points="2395.28,-129 2303.28,-129 2303.28,-110 2395.28,-110 2395.28,-129"/>
<text text-anchor="middle" x="2349.28" y="-117" font-family="Helvetica,sans-Serif" font-size="10.00">QtCore/QtTypes</text>
</a>
</g>
</g>
<!-- Node37&#45;&gt;Node38 -->
<g id="edge43_Node000037_Node000038" class="edge">
<title>Node37&#45;&gt;Node38</title>
<g id="a_edge43_Node000037_Node000038"><a xlink:title=" ">
<path fill="none" stroke="#63b8ff" d="M1917.98,-166.93C1921.09,-166.2 1924.25,-165.54 1927.28,-165 2085.36,-137.06 2129.86,-149.01 2292.71,-129.12"/>
<polygon fill="#63b8ff" stroke="#63b8ff" points="2293.6,-132.54 2303.09,-127.83 2292.74,-125.59 2293.6,-132.54"/>
</a>
</g>
</g>
<!-- Node39&#45;&gt;Node3 -->
<g id="edge45_Node000039_Node000003" class="edge">
<title>Node39&#45;&gt;Node3</title>
<g id="a_edge45_Node000039_Node000003"><a xlink:title=" ">
<path fill="none" stroke="#63b8ff" d="M1656.12,-166.19C1594.94,-156.89 1489.09,-140.82 1420.65,-130.43"/>
<polygon fill="#63b8ff" stroke="#63b8ff" points="1420.83,-126.91 1410.42,-128.87 1419.78,-133.84 1420.83,-126.91"/>
</a>
</g>
</g>
<!-- Node39&#45;&gt;Node5 -->
<g id="edge47_Node000039_Node000005" class="edge">
<title>Node39&#45;&gt;Node5</title>
<g id="a_edge47_Node000039_Node000005"><a xlink:title=" ">
<path fill="none" stroke="#63b8ff" d="M1655.92,-168.91C1605.38,-163.17 1524.26,-151.27 1457.28,-129 1439.36,-123.04 1436.61,-117.49 1419.28,-110 1336.51,-74.24 1236.23,-39.6 1183.94,-22.17"/>
<polygon fill="#63b8ff" stroke="#63b8ff" points="1185.03,-18.85 1174.44,-19.02 1182.83,-25.49 1185.03,-18.85"/>
</a>
</g>
</g>
<!-- Node40 -->
<g id="Node000040" class="node">
<title>Node40</title>
<g id="a_Node000040"><a xlink:title=" ">
<polygon fill="#e0e0e0" stroke="#999999" points="1810.28,-129 1656.28,-129 1656.28,-110 1810.28,-110 1810.28,-129"/>
<text text-anchor="middle" x="1733.28" y="-117" font-family="Helvetica,sans-Serif" font-size="10.00">QtCore/QCryptographicHash</text>
</a>
</g>
</g>
<!-- Node39&#45;&gt;Node40 -->
<g id="edge46_Node000039_Node000040" class="edge">
<title>Node39&#45;&gt;Node40</title>
<g id="a_edge46_Node000039_Node000040"><a xlink:title=" ">
<path fill="none" stroke="#63b8ff" d="M1709.07,-164.75C1713.04,-157.49 1718.81,-146.95 1723.71,-137.98"/>
<polygon fill="#63b8ff" stroke="#63b8ff" points="1726.85,-139.54 1728.58,-129.09 1720.71,-136.18 1726.85,-139.54"/>
</a>
</g>
</g>
<!-- Node41 -->
<g id="Node000041" class="node">
<title>Node41</title>
<g id="a_Node000041"><a xlink:title=" ">
<polygon fill="#e0e0e0" stroke="#999999" points="1958.28,-129 1828.28,-129 1828.28,-110 1958.28,-110 1958.28,-129"/>
<text text-anchor="middle" x="1893.28" y="-117" font-family="Helvetica,sans-Serif" font-size="10.00">QtCore/QTemporaryFile</text>
</a>
</g>
</g>
<!-- Node39&#45;&gt;Node41 -->
<g id="edge48_Node000039_Node000041" class="edge">
<title>Node39&#45;&gt;Node41</title>
<g id="a_edge48_Node000039_Node000041"><a xlink:title=" ">
<path fill="none" stroke="#63b8ff" d="M1734.65,-164.98C1766.65,-156.01 1817.24,-141.82 1852.66,-131.89"/>
<polygon fill="#63b8ff" stroke="#63b8ff" points="1853.99,-135.15 1862.68,-129.08 1852.1,-128.41 1853.99,-135.15"/>
</a>
</g>
</g>
<!-- Node42 -->
<g id="Node000042" class="node">
<title>Node42</title>
<g id="a_Node000042"><a xlink:title=" ">
<polygon fill="#e0e0e0" stroke="#999999" points="2051.78,-129 1976.78,-129 1976.78,-110 2051.78,-110 2051.78,-129"/>
<text text-anchor="middle" x="2014.28" y="-117" font-family="Helvetica,sans-Serif" font-size="10.00">QtCore/QUrl</text>
</a>
</g>
</g>
<!-- Node39&#45;&gt;Node42 -->
<g id="edge49_Node000039_Node000042" class="edge">
<title>Node39&#45;&gt;Node42</title>
<g id="a_edge49_Node000039_Node000042"><a xlink:title=" ">
<path fill="none" stroke="#63b8ff" d="M1752.3,-165.54C1802.99,-157.11 1885.48,-143.27 1966.68,-129.09"/>
<polygon fill="#63b8ff" stroke="#63b8ff" points="1967.33,-132.53 1976.58,-127.36 1966.12,-125.63 1967.33,-132.53"/>
</a>
</g>
</g>
<!-- Node43 -->
<g id="Node000043" class="node">
<title>Node43</title>
<g id="a_Node000043"><a xlink:title=" ">
<polygon fill="#e0e0e0" stroke="#999999" points="2127.28,-129 2069.28,-129 2069.28,-110 2127.28,-110 2127.28,-129"/>
<text text-anchor="middle" x="2098.28" y="-117" font-family="Helvetica,sans-Serif" font-size="10.00">memory</text>
</a>
</g>
</g>
<!-- Node39&#45;&gt;Node43 -->
<g id="edge50_Node000039_Node000043" class="edge">
<title>Node39&#45;&gt;Node43</title>
<g id="a_edge50_Node000039_Node000043"><a xlink:title=" ">
<path fill="none" stroke="#63b8ff" d="M1752.47,-166.22C1755.45,-165.8 1758.4,-165.39 1761.28,-165 1890.69,-147.56 1926.62,-151.43 2058.77,-129.11"/>
<polygon fill="#63b8ff" stroke="#63b8ff" points="2059.61,-132.52 2068.88,-127.38 2058.43,-125.62 2059.61,-132.52"/>
</a>
</g>
</g>
<!-- Node45 -->
<g id="Node000045" class="node">
<title>Node45</title>
<g id="a_Node000045"><a xlink:title=" ">
<polygon fill="#e0e0e0" stroke="#999999" points="2556.78,-129 2413.78,-129 2413.78,-110 2556.78,-110 2556.78,-129"/>
<text text-anchor="middle" x="2485.28" y="-117" font-family="Helvetica,sans-Serif" font-size="10.00">QtCore/QLoggingCategory</text>
</a>
</g>
</g>
<!-- Node44&#45;&gt;Node45 -->
<g id="edge52_Node000044_Node000045" class="edge">
<title>Node44&#45;&gt;Node45</title>
<g id="a_edge52_Node000044_Node000045"><a xlink:title=" ">
<path fill="none" stroke="#63b8ff" d="M2064.45,-166.1C2067.78,-165.73 2071.07,-165.36 2074.28,-165 2188.46,-152.26 2320.54,-138.05 2403.5,-129.2"/>
<polygon fill="#63b8ff" stroke="#63b8ff" points="2404.05,-132.66 2413.62,-128.12 2403.3,-125.7 2404.05,-132.66"/>
</a>
</g>
</g>
<!-- Node47 -->
<g id="Node000047" class="node">
<title>Node47</title>
<g id="a_Node000047"><a xlink:href="ObjectListModelBase_8h.html" target="_top" xlink:title=" ">
<polygon fill="#fff0f0" stroke="red" points="2703.28,-129 2575.28,-129 2575.28,-110 2703.28,-110 2703.28,-129"/>
<text text-anchor="middle" x="2639.28" y="-117" font-family="Helvetica,sans-Serif" font-size="10.00">ObjectListModelBase.h</text>
</a>
</g>
</g>
<!-- Node46&#45;&gt;Node47 -->
<g id="edge54_Node000046_Node000047" class="edge">
<title>Node46&#45;&gt;Node47</title>
<g id="a_edge54_Node000046_Node000047"><a xlink:title=" ">
<path fill="none" stroke="#63b8ff" d="M2208.1,-166.03C2211.21,-165.68 2214.28,-165.33 2217.28,-165 2368.94,-148.23 2409.55,-146.1 2564.8,-129.15"/>
<polygon fill="#63b8ff" stroke="#63b8ff" points="2565.63,-132.58 2575.19,-128.01 2564.87,-125.62 2565.63,-132.58"/>
</a>
</g>
</g>
<!-- Node50&#45;&gt;Node4 -->
<g id="edge56_Node000050_Node000004" class="edge">
<title>Node50&#45;&gt;Node4</title>
<g id="a_edge56_Node000050_Node000004"><a xlink:title=" ">
<path fill="none" stroke="#63b8ff" d="M1574.67,-55.45C1508.99,-45.59 1398.25,-28.96 1331.43,-18.93"/>
<polygon fill="#63b8ff" stroke="#63b8ff" points="1331.91,-15.46 1321.5,-17.44 1330.87,-22.39 1331.91,-15.46"/>
</a>
</g>
</g>
<!-- Node50&#45;&gt;Node7 -->
<g id="edge57_Node000050_Node000007" class="edge">
<title>Node50&#45;&gt;Node7</title>
<g id="a_edge57_Node000050_Node000007"><a xlink:title=" ">
<path fill="none" stroke="#63b8ff" d="M1574.69,-56.02C1571.51,-55.66 1568.35,-55.31 1565.28,-55 1370.79,-35.31 1142.99,-22.07 1013.16,-15.45"/>
<polygon fill="#63b8ff" stroke="#63b8ff" points="1012.99,-11.94 1002.83,-14.93 1012.64,-18.93 1012.99,-11.94"/>
</a>
</g>
</g>
<!-- Node51 -->
<g id="Node000051" class="node">
<title>Node51</title>
<g id="a_Node000051"><a xlink:title=" ">
<polygon fill="#e0e0e0" stroke="#999999" points="1626.78,-19 1513.78,-19 1513.78,0 1626.78,0 1626.78,-19"/>
<text text-anchor="middle" x="1570.28" y="-7" font-family="Helvetica,sans-Serif" font-size="10.00">QtCore/QJsonObject</text>
</a>
</g>
</g>
<!-- Node50&#45;&gt;Node51 -->
<g id="edge58_Node000050_Node000051" class="edge">
<title>Node50&#45;&gt;Node51</title>
<g id="a_edge58_Node000050_Node000051"><a xlink:title=" ">
<path fill="none" stroke="#63b8ff" d="M1618.96,-54.98C1610.47,-47.23 1597.72,-35.58 1587.4,-26.14"/>
<polygon fill="#63b8ff" stroke="#63b8ff" points="1589.51,-23.33 1579.77,-19.17 1584.79,-28.5 1589.51,-23.33"/>
</a>
</g>
</g>
<!-- Node52 -->
<g id="Node000052" class="node">
<title>Node52</title>
<g id="a_Node000052"><a xlink:title=" ">
<polygon fill="#e0e0e0" stroke="#999999" points="1727.28,-19 1645.28,-19 1645.28,0 1727.28,0 1727.28,-19"/>
<text text-anchor="middle" x="1686.28" y="-7" font-family="Helvetica,sans-Serif" font-size="10.00">QtCore/QMap</text>
</a>
</g>
</g>
<!-- Node50&#45;&gt;Node52 -->
<g id="edge59_Node000050_Node000052" class="edge">
<title>Node50&#45;&gt;Node52</title>
<g id="a_edge59_Node000050_Node000052"><a xlink:title=" ">
<path fill="none" stroke="#63b8ff" d="M1637.6,-54.98C1646.09,-47.23 1658.84,-35.58 1669.16,-26.14"/>
<polygon fill="#63b8ff" stroke="#63b8ff" points="1671.77,-28.5 1676.79,-19.17 1667.05,-23.33 1671.77,-28.5"/>
</a>
</g>
</g>
</g>
</svg>
