<?xml version="1.0" encoding="UTF-8" standalone="no"?>
<!DOCTYPE svg PUBLIC "-//W3C//DTD SVG 1.1//EN"
 "http://www.w3.org/Graphics/SVG/1.1/DTD/svg11.dtd">
<!-- Generated by graphviz version 2.43.0 (0)
 -->
<!-- Title: src/AnalyzeView/MAVLinkChartController.h Pages: 1 -->
<svg width="584pt" height="104pt"
 viewBox="0.00 0.00 583.50 104.00" xmlns="http://www.w3.org/2000/svg" xmlns:xlink="http://www.w3.org/1999/xlink">
<g id="graph0" class="graph" transform="scale(1 1) rotate(0) translate(4 100)">
<title>src/AnalyzeView/MAVLinkChartController.h</title>
<!-- Node1 -->
<g id="Node000001" class="node">
<title>Node1</title>
<g id="a_Node000001"><a xlink:title=" ">
<polygon fill="#999999" stroke="#666666" points="363,-96 195,-96 195,-66 363,-66 363,-96"/>
<text text-anchor="start" x="203" y="-84" font-family="Helvetica,sans-Serif" font-size="10.00">src/AnalyzeView/MAVLinkChart</text>
<text text-anchor="middle" x="279" y="-73" font-family="Helvetica,sans-Serif" font-size="10.00">Controller.h</text>
</a>
</g>
</g>
<!-- Node2 -->
<g id="Node000002" class="node">
<title>Node2</title>
<g id="a_Node000002"><a xlink:href="MAVLinkChartController_8cc.html" target="_top" xlink:title=" ">
<polygon fill="white" stroke="#666666" points="168,-30 0,-30 0,0 168,0 168,-30"/>
<text text-anchor="start" x="8" y="-18" font-family="Helvetica,sans-Serif" font-size="10.00">src/AnalyzeView/MAVLinkChart</text>
<text text-anchor="middle" x="84" y="-7" font-family="Helvetica,sans-Serif" font-size="10.00">Controller.cc</text>
</a>
</g>
</g>
<!-- Node1&#45;&gt;Node2 -->
<g id="edge1_Node000001_Node000002" class="edge">
<title>Node1&#45;&gt;Node2</title>
<g id="a_edge1_Node000001_Node000002"><a xlink:title=" ">
<path fill="none" stroke="#63b8ff" d="M226.36,-62.72C195.11,-52.47 156.01,-39.63 126.69,-30.01"/>
<polygon fill="#63b8ff" stroke="#63b8ff" points="225.61,-66.16 236.21,-65.95 227.8,-59.51 225.61,-66.16"/>
</a>
</g>
</g>
<!-- Node3 -->
<g id="Node000003" class="node">
<title>Node3</title>
<g id="a_Node000003"><a xlink:href="MAVLinkInspectorController_8cc.html" target="_top" xlink:title=" ">
<polygon fill="white" stroke="#666666" points="372.5,-30 185.5,-30 185.5,0 372.5,0 372.5,-30"/>
<text text-anchor="start" x="193.5" y="-18" font-family="Helvetica,sans-Serif" font-size="10.00">src/AnalyzeView/MAVLinkInspector</text>
<text text-anchor="middle" x="279" y="-7" font-family="Helvetica,sans-Serif" font-size="10.00">Controller.cc</text>
</a>
</g>
</g>
<!-- Node1&#45;&gt;Node3 -->
<g id="edge2_Node000001_Node000003" class="edge">
<title>Node1&#45;&gt;Node3</title>
<g id="a_edge2_Node000001_Node000003"><a xlink:title=" ">
<path fill="none" stroke="#63b8ff" d="M279,-55.54C279,-46.96 279,-37.61 279,-30.16"/>
<polygon fill="#63b8ff" stroke="#63b8ff" points="275.5,-55.8 279,-65.8 282.5,-55.8 275.5,-55.8"/>
</a>
</g>
</g>
<!-- Node4 -->
<g id="Node000004" class="node">
<title>Node4</title>
<g id="a_Node000004"><a xlink:href="MAVLinkMessageField_8cc.html" target="_top" xlink:title=" ">
<polygon fill="white" stroke="#666666" points="575.5,-30 390.5,-30 390.5,0 575.5,0 575.5,-30"/>
<text text-anchor="start" x="398.5" y="-18" font-family="Helvetica,sans-Serif" font-size="10.00">src/AnalyzeView/MAVLinkMessage</text>
<text text-anchor="middle" x="483" y="-7" font-family="Helvetica,sans-Serif" font-size="10.00">Field.cc</text>
</a>
</g>
</g>
<!-- Node1&#45;&gt;Node4 -->
<g id="edge3_Node000001_Node000004" class="edge">
<title>Node1&#45;&gt;Node4</title>
<g id="a_edge3_Node000001_Node000004"><a xlink:title=" ">
<path fill="none" stroke="#63b8ff" d="M333.65,-62.86C366.4,-52.58 407.53,-39.68 438.34,-30.01"/>
<polygon fill="#63b8ff" stroke="#63b8ff" points="332.26,-59.62 323.77,-65.95 334.36,-66.3 332.26,-59.62"/>
</a>
</g>
</g>
</g>
</svg>
