<?xml version="1.0" encoding="UTF-8" standalone="no"?>
<!DOCTYPE svg PUBLIC "-//W3C//DTD SVG 1.1//EN"
 "http://www.w3.org/Graphics/SVG/1.1/DTD/svg11.dtd">
<!-- Generated by graphviz version 2.43.0 (0)
 -->
<!-- Title: src/Camera/MavlinkCameraControlInterface.h Pages: 1 -->
<!--zoomable 368 -->

<svg id="main" version="1.1" xmlns="http://www.w3.org/2000/svg" xmlns:xlink="http://www.w3.org/1999/xlink" xml:space="preserve" onload="init(evt)">
<style type="text/css"><![CDATA[
.node, .edge {opacity: 0.7;}
.node.selected, .edge.selected {opacity: 1;}
.edge:hover path { stroke: red; }
.edge:hover polygon { stroke: red; fill: red; }
]]></style>

<defs>
  <circle id="rim" cx="0" cy="0" r="7"/>
  <circle id="rim2" cx="0" cy="0" r="3.5"/>
  <g id="zoomPlus">
    <use xlink:href="#rim" fill="#404040"><set attributeName="fill" to="#808080" begin="zoomplus.mouseover" end="zoomplus.mouseout"/></use>
    <path d="M-4,0h8M0,-4v8" fill="none" stroke="white" stroke-width="1.5" pointer-events="none"/>
  </g>
  <g id="zoomMin">
    <use xlink:href="#rim" fill="#404040"><set attributeName="fill" to="#808080" begin="zoomminus.mouseover" end="zoomminus.mouseout"/></use>
    <path d="M-4,0h8" fill="none" stroke="white" stroke-width="1.5" pointer-events="none"/>
  </g>
  <g id="arrowUp" transform="translate(30 24)">
    <use xlink:href="#rim"/>
    <path pointer-events="none" fill="none" stroke="white" stroke-width="1.5" d="M0,-3.0v7 M-2.5,-0.5L0,-3.0L2.5,-0.5"/>
  </g>
  <g id="arrowRight" transform="rotate(90) translate(36 -43)">
    <use xlink:href="#rim"/>
    <path pointer-events="none" fill="none" stroke="white" stroke-width="1.5" d="M0,-3.0v7 M-2.5,-0.5L0,-3.0L2.5,-0.5"/>
  </g>
  <g id="arrowDown" transform="rotate(180) translate(-30 -48)">
    <use xlink:href="#rim"/>
    <path pointer-events="none" fill="none" stroke="white" stroke-width="1.5" d="M0,-3.0v7 M-2.5,-0.5L0,-3.0L2.5,-0.5"/>
  </g>
  <g id="arrowLeft" transform="rotate(270) translate(-36 17)">
    <use xlink:href="#rim"/>
    <path pointer-events="none" fill="none" stroke="white" stroke-width="1.5" d="M0,-3.0v7 M-2.5,-0.5L0,-3.0L2.5,-0.5"/>
  </g>
  <g id="resetDef">
    <use xlink:href="#rim2" fill="#404040"><set attributeName="fill" to="#808080" begin="reset.mouseover" end="reset.mouseout"/></use>
  </g>
</defs>
<script type="application/ecmascript">
var viewWidth = 1496;
var viewHeight = 368;
var sectionId = 'dynsection-0';
</script>
<script type="application/ecmascript" xlink:href="svg.min.js"/>
<svg id="graph" class="graph">
<g id="viewport">
<title>src/Camera/MavlinkCameraControlInterface.h</title>
<!-- Node1 -->
<g id="Node000001" class="node">
<title>Node1</title>
<g id="a_Node000001"><a xlink:title=" ">
<polygon fill="#999999" stroke="#666666" points="1097,-360 945,-360 945,-330 1097,-330 1097,-360"/>
<text text-anchor="start" x="953" y="-348" font-family="Helvetica,sans-Serif" font-size="10.00">src/Camera/MavlinkCamera</text>
<text text-anchor="middle" x="1021" y="-337" font-family="Helvetica,sans-Serif" font-size="10.00">ControlInterface.h</text>
</a>
</g>
</g>
<!-- Node2 -->
<g id="Node000002" class="node">
<title>Node2</title>
<g id="a_Node000002"><a xlink:title=" ">
<polygon fill="#e0e0e0" stroke="#999999" points="315.5,-129 172.5,-129 172.5,-110 315.5,-110 315.5,-129"/>
<text text-anchor="middle" x="244" y="-117" font-family="Helvetica,sans-Serif" font-size="10.00">QtCore/QLoggingCategory</text>
</a>
</g>
</g>
<!-- Node1&#45;&gt;Node2 -->
<g id="edge1_Node000001_Node000002" class="edge">
<title>Node1&#45;&gt;Node2</title>
<g id="a_edge1_Node000001_Node000002"><a xlink:title=" ">
<path fill="none" stroke="#63b8ff" d="M944.69,-342.62C753.63,-338.71 265.16,-325.7 199,-294 143.55,-267.43 116.01,-216.89 149,-165 158.88,-149.45 175.79,-139.25 192.62,-132.58"/>
<polygon fill="#63b8ff" stroke="#63b8ff" points="194.24,-135.72 202.47,-129.06 191.88,-129.13 194.24,-135.72"/>
</a>
</g>
</g>
<!-- Node3 -->
<g id="Node000003" class="node">
<title>Node3</title>
<g id="a_Node000003"><a xlink:title=" ">
<polygon fill="#e0e0e0" stroke="#999999" points="837,-129 745,-129 745,-110 837,-110 837,-129"/>
<text text-anchor="middle" x="791" y="-117" font-family="Helvetica,sans-Serif" font-size="10.00">QtCore/QObject</text>
</a>
</g>
</g>
<!-- Node1&#45;&gt;Node3 -->
<g id="edge2_Node000001_Node000003" class="edge">
<title>Node1&#45;&gt;Node3</title>
<g id="a_edge2_Node000001_Node000003"><a xlink:title=" ">
<path fill="none" stroke="#63b8ff" d="M1021.7,-329.87C1022.55,-295.15 1019.33,-205.58 967,-165 948.34,-150.53 891.24,-137.76 847.08,-129.65"/>
<polygon fill="#63b8ff" stroke="#63b8ff" points="847.48,-126.16 837.02,-127.84 846.24,-133.05 847.48,-126.16"/>
</a>
</g>
</g>
<!-- Node4 -->
<g id="Node000004" class="node">
<title>Node4</title>
<g id="a_Node000004"><a xlink:title=" ">
<polygon fill="#e0e0e0" stroke="#999999" points="1233,-294 1141,-294 1141,-275 1233,-275 1233,-294"/>
<text text-anchor="middle" x="1187" y="-282" font-family="Helvetica,sans-Serif" font-size="10.00">QtCore/QPointF</text>
</a>
</g>
</g>
<!-- Node1&#45;&gt;Node4 -->
<g id="edge3_Node000001_Node000004" class="edge">
<title>Node1&#45;&gt;Node4</title>
<g id="a_edge3_Node000001_Node000004"><a xlink:title=" ">
<path fill="none" stroke="#63b8ff" d="M1060.76,-329.99C1088.83,-320.1 1126.05,-306.98 1152.79,-297.56"/>
<polygon fill="#63b8ff" stroke="#63b8ff" points="1154.22,-300.76 1162.49,-294.14 1151.89,-294.16 1154.22,-300.76"/>
</a>
</g>
</g>
<!-- Node5 -->
<g id="Node000005" class="node">
<title>Node5</title>
<g id="a_Node000005"><a xlink:title=" ">
<polygon fill="#e0e0e0" stroke="#999999" points="1340.5,-294 1251.5,-294 1251.5,-275 1340.5,-275 1340.5,-294"/>
<text text-anchor="middle" x="1296" y="-282" font-family="Helvetica,sans-Serif" font-size="10.00">QtCore/QRectF</text>
</a>
</g>
</g>
<!-- Node1&#45;&gt;Node5 -->
<g id="edge4_Node000001_Node000005" class="edge">
<title>Node1&#45;&gt;Node5</title>
<g id="a_edge4_Node000001_Node000005"><a xlink:title=" ">
<path fill="none" stroke="#63b8ff" d="M1086.87,-329.99C1135.66,-319.61 1201.16,-305.68 1245.76,-296.19"/>
<polygon fill="#63b8ff" stroke="#63b8ff" points="1246.74,-299.56 1255.79,-294.05 1245.28,-292.71 1246.74,-299.56"/>
</a>
</g>
</g>
<!-- Node6 -->
<g id="Node000006" class="node">
<title>Node6</title>
<g id="a_Node000006"><a xlink:title=" ">
<polygon fill="#e0e0e0" stroke="#999999" points="1445.5,-294 1358.5,-294 1358.5,-275 1445.5,-275 1445.5,-294"/>
<text text-anchor="middle" x="1402" y="-282" font-family="Helvetica,sans-Serif" font-size="10.00">QtCore/QSizeF</text>
</a>
</g>
</g>
<!-- Node1&#45;&gt;Node6 -->
<g id="edge5_Node000001_Node000006" class="edge">
<title>Node1&#45;&gt;Node6</title>
<g id="a_edge5_Node000001_Node000006"><a xlink:title=" ">
<path fill="none" stroke="#63b8ff" d="M1097.16,-332.67C1161.52,-323.04 1256.44,-308.71 1348.29,-294.26"/>
<polygon fill="#63b8ff" stroke="#63b8ff" points="1348.98,-297.69 1358.31,-292.68 1347.89,-290.78 1348.98,-297.69"/>
</a>
</g>
</g>
<!-- Node7 -->
<g id="Node000007" class="node">
<title>Node7</title>
<g id="a_Node000007"><a xlink:href="FactGroup_8h.html" target="_top" xlink:title=" ">
<polygon fill="white" stroke="#666666" points="1123,-294 1049,-294 1049,-275 1123,-275 1123,-294"/>
<text text-anchor="middle" x="1086" y="-282" font-family="Helvetica,sans-Serif" font-size="10.00">FactGroup.h</text>
</a>
</g>
</g>
<!-- Node1&#45;&gt;Node7 -->
<g id="edge6_Node000001_Node000007" class="edge">
<title>Node1&#45;&gt;Node7</title>
<g id="a_edge6_Node000001_Node000007"><a xlink:title=" ">
<path fill="none" stroke="#63b8ff" d="M1036.73,-329.84C1046.36,-321.17 1058.69,-310.08 1068.61,-301.15"/>
<polygon fill="#63b8ff" stroke="#63b8ff" points="1071.17,-303.56 1076.26,-294.27 1066.49,-298.35 1071.17,-303.56"/>
</a>
</g>
</g>
<!-- Node12 -->
<g id="Node000012" class="node">
<title>Node12</title>
<g id="a_Node000012"><a xlink:title=" ">
<polygon fill="#e0e0e0" stroke="#999999" points="722.5,-129 533.5,-129 533.5,-110 722.5,-110 722.5,-129"/>
<text text-anchor="middle" x="628" y="-117" font-family="Helvetica,sans-Serif" font-size="10.00">QtQmlIntegration/QtQmlIntegration</text>
</a>
</g>
</g>
<!-- Node1&#45;&gt;Node12 -->
<g id="edge49_Node000001_Node000012" class="edge">
<title>Node1&#45;&gt;Node12</title>
<g id="a_edge49_Node000001_Node000012"><a xlink:title=" ">
<path fill="none" stroke="#63b8ff" d="M956.29,-329.98C888.29,-313.73 779.43,-283.39 693,-239 656.55,-220.28 637.41,-220.61 619,-184 611.9,-169.87 615.45,-151.87 620.01,-138.65"/>
<polygon fill="#63b8ff" stroke="#63b8ff" points="623.31,-139.82 623.71,-129.23 616.8,-137.26 623.31,-139.82"/>
</a>
</g>
</g>
<!-- Node24 -->
<g id="Node000024" class="node">
<title>Node24</title>
<g id="a_Node000024"><a xlink:href="QGCVideoStreamInfo_8h.html" target="_top" xlink:title=" ">
<polygon fill="white" stroke="#666666" points="523.5,-184 394.5,-184 394.5,-165 523.5,-165 523.5,-184"/>
<text text-anchor="middle" x="459" y="-172" font-family="Helvetica,sans-Serif" font-size="10.00">QGCVideoStreamInfo.h</text>
</a>
</g>
</g>
<!-- Node1&#45;&gt;Node24 -->
<g id="edge33_Node000001_Node000024" class="edge">
<title>Node1&#45;&gt;Node24</title>
<g id="a_edge33_Node000001_Node000024"><a xlink:title=" ">
<path fill="none" stroke="#63b8ff" d="M944.6,-343.88C826.07,-342.42 604.58,-334.18 538,-294 499.5,-270.77 475.83,-220.74 465.35,-193.71"/>
<polygon fill="#63b8ff" stroke="#63b8ff" points="468.62,-192.45 461.87,-184.28 462.05,-194.88 468.62,-192.45"/>
</a>
</g>
</g>
<!-- Node29 -->
<g id="Node000029" class="node">
<title>Node29</title>
<g id="a_Node000029"><a xlink:href="QmlObjectListModel_8h.html" target="_top" xlink:title=" ">
<polygon fill="white" stroke="#666666" points="333.5,-294 208.5,-294 208.5,-275 333.5,-275 333.5,-294"/>
<text text-anchor="middle" x="271" y="-282" font-family="Helvetica,sans-Serif" font-size="10.00">QmlObjectListModel.h</text>
</a>
</g>
</g>
<!-- Node1&#45;&gt;Node29 -->
<g id="edge42_Node000001_Node000029" class="edge">
<title>Node1&#45;&gt;Node29</title>
<g id="a_edge42_Node000001_Node000029"><a xlink:title=" ">
<path fill="none" stroke="#63b8ff" d="M944.96,-338.07C800.09,-326.77 486.29,-302.29 343.9,-291.19"/>
<polygon fill="#63b8ff" stroke="#63b8ff" points="343.78,-287.67 333.54,-290.38 343.24,-294.65 343.78,-287.67"/>
</a>
</g>
</g>
<!-- Node7&#45;&gt;Node2 -->
<g id="edge7_Node000007_Node000002" class="edge">
<title>Node7&#45;&gt;Node2</title>
<g id="a_edge7_Node000007_Node000002"><a xlink:title=" ">
<path fill="none" stroke="#63b8ff" d="M1048.73,-283.01C884.07,-280.67 228.6,-269.46 198,-239 174.67,-215.78 181.68,-195.1 195,-165 200.32,-152.97 210.68,-142.8 220.51,-135.24"/>
<polygon fill="#63b8ff" stroke="#63b8ff" points="222.76,-137.93 228.87,-129.27 218.7,-132.23 222.76,-137.93"/>
</a>
</g>
</g>
<!-- Node8 -->
<g id="Node000008" class="node">
<title>Node8</title>
<g id="a_Node000008"><a xlink:title=" ">
<polygon fill="#e0e0e0" stroke="#999999" points="1418.5,-129 1311.5,-129 1311.5,-110 1418.5,-110 1418.5,-129"/>
<text text-anchor="middle" x="1365" y="-117" font-family="Helvetica,sans-Serif" font-size="10.00">QtCore/QJsonArray</text>
</a>
</g>
</g>
<!-- Node7&#45;&gt;Node8 -->
<g id="edge8_Node000007_Node000008" class="edge">
<title>Node7&#45;&gt;Node8</title>
<g id="a_edge8_Node000007_Node000008"><a xlink:title=" ">
<path fill="none" stroke="#63b8ff" d="M1084.96,-274.98C1083.83,-261.64 1083.69,-235.71 1097,-220 1128.35,-183.01 1154.48,-200.71 1200,-184 1246.87,-166.79 1300.8,-145.81 1333.89,-132.8"/>
<polygon fill="#63b8ff" stroke="#63b8ff" points="1335.44,-135.96 1343.46,-129.04 1332.87,-129.44 1335.44,-135.96"/>
</a>
</g>
</g>
<!-- Node9 -->
<g id="Node000009" class="node">
<title>Node9</title>
<g id="a_Node000009"><a xlink:title=" ">
<polygon fill="#e0e0e0" stroke="#999999" points="1188,-239 1106,-239 1106,-220 1188,-220 1188,-239"/>
<text text-anchor="middle" x="1147" y="-227" font-family="Helvetica,sans-Serif" font-size="10.00">QtCore/QMap</text>
</a>
</g>
</g>
<!-- Node7&#45;&gt;Node9 -->
<g id="edge9_Node000007_Node000009" class="edge">
<title>Node7&#45;&gt;Node9</title>
<g id="a_edge9_Node000007_Node000009"><a xlink:title=" ">
<path fill="none" stroke="#63b8ff" d="M1095.8,-274.98C1104.82,-267.15 1118.41,-255.34 1129.32,-245.86"/>
<polygon fill="#63b8ff" stroke="#63b8ff" points="1131.77,-248.37 1137.02,-239.17 1127.18,-243.09 1131.77,-248.37"/>
</a>
</g>
</g>
<!-- Node10 -->
<g id="Node000010" class="node">
<title>Node10</title>
<g id="a_Node000010"><a xlink:title=" ">
<polygon fill="#e0e0e0" stroke="#999999" points="1313.5,-239 1206.5,-239 1206.5,-220 1313.5,-220 1313.5,-239"/>
<text text-anchor="middle" x="1260" y="-227" font-family="Helvetica,sans-Serif" font-size="10.00">QtCore/QStringList</text>
</a>
</g>
</g>
<!-- Node7&#45;&gt;Node10 -->
<g id="edge10_Node000007_Node000010" class="edge">
<title>Node7&#45;&gt;Node10</title>
<g id="a_edge10_Node000007_Node000010"><a xlink:title=" ">
<path fill="none" stroke="#63b8ff" d="M1113.96,-274.98C1143.3,-266.05 1189.6,-251.94 1222.19,-242.02"/>
<polygon fill="#63b8ff" stroke="#63b8ff" points="1223.28,-245.34 1231.82,-239.08 1221.24,-238.65 1223.28,-245.34"/>
</a>
</g>
</g>
<!-- Node11 -->
<g id="Node000011" class="node">
<title>Node11</title>
<g id="a_Node000011"><a xlink:title=" ">
<polygon fill="#e0e0e0" stroke="#999999" points="1420.5,-239 1331.5,-239 1331.5,-220 1420.5,-220 1420.5,-239"/>
<text text-anchor="middle" x="1376" y="-227" font-family="Helvetica,sans-Serif" font-size="10.00">QtCore/QTimer</text>
</a>
</g>
</g>
<!-- Node7&#45;&gt;Node11 -->
<g id="edge11_Node000007_Node000011" class="edge">
<title>Node7&#45;&gt;Node11</title>
<g id="a_edge11_Node000007_Node000011"><a xlink:title=" ">
<path fill="none" stroke="#63b8ff" d="M1123.16,-276.63C1126.15,-276.08 1129.12,-275.53 1132,-275 1197.18,-263.03 1272.17,-249.37 1321.62,-240.38"/>
<polygon fill="#63b8ff" stroke="#63b8ff" points="1322.26,-243.82 1331.47,-238.59 1321.01,-236.93 1322.26,-243.82"/>
</a>
</g>
</g>
<!-- Node7&#45;&gt;Node12 -->
<g id="edge12_Node000007_Node000012" class="edge">
<title>Node7&#45;&gt;Node12</title>
<g id="a_edge12_Node000007_Node000012"><a xlink:title=" ">
<path fill="none" stroke="#63b8ff" d="M1048.67,-281.01C949.8,-273.59 685.07,-248.01 631,-184 620.66,-171.76 621.08,-152.98 623.39,-139.01"/>
<polygon fill="#63b8ff" stroke="#63b8ff" points="626.85,-139.57 625.47,-129.06 620,-138.13 626.85,-139.57"/>
</a>
</g>
</g>
<!-- Node13 -->
<g id="Node000013" class="node">
<title>Node13</title>
<g id="a_Node000013"><a xlink:href="Fact_8h.html" target="_top" xlink:title=" ">
<polygon fill="white" stroke="#666666" points="988.5,-239 943.5,-239 943.5,-220 988.5,-220 988.5,-239"/>
<text text-anchor="middle" x="966" y="-227" font-family="Helvetica,sans-Serif" font-size="10.00">Fact.h</text>
</a>
</g>
</g>
<!-- Node7&#45;&gt;Node13 -->
<g id="edge13_Node000007_Node000013" class="edge">
<title>Node7&#45;&gt;Node13</title>
<g id="a_edge13_Node000007_Node000013"><a xlink:title=" ">
<path fill="none" stroke="#63b8ff" d="M1066.72,-274.98C1047.33,-266.42 1017.19,-253.11 994.93,-243.28"/>
<polygon fill="#63b8ff" stroke="#63b8ff" points="996.19,-240.01 985.63,-239.17 993.36,-246.41 996.19,-240.01"/>
</a>
</g>
</g>
<!-- Node21 -->
<g id="Node000021" class="node">
<title>Node21</title>
<g id="a_Node000021"><a xlink:href="MAVLinkMessageType_8h.html" target="_top" xlink:title=" ">
<polygon fill="white" stroke="#666666" points="1077,-74 943,-74 943,-55 1077,-55 1077,-74"/>
<text text-anchor="middle" x="1010" y="-62" font-family="Helvetica,sans-Serif" font-size="10.00">MAVLinkMessageType.h</text>
</a>
</g>
</g>
<!-- Node7&#45;&gt;Node21 -->
<g id="edge30_Node000007_Node000021" class="edge">
<title>Node7&#45;&gt;Node21</title>
<g id="a_edge30_Node000007_Node000021"><a xlink:title=" ">
<path fill="none" stroke="#63b8ff" d="M1123.12,-276.43C1126.12,-275.93 1129.11,-275.44 1132,-275 1197.94,-264.93 1385.75,-288.91 1430,-239 1451.61,-214.62 1550.31,-243.56 1428,-110 1405.45,-85.38 1201.59,-73.22 1087.12,-68.29"/>
<polygon fill="#63b8ff" stroke="#63b8ff" points="1087.15,-64.79 1077.01,-67.86 1086.86,-71.78 1087.15,-64.79"/>
</a>
</g>
</g>
<!-- Node13&#45;&gt;Node2 -->
<g id="edge14_Node000013_Node000002" class="edge">
<title>Node13&#45;&gt;Node2</title>
<g id="a_edge14_Node000013_Node000002"><a xlink:title=" ">
<path fill="none" stroke="#63b8ff" d="M943.39,-227.93C849.86,-225.4 493.1,-213.92 385,-184 366.8,-178.96 364.12,-172.97 347,-165 322.72,-153.7 294.81,-141.7 274.17,-133.01"/>
<polygon fill="#63b8ff" stroke="#63b8ff" points="275.25,-129.67 264.67,-129.03 272.54,-136.12 275.25,-129.67"/>
</a>
</g>
</g>
<!-- Node13&#45;&gt;Node3 -->
<g id="edge16_Node000013_Node000003" class="edge">
<title>Node13&#45;&gt;Node3</title>
<g id="a_edge16_Node000013_Node000003"><a xlink:title=" ">
<path fill="none" stroke="#63b8ff" d="M965.91,-219.79C965.29,-206.17 962.07,-179.88 947,-165 932.7,-150.88 885.84,-138.67 847.18,-130.63"/>
<polygon fill="#63b8ff" stroke="#63b8ff" points="847.54,-127.13 837.05,-128.58 846.15,-133.99 847.54,-127.13"/>
</a>
</g>
</g>
<!-- Node13&#45;&gt;Node12 -->
<g id="edge20_Node000013_Node000012" class="edge">
<title>Node13&#45;&gt;Node12</title>
<g id="a_edge20_Node000013_Node000012"><a xlink:title=" ">
<path fill="none" stroke="#63b8ff" d="M943.12,-228.41C877.67,-227.69 691.55,-222.24 647,-184 634.18,-173 629.82,-153.74 628.43,-139.31"/>
<polygon fill="#63b8ff" stroke="#63b8ff" points="631.9,-138.81 627.84,-129.02 624.91,-139.2 631.9,-138.81"/>
</a>
</g>
</g>
<!-- Node14 -->
<g id="Node000014" class="node">
<title>Node14</title>
<g id="a_Node000014"><a xlink:title=" ">
<polygon fill="#e0e0e0" stroke="#999999" points="779.5,-184 656.5,-184 656.5,-165 779.5,-165 779.5,-184"/>
<text text-anchor="middle" x="718" y="-172" font-family="Helvetica,sans-Serif" font-size="10.00">QtCore/QMutexLocker</text>
</a>
</g>
</g>
<!-- Node13&#45;&gt;Node14 -->
<g id="edge15_Node000013_Node000014" class="edge">
<title>Node13&#45;&gt;Node14</title>
<g id="a_edge15_Node000013_Node000014"><a xlink:title=" ">
<path fill="none" stroke="#63b8ff" d="M943.11,-223.61C903.46,-215.13 821.12,-197.54 767.78,-186.14"/>
<polygon fill="#63b8ff" stroke="#63b8ff" points="768.36,-182.68 757.85,-184.02 766.89,-189.53 768.36,-182.68"/>
</a>
</g>
</g>
<!-- Node15 -->
<g id="Node000015" class="node">
<title>Node15</title>
<g id="a_Node000015"><a xlink:title=" ">
<polygon fill="#e0e0e0" stroke="#999999" points="938,-184 798,-184 798,-165 938,-165 938,-184"/>
<text text-anchor="middle" x="868" y="-172" font-family="Helvetica,sans-Serif" font-size="10.00">QtCore/QRecursiveMutex</text>
</a>
</g>
</g>
<!-- Node13&#45;&gt;Node15 -->
<g id="edge17_Node000013_Node000015" class="edge">
<title>Node13&#45;&gt;Node15</title>
<g id="a_edge17_Node000013_Node000015"><a xlink:title=" ">
<path fill="none" stroke="#63b8ff" d="M950.25,-219.98C934.77,-211.61 910.91,-198.7 892.86,-188.95"/>
<polygon fill="#63b8ff" stroke="#63b8ff" points="894.49,-185.85 884.03,-184.17 891.16,-192.01 894.49,-185.85"/>
</a>
</g>
</g>
<!-- Node16 -->
<g id="Node000016" class="node">
<title>Node16</title>
<g id="a_Node000016"><a xlink:title=" ">
<polygon fill="#e0e0e0" stroke="#999999" points="1293.5,-129 1204.5,-129 1204.5,-110 1293.5,-110 1293.5,-129"/>
<text text-anchor="middle" x="1249" y="-117" font-family="Helvetica,sans-Serif" font-size="10.00">QtCore/QString</text>
</a>
</g>
</g>
<!-- Node13&#45;&gt;Node16 -->
<g id="edge18_Node000013_Node000016" class="edge">
<title>Node13&#45;&gt;Node16</title>
<g id="a_edge18_Node000013_Node000016"><a xlink:title=" ">
<path fill="none" stroke="#63b8ff" d="M988.78,-227.1C1028.02,-223.93 1110.1,-213.99 1172,-184 1196.21,-172.27 1219.37,-151.41 1233.86,-136.81"/>
<polygon fill="#63b8ff" stroke="#63b8ff" points="1236.54,-139.07 1240.96,-129.44 1231.5,-134.21 1236.54,-139.07"/>
</a>
</g>
</g>
<!-- Node17 -->
<g id="Node000017" class="node">
<title>Node17</title>
<g id="a_Node000017"><a xlink:title=" ">
<polygon fill="#e0e0e0" stroke="#999999" points="950.5,-129 855.5,-129 855.5,-110 950.5,-110 950.5,-129"/>
<text text-anchor="middle" x="903" y="-117" font-family="Helvetica,sans-Serif" font-size="10.00">QtCore/QVariant</text>
</a>
</g>
</g>
<!-- Node13&#45;&gt;Node17 -->
<g id="edge19_Node000013_Node000017" class="edge">
<title>Node13&#45;&gt;Node17</title>
<g id="a_edge19_Node000013_Node000017"><a xlink:title=" ">
<path fill="none" stroke="#63b8ff" d="M971.65,-219.69C979.11,-206.84 990.16,-182.6 980,-165 971.58,-150.41 956.35,-140.17 941.65,-133.23"/>
<polygon fill="#63b8ff" stroke="#63b8ff" points="942.71,-129.87 932.14,-129.13 939.93,-136.3 942.71,-129.87"/>
</a>
</g>
</g>
<!-- Node18 -->
<g id="Node000018" class="node">
<title>Node18</title>
<g id="a_Node000018"><a xlink:href="FactMetaData_8h.html" target="_top" xlink:title=" ">
<polygon fill="white" stroke="#666666" points="1163.5,-184 1070.5,-184 1070.5,-165 1163.5,-165 1163.5,-184"/>
<text text-anchor="middle" x="1117" y="-172" font-family="Helvetica,sans-Serif" font-size="10.00">FactMetaData.h</text>
</a>
</g>
</g>
<!-- Node13&#45;&gt;Node18 -->
<g id="edge21_Node000013_Node000018" class="edge">
<title>Node13&#45;&gt;Node18</title>
<g id="a_edge21_Node000013_Node000018"><a xlink:title=" ">
<path fill="none" stroke="#63b8ff" d="M988.61,-220.57C1013.63,-211.78 1054.23,-197.53 1083.07,-187.41"/>
<polygon fill="#63b8ff" stroke="#63b8ff" points="1084.46,-190.63 1092.74,-184.02 1082.14,-184.03 1084.46,-190.63"/>
</a>
</g>
</g>
<!-- Node18&#45;&gt;Node2 -->
<g id="edge23_Node000018_Node000002" class="edge">
<title>Node18&#45;&gt;Node2</title>
<g id="a_edge23_Node000018_Node000002"><a xlink:title=" ">
<path fill="none" stroke="#63b8ff" d="M1070.36,-171.18C926.61,-163.97 490.65,-141.77 325.98,-129.02"/>
<polygon fill="#63b8ff" stroke="#63b8ff" points="325.78,-125.5 315.54,-128.2 325.23,-132.47 325.78,-125.5"/>
</a>
</g>
</g>
<!-- Node18&#45;&gt;Node3 -->
<g id="edge26_Node000018_Node000003" class="edge">
<title>Node18&#45;&gt;Node3</title>
<g id="a_edge26_Node000018_Node000003"><a xlink:title=" ">
<path fill="none" stroke="#63b8ff" d="M1070.29,-165.91C1011.42,-156.34 910.32,-139.9 847.26,-129.65"/>
<polygon fill="#63b8ff" stroke="#63b8ff" points="847.53,-126.14 837.09,-127.99 846.4,-133.05 847.53,-126.14"/>
</a>
</g>
</g>
<!-- Node18&#45;&gt;Node8 -->
<g id="edge24_Node000018_Node000008" class="edge">
<title>Node18&#45;&gt;Node8</title>
<g id="a_edge24_Node000018_Node000008"><a xlink:title=" ">
<path fill="none" stroke="#63b8ff" d="M1156.85,-164.98C1199.83,-155.8 1268.37,-141.15 1314.96,-131.19"/>
<polygon fill="#63b8ff" stroke="#63b8ff" points="1315.79,-134.59 1324.84,-129.08 1314.33,-127.75 1315.79,-134.59"/>
</a>
</g>
</g>
<!-- Node18&#45;&gt;Node12 -->
<g id="edge29_Node000018_Node000012" class="edge">
<title>Node18&#45;&gt;Node12</title>
<g id="a_edge29_Node000018_Node000012"><a xlink:title=" ">
<path fill="none" stroke="#63b8ff" d="M1070.11,-168.42C988.91,-159.62 820.85,-141.4 716.93,-130.14"/>
<polygon fill="#63b8ff" stroke="#63b8ff" points="717.08,-126.63 706.77,-129.04 716.33,-133.59 717.08,-126.63"/>
</a>
</g>
</g>
<!-- Node18&#45;&gt;Node16 -->
<g id="edge27_Node000018_Node000016" class="edge">
<title>Node18&#45;&gt;Node16</title>
<g id="a_edge27_Node000018_Node000016"><a xlink:title=" ">
<path fill="none" stroke="#63b8ff" d="M1138.21,-164.98C1159.73,-156.34 1193.28,-142.87 1217.83,-133.02"/>
<polygon fill="#63b8ff" stroke="#63b8ff" points="1219.43,-136.14 1227.41,-129.17 1216.82,-129.65 1219.43,-136.14"/>
</a>
</g>
</g>
<!-- Node18&#45;&gt;Node17 -->
<g id="edge28_Node000018_Node000017" class="edge">
<title>Node18&#45;&gt;Node17</title>
<g id="a_edge28_Node000018_Node000017"><a xlink:title=" ">
<path fill="none" stroke="#63b8ff" d="M1082.62,-164.98C1045.91,-155.89 987.62,-141.46 947.45,-131.51"/>
<polygon fill="#63b8ff" stroke="#63b8ff" points="948.2,-128.09 937.65,-129.08 946.52,-134.88 948.2,-128.09"/>
</a>
</g>
</g>
<!-- Node19 -->
<g id="Node000019" class="node">
<title>Node19</title>
<g id="a_Node000019"><a xlink:title=" ">
<polygon fill="#e0e0e0" stroke="#999999" points="1055,-129 969,-129 969,-110 1055,-110 1055,-129"/>
<text text-anchor="middle" x="1012" y="-117" font-family="Helvetica,sans-Serif" font-size="10.00">QtCore/QHash</text>
</a>
</g>
</g>
<!-- Node18&#45;&gt;Node19 -->
<g id="edge22_Node000018_Node000019" class="edge">
<title>Node18&#45;&gt;Node19</title>
<g id="a_edge22_Node000018_Node000019"><a xlink:title=" ">
<path fill="none" stroke="#63b8ff" d="M1100.13,-164.98C1083.39,-156.54 1057.5,-143.47 1038.11,-133.68"/>
<polygon fill="#63b8ff" stroke="#63b8ff" points="1039.68,-130.55 1029.18,-129.17 1036.53,-136.8 1039.68,-130.55"/>
</a>
</g>
</g>
<!-- Node20 -->
<g id="Node000020" class="node">
<title>Node20</title>
<g id="a_Node000020"><a xlink:title=" ">
<polygon fill="#e0e0e0" stroke="#999999" points="1186.5,-129 1073.5,-129 1073.5,-110 1186.5,-110 1186.5,-129"/>
<text text-anchor="middle" x="1130" y="-117" font-family="Helvetica,sans-Serif" font-size="10.00">QtCore/QJsonObject</text>
</a>
</g>
</g>
<!-- Node18&#45;&gt;Node20 -->
<g id="edge25_Node000018_Node000020" class="edge">
<title>Node18&#45;&gt;Node20</title>
<g id="a_edge25_Node000018_Node000020"><a xlink:title=" ">
<path fill="none" stroke="#63b8ff" d="M1119.15,-164.75C1120.87,-157.72 1123.35,-147.62 1125.5,-138.84"/>
<polygon fill="#63b8ff" stroke="#63b8ff" points="1128.91,-139.63 1127.89,-129.09 1122.11,-137.97 1128.91,-139.63"/>
</a>
</g>
</g>
<!-- Node22 -->
<g id="Node000022" class="node">
<title>Node22</title>
<g id="a_Node000022"><a xlink:title=" ">
<polygon fill="#e0e0e0" stroke="#999999" points="989.5,-19 936.5,-19 936.5,0 989.5,0 989.5,-19"/>
<text text-anchor="middle" x="963" y="-7" font-family="Helvetica,sans-Serif" font-size="10.00">stdint.h</text>
</a>
</g>
</g>
<!-- Node21&#45;&gt;Node22 -->
<g id="edge31_Node000021_Node000022" class="edge">
<title>Node21&#45;&gt;Node22</title>
<g id="a_edge31_Node000021_Node000022"><a xlink:title=" ">
<path fill="none" stroke="#63b8ff" d="M1002.24,-54.75C995.53,-47.18 985.66,-36.05 977.49,-26.84"/>
<polygon fill="#63b8ff" stroke="#63b8ff" points="979.87,-24.25 970.62,-19.09 974.63,-28.89 979.87,-24.25"/>
</a>
</g>
</g>
<!-- Node23 -->
<g id="Node000023" class="node">
<title>Node23</title>
<g id="a_Node000023"><a xlink:title=" ">
<polygon fill="#e0e0e0" stroke="#999999" points="1106,-19 1008,-19 1008,0 1106,0 1106,-19"/>
<text text-anchor="middle" x="1057" y="-7" font-family="Helvetica,sans-Serif" font-size="10.00">mavlink_types.h</text>
</a>
</g>
</g>
<!-- Node21&#45;&gt;Node23 -->
<g id="edge32_Node000021_Node000023" class="edge">
<title>Node21&#45;&gt;Node23</title>
<g id="a_edge32_Node000021_Node000023"><a xlink:title=" ">
<path fill="none" stroke="#63b8ff" d="M1017.76,-54.75C1024.47,-47.18 1034.34,-36.05 1042.51,-26.84"/>
<polygon fill="#63b8ff" stroke="#63b8ff" points="1045.37,-28.89 1049.38,-19.09 1040.13,-24.25 1045.37,-28.89"/>
</a>
</g>
</g>
<!-- Node24&#45;&gt;Node2 -->
<g id="edge34_Node000024_Node000002" class="edge">
<title>Node24&#45;&gt;Node2</title>
<g id="a_edge34_Node000024_Node000002"><a xlink:title=" ">
<path fill="none" stroke="#63b8ff" d="M424.46,-164.98C387.58,-155.89 329.01,-141.46 288.66,-131.51"/>
<polygon fill="#63b8ff" stroke="#63b8ff" points="289.36,-128.08 278.81,-129.08 287.69,-134.87 289.36,-128.08"/>
</a>
</g>
</g>
<!-- Node24&#45;&gt;Node3 -->
<g id="edge35_Node000024_Node000003" class="edge">
<title>Node24&#45;&gt;Node3</title>
<g id="a_edge35_Node000024_Node000003"><a xlink:title=" ">
<path fill="none" stroke="#63b8ff" d="M512.34,-164.98C573.29,-155.26 672.59,-139.4 734.73,-129.48"/>
<polygon fill="#63b8ff" stroke="#63b8ff" points="735.43,-132.92 744.75,-127.88 734.33,-126 735.43,-132.92"/>
</a>
</g>
</g>
<!-- Node24&#45;&gt;Node12 -->
<g id="edge37_Node000024_Node000012" class="edge">
<title>Node24&#45;&gt;Node12</title>
<g id="a_edge37_Node000024_Node000012"><a xlink:title=" ">
<path fill="none" stroke="#63b8ff" d="M486.15,-164.98C514.53,-156.09 559.23,-142.07 590.86,-132.15"/>
<polygon fill="#63b8ff" stroke="#63b8ff" points="592.14,-135.41 600.63,-129.08 590.05,-128.73 592.14,-135.41"/>
</a>
</g>
</g>
<!-- Node25 -->
<g id="Node000025" class="node">
<title>Node25</title>
<g id="a_Node000025"><a xlink:title=" ">
<polygon fill="#e0e0e0" stroke="#999999" points="515.5,-129 434.5,-129 434.5,-110 515.5,-110 515.5,-129"/>
<text text-anchor="middle" x="475" y="-117" font-family="Helvetica,sans-Serif" font-size="10.00">QtCore/QSize</text>
</a>
</g>
</g>
<!-- Node24&#45;&gt;Node25 -->
<g id="edge36_Node000024_Node000025" class="edge">
<title>Node24&#45;&gt;Node25</title>
<g id="a_edge36_Node000024_Node000025"><a xlink:title=" ">
<path fill="none" stroke="#63b8ff" d="M461.64,-164.75C463.76,-157.72 466.81,-147.62 469.46,-138.84"/>
<polygon fill="#63b8ff" stroke="#63b8ff" points="472.87,-139.67 472.41,-129.09 466.17,-137.65 472.87,-139.67"/>
</a>
</g>
</g>
<!-- Node26 -->
<g id="Node000026" class="node">
<title>Node26</title>
<g id="a_Node000026"><a xlink:href="MAVLinkLib_8h.html" target="_top" xlink:title=" ">
<polygon fill="white" stroke="#666666" points="416,-129 334,-129 334,-110 416,-110 416,-129"/>
<text text-anchor="middle" x="375" y="-117" font-family="Helvetica,sans-Serif" font-size="10.00">MAVLinkLib.h</text>
</a>
</g>
</g>
<!-- Node24&#45;&gt;Node26 -->
<g id="edge38_Node000024_Node000026" class="edge">
<title>Node24&#45;&gt;Node26</title>
<g id="a_edge38_Node000024_Node000026"><a xlink:title=" ">
<path fill="none" stroke="#63b8ff" d="M445.5,-164.98C432.6,-156.84 412.9,-144.41 397.6,-134.76"/>
<polygon fill="#63b8ff" stroke="#63b8ff" points="399.07,-131.55 388.74,-129.17 395.33,-137.47 399.07,-131.55"/>
</a>
</g>
</g>
<!-- Node26&#45;&gt;Node21 -->
<g id="edge39_Node000026_Node000021" class="edge">
<title>Node26&#45;&gt;Node21</title>
<g id="a_edge39_Node000026_Node000021"><a xlink:title=" ">
<path fill="none" stroke="#63b8ff" d="M416.16,-111.19C419.14,-110.76 422.12,-110.35 425,-110 606.12,-87.76 820.25,-74.86 932.47,-69.11"/>
<polygon fill="#63b8ff" stroke="#63b8ff" points="932.87,-72.6 942.68,-68.59 932.52,-65.6 932.87,-72.6"/>
</a>
</g>
</g>
<!-- Node27 -->
<g id="Node000027" class="node">
<title>Node27</title>
<g id="a_Node000027"><a xlink:title=" ">
<polygon fill="#e0e0e0" stroke="#999999" points="363,-74 307,-74 307,-55 363,-55 363,-74"/>
<text text-anchor="middle" x="335" y="-62" font-family="Helvetica,sans-Serif" font-size="10.00">stddef.h</text>
</a>
</g>
</g>
<!-- Node26&#45;&gt;Node27 -->
<g id="edge40_Node000026_Node000027" class="edge">
<title>Node26&#45;&gt;Node27</title>
<g id="a_edge40_Node000026_Node000027"><a xlink:title=" ">
<path fill="none" stroke="#63b8ff" d="M368.39,-109.75C362.74,-102.26 354.46,-91.28 347.55,-82.13"/>
<polygon fill="#63b8ff" stroke="#63b8ff" points="350.3,-79.96 341.48,-74.09 344.71,-84.18 350.3,-79.96"/>
</a>
</g>
</g>
<!-- Node28 -->
<g id="Node000028" class="node">
<title>Node28</title>
<g id="a_Node000028"><a xlink:title=" ">
<polygon fill="#e0e0e0" stroke="#999999" points="446.5,-74 381.5,-74 381.5,-55 446.5,-55 446.5,-74"/>
<text text-anchor="middle" x="414" y="-62" font-family="Helvetica,sans-Serif" font-size="10.00">mavlink.h</text>
</a>
</g>
</g>
<!-- Node26&#45;&gt;Node28 -->
<g id="edge41_Node000026_Node000028" class="edge">
<title>Node26&#45;&gt;Node28</title>
<g id="a_edge41_Node000026_Node000028"><a xlink:title=" ">
<path fill="none" stroke="#63b8ff" d="M381.44,-109.75C386.89,-102.34 394.86,-91.5 401.56,-82.41"/>
<polygon fill="#63b8ff" stroke="#63b8ff" points="404.57,-84.22 407.68,-74.09 398.93,-80.07 404.57,-84.22"/>
</a>
</g>
</g>
<!-- Node29&#45;&gt;Node2 -->
<g id="edge48_Node000029_Node000002" class="edge">
<title>Node29&#45;&gt;Node2</title>
<g id="a_edge48_Node000029_Node000002"><a xlink:title=" ">
<path fill="none" stroke="#63b8ff" d="M217.88,-274.97C196.83,-268.7 174.65,-257.83 162,-239 143.66,-211.7 145.18,-193.26 162,-165 170.92,-150.02 186.84,-139.76 202.29,-132.91"/>
<polygon fill="#63b8ff" stroke="#63b8ff" points="203.83,-136.07 211.79,-129.08 201.2,-129.58 203.83,-136.07"/>
</a>
</g>
</g>
<!-- Node30 -->
<g id="Node000030" class="node">
<title>Node30</title>
<g id="a_Node000030"><a xlink:href="ObjectListModelBase_8h.html" target="_top" xlink:title=" ">
<polygon fill="white" stroke="#666666" points="335,-239 207,-239 207,-220 335,-220 335,-239"/>
<text text-anchor="middle" x="271" y="-227" font-family="Helvetica,sans-Serif" font-size="10.00">ObjectListModelBase.h</text>
</a>
</g>
</g>
<!-- Node29&#45;&gt;Node30 -->
<g id="edge43_Node000029_Node000030" class="edge">
<title>Node29&#45;&gt;Node30</title>
<g id="a_edge43_Node000029_Node000030"><a xlink:title=" ">
<path fill="none" stroke="#63b8ff" d="M271,-274.75C271,-267.8 271,-257.85 271,-249.13"/>
<polygon fill="#63b8ff" stroke="#63b8ff" points="274.5,-249.09 271,-239.09 267.5,-249.09 274.5,-249.09"/>
</a>
</g>
</g>
<!-- Node31 -->
<g id="Node000031" class="node">
<title>Node31</title>
<g id="a_Node000031"><a xlink:href="ObjectItemModelBase_8h.html" target="_top" xlink:title=" ">
<polygon fill="white" stroke="#666666" points="338,-184 204,-184 204,-165 338,-165 338,-184"/>
<text text-anchor="middle" x="271" y="-172" font-family="Helvetica,sans-Serif" font-size="10.00">ObjectItemModelBase.h</text>
</a>
</g>
</g>
<!-- Node30&#45;&gt;Node31 -->
<g id="edge44_Node000030_Node000031" class="edge">
<title>Node30&#45;&gt;Node31</title>
<g id="a_edge44_Node000030_Node000031"><a xlink:title=" ">
<path fill="none" stroke="#63b8ff" d="M271,-219.75C271,-212.8 271,-202.85 271,-194.13"/>
<polygon fill="#63b8ff" stroke="#63b8ff" points="274.5,-194.09 271,-184.09 267.5,-194.09 274.5,-194.09"/>
</a>
</g>
</g>
<!-- Node31&#45;&gt;Node2 -->
<g id="edge46_Node000031_Node000002" class="edge">
<title>Node31&#45;&gt;Node2</title>
<g id="a_edge46_Node000031_Node000002"><a xlink:title=" ">
<path fill="none" stroke="#63b8ff" d="M266.54,-164.75C262.88,-157.57 257.59,-147.18 253.05,-138.27"/>
<polygon fill="#63b8ff" stroke="#63b8ff" points="256.03,-136.41 248.38,-129.09 249.8,-139.59 256.03,-136.41"/>
</a>
</g>
</g>
<!-- Node31&#45;&gt;Node12 -->
<g id="edge47_Node000031_Node000012" class="edge">
<title>Node31&#45;&gt;Node12</title>
<g id="a_edge47_Node000031_Node000012"><a xlink:title=" ">
<path fill="none" stroke="#63b8ff" d="M328.36,-164.98C391.63,-155.59 493.36,-140.49 560.44,-130.53"/>
<polygon fill="#63b8ff" stroke="#63b8ff" points="561.11,-133.97 570.49,-129.04 560.08,-127.04 561.11,-133.97"/>
</a>
</g>
</g>
<!-- Node32 -->
<g id="Node000032" class="node">
<title>Node32</title>
<g id="a_Node000032"><a xlink:title=" ">
<polygon fill="#e0e0e0" stroke="#999999" points="154,-129 0,-129 0,-110 154,-110 154,-129"/>
<text text-anchor="middle" x="77" y="-117" font-family="Helvetica,sans-Serif" font-size="10.00">QtCore/QAbstractItemModel</text>
</a>
</g>
</g>
<!-- Node31&#45;&gt;Node32 -->
<g id="edge45_Node000031_Node000032" class="edge">
<title>Node31&#45;&gt;Node32</title>
<g id="a_edge45_Node000031_Node000032"><a xlink:title=" ">
<path fill="none" stroke="#63b8ff" d="M239.83,-164.98C206.84,-155.97 154.6,-141.7 118.23,-131.76"/>
<polygon fill="#63b8ff" stroke="#63b8ff" points="118.98,-128.34 108.41,-129.08 117.14,-135.09 118.98,-128.34"/>
</a>
</g>
</g>
</g>
</svg>

<g id="navigator" transform="translate(0 0)" fill="#404254">
  <rect fill="#f2f5e9" fill-opacity="0.5" stroke="#606060" stroke-width=".5" x="0" y="0" width="60" height="60"/>
  <use id="zoomplus" xlink:href="#zoomPlus" x="17" y="9" onmousedown="handleZoom(evt,'in')"/>
  <use id="zoomminus" xlink:href="#zoomMin" x="42" y="9" onmousedown="handleZoom(evt,'out')"/>
  <use id="reset" xlink:href="#resetDef" x="30" y="36" onmousedown="handleReset()"/>
   <use id="arrowup" xlink:href="#arrowUp" x="0" y="0" onmousedown="handlePan(0,-1)"/>
  <use id="arrowright" xlink:href="#arrowRight" x="0" y="0" onmousedown="handlePan(1,0)"/>
  <use id="arrowdown" xlink:href="#arrowDown" x="0" y="0" onmousedown="handlePan(0,1)"/>
  <use id="arrowleft" xlink:href="#arrowLeft" x="0" y="0" onmousedown="handlePan(-1,0)"/>
</g>
<svg viewBox="0 0 15 15" width="100%" height="30px" preserveAspectRatio="xMaxYMin meet">
 <g id="arrow_out" transform="scale(0.3 0.3)">
  <a xlink:href="MavlinkCameraControlInterface_8h__incl_org.svg" target="_base">
   <rect id="button" ry="5" rx="5" y="6" x="6" height="38" width="38"
        fill="#f2f5e9" fill-opacity="0.5" stroke="#606060" stroke-width="1.0"/>
   <path id="arrow"
     d="M 11.500037,31.436501 C 11.940474,20.09759 22.043105,11.32322 32.158766,21.979434 L 37.068811,17.246167 C 37.068811,17.246167 37.088388,32 37.088388,32 L 22.160133,31.978069 C 22.160133,31.978069 26.997745,27.140456 26.997745,27.140456 C 18.528582,18.264221 13.291696,25.230495 11.500037,31.436501 z"
     style="fill:#404040;"/>
  </a>
 </g>
</svg>

<style type='text/css'>
<![CDATA[
[data-mouse-over-selected='false'] { opacity: 0.7; }
[data-mouse-over-selected='true']  { opacity: 1.0; }
]]>
</style>
<script type="application/ecmascript"><![CDATA[
document.addEventListener('DOMContentLoaded', (event) => {
  highlightEdges();
  highlightAdjacentNodes();
});
]]></script>
</svg>
