<?xml version="1.0" encoding="UTF-8" standalone="no"?>
<!DOCTYPE svg PUBLIC "-//W3C//DTD SVG 1.1//EN"
 "http://www.w3.org/Graphics/SVG/1.1/DTD/svg11.dtd">
<!-- Generated by graphviz version 2.43.0 (0)
 -->
<!-- Title: src/MAVLink/MAVLinkFTP.h Pages: 1 -->
<svg width="1295pt" height="159pt"
 viewBox="0.00 0.00 1295.00 159.00" xmlns="http://www.w3.org/2000/svg" xmlns:xlink="http://www.w3.org/1999/xlink">
<g id="graph0" class="graph" transform="scale(1 1) rotate(0) translate(4 155)">
<title>src/MAVLink/MAVLinkFTP.h</title>
<!-- Node1 -->
<g id="Node000001" class="node">
<title>Node1</title>
<g id="a_Node000001"><a xlink:title=" ">
<polygon fill="#999999" stroke="#666666" points="523.5,-151 377.5,-151 377.5,-132 523.5,-132 523.5,-151"/>
<text text-anchor="middle" x="450.5" y="-139" font-family="Helvetica,sans-Serif" font-size="10.00">src/MAVLink/MAVLinkFTP.h</text>
</a>
</g>
</g>
<!-- Node2 -->
<g id="Node000002" class="node">
<title>Node2</title>
<g id="a_Node000002"><a xlink:href="MockLinkFTP_8h.html" target="_top" xlink:title=" ">
<polygon fill="white" stroke="#666666" points="260,-96 139,-96 139,-66 260,-66 260,-96"/>
<text text-anchor="start" x="147" y="-84" font-family="Helvetica,sans-Serif" font-size="10.00">src/Comms/MockLink</text>
<text text-anchor="middle" x="199.5" y="-73" font-family="Helvetica,sans-Serif" font-size="10.00">/MockLinkFTP.h</text>
</a>
</g>
</g>
<!-- Node1&#45;&gt;Node2 -->
<g id="edge1_Node000001_Node000002" class="edge">
<title>Node1&#45;&gt;Node2</title>
<g id="a_edge1_Node000001_Node000002"><a xlink:title=" ">
<path fill="none" stroke="#63b8ff" d="M404.09,-129.68C363.46,-120.21 304.15,-106.39 259.84,-96.06"/>
<polygon fill="#63b8ff" stroke="#63b8ff" points="403.47,-133.13 414,-131.99 405.06,-126.32 403.47,-133.13"/>
</a>
</g>
</g>
<!-- Node5 -->
<g id="Node000005" class="node">
<title>Node5</title>
<g id="a_Node000005"><a xlink:href="MAVLinkFTP_8cc.html" target="_top" xlink:title=" ">
<polygon fill="white" stroke="#666666" points="525.5,-90.5 375.5,-90.5 375.5,-71.5 525.5,-71.5 525.5,-90.5"/>
<text text-anchor="middle" x="450.5" y="-78.5" font-family="Helvetica,sans-Serif" font-size="10.00">src/MAVLink/MAVLinkFTP.cc</text>
</a>
</g>
</g>
<!-- Node1&#45;&gt;Node5 -->
<g id="edge4_Node000001_Node000005" class="edge">
<title>Node1&#45;&gt;Node5</title>
<g id="a_edge4_Node000001_Node000005"><a xlink:title=" ">
<path fill="none" stroke="#63b8ff" d="M450.5,-121.66C450.5,-111.24 450.5,-98.8 450.5,-90.67"/>
<polygon fill="#63b8ff" stroke="#63b8ff" points="447,-121.87 450.5,-131.87 454,-121.87 447,-121.87"/>
</a>
</g>
</g>
<!-- Node6 -->
<g id="Node000006" class="node">
<title>Node6</title>
<g id="a_Node000006"><a xlink:href="FTPManager_8h.html" target="_top" xlink:title=" ">
<polygon fill="white" stroke="#666666" points="781.5,-90.5 641.5,-90.5 641.5,-71.5 781.5,-71.5 781.5,-90.5"/>
<text text-anchor="middle" x="711.5" y="-78.5" font-family="Helvetica,sans-Serif" font-size="10.00">src/Vehicle/FTPManager.h</text>
</a>
</g>
</g>
<!-- Node1&#45;&gt;Node6 -->
<g id="edge5_Node000001_Node000006" class="edge">
<title>Node1&#45;&gt;Node6</title>
<g id="a_edge5_Node000001_Node000006"><a xlink:title=" ">
<path fill="none" stroke="#63b8ff" d="M498.46,-129.75C548.88,-118.45 627.19,-100.9 673.5,-90.52"/>
<polygon fill="#63b8ff" stroke="#63b8ff" points="497.44,-126.39 488.45,-131.99 498.98,-133.22 497.44,-126.39"/>
</a>
</g>
</g>
<!-- Node3 -->
<g id="Node000003" class="node">
<title>Node3</title>
<g id="a_Node000003"><a xlink:href="MockLink_8cc.html" target="_top" xlink:title=" ">
<polygon fill="white" stroke="#666666" points="121,-30 0,-30 0,0 121,0 121,-30"/>
<text text-anchor="start" x="8" y="-18" font-family="Helvetica,sans-Serif" font-size="10.00">src/Comms/MockLink</text>
<text text-anchor="middle" x="60.5" y="-7" font-family="Helvetica,sans-Serif" font-size="10.00">/MockLink.cc</text>
</a>
</g>
</g>
<!-- Node2&#45;&gt;Node3 -->
<g id="edge2_Node000002_Node000003" class="edge">
<title>Node2&#45;&gt;Node3</title>
<g id="a_edge2_Node000002_Node000003"><a xlink:title=" ">
<path fill="none" stroke="#63b8ff" d="M159.64,-61.65C137.78,-51.58 111.11,-39.3 90.93,-30.01"/>
<polygon fill="#63b8ff" stroke="#63b8ff" points="158.45,-64.95 169,-65.95 161.38,-58.59 158.45,-64.95"/>
</a>
</g>
</g>
<!-- Node4 -->
<g id="Node000004" class="node">
<title>Node4</title>
<g id="a_Node000004"><a xlink:href="MockLinkFTP_8cc.html" target="_top" xlink:title=" ">
<polygon fill="white" stroke="#666666" points="260,-30 139,-30 139,0 260,0 260,-30"/>
<text text-anchor="start" x="147" y="-18" font-family="Helvetica,sans-Serif" font-size="10.00">src/Comms/MockLink</text>
<text text-anchor="middle" x="199.5" y="-7" font-family="Helvetica,sans-Serif" font-size="10.00">/MockLinkFTP.cc</text>
</a>
</g>
</g>
<!-- Node2&#45;&gt;Node4 -->
<g id="edge3_Node000002_Node000004" class="edge">
<title>Node2&#45;&gt;Node4</title>
<g id="a_edge3_Node000002_Node000004"><a xlink:title=" ">
<path fill="none" stroke="#63b8ff" d="M199.5,-55.54C199.5,-46.96 199.5,-37.61 199.5,-30.16"/>
<polygon fill="#63b8ff" stroke="#63b8ff" points="196,-55.8 199.5,-65.8 203,-55.8 196,-55.8"/>
</a>
</g>
</g>
<!-- Node7 -->
<g id="Node000007" class="node">
<title>Node7</title>
<g id="a_Node000007"><a xlink:href="VehicleCameraControl_8cc.html" target="_top" xlink:title=" ">
<polygon fill="white" stroke="#666666" points="427,-30 278,-30 278,0 427,0 427,-30"/>
<text text-anchor="start" x="286" y="-18" font-family="Helvetica,sans-Serif" font-size="10.00">src/Camera/VehicleCamera</text>
<text text-anchor="middle" x="352.5" y="-7" font-family="Helvetica,sans-Serif" font-size="10.00">Control.cc</text>
</a>
</g>
</g>
<!-- Node6&#45;&gt;Node7 -->
<g id="edge6_Node000006_Node000007" class="edge">
<title>Node6&#45;&gt;Node7</title>
<g id="a_edge6_Node000006_Node000007"><a xlink:title=" ">
<path fill="none" stroke="#63b8ff" d="M653.52,-69.66C591.93,-58.68 494.38,-41.29 427.1,-29.3"/>
<polygon fill="#63b8ff" stroke="#63b8ff" points="653,-73.13 663.46,-71.44 654.23,-66.23 653,-73.13"/>
</a>
</g>
</g>
<!-- Node8 -->
<g id="Node000008" class="node">
<title>Node8</title>
<g id="a_Node000008"><a xlink:href="ParameterManager_8cc.html" target="_top" xlink:title=" ">
<polygon fill="white" stroke="#666666" points="588,-30 445,-30 445,0 588,0 588,-30"/>
<text text-anchor="start" x="453" y="-18" font-family="Helvetica,sans-Serif" font-size="10.00">src/FactSystem/Parameter</text>
<text text-anchor="middle" x="516.5" y="-7" font-family="Helvetica,sans-Serif" font-size="10.00">Manager.cc</text>
</a>
</g>
</g>
<!-- Node6&#45;&gt;Node8 -->
<g id="edge7_Node000006_Node000008" class="edge">
<title>Node6&#45;&gt;Node8</title>
<g id="a_edge7_Node000006_Node000008"><a xlink:title=" ">
<path fill="none" stroke="#63b8ff" d="M675.57,-68.21C642.8,-57.45 594.33,-41.54 559.51,-30.12"/>
<polygon fill="#63b8ff" stroke="#63b8ff" points="674.61,-71.58 685.2,-71.37 676.79,-64.92 674.61,-71.58"/>
</a>
</g>
</g>
<!-- Node9 -->
<g id="Node000009" class="node">
<title>Node9</title>
<g id="a_Node000009"><a xlink:href="RequestMetaDataTypeStateMachine_8cc.html" target="_top" xlink:title=" ">
<polygon fill="white" stroke="#666666" points="816.5,-30 606.5,-30 606.5,0 816.5,0 816.5,-30"/>
<text text-anchor="start" x="614.5" y="-18" font-family="Helvetica,sans-Serif" font-size="10.00">src/Vehicle/ComponentInformation</text>
<text text-anchor="middle" x="711.5" y="-7" font-family="Helvetica,sans-Serif" font-size="10.00">/RequestMetaDataTypeStateMachine.cc</text>
</a>
</g>
</g>
<!-- Node6&#45;&gt;Node9 -->
<g id="edge8_Node000006_Node000009" class="edge">
<title>Node6&#45;&gt;Node9</title>
<g id="a_edge8_Node000006_Node000009"><a xlink:title=" ">
<path fill="none" stroke="#63b8ff" d="M711.5,-61.35C711.5,-51.47 711.5,-39.51 711.5,-30.36"/>
<polygon fill="#63b8ff" stroke="#63b8ff" points="708,-61.37 711.5,-71.37 715,-61.37 708,-61.37"/>
</a>
</g>
</g>
<!-- Node10 -->
<g id="Node000010" class="node">
<title>Node10</title>
<g id="a_Node000010"><a xlink:href="FTPController_8cc.html" target="_top" xlink:title=" ">
<polygon fill="white" stroke="#666666" points="984.5,-24.5 834.5,-24.5 834.5,-5.5 984.5,-5.5 984.5,-24.5"/>
<text text-anchor="middle" x="909.5" y="-12.5" font-family="Helvetica,sans-Serif" font-size="10.00">src/Vehicle/FTPController.cc</text>
</a>
</g>
</g>
<!-- Node6&#45;&gt;Node10 -->
<g id="edge9_Node000006_Node000010" class="edge">
<title>Node6&#45;&gt;Node10</title>
<g id="a_edge9_Node000006_Node000010"><a xlink:title=" ">
<path fill="none" stroke="#63b8ff" d="M747.87,-68.24C786.94,-55.61 848.1,-35.85 882.9,-24.6"/>
<polygon fill="#63b8ff" stroke="#63b8ff" points="746.64,-64.96 738.2,-71.37 748.79,-71.62 746.64,-64.96"/>
</a>
</g>
</g>
<!-- Node11 -->
<g id="Node000011" class="node">
<title>Node11</title>
<g id="a_Node000011"><a xlink:href="FTPManager_8cc.html" target="_top" xlink:title=" ">
<polygon fill="white" stroke="#666666" points="1148,-24.5 1003,-24.5 1003,-5.5 1148,-5.5 1148,-24.5"/>
<text text-anchor="middle" x="1075.5" y="-12.5" font-family="Helvetica,sans-Serif" font-size="10.00">src/Vehicle/FTPManager.cc</text>
</a>
</g>
</g>
<!-- Node6&#45;&gt;Node11 -->
<g id="edge10_Node000006_Node000011" class="edge">
<title>Node6&#45;&gt;Node11</title>
<g id="a_edge10_Node000006_Node000011"><a xlink:title=" ">
<path fill="none" stroke="#63b8ff" d="M770.39,-69.65C841.78,-57.09 960.76,-36.17 1027.08,-24.51"/>
<polygon fill="#63b8ff" stroke="#63b8ff" points="769.46,-66.26 760.21,-71.44 770.67,-73.15 769.46,-66.26"/>
</a>
</g>
</g>
<!-- Node12 -->
<g id="Node000012" class="node">
<title>Node12</title>
<g id="a_Node000012"><a xlink:href="Vehicle_8cc.html" target="_top" xlink:title=" ">
<polygon fill="white" stroke="#666666" points="1287,-24.5 1166,-24.5 1166,-5.5 1287,-5.5 1287,-24.5"/>
<text text-anchor="middle" x="1226.5" y="-12.5" font-family="Helvetica,sans-Serif" font-size="10.00">src/Vehicle/Vehicle.cc</text>
</a>
</g>
</g>
<!-- Node6&#45;&gt;Node12 -->
<g id="edge11_Node000006_Node000012" class="edge">
<title>Node6&#45;&gt;Node12</title>
<g id="a_edge11_Node000006_Node000012"><a xlink:title=" ">
<path fill="none" stroke="#63b8ff" d="M791.75,-73.16C881.25,-65.03 1030.21,-50.01 1157.5,-30 1167.28,-28.46 1177.78,-26.5 1187.56,-24.53"/>
<polygon fill="#63b8ff" stroke="#63b8ff" points="791.31,-69.69 781.67,-74.07 791.94,-76.66 791.31,-69.69"/>
</a>
</g>
</g>
</g>
</svg>
