<?xml version="1.0" encoding="UTF-8" standalone="no"?>
<!DOCTYPE svg PUBLIC "-//W3C//DTD SVG 1.1//EN"
 "http://www.w3.org/Graphics/SVG/1.1/DTD/svg11.dtd">
<!-- Generated by graphviz version 2.43.0 (0)
 -->
<!-- Title: src/MissionManager/MissionItem.h Pages: 1 -->
<svg width="3387pt" height="236pt"
 viewBox="0.00 0.00 3387.00 236.00" xmlns="http://www.w3.org/2000/svg" xmlns:xlink="http://www.w3.org/1999/xlink">
<g id="graph0" class="graph" transform="scale(1 1) rotate(0) translate(4 232)">
<title>src/MissionManager/MissionItem.h</title>
<!-- Node1 -->
<g id="Node000001" class="node">
<title>Node1</title>
<g id="a_Node000001"><a xlink:title=" ">
<polygon fill="#999999" stroke="#666666" points="2568.5,-228 2454.5,-228 2454.5,-198 2568.5,-198 2568.5,-228"/>
<text text-anchor="start" x="2462.5" y="-216" font-family="Helvetica,sans-Serif" font-size="10.00">src/MissionManager</text>
<text text-anchor="middle" x="2511.5" y="-205" font-family="Helvetica,sans-Serif" font-size="10.00">/MissionItem.h</text>
</a>
</g>
</g>
<!-- Node2 -->
<g id="Node000002" class="node">
<title>Node2</title>
<g id="a_Node000002"><a xlink:href="CameraSection_8cc.html" target="_top" xlink:title=" ">
<polygon fill="white" stroke="#666666" points="1377.5,-96 1263.5,-96 1263.5,-66 1377.5,-66 1377.5,-96"/>
<text text-anchor="start" x="1271.5" y="-84" font-family="Helvetica,sans-Serif" font-size="10.00">src/MissionManager</text>
<text text-anchor="middle" x="1320.5" y="-73" font-family="Helvetica,sans-Serif" font-size="10.00">/CameraSection.cc</text>
</a>
</g>
</g>
<!-- Node1&#45;&gt;Node2 -->
<g id="edge1_Node000001_Node000002" class="edge">
<title>Node1&#45;&gt;Node2</title>
<g id="a_edge1_Node000001_Node000002"><a xlink:title=" ">
<path fill="none" stroke="#63b8ff" d="M2444.16,-212.56C2296.57,-212.82 1933.84,-208.22 1634.5,-162 1536.51,-146.87 1424.61,-114.65 1364.4,-96.05"/>
<polygon fill="#63b8ff" stroke="#63b8ff" points="2444.42,-216.06 2454.42,-212.53 2444.41,-209.06 2444.42,-216.06"/>
</a>
</g>
</g>
<!-- Node3 -->
<g id="Node000003" class="node">
<title>Node3</title>
<g id="a_Node000003"><a xlink:href="FixedWingLandingComplexItem_8cc.html" target="_top" xlink:title=" ">
<polygon fill="white" stroke="#666666" points="2746.5,-162 2558.5,-162 2558.5,-132 2746.5,-132 2746.5,-162"/>
<text text-anchor="start" x="2566.5" y="-150" font-family="Helvetica,sans-Serif" font-size="10.00">src/MissionManager</text>
<text text-anchor="middle" x="2652.5" y="-139" font-family="Helvetica,sans-Serif" font-size="10.00">/FixedWingLandingComplexItem.cc</text>
</a>
</g>
</g>
<!-- Node1&#45;&gt;Node3 -->
<g id="edge2_Node000001_Node000003" class="edge">
<title>Node1&#45;&gt;Node3</title>
<g id="a_edge2_Node000001_Node000003"><a xlink:title=" ">
<path fill="none" stroke="#63b8ff" d="M2551.63,-193.78C2573.86,-183.69 2601.07,-171.34 2621.63,-162.01"/>
<polygon fill="#63b8ff" stroke="#63b8ff" points="2550.1,-190.63 2542.44,-197.95 2553,-197.01 2550.1,-190.63"/>
</a>
</g>
</g>
<!-- Node4 -->
<g id="Node000004" class="node">
<title>Node4</title>
<g id="a_Node000004"><a xlink:href="KMLPlanDomDocument_8cc.html" target="_top" xlink:title=" ">
<polygon fill="white" stroke="#666666" points="2914,-162 2765,-162 2765,-132 2914,-132 2914,-162"/>
<text text-anchor="start" x="2773" y="-150" font-family="Helvetica,sans-Serif" font-size="10.00">src/MissionManager</text>
<text text-anchor="middle" x="2839.5" y="-139" font-family="Helvetica,sans-Serif" font-size="10.00">/KMLPlanDomDocument.cc</text>
</a>
</g>
</g>
<!-- Node1&#45;&gt;Node4 -->
<g id="edge3_Node000001_Node000004" class="edge">
<title>Node1&#45;&gt;Node4</title>
<g id="a_edge3_Node000001_Node000004"><a xlink:title=" ">
<path fill="none" stroke="#63b8ff" d="M2578.63,-198.9C2633.63,-188.17 2711.29,-173.02 2767.56,-162.04"/>
<polygon fill="#63b8ff" stroke="#63b8ff" points="2577.78,-195.5 2568.63,-200.85 2579.12,-202.37 2577.78,-195.5"/>
</a>
</g>
</g>
<!-- Node5 -->
<g id="Node000005" class="node">
<title>Node5</title>
<g id="a_Node000005"><a xlink:href="LandingComplexItem_8cc.html" target="_top" xlink:title=" ">
<polygon fill="white" stroke="#666666" points="1474,-30 1337,-30 1337,0 1474,0 1474,-30"/>
<text text-anchor="start" x="1345" y="-18" font-family="Helvetica,sans-Serif" font-size="10.00">src/MissionManager</text>
<text text-anchor="middle" x="1405.5" y="-7" font-family="Helvetica,sans-Serif" font-size="10.00">/LandingComplexItem.cc</text>
</a>
</g>
</g>
<!-- Node1&#45;&gt;Node5 -->
<g id="edge4_Node000001_Node000005" class="edge">
<title>Node1&#45;&gt;Node5</title>
<g id="a_edge4_Node000001_Node000005"><a xlink:title=" ">
<path fill="none" stroke="#63b8ff" d="M2443.98,-210.66C2246.94,-206.45 1674.97,-191.92 1490.5,-162 1382.99,-144.56 1320.33,-182.77 1254.5,-96 1246.44,-85.38 1246.69,-76.81 1254.5,-66 1264.93,-51.56 1303.19,-38.98 1338.58,-30.05"/>
<polygon fill="#63b8ff" stroke="#63b8ff" points="2444.12,-214.17 2454.19,-210.88 2444.27,-207.17 2444.12,-214.17"/>
</a>
</g>
</g>
<!-- Node6 -->
<g id="Node000006" class="node">
<title>Node6</title>
<g id="a_Node000006"><a xlink:href="MissionItem_8cc.html" target="_top" xlink:title=" ">
<polygon fill="white" stroke="#666666" points="3046.5,-162 2932.5,-162 2932.5,-132 3046.5,-132 3046.5,-162"/>
<text text-anchor="start" x="2940.5" y="-150" font-family="Helvetica,sans-Serif" font-size="10.00">src/MissionManager</text>
<text text-anchor="middle" x="2989.5" y="-139" font-family="Helvetica,sans-Serif" font-size="10.00">/MissionItem.cc</text>
</a>
</g>
</g>
<!-- Node1&#45;&gt;Node6 -->
<g id="edge5_Node000001_Node000006" class="edge">
<title>Node1&#45;&gt;Node6</title>
<g id="a_edge5_Node000001_Node000006"><a xlink:title=" ">
<path fill="none" stroke="#63b8ff" d="M2578.87,-205.67C2660.67,-197.55 2802.69,-182.1 2923.5,-162 2926.39,-161.52 2929.34,-161 2932.32,-160.45"/>
<polygon fill="#63b8ff" stroke="#63b8ff" points="2578.32,-202.2 2568.71,-206.67 2579.01,-209.17 2578.32,-202.2"/>
</a>
</g>
</g>
<!-- Node7 -->
<g id="Node000007" class="node">
<title>Node7</title>
<g id="a_Node000007"><a xlink:href="MissionSettingsItem_8cc.html" target="_top" xlink:title=" ">
<polygon fill="white" stroke="#666666" points="3198,-162 3065,-162 3065,-132 3198,-132 3198,-162"/>
<text text-anchor="start" x="3073" y="-150" font-family="Helvetica,sans-Serif" font-size="10.00">src/MissionManager</text>
<text text-anchor="middle" x="3131.5" y="-139" font-family="Helvetica,sans-Serif" font-size="10.00">/MissionSettingsItem.cc</text>
</a>
</g>
</g>
<!-- Node1&#45;&gt;Node7 -->
<g id="edge6_Node000001_Node000007" class="edge">
<title>Node1&#45;&gt;Node7</title>
<g id="a_edge6_Node000001_Node000007"><a xlink:title=" ">
<path fill="none" stroke="#63b8ff" d="M2579.13,-207.76C2682.23,-200.85 2884.73,-185.53 3055.5,-162 3058.56,-161.58 3061.68,-161.12 3064.83,-160.63"/>
<polygon fill="#63b8ff" stroke="#63b8ff" points="2578.62,-204.29 2568.87,-208.44 2579.08,-211.27 2578.62,-204.29"/>
</a>
</g>
</g>
<!-- Node8 -->
<g id="Node000008" class="node">
<title>Node8</title>
<g id="a_Node000008"><a xlink:href="PlanManager_8h.html" target="_top" xlink:title=" ">
<polygon fill="white" stroke="#666666" points="852.5,-162 738.5,-162 738.5,-132 852.5,-132 852.5,-162"/>
<text text-anchor="start" x="746.5" y="-150" font-family="Helvetica,sans-Serif" font-size="10.00">src/MissionManager</text>
<text text-anchor="middle" x="795.5" y="-139" font-family="Helvetica,sans-Serif" font-size="10.00">/PlanManager.h</text>
</a>
</g>
</g>
<!-- Node1&#45;&gt;Node8 -->
<g id="edge7_Node000001_Node000008" class="edge">
<title>Node1&#45;&gt;Node8</title>
<g id="a_edge7_Node000001_Node000008"><a xlink:title=" ">
<path fill="none" stroke="#63b8ff" d="M2444.07,-209.49C2166.03,-199.12 1111.05,-159.77 852.81,-150.14"/>
<polygon fill="#63b8ff" stroke="#63b8ff" points="2444.28,-213 2454.41,-209.87 2444.54,-206 2444.28,-213"/>
</a>
</g>
</g>
<!-- Node23 -->
<g id="Node000023" class="node">
<title>Node23</title>
<g id="a_Node000023"><a xlink:href="SimpleMissionItem_8h.html" target="_top" xlink:title=" ">
<polygon fill="white" stroke="#666666" points="1765.5,-162 1643.5,-162 1643.5,-132 1765.5,-132 1765.5,-162"/>
<text text-anchor="start" x="1651.5" y="-150" font-family="Helvetica,sans-Serif" font-size="10.00">src/MissionManager</text>
<text text-anchor="middle" x="1704.5" y="-139" font-family="Helvetica,sans-Serif" font-size="10.00">/SimpleMissionItem.h</text>
</a>
</g>
</g>
<!-- Node1&#45;&gt;Node23 -->
<g id="edge28_Node000001_Node000023" class="edge">
<title>Node1&#45;&gt;Node23</title>
<g id="a_edge28_Node000001_Node000023"><a xlink:title=" ">
<path fill="none" stroke="#63b8ff" d="M2444.17,-206.66C2290.1,-194.44 1913.81,-164.6 1765.77,-152.86"/>
<polygon fill="#63b8ff" stroke="#63b8ff" points="2444.19,-210.17 2454.43,-207.47 2444.74,-203.19 2444.19,-210.17"/>
</a>
</g>
</g>
<!-- Node29 -->
<g id="Node000029" class="node">
<title>Node29</title>
<g id="a_Node000029"><a xlink:href="StructureScanComplexItem_8h.html" target="_top" xlink:title=" ">
<polygon fill="white" stroke="#666666" points="2633.5,-96 2471.5,-96 2471.5,-66 2633.5,-66 2633.5,-96"/>
<text text-anchor="start" x="2479.5" y="-84" font-family="Helvetica,sans-Serif" font-size="10.00">src/MissionManager</text>
<text text-anchor="middle" x="2552.5" y="-73" font-family="Helvetica,sans-Serif" font-size="10.00">/StructureScanComplexItem.h</text>
</a>
</g>
</g>
<!-- Node1&#45;&gt;Node29 -->
<g id="edge40_Node000001_Node000029" class="edge">
<title>Node1&#45;&gt;Node29</title>
<g id="a_edge40_Node000001_Node000029"><a xlink:title=" ">
<path fill="none" stroke="#63b8ff" d="M2509.57,-187.67C2509.11,-171.44 2510.11,-149.89 2516.5,-132 2521.32,-118.5 2530.96,-105.44 2539.05,-96.05"/>
<polygon fill="#63b8ff" stroke="#63b8ff" points="2506.09,-188.13 2510.08,-197.94 2513.08,-187.78 2506.09,-188.13"/>
</a>
</g>
</g>
<!-- Node33 -->
<g id="Node000033" class="node">
<title>Node33</title>
<g id="a_Node000033"><a xlink:href="SurveyComplexItem_8cc.html" target="_top" xlink:title=" ">
<polygon fill="white" stroke="#666666" points="2928,-30 2795,-30 2795,0 2928,0 2928,-30"/>
<text text-anchor="start" x="2803" y="-18" font-family="Helvetica,sans-Serif" font-size="10.00">src/MissionManager</text>
<text text-anchor="middle" x="2861.5" y="-7" font-family="Helvetica,sans-Serif" font-size="10.00">/SurveyComplexItem.cc</text>
</a>
</g>
</g>
<!-- Node1&#45;&gt;Node33 -->
<g id="edge45_Node000001_Node000033" class="edge">
<title>Node1&#45;&gt;Node33</title>
<g id="a_edge45_Node000001_Node000033"><a xlink:title=" ">
<path fill="none" stroke="#63b8ff" d="M2517.51,-188.28C2523.11,-170.6 2533.1,-147.02 2549.5,-132 2552.16,-129.57 2740.15,-60.48 2823,-30.1"/>
<polygon fill="#63b8ff" stroke="#63b8ff" points="2514.14,-187.31 2514.71,-197.89 2520.87,-189.27 2514.14,-187.31"/>
</a>
</g>
</g>
<!-- Node34 -->
<g id="Node000034" class="node">
<title>Node34</title>
<g id="a_Node000034"><a xlink:href="TransectStyleComplexItem_8h.html" target="_top" xlink:title=" ">
<polygon fill="white" stroke="#666666" points="2346.5,-162 2186.5,-162 2186.5,-132 2346.5,-132 2346.5,-162"/>
<text text-anchor="start" x="2194.5" y="-150" font-family="Helvetica,sans-Serif" font-size="10.00">src/MissionManager</text>
<text text-anchor="middle" x="2266.5" y="-139" font-family="Helvetica,sans-Serif" font-size="10.00">/TransectStyleComplexItem.h</text>
</a>
</g>
</g>
<!-- Node1&#45;&gt;Node34 -->
<g id="edge46_Node000001_Node000034" class="edge">
<title>Node1&#45;&gt;Node34</title>
<g id="a_edge46_Node000001_Node000034"><a xlink:title=" ">
<path fill="none" stroke="#63b8ff" d="M2447.9,-195.39C2408.24,-185.03 2357.77,-171.84 2320.14,-162.01"/>
<polygon fill="#63b8ff" stroke="#63b8ff" points="2447.17,-198.81 2457.73,-197.95 2448.94,-192.04 2447.17,-198.81"/>
</a>
</g>
</g>
<!-- Node41 -->
<g id="Node000041" class="node">
<title>Node41</title>
<g id="a_Node000041"><a xlink:href="VTOLLandingComplexItem_8cc.html" target="_top" xlink:title=" ">
<polygon fill="white" stroke="#666666" points="3379,-162 3216,-162 3216,-132 3379,-132 3379,-162"/>
<text text-anchor="start" x="3224" y="-150" font-family="Helvetica,sans-Serif" font-size="10.00">src/MissionManager</text>
<text text-anchor="middle" x="3297.5" y="-139" font-family="Helvetica,sans-Serif" font-size="10.00">/VTOLLandingComplexItem.cc</text>
</a>
</g>
</g>
<!-- Node1&#45;&gt;Node41 -->
<g id="edge58_Node000001_Node000041" class="edge">
<title>Node1&#45;&gt;Node41</title>
<g id="a_edge58_Node000001_Node000041"><a xlink:title=" ">
<path fill="none" stroke="#63b8ff" d="M2579.09,-209C2703.65,-203.07 2977.73,-188.08 3207.5,-162 3210.17,-161.7 3212.88,-161.37 3215.62,-161.03"/>
<polygon fill="#63b8ff" stroke="#63b8ff" points="2578.76,-205.51 2568.94,-209.48 2579.09,-212.51 2578.76,-205.51"/>
</a>
</g>
</g>
<!-- Node9 -->
<g id="Node000009" class="node">
<title>Node9</title>
<g id="a_Node000009"><a xlink:href="GeoFenceManager_8h.html" target="_top" xlink:title=" ">
<polygon fill="white" stroke="#666666" points="493,-96 374,-96 374,-66 493,-66 493,-96"/>
<text text-anchor="start" x="382" y="-84" font-family="Helvetica,sans-Serif" font-size="10.00">src/MissionManager</text>
<text text-anchor="middle" x="433.5" y="-73" font-family="Helvetica,sans-Serif" font-size="10.00">/GeoFenceManager.h</text>
</a>
</g>
</g>
<!-- Node8&#45;&gt;Node9 -->
<g id="edge8_Node000008_Node000009" class="edge">
<title>Node8&#45;&gt;Node9</title>
<g id="a_edge8_Node000008_Node000009"><a xlink:title=" ">
<path fill="none" stroke="#63b8ff" d="M728.04,-134.07C660.61,-122.15 557.9,-103.99 493.3,-92.57"/>
<polygon fill="#63b8ff" stroke="#63b8ff" points="727.68,-137.56 738.14,-135.86 728.9,-130.67 727.68,-137.56"/>
</a>
</g>
</g>
<!-- Node15 -->
<g id="Node000015" class="node">
<title>Node15</title>
<g id="a_Node000015"><a xlink:href="MissionManager_8h.html" target="_top" xlink:title=" ">
<polygon fill="white" stroke="#666666" points="1009.5,-96 895.5,-96 895.5,-66 1009.5,-66 1009.5,-96"/>
<text text-anchor="start" x="903.5" y="-84" font-family="Helvetica,sans-Serif" font-size="10.00">src/MissionManager</text>
<text text-anchor="middle" x="952.5" y="-73" font-family="Helvetica,sans-Serif" font-size="10.00">/MissionManager.h</text>
</a>
</g>
</g>
<!-- Node8&#45;&gt;Node15 -->
<g id="edge14_Node000008_Node000015" class="edge">
<title>Node8&#45;&gt;Node15</title>
<g id="a_edge14_Node000008_Node000015"><a xlink:title=" ">
<path fill="none" stroke="#63b8ff" d="M839.52,-128.05C864.4,-117.91 895.03,-105.43 918.13,-96.01"/>
<polygon fill="#63b8ff" stroke="#63b8ff" points="837.89,-124.94 829.95,-131.95 840.54,-131.42 837.89,-124.94"/>
</a>
</g>
</g>
<!-- Node19 -->
<g id="Node000019" class="node">
<title>Node19</title>
<g id="a_Node000019"><a xlink:href="PlanManager_8cc.html" target="_top" xlink:title=" ">
<polygon fill="white" stroke="#666666" points="717.5,-96 603.5,-96 603.5,-66 717.5,-66 717.5,-96"/>
<text text-anchor="start" x="611.5" y="-84" font-family="Helvetica,sans-Serif" font-size="10.00">src/MissionManager</text>
<text text-anchor="middle" x="660.5" y="-73" font-family="Helvetica,sans-Serif" font-size="10.00">/PlanManager.cc</text>
</a>
</g>
</g>
<!-- Node8&#45;&gt;Node19 -->
<g id="edge21_Node000008_Node000019" class="edge">
<title>Node8&#45;&gt;Node19</title>
<g id="a_edge21_Node000008_Node000019"><a xlink:title=" ">
<path fill="none" stroke="#63b8ff" d="M756.79,-127.65C735.56,-117.58 709.65,-105.3 690.06,-96.01"/>
<polygon fill="#63b8ff" stroke="#63b8ff" points="755.34,-130.83 765.87,-131.95 758.34,-124.51 755.34,-130.83"/>
</a>
</g>
</g>
<!-- Node20 -->
<g id="Node000020" class="node">
<title>Node20</title>
<g id="a_Node000020"><a xlink:href="RallyPointManager_8h.html" target="_top" xlink:title=" ">
<polygon fill="white" stroke="#666666" points="855.5,-96 735.5,-96 735.5,-66 855.5,-66 855.5,-96"/>
<text text-anchor="start" x="743.5" y="-84" font-family="Helvetica,sans-Serif" font-size="10.00">src/MissionManager</text>
<text text-anchor="middle" x="795.5" y="-73" font-family="Helvetica,sans-Serif" font-size="10.00">/RallyPointManager.h</text>
</a>
</g>
</g>
<!-- Node8&#45;&gt;Node20 -->
<g id="edge22_Node000008_Node000020" class="edge">
<title>Node8&#45;&gt;Node20</title>
<g id="a_edge22_Node000008_Node000020"><a xlink:title=" ">
<path fill="none" stroke="#63b8ff" d="M795.5,-121.54C795.5,-112.96 795.5,-103.61 795.5,-96.16"/>
<polygon fill="#63b8ff" stroke="#63b8ff" points="792,-121.8 795.5,-131.8 799,-121.8 792,-121.8"/>
</a>
</g>
</g>
<!-- Node10 -->
<g id="Node000010" class="node">
<title>Node10</title>
<g id="a_Node000010"><a xlink:href="GeoFenceController_8cc.html" target="_top" xlink:title=" ">
<polygon fill="white" stroke="#666666" points="269.5,-30 141.5,-30 141.5,0 269.5,0 269.5,-30"/>
<text text-anchor="start" x="149.5" y="-18" font-family="Helvetica,sans-Serif" font-size="10.00">src/MissionManager</text>
<text text-anchor="middle" x="205.5" y="-7" font-family="Helvetica,sans-Serif" font-size="10.00">/GeoFenceController.cc</text>
</a>
</g>
</g>
<!-- Node9&#45;&gt;Node10 -->
<g id="edge9_Node000009_Node000010" class="edge">
<title>Node9&#45;&gt;Node10</title>
<g id="a_edge9_Node000009_Node000010"><a xlink:title=" ">
<path fill="none" stroke="#63b8ff" d="M373.37,-63.12C336.61,-52.8 290.14,-39.76 255.42,-30.01"/>
<polygon fill="#63b8ff" stroke="#63b8ff" points="372.89,-66.62 383.46,-65.95 374.78,-59.88 372.89,-66.62"/>
</a>
</g>
</g>
<!-- Node11 -->
<g id="Node000011" class="node">
<title>Node11</title>
<g id="a_Node000011"><a xlink:href="GeoFenceManager_8cc.html" target="_top" xlink:title=" ">
<polygon fill="white" stroke="#666666" points="123,-30 0,-30 0,0 123,0 123,-30"/>
<text text-anchor="start" x="8" y="-18" font-family="Helvetica,sans-Serif" font-size="10.00">src/MissionManager</text>
<text text-anchor="middle" x="61.5" y="-7" font-family="Helvetica,sans-Serif" font-size="10.00">/GeoFenceManager.cc</text>
</a>
</g>
</g>
<!-- Node9&#45;&gt;Node11 -->
<g id="edge10_Node000009_Node000011" class="edge">
<title>Node9&#45;&gt;Node11</title>
<g id="a_edge10_Node000009_Node000011"><a xlink:title=" ">
<path fill="none" stroke="#63b8ff" d="M363.81,-69.03C302.74,-59.28 211.62,-44.37 132.5,-30 129.41,-29.44 126.25,-28.85 123.05,-28.25"/>
<polygon fill="#63b8ff" stroke="#63b8ff" points="363.3,-72.5 373.73,-70.61 364.4,-65.58 363.3,-72.5"/>
</a>
</g>
</g>
<!-- Node12 -->
<g id="Node000012" class="node">
<title>Node12</title>
<g id="a_Node000012"><a xlink:href="PlanMasterController_8cc.html" target="_top" xlink:title=" ">
<polygon fill="white" stroke="#666666" points="423,-30 288,-30 288,0 423,0 423,-30"/>
<text text-anchor="start" x="296" y="-18" font-family="Helvetica,sans-Serif" font-size="10.00">src/MissionManager</text>
<text text-anchor="middle" x="355.5" y="-7" font-family="Helvetica,sans-Serif" font-size="10.00">/PlanMasterController.cc</text>
</a>
</g>
</g>
<!-- Node9&#45;&gt;Node12 -->
<g id="edge11_Node000009_Node000012" class="edge">
<title>Node9&#45;&gt;Node12</title>
<g id="a_edge11_Node000009_Node000012"><a xlink:title=" ">
<path fill="none" stroke="#63b8ff" d="M408.15,-59.2C396.57,-49.7 383.15,-38.69 372.76,-30.16"/>
<polygon fill="#63b8ff" stroke="#63b8ff" points="406.24,-62.16 416.19,-65.8 410.68,-56.75 406.24,-62.16"/>
</a>
</g>
</g>
<!-- Node13 -->
<g id="Node000013" class="node">
<title>Node13</title>
<g id="a_Node000013"><a xlink:href="InitialConnectStateMachine_8cc.html" target="_top" xlink:title=" ">
<polygon fill="white" stroke="#666666" points="581.5,-30 441.5,-30 441.5,0 581.5,0 581.5,-30"/>
<text text-anchor="start" x="449.5" y="-18" font-family="Helvetica,sans-Serif" font-size="10.00">src/Vehicle/InitialConnect</text>
<text text-anchor="middle" x="511.5" y="-7" font-family="Helvetica,sans-Serif" font-size="10.00">StateMachine.cc</text>
</a>
</g>
</g>
<!-- Node9&#45;&gt;Node13 -->
<g id="edge12_Node000009_Node000013" class="edge">
<title>Node9&#45;&gt;Node13</title>
<g id="a_edge12_Node000009_Node000013"><a xlink:title=" ">
<path fill="none" stroke="#63b8ff" d="M458.85,-59.2C470.43,-49.7 483.85,-38.69 494.24,-30.16"/>
<polygon fill="#63b8ff" stroke="#63b8ff" points="456.32,-56.75 450.81,-65.8 460.76,-62.16 456.32,-56.75"/>
</a>
</g>
</g>
<!-- Node14 -->
<g id="Node000014" class="node">
<title>Node14</title>
<g id="a_Node000014"><a xlink:href="Vehicle_8cc.html" target="_top" xlink:title=" ">
<polygon fill="white" stroke="#666666" points="1013,-24.5 892,-24.5 892,-5.5 1013,-5.5 1013,-24.5"/>
<text text-anchor="middle" x="952.5" y="-12.5" font-family="Helvetica,sans-Serif" font-size="10.00">src/Vehicle/Vehicle.cc</text>
</a>
</g>
</g>
<!-- Node9&#45;&gt;Node14 -->
<g id="edge13_Node000009_Node000014" class="edge">
<title>Node9&#45;&gt;Node14</title>
<g id="a_edge13_Node000009_Node000014"><a xlink:title=" ">
<path fill="none" stroke="#63b8ff" d="M503.46,-74.1C592,-66.2 749.05,-50.74 882.5,-30 892.42,-28.46 903.07,-26.49 913,-24.52"/>
<polygon fill="#63b8ff" stroke="#63b8ff" points="502.93,-70.63 493.27,-75 503.54,-77.6 502.93,-70.63"/>
</a>
</g>
</g>
<!-- Node15&#45;&gt;Node12 -->
<g id="edge18_Node000015_Node000012" class="edge">
<title>Node15&#45;&gt;Node12</title>
<g id="a_edge18_Node000015_Node000012"><a xlink:title=" ">
<path fill="none" stroke="#63b8ff" d="M885.15,-68.76C878.19,-67.75 871.21,-66.81 864.5,-66 673.23,-42.85 623.5,-55.26 432.5,-30 429.4,-29.59 426.24,-29.14 423.05,-28.66"/>
<polygon fill="#63b8ff" stroke="#63b8ff" points="884.9,-72.26 895.31,-70.27 885.93,-65.34 884.9,-72.26"/>
</a>
</g>
</g>
<!-- Node15&#45;&gt;Node13 -->
<g id="edge19_Node000015_Node000013" class="edge">
<title>Node15&#45;&gt;Node13</title>
<g id="a_edge19_Node000015_Node000013"><a xlink:title=" ">
<path fill="none" stroke="#63b8ff" d="M885.11,-69.09C878.15,-68.02 871.19,-66.97 864.5,-66 742.95,-48.35 711.89,-48.72 590.5,-30 587.61,-29.55 584.66,-29.09 581.68,-28.61"/>
<polygon fill="#63b8ff" stroke="#63b8ff" points="884.84,-72.59 895.26,-70.66 885.91,-65.67 884.84,-72.59"/>
</a>
</g>
</g>
<!-- Node15&#45;&gt;Node14 -->
<g id="edge20_Node000015_Node000014" class="edge">
<title>Node15&#45;&gt;Node14</title>
<g id="a_edge20_Node000015_Node000014"><a xlink:title=" ">
<path fill="none" stroke="#63b8ff" d="M952.5,-55.6C952.5,-44.8 952.5,-32.78 952.5,-24.84"/>
<polygon fill="#63b8ff" stroke="#63b8ff" points="949,-55.8 952.5,-65.8 956,-55.8 949,-55.8"/>
</a>
</g>
</g>
<!-- Node16 -->
<g id="Node000016" class="node">
<title>Node16</title>
<g id="a_Node000016"><a xlink:href="APMFirmwarePlugin_8cc.html" target="_top" xlink:title=" ">
<polygon fill="white" stroke="#666666" points="1186,-30 1031,-30 1031,0 1186,0 1186,-30"/>
<text text-anchor="start" x="1039" y="-18" font-family="Helvetica,sans-Serif" font-size="10.00">src/FirmwarePlugin</text>
<text text-anchor="middle" x="1108.5" y="-7" font-family="Helvetica,sans-Serif" font-size="10.00">/APM/APMFirmwarePlugin.cc</text>
</a>
</g>
</g>
<!-- Node15&#45;&gt;Node16 -->
<g id="edge15_Node000015_Node000016" class="edge">
<title>Node15&#45;&gt;Node16</title>
<g id="a_edge15_Node000015_Node000016"><a xlink:title=" ">
<path fill="none" stroke="#63b8ff" d="M996.24,-62.05C1020.96,-51.91 1051.4,-39.43 1074.34,-30.01"/>
<polygon fill="#63b8ff" stroke="#63b8ff" points="994.66,-58.92 986.73,-65.95 997.32,-65.4 994.66,-58.92"/>
</a>
</g>
</g>
<!-- Node17 -->
<g id="Node000017" class="node">
<title>Node17</title>
<g id="a_Node000017"><a xlink:href="MissionController_8cc.html" target="_top" xlink:title=" ">
<polygon fill="white" stroke="#666666" points="1952.5,-30 1834.5,-30 1834.5,0 1952.5,0 1952.5,-30"/>
<text text-anchor="start" x="1842.5" y="-18" font-family="Helvetica,sans-Serif" font-size="10.00">src/MissionManager</text>
<text text-anchor="middle" x="1893.5" y="-7" font-family="Helvetica,sans-Serif" font-size="10.00">/MissionController.cc</text>
</a>
</g>
</g>
<!-- Node15&#45;&gt;Node17 -->
<g id="edge16_Node000015_Node000017" class="edge">
<title>Node15&#45;&gt;Node17</title>
<g id="a_edge16_Node000015_Node000017"><a xlink:title=" ">
<path fill="none" stroke="#63b8ff" d="M1019.92,-76.71C1210.85,-67.3 1746.56,-40.33 1825.5,-30 1828.37,-29.62 1831.3,-29.2 1834.25,-28.73"/>
<polygon fill="#63b8ff" stroke="#63b8ff" points="1019.55,-73.22 1009.73,-77.21 1019.89,-80.21 1019.55,-73.22"/>
</a>
</g>
</g>
<!-- Node18 -->
<g id="Node000018" class="node">
<title>Node18</title>
<g id="a_Node000018"><a xlink:href="MissionManager_8cc.html" target="_top" xlink:title=" ">
<polygon fill="white" stroke="#666666" points="1318.5,-30 1204.5,-30 1204.5,0 1318.5,0 1318.5,-30"/>
<text text-anchor="start" x="1212.5" y="-18" font-family="Helvetica,sans-Serif" font-size="10.00">src/MissionManager</text>
<text text-anchor="middle" x="1261.5" y="-7" font-family="Helvetica,sans-Serif" font-size="10.00">/MissionManager.cc</text>
</a>
</g>
</g>
<!-- Node15&#45;&gt;Node18 -->
<g id="edge17_Node000015_Node000018" class="edge">
<title>Node15&#45;&gt;Node18</title>
<g id="a_edge17_Node000015_Node000018"><a xlink:title=" ">
<path fill="none" stroke="#63b8ff" d="M1019.77,-66.27C1068.57,-56.29 1136.14,-42.4 1195.5,-30 1198.37,-29.4 1201.3,-28.79 1204.27,-28.16"/>
<polygon fill="#63b8ff" stroke="#63b8ff" points="1019.06,-62.85 1009.96,-68.28 1020.46,-69.7 1019.06,-62.85"/>
</a>
</g>
</g>
<!-- Node20&#45;&gt;Node12 -->
<g id="edge23_Node000020_Node000012" class="edge">
<title>Node20&#45;&gt;Node12</title>
<g id="a_edge23_Node000020_Node000012"><a xlink:title=" ">
<path fill="none" stroke="#63b8ff" d="M725.36,-65.9C594.85,-45.12 559.47,-49.3 432.5,-30 429.41,-29.53 426.25,-29.03 423.07,-28.51"/>
<polygon fill="#63b8ff" stroke="#63b8ff" points="724.91,-69.37 735.34,-67.5 726.02,-62.46 724.91,-69.37"/>
</a>
</g>
</g>
<!-- Node20&#45;&gt;Node13 -->
<g id="edge26_Node000020_Node000013" class="edge">
<title>Node20&#45;&gt;Node13</title>
<g id="a_edge26_Node000020_Node000013"><a xlink:title=" ">
<path fill="none" stroke="#63b8ff" d="M725.31,-64.18C678.98,-53.74 618.8,-40.18 574.1,-30.11"/>
<polygon fill="#63b8ff" stroke="#63b8ff" points="724.75,-67.64 735.27,-66.43 726.29,-60.81 724.75,-67.64"/>
</a>
</g>
</g>
<!-- Node20&#45;&gt;Node14 -->
<g id="edge27_Node000020_Node000014" class="edge">
<title>Node20&#45;&gt;Node14</title>
<g id="a_edge27_Node000020_Node000014"><a xlink:title=" ">
<path fill="none" stroke="#63b8ff" d="M839.41,-62.1C869.55,-49.82 908.19,-34.06 931.61,-24.52"/>
<polygon fill="#63b8ff" stroke="#63b8ff" points="837.89,-58.94 829.95,-65.95 840.54,-65.42 837.89,-58.94"/>
</a>
</g>
</g>
<!-- Node21 -->
<g id="Node000021" class="node">
<title>Node21</title>
<g id="a_Node000021"><a xlink:href="RallyPointController_8cc.html" target="_top" xlink:title=" ">
<polygon fill="white" stroke="#666666" points="873.5,-30 743.5,-30 743.5,0 873.5,0 873.5,-30"/>
<text text-anchor="start" x="751.5" y="-18" font-family="Helvetica,sans-Serif" font-size="10.00">src/MissionManager</text>
<text text-anchor="middle" x="808.5" y="-7" font-family="Helvetica,sans-Serif" font-size="10.00">/RallyPointController.cc</text>
</a>
</g>
</g>
<!-- Node20&#45;&gt;Node21 -->
<g id="edge24_Node000020_Node000021" class="edge">
<title>Node20&#45;&gt;Node21</title>
<g id="a_edge24_Node000020_Node000021"><a xlink:title=" ">
<path fill="none" stroke="#63b8ff" d="M800.41,-55.83C802.17,-47.17 804.09,-37.7 805.62,-30.16"/>
<polygon fill="#63b8ff" stroke="#63b8ff" points="796.95,-55.3 798.39,-65.8 803.81,-56.69 796.95,-55.3"/>
</a>
</g>
</g>
<!-- Node22 -->
<g id="Node000022" class="node">
<title>Node22</title>
<g id="a_Node000022"><a xlink:href="RallyPointManager_8cc.html" target="_top" xlink:title=" ">
<polygon fill="white" stroke="#666666" points="725,-30 600,-30 600,0 725,0 725,-30"/>
<text text-anchor="start" x="608" y="-18" font-family="Helvetica,sans-Serif" font-size="10.00">src/MissionManager</text>
<text text-anchor="middle" x="662.5" y="-7" font-family="Helvetica,sans-Serif" font-size="10.00">/RallyPointManager.cc</text>
</a>
</g>
</g>
<!-- Node20&#45;&gt;Node22 -->
<g id="edge25_Node000020_Node000022" class="edge">
<title>Node20&#45;&gt;Node22</title>
<g id="a_edge25_Node000020_Node000022"><a xlink:title=" ">
<path fill="none" stroke="#63b8ff" d="M757.08,-61.51C736.22,-51.47 710.83,-39.26 691.62,-30.01"/>
<polygon fill="#63b8ff" stroke="#63b8ff" points="755.78,-64.77 766.31,-65.95 758.82,-58.46 755.78,-64.77"/>
</a>
</g>
</g>
<!-- Node23&#45;&gt;Node2 -->
<g id="edge29_Node000023_Node000002" class="edge">
<title>Node23&#45;&gt;Node2</title>
<g id="a_edge29_Node000023_Node000002"><a xlink:title=" ">
<path fill="none" stroke="#63b8ff" d="M1633.3,-135.38C1569.78,-125.72 1474.29,-110.77 1391.5,-96 1387.05,-95.21 1382.44,-94.36 1377.82,-93.49"/>
<polygon fill="#63b8ff" stroke="#63b8ff" points="1632.8,-138.84 1643.21,-136.88 1633.85,-131.92 1632.8,-138.84"/>
</a>
</g>
</g>
<!-- Node23&#45;&gt;Node5 -->
<g id="edge30_Node000023_Node000005" class="edge">
<title>Node23&#45;&gt;Node5</title>
<g id="a_edge30_Node000023_Node000005"><a xlink:title=" ">
<path fill="none" stroke="#63b8ff" d="M1633.45,-141.92C1560.93,-136.29 1454.94,-123.52 1425.5,-96 1407.3,-78.99 1404.6,-48.15 1404.74,-30.13"/>
<polygon fill="#63b8ff" stroke="#63b8ff" points="1633.22,-145.41 1643.45,-142.67 1633.74,-138.43 1633.22,-145.41"/>
</a>
</g>
</g>
<!-- Node23&#45;&gt;Node17 -->
<g id="edge31_Node000023_Node000017" class="edge">
<title>Node23&#45;&gt;Node17</title>
<g id="a_edge31_Node000023_Node000017"><a xlink:title=" ">
<path fill="none" stroke="#63b8ff" d="M1775.64,-136.64C1804.91,-129.63 1837.3,-117.39 1860.5,-96 1879.61,-78.38 1887.96,-48.04 1891.37,-30.22"/>
<polygon fill="#63b8ff" stroke="#63b8ff" points="1774.86,-133.23 1765.86,-138.82 1776.38,-140.06 1774.86,-133.23"/>
</a>
</g>
</g>
<!-- Node24 -->
<g id="Node000024" class="node">
<title>Node24</title>
<g id="a_Node000024"><a xlink:href="MissionFlightStatusCalculator_8cc.html" target="_top" xlink:title=" ">
<polygon fill="white" stroke="#666666" points="1816.5,-30 1638.5,-30 1638.5,0 1816.5,0 1816.5,-30"/>
<text text-anchor="start" x="1646.5" y="-18" font-family="Helvetica,sans-Serif" font-size="10.00">src/MissionManager</text>
<text text-anchor="middle" x="1727.5" y="-7" font-family="Helvetica,sans-Serif" font-size="10.00">/MissionFlightStatusCalculator.cc</text>
</a>
</g>
</g>
<!-- Node23&#45;&gt;Node24 -->
<g id="edge32_Node000023_Node000024" class="edge">
<title>Node23&#45;&gt;Node24</title>
<g id="a_edge32_Node000023_Node000024"><a xlink:title=" ">
<path fill="none" stroke="#63b8ff" d="M1775.52,-137.82C1801.6,-130.98 1828.61,-118.54 1844.5,-96 1865.9,-65.63 1821.35,-43.25 1781.2,-30.01"/>
<polygon fill="#63b8ff" stroke="#63b8ff" points="1774.51,-134.46 1765.59,-140.17 1776.13,-141.27 1774.51,-134.46"/>
</a>
</g>
</g>
<!-- Node25 -->
<g id="Node000025" class="node">
<title>Node25</title>
<g id="a_Node000025"><a xlink:href="SimpleMissionItem_8cc.html" target="_top" xlink:title=" ">
<polygon fill="white" stroke="#666666" points="1561,-96 1434,-96 1434,-66 1561,-66 1561,-96"/>
<text text-anchor="start" x="1442" y="-84" font-family="Helvetica,sans-Serif" font-size="10.00">src/MissionManager</text>
<text text-anchor="middle" x="1497.5" y="-73" font-family="Helvetica,sans-Serif" font-size="10.00">/SimpleMissionItem.cc</text>
</a>
</g>
</g>
<!-- Node23&#45;&gt;Node25 -->
<g id="edge33_Node000023_Node000025" class="edge">
<title>Node23&#45;&gt;Node25</title>
<g id="a_edge33_Node000023_Node000025"><a xlink:title=" ">
<path fill="none" stroke="#63b8ff" d="M1649.48,-128.99C1616.17,-118.69 1574.21,-105.72 1542.82,-96.01"/>
<polygon fill="#63b8ff" stroke="#63b8ff" points="1648.49,-132.34 1659.07,-131.95 1650.55,-125.66 1648.49,-132.34"/>
</a>
</g>
</g>
<!-- Node26 -->
<g id="Node000026" class="node">
<title>Node26</title>
<g id="a_Node000026"><a xlink:href="SpeedSection_8cc.html" target="_top" xlink:title=" ">
<polygon fill="white" stroke="#666666" points="1693.5,-96 1579.5,-96 1579.5,-66 1693.5,-66 1693.5,-96"/>
<text text-anchor="start" x="1587.5" y="-84" font-family="Helvetica,sans-Serif" font-size="10.00">src/MissionManager</text>
<text text-anchor="middle" x="1636.5" y="-73" font-family="Helvetica,sans-Serif" font-size="10.00">/SpeedSection.cc</text>
</a>
</g>
</g>
<!-- Node23&#45;&gt;Node26 -->
<g id="edge34_Node000023_Node000026" class="edge">
<title>Node23&#45;&gt;Node26</title>
<g id="a_edge34_Node000023_Node000026"><a xlink:title=" ">
<path fill="none" stroke="#63b8ff" d="M1682.11,-124.92C1672.08,-115.49 1660.52,-104.61 1651.55,-96.16"/>
<polygon fill="#63b8ff" stroke="#63b8ff" points="1679.73,-127.49 1689.41,-131.8 1684.53,-122.39 1679.73,-127.49"/>
</a>
</g>
</g>
<!-- Node27 -->
<g id="Node000027" class="node">
<title>Node27</title>
<g id="a_Node000027"><a xlink:href="TakeoffMissionItem_8h.html" target="_top" xlink:title=" ">
<polygon fill="white" stroke="#666666" points="1835,-96 1712,-96 1712,-66 1835,-66 1835,-96"/>
<text text-anchor="start" x="1720" y="-84" font-family="Helvetica,sans-Serif" font-size="10.00">src/MissionManager</text>
<text text-anchor="middle" x="1773.5" y="-73" font-family="Helvetica,sans-Serif" font-size="10.00">/TakeoffMissionItem.h</text>
</a>
</g>
</g>
<!-- Node23&#45;&gt;Node27 -->
<g id="edge35_Node000023_Node000027" class="edge">
<title>Node23&#45;&gt;Node27</title>
<g id="a_edge35_Node000023_Node000027"><a xlink:title=" ">
<path fill="none" stroke="#63b8ff" d="M1727.22,-124.92C1737.4,-115.49 1749.13,-104.61 1758.23,-96.16"/>
<polygon fill="#63b8ff" stroke="#63b8ff" points="1724.76,-122.43 1719.81,-131.8 1729.53,-127.56 1724.76,-122.43"/>
</a>
</g>
</g>
<!-- Node27&#45;&gt;Node5 -->
<g id="edge36_Node000027_Node000005" class="edge">
<title>Node27&#45;&gt;Node5</title>
<g id="a_edge36_Node000027_Node000005"><a xlink:title=" ">
<path fill="none" stroke="#63b8ff" d="M1701.9,-65.93C1603.76,-48.33 1577.58,-46.17 1483.5,-30 1480.52,-29.49 1477.47,-28.96 1474.39,-28.42"/>
<polygon fill="#63b8ff" stroke="#63b8ff" points="1701.49,-69.41 1711.95,-67.74 1702.73,-62.52 1701.49,-69.41"/>
</a>
</g>
</g>
<!-- Node27&#45;&gt;Node17 -->
<g id="edge37_Node000027_Node000017" class="edge">
<title>Node27&#45;&gt;Node17</title>
<g id="a_edge37_Node000027_Node000017"><a xlink:title=" ">
<path fill="none" stroke="#63b8ff" d="M1808.67,-61.24C1827.4,-51.25 1850.05,-39.18 1867.23,-30.01"/>
<polygon fill="#63b8ff" stroke="#63b8ff" points="1807.01,-58.16 1799.83,-65.95 1810.31,-64.34 1807.01,-58.16"/>
</a>
</g>
</g>
<!-- Node27&#45;&gt;Node24 -->
<g id="edge38_Node000027_Node000024" class="edge">
<title>Node27&#45;&gt;Node24</title>
<g id="a_edge38_Node000027_Node000024"><a xlink:title=" ">
<path fill="none" stroke="#63b8ff" d="M1757.35,-57.53C1750.81,-48.43 1743.45,-38.19 1737.68,-30.16"/>
<polygon fill="#63b8ff" stroke="#63b8ff" points="1754.61,-59.72 1763.29,-65.8 1760.3,-55.63 1754.61,-59.72"/>
</a>
</g>
</g>
<!-- Node28 -->
<g id="Node000028" class="node">
<title>Node28</title>
<g id="a_Node000028"><a xlink:href="TakeoffMissionItem_8cc.html" target="_top" xlink:title=" ">
<polygon fill="white" stroke="#666666" points="1620.5,-30 1492.5,-30 1492.5,0 1620.5,0 1620.5,-30"/>
<text text-anchor="start" x="1500.5" y="-18" font-family="Helvetica,sans-Serif" font-size="10.00">src/MissionManager</text>
<text text-anchor="middle" x="1556.5" y="-7" font-family="Helvetica,sans-Serif" font-size="10.00">/TakeoffMissionItem.cc</text>
</a>
</g>
</g>
<!-- Node27&#45;&gt;Node28 -->
<g id="edge39_Node000027_Node000028" class="edge">
<title>Node27&#45;&gt;Node28</title>
<g id="a_edge39_Node000027_Node000028"><a xlink:title=" ">
<path fill="none" stroke="#63b8ff" d="M1716.27,-63.12C1681.28,-52.8 1637.06,-39.76 1604.01,-30.01"/>
<polygon fill="#63b8ff" stroke="#63b8ff" points="1715.3,-66.48 1725.88,-65.95 1717.28,-59.77 1715.3,-66.48"/>
</a>
</g>
</g>
<!-- Node29&#45;&gt;Node17 -->
<g id="edge42_Node000029_Node000017" class="edge">
<title>Node29&#45;&gt;Node17</title>
<g id="a_edge42_Node000029_Node000017"><a xlink:title=" ">
<path fill="none" stroke="#63b8ff" d="M2461.09,-65.91C2238.95,-41.39 2179.4,-60.13 1961.5,-30 1958.63,-29.6 1955.71,-29.16 1952.76,-28.68"/>
<polygon fill="#63b8ff" stroke="#63b8ff" points="2460.78,-69.39 2471.11,-67.03 2461.56,-62.44 2460.78,-69.39"/>
</a>
</g>
</g>
<!-- Node30 -->
<g id="Node000030" class="node">
<title>Node30</title>
<g id="a_Node000030"><a xlink:href="QGCCorePlugin_8cc.html" target="_top" xlink:title=" ">
<polygon fill="white" stroke="#666666" points="2601.5,-24.5 2461.5,-24.5 2461.5,-5.5 2601.5,-5.5 2601.5,-24.5"/>
<text text-anchor="middle" x="2531.5" y="-12.5" font-family="Helvetica,sans-Serif" font-size="10.00">src/API/QGCCorePlugin.cc</text>
</a>
</g>
</g>
<!-- Node29&#45;&gt;Node30 -->
<g id="edge41_Node000029_Node000030" class="edge">
<title>Node29&#45;&gt;Node30</title>
<g id="a_edge41_Node000029_Node000030"><a xlink:title=" ">
<path fill="none" stroke="#63b8ff" d="M2544.72,-56.28C2541.12,-45.31 2537.06,-32.94 2534.4,-24.84"/>
<polygon fill="#63b8ff" stroke="#63b8ff" points="2541.4,-57.39 2547.84,-65.8 2548.05,-55.2 2541.4,-57.39"/>
</a>
</g>
</g>
<!-- Node31 -->
<g id="Node000031" class="node">
<title>Node31</title>
<g id="a_Node000031"><a xlink:href="StructureScanComplexItem_8cc.html" target="_top" xlink:title=" ">
<polygon fill="white" stroke="#666666" points="3113,-30 2946,-30 2946,0 3113,0 3113,-30"/>
<text text-anchor="start" x="2954" y="-18" font-family="Helvetica,sans-Serif" font-size="10.00">src/MissionManager</text>
<text text-anchor="middle" x="3029.5" y="-7" font-family="Helvetica,sans-Serif" font-size="10.00">/StructureScanComplexItem.cc</text>
</a>
</g>
</g>
<!-- Node29&#45;&gt;Node31 -->
<g id="edge43_Node000029_Node000031" class="edge">
<title>Node29&#45;&gt;Node31</title>
<g id="a_edge43_Node000029_Node000031"><a xlink:title=" ">
<path fill="none" stroke="#63b8ff" d="M2643.97,-68.69C2722.03,-58.91 2837.22,-44.14 2937.5,-30 2940.22,-29.62 2942.98,-29.22 2945.77,-28.82"/>
<polygon fill="#63b8ff" stroke="#63b8ff" points="2643.18,-65.26 2633.69,-69.98 2644.05,-72.21 2643.18,-65.26"/>
</a>
</g>
</g>
<!-- Node32 -->
<g id="Node000032" class="node">
<title>Node32</title>
<g id="a_Node000032"><a xlink:href="StructureScanPlanCreator_8cc.html" target="_top" xlink:title=" ">
<polygon fill="white" stroke="#666666" points="2777,-30 2620,-30 2620,0 2777,0 2777,-30"/>
<text text-anchor="start" x="2628" y="-18" font-family="Helvetica,sans-Serif" font-size="10.00">src/MissionManager</text>
<text text-anchor="middle" x="2698.5" y="-7" font-family="Helvetica,sans-Serif" font-size="10.00">/StructureScanPlanCreator.cc</text>
</a>
</g>
</g>
<!-- Node29&#45;&gt;Node32 -->
<g id="edge44_Node000029_Node000032" class="edge">
<title>Node29&#45;&gt;Node32</title>
<g id="a_edge44_Node000029_Node000032"><a xlink:title=" ">
<path fill="none" stroke="#63b8ff" d="M2593.75,-61.92C2616.82,-51.8 2645.16,-39.38 2666.53,-30.01"/>
<polygon fill="#63b8ff" stroke="#63b8ff" points="2592.29,-58.73 2584.54,-65.95 2595.1,-65.15 2592.29,-58.73"/>
</a>
</g>
</g>
<!-- Node35 -->
<g id="Node000035" class="node">
<title>Node35</title>
<g id="a_Node000035"><a xlink:href="CorridorScanComplexItem_8h.html" target="_top" xlink:title=" ">
<polygon fill="white" stroke="#666666" points="2125,-96 1968,-96 1968,-66 2125,-66 2125,-96"/>
<text text-anchor="start" x="1976" y="-84" font-family="Helvetica,sans-Serif" font-size="10.00">src/MissionManager</text>
<text text-anchor="middle" x="2046.5" y="-73" font-family="Helvetica,sans-Serif" font-size="10.00">/CorridorScanComplexItem.h</text>
</a>
</g>
</g>
<!-- Node34&#45;&gt;Node35 -->
<g id="edge47_Node000034_Node000035" class="edge">
<title>Node34&#45;&gt;Node35</title>
<g id="a_edge47_Node000034_Node000035"><a xlink:title=" ">
<path fill="none" stroke="#63b8ff" d="M2208.48,-129.12C2173.01,-118.8 2128.17,-105.76 2094.67,-96.01"/>
<polygon fill="#63b8ff" stroke="#63b8ff" points="2207.64,-132.52 2218.22,-131.95 2209.6,-125.8 2207.64,-132.52"/>
</a>
</g>
</g>
<!-- Node38 -->
<g id="Node000038" class="node">
<title>Node38</title>
<g id="a_Node000038"><a xlink:href="SurveyComplexItem_8h.html" target="_top" xlink:title=" ">
<polygon fill="white" stroke="#666666" points="2271.5,-96 2143.5,-96 2143.5,-66 2271.5,-66 2271.5,-96"/>
<text text-anchor="start" x="2151.5" y="-84" font-family="Helvetica,sans-Serif" font-size="10.00">src/MissionManager</text>
<text text-anchor="middle" x="2207.5" y="-73" font-family="Helvetica,sans-Serif" font-size="10.00">/SurveyComplexItem.h</text>
</a>
</g>
</g>
<!-- Node34&#45;&gt;Node38 -->
<g id="edge52_Node000034_Node000038" class="edge">
<title>Node34&#45;&gt;Node38</title>
<g id="a_edge52_Node000034_Node000038"><a xlink:title=" ">
<path fill="none" stroke="#63b8ff" d="M2246.56,-124.37C2237.98,-115.06 2228.19,-104.44 2220.56,-96.16"/>
<polygon fill="#63b8ff" stroke="#63b8ff" points="2244.05,-126.82 2253.41,-131.8 2249.2,-122.07 2244.05,-126.82"/>
</a>
</g>
</g>
<!-- Node40 -->
<g id="Node000040" class="node">
<title>Node40</title>
<g id="a_Node000040"><a xlink:href="TransectStyleComplexItem_8cc.html" target="_top" xlink:title=" ">
<polygon fill="white" stroke="#666666" points="2453.5,-96 2289.5,-96 2289.5,-66 2453.5,-66 2453.5,-96"/>
<text text-anchor="start" x="2297.5" y="-84" font-family="Helvetica,sans-Serif" font-size="10.00">src/MissionManager</text>
<text text-anchor="middle" x="2371.5" y="-73" font-family="Helvetica,sans-Serif" font-size="10.00">/TransectStyleComplexItem.cc</text>
</a>
</g>
</g>
<!-- Node34&#45;&gt;Node40 -->
<g id="edge57_Node000034_Node000040" class="edge">
<title>Node34&#45;&gt;Node40</title>
<g id="a_edge57_Node000034_Node000040"><a xlink:title=" ">
<path fill="none" stroke="#63b8ff" d="M2298.17,-126.69C2314.38,-116.82 2333.75,-105.01 2348.51,-96.01"/>
<polygon fill="#63b8ff" stroke="#63b8ff" points="2296.26,-123.76 2289.54,-131.95 2299.9,-129.74 2296.26,-123.76"/>
</a>
</g>
</g>
<!-- Node35&#45;&gt;Node17 -->
<g id="edge51_Node000035_Node000017" class="edge">
<title>Node35&#45;&gt;Node17</title>
<g id="a_edge51_Node000035_Node000017"><a xlink:title=" ">
<path fill="none" stroke="#63b8ff" d="M2003.6,-62.05C1979.36,-51.91 1949.5,-39.43 1927,-30.01"/>
<polygon fill="#63b8ff" stroke="#63b8ff" points="2002.35,-65.32 2012.92,-65.95 2005.05,-58.87 2002.35,-65.32"/>
</a>
</g>
</g>
<!-- Node35&#45;&gt;Node30 -->
<g id="edge48_Node000035_Node000030" class="edge">
<title>Node35&#45;&gt;Node30</title>
<g id="a_edge48_Node000035_Node000030"><a xlink:title=" ">
<path fill="none" stroke="#63b8ff" d="M2135.11,-65.96C2277.12,-46.97 2314.9,-49.96 2452.5,-30 2463.39,-28.42 2475.08,-26.48 2486.04,-24.56"/>
<polygon fill="#63b8ff" stroke="#63b8ff" points="2134.6,-62.5 2125.16,-67.31 2135.53,-69.44 2134.6,-62.5"/>
</a>
</g>
</g>
<!-- Node36 -->
<g id="Node000036" class="node">
<title>Node36</title>
<g id="a_Node000036"><a xlink:href="CorridorScanComplexItem_8cc.html" target="_top" xlink:title=" ">
<polygon fill="white" stroke="#666666" points="2302,-30 2141,-30 2141,0 2302,0 2302,-30"/>
<text text-anchor="start" x="2149" y="-18" font-family="Helvetica,sans-Serif" font-size="10.00">src/MissionManager</text>
<text text-anchor="middle" x="2221.5" y="-7" font-family="Helvetica,sans-Serif" font-size="10.00">/CorridorScanComplexItem.cc</text>
</a>
</g>
</g>
<!-- Node35&#45;&gt;Node36 -->
<g id="edge49_Node000035_Node000036" class="edge">
<title>Node35&#45;&gt;Node36</title>
<g id="a_edge49_Node000035_Node000036"><a xlink:title=" ">
<path fill="none" stroke="#63b8ff" d="M2094.47,-62.46C2122.39,-52.25 2157.1,-39.55 2183.19,-30.01"/>
<polygon fill="#63b8ff" stroke="#63b8ff" points="2093.09,-59.23 2084.9,-65.95 2095.5,-65.81 2093.09,-59.23"/>
</a>
</g>
</g>
<!-- Node37 -->
<g id="Node000037" class="node">
<title>Node37</title>
<g id="a_Node000037"><a xlink:href="CorridorScanPlanCreator_8cc.html" target="_top" xlink:title=" ">
<polygon fill="white" stroke="#666666" points="2122.5,-30 1970.5,-30 1970.5,0 2122.5,0 2122.5,-30"/>
<text text-anchor="start" x="1978.5" y="-18" font-family="Helvetica,sans-Serif" font-size="10.00">src/MissionManager</text>
<text text-anchor="middle" x="2046.5" y="-7" font-family="Helvetica,sans-Serif" font-size="10.00">/CorridorScanPlanCreator.cc</text>
</a>
</g>
</g>
<!-- Node35&#45;&gt;Node37 -->
<g id="edge50_Node000035_Node000037" class="edge">
<title>Node35&#45;&gt;Node37</title>
<g id="a_edge50_Node000035_Node000037"><a xlink:title=" ">
<path fill="none" stroke="#63b8ff" d="M2046.5,-55.54C2046.5,-46.96 2046.5,-37.61 2046.5,-30.16"/>
<polygon fill="#63b8ff" stroke="#63b8ff" points="2043,-55.8 2046.5,-65.8 2050,-55.8 2043,-55.8"/>
</a>
</g>
</g>
<!-- Node38&#45;&gt;Node17 -->
<g id="edge54_Node000038_Node000017" class="edge">
<title>Node38&#45;&gt;Node17</title>
<g id="a_edge54_Node000038_Node000017"><a xlink:title=" ">
<path fill="none" stroke="#63b8ff" d="M2133.41,-64.99C2084.58,-55.09 2019.22,-41.81 1961.5,-30 1958.67,-29.42 1955.77,-28.83 1952.84,-28.23"/>
<polygon fill="#63b8ff" stroke="#63b8ff" points="2132.77,-68.43 2143.26,-66.99 2134.16,-61.57 2132.77,-68.43"/>
</a>
</g>
</g>
<!-- Node38&#45;&gt;Node30 -->
<g id="edge53_Node000038_Node000030" class="edge">
<title>Node38&#45;&gt;Node30</title>
<g id="a_edge53_Node000038_Node000030"><a xlink:title=" ">
<path fill="none" stroke="#63b8ff" d="M2281.53,-65.38C2345.44,-52.75 2435.56,-34.95 2488.32,-24.53"/>
<polygon fill="#63b8ff" stroke="#63b8ff" points="2280.64,-61.98 2271.51,-67.36 2282,-68.85 2280.64,-61.98"/>
</a>
</g>
</g>
<!-- Node38&#45;&gt;Node33 -->
<g id="edge55_Node000038_Node000033" class="edge">
<title>Node38&#45;&gt;Node33</title>
<g id="a_edge55_Node000038_Node000033"><a xlink:title=" ">
<path fill="none" stroke="#63b8ff" d="M2281.63,-65.97C2505.81,-37.35 2566.16,-58.31 2786.5,-30 2789.26,-29.65 2792.07,-29.25 2794.91,-28.84"/>
<polygon fill="#63b8ff" stroke="#63b8ff" points="2280.99,-62.52 2271.52,-67.28 2281.89,-69.46 2280.99,-62.52"/>
</a>
</g>
</g>
<!-- Node39 -->
<g id="Node000039" class="node">
<title>Node39</title>
<g id="a_Node000039"><a xlink:href="SurveyPlanCreator_8cc.html" target="_top" xlink:title=" ">
<polygon fill="white" stroke="#666666" points="2443,-30 2320,-30 2320,0 2443,0 2443,-30"/>
<text text-anchor="start" x="2328" y="-18" font-family="Helvetica,sans-Serif" font-size="10.00">src/MissionManager</text>
<text text-anchor="middle" x="2381.5" y="-7" font-family="Helvetica,sans-Serif" font-size="10.00">/SurveyPlanCreator.cc</text>
</a>
</g>
</g>
<!-- Node38&#45;&gt;Node39 -->
<g id="edge56_Node000038_Node000039" class="edge">
<title>Node38&#45;&gt;Node39</title>
<g id="a_edge56_Node000038_Node000039"><a xlink:title=" ">
<path fill="none" stroke="#63b8ff" d="M2255.2,-62.46C2282.96,-52.25 2317.47,-39.55 2343.4,-30.01"/>
<polygon fill="#63b8ff" stroke="#63b8ff" points="2253.86,-59.22 2245.69,-65.95 2256.28,-65.79 2253.86,-59.22"/>
</a>
</g>
</g>
</g>
</svg>
