<?xml version="1.0" encoding="UTF-8" standalone="no"?>
<!DOCTYPE svg PUBLIC "-//W3C//DTD SVG 1.1//EN"
 "http://www.w3.org/Graphics/SVG/1.1/DTD/svg11.dtd">
<!-- Generated by graphviz version 2.43.0 (0)
 -->
<!-- Title: src/MissionManager/MissionSettingsItem.h Pages: 1 -->
<svg width="620pt" height="104pt"
 viewBox="0.00 0.00 620.00 104.00" xmlns="http://www.w3.org/2000/svg" xmlns:xlink="http://www.w3.org/1999/xlink">
<g id="graph0" class="graph" transform="scale(1 1) rotate(0) translate(4 100)">
<title>src/MissionManager/MissionSettingsItem.h</title>
<!-- Node1 -->
<g id="Node000001" class="node">
<title>Node1</title>
<g id="a_Node000001"><a xlink:title=" ">
<polygon fill="#999999" stroke="#666666" points="376,-96 248,-96 248,-66 376,-66 376,-96"/>
<text text-anchor="start" x="256" y="-84" font-family="Helvetica,sans-Serif" font-size="10.00">src/MissionManager</text>
<text text-anchor="middle" x="312" y="-73" font-family="Helvetica,sans-Serif" font-size="10.00">/MissionSettingsItem.h</text>
</a>
</g>
</g>
<!-- Node2 -->
<g id="Node000002" class="node">
<title>Node2</title>
<g id="a_Node000002"><a xlink:href="MissionController_8cc.html" target="_top" xlink:title=" ">
<polygon fill="white" stroke="#666666" points="118,-30 0,-30 0,0 118,0 118,-30"/>
<text text-anchor="start" x="8" y="-18" font-family="Helvetica,sans-Serif" font-size="10.00">src/MissionManager</text>
<text text-anchor="middle" x="59" y="-7" font-family="Helvetica,sans-Serif" font-size="10.00">/MissionController.cc</text>
</a>
</g>
</g>
<!-- Node1&#45;&gt;Node2 -->
<g id="edge1_Node000001_Node000002" class="edge">
<title>Node1&#45;&gt;Node2</title>
<g id="a_edge1_Node000001_Node000002"><a xlink:title=" ">
<path fill="none" stroke="#63b8ff" d="M246.58,-63.45C205.59,-53.08 153.33,-39.86 114.39,-30.01"/>
<polygon fill="#63b8ff" stroke="#63b8ff" points="245.93,-66.9 256.48,-65.95 247.64,-60.11 245.93,-66.9"/>
</a>
</g>
</g>
<!-- Node3 -->
<g id="Node000003" class="node">
<title>Node3</title>
<g id="a_Node000003"><a xlink:href="MissionFlightStatusCalculator_8cc.html" target="_top" xlink:title=" ">
<polygon fill="white" stroke="#666666" points="314,-30 136,-30 136,0 314,0 314,-30"/>
<text text-anchor="start" x="144" y="-18" font-family="Helvetica,sans-Serif" font-size="10.00">src/MissionManager</text>
<text text-anchor="middle" x="225" y="-7" font-family="Helvetica,sans-Serif" font-size="10.00">/MissionFlightStatusCalculator.cc</text>
</a>
</g>
</g>
<!-- Node1&#45;&gt;Node3 -->
<g id="edge2_Node000001_Node000003" class="edge">
<title>Node1&#45;&gt;Node3</title>
<g id="a_edge2_Node000001_Node000003"><a xlink:title=" ">
<path fill="none" stroke="#63b8ff" d="M284.48,-59.75C271.39,-50.13 256.07,-38.86 244.25,-30.16"/>
<polygon fill="#63b8ff" stroke="#63b8ff" points="282.56,-62.69 292.69,-65.8 286.71,-57.05 282.56,-62.69"/>
</a>
</g>
</g>
<!-- Node4 -->
<g id="Node000004" class="node">
<title>Node4</title>
<g id="a_Node000004"><a xlink:href="MissionSettingsItem_8cc.html" target="_top" xlink:title=" ">
<polygon fill="white" stroke="#666666" points="465.5,-30 332.5,-30 332.5,0 465.5,0 465.5,-30"/>
<text text-anchor="start" x="340.5" y="-18" font-family="Helvetica,sans-Serif" font-size="10.00">src/MissionManager</text>
<text text-anchor="middle" x="399" y="-7" font-family="Helvetica,sans-Serif" font-size="10.00">/MissionSettingsItem.cc</text>
</a>
</g>
</g>
<!-- Node1&#45;&gt;Node4 -->
<g id="edge3_Node000001_Node000004" class="edge">
<title>Node1&#45;&gt;Node4</title>
<g id="a_edge3_Node000001_Node000004"><a xlink:title=" ">
<path fill="none" stroke="#63b8ff" d="M339.52,-59.75C352.61,-50.13 367.93,-38.86 379.75,-30.16"/>
<polygon fill="#63b8ff" stroke="#63b8ff" points="337.29,-57.05 331.31,-65.8 341.44,-62.69 337.29,-57.05"/>
</a>
</g>
</g>
<!-- Node5 -->
<g id="Node000005" class="node">
<title>Node5</title>
<g id="a_Node000005"><a xlink:href="TakeoffMissionItem_8cc.html" target="_top" xlink:title=" ">
<polygon fill="white" stroke="#666666" points="612,-30 484,-30 484,0 612,0 612,-30"/>
<text text-anchor="start" x="492" y="-18" font-family="Helvetica,sans-Serif" font-size="10.00">src/MissionManager</text>
<text text-anchor="middle" x="548" y="-7" font-family="Helvetica,sans-Serif" font-size="10.00">/TakeoffMissionItem.cc</text>
</a>
</g>
</g>
<!-- Node1&#45;&gt;Node5 -->
<g id="edge4_Node000001_Node000005" class="edge">
<title>Node1&#45;&gt;Node5</title>
<g id="a_edge4_Node000001_Node000005"><a xlink:title=" ">
<path fill="none" stroke="#63b8ff" d="M373.75,-63.25C411.88,-52.91 460.24,-39.8 496.33,-30.01"/>
<polygon fill="#63b8ff" stroke="#63b8ff" points="372.53,-59.96 363.79,-65.95 374.36,-66.72 372.53,-59.96"/>
</a>
</g>
</g>
</g>
</svg>
