<?xml version="1.0" encoding="UTF-8" standalone="no"?>
<!DOCTYPE svg PUBLIC "-//W3C//DTD SVG 1.1//EN"
 "http://www.w3.org/Graphics/SVG/1.1/DTD/svg11.dtd">
<!-- Generated by graphviz version 2.43.0 (0)
 -->
<!-- Title: src/MissionManager/MissionController.h Pages: 1 -->
<svg width="1832pt" height="313pt"
 viewBox="0.00 0.00 1832.16 313.00" xmlns="http://www.w3.org/2000/svg" xmlns:xlink="http://www.w3.org/1999/xlink">
<g id="graph0" class="graph" transform="scale(1 1) rotate(0) translate(4 309)">
<title>src/MissionManager/MissionController.h</title>
<!-- Node1 -->
<g id="Node000001" class="node">
<title>Node1</title>
<g id="a_Node000001"><a xlink:title=" ">
<polygon fill="#999999" stroke="#666666" points="648.66,-305 534.66,-305 534.66,-275 648.66,-275 648.66,-305"/>
<text text-anchor="start" x="542.66" y="-293" font-family="Helvetica,sans-Serif" font-size="10.00">src/MissionManager</text>
<text text-anchor="middle" x="591.66" y="-282" font-family="Helvetica,sans-Serif" font-size="10.00">/MissionController.h</text>
</a>
</g>
</g>
<!-- Node2 -->
<g id="Node000002" class="node">
<title>Node2</title>
<g id="a_Node000002"><a xlink:title=" ">
<polygon fill="#e0e0e0" stroke="#999999" points="366.66,-74 280.66,-74 280.66,-55 366.66,-55 366.66,-74"/>
<text text-anchor="middle" x="323.66" y="-62" font-family="Helvetica,sans-Serif" font-size="10.00">QtCore/QHash</text>
</a>
</g>
</g>
<!-- Node1&#45;&gt;Node2 -->
<g id="edge1_Node000001_Node000002" class="edge">
<title>Node1&#45;&gt;Node2</title>
<g id="a_edge1_Node000001_Node000002"><a xlink:title=" ">
<path fill="none" stroke="#63b8ff" d="M534.5,-288.3C396.16,-286.03 52.14,-276.61 17.66,-239 -63.89,-150.03 162.83,-95.03 270.47,-74.57"/>
<polygon fill="#63b8ff" stroke="#63b8ff" points="271.31,-77.98 280.5,-72.7 270.02,-71.09 271.31,-77.98"/>
</a>
</g>
</g>
<!-- Node3 -->
<g id="Node000003" class="node">
<title>Node3</title>
<g id="a_Node000003"><a xlink:title=" ">
<polygon fill="#e0e0e0" stroke="#999999" points="104.66,-239 26.66,-239 26.66,-220 104.66,-220 104.66,-239"/>
<text text-anchor="middle" x="65.66" y="-227" font-family="Helvetica,sans-Serif" font-size="10.00">QtCore/QFile</text>
</a>
</g>
</g>
<!-- Node1&#45;&gt;Node3 -->
<g id="edge2_Node000001_Node000003" class="edge">
<title>Node1&#45;&gt;Node3</title>
<g id="a_edge2_Node000001_Node000003"><a xlink:title=" ">
<path fill="none" stroke="#63b8ff" d="M534.48,-284.34C446.58,-276.89 272.75,-261 115.27,-239.13"/>
<polygon fill="#63b8ff" stroke="#63b8ff" points="115.31,-235.61 104.92,-237.69 114.34,-242.54 115.31,-235.61"/>
</a>
</g>
</g>
<!-- Node4 -->
<g id="Node000004" class="node">
<title>Node4</title>
<g id="a_Node000004"><a xlink:title=" ">
<polygon fill="#e0e0e0" stroke="#999999" points="528.16,-74 385.16,-74 385.16,-55 528.16,-55 528.16,-74"/>
<text text-anchor="middle" x="456.66" y="-62" font-family="Helvetica,sans-Serif" font-size="10.00">QtCore/QLoggingCategory</text>
</a>
</g>
</g>
<!-- Node1&#45;&gt;Node4 -->
<g id="edge3_Node000001_Node000004" class="edge">
<title>Node1&#45;&gt;Node4</title>
<g id="a_edge3_Node000001_Node000004"><a xlink:title=" ">
<path fill="none" stroke="#63b8ff" d="M566.47,-274.88C537.31,-259.14 487.42,-234.06 441.66,-220 395.15,-205.71 257.12,-221.13 225.66,-184 174.94,-124.12 300.06,-90.88 385.3,-75.74"/>
<polygon fill="#63b8ff" stroke="#63b8ff" points="385.96,-79.18 395.22,-74.02 384.77,-72.28 385.96,-79.18"/>
</a>
</g>
</g>
<!-- Node5 -->
<g id="Node000005" class="node">
<title>Node5</title>
<g id="a_Node000005"><a xlink:title=" ">
<polygon fill="#e0e0e0" stroke="#999999" points="433.16,-239 266.16,-239 266.16,-220 433.16,-220 433.16,-239"/>
<text text-anchor="middle" x="349.66" y="-227" font-family="Helvetica,sans-Serif" font-size="10.00">QtCore/QPersistentModelIndex</text>
</a>
</g>
</g>
<!-- Node1&#45;&gt;Node5 -->
<g id="edge4_Node000001_Node000005" class="edge">
<title>Node1&#45;&gt;Node5</title>
<g id="a_edge4_Node000001_Node000005"><a xlink:title=" ">
<path fill="none" stroke="#63b8ff" d="M534.62,-275.21C491.94,-264.89 434.37,-250.98 394.86,-241.42"/>
<polygon fill="#63b8ff" stroke="#63b8ff" points="395.51,-237.98 384.97,-239.03 393.87,-244.79 395.51,-237.98"/>
</a>
</g>
</g>
<!-- Node6 -->
<g id="Node000006" class="node">
<title>Node6</title>
<g id="a_Node000006"><a xlink:title=" ">
<polygon fill="#e0e0e0" stroke="#999999" points="730.16,-184 565.16,-184 565.16,-165 730.16,-165 730.16,-184"/>
<text text-anchor="middle" x="647.66" y="-172" font-family="Helvetica,sans-Serif" font-size="10.00">QtPositioning/QGeoCoordinate</text>
</a>
</g>
</g>
<!-- Node1&#45;&gt;Node6 -->
<g id="edge5_Node000001_Node000006" class="edge">
<title>Node1&#45;&gt;Node6</title>
<g id="a_edge5_Node000001_Node000006"><a xlink:title=" ">
<path fill="none" stroke="#63b8ff" d="M598.76,-274.63C608.97,-253.93 627.79,-215.78 638.87,-193.32"/>
<polygon fill="#63b8ff" stroke="#63b8ff" points="642.07,-194.75 643.36,-184.23 635.79,-191.65 642.07,-194.75"/>
</a>
</g>
</g>
<!-- Node7 -->
<g id="Node000007" class="node">
<title>Node7</title>
<g id="a_Node000007"><a xlink:title=" ">
<polygon fill="#e0e0e0" stroke="#999999" points="735.16,-74 546.16,-74 546.16,-55 735.16,-55 735.16,-74"/>
<text text-anchor="middle" x="640.66" y="-62" font-family="Helvetica,sans-Serif" font-size="10.00">QtQmlIntegration/QtQmlIntegration</text>
</a>
</g>
</g>
<!-- Node1&#45;&gt;Node7 -->
<g id="edge6_Node000001_Node000007" class="edge">
<title>Node1&#45;&gt;Node7</title>
<g id="a_edge6_Node000001_Node000007"><a xlink:title=" ">
<path fill="none" stroke="#63b8ff" d="M581.58,-274.65C566.5,-251.34 541.31,-203.91 555.66,-165 568.73,-129.59 600.63,-98.24 621.42,-80.59"/>
<polygon fill="#63b8ff" stroke="#63b8ff" points="623.81,-83.16 629.3,-74.1 619.36,-77.76 623.81,-83.16"/>
</a>
</g>
</g>
<!-- Node8 -->
<g id="Node000008" class="node">
<title>Node8</title>
<g id="a_Node000008"><a xlink:href="PlanElementController_8h.html" target="_top" xlink:title=" ">
<polygon fill="white" stroke="#666666" points="1452.66,-129 1318.66,-129 1318.66,-110 1452.66,-110 1452.66,-129"/>
<text text-anchor="middle" x="1385.66" y="-117" font-family="Helvetica,sans-Serif" font-size="10.00">PlanElementController.h</text>
</a>
</g>
</g>
<!-- Node1&#45;&gt;Node8 -->
<g id="edge7_Node000001_Node000008" class="edge">
<title>Node1&#45;&gt;Node8</title>
<g id="a_edge7_Node000001_Node000008"><a xlink:title=" ">
<path fill="none" stroke="#63b8ff" d="M648.72,-286.49C834.65,-277.75 1414.24,-245.71 1468.66,-184 1487.24,-162.94 1453.03,-144.14 1423.06,-132.56"/>
<polygon fill="#63b8ff" stroke="#63b8ff" points="1424.14,-129.23 1413.55,-129.06 1421.73,-135.8 1424.14,-129.23"/>
</a>
</g>
</g>
<!-- Node10 -->
<g id="Node000010" class="node">
<title>Node10</title>
<g id="a_Node000010"><a xlink:href="QmlObjectListModel_8h.html" target="_top" xlink:title=" ">
<polygon fill="white" stroke="#666666" points="248.16,-239 123.16,-239 123.16,-220 248.16,-220 248.16,-239"/>
<text text-anchor="middle" x="185.66" y="-227" font-family="Helvetica,sans-Serif" font-size="10.00">QmlObjectListModel.h</text>
</a>
</g>
</g>
<!-- Node1&#45;&gt;Node10 -->
<g id="edge9_Node000001_Node000010" class="edge">
<title>Node1&#45;&gt;Node10</title>
<g id="a_edge9_Node000001_Node000010"><a xlink:title=" ">
<path fill="none" stroke="#63b8ff" d="M534.36,-280.74C460.93,-270.16 333.76,-251.84 254.97,-240.49"/>
<polygon fill="#63b8ff" stroke="#63b8ff" points="255.06,-236.96 244.66,-239 254.06,-243.89 255.06,-236.96"/>
</a>
</g>
</g>
<!-- Node14 -->
<g id="Node000014" class="node">
<title>Node14</title>
<g id="a_Node000014"><a xlink:href="QmlObjectTreeModel_8h.html" target="_top" xlink:title=" ">
<polygon fill="white" stroke="#666666" points="508.66,-184 380.66,-184 380.66,-165 508.66,-165 508.66,-184"/>
<text text-anchor="middle" x="444.66" y="-172" font-family="Helvetica,sans-Serif" font-size="10.00">QmlObjectTreeModel.h</text>
</a>
</g>
</g>
<!-- Node1&#45;&gt;Node14 -->
<g id="edge16_Node000001_Node000014" class="edge">
<title>Node1&#45;&gt;Node14</title>
<g id="a_edge16_Node000001_Node000014"><a xlink:title=" ">
<path fill="none" stroke="#63b8ff" d="M571.52,-274.85C557.64,-265 538.85,-251.44 522.66,-239 501.87,-223.02 478.63,-203.94 462.97,-190.89"/>
<polygon fill="#63b8ff" stroke="#63b8ff" points="465.03,-188.05 455.11,-184.32 460.54,-193.42 465.03,-188.05"/>
</a>
</g>
</g>
<!-- Node15 -->
<g id="Node000015" class="node">
<title>Node15</title>
<g id="a_Node000015"><a xlink:href="QGCGeoBoundingCube_8h.html" target="_top" xlink:title=" ">
<polygon fill="white" stroke="#666666" points="832.16,-239 695.16,-239 695.16,-220 832.16,-220 832.16,-239"/>
<text text-anchor="middle" x="763.66" y="-227" font-family="Helvetica,sans-Serif" font-size="10.00">QGCGeoBoundingCube.h</text>
</a>
</g>
</g>
<!-- Node1&#45;&gt;Node15 -->
<g id="edge20_Node000001_Node000015" class="edge">
<title>Node1&#45;&gt;Node15</title>
<g id="a_edge20_Node000001_Node000015"><a xlink:title=" ">
<path fill="none" stroke="#63b8ff" d="M632.86,-274.99C662.16,-265.02 701.08,-251.78 728.84,-242.35"/>
<polygon fill="#63b8ff" stroke="#63b8ff" points="730.18,-245.59 738.52,-239.05 727.92,-238.96 730.18,-245.59"/>
</a>
</g>
</g>
<!-- Node16 -->
<g id="Node000016" class="node">
<title>Node16</title>
<g id="a_Node000016"><a xlink:href="QGroundControlQmlGlobal_8h.html" target="_top" xlink:title=" ">
<polygon fill="white" stroke="#666666" points="1023.16,-239 868.16,-239 868.16,-220 1023.16,-220 1023.16,-239"/>
<text text-anchor="middle" x="945.66" y="-227" font-family="Helvetica,sans-Serif" font-size="10.00">QGroundControlQmlGlobal.h</text>
</a>
</g>
</g>
<!-- Node1&#45;&gt;Node16 -->
<g id="edge24_Node000001_Node000016" class="edge">
<title>Node1&#45;&gt;Node16</title>
<g id="a_edge24_Node000001_Node000016"><a xlink:title=" ">
<path fill="none" stroke="#63b8ff" d="M648.93,-279.54C713.43,-268.88 817.85,-251.62 884.06,-240.68"/>
<polygon fill="#63b8ff" stroke="#63b8ff" points="884.65,-244.13 893.95,-239.05 883.51,-237.22 884.65,-244.13"/>
</a>
</g>
</g>
<!-- Node28 -->
<g id="Node000028" class="node">
<title>Node28</title>
<g id="a_Node000028"><a xlink:href="QGCMAVLink_8h.html" target="_top" xlink:title=" ">
<polygon fill="white" stroke="#666666" points="1560.16,-129 1471.16,-129 1471.16,-110 1560.16,-110 1560.16,-129"/>
<text text-anchor="middle" x="1515.66" y="-117" font-family="Helvetica,sans-Serif" font-size="10.00">QGCMAVLink.h</text>
</a>
</g>
</g>
<!-- Node1&#45;&gt;Node28 -->
<g id="edge44_Node000001_Node000028" class="edge">
<title>Node1&#45;&gt;Node28</title>
<g id="a_edge44_Node000001_Node000028"><a xlink:title=" ">
<path fill="none" stroke="#63b8ff" d="M648.74,-287.15C798.57,-281.99 1200.5,-265.97 1330.66,-239 1402.24,-224.17 1431.45,-233.03 1485.66,-184 1498.79,-172.13 1506.68,-153.3 1511.05,-139.22"/>
<polygon fill="#63b8ff" stroke="#63b8ff" points="1514.53,-139.74 1513.83,-129.17 1507.79,-137.88 1514.53,-139.74"/>
</a>
</g>
</g>
<!-- Node36 -->
<g id="Node000036" class="node">
<title>Node36</title>
<g id="a_Node000036"><a xlink:href="MissionFlightStatus_8h.html" target="_top" xlink:title=" ">
<polygon fill="white" stroke="#666666" points="1737.66,-184 1615.66,-184 1615.66,-165 1737.66,-165 1737.66,-184"/>
<text text-anchor="middle" x="1676.66" y="-172" font-family="Helvetica,sans-Serif" font-size="10.00">MissionFlightStatus.h</text>
</a>
</g>
</g>
<!-- Node1&#45;&gt;Node36 -->
<g id="edge56_Node000001_Node000036" class="edge">
<title>Node1&#45;&gt;Node36</title>
<g id="a_edge56_Node000001_Node000036"><a xlink:title=" ">
<path fill="none" stroke="#63b8ff" d="M648.81,-288.82C826.8,-287.81 1369.41,-281.27 1539.66,-239 1545.41,-237.57 1611.29,-206.53 1649.56,-188.38"/>
<polygon fill="#63b8ff" stroke="#63b8ff" points="1651.11,-191.52 1658.64,-184.07 1648.11,-185.2 1651.11,-191.52"/>
</a>
</g>
</g>
<!-- Node37 -->
<g id="Node000037" class="node">
<title>Node37</title>
<g id="a_Node000037"><a xlink:href="MissionFlightStatusCalculator_8h.html" target="_top" xlink:title=" ">
<polygon fill="white" stroke="#666666" points="1761.66,-239 1591.66,-239 1591.66,-220 1761.66,-220 1761.66,-239"/>
<text text-anchor="middle" x="1676.66" y="-227" font-family="Helvetica,sans-Serif" font-size="10.00">MissionFlightStatusCalculator.h</text>
</a>
</g>
</g>
<!-- Node1&#45;&gt;Node37 -->
<g id="edge58_Node000001_Node000037" class="edge">
<title>Node1&#45;&gt;Node37</title>
<g id="a_edge58_Node000001_Node000037"><a xlink:title=" ">
<path fill="none" stroke="#63b8ff" d="M648.67,-286.81C800.06,-280.83 1224.76,-263.09 1577.66,-239 1578.95,-238.91 1580.24,-238.82 1581.54,-238.73"/>
<polygon fill="#63b8ff" stroke="#63b8ff" points="1581.91,-242.21 1591.62,-237.99 1581.4,-235.23 1581.91,-242.21"/>
</a>
</g>
</g>
<!-- Node9 -->
<g id="Node000009" class="node">
<title>Node9</title>
<g id="a_Node000009"><a xlink:title=" ">
<polygon fill="#e0e0e0" stroke="#999999" points="1321.66,-74 1229.66,-74 1229.66,-55 1321.66,-55 1321.66,-74"/>
<text text-anchor="middle" x="1275.66" y="-62" font-family="Helvetica,sans-Serif" font-size="10.00">QtCore/QObject</text>
</a>
</g>
</g>
<!-- Node8&#45;&gt;Node9 -->
<g id="edge8_Node000008_Node000009" class="edge">
<title>Node8&#45;&gt;Node9</title>
<g id="a_edge8_Node000008_Node000009"><a xlink:title=" ">
<path fill="none" stroke="#63b8ff" d="M1367.99,-109.98C1350.38,-101.5 1323.09,-88.35 1302.74,-78.54"/>
<polygon fill="#63b8ff" stroke="#63b8ff" points="1304.19,-75.36 1293.66,-74.17 1301.15,-81.66 1304.19,-75.36"/>
</a>
</g>
</g>
<!-- Node10&#45;&gt;Node4 -->
<g id="edge15_Node000010_Node000004" class="edge">
<title>Node10&#45;&gt;Node4</title>
<g id="a_edge15_Node000010_Node000004"><a xlink:title=" ">
<path fill="none" stroke="#63b8ff" d="M182.94,-219.69C176.81,-197.96 164.58,-141.29 192.66,-110 204.9,-96.37 302.11,-82.66 375.04,-74.13"/>
<polygon fill="#63b8ff" stroke="#63b8ff" points="375.63,-77.59 385.16,-72.96 374.82,-70.63 375.63,-77.59"/>
</a>
</g>
</g>
<!-- Node11 -->
<g id="Node000011" class="node">
<title>Node11</title>
<g id="a_Node000011"><a xlink:href="ObjectListModelBase_8h.html" target="_top" xlink:title=" ">
<polygon fill="white" stroke="#666666" points="362.66,-184 234.66,-184 234.66,-165 362.66,-165 362.66,-184"/>
<text text-anchor="middle" x="298.66" y="-172" font-family="Helvetica,sans-Serif" font-size="10.00">ObjectListModelBase.h</text>
</a>
</g>
</g>
<!-- Node10&#45;&gt;Node11 -->
<g id="edge10_Node000010_Node000011" class="edge">
<title>Node10&#45;&gt;Node11</title>
<g id="a_edge10_Node000010_Node000011"><a xlink:title=" ">
<path fill="none" stroke="#63b8ff" d="M203.82,-219.98C221.92,-211.5 249.95,-198.35 270.85,-188.54"/>
<polygon fill="#63b8ff" stroke="#63b8ff" points="272.61,-191.59 280.18,-184.17 269.64,-185.25 272.61,-191.59"/>
</a>
</g>
</g>
<!-- Node12 -->
<g id="Node000012" class="node">
<title>Node12</title>
<g id="a_Node000012"><a xlink:href="ObjectItemModelBase_8h.html" target="_top" xlink:title=" ">
<polygon fill="white" stroke="#666666" points="428.66,-129 294.66,-129 294.66,-110 428.66,-110 428.66,-129"/>
<text text-anchor="middle" x="361.66" y="-117" font-family="Helvetica,sans-Serif" font-size="10.00">ObjectItemModelBase.h</text>
</a>
</g>
</g>
<!-- Node11&#45;&gt;Node12 -->
<g id="edge11_Node000011_Node000012" class="edge">
<title>Node11&#45;&gt;Node12</title>
<g id="a_edge11_Node000011_Node000012"><a xlink:title=" ">
<path fill="none" stroke="#63b8ff" d="M308.79,-164.98C318.1,-157.15 332.13,-145.34 343.4,-135.86"/>
<polygon fill="#63b8ff" stroke="#63b8ff" points="345.96,-138.29 351.36,-129.17 341.45,-132.93 345.96,-138.29"/>
</a>
</g>
</g>
<!-- Node12&#45;&gt;Node4 -->
<g id="edge13_Node000012_Node000004" class="edge">
<title>Node12&#45;&gt;Node4</title>
<g id="a_edge13_Node000012_Node000004"><a xlink:title=" ">
<path fill="none" stroke="#63b8ff" d="M376.93,-109.98C391.8,-101.69 414.65,-88.94 432.08,-79.22"/>
<polygon fill="#63b8ff" stroke="#63b8ff" points="434.1,-82.1 441.12,-74.17 430.69,-75.99 434.1,-82.1"/>
</a>
</g>
</g>
<!-- Node12&#45;&gt;Node7 -->
<g id="edge14_Node000012_Node000007" class="edge">
<title>Node12&#45;&gt;Node7</title>
<g id="a_edge14_Node000012_Node000007"><a xlink:title=" ">
<path fill="none" stroke="#63b8ff" d="M406.49,-109.98C455.16,-100.74 532.93,-85.97 585.36,-76.01"/>
<polygon fill="#63b8ff" stroke="#63b8ff" points="586.32,-79.39 595.49,-74.08 585.01,-72.51 586.32,-79.39"/>
</a>
</g>
</g>
<!-- Node13 -->
<g id="Node000013" class="node">
<title>Node13</title>
<g id="a_Node000013"><a xlink:title=" ">
<polygon fill="#e0e0e0" stroke="#999999" points="262.66,-74 108.66,-74 108.66,-55 262.66,-55 262.66,-74"/>
<text text-anchor="middle" x="185.66" y="-62" font-family="Helvetica,sans-Serif" font-size="10.00">QtCore/QAbstractItemModel</text>
</a>
</g>
</g>
<!-- Node12&#45;&gt;Node13 -->
<g id="edge12_Node000012_Node000013" class="edge">
<title>Node12&#45;&gt;Node13</title>
<g id="a_edge12_Node000012_Node000013"><a xlink:title=" ">
<path fill="none" stroke="#63b8ff" d="M333.39,-109.98C303.71,-101.05 256.88,-86.94 223.91,-77.02"/>
<polygon fill="#63b8ff" stroke="#63b8ff" points="224.75,-73.61 214.16,-74.08 222.73,-80.32 224.75,-73.61"/>
</a>
</g>
</g>
<!-- Node14&#45;&gt;Node4 -->
<g id="edge18_Node000014_Node000004" class="edge">
<title>Node14&#45;&gt;Node4</title>
<g id="a_edge18_Node000014_Node000004"><a xlink:title=" ">
<path fill="none" stroke="#63b8ff" d="M445.65,-164.66C447.59,-147.17 451.96,-107.8 454.58,-84.27"/>
<polygon fill="#63b8ff" stroke="#63b8ff" points="458.08,-84.48 455.7,-74.16 451.12,-83.71 458.08,-84.48"/>
</a>
</g>
</g>
<!-- Node14&#45;&gt;Node7 -->
<g id="edge19_Node000014_Node000007" class="edge">
<title>Node14&#45;&gt;Node7</title>
<g id="a_edge19_Node000014_Node000007"><a xlink:title=" ">
<path fill="none" stroke="#63b8ff" d="M460.37,-164.84C494.43,-146.08 575.29,-101.52 616.15,-79.01"/>
<polygon fill="#63b8ff" stroke="#63b8ff" points="618.08,-81.94 625.15,-74.05 614.71,-75.81 618.08,-81.94"/>
</a>
</g>
</g>
<!-- Node14&#45;&gt;Node12 -->
<g id="edge17_Node000014_Node000012" class="edge">
<title>Node14&#45;&gt;Node12</title>
<g id="a_edge17_Node000014_Node000012"><a xlink:title=" ">
<path fill="none" stroke="#63b8ff" d="M431.33,-164.98C418.58,-156.84 399.11,-144.41 383.99,-134.76"/>
<polygon fill="#63b8ff" stroke="#63b8ff" points="385.55,-131.6 375.24,-129.17 381.79,-137.5 385.55,-131.6"/>
</a>
</g>
</g>
<!-- Node15&#45;&gt;Node6 -->
<g id="edge22_Node000015_Node000006" class="edge">
<title>Node15&#45;&gt;Node6</title>
<g id="a_edge22_Node000015_Node000006"><a xlink:title=" ">
<path fill="none" stroke="#63b8ff" d="M745.03,-219.98C726.37,-211.46 697.41,-198.23 675.92,-188.41"/>
<polygon fill="#63b8ff" stroke="#63b8ff" points="677.19,-185.14 666.64,-184.17 674.28,-191.51 677.19,-185.14"/>
</a>
</g>
</g>
<!-- Node15&#45;&gt;Node7 -->
<g id="edge23_Node000015_Node000007" class="edge">
<title>Node15&#45;&gt;Node7</title>
<g id="a_edge23_Node000015_Node000007"><a xlink:title=" ">
<path fill="none" stroke="#63b8ff" d="M761.44,-219.76C757.93,-207.01 750.29,-182.88 738.66,-165 716.5,-130.9 681.31,-98.77 659.68,-80.67"/>
<polygon fill="#63b8ff" stroke="#63b8ff" points="661.79,-77.87 651.84,-74.23 657.34,-83.28 661.79,-77.87"/>
</a>
</g>
</g>
<!-- Node15&#45;&gt;Node9 -->
<g id="edge21_Node000015_Node000009" class="edge">
<title>Node15&#45;&gt;Node9</title>
<g id="a_edge21_Node000015_Node000009"><a xlink:title=" ">
<path fill="none" stroke="#63b8ff" d="M778.58,-219.82C802,-206.5 849.13,-180.87 891.66,-165 1005.37,-122.59 1144.48,-91.42 1220.15,-76.11"/>
<polygon fill="#63b8ff" stroke="#63b8ff" points="1221.28,-79.45 1230.39,-74.06 1219.9,-72.59 1221.28,-79.45"/>
</a>
</g>
</g>
<!-- Node16&#45;&gt;Node4 -->
<g id="edge25_Node000016_Node000004" class="edge">
<title>Node16&#45;&gt;Node4</title>
<g id="a_edge25_Node000016_Node000004"><a xlink:title=" ">
<path fill="none" stroke="#63b8ff" d="M920.06,-219.97C838.63,-192.82 585.45,-108.43 491.88,-77.24"/>
<polygon fill="#63b8ff" stroke="#63b8ff" points="492.9,-73.89 482.31,-74.05 490.69,-80.53 492.9,-73.89"/>
</a>
</g>
</g>
<!-- Node16&#45;&gt;Node6 -->
<g id="edge28_Node000016_Node000006" class="edge">
<title>Node16&#45;&gt;Node6</title>
<g id="a_edge28_Node000016_Node000006"><a xlink:title=" ">
<path fill="none" stroke="#63b8ff" d="M897.79,-219.98C845.59,-210.7 762.04,-195.84 706.04,-185.88"/>
<polygon fill="#63b8ff" stroke="#63b8ff" points="706.38,-182.39 695.92,-184.08 705.15,-189.28 706.38,-182.39"/>
</a>
</g>
</g>
<!-- Node16&#45;&gt;Node7 -->
<g id="edge30_Node000016_Node000007" class="edge">
<title>Node16&#45;&gt;Node7</title>
<g id="a_edge30_Node000016_Node000007"><a xlink:title=" ">
<path fill="none" stroke="#63b8ff" d="M929.7,-219.97C879.78,-193.29 726.43,-111.34 665.76,-78.91"/>
<polygon fill="#63b8ff" stroke="#63b8ff" points="667.31,-75.77 656.84,-74.15 664.01,-81.95 667.31,-75.77"/>
</a>
</g>
</g>
<!-- Node17 -->
<g id="Node000017" class="node">
<title>Node17</title>
<g id="a_Node000017"><a xlink:title=" ">
<polygon fill="#e0e0e0" stroke="#999999" points="1315.66,-184 1223.66,-184 1223.66,-165 1315.66,-165 1315.66,-184"/>
<text text-anchor="middle" x="1269.66" y="-172" font-family="Helvetica,sans-Serif" font-size="10.00">QtCore/QPointF</text>
</a>
</g>
</g>
<!-- Node16&#45;&gt;Node17 -->
<g id="edge26_Node000016_Node000017" class="edge">
<title>Node16&#45;&gt;Node17</title>
<g id="a_edge26_Node000016_Node000017"><a xlink:title=" ">
<path fill="none" stroke="#63b8ff" d="M997.72,-219.98C1056.74,-210.33 1152.61,-194.65 1213.34,-184.71"/>
<polygon fill="#63b8ff" stroke="#63b8ff" points="1214.21,-188.12 1223.51,-183.05 1213.08,-181.21 1214.21,-188.12"/>
</a>
</g>
</g>
<!-- Node18 -->
<g id="Node000018" class="node">
<title>Node18</title>
<g id="a_Node000018"><a xlink:title=" ">
<polygon fill="#e0e0e0" stroke="#999999" points="990.16,-184 901.16,-184 901.16,-165 990.16,-165 990.16,-184"/>
<text text-anchor="middle" x="945.66" y="-172" font-family="Helvetica,sans-Serif" font-size="10.00">QtCore/QTimer</text>
</a>
</g>
</g>
<!-- Node16&#45;&gt;Node18 -->
<g id="edge27_Node000016_Node000018" class="edge">
<title>Node16&#45;&gt;Node18</title>
<g id="a_edge27_Node000016_Node000018"><a xlink:title=" ">
<path fill="none" stroke="#63b8ff" d="M945.66,-219.75C945.66,-212.8 945.66,-202.85 945.66,-194.13"/>
<polygon fill="#63b8ff" stroke="#63b8ff" points="949.16,-194.09 945.66,-184.09 942.16,-194.09 949.16,-194.09"/>
</a>
</g>
</g>
<!-- Node19 -->
<g id="Node000019" class="node">
<title>Node19</title>
<g id="a_Node000019"><a xlink:title=" ">
<polygon fill="#e0e0e0" stroke="#999999" points="1103.16,-184 1008.16,-184 1008.16,-165 1103.16,-165 1103.16,-184"/>
<text text-anchor="middle" x="1055.66" y="-172" font-family="Helvetica,sans-Serif" font-size="10.00">QtQml/QJSValue</text>
</a>
</g>
</g>
<!-- Node16&#45;&gt;Node19 -->
<g id="edge29_Node000016_Node000019" class="edge">
<title>Node16&#45;&gt;Node19</title>
<g id="a_edge29_Node000016_Node000019"><a xlink:title=" ">
<path fill="none" stroke="#63b8ff" d="M963.34,-219.98C980.95,-211.5 1008.24,-198.35 1028.59,-188.54"/>
<polygon fill="#63b8ff" stroke="#63b8ff" points="1030.18,-191.66 1037.67,-184.17 1027.14,-185.36 1030.18,-191.66"/>
</a>
</g>
</g>
<!-- Node20 -->
<g id="Node000020" class="node">
<title>Node20</title>
<g id="a_Node000020"><a xlink:href="QmlUnitsConversion_8h.html" target="_top" xlink:title=" ">
<polygon fill="white" stroke="#666666" points="1459.66,-184 1333.66,-184 1333.66,-165 1459.66,-165 1459.66,-184"/>
<text text-anchor="middle" x="1396.66" y="-172" font-family="Helvetica,sans-Serif" font-size="10.00">QmlUnitsConversion.h</text>
</a>
</g>
</g>
<!-- Node16&#45;&gt;Node20 -->
<g id="edge31_Node000016_Node000020" class="edge">
<title>Node16&#45;&gt;Node20</title>
<g id="a_edge31_Node000016_Node000020"><a xlink:title=" ">
<path fill="none" stroke="#63b8ff" d="M1018.32,-219.98C1092.38,-211.3 1210.88,-197.39 1323.29,-184.16"/>
<polygon fill="#63b8ff" stroke="#63b8ff" points="1323.93,-187.61 1333.45,-182.97 1323.11,-180.66 1323.93,-187.61"/>
</a>
</g>
</g>
<!-- Node27 -->
<g id="Node000027" class="node">
<title>Node27</title>
<g id="a_Node000027"><a xlink:title=" ">
<polygon fill="#e0e0e0" stroke="#999999" points="1205.66,-184 1121.66,-184 1121.66,-165 1205.66,-165 1205.66,-184"/>
<text text-anchor="middle" x="1163.66" y="-172" font-family="Helvetica,sans-Serif" font-size="10.00">qgc_version.h</text>
</a>
</g>
</g>
<!-- Node16&#45;&gt;Node27 -->
<g id="edge43_Node000016_Node000027" class="edge">
<title>Node16&#45;&gt;Node27</title>
<g id="a_edge43_Node000016_Node000027"><a xlink:title=" ">
<path fill="none" stroke="#63b8ff" d="M980.69,-219.98C1018.16,-210.87 1077.72,-196.4 1118.64,-186.45"/>
<polygon fill="#63b8ff" stroke="#63b8ff" points="1119.47,-189.85 1128.36,-184.08 1117.82,-183.04 1119.47,-189.85"/>
</a>
</g>
</g>
<!-- Node20&#45;&gt;Node9 -->
<g id="edge32_Node000020_Node000009" class="edge">
<title>Node20&#45;&gt;Node9</title>
<g id="a_edge32_Node000020_Node000009"><a xlink:title=" ">
<path fill="none" stroke="#63b8ff" d="M1370.5,-164.92C1351.75,-157.72 1326.86,-145.87 1309.66,-129 1296.72,-116.3 1287.53,-97.61 1282,-83.79"/>
<polygon fill="#63b8ff" stroke="#63b8ff" points="1285.25,-82.5 1278.47,-74.35 1278.69,-84.95 1285.25,-82.5"/>
</a>
</g>
</g>
<!-- Node21 -->
<g id="Node000021" class="node">
<title>Node21</title>
<g id="a_Node000021"><a xlink:title=" ">
<polygon fill="#e0e0e0" stroke="#999999" points="1262.16,-129 1173.16,-129 1173.16,-110 1262.16,-110 1262.16,-129"/>
<text text-anchor="middle" x="1217.66" y="-117" font-family="Helvetica,sans-Serif" font-size="10.00">QtCore/QtMath</text>
</a>
</g>
</g>
<!-- Node20&#45;&gt;Node21 -->
<g id="edge33_Node000020_Node000021" class="edge">
<title>Node20&#45;&gt;Node21</title>
<g id="a_edge33_Node000020_Node000021"><a xlink:title=" ">
<path fill="none" stroke="#63b8ff" d="M1367.91,-164.98C1337.72,-156.05 1290.09,-141.94 1256.57,-132.02"/>
<polygon fill="#63b8ff" stroke="#63b8ff" points="1257.23,-128.57 1246.65,-129.08 1255.24,-135.28 1257.23,-128.57"/>
</a>
</g>
</g>
<!-- Node22 -->
<g id="Node000022" class="node">
<title>Node22</title>
<g id="a_Node000022"><a xlink:href="FactMetaData_8h.html" target="_top" xlink:title=" ">
<polygon fill="white" stroke="#666666" points="966.16,-129 873.16,-129 873.16,-110 966.16,-110 966.16,-129"/>
<text text-anchor="middle" x="919.66" y="-117" font-family="Helvetica,sans-Serif" font-size="10.00">FactMetaData.h</text>
</a>
</g>
</g>
<!-- Node20&#45;&gt;Node22 -->
<g id="edge34_Node000020_Node000022" class="edge">
<title>Node20&#45;&gt;Node22</title>
<g id="a_edge34_Node000020_Node000022"><a xlink:title=" ">
<path fill="none" stroke="#63b8ff" d="M1333.45,-166.01C1330.48,-165.67 1327.54,-165.33 1324.66,-165 1200.57,-150.86 1054.99,-135.05 976.6,-126.61"/>
<polygon fill="#63b8ff" stroke="#63b8ff" points="976.77,-123.11 966.45,-125.52 976.02,-130.07 976.77,-123.11"/>
</a>
</g>
</g>
<!-- Node22&#45;&gt;Node2 -->
<g id="edge35_Node000022_Node000002" class="edge">
<title>Node22&#45;&gt;Node2</title>
<g id="a_edge35_Node000022_Node000002"><a xlink:title=" ">
<path fill="none" stroke="#63b8ff" d="M872.96,-115.95C780.37,-110.62 566.76,-96.95 376.92,-74.06"/>
<polygon fill="#63b8ff" stroke="#63b8ff" points="377.11,-70.55 366.76,-72.82 376.26,-77.5 377.11,-70.55"/>
</a>
</g>
</g>
<!-- Node22&#45;&gt;Node4 -->
<g id="edge36_Node000022_Node000004" class="edge">
<title>Node22&#45;&gt;Node4</title>
<g id="a_edge36_Node000022_Node000004"><a xlink:title=" ">
<path fill="none" stroke="#63b8ff" d="M873.15,-113.18C794.86,-104.21 635.78,-86 538.48,-74.87"/>
<polygon fill="#63b8ff" stroke="#63b8ff" points="538.72,-71.37 528.39,-73.71 537.92,-78.32 538.72,-71.37"/>
</a>
</g>
</g>
<!-- Node22&#45;&gt;Node7 -->
<g id="edge42_Node000022_Node000007" class="edge">
<title>Node22&#45;&gt;Node7</title>
<g id="a_edge42_Node000022_Node000007"><a xlink:title=" ">
<path fill="none" stroke="#63b8ff" d="M874.84,-109.98C826.17,-100.74 748.4,-85.97 695.97,-76.01"/>
<polygon fill="#63b8ff" stroke="#63b8ff" points="696.32,-72.51 685.84,-74.08 695.01,-79.39 696.32,-72.51"/>
</a>
</g>
</g>
<!-- Node22&#45;&gt;Node9 -->
<g id="edge39_Node000022_Node000009" class="edge">
<title>Node22&#45;&gt;Node9</title>
<g id="a_edge39_Node000022_Node000009"><a xlink:title=" ">
<path fill="none" stroke="#63b8ff" d="M966.18,-111.65C1023.2,-103.24 1123.06,-88.48 1219.59,-74.01"/>
<polygon fill="#63b8ff" stroke="#63b8ff" points="1220.15,-77.46 1229.52,-72.52 1219.11,-70.54 1220.15,-77.46"/>
</a>
</g>
</g>
<!-- Node23 -->
<g id="Node000023" class="node">
<title>Node23</title>
<g id="a_Node000023"><a xlink:title=" ">
<polygon fill="#e0e0e0" stroke="#999999" points="973.16,-74 866.16,-74 866.16,-55 973.16,-55 973.16,-74"/>
<text text-anchor="middle" x="919.66" y="-62" font-family="Helvetica,sans-Serif" font-size="10.00">QtCore/QJsonArray</text>
</a>
</g>
</g>
<!-- Node22&#45;&gt;Node23 -->
<g id="edge37_Node000022_Node000023" class="edge">
<title>Node22&#45;&gt;Node23</title>
<g id="a_edge37_Node000022_Node000023"><a xlink:title=" ">
<path fill="none" stroke="#63b8ff" d="M919.66,-109.75C919.66,-102.8 919.66,-92.85 919.66,-84.13"/>
<polygon fill="#63b8ff" stroke="#63b8ff" points="923.16,-84.09 919.66,-74.09 916.16,-84.09 923.16,-84.09"/>
</a>
</g>
</g>
<!-- Node24 -->
<g id="Node000024" class="node">
<title>Node24</title>
<g id="a_Node000024"><a xlink:title=" ">
<polygon fill="#e0e0e0" stroke="#999999" points="1104.16,-74 991.16,-74 991.16,-55 1104.16,-55 1104.16,-74"/>
<text text-anchor="middle" x="1047.66" y="-62" font-family="Helvetica,sans-Serif" font-size="10.00">QtCore/QJsonObject</text>
</a>
</g>
</g>
<!-- Node22&#45;&gt;Node24 -->
<g id="edge38_Node000022_Node000024" class="edge">
<title>Node22&#45;&gt;Node24</title>
<g id="a_edge38_Node000022_Node000024"><a xlink:title=" ">
<path fill="none" stroke="#63b8ff" d="M940.23,-109.98C961.1,-101.34 993.64,-87.87 1017.44,-78.02"/>
<polygon fill="#63b8ff" stroke="#63b8ff" points="1018.82,-81.23 1026.73,-74.17 1016.15,-74.76 1018.82,-81.23"/>
</a>
</g>
</g>
<!-- Node25 -->
<g id="Node000025" class="node">
<title>Node25</title>
<g id="a_Node000025"><a xlink:title=" ">
<polygon fill="#e0e0e0" stroke="#999999" points="1211.16,-74 1122.16,-74 1122.16,-55 1211.16,-55 1211.16,-74"/>
<text text-anchor="middle" x="1166.66" y="-62" font-family="Helvetica,sans-Serif" font-size="10.00">QtCore/QString</text>
</a>
</g>
</g>
<!-- Node22&#45;&gt;Node25 -->
<g id="edge40_Node000022_Node000025" class="edge">
<title>Node22&#45;&gt;Node25</title>
<g id="a_edge40_Node000022_Node000025"><a xlink:title=" ">
<path fill="none" stroke="#63b8ff" d="M959.35,-109.98C1002.16,-100.8 1070.43,-86.15 1116.83,-76.19"/>
<polygon fill="#63b8ff" stroke="#63b8ff" points="1117.63,-79.6 1126.67,-74.08 1116.16,-72.76 1117.63,-79.6"/>
</a>
</g>
</g>
<!-- Node26 -->
<g id="Node000026" class="node">
<title>Node26</title>
<g id="a_Node000026"><a xlink:title=" ">
<polygon fill="#e0e0e0" stroke="#999999" points="848.16,-74 753.16,-74 753.16,-55 848.16,-55 848.16,-74"/>
<text text-anchor="middle" x="800.66" y="-62" font-family="Helvetica,sans-Serif" font-size="10.00">QtCore/QVariant</text>
</a>
</g>
</g>
<!-- Node22&#45;&gt;Node26 -->
<g id="edge41_Node000022_Node000026" class="edge">
<title>Node22&#45;&gt;Node26</title>
<g id="a_edge41_Node000022_Node000026"><a xlink:title=" ">
<path fill="none" stroke="#63b8ff" d="M900.55,-109.98C881.32,-101.42 851.43,-88.11 829.36,-78.28"/>
<polygon fill="#63b8ff" stroke="#63b8ff" points="830.69,-75.04 820.13,-74.17 827.84,-81.44 830.69,-75.04"/>
</a>
</g>
</g>
<!-- Node28&#45;&gt;Node4 -->
<g id="edge46_Node000028_Node000004" class="edge">
<title>Node28&#45;&gt;Node4</title>
<g id="a_edge46_Node000028_Node000004"><a xlink:title=" ">
<path fill="none" stroke="#63b8ff" d="M1470.93,-111.04C1467.8,-110.65 1464.69,-110.3 1461.66,-110 1055.5,-70.27 948.72,-103.21 538.24,-74.06"/>
<polygon fill="#63b8ff" stroke="#63b8ff" points="538.4,-70.56 528.17,-73.34 537.9,-77.54 538.4,-70.56"/>
</a>
</g>
</g>
<!-- Node28&#45;&gt;Node7 -->
<g id="edge49_Node000028_Node000007" class="edge">
<title>Node28&#45;&gt;Node7</title>
<g id="a_edge49_Node000028_Node000007"><a xlink:title=" ">
<path fill="none" stroke="#63b8ff" d="M1470.92,-111.08C1467.79,-110.68 1464.69,-110.31 1461.66,-110 1147.11,-77.45 1064.17,-94.78 745.22,-74.08"/>
<polygon fill="#63b8ff" stroke="#63b8ff" points="745.44,-70.59 735.23,-73.42 744.98,-77.57 745.44,-70.59"/>
</a>
</g>
</g>
<!-- Node28&#45;&gt;Node9 -->
<g id="edge47_Node000028_Node000009" class="edge">
<title>Node28&#45;&gt;Node9</title>
<g id="a_edge47_Node000028_Node000009"><a xlink:title=" ">
<path fill="none" stroke="#63b8ff" d="M1477.1,-109.98C1435.59,-100.82 1369.45,-86.21 1324.37,-76.26"/>
<polygon fill="#63b8ff" stroke="#63b8ff" points="1325.05,-72.82 1314.53,-74.08 1323.54,-79.66 1325.05,-72.82"/>
</a>
</g>
</g>
<!-- Node28&#45;&gt;Node25 -->
<g id="edge48_Node000028_Node000025" class="edge">
<title>Node28&#45;&gt;Node25</title>
<g id="a_edge48_Node000028_Node000025"><a xlink:title=" ">
<path fill="none" stroke="#63b8ff" d="M1470.88,-111.42C1467.76,-110.94 1464.67,-110.46 1461.66,-110 1357.75,-94.06 1329.36,-90.62 1221.44,-74.11"/>
<polygon fill="#63b8ff" stroke="#63b8ff" points="1221.86,-70.63 1211.45,-72.58 1220.8,-77.55 1221.86,-70.63"/>
</a>
</g>
</g>
<!-- Node29 -->
<g id="Node000029" class="node">
<title>Node29</title>
<g id="a_Node000029"><a xlink:title=" ">
<polygon fill="#e0e0e0" stroke="#999999" points="1569.66,-74 1491.66,-74 1491.66,-55 1569.66,-55 1569.66,-74"/>
<text text-anchor="middle" x="1530.66" y="-62" font-family="Helvetica,sans-Serif" font-size="10.00">QtCore/QList</text>
</a>
</g>
</g>
<!-- Node28&#45;&gt;Node29 -->
<g id="edge45_Node000028_Node000029" class="edge">
<title>Node28&#45;&gt;Node29</title>
<g id="a_edge45_Node000028_Node000029"><a xlink:title=" ">
<path fill="none" stroke="#63b8ff" d="M1518.14,-109.75C1520.13,-102.72 1522.99,-92.62 1525.47,-83.84"/>
<polygon fill="#63b8ff" stroke="#63b8ff" points="1528.88,-84.66 1528.23,-74.09 1522.14,-82.76 1528.88,-84.66"/>
</a>
</g>
</g>
<!-- Node30 -->
<g id="Node000030" class="node">
<title>Node30</title>
<g id="a_Node000030"><a xlink:title=" ">
<polygon fill="#e0e0e0" stroke="#999999" points="1689.16,-74 1588.16,-74 1588.16,-55 1689.16,-55 1689.16,-74"/>
<text text-anchor="middle" x="1638.66" y="-62" font-family="Helvetica,sans-Serif" font-size="10.00">MAVLinkEnums.h</text>
</a>
</g>
</g>
<!-- Node28&#45;&gt;Node30 -->
<g id="edge50_Node000028_Node000030" class="edge">
<title>Node28&#45;&gt;Node30</title>
<g id="a_edge50_Node000028_Node000030"><a xlink:title=" ">
<path fill="none" stroke="#63b8ff" d="M1535.43,-109.98C1555.39,-101.38 1586.47,-87.99 1609.31,-78.15"/>
<polygon fill="#63b8ff" stroke="#63b8ff" points="1610.74,-81.34 1618.54,-74.17 1607.97,-74.91 1610.74,-81.34"/>
</a>
</g>
</g>
<!-- Node31 -->
<g id="Node000031" class="node">
<title>Node31</title>
<g id="a_Node000031"><a xlink:href="MAVLinkMessageType_8h.html" target="_top" xlink:title=" ">
<polygon fill="white" stroke="#666666" points="1473.66,-74 1339.66,-74 1339.66,-55 1473.66,-55 1473.66,-74"/>
<text text-anchor="middle" x="1406.66" y="-62" font-family="Helvetica,sans-Serif" font-size="10.00">MAVLinkMessageType.h</text>
</a>
</g>
</g>
<!-- Node28&#45;&gt;Node31 -->
<g id="edge51_Node000028_Node000031" class="edge">
<title>Node28&#45;&gt;Node31</title>
<g id="a_edge51_Node000028_Node000031"><a xlink:title=" ">
<path fill="none" stroke="#63b8ff" d="M1498.15,-109.98C1480.7,-101.5 1453.66,-88.35 1433.49,-78.54"/>
<polygon fill="#63b8ff" stroke="#63b8ff" points="1435.02,-75.4 1424.5,-74.17 1431.96,-81.69 1435.02,-75.4"/>
</a>
</g>
</g>
<!-- Node34 -->
<g id="Node000034" class="node">
<title>Node34</title>
<g id="a_Node000034"><a xlink:href="QGCMAVLinkTypes_8h.html" target="_top" xlink:title=" ">
<polygon fill="white" stroke="#666666" points="1824.16,-74 1707.16,-74 1707.16,-55 1824.16,-55 1824.16,-74"/>
<text text-anchor="middle" x="1765.66" y="-62" font-family="Helvetica,sans-Serif" font-size="10.00">QGCMAVLinkTypes.h</text>
</a>
</g>
</g>
<!-- Node28&#45;&gt;Node34 -->
<g id="edge54_Node000028_Node000034" class="edge">
<title>Node28&#45;&gt;Node34</title>
<g id="a_edge54_Node000028_Node000034"><a xlink:title=" ">
<path fill="none" stroke="#63b8ff" d="M1555.83,-109.98C1599.17,-100.8 1668.26,-86.15 1715.22,-76.19"/>
<polygon fill="#63b8ff" stroke="#63b8ff" points="1716.13,-79.58 1725.18,-74.08 1714.67,-72.73 1716.13,-79.58"/>
</a>
</g>
</g>
<!-- Node32 -->
<g id="Node000032" class="node">
<title>Node32</title>
<g id="a_Node000032"><a xlink:title=" ">
<polygon fill="#e0e0e0" stroke="#999999" points="1386.16,-19 1333.16,-19 1333.16,0 1386.16,0 1386.16,-19"/>
<text text-anchor="middle" x="1359.66" y="-7" font-family="Helvetica,sans-Serif" font-size="10.00">stdint.h</text>
</a>
</g>
</g>
<!-- Node31&#45;&gt;Node32 -->
<g id="edge52_Node000031_Node000032" class="edge">
<title>Node31&#45;&gt;Node32</title>
<g id="a_edge52_Node000031_Node000032"><a xlink:title=" ">
<path fill="none" stroke="#63b8ff" d="M1398.9,-54.75C1392.2,-47.18 1382.32,-36.05 1374.16,-26.84"/>
<polygon fill="#63b8ff" stroke="#63b8ff" points="1376.54,-24.25 1367.28,-19.09 1371.3,-28.89 1376.54,-24.25"/>
</a>
</g>
</g>
<!-- Node33 -->
<g id="Node000033" class="node">
<title>Node33</title>
<g id="a_Node000033"><a xlink:title=" ">
<polygon fill="#e0e0e0" stroke="#999999" points="1502.66,-19 1404.66,-19 1404.66,0 1502.66,0 1502.66,-19"/>
<text text-anchor="middle" x="1453.66" y="-7" font-family="Helvetica,sans-Serif" font-size="10.00">mavlink_types.h</text>
</a>
</g>
</g>
<!-- Node31&#45;&gt;Node33 -->
<g id="edge53_Node000031_Node000033" class="edge">
<title>Node31&#45;&gt;Node33</title>
<g id="a_edge53_Node000031_Node000033"><a xlink:title=" ">
<path fill="none" stroke="#63b8ff" d="M1414.43,-54.75C1421.13,-47.18 1431.01,-36.05 1439.17,-26.84"/>
<polygon fill="#63b8ff" stroke="#63b8ff" points="1442.03,-28.89 1446.05,-19.09 1436.79,-24.25 1442.03,-28.89"/>
</a>
</g>
</g>
<!-- Node35 -->
<g id="Node000035" class="node">
<title>Node35</title>
<g id="a_Node000035"><a xlink:title=" ">
<polygon fill="#e0e0e0" stroke="#999999" points="1790.66,-19 1740.66,-19 1740.66,0 1790.66,0 1790.66,-19"/>
<text text-anchor="middle" x="1765.66" y="-7" font-family="Helvetica,sans-Serif" font-size="10.00">cstdint</text>
</a>
</g>
</g>
<!-- Node34&#45;&gt;Node35 -->
<g id="edge55_Node000034_Node000035" class="edge">
<title>Node34&#45;&gt;Node35</title>
<g id="a_edge55_Node000034_Node000035"><a xlink:title=" ">
<path fill="none" stroke="#63b8ff" d="M1765.66,-54.75C1765.66,-47.8 1765.66,-37.85 1765.66,-29.13"/>
<polygon fill="#63b8ff" stroke="#63b8ff" points="1769.16,-29.09 1765.66,-19.09 1762.16,-29.09 1769.16,-29.09"/>
</a>
</g>
</g>
<!-- Node36&#45;&gt;Node34 -->
<g id="edge57_Node000036_Node000034" class="edge">
<title>Node36&#45;&gt;Node34</title>
<g id="a_edge57_Node000036_Node000034"><a xlink:title=" ">
<path fill="none" stroke="#63b8ff" d="M1683.95,-164.66C1698.82,-146.61 1732.89,-105.28 1752,-82.08"/>
<polygon fill="#63b8ff" stroke="#63b8ff" points="1754.87,-84.1 1758.53,-74.16 1749.47,-79.65 1754.87,-84.1"/>
</a>
</g>
</g>
<!-- Node37&#45;&gt;Node36 -->
<g id="edge59_Node000037_Node000036" class="edge">
<title>Node37&#45;&gt;Node36</title>
<g id="a_edge59_Node000037_Node000036"><a xlink:title=" ">
<path fill="none" stroke="#63b8ff" d="M1676.66,-219.75C1676.66,-212.8 1676.66,-202.85 1676.66,-194.13"/>
<polygon fill="#63b8ff" stroke="#63b8ff" points="1680.16,-194.09 1676.66,-184.09 1673.16,-194.09 1680.16,-194.09"/>
</a>
</g>
</g>
</g>
</svg>
