<?xml version="1.0" encoding="UTF-8" standalone="no"?>
<!DOCTYPE svg PUBLIC "-//W3C//DTD SVG 1.1//EN"
 "http://www.w3.org/Graphics/SVG/1.1/DTD/svg11.dtd">
<!-- Generated by graphviz version 2.43.0 (0)
 -->
<!-- Title: src/MissionManager/MissionController.h Pages: 1 -->
<svg width="1562pt" height="313pt"
 viewBox="0.00 0.00 1562.00 313.00" xmlns="http://www.w3.org/2000/svg" xmlns:xlink="http://www.w3.org/1999/xlink">
<g id="graph0" class="graph" transform="scale(1 1) rotate(0) translate(4 309)">
<title>src/MissionManager/MissionController.h</title>
<!-- Node1 -->
<g id="Node000001" class="node">
<title>Node1</title>
<g id="a_Node000001"><a xlink:title=" ">
<polygon fill="#999999" stroke="#666666" points="547,-305 433,-305 433,-275 547,-275 547,-305"/>
<text text-anchor="start" x="441" y="-293" font-family="Helvetica,sans-Serif" font-size="10.00">src/MissionManager</text>
<text text-anchor="middle" x="490" y="-282" font-family="Helvetica,sans-Serif" font-size="10.00">/MissionController.h</text>
</a>
</g>
</g>
<!-- Node2 -->
<g id="Node000002" class="node">
<title>Node2</title>
<g id="a_Node000002"><a xlink:title=" ">
<polygon fill="#e0e0e0" stroke="#999999" points="86,-239 0,-239 0,-220 86,-220 86,-239"/>
<text text-anchor="middle" x="43" y="-227" font-family="Helvetica,sans-Serif" font-size="10.00">QtCore/QHash</text>
</a>
</g>
</g>
<!-- Node1&#45;&gt;Node2 -->
<g id="edge1_Node000001_Node000002" class="edge">
<title>Node1&#45;&gt;Node2</title>
<g id="a_edge1_Node000001_Node000002"><a xlink:title=" ">
<path fill="none" stroke="#63b8ff" d="M432.68,-282.4C357.77,-273.63 222.27,-257.27 96.32,-239.15"/>
<polygon fill="#63b8ff" stroke="#63b8ff" points="96.51,-235.64 86.11,-237.67 95.51,-242.57 96.51,-235.64"/>
</a>
</g>
</g>
<!-- Node3 -->
<g id="Node000003" class="node">
<title>Node3</title>
<g id="a_Node000003"><a xlink:title=" ">
<polygon fill="#e0e0e0" stroke="#999999" points="182,-239 104,-239 104,-220 182,-220 182,-239"/>
<text text-anchor="middle" x="143" y="-227" font-family="Helvetica,sans-Serif" font-size="10.00">QtCore/QFile</text>
</a>
</g>
</g>
<!-- Node1&#45;&gt;Node3 -->
<g id="edge2_Node000001_Node000003" class="edge">
<title>Node1&#45;&gt;Node3</title>
<g id="a_edge2_Node000001_Node000003"><a xlink:title=" ">
<path fill="none" stroke="#63b8ff" d="M432.7,-279.34C365.6,-268.03 255.58,-249.48 192.18,-238.79"/>
<polygon fill="#63b8ff" stroke="#63b8ff" points="192.49,-235.29 182.05,-237.08 191.33,-242.2 192.49,-235.29"/>
</a>
</g>
</g>
<!-- Node4 -->
<g id="Node000004" class="node">
<title>Node4</title>
<g id="a_Node000004"><a xlink:title=" ">
<polygon fill="#e0e0e0" stroke="#999999" points="246.5,-74 103.5,-74 103.5,-55 246.5,-55 246.5,-74"/>
<text text-anchor="middle" x="175" y="-62" font-family="Helvetica,sans-Serif" font-size="10.00">QtCore/QLoggingCategory</text>
</a>
</g>
</g>
<!-- Node1&#45;&gt;Node4 -->
<g id="edge3_Node000001_Node000004" class="edge">
<title>Node1&#45;&gt;Node4</title>
<g id="a_edge3_Node000001_Node000004"><a xlink:title=" ">
<path fill="none" stroke="#63b8ff" d="M432.87,-278.92C374.97,-266.03 286.02,-238.5 229,-184 199.96,-156.24 185.22,-109.92 178.91,-84.18"/>
<polygon fill="#63b8ff" stroke="#63b8ff" points="182.28,-83.21 176.65,-74.24 175.46,-84.76 182.28,-83.21"/>
</a>
</g>
</g>
<!-- Node5 -->
<g id="Node000005" class="node">
<title>Node5</title>
<g id="a_Node000005"><a xlink:title=" ">
<polygon fill="#e0e0e0" stroke="#999999" points="620.5,-74 431.5,-74 431.5,-55 620.5,-55 620.5,-74"/>
<text text-anchor="middle" x="526" y="-62" font-family="Helvetica,sans-Serif" font-size="10.00">QtQmlIntegration/QtQmlIntegration</text>
</a>
</g>
</g>
<!-- Node1&#45;&gt;Node5 -->
<g id="edge4_Node000001_Node000005" class="edge">
<title>Node1&#45;&gt;Node5</title>
<g id="a_edge4_Node000001_Node000005"><a xlink:title=" ">
<path fill="none" stroke="#63b8ff" d="M492.31,-274.68C498.57,-235.76 515.92,-128.07 522.97,-84.33"/>
<polygon fill="#63b8ff" stroke="#63b8ff" points="526.46,-84.66 524.59,-74.23 519.55,-83.55 526.46,-84.66"/>
</a>
</g>
</g>
<!-- Node6 -->
<g id="Node000006" class="node">
<title>Node6</title>
<g id="a_Node000006"><a xlink:href="PlanElementController_8h.html" target="_top" xlink:title=" ">
<polygon fill="white" stroke="#666666" points="998,-129 864,-129 864,-110 998,-110 998,-129"/>
<text text-anchor="middle" x="931" y="-117" font-family="Helvetica,sans-Serif" font-size="10.00">PlanElementController.h</text>
</a>
</g>
</g>
<!-- Node1&#45;&gt;Node6 -->
<g id="edge5_Node000001_Node000006" class="edge">
<title>Node1&#45;&gt;Node6</title>
<g id="a_edge5_Node000001_Node000006"><a xlink:title=" ">
<path fill="none" stroke="#63b8ff" d="M517.94,-274.89C567.55,-250.23 674.66,-198.71 769,-165 807.08,-151.39 851.44,-139.47 884.1,-131.4"/>
<polygon fill="#63b8ff" stroke="#63b8ff" points="884.95,-134.8 893.84,-129.02 883.29,-127.99 884.95,-134.8"/>
</a>
</g>
</g>
<!-- Node8 -->
<g id="Node000008" class="node">
<title>Node8</title>
<g id="a_Node000008"><a xlink:href="QmlObjectListModel_8h.html" target="_top" xlink:title=" ">
<polygon fill="white" stroke="#666666" points="363.5,-184 238.5,-184 238.5,-165 363.5,-165 363.5,-184"/>
<text text-anchor="middle" x="301" y="-172" font-family="Helvetica,sans-Serif" font-size="10.00">QmlObjectListModel.h</text>
</a>
</g>
</g>
<!-- Node1&#45;&gt;Node8 -->
<g id="edge7_Node000001_Node000008" class="edge">
<title>Node1&#45;&gt;Node8</title>
<g id="a_edge7_Node000001_Node000008"><a xlink:title=" ">
<path fill="none" stroke="#63b8ff" d="M466.45,-274.85C430.11,-253.03 360.8,-211.41 324.5,-189.61"/>
<polygon fill="#63b8ff" stroke="#63b8ff" points="325.98,-186.42 315.6,-184.27 322.38,-192.42 325.98,-186.42"/>
</a>
</g>
</g>
<!-- Node11 -->
<g id="Node000011" class="node">
<title>Node11</title>
<g id="a_Node000011"><a xlink:href="QGCGeoBoundingCube_8h.html" target="_top" xlink:title=" ">
<polygon fill="white" stroke="#666666" points="840.5,-239 703.5,-239 703.5,-220 840.5,-220 840.5,-239"/>
<text text-anchor="middle" x="772" y="-227" font-family="Helvetica,sans-Serif" font-size="10.00">QGCGeoBoundingCube.h</text>
</a>
</g>
</g>
<!-- Node1&#45;&gt;Node11 -->
<g id="edge13_Node000001_Node000011" class="edge">
<title>Node1&#45;&gt;Node11</title>
<g id="a_edge13_Node000001_Node000011"><a xlink:title=" ">
<path fill="none" stroke="#63b8ff" d="M547.07,-277.16C598,-266.6 671.91,-251.26 720.93,-241.09"/>
<polygon fill="#63b8ff" stroke="#63b8ff" points="721.92,-244.46 731,-239.01 720.5,-237.61 721.92,-244.46"/>
</a>
</g>
</g>
<!-- Node13 -->
<g id="Node000013" class="node">
<title>Node13</title>
<g id="a_Node000013"><a xlink:href="QGroundControlQmlGlobal_8h.html" target="_top" xlink:title=" ">
<polygon fill="white" stroke="#666666" points="1135.5,-239 980.5,-239 980.5,-220 1135.5,-220 1135.5,-239"/>
<text text-anchor="middle" x="1058" y="-227" font-family="Helvetica,sans-Serif" font-size="10.00">QGroundControlQmlGlobal.h</text>
</a>
</g>
</g>
<!-- Node1&#45;&gt;Node13 -->
<g id="edge17_Node000001_Node000013" class="edge">
<title>Node1&#45;&gt;Node13</title>
<g id="a_edge17_Node000001_Node000013"><a xlink:title=" ">
<path fill="none" stroke="#63b8ff" d="M547.06,-283.12C646.56,-272.88 852.42,-251.67 970.2,-239.54"/>
<polygon fill="#63b8ff" stroke="#63b8ff" points="970.68,-243.01 980.27,-238.51 969.97,-236.05 970.68,-243.01"/>
</a>
</g>
</g>
<!-- Node25 -->
<g id="Node000025" class="node">
<title>Node25</title>
<g id="a_Node000025"><a xlink:href="QGCMAVLink_8h.html" target="_top" xlink:title=" ">
<polygon fill="white" stroke="#666666" points="845.5,-129 756.5,-129 756.5,-110 845.5,-110 845.5,-129"/>
<text text-anchor="middle" x="801" y="-117" font-family="Helvetica,sans-Serif" font-size="10.00">QGCMAVLink.h</text>
</a>
</g>
</g>
<!-- Node1&#45;&gt;Node25 -->
<g id="edge36_Node000001_Node000025" class="edge">
<title>Node1&#45;&gt;Node25</title>
<g id="a_edge36_Node000001_Node000025"><a xlink:title=" ">
<path fill="none" stroke="#63b8ff" d="M505.14,-274.67C532.81,-249.21 594.3,-195.84 655,-165 684.9,-149.81 720.93,-138.76 749.71,-131.47"/>
<polygon fill="#63b8ff" stroke="#63b8ff" points="750.69,-134.83 759.57,-129.05 749.02,-128.04 750.69,-134.83"/>
</a>
</g>
</g>
<!-- Node7 -->
<g id="Node000007" class="node">
<title>Node7</title>
<g id="a_Node000007"><a xlink:title=" ">
<polygon fill="#e0e0e0" stroke="#999999" points="1403,-74 1311,-74 1311,-55 1403,-55 1403,-74"/>
<text text-anchor="middle" x="1357" y="-62" font-family="Helvetica,sans-Serif" font-size="10.00">QtCore/QObject</text>
</a>
</g>
</g>
<!-- Node6&#45;&gt;Node7 -->
<g id="edge6_Node000006_Node000007" class="edge">
<title>Node6&#45;&gt;Node7</title>
<g id="a_edge6_Node000006_Node000007"><a xlink:title=" ">
<path fill="none" stroke="#63b8ff" d="M998.11,-111.14C1070.31,-103.07 1188.76,-89.38 1300.69,-74.14"/>
<polygon fill="#63b8ff" stroke="#63b8ff" points="1301.37,-77.58 1310.8,-72.76 1300.42,-70.64 1301.37,-77.58"/>
</a>
</g>
</g>
<!-- Node8&#45;&gt;Node4 -->
<g id="edge12_Node000008_Node000004" class="edge">
<title>Node8&#45;&gt;Node4</title>
<g id="a_edge12_Node000008_Node000004"><a xlink:title=" ">
<path fill="none" stroke="#63b8ff" d="M290.69,-164.66C269.26,-146.3 219.7,-103.81 192.93,-80.87"/>
<polygon fill="#63b8ff" stroke="#63b8ff" points="194.97,-78.01 185.1,-74.16 190.42,-83.32 194.97,-78.01"/>
</a>
</g>
</g>
<!-- Node9 -->
<g id="Node000009" class="node">
<title>Node9</title>
<g id="a_Node000009"><a xlink:href="ObjectListModelBase_8h.html" target="_top" xlink:title=" ">
<polygon fill="white" stroke="#666666" points="500,-129 372,-129 372,-110 500,-110 500,-129"/>
<text text-anchor="middle" x="436" y="-117" font-family="Helvetica,sans-Serif" font-size="10.00">ObjectListModelBase.h</text>
</a>
</g>
</g>
<!-- Node8&#45;&gt;Node9 -->
<g id="edge8_Node000008_Node000009" class="edge">
<title>Node8&#45;&gt;Node9</title>
<g id="a_edge8_Node000008_Node000009"><a xlink:title=" ">
<path fill="none" stroke="#63b8ff" d="M322.69,-164.98C344.8,-156.3 379.32,-142.75 404.45,-132.88"/>
<polygon fill="#63b8ff" stroke="#63b8ff" points="405.89,-136.08 413.92,-129.17 403.33,-129.57 405.89,-136.08"/>
</a>
</g>
</g>
<!-- Node9&#45;&gt;Node4 -->
<g id="edge10_Node000009_Node000004" class="edge">
<title>Node9&#45;&gt;Node4</title>
<g id="a_edge10_Node000009_Node000004"><a xlink:title=" ">
<path fill="none" stroke="#63b8ff" d="M394.07,-109.98C348.73,-100.78 276.39,-86.09 227.35,-76.13"/>
<polygon fill="#63b8ff" stroke="#63b8ff" points="227.76,-72.64 217.26,-74.08 226.37,-79.5 227.76,-72.64"/>
</a>
</g>
</g>
<!-- Node9&#45;&gt;Node5 -->
<g id="edge11_Node000009_Node000005" class="edge">
<title>Node9&#45;&gt;Node5</title>
<g id="a_edge11_Node000009_Node000005"><a xlink:title=" ">
<path fill="none" stroke="#63b8ff" d="M450.46,-109.98C464.42,-101.77 485.79,-89.18 502.25,-79.49"/>
<polygon fill="#63b8ff" stroke="#63b8ff" points="504.44,-82.26 511.28,-74.17 500.88,-76.23 504.44,-82.26"/>
</a>
</g>
</g>
<!-- Node10 -->
<g id="Node000010" class="node">
<title>Node10</title>
<g id="a_Node000010"><a xlink:title=" ">
<polygon fill="#e0e0e0" stroke="#999999" points="413.5,-74 264.5,-74 264.5,-55 413.5,-55 413.5,-74"/>
<text text-anchor="middle" x="339" y="-62" font-family="Helvetica,sans-Serif" font-size="10.00">QtCore/QAbstractListModel</text>
</a>
</g>
</g>
<!-- Node9&#45;&gt;Node10 -->
<g id="edge9_Node000009_Node000010" class="edge">
<title>Node9&#45;&gt;Node10</title>
<g id="a_edge9_Node000009_Node000010"><a xlink:title=" ">
<path fill="none" stroke="#63b8ff" d="M420.42,-109.98C405.23,-101.69 381.9,-88.94 364.1,-79.22"/>
<polygon fill="#63b8ff" stroke="#63b8ff" points="365.32,-75.89 354.87,-74.17 361.97,-82.04 365.32,-75.89"/>
</a>
</g>
</g>
<!-- Node11&#45;&gt;Node5 -->
<g id="edge16_Node000011_Node000005" class="edge">
<title>Node11&#45;&gt;Node5</title>
<g id="a_edge16_Node000011_Node000005"><a xlink:title=" ">
<path fill="none" stroke="#63b8ff" d="M703.19,-222.93C669.17,-217.33 629.08,-206.17 599,-184 563.96,-158.17 542.08,-110 532.2,-83.73"/>
<polygon fill="#63b8ff" stroke="#63b8ff" points="535.46,-82.47 528.79,-74.24 528.87,-84.83 535.46,-82.47"/>
</a>
</g>
</g>
<!-- Node11&#45;&gt;Node7 -->
<g id="edge14_Node000011_Node000007" class="edge">
<title>Node11&#45;&gt;Node7</title>
<g id="a_edge14_Node000011_Node000007"><a xlink:title=" ">
<path fill="none" stroke="#63b8ff" d="M773.6,-219.93C776.67,-206.03 784.77,-178.73 803,-165 876.53,-109.6 917.7,-151.39 1007,-129 1033.31,-122.4 1038.61,-116.28 1065,-110 1165.51,-86.08 1194.92,-89.87 1300.66,-74.18"/>
<polygon fill="#63b8ff" stroke="#63b8ff" points="1301.42,-77.6 1310.79,-72.65 1300.38,-70.68 1301.42,-77.6"/>
</a>
</g>
</g>
<!-- Node12 -->
<g id="Node000012" class="node">
<title>Node12</title>
<g id="a_Node000012"><a xlink:title=" ">
<polygon fill="#e0e0e0" stroke="#999999" points="976.5,-184 811.5,-184 811.5,-165 976.5,-165 976.5,-184"/>
<text text-anchor="middle" x="894" y="-172" font-family="Helvetica,sans-Serif" font-size="10.00">QtPositioning/QGeoCoordinate</text>
</a>
</g>
</g>
<!-- Node11&#45;&gt;Node12 -->
<g id="edge15_Node000011_Node000012" class="edge">
<title>Node11&#45;&gt;Node12</title>
<g id="a_edge15_Node000011_Node000012"><a xlink:title=" ">
<path fill="none" stroke="#63b8ff" d="M791.6,-219.98C811.32,-211.42 841.95,-198.11 864.58,-188.28"/>
<polygon fill="#63b8ff" stroke="#63b8ff" points="866.26,-191.37 874.04,-184.17 863.48,-184.94 866.26,-191.37"/>
</a>
</g>
</g>
<!-- Node13&#45;&gt;Node4 -->
<g id="edge18_Node000013_Node000004" class="edge">
<title>Node13&#45;&gt;Node4</title>
<g id="a_edge18_Node000013_Node000004"><a xlink:title=" ">
<path fill="none" stroke="#63b8ff" d="M980.49,-222.19C851.15,-210.6 583.72,-182.1 363,-129 306.36,-115.38 242.52,-92.04 205.7,-77.77"/>
<polygon fill="#63b8ff" stroke="#63b8ff" points="206.65,-74.39 196.06,-74 204.1,-80.91 206.65,-74.39"/>
</a>
</g>
</g>
<!-- Node13&#45;&gt;Node5 -->
<g id="edge23_Node000013_Node000005" class="edge">
<title>Node13&#45;&gt;Node5</title>
<g id="a_edge23_Node000013_Node000005"><a xlink:title=" ">
<path fill="none" stroke="#63b8ff" d="M986.86,-219.98C900.99,-207.84 753.59,-181.04 637,-129 604.54,-114.51 569.26,-93.3 547.39,-79.45"/>
<polygon fill="#63b8ff" stroke="#63b8ff" points="549.19,-76.45 538.88,-74.01 545.41,-82.35 549.19,-76.45"/>
</a>
</g>
</g>
<!-- Node13&#45;&gt;Node12 -->
<g id="edge21_Node000013_Node000012" class="edge">
<title>Node13&#45;&gt;Node12</title>
<g id="a_edge21_Node000013_Node000012"><a xlink:title=" ">
<path fill="none" stroke="#63b8ff" d="M1031.65,-219.98C1004.24,-211.13 961.11,-197.19 930.44,-187.28"/>
<polygon fill="#63b8ff" stroke="#63b8ff" points="931.15,-183.83 920.56,-184.08 929,-190.49 931.15,-183.83"/>
</a>
</g>
</g>
<!-- Node14 -->
<g id="Node000014" class="node">
<title>Node14</title>
<g id="a_Node000014"><a xlink:title=" ">
<polygon fill="#e0e0e0" stroke="#999999" points="1231,-184 1139,-184 1139,-165 1231,-165 1231,-184"/>
<text text-anchor="middle" x="1185" y="-172" font-family="Helvetica,sans-Serif" font-size="10.00">QtCore/QPointF</text>
</a>
</g>
</g>
<!-- Node13&#45;&gt;Node14 -->
<g id="edge19_Node000013_Node000014" class="edge">
<title>Node13&#45;&gt;Node14</title>
<g id="a_edge19_Node000013_Node000014"><a xlink:title=" ">
<path fill="none" stroke="#63b8ff" d="M1078.4,-219.98C1099.02,-211.38 1131.11,-197.99 1154.69,-188.15"/>
<polygon fill="#63b8ff" stroke="#63b8ff" points="1156.34,-191.25 1164.22,-184.17 1153.65,-184.79 1156.34,-191.25"/>
</a>
</g>
</g>
<!-- Node15 -->
<g id="Node000015" class="node">
<title>Node15</title>
<g id="a_Node000015"><a xlink:title=" ">
<polygon fill="#e0e0e0" stroke="#999999" points="1338.5,-184 1249.5,-184 1249.5,-165 1338.5,-165 1338.5,-184"/>
<text text-anchor="middle" x="1294" y="-172" font-family="Helvetica,sans-Serif" font-size="10.00">QtCore/QTimer</text>
</a>
</g>
</g>
<!-- Node13&#45;&gt;Node15 -->
<g id="edge20_Node000013_Node000015" class="edge">
<title>Node13&#45;&gt;Node15</title>
<g id="a_edge20_Node000013_Node000015"><a xlink:title=" ">
<path fill="none" stroke="#63b8ff" d="M1095.92,-219.98C1136.65,-210.84 1201.5,-196.27 1245.82,-186.32"/>
<polygon fill="#63b8ff" stroke="#63b8ff" points="1246.8,-189.69 1255.79,-184.08 1245.26,-182.86 1246.8,-189.69"/>
</a>
</g>
</g>
<!-- Node16 -->
<g id="Node000016" class="node">
<title>Node16</title>
<g id="a_Node000016"><a xlink:title=" ">
<polygon fill="#e0e0e0" stroke="#999999" points="1451.5,-184 1356.5,-184 1356.5,-165 1451.5,-165 1451.5,-184"/>
<text text-anchor="middle" x="1404" y="-172" font-family="Helvetica,sans-Serif" font-size="10.00">QtQml/QJSValue</text>
</a>
</g>
</g>
<!-- Node13&#45;&gt;Node16 -->
<g id="edge22_Node000013_Node000016" class="edge">
<title>Node13&#45;&gt;Node16</title>
<g id="a_edge22_Node000013_Node000016"><a xlink:title=" ">
<path fill="none" stroke="#63b8ff" d="M1113.59,-219.98C1177.42,-210.21 1281.62,-194.25 1346.31,-184.34"/>
<polygon fill="#63b8ff" stroke="#63b8ff" points="1346.99,-187.77 1356.34,-182.8 1345.93,-180.85 1346.99,-187.77"/>
</a>
</g>
</g>
<!-- Node17 -->
<g id="Node000017" class="node">
<title>Node17</title>
<g id="a_Node000017"><a xlink:href="QmlUnitsConversion_8h.html" target="_top" xlink:title=" ">
<polygon fill="white" stroke="#666666" points="1121,-184 995,-184 995,-165 1121,-165 1121,-184"/>
<text text-anchor="middle" x="1058" y="-172" font-family="Helvetica,sans-Serif" font-size="10.00">QmlUnitsConversion.h</text>
</a>
</g>
</g>
<!-- Node13&#45;&gt;Node17 -->
<g id="edge24_Node000013_Node000017" class="edge">
<title>Node13&#45;&gt;Node17</title>
<g id="a_edge24_Node000013_Node000017"><a xlink:title=" ">
<path fill="none" stroke="#63b8ff" d="M1058,-219.75C1058,-212.8 1058,-202.85 1058,-194.13"/>
<polygon fill="#63b8ff" stroke="#63b8ff" points="1061.5,-194.09 1058,-184.09 1054.5,-194.09 1061.5,-194.09"/>
</a>
</g>
</g>
<!-- Node24 -->
<g id="Node000024" class="node">
<title>Node24</title>
<g id="a_Node000024"><a xlink:title=" ">
<polygon fill="#e0e0e0" stroke="#999999" points="1554,-184 1470,-184 1470,-165 1554,-165 1554,-184"/>
<text text-anchor="middle" x="1512" y="-172" font-family="Helvetica,sans-Serif" font-size="10.00">qgc_version.h</text>
</a>
</g>
</g>
<!-- Node13&#45;&gt;Node24 -->
<g id="edge35_Node000013_Node000024" class="edge">
<title>Node13&#45;&gt;Node24</title>
<g id="a_edge35_Node000013_Node000024"><a xlink:title=" ">
<path fill="none" stroke="#63b8ff" d="M1135.79,-221.19C1214.85,-213.48 1341.08,-200.36 1459.74,-184.11"/>
<polygon fill="#63b8ff" stroke="#63b8ff" points="1460.3,-187.56 1469.73,-182.73 1459.34,-180.63 1460.3,-187.56"/>
</a>
</g>
</g>
<!-- Node17&#45;&gt;Node7 -->
<g id="edge25_Node000017_Node000007" class="edge">
<title>Node17&#45;&gt;Node7</title>
<g id="a_edge25_Node000017_Node000007"><a xlink:title=" ">
<path fill="none" stroke="#63b8ff" d="M1058.88,-164.95C1060.79,-151.06 1066.66,-123.79 1084,-110 1086.12,-108.31 1221.18,-86.85 1300.51,-74.36"/>
<polygon fill="#63b8ff" stroke="#63b8ff" points="1301.5,-77.75 1310.84,-72.73 1300.42,-70.83 1301.5,-77.75"/>
</a>
</g>
</g>
<!-- Node18 -->
<g id="Node000018" class="node">
<title>Node18</title>
<g id="a_Node000018"><a xlink:title=" ">
<polygon fill="#e0e0e0" stroke="#999999" points="1181.5,-129 1092.5,-129 1092.5,-110 1181.5,-110 1181.5,-129"/>
<text text-anchor="middle" x="1137" y="-117" font-family="Helvetica,sans-Serif" font-size="10.00">QtCore/QtMath</text>
</a>
</g>
</g>
<!-- Node17&#45;&gt;Node18 -->
<g id="edge26_Node000017_Node000018" class="edge">
<title>Node17&#45;&gt;Node18</title>
<g id="a_edge26_Node000017_Node000018"><a xlink:title=" ">
<path fill="none" stroke="#63b8ff" d="M1070.69,-164.98C1082.83,-156.84 1101.36,-144.41 1115.75,-134.76"/>
<polygon fill="#63b8ff" stroke="#63b8ff" points="1117.72,-137.65 1124.08,-129.17 1113.82,-131.84 1117.72,-137.65"/>
</a>
</g>
</g>
<!-- Node19 -->
<g id="Node000019" class="node">
<title>Node19</title>
<g id="a_Node000019"><a xlink:href="FactMetaData_8h.html" target="_top" xlink:title=" ">
<polygon fill="white" stroke="#666666" points="738.5,-129 645.5,-129 645.5,-110 738.5,-110 738.5,-129"/>
<text text-anchor="middle" x="692" y="-117" font-family="Helvetica,sans-Serif" font-size="10.00">FactMetaData.h</text>
</a>
</g>
</g>
<!-- Node17&#45;&gt;Node19 -->
<g id="edge27_Node000017_Node000019" class="edge">
<title>Node17&#45;&gt;Node19</title>
<g id="a_edge27_Node000017_Node000019"><a xlink:title=" ">
<path fill="none" stroke="#63b8ff" d="M997.68,-164.99C937.39,-156.45 841.75,-142.81 748.88,-129.12"/>
<polygon fill="#63b8ff" stroke="#63b8ff" points="749.15,-125.62 738.75,-127.62 748.13,-132.55 749.15,-125.62"/>
</a>
</g>
</g>
<!-- Node19&#45;&gt;Node4 -->
<g id="edge28_Node000019_Node000004" class="edge">
<title>Node19&#45;&gt;Node4</title>
<g id="a_edge28_Node000019_Node000004"><a xlink:title=" ">
<path fill="none" stroke="#63b8ff" d="M645.43,-113.82C567.33,-105.97 404.74,-89.56 256.71,-74.17"/>
<polygon fill="#63b8ff" stroke="#63b8ff" points="256.84,-70.67 246.53,-73.12 256.11,-77.63 256.84,-70.67"/>
</a>
</g>
</g>
<!-- Node19&#45;&gt;Node5 -->
<g id="edge34_Node000019_Node000005" class="edge">
<title>Node19&#45;&gt;Node5</title>
<g id="a_edge34_Node000019_Node000005"><a xlink:title=" ">
<path fill="none" stroke="#63b8ff" d="M665.33,-109.98C637.46,-101.09 593.55,-87.07 562.48,-77.15"/>
<polygon fill="#63b8ff" stroke="#63b8ff" points="563.47,-73.79 552.88,-74.08 561.34,-80.46 563.47,-73.79"/>
</a>
</g>
</g>
<!-- Node19&#45;&gt;Node7 -->
<g id="edge31_Node000019_Node000007" class="edge">
<title>Node19&#45;&gt;Node7</title>
<g id="a_edge31_Node000019_Node000007"><a xlink:title=" ">
<path fill="none" stroke="#63b8ff" d="M738.71,-111.1C741.85,-110.7 744.97,-110.33 748,-110 990.08,-83.81 1055.02,-100.42 1300.87,-74.02"/>
<polygon fill="#63b8ff" stroke="#63b8ff" points="1301.26,-77.5 1310.83,-72.94 1300.51,-70.54 1301.26,-77.5"/>
</a>
</g>
</g>
<!-- Node20 -->
<g id="Node000020" class="node">
<title>Node20</title>
<g id="a_Node000020"><a xlink:title=" ">
<polygon fill="#e0e0e0" stroke="#999999" points="745.5,-74 638.5,-74 638.5,-55 745.5,-55 745.5,-74"/>
<text text-anchor="middle" x="692" y="-62" font-family="Helvetica,sans-Serif" font-size="10.00">QtCore/QJsonArray</text>
</a>
</g>
</g>
<!-- Node19&#45;&gt;Node20 -->
<g id="edge29_Node000019_Node000020" class="edge">
<title>Node19&#45;&gt;Node20</title>
<g id="a_edge29_Node000019_Node000020"><a xlink:title=" ">
<path fill="none" stroke="#63b8ff" d="M692,-109.75C692,-102.8 692,-92.85 692,-84.13"/>
<polygon fill="#63b8ff" stroke="#63b8ff" points="695.5,-84.09 692,-74.09 688.5,-84.09 695.5,-84.09"/>
</a>
</g>
</g>
<!-- Node21 -->
<g id="Node000021" class="node">
<title>Node21</title>
<g id="a_Node000021"><a xlink:title=" ">
<polygon fill="#e0e0e0" stroke="#999999" points="876.5,-74 763.5,-74 763.5,-55 876.5,-55 876.5,-74"/>
<text text-anchor="middle" x="820" y="-62" font-family="Helvetica,sans-Serif" font-size="10.00">QtCore/QJsonObject</text>
</a>
</g>
</g>
<!-- Node19&#45;&gt;Node21 -->
<g id="edge30_Node000019_Node000021" class="edge">
<title>Node19&#45;&gt;Node21</title>
<g id="a_edge30_Node000019_Node000021"><a xlink:title=" ">
<path fill="none" stroke="#63b8ff" d="M712.57,-109.98C733.43,-101.34 765.97,-87.87 789.77,-78.02"/>
<polygon fill="#63b8ff" stroke="#63b8ff" points="791.16,-81.23 799.06,-74.17 788.48,-74.76 791.16,-81.23"/>
</a>
</g>
</g>
<!-- Node22 -->
<g id="Node000022" class="node">
<title>Node22</title>
<g id="a_Node000022"><a xlink:title=" ">
<polygon fill="#e0e0e0" stroke="#999999" points="1096.5,-74 1007.5,-74 1007.5,-55 1096.5,-55 1096.5,-74"/>
<text text-anchor="middle" x="1052" y="-62" font-family="Helvetica,sans-Serif" font-size="10.00">QtCore/QString</text>
</a>
</g>
</g>
<!-- Node19&#45;&gt;Node22 -->
<g id="edge32_Node000019_Node000022" class="edge">
<title>Node19&#45;&gt;Node22</title>
<g id="a_edge32_Node000019_Node000022"><a xlink:title=" ">
<path fill="none" stroke="#63b8ff" d="M738.75,-111.38C741.88,-110.91 744.98,-110.45 748,-110 856.33,-94.01 885.92,-91.08 997.51,-74.21"/>
<polygon fill="#63b8ff" stroke="#63b8ff" points="998.11,-77.66 1007.48,-72.7 997.06,-70.73 998.11,-77.66"/>
</a>
</g>
</g>
<!-- Node23 -->
<g id="Node000023" class="node">
<title>Node23</title>
<g id="a_Node000023"><a xlink:title=" ">
<polygon fill="#e0e0e0" stroke="#999999" points="989.5,-74 894.5,-74 894.5,-55 989.5,-55 989.5,-74"/>
<text text-anchor="middle" x="942" y="-62" font-family="Helvetica,sans-Serif" font-size="10.00">QtCore/QVariant</text>
</a>
</g>
</g>
<!-- Node19&#45;&gt;Node23 -->
<g id="edge33_Node000019_Node000023" class="edge">
<title>Node19&#45;&gt;Node23</title>
<g id="a_edge33_Node000019_Node000023"><a xlink:title=" ">
<path fill="none" stroke="#63b8ff" d="M732.17,-109.98C775.5,-100.8 844.59,-86.15 891.56,-76.19"/>
<polygon fill="#63b8ff" stroke="#63b8ff" points="892.46,-79.58 901.52,-74.08 891.01,-72.73 892.46,-79.58"/>
</a>
</g>
</g>
<!-- Node25&#45;&gt;Node4 -->
<g id="edge38_Node000025_Node000004" class="edge">
<title>Node25&#45;&gt;Node4</title>
<g id="a_edge38_Node000025_Node000004"><a xlink:title=" ">
<path fill="none" stroke="#63b8ff" d="M756.22,-111.04C753.44,-110.66 750.68,-110.31 748,-110 533.08,-84.97 475.55,-93.34 256.72,-74.12"/>
<polygon fill="#63b8ff" stroke="#63b8ff" points="256.79,-70.61 246.52,-73.22 256.17,-77.59 256.79,-70.61"/>
</a>
</g>
</g>
<!-- Node25&#45;&gt;Node5 -->
<g id="edge41_Node000025_Node000005" class="edge">
<title>Node25&#45;&gt;Node5</title>
<g id="a_edge41_Node000025_Node000005"><a xlink:title=" ">
<path fill="none" stroke="#63b8ff" d="M756.82,-109.98C708.85,-100.74 632.19,-85.97 580.52,-76.01"/>
<polygon fill="#63b8ff" stroke="#63b8ff" points="581.01,-72.54 570.53,-74.08 579.69,-79.41 581.01,-72.54"/>
</a>
</g>
</g>
<!-- Node25&#45;&gt;Node7 -->
<g id="edge39_Node000025_Node000007" class="edge">
<title>Node25&#45;&gt;Node7</title>
<g id="a_edge39_Node000025_Node000007"><a xlink:title=" ">
<path fill="none" stroke="#63b8ff" d="M845.75,-111.19C848.88,-110.76 851.98,-110.36 855,-110 1049.63,-86.88 1102.31,-96.89 1300.65,-74.07"/>
<polygon fill="#63b8ff" stroke="#63b8ff" points="1301.29,-77.52 1310.82,-72.89 1300.48,-70.57 1301.29,-77.52"/>
</a>
</g>
</g>
<!-- Node25&#45;&gt;Node22 -->
<g id="edge40_Node000025_Node000022" class="edge">
<title>Node25&#45;&gt;Node22</title>
<g id="a_edge40_Node000025_Node000022"><a xlink:title=" ">
<path fill="none" stroke="#63b8ff" d="M841.33,-109.98C884.84,-100.8 954.2,-86.15 1001.35,-76.19"/>
<polygon fill="#63b8ff" stroke="#63b8ff" points="1002.3,-79.57 1011.36,-74.08 1000.85,-72.72 1002.3,-79.57"/>
</a>
</g>
</g>
<!-- Node26 -->
<g id="Node000026" class="node">
<title>Node26</title>
<g id="a_Node000026"><a xlink:title=" ">
<polygon fill="#e0e0e0" stroke="#999999" points="1193,-74 1115,-74 1115,-55 1193,-55 1193,-74"/>
<text text-anchor="middle" x="1154" y="-62" font-family="Helvetica,sans-Serif" font-size="10.00">QtCore/QList</text>
</a>
</g>
</g>
<!-- Node25&#45;&gt;Node26 -->
<g id="edge37_Node000025_Node000026" class="edge">
<title>Node25&#45;&gt;Node26</title>
<g id="a_edge37_Node000025_Node000026"><a xlink:title=" ">
<path fill="none" stroke="#63b8ff" d="M845.78,-111.4C848.9,-110.92 852,-110.45 855,-110 963.29,-93.71 993.05,-91.92 1104.99,-74.12"/>
<polygon fill="#63b8ff" stroke="#63b8ff" points="1105.66,-77.55 1114.99,-72.52 1104.56,-70.64 1105.66,-77.55"/>
</a>
</g>
</g>
<!-- Node27 -->
<g id="Node000027" class="node">
<title>Node27</title>
<g id="a_Node000027"><a xlink:href="MAVLinkLib_8h.html" target="_top" xlink:title=" ">
<polygon fill="white" stroke="#666666" points="1293,-74 1211,-74 1211,-55 1293,-55 1293,-74"/>
<text text-anchor="middle" x="1252" y="-62" font-family="Helvetica,sans-Serif" font-size="10.00">MAVLinkLib.h</text>
</a>
</g>
</g>
<!-- Node25&#45;&gt;Node27 -->
<g id="edge42_Node000025_Node000027" class="edge">
<title>Node25&#45;&gt;Node27</title>
<g id="a_edge42_Node000025_Node000027"><a xlink:title=" ">
<path fill="none" stroke="#63b8ff" d="M845.76,-111.27C848.89,-110.82 851.99,-110.39 855,-110 1005.44,-90.37 1046.62,-94.8 1200.53,-74.12"/>
<polygon fill="#63b8ff" stroke="#63b8ff" points="1201.39,-77.53 1210.83,-72.72 1200.45,-70.59 1201.39,-77.53"/>
</a>
</g>
</g>
<!-- Node28 -->
<g id="Node000028" class="node">
<title>Node28</title>
<g id="a_Node000028"><a xlink:title=" ">
<polygon fill="#e0e0e0" stroke="#999999" points="1136.5,-19 1083.5,-19 1083.5,0 1136.5,0 1136.5,-19"/>
<text text-anchor="middle" x="1110" y="-7" font-family="Helvetica,sans-Serif" font-size="10.00">stdint.h</text>
</a>
</g>
</g>
<!-- Node27&#45;&gt;Node28 -->
<g id="edge43_Node000027_Node000028" class="edge">
<title>Node27&#45;&gt;Node28</title>
<g id="a_edge43_Node000027_Node000028"><a xlink:title=" ">
<path fill="none" stroke="#63b8ff" d="M1229.19,-54.98C1205.83,-46.27 1169.3,-32.63 1142.83,-22.75"/>
<polygon fill="#63b8ff" stroke="#63b8ff" points="1143.82,-19.39 1133.23,-19.17 1141.37,-25.95 1143.82,-19.39"/>
</a>
</g>
</g>
<!-- Node29 -->
<g id="Node000029" class="node">
<title>Node29</title>
<g id="a_Node000029"><a xlink:title=" ">
<polygon fill="#e0e0e0" stroke="#999999" points="1253,-19 1155,-19 1155,0 1253,0 1253,-19"/>
<text text-anchor="middle" x="1204" y="-7" font-family="Helvetica,sans-Serif" font-size="10.00">mavlink_types.h</text>
</a>
</g>
</g>
<!-- Node27&#45;&gt;Node29 -->
<g id="edge44_Node000027_Node000029" class="edge">
<title>Node27&#45;&gt;Node29</title>
<g id="a_edge44_Node000027_Node000029"><a xlink:title=" ">
<path fill="none" stroke="#63b8ff" d="M1244.07,-54.75C1237.15,-47.11 1226.93,-35.82 1218.55,-26.56"/>
<polygon fill="#63b8ff" stroke="#63b8ff" points="1221.09,-24.15 1211.78,-19.09 1215.9,-28.85 1221.09,-24.15"/>
</a>
</g>
</g>
<!-- Node30 -->
<g id="Node000030" class="node">
<title>Node30</title>
<g id="a_Node000030"><a xlink:title=" ">
<polygon fill="#e0e0e0" stroke="#999999" points="1327,-19 1271,-19 1271,0 1327,0 1327,-19"/>
<text text-anchor="middle" x="1299" y="-7" font-family="Helvetica,sans-Serif" font-size="10.00">stddef.h</text>
</a>
</g>
</g>
<!-- Node27&#45;&gt;Node30 -->
<g id="edge45_Node000027_Node000030" class="edge">
<title>Node27&#45;&gt;Node30</title>
<g id="a_edge45_Node000027_Node000030"><a xlink:title=" ">
<path fill="none" stroke="#63b8ff" d="M1259.76,-54.75C1266.47,-47.18 1276.34,-36.05 1284.51,-26.84"/>
<polygon fill="#63b8ff" stroke="#63b8ff" points="1287.37,-28.89 1291.38,-19.09 1282.13,-24.25 1287.37,-28.89"/>
</a>
</g>
</g>
<!-- Node31 -->
<g id="Node000031" class="node">
<title>Node31</title>
<g id="a_Node000031"><a xlink:title=" ">
<polygon fill="#e0e0e0" stroke="#999999" points="1410.5,-19 1345.5,-19 1345.5,0 1410.5,0 1410.5,-19"/>
<text text-anchor="middle" x="1378" y="-7" font-family="Helvetica,sans-Serif" font-size="10.00">mavlink.h</text>
</a>
</g>
</g>
<!-- Node27&#45;&gt;Node31 -->
<g id="edge46_Node000027_Node000031" class="edge">
<title>Node27&#45;&gt;Node31</title>
<g id="a_edge46_Node000027_Node000031"><a xlink:title=" ">
<path fill="none" stroke="#63b8ff" d="M1272.24,-54.98C1292.7,-46.38 1324.53,-32.99 1347.93,-23.15"/>
<polygon fill="#63b8ff" stroke="#63b8ff" points="1349.53,-26.27 1357.39,-19.17 1346.81,-19.82 1349.53,-26.27"/>
</a>
</g>
</g>
</g>
</svg>
