<?xml version="1.0" encoding="UTF-8" standalone="no"?>
<!DOCTYPE svg PUBLIC "-//W3C//DTD SVG 1.1//EN"
 "http://www.w3.org/Graphics/SVG/1.1/DTD/svg11.dtd">
<!-- Generated by graphviz version 2.43.0 (0)
 -->
<!-- Title: src/Comms/MockLink/MockConfiguration.cc Pages: 1 -->
<svg width="1330pt" height="203pt"
 viewBox="0.00 0.00 1330.00 203.00" xmlns="http://www.w3.org/2000/svg" xmlns:xlink="http://www.w3.org/1999/xlink">
<g id="graph0" class="graph" transform="scale(1 1) rotate(0) translate(4 199)">
<title>src/Comms/MockLink/MockConfiguration.cc</title>
<!-- Node1 -->
<g id="Node000001" class="node">
<title>Node1</title>
<g id="a_Node000001"><a xlink:title=" ">
<polygon fill="#999999" stroke="#666666" points="584,-195 459,-195 459,-165 584,-165 584,-195"/>
<text text-anchor="start" x="467" y="-183" font-family="Helvetica,sans-Serif" font-size="10.00">src/Comms/MockLink</text>
<text text-anchor="middle" x="521.5" y="-172" font-family="Helvetica,sans-Serif" font-size="10.00">/MockConfiguration.cc</text>
</a>
</g>
</g>
<!-- Node2 -->
<g id="Node000002" class="node">
<title>Node2</title>
<g id="a_Node000002"><a xlink:href="MockConfiguration_8h.html" target="_top" xlink:title=" ">
<polygon fill="white" stroke="#666666" points="537,-129 420,-129 420,-110 537,-110 537,-129"/>
<text text-anchor="middle" x="478.5" y="-117" font-family="Helvetica,sans-Serif" font-size="10.00">MockConfiguration.h</text>
</a>
</g>
</g>
<!-- Node1&#45;&gt;Node2 -->
<g id="edge1_Node000001_Node000002" class="edge">
<title>Node1&#45;&gt;Node2</title>
<g id="a_edge1_Node000001_Node000002"><a xlink:title=" ">
<path fill="none" stroke="#63b8ff" d="M511.09,-164.84C505.04,-156.61 497.38,-146.18 491,-137.51"/>
<polygon fill="#63b8ff" stroke="#63b8ff" points="493.69,-135.25 484.94,-129.27 488.05,-139.4 493.69,-135.25"/>
</a>
</g>
</g>
<!-- Node9 -->
<g id="Node000009" class="node">
<title>Node9</title>
<g id="a_Node000009"><a xlink:href="QGCLoggingCategory_8h.html" target="_top" xlink:title=" ">
<polygon fill="white" stroke="#666666" points="808.5,-74 680.5,-74 680.5,-55 808.5,-55 808.5,-74"/>
<text text-anchor="middle" x="744.5" y="-62" font-family="Helvetica,sans-Serif" font-size="10.00">QGCLoggingCategory.h</text>
</a>
</g>
</g>
<!-- Node1&#45;&gt;Node9 -->
<g id="edge9_Node000001_Node000009" class="edge">
<title>Node1&#45;&gt;Node9</title>
<g id="a_edge9_Node000001_Node000009"><a xlink:title=" ">
<path fill="none" stroke="#63b8ff" d="M549.29,-164.85C592.73,-142.75 676.1,-100.31 718.45,-78.76"/>
<polygon fill="#63b8ff" stroke="#63b8ff" points="720.23,-81.78 727.56,-74.12 717.06,-75.54 720.23,-81.78"/>
</a>
</g>
</g>
<!-- Node3 -->
<g id="Node000003" class="node">
<title>Node3</title>
<g id="a_Node000003"><a xlink:href="LinkConfiguration_8h.html" target="_top" xlink:title=" ">
<polygon fill="white" stroke="#666666" points="411,-74 300,-74 300,-55 411,-55 411,-74"/>
<text text-anchor="middle" x="355.5" y="-62" font-family="Helvetica,sans-Serif" font-size="10.00">LinkConfiguration.h</text>
</a>
</g>
</g>
<!-- Node2&#45;&gt;Node3 -->
<g id="edge2_Node000002_Node000003" class="edge">
<title>Node2&#45;&gt;Node3</title>
<g id="a_edge2_Node000002_Node000003"><a xlink:title=" ">
<path fill="none" stroke="#63b8ff" d="M458.74,-109.98C438.77,-101.38 407.7,-87.99 384.85,-78.15"/>
<polygon fill="#63b8ff" stroke="#63b8ff" points="386.19,-74.91 375.62,-74.17 383.42,-81.34 386.19,-74.91"/>
</a>
</g>
</g>
<!-- Node4 -->
<g id="Node000004" class="node">
<title>Node4</title>
<g id="a_Node000004"><a xlink:title=" ">
<polygon fill="#e0e0e0" stroke="#999999" points="469,-19 326,-19 326,0 469,0 469,-19"/>
<text text-anchor="middle" x="397.5" y="-7" font-family="Helvetica,sans-Serif" font-size="10.00">QtCore/QLoggingCategory</text>
</a>
</g>
</g>
<!-- Node2&#45;&gt;Node4 -->
<g id="edge7_Node000002_Node000004" class="edge">
<title>Node2&#45;&gt;Node4</title>
<g id="a_edge7_Node000002_Node000004"><a xlink:title=" ">
<path fill="none" stroke="#63b8ff" d="M471.87,-109.66C458.4,-91.69 427.61,-50.64 410.16,-27.38"/>
<polygon fill="#63b8ff" stroke="#63b8ff" points="412.79,-25.06 403.99,-19.16 407.19,-29.26 412.79,-25.06"/>
</a>
</g>
</g>
<!-- Node8 -->
<g id="Node000008" class="node">
<title>Node8</title>
<g id="a_Node000008"><a xlink:title=" ">
<polygon fill="#e0e0e0" stroke="#999999" points="569,-74 468,-74 468,-55 569,-55 569,-74"/>
<text text-anchor="middle" x="518.5" y="-62" font-family="Helvetica,sans-Serif" font-size="10.00">MAVLinkEnums.h</text>
</a>
</g>
</g>
<!-- Node2&#45;&gt;Node8 -->
<g id="edge8_Node000002_Node000008" class="edge">
<title>Node2&#45;&gt;Node8</title>
<g id="a_edge8_Node000002_Node000008"><a xlink:title=" ">
<path fill="none" stroke="#63b8ff" d="M485.11,-109.75C490.76,-102.26 499.04,-91.28 505.95,-82.13"/>
<polygon fill="#63b8ff" stroke="#63b8ff" points="508.79,-84.18 512.02,-74.09 503.2,-79.96 508.79,-84.18"/>
</a>
</g>
</g>
<!-- Node3&#45;&gt;Node4 -->
<g id="edge3_Node000003_Node000004" class="edge">
<title>Node3&#45;&gt;Node4</title>
<g id="a_edge3_Node000003_Node000004"><a xlink:title=" ">
<path fill="none" stroke="#63b8ff" d="M362.44,-54.75C368.37,-47.26 377.07,-36.28 384.32,-27.13"/>
<polygon fill="#63b8ff" stroke="#63b8ff" points="387.23,-29.1 390.69,-19.09 381.74,-24.75 387.23,-29.1"/>
</a>
</g>
</g>
<!-- Node5 -->
<g id="Node000005" class="node">
<title>Node5</title>
<g id="a_Node000005"><a xlink:title=" ">
<polygon fill="#e0e0e0" stroke="#999999" points="101,-19 0,-19 0,0 101,0 101,-19"/>
<text text-anchor="middle" x="50.5" y="-7" font-family="Helvetica,sans-Serif" font-size="10.00">QtCore/QSettings</text>
</a>
</g>
</g>
<!-- Node3&#45;&gt;Node5 -->
<g id="edge4_Node000003_Node000005" class="edge">
<title>Node3&#45;&gt;Node5</title>
<g id="a_edge4_Node000003_Node000005"><a xlink:title=" ">
<path fill="none" stroke="#63b8ff" d="M306.5,-54.98C252.88,-45.67 166.96,-30.74 109.64,-20.78"/>
<polygon fill="#63b8ff" stroke="#63b8ff" points="110.09,-17.3 99.63,-19.04 108.89,-24.2 110.09,-17.3"/>
</a>
</g>
</g>
<!-- Node6 -->
<g id="Node000006" class="node">
<title>Node6</title>
<g id="a_Node000006"><a xlink:title=" ">
<polygon fill="#e0e0e0" stroke="#999999" points="576,-19 487,-19 487,0 576,0 576,-19"/>
<text text-anchor="middle" x="531.5" y="-7" font-family="Helvetica,sans-Serif" font-size="10.00">QtCore/QString</text>
</a>
</g>
</g>
<!-- Node3&#45;&gt;Node6 -->
<g id="edge5_Node000003_Node000006" class="edge">
<title>Node3&#45;&gt;Node6</title>
<g id="a_edge5_Node000003_Node000006"><a xlink:title=" ">
<path fill="none" stroke="#63b8ff" d="M383.78,-54.98C413.45,-46.05 460.29,-31.94 493.25,-22.02"/>
<polygon fill="#63b8ff" stroke="#63b8ff" points="494.43,-25.32 503,-19.08 492.42,-18.61 494.43,-25.32"/>
</a>
</g>
</g>
<!-- Node7 -->
<g id="Node000007" class="node">
<title>Node7</title>
<g id="a_Node000007"><a xlink:title=" ">
<polygon fill="#e0e0e0" stroke="#999999" points="308,-19 119,-19 119,0 308,0 308,-19"/>
<text text-anchor="middle" x="213.5" y="-7" font-family="Helvetica,sans-Serif" font-size="10.00">QtQmlIntegration/QtQmlIntegration</text>
</a>
</g>
</g>
<!-- Node3&#45;&gt;Node7 -->
<g id="edge6_Node000003_Node000007" class="edge">
<title>Node3&#45;&gt;Node7</title>
<g id="a_edge6_Node000003_Node000007"><a xlink:title=" ">
<path fill="none" stroke="#63b8ff" d="M332.69,-54.98C309.33,-46.27 272.8,-32.63 246.33,-22.75"/>
<polygon fill="#63b8ff" stroke="#63b8ff" points="247.32,-19.39 236.73,-19.17 244.87,-25.95 247.32,-19.39"/>
</a>
</g>
</g>
<!-- Node9&#45;&gt;Node4 -->
<g id="edge11_Node000009_Node000004" class="edge">
<title>Node9&#45;&gt;Node4</title>
<g id="a_edge11_Node000009_Node000004"><a xlink:title=" ">
<path fill="none" stroke="#63b8ff" d="M688.75,-54.98C627.37,-45.61 528.78,-30.55 463.57,-20.59"/>
<polygon fill="#63b8ff" stroke="#63b8ff" points="463.81,-17.09 453.4,-19.04 462.76,-24.01 463.81,-17.09"/>
</a>
</g>
</g>
<!-- Node9&#45;&gt;Node6 -->
<g id="edge15_Node000009_Node000006" class="edge">
<title>Node9&#45;&gt;Node6</title>
<g id="a_edge15_Node000009_Node000006"><a xlink:title=" ">
<path fill="none" stroke="#63b8ff" d="M710.28,-54.98C673.74,-45.89 615.72,-31.46 575.74,-21.51"/>
<polygon fill="#63b8ff" stroke="#63b8ff" points="576.54,-18.1 565.99,-19.08 574.85,-24.89 576.54,-18.1"/>
</a>
</g>
</g>
<!-- Node10 -->
<g id="Node000010" class="node">
<title>Node10</title>
<g id="a_Node000010"><a xlink:title=" ">
<polygon fill="#e0e0e0" stroke="#999999" points="680.5,-19 594.5,-19 594.5,0 680.5,0 680.5,-19"/>
<text text-anchor="middle" x="637.5" y="-7" font-family="Helvetica,sans-Serif" font-size="10.00">QtCore/QHash</text>
</a>
</g>
</g>
<!-- Node9&#45;&gt;Node10 -->
<g id="edge10_Node000009_Node000010" class="edge">
<title>Node9&#45;&gt;Node10</title>
<g id="a_edge10_Node000009_Node000010"><a xlink:title=" ">
<path fill="none" stroke="#63b8ff" d="M727.31,-54.98C710.25,-46.54 683.87,-33.47 664.1,-23.68"/>
<polygon fill="#63b8ff" stroke="#63b8ff" points="665.52,-20.47 655,-19.17 662.41,-26.75 665.52,-20.47"/>
</a>
</g>
</g>
<!-- Node11 -->
<g id="Node000011" class="node">
<title>Node11</title>
<g id="a_Node000011"><a xlink:title=" ">
<polygon fill="#e0e0e0" stroke="#999999" points="790.5,-19 698.5,-19 698.5,0 790.5,0 790.5,-19"/>
<text text-anchor="middle" x="744.5" y="-7" font-family="Helvetica,sans-Serif" font-size="10.00">QtCore/QObject</text>
</a>
</g>
</g>
<!-- Node9&#45;&gt;Node11 -->
<g id="edge12_Node000009_Node000011" class="edge">
<title>Node9&#45;&gt;Node11</title>
<g id="a_edge12_Node000009_Node000011"><a xlink:title=" ">
<path fill="none" stroke="#63b8ff" d="M744.5,-54.75C744.5,-47.8 744.5,-37.85 744.5,-29.13"/>
<polygon fill="#63b8ff" stroke="#63b8ff" points="748,-29.09 744.5,-19.09 741,-29.09 748,-29.09"/>
</a>
</g>
</g>
<!-- Node12 -->
<g id="Node000012" class="node">
<title>Node12</title>
<g id="a_Node000012"><a xlink:title=" ">
<polygon fill="#e0e0e0" stroke="#999999" points="942.5,-19 808.5,-19 808.5,0 942.5,0 942.5,-19"/>
<text text-anchor="middle" x="875.5" y="-7" font-family="Helvetica,sans-Serif" font-size="10.00">QtCore/QReadWriteLock</text>
</a>
</g>
</g>
<!-- Node9&#45;&gt;Node12 -->
<g id="edge13_Node000009_Node000012" class="edge">
<title>Node9&#45;&gt;Node12</title>
<g id="a_edge13_Node000009_Node000012"><a xlink:title=" ">
<path fill="none" stroke="#63b8ff" d="M765.55,-54.98C786.91,-46.34 820.2,-32.87 844.56,-23.02"/>
<polygon fill="#63b8ff" stroke="#63b8ff" points="846.11,-26.17 854.07,-19.17 843.49,-19.68 846.11,-26.17"/>
</a>
</g>
</g>
<!-- Node13 -->
<g id="Node000013" class="node">
<title>Node13</title>
<g id="a_Node000013"><a xlink:title=" ">
<polygon fill="#e0e0e0" stroke="#999999" points="1038,-19 961,-19 961,0 1038,0 1038,-19"/>
<text text-anchor="middle" x="999.5" y="-7" font-family="Helvetica,sans-Serif" font-size="10.00">QtCore/QSet</text>
</a>
</g>
</g>
<!-- Node9&#45;&gt;Node13 -->
<g id="edge14_Node000009_Node000013" class="edge">
<title>Node9&#45;&gt;Node13</title>
<g id="a_edge14_Node000009_Node000013"><a xlink:title=" ">
<path fill="none" stroke="#63b8ff" d="M785.47,-54.98C830.55,-45.61 902.96,-30.56 950.89,-20.6"/>
<polygon fill="#63b8ff" stroke="#63b8ff" points="951.64,-24.02 960.72,-18.56 950.22,-17.17 951.64,-24.02"/>
</a>
</g>
</g>
<!-- Node14 -->
<g id="Node000014" class="node">
<title>Node14</title>
<g id="a_Node000014"><a xlink:title=" ">
<polygon fill="#e0e0e0" stroke="#999999" points="1219,-19 1056,-19 1056,0 1219,0 1219,-19"/>
<text text-anchor="middle" x="1137.5" y="-7" font-family="Helvetica,sans-Serif" font-size="10.00">QtCore/QSortFilterProxyModel</text>
</a>
</g>
</g>
<!-- Node9&#45;&gt;Node14 -->
<g id="edge16_Node000009_Node000014" class="edge">
<title>Node9&#45;&gt;Node14</title>
<g id="a_edge16_Node000009_Node000014"><a xlink:title=" ">
<path fill="none" stroke="#63b8ff" d="M807.64,-54.98C877.58,-45.55 990.2,-30.36 1064.04,-20.41"/>
<polygon fill="#63b8ff" stroke="#63b8ff" points="1064.75,-23.84 1074.19,-19.04 1063.81,-16.91 1064.75,-23.84"/>
</a>
</g>
</g>
<!-- Node15 -->
<g id="Node000015" class="node">
<title>Node15</title>
<g id="a_Node000015"><a xlink:title=" ">
<polygon fill="#e0e0e0" stroke="#999999" points="1322,-19 1237,-19 1237,0 1322,0 1322,-19"/>
<text text-anchor="middle" x="1279.5" y="-7" font-family="Helvetica,sans-Serif" font-size="10.00">QtQml/qqml.h</text>
</a>
</g>
</g>
<!-- Node9&#45;&gt;Node15 -->
<g id="edge17_Node000009_Node000015" class="edge">
<title>Node9&#45;&gt;Node15</title>
<g id="a_edge17_Node000009_Node000015"><a xlink:title=" ">
<path fill="none" stroke="#63b8ff" d="M808.86,-59.09C899.76,-52.54 1071.14,-38.94 1226.73,-19.14"/>
<polygon fill="#63b8ff" stroke="#63b8ff" points="1227.49,-22.58 1236.96,-17.83 1226.59,-15.63 1227.49,-22.58"/>
</a>
</g>
</g>
</g>
</svg>
