<?xml version="1.0" encoding="UTF-8" standalone="no"?>
<!DOCTYPE svg PUBLIC "-//W3C//DTD SVG 1.1//EN"
 "http://www.w3.org/Graphics/SVG/1.1/DTD/svg11.dtd">
<!-- Generated by graphviz version 2.43.0 (0)
 -->
<!-- Title: src/Comms/MockLink/MockLinkFTP.h Pages: 1 -->
<svg width="862pt" height="203pt"
 viewBox="0.00 0.00 861.50 203.00" xmlns="http://www.w3.org/2000/svg" xmlns:xlink="http://www.w3.org/1999/xlink">
<g id="graph0" class="graph" transform="scale(1 1) rotate(0) translate(4 199)">
<title>src/Comms/MockLink/MockLinkFTP.h</title>
<!-- Node1 -->
<g id="Node000001" class="node">
<title>Node1</title>
<g id="a_Node000001"><a xlink:title=" ">
<polygon fill="#999999" stroke="#666666" points="398.5,-195 277.5,-195 277.5,-165 398.5,-165 398.5,-195"/>
<text text-anchor="start" x="285.5" y="-183" font-family="Helvetica,sans-Serif" font-size="10.00">src/Comms/MockLink</text>
<text text-anchor="middle" x="338" y="-172" font-family="Helvetica,sans-Serif" font-size="10.00">/MockLinkFTP.h</text>
</a>
</g>
</g>
<!-- Node2 -->
<g id="Node000002" class="node">
<title>Node2</title>
<g id="a_Node000002"><a xlink:title=" ">
<polygon fill="#e0e0e0" stroke="#999999" points="110,-129 0,-129 0,-110 110,-110 110,-129"/>
<text text-anchor="middle" x="55" y="-117" font-family="Helvetica,sans-Serif" font-size="10.00">QtCore/QByteArray</text>
</a>
</g>
</g>
<!-- Node1&#45;&gt;Node2 -->
<g id="edge1_Node000001_Node000002" class="edge">
<title>Node1&#45;&gt;Node2</title>
<g id="a_edge1_Node000001_Node000002"><a xlink:title=" ">
<path fill="none" stroke="#63b8ff" d="M277.29,-166.45C226.34,-155.92 154.38,-141.04 106.28,-131.1"/>
<polygon fill="#63b8ff" stroke="#63b8ff" points="106.9,-127.65 96.4,-129.06 105.48,-134.51 106.9,-127.65"/>
</a>
</g>
</g>
<!-- Node3 -->
<g id="Node000003" class="node">
<title>Node3</title>
<g id="a_Node000003"><a xlink:title=" ">
<polygon fill="#e0e0e0" stroke="#999999" points="206,-129 128,-129 128,-110 206,-110 206,-129"/>
<text text-anchor="middle" x="167" y="-117" font-family="Helvetica,sans-Serif" font-size="10.00">QtCore/QFile</text>
</a>
</g>
</g>
<!-- Node1&#45;&gt;Node3 -->
<g id="edge2_Node000001_Node000003" class="edge">
<title>Node1&#45;&gt;Node3</title>
<g id="a_edge2_Node000001_Node000003"><a xlink:title=" ">
<path fill="none" stroke="#63b8ff" d="M297.04,-164.99C268,-155.05 229.45,-141.86 201.88,-132.43"/>
<polygon fill="#63b8ff" stroke="#63b8ff" points="202.85,-129.06 192.25,-129.14 200.58,-135.69 202.85,-129.06"/>
</a>
</g>
</g>
<!-- Node4 -->
<g id="Node000004" class="node">
<title>Node4</title>
<g id="a_Node000004"><a xlink:title=" ">
<polygon fill="#e0e0e0" stroke="#999999" points="310,-129 224,-129 224,-110 310,-110 310,-129"/>
<text text-anchor="middle" x="267" y="-117" font-family="Helvetica,sans-Serif" font-size="10.00">QtCore/QHash</text>
</a>
</g>
</g>
<!-- Node1&#45;&gt;Node4 -->
<g id="edge3_Node000001_Node000004" class="edge">
<title>Node1&#45;&gt;Node4</title>
<g id="a_edge3_Node000001_Node000004"><a xlink:title=" ">
<path fill="none" stroke="#63b8ff" d="M320.81,-164.84C310.19,-156.09 296.56,-144.85 285.67,-135.88"/>
<polygon fill="#63b8ff" stroke="#63b8ff" points="287.58,-132.92 277.64,-129.27 283.13,-138.33 287.58,-132.92"/>
</a>
</g>
</g>
<!-- Node5 -->
<g id="Node000005" class="node">
<title>Node5</title>
<g id="a_Node000005"><a xlink:title=" ">
<polygon fill="#e0e0e0" stroke="#999999" points="495.5,-74 352.5,-74 352.5,-55 495.5,-55 495.5,-74"/>
<text text-anchor="middle" x="424" y="-62" font-family="Helvetica,sans-Serif" font-size="10.00">QtCore/QLoggingCategory</text>
</a>
</g>
</g>
<!-- Node1&#45;&gt;Node5 -->
<g id="edge4_Node000001_Node000005" class="edge">
<title>Node1&#45;&gt;Node5</title>
<g id="a_edge4_Node000001_Node000005"><a xlink:title=" ">
<path fill="none" stroke="#63b8ff" d="M339,-164.79C340.67,-149.89 345.12,-126.41 357,-110 366.65,-96.67 381.6,-86.19 394.94,-78.75"/>
<polygon fill="#63b8ff" stroke="#63b8ff" points="396.6,-81.84 403.83,-74.09 393.35,-75.64 396.6,-81.84"/>
</a>
</g>
</g>
<!-- Node6 -->
<g id="Node000006" class="node">
<title>Node6</title>
<g id="a_Node000006"><a xlink:title=" ">
<polygon fill="#e0e0e0" stroke="#999999" points="458,-129 366,-129 366,-110 458,-110 458,-129"/>
<text text-anchor="middle" x="412" y="-117" font-family="Helvetica,sans-Serif" font-size="10.00">QtCore/QObject</text>
</a>
</g>
</g>
<!-- Node1&#45;&gt;Node6 -->
<g id="edge5_Node000001_Node000006" class="edge">
<title>Node1&#45;&gt;Node6</title>
<g id="a_edge5_Node000001_Node000006"><a xlink:title=" ">
<path fill="none" stroke="#63b8ff" d="M355.91,-164.84C367.09,-156 381.48,-144.63 392.88,-135.62"/>
<polygon fill="#63b8ff" stroke="#63b8ff" points="395.24,-138.21 400.91,-129.27 390.9,-132.72 395.24,-138.21"/>
</a>
</g>
</g>
<!-- Node7 -->
<g id="Node000007" class="node">
<title>Node7</title>
<g id="a_Node000007"><a xlink:title=" ">
<polygon fill="#e0e0e0" stroke="#999999" points="583.5,-129 476.5,-129 476.5,-110 583.5,-110 583.5,-129"/>
<text text-anchor="middle" x="530" y="-117" font-family="Helvetica,sans-Serif" font-size="10.00">QtCore/QStringList</text>
</a>
</g>
</g>
<!-- Node1&#45;&gt;Node7 -->
<g id="edge6_Node000001_Node000007" class="edge">
<title>Node1&#45;&gt;Node7</title>
<g id="a_edge6_Node000001_Node000007"><a xlink:title=" ">
<path fill="none" stroke="#63b8ff" d="M383.99,-164.99C417.12,-154.89 461.29,-141.44 492.34,-131.98"/>
<polygon fill="#63b8ff" stroke="#63b8ff" points="493.38,-135.32 501.93,-129.05 491.34,-128.62 493.38,-135.32"/>
</a>
</g>
</g>
<!-- Node8 -->
<g id="Node000008" class="node">
<title>Node8</title>
<g id="a_Node000008"><a xlink:href="MAVLinkFTP_8h.html" target="_top" xlink:title=" ">
<polygon fill="white" stroke="#666666" points="684.5,-129 601.5,-129 601.5,-110 684.5,-110 684.5,-129"/>
<text text-anchor="middle" x="643" y="-117" font-family="Helvetica,sans-Serif" font-size="10.00">MAVLinkFTP.h</text>
</a>
</g>
</g>
<!-- Node1&#45;&gt;Node8 -->
<g id="edge7_Node000001_Node000008" class="edge">
<title>Node1&#45;&gt;Node8</title>
<g id="a_edge7_Node000001_Node000008"><a xlink:title=" ">
<path fill="none" stroke="#63b8ff" d="M398.62,-167.37C454.93,-156.57 537.88,-140.66 591.17,-130.44"/>
<polygon fill="#63b8ff" stroke="#63b8ff" points="591.93,-133.86 601.09,-128.54 590.61,-126.98 591.93,-133.86"/>
</a>
</g>
</g>
<!-- Node8&#45;&gt;Node5 -->
<g id="edge9_Node000008_Node000005" class="edge">
<title>Node8&#45;&gt;Node5</title>
<g id="a_edge9_Node000008_Node000005"><a xlink:title=" ">
<path fill="none" stroke="#63b8ff" d="M607.81,-109.98C570.17,-100.87 510.34,-86.4 469.23,-76.45"/>
<polygon fill="#63b8ff" stroke="#63b8ff" points="470,-73.03 459.46,-74.08 468.36,-79.84 470,-73.03"/>
</a>
</g>
</g>
<!-- Node9 -->
<g id="Node000009" class="node">
<title>Node9</title>
<g id="a_Node000009"><a xlink:title=" ">
<polygon fill="#e0e0e0" stroke="#999999" points="635.5,-74 546.5,-74 546.5,-55 635.5,-55 635.5,-74"/>
<text text-anchor="middle" x="591" y="-62" font-family="Helvetica,sans-Serif" font-size="10.00">QtCore/QString</text>
</a>
</g>
</g>
<!-- Node8&#45;&gt;Node9 -->
<g id="edge8_Node000008_Node000009" class="edge">
<title>Node8&#45;&gt;Node9</title>
<g id="a_edge8_Node000008_Node000009"><a xlink:title=" ">
<path fill="none" stroke="#63b8ff" d="M634.41,-109.75C626.84,-102.03 615.62,-90.6 606.49,-81.28"/>
<polygon fill="#63b8ff" stroke="#63b8ff" points="608.93,-78.78 599.43,-74.09 603.93,-83.68 608.93,-78.78"/>
</a>
</g>
</g>
<!-- Node10 -->
<g id="Node000010" class="node">
<title>Node10</title>
<g id="a_Node000010"><a xlink:href="MAVLinkLib_8h.html" target="_top" xlink:title=" ">
<polygon fill="white" stroke="#666666" points="736,-74 654,-74 654,-55 736,-55 736,-74"/>
<text text-anchor="middle" x="695" y="-62" font-family="Helvetica,sans-Serif" font-size="10.00">MAVLinkLib.h</text>
</a>
</g>
</g>
<!-- Node8&#45;&gt;Node10 -->
<g id="edge10_Node000008_Node000010" class="edge">
<title>Node8&#45;&gt;Node10</title>
<g id="a_edge10_Node000008_Node000010"><a xlink:title=" ">
<path fill="none" stroke="#63b8ff" d="M651.59,-109.75C659.16,-102.03 670.38,-90.6 679.51,-81.28"/>
<polygon fill="#63b8ff" stroke="#63b8ff" points="682.07,-83.68 686.57,-74.09 677.07,-78.78 682.07,-83.68"/>
</a>
</g>
</g>
<!-- Node11 -->
<g id="Node000011" class="node">
<title>Node11</title>
<g id="a_Node000011"><a xlink:title=" ">
<polygon fill="#e0e0e0" stroke="#999999" points="579.5,-19 526.5,-19 526.5,0 579.5,0 579.5,-19"/>
<text text-anchor="middle" x="553" y="-7" font-family="Helvetica,sans-Serif" font-size="10.00">stdint.h</text>
</a>
</g>
</g>
<!-- Node10&#45;&gt;Node11 -->
<g id="edge11_Node000010_Node000011" class="edge">
<title>Node10&#45;&gt;Node11</title>
<g id="a_edge11_Node000010_Node000011"><a xlink:title=" ">
<path fill="none" stroke="#63b8ff" d="M672.19,-54.98C648.83,-46.27 612.3,-32.63 585.83,-22.75"/>
<polygon fill="#63b8ff" stroke="#63b8ff" points="586.82,-19.39 576.23,-19.17 584.37,-25.95 586.82,-19.39"/>
</a>
</g>
</g>
<!-- Node12 -->
<g id="Node000012" class="node">
<title>Node12</title>
<g id="a_Node000012"><a xlink:title=" ">
<polygon fill="#e0e0e0" stroke="#999999" points="696,-19 598,-19 598,0 696,0 696,-19"/>
<text text-anchor="middle" x="647" y="-7" font-family="Helvetica,sans-Serif" font-size="10.00">mavlink_types.h</text>
</a>
</g>
</g>
<!-- Node10&#45;&gt;Node12 -->
<g id="edge12_Node000010_Node000012" class="edge">
<title>Node10&#45;&gt;Node12</title>
<g id="a_edge12_Node000010_Node000012"><a xlink:title=" ">
<path fill="none" stroke="#63b8ff" d="M687.07,-54.75C680.15,-47.11 669.93,-35.82 661.55,-26.56"/>
<polygon fill="#63b8ff" stroke="#63b8ff" points="664.09,-24.15 654.78,-19.09 658.9,-28.85 664.09,-24.15"/>
</a>
</g>
</g>
<!-- Node13 -->
<g id="Node000013" class="node">
<title>Node13</title>
<g id="a_Node000013"><a xlink:title=" ">
<polygon fill="#e0e0e0" stroke="#999999" points="770,-19 714,-19 714,0 770,0 770,-19"/>
<text text-anchor="middle" x="742" y="-7" font-family="Helvetica,sans-Serif" font-size="10.00">stddef.h</text>
</a>
</g>
</g>
<!-- Node10&#45;&gt;Node13 -->
<g id="edge13_Node000010_Node000013" class="edge">
<title>Node10&#45;&gt;Node13</title>
<g id="a_edge13_Node000010_Node000013"><a xlink:title=" ">
<path fill="none" stroke="#63b8ff" d="M702.76,-54.75C709.47,-47.18 719.34,-36.05 727.51,-26.84"/>
<polygon fill="#63b8ff" stroke="#63b8ff" points="730.37,-28.89 734.38,-19.09 725.13,-24.25 730.37,-28.89"/>
</a>
</g>
</g>
<!-- Node14 -->
<g id="Node000014" class="node">
<title>Node14</title>
<g id="a_Node000014"><a xlink:title=" ">
<polygon fill="#e0e0e0" stroke="#999999" points="853.5,-19 788.5,-19 788.5,0 853.5,0 853.5,-19"/>
<text text-anchor="middle" x="821" y="-7" font-family="Helvetica,sans-Serif" font-size="10.00">mavlink.h</text>
</a>
</g>
</g>
<!-- Node10&#45;&gt;Node14 -->
<g id="edge14_Node000010_Node000014" class="edge">
<title>Node10&#45;&gt;Node14</title>
<g id="a_edge14_Node000010_Node000014"><a xlink:title=" ">
<path fill="none" stroke="#63b8ff" d="M715.24,-54.98C735.7,-46.38 767.53,-32.99 790.93,-23.15"/>
<polygon fill="#63b8ff" stroke="#63b8ff" points="792.53,-26.27 800.39,-19.17 789.81,-19.82 792.53,-26.27"/>
</a>
</g>
</g>
</g>
</svg>
