<?xml version="1.0" encoding="UTF-8" standalone="no"?>
<!DOCTYPE svg PUBLIC "-//W3C//DTD SVG 1.1//EN"
 "http://www.w3.org/Graphics/SVG/1.1/DTD/svg11.dtd">
<!-- Generated by graphviz version 2.43.0 (0)
 -->
<!-- Title: src/Utilities/StateMachine/Transitions/NamedEventTransition.cc Pages: 1 -->
<svg width="764pt" height="214pt"
 viewBox="0.00 0.00 764.00 214.00" xmlns="http://www.w3.org/2000/svg" xmlns:xlink="http://www.w3.org/1999/xlink">
<g id="graph0" class="graph" transform="scale(1 1) rotate(0) translate(4 210)">
<title>src/Utilities/StateMachine/Transitions/NamedEventTransition.cc</title>
<!-- Node1 -->
<g id="Node000001" class="node">
<title>Node1</title>
<g id="a_Node000001"><a xlink:title=" ">
<polygon fill="#999999" stroke="#666666" points="547,-206 348,-206 348,-176 547,-176 547,-206"/>
<text text-anchor="start" x="356" y="-194" font-family="Helvetica,sans-Serif" font-size="10.00">src/Utilities/StateMachine</text>
<text text-anchor="middle" x="447.5" y="-183" font-family="Helvetica,sans-Serif" font-size="10.00">/Transitions/NamedEventTransition.cc</text>
</a>
</g>
</g>
<!-- Node2 -->
<g id="Node000002" class="node">
<title>Node2</title>
<g id="a_Node000002"><a xlink:href="NamedEventTransition_8h.html" target="_top" xlink:title=" ">
<polygon fill="white" stroke="#666666" points="425.5,-140 289.5,-140 289.5,-121 425.5,-121 425.5,-140"/>
<text text-anchor="middle" x="357.5" y="-128" font-family="Helvetica,sans-Serif" font-size="10.00">NamedEventTransition.h</text>
</a>
</g>
</g>
<!-- Node1&#45;&gt;Node2 -->
<g id="edge1_Node000001_Node000002" class="edge">
<title>Node1&#45;&gt;Node2</title>
<g id="a_edge1_Node000001_Node000002"><a xlink:title=" ">
<path fill="none" stroke="#63b8ff" d="M425.71,-175.84C411.63,-166.68 393.37,-154.82 379.29,-145.66"/>
<polygon fill="#63b8ff" stroke="#63b8ff" points="381.01,-142.61 370.72,-140.09 377.2,-148.48 381.01,-142.61"/>
</a>
</g>
</g>
<!-- Node10 -->
<g id="Node000010" class="node">
<title>Node10</title>
<g id="a_Node000010"><a xlink:href="QGCState_8h.html" target="_top" xlink:title=" ">
<polygon fill="white" stroke="#666666" points="575,-140 502,-140 502,-121 575,-121 575,-140"/>
<text text-anchor="middle" x="538.5" y="-128" font-family="Helvetica,sans-Serif" font-size="10.00">QGCState.h</text>
</a>
</g>
</g>
<!-- Node1&#45;&gt;Node10 -->
<g id="edge11_Node000001_Node000010" class="edge">
<title>Node1&#45;&gt;Node10</title>
<g id="a_edge11_Node000001_Node000010"><a xlink:title=" ">
<path fill="none" stroke="#63b8ff" d="M469.53,-175.84C483.77,-166.68 502.23,-154.82 516.47,-145.66"/>
<polygon fill="#63b8ff" stroke="#63b8ff" points="518.61,-148.45 525.13,-140.09 514.83,-142.56 518.61,-148.45"/>
</a>
</g>
</g>
<!-- Node3 -->
<g id="Node000003" class="node">
<title>Node3</title>
<g id="a_Node000003"><a xlink:href="QGCAbstractTransition_8h.html" target="_top" xlink:title=" ">
<polygon fill="white" stroke="#666666" points="425,-85 290,-85 290,-66 425,-66 425,-85"/>
<text text-anchor="middle" x="357.5" y="-73" font-family="Helvetica,sans-Serif" font-size="10.00">QGCAbstractTransition.h</text>
</a>
</g>
</g>
<!-- Node2&#45;&gt;Node3 -->
<g id="edge2_Node000002_Node000003" class="edge">
<title>Node2&#45;&gt;Node3</title>
<g id="a_edge2_Node000002_Node000003"><a xlink:title=" ">
<path fill="none" stroke="#63b8ff" d="M357.5,-120.75C357.5,-113.8 357.5,-103.85 357.5,-95.13"/>
<polygon fill="#63b8ff" stroke="#63b8ff" points="361,-95.09 357.5,-85.09 354,-95.09 361,-95.09"/>
</a>
</g>
</g>
<!-- Node5 -->
<g id="Node000005" class="node">
<title>Node5</title>
<g id="a_Node000005"><a xlink:title=" ">
<polygon fill="#e0e0e0" stroke="#999999" points="309,-24.5 220,-24.5 220,-5.5 309,-5.5 309,-24.5"/>
<text text-anchor="middle" x="264.5" y="-12.5" font-family="Helvetica,sans-Serif" font-size="10.00">QtCore/QString</text>
</a>
</g>
</g>
<!-- Node2&#45;&gt;Node5 -->
<g id="edge9_Node000002_Node000005" class="edge">
<title>Node2&#45;&gt;Node5</title>
<g id="a_edge9_Node000002_Node000005"><a xlink:title=" ">
<path fill="none" stroke="#63b8ff" d="M331.95,-120.92C314.87,-113.89 293.27,-102.25 280.5,-85 269.65,-70.35 266,-49.54 264.85,-34.6"/>
<polygon fill="#63b8ff" stroke="#63b8ff" points="268.35,-34.36 264.38,-24.53 261.35,-34.69 268.35,-34.36"/>
</a>
</g>
</g>
<!-- Node6 -->
<g id="Node000006" class="node">
<title>Node6</title>
<g id="a_Node000006"><a xlink:href="QGCStateMachineEvent_8h.html" target="_top" xlink:title=" ">
<polygon fill="white" stroke="#666666" points="230.5,-85 88.5,-85 88.5,-66 230.5,-66 230.5,-85"/>
<text text-anchor="middle" x="159.5" y="-73" font-family="Helvetica,sans-Serif" font-size="10.00">QGCStateMachineEvent.h</text>
</a>
</g>
</g>
<!-- Node2&#45;&gt;Node6 -->
<g id="edge5_Node000002_Node000006" class="edge">
<title>Node2&#45;&gt;Node6</title>
<g id="a_edge5_Node000002_Node000006"><a xlink:title=" ">
<path fill="none" stroke="#63b8ff" d="M325.69,-120.98C292.01,-111.97 238.7,-97.7 201.58,-87.76"/>
<polygon fill="#63b8ff" stroke="#63b8ff" points="202.13,-84.29 191.56,-85.08 200.32,-91.05 202.13,-84.29"/>
</a>
</g>
</g>
<!-- Node9 -->
<g id="Node000009" class="node">
<title>Node9</title>
<g id="a_Node000009"><a xlink:title=" ">
<polygon fill="#e0e0e0" stroke="#999999" points="557,-24.5 492,-24.5 492,-5.5 557,-5.5 557,-24.5"/>
<text text-anchor="middle" x="524.5" y="-12.5" font-family="Helvetica,sans-Serif" font-size="10.00">functional</text>
</a>
</g>
</g>
<!-- Node2&#45;&gt;Node9 -->
<g id="edge10_Node000002_Node000009" class="edge">
<title>Node2&#45;&gt;Node9</title>
<g id="a_edge10_Node000002_Node000009"><a xlink:title=" ">
<path fill="none" stroke="#63b8ff" d="M373.26,-120.99C388.87,-112.4 413.29,-98.51 433.5,-85 459.42,-67.67 487.84,-45.59 505.9,-31.14"/>
<polygon fill="#63b8ff" stroke="#63b8ff" points="508.29,-33.71 513.88,-24.71 503.9,-28.26 508.29,-33.71"/>
</a>
</g>
</g>
<!-- Node4 -->
<g id="Node000004" class="node">
<title>Node4</title>
<g id="a_Node000004"><a xlink:title=" ">
<polygon fill="#e0e0e0" stroke="#999999" points="473.5,-30 327.5,-30 327.5,0 473.5,0 473.5,-30"/>
<text text-anchor="start" x="335.5" y="-18" font-family="Helvetica,sans-Serif" font-size="10.00">QtStateMachine/QAbstract</text>
<text text-anchor="middle" x="400.5" y="-7" font-family="Helvetica,sans-Serif" font-size="10.00">Transition</text>
</a>
</g>
</g>
<!-- Node3&#45;&gt;Node4 -->
<g id="edge3_Node000003_Node000004" class="edge">
<title>Node3&#45;&gt;Node4</title>
<g id="a_edge3_Node000003_Node000004"><a xlink:title=" ">
<path fill="none" stroke="#63b8ff" d="M363.84,-65.87C369.19,-58.59 377.09,-47.85 384.18,-38.2"/>
<polygon fill="#63b8ff" stroke="#63b8ff" points="387.02,-40.25 390.13,-30.11 381.38,-36.1 387.02,-40.25"/>
</a>
</g>
</g>
<!-- Node3&#45;&gt;Node5 -->
<g id="edge4_Node000003_Node000005" class="edge">
<title>Node3&#45;&gt;Node5</title>
<g id="a_edge4_Node000003_Node000005"><a xlink:title=" ">
<path fill="none" stroke="#63b8ff" d="M343.78,-65.87C328.8,-56.45 304.61,-41.23 286.88,-30.08"/>
<polygon fill="#63b8ff" stroke="#63b8ff" points="288.61,-27.03 278.28,-24.67 284.88,-32.95 288.61,-27.03"/>
</a>
</g>
</g>
<!-- Node6&#45;&gt;Node5 -->
<g id="edge7_Node000006_Node000005" class="edge">
<title>Node6&#45;&gt;Node5</title>
<g id="a_edge7_Node000006_Node000005"><a xlink:title=" ">
<path fill="none" stroke="#63b8ff" d="M174.99,-65.87C192.13,-56.32 219.97,-40.81 240.06,-29.62"/>
<polygon fill="#63b8ff" stroke="#63b8ff" points="241.91,-32.59 248.94,-24.67 238.5,-26.48 241.91,-32.59"/>
</a>
</g>
</g>
<!-- Node7 -->
<g id="Node000007" class="node">
<title>Node7</title>
<g id="a_Node000007"><a xlink:title=" ">
<polygon fill="#e0e0e0" stroke="#999999" points="89,-24.5 0,-24.5 0,-5.5 89,-5.5 89,-24.5"/>
<text text-anchor="middle" x="44.5" y="-12.5" font-family="Helvetica,sans-Serif" font-size="10.00">QtCore/QEvent</text>
</a>
</g>
</g>
<!-- Node6&#45;&gt;Node7 -->
<g id="edge6_Node000006_Node000007" class="edge">
<title>Node6&#45;&gt;Node7</title>
<g id="a_edge6_Node000006_Node000007"><a xlink:title=" ">
<path fill="none" stroke="#63b8ff" d="M142.53,-65.87C123.59,-56.23 92.71,-40.53 70.67,-29.31"/>
<polygon fill="#63b8ff" stroke="#63b8ff" points="72.04,-26.08 61.54,-24.67 68.86,-32.32 72.04,-26.08"/>
</a>
</g>
</g>
<!-- Node8 -->
<g id="Node000008" class="node">
<title>Node8</title>
<g id="a_Node000008"><a xlink:title=" ">
<polygon fill="#e0e0e0" stroke="#999999" points="202,-24.5 107,-24.5 107,-5.5 202,-5.5 202,-24.5"/>
<text text-anchor="middle" x="154.5" y="-12.5" font-family="Helvetica,sans-Serif" font-size="10.00">QtCore/QVariant</text>
</a>
</g>
</g>
<!-- Node6&#45;&gt;Node8 -->
<g id="edge8_Node000006_Node000008" class="edge">
<title>Node6&#45;&gt;Node8</title>
<g id="a_edge8_Node000006_Node000008"><a xlink:title=" ">
<path fill="none" stroke="#63b8ff" d="M158.76,-65.87C158.07,-57.75 157,-45.31 156.11,-34.89"/>
<polygon fill="#63b8ff" stroke="#63b8ff" points="159.58,-34.33 155.24,-24.67 152.61,-34.93 159.58,-34.33"/>
</a>
</g>
</g>
<!-- Node11 -->
<g id="Node000011" class="node">
<title>Node11</title>
<g id="a_Node000011"><a xlink:href="QGCAbstractState_8h.html" target="_top" xlink:title=" ">
<polygon fill="white" stroke="#666666" points="595,-85 482,-85 482,-66 595,-66 595,-85"/>
<text text-anchor="middle" x="538.5" y="-73" font-family="Helvetica,sans-Serif" font-size="10.00">QGCAbstractState.h</text>
</a>
</g>
</g>
<!-- Node10&#45;&gt;Node11 -->
<g id="edge12_Node000010_Node000011" class="edge">
<title>Node10&#45;&gt;Node11</title>
<g id="a_edge12_Node000010_Node000011"><a xlink:title=" ">
<path fill="none" stroke="#63b8ff" d="M538.5,-120.75C538.5,-113.8 538.5,-103.85 538.5,-95.13"/>
<polygon fill="#63b8ff" stroke="#63b8ff" points="542,-95.09 538.5,-85.09 535,-95.09 542,-95.09"/>
</a>
</g>
</g>
<!-- Node13 -->
<g id="Node000013" class="node">
<title>Node13</title>
<g id="a_Node000013"><a xlink:title=" ">
<polygon fill="#e0e0e0" stroke="#999999" points="756,-85 613,-85 613,-66 756,-66 756,-85"/>
<text text-anchor="middle" x="684.5" y="-73" font-family="Helvetica,sans-Serif" font-size="10.00">QtCore/QLoggingCategory</text>
</a>
</g>
</g>
<!-- Node10&#45;&gt;Node13 -->
<g id="edge16_Node000010_Node000013" class="edge">
<title>Node10&#45;&gt;Node13</title>
<g id="a_edge16_Node000010_Node000013"><a xlink:title=" ">
<path fill="none" stroke="#63b8ff" d="M561.96,-120.98C586.08,-112.23 623.87,-98.51 651.1,-88.62"/>
<polygon fill="#63b8ff" stroke="#63b8ff" points="652.41,-91.87 660.62,-85.17 650.02,-85.29 652.41,-91.87"/>
</a>
</g>
</g>
<!-- Node11&#45;&gt;Node5 -->
<g id="edge14_Node000011_Node000005" class="edge">
<title>Node11&#45;&gt;Node5</title>
<g id="a_edge14_Node000011_Node000005"><a xlink:title=" ">
<path fill="none" stroke="#63b8ff" d="M492.42,-65.93C447.79,-57.46 378.31,-43.79 318.5,-30 314.41,-29.06 310.16,-28.03 305.92,-26.98"/>
<polygon fill="#63b8ff" stroke="#63b8ff" points="306.68,-23.56 296.12,-24.5 304.96,-30.35 306.68,-23.56"/>
</a>
</g>
</g>
<!-- Node11&#45;&gt;Node9 -->
<g id="edge15_Node000011_Node000009" class="edge">
<title>Node11&#45;&gt;Node9</title>
<g id="a_edge15_Node000011_Node000009"><a xlink:title=" ">
<path fill="none" stroke="#63b8ff" d="M536.43,-65.87C534.47,-57.66 531.45,-45.04 528.94,-34.55"/>
<polygon fill="#63b8ff" stroke="#63b8ff" points="532.31,-33.58 526.57,-24.67 525.5,-35.21 532.31,-33.58"/>
</a>
</g>
</g>
<!-- Node12 -->
<g id="Node000012" class="node">
<title>Node12</title>
<g id="a_Node000012"><a xlink:title=" ">
<polygon fill="#e0e0e0" stroke="#999999" points="706,-24.5 575,-24.5 575,-5.5 706,-5.5 706,-24.5"/>
<text text-anchor="middle" x="640.5" y="-12.5" font-family="Helvetica,sans-Serif" font-size="10.00">QtStateMachine/QState</text>
</a>
</g>
</g>
<!-- Node11&#45;&gt;Node12 -->
<g id="edge13_Node000011_Node000012" class="edge">
<title>Node11&#45;&gt;Node12</title>
<g id="a_edge13_Node000011_Node000012"><a xlink:title=" ">
<path fill="none" stroke="#63b8ff" d="M553.55,-65.87C570.12,-56.36 597,-40.95 616.49,-29.77"/>
<polygon fill="#63b8ff" stroke="#63b8ff" points="618.45,-32.68 625.39,-24.67 614.97,-26.61 618.45,-32.68"/>
</a>
</g>
</g>
</g>
</svg>
