<?xml version="1.0" encoding="UTF-8" standalone="no"?>
<!DOCTYPE svg PUBLIC "-//W3C//DTD SVG 1.1//EN"
 "http://www.w3.org/Graphics/SVG/1.1/DTD/svg11.dtd">
<!-- Generated by graphviz version 2.43.0 (0)
 -->
<!-- Title: src/GPS/NTRIP/NTRIPManager.h Pages: 1 -->
<svg width="1101pt" height="192pt"
 viewBox="0.00 0.00 1101.00 192.00" xmlns="http://www.w3.org/2000/svg" xmlns:xlink="http://www.w3.org/1999/xlink">
<g id="graph0" class="graph" transform="scale(1 1) rotate(0) translate(4 188)">
<title>src/GPS/NTRIP/NTRIPManager.h</title>
<!-- Node1 -->
<g id="Node000001" class="node">
<title>Node1</title>
<g id="a_Node000001"><a xlink:title=" ">
<polygon fill="#999999" stroke="#666666" points="493,-184 324,-184 324,-165 493,-165 493,-184"/>
<text text-anchor="middle" x="408.5" y="-172" font-family="Helvetica,sans-Serif" font-size="10.00">src/GPS/NTRIP/NTRIPManager.h</text>
</a>
</g>
</g>
<!-- Node2 -->
<g id="Node000002" class="node">
<title>Node2</title>
<g id="a_Node000002"><a xlink:href="NTRIPHttpTransport_8h.html" target="_top" xlink:title=" ">
<polygon fill="white" stroke="#666666" points="395,-129 274,-129 274,-110 395,-110 395,-129"/>
<text text-anchor="middle" x="334.5" y="-117" font-family="Helvetica,sans-Serif" font-size="10.00">NTRIPHttpTransport.h</text>
</a>
</g>
</g>
<!-- Node1&#45;&gt;Node2 -->
<g id="edge1_Node000001_Node000002" class="edge">
<title>Node1&#45;&gt;Node2</title>
<g id="a_edge1_Node000001_Node000002"><a xlink:title=" ">
<path fill="none" stroke="#63b8ff" d="M396.61,-164.98C385.35,-156.92 368.21,-144.65 354.79,-135.03"/>
<polygon fill="#63b8ff" stroke="#63b8ff" points="356.77,-132.15 346.61,-129.17 352.7,-137.84 356.77,-132.15"/>
</a>
</g>
</g>
<!-- Node3 -->
<g id="Node000003" class="node">
<title>Node3</title>
<g id="a_Node000003"><a xlink:title=" ">
<polygon fill="#e0e0e0" stroke="#999999" points="143,-74 0,-74 0,-55 143,-55 143,-74"/>
<text text-anchor="middle" x="71.5" y="-62" font-family="Helvetica,sans-Serif" font-size="10.00">QtCore/QLoggingCategory</text>
</a>
</g>
</g>
<!-- Node1&#45;&gt;Node3 -->
<g id="edge10_Node000001_Node000003" class="edge">
<title>Node1&#45;&gt;Node3</title>
<g id="a_edge10_Node000001_Node000003"><a xlink:title=" ">
<path fill="none" stroke="#63b8ff" d="M369.42,-164.93C333.9,-156.81 280.22,-143.69 234.5,-129 186.81,-113.67 132.91,-91.74 100.6,-78.07"/>
<polygon fill="#63b8ff" stroke="#63b8ff" points="101.87,-74.81 91.29,-74.11 99.13,-81.25 101.87,-74.81"/>
</a>
</g>
</g>
<!-- Node4 -->
<g id="Node000004" class="node">
<title>Node4</title>
<g id="a_Node000004"><a xlink:title=" ">
<polygon fill="#e0e0e0" stroke="#999999" points="253.5,-74 161.5,-74 161.5,-55 253.5,-55 253.5,-74"/>
<text text-anchor="middle" x="207.5" y="-62" font-family="Helvetica,sans-Serif" font-size="10.00">QtCore/QObject</text>
</a>
</g>
</g>
<!-- Node1&#45;&gt;Node4 -->
<g id="edge11_Node000001_Node000004" class="edge">
<title>Node1&#45;&gt;Node4</title>
<g id="a_edge11_Node000001_Node000004"><a xlink:title=" ">
<path fill="none" stroke="#63b8ff" d="M350.02,-164.97C320.41,-158.59 285,-147.62 257.5,-129 240.13,-117.24 226,-97.56 217.24,-83.22"/>
<polygon fill="#63b8ff" stroke="#63b8ff" points="220.12,-81.2 212.07,-74.31 214.06,-84.71 220.12,-81.2"/>
</a>
</g>
</g>
<!-- Node5 -->
<g id="Node000005" class="node">
<title>Node5</title>
<g id="a_Node000005"><a xlink:title=" ">
<polygon fill="#e0e0e0" stroke="#999999" points="361,-74 272,-74 272,-55 361,-55 361,-74"/>
<text text-anchor="middle" x="316.5" y="-62" font-family="Helvetica,sans-Serif" font-size="10.00">QtCore/QTimer</text>
</a>
</g>
</g>
<!-- Node1&#45;&gt;Node5 -->
<g id="edge12_Node000001_Node000005" class="edge">
<title>Node1&#45;&gt;Node5</title>
<g id="a_edge12_Node000001_Node000005"><a xlink:title=" ">
<path fill="none" stroke="#63b8ff" d="M323.77,-165.75C300.92,-159.32 278.63,-148.16 264.5,-129 251.52,-111.4 272.8,-92.08 291.92,-79.42"/>
<polygon fill="#63b8ff" stroke="#63b8ff" points="293.8,-82.38 300.42,-74.11 290.09,-76.44 293.8,-82.38"/>
</a>
</g>
</g>
<!-- Node11 -->
<g id="Node000011" class="node">
<title>Node11</title>
<g id="a_Node000011"><a xlink:title=" ">
<polygon fill="#e0e0e0" stroke="#999999" points="554,-129 413,-129 413,-110 554,-110 554,-129"/>
<text text-anchor="middle" x="483.5" y="-117" font-family="Helvetica,sans-Serif" font-size="10.00">QtNetwork/QHostAddress</text>
</a>
</g>
</g>
<!-- Node1&#45;&gt;Node11 -->
<g id="edge13_Node000001_Node000011" class="edge">
<title>Node1&#45;&gt;Node11</title>
<g id="a_edge13_Node000001_Node000011"><a xlink:title=" ">
<path fill="none" stroke="#63b8ff" d="M420.55,-164.98C431.96,-156.92 449.33,-144.65 462.93,-135.03"/>
<polygon fill="#63b8ff" stroke="#63b8ff" points="465.08,-137.8 471.23,-129.17 461.04,-132.08 465.08,-137.8"/>
</a>
</g>
</g>
<!-- Node12 -->
<g id="Node000012" class="node">
<title>Node12</title>
<g id="a_Node000012"><a xlink:title=" ">
<polygon fill="#e0e0e0" stroke="#999999" points="703,-129 572,-129 572,-110 703,-110 703,-129"/>
<text text-anchor="middle" x="637.5" y="-117" font-family="Helvetica,sans-Serif" font-size="10.00">QtNetwork/QUdpSocket</text>
</a>
</g>
</g>
<!-- Node1&#45;&gt;Node12 -->
<g id="edge14_Node000001_Node000012" class="edge">
<title>Node1&#45;&gt;Node12</title>
<g id="a_edge14_Node000001_Node000012"><a xlink:title=" ">
<path fill="none" stroke="#63b8ff" d="M445.29,-164.98C484.74,-155.86 547.48,-141.33 590.48,-131.38"/>
<polygon fill="#63b8ff" stroke="#63b8ff" points="591.47,-134.75 600.42,-129.08 589.89,-127.93 591.47,-134.75"/>
</a>
</g>
</g>
<!-- Node13 -->
<g id="Node000013" class="node">
<title>Node13</title>
<g id="a_Node000013"><a xlink:title=" ">
<polygon fill="#e0e0e0" stroke="#999999" points="886,-129 721,-129 721,-110 886,-110 886,-129"/>
<text text-anchor="middle" x="803.5" y="-117" font-family="Helvetica,sans-Serif" font-size="10.00">QtPositioning/QGeoCoordinate</text>
</a>
</g>
</g>
<!-- Node1&#45;&gt;Node13 -->
<g id="edge15_Node000001_Node000013" class="edge">
<title>Node1&#45;&gt;Node13</title>
<g id="a_edge15_Node000001_Node000013"><a xlink:title=" ">
<path fill="none" stroke="#63b8ff" d="M471.96,-164.98C542.26,-155.55 655.45,-140.36 729.66,-130.41"/>
<polygon fill="#63b8ff" stroke="#63b8ff" points="730.42,-133.84 739.87,-129.04 729.49,-126.9 730.42,-133.84"/>
</a>
</g>
</g>
<!-- Node14 -->
<g id="Node000014" class="node">
<title>Node14</title>
<g id="a_Node000014"><a xlink:title=" ">
<polygon fill="#e0e0e0" stroke="#999999" points="1093,-129 904,-129 904,-110 1093,-110 1093,-129"/>
<text text-anchor="middle" x="998.5" y="-117" font-family="Helvetica,sans-Serif" font-size="10.00">QtQmlIntegration/QtQmlIntegration</text>
</a>
</g>
</g>
<!-- Node1&#45;&gt;Node14 -->
<g id="edge16_Node000001_Node000014" class="edge">
<title>Node1&#45;&gt;Node14</title>
<g id="a_edge16_Node000001_Node000014"><a xlink:title=" ">
<path fill="none" stroke="#63b8ff" d="M493.03,-165.91C598.66,-156.42 779.4,-140.18 893.71,-129.91"/>
<polygon fill="#63b8ff" stroke="#63b8ff" points="894.23,-133.38 903.87,-129 893.6,-126.41 894.23,-133.38"/>
</a>
</g>
</g>
<!-- Node2&#45;&gt;Node3 -->
<g id="edge2_Node000002_Node000003" class="edge">
<title>Node2&#45;&gt;Node3</title>
<g id="a_edge2_Node000002_Node000003"><a xlink:title=" ">
<path fill="none" stroke="#63b8ff" d="M292.24,-109.98C246.46,-100.76 173.36,-86.03 123.95,-76.07"/>
<polygon fill="#63b8ff" stroke="#63b8ff" points="124.58,-72.63 114.09,-74.08 123.2,-79.49 124.58,-72.63"/>
</a>
</g>
</g>
<!-- Node2&#45;&gt;Node4 -->
<g id="edge3_Node000002_Node000004" class="edge">
<title>Node2&#45;&gt;Node4</title>
<g id="a_edge3_Node000002_Node000004"><a xlink:title=" ">
<path fill="none" stroke="#63b8ff" d="M314.1,-109.98C293.48,-101.38 261.39,-87.99 237.81,-78.15"/>
<polygon fill="#63b8ff" stroke="#63b8ff" points="238.85,-74.79 228.28,-74.17 236.16,-81.25 238.85,-74.79"/>
</a>
</g>
</g>
<!-- Node2&#45;&gt;Node5 -->
<g id="edge4_Node000002_Node000005" class="edge">
<title>Node2&#45;&gt;Node5</title>
<g id="a_edge4_Node000002_Node000005"><a xlink:title=" ">
<path fill="none" stroke="#63b8ff" d="M331.53,-109.75C329.14,-102.72 325.71,-92.62 322.73,-83.84"/>
<polygon fill="#63b8ff" stroke="#63b8ff" points="325.95,-82.43 319.42,-74.09 319.32,-84.68 325.95,-82.43"/>
</a>
</g>
</g>
<!-- Node6 -->
<g id="Node000006" class="node">
<title>Node6</title>
<g id="a_Node000006"><a xlink:title=" ">
<polygon fill="#e0e0e0" stroke="#999999" points="505.5,-74 379.5,-74 379.5,-55 505.5,-55 505.5,-74"/>
<text text-anchor="middle" x="442.5" y="-62" font-family="Helvetica,sans-Serif" font-size="10.00">QtNetwork/QSslSocket</text>
</a>
</g>
</g>
<!-- Node2&#45;&gt;Node6 -->
<g id="edge5_Node000002_Node000006" class="edge">
<title>Node2&#45;&gt;Node6</title>
<g id="a_edge5_Node000002_Node000006"><a xlink:title=" ">
<path fill="none" stroke="#63b8ff" d="M351.85,-109.98C369.07,-101.54 395.7,-88.47 415.65,-78.68"/>
<polygon fill="#63b8ff" stroke="#63b8ff" points="417.4,-81.72 424.83,-74.17 414.31,-75.43 417.4,-81.72"/>
</a>
</g>
</g>
<!-- Node7 -->
<g id="Node000007" class="node">
<title>Node7</title>
<g id="a_Node000007"><a xlink:title=" ">
<polygon fill="#e0e0e0" stroke="#999999" points="651.5,-74 523.5,-74 523.5,-55 651.5,-55 651.5,-74"/>
<text text-anchor="middle" x="587.5" y="-62" font-family="Helvetica,sans-Serif" font-size="10.00">QtNetwork/QTcpSocket</text>
</a>
</g>
</g>
<!-- Node2&#45;&gt;Node7 -->
<g id="edge6_Node000002_Node000007" class="edge">
<title>Node2&#45;&gt;Node7</title>
<g id="a_edge6_Node000002_Node000007"><a xlink:title=" ">
<path fill="none" stroke="#63b8ff" d="M375.15,-109.98C419,-100.8 488.92,-86.15 536.45,-76.19"/>
<polygon fill="#63b8ff" stroke="#63b8ff" points="537.46,-79.56 546.53,-74.08 536.03,-72.71 537.46,-79.56"/>
</a>
</g>
</g>
<!-- Node8 -->
<g id="Node000008" class="node">
<title>Node8</title>
<g id="a_Node000008"><a xlink:href="RTCMParser_8h.html" target="_top" xlink:title=" ">
<polygon fill="white" stroke="#666666" points="751.5,-74 669.5,-74 669.5,-55 751.5,-55 751.5,-74"/>
<text text-anchor="middle" x="710.5" y="-62" font-family="Helvetica,sans-Serif" font-size="10.00">RTCMParser.h</text>
</a>
</g>
</g>
<!-- Node2&#45;&gt;Node8 -->
<g id="edge7_Node000002_Node000008" class="edge">
<title>Node2&#45;&gt;Node8</title>
<g id="a_edge7_Node000002_Node000008"><a xlink:title=" ">
<path fill="none" stroke="#63b8ff" d="M395.27,-110.81C458.63,-102.65 561.1,-89.08 659.22,-74.15"/>
<polygon fill="#63b8ff" stroke="#63b8ff" points="659.96,-77.58 669.32,-72.61 658.9,-70.66 659.96,-77.58"/>
</a>
</g>
</g>
<!-- Node9 -->
<g id="Node000009" class="node">
<title>Node9</title>
<g id="a_Node000009"><a xlink:title=" ">
<polygon fill="#e0e0e0" stroke="#999999" points="702,-19 649,-19 649,0 702,0 702,-19"/>
<text text-anchor="middle" x="675.5" y="-7" font-family="Helvetica,sans-Serif" font-size="10.00">cstddef</text>
</a>
</g>
</g>
<!-- Node8&#45;&gt;Node9 -->
<g id="edge8_Node000008_Node000009" class="edge">
<title>Node8&#45;&gt;Node9</title>
<g id="a_edge8_Node000008_Node000009"><a xlink:title=" ">
<path fill="none" stroke="#63b8ff" d="M704.72,-54.75C699.88,-47.42 692.82,-36.73 686.86,-27.7"/>
<polygon fill="#63b8ff" stroke="#63b8ff" points="689.6,-25.5 681.17,-19.09 683.76,-29.36 689.6,-25.5"/>
</a>
</g>
</g>
<!-- Node10 -->
<g id="Node000010" class="node">
<title>Node10</title>
<g id="a_Node000010"><a xlink:title=" ">
<polygon fill="#e0e0e0" stroke="#999999" points="770.5,-19 720.5,-19 720.5,0 770.5,0 770.5,-19"/>
<text text-anchor="middle" x="745.5" y="-7" font-family="Helvetica,sans-Serif" font-size="10.00">cstdint</text>
</a>
</g>
</g>
<!-- Node8&#45;&gt;Node10 -->
<g id="edge9_Node000008_Node000010" class="edge">
<title>Node8&#45;&gt;Node10</title>
<g id="a_edge9_Node000008_Node000010"><a xlink:title=" ">
<path fill="none" stroke="#63b8ff" d="M716.28,-54.75C721.12,-47.42 728.18,-36.73 734.14,-27.7"/>
<polygon fill="#63b8ff" stroke="#63b8ff" points="737.24,-29.36 739.83,-19.09 731.4,-25.5 737.24,-29.36"/>
</a>
</g>
</g>
</g>
</svg>
