<?xml version="1.0" encoding="UTF-8" standalone="no"?>
<!DOCTYPE svg PUBLIC "-//W3C//DTD SVG 1.1//EN"
 "http://www.w3.org/Graphics/SVG/1.1/DTD/svg11.dtd">
<!-- Generated by graphviz version 2.43.0 (0)
 -->
<!-- Title: src/QmlControls/ObjectItemModelBase.cc Pages: 1 -->
<svg width="1384pt" height="148pt"
 viewBox="0.00 0.00 1383.50 148.00" xmlns="http://www.w3.org/2000/svg" xmlns:xlink="http://www.w3.org/1999/xlink">
<g id="graph0" class="graph" transform="scale(1 1) rotate(0) translate(4 144)">
<title>src/QmlControls/ObjectItemModelBase.cc</title>
<!-- Node1 -->
<g id="Node000001" class="node">
<title>Node1</title>
<g id="a_Node000001"><a xlink:title=" ">
<polygon fill="#999999" stroke="#666666" points="898,-140 746,-140 746,-110 898,-110 898,-140"/>
<text text-anchor="start" x="754" y="-128" font-family="Helvetica,sans-Serif" font-size="10.00">src/QmlControls/ObjectItem</text>
<text text-anchor="middle" x="822" y="-117" font-family="Helvetica,sans-Serif" font-size="10.00">ModelBase.cc</text>
</a>
</g>
</g>
<!-- Node2 -->
<g id="Node000002" class="node">
<title>Node2</title>
<g id="a_Node000002"><a xlink:href="ObjectItemModelBase_8h.html" target="_top" xlink:title=" ">
<polygon fill="white" stroke="#666666" points="426,-74 292,-74 292,-55 426,-55 426,-74"/>
<text text-anchor="middle" x="359" y="-62" font-family="Helvetica,sans-Serif" font-size="10.00">ObjectItemModelBase.h</text>
</a>
</g>
</g>
<!-- Node1&#45;&gt;Node2 -->
<g id="edge1_Node000001_Node000002" class="edge">
<title>Node1&#45;&gt;Node2</title>
<g id="a_edge1_Node000001_Node000002"><a xlink:title=" ">
<path fill="none" stroke="#63b8ff" d="M745.8,-114.37C660.25,-103.56 522.16,-86.12 436.2,-75.25"/>
<polygon fill="#63b8ff" stroke="#63b8ff" points="436.6,-71.78 426.24,-74 435.72,-78.72 436.6,-71.78"/>
</a>
</g>
</g>
<!-- Node6 -->
<g id="Node000006" class="node">
<title>Node6</title>
<g id="a_Node000006"><a xlink:href="QGCLoggingCategory_8h.html" target="_top" xlink:title=" ">
<polygon fill="white" stroke="#666666" points="886,-74 758,-74 758,-55 886,-55 886,-74"/>
<text text-anchor="middle" x="822" y="-62" font-family="Helvetica,sans-Serif" font-size="10.00">QGCLoggingCategory.h</text>
</a>
</g>
</g>
<!-- Node1&#45;&gt;Node6 -->
<g id="edge5_Node000001_Node000006" class="edge">
<title>Node1&#45;&gt;Node6</title>
<g id="a_edge5_Node000001_Node000006"><a xlink:title=" ">
<path fill="none" stroke="#63b8ff" d="M822,-109.84C822,-102.21 822,-92.7 822,-84.45"/>
<polygon fill="#63b8ff" stroke="#63b8ff" points="825.5,-84.27 822,-74.27 818.5,-84.27 825.5,-84.27"/>
</a>
</g>
</g>
<!-- Node14 -->
<g id="Node000014" class="node">
<title>Node14</title>
<g id="a_Node000014"><a xlink:title=" ">
<polygon fill="#e0e0e0" stroke="#999999" points="1016,-74 904,-74 904,-55 1016,-55 1016,-74"/>
<text text-anchor="middle" x="960" y="-62" font-family="Helvetica,sans-Serif" font-size="10.00">QtQml/QQmlEngine</text>
</a>
</g>
</g>
<!-- Node1&#45;&gt;Node14 -->
<g id="edge14_Node000001_Node000014" class="edge">
<title>Node1&#45;&gt;Node14</title>
<g id="a_edge14_Node000001_Node000014"><a xlink:title=" ">
<path fill="none" stroke="#63b8ff" d="M855.05,-109.99C877.98,-100.27 908.24,-87.44 930.38,-78.06"/>
<polygon fill="#63b8ff" stroke="#63b8ff" points="931.78,-81.26 939.62,-74.14 929.05,-74.82 931.78,-81.26"/>
</a>
</g>
</g>
<!-- Node3 -->
<g id="Node000003" class="node">
<title>Node3</title>
<g id="a_Node000003"><a xlink:title=" ">
<polygon fill="#e0e0e0" stroke="#999999" points="154,-19 0,-19 0,0 154,0 154,-19"/>
<text text-anchor="middle" x="77" y="-7" font-family="Helvetica,sans-Serif" font-size="10.00">QtCore/QAbstractItemModel</text>
</a>
</g>
</g>
<!-- Node2&#45;&gt;Node3 -->
<g id="edge2_Node000002_Node000003" class="edge">
<title>Node2&#45;&gt;Node3</title>
<g id="a_edge2_Node000002_Node000003"><a xlink:title=" ">
<path fill="none" stroke="#63b8ff" d="M313.69,-54.98C264.4,-45.72 185.57,-30.9 132.57,-20.94"/>
<polygon fill="#63b8ff" stroke="#63b8ff" points="133.14,-17.49 122.66,-19.08 131.84,-24.37 133.14,-17.49"/>
</a>
</g>
</g>
<!-- Node4 -->
<g id="Node000004" class="node">
<title>Node4</title>
<g id="a_Node000004"><a xlink:title=" ">
<polygon fill="#e0e0e0" stroke="#999999" points="522.5,-19 379.5,-19 379.5,0 522.5,0 522.5,-19"/>
<text text-anchor="middle" x="451" y="-7" font-family="Helvetica,sans-Serif" font-size="10.00">QtCore/QLoggingCategory</text>
</a>
</g>
</g>
<!-- Node2&#45;&gt;Node4 -->
<g id="edge3_Node000002_Node000004" class="edge">
<title>Node2&#45;&gt;Node4</title>
<g id="a_edge3_Node000002_Node000004"><a xlink:title=" ">
<path fill="none" stroke="#63b8ff" d="M373.78,-54.98C388.18,-46.69 410.31,-33.94 427.19,-24.22"/>
<polygon fill="#63b8ff" stroke="#63b8ff" points="429.03,-27.19 435.95,-19.17 425.54,-21.13 429.03,-27.19"/>
</a>
</g>
</g>
<!-- Node5 -->
<g id="Node000005" class="node">
<title>Node5</title>
<g id="a_Node000005"><a xlink:title=" ">
<polygon fill="#e0e0e0" stroke="#999999" points="361.5,-19 172.5,-19 172.5,0 361.5,0 361.5,-19"/>
<text text-anchor="middle" x="267" y="-7" font-family="Helvetica,sans-Serif" font-size="10.00">QtQmlIntegration/QtQmlIntegration</text>
</a>
</g>
</g>
<!-- Node2&#45;&gt;Node5 -->
<g id="edge4_Node000002_Node000005" class="edge">
<title>Node2&#45;&gt;Node5</title>
<g id="a_edge4_Node000002_Node000005"><a xlink:title=" ">
<path fill="none" stroke="#63b8ff" d="M344.22,-54.98C329.82,-46.69 307.69,-33.94 290.81,-24.22"/>
<polygon fill="#63b8ff" stroke="#63b8ff" points="292.46,-21.13 282.05,-19.17 288.97,-27.19 292.46,-21.13"/>
</a>
</g>
</g>
<!-- Node6&#45;&gt;Node4 -->
<g id="edge7_Node000006_Node000004" class="edge">
<title>Node6&#45;&gt;Node4</title>
<g id="a_edge7_Node000006_Node000004"><a xlink:title=" ">
<path fill="none" stroke="#63b8ff" d="M762.39,-54.98C696.5,-45.57 590.49,-30.43 520.78,-20.47"/>
<polygon fill="#63b8ff" stroke="#63b8ff" points="521.16,-16.99 510.77,-19.04 520.17,-23.92 521.16,-16.99"/>
</a>
</g>
</g>
<!-- Node7 -->
<g id="Node000007" class="node">
<title>Node7</title>
<g id="a_Node000007"><a xlink:title=" ">
<polygon fill="#e0e0e0" stroke="#999999" points="627,-19 541,-19 541,0 627,0 627,-19"/>
<text text-anchor="middle" x="584" y="-7" font-family="Helvetica,sans-Serif" font-size="10.00">QtCore/QHash</text>
</a>
</g>
</g>
<!-- Node6&#45;&gt;Node7 -->
<g id="edge6_Node000006_Node000007" class="edge">
<title>Node6&#45;&gt;Node7</title>
<g id="a_edge6_Node000006_Node000007"><a xlink:title=" ">
<path fill="none" stroke="#63b8ff" d="M783.76,-54.98C742.59,-45.82 677.01,-31.21 632.3,-21.26"/>
<polygon fill="#63b8ff" stroke="#63b8ff" points="633.06,-17.84 622.54,-19.08 631.54,-24.67 633.06,-17.84"/>
</a>
</g>
</g>
<!-- Node8 -->
<g id="Node000008" class="node">
<title>Node8</title>
<g id="a_Node000008"><a xlink:title=" ">
<polygon fill="#e0e0e0" stroke="#999999" points="737,-19 645,-19 645,0 737,0 737,-19"/>
<text text-anchor="middle" x="691" y="-7" font-family="Helvetica,sans-Serif" font-size="10.00">QtCore/QObject</text>
</a>
</g>
</g>
<!-- Node6&#45;&gt;Node8 -->
<g id="edge8_Node000006_Node000008" class="edge">
<title>Node6&#45;&gt;Node8</title>
<g id="a_edge8_Node000006_Node000008"><a xlink:title=" ">
<path fill="none" stroke="#63b8ff" d="M800.95,-54.98C779.59,-46.34 746.3,-32.87 721.94,-23.02"/>
<polygon fill="#63b8ff" stroke="#63b8ff" points="723.01,-19.68 712.43,-19.17 720.39,-26.17 723.01,-19.68"/>
</a>
</g>
</g>
<!-- Node9 -->
<g id="Node000009" class="node">
<title>Node9</title>
<g id="a_Node000009"><a xlink:title=" ">
<polygon fill="#e0e0e0" stroke="#999999" points="889,-19 755,-19 755,0 889,0 889,-19"/>
<text text-anchor="middle" x="822" y="-7" font-family="Helvetica,sans-Serif" font-size="10.00">QtCore/QReadWriteLock</text>
</a>
</g>
</g>
<!-- Node6&#45;&gt;Node9 -->
<g id="edge9_Node000006_Node000009" class="edge">
<title>Node6&#45;&gt;Node9</title>
<g id="a_edge9_Node000006_Node000009"><a xlink:title=" ">
<path fill="none" stroke="#63b8ff" d="M822,-54.75C822,-47.8 822,-37.85 822,-29.13"/>
<polygon fill="#63b8ff" stroke="#63b8ff" points="825.5,-29.09 822,-19.09 818.5,-29.09 825.5,-29.09"/>
</a>
</g>
</g>
<!-- Node10 -->
<g id="Node000010" class="node">
<title>Node10</title>
<g id="a_Node000010"><a xlink:title=" ">
<polygon fill="#e0e0e0" stroke="#999999" points="984.5,-19 907.5,-19 907.5,0 984.5,0 984.5,-19"/>
<text text-anchor="middle" x="946" y="-7" font-family="Helvetica,sans-Serif" font-size="10.00">QtCore/QSet</text>
</a>
</g>
</g>
<!-- Node6&#45;&gt;Node10 -->
<g id="edge10_Node000006_Node000010" class="edge">
<title>Node6&#45;&gt;Node10</title>
<g id="a_edge10_Node000006_Node000010"><a xlink:title=" ">
<path fill="none" stroke="#63b8ff" d="M841.92,-54.98C862.05,-46.38 893.38,-32.99 916.41,-23.15"/>
<polygon fill="#63b8ff" stroke="#63b8ff" points="917.9,-26.32 925.71,-19.17 915.14,-19.88 917.9,-26.32"/>
</a>
</g>
</g>
<!-- Node11 -->
<g id="Node000011" class="node">
<title>Node11</title>
<g id="a_Node000011"><a xlink:title=" ">
<polygon fill="#e0e0e0" stroke="#999999" points="1091.5,-19 1002.5,-19 1002.5,0 1091.5,0 1091.5,-19"/>
<text text-anchor="middle" x="1047" y="-7" font-family="Helvetica,sans-Serif" font-size="10.00">QtCore/QString</text>
</a>
</g>
</g>
<!-- Node6&#45;&gt;Node11 -->
<g id="edge11_Node000006_Node000011" class="edge">
<title>Node6&#45;&gt;Node11</title>
<g id="a_edge11_Node000006_Node000011"><a xlink:title=" ">
<path fill="none" stroke="#63b8ff" d="M858.15,-54.98C896.91,-45.86 958.55,-31.33 1000.8,-21.38"/>
<polygon fill="#63b8ff" stroke="#63b8ff" points="1001.64,-24.78 1010.57,-19.08 1000.03,-17.97 1001.64,-24.78"/>
</a>
</g>
</g>
<!-- Node12 -->
<g id="Node000012" class="node">
<title>Node12</title>
<g id="a_Node000012"><a xlink:title=" ">
<polygon fill="#e0e0e0" stroke="#999999" points="1272.5,-19 1109.5,-19 1109.5,0 1272.5,0 1272.5,-19"/>
<text text-anchor="middle" x="1191" y="-7" font-family="Helvetica,sans-Serif" font-size="10.00">QtCore/QSortFilterProxyModel</text>
</a>
</g>
</g>
<!-- Node6&#45;&gt;Node12 -->
<g id="edge12_Node000006_Node000012" class="edge">
<title>Node6&#45;&gt;Node12</title>
<g id="a_edge12_Node000006_Node000012"><a xlink:title=" ">
<path fill="none" stroke="#63b8ff" d="M881.29,-54.98C946.82,-45.57 1052.26,-30.43 1121.6,-20.47"/>
<polygon fill="#63b8ff" stroke="#63b8ff" points="1122.15,-23.92 1131.56,-19.04 1121.16,-17 1122.15,-23.92"/>
</a>
</g>
</g>
<!-- Node13 -->
<g id="Node000013" class="node">
<title>Node13</title>
<g id="a_Node000013"><a xlink:title=" ">
<polygon fill="#e0e0e0" stroke="#999999" points="1375.5,-19 1290.5,-19 1290.5,0 1375.5,0 1375.5,-19"/>
<text text-anchor="middle" x="1333" y="-7" font-family="Helvetica,sans-Serif" font-size="10.00">QtQml/qqml.h</text>
</a>
</g>
</g>
<!-- Node6&#45;&gt;Node13 -->
<g id="edge13_Node000006_Node000013" class="edge">
<title>Node6&#45;&gt;Node13</title>
<g id="a_edge13_Node000006_Node000013"><a xlink:title=" ">
<path fill="none" stroke="#63b8ff" d="M886.08,-55.95C889.1,-55.62 892.08,-55.31 895,-55 1063.53,-37.35 1108.97,-41.06 1280.33,-19.13"/>
<polygon fill="#63b8ff" stroke="#63b8ff" points="1280.99,-22.58 1290.46,-17.83 1280.09,-15.64 1280.99,-22.58"/>
</a>
</g>
</g>
</g>
</svg>
