<?xml version="1.0" encoding="UTF-8" standalone="no"?>
<!DOCTYPE svg PUBLIC "-//W3C//DTD SVG 1.1//EN"
 "http://www.w3.org/Graphics/SVG/1.1/DTD/svg11.dtd">
<!-- Generated by graphviz version 2.43.0 (0)
 -->
<!-- Title: src/AnalyzeView/OnboardLogs/OnboardLogEntry.cc Pages: 1 -->
<!--zoomable 258 -->

<svg id="main" version="1.1" xmlns="http://www.w3.org/2000/svg" xmlns:xlink="http://www.w3.org/1999/xlink" xml:space="preserve" onload="init(evt)">
<style type="text/css"><![CDATA[
.node, .edge {opacity: 0.7;}
.node.selected, .edge.selected {opacity: 1;}
.edge:hover path { stroke: red; }
.edge:hover polygon { stroke: red; fill: red; }
]]></style>

<defs>
  <circle id="rim" cx="0" cy="0" r="7"/>
  <circle id="rim2" cx="0" cy="0" r="3.5"/>
  <g id="zoomPlus">
    <use xlink:href="#rim" fill="#404040"><set attributeName="fill" to="#808080" begin="zoomplus.mouseover" end="zoomplus.mouseout"/></use>
    <path d="M-4,0h8M0,-4v8" fill="none" stroke="white" stroke-width="1.5" pointer-events="none"/>
  </g>
  <g id="zoomMin">
    <use xlink:href="#rim" fill="#404040"><set attributeName="fill" to="#808080" begin="zoomminus.mouseover" end="zoomminus.mouseout"/></use>
    <path d="M-4,0h8" fill="none" stroke="white" stroke-width="1.5" pointer-events="none"/>
  </g>
  <g id="arrowUp" transform="translate(30 24)">
    <use xlink:href="#rim"/>
    <path pointer-events="none" fill="none" stroke="white" stroke-width="1.5" d="M0,-3.0v7 M-2.5,-0.5L0,-3.0L2.5,-0.5"/>
  </g>
  <g id="arrowRight" transform="rotate(90) translate(36 -43)">
    <use xlink:href="#rim"/>
    <path pointer-events="none" fill="none" stroke="white" stroke-width="1.5" d="M0,-3.0v7 M-2.5,-0.5L0,-3.0L2.5,-0.5"/>
  </g>
  <g id="arrowDown" transform="rotate(180) translate(-30 -48)">
    <use xlink:href="#rim"/>
    <path pointer-events="none" fill="none" stroke="white" stroke-width="1.5" d="M0,-3.0v7 M-2.5,-0.5L0,-3.0L2.5,-0.5"/>
  </g>
  <g id="arrowLeft" transform="rotate(270) translate(-36 17)">
    <use xlink:href="#rim"/>
    <path pointer-events="none" fill="none" stroke="white" stroke-width="1.5" d="M0,-3.0v7 M-2.5,-0.5L0,-3.0L2.5,-0.5"/>
  </g>
  <g id="resetDef">
    <use xlink:href="#rim2" fill="#404040"><set attributeName="fill" to="#808080" begin="reset.mouseover" end="reset.mouseout"/></use>
  </g>
</defs>
<script type="application/ecmascript">
var viewWidth = 2336;
var viewHeight = 258;
var sectionId = 'dynsection-0';
</script>
<script type="application/ecmascript" xlink:href="svg.min.js"/>
<svg id="graph" class="graph">
<g id="viewport">
<title>src/AnalyzeView/OnboardLogs/OnboardLogEntry.cc</title>
<!-- Node1 -->
<g id="Node000001" class="node">
<title>Node1</title>
<g id="a_Node000001"><a xlink:title=" ">
<polygon fill="#999999" stroke="#666666" points="1579.5,-250 1415.5,-250 1415.5,-220 1579.5,-220 1579.5,-250"/>
<text text-anchor="start" x="1423.5" y="-238" font-family="Helvetica,sans-Serif" font-size="10.00">src/AnalyzeView/OnboardLogs</text>
<text text-anchor="middle" x="1497.5" y="-227" font-family="Helvetica,sans-Serif" font-size="10.00">/OnboardLogEntry.cc</text>
</a>
</g>
</g>
<!-- Node2 -->
<g id="Node000002" class="node">
<title>Node2</title>
<g id="a_Node000002"><a xlink:href="OnboardLogEntry_8h.html" target="_top" xlink:title=" ">
<polygon fill="white" stroke="#666666" points="797.5,-184 689.5,-184 689.5,-165 797.5,-165 797.5,-184"/>
<text text-anchor="middle" x="743.5" y="-172" font-family="Helvetica,sans-Serif" font-size="10.00">OnboardLogEntry.h</text>
</a>
</g>
</g>
<!-- Node1&#45;&gt;Node2 -->
<g id="edge1_Node000001_Node000002" class="edge">
<title>Node1&#45;&gt;Node2</title>
<g id="a_edge1_Node000001_Node000002"><a xlink:title=" ">
<path fill="none" stroke="#63b8ff" d="M1415.37,-227.63C1264.16,-215.9 944.68,-191.11 807.88,-180.49"/>
<polygon fill="#63b8ff" stroke="#63b8ff" points="807.8,-176.98 797.56,-179.69 807.26,-183.96 807.8,-176.98"/>
</a>
</g>
</g>
<!-- Node16 -->
<g id="Node000016" class="node">
<title>Node16</title>
<g id="a_Node000016"><a xlink:href="QGCApplication_8h.html" target="_top" xlink:title=" ">
<polygon fill="white" stroke="#666666" points="1854.5,-184 1752.5,-184 1752.5,-165 1854.5,-165 1854.5,-184"/>
<text text-anchor="middle" x="1803.5" y="-172" font-family="Helvetica,sans-Serif" font-size="10.00">QGCApplication.h</text>
</a>
</g>
</g>
<!-- Node1&#45;&gt;Node16 -->
<g id="edge15_Node000001_Node000016" class="edge">
<title>Node1&#45;&gt;Node16</title>
<g id="a_edge15_Node000001_Node000016"><a xlink:title=" ">
<path fill="none" stroke="#63b8ff" d="M1570.79,-219.99C1625.55,-209.52 1699.19,-195.44 1748.85,-185.95"/>
<polygon fill="#63b8ff" stroke="#63b8ff" points="1749.59,-189.37 1758.76,-184.05 1748.28,-182.49 1749.59,-189.37"/>
</a>
</g>
</g>
<!-- Node22 -->
<g id="Node000022" class="node">
<title>Node22</title>
<g id="a_Node000022"><a xlink:href="QGCLoggingCategory_8h.html" target="_top" xlink:title=" ">
<polygon fill="white" stroke="#666666" points="1255.5,-184 1127.5,-184 1127.5,-165 1255.5,-165 1255.5,-184"/>
<text text-anchor="middle" x="1191.5" y="-172" font-family="Helvetica,sans-Serif" font-size="10.00">QGCLoggingCategory.h</text>
</a>
</g>
</g>
<!-- Node1&#45;&gt;Node22 -->
<g id="edge23_Node000001_Node000022" class="edge">
<title>Node1&#45;&gt;Node22</title>
<g id="a_edge23_Node000001_Node000022"><a xlink:title=" ">
<path fill="none" stroke="#63b8ff" d="M1424.21,-219.99C1369.45,-209.52 1295.81,-195.44 1246.15,-185.95"/>
<polygon fill="#63b8ff" stroke="#63b8ff" points="1246.72,-182.49 1236.24,-184.05 1245.41,-189.37 1246.72,-182.49"/>
</a>
</g>
</g>
<!-- Node27 -->
<g id="Node000027" class="node">
<title>Node27</title>
<g id="a_Node000027"><a xlink:title=" ">
<polygon fill="#e0e0e0" stroke="#999999" points="1962,-184 1873,-184 1873,-165 1962,-165 1962,-184"/>
<text text-anchor="middle" x="1917.5" y="-172" font-family="Helvetica,sans-Serif" font-size="10.00">QtCore/QtMath</text>
</a>
</g>
</g>
<!-- Node1&#45;&gt;Node27 -->
<g id="edge32_Node000001_Node000027" class="edge">
<title>Node1&#45;&gt;Node27</title>
<g id="a_edge32_Node000001_Node000027"><a xlink:title=" ">
<path fill="none" stroke="#63b8ff" d="M1579.7,-223.26C1651.6,-213.75 1759.13,-199.26 1862.71,-184.09"/>
<polygon fill="#63b8ff" stroke="#63b8ff" points="1863.34,-187.54 1872.72,-182.62 1862.32,-180.61 1863.34,-187.54"/>
</a>
</g>
</g>
<!-- Node3 -->
<g id="Node000003" class="node">
<title>Node3</title>
<g id="a_Node000003"><a xlink:title=" ">
<polygon fill="#e0e0e0" stroke="#999999" points="347,-129 246,-129 246,-110 347,-110 347,-129"/>
<text text-anchor="middle" x="296.5" y="-117" font-family="Helvetica,sans-Serif" font-size="10.00">QtCore/QBitArray</text>
</a>
</g>
</g>
<!-- Node2&#45;&gt;Node3 -->
<g id="edge2_Node000002_Node000003" class="edge">
<title>Node2&#45;&gt;Node3</title>
<g id="a_edge2_Node000002_Node000003"><a xlink:title=" ">
<path fill="none" stroke="#63b8ff" d="M689.29,-167.72C616.36,-159.84 482.37,-145.02 357.36,-129.08"/>
<polygon fill="#63b8ff" stroke="#63b8ff" points="357.59,-125.58 347.23,-127.78 356.7,-132.52 357.59,-125.58"/>
</a>
</g>
</g>
<!-- Node4 -->
<g id="Node000004" class="node">
<title>Node4</title>
<g id="a_Node000004"><a xlink:title=" ">
<polygon fill="#e0e0e0" stroke="#999999" points="474,-129 365,-129 365,-110 474,-110 474,-129"/>
<text text-anchor="middle" x="419.5" y="-117" font-family="Helvetica,sans-Serif" font-size="10.00">QtCore/QDateTime</text>
</a>
</g>
</g>
<!-- Node2&#45;&gt;Node4 -->
<g id="edge3_Node000002_Node000004" class="edge">
<title>Node2&#45;&gt;Node4</title>
<g id="a_edge3_Node000002_Node000004"><a xlink:title=" ">
<path fill="none" stroke="#63b8ff" d="M691.44,-164.98C634.26,-155.63 542.46,-140.61 481.57,-130.65"/>
<polygon fill="#63b8ff" stroke="#63b8ff" points="482.13,-127.2 471.7,-129.04 481,-134.11 482.13,-127.2"/>
</a>
</g>
</g>
<!-- Node5 -->
<g id="Node000005" class="node">
<title>Node5</title>
<g id="a_Node000005"><a xlink:title=" ">
<polygon fill="#e0e0e0" stroke="#999999" points="1404.5,-129 1276.5,-129 1276.5,-110 1404.5,-110 1404.5,-129"/>
<text text-anchor="middle" x="1340.5" y="-117" font-family="Helvetica,sans-Serif" font-size="10.00">QtCore/QElapsedTimer</text>
</a>
</g>
</g>
<!-- Node2&#45;&gt;Node5 -->
<g id="edge4_Node000002_Node000005" class="edge">
<title>Node2&#45;&gt;Node5</title>
<g id="a_edge4_Node000002_Node000005"><a xlink:title=" ">
<path fill="none" stroke="#63b8ff" d="M797.86,-169.45C891.33,-162.35 1088.76,-146.83 1266.37,-129.08"/>
<polygon fill="#63b8ff" stroke="#63b8ff" points="1266.82,-132.56 1276.42,-128.08 1266.12,-125.59 1266.82,-132.56"/>
</a>
</g>
</g>
<!-- Node6 -->
<g id="Node000006" class="node">
<title>Node6</title>
<g id="a_Node000006"><a xlink:title=" ">
<polygon fill="#e0e0e0" stroke="#999999" points="1566,-129 1423,-129 1423,-110 1566,-110 1566,-129"/>
<text text-anchor="middle" x="1494.5" y="-117" font-family="Helvetica,sans-Serif" font-size="10.00">QtCore/QLoggingCategory</text>
</a>
</g>
</g>
<!-- Node2&#45;&gt;Node6 -->
<g id="edge5_Node000002_Node000006" class="edge">
<title>Node2&#45;&gt;Node6</title>
<g id="a_edge5_Node000002_Node000006"><a xlink:title=" ">
<path fill="none" stroke="#63b8ff" d="M797.83,-170.6C910.35,-164.43 1177.27,-149.02 1412.83,-129.02"/>
<polygon fill="#63b8ff" stroke="#63b8ff" points="1413.29,-132.49 1422.96,-128.16 1412.7,-125.52 1413.29,-132.49"/>
</a>
</g>
</g>
<!-- Node7 -->
<g id="Node000007" class="node">
<title>Node7</title>
<g id="a_Node000007"><a xlink:title=" ">
<polygon fill="#e0e0e0" stroke="#999999" points="898.5,-129 806.5,-129 806.5,-110 898.5,-110 898.5,-129"/>
<text text-anchor="middle" x="852.5" y="-117" font-family="Helvetica,sans-Serif" font-size="10.00">QtCore/QObject</text>
</a>
</g>
</g>
<!-- Node2&#45;&gt;Node7 -->
<g id="edge6_Node000002_Node000007" class="edge">
<title>Node2&#45;&gt;Node7</title>
<g id="a_edge6_Node000002_Node000007"><a xlink:title=" ">
<path fill="none" stroke="#63b8ff" d="M761.01,-164.98C778.47,-156.5 805.51,-143.35 825.67,-133.54"/>
<polygon fill="#63b8ff" stroke="#63b8ff" points="827.21,-136.69 834.67,-129.17 824.14,-130.4 827.21,-136.69"/>
</a>
</g>
</g>
<!-- Node8 -->
<g id="Node000008" class="node">
<title>Node8</title>
<g id="a_Node000008"><a xlink:title=" ">
<polygon fill="#e0e0e0" stroke="#999999" points="788,-129 699,-129 699,-110 788,-110 788,-129"/>
<text text-anchor="middle" x="743.5" y="-117" font-family="Helvetica,sans-Serif" font-size="10.00">QtCore/QString</text>
</a>
</g>
</g>
<!-- Node2&#45;&gt;Node8 -->
<g id="edge7_Node000002_Node000008" class="edge">
<title>Node2&#45;&gt;Node8</title>
<g id="a_edge7_Node000002_Node000008"><a xlink:title=" ">
<path fill="none" stroke="#63b8ff" d="M743.5,-164.75C743.5,-157.8 743.5,-147.85 743.5,-139.13"/>
<polygon fill="#63b8ff" stroke="#63b8ff" points="747,-139.09 743.5,-129.09 740,-139.09 747,-139.09"/>
</a>
</g>
</g>
<!-- Node9 -->
<g id="Node000009" class="node">
<title>Node9</title>
<g id="a_Node000009"><a xlink:title=" ">
<polygon fill="#e0e0e0" stroke="#999999" points="681,-129 492,-129 492,-110 681,-110 681,-129"/>
<text text-anchor="middle" x="586.5" y="-117" font-family="Helvetica,sans-Serif" font-size="10.00">QtQmlIntegration/QtQmlIntegration</text>
</a>
</g>
</g>
<!-- Node2&#45;&gt;Node9 -->
<g id="edge8_Node000002_Node000009" class="edge">
<title>Node2&#45;&gt;Node9</title>
<g id="a_edge8_Node000002_Node000009"><a xlink:title=" ">
<path fill="none" stroke="#63b8ff" d="M718.28,-164.98C692.14,-156.16 651.1,-142.31 621.77,-132.41"/>
<polygon fill="#63b8ff" stroke="#63b8ff" points="622.52,-128.96 611.92,-129.08 620.28,-135.6 622.52,-128.96"/>
</a>
</g>
</g>
<!-- Node10 -->
<g id="Node000010" class="node">
<title>Node10</title>
<g id="a_Node000010"><a xlink:href="MAVLinkLib_8h.html" target="_top" xlink:title=" ">
<polygon fill="white" stroke="#666666" points="227.5,-129 145.5,-129 145.5,-110 227.5,-110 227.5,-129"/>
<text text-anchor="middle" x="186.5" y="-117" font-family="Helvetica,sans-Serif" font-size="10.00">MAVLinkLib.h</text>
</a>
</g>
</g>
<!-- Node2&#45;&gt;Node10 -->
<g id="edge9_Node000002_Node000010" class="edge">
<title>Node2&#45;&gt;Node10</title>
<g id="a_edge9_Node000002_Node000010"><a xlink:title=" ">
<path fill="none" stroke="#63b8ff" d="M689.43,-170.13C598.49,-164.15 408.93,-150.39 237.61,-128.9"/>
<polygon fill="#63b8ff" stroke="#63b8ff" points="238.02,-125.42 227.66,-127.64 237.14,-132.37 238.02,-125.42"/>
</a>
</g>
</g>
<!-- Node11 -->
<g id="Node000011" class="node">
<title>Node11</title>
<g id="a_Node000011"><a xlink:href="MAVLinkMessageType_8h.html" target="_top" xlink:title=" ">
<polygon fill="white" stroke="#666666" points="140.5,-74 6.5,-74 6.5,-55 140.5,-55 140.5,-74"/>
<text text-anchor="middle" x="73.5" y="-62" font-family="Helvetica,sans-Serif" font-size="10.00">MAVLinkMessageType.h</text>
</a>
</g>
</g>
<!-- Node10&#45;&gt;Node11 -->
<g id="edge10_Node000010_Node000011" class="edge">
<title>Node10&#45;&gt;Node11</title>
<g id="a_edge10_Node000010_Node000011"><a xlink:title=" ">
<path fill="none" stroke="#63b8ff" d="M168.34,-109.98C150.25,-101.5 122.22,-88.35 101.31,-78.54"/>
<polygon fill="#63b8ff" stroke="#63b8ff" points="102.53,-75.25 91.99,-74.17 99.55,-81.59 102.53,-75.25"/>
</a>
</g>
</g>
<!-- Node14 -->
<g id="Node000014" class="node">
<title>Node14</title>
<g id="a_Node000014"><a xlink:title=" ">
<polygon fill="#e0e0e0" stroke="#999999" points="214.5,-74 158.5,-74 158.5,-55 214.5,-55 214.5,-74"/>
<text text-anchor="middle" x="186.5" y="-62" font-family="Helvetica,sans-Serif" font-size="10.00">stddef.h</text>
</a>
</g>
</g>
<!-- Node10&#45;&gt;Node14 -->
<g id="edge13_Node000010_Node000014" class="edge">
<title>Node10&#45;&gt;Node14</title>
<g id="a_edge13_Node000010_Node000014"><a xlink:title=" ">
<path fill="none" stroke="#63b8ff" d="M186.5,-109.75C186.5,-102.8 186.5,-92.85 186.5,-84.13"/>
<polygon fill="#63b8ff" stroke="#63b8ff" points="190,-84.09 186.5,-74.09 183,-84.09 190,-84.09"/>
</a>
</g>
</g>
<!-- Node15 -->
<g id="Node000015" class="node">
<title>Node15</title>
<g id="a_Node000015"><a xlink:title=" ">
<polygon fill="#e0e0e0" stroke="#999999" points="298,-74 233,-74 233,-55 298,-55 298,-74"/>
<text text-anchor="middle" x="265.5" y="-62" font-family="Helvetica,sans-Serif" font-size="10.00">mavlink.h</text>
</a>
</g>
</g>
<!-- Node10&#45;&gt;Node15 -->
<g id="edge14_Node000010_Node000015" class="edge">
<title>Node10&#45;&gt;Node15</title>
<g id="a_edge14_Node000010_Node000015"><a xlink:title=" ">
<path fill="none" stroke="#63b8ff" d="M199.19,-109.98C211.33,-101.84 229.86,-89.41 244.25,-79.76"/>
<polygon fill="#63b8ff" stroke="#63b8ff" points="246.22,-82.65 252.58,-74.17 242.32,-76.84 246.22,-82.65"/>
</a>
</g>
</g>
<!-- Node12 -->
<g id="Node000012" class="node">
<title>Node12</title>
<g id="a_Node000012"><a xlink:title=" ">
<polygon fill="#e0e0e0" stroke="#999999" points="53,-19 0,-19 0,0 53,0 53,-19"/>
<text text-anchor="middle" x="26.5" y="-7" font-family="Helvetica,sans-Serif" font-size="10.00">stdint.h</text>
</a>
</g>
</g>
<!-- Node11&#45;&gt;Node12 -->
<g id="edge11_Node000011_Node000012" class="edge">
<title>Node11&#45;&gt;Node12</title>
<g id="a_edge11_Node000011_Node000012"><a xlink:title=" ">
<path fill="none" stroke="#63b8ff" d="M65.74,-54.75C59.03,-47.18 49.16,-36.05 40.99,-26.84"/>
<polygon fill="#63b8ff" stroke="#63b8ff" points="43.37,-24.25 34.12,-19.09 38.13,-28.89 43.37,-24.25"/>
</a>
</g>
</g>
<!-- Node13 -->
<g id="Node000013" class="node">
<title>Node13</title>
<g id="a_Node000013"><a xlink:title=" ">
<polygon fill="#e0e0e0" stroke="#999999" points="169.5,-19 71.5,-19 71.5,0 169.5,0 169.5,-19"/>
<text text-anchor="middle" x="120.5" y="-7" font-family="Helvetica,sans-Serif" font-size="10.00">mavlink_types.h</text>
</a>
</g>
</g>
<!-- Node11&#45;&gt;Node13 -->
<g id="edge12_Node000011_Node000013" class="edge">
<title>Node11&#45;&gt;Node13</title>
<g id="a_edge12_Node000011_Node000013"><a xlink:title=" ">
<path fill="none" stroke="#63b8ff" d="M81.26,-54.75C87.97,-47.18 97.84,-36.05 106.01,-26.84"/>
<polygon fill="#63b8ff" stroke="#63b8ff" points="108.87,-28.89 112.88,-19.09 103.63,-24.25 108.87,-28.89"/>
</a>
</g>
</g>
<!-- Node16&#45;&gt;Node5 -->
<g id="edge17_Node000016_Node000005" class="edge">
<title>Node16&#45;&gt;Node5</title>
<g id="a_edge17_Node000016_Node000005"><a xlink:title=" ">
<path fill="none" stroke="#63b8ff" d="M1752.21,-167.64C1679.69,-159.35 1542.73,-143.7 1414.66,-129.02"/>
<polygon fill="#63b8ff" stroke="#63b8ff" points="1415.01,-125.53 1404.68,-127.87 1414.21,-132.49 1415.01,-125.53"/>
</a>
</g>
</g>
<!-- Node16&#45;&gt;Node6 -->
<g id="edge16_Node000016_Node000006" class="edge">
<title>Node16&#45;&gt;Node6</title>
<g id="a_edge16_Node000016_Node000006"><a xlink:title=" ">
<path fill="none" stroke="#63b8ff" d="M1753.85,-164.98C1699.54,-155.67 1612.48,-140.74 1554.41,-130.78"/>
<polygon fill="#63b8ff" stroke="#63b8ff" points="1554.73,-127.28 1544.28,-129.04 1553.54,-134.18 1554.73,-127.28"/>
</a>
</g>
</g>
<!-- Node17 -->
<g id="Node000017" class="node">
<title>Node17</title>
<g id="a_Node000017"><a xlink:title=" ">
<polygon fill="#e0e0e0" stroke="#999999" points="2093.5,-129 2011.5,-129 2011.5,-110 2093.5,-110 2093.5,-129"/>
<text text-anchor="middle" x="2052.5" y="-117" font-family="Helvetica,sans-Serif" font-size="10.00">QtCore/QMap</text>
</a>
</g>
</g>
<!-- Node16&#45;&gt;Node17 -->
<g id="edge18_Node000016_Node000017" class="edge">
<title>Node16&#45;&gt;Node17</title>
<g id="a_edge18_Node000016_Node000017"><a xlink:title=" ">
<path fill="none" stroke="#63b8ff" d="M1843.51,-164.98C1886.67,-155.8 1955.48,-141.15 2002.26,-131.19"/>
<polygon fill="#63b8ff" stroke="#63b8ff" points="2003.13,-134.59 2012.18,-129.08 2001.67,-127.74 2003.13,-134.59"/>
</a>
</g>
</g>
<!-- Node18 -->
<g id="Node000018" class="node">
<title>Node18</title>
<g id="a_Node000018"><a xlink:title=" ">
<polygon fill="#e0e0e0" stroke="#999999" points="1842,-129 1765,-129 1765,-110 1842,-110 1842,-129"/>
<text text-anchor="middle" x="1803.5" y="-117" font-family="Helvetica,sans-Serif" font-size="10.00">QtCore/QSet</text>
</a>
</g>
</g>
<!-- Node16&#45;&gt;Node18 -->
<g id="edge19_Node000016_Node000018" class="edge">
<title>Node16&#45;&gt;Node18</title>
<g id="a_edge19_Node000016_Node000018"><a xlink:title=" ">
<path fill="none" stroke="#63b8ff" d="M1803.5,-164.75C1803.5,-157.8 1803.5,-147.85 1803.5,-139.13"/>
<polygon fill="#63b8ff" stroke="#63b8ff" points="1807,-139.09 1803.5,-129.09 1800,-139.09 1807,-139.09"/>
</a>
</g>
</g>
<!-- Node19 -->
<g id="Node000019" class="node">
<title>Node19</title>
<g id="a_Node000019"><a xlink:title=" ">
<polygon fill="#e0e0e0" stroke="#999999" points="2201,-129 2112,-129 2112,-110 2201,-110 2201,-129"/>
<text text-anchor="middle" x="2156.5" y="-117" font-family="Helvetica,sans-Serif" font-size="10.00">QtCore/QTimer</text>
</a>
</g>
</g>
<!-- Node16&#45;&gt;Node19 -->
<g id="edge20_Node000016_Node000019" class="edge">
<title>Node16&#45;&gt;Node19</title>
<g id="a_edge20_Node000016_Node000019"><a xlink:title=" ">
<path fill="none" stroke="#63b8ff" d="M1854.57,-166.03C1912.02,-157.6 2008.4,-143.37 2101.55,-129.13"/>
<polygon fill="#63b8ff" stroke="#63b8ff" points="2102.36,-132.55 2111.72,-127.58 2101.3,-125.63 2102.36,-132.55"/>
</a>
</g>
</g>
<!-- Node20 -->
<g id="Node000020" class="node">
<title>Node20</title>
<g id="a_Node000020"><a xlink:title=" ">
<polygon fill="#e0e0e0" stroke="#999999" points="2328,-129 2219,-129 2219,-110 2328,-110 2328,-129"/>
<text text-anchor="middle" x="2273.5" y="-117" font-family="Helvetica,sans-Serif" font-size="10.00">QtCore/QTranslator</text>
</a>
</g>
</g>
<!-- Node16&#45;&gt;Node20 -->
<g id="edge21_Node000016_Node000020" class="edge">
<title>Node16&#45;&gt;Node20</title>
<g id="a_edge21_Node000016_Node000020"><a xlink:title=" ">
<path fill="none" stroke="#63b8ff" d="M1854.74,-166.23C1858.04,-165.8 1861.32,-165.39 1864.5,-165 2014.68,-146.73 2055.25,-147.3 2208.61,-129.19"/>
<polygon fill="#63b8ff" stroke="#63b8ff" points="2209.36,-132.63 2218.88,-127.97 2208.53,-125.68 2209.36,-132.63"/>
</a>
</g>
</g>
<!-- Node21 -->
<g id="Node000021" class="node">
<title>Node21</title>
<g id="a_Node000021"><a xlink:title=" ">
<polygon fill="#e0e0e0" stroke="#999999" points="1993,-129 1860,-129 1860,-110 1993,-110 1993,-129"/>
<text text-anchor="middle" x="1926.5" y="-117" font-family="Helvetica,sans-Serif" font-size="10.00">QtWidgets/QApplication</text>
</a>
</g>
</g>
<!-- Node16&#45;&gt;Node21 -->
<g id="edge22_Node000016_Node000021" class="edge">
<title>Node16&#45;&gt;Node21</title>
<g id="a_edge22_Node000016_Node000021"><a xlink:title=" ">
<path fill="none" stroke="#63b8ff" d="M1823.26,-164.98C1843.23,-156.38 1874.3,-142.99 1897.15,-133.15"/>
<polygon fill="#63b8ff" stroke="#63b8ff" points="1898.58,-136.34 1906.38,-129.17 1895.81,-129.91 1898.58,-136.34"/>
</a>
</g>
</g>
<!-- Node22&#45;&gt;Node6 -->
<g id="edge25_Node000022_Node000006" class="edge">
<title>Node22&#45;&gt;Node6</title>
<g id="a_edge25_Node000022_Node000006"><a xlink:title=" ">
<path fill="none" stroke="#63b8ff" d="M1240.18,-164.98C1293.44,-155.67 1378.81,-140.74 1435.75,-130.78"/>
<polygon fill="#63b8ff" stroke="#63b8ff" points="1436.44,-134.21 1445.69,-129.04 1435.23,-127.31 1436.44,-134.21"/>
</a>
</g>
</g>
<!-- Node22&#45;&gt;Node7 -->
<g id="edge26_Node000022_Node000007" class="edge">
<title>Node22&#45;&gt;Node7</title>
<g id="a_edge26_Node000022_Node000007"><a xlink:title=" ">
<path fill="none" stroke="#63b8ff" d="M1137.03,-164.98C1074.45,-155.2 972.25,-139.22 908.87,-129.31"/>
<polygon fill="#63b8ff" stroke="#63b8ff" points="909.08,-125.8 898.66,-127.72 908,-132.72 909.08,-125.8"/>
</a>
</g>
</g>
<!-- Node22&#45;&gt;Node8 -->
<g id="edge29_Node000022_Node000008" class="edge">
<title>Node22&#45;&gt;Node8</title>
<g id="a_edge29_Node000022_Node000008"><a xlink:title=" ">
<path fill="none" stroke="#63b8ff" d="M1127.24,-167.11C1051.22,-159.36 920.59,-145.43 798.19,-129.04"/>
<polygon fill="#63b8ff" stroke="#63b8ff" points="798.64,-125.57 788.27,-127.7 797.71,-132.5 798.64,-125.57"/>
</a>
</g>
</g>
<!-- Node22&#45;&gt;Node18 -->
<g id="edge28_Node000022_Node000018" class="edge">
<title>Node22&#45;&gt;Node18</title>
<g id="a_edge28_Node000022_Node000018"><a xlink:title=" ">
<path fill="none" stroke="#63b8ff" d="M1255.69,-170.54C1358.88,-165.33 1568.21,-152.85 1754.82,-129.1"/>
<polygon fill="#63b8ff" stroke="#63b8ff" points="1755.35,-132.56 1764.82,-127.81 1754.45,-125.62 1755.35,-132.56"/>
</a>
</g>
</g>
<!-- Node23 -->
<g id="Node000023" class="node">
<title>Node23</title>
<g id="a_Node000023"><a xlink:title=" ">
<polygon fill="#e0e0e0" stroke="#999999" points="1106.5,-129 1020.5,-129 1020.5,-110 1106.5,-110 1106.5,-129"/>
<text text-anchor="middle" x="1063.5" y="-117" font-family="Helvetica,sans-Serif" font-size="10.00">QtCore/QHash</text>
</a>
</g>
</g>
<!-- Node22&#45;&gt;Node23 -->
<g id="edge24_Node000022_Node000023" class="edge">
<title>Node22&#45;&gt;Node23</title>
<g id="a_edge24_Node000022_Node000023"><a xlink:title=" ">
<path fill="none" stroke="#63b8ff" d="M1170.93,-164.98C1150.07,-156.34 1117.53,-142.87 1093.73,-133.02"/>
<polygon fill="#63b8ff" stroke="#63b8ff" points="1095.02,-129.76 1084.44,-129.17 1092.34,-136.23 1095.02,-129.76"/>
</a>
</g>
</g>
<!-- Node24 -->
<g id="Node000024" class="node">
<title>Node24</title>
<g id="a_Node000024"><a xlink:title=" ">
<polygon fill="#e0e0e0" stroke="#999999" points="1258.5,-129 1124.5,-129 1124.5,-110 1258.5,-110 1258.5,-129"/>
<text text-anchor="middle" x="1191.5" y="-117" font-family="Helvetica,sans-Serif" font-size="10.00">QtCore/QReadWriteLock</text>
</a>
</g>
</g>
<!-- Node22&#45;&gt;Node24 -->
<g id="edge27_Node000022_Node000024" class="edge">
<title>Node22&#45;&gt;Node24</title>
<g id="a_edge27_Node000022_Node000024"><a xlink:title=" ">
<path fill="none" stroke="#63b8ff" d="M1191.5,-164.75C1191.5,-157.8 1191.5,-147.85 1191.5,-139.13"/>
<polygon fill="#63b8ff" stroke="#63b8ff" points="1195,-139.09 1191.5,-129.09 1188,-139.09 1195,-139.09"/>
</a>
</g>
</g>
<!-- Node25 -->
<g id="Node000025" class="node">
<title>Node25</title>
<g id="a_Node000025"><a xlink:title=" ">
<polygon fill="#e0e0e0" stroke="#999999" points="1747,-129 1584,-129 1584,-110 1747,-110 1747,-129"/>
<text text-anchor="middle" x="1665.5" y="-117" font-family="Helvetica,sans-Serif" font-size="10.00">QtCore/QSortFilterProxyModel</text>
</a>
</g>
</g>
<!-- Node22&#45;&gt;Node25 -->
<g id="edge30_Node000022_Node000025" class="edge">
<title>Node22&#45;&gt;Node25</title>
<g id="a_edge30_Node000022_Node000025"><a xlink:title=" ">
<path fill="none" stroke="#63b8ff" d="M1255.92,-166.3C1339.69,-156.93 1486.29,-140.54 1579.49,-130.12"/>
<polygon fill="#63b8ff" stroke="#63b8ff" points="1579.91,-133.59 1589.46,-129 1579.14,-126.63 1579.91,-133.59"/>
</a>
</g>
</g>
<!-- Node26 -->
<g id="Node000026" class="node">
<title>Node26</title>
<g id="a_Node000026"><a xlink:title=" ">
<polygon fill="#e0e0e0" stroke="#999999" points="1002,-129 917,-129 917,-110 1002,-110 1002,-129"/>
<text text-anchor="middle" x="959.5" y="-117" font-family="Helvetica,sans-Serif" font-size="10.00">QtQml/qqml.h</text>
</a>
</g>
</g>
<!-- Node22&#45;&gt;Node26 -->
<g id="edge31_Node000022_Node000026" class="edge">
<title>Node22&#45;&gt;Node26</title>
<g id="a_edge31_Node000022_Node000026"><a xlink:title=" ">
<path fill="none" stroke="#63b8ff" d="M1154.23,-164.98C1114.18,-155.84 1050.43,-141.27 1006.86,-131.32"/>
<polygon fill="#63b8ff" stroke="#63b8ff" points="1007.6,-127.9 997.07,-129.08 1006.04,-134.72 1007.6,-127.9"/>
</a>
</g>
</g>
</g>
</svg>

<g id="navigator" transform="translate(0 0)" fill="#404254">
  <rect fill="#f2f5e9" fill-opacity="0.5" stroke="#606060" stroke-width=".5" x="0" y="0" width="60" height="60"/>
  <use id="zoomplus" xlink:href="#zoomPlus" x="17" y="9" onmousedown="handleZoom(evt,'in')"/>
  <use id="zoomminus" xlink:href="#zoomMin" x="42" y="9" onmousedown="handleZoom(evt,'out')"/>
  <use id="reset" xlink:href="#resetDef" x="30" y="36" onmousedown="handleReset()"/>
   <use id="arrowup" xlink:href="#arrowUp" x="0" y="0" onmousedown="handlePan(0,-1)"/>
  <use id="arrowright" xlink:href="#arrowRight" x="0" y="0" onmousedown="handlePan(1,0)"/>
  <use id="arrowdown" xlink:href="#arrowDown" x="0" y="0" onmousedown="handlePan(0,1)"/>
  <use id="arrowleft" xlink:href="#arrowLeft" x="0" y="0" onmousedown="handlePan(-1,0)"/>
</g>
<svg viewBox="0 0 15 15" width="100%" height="30px" preserveAspectRatio="xMaxYMin meet">
 <g id="arrow_out" transform="scale(0.3 0.3)">
  <a xlink:href="OnboardLogEntry_8cc__incl_org.svg" target="_base">
   <rect id="button" ry="5" rx="5" y="6" x="6" height="38" width="38"
        fill="#f2f5e9" fill-opacity="0.5" stroke="#606060" stroke-width="1.0"/>
   <path id="arrow"
     d="M 11.500037,31.436501 C 11.940474,20.09759 22.043105,11.32322 32.158766,21.979434 L 37.068811,17.246167 C 37.068811,17.246167 37.088388,32 37.088388,32 L 22.160133,31.978069 C 22.160133,31.978069 26.997745,27.140456 26.997745,27.140456 C 18.528582,18.264221 13.291696,25.230495 11.500037,31.436501 z"
     style="fill:#404040;"/>
  </a>
 </g>
</svg>

<style type='text/css'>
<![CDATA[
[data-mouse-over-selected='false'] { opacity: 0.7; }
[data-mouse-over-selected='true']  { opacity: 1.0; }
]]>
</style>
<script type="application/ecmascript"><![CDATA[
document.addEventListener('DOMContentLoaded', (event) => {
  highlightEdges();
  highlightAdjacentNodes();
});
]]></script>
</svg>
