<?xml version="1.0" encoding="UTF-8" standalone="no"?>
<!DOCTYPE svg PUBLIC "-//W3C//DTD SVG 1.1//EN"
 "http://www.w3.org/Graphics/SVG/1.1/DTD/svg11.dtd">
<!-- Generated by graphviz version 2.43.0 (0)
 -->
<!-- Title: src/FactSystem/ParameterManager.h Pages: 1 -->
<svg width="7351pt" height="115pt"
 viewBox="0.00 0.00 7350.50 115.00" xmlns="http://www.w3.org/2000/svg" xmlns:xlink="http://www.w3.org/1999/xlink">
<g id="graph0" class="graph" transform="scale(1 1) rotate(0) translate(4 111)">
<title>src/FactSystem/ParameterManager.h</title>
<!-- Node1 -->
<g id="Node000001" class="node">
<title>Node1</title>
<g id="a_Node000001"><a xlink:title=" ">
<polygon fill="#999999" stroke="#666666" points="4074.5,-107 3931.5,-107 3931.5,-77 4074.5,-77 4074.5,-107"/>
<text text-anchor="start" x="3939.5" y="-95" font-family="Helvetica,sans-Serif" font-size="10.00">src/FactSystem/Parameter</text>
<text text-anchor="middle" x="4003" y="-84" font-family="Helvetica,sans-Serif" font-size="10.00">Manager.h</text>
</a>
</g>
</g>
<!-- Node2 -->
<g id="Node000002" class="node">
<title>Node2</title>
<g id="a_Node000002"><a xlink:href="LogDownloadController_8cc.html" target="_top" xlink:title=" ">
<polygon fill="white" stroke="#666666" points="166,-35.5 0,-35.5 0,-5.5 166,-5.5 166,-35.5"/>
<text text-anchor="start" x="8" y="-23.5" font-family="Helvetica,sans-Serif" font-size="10.00">src/AnalyzeView/LogDownload</text>
<text text-anchor="middle" x="83" y="-12.5" font-family="Helvetica,sans-Serif" font-size="10.00">Controller.cc</text>
</a>
</g>
</g>
<!-- Node1&#45;&gt;Node2 -->
<g id="edge1_Node000001_Node000002" class="edge">
<title>Node1&#45;&gt;Node2</title>
<g id="a_edge1_Node000001_Node000002"><a xlink:title=" ">
<path fill="none" stroke="#63b8ff" d="M3921.16,-90.89C3400.39,-90.09 558.77,-83.76 175,-41 163.8,-39.75 151.96,-37.76 140.63,-35.52"/>
<polygon fill="#63b8ff" stroke="#63b8ff" points="3921.21,-94.39 3931.21,-90.91 3921.22,-87.39 3921.21,-94.39"/>
</a>
</g>
</g>
<!-- Node3 -->
<g id="Node000003" class="node">
<title>Node3</title>
<g id="a_Node000003"><a xlink:href="APMAirframeComponent_8cc.html" target="_top" xlink:title=" ">
<polygon fill="white" stroke="#666666" points="363.5,-35.5 184.5,-35.5 184.5,-5.5 363.5,-5.5 363.5,-35.5"/>
<text text-anchor="start" x="192.5" y="-23.5" font-family="Helvetica,sans-Serif" font-size="10.00">src/AutoPilotPlugins</text>
<text text-anchor="middle" x="274" y="-12.5" font-family="Helvetica,sans-Serif" font-size="10.00">/APM/APMAirframeComponent.cc</text>
</a>
</g>
</g>
<!-- Node1&#45;&gt;Node3 -->
<g id="edge2_Node000001_Node000003" class="edge">
<title>Node1&#45;&gt;Node3</title>
<g id="a_edge2_Node000001_Node000003"><a xlink:title=" ">
<path fill="none" stroke="#63b8ff" d="M3921.02,-90.76C3415.91,-89.16 736.13,-78.95 373,-41 360.98,-39.74 348.24,-37.75 336.06,-35.5"/>
<polygon fill="#63b8ff" stroke="#63b8ff" points="3921.13,-94.26 3931.14,-90.79 3921.15,-87.26 3921.13,-94.26"/>
</a>
</g>
</g>
<!-- Node4 -->
<g id="Node000004" class="node">
<title>Node4</title>
<g id="a_Node000004"><a xlink:href="APMAirframeComponentController_8cc.html" target="_top" xlink:title=" ">
<polygon fill="white" stroke="#666666" points="608,-35.5 382,-35.5 382,-5.5 608,-5.5 608,-35.5"/>
<text text-anchor="start" x="390" y="-23.5" font-family="Helvetica,sans-Serif" font-size="10.00">src/AutoPilotPlugins</text>
<text text-anchor="middle" x="495" y="-12.5" font-family="Helvetica,sans-Serif" font-size="10.00">/APM/APMAirframeComponentController.cc</text>
</a>
</g>
</g>
<!-- Node1&#45;&gt;Node4 -->
<g id="edge3_Node000001_Node000004" class="edge">
<title>Node1&#45;&gt;Node4</title>
<g id="a_edge3_Node000001_Node000004"><a xlink:title=" ">
<path fill="none" stroke="#63b8ff" d="M3921.19,-90.5C3436.88,-87.43 955.03,-70.36 617,-41 602.36,-39.73 586.82,-37.74 571.91,-35.51"/>
<polygon fill="#63b8ff" stroke="#63b8ff" points="3921.22,-94 3931.25,-90.56 3921.27,-87 3921.22,-94"/>
</a>
</g>
</g>
<!-- Node5 -->
<g id="Node000005" class="node">
<title>Node5</title>
<g id="a_Node000005"><a xlink:href="APMAutoPilotPlugin_8cc.html" target="_top" xlink:title=" ">
<polygon fill="white" stroke="#666666" points="780,-35.5 626,-35.5 626,-5.5 780,-5.5 780,-35.5"/>
<text text-anchor="start" x="634" y="-23.5" font-family="Helvetica,sans-Serif" font-size="10.00">src/AutoPilotPlugins</text>
<text text-anchor="middle" x="703" y="-12.5" font-family="Helvetica,sans-Serif" font-size="10.00">/APM/APMAutoPilotPlugin.cc</text>
</a>
</g>
</g>
<!-- Node1&#45;&gt;Node5 -->
<g id="edge4_Node000001_Node000005" class="edge">
<title>Node1&#45;&gt;Node5</title>
<g id="a_edge4_Node000001_Node000005"><a xlink:title=" ">
<path fill="none" stroke="#63b8ff" d="M3921.22,-90.74C3451.62,-89.13 1107.85,-79.21 789,-41 778.51,-39.74 767.43,-37.75 756.84,-35.5"/>
<polygon fill="#63b8ff" stroke="#63b8ff" points="3921.3,-94.24 3931.31,-90.78 3921.32,-87.24 3921.3,-94.24"/>
</a>
</g>
</g>
<!-- Node6 -->
<g id="Node000006" class="node">
<title>Node6</title>
<g id="a_Node000006"><a xlink:href="APMFlightModesComponentController_8cc.html" target="_top" xlink:title=" ">
<polygon fill="white" stroke="#666666" points="980,-41 798,-41 798,0 980,0 980,-41"/>
<text text-anchor="start" x="806" y="-29" font-family="Helvetica,sans-Serif" font-size="10.00">src/AutoPilotPlugins</text>
<text text-anchor="start" x="806" y="-18" font-family="Helvetica,sans-Serif" font-size="10.00">/APM/APMFlightModesComponent</text>
<text text-anchor="middle" x="889" y="-7" font-family="Helvetica,sans-Serif" font-size="10.00">Controller.cc</text>
</a>
</g>
</g>
<!-- Node1&#45;&gt;Node6 -->
<g id="edge5_Node000001_Node000006" class="edge">
<title>Node1&#45;&gt;Node6</title>
<g id="a_edge5_Node000001_Node000006"><a xlink:title=" ">
<path fill="none" stroke="#63b8ff" d="M3921.3,-90.5C3469.58,-87.65 1287.38,-72.32 989,-41 986.1,-40.7 983.15,-40.35 980.19,-39.97"/>
<polygon fill="#63b8ff" stroke="#63b8ff" points="3921.31,-94 3931.33,-90.57 3921.35,-87 3921.31,-94"/>
</a>
</g>
</g>
<!-- Node7 -->
<g id="Node000007" class="node">
<title>Node7</title>
<g id="a_Node000007"><a xlink:href="APMRadioComponent_8cc.html" target="_top" xlink:title=" ">
<polygon fill="white" stroke="#666666" points="1162,-35.5 998,-35.5 998,-5.5 1162,-5.5 1162,-35.5"/>
<text text-anchor="start" x="1006" y="-23.5" font-family="Helvetica,sans-Serif" font-size="10.00">src/AutoPilotPlugins</text>
<text text-anchor="middle" x="1080" y="-12.5" font-family="Helvetica,sans-Serif" font-size="10.00">/APM/APMRadioComponent.cc</text>
</a>
</g>
</g>
<!-- Node1&#45;&gt;Node7 -->
<g id="edge6_Node000001_Node000007" class="edge">
<title>Node1&#45;&gt;Node7</title>
<g id="a_edge6_Node000001_Node000007"><a xlink:title=" ">
<path fill="none" stroke="#63b8ff" d="M3921.04,-90.5C3485.33,-87.71 1449.94,-73.04 1171,-41 1160.08,-39.75 1148.55,-37.78 1137.49,-35.57"/>
<polygon fill="#63b8ff" stroke="#63b8ff" points="3921.32,-94 3931.34,-90.56 3921.36,-87 3921.32,-94"/>
</a>
</g>
</g>
<!-- Node8 -->
<g id="Node000008" class="node">
<title>Node8</title>
<g id="a_Node000008"><a xlink:href="APMSensorsComponent_8cc.html" target="_top" xlink:title=" ">
<polygon fill="white" stroke="#666666" points="1354,-35.5 1180,-35.5 1180,-5.5 1354,-5.5 1354,-35.5"/>
<text text-anchor="start" x="1188" y="-23.5" font-family="Helvetica,sans-Serif" font-size="10.00">src/AutoPilotPlugins</text>
<text text-anchor="middle" x="1267" y="-12.5" font-family="Helvetica,sans-Serif" font-size="10.00">/APM/APMSensorsComponent.cc</text>
</a>
</g>
</g>
<!-- Node1&#45;&gt;Node8 -->
<g id="edge7_Node000001_Node000008" class="edge">
<title>Node1&#45;&gt;Node8</title>
<g id="a_edge7_Node000001_Node000008"><a xlink:title=" ">
<path fill="none" stroke="#63b8ff" d="M3921.26,-90.34C3504.1,-86.83 1622.05,-69.52 1363,-41 1351.42,-39.72 1339.16,-37.74 1327.42,-35.51"/>
<polygon fill="#63b8ff" stroke="#63b8ff" points="3921.4,-93.84 3931.43,-90.42 3921.46,-86.84 3921.4,-93.84"/>
</a>
</g>
</g>
<!-- Node9 -->
<g id="Node000009" class="node">
<title>Node9</title>
<g id="a_Node000009"><a xlink:href="APMSensorsComponentController_8cc.html" target="_top" xlink:title=" ">
<polygon fill="white" stroke="#666666" points="1593.5,-35.5 1372.5,-35.5 1372.5,-5.5 1593.5,-5.5 1593.5,-35.5"/>
<text text-anchor="start" x="1380.5" y="-23.5" font-family="Helvetica,sans-Serif" font-size="10.00">src/AutoPilotPlugins</text>
<text text-anchor="middle" x="1483" y="-12.5" font-family="Helvetica,sans-Serif" font-size="10.00">/APM/APMSensorsComponentController.cc</text>
</a>
</g>
</g>
<!-- Node1&#45;&gt;Node9 -->
<g id="edge8_Node000001_Node000009" class="edge">
<title>Node1&#45;&gt;Node9</title>
<g id="a_edge8_Node000001_Node000009"><a xlink:title=" ">
<path fill="none" stroke="#63b8ff" d="M3921.22,-90.84C3555.51,-89.88 2067.65,-83.38 1603,-41 1588.81,-39.71 1573.76,-37.74 1559.29,-35.54"/>
<polygon fill="#63b8ff" stroke="#63b8ff" points="3921.45,-94.34 3931.46,-90.86 3921.47,-87.34 3921.45,-94.34"/>
</a>
</g>
</g>
<!-- Node10 -->
<g id="Node000010" class="node">
<title>Node10</title>
<g id="a_Node000010"><a xlink:href="ESP8266ComponentController_8cc.html" target="_top" xlink:title=" ">
<polygon fill="white" stroke="#666666" points="1838,-35.5 1612,-35.5 1612,-5.5 1838,-5.5 1838,-35.5"/>
<text text-anchor="start" x="1620" y="-23.5" font-family="Helvetica,sans-Serif" font-size="10.00">src/AutoPilotPlugins</text>
<text text-anchor="middle" x="1725" y="-12.5" font-family="Helvetica,sans-Serif" font-size="10.00">/Common/ESP8266ComponentController.cc</text>
</a>
</g>
</g>
<!-- Node1&#45;&gt;Node10 -->
<g id="edge9_Node000001_Node000010" class="edge">
<title>Node1&#45;&gt;Node10</title>
<g id="a_edge9_Node000001_Node000010"><a xlink:title=" ">
<path fill="none" stroke="#63b8ff" d="M3921.22,-90.59C3579.08,-88.62 2261,-78.71 1847,-41 1832.58,-39.69 1817.28,-37.71 1802.57,-35.51"/>
<polygon fill="#63b8ff" stroke="#63b8ff" points="3921.28,-94.09 3931.3,-90.64 3921.32,-87.09 3921.28,-94.09"/>
</a>
</g>
</g>
<!-- Node11 -->
<g id="Node000011" class="node">
<title>Node11</title>
<g id="a_Node000011"><a xlink:href="RadioComponentController_8cc.html" target="_top" xlink:title=" ">
<polygon fill="white" stroke="#666666" points="2068,-35.5 1856,-35.5 1856,-5.5 2068,-5.5 2068,-35.5"/>
<text text-anchor="start" x="1864" y="-23.5" font-family="Helvetica,sans-Serif" font-size="10.00">src/AutoPilotPlugins</text>
<text text-anchor="middle" x="1962" y="-12.5" font-family="Helvetica,sans-Serif" font-size="10.00">/Common/RadioComponentController.cc</text>
</a>
</g>
</g>
<!-- Node1&#45;&gt;Node11 -->
<g id="edge10_Node000001_Node000011" class="edge">
<title>Node1&#45;&gt;Node11</title>
<g id="a_edge10_Node000001_Node000011"><a xlink:title=" ">
<path fill="none" stroke="#63b8ff" d="M3921.38,-90.43C3602.9,-87.95 2443.29,-76.63 2077,-41 2063.5,-39.69 2049.18,-37.72 2035.41,-35.54"/>
<polygon fill="#63b8ff" stroke="#63b8ff" points="3921.43,-93.93 3931.46,-90.5 3921.49,-86.93 3921.43,-93.93"/>
</a>
</g>
</g>
<!-- Node12 -->
<g id="Node000012" class="node">
<title>Node12</title>
<g id="a_Node000012"><a xlink:href="AirframeComponent_8cc.html" target="_top" xlink:title=" ">
<polygon fill="white" stroke="#666666" points="2240,-35.5 2086,-35.5 2086,-5.5 2240,-5.5 2240,-35.5"/>
<text text-anchor="start" x="2094" y="-23.5" font-family="Helvetica,sans-Serif" font-size="10.00">src/AutoPilotPlugins</text>
<text text-anchor="middle" x="2163" y="-12.5" font-family="Helvetica,sans-Serif" font-size="10.00">/PX4/AirframeComponent.cc</text>
</a>
</g>
</g>
<!-- Node1&#45;&gt;Node12 -->
<g id="edge11_Node000001_Node000012" class="edge">
<title>Node1&#45;&gt;Node12</title>
<g id="a_edge11_Node000001_Node000012"><a xlink:title=" ">
<path fill="none" stroke="#63b8ff" d="M3920.98,-90.78C3620.29,-89.63 2578.68,-82.67 2249,-41 2238.82,-39.71 2228.08,-37.76 2217.77,-35.59"/>
<polygon fill="#63b8ff" stroke="#63b8ff" points="3921.35,-94.28 3931.37,-90.82 3921.38,-87.28 3921.35,-94.28"/>
</a>
</g>
</g>
<!-- Node13 -->
<g id="Node000013" class="node">
<title>Node13</title>
<g id="a_Node000013"><a xlink:href="AirframeComponentController_8cc.html" target="_top" xlink:title=" ">
<polygon fill="white" stroke="#666666" points="2459.5,-35.5 2258.5,-35.5 2258.5,-5.5 2459.5,-5.5 2459.5,-35.5"/>
<text text-anchor="start" x="2266.5" y="-23.5" font-family="Helvetica,sans-Serif" font-size="10.00">src/AutoPilotPlugins</text>
<text text-anchor="middle" x="2359" y="-12.5" font-family="Helvetica,sans-Serif" font-size="10.00">/PX4/AirframeComponentController.cc</text>
</a>
</g>
</g>
<!-- Node1&#45;&gt;Node13 -->
<g id="edge12_Node000001_Node000013" class="edge">
<title>Node1&#45;&gt;Node13</title>
<g id="a_edge12_Node000001_Node000013"><a xlink:title=" ">
<path fill="none" stroke="#63b8ff" d="M3920.8,-89.89C3644.95,-85.92 2753.53,-71.03 2468,-41 2455.29,-39.66 2441.82,-37.7 2428.86,-35.54"/>
<polygon fill="#63b8ff" stroke="#63b8ff" points="3921.09,-93.39 3931.13,-90.04 3921.19,-86.4 3921.09,-93.39"/>
</a>
</g>
</g>
<!-- Node14 -->
<g id="Node000014" class="node">
<title>Node14</title>
<g id="a_Node000014"><a xlink:href="FlightModesComponent_8cc.html" target="_top" xlink:title=" ">
<polygon fill="white" stroke="#666666" points="2648.5,-35.5 2477.5,-35.5 2477.5,-5.5 2648.5,-5.5 2648.5,-35.5"/>
<text text-anchor="start" x="2485.5" y="-23.5" font-family="Helvetica,sans-Serif" font-size="10.00">src/AutoPilotPlugins</text>
<text text-anchor="middle" x="2563" y="-12.5" font-family="Helvetica,sans-Serif" font-size="10.00">/PX4/FlightModesComponent.cc</text>
</a>
</g>
</g>
<!-- Node1&#45;&gt;Node14 -->
<g id="edge13_Node000001_Node000014" class="edge">
<title>Node1&#45;&gt;Node14</title>
<g id="a_edge13_Node000001_Node000014"><a xlink:title=" ">
<path fill="none" stroke="#63b8ff" d="M3921.24,-89.73C3668.9,-85.54 2904.56,-70.68 2658,-41 2646.88,-39.66 2635.13,-37.7 2623.83,-35.54"/>
<polygon fill="#63b8ff" stroke="#63b8ff" points="3921.38,-93.24 3931.43,-89.9 3921.49,-86.24 3921.38,-93.24"/>
</a>
</g>
</g>
<!-- Node15 -->
<g id="Node000015" class="node">
<title>Node15</title>
<g id="a_Node000015"><a xlink:href="PX4AutoPilotPlugin_8cc.html" target="_top" xlink:title=" ">
<polygon fill="white" stroke="#666666" points="2815,-35.5 2667,-35.5 2667,-5.5 2815,-5.5 2815,-35.5"/>
<text text-anchor="start" x="2675" y="-23.5" font-family="Helvetica,sans-Serif" font-size="10.00">src/AutoPilotPlugins</text>
<text text-anchor="middle" x="2741" y="-12.5" font-family="Helvetica,sans-Serif" font-size="10.00">/PX4/PX4AutoPilotPlugin.cc</text>
</a>
</g>
</g>
<!-- Node1&#45;&gt;Node15 -->
<g id="edge14_Node000001_Node000015" class="edge">
<title>Node1&#45;&gt;Node15</title>
<g id="a_edge14_Node000001_Node000015"><a xlink:title=" ">
<path fill="none" stroke="#63b8ff" d="M3921.1,-89.54C3690.12,-85.08 3036.49,-70.2 2824,-41 2814.32,-39.67 2804.12,-37.73 2794.3,-35.58"/>
<polygon fill="#63b8ff" stroke="#63b8ff" points="3921.06,-93.03 3931.12,-89.73 3921.19,-86.04 3921.06,-93.03"/>
</a>
</g>
</g>
<!-- Node16 -->
<g id="Node000016" class="node">
<title>Node16</title>
<g id="a_Node000016"><a xlink:href="PX4RadioComponent_8cc.html" target="_top" xlink:title=" ">
<polygon fill="white" stroke="#666666" points="2991,-35.5 2833,-35.5 2833,-5.5 2991,-5.5 2991,-35.5"/>
<text text-anchor="start" x="2841" y="-23.5" font-family="Helvetica,sans-Serif" font-size="10.00">src/AutoPilotPlugins</text>
<text text-anchor="middle" x="2912" y="-12.5" font-family="Helvetica,sans-Serif" font-size="10.00">/PX4/PX4RadioComponent.cc</text>
</a>
</g>
</g>
<!-- Node1&#45;&gt;Node16 -->
<g id="edge15_Node000001_Node000016" class="edge">
<title>Node1&#45;&gt;Node16</title>
<g id="a_edge15_Node000001_Node000016"><a xlink:title=" ">
<path fill="none" stroke="#63b8ff" d="M3921.27,-91.57C3749.73,-91.74 3339.93,-86.8 3000,-41 2989.76,-39.62 2978.96,-37.66 2968.55,-35.5"/>
<polygon fill="#63b8ff" stroke="#63b8ff" points="3921.49,-95.07 3931.48,-91.55 3921.48,-88.07 3921.49,-95.07"/>
</a>
</g>
</g>
<!-- Node17 -->
<g id="Node000017" class="node">
<title>Node17</title>
<g id="a_Node000017"><a xlink:href="PX4SimpleFlightModesController_8cc.html" target="_top" xlink:title=" ">
<polygon fill="white" stroke="#666666" points="3224.5,-35.5 3009.5,-35.5 3009.5,-5.5 3224.5,-5.5 3224.5,-35.5"/>
<text text-anchor="start" x="3017.5" y="-23.5" font-family="Helvetica,sans-Serif" font-size="10.00">src/AutoPilotPlugins</text>
<text text-anchor="middle" x="3117" y="-12.5" font-family="Helvetica,sans-Serif" font-size="10.00">/PX4/PX4SimpleFlightModesController.cc</text>
</a>
</g>
</g>
<!-- Node1&#45;&gt;Node17 -->
<g id="edge16_Node000001_Node000017" class="edge">
<title>Node1&#45;&gt;Node17</title>
<g id="a_edge16_Node000001_Node000017"><a xlink:title=" ">
<path fill="none" stroke="#63b8ff" d="M3921.11,-88.42C3780.15,-83.36 3482.74,-70.02 3233,-41 3220.22,-39.51 3206.71,-37.58 3193.59,-35.51"/>
<polygon fill="#63b8ff" stroke="#63b8ff" points="3921.27,-91.93 3931.39,-88.78 3921.52,-84.93 3921.27,-91.93"/>
</a>
</g>
</g>
<!-- Node18 -->
<g id="Node000018" class="node">
<title>Node18</title>
<g id="a_Node000018"><a xlink:href="PowerComponent_8cc.html" target="_top" xlink:title=" ">
<polygon fill="white" stroke="#666666" points="3383.5,-35.5 3242.5,-35.5 3242.5,-5.5 3383.5,-5.5 3383.5,-35.5"/>
<text text-anchor="start" x="3250.5" y="-23.5" font-family="Helvetica,sans-Serif" font-size="10.00">src/AutoPilotPlugins</text>
<text text-anchor="middle" x="3313" y="-12.5" font-family="Helvetica,sans-Serif" font-size="10.00">/PX4/PowerComponent.cc</text>
</a>
</g>
</g>
<!-- Node1&#45;&gt;Node18 -->
<g id="edge17_Node000001_Node000018" class="edge">
<title>Node1&#45;&gt;Node18</title>
<g id="a_edge17_Node000001_Node000018"><a xlink:title=" ">
<path fill="none" stroke="#63b8ff" d="M3921.04,-88.47C3803.3,-83.88 3579.8,-71.66 3392,-41 3383.22,-39.57 3373.97,-37.66 3365.02,-35.59"/>
<polygon fill="#63b8ff" stroke="#63b8ff" points="3920.93,-91.96 3931.06,-88.85 3921.2,-84.97 3920.93,-91.96"/>
</a>
</g>
</g>
<!-- Node19 -->
<g id="Node000019" class="node">
<title>Node19</title>
<g id="a_Node000019"><a xlink:href="SensorsComponent_8cc.html" target="_top" xlink:title=" ">
<polygon fill="white" stroke="#666666" points="3550.5,-35.5 3401.5,-35.5 3401.5,-5.5 3550.5,-5.5 3550.5,-35.5"/>
<text text-anchor="start" x="3409.5" y="-23.5" font-family="Helvetica,sans-Serif" font-size="10.00">src/AutoPilotPlugins</text>
<text text-anchor="middle" x="3476" y="-12.5" font-family="Helvetica,sans-Serif" font-size="10.00">/PX4/SensorsComponent.cc</text>
</a>
</g>
</g>
<!-- Node1&#45;&gt;Node19 -->
<g id="edge18_Node000001_Node000019" class="edge">
<title>Node1&#45;&gt;Node19</title>
<g id="a_edge18_Node000001_Node000019"><a xlink:title=" ">
<path fill="none" stroke="#63b8ff" d="M3921.43,-84.74C3832.05,-77.19 3684.67,-62.76 3559,-41 3550.1,-39.46 3540.73,-37.55 3531.62,-35.52"/>
<polygon fill="#63b8ff" stroke="#63b8ff" points="3921.24,-88.23 3931.5,-85.58 3921.83,-81.26 3921.24,-88.23"/>
</a>
</g>
</g>
<!-- Node20 -->
<g id="Node000020" class="node">
<title>Node20</title>
<g id="a_Node000020"><a xlink:href="SensorsComponentController_8cc.html" target="_top" xlink:title=" ">
<polygon fill="white" stroke="#666666" points="3765.5,-35.5 3568.5,-35.5 3568.5,-5.5 3765.5,-5.5 3765.5,-35.5"/>
<text text-anchor="start" x="3576.5" y="-23.5" font-family="Helvetica,sans-Serif" font-size="10.00">src/AutoPilotPlugins</text>
<text text-anchor="middle" x="3667" y="-12.5" font-family="Helvetica,sans-Serif" font-size="10.00">/PX4/SensorsComponentController.cc</text>
</a>
</g>
</g>
<!-- Node1&#45;&gt;Node20 -->
<g id="edge19_Node000001_Node000020" class="edge">
<title>Node1&#45;&gt;Node20</title>
<g id="a_edge19_Node000001_Node000020"><a xlink:title=" ">
<path fill="none" stroke="#63b8ff" d="M3924.87,-74.84C3867.33,-62.94 3789.86,-46.91 3734.89,-35.54"/>
<polygon fill="#63b8ff" stroke="#63b8ff" points="3924.5,-78.34 3935.01,-76.94 3925.92,-71.48 3924.5,-78.34"/>
</a>
</g>
</g>
<!-- Node21 -->
<g id="Node000021" class="node">
<title>Node21</title>
<g id="a_Node000021"><a xlink:href="VehicleComponent_8cc.html" target="_top" xlink:title=" ">
<polygon fill="white" stroke="#666666" points="3908.5,-35.5 3783.5,-35.5 3783.5,-5.5 3908.5,-5.5 3908.5,-35.5"/>
<text text-anchor="start" x="3791.5" y="-23.5" font-family="Helvetica,sans-Serif" font-size="10.00">src/AutoPilotPlugins</text>
<text text-anchor="middle" x="3846" y="-12.5" font-family="Helvetica,sans-Serif" font-size="10.00">/VehicleComponent.cc</text>
</a>
</g>
</g>
<!-- Node1&#45;&gt;Node21 -->
<g id="edge20_Node000001_Node000021" class="edge">
<title>Node1&#45;&gt;Node21</title>
<g id="a_edge20_Node000001_Node000021"><a xlink:title=" ">
<path fill="none" stroke="#63b8ff" d="M3961.9,-72.81C3935.59,-61.16 3901.97,-46.28 3877.72,-35.54"/>
<polygon fill="#63b8ff" stroke="#63b8ff" points="3960.67,-76.09 3971.23,-76.94 3963.5,-69.69 3960.67,-76.09"/>
</a>
</g>
</g>
<!-- Node22 -->
<g id="Node000022" class="node">
<title>Node22</title>
<g id="a_Node000022"><a xlink:href="FactPanelController_8cc.html" target="_top" xlink:title=" ">
<polygon fill="white" stroke="#666666" points="4079.5,-35.5 3926.5,-35.5 3926.5,-5.5 4079.5,-5.5 4079.5,-35.5"/>
<text text-anchor="start" x="3934.5" y="-23.5" font-family="Helvetica,sans-Serif" font-size="10.00">src/FactSystem/FactControls</text>
<text text-anchor="middle" x="4003" y="-12.5" font-family="Helvetica,sans-Serif" font-size="10.00">/FactPanelController.cc</text>
</a>
</g>
</g>
<!-- Node1&#45;&gt;Node22 -->
<g id="edge21_Node000001_Node000022" class="edge">
<title>Node1&#45;&gt;Node22</title>
<g id="a_edge21_Node000001_Node000022"><a xlink:title=" ">
<path fill="none" stroke="#63b8ff" d="M4003,-66.75C4003,-56.31 4003,-44.49 4003,-35.54"/>
<polygon fill="#63b8ff" stroke="#63b8ff" points="3999.5,-66.94 4003,-76.94 4006.5,-66.94 3999.5,-66.94"/>
</a>
</g>
</g>
<!-- Node23 -->
<g id="Node000023" class="node">
<title>Node23</title>
<g id="a_Node000023"><a xlink:href="ParameterManager_8cc.html" target="_top" xlink:title=" ">
<polygon fill="white" stroke="#666666" points="4240.5,-35.5 4097.5,-35.5 4097.5,-5.5 4240.5,-5.5 4240.5,-35.5"/>
<text text-anchor="start" x="4105.5" y="-23.5" font-family="Helvetica,sans-Serif" font-size="10.00">src/FactSystem/Parameter</text>
<text text-anchor="middle" x="4169" y="-12.5" font-family="Helvetica,sans-Serif" font-size="10.00">Manager.cc</text>
</a>
</g>
</g>
<!-- Node1&#45;&gt;Node23 -->
<g id="edge22_Node000001_Node000023" class="edge">
<title>Node1&#45;&gt;Node23</title>
<g id="a_edge22_Node000001_Node000023"><a xlink:title=" ">
<path fill="none" stroke="#63b8ff" d="M4046.09,-72.96C4073.96,-61.29 4109.71,-46.32 4135.46,-35.54"/>
<polygon fill="#63b8ff" stroke="#63b8ff" points="4044.47,-69.85 4036.59,-76.94 4047.17,-76.3 4044.47,-69.85"/>
</a>
</g>
</g>
<!-- Node24 -->
<g id="Node000024" class="node">
<title>Node24</title>
<g id="a_Node000024"><a xlink:href="APMFirmwarePlugin_8cc.html" target="_top" xlink:title=" ">
<polygon fill="white" stroke="#666666" points="4413.5,-35.5 4258.5,-35.5 4258.5,-5.5 4413.5,-5.5 4413.5,-35.5"/>
<text text-anchor="start" x="4266.5" y="-23.5" font-family="Helvetica,sans-Serif" font-size="10.00">src/FirmwarePlugin</text>
<text text-anchor="middle" x="4336" y="-12.5" font-family="Helvetica,sans-Serif" font-size="10.00">/APM/APMFirmwarePlugin.cc</text>
</a>
</g>
</g>
<!-- Node1&#45;&gt;Node24 -->
<g id="edge23_Node000001_Node000024" class="edge">
<title>Node1&#45;&gt;Node24</title>
<g id="a_edge23_Node000001_Node000024"><a xlink:title=" ">
<path fill="none" stroke="#63b8ff" d="M4084.49,-75C4132.69,-65.41 4194.89,-52.82 4250,-41 4258.08,-39.27 4266.58,-37.4 4274.96,-35.52"/>
<polygon fill="#63b8ff" stroke="#63b8ff" points="4083.56,-71.62 4074.43,-77 4084.92,-78.48 4083.56,-71.62"/>
</a>
</g>
</g>
<!-- Node25 -->
<g id="Node000025" class="node">
<title>Node25</title>
<g id="a_Node000025"><a xlink:href="ArduCopterFirmwarePlugin_8cc.html" target="_top" xlink:title=" ">
<polygon fill="white" stroke="#666666" points="4620,-35.5 4432,-35.5 4432,-5.5 4620,-5.5 4620,-35.5"/>
<text text-anchor="start" x="4440" y="-23.5" font-family="Helvetica,sans-Serif" font-size="10.00">src/FirmwarePlugin</text>
<text text-anchor="middle" x="4526" y="-12.5" font-family="Helvetica,sans-Serif" font-size="10.00">/APM/ArduCopterFirmwarePlugin.cc</text>
</a>
</g>
</g>
<!-- Node1&#45;&gt;Node25 -->
<g id="edge24_Node000001_Node000025" class="edge">
<title>Node1&#45;&gt;Node25</title>
<g id="a_edge24_Node000001_Node000025"><a xlink:title=" ">
<path fill="none" stroke="#63b8ff" d="M4084.62,-82.96C4169.42,-74.21 4305.84,-59.04 4423,-41 4433.52,-39.38 4444.61,-37.48 4455.47,-35.52"/>
<polygon fill="#63b8ff" stroke="#63b8ff" points="4084.13,-79.49 4074.54,-83.99 4084.85,-86.45 4084.13,-79.49"/>
</a>
</g>
</g>
<!-- Node26 -->
<g id="Node000026" class="node">
<title>Node26</title>
<g id="a_Node000026"><a xlink:href="PX4FirmwarePlugin_8cc.html" target="_top" xlink:title=" ">
<polygon fill="white" stroke="#666666" points="4787.5,-35.5 4638.5,-35.5 4638.5,-5.5 4787.5,-5.5 4787.5,-35.5"/>
<text text-anchor="start" x="4646.5" y="-23.5" font-family="Helvetica,sans-Serif" font-size="10.00">src/FirmwarePlugin</text>
<text text-anchor="middle" x="4713" y="-12.5" font-family="Helvetica,sans-Serif" font-size="10.00">/PX4/PX4FirmwarePlugin.cc</text>
</a>
</g>
</g>
<!-- Node1&#45;&gt;Node26 -->
<g id="edge25_Node000001_Node000026" class="edge">
<title>Node1&#45;&gt;Node26</title>
<g id="a_edge25_Node000001_Node000026"><a xlink:title=" ">
<path fill="none" stroke="#63b8ff" d="M4084.96,-88.33C4204.98,-83.55 4435.33,-71.04 4629,-41 4638.32,-39.55 4648.14,-37.64 4657.65,-35.57"/>
<polygon fill="#63b8ff" stroke="#63b8ff" points="4084.61,-84.84 4074.75,-88.73 4084.88,-91.84 4084.61,-84.84"/>
</a>
</g>
</g>
<!-- Node27 -->
<g id="Node000027" class="node">
<title>Node27</title>
<g id="a_Node000027"><a xlink:href="GimbalController_8cc.html" target="_top" xlink:title=" ">
<polygon fill="white" stroke="#666666" points="4973,-30 4805,-30 4805,-11 4973,-11 4973,-30"/>
<text text-anchor="middle" x="4889" y="-18" font-family="Helvetica,sans-Serif" font-size="10.00">src/Gimbal/GimbalController.cc</text>
</a>
</g>
</g>
<!-- Node1&#45;&gt;Node27 -->
<g id="edge26_Node000001_Node000027" class="edge">
<title>Node1&#45;&gt;Node27</title>
<g id="a_edge26_Node000001_Node000027"><a xlink:title=" ">
<path fill="none" stroke="#63b8ff" d="M4084.62,-89.78C4228.96,-86.76 4538.41,-76.35 4797,-41 4816.25,-38.37 4837.48,-33.97 4854.7,-30.02"/>
<polygon fill="#63b8ff" stroke="#63b8ff" points="4084.45,-86.29 4074.52,-89.99 4084.59,-93.28 4084.45,-86.29"/>
</a>
</g>
</g>
<!-- Node28 -->
<g id="Node000028" class="node">
<title>Node28</title>
<g id="a_Node000028"><a xlink:href="GeoFenceController_8cc.html" target="_top" xlink:title=" ">
<polygon fill="white" stroke="#666666" points="5119,-35.5 4991,-35.5 4991,-5.5 5119,-5.5 5119,-35.5"/>
<text text-anchor="start" x="4999" y="-23.5" font-family="Helvetica,sans-Serif" font-size="10.00">src/MissionManager</text>
<text text-anchor="middle" x="5055" y="-12.5" font-family="Helvetica,sans-Serif" font-size="10.00">/GeoFenceController.cc</text>
</a>
</g>
</g>
<!-- Node1&#45;&gt;Node28 -->
<g id="edge27_Node000001_Node000028" class="edge">
<title>Node1&#45;&gt;Node28</title>
<g id="a_edge27_Node000001_Node000028"><a xlink:title=" ">
<path fill="none" stroke="#63b8ff" d="M4084.85,-89.03C4287.76,-83.8 4810.04,-68.05 4982,-41 4990.55,-39.65 4999.55,-37.71 5008.19,-35.56"/>
<polygon fill="#63b8ff" stroke="#63b8ff" points="4084.46,-85.54 4074.55,-89.3 4084.64,-92.54 4084.46,-85.54"/>
</a>
</g>
</g>
<!-- Node29 -->
<g id="Node000029" class="node">
<title>Node29</title>
<g id="a_Node000029"><a xlink:href="QGCApplication_8cc.html" target="_top" xlink:title=" ">
<polygon fill="white" stroke="#666666" points="5261,-30 5137,-30 5137,-11 5261,-11 5261,-30"/>
<text text-anchor="middle" x="5199" y="-18" font-family="Helvetica,sans-Serif" font-size="10.00">src/QGCApplication.cc</text>
</a>
</g>
</g>
<!-- Node1&#45;&gt;Node29 -->
<g id="edge28_Node000001_Node000029" class="edge">
<title>Node1&#45;&gt;Node29</title>
<g id="a_edge28_Node000001_Node000029"><a xlink:title=" ">
<path fill="none" stroke="#63b8ff" d="M4084.67,-89.74C4308.23,-85.91 4926.86,-72.68 5128,-41 5143.28,-38.59 5159.98,-34.11 5173.34,-30.04"/>
<polygon fill="#63b8ff" stroke="#63b8ff" points="4084.59,-86.24 4074.65,-89.91 4084.71,-93.24 4084.59,-86.24"/>
</a>
</g>
</g>
<!-- Node30 -->
<g id="Node000030" class="node">
<title>Node30</title>
<g id="a_Node000030"><a xlink:href="ParameterEditorController_8cc.html" target="_top" xlink:title=" ">
<polygon fill="white" stroke="#666666" points="5427,-35.5 5279,-35.5 5279,-5.5 5427,-5.5 5427,-35.5"/>
<text text-anchor="start" x="5287" y="-23.5" font-family="Helvetica,sans-Serif" font-size="10.00">src/QmlControls/Parameter</text>
<text text-anchor="middle" x="5353" y="-12.5" font-family="Helvetica,sans-Serif" font-size="10.00">EditorController.cc</text>
</a>
</g>
</g>
<!-- Node1&#45;&gt;Node30 -->
<g id="edge29_Node000001_Node000030" class="edge">
<title>Node1&#45;&gt;Node30</title>
<g id="a_edge29_Node000001_Node000030"><a xlink:title=" ">
<path fill="none" stroke="#63b8ff" d="M4085.03,-89.81C4327.75,-85.98 5039.77,-72.29 5270,-41 5279.83,-39.66 5290.2,-37.69 5300.15,-35.51"/>
<polygon fill="#63b8ff" stroke="#63b8ff" points="4084.81,-86.32 4074.87,-89.97 4084.92,-93.32 4084.81,-86.32"/>
</a>
</g>
</g>
<!-- Node31 -->
<g id="Node000031" class="node">
<title>Node31</title>
<g id="a_Node000031"><a xlink:href="QGCMapCircle_8cc.html" target="_top" xlink:title=" ">
<polygon fill="white" stroke="#666666" points="5627,-30 5445,-30 5445,-11 5627,-11 5627,-30"/>
<text text-anchor="middle" x="5536" y="-18" font-family="Helvetica,sans-Serif" font-size="10.00">src/QmlControls/QGCMapCircle.cc</text>
</a>
</g>
</g>
<!-- Node1&#45;&gt;Node31 -->
<g id="edge30_Node000001_Node000031" class="edge">
<title>Node1&#45;&gt;Node31</title>
<g id="a_edge30_Node000001_Node000031"><a xlink:title=" ">
<path fill="none" stroke="#63b8ff" d="M4085.09,-89.84C4348.62,-85.84 5171.49,-71.21 5436,-41 5457.26,-38.57 5480.77,-34.08 5499.64,-30.02"/>
<polygon fill="#63b8ff" stroke="#63b8ff" points="4084.77,-86.34 4074.83,-89.99 4084.88,-93.34 4084.77,-86.34"/>
</a>
</g>
</g>
<!-- Node32 -->
<g id="Node000032" class="node">
<title>Node32</title>
<g id="a_Node000032"><a xlink:href="RCToParamDialogController_8cc.html" target="_top" xlink:title=" ">
<polygon fill="white" stroke="#666666" points="5797,-35.5 5645,-35.5 5645,-5.5 5797,-5.5 5797,-35.5"/>
<text text-anchor="start" x="5653" y="-23.5" font-family="Helvetica,sans-Serif" font-size="10.00">src/QmlControls/RCToParam</text>
<text text-anchor="middle" x="5721" y="-12.5" font-family="Helvetica,sans-Serif" font-size="10.00">DialogController.cc</text>
</a>
</g>
</g>
<!-- Node1&#45;&gt;Node32 -->
<g id="edge31_Node000001_Node000032" class="edge">
<title>Node1&#45;&gt;Node32</title>
<g id="a_edge31_Node000001_Node000032"><a xlink:title=" ">
<path fill="none" stroke="#63b8ff" d="M4085.1,-90.6C4372.34,-88.88 5331.2,-80.25 5636,-41 5646.06,-39.7 5656.68,-37.75 5666.87,-35.57"/>
<polygon fill="#63b8ff" stroke="#63b8ff" points="4084.74,-87.1 4074.76,-90.66 4084.78,-94.1 4084.74,-87.1"/>
</a>
</g>
</g>
<!-- Node33 -->
<g id="Node000033" class="node">
<title>Node33</title>
<g id="a_Node000033"><a xlink:href="ActuatorOutputs_8cc.html" target="_top" xlink:title=" ">
<polygon fill="white" stroke="#666666" points="5934.5,-35.5 5815.5,-35.5 5815.5,-5.5 5934.5,-5.5 5934.5,-35.5"/>
<text text-anchor="start" x="5823.5" y="-23.5" font-family="Helvetica,sans-Serif" font-size="10.00">src/Vehicle/Actuators</text>
<text text-anchor="middle" x="5875" y="-12.5" font-family="Helvetica,sans-Serif" font-size="10.00">/ActuatorOutputs.cc</text>
</a>
</g>
</g>
<!-- Node1&#45;&gt;Node33 -->
<g id="edge32_Node000001_Node000033" class="edge">
<title>Node1&#45;&gt;Node33</title>
<g id="a_edge32_Node000001_Node000033"><a xlink:title=" ">
<path fill="none" stroke="#63b8ff" d="M4084.84,-91.42C4390.85,-92.56 5467.41,-92.72 5806,-41 5814.37,-39.72 5823.16,-37.75 5831.56,-35.54"/>
<polygon fill="#63b8ff" stroke="#63b8ff" points="4084.73,-87.92 4074.72,-91.38 4084.7,-94.92 4084.73,-87.92"/>
</a>
</g>
</g>
<!-- Node34 -->
<g id="Node000034" class="node">
<title>Node34</title>
<g id="a_Node000034"><a xlink:href="Actuators_8cc.html" target="_top" xlink:title=" ">
<polygon fill="white" stroke="#666666" points="6071.5,-35.5 5952.5,-35.5 5952.5,-5.5 6071.5,-5.5 6071.5,-35.5"/>
<text text-anchor="start" x="5960.5" y="-23.5" font-family="Helvetica,sans-Serif" font-size="10.00">src/Vehicle/Actuators</text>
<text text-anchor="middle" x="6012" y="-12.5" font-family="Helvetica,sans-Serif" font-size="10.00">/Actuators.cc</text>
</a>
</g>
</g>
<!-- Node1&#45;&gt;Node34 -->
<g id="edge33_Node000001_Node000034" class="edge">
<title>Node1&#45;&gt;Node34</title>
<g id="a_edge33_Node000001_Node000034"><a xlink:title=" ">
<path fill="none" stroke="#63b8ff" d="M4084.78,-90.12C4429.99,-86.22 5758.72,-69.48 5944,-41 5952.25,-39.73 5960.92,-37.76 5969.2,-35.55"/>
<polygon fill="#63b8ff" stroke="#63b8ff" points="4084.57,-86.62 4074.61,-90.23 4084.65,-93.62 4084.57,-86.62"/>
</a>
</g>
</g>
<!-- Node35 -->
<g id="Node000035" class="node">
<title>Node35</title>
<g id="a_Node000035"><a xlink:href="Common_8cc.html" target="_top" xlink:title=" ">
<polygon fill="white" stroke="#666666" points="6208.5,-35.5 6089.5,-35.5 6089.5,-5.5 6208.5,-5.5 6208.5,-35.5"/>
<text text-anchor="start" x="6097.5" y="-23.5" font-family="Helvetica,sans-Serif" font-size="10.00">src/Vehicle/Actuators</text>
<text text-anchor="middle" x="6149" y="-12.5" font-family="Helvetica,sans-Serif" font-size="10.00">/Common.cc</text>
</a>
</g>
</g>
<!-- Node1&#45;&gt;Node35 -->
<g id="edge34_Node000001_Node000035" class="edge">
<title>Node1&#45;&gt;Node35</title>
<g id="a_edge34_Node000001_Node000035"><a xlink:title=" ">
<path fill="none" stroke="#63b8ff" d="M4084.85,-90.26C4445.23,-86.86 5881.59,-71.48 6081,-41 6089.26,-39.74 6097.92,-37.77 6106.2,-35.56"/>
<polygon fill="#63b8ff" stroke="#63b8ff" points="4084.72,-86.77 4074.75,-90.36 4084.79,-93.77 4084.72,-86.77"/>
</a>
</g>
</g>
<!-- Node36 -->
<g id="Node000036" class="node">
<title>Node36</title>
<g id="a_Node000036"><a xlink:href="Mixer_8cc.html" target="_top" xlink:title=" ">
<polygon fill="white" stroke="#666666" points="6345.5,-35.5 6226.5,-35.5 6226.5,-5.5 6345.5,-5.5 6345.5,-35.5"/>
<text text-anchor="start" x="6234.5" y="-23.5" font-family="Helvetica,sans-Serif" font-size="10.00">src/Vehicle/Actuators</text>
<text text-anchor="middle" x="6286" y="-12.5" font-family="Helvetica,sans-Serif" font-size="10.00">/Mixer.cc</text>
</a>
</g>
</g>
<!-- Node1&#45;&gt;Node36 -->
<g id="edge35_Node000001_Node000036" class="edge">
<title>Node1&#45;&gt;Node36</title>
<g id="a_edge35_Node000001_Node000036"><a xlink:title=" ">
<path fill="none" stroke="#63b8ff" d="M4084.93,-90.4C4460.03,-87.46 6004.43,-73.48 6218,-41 6226.26,-39.74 6234.92,-37.78 6243.2,-35.57"/>
<polygon fill="#63b8ff" stroke="#63b8ff" points="4084.67,-86.9 4074.7,-90.47 4084.73,-93.9 4084.67,-86.9"/>
</a>
</g>
</g>
<!-- Node37 -->
<g id="Node000037" class="node">
<title>Node37</title>
<g id="a_Node000037"><a xlink:href="InitialConnectStateMachine_8cc.html" target="_top" xlink:title=" ">
<polygon fill="white" stroke="#666666" points="6504,-35.5 6364,-35.5 6364,-5.5 6504,-5.5 6504,-35.5"/>
<text text-anchor="start" x="6372" y="-23.5" font-family="Helvetica,sans-Serif" font-size="10.00">src/Vehicle/InitialConnect</text>
<text text-anchor="middle" x="6434" y="-12.5" font-family="Helvetica,sans-Serif" font-size="10.00">StateMachine.cc</text>
</a>
</g>
</g>
<!-- Node1&#45;&gt;Node37 -->
<g id="edge36_Node000001_Node000037" class="edge">
<title>Node1&#45;&gt;Node37</title>
<g id="a_edge36_Node000001_Node000037"><a xlink:title=" ">
<path fill="none" stroke="#63b8ff" d="M4084.84,-90.33C4473.84,-87.01 6126.62,-71.24 6355,-41 6364.52,-39.74 6374.56,-37.77 6384.17,-35.56"/>
<polygon fill="#63b8ff" stroke="#63b8ff" points="4084.76,-86.83 4074.79,-90.42 4084.82,-93.83 4084.76,-86.83"/>
</a>
</g>
</g>
<!-- Node38 -->
<g id="Node000038" class="node">
<title>Node38</title>
<g id="a_Node000038"><a xlink:href="MultiVehicleManager_8cc.html" target="_top" xlink:title=" ">
<polygon fill="white" stroke="#666666" points="6654,-35.5 6522,-35.5 6522,-5.5 6654,-5.5 6654,-35.5"/>
<text text-anchor="start" x="6530" y="-23.5" font-family="Helvetica,sans-Serif" font-size="10.00">src/Vehicle/MultiVehicle</text>
<text text-anchor="middle" x="6588" y="-12.5" font-family="Helvetica,sans-Serif" font-size="10.00">Manager.cc</text>
</a>
</g>
</g>
<!-- Node1&#45;&gt;Node38 -->
<g id="edge37_Node000001_Node000038" class="edge">
<title>Node1&#45;&gt;Node38</title>
<g id="a_edge37_Node000001_Node000038"><a xlink:title=" ">
<path fill="none" stroke="#63b8ff" d="M4084.65,-90.51C4489.11,-87.94 6268.33,-74.77 6513,-41 6522.06,-39.75 6531.6,-37.79 6540.73,-35.58"/>
<polygon fill="#63b8ff" stroke="#63b8ff" points="4084.48,-87.01 4074.5,-90.58 4084.52,-94.01 4084.48,-87.01"/>
</a>
</g>
</g>
<!-- Node39 -->
<g id="Node000039" class="node">
<title>Node39</title>
<g id="a_Node000039"><a xlink:href="Vehicle_8cc.html" target="_top" xlink:title=" ">
<polygon fill="white" stroke="#666666" points="6793.5,-30 6672.5,-30 6672.5,-11 6793.5,-11 6793.5,-30"/>
<text text-anchor="middle" x="6733" y="-18" font-family="Helvetica,sans-Serif" font-size="10.00">src/Vehicle/Vehicle.cc</text>
</a>
</g>
</g>
<!-- Node1&#45;&gt;Node39 -->
<g id="edge38_Node000001_Node000039" class="edge">
<title>Node1&#45;&gt;Node39</title>
<g id="a_edge38_Node000001_Node000039"><a xlink:title=" ">
<path fill="none" stroke="#63b8ff" d="M4084.72,-90.69C4503.87,-88.96 6403.03,-79.03 6663,-41 6678.35,-38.75 6695.11,-34.16 6708.38,-30"/>
<polygon fill="#63b8ff" stroke="#63b8ff" points="4084.49,-87.19 4074.5,-90.74 4084.52,-94.19 4084.49,-87.19"/>
</a>
</g>
</g>
<!-- Node40 -->
<g id="Node000040" class="node">
<title>Node40</title>
<g id="a_Node000040"><a xlink:href="VehicleObjectAvoidance_8cc.html" target="_top" xlink:title=" ">
<polygon fill="white" stroke="#666666" points="6950.5,-35.5 6811.5,-35.5 6811.5,-5.5 6950.5,-5.5 6950.5,-35.5"/>
<text text-anchor="start" x="6819.5" y="-23.5" font-family="Helvetica,sans-Serif" font-size="10.00">src/Vehicle/VehicleObject</text>
<text text-anchor="middle" x="6881" y="-12.5" font-family="Helvetica,sans-Serif" font-size="10.00">Avoidance.cc</text>
</a>
</g>
</g>
<!-- Node1&#45;&gt;Node40 -->
<g id="edge39_Node000001_Node000040" class="edge">
<title>Node1&#45;&gt;Node40</title>
<g id="a_edge39_Node000001_Node000040"><a xlink:title=" ">
<path fill="none" stroke="#63b8ff" d="M4084.75,-90.65C4517.13,-88.63 6527.94,-77.36 6803,-41 6812.41,-39.76 6822.32,-37.8 6831.81,-35.59"/>
<polygon fill="#63b8ff" stroke="#63b8ff" points="4084.52,-87.15 4074.53,-90.69 4084.55,-94.15 4084.52,-87.15"/>
</a>
</g>
</g>
<!-- Node41 -->
<g id="Node000041" class="node">
<title>Node41</title>
<g id="a_Node000041"><a xlink:href="JoystickConfigController_8cc.html" target="_top" xlink:title=" ">
<polygon fill="white" stroke="#666666" points="7117.5,-35.5 6968.5,-35.5 6968.5,-5.5 7117.5,-5.5 7117.5,-35.5"/>
<text text-anchor="start" x="6976.5" y="-23.5" font-family="Helvetica,sans-Serif" font-size="10.00">src/Vehicle/VehicleSetup</text>
<text text-anchor="middle" x="7043" y="-12.5" font-family="Helvetica,sans-Serif" font-size="10.00">/JoystickConfigController.cc</text>
</a>
</g>
</g>
<!-- Node1&#45;&gt;Node41 -->
<g id="edge40_Node000001_Node000041" class="edge">
<title>Node1&#45;&gt;Node41</title>
<g id="a_edge40_Node000001_Node000041"><a xlink:title=" ">
<path fill="none" stroke="#63b8ff" d="M4084.95,-90.66C4532.15,-88.67 6668.29,-77.31 6960,-41 6969.99,-39.76 6980.53,-37.8 6990.62,-35.59"/>
<polygon fill="#63b8ff" stroke="#63b8ff" points="4084.69,-87.16 4074.7,-90.71 4084.72,-94.16 4084.69,-87.16"/>
</a>
</g>
</g>
<!-- Node42 -->
<g id="Node000042" class="node">
<title>Node42</title>
<g id="a_Node000042"><a xlink:href="RemoteControlCalibrationController_8cc.html" target="_top" xlink:title=" ">
<polygon fill="white" stroke="#666666" points="7342.5,-35.5 7135.5,-35.5 7135.5,-5.5 7342.5,-5.5 7342.5,-35.5"/>
<text text-anchor="start" x="7143.5" y="-23.5" font-family="Helvetica,sans-Serif" font-size="10.00">src/Vehicle/VehicleSetup</text>
<text text-anchor="middle" x="7239" y="-12.5" font-family="Helvetica,sans-Serif" font-size="10.00">/RemoteControlCalibrationController.cc</text>
</a>
</g>
</g>
<!-- Node1&#45;&gt;Node42 -->
<g id="edge41_Node000001_Node000042" class="edge">
<title>Node1&#45;&gt;Node42</title>
<g id="a_edge41_Node000001_Node000042"><a xlink:title=" ">
<path fill="none" stroke="#63b8ff" d="M4085.03,-90.45C4547.25,-87.28 6816.83,-70.3 7127,-41 7140.46,-39.73 7154.74,-37.74 7168.43,-35.51"/>
<polygon fill="#63b8ff" stroke="#63b8ff" points="4084.75,-86.96 4074.77,-90.53 4084.8,-93.96 4084.75,-86.96"/>
</a>
</g>
</g>
</g>
</svg>
