<?xml version="1.0" encoding="UTF-8" standalone="no"?>
<!DOCTYPE svg PUBLIC "-//W3C//DTD SVG 1.1//EN"
 "http://www.w3.org/Graphics/SVG/1.1/DTD/svg11.dtd">
<!-- Generated by graphviz version 2.43.0 (0)
 -->
<!-- Title: src/Settings/PlanViewSettings.h Pages: 1 -->
<svg width="1178pt" height="93pt"
 viewBox="0.00 0.00 1177.50 93.00" xmlns="http://www.w3.org/2000/svg" xmlns:xlink="http://www.w3.org/1999/xlink">
<g id="graph0" class="graph" transform="scale(1 1) rotate(0) translate(4 89)">
<title>src/Settings/PlanViewSettings.h</title>
<!-- Node1 -->
<g id="Node000001" class="node">
<title>Node1</title>
<g id="a_Node000001"><a xlink:title=" ">
<polygon fill="#999999" stroke="#666666" points="625.5,-85 455.5,-85 455.5,-66 625.5,-66 625.5,-85"/>
<text text-anchor="middle" x="540.5" y="-73" font-family="Helvetica,sans-Serif" font-size="10.00">src/Settings/PlanViewSettings.h</text>
</a>
</g>
</g>
<!-- Node2 -->
<g id="Node000002" class="node">
<title>Node2</title>
<g id="a_Node000002"><a xlink:href="APMFirmwarePlugin_8cc.html" target="_top" xlink:title=" ">
<polygon fill="white" stroke="#666666" points="155,-30 0,-30 0,0 155,0 155,-30"/>
<text text-anchor="start" x="8" y="-18" font-family="Helvetica,sans-Serif" font-size="10.00">src/FirmwarePlugin</text>
<text text-anchor="middle" x="77.5" y="-7" font-family="Helvetica,sans-Serif" font-size="10.00">/APM/APMFirmwarePlugin.cc</text>
</a>
</g>
</g>
<!-- Node1&#45;&gt;Node2 -->
<g id="edge1_Node000001_Node000002" class="edge">
<title>Node1&#45;&gt;Node2</title>
<g id="a_edge1_Node000001_Node000002"><a xlink:title=" ">
<path fill="none" stroke="#63b8ff" d="M449.4,-64.88C372.95,-56.53 260.94,-43.68 163.5,-30 160.8,-29.62 158.06,-29.23 155.29,-28.82"/>
<polygon fill="#63b8ff" stroke="#63b8ff" points="449.15,-68.37 459.47,-65.98 449.91,-61.41 449.15,-68.37"/>
</a>
</g>
</g>
<!-- Node3 -->
<g id="Node000003" class="node">
<title>Node3</title>
<g id="a_Node000003"><a xlink:href="PX4FirmwarePlugin_8cc.html" target="_top" xlink:title=" ">
<polygon fill="white" stroke="#666666" points="322,-30 173,-30 173,0 322,0 322,-30"/>
<text text-anchor="start" x="181" y="-18" font-family="Helvetica,sans-Serif" font-size="10.00">src/FirmwarePlugin</text>
<text text-anchor="middle" x="247.5" y="-7" font-family="Helvetica,sans-Serif" font-size="10.00">/PX4/PX4FirmwarePlugin.cc</text>
</a>
</g>
</g>
<!-- Node1&#45;&gt;Node3 -->
<g id="edge2_Node000001_Node000003" class="edge">
<title>Node1&#45;&gt;Node3</title>
<g id="a_edge2_Node000001_Node000003"><a xlink:title=" ">
<path fill="none" stroke="#63b8ff" d="M487.81,-63.98C440.26,-54.49 369.95,-40.45 317.66,-30.01"/>
<polygon fill="#63b8ff" stroke="#63b8ff" points="487.4,-67.47 497.9,-65.99 488.77,-60.6 487.4,-67.47"/>
</a>
</g>
</g>
<!-- Node4 -->
<g id="Node000004" class="node">
<title>Node4</title>
<g id="a_Node000004"><a xlink:href="MissionController_8cc.html" target="_top" xlink:title=" ">
<polygon fill="white" stroke="#666666" points="458.5,-30 340.5,-30 340.5,0 458.5,0 458.5,-30"/>
<text text-anchor="start" x="348.5" y="-18" font-family="Helvetica,sans-Serif" font-size="10.00">src/MissionManager</text>
<text text-anchor="middle" x="399.5" y="-7" font-family="Helvetica,sans-Serif" font-size="10.00">/MissionController.cc</text>
</a>
</g>
</g>
<!-- Node1&#45;&gt;Node4 -->
<g id="edge3_Node000001_Node000004" class="edge">
<title>Node1&#45;&gt;Node4</title>
<g id="a_edge3_Node000001_Node000004"><a xlink:title=" ">
<path fill="none" stroke="#63b8ff" d="M510.57,-62.08C487.96,-52.7 456.92,-39.82 433.4,-30.06"/>
<polygon fill="#63b8ff" stroke="#63b8ff" points="509.42,-65.39 520,-65.99 512.1,-58.93 509.42,-65.39"/>
</a>
</g>
</g>
<!-- Node5 -->
<g id="Node000005" class="node">
<title>Node5</title>
<g id="a_Node000005"><a xlink:href="TakeoffMissionItem_8cc.html" target="_top" xlink:title=" ">
<polygon fill="white" stroke="#666666" points="604.5,-30 476.5,-30 476.5,0 604.5,0 604.5,-30"/>
<text text-anchor="start" x="484.5" y="-18" font-family="Helvetica,sans-Serif" font-size="10.00">src/MissionManager</text>
<text text-anchor="middle" x="540.5" y="-7" font-family="Helvetica,sans-Serif" font-size="10.00">/TakeoffMissionItem.cc</text>
</a>
</g>
</g>
<!-- Node1&#45;&gt;Node5 -->
<g id="edge4_Node000001_Node000005" class="edge">
<title>Node1&#45;&gt;Node5</title>
<g id="a_edge4_Node000001_Node000005"><a xlink:title=" ">
<path fill="none" stroke="#63b8ff" d="M540.5,-55.65C540.5,-47.36 540.5,-37.78 540.5,-30.11"/>
<polygon fill="#63b8ff" stroke="#63b8ff" points="537,-55.87 540.5,-65.87 544,-55.87 537,-55.87"/>
</a>
</g>
</g>
<!-- Node6 -->
<g id="Node000006" class="node">
<title>Node6</title>
<g id="a_Node000006"><a xlink:href="VTOLLandingComplexItem_8cc.html" target="_top" xlink:title=" ">
<polygon fill="white" stroke="#666666" points="786,-30 623,-30 623,0 786,0 786,-30"/>
<text text-anchor="start" x="631" y="-18" font-family="Helvetica,sans-Serif" font-size="10.00">src/MissionManager</text>
<text text-anchor="middle" x="704.5" y="-7" font-family="Helvetica,sans-Serif" font-size="10.00">/VTOLLandingComplexItem.cc</text>
</a>
</g>
</g>
<!-- Node1&#45;&gt;Node6 -->
<g id="edge5_Node000001_Node000006" class="edge">
<title>Node1&#45;&gt;Node6</title>
<g id="a_edge5_Node000001_Node000006"><a xlink:title=" ">
<path fill="none" stroke="#63b8ff" d="M573.91,-62.58C600.31,-53.16 637.22,-40 665.07,-30.06"/>
<polygon fill="#63b8ff" stroke="#63b8ff" points="572.59,-59.34 564.35,-65.99 574.94,-65.93 572.59,-59.34"/>
</a>
</g>
</g>
<!-- Node7 -->
<g id="Node000007" class="node">
<title>Node7</title>
<g id="a_Node000007"><a xlink:href="PlanViewSettings_8cc.html" target="_top" xlink:title=" ">
<polygon fill="white" stroke="#666666" points="979,-24.5 804,-24.5 804,-5.5 979,-5.5 979,-24.5"/>
<text text-anchor="middle" x="891.5" y="-12.5" font-family="Helvetica,sans-Serif" font-size="10.00">src/Settings/PlanViewSettings.cc</text>
</a>
</g>
</g>
<!-- Node1&#45;&gt;Node7 -->
<g id="edge6_Node000001_Node000007" class="edge">
<title>Node1&#45;&gt;Node7</title>
<g id="a_edge6_Node000001_Node000007"><a xlink:title=" ">
<path fill="none" stroke="#63b8ff" d="M601.63,-64.31C669.27,-53.04 777.07,-35.07 840.4,-24.52"/>
<polygon fill="#63b8ff" stroke="#63b8ff" points="600.83,-60.9 591.54,-65.99 601.98,-67.8 600.83,-60.9"/>
</a>
</g>
</g>
<!-- Node8 -->
<g id="Node000008" class="node">
<title>Node8</title>
<g id="a_Node000008"><a xlink:href="SettingsManager_8cc.html" target="_top" xlink:title=" ">
<polygon fill="white" stroke="#666666" points="1169.5,-24.5 997.5,-24.5 997.5,-5.5 1169.5,-5.5 1169.5,-24.5"/>
<text text-anchor="middle" x="1083.5" y="-12.5" font-family="Helvetica,sans-Serif" font-size="10.00">src/Settings/SettingsManager.cc</text>
</a>
</g>
</g>
<!-- Node1&#45;&gt;Node8 -->
<g id="edge7_Node000001_Node000008" class="edge">
<title>Node1&#45;&gt;Node8</title>
<g id="a_edge7_Node000001_Node000008"><a xlink:title=" ">
<path fill="none" stroke="#63b8ff" d="M635.68,-66.36C726.47,-58.29 867,-44.98 988.5,-30 1001.57,-28.39 1015.62,-26.44 1028.8,-24.51"/>
<polygon fill="#63b8ff" stroke="#63b8ff" points="635.34,-62.88 625.68,-67.25 635.95,-69.85 635.34,-62.88"/>
</a>
</g>
</g>
</g>
</svg>
