<?xml version="1.0" encoding="UTF-8" standalone="no"?>
<!DOCTYPE svg PUBLIC "-//W3C//DTD SVG 1.1//EN"
 "http://www.w3.org/Graphics/SVG/1.1/DTD/svg11.dtd">
<!-- Generated by graphviz version 2.43.0 (0)
 -->
<!-- Title: src/PositionManager/PositionManager.h Pages: 1 -->
<svg width="1010pt" height="104pt"
 viewBox="0.00 0.00 1010.00 104.00" xmlns="http://www.w3.org/2000/svg" xmlns:xlink="http://www.w3.org/1999/xlink">
<g id="graph0" class="graph" transform="scale(1 1) rotate(0) translate(4 100)">
<title>src/PositionManager/PositionManager.h</title>
<!-- Node1 -->
<g id="Node000001" class="node">
<title>Node1</title>
<g id="a_Node000001"><a xlink:title=" ">
<polygon fill="#999999" stroke="#666666" points="505.5,-96 389.5,-96 389.5,-66 505.5,-66 505.5,-96"/>
<text text-anchor="start" x="397.5" y="-84" font-family="Helvetica,sans-Serif" font-size="10.00">src/PositionManager</text>
<text text-anchor="middle" x="447.5" y="-73" font-family="Helvetica,sans-Serif" font-size="10.00">/PositionManager.h</text>
</a>
</g>
</g>
<!-- Node2 -->
<g id="Node000002" class="node">
<title>Node2</title>
<g id="a_Node000002"><a xlink:title=" ">
<polygon fill="#e0e0e0" stroke="#999999" points="143,-24.5 0,-24.5 0,-5.5 143,-5.5 143,-24.5"/>
<text text-anchor="middle" x="71.5" y="-12.5" font-family="Helvetica,sans-Serif" font-size="10.00">QtCore/QLoggingCategory</text>
</a>
</g>
</g>
<!-- Node1&#45;&gt;Node2 -->
<g id="edge1_Node000001_Node000002" class="edge">
<title>Node1&#45;&gt;Node2</title>
<g id="a_edge1_Node000001_Node000002"><a xlink:title=" ">
<path fill="none" stroke="#63b8ff" d="M389.28,-70.19C329.77,-60.15 234.68,-44.07 152.5,-30 145.44,-28.79 138.04,-27.52 130.69,-26.25"/>
<polygon fill="#63b8ff" stroke="#63b8ff" points="131.2,-22.79 120.76,-24.54 130.01,-29.69 131.2,-22.79"/>
</a>
</g>
</g>
<!-- Node3 -->
<g id="Node000003" class="node">
<title>Node3</title>
<g id="a_Node000003"><a xlink:title=" ">
<polygon fill="#e0e0e0" stroke="#999999" points="253.5,-24.5 161.5,-24.5 161.5,-5.5 253.5,-5.5 253.5,-24.5"/>
<text text-anchor="middle" x="207.5" y="-12.5" font-family="Helvetica,sans-Serif" font-size="10.00">QtCore/QObject</text>
</a>
</g>
</g>
<!-- Node1&#45;&gt;Node3 -->
<g id="edge2_Node000001_Node000003" class="edge">
<title>Node1&#45;&gt;Node3</title>
<g id="a_edge2_Node000001_Node000003"><a xlink:title=" ">
<path fill="none" stroke="#63b8ff" d="M394.83,-65.95C351.07,-54.29 289.65,-37.91 249.24,-27.13"/>
<polygon fill="#63b8ff" stroke="#63b8ff" points="250,-23.71 239.44,-24.52 248.2,-30.48 250,-23.71"/>
</a>
</g>
</g>
<!-- Node4 -->
<g id="Node000004" class="node">
<title>Node4</title>
<g id="a_Node000004"><a xlink:title=" ">
<polygon fill="#e0e0e0" stroke="#999999" points="437,-24.5 272,-24.5 272,-5.5 437,-5.5 437,-24.5"/>
<text text-anchor="middle" x="354.5" y="-12.5" font-family="Helvetica,sans-Serif" font-size="10.00">QtPositioning/QGeoCoordinate</text>
</a>
</g>
</g>
<!-- Node1&#45;&gt;Node4 -->
<g id="edge3_Node000001_Node000004" class="edge">
<title>Node1&#45;&gt;Node4</title>
<g id="a_edge3_Node000001_Node000004"><a xlink:title=" ">
<path fill="none" stroke="#63b8ff" d="M426.86,-65.8C411.56,-55.27 390.79,-40.97 375.42,-30.4"/>
<polygon fill="#63b8ff" stroke="#63b8ff" points="377.3,-27.44 367.08,-24.66 373.34,-33.21 377.3,-27.44"/>
</a>
</g>
</g>
<!-- Node5 -->
<g id="Node000005" class="node">
<title>Node5</title>
<g id="a_Node000005"><a xlink:title=" ">
<polygon fill="#e0e0e0" stroke="#999999" points="625.5,-24.5 455.5,-24.5 455.5,-5.5 625.5,-5.5 625.5,-24.5"/>
<text text-anchor="middle" x="540.5" y="-12.5" font-family="Helvetica,sans-Serif" font-size="10.00">QtPositioning/QGeoPositionInfo</text>
</a>
</g>
</g>
<!-- Node1&#45;&gt;Node5 -->
<g id="edge4_Node000001_Node000005" class="edge">
<title>Node1&#45;&gt;Node5</title>
<g id="a_edge4_Node000001_Node000005"><a xlink:title=" ">
<path fill="none" stroke="#63b8ff" d="M468.14,-65.8C483.44,-55.27 504.21,-40.97 519.58,-30.4"/>
<polygon fill="#63b8ff" stroke="#63b8ff" points="521.66,-33.21 527.92,-24.66 517.7,-27.44 521.66,-33.21"/>
</a>
</g>
</g>
<!-- Node6 -->
<g id="Node000006" class="node">
<title>Node6</title>
<g id="a_Node000006"><a xlink:title=" ">
<polygon fill="#e0e0e0" stroke="#999999" points="795,-30 644,-30 644,0 795,0 795,-30"/>
<text text-anchor="start" x="652" y="-18" font-family="Helvetica,sans-Serif" font-size="10.00">QtPositioning/QGeoPosition</text>
<text text-anchor="middle" x="719.5" y="-7" font-family="Helvetica,sans-Serif" font-size="10.00">InfoSource</text>
</a>
</g>
</g>
<!-- Node1&#45;&gt;Node6 -->
<g id="edge5_Node000001_Node000006" class="edge">
<title>Node1&#45;&gt;Node6</title>
<g id="a_edge5_Node000001_Node000006"><a xlink:title=" ">
<path fill="none" stroke="#63b8ff" d="M505.52,-66.35C547.73,-56.42 605.07,-42.92 649.78,-32.41"/>
<polygon fill="#63b8ff" stroke="#63b8ff" points="650.76,-35.77 659.69,-30.07 649.15,-28.96 650.76,-35.77"/>
</a>
</g>
</g>
<!-- Node7 -->
<g id="Node000007" class="node">
<title>Node7</title>
<g id="a_Node000007"><a xlink:title=" ">
<polygon fill="#e0e0e0" stroke="#999999" points="1002,-24.5 813,-24.5 813,-5.5 1002,-5.5 1002,-24.5"/>
<text text-anchor="middle" x="907.5" y="-12.5" font-family="Helvetica,sans-Serif" font-size="10.00">QtQmlIntegration/QtQmlIntegration</text>
</a>
</g>
</g>
<!-- Node1&#45;&gt;Node7 -->
<g id="edge6_Node000001_Node000007" class="edge">
<title>Node1&#45;&gt;Node7</title>
<g id="a_edge6_Node000001_Node000007"><a xlink:title=" ">
<path fill="none" stroke="#63b8ff" d="M505.76,-71.89C589.88,-60.19 745.21,-38.58 836.11,-25.93"/>
<polygon fill="#63b8ff" stroke="#63b8ff" points="836.63,-29.39 846.06,-24.55 835.67,-22.46 836.63,-29.39"/>
</a>
</g>
</g>
</g>
</svg>
