<?xml version="1.0" encoding="UTF-8" standalone="no"?>
<!DOCTYPE svg PUBLIC "-//W3C//DTD SVG 1.1//EN"
 "http://www.w3.org/Graphics/SVG/1.1/DTD/svg11.dtd">
<!-- Generated by graphviz version 2.43.0 (0)
 -->
<!-- Title: src/Vehicle/VehicleSetup/PX4FirmwareUpgradeThread.h Pages: 1 -->
<svg width="366pt" height="104pt"
 viewBox="0.00 0.00 366.00 104.00" xmlns="http://www.w3.org/2000/svg" xmlns:xlink="http://www.w3.org/1999/xlink">
<g id="graph0" class="graph" transform="scale(1 1) rotate(0) translate(4 100)">
<title>src/Vehicle/VehicleSetup/PX4FirmwareUpgradeThread.h</title>
<!-- Node1 -->
<g id="Node000001" class="node">
<title>Node1</title>
<g id="a_Node000001"><a xlink:title=" ">
<polygon fill="#999999" stroke="#666666" points="261.5,-96 93.5,-96 93.5,-66 261.5,-66 261.5,-96"/>
<text text-anchor="start" x="101.5" y="-84" font-family="Helvetica,sans-Serif" font-size="10.00">src/Vehicle/VehicleSetup</text>
<text text-anchor="middle" x="177.5" y="-73" font-family="Helvetica,sans-Serif" font-size="10.00">/PX4FirmwareUpgradeThread.h</text>
</a>
</g>
</g>
<!-- Node2 -->
<g id="Node000002" class="node">
<title>Node2</title>
<g id="a_Node000002"><a xlink:href="FirmwareUpgradeController_8cc.html" target="_top" xlink:title=" ">
<polygon fill="white" stroke="#666666" points="167,-30 0,-30 0,0 167,0 167,-30"/>
<text text-anchor="start" x="8" y="-18" font-family="Helvetica,sans-Serif" font-size="10.00">src/Vehicle/VehicleSetup</text>
<text text-anchor="middle" x="83.5" y="-7" font-family="Helvetica,sans-Serif" font-size="10.00">/FirmwareUpgradeController.cc</text>
</a>
</g>
</g>
<!-- Node1&#45;&gt;Node2 -->
<g id="edge1_Node000001_Node000002" class="edge">
<title>Node1&#45;&gt;Node2</title>
<g id="a_edge1_Node000001_Node000002"><a xlink:title=" ">
<path fill="none" stroke="#63b8ff" d="M148.17,-60.03C133.94,-50.34 117.19,-38.94 104.3,-30.16"/>
<polygon fill="#63b8ff" stroke="#63b8ff" points="146.4,-63.06 156.64,-65.8 150.34,-57.28 146.4,-63.06"/>
</a>
</g>
</g>
<!-- Node3 -->
<g id="Node000003" class="node">
<title>Node3</title>
<g id="a_Node000003"><a xlink:href="PX4FirmwareUpgradeThread_8cc.html" target="_top" xlink:title=" ">
<polygon fill="white" stroke="#666666" points="358,-30 185,-30 185,0 358,0 358,-30"/>
<text text-anchor="start" x="193" y="-18" font-family="Helvetica,sans-Serif" font-size="10.00">src/Vehicle/VehicleSetup</text>
<text text-anchor="middle" x="271.5" y="-7" font-family="Helvetica,sans-Serif" font-size="10.00">/PX4FirmwareUpgradeThread.cc</text>
</a>
</g>
</g>
<!-- Node1&#45;&gt;Node3 -->
<g id="edge2_Node000001_Node000003" class="edge">
<title>Node1&#45;&gt;Node3</title>
<g id="a_edge2_Node000001_Node000003"><a xlink:title=" ">
<path fill="none" stroke="#63b8ff" d="M206.83,-60.03C221.06,-50.34 237.81,-38.94 250.7,-30.16"/>
<polygon fill="#63b8ff" stroke="#63b8ff" points="204.66,-57.28 198.36,-65.8 208.6,-63.06 204.66,-57.28"/>
</a>
</g>
</g>
</g>
</svg>
