<?xml version="1.0" encoding="UTF-8" standalone="no"?>
<!DOCTYPE svg PUBLIC "-//W3C//DTD SVG 1.1//EN"
 "http://www.w3.org/Graphics/SVG/1.1/DTD/svg11.dtd">
<!-- Generated by graphviz version 2.43.0 (0)
 -->
<!-- Title: src/FirmwarePlugin/PX4/PX4FirmwarePluginFactory.cc Pages: 1 -->
<svg width="1279pt" height="313pt"
 viewBox="0.00 0.00 1279.00 313.00" xmlns="http://www.w3.org/2000/svg" xmlns:xlink="http://www.w3.org/1999/xlink">
<g id="graph0" class="graph" transform="scale(1 1) rotate(0) translate(4 309)">
<title>src/FirmwarePlugin/PX4/PX4FirmwarePluginFactory.cc</title>
<!-- Node1 -->
<g id="Node000001" class="node">
<title>Node1</title>
<g id="a_Node000001"><a xlink:title=" ">
<polygon fill="#999999" stroke="#666666" points="468,-305 285,-305 285,-275 468,-275 468,-305"/>
<text text-anchor="start" x="293" y="-293" font-family="Helvetica,sans-Serif" font-size="10.00">src/FirmwarePlugin</text>
<text text-anchor="middle" x="376.5" y="-282" font-family="Helvetica,sans-Serif" font-size="10.00">/PX4/PX4FirmwarePluginFactory.cc</text>
</a>
</g>
</g>
<!-- Node2 -->
<g id="Node000002" class="node">
<title>Node2</title>
<g id="a_Node000002"><a xlink:href="PX4FirmwarePluginFactory_8h.html" target="_top" xlink:title=" ">
<polygon fill="white" stroke="#666666" points="376.5,-239 222.5,-239 222.5,-220 376.5,-220 376.5,-239"/>
<text text-anchor="middle" x="299.5" y="-227" font-family="Helvetica,sans-Serif" font-size="10.00">PX4FirmwarePluginFactory.h</text>
</a>
</g>
</g>
<!-- Node1&#45;&gt;Node2 -->
<g id="edge1_Node000001_Node000002" class="edge">
<title>Node1&#45;&gt;Node2</title>
<g id="a_edge1_Node000001_Node000002"><a xlink:title=" ">
<path fill="none" stroke="#63b8ff" d="M357.86,-274.84C346.11,-265.91 330.97,-254.41 319.05,-245.35"/>
<polygon fill="#63b8ff" stroke="#63b8ff" points="321.12,-242.53 311.04,-239.27 316.88,-248.1 321.12,-242.53"/>
</a>
</g>
</g>
<!-- Node15 -->
<g id="Node000015" class="node">
<title>Node15</title>
<g id="a_Node000015"><a xlink:href="PX4FirmwarePlugin_8h.html" target="_top" xlink:title=" ">
<polygon fill="white" stroke="#666666" points="514.5,-239 394.5,-239 394.5,-220 514.5,-220 514.5,-239"/>
<text text-anchor="middle" x="454.5" y="-227" font-family="Helvetica,sans-Serif" font-size="10.00">PX4FirmwarePlugin.h</text>
</a>
</g>
</g>
<!-- Node1&#45;&gt;Node15 -->
<g id="edge17_Node000001_Node000015" class="edge">
<title>Node1&#45;&gt;Node15</title>
<g id="a_edge17_Node000001_Node000015"><a xlink:title=" ">
<path fill="none" stroke="#63b8ff" d="M395.38,-274.84C407.28,-265.91 422.62,-254.41 434.7,-245.35"/>
<polygon fill="#63b8ff" stroke="#63b8ff" points="436.91,-248.07 442.81,-239.27 432.71,-242.47 436.91,-248.07"/>
</a>
</g>
</g>
<!-- Node3 -->
<g id="Node000003" class="node">
<title>Node3</title>
<g id="a_Node000003"><a xlink:href="FirmwarePluginFactory_8h.html" target="_top" xlink:title=" ">
<polygon fill="white" stroke="#666666" points="392,-184 257,-184 257,-165 392,-165 392,-184"/>
<text text-anchor="middle" x="324.5" y="-172" font-family="Helvetica,sans-Serif" font-size="10.00">FirmwarePluginFactory.h</text>
</a>
</g>
</g>
<!-- Node2&#45;&gt;Node3 -->
<g id="edge2_Node000002_Node000003" class="edge">
<title>Node2&#45;&gt;Node3</title>
<g id="a_edge2_Node000002_Node000003"><a xlink:title=" ">
<path fill="none" stroke="#63b8ff" d="M303.63,-219.75C307.01,-212.57 311.92,-202.18 316.12,-193.27"/>
<polygon fill="#63b8ff" stroke="#63b8ff" points="319.35,-194.63 320.45,-184.09 313.02,-191.64 319.35,-194.63"/>
</a>
</g>
</g>
<!-- Node6 -->
<g id="Node000006" class="node">
<title>Node6</title>
<g id="a_Node000006"><a xlink:href="QGCMAVLink_8h.html" target="_top" xlink:title=" ">
<polygon fill="white" stroke="#666666" points="366,-129 277,-129 277,-110 366,-110 366,-129"/>
<text text-anchor="middle" x="321.5" y="-117" font-family="Helvetica,sans-Serif" font-size="10.00">QGCMAVLink.h</text>
</a>
</g>
</g>
<!-- Node2&#45;&gt;Node6 -->
<g id="edge16_Node000002_Node000006" class="edge">
<title>Node2&#45;&gt;Node6</title>
<g id="a_edge16_Node000002_Node000006"><a xlink:title=" ">
<path fill="none" stroke="#63b8ff" d="M283.49,-219.97C264.03,-208.41 235.22,-186.71 247.5,-165 255.67,-150.55 270.62,-140.27 284.96,-133.26"/>
<polygon fill="#63b8ff" stroke="#63b8ff" points="286.51,-136.4 294.21,-129.12 283.65,-130.01 286.51,-136.4"/>
</a>
</g>
</g>
<!-- Node4 -->
<g id="Node000004" class="node">
<title>Node4</title>
<g id="a_Node000004"><a xlink:title=" ">
<polygon fill="#e0e0e0" stroke="#999999" points="108.5,-74 30.5,-74 30.5,-55 108.5,-55 108.5,-74"/>
<text text-anchor="middle" x="69.5" y="-62" font-family="Helvetica,sans-Serif" font-size="10.00">QtCore/QList</text>
</a>
</g>
</g>
<!-- Node3&#45;&gt;Node4 -->
<g id="edge3_Node000003_Node000004" class="edge">
<title>Node3&#45;&gt;Node4</title>
<g id="a_edge3_Node000003_Node000004"><a xlink:title=" ">
<path fill="none" stroke="#63b8ff" d="M297.83,-164.97C272.3,-156.58 232.84,-143.02 199.5,-129 162.34,-113.37 120.68,-92.38 94.76,-78.89"/>
<polygon fill="#63b8ff" stroke="#63b8ff" points="96.13,-75.66 85.65,-74.12 92.88,-81.86 96.13,-75.66"/>
</a>
</g>
</g>
<!-- Node5 -->
<g id="Node000005" class="node">
<title>Node5</title>
<g id="a_Node000005"><a xlink:title=" ">
<polygon fill="#e0e0e0" stroke="#999999" points="684,-74 541,-74 541,-55 684,-55 684,-74"/>
<text text-anchor="middle" x="612.5" y="-62" font-family="Helvetica,sans-Serif" font-size="10.00">QtCore/QLoggingCategory</text>
</a>
</g>
</g>
<!-- Node3&#45;&gt;Node5 -->
<g id="edge4_Node000003_Node000005" class="edge">
<title>Node3&#45;&gt;Node5</title>
<g id="a_edge4_Node000003_Node000005"><a xlink:title=" ">
<path fill="none" stroke="#63b8ff" d="M339.45,-164.92C362.92,-151.71 410.11,-126.24 452.5,-110 489.06,-95.99 531.86,-84.32 563.99,-76.45"/>
<polygon fill="#63b8ff" stroke="#63b8ff" points="565.12,-79.78 574.02,-74.03 563.48,-72.98 565.12,-79.78"/>
</a>
</g>
</g>
<!-- Node3&#45;&gt;Node6 -->
<g id="edge5_Node000003_Node000006" class="edge">
<title>Node3&#45;&gt;Node6</title>
<g id="a_edge5_Node000003_Node000006"><a xlink:title=" ">
<path fill="none" stroke="#63b8ff" d="M324,-164.75C323.61,-157.8 323.05,-147.85 322.55,-139.13"/>
<polygon fill="#63b8ff" stroke="#63b8ff" points="326.05,-138.88 321.99,-129.09 319.06,-139.27 326.05,-138.88"/>
</a>
</g>
</g>
<!-- Node6&#45;&gt;Node4 -->
<g id="edge6_Node000006_Node000004" class="edge">
<title>Node6&#45;&gt;Node4</title>
<g id="a_edge6_Node000006_Node000004"><a xlink:title=" ">
<path fill="none" stroke="#63b8ff" d="M281.01,-109.98C236.81,-100.69 166.03,-85.8 118.67,-75.84"/>
<polygon fill="#63b8ff" stroke="#63b8ff" points="119.15,-72.37 108.64,-73.73 117.71,-79.22 119.15,-72.37"/>
</a>
</g>
</g>
<!-- Node6&#45;&gt;Node5 -->
<g id="edge7_Node000006_Node000005" class="edge">
<title>Node6&#45;&gt;Node5</title>
<g id="a_edge7_Node000006_Node000005"><a xlink:title=" ">
<path fill="none" stroke="#63b8ff" d="M366.01,-110.39C416.82,-101.14 500.06,-85.98 555.55,-75.87"/>
<polygon fill="#63b8ff" stroke="#63b8ff" points="556.37,-79.28 565.58,-74.05 555.11,-72.39 556.37,-79.28"/>
</a>
</g>
</g>
<!-- Node7 -->
<g id="Node000007" class="node">
<title>Node7</title>
<g id="a_Node000007"><a xlink:title=" ">
<polygon fill="#e0e0e0" stroke="#999999" points="919.5,-74 827.5,-74 827.5,-55 919.5,-55 919.5,-74"/>
<text text-anchor="middle" x="873.5" y="-62" font-family="Helvetica,sans-Serif" font-size="10.00">QtCore/QObject</text>
</a>
</g>
</g>
<!-- Node6&#45;&gt;Node7 -->
<g id="edge8_Node000006_Node000007" class="edge">
<title>Node6&#45;&gt;Node7</title>
<g id="a_edge8_Node000006_Node000007"><a xlink:title=" ">
<path fill="none" stroke="#63b8ff" d="M366.15,-115.47C451.64,-109.45 644.57,-94.86 817.28,-74.07"/>
<polygon fill="#63b8ff" stroke="#63b8ff" points="817.81,-77.54 827.32,-72.86 816.97,-70.59 817.81,-77.54"/>
</a>
</g>
</g>
<!-- Node8 -->
<g id="Node000008" class="node">
<title>Node8</title>
<g id="a_Node000008"><a xlink:title=" ">
<polygon fill="#e0e0e0" stroke="#999999" points="523,-74 434,-74 434,-55 523,-55 523,-74"/>
<text text-anchor="middle" x="478.5" y="-62" font-family="Helvetica,sans-Serif" font-size="10.00">QtCore/QString</text>
</a>
</g>
</g>
<!-- Node6&#45;&gt;Node8 -->
<g id="edge9_Node000006_Node000008" class="edge">
<title>Node6&#45;&gt;Node8</title>
<g id="a_edge9_Node000006_Node000008"><a xlink:title=" ">
<path fill="none" stroke="#63b8ff" d="M346.72,-109.98C372.86,-101.16 413.9,-87.31 443.23,-77.41"/>
<polygon fill="#63b8ff" stroke="#63b8ff" points="444.72,-80.6 453.08,-74.08 442.48,-73.96 444.72,-80.6"/>
</a>
</g>
</g>
<!-- Node9 -->
<g id="Node000009" class="node">
<title>Node9</title>
<g id="a_Node000009"><a xlink:title=" ">
<polygon fill="#e0e0e0" stroke="#999999" points="416,-74 227,-74 227,-55 416,-55 416,-74"/>
<text text-anchor="middle" x="321.5" y="-62" font-family="Helvetica,sans-Serif" font-size="10.00">QtQmlIntegration/QtQmlIntegration</text>
</a>
</g>
</g>
<!-- Node6&#45;&gt;Node9 -->
<g id="edge10_Node000006_Node000009" class="edge">
<title>Node6&#45;&gt;Node9</title>
<g id="a_edge10_Node000006_Node000009"><a xlink:title=" ">
<path fill="none" stroke="#63b8ff" d="M321.5,-109.75C321.5,-102.8 321.5,-92.85 321.5,-84.13"/>
<polygon fill="#63b8ff" stroke="#63b8ff" points="325,-84.09 321.5,-74.09 318,-84.09 325,-84.09"/>
</a>
</g>
</g>
<!-- Node10 -->
<g id="Node000010" class="node">
<title>Node10</title>
<g id="a_Node000010"><a xlink:href="MAVLinkLib_8h.html" target="_top" xlink:title=" ">
<polygon fill="white" stroke="#666666" points="208.5,-74 126.5,-74 126.5,-55 208.5,-55 208.5,-74"/>
<text text-anchor="middle" x="167.5" y="-62" font-family="Helvetica,sans-Serif" font-size="10.00">MAVLinkLib.h</text>
</a>
</g>
</g>
<!-- Node6&#45;&gt;Node10 -->
<g id="edge11_Node000006_Node000010" class="edge">
<title>Node6&#45;&gt;Node10</title>
<g id="a_edge11_Node000006_Node000010"><a xlink:title=" ">
<path fill="none" stroke="#63b8ff" d="M296.76,-109.98C271.13,-101.16 230.87,-87.31 202.09,-77.41"/>
<polygon fill="#63b8ff" stroke="#63b8ff" points="203.03,-74.03 192.44,-74.08 200.75,-80.65 203.03,-74.03"/>
</a>
</g>
</g>
<!-- Node11 -->
<g id="Node000011" class="node">
<title>Node11</title>
<g id="a_Node000011"><a xlink:title=" ">
<polygon fill="#e0e0e0" stroke="#999999" points="53,-19 0,-19 0,0 53,0 53,-19"/>
<text text-anchor="middle" x="26.5" y="-7" font-family="Helvetica,sans-Serif" font-size="10.00">stdint.h</text>
</a>
</g>
</g>
<!-- Node10&#45;&gt;Node11 -->
<g id="edge12_Node000010_Node000011" class="edge">
<title>Node10&#45;&gt;Node11</title>
<g id="a_edge12_Node000010_Node000011"><a xlink:title=" ">
<path fill="none" stroke="#63b8ff" d="M144.85,-54.98C121.65,-46.27 85.38,-32.63 59.1,-22.75"/>
<polygon fill="#63b8ff" stroke="#63b8ff" points="60.16,-19.41 49.57,-19.17 57.7,-25.97 60.16,-19.41"/>
</a>
</g>
</g>
<!-- Node12 -->
<g id="Node000012" class="node">
<title>Node12</title>
<g id="a_Node000012"><a xlink:title=" ">
<polygon fill="#e0e0e0" stroke="#999999" points="169.5,-19 71.5,-19 71.5,0 169.5,0 169.5,-19"/>
<text text-anchor="middle" x="120.5" y="-7" font-family="Helvetica,sans-Serif" font-size="10.00">mavlink_types.h</text>
</a>
</g>
</g>
<!-- Node10&#45;&gt;Node12 -->
<g id="edge13_Node000010_Node000012" class="edge">
<title>Node10&#45;&gt;Node12</title>
<g id="a_edge13_Node000010_Node000012"><a xlink:title=" ">
<path fill="none" stroke="#63b8ff" d="M159.74,-54.75C153.03,-47.18 143.16,-36.05 134.99,-26.84"/>
<polygon fill="#63b8ff" stroke="#63b8ff" points="137.37,-24.25 128.12,-19.09 132.13,-28.89 137.37,-24.25"/>
</a>
</g>
</g>
<!-- Node13 -->
<g id="Node000013" class="node">
<title>Node13</title>
<g id="a_Node000013"><a xlink:title=" ">
<polygon fill="#e0e0e0" stroke="#999999" points="243.5,-19 187.5,-19 187.5,0 243.5,0 243.5,-19"/>
<text text-anchor="middle" x="215.5" y="-7" font-family="Helvetica,sans-Serif" font-size="10.00">stddef.h</text>
</a>
</g>
</g>
<!-- Node10&#45;&gt;Node13 -->
<g id="edge14_Node000010_Node000013" class="edge">
<title>Node10&#45;&gt;Node13</title>
<g id="a_edge14_Node000010_Node000013"><a xlink:title=" ">
<path fill="none" stroke="#63b8ff" d="M175.43,-54.75C182.35,-47.11 192.57,-35.82 200.95,-26.56"/>
<polygon fill="#63b8ff" stroke="#63b8ff" points="203.6,-28.85 207.72,-19.09 198.41,-24.15 203.6,-28.85"/>
</a>
</g>
</g>
<!-- Node14 -->
<g id="Node000014" class="node">
<title>Node14</title>
<g id="a_Node000014"><a xlink:title=" ">
<polygon fill="#e0e0e0" stroke="#999999" points="327,-19 262,-19 262,0 327,0 327,-19"/>
<text text-anchor="middle" x="294.5" y="-7" font-family="Helvetica,sans-Serif" font-size="10.00">mavlink.h</text>
</a>
</g>
</g>
<!-- Node10&#45;&gt;Node14 -->
<g id="edge15_Node000010_Node000014" class="edge">
<title>Node10&#45;&gt;Node14</title>
<g id="a_edge15_Node000010_Node000014"><a xlink:title=" ">
<path fill="none" stroke="#63b8ff" d="M187.9,-54.98C208.52,-46.38 240.61,-32.99 264.19,-23.15"/>
<polygon fill="#63b8ff" stroke="#63b8ff" points="265.84,-26.25 273.72,-19.17 263.15,-19.79 265.84,-26.25"/>
</a>
</g>
</g>
<!-- Node15&#45;&gt;Node6 -->
<g id="edge37_Node000015_Node000006" class="edge">
<title>Node15&#45;&gt;Node6</title>
<g id="a_edge37_Node000015_Node000006"><a xlink:title=" ">
<path fill="none" stroke="#63b8ff" d="M448.67,-219.85C439.54,-206.78 420.82,-181.76 400.5,-165 385.21,-152.39 365.86,-141.43 350.13,-133.53"/>
<polygon fill="#63b8ff" stroke="#63b8ff" points="351.4,-130.26 340.88,-129.03 348.34,-136.55 351.4,-130.26"/>
</a>
</g>
</g>
<!-- Node16 -->
<g id="Node000016" class="node">
<title>Node16</title>
<g id="a_Node000016"><a xlink:href="FirmwarePlugin_8h.html" target="_top" xlink:title=" ">
<polygon fill="white" stroke="#666666" points="565,-184 464,-184 464,-165 565,-165 565,-184"/>
<text text-anchor="middle" x="514.5" y="-172" font-family="Helvetica,sans-Serif" font-size="10.00">FirmwarePlugin.h</text>
</a>
</g>
</g>
<!-- Node15&#45;&gt;Node16 -->
<g id="edge18_Node000015_Node000016" class="edge">
<title>Node15&#45;&gt;Node16</title>
<g id="a_edge18_Node000015_Node000016"><a xlink:title=" ">
<path fill="none" stroke="#63b8ff" d="M464.14,-219.98C473.01,-212.15 486.37,-200.34 497.11,-190.86"/>
<polygon fill="#63b8ff" stroke="#63b8ff" points="499.51,-193.41 504.68,-184.17 494.87,-188.17 499.51,-193.41"/>
</a>
</g>
</g>
<!-- Node16&#45;&gt;Node4 -->
<g id="edge19_Node000016_Node000004" class="edge">
<title>Node16&#45;&gt;Node4</title>
<g id="a_edge19_Node000016_Node000004"><a xlink:title=" ">
<path fill="none" stroke="#63b8ff" d="M463.94,-166.39C413.72,-158.86 334.72,-145.76 267.5,-129 208.5,-114.29 141.42,-91.45 102.43,-77.54"/>
<polygon fill="#63b8ff" stroke="#63b8ff" points="103.28,-74.12 92.68,-74.04 100.91,-80.71 103.28,-74.12"/>
</a>
</g>
</g>
<!-- Node16&#45;&gt;Node6 -->
<g id="edge23_Node000016_Node000006" class="edge">
<title>Node16&#45;&gt;Node6</title>
<g id="a_edge23_Node000016_Node000006"><a xlink:title=" ">
<path fill="none" stroke="#63b8ff" d="M483.49,-164.98C450.67,-155.97 398.7,-141.7 362.51,-131.76"/>
<polygon fill="#63b8ff" stroke="#63b8ff" points="363.32,-128.36 352.75,-129.08 361.47,-135.11 363.32,-128.36"/>
</a>
</g>
</g>
<!-- Node16&#45;&gt;Node8 -->
<g id="edge20_Node000016_Node000008" class="edge">
<title>Node16&#45;&gt;Node8</title>
<g id="a_edge20_Node000016_Node000008"><a xlink:title=" ">
<path fill="none" stroke="#63b8ff" d="M493.98,-165C479.48,-157.77 461.15,-145.86 452.5,-129 444.63,-113.67 453.95,-95.4 463.55,-82.4"/>
<polygon fill="#63b8ff" stroke="#63b8ff" points="466.49,-84.32 470.03,-74.34 461.04,-79.94 466.49,-84.32"/>
</a>
</g>
</g>
<!-- Node17 -->
<g id="Node000017" class="node">
<title>Node17</title>
<g id="a_Node000017"><a xlink:title=" ">
<polygon fill="#e0e0e0" stroke="#999999" points="574,-129 461,-129 461,-110 574,-110 574,-129"/>
<text text-anchor="middle" x="517.5" y="-117" font-family="Helvetica,sans-Serif" font-size="10.00">QtCore/QVariantList</text>
</a>
</g>
</g>
<!-- Node16&#45;&gt;Node17 -->
<g id="edge21_Node000016_Node000017" class="edge">
<title>Node16&#45;&gt;Node17</title>
<g id="a_edge21_Node000016_Node000017"><a xlink:title=" ">
<path fill="none" stroke="#63b8ff" d="M515,-164.75C515.39,-157.8 515.95,-147.85 516.45,-139.13"/>
<polygon fill="#63b8ff" stroke="#63b8ff" points="519.94,-139.27 517.01,-129.09 512.95,-138.88 519.94,-139.27"/>
</a>
</g>
</g>
<!-- Node18 -->
<g id="Node000018" class="node">
<title>Node18</title>
<g id="a_Node000018"><a xlink:title=" ">
<polygon fill="#e0e0e0" stroke="#999999" points="757,-129 592,-129 592,-110 757,-110 757,-129"/>
<text text-anchor="middle" x="674.5" y="-117" font-family="Helvetica,sans-Serif" font-size="10.00">QtPositioning/QGeoCoordinate</text>
</a>
</g>
</g>
<!-- Node16&#45;&gt;Node18 -->
<g id="edge22_Node000016_Node000018" class="edge">
<title>Node16&#45;&gt;Node18</title>
<g id="a_edge22_Node000016_Node000018"><a xlink:title=" ">
<path fill="none" stroke="#63b8ff" d="M540.21,-164.98C566.95,-156.13 609.03,-142.19 638.95,-132.28"/>
<polygon fill="#63b8ff" stroke="#63b8ff" points="640.2,-135.55 648.59,-129.08 638,-128.9 640.2,-135.55"/>
</a>
</g>
</g>
<!-- Node19 -->
<g id="Node000019" class="node">
<title>Node19</title>
<g id="a_Node000019"><a xlink:href="FollowMe_8h.html" target="_top" xlink:title=" ">
<polygon fill="white" stroke="#666666" points="958.5,-129 886.5,-129 886.5,-110 958.5,-110 958.5,-129"/>
<text text-anchor="middle" x="922.5" y="-117" font-family="Helvetica,sans-Serif" font-size="10.00">FollowMe.h</text>
</a>
</g>
</g>
<!-- Node16&#45;&gt;Node19 -->
<g id="edge24_Node000016_Node000019" class="edge">
<title>Node16&#45;&gt;Node19</title>
<g id="a_edge24_Node000016_Node000019"><a xlink:title=" ">
<path fill="none" stroke="#63b8ff" d="M565.15,-168.34C633.44,-161.14 759.08,-147.1 875.99,-129.15"/>
<polygon fill="#63b8ff" stroke="#63b8ff" points="876.84,-132.56 886.19,-127.57 875.77,-125.64 876.84,-132.56"/>
</a>
</g>
</g>
<!-- Node22 -->
<g id="Node000022" class="node">
<title>Node22</title>
<g id="a_Node000022"><a xlink:href="FactMetaData_8h.html" target="_top" xlink:title=" ">
<polygon fill="white" stroke="#666666" points="868,-129 775,-129 775,-110 868,-110 868,-129"/>
<text text-anchor="middle" x="821.5" y="-117" font-family="Helvetica,sans-Serif" font-size="10.00">FactMetaData.h</text>
</a>
</g>
</g>
<!-- Node16&#45;&gt;Node22 -->
<g id="edge29_Node000016_Node000022" class="edge">
<title>Node16&#45;&gt;Node22</title>
<g id="a_edge29_Node000016_Node000022"><a xlink:title=" ">
<path fill="none" stroke="#63b8ff" d="M563.82,-164.98C618.67,-155.52 707.11,-140.25 764.77,-130.29"/>
<polygon fill="#63b8ff" stroke="#63b8ff" points="765.55,-133.71 774.81,-128.56 764.36,-126.81 765.55,-133.71"/>
</a>
</g>
</g>
<!-- Node19&#45;&gt;Node5 -->
<g id="edge25_Node000019_Node000005" class="edge">
<title>Node19&#45;&gt;Node5</title>
<g id="a_edge25_Node000019_Node000005"><a xlink:title=" ">
<path fill="none" stroke="#63b8ff" d="M886.16,-111.57C883.23,-111.03 880.32,-110.5 877.5,-110 808.47,-97.69 729.14,-84.49 675.41,-75.69"/>
<polygon fill="#63b8ff" stroke="#63b8ff" points="675.78,-72.21 665.35,-74.05 674.65,-79.12 675.78,-72.21"/>
</a>
</g>
</g>
<!-- Node19&#45;&gt;Node7 -->
<g id="edge26_Node000019_Node000007" class="edge">
<title>Node19&#45;&gt;Node7</title>
<g id="a_edge26_Node000019_Node000007"><a xlink:title=" ">
<path fill="none" stroke="#63b8ff" d="M914.41,-109.75C907.34,-102.11 896.91,-90.82 888.35,-81.56"/>
<polygon fill="#63b8ff" stroke="#63b8ff" points="890.8,-79.06 881.44,-74.09 885.66,-83.81 890.8,-79.06"/>
</a>
</g>
</g>
<!-- Node20 -->
<g id="Node000020" class="node">
<title>Node20</title>
<g id="a_Node000020"><a xlink:title=" ">
<polygon fill="#e0e0e0" stroke="#999999" points="1271,-74 1182,-74 1182,-55 1271,-55 1271,-74"/>
<text text-anchor="middle" x="1226.5" y="-62" font-family="Helvetica,sans-Serif" font-size="10.00">QtCore/QTimer</text>
</a>
</g>
</g>
<!-- Node19&#45;&gt;Node20 -->
<g id="edge27_Node000019_Node000020" class="edge">
<title>Node19&#45;&gt;Node20</title>
<g id="a_edge27_Node000019_Node000020"><a xlink:title=" ">
<path fill="none" stroke="#63b8ff" d="M958.57,-112.21C1011.38,-103 1110.17,-85.78 1171.91,-75.02"/>
<polygon fill="#63b8ff" stroke="#63b8ff" points="1172.61,-78.45 1181.86,-73.28 1171.41,-71.55 1172.61,-78.45"/>
</a>
</g>
</g>
<!-- Node21 -->
<g id="Node000021" class="node">
<title>Node21</title>
<g id="a_Node000021"><a xlink:title=" ">
<polygon fill="#e0e0e0" stroke="#999999" points="1164,-74 1069,-74 1069,-55 1164,-55 1164,-74"/>
<text text-anchor="middle" x="1116.5" y="-62" font-family="Helvetica,sans-Serif" font-size="10.00">QtCore/QVariant</text>
</a>
</g>
</g>
<!-- Node19&#45;&gt;Node21 -->
<g id="edge28_Node000019_Node000021" class="edge">
<title>Node19&#45;&gt;Node21</title>
<g id="a_edge28_Node000019_Node000021"><a xlink:title=" ">
<path fill="none" stroke="#63b8ff" d="M953.67,-109.98C986.66,-100.97 1038.9,-86.7 1075.27,-76.76"/>
<polygon fill="#63b8ff" stroke="#63b8ff" points="1076.36,-80.09 1085.09,-74.08 1074.52,-73.34 1076.36,-80.09"/>
</a>
</g>
</g>
<!-- Node22&#45;&gt;Node5 -->
<g id="edge30_Node000022_Node000005" class="edge">
<title>Node22&#45;&gt;Node5</title>
<g id="a_edge30_Node000022_Node000005"><a xlink:title=" ">
<path fill="none" stroke="#63b8ff" d="M787.92,-109.98C752.15,-100.91 695.38,-86.52 656.16,-76.57"/>
<polygon fill="#63b8ff" stroke="#63b8ff" points="656.9,-73.15 646.34,-74.08 655.18,-79.93 656.9,-73.15"/>
</a>
</g>
</g>
<!-- Node22&#45;&gt;Node7 -->
<g id="edge33_Node000022_Node000007" class="edge">
<title>Node22&#45;&gt;Node7</title>
<g id="a_edge33_Node000022_Node000007"><a xlink:title=" ">
<path fill="none" stroke="#63b8ff" d="M830.09,-109.75C837.66,-102.03 848.88,-90.6 858.01,-81.28"/>
<polygon fill="#63b8ff" stroke="#63b8ff" points="860.57,-83.68 865.07,-74.09 855.57,-78.78 860.57,-83.68"/>
</a>
</g>
</g>
<!-- Node22&#45;&gt;Node8 -->
<g id="edge34_Node000022_Node000008" class="edge">
<title>Node22&#45;&gt;Node8</title>
<g id="a_edge34_Node000022_Node000008"><a xlink:title=" ">
<path fill="none" stroke="#63b8ff" d="M774.99,-111.31C772.12,-110.87 769.27,-110.43 766.5,-110 665.65,-94.45 638.12,-90.42 533.33,-74.12"/>
<polygon fill="#63b8ff" stroke="#63b8ff" points="533.71,-70.64 523.29,-72.56 532.63,-77.56 533.71,-70.64"/>
</a>
</g>
</g>
<!-- Node22&#45;&gt;Node9 -->
<g id="edge36_Node000022_Node000009" class="edge">
<title>Node22&#45;&gt;Node9</title>
<g id="a_edge36_Node000022_Node000009"><a xlink:title=" ">
<path fill="none" stroke="#63b8ff" d="M774.72,-111.1C771.94,-110.71 769.18,-110.34 766.5,-110 650.32,-95.22 516.55,-82.41 426.26,-74.38"/>
<polygon fill="#63b8ff" stroke="#63b8ff" points="426.56,-70.89 416.29,-73.49 425.94,-77.86 426.56,-70.89"/>
</a>
</g>
</g>
<!-- Node22&#45;&gt;Node21 -->
<g id="edge35_Node000022_Node000021" class="edge">
<title>Node22&#45;&gt;Node21</title>
<g id="a_edge35_Node000022_Node000021"><a xlink:title=" ">
<path fill="none" stroke="#63b8ff" d="M868.24,-110.1C919.94,-100.81 1003.26,-85.84 1058.94,-75.84"/>
<polygon fill="#63b8ff" stroke="#63b8ff" points="1059.77,-79.25 1069,-74.03 1058.54,-72.36 1059.77,-79.25"/>
</a>
</g>
</g>
<!-- Node23 -->
<g id="Node000023" class="node">
<title>Node23</title>
<g id="a_Node000023"><a xlink:title=" ">
<polygon fill="#e0e0e0" stroke="#999999" points="809,-74 702,-74 702,-55 809,-55 809,-74"/>
<text text-anchor="middle" x="755.5" y="-62" font-family="Helvetica,sans-Serif" font-size="10.00">QtCore/QJsonArray</text>
</a>
</g>
</g>
<!-- Node22&#45;&gt;Node23 -->
<g id="edge31_Node000022_Node000023" class="edge">
<title>Node22&#45;&gt;Node23</title>
<g id="a_edge31_Node000022_Node000023"><a xlink:title=" ">
<path fill="none" stroke="#63b8ff" d="M810.9,-109.98C801.04,-102.07 786.15,-90.11 774.28,-80.58"/>
<polygon fill="#63b8ff" stroke="#63b8ff" points="776.29,-77.7 766.3,-74.17 771.9,-83.16 776.29,-77.7"/>
</a>
</g>
</g>
<!-- Node24 -->
<g id="Node000024" class="node">
<title>Node24</title>
<g id="a_Node000024"><a xlink:title=" ">
<polygon fill="#e0e0e0" stroke="#999999" points="1051,-74 938,-74 938,-55 1051,-55 1051,-74"/>
<text text-anchor="middle" x="994.5" y="-62" font-family="Helvetica,sans-Serif" font-size="10.00">QtCore/QJsonObject</text>
</a>
</g>
</g>
<!-- Node22&#45;&gt;Node24 -->
<g id="edge32_Node000022_Node000024" class="edge">
<title>Node22&#45;&gt;Node24</title>
<g id="a_edge32_Node000022_Node000024"><a xlink:title=" ">
<path fill="none" stroke="#63b8ff" d="M849.3,-109.98C878.47,-101.05 924.5,-86.94 956.9,-77.02"/>
<polygon fill="#63b8ff" stroke="#63b8ff" points="957.95,-80.36 966.49,-74.08 955.9,-73.66 957.95,-80.36"/>
</a>
</g>
</g>
</g>
</svg>
