<?xml version="1.0" encoding="UTF-8" standalone="no"?>
<!DOCTYPE svg PUBLIC "-//W3C//DTD SVG 1.1//EN"
 "http://www.w3.org/Graphics/SVG/1.1/DTD/svg11.dtd">
<!-- Generated by graphviz version 2.43.0 (0)
 -->
<!-- Title: src/FirmwarePlugin/PX4/PX4ParameterMetaData.h Pages: 1 -->
<!--zoomable 203 -->

<svg id="main" version="1.1" xmlns="http://www.w3.org/2000/svg" xmlns:xlink="http://www.w3.org/1999/xlink" xml:space="preserve" onload="init(evt)">
<style type="text/css"><![CDATA[
.node, .edge {opacity: 0.7;}
.node.selected, .edge.selected {opacity: 1;}
.edge:hover path { stroke: red; }
.edge:hover polygon { stroke: red; fill: red; }
]]></style>

<defs>
  <circle id="rim" cx="0" cy="0" r="7"/>
  <circle id="rim2" cx="0" cy="0" r="3.5"/>
  <g id="zoomPlus">
    <use xlink:href="#rim" fill="#404040"><set attributeName="fill" to="#808080" begin="zoomplus.mouseover" end="zoomplus.mouseout"/></use>
    <path d="M-4,0h8M0,-4v8" fill="none" stroke="white" stroke-width="1.5" pointer-events="none"/>
  </g>
  <g id="zoomMin">
    <use xlink:href="#rim" fill="#404040"><set attributeName="fill" to="#808080" begin="zoomminus.mouseover" end="zoomminus.mouseout"/></use>
    <path d="M-4,0h8" fill="none" stroke="white" stroke-width="1.5" pointer-events="none"/>
  </g>
  <g id="arrowUp" transform="translate(30 24)">
    <use xlink:href="#rim"/>
    <path pointer-events="none" fill="none" stroke="white" stroke-width="1.5" d="M0,-3.0v7 M-2.5,-0.5L0,-3.0L2.5,-0.5"/>
  </g>
  <g id="arrowRight" transform="rotate(90) translate(36 -43)">
    <use xlink:href="#rim"/>
    <path pointer-events="none" fill="none" stroke="white" stroke-width="1.5" d="M0,-3.0v7 M-2.5,-0.5L0,-3.0L2.5,-0.5"/>
  </g>
  <g id="arrowDown" transform="rotate(180) translate(-30 -48)">
    <use xlink:href="#rim"/>
    <path pointer-events="none" fill="none" stroke="white" stroke-width="1.5" d="M0,-3.0v7 M-2.5,-0.5L0,-3.0L2.5,-0.5"/>
  </g>
  <g id="arrowLeft" transform="rotate(270) translate(-36 17)">
    <use xlink:href="#rim"/>
    <path pointer-events="none" fill="none" stroke="white" stroke-width="1.5" d="M0,-3.0v7 M-2.5,-0.5L0,-3.0L2.5,-0.5"/>
  </g>
  <g id="resetDef">
    <use xlink:href="#rim2" fill="#404040"><set attributeName="fill" to="#808080" begin="reset.mouseover" end="reset.mouseout"/></use>
  </g>
</defs>
<script type="application/ecmascript">
var viewWidth = 815;
var viewHeight = 203;
var sectionId = 'dynsection-0';
</script>
<script type="application/ecmascript" xlink:href="svg.min.js"/>
<svg id="graph" class="graph">
<g id="viewport">
<title>src/FirmwarePlugin/PX4/PX4ParameterMetaData.h</title>
<!-- Node1 -->
<g id="Node000001" class="node">
<title>Node1</title>
<g id="a_Node000001"><a xlink:title=" ">
<polygon fill="#999999" stroke="#666666" points="304.5,-195 137.5,-195 137.5,-165 304.5,-165 304.5,-195"/>
<text text-anchor="start" x="145.5" y="-183" font-family="Helvetica,sans-Serif" font-size="10.00">src/FirmwarePlugin</text>
<text text-anchor="middle" x="221" y="-172" font-family="Helvetica,sans-Serif" font-size="10.00">/PX4/PX4ParameterMetaData.h</text>
</a>
</g>
</g>
<!-- Node2 -->
<g id="Node000002" class="node">
<title>Node2</title>
<g id="a_Node000002"><a xlink:href="ParameterMetaData_8h.html" target="_top" xlink:title=" ">
<polygon fill="white" stroke="#666666" points="283,-129 159,-129 159,-110 283,-110 283,-129"/>
<text text-anchor="middle" x="221" y="-117" font-family="Helvetica,sans-Serif" font-size="10.00">ParameterMetaData.h</text>
</a>
</g>
</g>
<!-- Node1&#45;&gt;Node2 -->
<g id="edge1_Node000001_Node000002" class="edge">
<title>Node1&#45;&gt;Node2</title>
<g id="a_edge1_Node000001_Node000002"><a xlink:title=" ">
<path fill="none" stroke="#63b8ff" d="M221,-164.84C221,-157.21 221,-147.7 221,-139.45"/>
<polygon fill="#63b8ff" stroke="#63b8ff" points="224.5,-139.27 221,-129.27 217.5,-139.27 224.5,-139.27"/>
</a>
</g>
</g>
<!-- Node3 -->
<g id="Node000003" class="node">
<title>Node3</title>
<g id="a_Node000003"><a xlink:title=" ">
<polygon fill="#e0e0e0" stroke="#999999" points="108,-74 0,-74 0,-55 108,-55 108,-74"/>
<text text-anchor="middle" x="54" y="-62" font-family="Helvetica,sans-Serif" font-size="10.00">QtCore/QJsonValue</text>
</a>
</g>
</g>
<!-- Node2&#45;&gt;Node3 -->
<g id="edge2_Node000002_Node000003" class="edge">
<title>Node2&#45;&gt;Node3</title>
<g id="a_edge2_Node000002_Node000003"><a xlink:title=" ">
<path fill="none" stroke="#63b8ff" d="M194.17,-109.98C166.13,-101.09 121.95,-87.07 90.7,-77.15"/>
<polygon fill="#63b8ff" stroke="#63b8ff" points="91.63,-73.77 81.04,-74.08 89.51,-80.44 91.63,-73.77"/>
</a>
</g>
</g>
<!-- Node4 -->
<g id="Node000004" class="node">
<title>Node4</title>
<g id="a_Node000004"><a xlink:title=" ">
<polygon fill="#e0e0e0" stroke="#999999" points="256,-19 164,-19 164,0 256,0 256,-19"/>
<text text-anchor="middle" x="210" y="-7" font-family="Helvetica,sans-Serif" font-size="10.00">QtCore/QObject</text>
</a>
</g>
</g>
<!-- Node2&#45;&gt;Node4 -->
<g id="edge3_Node000002_Node000004" class="edge">
<title>Node2&#45;&gt;Node4</title>
<g id="a_edge3_Node000002_Node000004"><a xlink:title=" ">
<path fill="none" stroke="#63b8ff" d="M198.22,-109.89C182.97,-102.79 164.08,-91.08 155,-74 144.77,-54.77 165.2,-36.36 183.99,-24.37"/>
<polygon fill="#63b8ff" stroke="#63b8ff" points="185.89,-27.31 192.67,-19.17 182.29,-21.31 185.89,-27.31"/>
</a>
</g>
</g>
<!-- Node5 -->
<g id="Node000005" class="node">
<title>Node5</title>
<g id="a_Node000005"><a xlink:title=" ">
<polygon fill="#e0e0e0" stroke="#999999" points="277.5,-74 164.5,-74 164.5,-55 277.5,-55 277.5,-74"/>
<text text-anchor="middle" x="221" y="-62" font-family="Helvetica,sans-Serif" font-size="10.00">QtCore/QStringView</text>
</a>
</g>
</g>
<!-- Node2&#45;&gt;Node5 -->
<g id="edge4_Node000002_Node000005" class="edge">
<title>Node2&#45;&gt;Node5</title>
<g id="a_edge4_Node000002_Node000005"><a xlink:title=" ">
<path fill="none" stroke="#63b8ff" d="M221,-109.75C221,-102.8 221,-92.85 221,-84.13"/>
<polygon fill="#63b8ff" stroke="#63b8ff" points="224.5,-84.09 221,-74.09 217.5,-84.09 224.5,-84.09"/>
</a>
</g>
</g>
<!-- Node6 -->
<g id="Node000006" class="node">
<title>Node6</title>
<g id="a_Node000006"><a xlink:title=" ">
<polygon fill="#e0e0e0" stroke="#999999" points="432,-74 296,-74 296,-55 432,-55 432,-74"/>
<text text-anchor="middle" x="364" y="-62" font-family="Helvetica,sans-Serif" font-size="10.00">QtCore/QVersionNumber</text>
</a>
</g>
</g>
<!-- Node2&#45;&gt;Node6 -->
<g id="edge5_Node000002_Node000006" class="edge">
<title>Node2&#45;&gt;Node6</title>
<g id="a_edge5_Node000002_Node000006"><a xlink:title=" ">
<path fill="none" stroke="#63b8ff" d="M243.98,-109.98C267.5,-101.27 304.29,-87.63 330.94,-77.75"/>
<polygon fill="#63b8ff" stroke="#63b8ff" points="332.45,-80.93 340.61,-74.17 330.01,-74.36 332.45,-80.93"/>
</a>
</g>
</g>
<!-- Node7 -->
<g id="Node000007" class="node">
<title>Node7</title>
<g id="a_Node000007"><a xlink:href="FactMetaData_8h.html" target="_top" xlink:title=" ">
<polygon fill="white" stroke="#666666" points="543.5,-74 450.5,-74 450.5,-55 543.5,-55 543.5,-74"/>
<text text-anchor="middle" x="497" y="-62" font-family="Helvetica,sans-Serif" font-size="10.00">FactMetaData.h</text>
</a>
</g>
</g>
<!-- Node2&#45;&gt;Node7 -->
<g id="edge6_Node000002_Node000007" class="edge">
<title>Node2&#45;&gt;Node7</title>
<g id="a_edge6_Node000002_Node000007"><a xlink:title=" ">
<path fill="none" stroke="#63b8ff" d="M265.34,-109.98C313.49,-100.74 390.42,-85.97 442.29,-76.01"/>
<polygon fill="#63b8ff" stroke="#63b8ff" points="443.15,-79.41 452.31,-74.08 441.83,-72.53 443.15,-79.41"/>
</a>
</g>
</g>
<!-- Node7&#45;&gt;Node4 -->
<g id="edge8_Node000007_Node000004" class="edge">
<title>Node7&#45;&gt;Node4</title>
<g id="a_edge8_Node000007_Node000004"><a xlink:title=" ">
<path fill="none" stroke="#63b8ff" d="M450.89,-54.98C400.72,-45.72 320.49,-30.9 266.56,-20.94"/>
<polygon fill="#63b8ff" stroke="#63b8ff" points="266.94,-17.46 256.47,-19.08 265.67,-24.34 266.94,-17.46"/>
</a>
</g>
</g>
<!-- Node8 -->
<g id="Node000008" class="node">
<title>Node8</title>
<g id="a_Node000008"><a xlink:title=" ">
<polygon fill="#e0e0e0" stroke="#999999" points="379,-19 293,-19 293,0 379,0 379,-19"/>
<text text-anchor="middle" x="336" y="-7" font-family="Helvetica,sans-Serif" font-size="10.00">QtCore/QHash</text>
</a>
</g>
</g>
<!-- Node7&#45;&gt;Node8 -->
<g id="edge7_Node000007_Node000008" class="edge">
<title>Node7&#45;&gt;Node8</title>
<g id="a_edge7_Node000007_Node000008"><a xlink:title=" ">
<path fill="none" stroke="#63b8ff" d="M471.13,-54.98C444.22,-46.13 401.88,-32.19 371.77,-22.28"/>
<polygon fill="#63b8ff" stroke="#63b8ff" points="372.66,-18.88 362.07,-19.08 370.47,-25.53 372.66,-18.88"/>
</a>
</g>
</g>
<!-- Node9 -->
<g id="Node000009" class="node">
<title>Node9</title>
<g id="a_Node000009"><a xlink:title=" ">
<polygon fill="#e0e0e0" stroke="#999999" points="486.5,-19 397.5,-19 397.5,0 486.5,0 486.5,-19"/>
<text text-anchor="middle" x="442" y="-7" font-family="Helvetica,sans-Serif" font-size="10.00">QtCore/QString</text>
</a>
</g>
</g>
<!-- Node7&#45;&gt;Node9 -->
<g id="edge9_Node000007_Node000009" class="edge">
<title>Node7&#45;&gt;Node9</title>
<g id="a_edge9_Node000007_Node000009"><a xlink:title=" ">
<path fill="none" stroke="#63b8ff" d="M487.92,-54.75C479.91,-47.03 468.04,-35.6 458.38,-26.28"/>
<polygon fill="#63b8ff" stroke="#63b8ff" points="460.54,-23.51 450.91,-19.09 455.69,-28.55 460.54,-23.51"/>
</a>
</g>
</g>
<!-- Node10 -->
<g id="Node000010" class="node">
<title>Node10</title>
<g id="a_Node000010"><a xlink:title=" ">
<polygon fill="#e0e0e0" stroke="#999999" points="599.5,-19 504.5,-19 504.5,0 599.5,0 599.5,-19"/>
<text text-anchor="middle" x="552" y="-7" font-family="Helvetica,sans-Serif" font-size="10.00">QtCore/QVariant</text>
</a>
</g>
</g>
<!-- Node7&#45;&gt;Node10 -->
<g id="edge10_Node000007_Node000010" class="edge">
<title>Node7&#45;&gt;Node10</title>
<g id="a_edge10_Node000007_Node000010"><a xlink:title=" ">
<path fill="none" stroke="#63b8ff" d="M506.08,-54.75C514.09,-47.03 525.96,-35.6 535.62,-26.28"/>
<polygon fill="#63b8ff" stroke="#63b8ff" points="538.31,-28.55 543.09,-19.09 533.46,-23.51 538.31,-28.55"/>
</a>
</g>
</g>
<!-- Node11 -->
<g id="Node000011" class="node">
<title>Node11</title>
<g id="a_Node000011"><a xlink:title=" ">
<polygon fill="#e0e0e0" stroke="#999999" points="806.5,-19 617.5,-19 617.5,0 806.5,0 806.5,-19"/>
<text text-anchor="middle" x="712" y="-7" font-family="Helvetica,sans-Serif" font-size="10.00">QtQmlIntegration/QtQmlIntegration</text>
</a>
</g>
</g>
<!-- Node7&#45;&gt;Node11 -->
<g id="edge11_Node000007_Node000011" class="edge">
<title>Node7&#45;&gt;Node11</title>
<g id="a_edge11_Node000007_Node000011"><a xlink:title=" ">
<path fill="none" stroke="#63b8ff" d="M531.54,-54.98C568.42,-45.89 626.99,-31.46 667.34,-21.51"/>
<polygon fill="#63b8ff" stroke="#63b8ff" points="668.31,-24.87 677.19,-19.08 666.64,-18.08 668.31,-24.87"/>
</a>
</g>
</g>
</g>
</svg>

<g id="navigator" transform="translate(0 0)" fill="#404254">
  <rect fill="#f2f5e9" fill-opacity="0.5" stroke="#606060" stroke-width=".5" x="0" y="0" width="60" height="60"/>
  <use id="zoomplus" xlink:href="#zoomPlus" x="17" y="9" onmousedown="handleZoom(evt,'in')"/>
  <use id="zoomminus" xlink:href="#zoomMin" x="42" y="9" onmousedown="handleZoom(evt,'out')"/>
  <use id="reset" xlink:href="#resetDef" x="30" y="36" onmousedown="handleReset()"/>
   <use id="arrowup" xlink:href="#arrowUp" x="0" y="0" onmousedown="handlePan(0,-1)"/>
  <use id="arrowright" xlink:href="#arrowRight" x="0" y="0" onmousedown="handlePan(1,0)"/>
  <use id="arrowdown" xlink:href="#arrowDown" x="0" y="0" onmousedown="handlePan(0,1)"/>
  <use id="arrowleft" xlink:href="#arrowLeft" x="0" y="0" onmousedown="handlePan(-1,0)"/>
</g>
<svg viewBox="0 0 15 15" width="100%" height="30px" preserveAspectRatio="xMaxYMin meet">
 <g id="arrow_out" transform="scale(0.3 0.3)">
  <a xlink:href="PX4ParameterMetaData_8h__incl_org.svg" target="_base">
   <rect id="button" ry="5" rx="5" y="6" x="6" height="38" width="38"
        fill="#f2f5e9" fill-opacity="0.5" stroke="#606060" stroke-width="1.0"/>
   <path id="arrow"
     d="M 11.500037,31.436501 C 11.940474,20.09759 22.043105,11.32322 32.158766,21.979434 L 37.068811,17.246167 C 37.068811,17.246167 37.088388,32 37.088388,32 L 22.160133,31.978069 C 22.160133,31.978069 26.997745,27.140456 26.997745,27.140456 C 18.528582,18.264221 13.291696,25.230495 11.500037,31.436501 z"
     style="fill:#404040;"/>
  </a>
 </g>
</svg>

<style type='text/css'>
<![CDATA[
[data-mouse-over-selected='false'] { opacity: 0.7; }
[data-mouse-over-selected='true']  { opacity: 1.0; }
]]>
</style>
<script type="application/ecmascript"><![CDATA[
document.addEventListener('DOMContentLoaded', (event) => {
  highlightEdges();
  highlightAdjacentNodes();
});
]]></script>
</svg>
