<?xml version="1.0" encoding="UTF-8" standalone="no"?>
<!DOCTYPE svg PUBLIC "-//W3C//DTD SVG 1.1//EN"
 "http://www.w3.org/Graphics/SVG/1.1/DTD/svg11.dtd">
<!-- Generated by graphviz version 2.43.0 (0)
 -->
<!-- Title: src/Utilities/QGC.h Pages: 1 -->
<svg width="2332pt" height="93pt"
 viewBox="0.00 0.00 2331.50 93.00" xmlns="http://www.w3.org/2000/svg" xmlns:xlink="http://www.w3.org/1999/xlink">
<g id="graph0" class="graph" transform="scale(1 1) rotate(0) translate(4 89)">
<title>src/Utilities/QGC.h</title>
<!-- Node1 -->
<g id="Node000001" class="node">
<title>Node1</title>
<g id="a_Node000001"><a xlink:title=" ">
<polygon fill="#999999" stroke="#666666" points="1255,-85 1149,-85 1149,-66 1255,-66 1255,-85"/>
<text text-anchor="middle" x="1202" y="-73" font-family="Helvetica,sans-Serif" font-size="10.00">src/Utilities/QGC.h</text>
</a>
</g>
</g>
<!-- Node2 -->
<g id="Node000002" class="node">
<title>Node2</title>
<g id="a_Node000002"><a xlink:href="ADSBVehicle_8cc.html" target="_top" xlink:title=" ">
<polygon fill="white" stroke="#666666" points="140,-24.5 0,-24.5 0,-5.5 140,-5.5 140,-24.5"/>
<text text-anchor="middle" x="70" y="-12.5" font-family="Helvetica,sans-Serif" font-size="10.00">src/ADSB/ADSBVehicle.cc</text>
</a>
</g>
</g>
<!-- Node1&#45;&gt;Node2 -->
<g id="edge1_Node000001_Node000002" class="edge">
<title>Node1&#45;&gt;Node2</title>
<g id="a_edge1_Node000001_Node000002"><a xlink:title=" ">
<path fill="none" stroke="#63b8ff" d="M1138.55,-74.76C974.42,-74.78 522.55,-70.81 149,-30 136.95,-28.68 123.97,-26.65 112.08,-24.53"/>
<polygon fill="#63b8ff" stroke="#63b8ff" points="1138.95,-78.26 1148.95,-74.75 1138.94,-71.26 1138.95,-78.26"/>
</a>
</g>
</g>
<!-- Node3 -->
<g id="Node000003" class="node">
<title>Node3</title>
<g id="a_Node000003"><a xlink:href="ParameterManager_8cc.html" target="_top" xlink:title=" ">
<polygon fill="white" stroke="#666666" points="301.5,-30 158.5,-30 158.5,0 301.5,0 301.5,-30"/>
<text text-anchor="start" x="166.5" y="-18" font-family="Helvetica,sans-Serif" font-size="10.00">src/FactSystem/Parameter</text>
<text text-anchor="middle" x="230" y="-7" font-family="Helvetica,sans-Serif" font-size="10.00">Manager.cc</text>
</a>
</g>
</g>
<!-- Node1&#45;&gt;Node3 -->
<g id="edge2_Node000001_Node000003" class="edge">
<title>Node1&#45;&gt;Node3</title>
<g id="a_edge2_Node000001_Node000003"><a xlink:title=" ">
<path fill="none" stroke="#63b8ff" d="M1138.71,-73.97C992.5,-72.17 620.11,-64.3 311,-30 308.02,-29.67 304.99,-29.3 301.92,-28.9"/>
<polygon fill="#63b8ff" stroke="#63b8ff" points="1138.8,-77.47 1148.85,-74.09 1138.89,-70.47 1138.8,-77.47"/>
</a>
</g>
</g>
<!-- Node4 -->
<g id="Node000004" class="node">
<title>Node4</title>
<g id="a_Node000004"><a xlink:href="MissionController_8cc.html" target="_top" xlink:title=" ">
<polygon fill="white" stroke="#666666" points="438,-30 320,-30 320,0 438,0 438,-30"/>
<text text-anchor="start" x="328" y="-18" font-family="Helvetica,sans-Serif" font-size="10.00">src/MissionManager</text>
<text text-anchor="middle" x="379" y="-7" font-family="Helvetica,sans-Serif" font-size="10.00">/MissionController.cc</text>
</a>
</g>
</g>
<!-- Node1&#45;&gt;Node4 -->
<g id="edge3_Node000001_Node000004" class="edge">
<title>Node1&#45;&gt;Node4</title>
<g id="a_edge3_Node000001_Node000004"><a xlink:title=" ">
<path fill="none" stroke="#63b8ff" d="M1138.47,-73.84C1008.23,-71.81 701.76,-63.56 447,-30 444.13,-29.62 441.2,-29.19 438.25,-28.72"/>
<polygon fill="#63b8ff" stroke="#63b8ff" points="1138.61,-77.34 1148.66,-73.99 1138.71,-70.34 1138.61,-77.34"/>
</a>
</g>
</g>
<!-- Node5 -->
<g id="Node000005" class="node">
<title>Node5</title>
<g id="a_Node000005"><a xlink:href="MissionSettingsItem_8cc.html" target="_top" xlink:title=" ">
<polygon fill="white" stroke="#666666" points="589.5,-30 456.5,-30 456.5,0 589.5,0 589.5,-30"/>
<text text-anchor="start" x="464.5" y="-18" font-family="Helvetica,sans-Serif" font-size="10.00">src/MissionManager</text>
<text text-anchor="middle" x="523" y="-7" font-family="Helvetica,sans-Serif" font-size="10.00">/MissionSettingsItem.cc</text>
</a>
</g>
</g>
<!-- Node1&#45;&gt;Node5 -->
<g id="edge4_Node000001_Node000005" class="edge">
<title>Node1&#45;&gt;Node5</title>
<g id="a_edge4_Node000001_Node000005"><a xlink:title=" ">
<path fill="none" stroke="#63b8ff" d="M1138.6,-72.15C1028.33,-67.54 794.22,-55.46 598,-30 595.24,-29.64 592.43,-29.25 589.6,-28.83"/>
<polygon fill="#63b8ff" stroke="#63b8ff" points="1138.74,-75.66 1148.88,-72.57 1139.03,-68.66 1138.74,-75.66"/>
</a>
</g>
</g>
<!-- Node6 -->
<g id="Node000006" class="node">
<title>Node6</title>
<g id="a_Node000006"><a xlink:href="SimpleMissionItem_8cc.html" target="_top" xlink:title=" ">
<polygon fill="white" stroke="#666666" points="734.5,-30 607.5,-30 607.5,0 734.5,0 734.5,-30"/>
<text text-anchor="start" x="615.5" y="-18" font-family="Helvetica,sans-Serif" font-size="10.00">src/MissionManager</text>
<text text-anchor="middle" x="671" y="-7" font-family="Helvetica,sans-Serif" font-size="10.00">/SimpleMissionItem.cc</text>
</a>
</g>
</g>
<!-- Node1&#45;&gt;Node6 -->
<g id="edge5_Node000001_Node000006" class="edge">
<title>Node1&#45;&gt;Node6</title>
<g id="a_edge5_Node000001_Node000006"><a xlink:title=" ">
<path fill="none" stroke="#63b8ff" d="M1138.62,-70.28C1049.86,-63.93 883.61,-50.44 743,-30 740.23,-29.6 737.4,-29.16 734.55,-28.7"/>
<polygon fill="#63b8ff" stroke="#63b8ff" points="1138.57,-73.78 1148.79,-71 1139.07,-66.8 1138.57,-73.78"/>
</a>
</g>
</g>
<!-- Node7 -->
<g id="Node000007" class="node">
<title>Node7</title>
<g id="a_Node000007"><a xlink:href="StructureScanComplexItem_8cc.html" target="_top" xlink:title=" ">
<polygon fill="white" stroke="#666666" points="919.5,-30 752.5,-30 752.5,0 919.5,0 919.5,-30"/>
<text text-anchor="start" x="760.5" y="-18" font-family="Helvetica,sans-Serif" font-size="10.00">src/MissionManager</text>
<text text-anchor="middle" x="836" y="-7" font-family="Helvetica,sans-Serif" font-size="10.00">/StructureScanComplexItem.cc</text>
</a>
</g>
</g>
<!-- Node1&#45;&gt;Node7 -->
<g id="edge6_Node000001_Node000007" class="edge">
<title>Node1&#45;&gt;Node7</title>
<g id="a_edge6_Node000001_Node000007"><a xlink:title=" ">
<path fill="none" stroke="#63b8ff" d="M1138.59,-64.36C1078.02,-54.68 986.34,-40.03 919.78,-29.39"/>
<polygon fill="#63b8ff" stroke="#63b8ff" points="1138.35,-67.87 1148.78,-65.99 1139.46,-60.96 1138.35,-67.87"/>
</a>
</g>
</g>
<!-- Node8 -->
<g id="Node000008" class="node">
<title>Node8</title>
<g id="a_Node000008"><a xlink:href="TransectStyleComplexItem_8cc.html" target="_top" xlink:title=" ">
<polygon fill="white" stroke="#666666" points="1102,-30 938,-30 938,0 1102,0 1102,-30"/>
<text text-anchor="start" x="946" y="-18" font-family="Helvetica,sans-Serif" font-size="10.00">src/MissionManager</text>
<text text-anchor="middle" x="1020" y="-7" font-family="Helvetica,sans-Serif" font-size="10.00">/TransectStyleComplexItem.cc</text>
</a>
</g>
</g>
<!-- Node1&#45;&gt;Node8 -->
<g id="edge7_Node000001_Node000008" class="edge">
<title>Node1&#45;&gt;Node8</title>
<g id="a_edge7_Node000001_Node000008"><a xlink:title=" ">
<path fill="none" stroke="#63b8ff" d="M1165.69,-62.83C1136.35,-53.4 1094.93,-40.09 1063.76,-30.06"/>
<polygon fill="#63b8ff" stroke="#63b8ff" points="1164.94,-66.27 1175.54,-65.99 1167.09,-59.6 1164.94,-66.27"/>
</a>
</g>
</g>
<!-- Node9 -->
<g id="Node000009" class="node">
<title>Node9</title>
<g id="a_Node000009"><a xlink:href="VTOLLandingComplexItem_8cc.html" target="_top" xlink:title=" ">
<polygon fill="white" stroke="#666666" points="1283.5,-30 1120.5,-30 1120.5,0 1283.5,0 1283.5,-30"/>
<text text-anchor="start" x="1128.5" y="-18" font-family="Helvetica,sans-Serif" font-size="10.00">src/MissionManager</text>
<text text-anchor="middle" x="1202" y="-7" font-family="Helvetica,sans-Serif" font-size="10.00">/VTOLLandingComplexItem.cc</text>
</a>
</g>
</g>
<!-- Node1&#45;&gt;Node9 -->
<g id="edge8_Node000001_Node000009" class="edge">
<title>Node1&#45;&gt;Node9</title>
<g id="a_edge8_Node000001_Node000009"><a xlink:title=" ">
<path fill="none" stroke="#63b8ff" d="M1202,-55.65C1202,-47.36 1202,-37.78 1202,-30.11"/>
<polygon fill="#63b8ff" stroke="#63b8ff" points="1198.5,-55.87 1202,-65.87 1205.5,-55.87 1198.5,-55.87"/>
</a>
</g>
</g>
<!-- Node10 -->
<g id="Node000010" class="node">
<title>Node10</title>
<g id="a_Node000010"><a xlink:href="VisualMissionItem_8cc.html" target="_top" xlink:title=" ">
<polygon fill="white" stroke="#666666" points="1424.5,-30 1301.5,-30 1301.5,0 1424.5,0 1424.5,-30"/>
<text text-anchor="start" x="1309.5" y="-18" font-family="Helvetica,sans-Serif" font-size="10.00">src/MissionManager</text>
<text text-anchor="middle" x="1363" y="-7" font-family="Helvetica,sans-Serif" font-size="10.00">/VisualMissionItem.cc</text>
</a>
</g>
</g>
<!-- Node1&#45;&gt;Node10 -->
<g id="edge9_Node000001_Node000010" class="edge">
<title>Node1&#45;&gt;Node10</title>
<g id="a_edge9_Node000001_Node000010"><a xlink:title=" ">
<path fill="none" stroke="#63b8ff" d="M1235.14,-62.46C1261.04,-53.05 1297.08,-39.95 1324.29,-30.06"/>
<polygon fill="#63b8ff" stroke="#63b8ff" points="1233.61,-59.29 1225.41,-65.99 1236,-65.87 1233.61,-59.29"/>
</a>
</g>
</g>
<!-- Node11 -->
<g id="Node000011" class="node">
<title>Node11</title>
<g id="a_Node000011"><a xlink:href="FlightPathSegment_8cc.html" target="_top" xlink:title=" ">
<polygon fill="white" stroke="#666666" points="1589,-30 1443,-30 1443,0 1589,0 1589,-30"/>
<text text-anchor="start" x="1451" y="-18" font-family="Helvetica,sans-Serif" font-size="10.00">src/QmlControls/FlightPath</text>
<text text-anchor="middle" x="1516" y="-7" font-family="Helvetica,sans-Serif" font-size="10.00">Segment.cc</text>
</a>
</g>
</g>
<!-- Node1&#45;&gt;Node11 -->
<g id="edge10_Node000001_Node000011" class="edge">
<title>Node1&#45;&gt;Node11</title>
<g id="a_edge10_Node000001_Node000011"><a xlink:title=" ">
<path fill="none" stroke="#63b8ff" d="M1257.63,-64.14C1309.23,-54.52 1386.37,-40.15 1442.93,-29.61"/>
<polygon fill="#63b8ff" stroke="#63b8ff" points="1256.85,-60.72 1247.66,-65.99 1258.13,-67.6 1256.85,-60.72"/>
</a>
</g>
</g>
<!-- Node12 -->
<g id="Node000012" class="node">
<title>Node12</title>
<g id="a_Node000012"><a xlink:href="InstrumentValueData_8cc.html" target="_top" xlink:title=" ">
<polygon fill="white" stroke="#666666" points="1758.5,-30 1607.5,-30 1607.5,0 1758.5,0 1758.5,-30"/>
<text text-anchor="start" x="1615.5" y="-18" font-family="Helvetica,sans-Serif" font-size="10.00">src/QmlControls/Instrument</text>
<text text-anchor="middle" x="1683" y="-7" font-family="Helvetica,sans-Serif" font-size="10.00">ValueData.cc</text>
</a>
</g>
</g>
<!-- Node1&#45;&gt;Node12 -->
<g id="edge11_Node000001_Node000012" class="edge">
<title>Node1&#45;&gt;Node12</title>
<g id="a_edge11_Node000001_Node000012"><a xlink:title=" ">
<path fill="none" stroke="#63b8ff" d="M1265.46,-68.38C1343.77,-60.6 1480.93,-46.21 1598,-30 1601.11,-29.57 1604.28,-29.12 1607.49,-28.64"/>
<polygon fill="#63b8ff" stroke="#63b8ff" points="1264.88,-64.92 1255.27,-69.39 1265.57,-71.89 1264.88,-64.92"/>
</a>
</g>
</g>
<!-- Node13 -->
<g id="Node000013" class="node">
<title>Node13</title>
<g id="a_Node000013"><a xlink:href="QGC_8cc.html" target="_top" xlink:title=" ">
<polygon fill="white" stroke="#666666" points="1887,-24.5 1777,-24.5 1777,-5.5 1887,-5.5 1887,-24.5"/>
<text text-anchor="middle" x="1832" y="-12.5" font-family="Helvetica,sans-Serif" font-size="10.00">src/Utilities/QGC.cc</text>
</a>
</g>
</g>
<!-- Node1&#45;&gt;Node13 -->
<g id="edge12_Node000001_Node000013" class="edge">
<title>Node1&#45;&gt;Node13</title>
<g id="a_edge12_Node000001_Node000013"><a xlink:title=" ">
<path fill="none" stroke="#63b8ff" d="M1265.45,-72.34C1370.47,-68.14 1586.82,-56.81 1768,-30 1777.56,-28.58 1787.83,-26.57 1797.28,-24.5"/>
<polygon fill="#63b8ff" stroke="#63b8ff" points="1265.19,-68.85 1255.34,-72.74 1265.46,-75.85 1265.19,-68.85"/>
</a>
</g>
</g>
<!-- Node14 -->
<g id="Node000014" class="node">
<title>Node14</title>
<g id="a_Node000014"><a xlink:href="VehicleFactGroup_8cc.html" target="_top" xlink:title=" ">
<polygon fill="white" stroke="#666666" points="2031,-30 1905,-30 1905,0 2031,0 2031,-30"/>
<text text-anchor="start" x="1913" y="-18" font-family="Helvetica,sans-Serif" font-size="10.00">src/Vehicle/FactGroups</text>
<text text-anchor="middle" x="1968" y="-7" font-family="Helvetica,sans-Serif" font-size="10.00">/VehicleFactGroup.cc</text>
</a>
</g>
</g>
<!-- Node1&#45;&gt;Node14 -->
<g id="edge13_Node000001_Node000014" class="edge">
<title>Node1&#45;&gt;Node14</title>
<g id="a_edge13_Node000001_Node000014"><a xlink:title=" ">
<path fill="none" stroke="#63b8ff" d="M1265.65,-73.14C1388.15,-69.92 1665.04,-59.74 1896,-30 1898.9,-29.63 1901.87,-29.21 1904.86,-28.75"/>
<polygon fill="#63b8ff" stroke="#63b8ff" points="1265.24,-69.65 1255.33,-73.41 1265.42,-76.65 1265.24,-69.65"/>
</a>
</g>
</g>
<!-- Node15 -->
<g id="Node000015" class="node">
<title>Node15</title>
<g id="a_Node000015"><a xlink:href="Vehicle_8cc.html" target="_top" xlink:title=" ">
<polygon fill="white" stroke="#666666" points="2170.5,-24.5 2049.5,-24.5 2049.5,-5.5 2170.5,-5.5 2170.5,-24.5"/>
<text text-anchor="middle" x="2110" y="-12.5" font-family="Helvetica,sans-Serif" font-size="10.00">src/Vehicle/Vehicle.cc</text>
</a>
</g>
</g>
<!-- Node1&#45;&gt;Node15 -->
<g id="edge14_Node000001_Node000015" class="edge">
<title>Node1&#45;&gt;Node15</title>
<g id="a_edge14_Node000001_Node000015"><a xlink:title=" ">
<path fill="none" stroke="#63b8ff" d="M1265.31,-74.25C1405.46,-73.02 1752.32,-66.21 2040,-30 2050.57,-28.67 2061.94,-26.65 2072.38,-24.56"/>
<polygon fill="#63b8ff" stroke="#63b8ff" points="1265.15,-70.75 1255.18,-74.33 1265.21,-77.75 1265.15,-70.75"/>
</a>
</g>
</g>
<!-- Node16 -->
<g id="Node000016" class="node">
<title>Node16</title>
<g id="a_Node000016"><a xlink:href="Bootloader_8cc.html" target="_top" xlink:title=" ">
<polygon fill="white" stroke="#666666" points="2323.5,-30 2188.5,-30 2188.5,0 2323.5,0 2323.5,-30"/>
<text text-anchor="start" x="2196.5" y="-18" font-family="Helvetica,sans-Serif" font-size="10.00">src/Vehicle/VehicleSetup</text>
<text text-anchor="middle" x="2256" y="-7" font-family="Helvetica,sans-Serif" font-size="10.00">/Bootloader.cc</text>
</a>
</g>
</g>
<!-- Node1&#45;&gt;Node16 -->
<g id="edge15_Node000001_Node000016" class="edge">
<title>Node1&#45;&gt;Node16</title>
<g id="a_edge15_Node000001_Node000016"><a xlink:title=" ">
<path fill="none" stroke="#63b8ff" d="M1265.56,-74.61C1421.75,-74.22 1836.64,-69.25 2180,-30 2182.67,-29.7 2185.38,-29.35 2188.12,-28.98"/>
<polygon fill="#63b8ff" stroke="#63b8ff" points="1265.2,-71.11 1255.21,-74.63 1265.22,-78.11 1265.2,-71.11"/>
</a>
</g>
</g>
</g>
</svg>
