<?xml version="1.0" encoding="UTF-8" standalone="no"?>
<!DOCTYPE svg PUBLIC "-//W3C//DTD SVG 1.1//EN"
 "http://www.w3.org/Graphics/SVG/1.1/DTD/svg11.dtd">
<!-- Generated by graphviz version 2.43.0 (0)
 -->
<!-- Title: src/QGCApplication.h Pages: 1 -->
<!--zoomable 104 -->

<svg id="main" version="1.1" xmlns="http://www.w3.org/2000/svg" xmlns:xlink="http://www.w3.org/1999/xlink" xml:space="preserve" onload="init(evt)">
<style type="text/css"><![CDATA[
.node, .edge {opacity: 0.7;}
.node.selected, .edge.selected {opacity: 1;}
.edge:hover path { stroke: red; }
.edge:hover polygon { stroke: red; fill: red; }
]]></style>

<defs>
  <circle id="rim" cx="0" cy="0" r="7"/>
  <circle id="rim2" cx="0" cy="0" r="3.5"/>
  <g id="zoomPlus">
    <use xlink:href="#rim" fill="#404040"><set attributeName="fill" to="#808080" begin="zoomplus.mouseover" end="zoomplus.mouseout"/></use>
    <path d="M-4,0h8M0,-4v8" fill="none" stroke="white" stroke-width="1.5" pointer-events="none"/>
  </g>
  <g id="zoomMin">
    <use xlink:href="#rim" fill="#404040"><set attributeName="fill" to="#808080" begin="zoomminus.mouseover" end="zoomminus.mouseout"/></use>
    <path d="M-4,0h8" fill="none" stroke="white" stroke-width="1.5" pointer-events="none"/>
  </g>
  <g id="arrowUp" transform="translate(30 24)">
    <use xlink:href="#rim"/>
    <path pointer-events="none" fill="none" stroke="white" stroke-width="1.5" d="M0,-3.0v7 M-2.5,-0.5L0,-3.0L2.5,-0.5"/>
  </g>
  <g id="arrowRight" transform="rotate(90) translate(36 -43)">
    <use xlink:href="#rim"/>
    <path pointer-events="none" fill="none" stroke="white" stroke-width="1.5" d="M0,-3.0v7 M-2.5,-0.5L0,-3.0L2.5,-0.5"/>
  </g>
  <g id="arrowDown" transform="rotate(180) translate(-30 -48)">
    <use xlink:href="#rim"/>
    <path pointer-events="none" fill="none" stroke="white" stroke-width="1.5" d="M0,-3.0v7 M-2.5,-0.5L0,-3.0L2.5,-0.5"/>
  </g>
  <g id="arrowLeft" transform="rotate(270) translate(-36 17)">
    <use xlink:href="#rim"/>
    <path pointer-events="none" fill="none" stroke="white" stroke-width="1.5" d="M0,-3.0v7 M-2.5,-0.5L0,-3.0L2.5,-0.5"/>
  </g>
  <g id="resetDef">
    <use xlink:href="#rim2" fill="#404040"><set attributeName="fill" to="#808080" begin="reset.mouseover" end="reset.mouseout"/></use>
  </g>
</defs>
<script type="application/ecmascript">
var viewWidth = 5401;
var viewHeight = 104;
var sectionId = 'dynsection-1';
</script>
<script type="application/ecmascript" xlink:href="svg.min.js"/>
<svg id="graph" class="graph">
<g id="viewport">
<title>src/QGCApplication.h</title>
<!-- Node1 -->
<g id="Node000001" class="node">
<title>Node1</title>
<g id="a_Node000001"><a xlink:title=" ">
<polygon fill="#999999" stroke="#666666" points="2736,-96 2617,-96 2617,-77 2736,-77 2736,-96"/>
<text text-anchor="middle" x="2676.5" y="-84" font-family="Helvetica,sans-Serif" font-size="10.00">src/QGCApplication.h</text>
</a>
</g>
</g>
<!-- Node2 -->
<g id="Node000002" class="node">
<title>Node2</title>
<g id="a_Node000002"><a xlink:href="MAVLinkChartController_8cc.html" target="_top" xlink:title=" ">
<polygon fill="white" stroke="#666666" points="187,-35.5 0,-35.5 0,-5.5 187,-5.5 187,-35.5"/>
<text text-anchor="start" x="8" y="-23.5" font-family="Helvetica,sans-Serif" font-size="10.00">src/AnalyzeView/MAVLinkInspector</text>
<text text-anchor="middle" x="93.5" y="-12.5" font-family="Helvetica,sans-Serif" font-size="10.00">/MAVLinkChartController.cc</text>
</a>
</g>
</g>
<!-- Node1&#45;&gt;Node2 -->
<g id="edge1_Node000001_Node000002" class="edge">
<title>Node1&#45;&gt;Node2</title>
<g id="a_edge1_Node000001_Node000002"><a xlink:title=" ">
<path fill="none" stroke="#63b8ff" d="M2606.7,-84.96C2229.3,-81.95 440.59,-66.44 195.5,-41 183.22,-39.73 170.2,-37.74 157.73,-35.51"/>
<polygon fill="#63b8ff" stroke="#63b8ff" points="2606.9,-88.46 2616.93,-85.04 2606.96,-81.46 2606.9,-88.46"/>
</a>
</g>
</g>
<!-- Node3 -->
<g id="Node000003" class="node">
<title>Node3</title>
<g id="a_Node000003"><a xlink:href="MAVLinkMessageField_8cc.html" target="_top" xlink:title=" ">
<polygon fill="white" stroke="#666666" points="392,-35.5 205,-35.5 205,-5.5 392,-5.5 392,-35.5"/>
<text text-anchor="start" x="213" y="-23.5" font-family="Helvetica,sans-Serif" font-size="10.00">src/AnalyzeView/MAVLinkInspector</text>
<text text-anchor="middle" x="298.5" y="-12.5" font-family="Helvetica,sans-Serif" font-size="10.00">/MAVLinkMessageField.cc</text>
</a>
</g>
</g>
<!-- Node1&#45;&gt;Node3 -->
<g id="edge2_Node000001_Node000003" class="edge">
<title>Node1&#45;&gt;Node3</title>
<g id="a_edge2_Node000001_Node000003"><a xlink:title=" ">
<path fill="none" stroke="#63b8ff" d="M2606.38,-85.73C2272.72,-86.57 843.79,-87.37 400.5,-41 388.31,-39.72 375.39,-37.75 363.01,-35.54"/>
<polygon fill="#63b8ff" stroke="#63b8ff" points="2606.86,-89.23 2616.86,-85.7 2606.85,-82.23 2606.86,-89.23"/>
</a>
</g>
</g>
<!-- Node4 -->
<g id="Node000004" class="node">
<title>Node4</title>
<g id="a_Node000004"><a xlink:href="AndroidInterface_8cc.html" target="_top" xlink:title=" ">
<polygon fill="white" stroke="#666666" points="579,-30 410,-30 410,-11 579,-11 579,-30"/>
<text text-anchor="middle" x="494.5" y="-18" font-family="Helvetica,sans-Serif" font-size="10.00">src/Android/AndroidInterface.cc</text>
</a>
</g>
</g>
<!-- Node1&#45;&gt;Node4 -->
<g id="edge3_Node000001_Node000004" class="edge">
<title>Node1&#45;&gt;Node4</title>
<g id="a_edge3_Node000001_Node000004"><a xlink:title=" ">
<path fill="none" stroke="#63b8ff" d="M2606.52,-85.75C2290.16,-86.62 991.52,-87.25 587.5,-41 567.5,-38.71 545.45,-34.17 527.83,-30.05"/>
<polygon fill="#63b8ff" stroke="#63b8ff" points="2606.93,-89.25 2616.92,-85.72 2606.91,-82.25 2606.93,-89.25"/>
</a>
</g>
</g>
<!-- Node5 -->
<g id="Node000005" class="node">
<title>Node5</title>
<g id="a_Node000005"><a xlink:href="AutoPilotPlugin_8cc.html" target="_top" xlink:title=" ">
<polygon fill="white" stroke="#666666" points="710,-35.5 597,-35.5 597,-5.5 710,-5.5 710,-35.5"/>
<text text-anchor="start" x="605" y="-23.5" font-family="Helvetica,sans-Serif" font-size="10.00">src/AutoPilotPlugins</text>
<text text-anchor="middle" x="653.5" y="-12.5" font-family="Helvetica,sans-Serif" font-size="10.00">/AutoPilotPlugin.cc</text>
</a>
</g>
</g>
<!-- Node1&#45;&gt;Node5 -->
<g id="edge4_Node000001_Node000005" class="edge">
<title>Node1&#45;&gt;Node5</title>
<g id="a_edge4_Node000001_Node000005"><a xlink:title=" ">
<path fill="none" stroke="#63b8ff" d="M2606.72,-85.01C2279.92,-82.55 908.57,-70.54 719.5,-41 711.47,-39.75 703.05,-37.78 695.02,-35.57"/>
<polygon fill="#63b8ff" stroke="#63b8ff" points="2606.97,-88.51 2617,-85.08 2607.02,-81.51 2606.97,-88.51"/>
</a>
</g>
</g>
<!-- Node6 -->
<g id="Node000006" class="node">
<title>Node6</title>
<g id="a_Node000006"><a xlink:href="ActuatorComponent_8cc.html" target="_top" xlink:title=" ">
<polygon fill="white" stroke="#666666" points="880.5,-35.5 728.5,-35.5 728.5,-5.5 880.5,-5.5 880.5,-35.5"/>
<text text-anchor="start" x="736.5" y="-23.5" font-family="Helvetica,sans-Serif" font-size="10.00">src/AutoPilotPlugins</text>
<text text-anchor="middle" x="804.5" y="-12.5" font-family="Helvetica,sans-Serif" font-size="10.00">/PX4/ActuatorComponent.cc</text>
</a>
</g>
</g>
<!-- Node1&#45;&gt;Node6 -->
<g id="edge5_Node000001_Node000006" class="edge">
<title>Node1&#45;&gt;Node6</title>
<g id="a_edge5_Node000001_Node000006"><a xlink:title=" ">
<path fill="none" stroke="#63b8ff" d="M2606.51,-85.63C2319.34,-85.88 1230.53,-83.92 889.5,-41 879.29,-39.71 868.5,-37.74 858.17,-35.52"/>
<polygon fill="#63b8ff" stroke="#63b8ff" points="2606.79,-89.13 2616.79,-85.62 2606.78,-82.13 2606.79,-89.13"/>
</a>
</g>
</g>
<!-- Node7 -->
<g id="Node000007" class="node">
<title>Node7</title>
<g id="a_Node000007"><a xlink:href="LinkInterface_8cc.html" target="_top" xlink:title=" ">
<polygon fill="white" stroke="#666666" points="1050.5,-30 898.5,-30 898.5,-11 1050.5,-11 1050.5,-30"/>
<text text-anchor="middle" x="974.5" y="-18" font-family="Helvetica,sans-Serif" font-size="10.00">src/Comms/LinkInterface.cc</text>
</a>
</g>
</g>
<!-- Node1&#45;&gt;Node7 -->
<g id="edge6_Node000001_Node000007" class="edge">
<title>Node1&#45;&gt;Node7</title>
<g id="a_edge6_Node000001_Node000007"><a xlink:title=" ">
<path fill="none" stroke="#63b8ff" d="M2606.55,-85.42C2337.01,-84.81 1365.5,-79.92 1059.5,-41 1041.18,-38.67 1021.01,-34.13 1004.92,-30.02"/>
<polygon fill="#63b8ff" stroke="#63b8ff" points="2606.59,-88.92 2616.6,-85.44 2606.61,-81.92 2606.59,-88.92"/>
</a>
</g>
</g>
<!-- Node8 -->
<g id="Node000008" class="node">
<title>Node8</title>
<g id="a_Node000008"><a xlink:href="Fact_8cc.html" target="_top" xlink:title=" ">
<polygon fill="white" stroke="#666666" points="1194.5,-30 1068.5,-30 1068.5,-11 1194.5,-11 1194.5,-30"/>
<text text-anchor="middle" x="1131.5" y="-18" font-family="Helvetica,sans-Serif" font-size="10.00">src/FactSystem/Fact.cc</text>
</a>
</g>
</g>
<!-- Node1&#45;&gt;Node8 -->
<g id="edge7_Node000001_Node000008" class="edge">
<title>Node1&#45;&gt;Node8</title>
<g id="a_edge7_Node000001_Node000008"><a xlink:title=" ">
<path fill="none" stroke="#63b8ff" d="M2606.5,-85.56C2352.39,-85.42 1479.17,-81.91 1203.5,-41 1187.87,-38.68 1170.79,-34.14 1157.18,-30.03"/>
<polygon fill="#63b8ff" stroke="#63b8ff" points="2606.7,-89.06 2616.7,-85.56 2606.7,-82.06 2606.7,-89.06"/>
</a>
</g>
</g>
<!-- Node9 -->
<g id="Node000009" class="node">
<title>Node9</title>
<g id="a_Node000009"><a xlink:href="FactPanelController_8cc.html" target="_top" xlink:title=" ">
<polygon fill="white" stroke="#666666" points="1366,-35.5 1213,-35.5 1213,-5.5 1366,-5.5 1366,-35.5"/>
<text text-anchor="start" x="1221" y="-23.5" font-family="Helvetica,sans-Serif" font-size="10.00">src/FactSystem/FactControls</text>
<text text-anchor="middle" x="1289.5" y="-12.5" font-family="Helvetica,sans-Serif" font-size="10.00">/FactPanelController.cc</text>
</a>
</g>
</g>
<!-- Node1&#45;&gt;Node9 -->
<g id="edge8_Node000001_Node000009" class="edge">
<title>Node1&#45;&gt;Node9</title>
<g id="a_edge8_Node000001_Node000009"><a xlink:title=" ">
<path fill="none" stroke="#63b8ff" d="M2606.54,-84.87C2372.18,-82.5 1615.93,-72.52 1374.5,-41 1364.44,-39.69 1353.83,-37.73 1343.63,-35.54"/>
<polygon fill="#63b8ff" stroke="#63b8ff" points="2606.61,-88.37 2616.64,-84.97 2606.68,-81.37 2606.61,-88.37"/>
</a>
</g>
</g>
<!-- Node10 -->
<g id="Node000010" class="node">
<title>Node10</title>
<g id="a_Node000010"><a xlink:href="ParameterManager_8cc.html" target="_top" xlink:title=" ">
<polygon fill="white" stroke="#666666" points="1527,-35.5 1384,-35.5 1384,-5.5 1527,-5.5 1527,-35.5"/>
<text text-anchor="start" x="1392" y="-23.5" font-family="Helvetica,sans-Serif" font-size="10.00">src/FactSystem/Parameter</text>
<text text-anchor="middle" x="1455.5" y="-12.5" font-family="Helvetica,sans-Serif" font-size="10.00">Manager.cc</text>
</a>
</g>
</g>
<!-- Node1&#45;&gt;Node10 -->
<g id="edge9_Node000001_Node000010" class="edge">
<title>Node1&#45;&gt;Node10</title>
<g id="a_edge9_Node000001_Node000010"><a xlink:title=" ">
<path fill="none" stroke="#63b8ff" d="M2606.62,-84.61C2391.94,-81.57 1744,-70.18 1535.5,-41 1526.01,-39.67 1516.01,-37.7 1506.42,-35.52"/>
<polygon fill="#63b8ff" stroke="#63b8ff" points="2606.76,-88.11 2616.81,-84.75 2606.86,-81.11 2606.76,-88.11"/>
</a>
</g>
</g>
<!-- Node11 -->
<g id="Node000011" class="node">
<title>Node11</title>
<g id="a_Node000011"><a xlink:href="APMFirmwarePlugin_8cc.html" target="_top" xlink:title=" ">
<polygon fill="white" stroke="#666666" points="1700,-35.5 1545,-35.5 1545,-5.5 1700,-5.5 1700,-35.5"/>
<text text-anchor="start" x="1553" y="-23.5" font-family="Helvetica,sans-Serif" font-size="10.00">src/FirmwarePlugin</text>
<text text-anchor="middle" x="1622.5" y="-12.5" font-family="Helvetica,sans-Serif" font-size="10.00">/APM/APMFirmwarePlugin.cc</text>
</a>
</g>
</g>
<!-- Node1&#45;&gt;Node11 -->
<g id="edge10_Node000001_Node000011" class="edge">
<title>Node1&#45;&gt;Node11</title>
<g id="a_edge10_Node000001_Node000011"><a xlink:title=" ">
<path fill="none" stroke="#63b8ff" d="M2606.68,-83.87C2414.95,-79.14 1883.08,-64.27 1709.5,-41 1699.37,-39.64 1688.69,-37.69 1678.4,-35.54"/>
<polygon fill="#63b8ff" stroke="#63b8ff" points="2606.83,-87.38 2616.91,-84.12 2607,-80.38 2606.83,-87.38"/>
</a>
</g>
</g>
<!-- Node12 -->
<g id="Node000012" class="node">
<title>Node12</title>
<g id="a_Node000012"><a xlink:href="FirmwarePlugin_8cc.html" target="_top" xlink:title=" ">
<polygon fill="white" stroke="#666666" points="1828.5,-35.5 1718.5,-35.5 1718.5,-5.5 1828.5,-5.5 1828.5,-35.5"/>
<text text-anchor="start" x="1726.5" y="-23.5" font-family="Helvetica,sans-Serif" font-size="10.00">src/FirmwarePlugin</text>
<text text-anchor="middle" x="1773.5" y="-12.5" font-family="Helvetica,sans-Serif" font-size="10.00">/FirmwarePlugin.cc</text>
</a>
</g>
</g>
<!-- Node1&#45;&gt;Node12 -->
<g id="edge11_Node000001_Node000012" class="edge">
<title>Node1&#45;&gt;Node12</title>
<g id="a_edge11_Node000001_Node000012"><a xlink:title=" ">
<path fill="none" stroke="#63b8ff" d="M2606.88,-83.98C2433.28,-79.84 1984.6,-66.91 1837.5,-41 1829.95,-39.67 1822.04,-37.73 1814.46,-35.58"/>
<polygon fill="#63b8ff" stroke="#63b8ff" points="2606.85,-87.48 2616.93,-84.22 2607.01,-80.48 2606.85,-87.48"/>
</a>
</g>
</g>
<!-- Node13 -->
<g id="Node000013" class="node">
<title>Node13</title>
<g id="a_Node000013"><a xlink:href="NTRIPManager_8cc.html" target="_top" xlink:title=" ">
<polygon fill="white" stroke="#666666" points="2020,-30 1847,-30 1847,-11 2020,-11 2020,-30"/>
<text text-anchor="middle" x="1933.5" y="-18" font-family="Helvetica,sans-Serif" font-size="10.00">src/GPS/NTRIP/NTRIPManager.cc</text>
</a>
</g>
</g>
<!-- Node1&#45;&gt;Node13 -->
<g id="edge12_Node000001_Node000013" class="edge">
<title>Node1&#45;&gt;Node13</title>
<g id="a_edge12_Node000001_Node000013"><a xlink:title=" ">
<path fill="none" stroke="#63b8ff" d="M2606.74,-83.77C2487.67,-80.13 2237.76,-69.53 2028.5,-41 2008.81,-38.32 1987.09,-33.96 1969.39,-30.05"/>
<polygon fill="#63b8ff" stroke="#63b8ff" points="2606.72,-87.27 2616.82,-84.07 2606.93,-80.27 2606.72,-87.27"/>
</a>
</g>
</g>
<!-- Node14 -->
<g id="Node000014" class="node">
<title>Node14</title>
<g id="a_Node000014"><a xlink:href="CorridorScanComplexItem_8cc.html" target="_top" xlink:title=" ">
<polygon fill="white" stroke="#666666" points="2199,-35.5 2038,-35.5 2038,-5.5 2199,-5.5 2199,-35.5"/>
<text text-anchor="start" x="2046" y="-23.5" font-family="Helvetica,sans-Serif" font-size="10.00">src/MissionManager</text>
<text text-anchor="middle" x="2118.5" y="-12.5" font-family="Helvetica,sans-Serif" font-size="10.00">/CorridorScanComplexItem.cc</text>
</a>
</g>
</g>
<!-- Node1&#45;&gt;Node14 -->
<g id="edge13_Node000001_Node000014" class="edge">
<title>Node1&#45;&gt;Node14</title>
<g id="a_edge13_Node000001_Node000014"><a xlink:title=" ">
<path fill="none" stroke="#63b8ff" d="M2606.97,-81.54C2515.12,-75.71 2348.48,-63.05 2207.5,-41 2197.81,-39.48 2187.59,-37.56 2177.67,-35.51"/>
<polygon fill="#63b8ff" stroke="#63b8ff" points="2606.78,-85.04 2616.98,-82.17 2607.22,-78.05 2606.78,-85.04"/>
</a>
</g>
</g>
<!-- Node15 -->
<g id="Node000015" class="node">
<title>Node15</title>
<g id="a_Node000015"><a xlink:href="LandingComplexItem_8cc.html" target="_top" xlink:title=" ">
<polygon fill="white" stroke="#666666" points="2354,-35.5 2217,-35.5 2217,-5.5 2354,-5.5 2354,-35.5"/>
<text text-anchor="start" x="2225" y="-23.5" font-family="Helvetica,sans-Serif" font-size="10.00">src/MissionManager</text>
<text text-anchor="middle" x="2285.5" y="-12.5" font-family="Helvetica,sans-Serif" font-size="10.00">/LandingComplexItem.cc</text>
</a>
</g>
</g>
<!-- Node1&#45;&gt;Node15 -->
<g id="edge14_Node000001_Node000015" class="edge">
<title>Node1&#45;&gt;Node15</title>
<g id="a_edge14_Node000001_Node000015"><a xlink:title=" ">
<path fill="none" stroke="#63b8ff" d="M2606.45,-77.65C2542.79,-70.02 2446.42,-57.21 2363.5,-41 2355.42,-39.42 2346.92,-37.53 2338.62,-35.56"/>
<polygon fill="#63b8ff" stroke="#63b8ff" points="2606.43,-81.17 2616.77,-78.88 2607.25,-74.22 2606.43,-81.17"/>
</a>
</g>
</g>
<!-- Node16 -->
<g id="Node000016" class="node">
<title>Node16</title>
<g id="a_Node000016"><a xlink:href="MissionController_8cc.html" target="_top" xlink:title=" ">
<polygon fill="white" stroke="#666666" points="2490.5,-35.5 2372.5,-35.5 2372.5,-5.5 2490.5,-5.5 2490.5,-35.5"/>
<text text-anchor="start" x="2380.5" y="-23.5" font-family="Helvetica,sans-Serif" font-size="10.00">src/MissionManager</text>
<text text-anchor="middle" x="2431.5" y="-12.5" font-family="Helvetica,sans-Serif" font-size="10.00">/MissionController.cc</text>
</a>
</g>
</g>
<!-- Node1&#45;&gt;Node16 -->
<g id="edge15_Node000001_Node000016" class="edge">
<title>Node1&#45;&gt;Node16</title>
<g id="a_edge15_Node000001_Node000016"><a xlink:title=" ">
<path fill="none" stroke="#63b8ff" d="M2631.01,-74.5C2595.2,-65.74 2544.06,-52.99 2499.5,-41 2493.1,-39.28 2486.37,-37.41 2479.74,-35.55"/>
<polygon fill="#63b8ff" stroke="#63b8ff" points="2630.6,-78 2641.15,-76.98 2632.26,-71.2 2630.6,-78"/>
</a>
</g>
</g>
<!-- Node17 -->
<g id="Node000017" class="node">
<title>Node17</title>
<g id="a_Node000017"><a xlink:href="StructureScanComplexItem_8cc.html" target="_top" xlink:title=" ">
<polygon fill="white" stroke="#666666" points="2676,-35.5 2509,-35.5 2509,-5.5 2676,-5.5 2676,-35.5"/>
<text text-anchor="start" x="2517" y="-23.5" font-family="Helvetica,sans-Serif" font-size="10.00">src/MissionManager</text>
<text text-anchor="middle" x="2592.5" y="-12.5" font-family="Helvetica,sans-Serif" font-size="10.00">/StructureScanComplexItem.cc</text>
</a>
</g>
</g>
<!-- Node1&#45;&gt;Node17 -->
<g id="edge16_Node000001_Node000017" class="edge">
<title>Node1&#45;&gt;Node17</title>
<g id="a_edge16_Node000001_Node000017"><a xlink:title=" ">
<path fill="none" stroke="#63b8ff" d="M2656.83,-70.52C2643,-59.98 2624.6,-45.96 2611.03,-35.62"/>
<polygon fill="#63b8ff" stroke="#63b8ff" points="2655.1,-73.59 2665.17,-76.87 2659.34,-68.02 2655.1,-73.59"/>
</a>
</g>
</g>
<!-- Node18 -->
<g id="Node000018" class="node">
<title>Node18</title>
<g id="a_Node000018"><a xlink:href="SurveyComplexItem_8cc.html" target="_top" xlink:title=" ">
<polygon fill="white" stroke="#666666" points="2827,-35.5 2694,-35.5 2694,-5.5 2827,-5.5 2827,-35.5"/>
<text text-anchor="start" x="2702" y="-23.5" font-family="Helvetica,sans-Serif" font-size="10.00">src/MissionManager</text>
<text text-anchor="middle" x="2760.5" y="-12.5" font-family="Helvetica,sans-Serif" font-size="10.00">/SurveyComplexItem.cc</text>
</a>
</g>
</g>
<!-- Node1&#45;&gt;Node18 -->
<g id="edge17_Node000001_Node000018" class="edge">
<title>Node1&#45;&gt;Node18</title>
<g id="a_edge17_Node000001_Node000018"><a xlink:title=" ">
<path fill="none" stroke="#63b8ff" d="M2696.17,-70.52C2710,-59.98 2728.4,-45.96 2741.97,-35.62"/>
<polygon fill="#63b8ff" stroke="#63b8ff" points="2693.66,-68.02 2687.83,-76.87 2697.9,-73.59 2693.66,-68.02"/>
</a>
</g>
</g>
<!-- Node19 -->
<g id="Node000019" class="node">
<title>Node19</title>
<g id="a_Node000019"><a xlink:href="TransectStyleComplexItem_8cc.html" target="_top" xlink:title=" ">
<polygon fill="white" stroke="#666666" points="3009.5,-35.5 2845.5,-35.5 2845.5,-5.5 3009.5,-5.5 3009.5,-35.5"/>
<text text-anchor="start" x="2853.5" y="-23.5" font-family="Helvetica,sans-Serif" font-size="10.00">src/MissionManager</text>
<text text-anchor="middle" x="2927.5" y="-12.5" font-family="Helvetica,sans-Serif" font-size="10.00">/TransectStyleComplexItem.cc</text>
</a>
</g>
</g>
<!-- Node1&#45;&gt;Node19 -->
<g id="edge18_Node000001_Node000019" class="edge">
<title>Node1&#45;&gt;Node19</title>
<g id="a_edge18_Node000001_Node000019"><a xlink:title=" ">
<path fill="none" stroke="#63b8ff" d="M2719.81,-74.46C2762.1,-63.67 2826.6,-47.23 2872.5,-35.52"/>
<polygon fill="#63b8ff" stroke="#63b8ff" points="2718.92,-71.07 2710.09,-76.94 2720.65,-77.86 2718.92,-71.07"/>
</a>
</g>
</g>
<!-- Node20 -->
<g id="Node000020" class="node">
<title>Node20</title>
<g id="a_Node000020"><a xlink:href="QGCApplication_8cc.html" target="_top" xlink:title=" ">
<polygon fill="white" stroke="#666666" points="3151.5,-30 3027.5,-30 3027.5,-11 3151.5,-11 3151.5,-30"/>
<text text-anchor="middle" x="3089.5" y="-18" font-family="Helvetica,sans-Serif" font-size="10.00">src/QGCApplication.cc</text>
</a>
</g>
</g>
<!-- Node1&#45;&gt;Node20 -->
<g id="edge19_Node000001_Node000020" class="edge">
<title>Node1&#45;&gt;Node20</title>
<g id="a_edge19_Node000001_Node000020"><a xlink:title=" ">
<path fill="none" stroke="#63b8ff" d="M2746.6,-79.25C2816.06,-72.38 2925.26,-59.78 3018.5,-41 3032.91,-38.1 3048.7,-33.87 3061.73,-30.09"/>
<polygon fill="#63b8ff" stroke="#63b8ff" points="2745.84,-75.81 2736.22,-80.26 2746.52,-82.77 2745.84,-75.81"/>
</a>
</g>
</g>
<!-- Node21 -->
<g id="Node000021" class="node">
<title>Node21</title>
<g id="a_Node000021"><a xlink:href="QGCMapPolygon_8cc.html" target="_top" xlink:title=" ">
<polygon fill="white" stroke="#666666" points="3363,-30 3170,-30 3170,-11 3363,-11 3363,-30"/>
<text text-anchor="middle" x="3266.5" y="-18" font-family="Helvetica,sans-Serif" font-size="10.00">src/QmlControls/QGCMapPolygon.cc</text>
</a>
</g>
</g>
<!-- Node1&#45;&gt;Node21 -->
<g id="edge20_Node000001_Node000021" class="edge">
<title>Node1&#45;&gt;Node21</title>
<g id="a_edge20_Node000001_Node000021"><a xlink:title=" ">
<path fill="none" stroke="#63b8ff" d="M2746.29,-81.07C2840.57,-74.63 3013.71,-61.21 3160.5,-41 3181.91,-38.05 3205.58,-33.8 3225.11,-30.01"/>
<polygon fill="#63b8ff" stroke="#63b8ff" points="2746.05,-77.58 2736.31,-81.74 2746.52,-84.56 2746.05,-77.58"/>
</a>
</g>
</g>
<!-- Node22 -->
<g id="Node000022" class="node">
<title>Node22</title>
<g id="a_Node000022"><a xlink:href="QGCMapPolyline_8cc.html" target="_top" xlink:title=" ">
<polygon fill="white" stroke="#666666" points="3574,-30 3381,-30 3381,-11 3574,-11 3574,-30"/>
<text text-anchor="middle" x="3477.5" y="-18" font-family="Helvetica,sans-Serif" font-size="10.00">src/QmlControls/QGCMapPolyline.cc</text>
</a>
</g>
</g>
<!-- Node1&#45;&gt;Node22 -->
<g id="edge21_Node000001_Node000022" class="edge">
<title>Node1&#45;&gt;Node22</title>
<g id="a_edge21_Node000001_Node000022"><a xlink:title=" ">
<path fill="none" stroke="#63b8ff" d="M2746.57,-83.79C2872.35,-80.12 3144.61,-69.34 3372.5,-41 3394.21,-38.3 3418.22,-33.95 3437.79,-30.04"/>
<polygon fill="#63b8ff" stroke="#63b8ff" points="2746.21,-80.3 2736.31,-84.09 2746.41,-87.3 2746.21,-80.3"/>
</a>
</g>
</g>
<!-- Node23 -->
<g id="Node000023" class="node">
<title>Node23</title>
<g id="a_Node000023"><a xlink:href="ScreenToolsController_8cc.html" target="_top" xlink:title=" ">
<polygon fill="white" stroke="#666666" points="3747,-35.5 3592,-35.5 3592,-5.5 3747,-5.5 3747,-35.5"/>
<text text-anchor="start" x="3600" y="-23.5" font-family="Helvetica,sans-Serif" font-size="10.00">src/QmlControls/ScreenTools</text>
<text text-anchor="middle" x="3669.5" y="-12.5" font-family="Helvetica,sans-Serif" font-size="10.00">Controller.cc</text>
</a>
</g>
</g>
<!-- Node1&#45;&gt;Node23 -->
<g id="edge22_Node000001_Node000023" class="edge">
<title>Node1&#45;&gt;Node23</title>
<g id="a_edge22_Node000001_Node000023"><a xlink:title=" ">
<path fill="none" stroke="#63b8ff" d="M2746.43,-86.2C2899.13,-86.81 3273.54,-83.42 3583.5,-41 3593.51,-39.63 3604.08,-37.67 3614.24,-35.52"/>
<polygon fill="#63b8ff" stroke="#63b8ff" points="2746.27,-82.69 2736.26,-86.15 2746.24,-89.69 2746.27,-82.69"/>
</a>
</g>
</g>
<!-- Node24 -->
<g id="Node000024" class="node">
<title>Node24</title>
<g id="a_Node000024"><a xlink:href="TerrainProfile_8cc.html" target="_top" xlink:title=" ">
<polygon fill="white" stroke="#666666" points="3940,-30 3765,-30 3765,-11 3940,-11 3940,-30"/>
<text text-anchor="middle" x="3852.5" y="-18" font-family="Helvetica,sans-Serif" font-size="10.00">src/QmlControls/TerrainProfile.cc</text>
</a>
</g>
</g>
<!-- Node1&#45;&gt;Node24 -->
<g id="edge23_Node000001_Node000024" class="edge">
<title>Node1&#45;&gt;Node24</title>
<g id="a_edge23_Node000001_Node000024"><a xlink:title=" ">
<path fill="none" stroke="#63b8ff" d="M2746.12,-84.08C2952.66,-79.64 3559.79,-64.88 3756.5,-41 3776.76,-38.54 3799.12,-34.1 3817.16,-30.08"/>
<polygon fill="#63b8ff" stroke="#63b8ff" points="2745.93,-80.58 2736.01,-84.3 2746.08,-87.58 2745.93,-80.58"/>
</a>
</g>
</g>
<!-- Node25 -->
<g id="Node000025" class="node">
<title>Node25</title>
<g id="a_Node000025"><a xlink:href="QGeoTiledMappingManagerEngineQGC_8cpp.html" target="_top" xlink:title=" ">
<polygon fill="white" stroke="#666666" points="4146.5,-41 3958.5,-41 3958.5,0 4146.5,0 4146.5,-41"/>
<text text-anchor="start" x="3966.5" y="-29" font-family="Helvetica,sans-Serif" font-size="10.00">src/QtLocationPlugin</text>
<text text-anchor="start" x="3966.5" y="-18" font-family="Helvetica,sans-Serif" font-size="10.00">/QGeoTiledMappingManagerEngine</text>
<text text-anchor="middle" x="4052.5" y="-7" font-family="Helvetica,sans-Serif" font-size="10.00">QGC.cpp</text>
</a>
</g>
</g>
<!-- Node1&#45;&gt;Node25 -->
<g id="edge24_Node000001_Node000025" class="edge">
<title>Node1&#45;&gt;Node25</title>
<g id="a_edge24_Node000001_Node000025"><a xlink:title=" ">
<path fill="none" stroke="#63b8ff" d="M2746.39,-84.46C2977.14,-80.8 3713.43,-67.32 3949.5,-41 3952.39,-40.68 3955.33,-40.32 3958.29,-39.93"/>
<polygon fill="#63b8ff" stroke="#63b8ff" points="2746.05,-80.96 2736.11,-84.62 2746.16,-87.96 2746.05,-80.96"/>
</a>
</g>
</g>
<!-- Node26 -->
<g id="Node000026" class="node">
<title>Node26</title>
<g id="a_Node000026"><a xlink:href="AppSettings_8cc.html" target="_top" xlink:title=" ">
<polygon fill="white" stroke="#666666" points="4314,-30 4165,-30 4165,-11 4314,-11 4314,-30"/>
<text text-anchor="middle" x="4239.5" y="-18" font-family="Helvetica,sans-Serif" font-size="10.00">src/Settings/AppSettings.cc</text>
</a>
</g>
</g>
<!-- Node1&#45;&gt;Node26 -->
<g id="edge25_Node000001_Node000026" class="edge">
<title>Node1&#45;&gt;Node26</title>
<g id="a_edge25_Node000001_Node000026"><a xlink:title=" ">
<path fill="none" stroke="#63b8ff" d="M2746.31,-85.23C3000.73,-83.97 3877.85,-77.04 4155.5,-41 4173.61,-38.65 4193.54,-34.11 4209.44,-30"/>
<polygon fill="#63b8ff" stroke="#63b8ff" points="2746.07,-81.73 2736.09,-85.28 2746.11,-88.73 2746.07,-81.73"/>
</a>
</g>
</g>
<!-- Node27 -->
<g id="Node000027" class="node">
<title>Node27</title>
<g id="a_Node000027"><a xlink:href="QGC_8cc.html" target="_top" xlink:title=" ">
<polygon fill="white" stroke="#666666" points="4442.5,-30 4332.5,-30 4332.5,-11 4442.5,-11 4442.5,-30"/>
<text text-anchor="middle" x="4387.5" y="-18" font-family="Helvetica,sans-Serif" font-size="10.00">src/Utilities/QGC.cc</text>
</a>
</g>
</g>
<!-- Node1&#45;&gt;Node27 -->
<g id="edge26_Node000001_Node000027" class="edge">
<title>Node1&#45;&gt;Node27</title>
<g id="a_edge26_Node000001_Node000027"><a xlink:title=" ">
<path fill="none" stroke="#63b8ff" d="M2746.2,-84.72C3039.63,-81.29 4166.55,-66.55 4323.5,-41 4337.49,-38.72 4352.68,-34.19 4364.75,-30.06"/>
<polygon fill="#63b8ff" stroke="#63b8ff" points="2746.08,-81.22 2736.12,-84.84 2746.16,-88.22 2746.08,-81.22"/>
</a>
</g>
</g>
<!-- Node28 -->
<g id="Node000028" class="node">
<title>Node28</title>
<g id="a_Node000028"><a xlink:href="VehicleClockFactGroup_8cc.html" target="_top" xlink:title=" ">
<polygon fill="white" stroke="#666666" points="4604.5,-35.5 4460.5,-35.5 4460.5,-5.5 4604.5,-5.5 4604.5,-35.5"/>
<text text-anchor="start" x="4468.5" y="-23.5" font-family="Helvetica,sans-Serif" font-size="10.00">src/Vehicle/FactGroups</text>
<text text-anchor="middle" x="4532.5" y="-12.5" font-family="Helvetica,sans-Serif" font-size="10.00">/VehicleClockFactGroup.cc</text>
</a>
</g>
</g>
<!-- Node1&#45;&gt;Node28 -->
<g id="edge27_Node000001_Node000028" class="edge">
<title>Node1&#45;&gt;Node28</title>
<g id="a_edge27_Node000001_Node000028"><a xlink:title=" ">
<path fill="none" stroke="#63b8ff" d="M2746.51,-85.72C3032.53,-86.3 4113.19,-85.46 4451.5,-41 4461.25,-39.72 4471.54,-37.74 4481.39,-35.53"/>
<polygon fill="#63b8ff" stroke="#63b8ff" points="2746.28,-82.22 2736.27,-85.7 2746.26,-89.22 2746.28,-82.22"/>
</a>
</g>
</g>
<!-- Node29 -->
<g id="Node000029" class="node">
<title>Node29</title>
<g id="a_Node000029"><a xlink:href="Vehicle_8cc.html" target="_top" xlink:title=" ">
<polygon fill="white" stroke="#666666" points="4744,-30 4623,-30 4623,-11 4744,-11 4744,-30"/>
<text text-anchor="middle" x="4683.5" y="-18" font-family="Helvetica,sans-Serif" font-size="10.00">src/Vehicle/Vehicle.cc</text>
</a>
</g>
</g>
<!-- Node1&#45;&gt;Node29 -->
<g id="edge28_Node000001_Node000029" class="edge">
<title>Node1&#45;&gt;Node29</title>
<g id="a_edge28_Node000001_Node000029"><a xlink:title=" ">
<path fill="none" stroke="#63b8ff" d="M2746.36,-84.92C3071.21,-82.11 4426.29,-68.78 4613.5,-41 4628.72,-38.74 4645.34,-34.21 4658.55,-30.08"/>
<polygon fill="#63b8ff" stroke="#63b8ff" points="2746.11,-81.43 2736.14,-85.01 2746.17,-88.43 2746.11,-81.43"/>
</a>
</g>
</g>
<!-- Node30 -->
<g id="Node000030" class="node">
<title>Node30</title>
<g id="a_Node000030"><a xlink:href="FirmwareImage_8cc.html" target="_top" xlink:title=" ">
<polygon fill="white" stroke="#666666" points="4897,-35.5 4762,-35.5 4762,-5.5 4897,-5.5 4897,-35.5"/>
<text text-anchor="start" x="4770" y="-23.5" font-family="Helvetica,sans-Serif" font-size="10.00">src/Vehicle/VehicleSetup</text>
<text text-anchor="middle" x="4829.5" y="-12.5" font-family="Helvetica,sans-Serif" font-size="10.00">/FirmwareImage.cc</text>
</a>
</g>
</g>
<!-- Node1&#45;&gt;Node30 -->
<g id="edge29_Node000001_Node000030" class="edge">
<title>Node1&#45;&gt;Node30</title>
<g id="a_edge29_Node000001_Node000030"><a xlink:title=" ">
<path fill="none" stroke="#63b8ff" d="M2746.36,-84.96C3085.42,-82.19 4551.47,-68.71 4753.5,-41 4762.68,-39.74 4772.34,-37.78 4781.59,-35.57"/>
<polygon fill="#63b8ff" stroke="#63b8ff" points="2746.16,-81.46 2736.19,-85.04 2746.21,-88.46 2746.16,-81.46"/>
</a>
</g>
</g>
<!-- Node31 -->
<g id="Node000031" class="node">
<title>Node31</title>
<g id="a_Node000031"><a xlink:href="VideoManager_8cc.html" target="_top" xlink:title=" ">
<polygon fill="white" stroke="#666666" points="5106,-30 4915,-30 4915,-11 5106,-11 5106,-30"/>
<text text-anchor="middle" x="5010.5" y="-18" font-family="Helvetica,sans-Serif" font-size="10.00">src/VideoManager/VideoManager.cc</text>
</a>
</g>
</g>
<!-- Node1&#45;&gt;Node31 -->
<g id="edge30_Node000001_Node000031" class="edge">
<title>Node1&#45;&gt;Node31</title>
<g id="a_edge30_Node000001_Node000031"><a xlink:title=" ">
<path fill="none" stroke="#63b8ff" d="M2746.55,-85.66C3075.93,-86.19 4472.69,-85.69 4906.5,-41 4928.79,-38.7 4953.46,-34.17 4973.17,-30.05"/>
<polygon fill="#63b8ff" stroke="#63b8ff" points="2746.21,-82.16 2736.2,-85.65 2746.2,-89.16 2746.21,-82.16"/>
</a>
</g>
</g>
<!-- Node32 -->
<g id="Node000032" class="node">
<title>Node32</title>
<g id="a_Node000032"><a xlink:href="UVCReceiver_8cc.html" target="_top" xlink:title=" ">
<polygon fill="white" stroke="#666666" points="5302.5,-35.5 5124.5,-35.5 5124.5,-5.5 5302.5,-5.5 5302.5,-35.5"/>
<text text-anchor="start" x="5132.5" y="-23.5" font-family="Helvetica,sans-Serif" font-size="10.00">src/VideoManager/VideoReceiver</text>
<text text-anchor="middle" x="5213.5" y="-12.5" font-family="Helvetica,sans-Serif" font-size="10.00">/QtMultimedia/UVCReceiver.cc</text>
</a>
</g>
</g>
<!-- Node1&#45;&gt;Node32 -->
<g id="edge31_Node000001_Node000032" class="edge">
<title>Node1&#45;&gt;Node32</title>
<g id="a_edge31_Node000001_Node000032"><a xlink:title=" ">
<path fill="none" stroke="#63b8ff" d="M2746.33,-84.97C3119.95,-82.03 4874.91,-66.92 5115.5,-41 5127.31,-39.73 5139.82,-37.74 5151.81,-35.51"/>
<polygon fill="#63b8ff" stroke="#63b8ff" points="2746.17,-81.47 2736.2,-85.05 2746.22,-88.47 2746.17,-81.47"/>
</a>
</g>
</g>
<!-- Node33 -->
<g id="Node000033" class="node">
<title>Node33</title>
<g id="a_Node000033"><a xlink:href="main_8cc.html" target="_top" xlink:title=" ">
<polygon fill="white" stroke="#666666" points="5392.5,-30 5320.5,-30 5320.5,-11 5392.5,-11 5392.5,-30"/>
<text text-anchor="middle" x="5356.5" y="-18" font-family="Helvetica,sans-Serif" font-size="10.00">src/main.cc</text>
</a>
</g>
</g>
<!-- Node1&#45;&gt;Node33 -->
<g id="edge32_Node000001_Node000033" class="edge">
<title>Node1&#45;&gt;Node33</title>
<g id="a_edge32_Node000001_Node000033"><a xlink:title=" ">
<path fill="none" stroke="#63b8ff" d="M2746.15,-85.09C3150.49,-82.62 5182.68,-68.85 5311.5,-41 5321.65,-38.81 5332.35,-34.27 5340.76,-30.13"/>
<polygon fill="#63b8ff" stroke="#63b8ff" points="2746.03,-81.59 2736.06,-85.15 2746.08,-88.59 2746.03,-81.59"/>
</a>
</g>
</g>
</g>
</svg>

<g id="navigator" transform="translate(0 0)" fill="#404254">
  <rect fill="#f2f5e9" fill-opacity="0.5" stroke="#606060" stroke-width=".5" x="0" y="0" width="60" height="60"/>
  <use id="zoomplus" xlink:href="#zoomPlus" x="17" y="9" onmousedown="handleZoom(evt,'in')"/>
  <use id="zoomminus" xlink:href="#zoomMin" x="42" y="9" onmousedown="handleZoom(evt,'out')"/>
  <use id="reset" xlink:href="#resetDef" x="30" y="36" onmousedown="handleReset()"/>
   <use id="arrowup" xlink:href="#arrowUp" x="0" y="0" onmousedown="handlePan(0,-1)"/>
  <use id="arrowright" xlink:href="#arrowRight" x="0" y="0" onmousedown="handlePan(1,0)"/>
  <use id="arrowdown" xlink:href="#arrowDown" x="0" y="0" onmousedown="handlePan(0,1)"/>
  <use id="arrowleft" xlink:href="#arrowLeft" x="0" y="0" onmousedown="handlePan(-1,0)"/>
</g>
<svg viewBox="0 0 15 15" width="100%" height="30px" preserveAspectRatio="xMaxYMin meet">
 <g id="arrow_out" transform="scale(0.3 0.3)">
  <a xlink:href="QGCApplication_8h__dep__incl_org.svg" target="_base">
   <rect id="button" ry="5" rx="5" y="6" x="6" height="38" width="38"
        fill="#f2f5e9" fill-opacity="0.5" stroke="#606060" stroke-width="1.0"/>
   <path id="arrow"
     d="M 11.500037,31.436501 C 11.940474,20.09759 22.043105,11.32322 32.158766,21.979434 L 37.068811,17.246167 C 37.068811,17.246167 37.088388,32 37.088388,32 L 22.160133,31.978069 C 22.160133,31.978069 26.997745,27.140456 26.997745,27.140456 C 18.528582,18.264221 13.291696,25.230495 11.500037,31.436501 z"
     style="fill:#404040;"/>
  </a>
 </g>
</svg>

<style type='text/css'>
<![CDATA[
[data-mouse-over-selected='false'] { opacity: 0.7; }
[data-mouse-over-selected='true']  { opacity: 1.0; }
]]>
</style>
<script type="application/ecmascript"><![CDATA[
document.addEventListener('DOMContentLoaded', (event) => {
  highlightEdges();
  highlightAdjacentNodes();
});
]]></script>
</svg>
