<?xml version="1.0" encoding="UTF-8" standalone="no"?>
<!DOCTYPE svg PUBLIC "-//W3C//DTD SVG 1.1//EN"
 "http://www.w3.org/Graphics/SVG/1.1/DTD/svg11.dtd">
<!-- Generated by graphviz version 2.43.0 (0)
 -->
<!-- Title: src/Utilities/Compression/QGCArchiveModel.h Pages: 1 -->
<svg width="664pt" height="148pt"
 viewBox="0.00 0.00 663.50 148.00" xmlns="http://www.w3.org/2000/svg" xmlns:xlink="http://www.w3.org/1999/xlink">
<g id="graph0" class="graph" transform="scale(1 1) rotate(0) translate(4 144)">
<title>src/Utilities/Compression/QGCArchiveModel.h</title>
<!-- Node1 -->
<g id="Node000001" class="node">
<title>Node1</title>
<g id="a_Node000001"><a xlink:title=" ">
<polygon fill="#999999" stroke="#666666" points="428,-140 289,-140 289,-110 428,-110 428,-140"/>
<text text-anchor="start" x="297" y="-128" font-family="Helvetica,sans-Serif" font-size="10.00">src/Utilities/Compression</text>
<text text-anchor="middle" x="358.5" y="-117" font-family="Helvetica,sans-Serif" font-size="10.00">/QGCArchiveModel.h</text>
</a>
</g>
</g>
<!-- Node2 -->
<g id="Node000002" class="node">
<title>Node2</title>
<g id="a_Node000002"><a xlink:href="QGCCompressionTypes_8h.html" target="_top" xlink:title="Shared type definitions for compression/archive operations.">
<polygon fill="white" stroke="#666666" points="228,-74 89,-74 89,-55 228,-55 228,-74"/>
<text text-anchor="middle" x="158.5" y="-62" font-family="Helvetica,sans-Serif" font-size="10.00">QGCCompressionTypes.h</text>
</a>
</g>
</g>
<!-- Node1&#45;&gt;Node2 -->
<g id="edge1_Node000001_Node000002" class="edge">
<title>Node1&#45;&gt;Node2</title>
<g id="a_edge1_Node000001_Node000002"><a xlink:title=" ">
<path fill="none" stroke="#63b8ff" d="M310.6,-109.99C276.08,-99.89 230.08,-86.44 197.73,-76.98"/>
<polygon fill="#63b8ff" stroke="#63b8ff" points="198.32,-73.5 187.74,-74.05 196.36,-80.22 198.32,-73.5"/>
</a>
</g>
</g>
<!-- Node4 -->
<g id="Node000004" class="node">
<title>Node4</title>
<g id="a_Node000004"><a xlink:title=" ">
<polygon fill="#e0e0e0" stroke="#999999" points="300,-19 211,-19 211,0 300,0 300,-19"/>
<text text-anchor="middle" x="255.5" y="-7" font-family="Helvetica,sans-Serif" font-size="10.00">QtCore/QString</text>
</a>
</g>
</g>
<!-- Node1&#45;&gt;Node4 -->
<g id="edge6_Node000001_Node000004" class="edge">
<title>Node1&#45;&gt;Node4</title>
<g id="a_edge6_Node000001_Node000004"><a xlink:title=" ">
<path fill="none" stroke="#63b8ff" d="M323.27,-109.88C306.69,-101.64 287.88,-89.73 275.5,-74 265.33,-61.09 260.29,-42.93 257.82,-29.34"/>
<polygon fill="#63b8ff" stroke="#63b8ff" points="261.24,-28.57 256.29,-19.21 254.32,-29.62 261.24,-28.57"/>
</a>
</g>
</g>
<!-- Node6 -->
<g id="Node000006" class="node">
<title>Node6</title>
<g id="a_Node000006"><a xlink:title=" ">
<polygon fill="#e0e0e0" stroke="#999999" points="433,-74 284,-74 284,-55 433,-55 433,-74"/>
<text text-anchor="middle" x="358.5" y="-62" font-family="Helvetica,sans-Serif" font-size="10.00">QtCore/QAbstractListModel</text>
</a>
</g>
</g>
<!-- Node1&#45;&gt;Node6 -->
<g id="edge5_Node000001_Node000006" class="edge">
<title>Node1&#45;&gt;Node6</title>
<g id="a_edge5_Node000001_Node000006"><a xlink:title=" ">
<path fill="none" stroke="#63b8ff" d="M358.5,-109.84C358.5,-102.21 358.5,-92.7 358.5,-84.45"/>
<polygon fill="#63b8ff" stroke="#63b8ff" points="362,-84.27 358.5,-74.27 355,-84.27 362,-84.27"/>
</a>
</g>
</g>
<!-- Node7 -->
<g id="Node000007" class="node">
<title>Node7</title>
<g id="a_Node000007"><a xlink:title=" ">
<polygon fill="#e0e0e0" stroke="#999999" points="526,-74 451,-74 451,-55 526,-55 526,-74"/>
<text text-anchor="middle" x="488.5" y="-62" font-family="Helvetica,sans-Serif" font-size="10.00">QtCore/QUrl</text>
</a>
</g>
</g>
<!-- Node1&#45;&gt;Node7 -->
<g id="edge7_Node000001_Node000007" class="edge">
<title>Node1&#45;&gt;Node7</title>
<g id="a_edge7_Node000001_Node000007"><a xlink:title=" ">
<path fill="none" stroke="#63b8ff" d="M389.64,-109.99C411.04,-100.36 439.23,-87.67 460.03,-78.31"/>
<polygon fill="#63b8ff" stroke="#63b8ff" points="461.62,-81.43 469.3,-74.14 458.75,-75.05 461.62,-81.43"/>
</a>
</g>
</g>
<!-- Node8 -->
<g id="Node000008" class="node">
<title>Node8</title>
<g id="a_Node000008"><a xlink:title=" ">
<polygon fill="#e0e0e0" stroke="#999999" points="655.5,-74 543.5,-74 543.5,-55 655.5,-55 655.5,-74"/>
<text text-anchor="middle" x="599.5" y="-62" font-family="Helvetica,sans-Serif" font-size="10.00">QtQml/QQmlEngine</text>
</a>
</g>
</g>
<!-- Node1&#45;&gt;Node8 -->
<g id="edge8_Node000001_Node000008" class="edge">
<title>Node1&#45;&gt;Node8</title>
<g id="a_edge8_Node000001_Node000008"><a xlink:title=" ">
<path fill="none" stroke="#63b8ff" d="M416.23,-109.99C458.54,-99.72 515.18,-85.97 554.23,-76.49"/>
<polygon fill="#63b8ff" stroke="#63b8ff" points="555.37,-79.81 564.26,-74.05 553.72,-73.01 555.37,-79.81"/>
</a>
</g>
</g>
<!-- Node3 -->
<g id="Node000003" class="node">
<title>Node3</title>
<g id="a_Node000003"><a xlink:title=" ">
<polygon fill="#e0e0e0" stroke="#999999" points="109,-19 0,-19 0,0 109,0 109,-19"/>
<text text-anchor="middle" x="54.5" y="-7" font-family="Helvetica,sans-Serif" font-size="10.00">QtCore/QDateTime</text>
</a>
</g>
</g>
<!-- Node2&#45;&gt;Node3 -->
<g id="edge2_Node000002_Node000003" class="edge">
<title>Node2&#45;&gt;Node3</title>
<g id="a_edge2_Node000002_Node000003"><a xlink:title=" ">
<path fill="none" stroke="#63b8ff" d="M141.79,-54.98C125.29,-46.57 99.8,-33.59 80.62,-23.81"/>
<polygon fill="#63b8ff" stroke="#63b8ff" points="82.01,-20.59 71.51,-19.17 78.83,-26.83 82.01,-20.59"/>
</a>
</g>
</g>
<!-- Node2&#45;&gt;Node4 -->
<g id="edge3_Node000002_Node000004" class="edge">
<title>Node2&#45;&gt;Node4</title>
<g id="a_edge3_Node000002_Node000004"><a xlink:title=" ">
<path fill="none" stroke="#63b8ff" d="M174.08,-54.98C189.27,-46.69 212.6,-33.94 230.4,-24.22"/>
<polygon fill="#63b8ff" stroke="#63b8ff" points="232.53,-27.04 239.63,-19.17 229.18,-20.89 232.53,-27.04"/>
</a>
</g>
</g>
<!-- Node5 -->
<g id="Node000005" class="node">
<title>Node5</title>
<g id="a_Node000005"><a xlink:title=" ">
<polygon fill="#e0e0e0" stroke="#999999" points="192,-19 127,-19 127,0 192,0 192,-19"/>
<text text-anchor="middle" x="159.5" y="-7" font-family="Helvetica,sans-Serif" font-size="10.00">functional</text>
</a>
</g>
</g>
<!-- Node2&#45;&gt;Node5 -->
<g id="edge4_Node000002_Node000005" class="edge">
<title>Node2&#45;&gt;Node5</title>
<g id="a_edge4_Node000002_Node000005"><a xlink:title=" ">
<path fill="none" stroke="#63b8ff" d="M158.67,-54.75C158.8,-47.8 158.98,-37.85 159.15,-29.13"/>
<polygon fill="#63b8ff" stroke="#63b8ff" points="162.65,-29.15 159.34,-19.09 155.65,-29.02 162.65,-29.15"/>
</a>
</g>
</g>
</g>
</svg>
