<?xml version="1.0" encoding="UTF-8" standalone="no"?>
<!DOCTYPE svg PUBLIC "-//W3C//DTD SVG 1.1//EN"
 "http://www.w3.org/Graphics/SVG/1.1/DTD/svg11.dtd">
<!-- Generated by graphviz version 2.43.0 (0)
 -->
<!-- Title: src/Utilities/Compression/QGCArchiveDeviceBase.cc Pages: 1 -->
<svg width="1975pt" height="258pt"
 viewBox="0.00 0.00 1974.50 258.00" xmlns="http://www.w3.org/2000/svg" xmlns:xlink="http://www.w3.org/1999/xlink">
<g id="graph0" class="graph" transform="scale(1 1) rotate(0) translate(4 254)">
<title>src/Utilities/Compression/QGCArchiveDeviceBase.cc</title>
<!-- Node1 -->
<g id="Node000001" class="node">
<title>Node1</title>
<g id="a_Node000001"><a xlink:title=" ">
<polygon fill="#999999" stroke="#666666" points="1323.5,-250 1174.5,-250 1174.5,-220 1323.5,-220 1323.5,-250"/>
<text text-anchor="start" x="1182.5" y="-238" font-family="Helvetica,sans-Serif" font-size="10.00">src/Utilities/Compression</text>
<text text-anchor="middle" x="1249" y="-227" font-family="Helvetica,sans-Serif" font-size="10.00">/QGCArchiveDeviceBase.cc</text>
</a>
</g>
</g>
<!-- Node2 -->
<g id="Node000002" class="node">
<title>Node2</title>
<g id="a_Node000002"><a xlink:href="QGCArchiveDeviceBase_8h.html" target="_top" xlink:title="Base class for QIODevice wrappers using libarchive.">
<polygon fill="white" stroke="#666666" points="294,-184 152,-184 152,-165 294,-165 294,-184"/>
<text text-anchor="middle" x="223" y="-172" font-family="Helvetica,sans-Serif" font-size="10.00">QGCArchiveDeviceBase.h</text>
</a>
</g>
</g>
<!-- Node1&#45;&gt;Node2 -->
<g id="edge1_Node000001_Node000002" class="edge">
<title>Node1&#45;&gt;Node2</title>
<g id="a_edge1_Node000001_Node000002"><a xlink:title=" ">
<path fill="none" stroke="#63b8ff" d="M1174.39,-229.75C987.17,-219.07 498.67,-191.22 304.4,-180.14"/>
<polygon fill="#63b8ff" stroke="#63b8ff" points="304.44,-176.64 294.25,-179.56 304.04,-183.63 304.44,-176.64"/>
</a>
</g>
</g>
<!-- Node7 -->
<g id="Node000007" class="node">
<title>Node7</title>
<g id="a_Node000007"><a xlink:href="QGCFileHelper_8h.html" target="_top" xlink:title=" ">
<polygon fill="white" stroke="#666666" points="727,-184 631,-184 631,-165 727,-165 727,-184"/>
<text text-anchor="middle" x="679" y="-172" font-family="Helvetica,sans-Serif" font-size="10.00">QGCFileHelper.h</text>
</a>
</g>
</g>
<!-- Node1&#45;&gt;Node7 -->
<g id="edge6_Node000001_Node000007" class="edge">
<title>Node1&#45;&gt;Node7</title>
<g id="a_edge6_Node000001_Node000007"><a xlink:title=" ">
<path fill="none" stroke="#63b8ff" d="M1174.48,-226.35C1059.56,-214.56 841.48,-192.18 737.28,-181.48"/>
<polygon fill="#63b8ff" stroke="#63b8ff" points="737.56,-177.99 727.26,-180.45 736.85,-184.96 737.56,-177.99"/>
</a>
</g>
</g>
<!-- Node13 -->
<g id="Node000013" class="node">
<title>Node13</title>
<g id="a_Node000013"><a xlink:href="QGClibarchive_8h.html" target="_top" xlink:title="Private implementation details for QGCCompression.">
<polygon fill="white" stroke="#666666" points="1139.5,-184 1044.5,-184 1044.5,-165 1139.5,-165 1139.5,-184"/>
<text text-anchor="middle" x="1092" y="-172" font-family="Helvetica,sans-Serif" font-size="10.00">QGClibarchive.h</text>
</a>
</g>
</g>
<!-- Node1&#45;&gt;Node13 -->
<g id="edge13_Node000001_Node000013" class="edge">
<title>Node1&#45;&gt;Node13</title>
<g id="a_edge13_Node000001_Node000013"><a xlink:title=" ">
<path fill="none" stroke="#63b8ff" d="M1211.39,-219.99C1184.97,-210.14 1149.96,-197.1 1124.69,-187.68"/>
<polygon fill="#63b8ff" stroke="#63b8ff" points="1125.78,-184.35 1115.19,-184.14 1123.33,-190.91 1125.78,-184.35"/>
</a>
</g>
</g>
<!-- Node19 -->
<g id="Node000019" class="node">
<title>Node19</title>
<g id="a_Node000019"><a xlink:title=" ">
<polygon fill="#e0e0e0" stroke="#999999" points="1280,-129 1218,-129 1218,-110 1280,-110 1280,-129"/>
<text text-anchor="middle" x="1249" y="-117" font-family="Helvetica,sans-Serif" font-size="10.00">archive.h</text>
</a>
</g>
</g>
<!-- Node1&#45;&gt;Node19 -->
<g id="edge36_Node000001_Node000019" class="edge">
<title>Node1&#45;&gt;Node19</title>
<g id="a_edge36_Node000001_Node000019"><a xlink:title=" ">
<path fill="none" stroke="#63b8ff" d="M1249,-219.63C1249,-199.21 1249,-161.81 1249,-139.24"/>
<polygon fill="#63b8ff" stroke="#63b8ff" points="1252.5,-139.23 1249,-129.23 1245.5,-139.23 1252.5,-139.23"/>
</a>
</g>
</g>
<!-- Node20 -->
<g id="Node000020" class="node">
<title>Node20</title>
<g id="a_Node000020"><a xlink:href="QGCLoggingCategory_8h.html" target="_top" xlink:title=" ">
<polygon fill="white" stroke="#666666" points="1457,-184 1329,-184 1329,-165 1457,-165 1457,-184"/>
<text text-anchor="middle" x="1393" y="-172" font-family="Helvetica,sans-Serif" font-size="10.00">QGCLoggingCategory.h</text>
</a>
</g>
</g>
<!-- Node1&#45;&gt;Node20 -->
<g id="edge25_Node000001_Node000020" class="edge">
<title>Node1&#45;&gt;Node20</title>
<g id="a_edge25_Node000001_Node000020"><a xlink:title=" ">
<path fill="none" stroke="#63b8ff" d="M1283.49,-219.99C1307.52,-210.23 1339.27,-197.33 1362.4,-187.93"/>
<polygon fill="#63b8ff" stroke="#63b8ff" points="1363.79,-191.15 1371.73,-184.14 1361.15,-184.66 1363.79,-191.15"/>
</a>
</g>
</g>
<!-- Node27 -->
<g id="Node000027" class="node">
<title>Node27</title>
<g id="a_Node000027"><a xlink:title=" ">
<polygon fill="#e0e0e0" stroke="#999999" points="1566.5,-184 1475.5,-184 1475.5,-165 1566.5,-165 1566.5,-184"/>
<text text-anchor="middle" x="1521" y="-172" font-family="Helvetica,sans-Serif" font-size="10.00">archive_entry.h</text>
</a>
</g>
</g>
<!-- Node1&#45;&gt;Node27 -->
<g id="edge37_Node000001_Node000027" class="edge">
<title>Node1&#45;&gt;Node27</title>
<g id="a_edge37_Node000001_Node000027"><a xlink:title=" ">
<path fill="none" stroke="#63b8ff" d="M1314.15,-219.99C1362.41,-209.61 1427.19,-195.68 1471.31,-186.19"/>
<polygon fill="#63b8ff" stroke="#63b8ff" points="1472.19,-189.58 1481.23,-184.05 1470.72,-182.73 1472.19,-189.58"/>
</a>
</g>
</g>
<!-- Node28 -->
<g id="Node000028" class="node">
<title>Node28</title>
<g id="a_Node000028"><a xlink:title=" ">
<polygon fill="#e0e0e0" stroke="#999999" points="1635,-184 1585,-184 1585,-165 1635,-165 1635,-184"/>
<text text-anchor="middle" x="1610" y="-172" font-family="Helvetica,sans-Serif" font-size="10.00">cstring</text>
</a>
</g>
</g>
<!-- Node1&#45;&gt;Node28 -->
<g id="edge38_Node000001_Node000028" class="edge">
<title>Node1&#45;&gt;Node28</title>
<g id="a_edge38_Node000001_Node000028"><a xlink:title=" ">
<path fill="none" stroke="#63b8ff" d="M1323.77,-224.4C1390.05,-215.44 1489.34,-200.94 1575,-184 1575.1,-183.98 1575.2,-183.96 1575.3,-183.94"/>
<polygon fill="#63b8ff" stroke="#63b8ff" points="1575.78,-187.42 1584.82,-181.89 1574.31,-180.57 1575.78,-187.42"/>
</a>
</g>
</g>
<!-- Node3 -->
<g id="Node000003" class="node">
<title>Node3</title>
<g id="a_Node000003"><a xlink:title=" ">
<polygon fill="#e0e0e0" stroke="#999999" points="90,-129 0,-129 0,-110 90,-110 90,-129"/>
<text text-anchor="middle" x="45" y="-117" font-family="Helvetica,sans-Serif" font-size="10.00">QtCore/QBuffer</text>
</a>
</g>
</g>
<!-- Node2&#45;&gt;Node3 -->
<g id="edge2_Node000002_Node000003" class="edge">
<title>Node2&#45;&gt;Node3</title>
<g id="a_edge2_Node000002_Node000003"><a xlink:title=" ">
<path fill="none" stroke="#63b8ff" d="M194.4,-164.98C164.39,-156.05 117.02,-141.94 83.68,-132.02"/>
<polygon fill="#63b8ff" stroke="#63b8ff" points="84.41,-128.58 73.82,-129.08 82.41,-135.29 84.41,-128.58"/>
</a>
</g>
</g>
<!-- Node4 -->
<g id="Node000004" class="node">
<title>Node4</title>
<g id="a_Node000004"><a xlink:title=" ">
<polygon fill="#e0e0e0" stroke="#999999" points="262,-129 184,-129 184,-110 262,-110 262,-129"/>
<text text-anchor="middle" x="223" y="-117" font-family="Helvetica,sans-Serif" font-size="10.00">QtCore/QFile</text>
</a>
</g>
</g>
<!-- Node2&#45;&gt;Node4 -->
<g id="edge3_Node000002_Node000004" class="edge">
<title>Node2&#45;&gt;Node4</title>
<g id="a_edge3_Node000002_Node000004"><a xlink:title=" ">
<path fill="none" stroke="#63b8ff" d="M223,-164.75C223,-157.8 223,-147.85 223,-139.13"/>
<polygon fill="#63b8ff" stroke="#63b8ff" points="226.5,-139.09 223,-129.09 219.5,-139.09 226.5,-139.09"/>
</a>
</g>
</g>
<!-- Node5 -->
<g id="Node000005" class="node">
<title>Node5</title>
<g id="a_Node000005"><a xlink:title=" ">
<polygon fill="#e0e0e0" stroke="#999999" points="385.5,-129 280.5,-129 280.5,-110 385.5,-110 385.5,-129"/>
<text text-anchor="middle" x="333" y="-117" font-family="Helvetica,sans-Serif" font-size="10.00">QtCore/QIODevice</text>
</a>
</g>
</g>
<!-- Node2&#45;&gt;Node5 -->
<g id="edge4_Node000002_Node000005" class="edge">
<title>Node2&#45;&gt;Node5</title>
<g id="a_edge4_Node000002_Node000005"><a xlink:title=" ">
<path fill="none" stroke="#63b8ff" d="M240.67,-164.98C258.29,-156.5 285.58,-143.35 305.93,-133.54"/>
<polygon fill="#63b8ff" stroke="#63b8ff" points="307.52,-136.66 315.01,-129.17 304.48,-130.36 307.52,-136.66"/>
</a>
</g>
</g>
<!-- Node6 -->
<g id="Node000006" class="node">
<title>Node6</title>
<g id="a_Node000006"><a xlink:title=" ">
<polygon fill="#e0e0e0" stroke="#999999" points="166,-129 108,-129 108,-110 166,-110 166,-129"/>
<text text-anchor="middle" x="137" y="-117" font-family="Helvetica,sans-Serif" font-size="10.00">memory</text>
</a>
</g>
</g>
<!-- Node2&#45;&gt;Node6 -->
<g id="edge5_Node000002_Node000006" class="edge">
<title>Node2&#45;&gt;Node6</title>
<g id="a_edge5_Node000002_Node000006"><a xlink:title=" ">
<path fill="none" stroke="#63b8ff" d="M209.18,-164.98C195.85,-156.77 175.42,-144.18 159.69,-134.49"/>
<polygon fill="#63b8ff" stroke="#63b8ff" points="161.42,-131.44 151.07,-129.17 157.75,-137.4 161.42,-131.44"/>
</a>
</g>
</g>
<!-- Node7&#45;&gt;Node6 -->
<g id="edge12_Node000007_Node000006" class="edge">
<title>Node7&#45;&gt;Node6</title>
<g id="a_edge12_Node000007_Node000006"><a xlink:title=" ">
<path fill="none" stroke="#63b8ff" d="M630.8,-171.36C542.5,-166.99 348.78,-155.27 176.4,-129.02"/>
<polygon fill="#63b8ff" stroke="#63b8ff" points="176.8,-125.54 166.39,-127.48 175.73,-132.46 176.8,-125.54"/>
</a>
</g>
</g>
<!-- Node8 -->
<g id="Node000008" class="node">
<title>Node8</title>
<g id="a_Node000008"><a xlink:title=" ">
<polygon fill="#e0e0e0" stroke="#999999" points="966,-129 856,-129 856,-110 966,-110 966,-129"/>
<text text-anchor="middle" x="911" y="-117" font-family="Helvetica,sans-Serif" font-size="10.00">QtCore/QByteArray</text>
</a>
</g>
</g>
<!-- Node7&#45;&gt;Node8 -->
<g id="edge7_Node000007_Node000008" class="edge">
<title>Node7&#45;&gt;Node8</title>
<g id="a_edge7_Node000007_Node000008"><a xlink:title=" ">
<path fill="none" stroke="#63b8ff" d="M716.27,-164.98C756.32,-155.84 820.07,-141.27 863.64,-131.32"/>
<polygon fill="#63b8ff" stroke="#63b8ff" points="864.46,-134.72 873.43,-129.08 862.9,-127.9 864.46,-134.72"/>
</a>
</g>
</g>
<!-- Node9 -->
<g id="Node000009" class="node">
<title>Node9</title>
<g id="a_Node000009"><a xlink:title=" ">
<polygon fill="#e0e0e0" stroke="#999999" points="558,-129 404,-129 404,-110 558,-110 558,-129"/>
<text text-anchor="middle" x="481" y="-117" font-family="Helvetica,sans-Serif" font-size="10.00">QtCore/QCryptographicHash</text>
</a>
</g>
</g>
<!-- Node7&#45;&gt;Node9 -->
<g id="edge8_Node000007_Node000009" class="edge">
<title>Node7&#45;&gt;Node9</title>
<g id="a_edge8_Node000007_Node000009"><a xlink:title=" ">
<path fill="none" stroke="#63b8ff" d="M647.19,-164.98C613.51,-155.97 560.2,-141.7 523.08,-131.76"/>
<polygon fill="#63b8ff" stroke="#63b8ff" points="523.63,-128.29 513.06,-129.08 521.82,-135.05 523.63,-128.29"/>
</a>
</g>
</g>
<!-- Node10 -->
<g id="Node000010" class="node">
<title>Node10</title>
<g id="a_Node000010"><a xlink:title=" ">
<polygon fill="#e0e0e0" stroke="#999999" points="951.5,-74 862.5,-74 862.5,-55 951.5,-55 951.5,-74"/>
<text text-anchor="middle" x="907" y="-62" font-family="Helvetica,sans-Serif" font-size="10.00">QtCore/QString</text>
</a>
</g>
</g>
<!-- Node7&#45;&gt;Node10 -->
<g id="edge9_Node000007_Node000010" class="edge">
<title>Node7&#45;&gt;Node10</title>
<g id="a_edge9_Node000007_Node000010"><a xlink:title=" ">
<path fill="none" stroke="#63b8ff" d="M655.16,-164.99C626.85,-153.62 585.75,-132.3 605,-110 636.32,-73.72 774.15,-66.49 852.34,-65.38"/>
<polygon fill="#63b8ff" stroke="#63b8ff" points="852.54,-68.87 862.5,-65.26 852.46,-61.87 852.54,-68.87"/>
</a>
</g>
</g>
<!-- Node11 -->
<g id="Node000011" class="node">
<title>Node11</title>
<g id="a_Node000011"><a xlink:title=" ">
<polygon fill="#e0e0e0" stroke="#999999" points="744,-129 614,-129 614,-110 744,-110 744,-129"/>
<text text-anchor="middle" x="679" y="-117" font-family="Helvetica,sans-Serif" font-size="10.00">QtCore/QTemporaryFile</text>
</a>
</g>
</g>
<!-- Node7&#45;&gt;Node11 -->
<g id="edge10_Node000007_Node000011" class="edge">
<title>Node7&#45;&gt;Node11</title>
<g id="a_edge10_Node000007_Node000011"><a xlink:title=" ">
<path fill="none" stroke="#63b8ff" d="M679,-164.75C679,-157.8 679,-147.85 679,-139.13"/>
<polygon fill="#63b8ff" stroke="#63b8ff" points="682.5,-139.09 679,-129.09 675.5,-139.09 682.5,-139.09"/>
</a>
</g>
</g>
<!-- Node12 -->
<g id="Node000012" class="node">
<title>Node12</title>
<g id="a_Node000012"><a xlink:title=" ">
<polygon fill="#e0e0e0" stroke="#999999" points="837.5,-129 762.5,-129 762.5,-110 837.5,-110 837.5,-129"/>
<text text-anchor="middle" x="800" y="-117" font-family="Helvetica,sans-Serif" font-size="10.00">QtCore/QUrl</text>
</a>
</g>
</g>
<!-- Node7&#45;&gt;Node12 -->
<g id="edge11_Node000007_Node000012" class="edge">
<title>Node7&#45;&gt;Node12</title>
<g id="a_edge11_Node000007_Node000012"><a xlink:title=" ">
<path fill="none" stroke="#63b8ff" d="M698.44,-164.98C717.99,-156.42 748.38,-143.11 770.82,-133.28"/>
<polygon fill="#63b8ff" stroke="#63b8ff" points="772.45,-136.39 780.21,-129.17 769.64,-129.98 772.45,-136.39"/>
</a>
</g>
</g>
<!-- Node13&#45;&gt;Node4 -->
<g id="edge19_Node000013_Node000004" class="edge">
<title>Node13&#45;&gt;Node4</title>
<g id="a_edge19_Node000013_Node000004"><a xlink:title=" ">
<path fill="none" stroke="#63b8ff" d="M1044.17,-172.93C919,-171 571.4,-162.88 272.4,-129.01"/>
<polygon fill="#63b8ff" stroke="#63b8ff" points="272.57,-125.51 262.24,-127.85 271.77,-132.46 272.57,-125.51"/>
</a>
</g>
</g>
<!-- Node13&#45;&gt;Node5 -->
<g id="edge20_Node000013_Node000005" class="edge">
<title>Node13&#45;&gt;Node5</title>
<g id="a_edge20_Node000013_Node000005"><a xlink:title=" ">
<path fill="none" stroke="#63b8ff" d="M1044.16,-171.64C932.55,-167.05 646.09,-153.78 395.75,-128.99"/>
<polygon fill="#63b8ff" stroke="#63b8ff" points="396.03,-125.51 385.73,-127.99 395.34,-132.47 396.03,-125.51"/>
</a>
</g>
</g>
<!-- Node13&#45;&gt;Node8 -->
<g id="edge18_Node000013_Node000008" class="edge">
<title>Node13&#45;&gt;Node8</title>
<g id="a_edge18_Node000013_Node000008"><a xlink:title=" ">
<path fill="none" stroke="#63b8ff" d="M1062.92,-164.98C1032.4,-156.05 984.24,-141.94 950.34,-132.02"/>
<polygon fill="#63b8ff" stroke="#63b8ff" points="950.89,-128.53 940.31,-129.08 948.92,-135.25 950.89,-128.53"/>
</a>
</g>
</g>
<!-- Node13&#45;&gt;Node10 -->
<g id="edge22_Node000013_Node000010" class="edge">
<title>Node13&#45;&gt;Node10</title>
<g id="a_edge22_Node000013_Node000010"><a xlink:title=" ">
<path fill="none" stroke="#63b8ff" d="M1076.49,-164.92C1060.51,-156.05 1034.91,-141.73 1013,-129 984.08,-112.2 951.06,-92.3 929.67,-79.32"/>
<polygon fill="#63b8ff" stroke="#63b8ff" points="931.35,-76.25 920.99,-74.04 927.72,-82.23 931.35,-76.25"/>
</a>
</g>
</g>
<!-- Node14 -->
<g id="Node000014" class="node">
<title>Node14</title>
<g id="a_Node000014"><a xlink:href="QGCCompressionTypes_8h.html" target="_top" xlink:title="Shared type definitions for compression/archive operations.">
<polygon fill="white" stroke="#666666" points="1161.5,-129 1022.5,-129 1022.5,-110 1161.5,-110 1161.5,-129"/>
<text text-anchor="middle" x="1092" y="-117" font-family="Helvetica,sans-Serif" font-size="10.00">QGCCompressionTypes.h</text>
</a>
</g>
</g>
<!-- Node13&#45;&gt;Node14 -->
<g id="edge14_Node000013_Node000014" class="edge">
<title>Node13&#45;&gt;Node14</title>
<g id="a_edge14_Node000013_Node000014"><a xlink:title=" ">
<path fill="none" stroke="#63b8ff" d="M1092,-164.75C1092,-157.8 1092,-147.85 1092,-139.13"/>
<polygon fill="#63b8ff" stroke="#63b8ff" points="1095.5,-139.09 1092,-129.09 1088.5,-139.09 1095.5,-139.09"/>
</a>
</g>
</g>
<!-- Node17 -->
<g id="Node000017" class="node">
<title>Node17</title>
<g id="a_Node000017"><a xlink:title=" ">
<polygon fill="#e0e0e0" stroke="#999999" points="1563.5,-19 1420.5,-19 1420.5,0 1563.5,0 1563.5,-19"/>
<text text-anchor="middle" x="1492" y="-7" font-family="Helvetica,sans-Serif" font-size="10.00">QtCore/QLoggingCategory</text>
</a>
</g>
</g>
<!-- Node13&#45;&gt;Node17 -->
<g id="edge21_Node000013_Node000017" class="edge">
<title>Node13&#45;&gt;Node17</title>
<g id="a_edge21_Node000013_Node000017"><a xlink:title=" ">
<path fill="none" stroke="#63b8ff" d="M1107.32,-164.79C1134.2,-149.57 1188.93,-118.91 1209,-110 1293.92,-72.31 1397.92,-38.83 1453.16,-22"/>
<polygon fill="#63b8ff" stroke="#63b8ff" points="1454.34,-25.3 1462.89,-19.05 1452.31,-18.6 1454.34,-25.3"/>
</a>
</g>
</g>
<!-- Node18 -->
<g id="Node000018" class="node">
<title>Node18</title>
<g id="a_Node000018"><a xlink:title=" ">
<polygon fill="#e0e0e0" stroke="#999999" points="1405.5,-129 1298.5,-129 1298.5,-110 1405.5,-110 1405.5,-129"/>
<text text-anchor="middle" x="1352" y="-117" font-family="Helvetica,sans-Serif" font-size="10.00">QtCore/QStringList</text>
</a>
</g>
</g>
<!-- Node13&#45;&gt;Node18 -->
<g id="edge23_Node000013_Node000018" class="edge">
<title>Node13&#45;&gt;Node18</title>
<g id="a_edge23_Node000013_Node000018"><a xlink:title=" ">
<path fill="none" stroke="#63b8ff" d="M1133.77,-164.98C1178.94,-155.78 1251,-141.09 1299.85,-131.13"/>
<polygon fill="#63b8ff" stroke="#63b8ff" points="1300.8,-134.51 1309.9,-129.08 1299.4,-127.65 1300.8,-134.51"/>
</a>
</g>
</g>
<!-- Node13&#45;&gt;Node19 -->
<g id="edge24_Node000013_Node000019" class="edge">
<title>Node13&#45;&gt;Node19</title>
<g id="a_edge24_Node000013_Node000019"><a xlink:title=" ">
<path fill="none" stroke="#63b8ff" d="M1117.22,-164.98C1143.36,-156.16 1184.4,-142.31 1213.73,-132.41"/>
<polygon fill="#63b8ff" stroke="#63b8ff" points="1215.22,-135.6 1223.58,-129.08 1212.98,-128.96 1215.22,-135.6"/>
</a>
</g>
</g>
<!-- Node14&#45;&gt;Node10 -->
<g id="edge16_Node000014_Node000010" class="edge">
<title>Node14&#45;&gt;Node10</title>
<g id="a_edge16_Node000014_Node000010"><a xlink:title=" ">
<path fill="none" stroke="#63b8ff" d="M1062.28,-109.98C1030.95,-101.01 981.43,-86.82 946.76,-76.89"/>
<polygon fill="#63b8ff" stroke="#63b8ff" points="947.53,-73.47 936.96,-74.08 945.61,-80.2 947.53,-73.47"/>
</a>
</g>
</g>
<!-- Node15 -->
<g id="Node000015" class="node">
<title>Node15</title>
<g id="a_Node000015"><a xlink:title=" ">
<polygon fill="#e0e0e0" stroke="#999999" points="1161.5,-74 1052.5,-74 1052.5,-55 1161.5,-55 1161.5,-74"/>
<text text-anchor="middle" x="1107" y="-62" font-family="Helvetica,sans-Serif" font-size="10.00">QtCore/QDateTime</text>
</a>
</g>
</g>
<!-- Node14&#45;&gt;Node15 -->
<g id="edge15_Node000014_Node000015" class="edge">
<title>Node14&#45;&gt;Node15</title>
<g id="a_edge15_Node000014_Node000015"><a xlink:title=" ">
<path fill="none" stroke="#63b8ff" d="M1094.48,-109.75C1096.46,-102.72 1099.32,-92.62 1101.81,-83.84"/>
<polygon fill="#63b8ff" stroke="#63b8ff" points="1105.21,-84.66 1104.57,-74.09 1098.48,-82.76 1105.21,-84.66"/>
</a>
</g>
</g>
<!-- Node16 -->
<g id="Node000016" class="node">
<title>Node16</title>
<g id="a_Node000016"><a xlink:title=" ">
<polygon fill="#e0e0e0" stroke="#999999" points="1034.5,-74 969.5,-74 969.5,-55 1034.5,-55 1034.5,-74"/>
<text text-anchor="middle" x="1002" y="-62" font-family="Helvetica,sans-Serif" font-size="10.00">functional</text>
</a>
</g>
</g>
<!-- Node14&#45;&gt;Node16 -->
<g id="edge17_Node000014_Node000016" class="edge">
<title>Node14&#45;&gt;Node16</title>
<g id="a_edge17_Node000014_Node000016"><a xlink:title=" ">
<path fill="none" stroke="#63b8ff" d="M1077.54,-109.98C1063.58,-101.77 1042.21,-89.18 1025.75,-79.49"/>
<polygon fill="#63b8ff" stroke="#63b8ff" points="1027.12,-76.23 1016.72,-74.17 1023.56,-82.26 1027.12,-76.23"/>
</a>
</g>
</g>
<!-- Node20&#45;&gt;Node17 -->
<g id="edge32_Node000020_Node000017" class="edge">
<title>Node20&#45;&gt;Node17</title>
<g id="a_edge32_Node000020_Node000017"><a xlink:title=" ">
<path fill="none" stroke="#63b8ff" d="M1398.32,-164.74C1414.04,-138.87 1460.43,-62.48 1481.44,-27.88"/>
<polygon fill="#63b8ff" stroke="#63b8ff" points="1484.45,-29.67 1486.65,-19.31 1478.47,-26.04 1484.45,-29.67"/>
</a>
</g>
</g>
<!-- Node20&#45;&gt;Node18 -->
<g id="edge34_Node000020_Node000018" class="edge">
<title>Node20&#45;&gt;Node18</title>
<g id="a_edge34_Node000020_Node000018"><a xlink:title=" ">
<path fill="none" stroke="#63b8ff" d="M1386.23,-164.75C1380.44,-157.26 1371.94,-146.28 1364.86,-137.13"/>
<polygon fill="#63b8ff" stroke="#63b8ff" points="1367.53,-134.86 1358.64,-129.09 1361.99,-139.14 1367.53,-134.86"/>
</a>
</g>
</g>
<!-- Node21 -->
<g id="Node000021" class="node">
<title>Node21</title>
<g id="a_Node000021"><a xlink:href="QmlObjectListModel_8h.html" target="_top" xlink:title=" ">
<polygon fill="white" stroke="#666666" points="1797.5,-129 1672.5,-129 1672.5,-110 1797.5,-110 1797.5,-129"/>
<text text-anchor="middle" x="1735" y="-117" font-family="Helvetica,sans-Serif" font-size="10.00">QmlObjectListModel.h</text>
</a>
</g>
</g>
<!-- Node20&#45;&gt;Node21 -->
<g id="edge26_Node000020_Node000021" class="edge">
<title>Node20&#45;&gt;Node21</title>
<g id="a_edge26_Node000020_Node000021"><a xlink:title=" ">
<path fill="none" stroke="#63b8ff" d="M1447.95,-164.98C1508.44,-155.61 1605.61,-140.55 1669.88,-130.59"/>
<polygon fill="#63b8ff" stroke="#63b8ff" points="1670.56,-134.03 1679.9,-129.04 1669.49,-127.11 1670.56,-134.03"/>
</a>
</g>
</g>
<!-- Node25 -->
<g id="Node000025" class="node">
<title>Node25</title>
<g id="a_Node000025"><a xlink:title=" ">
<polygon fill="#e0e0e0" stroke="#999999" points="1554,-129 1462,-129 1462,-110 1554,-110 1554,-129"/>
<text text-anchor="middle" x="1508" y="-117" font-family="Helvetica,sans-Serif" font-size="10.00">QtCore/QObject</text>
</a>
</g>
</g>
<!-- Node20&#45;&gt;Node25 -->
<g id="edge33_Node000020_Node000025" class="edge">
<title>Node20&#45;&gt;Node25</title>
<g id="a_edge33_Node000020_Node000025"><a xlink:title=" ">
<path fill="none" stroke="#63b8ff" d="M1411.48,-164.98C1429.98,-156.46 1458.68,-143.23 1479.98,-133.41"/>
<polygon fill="#63b8ff" stroke="#63b8ff" points="1481.57,-136.53 1489.19,-129.17 1478.64,-130.18 1481.57,-136.53"/>
</a>
</g>
</g>
<!-- Node26 -->
<g id="Node000026" class="node">
<title>Node26</title>
<g id="a_Node000026"><a xlink:title=" ">
<polygon fill="#e0e0e0" stroke="#999999" points="1654,-129 1572,-129 1572,-110 1654,-110 1654,-129"/>
<text text-anchor="middle" x="1613" y="-117" font-family="Helvetica,sans-Serif" font-size="10.00">QtCore/QMap</text>
</a>
</g>
</g>
<!-- Node20&#45;&gt;Node26 -->
<g id="edge35_Node000020_Node000026" class="edge">
<title>Node20&#45;&gt;Node26</title>
<g id="a_edge35_Node000020_Node000026"><a xlink:title=" ">
<path fill="none" stroke="#63b8ff" d="M1428.35,-164.98C1466.16,-155.87 1526.26,-141.4 1567.57,-131.45"/>
<polygon fill="#63b8ff" stroke="#63b8ff" points="1568.47,-134.83 1577.38,-129.08 1566.83,-128.02 1568.47,-134.83"/>
</a>
</g>
</g>
<!-- Node21&#45;&gt;Node17 -->
<g id="edge31_Node000021_Node000017" class="edge">
<title>Node21&#45;&gt;Node17</title>
<g id="a_edge31_Node000021_Node000017"><a xlink:title=" ">
<path fill="none" stroke="#63b8ff" d="M1715.53,-109.84C1672.76,-90.84 1570.5,-45.39 1520.5,-23.17"/>
<polygon fill="#63b8ff" stroke="#63b8ff" points="1521.79,-19.91 1511.23,-19.05 1518.95,-26.31 1521.79,-19.91"/>
</a>
</g>
</g>
<!-- Node22 -->
<g id="Node000022" class="node">
<title>Node22</title>
<g id="a_Node000022"><a xlink:href="ObjectListModelBase_8h.html" target="_top" xlink:title=" ">
<polygon fill="white" stroke="#666666" points="1784,-74 1656,-74 1656,-55 1784,-55 1784,-74"/>
<text text-anchor="middle" x="1720" y="-62" font-family="Helvetica,sans-Serif" font-size="10.00">ObjectListModelBase.h</text>
</a>
</g>
</g>
<!-- Node21&#45;&gt;Node22 -->
<g id="edge27_Node000021_Node000022" class="edge">
<title>Node21&#45;&gt;Node22</title>
<g id="a_edge27_Node000021_Node000022"><a xlink:title=" ">
<path fill="none" stroke="#63b8ff" d="M1732.52,-109.75C1730.54,-102.72 1727.68,-92.62 1725.19,-83.84"/>
<polygon fill="#63b8ff" stroke="#63b8ff" points="1728.52,-82.76 1722.43,-74.09 1721.79,-84.66 1728.52,-82.76"/>
</a>
</g>
</g>
<!-- Node22&#45;&gt;Node17 -->
<g id="edge29_Node000022_Node000017" class="edge">
<title>Node22&#45;&gt;Node17</title>
<g id="a_edge29_Node000022_Node000017"><a xlink:title=" ">
<path fill="none" stroke="#63b8ff" d="M1683.37,-54.98C1644.09,-45.86 1581.63,-31.33 1538.81,-21.38"/>
<polygon fill="#63b8ff" stroke="#63b8ff" points="1539.45,-17.94 1528.92,-19.08 1537.87,-24.76 1539.45,-17.94"/>
</a>
</g>
</g>
<!-- Node23 -->
<g id="Node000023" class="node">
<title>Node23</title>
<g id="a_Node000023"><a xlink:title=" ">
<polygon fill="#e0e0e0" stroke="#999999" points="1966.5,-19 1817.5,-19 1817.5,0 1966.5,0 1966.5,-19"/>
<text text-anchor="middle" x="1892" y="-7" font-family="Helvetica,sans-Serif" font-size="10.00">QtCore/QAbstractListModel</text>
</a>
</g>
</g>
<!-- Node22&#45;&gt;Node23 -->
<g id="edge28_Node000022_Node000023" class="edge">
<title>Node22&#45;&gt;Node23</title>
<g id="a_edge28_Node000022_Node000023"><a xlink:title=" ">
<path fill="none" stroke="#63b8ff" d="M1747.63,-54.98C1776.51,-46.09 1822.01,-32.07 1854.2,-22.15"/>
<polygon fill="#63b8ff" stroke="#63b8ff" points="1855.62,-25.37 1864.15,-19.08 1853.56,-18.68 1855.62,-25.37"/>
</a>
</g>
</g>
<!-- Node24 -->
<g id="Node000024" class="node">
<title>Node24</title>
<g id="a_Node000024"><a xlink:title=" ">
<polygon fill="#e0e0e0" stroke="#999999" points="1799.5,-19 1610.5,-19 1610.5,0 1799.5,0 1799.5,-19"/>
<text text-anchor="middle" x="1705" y="-7" font-family="Helvetica,sans-Serif" font-size="10.00">QtQmlIntegration/QtQmlIntegration</text>
</a>
</g>
</g>
<!-- Node22&#45;&gt;Node24 -->
<g id="edge30_Node000022_Node000024" class="edge">
<title>Node22&#45;&gt;Node24</title>
<g id="a_edge30_Node000022_Node000024"><a xlink:title=" ">
<path fill="none" stroke="#63b8ff" d="M1717.52,-54.75C1715.54,-47.72 1712.68,-37.62 1710.19,-28.84"/>
<polygon fill="#63b8ff" stroke="#63b8ff" points="1713.52,-27.76 1707.43,-19.09 1706.79,-29.66 1713.52,-27.76"/>
</a>
</g>
</g>
</g>
</svg>
