<?xml version="1.0" encoding="UTF-8" standalone="no"?>
<!DOCTYPE svg PUBLIC "-//W3C//DTD SVG 1.1//EN"
 "http://www.w3.org/Graphics/SVG/1.1/DTD/svg11.dtd">
<!-- Generated by graphviz version 2.43.0 (0)
 -->
<!-- Title: src/API/QGCCorePlugin.h Pages: 1 -->
<svg width="3266pt" height="93pt"
 viewBox="0.00 0.00 3265.50 93.00" xmlns="http://www.w3.org/2000/svg" xmlns:xlink="http://www.w3.org/1999/xlink">
<g id="graph0" class="graph" transform="scale(1 1) rotate(0) translate(4 89)">
<title>src/API/QGCCorePlugin.h</title>
<!-- Node1 -->
<g id="Node000001" class="node">
<title>Node1</title>
<g id="a_Node000001"><a xlink:title=" ">
<polygon fill="#999999" stroke="#666666" points="1590,-85 1454,-85 1454,-66 1590,-66 1590,-85"/>
<text text-anchor="middle" x="1522" y="-73" font-family="Helvetica,sans-Serif" font-size="10.00">src/API/QGCCorePlugin.h</text>
</a>
</g>
</g>
<!-- Node2 -->
<g id="Node000002" class="node">
<title>Node2</title>
<g id="a_Node000002"><a xlink:href="QGCCorePlugin_8cc.html" target="_top" xlink:title=" ">
<polygon fill="white" stroke="#666666" points="140,-24.5 0,-24.5 0,-5.5 140,-5.5 140,-24.5"/>
<text text-anchor="middle" x="70" y="-12.5" font-family="Helvetica,sans-Serif" font-size="10.00">src/API/QGCCorePlugin.cc</text>
</a>
</g>
</g>
<!-- Node1&#45;&gt;Node2 -->
<g id="edge1_Node000001_Node000002" class="edge">
<title>Node1&#45;&gt;Node2</title>
<g id="a_edge1_Node000001_Node000002"><a xlink:title=" ">
<path fill="none" stroke="#63b8ff" d="M1443.43,-73.43C1191.06,-69.77 402.7,-56.45 149,-30 136.81,-28.73 123.66,-26.68 111.66,-24.53"/>
<polygon fill="#63b8ff" stroke="#63b8ff" points="1443.57,-76.93 1453.62,-73.58 1443.67,-69.94 1443.57,-76.93"/>
</a>
</g>
</g>
<!-- Node3 -->
<g id="Node000003" class="node">
<title>Node3</title>
<g id="a_Node000003"><a xlink:href="VehicleCameraControl_8cc.html" target="_top" xlink:title=" ">
<polygon fill="white" stroke="#666666" points="307.5,-30 158.5,-30 158.5,0 307.5,0 307.5,-30"/>
<text text-anchor="start" x="166.5" y="-18" font-family="Helvetica,sans-Serif" font-size="10.00">src/Camera/VehicleCamera</text>
<text text-anchor="middle" x="233" y="-7" font-family="Helvetica,sans-Serif" font-size="10.00">Control.cc</text>
</a>
</g>
</g>
<!-- Node1&#45;&gt;Node3 -->
<g id="edge2_Node000001_Node000003" class="edge">
<title>Node1&#45;&gt;Node3</title>
<g id="a_edge2_Node000001_Node000003"><a xlink:title=" ">
<path fill="none" stroke="#63b8ff" d="M1443.83,-75.08C1251.59,-75.74 740.55,-72.94 317,-30 313.91,-29.69 310.76,-29.33 307.59,-28.94"/>
<polygon fill="#63b8ff" stroke="#63b8ff" points="1443.86,-78.58 1453.84,-75.04 1443.83,-71.58 1443.86,-78.58"/>
</a>
</g>
</g>
<!-- Node4 -->
<g id="Node000004" class="node">
<title>Node4</title>
<g id="a_Node000004"><a xlink:href="Fact_8cc.html" target="_top" xlink:title=" ">
<polygon fill="white" stroke="#666666" points="452,-24.5 326,-24.5 326,-5.5 452,-5.5 452,-24.5"/>
<text text-anchor="middle" x="389" y="-12.5" font-family="Helvetica,sans-Serif" font-size="10.00">src/FactSystem/Fact.cc</text>
</a>
</g>
</g>
<!-- Node1&#45;&gt;Node4 -->
<g id="edge3_Node000001_Node000004" class="edge">
<title>Node1&#45;&gt;Node4</title>
<g id="a_edge3_Node000001_Node000004"><a xlink:title=" ">
<path fill="none" stroke="#63b8ff" d="M1443.54,-75.23C1267.24,-75.98 826.56,-72.96 461,-30 450,-28.71 438.16,-26.68 427.32,-24.56"/>
<polygon fill="#63b8ff" stroke="#63b8ff" points="1443.78,-78.72 1453.76,-75.18 1443.74,-71.72 1443.78,-78.72"/>
</a>
</g>
</g>
<!-- Node5 -->
<g id="Node000005" class="node">
<title>Node5</title>
<g id="a_Node000005"><a xlink:href="SettingsFact_8cc.html" target="_top" xlink:title=" ">
<polygon fill="white" stroke="#666666" points="636,-24.5 470,-24.5 470,-5.5 636,-5.5 636,-24.5"/>
<text text-anchor="middle" x="553" y="-12.5" font-family="Helvetica,sans-Serif" font-size="10.00">src/FactSystem/SettingsFact.cc</text>
</a>
</g>
</g>
<!-- Node1&#45;&gt;Node5 -->
<g id="edge4_Node000001_Node000005" class="edge">
<title>Node1&#45;&gt;Node5</title>
<g id="a_edge4_Node000001_Node000005"><a xlink:title=" ">
<path fill="none" stroke="#63b8ff" d="M1443.6,-73.16C1289.99,-69.95 938.76,-59.73 645,-30 631.34,-28.62 616.6,-26.61 603.02,-24.54"/>
<polygon fill="#63b8ff" stroke="#63b8ff" points="1443.8,-76.66 1453.87,-73.37 1443.95,-69.66 1443.8,-76.66"/>
</a>
</g>
</g>
<!-- Node6 -->
<g id="Node000006" class="node">
<title>Node6</title>
<g id="a_Node000006"><a xlink:href="Joystick_8cc.html" target="_top" xlink:title=" ">
<polygon fill="white" stroke="#666666" points="781.5,-24.5 654.5,-24.5 654.5,-5.5 781.5,-5.5 781.5,-24.5"/>
<text text-anchor="middle" x="718" y="-12.5" font-family="Helvetica,sans-Serif" font-size="10.00">src/Joystick/Joystick.cc</text>
</a>
</g>
</g>
<!-- Node1&#45;&gt;Node6 -->
<g id="edge5_Node000001_Node000006" class="edge">
<title>Node1&#45;&gt;Node6</title>
<g id="a_edge5_Node000001_Node000006"><a xlink:title=" ">
<path fill="none" stroke="#63b8ff" d="M1443.66,-73.11C1309.38,-69.97 1026.81,-60.09 790,-30 779.26,-28.64 767.72,-26.63 757.09,-24.57"/>
<polygon fill="#63b8ff" stroke="#63b8ff" points="1443.78,-76.61 1453.85,-73.34 1443.94,-69.61 1443.78,-76.61"/>
</a>
</g>
</g>
<!-- Node7 -->
<g id="Node000007" class="node">
<title>Node7</title>
<g id="a_Node000007"><a xlink:href="ComplexMissionItem_8cc.html" target="_top" xlink:title=" ">
<polygon fill="white" stroke="#666666" points="936.5,-30 799.5,-30 799.5,0 936.5,0 936.5,-30"/>
<text text-anchor="start" x="807.5" y="-18" font-family="Helvetica,sans-Serif" font-size="10.00">src/MissionManager</text>
<text text-anchor="middle" x="868" y="-7" font-family="Helvetica,sans-Serif" font-size="10.00">/ComplexMissionItem.cc</text>
</a>
</g>
</g>
<!-- Node1&#45;&gt;Node7 -->
<g id="edge6_Node000001_Node000007" class="edge">
<title>Node1&#45;&gt;Node7</title>
<g id="a_edge6_Node000001_Node000007"><a xlink:title=" ">
<path fill="none" stroke="#63b8ff" d="M1443.84,-70.96C1332.82,-65.36 1123.27,-52.7 946,-30 943,-29.62 939.94,-29.19 936.85,-28.74"/>
<polygon fill="#63b8ff" stroke="#63b8ff" points="1443.78,-74.46 1453.94,-71.46 1444.13,-67.47 1443.78,-74.46"/>
</a>
</g>
</g>
<!-- Node8 -->
<g id="Node000008" class="node">
<title>Node8</title>
<g id="a_Node000008"><a xlink:href="MissionController_8cc.html" target="_top" xlink:title=" ">
<polygon fill="white" stroke="#666666" points="1073,-30 955,-30 955,0 1073,0 1073,-30"/>
<text text-anchor="start" x="963" y="-18" font-family="Helvetica,sans-Serif" font-size="10.00">src/MissionManager</text>
<text text-anchor="middle" x="1014" y="-7" font-family="Helvetica,sans-Serif" font-size="10.00">/MissionController.cc</text>
</a>
</g>
</g>
<!-- Node1&#45;&gt;Node8 -->
<g id="edge7_Node000001_Node000008" class="edge">
<title>Node1&#45;&gt;Node8</title>
<g id="a_edge7_Node000001_Node000008"><a xlink:title=" ">
<path fill="none" stroke="#63b8ff" d="M1443.69,-69.01C1355.47,-62.26 1207.93,-49.28 1082,-30 1079.14,-29.56 1076.22,-29.08 1073.27,-28.58"/>
<polygon fill="#63b8ff" stroke="#63b8ff" points="1443.65,-72.52 1453.89,-69.78 1444.18,-65.54 1443.65,-72.52"/>
</a>
</g>
</g>
<!-- Node9 -->
<g id="Node000009" class="node">
<title>Node9</title>
<g id="a_Node000009"><a xlink:href="PlanMasterController_8cc.html" target="_top" xlink:title=" ">
<polygon fill="white" stroke="#666666" points="1226.5,-30 1091.5,-30 1091.5,0 1226.5,0 1226.5,-30"/>
<text text-anchor="start" x="1099.5" y="-18" font-family="Helvetica,sans-Serif" font-size="10.00">src/MissionManager</text>
<text text-anchor="middle" x="1159" y="-7" font-family="Helvetica,sans-Serif" font-size="10.00">/PlanMasterController.cc</text>
</a>
</g>
</g>
<!-- Node1&#45;&gt;Node9 -->
<g id="edge8_Node000001_Node000009" class="edge">
<title>Node1&#45;&gt;Node9</title>
<g id="a_edge8_Node000001_Node000009"><a xlink:title=" ">
<path fill="none" stroke="#63b8ff" d="M1453.75,-64.47C1395.55,-55.79 1309.68,-42.67 1235,-30 1232.22,-29.53 1229.39,-29.04 1226.53,-28.54"/>
<polygon fill="#63b8ff" stroke="#63b8ff" points="1453.52,-67.98 1463.93,-65.99 1454.55,-61.05 1453.52,-67.98"/>
</a>
</g>
</g>
<!-- Node10 -->
<g id="Node000010" class="node">
<title>Node10</title>
<g id="a_Node000010"><a xlink:href="PositionManager_8cpp.html" target="_top" xlink:title=" ">
<polygon fill="white" stroke="#666666" points="1365.5,-30 1244.5,-30 1244.5,0 1365.5,0 1365.5,-30"/>
<text text-anchor="start" x="1252.5" y="-18" font-family="Helvetica,sans-Serif" font-size="10.00">src/PositionManager</text>
<text text-anchor="middle" x="1305" y="-7" font-family="Helvetica,sans-Serif" font-size="10.00">/PositionManager.cpp</text>
</a>
</g>
</g>
<!-- Node1&#45;&gt;Node10 -->
<g id="edge9_Node000001_Node000010" class="edge">
<title>Node1&#45;&gt;Node10</title>
<g id="a_edge9_Node000001_Node000010"><a xlink:title=" ">
<path fill="none" stroke="#63b8ff" d="M1480.53,-63.32C1445.45,-53.86 1394.99,-40.26 1357.17,-30.06"/>
<polygon fill="#63b8ff" stroke="#63b8ff" points="1479.88,-66.77 1490.45,-65.99 1481.7,-60.01 1479.88,-66.77"/>
</a>
</g>
</g>
<!-- Node11 -->
<g id="Node000011" class="node">
<title>Node11</title>
<g id="a_Node000011"><a xlink:href="QGCApplication_8cc.html" target="_top" xlink:title=" ">
<polygon fill="white" stroke="#666666" points="1508,-24.5 1384,-24.5 1384,-5.5 1508,-5.5 1508,-24.5"/>
<text text-anchor="middle" x="1446" y="-12.5" font-family="Helvetica,sans-Serif" font-size="10.00">src/QGCApplication.cc</text>
</a>
</g>
</g>
<!-- Node1&#45;&gt;Node11 -->
<g id="edge10_Node000001_Node000011" class="edge">
<title>Node1&#45;&gt;Node11</title>
<g id="a_edge10_Node000001_Node000011"><a xlink:title=" ">
<path fill="none" stroke="#63b8ff" d="M1502.56,-59.54C1488.21,-48.49 1469.18,-33.84 1457.26,-24.67"/>
<polygon fill="#63b8ff" stroke="#63b8ff" points="1500.73,-62.54 1510.79,-65.87 1505,-56.99 1500.73,-62.54"/>
</a>
</g>
</g>
<!-- Node12 -->
<g id="Node000012" class="node">
<title>Node12</title>
<g id="a_Node000012"><a xlink:href="FactValueGrid_8cc.html" target="_top" xlink:title=" ">
<polygon fill="white" stroke="#666666" points="1670,-30 1526,-30 1526,0 1670,0 1670,-30"/>
<text text-anchor="start" x="1534" y="-18" font-family="Helvetica,sans-Serif" font-size="10.00">src/QmlControls/FactValue</text>
<text text-anchor="middle" x="1598" y="-7" font-family="Helvetica,sans-Serif" font-size="10.00">Grid.cc</text>
</a>
</g>
</g>
<!-- Node1&#45;&gt;Node12 -->
<g id="edge11_Node000001_Node000012" class="edge">
<title>Node1&#45;&gt;Node12</title>
<g id="a_edge11_Node000001_Node000012"><a xlink:title=" ">
<path fill="none" stroke="#63b8ff" d="M1541.14,-59.77C1552.95,-50.68 1568.01,-39.09 1579.66,-30.11"/>
<polygon fill="#63b8ff" stroke="#63b8ff" points="1539,-56.99 1533.21,-65.87 1543.27,-62.54 1539,-56.99"/>
</a>
</g>
</g>
<!-- Node13 -->
<g id="Node000013" class="node">
<title>Node13</title>
<g id="a_Node000013"><a xlink:href="QGCPalette_8cc.html" target="_top" xlink:title=" ">
<polygon fill="white" stroke="#666666" points="1855.5,-24.5 1688.5,-24.5 1688.5,-5.5 1855.5,-5.5 1855.5,-24.5"/>
<text text-anchor="middle" x="1772" y="-12.5" font-family="Helvetica,sans-Serif" font-size="10.00">src/QmlControls/QGCPalette.cc</text>
</a>
</g>
</g>
<!-- Node1&#45;&gt;Node13 -->
<g id="edge12_Node000001_Node000013" class="edge">
<title>Node1&#45;&gt;Node13</title>
<g id="a_edge12_Node000001_Node000013"><a xlink:title=" ">
<path fill="none" stroke="#63b8ff" d="M1568.24,-63.68C1616.54,-52.38 1691.33,-34.88 1735.6,-24.52"/>
<polygon fill="#63b8ff" stroke="#63b8ff" points="1567.29,-60.31 1558.35,-65.99 1568.89,-67.12 1567.29,-60.31"/>
</a>
</g>
</g>
<!-- Node14 -->
<g id="Node000014" class="node">
<title>Node14</title>
<g id="a_Node000014"><a xlink:href="QGroundControlQmlGlobal_8cc.html" target="_top" xlink:title=" ">
<polygon fill="white" stroke="#666666" points="2049,-30 1873,-30 1873,0 2049,0 2049,-30"/>
<text text-anchor="start" x="1881" y="-18" font-family="Helvetica,sans-Serif" font-size="10.00">src/QmlControls/QGroundControl</text>
<text text-anchor="middle" x="1961" y="-7" font-family="Helvetica,sans-Serif" font-size="10.00">QmlGlobal.cc</text>
</a>
</g>
</g>
<!-- Node1&#45;&gt;Node14 -->
<g id="edge13_Node000001_Node000014" class="edge">
<title>Node1&#45;&gt;Node14</title>
<g id="a_edge13_Node000001_Node000014"><a xlink:title=" ">
<path fill="none" stroke="#63b8ff" d="M1600.05,-64.73C1669.6,-55.94 1774.14,-42.52 1865,-30 1867.59,-29.64 1870.21,-29.28 1872.86,-28.91"/>
<polygon fill="#63b8ff" stroke="#63b8ff" points="1599.53,-61.27 1590.05,-65.99 1600.41,-68.21 1599.53,-61.27"/>
</a>
</g>
</g>
<!-- Node15 -->
<g id="Node000015" class="node">
<title>Node15</title>
<g id="a_Node000015"><a xlink:href="SettingsGroup_8cc.html" target="_top" xlink:title=" ">
<polygon fill="white" stroke="#666666" points="2225.5,-24.5 2066.5,-24.5 2066.5,-5.5 2225.5,-5.5 2225.5,-24.5"/>
<text text-anchor="middle" x="2146" y="-12.5" font-family="Helvetica,sans-Serif" font-size="10.00">src/Settings/SettingsGroup.cc</text>
</a>
</g>
</g>
<!-- Node1&#45;&gt;Node15 -->
<g id="edge14_Node000001_Node000015" class="edge">
<title>Node1&#45;&gt;Node15</title>
<g id="a_edge14_Node000001_Node000015"><a xlink:title=" ">
<path fill="none" stroke="#63b8ff" d="M1600.44,-69.84C1705.03,-63.19 1895.84,-49.6 2058,-30 2070.59,-28.48 2084.15,-26.49 2096.76,-24.5"/>
<polygon fill="#63b8ff" stroke="#63b8ff" points="1600.04,-66.35 1590.28,-70.48 1600.48,-73.34 1600.04,-66.35"/>
</a>
</g>
</g>
<!-- Node16 -->
<g id="Node000016" class="node">
<title>Node16</title>
<g id="a_Node000016"><a xlink:href="SettingsManager_8cc.html" target="_top" xlink:title=" ">
<polygon fill="white" stroke="#666666" points="2416,-24.5 2244,-24.5 2244,-5.5 2416,-5.5 2416,-24.5"/>
<text text-anchor="middle" x="2330" y="-12.5" font-family="Helvetica,sans-Serif" font-size="10.00">src/Settings/SettingsManager.cc</text>
</a>
</g>
</g>
<!-- Node1&#45;&gt;Node16 -->
<g id="edge15_Node000001_Node000016" class="edge">
<title>Node1&#45;&gt;Node16</title>
<g id="a_edge15_Node000001_Node000016"><a xlink:title=" ">
<path fill="none" stroke="#63b8ff" d="M1600.87,-71.74C1732.53,-66.66 2005.31,-54.05 2235,-30 2248.76,-28.56 2263.59,-26.58 2277.34,-24.57"/>
<polygon fill="#63b8ff" stroke="#63b8ff" points="1600.35,-68.26 1590.49,-72.14 1600.62,-75.26 1600.35,-68.26"/>
</a>
</g>
</g>
<!-- Node17 -->
<g id="Node000017" class="node">
<title>Node17</title>
<g id="a_Node000017"><a xlink:href="InitialConnectStateMachine_8cc.html" target="_top" xlink:title=" ">
<polygon fill="white" stroke="#666666" points="2574,-30 2434,-30 2434,0 2574,0 2574,-30"/>
<text text-anchor="start" x="2442" y="-18" font-family="Helvetica,sans-Serif" font-size="10.00">src/Vehicle/InitialConnect</text>
<text text-anchor="middle" x="2504" y="-7" font-family="Helvetica,sans-Serif" font-size="10.00">StateMachine.cc</text>
</a>
</g>
</g>
<!-- Node1&#45;&gt;Node17 -->
<g id="edge16_Node000001_Node000017" class="edge">
<title>Node1&#45;&gt;Node17</title>
<g id="a_edge16_Node000001_Node000017"><a xlink:title=" ">
<path fill="none" stroke="#63b8ff" d="M1600.24,-73.96C1757.15,-72.15 2121.28,-64.26 2425,-30 2427.91,-29.67 2430.87,-29.3 2433.86,-28.9"/>
<polygon fill="#63b8ff" stroke="#63b8ff" points="1600.16,-70.46 1590.2,-74.07 1600.24,-77.46 1600.16,-70.46"/>
</a>
</g>
</g>
<!-- Node18 -->
<g id="Node000018" class="node">
<title>Node18</title>
<g id="a_Node000018"><a xlink:href="MultiVehicleManager_8cc.html" target="_top" xlink:title=" ">
<polygon fill="white" stroke="#666666" points="2724,-30 2592,-30 2592,0 2724,0 2724,-30"/>
<text text-anchor="start" x="2600" y="-18" font-family="Helvetica,sans-Serif" font-size="10.00">src/Vehicle/MultiVehicle</text>
<text text-anchor="middle" x="2658" y="-7" font-family="Helvetica,sans-Serif" font-size="10.00">Manager.cc</text>
</a>
</g>
</g>
<!-- Node1&#45;&gt;Node18 -->
<g id="edge17_Node000001_Node000018" class="edge">
<title>Node1&#45;&gt;Node18</title>
<g id="a_edge17_Node000001_Node000018"><a xlink:title=" ">
<path fill="none" stroke="#63b8ff" d="M1600.44,-75.03C1776.69,-75.37 2217.28,-71.59 2583,-30 2585.9,-29.67 2588.85,-29.29 2591.82,-28.88"/>
<polygon fill="#63b8ff" stroke="#63b8ff" points="1600.23,-71.53 1590.22,-75 1600.21,-78.53 1600.23,-71.53"/>
</a>
</g>
</g>
<!-- Node19 -->
<g id="Node000019" class="node">
<title>Node19</title>
<g id="a_Node000019"><a xlink:href="Vehicle_8cc.html" target="_top" xlink:title=" ">
<polygon fill="white" stroke="#666666" points="2863.5,-24.5 2742.5,-24.5 2742.5,-5.5 2863.5,-5.5 2863.5,-24.5"/>
<text text-anchor="middle" x="2803" y="-12.5" font-family="Helvetica,sans-Serif" font-size="10.00">src/Vehicle/Vehicle.cc</text>
</a>
</g>
</g>
<!-- Node1&#45;&gt;Node19 -->
<g id="edge18_Node000001_Node000019" class="edge">
<title>Node1&#45;&gt;Node19</title>
<g id="a_edge18_Node000001_Node000019"><a xlink:title=" ">
<path fill="none" stroke="#63b8ff" d="M1600.3,-73.27C1832.11,-69.36 2512.45,-55.94 2733,-30 2743.83,-28.73 2755.49,-26.67 2766.12,-24.53"/>
<polygon fill="#63b8ff" stroke="#63b8ff" points="1600.2,-69.77 1590.26,-73.44 1600.32,-76.77 1600.2,-69.77"/>
</a>
</g>
</g>
<!-- Node20 -->
<g id="Node000020" class="node">
<title>Node20</title>
<g id="a_Node000020"><a xlink:href="FirmwareUpgradeController_8cc.html" target="_top" xlink:title=" ">
<polygon fill="white" stroke="#666666" points="3048.5,-30 2881.5,-30 2881.5,0 3048.5,0 3048.5,-30"/>
<text text-anchor="start" x="2889.5" y="-18" font-family="Helvetica,sans-Serif" font-size="10.00">src/Vehicle/VehicleSetup</text>
<text text-anchor="middle" x="2965" y="-7" font-family="Helvetica,sans-Serif" font-size="10.00">/FirmwareUpgradeController.cc</text>
</a>
</g>
</g>
<!-- Node1&#45;&gt;Node20 -->
<g id="edge19_Node000001_Node000020" class="edge">
<title>Node1&#45;&gt;Node20</title>
<g id="a_edge19_Node000001_Node000020"><a xlink:title=" ">
<path fill="none" stroke="#63b8ff" d="M1600.2,-75.15C1807.95,-76.16 2390.7,-74.48 2873,-30 2875.73,-29.75 2878.51,-29.47 2881.31,-29.16"/>
<polygon fill="#63b8ff" stroke="#63b8ff" points="1600.02,-71.64 1590.01,-75.09 1599.99,-78.64 1600.02,-71.64"/>
</a>
</g>
</g>
<!-- Node21 -->
<g id="Node000021" class="node">
<title>Node21</title>
<g id="a_Node000021"><a xlink:href="VideoManager_8cc.html" target="_top" xlink:title=" ">
<polygon fill="white" stroke="#666666" points="3257.5,-24.5 3066.5,-24.5 3066.5,-5.5 3257.5,-5.5 3257.5,-24.5"/>
<text text-anchor="middle" x="3162" y="-12.5" font-family="Helvetica,sans-Serif" font-size="10.00">src/VideoManager/VideoManager.cc</text>
</a>
</g>
</g>
<!-- Node1&#45;&gt;Node21 -->
<g id="edge20_Node000001_Node000021" class="edge">
<title>Node1&#45;&gt;Node21</title>
<g id="a_edge20_Node000001_Node000021"><a xlink:title=" ">
<path fill="none" stroke="#63b8ff" d="M1600.39,-75.13C1826.77,-76.31 2500.87,-75.44 3058,-30 3073.89,-28.7 3091.07,-26.66 3106.79,-24.53"/>
<polygon fill="#63b8ff" stroke="#63b8ff" points="1600.29,-71.63 1590.27,-75.07 1600.25,-78.63 1600.29,-71.63"/>
</a>
</g>
</g>
</g>
</svg>
