<?xml version="1.0" encoding="UTF-8" standalone="no"?>
<!DOCTYPE svg PUBLIC "-//W3C//DTD SVG 1.1//EN"
 "http://www.w3.org/Graphics/SVG/1.1/DTD/svg11.dtd">
<!-- Generated by graphviz version 2.43.0 (0)
 -->
<!-- Title: src/Utilities/QGCCommandLineParser.cc Pages: 1 -->
<svg width="974pt" height="313pt"
 viewBox="0.00 0.00 973.50 313.00" xmlns="http://www.w3.org/2000/svg" xmlns:xlink="http://www.w3.org/1999/xlink">
<g id="graph0" class="graph" transform="scale(1 1) rotate(0) translate(4 309)">
<title>src/Utilities/QGCCommandLineParser.cc</title>
<!-- Node1 -->
<g id="Node000001" class="node">
<title>Node1</title>
<g id="a_Node000001"><a xlink:title=" ">
<polygon fill="#999999" stroke="#666666" points="497.5,-305 350.5,-305 350.5,-275 497.5,-275 497.5,-305"/>
<text text-anchor="start" x="358.5" y="-293" font-family="Helvetica,sans-Serif" font-size="10.00">src/Utilities/QGCCommand</text>
<text text-anchor="middle" x="424" y="-282" font-family="Helvetica,sans-Serif" font-size="10.00">LineParser.cc</text>
</a>
</g>
</g>
<!-- Node2 -->
<g id="Node000002" class="node">
<title>Node2</title>
<g id="a_Node000002"><a xlink:href="QGCCommandLineParser_8h.html" target="_top" xlink:title=" ">
<polygon fill="white" stroke="#666666" points="221.5,-239 74.5,-239 74.5,-220 221.5,-220 221.5,-239"/>
<text text-anchor="middle" x="148" y="-227" font-family="Helvetica,sans-Serif" font-size="10.00">QGCCommandLineParser.h</text>
</a>
</g>
</g>
<!-- Node1&#45;&gt;Node2 -->
<g id="edge1_Node000001_Node000002" class="edge">
<title>Node1&#45;&gt;Node2</title>
<g id="a_edge1_Node000001_Node000002"><a xlink:title=" ">
<path fill="none" stroke="#63b8ff" d="M357.89,-274.99C308.92,-264.61 243.19,-250.68 198.42,-241.19"/>
<polygon fill="#63b8ff" stroke="#63b8ff" points="198.86,-237.7 188.36,-239.05 197.41,-244.55 198.86,-237.7"/>
</a>
</g>
</g>
<!-- Node7 -->
<g id="Node000007" class="node">
<title>Node7</title>
<g id="a_Node000007"><a xlink:title=" ">
<polygon fill="#e0e0e0" stroke="#999999" points="324,-239 240,-239 240,-220 324,-220 324,-239"/>
<text text-anchor="middle" x="282" y="-227" font-family="Helvetica,sans-Serif" font-size="10.00">qgc_version.h</text>
</a>
</g>
</g>
<!-- Node1&#45;&gt;Node7 -->
<g id="edge6_Node000001_Node000007" class="edge">
<title>Node1&#45;&gt;Node7</title>
<g id="a_edge6_Node000001_Node000007"><a xlink:title=" ">
<path fill="none" stroke="#63b8ff" d="M389.99,-274.99C366.4,-265.27 335.26,-252.44 312.48,-243.06"/>
<polygon fill="#63b8ff" stroke="#63b8ff" points="313.55,-239.71 302.97,-239.14 310.88,-246.18 313.55,-239.71"/>
</a>
</g>
</g>
<!-- Node8 -->
<g id="Node000008" class="node">
<title>Node8</title>
<g id="a_Node000008"><a xlink:title=" ">
<polygon fill="#e0e0e0" stroke="#999999" points="506,-239 342,-239 342,-220 506,-220 506,-239"/>
<text text-anchor="middle" x="424" y="-227" font-family="Helvetica,sans-Serif" font-size="10.00">QtCore/QCommandLineOption</text>
</a>
</g>
</g>
<!-- Node1&#45;&gt;Node8 -->
<g id="edge7_Node000001_Node000008" class="edge">
<title>Node1&#45;&gt;Node8</title>
<g id="a_edge7_Node000001_Node000008"><a xlink:title=" ">
<path fill="none" stroke="#63b8ff" d="M424,-274.84C424,-267.21 424,-257.7 424,-249.45"/>
<polygon fill="#63b8ff" stroke="#63b8ff" points="427.5,-249.27 424,-239.27 420.5,-249.27 427.5,-249.27"/>
</a>
</g>
</g>
<!-- Node9 -->
<g id="Node000009" class="node">
<title>Node9</title>
<g id="a_Node000009"><a xlink:title=" ">
<polygon fill="#e0e0e0" stroke="#999999" points="662,-239 524,-239 524,-220 662,-220 662,-239"/>
<text text-anchor="middle" x="593" y="-227" font-family="Helvetica,sans-Serif" font-size="10.00">QtCore/QCoreApplication</text>
</a>
</g>
</g>
<!-- Node1&#45;&gt;Node9 -->
<g id="edge8_Node000001_Node000009" class="edge">
<title>Node1&#45;&gt;Node9</title>
<g id="a_edge8_Node000001_Node000009"><a xlink:title=" ">
<path fill="none" stroke="#63b8ff" d="M464.48,-274.99C493.18,-265.05 531.28,-251.86 558.53,-242.43"/>
<polygon fill="#63b8ff" stroke="#63b8ff" points="559.74,-245.72 568.04,-239.14 557.45,-239.1 559.74,-245.72"/>
</a>
</g>
</g>
<!-- Node10 -->
<g id="Node000010" class="node">
<title>Node10</title>
<g id="a_Node000010"><a xlink:href="QGCLoggingCategory_8h.html" target="_top" xlink:title=" ">
<polygon fill="white" stroke="#666666" points="808,-239 680,-239 680,-220 808,-220 808,-239"/>
<text text-anchor="middle" x="744" y="-227" font-family="Helvetica,sans-Serif" font-size="10.00">QGCLoggingCategory.h</text>
</a>
</g>
</g>
<!-- Node1&#45;&gt;Node10 -->
<g id="edge9_Node000001_Node000010" class="edge">
<title>Node1&#45;&gt;Node10</title>
<g id="a_edge9_Node000001_Node000010"><a xlink:title=" ">
<path fill="none" stroke="#63b8ff" d="M497.82,-275.51C555.56,-264.95 634.65,-250.49 687.44,-240.84"/>
<polygon fill="#63b8ff" stroke="#63b8ff" points="688.1,-244.28 697.31,-239.04 686.84,-237.39 688.1,-244.28"/>
</a>
</g>
</g>
<!-- Node3 -->
<g id="Node000003" class="node">
<title>Node3</title>
<g id="a_Node000003"><a xlink:title=" ">
<polygon fill="#e0e0e0" stroke="#999999" points="56,-184 0,-184 0,-165 56,-165 56,-184"/>
<text text-anchor="middle" x="28" y="-172" font-family="Helvetica,sans-Serif" font-size="10.00">optional</text>
</a>
</g>
</g>
<!-- Node2&#45;&gt;Node3 -->
<g id="edge2_Node000002_Node000003" class="edge">
<title>Node2&#45;&gt;Node3</title>
<g id="a_edge2_Node000002_Node000003"><a xlink:title=" ">
<path fill="none" stroke="#63b8ff" d="M128.72,-219.98C109.33,-211.42 79.19,-198.11 56.93,-188.28"/>
<polygon fill="#63b8ff" stroke="#63b8ff" points="58.19,-185.01 47.63,-184.17 55.36,-191.41 58.19,-185.01"/>
</a>
</g>
</g>
<!-- Node4 -->
<g id="Node000004" class="node">
<title>Node4</title>
<g id="a_Node000004"><a xlink:title=" ">
<polygon fill="#e0e0e0" stroke="#999999" points="235.5,-184 74.5,-184 74.5,-165 235.5,-165 235.5,-184"/>
<text text-anchor="middle" x="155" y="-172" font-family="Helvetica,sans-Serif" font-size="10.00">QtCore/QCommandLineParser</text>
</a>
</g>
</g>
<!-- Node2&#45;&gt;Node4 -->
<g id="edge3_Node000002_Node000004" class="edge">
<title>Node2&#45;&gt;Node4</title>
<g id="a_edge3_Node000002_Node000004"><a xlink:title=" ">
<path fill="none" stroke="#63b8ff" d="M149.16,-219.75C150.07,-212.8 151.39,-202.85 152.54,-194.13"/>
<polygon fill="#63b8ff" stroke="#63b8ff" points="156.03,-194.46 153.87,-184.09 149.09,-193.54 156.03,-194.46"/>
</a>
</g>
</g>
<!-- Node5 -->
<g id="Node000005" class="node">
<title>Node5</title>
<g id="a_Node000005"><a xlink:title=" ">
<polygon fill="#e0e0e0" stroke="#999999" points="585.5,-19 442.5,-19 442.5,0 585.5,0 585.5,-19"/>
<text text-anchor="middle" x="514" y="-7" font-family="Helvetica,sans-Serif" font-size="10.00">QtCore/QLoggingCategory</text>
</a>
</g>
</g>
<!-- Node2&#45;&gt;Node5 -->
<g id="edge4_Node000002_Node000005" class="edge">
<title>Node2&#45;&gt;Node5</title>
<g id="a_edge4_Node000002_Node000005"><a xlink:title=" ">
<path fill="none" stroke="#63b8ff" d="M168.63,-219.92C188.34,-211.48 218.73,-197.89 244,-184 340.84,-130.77 449.69,-55.88 493.81,-24.84"/>
<polygon fill="#63b8ff" stroke="#63b8ff" points="495.84,-27.7 501.99,-19.07 491.8,-21.98 495.84,-27.7"/>
</a>
</g>
</g>
<!-- Node6 -->
<g id="Node000006" class="node">
<title>Node6</title>
<g id="a_Node000006"><a xlink:title=" ">
<polygon fill="#e0e0e0" stroke="#999999" points="477.5,-184 370.5,-184 370.5,-165 477.5,-165 477.5,-184"/>
<text text-anchor="middle" x="424" y="-172" font-family="Helvetica,sans-Serif" font-size="10.00">QtCore/QStringList</text>
</a>
</g>
</g>
<!-- Node2&#45;&gt;Node6 -->
<g id="edge5_Node000002_Node000006" class="edge">
<title>Node2&#45;&gt;Node6</title>
<g id="a_edge5_Node000002_Node000006"><a xlink:title=" ">
<path fill="none" stroke="#63b8ff" d="M192.34,-219.98C240.49,-210.74 317.42,-195.97 369.29,-186.01"/>
<polygon fill="#63b8ff" stroke="#63b8ff" points="370.15,-189.41 379.31,-184.08 368.83,-182.53 370.15,-189.41"/>
</a>
</g>
</g>
<!-- Node10&#45;&gt;Node5 -->
<g id="edge17_Node000010_Node000005" class="edge">
<title>Node10&#45;&gt;Node5</title>
<g id="a_edge17_Node000010_Node000005"><a xlink:title=" ">
<path fill="none" stroke="#63b8ff" d="M692.27,-219.97C636.79,-210.36 555.22,-194.67 545,-184 504.31,-141.51 507.25,-64.98 511.24,-29.51"/>
<polygon fill="#63b8ff" stroke="#63b8ff" points="514.77,-29.52 512.57,-19.16 507.82,-28.63 514.77,-29.52"/>
</a>
</g>
</g>
<!-- Node10&#45;&gt;Node6 -->
<g id="edge19_Node000010_Node000006" class="edge">
<title>Node10&#45;&gt;Node6</title>
<g id="a_edge19_Node000010_Node000006"><a xlink:title=" ">
<path fill="none" stroke="#63b8ff" d="M692.59,-219.98C636.22,-210.65 545.81,-195.67 485.67,-185.71"/>
<polygon fill="#63b8ff" stroke="#63b8ff" points="485.99,-182.22 475.55,-184.04 484.84,-189.13 485.99,-182.22"/>
</a>
</g>
</g>
<!-- Node11 -->
<g id="Node000011" class="node">
<title>Node11</title>
<g id="a_Node000011"><a xlink:href="QmlObjectListModel_8h.html" target="_top" xlink:title=" ">
<polygon fill="white" stroke="#666666" points="679.5,-184 554.5,-184 554.5,-165 679.5,-165 679.5,-184"/>
<text text-anchor="middle" x="617" y="-172" font-family="Helvetica,sans-Serif" font-size="10.00">QmlObjectListModel.h</text>
</a>
</g>
</g>
<!-- Node10&#45;&gt;Node11 -->
<g id="edge10_Node000010_Node000011" class="edge">
<title>Node10&#45;&gt;Node11</title>
<g id="a_edge10_Node000010_Node000011"><a xlink:title=" ">
<path fill="none" stroke="#63b8ff" d="M723.6,-219.98C702.98,-211.38 670.89,-197.99 647.31,-188.15"/>
<polygon fill="#63b8ff" stroke="#63b8ff" points="648.35,-184.79 637.78,-184.17 645.66,-191.25 648.35,-184.79"/>
</a>
</g>
</g>
<!-- Node16 -->
<g id="Node000016" class="node">
<title>Node16</title>
<g id="a_Node000016"><a xlink:title=" ">
<polygon fill="#e0e0e0" stroke="#999999" points="790,-184 698,-184 698,-165 790,-165 790,-184"/>
<text text-anchor="middle" x="744" y="-172" font-family="Helvetica,sans-Serif" font-size="10.00">QtCore/QObject</text>
</a>
</g>
</g>
<!-- Node10&#45;&gt;Node16 -->
<g id="edge18_Node000010_Node000016" class="edge">
<title>Node10&#45;&gt;Node16</title>
<g id="a_edge18_Node000010_Node000016"><a xlink:title=" ">
<path fill="none" stroke="#63b8ff" d="M744,-219.75C744,-212.8 744,-202.85 744,-194.13"/>
<polygon fill="#63b8ff" stroke="#63b8ff" points="747.5,-194.09 744,-184.09 740.5,-194.09 747.5,-194.09"/>
</a>
</g>
</g>
<!-- Node17 -->
<g id="Node000017" class="node">
<title>Node17</title>
<g id="a_Node000017"><a xlink:title=" ">
<polygon fill="#e0e0e0" stroke="#999999" points="890,-184 808,-184 808,-165 890,-165 890,-184"/>
<text text-anchor="middle" x="849" y="-172" font-family="Helvetica,sans-Serif" font-size="10.00">QtCore/QMap</text>
</a>
</g>
</g>
<!-- Node10&#45;&gt;Node17 -->
<g id="edge20_Node000010_Node000017" class="edge">
<title>Node10&#45;&gt;Node17</title>
<g id="a_edge20_Node000010_Node000017"><a xlink:title=" ">
<path fill="none" stroke="#63b8ff" d="M760.87,-219.98C777.61,-211.54 803.5,-198.47 822.89,-188.68"/>
<polygon fill="#63b8ff" stroke="#63b8ff" points="824.47,-191.8 831.82,-184.17 821.32,-185.55 824.47,-191.8"/>
</a>
</g>
</g>
<!-- Node11&#45;&gt;Node5 -->
<g id="edge16_Node000011_Node000005" class="edge">
<title>Node11&#45;&gt;Node5</title>
<g id="a_edge16_Node000011_Node000005"><a xlink:title=" ">
<path fill="none" stroke="#63b8ff" d="M611.46,-164.74C595.12,-138.87 546.85,-62.48 524.98,-27.88"/>
<polygon fill="#63b8ff" stroke="#63b8ff" points="527.87,-25.89 519.57,-19.31 521.95,-29.63 527.87,-25.89"/>
</a>
</g>
</g>
<!-- Node12 -->
<g id="Node000012" class="node">
<title>Node12</title>
<g id="a_Node000012"><a xlink:href="ObjectListModelBase_8h.html" target="_top" xlink:title=" ">
<polygon fill="white" stroke="#666666" points="731,-129 603,-129 603,-110 731,-110 731,-129"/>
<text text-anchor="middle" x="667" y="-117" font-family="Helvetica,sans-Serif" font-size="10.00">ObjectListModelBase.h</text>
</a>
</g>
</g>
<!-- Node11&#45;&gt;Node12 -->
<g id="edge11_Node000011_Node000012" class="edge">
<title>Node11&#45;&gt;Node12</title>
<g id="a_edge11_Node000011_Node000012"><a xlink:title=" ">
<path fill="none" stroke="#63b8ff" d="M625.26,-164.75C632.46,-157.11 643.11,-145.82 651.85,-136.56"/>
<polygon fill="#63b8ff" stroke="#63b8ff" points="654.58,-138.76 658.9,-129.09 649.49,-133.96 654.58,-138.76"/>
</a>
</g>
</g>
<!-- Node13 -->
<g id="Node000013" class="node">
<title>Node13</title>
<g id="a_Node000013"><a xlink:href="ObjectItemModelBase_8h.html" target="_top" xlink:title=" ">
<polygon fill="white" stroke="#666666" points="744,-74 610,-74 610,-55 744,-55 744,-74"/>
<text text-anchor="middle" x="677" y="-62" font-family="Helvetica,sans-Serif" font-size="10.00">ObjectItemModelBase.h</text>
</a>
</g>
</g>
<!-- Node12&#45;&gt;Node13 -->
<g id="edge12_Node000012_Node000013" class="edge">
<title>Node12&#45;&gt;Node13</title>
<g id="a_edge12_Node000012_Node000013"><a xlink:title=" ">
<path fill="none" stroke="#63b8ff" d="M668.65,-109.75C669.96,-102.8 671.84,-92.85 673.48,-84.13"/>
<polygon fill="#63b8ff" stroke="#63b8ff" points="676.96,-84.56 675.38,-74.09 670.09,-83.27 676.96,-84.56"/>
</a>
</g>
</g>
<!-- Node13&#45;&gt;Node5 -->
<g id="edge14_Node000013_Node000005" class="edge">
<title>Node13&#45;&gt;Node5</title>
<g id="a_edge14_Node000013_Node000005"><a xlink:title=" ">
<path fill="none" stroke="#63b8ff" d="M650.81,-54.98C623.56,-46.13 580.7,-32.19 550.22,-22.28"/>
<polygon fill="#63b8ff" stroke="#63b8ff" points="550.99,-18.85 540.39,-19.08 548.82,-25.5 550.99,-18.85"/>
</a>
</g>
</g>
<!-- Node14 -->
<g id="Node000014" class="node">
<title>Node14</title>
<g id="a_Node000014"><a xlink:title=" ">
<polygon fill="#e0e0e0" stroke="#999999" points="758,-19 604,-19 604,0 758,0 758,-19"/>
<text text-anchor="middle" x="681" y="-7" font-family="Helvetica,sans-Serif" font-size="10.00">QtCore/QAbstractItemModel</text>
</a>
</g>
</g>
<!-- Node13&#45;&gt;Node14 -->
<g id="edge13_Node000013_Node000014" class="edge">
<title>Node13&#45;&gt;Node14</title>
<g id="a_edge13_Node000013_Node000014"><a xlink:title=" ">
<path fill="none" stroke="#63b8ff" d="M677.66,-54.75C678.18,-47.8 678.94,-37.85 679.59,-29.13"/>
<polygon fill="#63b8ff" stroke="#63b8ff" points="683.09,-29.32 680.35,-19.09 676.11,-28.8 683.09,-29.32"/>
</a>
</g>
</g>
<!-- Node15 -->
<g id="Node000015" class="node">
<title>Node15</title>
<g id="a_Node000015"><a xlink:title=" ">
<polygon fill="#e0e0e0" stroke="#999999" points="965.5,-19 776.5,-19 776.5,0 965.5,0 965.5,-19"/>
<text text-anchor="middle" x="871" y="-7" font-family="Helvetica,sans-Serif" font-size="10.00">QtQmlIntegration/QtQmlIntegration</text>
</a>
</g>
</g>
<!-- Node13&#45;&gt;Node15 -->
<g id="edge15_Node000013_Node000015" class="edge">
<title>Node13&#45;&gt;Node15</title>
<g id="a_edge15_Node000013_Node000015"><a xlink:title=" ">
<path fill="none" stroke="#63b8ff" d="M708.17,-54.98C741.16,-45.97 793.4,-31.7 829.77,-21.76"/>
<polygon fill="#63b8ff" stroke="#63b8ff" points="830.86,-25.09 839.59,-19.08 829.02,-18.34 830.86,-25.09"/>
</a>
</g>
</g>
</g>
</svg>
