<?xml version="1.0" encoding="UTF-8" standalone="no"?>
<!DOCTYPE svg PUBLIC "-//W3C//DTD SVG 1.1//EN"
 "http://www.w3.org/Graphics/SVG/1.1/DTD/svg11.dtd">
<!-- Generated by graphviz version 2.43.0 (0)
 -->
<!-- Title: src/Utilities/Compression/QGCCompressionJob.cc Pages: 1 -->
<svg width="1388pt" height="258pt"
 viewBox="0.00 0.00 1388.00 258.00" xmlns="http://www.w3.org/2000/svg" xmlns:xlink="http://www.w3.org/1999/xlink">
<g id="graph0" class="graph" transform="scale(1 1) rotate(0) translate(4 254)">
<title>src/Utilities/Compression/QGCCompressionJob.cc</title>
<!-- Node1 -->
<g id="Node000001" class="node">
<title>Node1</title>
<g id="a_Node000001"><a xlink:title=" ">
<polygon fill="#999999" stroke="#666666" points="946,-250 807,-250 807,-220 946,-220 946,-250"/>
<text text-anchor="start" x="815" y="-238" font-family="Helvetica,sans-Serif" font-size="10.00">src/Utilities/Compression</text>
<text text-anchor="middle" x="876.5" y="-227" font-family="Helvetica,sans-Serif" font-size="10.00">/QGCCompressionJob.cc</text>
</a>
</g>
</g>
<!-- Node2 -->
<g id="Node000002" class="node">
<title>Node2</title>
<g id="a_Node000002"><a xlink:href="QGCCompressionJob_8h.html" target="_top" xlink:title="QObject wrapper for async compression operations using QtConcurrent/QPromise.">
<polygon fill="white" stroke="#666666" points="671.5,-184 545.5,-184 545.5,-165 671.5,-165 671.5,-184"/>
<text text-anchor="middle" x="608.5" y="-172" font-family="Helvetica,sans-Serif" font-size="10.00">QGCCompressionJob.h</text>
</a>
</g>
</g>
<!-- Node1&#45;&gt;Node2 -->
<g id="edge1_Node000001_Node000002" class="edge">
<title>Node1&#45;&gt;Node2</title>
<g id="a_edge1_Node000001_Node000002"><a xlink:title=" ">
<path fill="none" stroke="#63b8ff" d="M812.31,-219.99C764.75,-209.61 700.93,-195.68 657.46,-186.19"/>
<polygon fill="#63b8ff" stroke="#63b8ff" points="658.2,-182.77 647.69,-184.05 656.71,-189.61 658.2,-182.77"/>
</a>
</g>
</g>
<!-- Node3 -->
<g id="Node000003" class="node">
<title>Node3</title>
<g id="a_Node000003"><a xlink:href="QGCCompression_8h.html" target="_top" xlink:title=" ">
<polygon fill="white" stroke="#666666" points="297,-129 186,-129 186,-110 297,-110 297,-129"/>
<text text-anchor="middle" x="241.5" y="-117" font-family="Helvetica,sans-Serif" font-size="10.00">QGCCompression.h</text>
</a>
</g>
</g>
<!-- Node1&#45;&gt;Node3 -->
<g id="edge17_Node000001_Node000003" class="edge">
<title>Node1&#45;&gt;Node3</title>
<g id="a_edge17_Node000001_Node000003"><a xlink:title=" ">
<path fill="none" stroke="#63b8ff" d="M806.93,-225.14C738.06,-216.04 629.7,-200.86 536.5,-184 447.99,-167.98 345.51,-144.89 287.61,-131.41"/>
<polygon fill="#63b8ff" stroke="#63b8ff" points="288.21,-127.96 277.68,-129.09 286.62,-134.78 288.21,-127.96"/>
</a>
</g>
</g>
<!-- Node17 -->
<g id="Node000017" class="node">
<title>Node17</title>
<g id="a_Node000017"><a xlink:href="QGCLoggingCategory_8h.html" target="_top" xlink:title=" ">
<polygon fill="white" stroke="#666666" points="940.5,-184 812.5,-184 812.5,-165 940.5,-165 940.5,-184"/>
<text text-anchor="middle" x="876.5" y="-172" font-family="Helvetica,sans-Serif" font-size="10.00">QGCLoggingCategory.h</text>
</a>
</g>
</g>
<!-- Node1&#45;&gt;Node17 -->
<g id="edge18_Node000001_Node000017" class="edge">
<title>Node1&#45;&gt;Node17</title>
<g id="a_edge18_Node000001_Node000017"><a xlink:title=" ">
<path fill="none" stroke="#63b8ff" d="M876.5,-219.84C876.5,-212.21 876.5,-202.7 876.5,-194.45"/>
<polygon fill="#63b8ff" stroke="#63b8ff" points="880,-194.27 876.5,-184.27 873,-194.27 880,-194.27"/>
</a>
</g>
</g>
<!-- Node23 -->
<g id="Node000023" class="node">
<title>Node23</title>
<g id="a_Node000023"><a xlink:title=" ">
<polygon fill="#e0e0e0" stroke="#999999" points="1108,-184 959,-184 959,-165 1108,-165 1108,-184"/>
<text text-anchor="middle" x="1033.5" y="-172" font-family="Helvetica,sans-Serif" font-size="10.00">QtConcurrent/QtConcurrent</text>
</a>
</g>
</g>
<!-- Node1&#45;&gt;Node23 -->
<g id="edge29_Node000001_Node000023" class="edge">
<title>Node1&#45;&gt;Node23</title>
<g id="a_edge29_Node000001_Node000023"><a xlink:title=" ">
<path fill="none" stroke="#63b8ff" d="M914.11,-219.99C940.53,-210.14 975.54,-197.1 1000.81,-187.68"/>
<polygon fill="#63b8ff" stroke="#63b8ff" points="1002.17,-190.91 1010.31,-184.14 999.72,-184.35 1002.17,-190.91"/>
</a>
</g>
</g>
<!-- Node24 -->
<g id="Node000024" class="node">
<title>Node24</title>
<g id="a_Node000024"><a xlink:title=" ">
<polygon fill="#e0e0e0" stroke="#999999" points="1227,-184 1126,-184 1126,-165 1227,-165 1227,-184"/>
<text text-anchor="middle" x="1176.5" y="-172" font-family="Helvetica,sans-Serif" font-size="10.00">QtCore/QPromise</text>
</a>
</g>
</g>
<!-- Node1&#45;&gt;Node24 -->
<g id="edge30_Node000001_Node000024" class="edge">
<title>Node1&#45;&gt;Node24</title>
<g id="a_edge30_Node000001_Node000024"><a xlink:title=" ">
<path fill="none" stroke="#63b8ff" d="M946.08,-220.43C1000,-209.92 1073.62,-195.56 1122.99,-185.93"/>
<polygon fill="#63b8ff" stroke="#63b8ff" points="1123.69,-189.36 1132.84,-184.01 1122.35,-182.49 1123.69,-189.36"/>
</a>
</g>
</g>
<!-- Node2&#45;&gt;Node3 -->
<g id="edge2_Node000002_Node000003" class="edge">
<title>Node2&#45;&gt;Node3</title>
<g id="a_edge2_Node000002_Node000003"><a xlink:title=" ">
<path fill="none" stroke="#63b8ff" d="M549.54,-164.98C483.33,-155.42 376.18,-139.95 307.31,-130"/>
<polygon fill="#63b8ff" stroke="#63b8ff" points="307.41,-126.48 297.01,-128.52 306.41,-133.41 307.41,-126.48"/>
</a>
</g>
</g>
<!-- Node11 -->
<g id="Node000011" class="node">
<title>Node11</title>
<g id="a_Node000011"><a xlink:title=" ">
<polygon fill="#e0e0e0" stroke="#999999" points="514.5,-129 464.5,-129 464.5,-110 514.5,-110 514.5,-129"/>
<text text-anchor="middle" x="489.5" y="-117" font-family="Helvetica,sans-Serif" font-size="10.00">atomic</text>
</a>
</g>
</g>
<!-- Node2&#45;&gt;Node11 -->
<g id="edge11_Node000002_Node000011" class="edge">
<title>Node2&#45;&gt;Node11</title>
<g id="a_edge11_Node000002_Node000011"><a xlink:title=" ">
<path fill="none" stroke="#63b8ff" d="M589.38,-164.98C570.15,-156.42 540.27,-143.11 518.19,-133.28"/>
<polygon fill="#63b8ff" stroke="#63b8ff" points="519.53,-130.04 508.97,-129.17 516.68,-136.44 519.53,-130.04"/>
</a>
</g>
</g>
<!-- Node12 -->
<g id="Node000012" class="node">
<title>Node12</title>
<g id="a_Node000012"><a xlink:title=" ">
<polygon fill="#e0e0e0" stroke="#999999" points="590.5,-129 532.5,-129 532.5,-110 590.5,-110 590.5,-129"/>
<text text-anchor="middle" x="561.5" y="-117" font-family="Helvetica,sans-Serif" font-size="10.00">memory</text>
</a>
</g>
</g>
<!-- Node2&#45;&gt;Node12 -->
<g id="edge12_Node000002_Node000012" class="edge">
<title>Node2&#45;&gt;Node12</title>
<g id="a_edge12_Node000002_Node000012"><a xlink:title=" ">
<path fill="none" stroke="#63b8ff" d="M600.74,-164.75C594.03,-157.18 584.16,-146.05 575.99,-136.84"/>
<polygon fill="#63b8ff" stroke="#63b8ff" points="578.37,-134.25 569.12,-129.09 573.13,-138.89 578.37,-134.25"/>
</a>
</g>
</g>
<!-- Node13 -->
<g id="Node000013" class="node">
<title>Node13</title>
<g id="a_Node000013"><a xlink:title=" ">
<polygon fill="#e0e0e0" stroke="#999999" points="700.5,-129 608.5,-129 608.5,-110 700.5,-110 700.5,-129"/>
<text text-anchor="middle" x="654.5" y="-117" font-family="Helvetica,sans-Serif" font-size="10.00">QtCore/QFuture</text>
</a>
</g>
</g>
<!-- Node2&#45;&gt;Node13 -->
<g id="edge13_Node000002_Node000013" class="edge">
<title>Node2&#45;&gt;Node13</title>
<g id="a_edge13_Node000002_Node000013"><a xlink:title=" ">
<path fill="none" stroke="#63b8ff" d="M616.1,-164.75C622.66,-157.18 632.32,-146.05 640.31,-136.84"/>
<polygon fill="#63b8ff" stroke="#63b8ff" points="643.13,-138.94 647.05,-129.09 637.85,-134.35 643.13,-138.94"/>
</a>
</g>
</g>
<!-- Node14 -->
<g id="Node000014" class="node">
<title>Node14</title>
<g id="a_Node000014"><a xlink:title=" ">
<polygon fill="#e0e0e0" stroke="#999999" points="446,-129 315,-129 315,-110 446,-110 446,-129"/>
<text text-anchor="middle" x="380.5" y="-117" font-family="Helvetica,sans-Serif" font-size="10.00">QtCore/QFutureWatcher</text>
</a>
</g>
</g>
<!-- Node2&#45;&gt;Node14 -->
<g id="edge14_Node000002_Node000014" class="edge">
<title>Node2&#45;&gt;Node14</title>
<g id="a_edge14_Node000002_Node000014"><a xlink:title=" ">
<path fill="none" stroke="#63b8ff" d="M571.87,-164.98C532.59,-155.86 470.13,-141.33 427.31,-131.38"/>
<polygon fill="#63b8ff" stroke="#63b8ff" points="427.95,-127.94 417.42,-129.08 426.37,-134.76 427.95,-127.94"/>
</a>
</g>
</g>
<!-- Node15 -->
<g id="Node000015" class="node">
<title>Node15</title>
<g id="a_Node000015"><a xlink:title=" ">
<polygon fill="#e0e0e0" stroke="#999999" points="993,-19 850,-19 850,0 993,0 993,-19"/>
<text text-anchor="middle" x="921.5" y="-7" font-family="Helvetica,sans-Serif" font-size="10.00">QtCore/QLoggingCategory</text>
</a>
</g>
</g>
<!-- Node2&#45;&gt;Node15 -->
<g id="edge15_Node000002_Node000015" class="edge">
<title>Node2&#45;&gt;Node15</title>
<g id="a_edge15_Node000002_Node000015"><a xlink:title=" ">
<path fill="none" stroke="#63b8ff" d="M629.66,-164.87C650.28,-156.29 682.4,-142.5 709.5,-129 779.78,-93.98 859.99,-47.2 898.5,-24.31"/>
<polygon fill="#63b8ff" stroke="#63b8ff" points="900.56,-27.15 907.36,-19.02 896.98,-21.14 900.56,-27.15"/>
</a>
</g>
</g>
<!-- Node16 -->
<g id="Node000016" class="node">
<title>Node16</title>
<g id="a_Node000016"><a xlink:title=" ">
<polygon fill="#e0e0e0" stroke="#999999" points="848.5,-129 756.5,-129 756.5,-110 848.5,-110 848.5,-129"/>
<text text-anchor="middle" x="802.5" y="-117" font-family="Helvetica,sans-Serif" font-size="10.00">QtCore/QObject</text>
</a>
</g>
</g>
<!-- Node2&#45;&gt;Node16 -->
<g id="edge16_Node000002_Node000016" class="edge">
<title>Node2&#45;&gt;Node16</title>
<g id="a_edge16_Node000002_Node000016"><a xlink:title=" ">
<path fill="none" stroke="#63b8ff" d="M639.67,-164.98C672.66,-155.97 724.9,-141.7 761.27,-131.76"/>
<polygon fill="#63b8ff" stroke="#63b8ff" points="762.36,-135.09 771.09,-129.08 760.52,-128.34 762.36,-135.09"/>
</a>
</g>
</g>
<!-- Node4 -->
<g id="Node000004" class="node">
<title>Node4</title>
<g id="a_Node000004"><a xlink:href="QGCCompressionTypes_8h.html" target="_top" xlink:title="Shared type definitions for compression/archive operations.">
<polygon fill="white" stroke="#666666" points="262,-74 123,-74 123,-55 262,-55 262,-74"/>
<text text-anchor="middle" x="192.5" y="-62" font-family="Helvetica,sans-Serif" font-size="10.00">QGCCompressionTypes.h</text>
</a>
</g>
</g>
<!-- Node3&#45;&gt;Node4 -->
<g id="edge3_Node000003_Node000004" class="edge">
<title>Node3&#45;&gt;Node4</title>
<g id="a_edge3_Node000003_Node000004"><a xlink:title=" ">
<path fill="none" stroke="#63b8ff" d="M233.41,-109.75C226.34,-102.11 215.91,-90.82 207.35,-81.56"/>
<polygon fill="#63b8ff" stroke="#63b8ff" points="209.8,-79.06 200.44,-74.09 204.66,-83.81 209.8,-79.06"/>
</a>
</g>
</g>
<!-- Node6 -->
<g id="Node000006" class="node">
<title>Node6</title>
<g id="a_Node000006"><a xlink:title=" ">
<polygon fill="#e0e0e0" stroke="#999999" points="345,-19 256,-19 256,0 345,0 345,-19"/>
<text text-anchor="middle" x="300.5" y="-7" font-family="Helvetica,sans-Serif" font-size="10.00">QtCore/QString</text>
</a>
</g>
</g>
<!-- Node3&#45;&gt;Node6 -->
<g id="edge9_Node000003_Node000006" class="edge">
<title>Node3&#45;&gt;Node6</title>
<g id="a_edge9_Node000003_Node000006"><a xlink:title=" ">
<path fill="none" stroke="#63b8ff" d="M247.64,-109.85C253.78,-101.04 263.3,-86.88 270.5,-74 278.85,-59.05 287.07,-41.39 292.79,-28.49"/>
<polygon fill="#63b8ff" stroke="#63b8ff" points="296,-29.88 296.79,-19.32 289.58,-27.08 296,-29.88"/>
</a>
</g>
</g>
<!-- Node8 -->
<g id="Node000008" class="node">
<title>Node8</title>
<g id="a_Node000008"><a xlink:title=" ">
<polygon fill="#e0e0e0" stroke="#999999" points="428.5,-74 318.5,-74 318.5,-55 428.5,-55 428.5,-74"/>
<text text-anchor="middle" x="373.5" y="-62" font-family="Helvetica,sans-Serif" font-size="10.00">QtCore/QByteArray</text>
</a>
</g>
</g>
<!-- Node3&#45;&gt;Node8 -->
<g id="edge7_Node000003_Node000008" class="edge">
<title>Node3&#45;&gt;Node8</title>
<g id="a_edge7_Node000003_Node000008"><a xlink:title=" ">
<path fill="none" stroke="#63b8ff" d="M262.71,-109.98C284.23,-101.34 317.78,-87.87 342.33,-78.02"/>
<polygon fill="#63b8ff" stroke="#63b8ff" points="343.93,-81.14 351.91,-74.17 341.32,-74.65 343.93,-81.14"/>
</a>
</g>
</g>
<!-- Node9 -->
<g id="Node000009" class="node">
<title>Node9</title>
<g id="a_Node000009"><a xlink:title=" ">
<polygon fill="#e0e0e0" stroke="#999999" points="105,-74 0,-74 0,-55 105,-55 105,-74"/>
<text text-anchor="middle" x="52.5" y="-62" font-family="Helvetica,sans-Serif" font-size="10.00">QtCore/QIODevice</text>
</a>
</g>
</g>
<!-- Node3&#45;&gt;Node9 -->
<g id="edge8_Node000003_Node000009" class="edge">
<title>Node3&#45;&gt;Node9</title>
<g id="a_edge8_Node000003_Node000009"><a xlink:title=" ">
<path fill="none" stroke="#63b8ff" d="M211.13,-109.98C179.13,-101.01 128.54,-86.82 93.12,-76.89"/>
<polygon fill="#63b8ff" stroke="#63b8ff" points="93.68,-73.41 83.1,-74.08 91.79,-80.15 93.68,-73.41"/>
</a>
</g>
</g>
<!-- Node10 -->
<g id="Node000010" class="node">
<title>Node10</title>
<g id="a_Node000010"><a xlink:title=" ">
<polygon fill="#e0e0e0" stroke="#999999" points="627,-74 520,-74 520,-55 627,-55 627,-74"/>
<text text-anchor="middle" x="573.5" y="-62" font-family="Helvetica,sans-Serif" font-size="10.00">QtCore/QStringList</text>
</a>
</g>
</g>
<!-- Node3&#45;&gt;Node10 -->
<g id="edge10_Node000003_Node000010" class="edge">
<title>Node3&#45;&gt;Node10</title>
<g id="a_edge10_Node000003_Node000010"><a xlink:title=" ">
<path fill="none" stroke="#63b8ff" d="M294.84,-109.98C353.44,-100.63 447.51,-85.61 509.9,-75.65"/>
<polygon fill="#63b8ff" stroke="#63b8ff" points="510.69,-79.07 520.02,-74.04 509.59,-72.16 510.69,-79.07"/>
</a>
</g>
</g>
<!-- Node5 -->
<g id="Node000005" class="node">
<title>Node5</title>
<g id="a_Node000005"><a xlink:title=" ">
<polygon fill="#e0e0e0" stroke="#999999" points="238,-19 129,-19 129,0 238,0 238,-19"/>
<text text-anchor="middle" x="183.5" y="-7" font-family="Helvetica,sans-Serif" font-size="10.00">QtCore/QDateTime</text>
</a>
</g>
</g>
<!-- Node4&#45;&gt;Node5 -->
<g id="edge4_Node000004_Node000005" class="edge">
<title>Node4&#45;&gt;Node5</title>
<g id="a_edge4_Node000004_Node000005"><a xlink:title=" ">
<path fill="none" stroke="#63b8ff" d="M191.01,-54.75C189.83,-47.8 188.14,-37.85 186.66,-29.13"/>
<polygon fill="#63b8ff" stroke="#63b8ff" points="190.08,-28.36 184.96,-19.09 183.18,-29.53 190.08,-28.36"/>
</a>
</g>
</g>
<!-- Node4&#45;&gt;Node6 -->
<g id="edge5_Node000004_Node000006" class="edge">
<title>Node4&#45;&gt;Node6</title>
<g id="a_edge5_Node000004_Node000006"><a xlink:title=" ">
<path fill="none" stroke="#63b8ff" d="M209.85,-54.98C227.07,-46.54 253.7,-33.47 273.65,-23.68"/>
<polygon fill="#63b8ff" stroke="#63b8ff" points="275.4,-26.72 282.83,-19.17 272.31,-20.43 275.4,-26.72"/>
</a>
</g>
</g>
<!-- Node7 -->
<g id="Node000007" class="node">
<title>Node7</title>
<g id="a_Node000007"><a xlink:title=" ">
<polygon fill="#e0e0e0" stroke="#999999" points="111,-19 46,-19 46,0 111,0 111,-19"/>
<text text-anchor="middle" x="78.5" y="-7" font-family="Helvetica,sans-Serif" font-size="10.00">functional</text>
</a>
</g>
</g>
<!-- Node4&#45;&gt;Node7 -->
<g id="edge6_Node000004_Node000007" class="edge">
<title>Node4&#45;&gt;Node7</title>
<g id="a_edge6_Node000004_Node000007"><a xlink:title=" ">
<path fill="none" stroke="#63b8ff" d="M174.18,-54.98C155.84,-46.46 127.39,-33.23 106.27,-23.41"/>
<polygon fill="#63b8ff" stroke="#63b8ff" points="107.69,-20.21 97.15,-19.17 104.74,-26.56 107.69,-20.21"/>
</a>
</g>
</g>
<!-- Node17&#45;&gt;Node10 -->
<g id="edge27_Node000017_Node000010" class="edge">
<title>Node17&#45;&gt;Node10</title>
<g id="a_edge27_Node000017_Node000010"><a xlink:title=" ">
<path fill="none" stroke="#63b8ff" d="M876.62,-164.56C876.29,-150.64 873.45,-123.93 857.5,-110 825.54,-82.1 710.79,-71.63 637.29,-67.75"/>
<polygon fill="#63b8ff" stroke="#63b8ff" points="637.37,-64.25 627.21,-67.24 637.02,-71.24 637.37,-64.25"/>
</a>
</g>
</g>
<!-- Node17&#45;&gt;Node15 -->
<g id="edge25_Node000017_Node000015" class="edge">
<title>Node17&#45;&gt;Node15</title>
<g id="a_edge25_Node000017_Node000015"><a xlink:title=" ">
<path fill="none" stroke="#63b8ff" d="M878.92,-164.74C885.97,-139.2 906.61,-64.43 916.33,-29.23"/>
<polygon fill="#63b8ff" stroke="#63b8ff" points="919.78,-29.88 919.07,-19.31 913.03,-28.01 919.78,-29.88"/>
</a>
</g>
</g>
<!-- Node17&#45;&gt;Node16 -->
<g id="edge26_Node000017_Node000016" class="edge">
<title>Node17&#45;&gt;Node16</title>
<g id="a_edge26_Node000017_Node000016"><a xlink:title=" ">
<path fill="none" stroke="#63b8ff" d="M864.61,-164.98C853.35,-156.92 836.21,-144.65 822.79,-135.03"/>
<polygon fill="#63b8ff" stroke="#63b8ff" points="824.77,-132.15 814.61,-129.17 820.7,-137.84 824.77,-132.15"/>
</a>
</g>
</g>
<!-- Node18 -->
<g id="Node000018" class="node">
<title>Node18</title>
<g id="a_Node000018"><a xlink:href="QmlObjectListModel_8h.html" target="_top" xlink:title=" ">
<polygon fill="white" stroke="#666666" points="1168,-129 1043,-129 1043,-110 1168,-110 1168,-129"/>
<text text-anchor="middle" x="1105.5" y="-117" font-family="Helvetica,sans-Serif" font-size="10.00">QmlObjectListModel.h</text>
</a>
</g>
</g>
<!-- Node17&#45;&gt;Node18 -->
<g id="edge19_Node000017_Node000018" class="edge">
<title>Node17&#45;&gt;Node18</title>
<g id="a_edge19_Node000017_Node000018"><a xlink:title=" ">
<path fill="none" stroke="#63b8ff" d="M913.29,-164.98C952.74,-155.86 1015.48,-141.33 1058.48,-131.38"/>
<polygon fill="#63b8ff" stroke="#63b8ff" points="1059.47,-134.75 1068.42,-129.08 1057.89,-127.93 1059.47,-134.75"/>
</a>
</g>
</g>
<!-- Node22 -->
<g id="Node000022" class="node">
<title>Node22</title>
<g id="a_Node000022"><a xlink:title=" ">
<polygon fill="#e0e0e0" stroke="#999999" points="1024.5,-129 942.5,-129 942.5,-110 1024.5,-110 1024.5,-129"/>
<text text-anchor="middle" x="983.5" y="-117" font-family="Helvetica,sans-Serif" font-size="10.00">QtCore/QMap</text>
</a>
</g>
</g>
<!-- Node17&#45;&gt;Node22 -->
<g id="edge28_Node000017_Node000022" class="edge">
<title>Node17&#45;&gt;Node22</title>
<g id="a_edge28_Node000017_Node000022"><a xlink:title=" ">
<path fill="none" stroke="#63b8ff" d="M893.69,-164.98C910.75,-156.54 937.13,-143.47 956.9,-133.68"/>
<polygon fill="#63b8ff" stroke="#63b8ff" points="958.59,-136.75 966,-129.17 955.48,-130.47 958.59,-136.75"/>
</a>
</g>
</g>
<!-- Node18&#45;&gt;Node15 -->
<g id="edge24_Node000018_Node000015" class="edge">
<title>Node18&#45;&gt;Node15</title>
<g id="a_edge24_Node000018_Node000015"><a xlink:title=" ">
<path fill="none" stroke="#63b8ff" d="M1090.42,-109.85C1074.88,-100.92 1049.95,-86.56 1028.5,-74 999.6,-57.07 966.45,-37.36 944.81,-24.44"/>
<polygon fill="#63b8ff" stroke="#63b8ff" points="946.39,-21.3 936.01,-19.18 942.8,-27.31 946.39,-21.3"/>
</a>
</g>
</g>
<!-- Node19 -->
<g id="Node000019" class="node">
<title>Node19</title>
<g id="a_Node000019"><a xlink:href="ObjectListModelBase_8h.html" target="_top" xlink:title=" ">
<polygon fill="white" stroke="#666666" points="1165.5,-74 1037.5,-74 1037.5,-55 1165.5,-55 1165.5,-74"/>
<text text-anchor="middle" x="1101.5" y="-62" font-family="Helvetica,sans-Serif" font-size="10.00">ObjectListModelBase.h</text>
</a>
</g>
</g>
<!-- Node18&#45;&gt;Node19 -->
<g id="edge20_Node000018_Node000019" class="edge">
<title>Node18&#45;&gt;Node19</title>
<g id="a_edge20_Node000018_Node000019"><a xlink:title=" ">
<path fill="none" stroke="#63b8ff" d="M1104.84,-109.75C1104.32,-102.8 1103.56,-92.85 1102.91,-84.13"/>
<polygon fill="#63b8ff" stroke="#63b8ff" points="1106.39,-83.8 1102.15,-74.09 1099.41,-84.32 1106.39,-83.8"/>
</a>
</g>
</g>
<!-- Node19&#45;&gt;Node15 -->
<g id="edge22_Node000019_Node000015" class="edge">
<title>Node19&#45;&gt;Node15</title>
<g id="a_edge22_Node000019_Node000015"><a xlink:title=" ">
<path fill="none" stroke="#63b8ff" d="M1072.58,-54.98C1042.23,-46.05 994.33,-31.94 960.62,-22.02"/>
<polygon fill="#63b8ff" stroke="#63b8ff" points="961.23,-18.55 950.65,-19.08 959.25,-25.26 961.23,-18.55"/>
</a>
</g>
</g>
<!-- Node20 -->
<g id="Node000020" class="node">
<title>Node20</title>
<g id="a_Node000020"><a xlink:title=" ">
<polygon fill="#e0e0e0" stroke="#999999" points="1173,-19 1024,-19 1024,0 1173,0 1173,-19"/>
<text text-anchor="middle" x="1098.5" y="-7" font-family="Helvetica,sans-Serif" font-size="10.00">QtCore/QAbstractListModel</text>
</a>
</g>
</g>
<!-- Node19&#45;&gt;Node20 -->
<g id="edge21_Node000019_Node000020" class="edge">
<title>Node19&#45;&gt;Node20</title>
<g id="a_edge21_Node000019_Node000020"><a xlink:title=" ">
<path fill="none" stroke="#63b8ff" d="M1101,-54.75C1100.61,-47.8 1100.05,-37.85 1099.55,-29.13"/>
<polygon fill="#63b8ff" stroke="#63b8ff" points="1103.05,-28.88 1098.99,-19.09 1096.06,-29.27 1103.05,-28.88"/>
</a>
</g>
</g>
<!-- Node21 -->
<g id="Node000021" class="node">
<title>Node21</title>
<g id="a_Node000021"><a xlink:title=" ">
<polygon fill="#e0e0e0" stroke="#999999" points="1380,-19 1191,-19 1191,0 1380,0 1380,-19"/>
<text text-anchor="middle" x="1285.5" y="-7" font-family="Helvetica,sans-Serif" font-size="10.00">QtQmlIntegration/QtQmlIntegration</text>
</a>
</g>
</g>
<!-- Node19&#45;&gt;Node21 -->
<g id="edge23_Node000019_Node000021" class="edge">
<title>Node19&#45;&gt;Node21</title>
<g id="a_edge23_Node000019_Node000021"><a xlink:title=" ">
<path fill="none" stroke="#63b8ff" d="M1131.06,-54.98C1162.22,-46.01 1211.47,-31.82 1245.96,-21.89"/>
<polygon fill="#63b8ff" stroke="#63b8ff" points="1247.07,-25.21 1255.71,-19.08 1245.13,-18.49 1247.07,-25.21"/>
</a>
</g>
</g>
</g>
</svg>
