<?xml version="1.0" encoding="UTF-8" standalone="no"?>
<!DOCTYPE svg PUBLIC "-//W3C//DTD SVG 1.1//EN"
 "http://www.w3.org/Graphics/SVG/1.1/DTD/svg11.dtd">
<!-- Generated by graphviz version 2.43.0 (0)
 -->
<!-- Title: src/Camera/QGCCameraManager.h Pages: 1 -->
<svg width="1028pt" height="93pt"
 viewBox="0.00 0.00 1028.00 93.00" xmlns="http://www.w3.org/2000/svg" xmlns:xlink="http://www.w3.org/1999/xlink">
<g id="graph0" class="graph" transform="scale(1 1) rotate(0) translate(4 89)">
<title>src/Camera/QGCCameraManager.h</title>
<!-- Node1 -->
<g id="Node000001" class="node">
<title>Node1</title>
<g id="a_Node000001"><a xlink:title=" ">
<polygon fill="#999999" stroke="#666666" points="602.5,-85 416.5,-85 416.5,-66 602.5,-66 602.5,-85"/>
<text text-anchor="middle" x="509.5" y="-73" font-family="Helvetica,sans-Serif" font-size="10.00">src/Camera/QGCCameraManager.h</text>
</a>
</g>
</g>
<!-- Node2 -->
<g id="Node000002" class="node">
<title>Node2</title>
<g id="a_Node000002"><a xlink:href="QGCCameraManager_8cc.html" target="_top" xlink:title=" ">
<polygon fill="white" stroke="#666666" points="191,-24.5 0,-24.5 0,-5.5 191,-5.5 191,-24.5"/>
<text text-anchor="middle" x="95.5" y="-12.5" font-family="Helvetica,sans-Serif" font-size="10.00">src/Camera/QGCCameraManager.cc</text>
</a>
</g>
</g>
<!-- Node1&#45;&gt;Node2 -->
<g id="edge1_Node000001_Node000002" class="edge">
<title>Node1&#45;&gt;Node2</title>
<g id="a_edge1_Node000001_Node000002"><a xlink:title=" ">
<path fill="none" stroke="#63b8ff" d="M439.36,-64.59C359.71,-53.33 231.08,-35.16 155.77,-24.52"/>
<polygon fill="#63b8ff" stroke="#63b8ff" points="438.91,-68.06 449.3,-65.99 439.89,-61.13 438.91,-68.06"/>
</a>
</g>
</g>
<!-- Node3 -->
<g id="Node000003" class="node">
<title>Node3</title>
<g id="a_Node000003"><a xlink:href="VehicleCameraControl_8cc.html" target="_top" xlink:title=" ">
<polygon fill="white" stroke="#666666" points="358,-30 209,-30 209,0 358,0 358,-30"/>
<text text-anchor="start" x="217" y="-18" font-family="Helvetica,sans-Serif" font-size="10.00">src/Camera/VehicleCamera</text>
<text text-anchor="middle" x="283.5" y="-7" font-family="Helvetica,sans-Serif" font-size="10.00">Control.cc</text>
</a>
</g>
</g>
<!-- Node1&#45;&gt;Node3 -->
<g id="edge2_Node000001_Node000003" class="edge">
<title>Node1&#45;&gt;Node3</title>
<g id="a_edge2_Node000001_Node000003"><a xlink:title=" ">
<path fill="none" stroke="#63b8ff" d="M466.78,-63.44C430.23,-53.98 377.39,-40.3 337.83,-30.06"/>
<polygon fill="#63b8ff" stroke="#63b8ff" points="466.08,-66.88 476.64,-65.99 467.83,-60.1 466.08,-66.88"/>
</a>
</g>
</g>
<!-- Node4 -->
<g id="Node000004" class="node">
<title>Node4</title>
<g id="a_Node000004"><a xlink:href="FirmwarePlugin_8cc.html" target="_top" xlink:title=" ">
<polygon fill="white" stroke="#666666" points="486.5,-30 376.5,-30 376.5,0 486.5,0 486.5,-30"/>
<text text-anchor="start" x="384.5" y="-18" font-family="Helvetica,sans-Serif" font-size="10.00">src/FirmwarePlugin</text>
<text text-anchor="middle" x="431.5" y="-7" font-family="Helvetica,sans-Serif" font-size="10.00">/FirmwarePlugin.cc</text>
</a>
</g>
</g>
<!-- Node1&#45;&gt;Node4 -->
<g id="edge3_Node000001_Node000004" class="edge">
<title>Node1&#45;&gt;Node4</title>
<g id="a_edge3_Node000001_Node000004"><a xlink:title=" ">
<path fill="none" stroke="#63b8ff" d="M489.86,-59.77C477.74,-50.68 462.28,-39.09 450.32,-30.11"/>
<polygon fill="#63b8ff" stroke="#63b8ff" points="487.89,-62.67 497.99,-65.87 492.09,-57.07 487.89,-62.67"/>
</a>
</g>
</g>
<!-- Node5 -->
<g id="Node000005" class="node">
<title>Node5</title>
<g id="a_Node000005"><a xlink:href="GimbalController_8cc.html" target="_top" xlink:title=" ">
<polygon fill="white" stroke="#666666" points="672.5,-24.5 504.5,-24.5 504.5,-5.5 672.5,-5.5 672.5,-24.5"/>
<text text-anchor="middle" x="588.5" y="-12.5" font-family="Helvetica,sans-Serif" font-size="10.00">src/Gimbal/GimbalController.cc</text>
</a>
</g>
</g>
<!-- Node1&#45;&gt;Node5 -->
<g id="edge4_Node000001_Node000005" class="edge">
<title>Node1&#45;&gt;Node5</title>
<g id="a_edge4_Node000001_Node000005"><a xlink:title=" ">
<path fill="none" stroke="#63b8ff" d="M529.29,-59.85C544.25,-48.77 564.29,-33.93 576.8,-24.67"/>
<polygon fill="#63b8ff" stroke="#63b8ff" points="527.11,-57.1 521.16,-65.87 531.28,-62.73 527.11,-57.1"/>
</a>
</g>
</g>
<!-- Node6 -->
<g id="Node000006" class="node">
<title>Node6</title>
<g id="a_Node000006"><a xlink:href="Vehicle_8cc.html" target="_top" xlink:title=" ">
<polygon fill="white" stroke="#666666" points="811,-24.5 690,-24.5 690,-5.5 811,-5.5 811,-24.5"/>
<text text-anchor="middle" x="750.5" y="-12.5" font-family="Helvetica,sans-Serif" font-size="10.00">src/Vehicle/Vehicle.cc</text>
</a>
</g>
</g>
<!-- Node1&#45;&gt;Node6 -->
<g id="edge5_Node000001_Node000006" class="edge">
<title>Node1&#45;&gt;Node6</title>
<g id="a_edge5_Node000001_Node000006"><a xlink:title=" ">
<path fill="none" stroke="#63b8ff" d="M554.37,-63.61C600.94,-52.3 672.83,-34.85 715.41,-24.52"/>
<polygon fill="#63b8ff" stroke="#63b8ff" points="553.44,-60.23 544.54,-65.99 555.09,-67.04 553.44,-60.23"/>
</a>
</g>
</g>
<!-- Node7 -->
<g id="Node000007" class="node">
<title>Node7</title>
<g id="a_Node000007"><a xlink:href="VideoManager_8cc.html" target="_top" xlink:title=" ">
<polygon fill="white" stroke="#666666" points="1020,-24.5 829,-24.5 829,-5.5 1020,-5.5 1020,-24.5"/>
<text text-anchor="middle" x="924.5" y="-12.5" font-family="Helvetica,sans-Serif" font-size="10.00">src/VideoManager/VideoManager.cc</text>
</a>
</g>
</g>
<!-- Node1&#45;&gt;Node7 -->
<g id="edge6_Node000001_Node000007" class="edge">
<title>Node1&#45;&gt;Node7</title>
<g id="a_edge6_Node000001_Node000007"><a xlink:title=" ">
<path fill="none" stroke="#63b8ff" d="M579.81,-64.59C659.65,-53.33 788.59,-35.16 864.08,-24.52"/>
<polygon fill="#63b8ff" stroke="#63b8ff" points="579.26,-61.13 569.84,-65.99 580.24,-68.06 579.26,-61.13"/>
</a>
</g>
</g>
</g>
</svg>
