<?xml version="1.0" encoding="UTF-8" standalone="no"?>
<!DOCTYPE svg PUBLIC "-//W3C//DTD SVG 1.1//EN"
 "http://www.w3.org/Graphics/SVG/1.1/DTD/svg11.dtd">
<!-- Generated by graphviz version 2.43.0 (0)
 -->
<!-- Title: src/Utilities/QGCCommandLineParser.cc Pages: 1 -->
<!--zoomable 258 -->

<svg id="main" version="1.1" xmlns="http://www.w3.org/2000/svg" xmlns:xlink="http://www.w3.org/1999/xlink" xml:space="preserve" onload="init(evt)">
<style type="text/css"><![CDATA[
.node, .edge {opacity: 0.7;}
.node.selected, .edge.selected {opacity: 1;}
.edge:hover path { stroke: red; }
.edge:hover polygon { stroke: red; fill: red; }
]]></style>

<defs>
  <circle id="rim" cx="0" cy="0" r="7"/>
  <circle id="rim2" cx="0" cy="0" r="3.5"/>
  <g id="zoomPlus">
    <use xlink:href="#rim" fill="#404040"><set attributeName="fill" to="#808080" begin="zoomplus.mouseover" end="zoomplus.mouseout"/></use>
    <path d="M-4,0h8M0,-4v8" fill="none" stroke="white" stroke-width="1.5" pointer-events="none"/>
  </g>
  <g id="zoomMin">
    <use xlink:href="#rim" fill="#404040"><set attributeName="fill" to="#808080" begin="zoomminus.mouseover" end="zoomminus.mouseout"/></use>
    <path d="M-4,0h8" fill="none" stroke="white" stroke-width="1.5" pointer-events="none"/>
  </g>
  <g id="arrowUp" transform="translate(30 24)">
    <use xlink:href="#rim"/>
    <path pointer-events="none" fill="none" stroke="white" stroke-width="1.5" d="M0,-3.0v7 M-2.5,-0.5L0,-3.0L2.5,-0.5"/>
  </g>
  <g id="arrowRight" transform="rotate(90) translate(36 -43)">
    <use xlink:href="#rim"/>
    <path pointer-events="none" fill="none" stroke="white" stroke-width="1.5" d="M0,-3.0v7 M-2.5,-0.5L0,-3.0L2.5,-0.5"/>
  </g>
  <g id="arrowDown" transform="rotate(180) translate(-30 -48)">
    <use xlink:href="#rim"/>
    <path pointer-events="none" fill="none" stroke="white" stroke-width="1.5" d="M0,-3.0v7 M-2.5,-0.5L0,-3.0L2.5,-0.5"/>
  </g>
  <g id="arrowLeft" transform="rotate(270) translate(-36 17)">
    <use xlink:href="#rim"/>
    <path pointer-events="none" fill="none" stroke="white" stroke-width="1.5" d="M0,-3.0v7 M-2.5,-0.5L0,-3.0L2.5,-0.5"/>
  </g>
  <g id="resetDef">
    <use xlink:href="#rim2" fill="#404040"><set attributeName="fill" to="#808080" begin="reset.mouseover" end="reset.mouseout"/></use>
  </g>
</defs>
<script type="application/ecmascript">
var viewWidth = 968;
var viewHeight = 258;
var sectionId = 'dynsection-0';
</script>
<script type="application/ecmascript" xlink:href="svg.min.js"/>
<svg id="graph" class="graph">
<g id="viewport">
<title>src/Utilities/QGCCommandLineParser.cc</title>
<!-- Node1 -->
<g id="Node000001" class="node">
<title>Node1</title>
<g id="a_Node000001"><a xlink:title=" ">
<polygon fill="#999999" stroke="#666666" points="497.5,-250 350.5,-250 350.5,-220 497.5,-220 497.5,-250"/>
<text text-anchor="start" x="358.5" y="-238" font-family="Helvetica,sans-Serif" font-size="10.00">src/Utilities/QGCCommand</text>
<text text-anchor="middle" x="424" y="-227" font-family="Helvetica,sans-Serif" font-size="10.00">LineParser.cc</text>
</a>
</g>
</g>
<!-- Node2 -->
<g id="Node000002" class="node">
<title>Node2</title>
<g id="a_Node000002"><a xlink:href="QGCCommandLineParser_8h.html" target="_top" xlink:title=" ">
<polygon fill="white" stroke="#666666" points="221.5,-184 74.5,-184 74.5,-165 221.5,-165 221.5,-184"/>
<text text-anchor="middle" x="148" y="-172" font-family="Helvetica,sans-Serif" font-size="10.00">QGCCommandLineParser.h</text>
</a>
</g>
</g>
<!-- Node1&#45;&gt;Node2 -->
<g id="edge1_Node000001_Node000002" class="edge">
<title>Node1&#45;&gt;Node2</title>
<g id="a_edge1_Node000001_Node000002"><a xlink:title=" ">
<path fill="none" stroke="#63b8ff" d="M357.89,-219.99C308.92,-209.61 243.19,-195.68 198.42,-186.19"/>
<polygon fill="#63b8ff" stroke="#63b8ff" points="198.86,-182.7 188.36,-184.05 197.41,-189.55 198.86,-182.7"/>
</a>
</g>
</g>
<!-- Node7 -->
<g id="Node000007" class="node">
<title>Node7</title>
<g id="a_Node000007"><a xlink:title=" ">
<polygon fill="#e0e0e0" stroke="#999999" points="324,-184 240,-184 240,-165 324,-165 324,-184"/>
<text text-anchor="middle" x="282" y="-172" font-family="Helvetica,sans-Serif" font-size="10.00">qgc_version.h</text>
</a>
</g>
</g>
<!-- Node1&#45;&gt;Node7 -->
<g id="edge6_Node000001_Node000007" class="edge">
<title>Node1&#45;&gt;Node7</title>
<g id="a_edge6_Node000001_Node000007"><a xlink:title=" ">
<path fill="none" stroke="#63b8ff" d="M389.99,-219.99C366.4,-210.27 335.26,-197.44 312.48,-188.06"/>
<polygon fill="#63b8ff" stroke="#63b8ff" points="313.55,-184.71 302.97,-184.14 310.88,-191.18 313.55,-184.71"/>
</a>
</g>
</g>
<!-- Node8 -->
<g id="Node000008" class="node">
<title>Node8</title>
<g id="a_Node000008"><a xlink:title=" ">
<polygon fill="#e0e0e0" stroke="#999999" points="506,-184 342,-184 342,-165 506,-165 506,-184"/>
<text text-anchor="middle" x="424" y="-172" font-family="Helvetica,sans-Serif" font-size="10.00">QtCore/QCommandLineOption</text>
</a>
</g>
</g>
<!-- Node1&#45;&gt;Node8 -->
<g id="edge7_Node000001_Node000008" class="edge">
<title>Node1&#45;&gt;Node8</title>
<g id="a_edge7_Node000001_Node000008"><a xlink:title=" ">
<path fill="none" stroke="#63b8ff" d="M424,-219.84C424,-212.21 424,-202.7 424,-194.45"/>
<polygon fill="#63b8ff" stroke="#63b8ff" points="427.5,-194.27 424,-184.27 420.5,-194.27 427.5,-194.27"/>
</a>
</g>
</g>
<!-- Node9 -->
<g id="Node000009" class="node">
<title>Node9</title>
<g id="a_Node000009"><a xlink:title=" ">
<polygon fill="#e0e0e0" stroke="#999999" points="662,-184 524,-184 524,-165 662,-165 662,-184"/>
<text text-anchor="middle" x="593" y="-172" font-family="Helvetica,sans-Serif" font-size="10.00">QtCore/QCoreApplication</text>
</a>
</g>
</g>
<!-- Node1&#45;&gt;Node9 -->
<g id="edge8_Node000001_Node000009" class="edge">
<title>Node1&#45;&gt;Node9</title>
<g id="a_edge8_Node000001_Node000009"><a xlink:title=" ">
<path fill="none" stroke="#63b8ff" d="M464.48,-219.99C493.18,-210.05 531.28,-196.86 558.53,-187.43"/>
<polygon fill="#63b8ff" stroke="#63b8ff" points="559.74,-190.72 568.04,-184.14 557.45,-184.1 559.74,-190.72"/>
</a>
</g>
</g>
<!-- Node10 -->
<g id="Node000010" class="node">
<title>Node10</title>
<g id="a_Node000010"><a xlink:href="QGCLoggingCategory_8h.html" target="_top" xlink:title=" ">
<polygon fill="white" stroke="#666666" points="808,-184 680,-184 680,-165 808,-165 808,-184"/>
<text text-anchor="middle" x="744" y="-172" font-family="Helvetica,sans-Serif" font-size="10.00">QGCLoggingCategory.h</text>
</a>
</g>
</g>
<!-- Node1&#45;&gt;Node10 -->
<g id="edge9_Node000001_Node000010" class="edge">
<title>Node1&#45;&gt;Node10</title>
<g id="a_edge9_Node000001_Node000010"><a xlink:title=" ">
<path fill="none" stroke="#63b8ff" d="M497.82,-220.51C555.56,-209.95 634.65,-195.49 687.44,-185.84"/>
<polygon fill="#63b8ff" stroke="#63b8ff" points="688.1,-189.28 697.31,-184.04 686.84,-182.39 688.1,-189.28"/>
</a>
</g>
</g>
<!-- Node3 -->
<g id="Node000003" class="node">
<title>Node3</title>
<g id="a_Node000003"><a xlink:title=" ">
<polygon fill="#e0e0e0" stroke="#999999" points="56,-129 0,-129 0,-110 56,-110 56,-129"/>
<text text-anchor="middle" x="28" y="-117" font-family="Helvetica,sans-Serif" font-size="10.00">optional</text>
</a>
</g>
</g>
<!-- Node2&#45;&gt;Node3 -->
<g id="edge2_Node000002_Node000003" class="edge">
<title>Node2&#45;&gt;Node3</title>
<g id="a_edge2_Node000002_Node000003"><a xlink:title=" ">
<path fill="none" stroke="#63b8ff" d="M128.72,-164.98C109.33,-156.42 79.19,-143.11 56.93,-133.28"/>
<polygon fill="#63b8ff" stroke="#63b8ff" points="58.19,-130.01 47.63,-129.17 55.36,-136.41 58.19,-130.01"/>
</a>
</g>
</g>
<!-- Node4 -->
<g id="Node000004" class="node">
<title>Node4</title>
<g id="a_Node000004"><a xlink:title=" ">
<polygon fill="#e0e0e0" stroke="#999999" points="235.5,-129 74.5,-129 74.5,-110 235.5,-110 235.5,-129"/>
<text text-anchor="middle" x="155" y="-117" font-family="Helvetica,sans-Serif" font-size="10.00">QtCore/QCommandLineParser</text>
</a>
</g>
</g>
<!-- Node2&#45;&gt;Node4 -->
<g id="edge3_Node000002_Node000004" class="edge">
<title>Node2&#45;&gt;Node4</title>
<g id="a_edge3_Node000002_Node000004"><a xlink:title=" ">
<path fill="none" stroke="#63b8ff" d="M149.16,-164.75C150.07,-157.8 151.39,-147.85 152.54,-139.13"/>
<polygon fill="#63b8ff" stroke="#63b8ff" points="156.03,-139.46 153.87,-129.09 149.09,-138.54 156.03,-139.46"/>
</a>
</g>
</g>
<!-- Node5 -->
<g id="Node000005" class="node">
<title>Node5</title>
<g id="a_Node000005"><a xlink:title=" ">
<polygon fill="#e0e0e0" stroke="#999999" points="585.5,-19 442.5,-19 442.5,0 585.5,0 585.5,-19"/>
<text text-anchor="middle" x="514" y="-7" font-family="Helvetica,sans-Serif" font-size="10.00">QtCore/QLoggingCategory</text>
</a>
</g>
</g>
<!-- Node2&#45;&gt;Node5 -->
<g id="edge4_Node000002_Node000005" class="edge">
<title>Node2&#45;&gt;Node5</title>
<g id="a_edge4_Node000002_Node000005"><a xlink:title=" ">
<path fill="none" stroke="#63b8ff" d="M167.16,-164.97C227.43,-138.13 413.35,-55.32 485.23,-23.31"/>
<polygon fill="#63b8ff" stroke="#63b8ff" points="486.87,-26.41 494.59,-19.15 484.03,-20.02 486.87,-26.41"/>
</a>
</g>
</g>
<!-- Node6 -->
<g id="Node000006" class="node">
<title>Node6</title>
<g id="a_Node000006"><a xlink:title=" ">
<polygon fill="#e0e0e0" stroke="#999999" points="477.5,-129 370.5,-129 370.5,-110 477.5,-110 477.5,-129"/>
<text text-anchor="middle" x="424" y="-117" font-family="Helvetica,sans-Serif" font-size="10.00">QtCore/QStringList</text>
</a>
</g>
</g>
<!-- Node2&#45;&gt;Node6 -->
<g id="edge5_Node000002_Node000006" class="edge">
<title>Node2&#45;&gt;Node6</title>
<g id="a_edge5_Node000002_Node000006"><a xlink:title=" ">
<path fill="none" stroke="#63b8ff" d="M192.34,-164.98C240.49,-155.74 317.42,-140.97 369.29,-131.01"/>
<polygon fill="#63b8ff" stroke="#63b8ff" points="370.15,-134.41 379.31,-129.08 368.83,-127.53 370.15,-134.41"/>
</a>
</g>
</g>
<!-- Node10&#45;&gt;Node5 -->
<g id="edge16_Node000010_Node000005" class="edge">
<title>Node10&#45;&gt;Node5</title>
<g id="a_edge16_Node000010_Node000005"><a xlink:title=" ">
<path fill="none" stroke="#63b8ff" d="M693.42,-165C638.06,-155.26 555.7,-139.32 545,-129 517.67,-102.63 513.38,-55.39 513.29,-29.23"/>
<polygon fill="#63b8ff" stroke="#63b8ff" points="516.79,-29.19 513.47,-19.13 509.79,-29.07 516.79,-29.19"/>
</a>
</g>
</g>
<!-- Node10&#45;&gt;Node6 -->
<g id="edge18_Node000010_Node000006" class="edge">
<title>Node10&#45;&gt;Node6</title>
<g id="a_edge18_Node000010_Node000006"><a xlink:title=" ">
<path fill="none" stroke="#63b8ff" d="M692.59,-164.98C636.22,-155.65 545.81,-140.67 485.67,-130.71"/>
<polygon fill="#63b8ff" stroke="#63b8ff" points="485.99,-127.22 475.55,-129.04 484.84,-134.13 485.99,-127.22"/>
</a>
</g>
</g>
<!-- Node11 -->
<g id="Node000011" class="node">
<title>Node11</title>
<g id="a_Node000011"><a xlink:href="QmlObjectListModel_8h.html" target="_top" xlink:title=" ">
<polygon fill="white" stroke="#666666" points="679.5,-129 554.5,-129 554.5,-110 679.5,-110 679.5,-129"/>
<text text-anchor="middle" x="617" y="-117" font-family="Helvetica,sans-Serif" font-size="10.00">QmlObjectListModel.h</text>
</a>
</g>
</g>
<!-- Node10&#45;&gt;Node11 -->
<g id="edge10_Node000010_Node000011" class="edge">
<title>Node10&#45;&gt;Node11</title>
<g id="a_edge10_Node000010_Node000011"><a xlink:title=" ">
<path fill="none" stroke="#63b8ff" d="M723.6,-164.98C702.98,-156.38 670.89,-142.99 647.31,-133.15"/>
<polygon fill="#63b8ff" stroke="#63b8ff" points="648.35,-129.79 637.78,-129.17 645.66,-136.25 648.35,-129.79"/>
</a>
</g>
</g>
<!-- Node15 -->
<g id="Node000015" class="node">
<title>Node15</title>
<g id="a_Node000015"><a xlink:title=" ">
<polygon fill="#e0e0e0" stroke="#999999" points="790,-129 698,-129 698,-110 790,-110 790,-129"/>
<text text-anchor="middle" x="744" y="-117" font-family="Helvetica,sans-Serif" font-size="10.00">QtCore/QObject</text>
</a>
</g>
</g>
<!-- Node10&#45;&gt;Node15 -->
<g id="edge17_Node000010_Node000015" class="edge">
<title>Node10&#45;&gt;Node15</title>
<g id="a_edge17_Node000010_Node000015"><a xlink:title=" ">
<path fill="none" stroke="#63b8ff" d="M744,-164.75C744,-157.8 744,-147.85 744,-139.13"/>
<polygon fill="#63b8ff" stroke="#63b8ff" points="747.5,-139.09 744,-129.09 740.5,-139.09 747.5,-139.09"/>
</a>
</g>
</g>
<!-- Node16 -->
<g id="Node000016" class="node">
<title>Node16</title>
<g id="a_Node000016"><a xlink:title=" ">
<polygon fill="#e0e0e0" stroke="#999999" points="890,-129 808,-129 808,-110 890,-110 890,-129"/>
<text text-anchor="middle" x="849" y="-117" font-family="Helvetica,sans-Serif" font-size="10.00">QtCore/QMap</text>
</a>
</g>
</g>
<!-- Node10&#45;&gt;Node16 -->
<g id="edge19_Node000010_Node000016" class="edge">
<title>Node10&#45;&gt;Node16</title>
<g id="a_edge19_Node000010_Node000016"><a xlink:title=" ">
<path fill="none" stroke="#63b8ff" d="M760.87,-164.98C777.61,-156.54 803.5,-143.47 822.89,-133.68"/>
<polygon fill="#63b8ff" stroke="#63b8ff" points="824.47,-136.8 831.82,-129.17 821.32,-130.55 824.47,-136.8"/>
</a>
</g>
</g>
<!-- Node11&#45;&gt;Node5 -->
<g id="edge15_Node000011_Node000005" class="edge">
<title>Node11&#45;&gt;Node5</title>
<g id="a_edge15_Node000011_Node000005"><a xlink:title=" ">
<path fill="none" stroke="#63b8ff" d="M608.57,-109.66C591.21,-91.46 551.24,-49.55 529.23,-26.47"/>
<polygon fill="#63b8ff" stroke="#63b8ff" points="531.69,-23.98 522.26,-19.16 526.63,-28.81 531.69,-23.98"/>
</a>
</g>
</g>
<!-- Node12 -->
<g id="Node000012" class="node">
<title>Node12</title>
<g id="a_Node000012"><a xlink:href="ObjectListModelBase_8h.html" target="_top" xlink:title=" ">
<polygon fill="white" stroke="#666666" points="738,-74 610,-74 610,-55 738,-55 738,-74"/>
<text text-anchor="middle" x="674" y="-62" font-family="Helvetica,sans-Serif" font-size="10.00">ObjectListModelBase.h</text>
</a>
</g>
</g>
<!-- Node11&#45;&gt;Node12 -->
<g id="edge11_Node000011_Node000012" class="edge">
<title>Node11&#45;&gt;Node12</title>
<g id="a_edge11_Node000011_Node000012"><a xlink:title=" ">
<path fill="none" stroke="#63b8ff" d="M626.16,-109.98C634.5,-102.23 647.03,-90.58 657.18,-81.14"/>
<polygon fill="#63b8ff" stroke="#63b8ff" points="659.74,-83.54 664.68,-74.17 654.97,-78.42 659.74,-83.54"/>
</a>
</g>
</g>
<!-- Node12&#45;&gt;Node5 -->
<g id="edge13_Node000012_Node000005" class="edge">
<title>Node12&#45;&gt;Node5</title>
<g id="a_edge13_Node000012_Node000005"><a xlink:title=" ">
<path fill="none" stroke="#63b8ff" d="M648.29,-54.98C621.55,-46.13 579.47,-32.19 549.55,-22.28"/>
<polygon fill="#63b8ff" stroke="#63b8ff" points="550.5,-18.9 539.91,-19.08 548.3,-25.55 550.5,-18.9"/>
</a>
</g>
</g>
<!-- Node13 -->
<g id="Node000013" class="node">
<title>Node13</title>
<g id="a_Node000013"><a xlink:title=" ">
<polygon fill="#e0e0e0" stroke="#999999" points="752.5,-19 603.5,-19 603.5,0 752.5,0 752.5,-19"/>
<text text-anchor="middle" x="678" y="-7" font-family="Helvetica,sans-Serif" font-size="10.00">QtCore/QAbstractListModel</text>
</a>
</g>
</g>
<!-- Node12&#45;&gt;Node13 -->
<g id="edge12_Node000012_Node000013" class="edge">
<title>Node12&#45;&gt;Node13</title>
<g id="a_edge12_Node000012_Node000013"><a xlink:title=" ">
<path fill="none" stroke="#63b8ff" d="M674.66,-54.75C675.18,-47.8 675.94,-37.85 676.59,-29.13"/>
<polygon fill="#63b8ff" stroke="#63b8ff" points="680.09,-29.32 677.35,-19.09 673.11,-28.8 680.09,-29.32"/>
</a>
</g>
</g>
<!-- Node14 -->
<g id="Node000014" class="node">
<title>Node14</title>
<g id="a_Node000014"><a xlink:title=" ">
<polygon fill="#e0e0e0" stroke="#999999" points="959.5,-19 770.5,-19 770.5,0 959.5,0 959.5,-19"/>
<text text-anchor="middle" x="865" y="-7" font-family="Helvetica,sans-Serif" font-size="10.00">QtQmlIntegration/QtQmlIntegration</text>
</a>
</g>
</g>
<!-- Node12&#45;&gt;Node14 -->
<g id="edge14_Node000012_Node000014" class="edge">
<title>Node12&#45;&gt;Node14</title>
<g id="a_edge14_Node000012_Node000014"><a xlink:title=" ">
<path fill="none" stroke="#63b8ff" d="M704.69,-54.98C737.17,-45.97 788.6,-31.7 824.41,-21.76"/>
<polygon fill="#63b8ff" stroke="#63b8ff" points="825.37,-25.13 834.07,-19.08 823.5,-18.38 825.37,-25.13"/>
</a>
</g>
</g>
</g>
</svg>

<g id="navigator" transform="translate(0 0)" fill="#404254">
  <rect fill="#f2f5e9" fill-opacity="0.5" stroke="#606060" stroke-width=".5" x="0" y="0" width="60" height="60"/>
  <use id="zoomplus" xlink:href="#zoomPlus" x="17" y="9" onmousedown="handleZoom(evt,'in')"/>
  <use id="zoomminus" xlink:href="#zoomMin" x="42" y="9" onmousedown="handleZoom(evt,'out')"/>
  <use id="reset" xlink:href="#resetDef" x="30" y="36" onmousedown="handleReset()"/>
   <use id="arrowup" xlink:href="#arrowUp" x="0" y="0" onmousedown="handlePan(0,-1)"/>
  <use id="arrowright" xlink:href="#arrowRight" x="0" y="0" onmousedown="handlePan(1,0)"/>
  <use id="arrowdown" xlink:href="#arrowDown" x="0" y="0" onmousedown="handlePan(0,1)"/>
  <use id="arrowleft" xlink:href="#arrowLeft" x="0" y="0" onmousedown="handlePan(-1,0)"/>
</g>
<svg viewBox="0 0 15 15" width="100%" height="30px" preserveAspectRatio="xMaxYMin meet">
 <g id="arrow_out" transform="scale(0.3 0.3)">
  <a xlink:href="QGCCommandLineParser_8cc__incl_org.svg" target="_base">
   <rect id="button" ry="5" rx="5" y="6" x="6" height="38" width="38"
        fill="#f2f5e9" fill-opacity="0.5" stroke="#606060" stroke-width="1.0"/>
   <path id="arrow"
     d="M 11.500037,31.436501 C 11.940474,20.09759 22.043105,11.32322 32.158766,21.979434 L 37.068811,17.246167 C 37.068811,17.246167 37.088388,32 37.088388,32 L 22.160133,31.978069 C 22.160133,31.978069 26.997745,27.140456 26.997745,27.140456 C 18.528582,18.264221 13.291696,25.230495 11.500037,31.436501 z"
     style="fill:#404040;"/>
  </a>
 </g>
</svg>

<style type='text/css'>
<![CDATA[
[data-mouse-over-selected='false'] { opacity: 0.7; }
[data-mouse-over-selected='true']  { opacity: 1.0; }
]]>
</style>
<script type="application/ecmascript"><![CDATA[
document.addEventListener('DOMContentLoaded', (event) => {
  highlightEdges();
  highlightAdjacentNodes();
});
]]></script>
</svg>
