<?xml version="1.0" encoding="UTF-8" standalone="no"?>
<!DOCTYPE svg PUBLIC "-//W3C//DTD SVG 1.1//EN"
 "http://www.w3.org/Graphics/SVG/1.1/DTD/svg11.dtd">
<!-- Generated by graphviz version 2.43.0 (0)
 -->
<!-- Title: src/Utilities/Compression/QGCCompressionJob.h Pages: 1 -->
<svg width="918pt" height="203pt"
 viewBox="0.00 0.00 917.50 203.00" xmlns="http://www.w3.org/2000/svg" xmlns:xlink="http://www.w3.org/1999/xlink">
<g id="graph0" class="graph" transform="scale(1 1) rotate(0) translate(4 199)">
<title>src/Utilities/Compression/QGCCompressionJob.h</title>
<!-- Node1 -->
<g id="Node000001" class="node">
<title>Node1</title>
<g id="a_Node000001"><a xlink:title="QObject wrapper for async compression operations using QtConcurrent/QPromise.">
<polygon fill="#999999" stroke="#666666" points="626,-195 487,-195 487,-165 626,-165 626,-195"/>
<text text-anchor="start" x="495" y="-183" font-family="Helvetica,sans-Serif" font-size="10.00">src/Utilities/Compression</text>
<text text-anchor="middle" x="556.5" y="-172" font-family="Helvetica,sans-Serif" font-size="10.00">/QGCCompressionJob.h</text>
</a>
</g>
</g>
<!-- Node2 -->
<g id="Node000002" class="node">
<title>Node2</title>
<g id="a_Node000002"><a xlink:href="QGCCompression_8h.html" target="_top" xlink:title=" ">
<polygon fill="white" stroke="#666666" points="395,-129 284,-129 284,-110 395,-110 395,-129"/>
<text text-anchor="middle" x="339.5" y="-117" font-family="Helvetica,sans-Serif" font-size="10.00">QGCCompression.h</text>
</a>
</g>
</g>
<!-- Node1&#45;&gt;Node2 -->
<g id="edge1_Node000001_Node000002" class="edge">
<title>Node1&#45;&gt;Node2</title>
<g id="a_edge1_Node000001_Node000002"><a xlink:title=" ">
<path fill="none" stroke="#63b8ff" d="M504.52,-164.99C466.75,-154.8 416.29,-141.2 381.16,-131.73"/>
<polygon fill="#63b8ff" stroke="#63b8ff" points="381.8,-128.28 371.23,-129.05 379.97,-135.04 381.8,-128.28"/>
</a>
</g>
</g>
<!-- Node10 -->
<g id="Node000010" class="node">
<title>Node10</title>
<g id="a_Node000010"><a xlink:title=" ">
<polygon fill="#e0e0e0" stroke="#999999" points="463.5,-129 413.5,-129 413.5,-110 463.5,-110 463.5,-129"/>
<text text-anchor="middle" x="438.5" y="-117" font-family="Helvetica,sans-Serif" font-size="10.00">atomic</text>
</a>
</g>
</g>
<!-- Node1&#45;&gt;Node10 -->
<g id="edge10_Node000001_Node000010" class="edge">
<title>Node1&#45;&gt;Node10</title>
<g id="a_edge10_Node000001_Node000010"><a xlink:title=" ">
<path fill="none" stroke="#63b8ff" d="M528.24,-164.99C509.08,-155.49 483.92,-143.02 465.11,-133.69"/>
<polygon fill="#63b8ff" stroke="#63b8ff" points="466.44,-130.45 455.93,-129.14 463.33,-136.72 466.44,-130.45"/>
</a>
</g>
</g>
<!-- Node11 -->
<g id="Node000011" class="node">
<title>Node11</title>
<g id="a_Node000011"><a xlink:title=" ">
<polygon fill="#e0e0e0" stroke="#999999" points="539.5,-129 481.5,-129 481.5,-110 539.5,-110 539.5,-129"/>
<text text-anchor="middle" x="510.5" y="-117" font-family="Helvetica,sans-Serif" font-size="10.00">memory</text>
</a>
</g>
</g>
<!-- Node1&#45;&gt;Node11 -->
<g id="edge11_Node000001_Node000011" class="edge">
<title>Node1&#45;&gt;Node11</title>
<g id="a_edge11_Node000001_Node000011"><a xlink:title=" ">
<path fill="none" stroke="#63b8ff" d="M545.36,-164.84C538.82,-156.52 530.52,-145.96 523.66,-137.23"/>
<polygon fill="#63b8ff" stroke="#63b8ff" points="526.33,-134.96 517.39,-129.27 520.82,-139.29 526.33,-134.96"/>
</a>
</g>
</g>
<!-- Node12 -->
<g id="Node000012" class="node">
<title>Node12</title>
<g id="a_Node000012"><a xlink:title=" ">
<polygon fill="#e0e0e0" stroke="#999999" points="649.5,-129 557.5,-129 557.5,-110 649.5,-110 649.5,-129"/>
<text text-anchor="middle" x="603.5" y="-117" font-family="Helvetica,sans-Serif" font-size="10.00">QtCore/QFuture</text>
</a>
</g>
</g>
<!-- Node1&#45;&gt;Node12 -->
<g id="edge12_Node000001_Node000012" class="edge">
<title>Node1&#45;&gt;Node12</title>
<g id="a_edge12_Node000001_Node000012"><a xlink:title=" ">
<path fill="none" stroke="#63b8ff" d="M567.88,-164.84C574.56,-156.52 583.05,-145.96 590.06,-137.23"/>
<polygon fill="#63b8ff" stroke="#63b8ff" points="592.92,-139.25 596.46,-129.27 587.47,-134.87 592.92,-139.25"/>
</a>
</g>
</g>
<!-- Node13 -->
<g id="Node000013" class="node">
<title>Node13</title>
<g id="a_Node000013"><a xlink:title=" ">
<polygon fill="#e0e0e0" stroke="#999999" points="799,-129 668,-129 668,-110 799,-110 799,-129"/>
<text text-anchor="middle" x="733.5" y="-117" font-family="Helvetica,sans-Serif" font-size="10.00">QtCore/QFutureWatcher</text>
</a>
</g>
</g>
<!-- Node1&#45;&gt;Node13 -->
<g id="edge13_Node000001_Node000013" class="edge">
<title>Node1&#45;&gt;Node13</title>
<g id="a_edge13_Node000001_Node000013"><a xlink:title=" ">
<path fill="none" stroke="#63b8ff" d="M598.9,-164.99C629.18,-154.98 669.45,-141.67 698.03,-132.22"/>
<polygon fill="#63b8ff" stroke="#63b8ff" points="699.22,-135.52 707.62,-129.05 697.03,-128.87 699.22,-135.52"/>
</a>
</g>
</g>
<!-- Node14 -->
<g id="Node000014" class="node">
<title>Node14</title>
<g id="a_Node000014"><a xlink:title=" ">
<polygon fill="#e0e0e0" stroke="#999999" points="909.5,-129 817.5,-129 817.5,-110 909.5,-110 909.5,-129"/>
<text text-anchor="middle" x="863.5" y="-117" font-family="Helvetica,sans-Serif" font-size="10.00">QtCore/QObject</text>
</a>
</g>
</g>
<!-- Node1&#45;&gt;Node14 -->
<g id="edge14_Node000001_Node000014" class="edge">
<title>Node1&#45;&gt;Node14</title>
<g id="a_edge14_Node000001_Node000014"><a xlink:title=" ">
<path fill="none" stroke="#63b8ff" d="M626.16,-165.73C681.56,-155.17 757.97,-140.61 808.97,-130.89"/>
<polygon fill="#63b8ff" stroke="#63b8ff" points="809.65,-134.33 818.81,-129.02 808.33,-127.45 809.65,-134.33"/>
</a>
</g>
</g>
<!-- Node3 -->
<g id="Node000003" class="node">
<title>Node3</title>
<g id="a_Node000003"><a xlink:href="QGCCompressionTypes_8h.html" target="_top" xlink:title="Shared type definitions for compression/archive operations.">
<polygon fill="white" stroke="#666666" points="228,-74 89,-74 89,-55 228,-55 228,-74"/>
<text text-anchor="middle" x="158.5" y="-62" font-family="Helvetica,sans-Serif" font-size="10.00">QGCCompressionTypes.h</text>
</a>
</g>
</g>
<!-- Node2&#45;&gt;Node3 -->
<g id="edge2_Node000002_Node000003" class="edge">
<title>Node2&#45;&gt;Node3</title>
<g id="a_edge2_Node000002_Node000003"><a xlink:title=" ">
<path fill="none" stroke="#63b8ff" d="M310.42,-109.98C279.9,-101.05 231.74,-86.94 197.84,-77.02"/>
<polygon fill="#63b8ff" stroke="#63b8ff" points="198.39,-73.53 187.81,-74.08 196.42,-80.25 198.39,-73.53"/>
</a>
</g>
</g>
<!-- Node5 -->
<g id="Node000005" class="node">
<title>Node5</title>
<g id="a_Node000005"><a xlink:title=" ">
<polygon fill="#e0e0e0" stroke="#999999" points="300,-19 211,-19 211,0 300,0 300,-19"/>
<text text-anchor="middle" x="255.5" y="-7" font-family="Helvetica,sans-Serif" font-size="10.00">QtCore/QString</text>
</a>
</g>
</g>
<!-- Node2&#45;&gt;Node5 -->
<g id="edge8_Node000002_Node000005" class="edge">
<title>Node2&#45;&gt;Node5</title>
<g id="a_edge8_Node000002_Node000005"><a xlink:title=" ">
<path fill="none" stroke="#63b8ff" d="M320.98,-109.88C306.64,-102.32 287.29,-90.03 275.5,-74 265.76,-60.76 260.67,-42.64 258.07,-29.14"/>
<polygon fill="#63b8ff" stroke="#63b8ff" points="261.5,-28.4 256.42,-19.1 254.59,-29.54 261.5,-28.4"/>
</a>
</g>
</g>
<!-- Node7 -->
<g id="Node000007" class="node">
<title>Node7</title>
<g id="a_Node000007"><a xlink:title=" ">
<polygon fill="#e0e0e0" stroke="#999999" points="394.5,-74 284.5,-74 284.5,-55 394.5,-55 394.5,-74"/>
<text text-anchor="middle" x="339.5" y="-62" font-family="Helvetica,sans-Serif" font-size="10.00">QtCore/QByteArray</text>
</a>
</g>
</g>
<!-- Node2&#45;&gt;Node7 -->
<g id="edge6_Node000002_Node000007" class="edge">
<title>Node2&#45;&gt;Node7</title>
<g id="a_edge6_Node000002_Node000007"><a xlink:title=" ">
<path fill="none" stroke="#63b8ff" d="M339.5,-109.75C339.5,-102.8 339.5,-92.85 339.5,-84.13"/>
<polygon fill="#63b8ff" stroke="#63b8ff" points="343,-84.09 339.5,-74.09 336,-84.09 343,-84.09"/>
</a>
</g>
</g>
<!-- Node8 -->
<g id="Node000008" class="node">
<title>Node8</title>
<g id="a_Node000008"><a xlink:title=" ">
<polygon fill="#e0e0e0" stroke="#999999" points="518,-74 413,-74 413,-55 518,-55 518,-74"/>
<text text-anchor="middle" x="465.5" y="-62" font-family="Helvetica,sans-Serif" font-size="10.00">QtCore/QIODevice</text>
</a>
</g>
</g>
<!-- Node2&#45;&gt;Node8 -->
<g id="edge7_Node000002_Node000008" class="edge">
<title>Node2&#45;&gt;Node8</title>
<g id="a_edge7_Node000002_Node000008"><a xlink:title=" ">
<path fill="none" stroke="#63b8ff" d="M359.74,-109.98C380.2,-101.38 412.03,-87.99 435.43,-78.15"/>
<polygon fill="#63b8ff" stroke="#63b8ff" points="437.03,-81.27 444.89,-74.17 434.31,-74.82 437.03,-81.27"/>
</a>
</g>
</g>
<!-- Node9 -->
<g id="Node000009" class="node">
<title>Node9</title>
<g id="a_Node000009"><a xlink:title=" ">
<polygon fill="#e0e0e0" stroke="#999999" points="643,-74 536,-74 536,-55 643,-55 643,-74"/>
<text text-anchor="middle" x="589.5" y="-62" font-family="Helvetica,sans-Serif" font-size="10.00">QtCore/QStringList</text>
</a>
</g>
</g>
<!-- Node2&#45;&gt;Node9 -->
<g id="edge9_Node000002_Node000009" class="edge">
<title>Node2&#45;&gt;Node9</title>
<g id="a_edge9_Node000002_Node000009"><a xlink:title=" ">
<path fill="none" stroke="#63b8ff" d="M379.67,-109.98C423,-100.8 492.09,-86.15 539.06,-76.19"/>
<polygon fill="#63b8ff" stroke="#63b8ff" points="539.96,-79.58 549.02,-74.08 538.51,-72.73 539.96,-79.58"/>
</a>
</g>
</g>
<!-- Node4 -->
<g id="Node000004" class="node">
<title>Node4</title>
<g id="a_Node000004"><a xlink:title=" ">
<polygon fill="#e0e0e0" stroke="#999999" points="109,-19 0,-19 0,0 109,0 109,-19"/>
<text text-anchor="middle" x="54.5" y="-7" font-family="Helvetica,sans-Serif" font-size="10.00">QtCore/QDateTime</text>
</a>
</g>
</g>
<!-- Node3&#45;&gt;Node4 -->
<g id="edge3_Node000003_Node000004" class="edge">
<title>Node3&#45;&gt;Node4</title>
<g id="a_edge3_Node000003_Node000004"><a xlink:title=" ">
<path fill="none" stroke="#63b8ff" d="M141.79,-54.98C125.29,-46.57 99.8,-33.59 80.62,-23.81"/>
<polygon fill="#63b8ff" stroke="#63b8ff" points="82.01,-20.59 71.51,-19.17 78.83,-26.83 82.01,-20.59"/>
</a>
</g>
</g>
<!-- Node3&#45;&gt;Node5 -->
<g id="edge4_Node000003_Node000005" class="edge">
<title>Node3&#45;&gt;Node5</title>
<g id="a_edge4_Node000003_Node000005"><a xlink:title=" ">
<path fill="none" stroke="#63b8ff" d="M174.08,-54.98C189.27,-46.69 212.6,-33.94 230.4,-24.22"/>
<polygon fill="#63b8ff" stroke="#63b8ff" points="232.53,-27.04 239.63,-19.17 229.18,-20.89 232.53,-27.04"/>
</a>
</g>
</g>
<!-- Node6 -->
<g id="Node000006" class="node">
<title>Node6</title>
<g id="a_Node000006"><a xlink:title=" ">
<polygon fill="#e0e0e0" stroke="#999999" points="192,-19 127,-19 127,0 192,0 192,-19"/>
<text text-anchor="middle" x="159.5" y="-7" font-family="Helvetica,sans-Serif" font-size="10.00">functional</text>
</a>
</g>
</g>
<!-- Node3&#45;&gt;Node6 -->
<g id="edge5_Node000003_Node000006" class="edge">
<title>Node3&#45;&gt;Node6</title>
<g id="a_edge5_Node000003_Node000006"><a xlink:title=" ">
<path fill="none" stroke="#63b8ff" d="M158.67,-54.75C158.8,-47.8 158.98,-37.85 159.15,-29.13"/>
<polygon fill="#63b8ff" stroke="#63b8ff" points="162.65,-29.15 159.34,-19.09 155.65,-29.02 162.65,-29.15"/>
</a>
</g>
</g>
</g>
</svg>
