<?xml version="1.0" encoding="UTF-8" standalone="no"?>
<!DOCTYPE svg PUBLIC "-//W3C//DTD SVG 1.1//EN"
 "http://www.w3.org/Graphics/SVG/1.1/DTD/svg11.dtd">
<!-- Generated by graphviz version 2.43.0 (0)
 -->
<!-- Title: src/Utilities/FileSystem/QGCCachedFileDownload.cc Pages: 1 -->
<svg width="2446pt" height="214pt"
 viewBox="0.00 0.00 2445.50 214.00" xmlns="http://www.w3.org/2000/svg" xmlns:xlink="http://www.w3.org/1999/xlink">
<g id="graph0" class="graph" transform="scale(1 1) rotate(0) translate(4 210)">
<title>src/Utilities/FileSystem/QGCCachedFileDownload.cc</title>
<!-- Node1 -->
<g id="Node000001" class="node">
<title>Node1</title>
<g id="a_Node000001"><a xlink:title=" ">
<polygon fill="#999999" stroke="#666666" points="1510.5,-206 1353.5,-206 1353.5,-176 1510.5,-176 1510.5,-206"/>
<text text-anchor="start" x="1361.5" y="-194" font-family="Helvetica,sans-Serif" font-size="10.00">src/Utilities/FileSystem</text>
<text text-anchor="middle" x="1432" y="-183" font-family="Helvetica,sans-Serif" font-size="10.00">/QGCCachedFileDownload.cc</text>
</a>
</g>
</g>
<!-- Node2 -->
<g id="Node000002" class="node">
<title>Node2</title>
<g id="a_Node000002"><a xlink:href="QGCCachedFileDownload_8h.html" target="_top" xlink:title="Cached file download with time&#45;based expiration and fallback support.">
<polygon fill="white" stroke="#666666" points="985.5,-140 836.5,-140 836.5,-121 985.5,-121 985.5,-140"/>
<text text-anchor="middle" x="911" y="-128" font-family="Helvetica,sans-Serif" font-size="10.00">QGCCachedFileDownload.h</text>
</a>
</g>
</g>
<!-- Node1&#45;&gt;Node2 -->
<g id="edge1_Node000001_Node000002" class="edge">
<title>Node1&#45;&gt;Node2</title>
<g id="a_edge1_Node000001_Node000002"><a xlink:title=" ">
<path fill="none" stroke="#63b8ff" d="M1353.44,-181.18C1257.11,-170.36 1094.49,-152.1 995.52,-140.99"/>
<polygon fill="#63b8ff" stroke="#63b8ff" points="995.88,-137.51 985.55,-139.87 995.1,-144.46 995.88,-137.51"/>
</a>
</g>
</g>
<!-- Node3 -->
<g id="Node000003" class="node">
<title>Node3</title>
<g id="a_Node000003"><a xlink:title=" ">
<polygon fill="#e0e0e0" stroke="#999999" points="765.5,-85 656.5,-85 656.5,-66 765.5,-66 765.5,-85"/>
<text text-anchor="middle" x="711" y="-73" font-family="Helvetica,sans-Serif" font-size="10.00">QtCore/QDateTime</text>
</a>
</g>
</g>
<!-- Node1&#45;&gt;Node3 -->
<g id="edge44_Node000001_Node000003" class="edge">
<title>Node1&#45;&gt;Node3</title>
<g id="a_edge44_Node000001_Node000003"><a xlink:title=" ">
<path fill="none" stroke="#63b8ff" d="M1353.44,-187.56C1212.73,-182.53 923.4,-168.94 827,-140 790.86,-129.15 753.31,-106.06 731.06,-90.92"/>
<polygon fill="#63b8ff" stroke="#63b8ff" points="732.99,-87.99 722.78,-85.16 728.99,-93.74 732.99,-87.99"/>
</a>
</g>
</g>
<!-- Node8 -->
<g id="Node000008" class="node">
<title>Node8</title>
<g id="a_Node000008"><a xlink:href="QGCFileDownload_8h.html" target="_top" xlink:title="Unified file download utility with decompression, verification, and QML support.">
<polygon fill="white" stroke="#666666" points="1324.5,-140 1211.5,-140 1211.5,-121 1324.5,-121 1324.5,-140"/>
<text text-anchor="middle" x="1268" y="-128" font-family="Helvetica,sans-Serif" font-size="10.00">QGCFileDownload.h</text>
</a>
</g>
</g>
<!-- Node1&#45;&gt;Node8 -->
<g id="edge7_Node000001_Node000008" class="edge">
<title>Node1&#45;&gt;Node8</title>
<g id="a_edge7_Node000001_Node000008"><a xlink:title=" ">
<path fill="none" stroke="#63b8ff" d="M1392.72,-175.99C1364.99,-166.1 1328.22,-152.98 1301.8,-143.56"/>
<polygon fill="#63b8ff" stroke="#63b8ff" points="1302.81,-140.2 1292.22,-140.14 1300.46,-146.8 1302.81,-140.2"/>
</a>
</g>
</g>
<!-- Node18 -->
<g id="Node000018" class="node">
<title>Node18</title>
<g id="a_Node000018"><a xlink:title=" ">
<polygon fill="#e0e0e0" stroke="#999999" points="2437.5,-24.5 2276.5,-24.5 2276.5,-5.5 2437.5,-5.5 2437.5,-24.5"/>
<text text-anchor="middle" x="2357" y="-12.5" font-family="Helvetica,sans-Serif" font-size="10.00">QtNetwork/QNetworkRequest</text>
</a>
</g>
</g>
<!-- Node1&#45;&gt;Node18 -->
<g id="edge48_Node000001_Node000018" class="edge">
<title>Node1&#45;&gt;Node18</title>
<g id="a_edge48_Node000001_Node000018"><a xlink:title=" ">
<path fill="none" stroke="#63b8ff" d="M1429.13,-175.86C1424.75,-149.71 1419.88,-93.93 1451,-66 1484.81,-35.65 2222.79,-34.54 2268,-30 2278.04,-28.99 2288.67,-27.6 2298.95,-26.09"/>
<polygon fill="#63b8ff" stroke="#63b8ff" points="2299.73,-29.51 2309.09,-24.54 2298.68,-22.59 2299.73,-29.51"/>
</a>
</g>
</g>
<!-- Node22 -->
<g id="Node000022" class="node">
<title>Node22</title>
<g id="a_Node000022"><a xlink:href="QGCFileHelper_8h.html" target="_top" xlink:title=" ">
<polygon fill="white" stroke="#666666" points="525,-85 429,-85 429,-66 525,-66 525,-85"/>
<text text-anchor="middle" x="477" y="-73" font-family="Helvetica,sans-Serif" font-size="10.00">QGCFileHelper.h</text>
</a>
</g>
</g>
<!-- Node1&#45;&gt;Node22 -->
<g id="edge28_Node000001_Node000022" class="edge">
<title>Node1&#45;&gt;Node22</title>
<g id="a_edge28_Node000001_Node000022"><a xlink:title=" ">
<path fill="none" stroke="#63b8ff" d="M1353.36,-187.27C1230.47,-182.27 985.68,-169.31 780,-140 686.89,-126.73 579.49,-101.93 520.85,-87.56"/>
<polygon fill="#63b8ff" stroke="#63b8ff" points="521.37,-84.09 510.82,-85.09 519.7,-90.89 521.37,-84.09"/>
</a>
</g>
</g>
<!-- Node27 -->
<g id="Node000027" class="node">
<title>Node27</title>
<g id="a_Node000027"><a xlink:href="QGCLoggingCategory_8h.html" target="_top" xlink:title=" ">
<polygon fill="white" stroke="#666666" points="1588,-140 1460,-140 1460,-121 1588,-121 1588,-140"/>
<text text-anchor="middle" x="1524" y="-128" font-family="Helvetica,sans-Serif" font-size="10.00">QGCLoggingCategory.h</text>
</a>
</g>
</g>
<!-- Node1&#45;&gt;Node27 -->
<g id="edge35_Node000001_Node000027" class="edge">
<title>Node1&#45;&gt;Node27</title>
<g id="a_edge35_Node000001_Node000027"><a xlink:title=" ">
<path fill="none" stroke="#63b8ff" d="M1454.27,-175.84C1468.67,-166.68 1487.33,-154.82 1501.73,-145.66"/>
<polygon fill="#63b8ff" stroke="#63b8ff" points="1503.92,-148.41 1510.48,-140.09 1500.17,-142.51 1503.92,-148.41"/>
</a>
</g>
</g>
<!-- Node33 -->
<g id="Node000033" class="node">
<title>Node33</title>
<g id="a_Node000033"><a xlink:title=" ">
<polygon fill="#e0e0e0" stroke="#999999" points="1681.5,-140 1606.5,-140 1606.5,-121 1681.5,-121 1681.5,-140"/>
<text text-anchor="middle" x="1644" y="-128" font-family="Helvetica,sans-Serif" font-size="10.00">QtCore/QDir</text>
</a>
</g>
</g>
<!-- Node1&#45;&gt;Node33 -->
<g id="edge45_Node000001_Node000033" class="edge">
<title>Node1&#45;&gt;Node33</title>
<g id="a_edge45_Node000001_Node000033"><a xlink:title=" ">
<path fill="none" stroke="#63b8ff" d="M1482.78,-175.99C1519.68,-165.8 1568.98,-152.2 1603.3,-142.73"/>
<polygon fill="#63b8ff" stroke="#63b8ff" points="1604.29,-146.09 1613,-140.05 1602.43,-139.34 1604.29,-146.09"/>
</a>
</g>
</g>
<!-- Node34 -->
<g id="Node000034" class="node">
<title>Node34</title>
<g id="a_Node000034"><a xlink:title=" ">
<polygon fill="#e0e0e0" stroke="#999999" points="1778,-140 1700,-140 1700,-121 1778,-121 1778,-140"/>
<text text-anchor="middle" x="1739" y="-128" font-family="Helvetica,sans-Serif" font-size="10.00">QtCore/QFile</text>
</a>
</g>
</g>
<!-- Node1&#45;&gt;Node34 -->
<g id="edge46_Node000001_Node000034" class="edge">
<title>Node1&#45;&gt;Node34</title>
<g id="a_edge46_Node000001_Node000034"><a xlink:title=" ">
<path fill="none" stroke="#63b8ff" d="M1505.53,-175.99C1562.62,-165.11 1640.19,-150.33 1689.93,-140.85"/>
<polygon fill="#63b8ff" stroke="#63b8ff" points="1690.63,-144.28 1699.8,-138.97 1689.32,-137.4 1690.63,-144.28"/>
</a>
</g>
</g>
<!-- Node35 -->
<g id="Node000035" class="node">
<title>Node35</title>
<g id="a_Node000035"><a xlink:title=" ">
<polygon fill="#e0e0e0" stroke="#999999" points="1969.5,-140 1796.5,-140 1796.5,-121 1969.5,-121 1969.5,-140"/>
<text text-anchor="middle" x="1883" y="-128" font-family="Helvetica,sans-Serif" font-size="10.00">QtNetwork/QNetworkDiskCache</text>
</a>
</g>
</g>
<!-- Node1&#45;&gt;Node35 -->
<g id="edge47_Node000001_Node000035" class="edge">
<title>Node1&#45;&gt;Node35</title>
<g id="a_edge47_Node000001_Node000035"><a xlink:title=" ">
<path fill="none" stroke="#63b8ff" d="M1510.56,-179.81C1594.02,-168.98 1725.05,-151.99 1807.37,-141.31"/>
<polygon fill="#63b8ff" stroke="#63b8ff" points="1807.95,-144.76 1817.41,-140.01 1807.05,-137.82 1807.95,-144.76"/>
</a>
</g>
</g>
<!-- Node2&#45;&gt;Node3 -->
<g id="edge2_Node000002_Node000003" class="edge">
<title>Node2&#45;&gt;Node3</title>
<g id="a_edge2_Node000002_Node000003"><a xlink:title=" ">
<path fill="none" stroke="#63b8ff" d="M878.87,-120.98C844.85,-111.97 791,-97.7 753.5,-87.76"/>
<polygon fill="#63b8ff" stroke="#63b8ff" points="753.95,-84.26 743.39,-85.08 752.16,-91.03 753.95,-84.26"/>
</a>
</g>
</g>
<!-- Node4 -->
<g id="Node000004" class="node">
<title>Node4</title>
<g id="a_Node000004"><a xlink:title=" ">
<polygon fill="#e0e0e0" stroke="#999999" points="1151.5,-85 1008.5,-85 1008.5,-66 1151.5,-66 1151.5,-85"/>
<text text-anchor="middle" x="1080" y="-73" font-family="Helvetica,sans-Serif" font-size="10.00">QtCore/QLoggingCategory</text>
</a>
</g>
</g>
<!-- Node2&#45;&gt;Node4 -->
<g id="edge3_Node000002_Node000004" class="edge">
<title>Node2&#45;&gt;Node4</title>
<g id="a_edge3_Node000002_Node000004"><a xlink:title=" ">
<path fill="none" stroke="#63b8ff" d="M938.15,-120.98C966.53,-112.09 1011.23,-98.07 1042.86,-88.15"/>
<polygon fill="#63b8ff" stroke="#63b8ff" points="1044.14,-91.41 1052.63,-85.08 1042.05,-84.73 1044.14,-91.41"/>
</a>
</g>
</g>
<!-- Node5 -->
<g id="Node000005" class="node">
<title>Node5</title>
<g id="a_Node000005"><a xlink:title=" ">
<polygon fill="#e0e0e0" stroke="#999999" points="990,-85 898,-85 898,-66 990,-66 990,-85"/>
<text text-anchor="middle" x="944" y="-73" font-family="Helvetica,sans-Serif" font-size="10.00">QtCore/QObject</text>
</a>
</g>
</g>
<!-- Node2&#45;&gt;Node5 -->
<g id="edge4_Node000002_Node000005" class="edge">
<title>Node2&#45;&gt;Node5</title>
<g id="a_edge4_Node000002_Node000005"><a xlink:title=" ">
<path fill="none" stroke="#63b8ff" d="M916.45,-120.75C921.01,-113.42 927.67,-102.73 933.29,-93.7"/>
<polygon fill="#63b8ff" stroke="#63b8ff" points="936.34,-95.43 938.65,-85.09 930.4,-91.73 936.34,-95.43"/>
</a>
</g>
</g>
<!-- Node6 -->
<g id="Node000006" class="node">
<title>Node6</title>
<g id="a_Node000006"><a xlink:title=" ">
<polygon fill="#e0e0e0" stroke="#999999" points="706.5,-24.5 617.5,-24.5 617.5,-5.5 706.5,-5.5 706.5,-24.5"/>
<text text-anchor="middle" x="662" y="-12.5" font-family="Helvetica,sans-Serif" font-size="10.00">QtCore/QString</text>
</a>
</g>
</g>
<!-- Node2&#45;&gt;Node6 -->
<g id="edge5_Node000002_Node000006" class="edge">
<title>Node2&#45;&gt;Node6</title>
<g id="a_edge5_Node000002_Node000006"><a xlink:title=" ">
<path fill="none" stroke="#63b8ff" d="M899.13,-120.96C880.46,-107.81 842.76,-82.42 808,-66 773.72,-49.81 732.73,-36.24 702.92,-27.34"/>
<polygon fill="#63b8ff" stroke="#63b8ff" points="703.84,-23.97 693.26,-24.51 701.87,-30.68 703.84,-23.97"/>
</a>
</g>
</g>
<!-- Node7 -->
<g id="Node000007" class="node">
<title>Node7</title>
<g id="a_Node000007"><a xlink:title=" ">
<polygon fill="#e0e0e0" stroke="#999999" points="599.5,-24.5 524.5,-24.5 524.5,-5.5 599.5,-5.5 599.5,-24.5"/>
<text text-anchor="middle" x="562" y="-12.5" font-family="Helvetica,sans-Serif" font-size="10.00">QtCore/QUrl</text>
</a>
</g>
</g>
<!-- Node2&#45;&gt;Node7 -->
<g id="edge6_Node000002_Node000007" class="edge">
<title>Node2&#45;&gt;Node7</title>
<g id="a_edge6_Node000002_Node000007"><a xlink:title=" ">
<path fill="none" stroke="#63b8ff" d="M893.17,-120.97C858.89,-104.6 786.08,-70.06 774,-66 702.43,-41.98 681.06,-49.01 608,-30 604.85,-29.18 601.59,-28.29 598.33,-27.36"/>
<polygon fill="#63b8ff" stroke="#63b8ff" points="599.23,-23.97 588.65,-24.52 597.26,-30.69 599.23,-23.97"/>
</a>
</g>
</g>
<!-- Node8&#45;&gt;Node4 -->
<g id="edge23_Node000008_Node000004" class="edge">
<title>Node8&#45;&gt;Node4</title>
<g id="a_edge23_Node000008_Node000004"><a xlink:title=" ">
<path fill="none" stroke="#63b8ff" d="M1237.79,-120.98C1205.96,-112.01 1155.64,-97.82 1120.4,-87.89"/>
<polygon fill="#63b8ff" stroke="#63b8ff" points="1121.02,-84.43 1110.44,-85.08 1119.12,-91.16 1121.02,-84.43"/>
</a>
</g>
</g>
<!-- Node8&#45;&gt;Node5 -->
<g id="edge24_Node000008_Node000005" class="edge">
<title>Node8&#45;&gt;Node5</title>
<g id="a_edge24_Node000008_Node000005"><a xlink:title=" ">
<path fill="none" stroke="#63b8ff" d="M1215.94,-120.98C1156.93,-111.33 1061.06,-95.65 1000.33,-85.71"/>
<polygon fill="#63b8ff" stroke="#63b8ff" points="1000.59,-82.21 990.16,-84.05 999.46,-89.12 1000.59,-82.21"/>
</a>
</g>
</g>
<!-- Node8&#45;&gt;Node7 -->
<g id="edge25_Node000008_Node000007" class="edge">
<title>Node8&#45;&gt;Node7</title>
<g id="a_edge25_Node000008_Node000007"><a xlink:title=" ">
<path fill="none" stroke="#63b8ff" d="M1211.19,-124.91C1136.81,-118.42 1002.51,-105.07 889,-85 853.01,-78.64 844.78,-73.45 809,-66 720.15,-47.51 696.23,-51.25 608,-30 604.65,-29.19 601.19,-28.28 597.73,-27.32"/>
<polygon fill="#63b8ff" stroke="#63b8ff" points="598.7,-23.96 588.12,-24.54 596.75,-30.68 598.7,-23.96"/>
</a>
</g>
</g>
<!-- Node9 -->
<g id="Node000009" class="node">
<title>Node9</title>
<g id="a_Node000009"><a xlink:href="QGCNetworkHelper_8h.html" target="_top" xlink:title=" ">
<polygon fill="white" stroke="#666666" points="1328,-85 1208,-85 1208,-66 1328,-66 1328,-85"/>
<text text-anchor="middle" x="1268" y="-73" font-family="Helvetica,sans-Serif" font-size="10.00">QGCNetworkHelper.h</text>
</a>
</g>
</g>
<!-- Node8&#45;&gt;Node9 -->
<g id="edge8_Node000008_Node000009" class="edge">
<title>Node8&#45;&gt;Node9</title>
<g id="a_edge8_Node000008_Node000009"><a xlink:title=" ">
<path fill="none" stroke="#63b8ff" d="M1268,-120.75C1268,-113.8 1268,-103.85 1268,-95.13"/>
<polygon fill="#63b8ff" stroke="#63b8ff" points="1271.5,-95.09 1268,-85.09 1264.5,-95.09 1271.5,-95.09"/>
</a>
</g>
</g>
<!-- Node17 -->
<g id="Node000017" class="node">
<title>Node17</title>
<g id="a_Node000017"><a xlink:title=" ">
<polygon fill="#e0e0e0" stroke="#999999" points="2258.5,-24.5 2109.5,-24.5 2109.5,-5.5 2258.5,-5.5 2258.5,-24.5"/>
<text text-anchor="middle" x="2184" y="-12.5" font-family="Helvetica,sans-Serif" font-size="10.00">QtNetwork/QNetworkReply</text>
</a>
</g>
</g>
<!-- Node8&#45;&gt;Node17 -->
<g id="edge26_Node000008_Node000017" class="edge">
<title>Node8&#45;&gt;Node17</title>
<g id="a_edge26_Node000008_Node000017"><a xlink:title=" ">
<path fill="none" stroke="#63b8ff" d="M1281.25,-120.95C1306.15,-105.05 1359.29,-72.02 1380,-66 1533.83,-21.29 1940.73,-47.2 2100,-30 2109.28,-29 2119.1,-27.64 2128.62,-26.16"/>
<polygon fill="#63b8ff" stroke="#63b8ff" points="2129.48,-29.56 2138.79,-24.52 2128.36,-22.65 2129.48,-29.56"/>
</a>
</g>
</g>
<!-- Node8&#45;&gt;Node18 -->
<g id="edge27_Node000008_Node000018" class="edge">
<title>Node8&#45;&gt;Node18</title>
<g id="a_edge27_Node000008_Node000018"><a xlink:title=" ">
<path fill="none" stroke="#63b8ff" d="M1288.74,-120.86C1310.13,-111.94 1344.44,-97.59 1374,-85 1393.6,-76.66 1397.24,-70.75 1418,-66 1602.29,-23.82 2079.87,-48.72 2268,-30 2278.04,-29 2288.67,-27.62 2298.96,-26.1"/>
<polygon fill="#63b8ff" stroke="#63b8ff" points="2299.73,-29.53 2309.09,-24.56 2298.68,-22.61 2299.73,-29.53"/>
</a>
</g>
</g>
<!-- Node9&#45;&gt;Node6 -->
<g id="edge12_Node000009_Node000006" class="edge">
<title>Node9&#45;&gt;Node6</title>
<g id="a_edge12_Node000009_Node000006"><a xlink:title=" ">
<path fill="none" stroke="#63b8ff" d="M1207.85,-67.39C1203.16,-66.9 1198.51,-66.43 1194,-66 981.47,-45.81 925.53,-65.41 715,-30 710.21,-29.19 705.22,-28.15 700.3,-27"/>
<polygon fill="#63b8ff" stroke="#63b8ff" points="700.95,-23.56 690.4,-24.53 699.25,-30.35 700.95,-23.56"/>
</a>
</g>
</g>
<!-- Node9&#45;&gt;Node7 -->
<g id="edge13_Node000009_Node000007" class="edge">
<title>Node9&#45;&gt;Node7</title>
<g id="a_edge13_Node000009_Node000007"><a xlink:title=" ">
<path fill="none" stroke="#63b8ff" d="M1207.74,-69.56C1192.5,-68.35 1176.15,-67.09 1161,-66 915.34,-48.25 850.31,-74.15 608,-30 604.14,-29.3 600.14,-28.38 596.19,-27.35"/>
<polygon fill="#63b8ff" stroke="#63b8ff" points="597.15,-23.98 586.57,-24.62 595.24,-30.72 597.15,-23.98"/>
</a>
</g>
</g>
<!-- Node10 -->
<g id="Node000010" class="node">
<title>Node10</title>
<g id="a_Node000010"><a xlink:title=" ">
<polygon fill="#e0e0e0" stroke="#999999" points="1162.5,-24.5 1031.5,-24.5 1031.5,-5.5 1162.5,-5.5 1162.5,-24.5"/>
<text text-anchor="middle" x="1097" y="-12.5" font-family="Helvetica,sans-Serif" font-size="10.00">QtCore/QJsonDocument</text>
</a>
</g>
</g>
<!-- Node9&#45;&gt;Node10 -->
<g id="edge9_Node000009_Node000010" class="edge">
<title>Node9&#45;&gt;Node10</title>
<g id="a_edge9_Node000009_Node000010"><a xlink:title=" ">
<path fill="none" stroke="#63b8ff" d="M1243.14,-65.99C1213.75,-55.94 1164.69,-39.16 1131.61,-27.84"/>
<polygon fill="#63b8ff" stroke="#63b8ff" points="1132.49,-24.44 1121.89,-24.52 1130.22,-31.07 1132.49,-24.44"/>
</a>
</g>
</g>
<!-- Node11 -->
<g id="Node000011" class="node">
<title>Node11</title>
<g id="a_Node000011"><a xlink:title=" ">
<polygon fill="#e0e0e0" stroke="#999999" points="1259,-24.5 1181,-24.5 1181,-5.5 1259,-5.5 1259,-24.5"/>
<text text-anchor="middle" x="1220" y="-12.5" font-family="Helvetica,sans-Serif" font-size="10.00">QtCore/QList</text>
</a>
</g>
</g>
<!-- Node9&#45;&gt;Node11 -->
<g id="edge10_Node000009_Node000011" class="edge">
<title>Node9&#45;&gt;Node11</title>
<g id="a_edge10_Node000009_Node000011"><a xlink:title=" ">
<path fill="none" stroke="#63b8ff" d="M1260.92,-65.87C1253.76,-57.14 1242.51,-43.43 1233.61,-32.59"/>
<polygon fill="#63b8ff" stroke="#63b8ff" points="1236.16,-30.18 1227.11,-24.67 1230.75,-34.62 1236.16,-30.18"/>
</a>
</g>
</g>
<!-- Node12 -->
<g id="Node000012" class="node">
<title>Node12</title>
<g id="a_Node000012"><a xlink:title=" ">
<polygon fill="#e0e0e0" stroke="#999999" points="1356.5,-24.5 1277.5,-24.5 1277.5,-5.5 1356.5,-5.5 1356.5,-24.5"/>
<text text-anchor="middle" x="1317" y="-12.5" font-family="Helvetica,sans-Serif" font-size="10.00">QtCore/QPair</text>
</a>
</g>
</g>
<!-- Node9&#45;&gt;Node12 -->
<g id="edge11_Node000009_Node000012" class="edge">
<title>Node9&#45;&gt;Node12</title>
<g id="a_edge11_Node000009_Node000012"><a xlink:title=" ">
<path fill="none" stroke="#63b8ff" d="M1275.23,-65.87C1282.54,-57.14 1294.02,-43.43 1303.1,-32.59"/>
<polygon fill="#63b8ff" stroke="#63b8ff" points="1306,-34.58 1309.74,-24.67 1300.64,-30.09 1306,-34.58"/>
</a>
</g>
</g>
<!-- Node13 -->
<g id="Node000013" class="node">
<title>Node13</title>
<g id="a_Node000013"><a xlink:title=" ">
<polygon fill="#e0e0e0" stroke="#999999" points="1469.5,-24.5 1374.5,-24.5 1374.5,-5.5 1469.5,-5.5 1469.5,-24.5"/>
<text text-anchor="middle" x="1422" y="-12.5" font-family="Helvetica,sans-Serif" font-size="10.00">QtCore/QVariant</text>
</a>
</g>
</g>
<!-- Node9&#45;&gt;Node13 -->
<g id="edge14_Node000009_Node000013" class="edge">
<title>Node9&#45;&gt;Node13</title>
<g id="a_edge14_Node000009_Node000013"><a xlink:title=" ">
<path fill="none" stroke="#63b8ff" d="M1290.39,-65.99C1316.62,-56.03 1360.28,-39.45 1390.06,-28.13"/>
<polygon fill="#63b8ff" stroke="#63b8ff" points="1391.47,-31.34 1399.58,-24.52 1388.99,-24.8 1391.47,-31.34"/>
</a>
</g>
</g>
<!-- Node14 -->
<g id="Node000014" class="node">
<title>Node14</title>
<g id="a_Node000014"><a xlink:title=" ">
<polygon fill="#e0e0e0" stroke="#999999" points="1630.5,-30 1487.5,-30 1487.5,0 1630.5,0 1630.5,-30"/>
<text text-anchor="start" x="1495.5" y="-18" font-family="Helvetica,sans-Serif" font-size="10.00">QtHttpServer/QHttpServer</text>
<text text-anchor="middle" x="1559" y="-7" font-family="Helvetica,sans-Serif" font-size="10.00">Request</text>
</a>
</g>
</g>
<!-- Node9&#45;&gt;Node14 -->
<g id="edge15_Node000009_Node000014" class="edge">
<title>Node9&#45;&gt;Node14</title>
<g id="a_edge15_Node000009_Node000014"><a xlink:title=" ">
<path fill="none" stroke="#63b8ff" d="M1310.31,-65.99C1354.46,-57.12 1424.72,-42.99 1479.32,-32.02"/>
<polygon fill="#63b8ff" stroke="#63b8ff" points="1480.21,-35.41 1489.32,-30.01 1478.83,-28.55 1480.21,-35.41"/>
</a>
</g>
</g>
<!-- Node15 -->
<g id="Node000015" class="node">
<title>Node15</title>
<g id="a_Node000015"><a xlink:title=" ">
<polygon fill="#e0e0e0" stroke="#999999" points="1791.5,-30 1648.5,-30 1648.5,0 1791.5,0 1791.5,-30"/>
<text text-anchor="start" x="1656.5" y="-18" font-family="Helvetica,sans-Serif" font-size="10.00">QtHttpServer/QHttpServer</text>
<text text-anchor="middle" x="1720" y="-7" font-family="Helvetica,sans-Serif" font-size="10.00">Responder</text>
</a>
</g>
</g>
<!-- Node9&#45;&gt;Node15 -->
<g id="edge16_Node000009_Node000015" class="edge">
<title>Node9&#45;&gt;Node15</title>
<g id="a_edge16_Node000009_Node000015"><a xlink:title=" ">
<path fill="none" stroke="#63b8ff" d="M1328.34,-67.46C1418.93,-56.87 1584.49,-37.42 1637.95,-30.2"/>
<polygon fill="#63b8ff" stroke="#63b8ff" points="1638.65,-33.63 1648.07,-28.78 1637.68,-26.7 1638.65,-33.63"/>
</a>
</g>
</g>
<!-- Node16 -->
<g id="Node000016" class="node">
<title>Node16</title>
<g id="a_Node000016"><a xlink:title=" ">
<polygon fill="#e0e0e0" stroke="#999999" points="1928.5,-24.5 1809.5,-24.5 1809.5,-5.5 1928.5,-5.5 1928.5,-24.5"/>
<text text-anchor="middle" x="1869" y="-12.5" font-family="Helvetica,sans-Serif" font-size="10.00">QtNetwork/QHttpPart</text>
</a>
</g>
</g>
<!-- Node9&#45;&gt;Node16 -->
<g id="edge17_Node000009_Node000016" class="edge">
<title>Node9&#45;&gt;Node16</title>
<g id="a_edge17_Node000009_Node000016"><a xlink:title=" ">
<path fill="none" stroke="#63b8ff" d="M1328.16,-67.41C1332.84,-66.91 1337.49,-66.44 1342,-66 1545.68,-46.32 1598.39,-58.69 1801,-30 1807.74,-29.05 1814.81,-27.83 1821.74,-26.52"/>
<polygon fill="#63b8ff" stroke="#63b8ff" points="1822.6,-29.92 1831.74,-24.54 1821.25,-23.05 1822.6,-29.92"/>
</a>
</g>
</g>
<!-- Node9&#45;&gt;Node17 -->
<g id="edge18_Node000009_Node000017" class="edge">
<title>Node9&#45;&gt;Node17</title>
<g id="a_edge18_Node000009_Node000017"><a xlink:title=" ">
<path fill="none" stroke="#63b8ff" d="M1328.14,-67.25C1332.83,-66.79 1337.49,-66.37 1342,-66 1678.17,-38.74 1764.64,-65.79 2100,-30 2109.28,-29.01 2119.1,-27.66 2128.62,-26.18"/>
<polygon fill="#63b8ff" stroke="#63b8ff" points="2129.48,-29.58 2138.8,-24.54 2128.37,-22.67 2129.48,-29.58"/>
</a>
</g>
</g>
<!-- Node9&#45;&gt;Node18 -->
<g id="edge19_Node000009_Node000018" class="edge">
<title>Node9&#45;&gt;Node18</title>
<g id="a_edge19_Node000009_Node000018"><a xlink:title=" ">
<path fill="none" stroke="#63b8ff" d="M1328.13,-69.54C1344.91,-68.27 1363.16,-66.98 1380,-66 1774.32,-43.05 1874.91,-68.75 2268,-30 2278.26,-28.99 2289.14,-27.57 2299.64,-26.02"/>
<polygon fill="#63b8ff" stroke="#63b8ff" points="2300.2,-29.47 2309.56,-24.5 2299.14,-22.56 2300.2,-29.47"/>
</a>
</g>
</g>
<!-- Node19 -->
<g id="Node000019" class="node">
<title>Node19</title>
<g id="a_Node000019"><a xlink:title=" ">
<polygon fill="#e0e0e0" stroke="#999999" points="2091,-24.5 1947,-24.5 1947,-5.5 2091,-5.5 2091,-24.5"/>
<text text-anchor="middle" x="2019" y="-12.5" font-family="Helvetica,sans-Serif" font-size="10.00">QtNetwork/QSslCertificate</text>
</a>
</g>
</g>
<!-- Node9&#45;&gt;Node19 -->
<g id="edge20_Node000009_Node000019" class="edge">
<title>Node9&#45;&gt;Node19</title>
<g id="a_edge20_Node000009_Node000019"><a xlink:title=" ">
<path fill="none" stroke="#63b8ff" d="M1328.15,-67.32C1332.83,-66.84 1337.49,-66.39 1342,-66 1606.36,-42.85 1674.4,-60.65 1938,-30 1946.75,-28.98 1956,-27.64 1964.99,-26.19"/>
<polygon fill="#63b8ff" stroke="#63b8ff" points="1965.7,-29.62 1974.99,-24.52 1964.55,-22.72 1965.7,-29.62"/>
</a>
</g>
</g>
<!-- Node20 -->
<g id="Node000020" class="node">
<title>Node20</title>
<g id="a_Node000020"><a xlink:title=" ">
<polygon fill="#e0e0e0" stroke="#999999" points="883.5,-24.5 724.5,-24.5 724.5,-5.5 883.5,-5.5 883.5,-24.5"/>
<text text-anchor="middle" x="804" y="-12.5" font-family="Helvetica,sans-Serif" font-size="10.00">QtNetwork/QSslConfiguration</text>
</a>
</g>
</g>
<!-- Node9&#45;&gt;Node20 -->
<g id="edge21_Node000009_Node000020" class="edge">
<title>Node9&#45;&gt;Node20</title>
<g id="a_edge21_Node000009_Node000020"><a xlink:title=" ">
<path fill="none" stroke="#63b8ff" d="M1207.81,-67.51C1109.54,-56.08 922.48,-34.23 892,-30 883.43,-28.81 874.4,-27.47 865.52,-26.11"/>
<polygon fill="#63b8ff" stroke="#63b8ff" points="866.02,-22.64 855.6,-24.56 864.94,-29.56 866.02,-22.64"/>
</a>
</g>
</g>
<!-- Node21 -->
<g id="Node000021" class="node">
<title>Node21</title>
<g id="a_Node000021"><a xlink:title=" ">
<polygon fill="#e0e0e0" stroke="#999999" points="1013,-24.5 901,-24.5 901,-5.5 1013,-5.5 1013,-24.5"/>
<text text-anchor="middle" x="957" y="-12.5" font-family="Helvetica,sans-Serif" font-size="10.00">QtNetwork/QSslKey</text>
</a>
</g>
</g>
<!-- Node9&#45;&gt;Node21 -->
<g id="edge22_Node000009_Node000021" class="edge">
<title>Node9&#45;&gt;Node21</title>
<g id="a_edge22_Node000009_Node000021"><a xlink:title=" ">
<path fill="none" stroke="#63b8ff" d="M1218.65,-65.97C1169.11,-57.31 1090.65,-43.32 1023,-30 1017.61,-28.94 1011.99,-27.8 1006.39,-26.64"/>
<polygon fill="#63b8ff" stroke="#63b8ff" points="1006.9,-23.17 996.4,-24.55 1005.47,-30.03 1006.9,-23.17"/>
</a>
</g>
</g>
<!-- Node22&#45;&gt;Node6 -->
<g id="edge31_Node000022_Node000006" class="edge">
<title>Node22&#45;&gt;Node6</title>
<g id="a_edge31_Node000022_Node000006"><a xlink:title=" ">
<path fill="none" stroke="#63b8ff" d="M503.9,-65.99C535.96,-55.86 589.68,-38.87 625.48,-27.55"/>
<polygon fill="#63b8ff" stroke="#63b8ff" points="626.59,-30.87 635.07,-24.52 624.48,-24.19 626.59,-30.87"/>
</a>
</g>
</g>
<!-- Node22&#45;&gt;Node7 -->
<g id="edge33_Node000022_Node000007" class="edge">
<title>Node22&#45;&gt;Node7</title>
<g id="a_edge33_Node000022_Node000007"><a xlink:title=" ">
<path fill="none" stroke="#63b8ff" d="M489.54,-65.87C503.1,-56.54 524.94,-41.51 541.1,-30.38"/>
<polygon fill="#63b8ff" stroke="#63b8ff" points="543.15,-33.22 549.41,-24.67 539.18,-27.45 543.15,-33.22"/>
</a>
</g>
</g>
<!-- Node23 -->
<g id="Node000023" class="node">
<title>Node23</title>
<g id="a_Node000023"><a xlink:title=" ">
<polygon fill="#e0e0e0" stroke="#999999" points="110,-24.5 0,-24.5 0,-5.5 110,-5.5 110,-24.5"/>
<text text-anchor="middle" x="55" y="-12.5" font-family="Helvetica,sans-Serif" font-size="10.00">QtCore/QByteArray</text>
</a>
</g>
</g>
<!-- Node22&#45;&gt;Node23 -->
<g id="edge29_Node000022_Node000023" class="edge">
<title>Node22&#45;&gt;Node23</title>
<g id="a_edge29_Node000022_Node000023"><a xlink:title=" ">
<path fill="none" stroke="#63b8ff" d="M428.73,-69.92C359.77,-63.05 229.19,-48.86 119,-30 113.18,-29 107.09,-27.84 101.08,-26.61"/>
<polygon fill="#63b8ff" stroke="#63b8ff" points="101.61,-23.14 91.1,-24.5 100.16,-29.99 101.61,-23.14"/>
</a>
</g>
</g>
<!-- Node24 -->
<g id="Node000024" class="node">
<title>Node24</title>
<g id="a_Node000024"><a xlink:title=" ">
<polygon fill="#e0e0e0" stroke="#999999" points="282,-24.5 128,-24.5 128,-5.5 282,-5.5 282,-24.5"/>
<text text-anchor="middle" x="205" y="-12.5" font-family="Helvetica,sans-Serif" font-size="10.00">QtCore/QCryptographicHash</text>
</a>
</g>
</g>
<!-- Node22&#45;&gt;Node24 -->
<g id="edge30_Node000022_Node000024" class="edge">
<title>Node22&#45;&gt;Node24</title>
<g id="a_edge30_Node000022_Node000024"><a xlink:title=" ">
<path fill="none" stroke="#63b8ff" d="M437.45,-65.99C389.1,-55.6 307.25,-37.99 254.7,-26.69"/>
<polygon fill="#63b8ff" stroke="#63b8ff" points="255.11,-23.2 244.6,-24.52 253.64,-30.04 255.11,-23.2"/>
</a>
</g>
</g>
<!-- Node25 -->
<g id="Node000025" class="node">
<title>Node25</title>
<g id="a_Node000025"><a xlink:title=" ">
<polygon fill="#e0e0e0" stroke="#999999" points="430,-24.5 300,-24.5 300,-5.5 430,-5.5 430,-24.5"/>
<text text-anchor="middle" x="365" y="-12.5" font-family="Helvetica,sans-Serif" font-size="10.00">QtCore/QTemporaryFile</text>
</a>
</g>
</g>
<!-- Node22&#45;&gt;Node25 -->
<g id="edge32_Node000022_Node000025" class="edge">
<title>Node22&#45;&gt;Node25</title>
<g id="a_edge32_Node000022_Node000025"><a xlink:title=" ">
<path fill="none" stroke="#63b8ff" d="M460.47,-65.87C442.03,-56.23 411.96,-40.53 390.49,-29.31"/>
<polygon fill="#63b8ff" stroke="#63b8ff" points="392.08,-26.19 381.59,-24.67 388.84,-32.4 392.08,-26.19"/>
</a>
</g>
</g>
<!-- Node26 -->
<g id="Node000026" class="node">
<title>Node26</title>
<g id="a_Node000026"><a xlink:title=" ">
<polygon fill="#e0e0e0" stroke="#999999" points="506,-24.5 448,-24.5 448,-5.5 506,-5.5 506,-24.5"/>
<text text-anchor="middle" x="477" y="-12.5" font-family="Helvetica,sans-Serif" font-size="10.00">memory</text>
</a>
</g>
</g>
<!-- Node22&#45;&gt;Node26 -->
<g id="edge34_Node000022_Node000026" class="edge">
<title>Node22&#45;&gt;Node26</title>
<g id="a_edge34_Node000022_Node000026"><a xlink:title=" ">
<path fill="none" stroke="#63b8ff" d="M477,-65.87C477,-57.75 477,-45.31 477,-34.89"/>
<polygon fill="#63b8ff" stroke="#63b8ff" points="480.5,-34.67 477,-24.67 473.5,-34.67 480.5,-34.67"/>
</a>
</g>
</g>
<!-- Node27&#45;&gt;Node4 -->
<g id="edge37_Node000027_Node000004" class="edge">
<title>Node27&#45;&gt;Node4</title>
<g id="a_edge37_Node000027_Node000004"><a xlink:title=" ">
<path fill="none" stroke="#63b8ff" d="M1459.91,-121.85C1381.14,-112.45 1247.37,-96.48 1161.4,-86.22"/>
<polygon fill="#63b8ff" stroke="#63b8ff" points="1161.77,-82.74 1151.42,-85.03 1160.94,-89.69 1161.77,-82.74"/>
</a>
</g>
</g>
<!-- Node27&#45;&gt;Node5 -->
<g id="edge38_Node000027_Node000005" class="edge">
<title>Node27&#45;&gt;Node5</title>
<g id="a_edge38_Node000027_Node000005"><a xlink:title=" ">
<path fill="none" stroke="#63b8ff" d="M1459.73,-125.41C1362.67,-118.94 1172.66,-105.08 1000.14,-84.93"/>
<polygon fill="#63b8ff" stroke="#63b8ff" points="1000.45,-81.44 990.11,-83.75 999.63,-88.39 1000.45,-81.44"/>
</a>
</g>
</g>
<!-- Node27&#45;&gt;Node6 -->
<g id="edge41_Node000027_Node000006" class="edge">
<title>Node27&#45;&gt;Node6</title>
<g id="a_edge41_Node000027_Node000006"><a xlink:title=" ">
<path fill="none" stroke="#63b8ff" d="M1459.76,-126.89C1393.22,-122.77 1286.87,-112.17 1199,-85 1180.96,-79.42 1179.19,-71.07 1161,-66 969.45,-12.55 911.02,-63.53 715,-30 710.27,-29.19 705.34,-28.16 700.48,-27.02"/>
<polygon fill="#63b8ff" stroke="#63b8ff" points="701.23,-23.6 690.68,-24.57 699.53,-30.39 701.23,-23.6"/>
</a>
</g>
</g>
<!-- Node28 -->
<g id="Node000028" class="node">
<title>Node28</title>
<g id="a_Node000028"><a xlink:title=" ">
<polygon fill="#e0e0e0" stroke="#999999" points="2078,-85 1992,-85 1992,-66 2078,-66 2078,-85"/>
<text text-anchor="middle" x="2035" y="-73" font-family="Helvetica,sans-Serif" font-size="10.00">QtCore/QHash</text>
</a>
</g>
</g>
<!-- Node27&#45;&gt;Node28 -->
<g id="edge36_Node000027_Node000028" class="edge">
<title>Node27&#45;&gt;Node28</title>
<g id="a_edge36_Node000027_Node000028"><a xlink:title=" ">
<path fill="none" stroke="#63b8ff" d="M1588.17,-122.05C1591.49,-121.69 1594.78,-121.33 1598,-121 1765.68,-103.53 1810.83,-106.74 1981.8,-85.07"/>
<polygon fill="#63b8ff" stroke="#63b8ff" points="1982.43,-88.52 1991.9,-83.78 1981.54,-81.57 1982.43,-88.52"/>
</a>
</g>
</g>
<!-- Node29 -->
<g id="Node000029" class="node">
<title>Node29</title>
<g id="a_Node000029"><a xlink:title=" ">
<polygon fill="#e0e0e0" stroke="#999999" points="1594,-85 1460,-85 1460,-66 1594,-66 1594,-85"/>
<text text-anchor="middle" x="1527" y="-73" font-family="Helvetica,sans-Serif" font-size="10.00">QtCore/QReadWriteLock</text>
</a>
</g>
</g>
<!-- Node27&#45;&gt;Node29 -->
<g id="edge39_Node000027_Node000029" class="edge">
<title>Node27&#45;&gt;Node29</title>
<g id="a_edge39_Node000027_Node000029"><a xlink:title=" ">
<path fill="none" stroke="#63b8ff" d="M1524.5,-120.75C1524.89,-113.8 1525.45,-103.85 1525.95,-95.13"/>
<polygon fill="#63b8ff" stroke="#63b8ff" points="1529.44,-95.27 1526.51,-85.09 1522.45,-94.88 1529.44,-95.27"/>
</a>
</g>
</g>
<!-- Node30 -->
<g id="Node000030" class="node">
<title>Node30</title>
<g id="a_Node000030"><a xlink:title=" ">
<polygon fill="#e0e0e0" stroke="#999999" points="1689.5,-85 1612.5,-85 1612.5,-66 1689.5,-66 1689.5,-85"/>
<text text-anchor="middle" x="1651" y="-73" font-family="Helvetica,sans-Serif" font-size="10.00">QtCore/QSet</text>
</a>
</g>
</g>
<!-- Node27&#45;&gt;Node30 -->
<g id="edge40_Node000027_Node000030" class="edge">
<title>Node27&#45;&gt;Node30</title>
<g id="a_edge40_Node000027_Node000030"><a xlink:title=" ">
<path fill="none" stroke="#63b8ff" d="M1544.4,-120.98C1565.02,-112.38 1597.11,-98.99 1620.69,-89.15"/>
<polygon fill="#63b8ff" stroke="#63b8ff" points="1622.34,-92.25 1630.22,-85.17 1619.65,-85.79 1622.34,-92.25"/>
</a>
</g>
</g>
<!-- Node31 -->
<g id="Node000031" class="node">
<title>Node31</title>
<g id="a_Node000031"><a xlink:title=" ">
<polygon fill="#e0e0e0" stroke="#999999" points="1870.5,-85 1707.5,-85 1707.5,-66 1870.5,-66 1870.5,-85"/>
<text text-anchor="middle" x="1789" y="-73" font-family="Helvetica,sans-Serif" font-size="10.00">QtCore/QSortFilterProxyModel</text>
</a>
</g>
</g>
<!-- Node27&#45;&gt;Node31 -->
<g id="edge42_Node000027_Node000031" class="edge">
<title>Node27&#45;&gt;Node31</title>
<g id="a_edge42_Node000027_Node000031"><a xlink:title=" ">
<path fill="none" stroke="#63b8ff" d="M1566.58,-120.98C1612.7,-111.76 1686.36,-97.03 1736.16,-87.07"/>
<polygon fill="#63b8ff" stroke="#63b8ff" points="1736.97,-90.48 1746.09,-85.08 1735.6,-83.61 1736.97,-90.48"/>
</a>
</g>
</g>
<!-- Node32 -->
<g id="Node000032" class="node">
<title>Node32</title>
<g id="a_Node000032"><a xlink:title=" ">
<polygon fill="#e0e0e0" stroke="#999999" points="1973.5,-85 1888.5,-85 1888.5,-66 1973.5,-66 1973.5,-85"/>
<text text-anchor="middle" x="1931" y="-73" font-family="Helvetica,sans-Serif" font-size="10.00">QtQml/qqml.h</text>
</a>
</g>
</g>
<!-- Node27&#45;&gt;Node32 -->
<g id="edge43_Node000027_Node000032" class="edge">
<title>Node27&#45;&gt;Node32</title>
<g id="a_edge43_Node000027_Node000032"><a xlink:title=" ">
<path fill="none" stroke="#63b8ff" d="M1588.1,-121.81C1670.48,-111.87 1810.12,-94.83 1878.16,-85.2"/>
<polygon fill="#63b8ff" stroke="#63b8ff" points="1879.04,-88.61 1888.44,-83.73 1878.05,-81.68 1879.04,-88.61"/>
</a>
</g>
</g>
</g>
</svg>
