<?xml version="1.0" encoding="UTF-8" standalone="no"?>
<!DOCTYPE svg PUBLIC "-//W3C//DTD SVG 1.1//EN"
 "http://www.w3.org/Graphics/SVG/1.1/DTD/svg11.dtd">
<!-- Generated by graphviz version 2.43.0 (0)
 -->
<!-- Title: src/Utilities/Compression/QGCCompression.cc Pages: 1 -->
<!--zoomable 203 -->

<svg id="main" version="1.1" xmlns="http://www.w3.org/2000/svg" xmlns:xlink="http://www.w3.org/1999/xlink" xml:space="preserve" onload="init(evt)">
<style type="text/css"><![CDATA[
.node, .edge {opacity: 0.7;}
.node.selected, .edge.selected {opacity: 1;}
.edge:hover path { stroke: red; }
.edge:hover polygon { stroke: red; fill: red; }
]]></style>

<defs>
  <circle id="rim" cx="0" cy="0" r="7"/>
  <circle id="rim2" cx="0" cy="0" r="3.5"/>
  <g id="zoomPlus">
    <use xlink:href="#rim" fill="#404040"><set attributeName="fill" to="#808080" begin="zoomplus.mouseover" end="zoomplus.mouseout"/></use>
    <path d="M-4,0h8M0,-4v8" fill="none" stroke="white" stroke-width="1.5" pointer-events="none"/>
  </g>
  <g id="zoomMin">
    <use xlink:href="#rim" fill="#404040"><set attributeName="fill" to="#808080" begin="zoomminus.mouseover" end="zoomminus.mouseout"/></use>
    <path d="M-4,0h8" fill="none" stroke="white" stroke-width="1.5" pointer-events="none"/>
  </g>
  <g id="arrowUp" transform="translate(30 24)">
    <use xlink:href="#rim"/>
    <path pointer-events="none" fill="none" stroke="white" stroke-width="1.5" d="M0,-3.0v7 M-2.5,-0.5L0,-3.0L2.5,-0.5"/>
  </g>
  <g id="arrowRight" transform="rotate(90) translate(36 -43)">
    <use xlink:href="#rim"/>
    <path pointer-events="none" fill="none" stroke="white" stroke-width="1.5" d="M0,-3.0v7 M-2.5,-0.5L0,-3.0L2.5,-0.5"/>
  </g>
  <g id="arrowDown" transform="rotate(180) translate(-30 -48)">
    <use xlink:href="#rim"/>
    <path pointer-events="none" fill="none" stroke="white" stroke-width="1.5" d="M0,-3.0v7 M-2.5,-0.5L0,-3.0L2.5,-0.5"/>
  </g>
  <g id="arrowLeft" transform="rotate(270) translate(-36 17)">
    <use xlink:href="#rim"/>
    <path pointer-events="none" fill="none" stroke="white" stroke-width="1.5" d="M0,-3.0v7 M-2.5,-0.5L0,-3.0L2.5,-0.5"/>
  </g>
  <g id="resetDef">
    <use xlink:href="#rim2" fill="#404040"><set attributeName="fill" to="#808080" begin="reset.mouseover" end="reset.mouseout"/></use>
  </g>
</defs>
<script type="application/ecmascript">
var viewWidth = 2264;
var viewHeight = 203;
var sectionId = 'dynsection-0';
</script>
<script type="application/ecmascript" xlink:href="svg.min.js"/>
<svg id="graph" class="graph">
<g id="viewport">
<title>src/Utilities/Compression/QGCCompression.cc</title>
<!-- Node1 -->
<g id="Node000001" class="node">
<title>Node1</title>
<g id="a_Node000001"><a xlink:title=" ">
<polygon fill="#999999" stroke="#666666" points="898,-195 759,-195 759,-165 898,-165 898,-195"/>
<text text-anchor="start" x="767" y="-183" font-family="Helvetica,sans-Serif" font-size="10.00">src/Utilities/Compression</text>
<text text-anchor="middle" x="828.5" y="-172" font-family="Helvetica,sans-Serif" font-size="10.00">/QGCCompression.cc</text>
</a>
</g>
</g>
<!-- Node2 -->
<g id="Node000002" class="node">
<title>Node2</title>
<g id="a_Node000002"><a xlink:href="QGCCompression_8h.html" target="_top" xlink:title=" ">
<polygon fill="white" stroke="#666666" points="194,-129 83,-129 83,-110 194,-110 194,-129"/>
<text text-anchor="middle" x="138.5" y="-117" font-family="Helvetica,sans-Serif" font-size="10.00">QGCCompression.h</text>
</a>
</g>
</g>
<!-- Node1&#45;&gt;Node2 -->
<g id="edge1_Node000001_Node000002" class="edge">
<title>Node1&#45;&gt;Node2</title>
<g id="a_edge1_Node000001_Node000002"><a xlink:title=" ">
<path fill="none" stroke="#63b8ff" d="M758.91,-174.64C645.1,-167.24 411.83,-150.96 204.49,-129.16"/>
<polygon fill="#63b8ff" stroke="#63b8ff" points="204.64,-125.66 194.33,-128.09 203.9,-132.62 204.64,-125.66"/>
</a>
</g>
</g>
<!-- Node10 -->
<g id="Node000010" class="node">
<title>Node10</title>
<g id="a_Node000010"><a xlink:title=" ">
<polygon fill="#e0e0e0" stroke="#999999" points="311,-129 212,-129 212,-110 311,-110 311,-129"/>
<text text-anchor="middle" x="261.5" y="-117" font-family="Helvetica,sans-Serif" font-size="10.00">QtCore/QCollator</text>
</a>
</g>
</g>
<!-- Node1&#45;&gt;Node10 -->
<g id="edge10_Node000001_Node000010" class="edge">
<title>Node1&#45;&gt;Node10</title>
<g id="a_edge10_Node000001_Node000010"><a xlink:title=" ">
<path fill="none" stroke="#63b8ff" d="M758.82,-173.21C662.68,-164.99 483.69,-148.84 321.33,-129.18"/>
<polygon fill="#63b8ff" stroke="#63b8ff" points="321.5,-125.67 311.15,-127.94 320.66,-132.62 321.5,-125.67"/>
</a>
</g>
</g>
<!-- Node11 -->
<g id="Node000011" class="node">
<title>Node11</title>
<g id="a_Node000011"><a xlink:title=" ">
<polygon fill="#e0e0e0" stroke="#999999" points="404,-129 329,-129 329,-110 404,-110 404,-129"/>
<text text-anchor="middle" x="366.5" y="-117" font-family="Helvetica,sans-Serif" font-size="10.00">QtCore/QDir</text>
</a>
</g>
</g>
<!-- Node1&#45;&gt;Node11 -->
<g id="edge11_Node000001_Node000011" class="edge">
<title>Node1&#45;&gt;Node11</title>
<g id="a_edge11_Node000001_Node000011"><a xlink:title=" ">
<path fill="none" stroke="#63b8ff" d="M758.76,-171.98C678.08,-163.55 541.03,-148.29 414.03,-129.15"/>
<polygon fill="#63b8ff" stroke="#63b8ff" points="414.53,-125.69 404.12,-127.65 413.48,-132.61 414.53,-125.69"/>
</a>
</g>
</g>
<!-- Node12 -->
<g id="Node000012" class="node">
<title>Node12</title>
<g id="a_Node000012"><a xlink:title=" ">
<polygon fill="#e0e0e0" stroke="#999999" points="783.5,-74 705.5,-74 705.5,-55 783.5,-55 783.5,-74"/>
<text text-anchor="middle" x="744.5" y="-62" font-family="Helvetica,sans-Serif" font-size="10.00">QtCore/QFile</text>
</a>
</g>
</g>
<!-- Node1&#45;&gt;Node12 -->
<g id="edge12_Node000001_Node000012" class="edge">
<title>Node1&#45;&gt;Node12</title>
<g id="a_edge12_Node000001_Node000012"><a xlink:title=" ">
<path fill="none" stroke="#63b8ff" d="M898.03,-176.29C1012.56,-170.54 1224.47,-153.86 1184.5,-110 1155.41,-78.08 840.34,-79.42 797.5,-74 796.23,-73.84 794.94,-73.67 793.63,-73.5"/>
<polygon fill="#63b8ff" stroke="#63b8ff" points="793.93,-70 783.53,-72.06 792.94,-76.93 793.93,-70"/>
</a>
</g>
</g>
<!-- Node13 -->
<g id="Node000013" class="node">
<title>Node13</title>
<g id="a_Node000013"><a xlink:title=" ">
<polygon fill="#e0e0e0" stroke="#999999" points="632,-129 535,-129 535,-110 632,-110 632,-129"/>
<text text-anchor="middle" x="583.5" y="-117" font-family="Helvetica,sans-Serif" font-size="10.00">QtCore/QFileInfo</text>
</a>
</g>
</g>
<!-- Node1&#45;&gt;Node13 -->
<g id="edge13_Node000001_Node000013" class="edge">
<title>Node1&#45;&gt;Node13</title>
<g id="a_edge13_Node000001_Node000013"><a xlink:title=" ">
<path fill="none" stroke="#63b8ff" d="M769.82,-164.99C726.71,-154.7 668.98,-140.91 629.26,-131.43"/>
<polygon fill="#63b8ff" stroke="#63b8ff" points="629.86,-127.97 619.32,-129.05 628.24,-134.78 629.86,-127.97"/>
</a>
</g>
</g>
<!-- Node14 -->
<g id="Node000014" class="node">
<title>Node14</title>
<g id="a_Node000014"><a xlink:title=" ">
<polygon fill="#e0e0e0" stroke="#999999" points="742.5,-129 650.5,-129 650.5,-110 742.5,-110 742.5,-129"/>
<text text-anchor="middle" x="696.5" y="-117" font-family="Helvetica,sans-Serif" font-size="10.00">QtCore/QLocale</text>
</a>
</g>
</g>
<!-- Node1&#45;&gt;Node14 -->
<g id="edge14_Node000001_Node000014" class="edge">
<title>Node1&#45;&gt;Node14</title>
<g id="a_edge14_Node000001_Node000014"><a xlink:title=" ">
<path fill="none" stroke="#63b8ff" d="M796.88,-164.99C775.15,-155.36 746.53,-142.67 725.41,-133.31"/>
<polygon fill="#63b8ff" stroke="#63b8ff" points="726.55,-129.99 715.99,-129.14 723.72,-136.39 726.55,-129.99"/>
</a>
</g>
</g>
<!-- Node15 -->
<g id="Node000015" class="node">
<title>Node15</title>
<g id="a_Node000015"><a xlink:title=" ">
<polygon fill="#e0e0e0" stroke="#999999" points="896,-129 761,-129 761,-110 896,-110 896,-129"/>
<text text-anchor="middle" x="828.5" y="-117" font-family="Helvetica,sans-Serif" font-size="10.00">QtCore/QMimeDatabase</text>
</a>
</g>
</g>
<!-- Node1&#45;&gt;Node15 -->
<g id="edge15_Node000001_Node000015" class="edge">
<title>Node1&#45;&gt;Node15</title>
<g id="a_edge15_Node000001_Node000015"><a xlink:title=" ">
<path fill="none" stroke="#63b8ff" d="M828.5,-164.84C828.5,-157.21 828.5,-147.7 828.5,-139.45"/>
<polygon fill="#63b8ff" stroke="#63b8ff" points="832,-139.27 828.5,-129.27 825,-139.27 832,-139.27"/>
</a>
</g>
</g>
<!-- Node16 -->
<g id="Node000016" class="node">
<title>Node16</title>
<g id="a_Node000016"><a xlink:title=" ">
<polygon fill="#e0e0e0" stroke="#999999" points="1025,-129 914,-129 914,-110 1025,-110 1025,-129"/>
<text text-anchor="middle" x="969.5" y="-117" font-family="Helvetica,sans-Serif" font-size="10.00">QtCore/QMimeType</text>
</a>
</g>
</g>
<!-- Node1&#45;&gt;Node16 -->
<g id="edge16_Node000001_Node000016" class="edge">
<title>Node1&#45;&gt;Node16</title>
<g id="a_edge16_Node000001_Node000016"><a xlink:title=" ">
<path fill="none" stroke="#63b8ff" d="M862.27,-164.99C885.69,-155.27 916.62,-142.44 939.23,-133.06"/>
<polygon fill="#63b8ff" stroke="#63b8ff" points="940.78,-136.2 948.68,-129.14 938.1,-129.74 940.78,-136.2"/>
</a>
</g>
</g>
<!-- Node17 -->
<g id="Node000017" class="node">
<title>Node17</title>
<g id="a_Node000017"><a xlink:title=" ">
<polygon fill="#e0e0e0" stroke="#999999" points="1107.5,-129 1043.5,-129 1043.5,-110 1107.5,-110 1107.5,-129"/>
<text text-anchor="middle" x="1075.5" y="-117" font-family="Helvetica,sans-Serif" font-size="10.00">algorithm</text>
</a>
</g>
</g>
<!-- Node1&#45;&gt;Node17 -->
<g id="edge17_Node000001_Node000017" class="edge">
<title>Node1&#45;&gt;Node17</title>
<g id="a_edge17_Node000001_Node000017"><a xlink:title=" ">
<path fill="none" stroke="#63b8ff" d="M887.66,-164.99C932.56,-154.35 993.21,-139.99 1033.29,-130.5"/>
<polygon fill="#63b8ff" stroke="#63b8ff" points="1034.35,-133.84 1043.27,-128.13 1032.73,-127.03 1034.35,-133.84"/>
</a>
</g>
</g>
<!-- Node18 -->
<g id="Node000018" class="node">
<title>Node18</title>
<g id="a_Node000018"><a xlink:title=" ">
<polygon fill="#e0e0e0" stroke="#999999" points="1175.5,-129 1125.5,-129 1125.5,-110 1175.5,-110 1175.5,-129"/>
<text text-anchor="middle" x="1150.5" y="-117" font-family="Helvetica,sans-Serif" font-size="10.00">cstring</text>
</a>
</g>
</g>
<!-- Node1&#45;&gt;Node18 -->
<g id="edge18_Node000001_Node000018" class="edge">
<title>Node1&#45;&gt;Node18</title>
<g id="a_edge18_Node000001_Node000018"><a xlink:title=" ">
<path fill="none" stroke="#63b8ff" d="M898.02,-168.39C954.12,-159.49 1035.29,-145.87 1115.07,-129.18"/>
<polygon fill="#63b8ff" stroke="#63b8ff" points="1116.24,-132.51 1125.3,-127.02 1114.79,-125.66 1116.24,-132.51"/>
</a>
</g>
</g>
<!-- Node19 -->
<g id="Node000019" class="node">
<title>Node19</title>
<g id="a_Node000019"><a xlink:href="QGCFileHelper_8h.html" target="_top" xlink:title=" ">
<polygon fill="white" stroke="#666666" points="1327.5,-129 1231.5,-129 1231.5,-110 1327.5,-110 1327.5,-129"/>
<text text-anchor="middle" x="1279.5" y="-117" font-family="Helvetica,sans-Serif" font-size="10.00">QGCFileHelper.h</text>
</a>
</g>
</g>
<!-- Node1&#45;&gt;Node19 -->
<g id="edge19_Node000001_Node000019" class="edge">
<title>Node1&#45;&gt;Node19</title>
<g id="a_edge19_Node000001_Node000019"><a xlink:title=" ">
<path fill="none" stroke="#63b8ff" d="M898.09,-170.23C975.94,-160.39 1105.79,-143.84 1217.5,-129 1218.77,-128.83 1220.06,-128.66 1221.36,-128.49"/>
<polygon fill="#63b8ff" stroke="#63b8ff" points="1222,-131.93 1231.44,-127.13 1221.06,-124.99 1222,-131.93"/>
</a>
</g>
</g>
<!-- Node24 -->
<g id="Node000024" class="node">
<title>Node24</title>
<g id="a_Node000024"><a xlink:href="QGCLoggingCategory_8h.html" target="_top" xlink:title=" ">
<polygon fill="white" stroke="#666666" points="1742.5,-129 1614.5,-129 1614.5,-110 1742.5,-110 1742.5,-129"/>
<text text-anchor="middle" x="1678.5" y="-117" font-family="Helvetica,sans-Serif" font-size="10.00">QGCLoggingCategory.h</text>
</a>
</g>
</g>
<!-- Node1&#45;&gt;Node24 -->
<g id="edge26_Node000001_Node000024" class="edge">
<title>Node1&#45;&gt;Node24</title>
<g id="a_edge26_Node000001_Node000024"><a xlink:title=" ">
<path fill="none" stroke="#63b8ff" d="M898.06,-174.21C1056.16,-163.33 1441.36,-136.82 1604.04,-125.62"/>
<polygon fill="#63b8ff" stroke="#63b8ff" points="1604.69,-129.09 1614.43,-124.91 1604.21,-122.1 1604.69,-129.09"/>
</a>
</g>
</g>
<!-- Node32 -->
<g id="Node000032" class="node">
<title>Node32</title>
<g id="a_Node000032"><a xlink:href="QGClibarchive_8h.html" target="_top" xlink:title="Private implementation details for QGCCompression.">
<polygon fill="white" stroke="#666666" points="517,-129 422,-129 422,-110 517,-110 517,-129"/>
<text text-anchor="middle" x="469.5" y="-117" font-family="Helvetica,sans-Serif" font-size="10.00">QGClibarchive.h</text>
</a>
</g>
</g>
<!-- Node1&#45;&gt;Node32 -->
<g id="edge35_Node000001_Node000032" class="edge">
<title>Node1&#45;&gt;Node32</title>
<g id="a_edge35_Node000001_Node000032"><a xlink:title=" ">
<path fill="none" stroke="#63b8ff" d="M758.86,-167.65C691.45,-156.67 590.45,-140.21 527.34,-129.93"/>
<polygon fill="#63b8ff" stroke="#63b8ff" points="527.6,-126.42 517.17,-128.27 526.48,-133.33 527.6,-126.42"/>
</a>
</g>
</g>
<!-- Node3 -->
<g id="Node000003" class="node">
<title>Node3</title>
<g id="a_Node000003"><a xlink:href="QGCCompressionTypes_8h.html" target="_top" xlink:title="Shared type definitions for compression/archive operations.">
<polygon fill="white" stroke="#666666" points="154,-74 15,-74 15,-55 154,-55 154,-74"/>
<text text-anchor="middle" x="84.5" y="-62" font-family="Helvetica,sans-Serif" font-size="10.00">QGCCompressionTypes.h</text>
</a>
</g>
</g>
<!-- Node2&#45;&gt;Node3 -->
<g id="edge2_Node000002_Node000003" class="edge">
<title>Node2&#45;&gt;Node3</title>
<g id="a_edge2_Node000002_Node000003"><a xlink:title=" ">
<path fill="none" stroke="#63b8ff" d="M129.58,-109.75C121.72,-102.03 110.07,-90.6 100.58,-81.28"/>
<polygon fill="#63b8ff" stroke="#63b8ff" points="102.84,-78.6 93.25,-74.09 97.94,-83.59 102.84,-78.6"/>
</a>
</g>
</g>
<!-- Node5 -->
<g id="Node000005" class="node">
<title>Node5</title>
<g id="a_Node000005"><a xlink:title=" ">
<polygon fill="#e0e0e0" stroke="#999999" points="514,-19 425,-19 425,0 514,0 514,-19"/>
<text text-anchor="middle" x="469.5" y="-7" font-family="Helvetica,sans-Serif" font-size="10.00">QtCore/QString</text>
</a>
</g>
</g>
<!-- Node2&#45;&gt;Node5 -->
<g id="edge8_Node000002_Node000005" class="edge">
<title>Node2&#45;&gt;Node5</title>
<g id="a_edge8_Node000002_Node000005"><a xlink:title=" ">
<path fill="none" stroke="#63b8ff" d="M144.3,-109.83C154.21,-95.77 175.84,-68.26 201.5,-55 269.15,-20.04 358.07,-11.48 414.52,-9.92"/>
<polygon fill="#63b8ff" stroke="#63b8ff" points="414.74,-13.42 424.67,-9.71 414.6,-6.42 414.74,-13.42"/>
</a>
</g>
</g>
<!-- Node7 -->
<g id="Node000007" class="node">
<title>Node7</title>
<g id="a_Node000007"><a xlink:title=" ">
<polygon fill="#e0e0e0" stroke="#999999" points="607.5,-74 497.5,-74 497.5,-55 607.5,-55 607.5,-74"/>
<text text-anchor="middle" x="552.5" y="-62" font-family="Helvetica,sans-Serif" font-size="10.00">QtCore/QByteArray</text>
</a>
</g>
</g>
<!-- Node2&#45;&gt;Node7 -->
<g id="edge6_Node000002_Node000007" class="edge">
<title>Node2&#45;&gt;Node7</title>
<g id="a_edge6_Node000002_Node000007"><a xlink:title=" ">
<path fill="none" stroke="#63b8ff" d="M194,-111.11C196.87,-110.73 199.72,-110.36 202.5,-110 301.79,-97.09 416.98,-82.53 487.28,-73.68"/>
<polygon fill="#63b8ff" stroke="#63b8ff" points="487.84,-77.14 497.32,-72.42 486.97,-70.19 487.84,-77.14"/>
</a>
</g>
</g>
<!-- Node8 -->
<g id="Node000008" class="node">
<title>Node8</title>
<g id="a_Node000008"><a xlink:title=" ">
<polygon fill="#e0e0e0" stroke="#999999" points="441,-74 336,-74 336,-55 441,-55 441,-74"/>
<text text-anchor="middle" x="388.5" y="-62" font-family="Helvetica,sans-Serif" font-size="10.00">QtCore/QIODevice</text>
</a>
</g>
</g>
<!-- Node2&#45;&gt;Node8 -->
<g id="edge7_Node000002_Node000008" class="edge">
<title>Node2&#45;&gt;Node8</title>
<g id="a_edge7_Node000002_Node000008"><a xlink:title=" ">
<path fill="none" stroke="#63b8ff" d="M178.67,-109.98C222,-100.8 291.09,-86.15 338.06,-76.19"/>
<polygon fill="#63b8ff" stroke="#63b8ff" points="338.96,-79.58 348.02,-74.08 337.51,-72.73 338.96,-79.58"/>
</a>
</g>
</g>
<!-- Node9 -->
<g id="Node000009" class="node">
<title>Node9</title>
<g id="a_Node000009"><a xlink:title=" ">
<polygon fill="#e0e0e0" stroke="#999999" points="318,-74 211,-74 211,-55 318,-55 318,-74"/>
<text text-anchor="middle" x="264.5" y="-62" font-family="Helvetica,sans-Serif" font-size="10.00">QtCore/QStringList</text>
</a>
</g>
</g>
<!-- Node2&#45;&gt;Node9 -->
<g id="edge9_Node000002_Node000009" class="edge">
<title>Node2&#45;&gt;Node9</title>
<g id="a_edge9_Node000002_Node000009"><a xlink:title=" ">
<path fill="none" stroke="#63b8ff" d="M158.74,-109.98C179.2,-101.38 211.03,-87.99 234.43,-78.15"/>
<polygon fill="#63b8ff" stroke="#63b8ff" points="236.03,-81.27 243.89,-74.17 233.31,-74.82 236.03,-81.27"/>
</a>
</g>
</g>
<!-- Node4 -->
<g id="Node000004" class="node">
<title>Node4</title>
<g id="a_Node000004"><a xlink:title=" ">
<polygon fill="#e0e0e0" stroke="#999999" points="192,-19 83,-19 83,0 192,0 192,-19"/>
<text text-anchor="middle" x="137.5" y="-7" font-family="Helvetica,sans-Serif" font-size="10.00">QtCore/QDateTime</text>
</a>
</g>
</g>
<!-- Node3&#45;&gt;Node4 -->
<g id="edge3_Node000003_Node000004" class="edge">
<title>Node3&#45;&gt;Node4</title>
<g id="a_edge3_Node000003_Node000004"><a xlink:title=" ">
<path fill="none" stroke="#63b8ff" d="M93.25,-54.75C100.97,-47.03 112.4,-35.6 121.72,-26.28"/>
<polygon fill="#63b8ff" stroke="#63b8ff" points="124.31,-28.64 128.91,-19.09 119.36,-23.69 124.31,-28.64"/>
</a>
</g>
</g>
<!-- Node3&#45;&gt;Node5 -->
<g id="edge4_Node000003_Node000005" class="edge">
<title>Node3&#45;&gt;Node5</title>
<g id="a_edge4_Node000003_Node000005"><a xlink:title=" ">
<path fill="none" stroke="#63b8ff" d="M146.36,-54.98C220.61,-44.76 343.96,-27.78 414.85,-18.02"/>
<polygon fill="#63b8ff" stroke="#63b8ff" points="415.49,-21.47 424.92,-16.64 414.53,-14.53 415.49,-21.47"/>
</a>
</g>
</g>
<!-- Node6 -->
<g id="Node000006" class="node">
<title>Node6</title>
<g id="a_Node000006"><a xlink:title=" ">
<polygon fill="#e0e0e0" stroke="#999999" points="65,-19 0,-19 0,0 65,0 65,-19"/>
<text text-anchor="middle" x="32.5" y="-7" font-family="Helvetica,sans-Serif" font-size="10.00">functional</text>
</a>
</g>
</g>
<!-- Node3&#45;&gt;Node6 -->
<g id="edge5_Node000003_Node000006" class="edge">
<title>Node3&#45;&gt;Node6</title>
<g id="a_edge5_Node000003_Node000006"><a xlink:title=" ">
<path fill="none" stroke="#63b8ff" d="M75.91,-54.75C68.34,-47.03 57.12,-35.6 47.99,-26.28"/>
<polygon fill="#63b8ff" stroke="#63b8ff" points="50.43,-23.78 40.93,-19.09 45.43,-28.68 50.43,-23.78"/>
</a>
</g>
</g>
<!-- Node19&#45;&gt;Node5 -->
<g id="edge22_Node000019_Node000005" class="edge">
<title>Node19&#45;&gt;Node5</title>
<g id="a_edge22_Node000019_Node000005"><a xlink:title=" ">
<path fill="none" stroke="#63b8ff" d="M1231.24,-113.15C1221.4,-112.09 1211.12,-110.99 1201.5,-110 1036.71,-93.03 989.7,-119.81 830.5,-74 812.35,-68.78 810.54,-60.59 792.5,-55 701.01,-26.67 589.36,-16.35 524.17,-12.61"/>
<polygon fill="#63b8ff" stroke="#63b8ff" points="524.29,-9.11 514.11,-12.06 523.91,-16.1 524.29,-9.11"/>
</a>
</g>
</g>
<!-- Node19&#45;&gt;Node7 -->
<g id="edge20_Node000019_Node000007" class="edge">
<title>Node19&#45;&gt;Node7</title>
<g id="a_edge20_Node000019_Node000007"><a xlink:title=" ">
<path fill="none" stroke="#63b8ff" d="M1231.19,-113.93C1216.23,-112.58 1199.69,-111.16 1184.5,-110 935.61,-90.98 869.97,-98.46 617.84,-74.06"/>
<polygon fill="#63b8ff" stroke="#63b8ff" points="617.92,-70.55 607.63,-73.07 617.24,-77.52 617.92,-70.55"/>
</a>
</g>
</g>
<!-- Node20 -->
<g id="Node000020" class="node">
<title>Node20</title>
<g id="a_Node000020"><a xlink:title=" ">
<polygon fill="#e0e0e0" stroke="#999999" points="1324.5,-74 1170.5,-74 1170.5,-55 1324.5,-55 1324.5,-74"/>
<text text-anchor="middle" x="1247.5" y="-62" font-family="Helvetica,sans-Serif" font-size="10.00">QtCore/QCryptographicHash</text>
</a>
</g>
</g>
<!-- Node19&#45;&gt;Node20 -->
<g id="edge21_Node000019_Node000020" class="edge">
<title>Node19&#45;&gt;Node20</title>
<g id="a_edge21_Node000019_Node000020"><a xlink:title=" ">
<path fill="none" stroke="#63b8ff" d="M1274.22,-109.75C1269.79,-102.42 1263.34,-91.73 1257.88,-82.7"/>
<polygon fill="#63b8ff" stroke="#63b8ff" points="1260.85,-80.84 1252.69,-74.09 1254.86,-84.46 1260.85,-80.84"/>
</a>
</g>
</g>
<!-- Node21 -->
<g id="Node000021" class="node">
<title>Node21</title>
<g id="a_Node000021"><a xlink:title=" ">
<polygon fill="#e0e0e0" stroke="#999999" points="1472.5,-74 1342.5,-74 1342.5,-55 1472.5,-55 1472.5,-74"/>
<text text-anchor="middle" x="1407.5" y="-62" font-family="Helvetica,sans-Serif" font-size="10.00">QtCore/QTemporaryFile</text>
</a>
</g>
</g>
<!-- Node19&#45;&gt;Node21 -->
<g id="edge23_Node000019_Node000021" class="edge">
<title>Node19&#45;&gt;Node21</title>
<g id="a_edge23_Node000019_Node000021"><a xlink:title=" ">
<path fill="none" stroke="#63b8ff" d="M1300.07,-109.98C1320.93,-101.34 1353.47,-87.87 1377.27,-78.02"/>
<polygon fill="#63b8ff" stroke="#63b8ff" points="1378.66,-81.23 1386.56,-74.17 1375.98,-74.76 1378.66,-81.23"/>
</a>
</g>
</g>
<!-- Node22 -->
<g id="Node000022" class="node">
<title>Node22</title>
<g id="a_Node000022"><a xlink:title=" ">
<polygon fill="#e0e0e0" stroke="#999999" points="915,-74 840,-74 840,-55 915,-55 915,-74"/>
<text text-anchor="middle" x="877.5" y="-62" font-family="Helvetica,sans-Serif" font-size="10.00">QtCore/QUrl</text>
</a>
</g>
</g>
<!-- Node19&#45;&gt;Node22 -->
<g id="edge24_Node000019_Node000022" class="edge">
<title>Node19&#45;&gt;Node22</title>
<g id="a_edge24_Node000019_Node000022"><a xlink:title=" ">
<path fill="none" stroke="#63b8ff" d="M1231.45,-111.84C1226.73,-111.21 1222.03,-110.59 1217.5,-110 1090.14,-93.47 1055.3,-93.94 925.08,-74.17"/>
<polygon fill="#63b8ff" stroke="#63b8ff" points="925.54,-70.7 915.12,-72.65 924.48,-77.62 925.54,-70.7"/>
</a>
</g>
</g>
<!-- Node23 -->
<g id="Node000023" class="node">
<title>Node23</title>
<g id="a_Node000023"><a xlink:title=" ">
<polygon fill="#e0e0e0" stroke="#999999" points="990.5,-74 932.5,-74 932.5,-55 990.5,-55 990.5,-74"/>
<text text-anchor="middle" x="961.5" y="-62" font-family="Helvetica,sans-Serif" font-size="10.00">memory</text>
</a>
</g>
</g>
<!-- Node19&#45;&gt;Node23 -->
<g id="edge25_Node000019_Node000023" class="edge">
<title>Node19&#45;&gt;Node23</title>
<g id="a_edge25_Node000019_Node000023"><a xlink:title=" ">
<path fill="none" stroke="#63b8ff" d="M1231.28,-111.77C1177.43,-104.05 1087.47,-90.53 1000.54,-74.1"/>
<polygon fill="#63b8ff" stroke="#63b8ff" points="1000.99,-70.62 990.51,-72.18 999.68,-77.49 1000.99,-70.62"/>
</a>
</g>
</g>
<!-- Node24&#45;&gt;Node5 -->
<g id="edge32_Node000024_Node000005" class="edge">
<title>Node24&#45;&gt;Node5</title>
<g id="a_edge32_Node000024_Node000005"><a xlink:title=" ">
<path fill="none" stroke="#63b8ff" d="M1640.25,-109.97C1607.63,-102.18 1559.75,-89.53 1519.5,-74 1501.88,-67.2 1499.78,-59.74 1481.5,-55 1388.84,-30.96 721.76,-15.62 524.38,-11.57"/>
<polygon fill="#63b8ff" stroke="#63b8ff" points="524.31,-8.07 514.24,-11.37 524.16,-15.07 524.31,-8.07"/>
</a>
</g>
</g>
<!-- Node25 -->
<g id="Node000025" class="node">
<title>Node25</title>
<g id="a_Node000025"><a xlink:title=" ">
<polygon fill="#e0e0e0" stroke="#999999" points="1614.5,-74 1528.5,-74 1528.5,-55 1614.5,-55 1614.5,-74"/>
<text text-anchor="middle" x="1571.5" y="-62" font-family="Helvetica,sans-Serif" font-size="10.00">QtCore/QHash</text>
</a>
</g>
</g>
<!-- Node24&#45;&gt;Node25 -->
<g id="edge27_Node000024_Node000025" class="edge">
<title>Node24&#45;&gt;Node25</title>
<g id="a_edge27_Node000024_Node000025"><a xlink:title=" ">
<path fill="none" stroke="#63b8ff" d="M1661.31,-109.98C1644.25,-101.54 1617.87,-88.47 1598.1,-78.68"/>
<polygon fill="#63b8ff" stroke="#63b8ff" points="1599.52,-75.47 1589,-74.17 1596.41,-81.75 1599.52,-75.47"/>
</a>
</g>
</g>
<!-- Node26 -->
<g id="Node000026" class="node">
<title>Node26</title>
<g id="a_Node000026"><a xlink:title=" ">
<polygon fill="#e0e0e0" stroke="#999999" points="1152,-74 1009,-74 1009,-55 1152,-55 1152,-74"/>
<text text-anchor="middle" x="1080.5" y="-62" font-family="Helvetica,sans-Serif" font-size="10.00">QtCore/QLoggingCategory</text>
</a>
</g>
</g>
<!-- Node24&#45;&gt;Node26 -->
<g id="edge28_Node000024_Node000026" class="edge">
<title>Node24&#45;&gt;Node26</title>
<g id="a_edge28_Node000024_Node000026"><a xlink:title=" ">
<path fill="none" stroke="#63b8ff" d="M1614.39,-113.37C1518.55,-105.61 1331.96,-90.18 1162.17,-74.05"/>
<polygon fill="#63b8ff" stroke="#63b8ff" points="1162.33,-70.55 1152.05,-73.08 1161.67,-77.51 1162.33,-70.55"/>
</a>
</g>
</g>
<!-- Node27 -->
<g id="Node000027" class="node">
<title>Node27</title>
<g id="a_Node000027"><a xlink:title=" ">
<polygon fill="#e0e0e0" stroke="#999999" points="1724.5,-74 1632.5,-74 1632.5,-55 1724.5,-55 1724.5,-74"/>
<text text-anchor="middle" x="1678.5" y="-62" font-family="Helvetica,sans-Serif" font-size="10.00">QtCore/QObject</text>
</a>
</g>
</g>
<!-- Node24&#45;&gt;Node27 -->
<g id="edge29_Node000024_Node000027" class="edge">
<title>Node24&#45;&gt;Node27</title>
<g id="a_edge29_Node000024_Node000027"><a xlink:title=" ">
<path fill="none" stroke="#63b8ff" d="M1678.5,-109.75C1678.5,-102.8 1678.5,-92.85 1678.5,-84.13"/>
<polygon fill="#63b8ff" stroke="#63b8ff" points="1682,-84.09 1678.5,-74.09 1675,-84.09 1682,-84.09"/>
</a>
</g>
</g>
<!-- Node28 -->
<g id="Node000028" class="node">
<title>Node28</title>
<g id="a_Node000028"><a xlink:title=" ">
<polygon fill="#e0e0e0" stroke="#999999" points="1876.5,-74 1742.5,-74 1742.5,-55 1876.5,-55 1876.5,-74"/>
<text text-anchor="middle" x="1809.5" y="-62" font-family="Helvetica,sans-Serif" font-size="10.00">QtCore/QReadWriteLock</text>
</a>
</g>
</g>
<!-- Node24&#45;&gt;Node28 -->
<g id="edge30_Node000024_Node000028" class="edge">
<title>Node24&#45;&gt;Node28</title>
<g id="a_edge30_Node000024_Node000028"><a xlink:title=" ">
<path fill="none" stroke="#63b8ff" d="M1699.55,-109.98C1720.91,-101.34 1754.2,-87.87 1778.56,-78.02"/>
<polygon fill="#63b8ff" stroke="#63b8ff" points="1780.11,-81.17 1788.07,-74.17 1777.49,-74.68 1780.11,-81.17"/>
</a>
</g>
</g>
<!-- Node29 -->
<g id="Node000029" class="node">
<title>Node29</title>
<g id="a_Node000029"><a xlink:title=" ">
<polygon fill="#e0e0e0" stroke="#999999" points="1972,-74 1895,-74 1895,-55 1972,-55 1972,-74"/>
<text text-anchor="middle" x="1933.5" y="-62" font-family="Helvetica,sans-Serif" font-size="10.00">QtCore/QSet</text>
</a>
</g>
</g>
<!-- Node24&#45;&gt;Node29 -->
<g id="edge31_Node000024_Node000029" class="edge">
<title>Node24&#45;&gt;Node29</title>
<g id="a_edge31_Node000024_Node000029"><a xlink:title=" ">
<path fill="none" stroke="#63b8ff" d="M1719.47,-109.98C1764.55,-100.61 1836.96,-85.56 1884.89,-75.6"/>
<polygon fill="#63b8ff" stroke="#63b8ff" points="1885.64,-79.02 1894.72,-73.56 1884.22,-72.17 1885.64,-79.02"/>
</a>
</g>
</g>
<!-- Node30 -->
<g id="Node000030" class="node">
<title>Node30</title>
<g id="a_Node000030"><a xlink:title=" ">
<polygon fill="#e0e0e0" stroke="#999999" points="2153,-74 1990,-74 1990,-55 2153,-55 2153,-74"/>
<text text-anchor="middle" x="2071.5" y="-62" font-family="Helvetica,sans-Serif" font-size="10.00">QtCore/QSortFilterProxyModel</text>
</a>
</g>
</g>
<!-- Node24&#45;&gt;Node30 -->
<g id="edge33_Node000024_Node000030" class="edge">
<title>Node24&#45;&gt;Node30</title>
<g id="a_edge33_Node000024_Node000030"><a xlink:title=" ">
<path fill="none" stroke="#63b8ff" d="M1741.64,-109.98C1811.58,-100.55 1924.2,-85.36 1998.04,-75.41"/>
<polygon fill="#63b8ff" stroke="#63b8ff" points="1998.75,-78.84 2008.19,-74.04 1997.81,-71.91 1998.75,-78.84"/>
</a>
</g>
</g>
<!-- Node31 -->
<g id="Node000031" class="node">
<title>Node31</title>
<g id="a_Node000031"><a xlink:title=" ">
<polygon fill="#e0e0e0" stroke="#999999" points="2256,-74 2171,-74 2171,-55 2256,-55 2256,-74"/>
<text text-anchor="middle" x="2213.5" y="-62" font-family="Helvetica,sans-Serif" font-size="10.00">QtQml/qqml.h</text>
</a>
</g>
</g>
<!-- Node24&#45;&gt;Node31 -->
<g id="edge34_Node000024_Node000031" class="edge">
<title>Node24&#45;&gt;Node31</title>
<g id="a_edge34_Node000024_Node000031"><a xlink:title=" ">
<path fill="none" stroke="#63b8ff" d="M1742.86,-114.09C1833.76,-107.54 2005.14,-93.94 2160.73,-74.14"/>
<polygon fill="#63b8ff" stroke="#63b8ff" points="2161.49,-77.58 2170.96,-72.83 2160.59,-70.63 2161.49,-77.58"/>
</a>
</g>
</g>
<!-- Node32&#45;&gt;Node3 -->
<g id="edge36_Node000032_Node000003" class="edge">
<title>Node32&#45;&gt;Node3</title>
<g id="a_edge36_Node000032_Node000003"><a xlink:title=" ">
<path fill="none" stroke="#63b8ff" d="M421.92,-111.36C418.73,-110.89 415.57,-110.44 412.5,-110 325.65,-97.63 225.74,-84.19 159.23,-75.35"/>
<polygon fill="#63b8ff" stroke="#63b8ff" points="159.63,-71.88 149.26,-74.03 158.71,-78.82 159.63,-71.88"/>
</a>
</g>
</g>
<!-- Node32&#45;&gt;Node5 -->
<g id="edge41_Node000032_Node000005" class="edge">
<title>Node32&#45;&gt;Node5</title>
<g id="a_edge41_Node000032_Node000005"><a xlink:title=" ">
<path fill="none" stroke="#63b8ff" d="M469.5,-109.66C469.5,-92.17 469.5,-52.8 469.5,-29.27"/>
<polygon fill="#63b8ff" stroke="#63b8ff" points="473,-29.16 469.5,-19.16 466,-29.16 473,-29.16"/>
</a>
</g>
</g>
<!-- Node32&#45;&gt;Node7 -->
<g id="edge37_Node000032_Node000007" class="edge">
<title>Node32&#45;&gt;Node7</title>
<g id="a_edge37_Node000032_Node000007"><a xlink:title=" ">
<path fill="none" stroke="#63b8ff" d="M482.84,-109.98C495.59,-101.84 515.05,-89.41 530.17,-79.76"/>
<polygon fill="#63b8ff" stroke="#63b8ff" points="532.38,-82.5 538.92,-74.17 528.61,-76.6 532.38,-82.5"/>
</a>
</g>
</g>
<!-- Node32&#45;&gt;Node8 -->
<g id="edge39_Node000032_Node000008" class="edge">
<title>Node32&#45;&gt;Node8</title>
<g id="a_edge39_Node000032_Node000008"><a xlink:title=" ">
<path fill="none" stroke="#63b8ff" d="M456.49,-109.98C444.04,-101.84 425.04,-89.41 410.29,-79.76"/>
<polygon fill="#63b8ff" stroke="#63b8ff" points="412.04,-76.72 401.75,-74.17 408.2,-82.57 412.04,-76.72"/>
</a>
</g>
</g>
<!-- Node32&#45;&gt;Node9 -->
<g id="edge42_Node000032_Node000009" class="edge">
<title>Node32&#45;&gt;Node9</title>
<g id="a_edge42_Node000032_Node000009"><a xlink:title=" ">
<path fill="none" stroke="#63b8ff" d="M436.56,-109.98C401.55,-100.93 346.03,-86.58 307.57,-76.64"/>
<polygon fill="#63b8ff" stroke="#63b8ff" points="308.25,-73.2 297.69,-74.08 306.5,-79.97 308.25,-73.2"/>
</a>
</g>
</g>
<!-- Node32&#45;&gt;Node12 -->
<g id="edge38_Node000032_Node000012" class="edge">
<title>Node32&#45;&gt;Node12</title>
<g id="a_edge38_Node000032_Node000012"><a xlink:title=" ">
<path fill="none" stroke="#63b8ff" d="M513.68,-109.98C563.36,-100.41 643.8,-84.91 695.41,-74.96"/>
<polygon fill="#63b8ff" stroke="#63b8ff" points="696.17,-78.38 705.33,-73.05 694.84,-71.51 696.17,-78.38"/>
</a>
</g>
</g>
<!-- Node32&#45;&gt;Node26 -->
<g id="edge40_Node000032_Node000026" class="edge">
<title>Node32&#45;&gt;Node26</title>
<g id="a_edge40_Node000032_Node000026"><a xlink:title=" ">
<path fill="none" stroke="#63b8ff" d="M517.13,-111.02C519.96,-110.66 522.76,-110.31 525.5,-110 732.14,-86.5 787.37,-92.82 998.77,-74.03"/>
<polygon fill="#63b8ff" stroke="#63b8ff" points="999.31,-77.5 1008.96,-73.12 998.68,-70.53 999.31,-77.5"/>
</a>
</g>
</g>
<!-- Node33 -->
<g id="Node000033" class="node">
<title>Node33</title>
<g id="a_Node000033"><a xlink:title=" ">
<polygon fill="#e0e0e0" stroke="#999999" points="687.5,-74 625.5,-74 625.5,-55 687.5,-55 687.5,-74"/>
<text text-anchor="middle" x="656.5" y="-62" font-family="Helvetica,sans-Serif" font-size="10.00">archive.h</text>
</a>
</g>
</g>
<!-- Node32&#45;&gt;Node33 -->
<g id="edge43_Node000032_Node000033" class="edge">
<title>Node32&#45;&gt;Node33</title>
<g id="a_edge43_Node000032_Node000033"><a xlink:title=" ">
<path fill="none" stroke="#63b8ff" d="M499.54,-109.98C531.21,-101.01 581.27,-86.82 616.31,-76.89"/>
<polygon fill="#63b8ff" stroke="#63b8ff" points="617.55,-80.18 626.22,-74.08 615.64,-73.44 617.55,-80.18"/>
</a>
</g>
</g>
</g>
</svg>

<g id="navigator" transform="translate(0 0)" fill="#404254">
  <rect fill="#f2f5e9" fill-opacity="0.5" stroke="#606060" stroke-width=".5" x="0" y="0" width="60" height="60"/>
  <use id="zoomplus" xlink:href="#zoomPlus" x="17" y="9" onmousedown="handleZoom(evt,'in')"/>
  <use id="zoomminus" xlink:href="#zoomMin" x="42" y="9" onmousedown="handleZoom(evt,'out')"/>
  <use id="reset" xlink:href="#resetDef" x="30" y="36" onmousedown="handleReset()"/>
   <use id="arrowup" xlink:href="#arrowUp" x="0" y="0" onmousedown="handlePan(0,-1)"/>
  <use id="arrowright" xlink:href="#arrowRight" x="0" y="0" onmousedown="handlePan(1,0)"/>
  <use id="arrowdown" xlink:href="#arrowDown" x="0" y="0" onmousedown="handlePan(0,1)"/>
  <use id="arrowleft" xlink:href="#arrowLeft" x="0" y="0" onmousedown="handlePan(-1,0)"/>
</g>
<svg viewBox="0 0 15 15" width="100%" height="30px" preserveAspectRatio="xMaxYMin meet">
 <g id="arrow_out" transform="scale(0.3 0.3)">
  <a xlink:href="QGCCompression_8cc__incl_org.svg" target="_base">
   <rect id="button" ry="5" rx="5" y="6" x="6" height="38" width="38"
        fill="#f2f5e9" fill-opacity="0.5" stroke="#606060" stroke-width="1.0"/>
   <path id="arrow"
     d="M 11.500037,31.436501 C 11.940474,20.09759 22.043105,11.32322 32.158766,21.979434 L 37.068811,17.246167 C 37.068811,17.246167 37.088388,32 37.088388,32 L 22.160133,31.978069 C 22.160133,31.978069 26.997745,27.140456 26.997745,27.140456 C 18.528582,18.264221 13.291696,25.230495 11.500037,31.436501 z"
     style="fill:#404040;"/>
  </a>
 </g>
</svg>

<style type='text/css'>
<![CDATA[
[data-mouse-over-selected='false'] { opacity: 0.7; }
[data-mouse-over-selected='true']  { opacity: 1.0; }
]]>
</style>
<script type="application/ecmascript"><![CDATA[
document.addEventListener('DOMContentLoaded', (event) => {
  highlightEdges();
  highlightAdjacentNodes();
});
]]></script>
</svg>
