<?xml version="1.0" encoding="UTF-8" standalone="no"?>
<!DOCTYPE svg PUBLIC "-//W3C//DTD SVG 1.1//EN"
 "http://www.w3.org/Graphics/SVG/1.1/DTD/svg11.dtd">
<!-- Generated by graphviz version 2.43.0 (0)
 -->
<!-- Title: src/Utilities/StateMachine/Transitions/QGCEventTransition.h Pages: 1 -->
<svg width="272pt" height="93pt"
 viewBox="0.00 0.00 271.50 93.00" xmlns="http://www.w3.org/2000/svg" xmlns:xlink="http://www.w3.org/1999/xlink">
<g id="graph0" class="graph" transform="scale(1 1) rotate(0) translate(4 89)">
<title>src/Utilities/StateMachine/Transitions/QGCEventTransition.h</title>
<!-- Node1 -->
<g id="Node000001" class="node">
<title>Node1</title>
<g id="a_Node000001"><a xlink:title=" ">
<polygon fill="#999999" stroke="#666666" points="250.5,-85 69.5,-85 69.5,-55 250.5,-55 250.5,-85"/>
<text text-anchor="start" x="77.5" y="-73" font-family="Helvetica,sans-Serif" font-size="10.00">src/Utilities/StateMachine</text>
<text text-anchor="middle" x="160" y="-62" font-family="Helvetica,sans-Serif" font-size="10.00">/Transitions/QGCEventTransition.h</text>
</a>
</g>
</g>
<!-- Node2 -->
<g id="Node000002" class="node">
<title>Node2</title>
<g id="a_Node000002"><a xlink:title=" ">
<polygon fill="#e0e0e0" stroke="#999999" points="180,-19 0,-19 0,0 180,0 180,-19"/>
<text text-anchor="middle" x="90" y="-7" font-family="Helvetica,sans-Serif" font-size="10.00">QtStateMachine/QEventTransition</text>
</a>
</g>
</g>
<!-- Node1&#45;&gt;Node2 -->
<g id="edge1_Node000001_Node000002" class="edge">
<title>Node1&#45;&gt;Node2</title>
<g id="a_edge1_Node000001_Node000002"><a xlink:title=" ">
<path fill="none" stroke="#63b8ff" d="M143.05,-54.84C132.58,-46.09 119.14,-34.85 108.41,-25.88"/>
<polygon fill="#63b8ff" stroke="#63b8ff" points="110.41,-22.99 100.49,-19.27 105.92,-28.36 110.41,-22.99"/>
</a>
</g>
</g>
<!-- Node3 -->
<g id="Node000003" class="node">
<title>Node3</title>
<g id="a_Node000003"><a xlink:title=" ">
<polygon fill="#e0e0e0" stroke="#999999" points="263.5,-19 198.5,-19 198.5,0 263.5,0 263.5,-19"/>
<text text-anchor="middle" x="231" y="-7" font-family="Helvetica,sans-Serif" font-size="10.00">functional</text>
</a>
</g>
</g>
<!-- Node1&#45;&gt;Node3 -->
<g id="edge2_Node000001_Node000003" class="edge">
<title>Node1&#45;&gt;Node3</title>
<g id="a_edge2_Node000001_Node000003"><a xlink:title=" ">
<path fill="none" stroke="#63b8ff" d="M177.19,-54.84C187.81,-46.09 201.44,-34.85 212.33,-25.88"/>
<polygon fill="#63b8ff" stroke="#63b8ff" points="214.87,-28.33 220.36,-19.27 210.42,-22.92 214.87,-28.33"/>
</a>
</g>
</g>
</g>
</svg>
