<?xml version="1.0" encoding="UTF-8" standalone="no"?>
<!DOCTYPE svg PUBLIC "-//W3C//DTD SVG 1.1//EN"
 "http://www.w3.org/Graphics/SVG/1.1/DTD/svg11.dtd">
<!-- Generated by graphviz version 2.43.0 (0)
 -->
<!-- Title: src/Utilities/FileSystem/QGCFileDownload.cc Pages: 1 -->
<!--zoomable 335 -->

<svg id="main" version="1.1" xmlns="http://www.w3.org/2000/svg" xmlns:xlink="http://www.w3.org/1999/xlink" xml:space="preserve" onload="init(evt)">
<style type="text/css"><![CDATA[
.node, .edge {opacity: 0.7;}
.node.selected, .edge.selected {opacity: 1;}
.edge:hover path { stroke: red; }
.edge:hover polygon { stroke: red; fill: red; }
]]></style>

<defs>
  <circle id="rim" cx="0" cy="0" r="7"/>
  <circle id="rim2" cx="0" cy="0" r="3.5"/>
  <g id="zoomPlus">
    <use xlink:href="#rim" fill="#404040"><set attributeName="fill" to="#808080" begin="zoomplus.mouseover" end="zoomplus.mouseout"/></use>
    <path d="M-4,0h8M0,-4v8" fill="none" stroke="white" stroke-width="1.5" pointer-events="none"/>
  </g>
  <g id="zoomMin">
    <use xlink:href="#rim" fill="#404040"><set attributeName="fill" to="#808080" begin="zoomminus.mouseover" end="zoomminus.mouseout"/></use>
    <path d="M-4,0h8" fill="none" stroke="white" stroke-width="1.5" pointer-events="none"/>
  </g>
  <g id="arrowUp" transform="translate(30 24)">
    <use xlink:href="#rim"/>
    <path pointer-events="none" fill="none" stroke="white" stroke-width="1.5" d="M0,-3.0v7 M-2.5,-0.5L0,-3.0L2.5,-0.5"/>
  </g>
  <g id="arrowRight" transform="rotate(90) translate(36 -43)">
    <use xlink:href="#rim"/>
    <path pointer-events="none" fill="none" stroke="white" stroke-width="1.5" d="M0,-3.0v7 M-2.5,-0.5L0,-3.0L2.5,-0.5"/>
  </g>
  <g id="arrowDown" transform="rotate(180) translate(-30 -48)">
    <use xlink:href="#rim"/>
    <path pointer-events="none" fill="none" stroke="white" stroke-width="1.5" d="M0,-3.0v7 M-2.5,-0.5L0,-3.0L2.5,-0.5"/>
  </g>
  <g id="arrowLeft" transform="rotate(270) translate(-36 17)">
    <use xlink:href="#rim"/>
    <path pointer-events="none" fill="none" stroke="white" stroke-width="1.5" d="M0,-3.0v7 M-2.5,-0.5L0,-3.0L2.5,-0.5"/>
  </g>
  <g id="resetDef">
    <use xlink:href="#rim2" fill="#404040"><set attributeName="fill" to="#808080" begin="reset.mouseover" end="reset.mouseout"/></use>
  </g>
</defs>
<script type="application/ecmascript">
var viewWidth = 3199;
var viewHeight = 335;
var sectionId = 'dynsection-0';
</script>
<script type="application/ecmascript" xlink:href="svg.min.js"/>
<svg id="graph" class="graph">
<g id="viewport">
<title>src/Utilities/FileSystem/QGCFileDownload.cc</title>
<!-- Node1 -->
<g id="Node000001" class="node">
<title>Node1</title>
<g id="a_Node000001"><a xlink:title=" ">
<polygon fill="#999999" stroke="#666666" points="2490.96,-327 2361.96,-327 2361.96,-297 2490.96,-297 2490.96,-327"/>
<text text-anchor="start" x="2369.96" y="-315" font-family="Helvetica,sans-Serif" font-size="10.00">src/Utilities/FileSystem</text>
<text text-anchor="middle" x="2426.46" y="-304" font-family="Helvetica,sans-Serif" font-size="10.00">/QGCFileDownload.cc</text>
</a>
</g>
</g>
<!-- Node2 -->
<g id="Node000002" class="node">
<title>Node2</title>
<g id="a_Node000002"><a xlink:href="QGCFileDownload_8h.html" target="_top" xlink:title="Unified file download utility with decompression, verification, and QML support.">
<polygon fill="white" stroke="#666666" points="1483.96,-255.5 1370.96,-255.5 1370.96,-236.5 1483.96,-236.5 1483.96,-255.5"/>
<text text-anchor="middle" x="1427.46" y="-243.5" font-family="Helvetica,sans-Serif" font-size="10.00">QGCFileDownload.h</text>
</a>
</g>
</g>
<!-- Node1&#45;&gt;Node2 -->
<g id="edge1_Node000001_Node000002" class="edge">
<title>Node1&#45;&gt;Node2</title>
<g id="a_edge1_Node000001_Node000002"><a xlink:title=" ">
<path fill="none" stroke="#63b8ff" d="M2361.68,-306.85C2181.65,-295.32 1676.58,-262.96 1494.2,-251.28"/>
<polygon fill="#63b8ff" stroke="#63b8ff" points="1494.41,-247.78 1484.21,-250.64 1493.97,-254.77 1494.41,-247.78"/>
</a>
</g>
</g>
<!-- Node18 -->
<g id="Node000018" class="node">
<title>Node18</title>
<g id="a_Node000018"><a xlink:href="QGCCompression_8h.html" target="_top" xlink:title=" ">
<polygon fill="white" stroke="#666666" points="2148.96,-195 2037.96,-195 2037.96,-176 2148.96,-176 2148.96,-195"/>
<text text-anchor="middle" x="2093.46" y="-183" font-family="Helvetica,sans-Serif" font-size="10.00">QGCCompression.h</text>
</a>
</g>
</g>
<!-- Node1&#45;&gt;Node18 -->
<g id="edge20_Node000001_Node000018" class="edge">
<title>Node1&#45;&gt;Node18</title>
<g id="a_edge20_Node000001_Node000018"><a xlink:title=" ">
<path fill="none" stroke="#63b8ff" d="M2361.51,-302.04C2317.41,-294.53 2258.45,-281.64 2209.46,-261 2172.43,-245.4 2134.08,-218.23 2112.07,-201.36"/>
<polygon fill="#63b8ff" stroke="#63b8ff" points="2113.99,-198.42 2103.95,-195.04 2109.69,-203.94 2113.99,-198.42"/>
</a>
</g>
</g>
<!-- Node25 -->
<g id="Node000025" class="node">
<title>Node25</title>
<g id="a_Node000025"><a xlink:href="QGCCompressionJob_8h.html" target="_top" xlink:title="QObject wrapper for async compression operations using QtConcurrent/QPromise.">
<polygon fill="white" stroke="#666666" points="2344.46,-255.5 2218.46,-255.5 2218.46,-236.5 2344.46,-236.5 2344.46,-255.5"/>
<text text-anchor="middle" x="2281.46" y="-243.5" font-family="Helvetica,sans-Serif" font-size="10.00">QGCCompressionJob.h</text>
</a>
</g>
</g>
<!-- Node1&#45;&gt;Node25 -->
<g id="edge29_Node000001_Node000025" class="edge">
<title>Node1&#45;&gt;Node25</title>
<g id="a_edge29_Node000001_Node000025"><a xlink:title=" ">
<path fill="none" stroke="#63b8ff" d="M2394.64,-296.95C2369.43,-285.83 2334.53,-270.42 2310.17,-259.67"/>
<polygon fill="#63b8ff" stroke="#63b8ff" points="2311.32,-256.35 2300.75,-255.52 2308.49,-262.76 2311.32,-256.35"/>
</a>
</g>
</g>
<!-- Node30 -->
<g id="Node000030" class="node">
<title>Node30</title>
<g id="a_Node000030"><a xlink:href="QGCFileHelper_8h.html" target="_top" xlink:title=" ">
<polygon fill="white" stroke="#666666" points="1981.46,-195 1885.46,-195 1885.46,-176 1981.46,-176 1981.46,-195"/>
<text text-anchor="middle" x="1933.46" y="-183" font-family="Helvetica,sans-Serif" font-size="10.00">QGCFileHelper.h</text>
</a>
</g>
</g>
<!-- Node1&#45;&gt;Node30 -->
<g id="edge37_Node000001_Node000030" class="edge">
<title>Node1&#45;&gt;Node30</title>
<g id="a_edge37_Node000001_Node000030"><a xlink:title=" ">
<path fill="none" stroke="#63b8ff" d="M2361.69,-302.02C2305.58,-293.58 2222.49,-279.48 2151.46,-261 2083.55,-243.33 2006.34,-214.89 1964.46,-198.74"/>
<polygon fill="#63b8ff" stroke="#63b8ff" points="1965.69,-195.46 1955.1,-195.11 1963.15,-201.99 1965.69,-195.46"/>
</a>
</g>
</g>
<!-- Node33 -->
<g id="Node000033" class="node">
<title>Node33</title>
<g id="a_Node000033"><a xlink:href="QGCLoggingCategory_8h.html" target="_top" xlink:title=" ">
<polygon fill="white" stroke="#666666" points="2490.46,-255.5 2362.46,-255.5 2362.46,-236.5 2490.46,-236.5 2490.46,-255.5"/>
<text text-anchor="middle" x="2426.46" y="-243.5" font-family="Helvetica,sans-Serif" font-size="10.00">QGCLoggingCategory.h</text>
</a>
</g>
</g>
<!-- Node1&#45;&gt;Node33 -->
<g id="edge44_Node000001_Node000033" class="edge">
<title>Node1&#45;&gt;Node33</title>
<g id="a_edge44_Node000001_Node000033"><a xlink:title=" ">
<path fill="none" stroke="#63b8ff" d="M2426.46,-296.8C2426.46,-287.7 2426.46,-275.79 2426.46,-265.9"/>
<polygon fill="#63b8ff" stroke="#63b8ff" points="2429.96,-265.84 2426.46,-255.84 2422.96,-265.84 2429.96,-265.84"/>
</a>
</g>
</g>
<!-- Node40 -->
<g id="Node000040" class="node">
<title>Node40</title>
<g id="a_Node000040"><a xlink:title=" ">
<polygon fill="#e0e0e0" stroke="#999999" points="2586.46,-255.5 2508.46,-255.5 2508.46,-236.5 2586.46,-236.5 2586.46,-255.5"/>
<text text-anchor="middle" x="2547.46" y="-243.5" font-family="Helvetica,sans-Serif" font-size="10.00">QtCore/QFile</text>
</a>
</g>
</g>
<!-- Node1&#45;&gt;Node40 -->
<g id="edge56_Node000001_Node000040" class="edge">
<title>Node1&#45;&gt;Node40</title>
<g id="a_edge56_Node000001_Node000040"><a xlink:title=" ">
<path fill="none" stroke="#63b8ff" d="M2453.01,-296.95C2473.67,-286.03 2502.14,-270.97 2522.41,-260.25"/>
<polygon fill="#63b8ff" stroke="#63b8ff" points="2524.15,-263.29 2531.35,-255.52 2520.88,-257.1 2524.15,-263.29"/>
</a>
</g>
</g>
<!-- Node41 -->
<g id="Node000041" class="node">
<title>Node41</title>
<g id="a_Node000041"><a xlink:title=" ">
<polygon fill="#e0e0e0" stroke="#999999" points="2701.96,-255.5 2604.96,-255.5 2604.96,-236.5 2701.96,-236.5 2701.96,-255.5"/>
<text text-anchor="middle" x="2653.46" y="-243.5" font-family="Helvetica,sans-Serif" font-size="10.00">QtCore/QFileInfo</text>
</a>
</g>
</g>
<!-- Node1&#45;&gt;Node41 -->
<g id="edge57_Node000001_Node000041" class="edge">
<title>Node1&#45;&gt;Node41</title>
<g id="a_edge57_Node000001_Node000041"><a xlink:title=" ">
<path fill="none" stroke="#63b8ff" d="M2476.27,-296.95C2517.49,-285.34 2575.26,-269.05 2613.49,-258.27"/>
<polygon fill="#63b8ff" stroke="#63b8ff" points="2614.57,-261.6 2623.25,-255.52 2612.67,-254.86 2614.57,-261.6"/>
</a>
</g>
</g>
<!-- Node42 -->
<g id="Node000042" class="node">
<title>Node42</title>
<g id="a_Node000042"><a xlink:title=" ">
<polygon fill="#e0e0e0" stroke="#999999" points="2850.96,-255.5 2719.96,-255.5 2719.96,-236.5 2850.96,-236.5 2850.96,-255.5"/>
<text text-anchor="middle" x="2785.46" y="-243.5" font-family="Helvetica,sans-Serif" font-size="10.00">QtCore/QStandardPaths</text>
</a>
</g>
</g>
<!-- Node1&#45;&gt;Node42 -->
<g id="edge58_Node000001_Node000042" class="edge">
<title>Node1&#45;&gt;Node42</title>
<g id="a_edge58_Node000001_Node000042"><a xlink:title=" ">
<path fill="none" stroke="#63b8ff" d="M2491.02,-299.93C2548.81,-289.95 2635.84,-274.78 2711.46,-261 2717.7,-259.86 2724.24,-258.65 2730.74,-257.44"/>
<polygon fill="#63b8ff" stroke="#63b8ff" points="2731.68,-260.82 2740.87,-255.54 2730.39,-253.94 2731.68,-260.82"/>
</a>
</g>
</g>
<!-- Node43 -->
<g id="Node000043" class="node">
<title>Node43</title>
<g id="a_Node000043"><a xlink:title=" ">
<polygon fill="#e0e0e0" stroke="#999999" points="3023.96,-261 2868.96,-261 2868.96,-231 3023.96,-231 3023.96,-261"/>
<text text-anchor="start" x="2876.96" y="-249" font-family="Helvetica,sans-Serif" font-size="10.00">QtNetwork/QNetworkAccess</text>
<text text-anchor="middle" x="2946.46" y="-238" font-family="Helvetica,sans-Serif" font-size="10.00">Manager</text>
</a>
</g>
</g>
<!-- Node1&#45;&gt;Node43 -->
<g id="edge59_Node000001_Node000043" class="edge">
<title>Node1&#45;&gt;Node43</title>
<g id="a_edge59_Node000001_Node000043"><a xlink:title=" ">
<path fill="none" stroke="#63b8ff" d="M2491.28,-304.49C2574.15,-295.95 2722.29,-279.96 2858.47,-261.24"/>
<polygon fill="#63b8ff" stroke="#63b8ff" points="2859.24,-264.67 2868.67,-259.83 2858.28,-257.73 2859.24,-264.67"/>
</a>
</g>
</g>
<!-- Node3 -->
<g id="Node000003" class="node">
<title>Node3</title>
<g id="a_Node000003"><a xlink:href="QGCNetworkHelper_8h.html" target="_top" xlink:title=" ">
<polygon fill="white" stroke="#666666" points="1107.46,-195 987.46,-195 987.46,-176 1107.46,-176 1107.46,-195"/>
<text text-anchor="middle" x="1047.46" y="-183" font-family="Helvetica,sans-Serif" font-size="10.00">QGCNetworkHelper.h</text>
</a>
</g>
</g>
<!-- Node2&#45;&gt;Node3 -->
<g id="edge2_Node000002_Node000003" class="edge">
<title>Node2&#45;&gt;Node3</title>
<g id="a_edge2_Node000002_Node000003"><a xlink:title=" ">
<path fill="none" stroke="#63b8ff" d="M1372.2,-236.49C1303.39,-225.9 1186.01,-207.83 1112.81,-196.56"/>
<polygon fill="#63b8ff" stroke="#63b8ff" points="1113.2,-193.08 1102.78,-195.02 1112.13,-200 1113.2,-193.08"/>
</a>
</g>
</g>
<!-- Node8 -->
<g id="Node000008" class="node">
<title>Node8</title>
<g id="a_Node000008"><a xlink:title=" ">
<polygon fill="#e0e0e0" stroke="#999999" points="1594.96,-134.5 1519.96,-134.5 1519.96,-115.5 1594.96,-115.5 1594.96,-134.5"/>
<text text-anchor="middle" x="1557.46" y="-122.5" font-family="Helvetica,sans-Serif" font-size="10.00">QtCore/QUrl</text>
</a>
</g>
</g>
<!-- Node2&#45;&gt;Node8 -->
<g id="edge17_Node000002_Node000008" class="edge">
<title>Node2&#45;&gt;Node8</title>
<g id="a_edge17_Node000002_Node000008"><a xlink:title=" ">
<path fill="none" stroke="#63b8ff" d="M1436.81,-236.44C1458.53,-216.56 1512.68,-166.99 1540.45,-141.57"/>
<polygon fill="#63b8ff" stroke="#63b8ff" points="1542.83,-144.14 1547.84,-134.8 1538.1,-138.97 1542.83,-144.14"/>
</a>
</g>
</g>
<!-- Node13 -->
<g id="Node000013" class="node">
<title>Node13</title>
<g id="a_Node000013"><a xlink:title=" ">
<polygon fill="#e0e0e0" stroke="#999999" points="1501.96,-134.5 1352.96,-134.5 1352.96,-115.5 1501.96,-115.5 1501.96,-134.5"/>
<text text-anchor="middle" x="1427.46" y="-122.5" font-family="Helvetica,sans-Serif" font-size="10.00">QtNetwork/QNetworkReply</text>
</a>
</g>
</g>
<!-- Node2&#45;&gt;Node13 -->
<g id="edge18_Node000002_Node000013" class="edge">
<title>Node2&#45;&gt;Node13</title>
<g id="a_edge18_Node000002_Node000013"><a xlink:title=" ">
<path fill="none" stroke="#63b8ff" d="M1427.46,-236.44C1427.46,-217.41 1427.46,-171.19 1427.46,-144.97"/>
<polygon fill="#63b8ff" stroke="#63b8ff" points="1430.96,-144.8 1427.46,-134.8 1423.96,-144.8 1430.96,-144.8"/>
</a>
</g>
</g>
<!-- Node14 -->
<g id="Node000014" class="node">
<title>Node14</title>
<g id="a_Node000014"><a xlink:title=" ">
<polygon fill="#e0e0e0" stroke="#999999" points="204.96,-134.5 43.96,-134.5 43.96,-115.5 204.96,-115.5 204.96,-134.5"/>
<text text-anchor="middle" x="124.46" y="-122.5" font-family="Helvetica,sans-Serif" font-size="10.00">QtNetwork/QNetworkRequest</text>
</a>
</g>
</g>
<!-- Node2&#45;&gt;Node14 -->
<g id="edge19_Node000002_Node000014" class="edge">
<title>Node2&#45;&gt;Node14</title>
<g id="a_edge19_Node000002_Node000014"><a xlink:title=" ">
<path fill="none" stroke="#63b8ff" d="M1370.73,-241.51C1197.13,-230.51 657.87,-194.11 213.46,-140 204.12,-138.86 194.27,-137.49 184.64,-136.05"/>
<polygon fill="#63b8ff" stroke="#63b8ff" points="185.15,-132.59 174.73,-134.54 184.09,-139.51 185.15,-132.59"/>
</a>
</g>
</g>
<!-- Node16 -->
<g id="Node000016" class="node">
<title>Node16</title>
<g id="a_Node000016"><a xlink:title=" ">
<polygon fill="#e0e0e0" stroke="#999999" points="2811.96,-19 2668.96,-19 2668.96,0 2811.96,0 2811.96,-19"/>
<text text-anchor="middle" x="2740.46" y="-7" font-family="Helvetica,sans-Serif" font-size="10.00">QtCore/QLoggingCategory</text>
</a>
</g>
</g>
<!-- Node2&#45;&gt;Node16 -->
<g id="edge15_Node000002_Node000016" class="edge">
<title>Node2&#45;&gt;Node16</title>
<g id="a_edge15_Node000002_Node000016"><a xlink:title=" ">
<path fill="none" stroke="#63b8ff" d="M1370.9,-242.82C1230.4,-237.2 854.3,-220.78 541.46,-195 313.75,-176.24 -124.1,-274.5 34.46,-110 127.78,-13.19 2216.23,-9.95 2658.6,-10.35"/>
<polygon fill="#63b8ff" stroke="#63b8ff" points="2658.74,-13.85 2668.74,-10.36 2658.74,-6.85 2658.74,-13.85"/>
</a>
</g>
</g>
<!-- Node17 -->
<g id="Node000017" class="node">
<title>Node17</title>
<g id="a_Node000017"><a xlink:title=" ">
<polygon fill="#e0e0e0" stroke="#999999" points="2327.46,-195 2235.46,-195 2235.46,-176 2327.46,-176 2327.46,-195"/>
<text text-anchor="middle" x="2281.46" y="-183" font-family="Helvetica,sans-Serif" font-size="10.00">QtCore/QObject</text>
</a>
</g>
</g>
<!-- Node2&#45;&gt;Node17 -->
<g id="edge16_Node000002_Node000017" class="edge">
<title>Node2&#45;&gt;Node17</title>
<g id="a_edge16_Node000002_Node000017"><a xlink:title=" ">
<path fill="none" stroke="#63b8ff" d="M1484.28,-243.22C1613.85,-238.77 1941.27,-225.37 2225.2,-195.03"/>
<polygon fill="#63b8ff" stroke="#63b8ff" points="2225.72,-198.5 2235.28,-193.95 2224.97,-191.54 2225.72,-198.5"/>
</a>
</g>
</g>
<!-- Node4 -->
<g id="Node000004" class="node">
<title>Node4</title>
<g id="a_Node000004"><a xlink:title=" ">
<polygon fill="#e0e0e0" stroke="#999999" points="989.96,-134.5 858.96,-134.5 858.96,-115.5 989.96,-115.5 989.96,-134.5"/>
<text text-anchor="middle" x="924.46" y="-122.5" font-family="Helvetica,sans-Serif" font-size="10.00">QtCore/QJsonDocument</text>
</a>
</g>
</g>
<!-- Node3&#45;&gt;Node4 -->
<g id="edge3_Node000003_Node000004" class="edge">
<title>Node3&#45;&gt;Node4</title>
<g id="a_edge3_Node000003_Node000004"><a xlink:title=" ">
<path fill="none" stroke="#63b8ff" d="M1029.57,-175.99C1009.08,-166.25 975.27,-150.16 951.54,-138.88"/>
<polygon fill="#63b8ff" stroke="#63b8ff" points="952.9,-135.65 942.36,-134.52 949.89,-141.97 952.9,-135.65"/>
</a>
</g>
</g>
<!-- Node5 -->
<g id="Node000005" class="node">
<title>Node5</title>
<g id="a_Node000005"><a xlink:title=" ">
<polygon fill="#e0e0e0" stroke="#999999" points="1086.46,-134.5 1008.46,-134.5 1008.46,-115.5 1086.46,-115.5 1086.46,-134.5"/>
<text text-anchor="middle" x="1047.46" y="-122.5" font-family="Helvetica,sans-Serif" font-size="10.00">QtCore/QList</text>
</a>
</g>
</g>
<!-- Node3&#45;&gt;Node5 -->
<g id="edge4_Node000003_Node000005" class="edge">
<title>Node3&#45;&gt;Node5</title>
<g id="a_edge4_Node000003_Node000005"><a xlink:title=" ">
<path fill="none" stroke="#63b8ff" d="M1047.46,-175.87C1047.46,-167.75 1047.46,-155.31 1047.46,-144.89"/>
<polygon fill="#63b8ff" stroke="#63b8ff" points="1050.96,-144.67 1047.46,-134.67 1043.96,-144.67 1050.96,-144.67"/>
</a>
</g>
</g>
<!-- Node6 -->
<g id="Node000006" class="node">
<title>Node6</title>
<g id="a_Node000006"><a xlink:title=" ">
<polygon fill="#e0e0e0" stroke="#999999" points="1183.96,-134.5 1104.96,-134.5 1104.96,-115.5 1183.96,-115.5 1183.96,-134.5"/>
<text text-anchor="middle" x="1144.46" y="-122.5" font-family="Helvetica,sans-Serif" font-size="10.00">QtCore/QPair</text>
</a>
</g>
</g>
<!-- Node3&#45;&gt;Node6 -->
<g id="edge5_Node000003_Node000006" class="edge">
<title>Node3&#45;&gt;Node6</title>
<g id="a_edge5_Node000003_Node000006"><a xlink:title=" ">
<path fill="none" stroke="#63b8ff" d="M1061.77,-175.87C1077.46,-166.41 1102.86,-151.09 1121.37,-139.92"/>
<polygon fill="#63b8ff" stroke="#63b8ff" points="1123.33,-142.83 1130.09,-134.67 1119.72,-136.83 1123.33,-142.83"/>
</a>
</g>
</g>
<!-- Node7 -->
<g id="Node000007" class="node">
<title>Node7</title>
<g id="a_Node000007"><a xlink:title=" ">
<polygon fill="#e0e0e0" stroke="#999999" points="2108.96,-74 2019.96,-74 2019.96,-55 2108.96,-55 2108.96,-74"/>
<text text-anchor="middle" x="2064.46" y="-62" font-family="Helvetica,sans-Serif" font-size="10.00">QtCore/QString</text>
</a>
</g>
</g>
<!-- Node3&#45;&gt;Node7 -->
<g id="edge6_Node000003_Node000007" class="edge">
<title>Node3&#45;&gt;Node7</title>
<g id="a_edge6_Node000003_Node000007"><a xlink:title=" ">
<path fill="none" stroke="#63b8ff" d="M1107.48,-182.56C1161.59,-178.89 1242.28,-168.6 1306.46,-140 1326.11,-131.24 1324.36,-117.68 1344.46,-110 1405.93,-86.51 1851.75,-71.6 2009.41,-67.01"/>
<polygon fill="#63b8ff" stroke="#63b8ff" points="2009.91,-70.5 2019.81,-66.71 2009.71,-63.5 2009.91,-70.5"/>
</a>
</g>
</g>
<!-- Node3&#45;&gt;Node8 -->
<g id="edge7_Node000003_Node000008" class="edge">
<title>Node3&#45;&gt;Node8</title>
<g id="a_edge7_Node000003_Node000008"><a xlink:title=" ">
<path fill="none" stroke="#63b8ff" d="M1107.71,-182.56C1196.75,-178.83 1368.37,-168.34 1511.46,-140 1515.11,-139.28 1518.89,-138.38 1522.64,-137.39"/>
<polygon fill="#63b8ff" stroke="#63b8ff" points="1523.72,-140.72 1532.38,-134.62 1521.8,-133.99 1523.72,-140.72"/>
</a>
</g>
</g>
<!-- Node9 -->
<g id="Node000009" class="node">
<title>Node9</title>
<g id="a_Node000009"><a xlink:title=" ">
<polygon fill="#e0e0e0" stroke="#999999" points="1296.96,-134.5 1201.96,-134.5 1201.96,-115.5 1296.96,-115.5 1296.96,-134.5"/>
<text text-anchor="middle" x="1249.46" y="-122.5" font-family="Helvetica,sans-Serif" font-size="10.00">QtCore/QVariant</text>
</a>
</g>
</g>
<!-- Node3&#45;&gt;Node9 -->
<g id="edge8_Node000003_Node000009" class="edge">
<title>Node3&#45;&gt;Node9</title>
<g id="a_edge8_Node000003_Node000009"><a xlink:title=" ">
<path fill="none" stroke="#63b8ff" d="M1076.83,-175.99C1112.06,-165.79 1171.25,-148.65 1210.33,-137.33"/>
<polygon fill="#63b8ff" stroke="#63b8ff" points="1211.42,-140.66 1220.05,-134.52 1209.47,-133.94 1211.42,-140.66"/>
</a>
</g>
</g>
<!-- Node10 -->
<g id="Node000010" class="node">
<title>Node10</title>
<g id="a_Node000010"><a xlink:title=" ">
<polygon fill="#e0e0e0" stroke="#999999" points="365.96,-140 222.96,-140 222.96,-110 365.96,-110 365.96,-140"/>
<text text-anchor="start" x="230.96" y="-128" font-family="Helvetica,sans-Serif" font-size="10.00">QtHttpServer/QHttpServer</text>
<text text-anchor="middle" x="294.46" y="-117" font-family="Helvetica,sans-Serif" font-size="10.00">Request</text>
</a>
</g>
</g>
<!-- Node3&#45;&gt;Node10 -->
<g id="edge9_Node000003_Node000010" class="edge">
<title>Node3&#45;&gt;Node10</title>
<g id="a_edge9_Node000003_Node000010"><a xlink:title=" ">
<path fill="none" stroke="#63b8ff" d="M987.02,-182.63C870.75,-178.56 607.7,-167.11 376.34,-140.01"/>
<polygon fill="#63b8ff" stroke="#63b8ff" points="376.73,-136.54 366.39,-138.84 375.91,-143.49 376.73,-136.54"/>
</a>
</g>
</g>
<!-- Node11 -->
<g id="Node000011" class="node">
<title>Node11</title>
<g id="a_Node000011"><a xlink:title=" ">
<polygon fill="#e0e0e0" stroke="#999999" points="526.96,-140 383.96,-140 383.96,-110 526.96,-110 526.96,-140"/>
<text text-anchor="start" x="391.96" y="-128" font-family="Helvetica,sans-Serif" font-size="10.00">QtHttpServer/QHttpServer</text>
<text text-anchor="middle" x="455.46" y="-117" font-family="Helvetica,sans-Serif" font-size="10.00">Responder</text>
</a>
</g>
</g>
<!-- Node3&#45;&gt;Node11 -->
<g id="edge10_Node000003_Node000011" class="edge">
<title>Node3&#45;&gt;Node11</title>
<g id="a_edge10_Node000003_Node000011"><a xlink:title=" ">
<path fill="none" stroke="#63b8ff" d="M987.1,-180.9C893.19,-174.93 706.22,-161.59 537.05,-140"/>
<polygon fill="#63b8ff" stroke="#63b8ff" points="537.33,-136.5 526.96,-138.7 536.43,-143.44 537.33,-136.5"/>
</a>
</g>
</g>
<!-- Node12 -->
<g id="Node000012" class="node">
<title>Node12</title>
<g id="a_Node000012"><a xlink:title=" ">
<polygon fill="#e0e0e0" stroke="#999999" points="663.96,-134.5 544.96,-134.5 544.96,-115.5 663.96,-115.5 663.96,-134.5"/>
<text text-anchor="middle" x="604.46" y="-122.5" font-family="Helvetica,sans-Serif" font-size="10.00">QtNetwork/QHttpPart</text>
</a>
</g>
</g>
<!-- Node3&#45;&gt;Node12 -->
<g id="edge11_Node000003_Node000012" class="edge">
<title>Node3&#45;&gt;Node12</title>
<g id="a_edge11_Node000003_Node000012"><a xlink:title=" ">
<path fill="none" stroke="#63b8ff" d="M987.33,-178.87C913.26,-171.59 783.7,-157.71 673.46,-140 667.12,-138.98 660.48,-137.79 653.93,-136.55"/>
<polygon fill="#63b8ff" stroke="#63b8ff" points="654.25,-133.04 643.76,-134.55 652.9,-139.91 654.25,-133.04"/>
</a>
</g>
</g>
<!-- Node3&#45;&gt;Node13 -->
<g id="edge12_Node000003_Node000013" class="edge">
<title>Node3&#45;&gt;Node13</title>
<g id="a_edge12_Node000003_Node000013"><a xlink:title=" ">
<path fill="none" stroke="#63b8ff" d="M1104,-176C1162.83,-167.12 1257.63,-152.74 1339.46,-140 1347.39,-138.76 1355.72,-137.45 1363.97,-136.15"/>
<polygon fill="#63b8ff" stroke="#63b8ff" points="1364.62,-139.59 1373.95,-134.57 1363.53,-132.68 1364.62,-139.59"/>
</a>
</g>
</g>
<!-- Node3&#45;&gt;Node14 -->
<g id="edge13_Node000003_Node000014" class="edge">
<title>Node3&#45;&gt;Node14</title>
<g id="a_edge13_Node000003_Node000014"><a xlink:title=" ">
<path fill="none" stroke="#63b8ff" d="M987.37,-183.41C849.97,-180.45 502.41,-170.35 213.46,-140 203.54,-138.96 193.04,-137.57 182.87,-136.07"/>
<polygon fill="#63b8ff" stroke="#63b8ff" points="183.25,-132.58 172.84,-134.54 182.2,-139.5 183.25,-132.58"/>
</a>
</g>
</g>
<!-- Node15 -->
<g id="Node000015" class="node">
<title>Node15</title>
<g id="a_Node000015"><a xlink:title=" ">
<polygon fill="#e0e0e0" stroke="#999999" points="840.96,-134.5 681.96,-134.5 681.96,-115.5 840.96,-115.5 840.96,-134.5"/>
<text text-anchor="middle" x="761.46" y="-122.5" font-family="Helvetica,sans-Serif" font-size="10.00">QtNetwork/QSslConfiguration</text>
</a>
</g>
</g>
<!-- Node3&#45;&gt;Node15 -->
<g id="edge14_Node000003_Node000015" class="edge">
<title>Node3&#45;&gt;Node15</title>
<g id="a_edge14_Node000003_Node000015"><a xlink:title=" ">
<path fill="none" stroke="#63b8ff" d="M1005.87,-175.99C954.82,-165.55 868.26,-147.85 813.03,-136.55"/>
<polygon fill="#63b8ff" stroke="#63b8ff" points="813.59,-133.09 803.09,-134.52 812.19,-139.95 813.59,-133.09"/>
</a>
</g>
</g>
<!-- Node18&#45;&gt;Node7 -->
<g id="edge27_Node000018_Node000007" class="edge">
<title>Node18&#45;&gt;Node7</title>
<g id="a_edge27_Node000018_Node000007"><a xlink:title=" ">
<path fill="none" stroke="#63b8ff" d="M2120.03,-175.94C2136.59,-169.06 2156.57,-157.6 2166.46,-140 2172.99,-128.37 2173.76,-121.15 2166.46,-110 2155.6,-93.41 2137.06,-82.97 2118.74,-76.42"/>
<polygon fill="#63b8ff" stroke="#63b8ff" points="2119.81,-73.09 2109.22,-73.33 2117.65,-79.75 2119.81,-73.09"/>
</a>
</g>
</g>
<!-- Node19 -->
<g id="Node000019" class="node">
<title>Node19</title>
<g id="a_Node000019"><a xlink:href="QGCCompressionTypes_8h.html" target="_top" xlink:title="Shared type definitions for compression/archive operations.">
<polygon fill="white" stroke="#666666" points="2475.96,-134.5 2336.96,-134.5 2336.96,-115.5 2475.96,-115.5 2475.96,-134.5"/>
<text text-anchor="middle" x="2406.46" y="-122.5" font-family="Helvetica,sans-Serif" font-size="10.00">QGCCompressionTypes.h</text>
</a>
</g>
</g>
<!-- Node18&#45;&gt;Node19 -->
<g id="edge21_Node000018_Node000019" class="edge">
<title>Node18&#45;&gt;Node19</title>
<g id="a_edge21_Node000018_Node000019"><a xlink:title=" ">
<path fill="none" stroke="#63b8ff" d="M2138.97,-175.99C2195.07,-165.51 2290.36,-147.7 2350.77,-136.41"/>
<polygon fill="#63b8ff" stroke="#63b8ff" points="2351.7,-139.79 2360.89,-134.52 2350.42,-132.91 2351.7,-139.79"/>
</a>
</g>
</g>
<!-- Node22 -->
<g id="Node000022" class="node">
<title>Node22</title>
<g id="a_Node000022"><a xlink:title=" ">
<polygon fill="#e0e0e0" stroke="#999999" points="2157.46,-134.5 2047.46,-134.5 2047.46,-115.5 2157.46,-115.5 2157.46,-134.5"/>
<text text-anchor="middle" x="2102.46" y="-122.5" font-family="Helvetica,sans-Serif" font-size="10.00">QtCore/QByteArray</text>
</a>
</g>
</g>
<!-- Node18&#45;&gt;Node22 -->
<g id="edge25_Node000018_Node000022" class="edge">
<title>Node18&#45;&gt;Node22</title>
<g id="a_edge25_Node000018_Node000022"><a xlink:title=" ">
<path fill="none" stroke="#63b8ff" d="M2094.79,-175.87C2096.05,-167.66 2097.99,-155.04 2099.6,-144.55"/>
<polygon fill="#63b8ff" stroke="#63b8ff" points="2103.06,-145.08 2101.12,-134.67 2096.14,-144.02 2103.06,-145.08"/>
</a>
</g>
</g>
<!-- Node23 -->
<g id="Node000023" class="node">
<title>Node23</title>
<g id="a_Node000023"><a xlink:title=" ">
<polygon fill="#e0e0e0" stroke="#999999" points="2318.96,-134.5 2213.96,-134.5 2213.96,-115.5 2318.96,-115.5 2318.96,-134.5"/>
<text text-anchor="middle" x="2266.46" y="-122.5" font-family="Helvetica,sans-Serif" font-size="10.00">QtCore/QIODevice</text>
</a>
</g>
</g>
<!-- Node18&#45;&gt;Node23 -->
<g id="edge26_Node000018_Node000023" class="edge">
<title>Node18&#45;&gt;Node23</title>
<g id="a_edge26_Node000018_Node000023"><a xlink:title=" ">
<path fill="none" stroke="#63b8ff" d="M2118.61,-175.99C2148.34,-165.94 2197.97,-149.16 2231.44,-137.84"/>
<polygon fill="#63b8ff" stroke="#63b8ff" points="2232.92,-141.04 2241.27,-134.52 2230.68,-134.4 2232.92,-141.04"/>
</a>
</g>
</g>
<!-- Node24 -->
<g id="Node000024" class="node">
<title>Node24</title>
<g id="a_Node000024"><a xlink:title=" ">
<polygon fill="#e0e0e0" stroke="#999999" points="2617.96,-134.5 2510.96,-134.5 2510.96,-115.5 2617.96,-115.5 2617.96,-134.5"/>
<text text-anchor="middle" x="2564.46" y="-122.5" font-family="Helvetica,sans-Serif" font-size="10.00">QtCore/QStringList</text>
</a>
</g>
</g>
<!-- Node18&#45;&gt;Node24 -->
<g id="edge28_Node000018_Node000024" class="edge">
<title>Node18&#45;&gt;Node24</title>
<g id="a_edge28_Node000018_Node000024"><a xlink:title=" ">
<path fill="none" stroke="#63b8ff" d="M2149.12,-177.15C2152.28,-176.75 2155.41,-176.37 2158.46,-176 2303.62,-158.52 2340.73,-160.77 2485.46,-140 2493.21,-138.89 2501.37,-137.59 2509.39,-136.24"/>
<polygon fill="#63b8ff" stroke="#63b8ff" points="2510.16,-139.66 2519.42,-134.51 2508.97,-132.76 2510.16,-139.66"/>
</a>
</g>
</g>
<!-- Node19&#45;&gt;Node7 -->
<g id="edge23_Node000019_Node000007" class="edge">
<title>Node19&#45;&gt;Node7</title>
<g id="a_edge23_Node000019_Node000007"><a xlink:title=" ">
<path fill="none" stroke="#63b8ff" d="M2359.45,-115.48C2349.24,-113.65 2338.49,-111.75 2328.46,-110 2256.19,-97.42 2172.68,-83.44 2119.27,-74.56"/>
<polygon fill="#63b8ff" stroke="#63b8ff" points="2119.76,-71.1 2109.33,-72.91 2118.62,-78 2119.76,-71.1"/>
</a>
</g>
</g>
<!-- Node20 -->
<g id="Node000020" class="node">
<title>Node20</title>
<g id="a_Node000020"><a xlink:title=" ">
<polygon fill="#e0e0e0" stroke="#999999" points="2408.96,-74 2299.96,-74 2299.96,-55 2408.96,-55 2408.96,-74"/>
<text text-anchor="middle" x="2354.46" y="-62" font-family="Helvetica,sans-Serif" font-size="10.00">QtCore/QDateTime</text>
</a>
</g>
</g>
<!-- Node19&#45;&gt;Node20 -->
<g id="edge22_Node000019_Node000020" class="edge">
<title>Node19&#45;&gt;Node20</title>
<g id="a_edge22_Node000019_Node000020"><a xlink:title=" ">
<path fill="none" stroke="#63b8ff" d="M2398.79,-115.37C2390.95,-106.55 2378.6,-92.66 2368.92,-81.77"/>
<polygon fill="#63b8ff" stroke="#63b8ff" points="2371.42,-79.32 2362.16,-74.17 2366.19,-83.97 2371.42,-79.32"/>
</a>
</g>
</g>
<!-- Node21 -->
<g id="Node000021" class="node">
<title>Node21</title>
<g id="a_Node000021"><a xlink:title=" ">
<polygon fill="#e0e0e0" stroke="#999999" points="2491.96,-74 2426.96,-74 2426.96,-55 2491.96,-55 2491.96,-74"/>
<text text-anchor="middle" x="2459.46" y="-62" font-family="Helvetica,sans-Serif" font-size="10.00">functional</text>
</a>
</g>
</g>
<!-- Node19&#45;&gt;Node21 -->
<g id="edge24_Node000019_Node000021" class="edge">
<title>Node19&#45;&gt;Node21</title>
<g id="a_edge24_Node000019_Node000021"><a xlink:title=" ">
<path fill="none" stroke="#63b8ff" d="M2414.28,-115.37C2422.26,-106.55 2434.85,-92.66 2444.72,-81.77"/>
<polygon fill="#63b8ff" stroke="#63b8ff" points="2447.49,-83.93 2451.61,-74.17 2442.3,-79.23 2447.49,-83.93"/>
</a>
</g>
</g>
<!-- Node25&#45;&gt;Node16 -->
<g id="edge35_Node000025_Node000016" class="edge">
<title>Node25&#45;&gt;Node16</title>
<g id="a_edge35_Node000025_Node000016"><a xlink:title=" ">
<path fill="none" stroke="#63b8ff" d="M2323.66,-236.46C2333.43,-234.58 2343.79,-232.65 2353.46,-231 2461.07,-212.58 2502.12,-249.96 2596.46,-195 2665.77,-154.61 2713.82,-66.78 2732.18,-28.71"/>
<polygon fill="#63b8ff" stroke="#63b8ff" points="2735.48,-29.91 2736.56,-19.37 2729.15,-26.93 2735.48,-29.91"/>
</a>
</g>
</g>
<!-- Node25&#45;&gt;Node17 -->
<g id="edge36_Node000025_Node000017" class="edge">
<title>Node25&#45;&gt;Node17</title>
<g id="a_edge36_Node000025_Node000017"><a xlink:title=" ">
<path fill="none" stroke="#63b8ff" d="M2281.46,-236.37C2281.46,-228.25 2281.46,-215.81 2281.46,-205.39"/>
<polygon fill="#63b8ff" stroke="#63b8ff" points="2284.96,-205.17 2281.46,-195.17 2277.96,-205.17 2284.96,-205.17"/>
</a>
</g>
</g>
<!-- Node25&#45;&gt;Node18 -->
<g id="edge30_Node000025_Node000018" class="edge">
<title>Node25&#45;&gt;Node18</title>
<g id="a_edge30_Node000025_Node000018"><a xlink:title=" ">
<path fill="none" stroke="#63b8ff" d="M2254.12,-236.49C2221.54,-226.36 2166.95,-209.37 2130.57,-198.05"/>
<polygon fill="#63b8ff" stroke="#63b8ff" points="2131.42,-194.65 2120.83,-195.02 2129.34,-201.33 2131.42,-194.65"/>
</a>
</g>
</g>
<!-- Node26 -->
<g id="Node000026" class="node">
<title>Node26</title>
<g id="a_Node000026"><a xlink:title=" ">
<polygon fill="#e0e0e0" stroke="#999999" points="2217.46,-195 2167.46,-195 2167.46,-176 2217.46,-176 2217.46,-195"/>
<text text-anchor="middle" x="2192.46" y="-183" font-family="Helvetica,sans-Serif" font-size="10.00">atomic</text>
</a>
</g>
</g>
<!-- Node25&#45;&gt;Node26 -->
<g id="edge31_Node000025_Node000026" class="edge">
<title>Node25&#45;&gt;Node26</title>
<g id="a_edge31_Node000025_Node000026"><a xlink:title=" ">
<path fill="none" stroke="#63b8ff" d="M2268.33,-236.37C2254.13,-227.04 2231.26,-212.01 2214.34,-200.88"/>
<polygon fill="#63b8ff" stroke="#63b8ff" points="2215.92,-197.74 2205.64,-195.17 2212.08,-203.58 2215.92,-197.74"/>
</a>
</g>
</g>
<!-- Node27 -->
<g id="Node000027" class="node">
<title>Node27</title>
<g id="a_Node000027"><a xlink:title=" ">
<polygon fill="#e0e0e0" stroke="#999999" points="2029.46,-134.5 1971.46,-134.5 1971.46,-115.5 2029.46,-115.5 2029.46,-134.5"/>
<text text-anchor="middle" x="2000.46" y="-122.5" font-family="Helvetica,sans-Serif" font-size="10.00">memory</text>
</a>
</g>
</g>
<!-- Node25&#45;&gt;Node27 -->
<g id="edge32_Node000025_Node000027" class="edge">
<title>Node25&#45;&gt;Node27</title>
<g id="a_edge32_Node000025_Node000027"><a xlink:title=" ">
<path fill="none" stroke="#63b8ff" d="M2218.19,-239.23C2153.25,-232.14 2057.8,-218.12 2029.46,-195 2014.23,-182.57 2006.87,-160.74 2003.4,-144.95"/>
<polygon fill="#63b8ff" stroke="#63b8ff" points="2006.77,-143.94 2001.5,-134.75 1999.89,-145.22 2006.77,-143.94"/>
</a>
</g>
</g>
<!-- Node28 -->
<g id="Node000028" class="node">
<title>Node28</title>
<g id="a_Node000028"><a xlink:title=" ">
<polygon fill="#e0e0e0" stroke="#999999" points="2437.46,-195 2345.46,-195 2345.46,-176 2437.46,-176 2437.46,-195"/>
<text text-anchor="middle" x="2391.46" y="-183" font-family="Helvetica,sans-Serif" font-size="10.00">QtCore/QFuture</text>
</a>
</g>
</g>
<!-- Node25&#45;&gt;Node28 -->
<g id="edge33_Node000025_Node000028" class="edge">
<title>Node25&#45;&gt;Node28</title>
<g id="a_edge33_Node000025_Node000028"><a xlink:title=" ">
<path fill="none" stroke="#63b8ff" d="M2297.69,-236.37C2315.72,-226.78 2345.08,-211.17 2366.14,-199.97"/>
<polygon fill="#63b8ff" stroke="#63b8ff" points="2367.97,-202.95 2375.16,-195.17 2364.69,-196.77 2367.97,-202.95"/>
</a>
</g>
</g>
<!-- Node29 -->
<g id="Node000029" class="node">
<title>Node29</title>
<g id="a_Node000029"><a xlink:title=" ">
<polygon fill="#e0e0e0" stroke="#999999" points="2586.96,-195 2455.96,-195 2455.96,-176 2586.96,-176 2586.96,-195"/>
<text text-anchor="middle" x="2521.46" y="-183" font-family="Helvetica,sans-Serif" font-size="10.00">QtCore/QFutureWatcher</text>
</a>
</g>
</g>
<!-- Node25&#45;&gt;Node29 -->
<g id="edge34_Node000025_Node000029" class="edge">
<title>Node25&#45;&gt;Node29</title>
<g id="a_edge34_Node000025_Node000029"><a xlink:title=" ">
<path fill="none" stroke="#63b8ff" d="M2316.36,-236.49C2358.75,-226.16 2430.33,-208.71 2476.73,-197.4"/>
<polygon fill="#63b8ff" stroke="#63b8ff" points="2477.63,-200.79 2486.52,-195.02 2475.97,-193.98 2477.63,-200.79"/>
</a>
</g>
</g>
<!-- Node30&#45;&gt;Node7 -->
<g id="edge40_Node000030_Node000007" class="edge">
<title>Node30&#45;&gt;Node7</title>
<g id="a_edge40_Node000030_Node000007"><a xlink:title=" ">
<path fill="none" stroke="#63b8ff" d="M1934.6,-175.99C1937.06,-160.84 1944.19,-129.02 1962.46,-110 1977.34,-94.5 1998.54,-84.07 2017.77,-77.23"/>
<polygon fill="#63b8ff" stroke="#63b8ff" points="2018.91,-80.54 2027.3,-74.07 2016.7,-73.9 2018.91,-80.54"/>
</a>
</g>
</g>
<!-- Node30&#45;&gt;Node8 -->
<g id="edge42_Node000030_Node000008" class="edge">
<title>Node30&#45;&gt;Node8</title>
<g id="a_edge42_Node000030_Node000008"><a xlink:title=" ">
<path fill="none" stroke="#63b8ff" d="M1885.38,-180.35C1820.94,-174.26 1703.21,-161.25 1604.46,-140 1600.83,-139.22 1597.08,-138.3 1593.35,-137.31"/>
<polygon fill="#63b8ff" stroke="#63b8ff" points="1594.2,-133.91 1583.62,-134.58 1592.3,-140.65 1594.2,-133.91"/>
</a>
</g>
</g>
<!-- Node30&#45;&gt;Node22 -->
<g id="edge38_Node000030_Node000022" class="edge">
<title>Node30&#45;&gt;Node22</title>
<g id="a_edge38_Node000030_Node000022"><a xlink:title=" ">
<path fill="none" stroke="#63b8ff" d="M1958.03,-175.99C1987.07,-165.94 2035.56,-149.16 2068.25,-137.84"/>
<polygon fill="#63b8ff" stroke="#63b8ff" points="2069.55,-141.1 2077.85,-134.52 2067.26,-134.48 2069.55,-141.1"/>
</a>
</g>
</g>
<!-- Node30&#45;&gt;Node27 -->
<g id="edge43_Node000030_Node000027" class="edge">
<title>Node30&#45;&gt;Node27</title>
<g id="a_edge43_Node000030_Node000027"><a xlink:title=" ">
<path fill="none" stroke="#63b8ff" d="M1943.34,-175.87C1953.74,-166.8 1970.29,-152.34 1982.91,-141.32"/>
<polygon fill="#63b8ff" stroke="#63b8ff" points="1985.3,-143.88 1990.53,-134.67 1980.7,-138.61 1985.3,-143.88"/>
</a>
</g>
</g>
<!-- Node31 -->
<g id="Node000031" class="node">
<title>Node31</title>
<g id="a_Node000031"><a xlink:title=" ">
<polygon fill="#e0e0e0" stroke="#999999" points="1767.46,-134.5 1613.46,-134.5 1613.46,-115.5 1767.46,-115.5 1767.46,-134.5"/>
<text text-anchor="middle" x="1690.46" y="-122.5" font-family="Helvetica,sans-Serif" font-size="10.00">QtCore/QCryptographicHash</text>
</a>
</g>
</g>
<!-- Node30&#45;&gt;Node31 -->
<g id="edge39_Node000030_Node000031" class="edge">
<title>Node30&#45;&gt;Node31</title>
<g id="a_edge39_Node000030_Node000031"><a xlink:title=" ">
<path fill="none" stroke="#63b8ff" d="M1898.12,-175.99C1855.2,-165.66 1782.72,-148.21 1735.74,-136.9"/>
<polygon fill="#63b8ff" stroke="#63b8ff" points="1736.38,-133.45 1725.83,-134.52 1734.74,-140.26 1736.38,-133.45"/>
</a>
</g>
</g>
<!-- Node32 -->
<g id="Node000032" class="node">
<title>Node32</title>
<g id="a_Node000032"><a xlink:title=" ">
<polygon fill="#e0e0e0" stroke="#999999" points="1915.46,-134.5 1785.46,-134.5 1785.46,-115.5 1915.46,-115.5 1915.46,-134.5"/>
<text text-anchor="middle" x="1850.46" y="-122.5" font-family="Helvetica,sans-Serif" font-size="10.00">QtCore/QTemporaryFile</text>
</a>
</g>
</g>
<!-- Node30&#45;&gt;Node32 -->
<g id="edge41_Node000030_Node000032" class="edge">
<title>Node30&#45;&gt;Node32</title>
<g id="a_edge41_Node000030_Node000032"><a xlink:title=" ">
<path fill="none" stroke="#63b8ff" d="M1921.21,-175.87C1908.09,-166.62 1887.04,-151.78 1871.31,-140.69"/>
<polygon fill="#63b8ff" stroke="#63b8ff" points="1872.95,-137.57 1862.76,-134.67 1868.91,-143.29 1872.95,-137.57"/>
</a>
</g>
</g>
<!-- Node33&#45;&gt;Node16 -->
<g id="edge52_Node000033_Node000016" class="edge">
<title>Node33&#45;&gt;Node16</title>
<g id="a_edge52_Node000033_Node000016"><a xlink:title=" ">
<path fill="none" stroke="#63b8ff" d="M2468.85,-236.44C2478.86,-234.53 2489.52,-232.61 2499.46,-231 2559.87,-221.23 2732.12,-241.01 2772.46,-195 2814.58,-146.96 2773.17,-63.95 2751.66,-27.97"/>
<polygon fill="#63b8ff" stroke="#63b8ff" points="2754.44,-25.81 2746.2,-19.14 2748.48,-29.48 2754.44,-25.81"/>
</a>
</g>
</g>
<!-- Node33&#45;&gt;Node17 -->
<g id="edge53_Node000033_Node000017" class="edge">
<title>Node33&#45;&gt;Node17</title>
<g id="a_edge53_Node000033_Node000017"><a xlink:title=" ">
<path fill="none" stroke="#63b8ff" d="M2405.37,-236.49C2380.78,-226.57 2339.93,-210.09 2311.9,-198.78"/>
<polygon fill="#63b8ff" stroke="#63b8ff" points="2313.15,-195.51 2302.57,-195.02 2310.53,-202 2313.15,-195.51"/>
</a>
</g>
</g>
<!-- Node33&#45;&gt;Node24 -->
<g id="edge54_Node000033_Node000024" class="edge">
<title>Node33&#45;&gt;Node24</title>
<g id="a_edge54_Node000033_Node000024"><a xlink:title=" ">
<path fill="none" stroke="#63b8ff" d="M2463.92,-236.48C2511.48,-225.3 2588.37,-205.81 2596.46,-195 2608.74,-178.59 2594.36,-156.7 2581.13,-142.02"/>
<polygon fill="#63b8ff" stroke="#63b8ff" points="2583.54,-139.47 2574.08,-134.69 2578.49,-144.32 2583.54,-139.47"/>
</a>
</g>
</g>
<!-- Node34 -->
<g id="Node000034" class="node">
<title>Node34</title>
<g id="a_Node000034"><a xlink:href="QmlObjectListModel_8h.html" target="_top" xlink:title=" ">
<polygon fill="white" stroke="#666666" points="2944.96,-195 2819.96,-195 2819.96,-176 2944.96,-176 2944.96,-195"/>
<text text-anchor="middle" x="2882.46" y="-183" font-family="Helvetica,sans-Serif" font-size="10.00">QmlObjectListModel.h</text>
</a>
</g>
</g>
<!-- Node33&#45;&gt;Node34 -->
<g id="edge45_Node000033_Node000034" class="edge">
<title>Node33&#45;&gt;Node34</title>
<g id="a_edge45_Node000033_Node000034"><a xlink:title=" ">
<path fill="none" stroke="#63b8ff" d="M2468.06,-236.47C2478.3,-234.52 2489.25,-232.57 2499.46,-231 2529.31,-226.41 2707.45,-206.17 2809.94,-194.63"/>
<polygon fill="#63b8ff" stroke="#63b8ff" points="2810.37,-198.11 2819.92,-193.51 2809.59,-191.15 2810.37,-198.11"/>
</a>
</g>
</g>
<!-- Node39 -->
<g id="Node000039" class="node">
<title>Node39</title>
<g id="a_Node000039"><a xlink:title=" ">
<polygon fill="#e0e0e0" stroke="#999999" points="2763.46,-195 2681.46,-195 2681.46,-176 2763.46,-176 2763.46,-195"/>
<text text-anchor="middle" x="2722.46" y="-183" font-family="Helvetica,sans-Serif" font-size="10.00">QtCore/QMap</text>
</a>
</g>
</g>
<!-- Node33&#45;&gt;Node39 -->
<g id="edge55_Node000033_Node000039" class="edge">
<title>Node33&#45;&gt;Node39</title>
<g id="a_edge55_Node000033_Node000039"><a xlink:title=" ">
<path fill="none" stroke="#63b8ff" d="M2469.5,-236.49C2523.04,-225.91 2614.36,-207.86 2671.39,-196.59"/>
<polygon fill="#63b8ff" stroke="#63b8ff" points="2672.14,-200.01 2681.27,-194.64 2670.78,-193.14 2672.14,-200.01"/>
</a>
</g>
</g>
<!-- Node34&#45;&gt;Node16 -->
<g id="edge51_Node000034_Node000016" class="edge">
<title>Node34&#45;&gt;Node16</title>
<g id="a_edge51_Node000034_Node000016"><a xlink:title=" ">
<path fill="none" stroke="#63b8ff" d="M2875.72,-175.88C2868.98,-167.09 2858.48,-152.94 2850.46,-140 2827.93,-103.67 2833.92,-86.89 2805.46,-55 2794.39,-42.6 2779.19,-31.95 2766.27,-24.18"/>
<polygon fill="#63b8ff" stroke="#63b8ff" points="2767.76,-21 2757.35,-19.04 2764.27,-27.07 2767.76,-21"/>
</a>
</g>
</g>
<!-- Node35 -->
<g id="Node000035" class="node">
<title>Node35</title>
<g id="a_Node000035"><a xlink:href="ObjectListModelBase_8h.html" target="_top" xlink:title=" ">
<polygon fill="white" stroke="#666666" points="2987.46,-134.5 2859.46,-134.5 2859.46,-115.5 2987.46,-115.5 2987.46,-134.5"/>
<text text-anchor="middle" x="2923.46" y="-122.5" font-family="Helvetica,sans-Serif" font-size="10.00">ObjectListModelBase.h</text>
</a>
</g>
</g>
<!-- Node34&#45;&gt;Node35 -->
<g id="edge46_Node000034_Node000035" class="edge">
<title>Node34&#45;&gt;Node35</title>
<g id="a_edge46_Node000034_Node000035"><a xlink:title=" ">
<path fill="none" stroke="#63b8ff" d="M2888.51,-175.87C2894.56,-167.23 2904.04,-153.7 2911.6,-142.92"/>
<polygon fill="#63b8ff" stroke="#63b8ff" points="2914.51,-144.87 2917.38,-134.67 2908.78,-140.85 2914.51,-144.87"/>
</a>
</g>
</g>
<!-- Node36 -->
<g id="Node000036" class="node">
<title>Node36</title>
<g id="a_Node000036"><a xlink:href="ObjectItemModelBase_8h.html" target="_top" xlink:title=" ">
<polygon fill="white" stroke="#666666" points="2991.46,-74 2857.46,-74 2857.46,-55 2991.46,-55 2991.46,-74"/>
<text text-anchor="middle" x="2924.46" y="-62" font-family="Helvetica,sans-Serif" font-size="10.00">ObjectItemModelBase.h</text>
</a>
</g>
</g>
<!-- Node35&#45;&gt;Node36 -->
<g id="edge47_Node000035_Node000036" class="edge">
<title>Node35&#45;&gt;Node36</title>
<g id="a_edge47_Node000035_Node000036"><a xlink:title=" ">
<path fill="none" stroke="#63b8ff" d="M2923.61,-115.37C2923.74,-107.25 2923.96,-94.81 2924.14,-84.39"/>
<polygon fill="#63b8ff" stroke="#63b8ff" points="2927.64,-84.23 2924.31,-74.17 2920.64,-84.11 2927.64,-84.23"/>
</a>
</g>
</g>
<!-- Node36&#45;&gt;Node16 -->
<g id="edge49_Node000036_Node000016" class="edge">
<title>Node36&#45;&gt;Node16</title>
<g id="a_edge49_Node000036_Node000016"><a xlink:title=" ">
<path fill="none" stroke="#63b8ff" d="M2894.9,-54.98C2863.74,-46.01 2814.49,-31.82 2780,-21.89"/>
<polygon fill="#63b8ff" stroke="#63b8ff" points="2780.83,-18.49 2770.25,-19.08 2778.89,-25.21 2780.83,-18.49"/>
</a>
</g>
</g>
<!-- Node37 -->
<g id="Node000037" class="node">
<title>Node37</title>
<g id="a_Node000037"><a xlink:title=" ">
<polygon fill="#e0e0e0" stroke="#999999" points="3191.46,-19 3037.46,-19 3037.46,0 3191.46,0 3191.46,-19"/>
<text text-anchor="middle" x="3114.46" y="-7" font-family="Helvetica,sans-Serif" font-size="10.00">QtCore/QAbstractItemModel</text>
</a>
</g>
</g>
<!-- Node36&#45;&gt;Node37 -->
<g id="edge48_Node000036_Node000037" class="edge">
<title>Node36&#45;&gt;Node37</title>
<g id="a_edge48_Node000036_Node000037"><a xlink:title=" ">
<path fill="none" stroke="#63b8ff" d="M2954.98,-54.98C2987.16,-46.01 3038.02,-31.82 3073.63,-21.89"/>
<polygon fill="#63b8ff" stroke="#63b8ff" points="3075,-25.14 3083.69,-19.08 3073.12,-18.4 3075,-25.14"/>
</a>
</g>
</g>
<!-- Node38 -->
<g id="Node000038" class="node">
<title>Node38</title>
<g id="a_Node000038"><a xlink:title=" ">
<polygon fill="#e0e0e0" stroke="#999999" points="3018.96,-19 2829.96,-19 2829.96,0 3018.96,0 3018.96,-19"/>
<text text-anchor="middle" x="2924.46" y="-7" font-family="Helvetica,sans-Serif" font-size="10.00">QtQmlIntegration/QtQmlIntegration</text>
</a>
</g>
</g>
<!-- Node36&#45;&gt;Node38 -->
<g id="edge50_Node000036_Node000038" class="edge">
<title>Node36&#45;&gt;Node38</title>
<g id="a_edge50_Node000036_Node000038"><a xlink:title=" ">
<path fill="none" stroke="#63b8ff" d="M2924.46,-54.75C2924.46,-47.8 2924.46,-37.85 2924.46,-29.13"/>
<polygon fill="#63b8ff" stroke="#63b8ff" points="2927.96,-29.09 2924.46,-19.09 2920.96,-29.09 2927.96,-29.09"/>
</a>
</g>
</g>
</g>
</svg>

<g id="navigator" transform="translate(0 0)" fill="#404254">
  <rect fill="#f2f5e9" fill-opacity="0.5" stroke="#606060" stroke-width=".5" x="0" y="0" width="60" height="60"/>
  <use id="zoomplus" xlink:href="#zoomPlus" x="17" y="9" onmousedown="handleZoom(evt,'in')"/>
  <use id="zoomminus" xlink:href="#zoomMin" x="42" y="9" onmousedown="handleZoom(evt,'out')"/>
  <use id="reset" xlink:href="#resetDef" x="30" y="36" onmousedown="handleReset()"/>
   <use id="arrowup" xlink:href="#arrowUp" x="0" y="0" onmousedown="handlePan(0,-1)"/>
  <use id="arrowright" xlink:href="#arrowRight" x="0" y="0" onmousedown="handlePan(1,0)"/>
  <use id="arrowdown" xlink:href="#arrowDown" x="0" y="0" onmousedown="handlePan(0,1)"/>
  <use id="arrowleft" xlink:href="#arrowLeft" x="0" y="0" onmousedown="handlePan(-1,0)"/>
</g>
<svg viewBox="0 0 15 15" width="100%" height="30px" preserveAspectRatio="xMaxYMin meet">
 <g id="arrow_out" transform="scale(0.3 0.3)">
  <a xlink:href="QGCFileDownload_8cc__incl_org.svg" target="_base">
   <rect id="button" ry="5" rx="5" y="6" x="6" height="38" width="38"
        fill="#f2f5e9" fill-opacity="0.5" stroke="#606060" stroke-width="1.0"/>
   <path id="arrow"
     d="M 11.500037,31.436501 C 11.940474,20.09759 22.043105,11.32322 32.158766,21.979434 L 37.068811,17.246167 C 37.068811,17.246167 37.088388,32 37.088388,32 L 22.160133,31.978069 C 22.160133,31.978069 26.997745,27.140456 26.997745,27.140456 C 18.528582,18.264221 13.291696,25.230495 11.500037,31.436501 z"
     style="fill:#404040;"/>
  </a>
 </g>
</svg>

<style type='text/css'>
<![CDATA[
[data-mouse-over-selected='false'] { opacity: 0.7; }
[data-mouse-over-selected='true']  { opacity: 1.0; }
]]>
</style>
<script type="application/ecmascript"><![CDATA[
document.addEventListener('DOMContentLoaded', (event) => {
  highlightEdges();
  highlightAdjacentNodes();
});
]]></script>
</svg>
