<?xml version="1.0" encoding="UTF-8" standalone="no"?>
<!DOCTYPE svg PUBLIC "-//W3C//DTD SVG 1.1//EN"
 "http://www.w3.org/Graphics/SVG/1.1/DTD/svg11.dtd">
<!-- Generated by graphviz version 2.43.0 (0)
 -->
<!-- Title: src/Utilities/Geo/QGCGeo.h Pages: 1 -->
<svg width="451pt" height="82pt"
 viewBox="0.00 0.00 451.00 82.00" xmlns="http://www.w3.org/2000/svg" xmlns:xlink="http://www.w3.org/1999/xlink">
<g id="graph0" class="graph" transform="scale(1 1) rotate(0) translate(4 78)">
<title>src/Utilities/Geo/QGCGeo.h</title>
<!-- Node1 -->
<g id="Node000001" class="node">
<title>Node1</title>
<g id="a_Node000001"><a xlink:title="Geographic coordinate conversion utilities using GeographicLib.">
<polygon fill="#999999" stroke="#666666" points="284.5,-74 136.5,-74 136.5,-55 284.5,-55 284.5,-74"/>
<text text-anchor="middle" x="210.5" y="-62" font-family="Helvetica,sans-Serif" font-size="10.00">src/Utilities/Geo/QGCGeo.h</text>
</a>
</g>
</g>
<!-- Node2 -->
<g id="Node000002" class="node">
<title>Node2</title>
<g id="a_Node000002"><a xlink:title=" ">
<polygon fill="#e0e0e0" stroke="#999999" points="143,-19 0,-19 0,0 143,0 143,-19"/>
<text text-anchor="middle" x="71.5" y="-7" font-family="Helvetica,sans-Serif" font-size="10.00">QtCore/QLoggingCategory</text>
</a>
</g>
</g>
<!-- Node1&#45;&gt;Node2 -->
<g id="edge1_Node000001_Node000002" class="edge">
<title>Node1&#45;&gt;Node2</title>
<g id="a_edge1_Node000001_Node000002"><a xlink:title=" ">
<path fill="none" stroke="#63b8ff" d="M188.17,-54.98C165.3,-46.27 129.54,-32.63 103.64,-22.75"/>
<polygon fill="#63b8ff" stroke="#63b8ff" points="104.83,-19.46 94.24,-19.17 102.34,-26 104.83,-19.46"/>
</a>
</g>
</g>
<!-- Node3 -->
<g id="Node000003" class="node">
<title>Node3</title>
<g id="a_Node000003"><a xlink:title=" ">
<polygon fill="#e0e0e0" stroke="#999999" points="260,-19 161,-19 161,0 260,0 260,-19"/>
<text text-anchor="middle" x="210.5" y="-7" font-family="Helvetica,sans-Serif" font-size="10.00">QtGui/QVector3D</text>
</a>
</g>
</g>
<!-- Node1&#45;&gt;Node3 -->
<g id="edge2_Node000001_Node000003" class="edge">
<title>Node1&#45;&gt;Node3</title>
<g id="a_edge2_Node000001_Node000003"><a xlink:title=" ">
<path fill="none" stroke="#63b8ff" d="M210.5,-54.75C210.5,-47.8 210.5,-37.85 210.5,-29.13"/>
<polygon fill="#63b8ff" stroke="#63b8ff" points="214,-29.09 210.5,-19.09 207,-29.09 214,-29.09"/>
</a>
</g>
</g>
<!-- Node4 -->
<g id="Node000004" class="node">
<title>Node4</title>
<g id="a_Node000004"><a xlink:title=" ">
<polygon fill="#e0e0e0" stroke="#999999" points="443,-19 278,-19 278,0 443,0 443,-19"/>
<text text-anchor="middle" x="360.5" y="-7" font-family="Helvetica,sans-Serif" font-size="10.00">QtPositioning/QGeoCoordinate</text>
</a>
</g>
</g>
<!-- Node1&#45;&gt;Node4 -->
<g id="edge3_Node000001_Node000004" class="edge">
<title>Node1&#45;&gt;Node4</title>
<g id="a_edge3_Node000001_Node000004"><a xlink:title=" ">
<path fill="none" stroke="#63b8ff" d="M234.6,-54.98C259.38,-46.23 298.2,-32.51 326.19,-22.62"/>
<polygon fill="#63b8ff" stroke="#63b8ff" points="327.7,-25.8 335.96,-19.17 325.37,-19.2 327.7,-25.8"/>
</a>
</g>
</g>
</g>
</svg>
