<?xml version="1.0" encoding="UTF-8" standalone="no"?>
<!DOCTYPE svg PUBLIC "-//W3C//DTD SVG 1.1//EN"
 "http://www.w3.org/Graphics/SVG/1.1/DTD/svg11.dtd">
<!-- Generated by graphviz version 2.43.0 (0)
 -->
<!-- Title: src/Utilities/Geo/QGCGeo.h Pages: 1 -->
<svg width="2075pt" height="93pt"
 viewBox="0.00 0.00 2074.50 93.00" xmlns="http://www.w3.org/2000/svg" xmlns:xlink="http://www.w3.org/1999/xlink">
<g id="graph0" class="graph" transform="scale(1 1) rotate(0) translate(4 89)">
<title>src/Utilities/Geo/QGCGeo.h</title>
<!-- Node1 -->
<g id="Node000001" class="node">
<title>Node1</title>
<g id="a_Node000001"><a xlink:title="Geographic coordinate conversion utilities using GeographicLib.">
<polygon fill="#999999" stroke="#666666" points="1161.5,-85 1013.5,-85 1013.5,-66 1161.5,-66 1161.5,-85"/>
<text text-anchor="middle" x="1087.5" y="-73" font-family="Helvetica,sans-Serif" font-size="10.00">src/Utilities/Geo/QGCGeo.h</text>
</a>
</g>
</g>
<!-- Node2 -->
<g id="Node000002" class="node">
<title>Node2</title>
<g id="a_Node000002"><a xlink:href="SurveyComplexItem_8cc.html" target="_top" xlink:title=" ">
<polygon fill="white" stroke="#666666" points="133,-30 0,-30 0,0 133,0 133,-30"/>
<text text-anchor="start" x="8" y="-18" font-family="Helvetica,sans-Serif" font-size="10.00">src/MissionManager</text>
<text text-anchor="middle" x="66.5" y="-7" font-family="Helvetica,sans-Serif" font-size="10.00">/SurveyComplexItem.cc</text>
</a>
</g>
</g>
<!-- Node1&#45;&gt;Node2 -->
<g id="edge1_Node000001_Node000002" class="edge">
<title>Node1&#45;&gt;Node2</title>
<g id="a_edge1_Node000001_Node000002"><a xlink:title=" ">
<path fill="none" stroke="#63b8ff" d="M1003.2,-74.41C837.52,-73.39 458.04,-66.81 141.5,-30 138.74,-29.68 135.92,-29.32 133.08,-28.92"/>
<polygon fill="#63b8ff" stroke="#63b8ff" points="1003.3,-77.92 1013.32,-74.47 1003.34,-70.92 1003.3,-77.92"/>
</a>
</g>
</g>
<!-- Node3 -->
<g id="Node000003" class="node">
<title>Node3</title>
<g id="a_Node000003"><a xlink:href="QGCMapPolygon_8cc.html" target="_top" xlink:title=" ">
<polygon fill="white" stroke="#666666" points="344,-24.5 151,-24.5 151,-5.5 344,-5.5 344,-24.5"/>
<text text-anchor="middle" x="247.5" y="-12.5" font-family="Helvetica,sans-Serif" font-size="10.00">src/QmlControls/QGCMapPolygon.cc</text>
</a>
</g>
</g>
<!-- Node1&#45;&gt;Node3 -->
<g id="edge2_Node000001_Node000003" class="edge">
<title>Node1&#45;&gt;Node3</title>
<g id="a_edge2_Node000001_Node000003"><a xlink:title=" ">
<path fill="none" stroke="#63b8ff" d="M1003.29,-71.38C866.53,-65.86 587.74,-52.77 352.5,-30 337.31,-28.53 320.93,-26.54 305.73,-24.52"/>
<polygon fill="#63b8ff" stroke="#63b8ff" points="1003.16,-74.87 1013.29,-71.78 1003.44,-67.88 1003.16,-74.87"/>
</a>
</g>
</g>
<!-- Node4 -->
<g id="Node000004" class="node">
<title>Node4</title>
<g id="a_Node000004"><a xlink:href="QGCMapPolyline_8cc.html" target="_top" xlink:title=" ">
<polygon fill="white" stroke="#666666" points="555,-24.5 362,-24.5 362,-5.5 555,-5.5 555,-24.5"/>
<text text-anchor="middle" x="458.5" y="-12.5" font-family="Helvetica,sans-Serif" font-size="10.00">src/QmlControls/QGCMapPolyline.cc</text>
</a>
</g>
</g>
<!-- Node1&#45;&gt;Node4 -->
<g id="edge3_Node000001_Node000004" class="edge">
<title>Node1&#45;&gt;Node4</title>
<g id="a_edge3_Node000001_Node000004"><a xlink:title=" ">
<path fill="none" stroke="#63b8ff" d="M1003.27,-68.54C899.82,-60.95 719.03,-46.77 564.5,-30 549.83,-28.41 534.05,-26.45 519.26,-24.52"/>
<polygon fill="#63b8ff" stroke="#63b8ff" points="1003.12,-72.04 1013.34,-69.28 1003.63,-65.06 1003.12,-72.04"/>
</a>
</g>
</g>
<!-- Node5 -->
<g id="Node000005" class="node">
<title>Node5</title>
<g id="a_Node000005"><a xlink:href="TransformPositionController_8cc.html" target="_top" xlink:title=" ">
<polygon fill="white" stroke="#666666" points="719.5,-30 573.5,-30 573.5,0 719.5,0 719.5,-30"/>
<text text-anchor="start" x="581.5" y="-18" font-family="Helvetica,sans-Serif" font-size="10.00">src/QmlControls/Transform</text>
<text text-anchor="middle" x="646.5" y="-7" font-family="Helvetica,sans-Serif" font-size="10.00">PositionController.cc</text>
</a>
</g>
</g>
<!-- Node1&#45;&gt;Node5 -->
<g id="edge4_Node000001_Node000005" class="edge">
<title>Node1&#45;&gt;Node5</title>
<g id="a_edge4_Node000001_Node000005"><a xlink:title=" ">
<path fill="none" stroke="#63b8ff" d="M1003.41,-65.18C930.57,-56.84 822.41,-43.83 728.5,-30 725.64,-29.58 722.73,-29.14 719.79,-28.68"/>
<polygon fill="#63b8ff" stroke="#63b8ff" points="1003.12,-68.67 1013.45,-66.32 1003.92,-61.71 1003.12,-68.67"/>
</a>
</g>
</g>
<!-- Node6 -->
<g id="Node000006" class="node">
<title>Node6</title>
<g id="a_Node000006"><a xlink:href="TerrainTileManager_8cc.html" target="_top" xlink:title=" ">
<polygon fill="white" stroke="#666666" points="913.5,-24.5 737.5,-24.5 737.5,-5.5 913.5,-5.5 913.5,-24.5"/>
<text text-anchor="middle" x="825.5" y="-12.5" font-family="Helvetica,sans-Serif" font-size="10.00">src/Terrain/TerrainTileManager.cc</text>
</a>
</g>
</g>
<!-- Node1&#45;&gt;Node6 -->
<g id="edge5_Node000001_Node000006" class="edge">
<title>Node1&#45;&gt;Node6</title>
<g id="a_edge5_Node000001_Node000006"><a xlink:title=" ">
<path fill="none" stroke="#63b8ff" d="M1039.36,-63.75C988.75,-52.45 910.14,-34.9 863.64,-24.52"/>
<polygon fill="#63b8ff" stroke="#63b8ff" points="1038.88,-67.23 1049.4,-65.99 1040.41,-60.4 1038.88,-67.23"/>
</a>
</g>
</g>
<!-- Node7 -->
<g id="Node000007" class="node">
<title>Node7</title>
<g id="a_Node000007"><a xlink:href="QGCGeo_8cc.html" target="_top" xlink:title=" ">
<polygon fill="white" stroke="#666666" points="1083.5,-24.5 931.5,-24.5 931.5,-5.5 1083.5,-5.5 1083.5,-24.5"/>
<text text-anchor="middle" x="1007.5" y="-12.5" font-family="Helvetica,sans-Serif" font-size="10.00">src/Utilities/Geo/QGCGeo.cc</text>
</a>
</g>
</g>
<!-- Node1&#45;&gt;Node7 -->
<g id="edge6_Node000001_Node000007" class="edge">
<title>Node1&#45;&gt;Node7</title>
<g id="a_edge6_Node000001_Node000007"><a xlink:title=" ">
<path fill="none" stroke="#63b8ff" d="M1067.46,-59.85C1052.31,-48.77 1032.02,-33.93 1019.35,-24.67"/>
<polygon fill="#63b8ff" stroke="#63b8ff" points="1065.56,-62.79 1075.7,-65.87 1069.69,-57.14 1065.56,-62.79"/>
</a>
</g>
</g>
<!-- Node8 -->
<g id="Node000008" class="node">
<title>Node8</title>
<g id="a_Node000008"><a xlink:href="SHPFileHelper_8cc.html" target="_top" xlink:title=" ">
<polygon fill="white" stroke="#666666" points="1235.5,-30 1101.5,-30 1101.5,0 1235.5,0 1235.5,-30"/>
<text text-anchor="start" x="1109.5" y="-18" font-family="Helvetica,sans-Serif" font-size="10.00">src/Utilities/Geo/SHPFile</text>
<text text-anchor="middle" x="1168.5" y="-7" font-family="Helvetica,sans-Serif" font-size="10.00">Helper.cc</text>
</a>
</g>
</g>
<!-- Node1&#45;&gt;Node8 -->
<g id="edge7_Node000001_Node000008" class="edge">
<title>Node1&#45;&gt;Node8</title>
<g id="a_edge7_Node000001_Node000008"><a xlink:title=" ">
<path fill="none" stroke="#63b8ff" d="M1107.9,-59.77C1120.48,-50.68 1136.54,-39.09 1148.96,-30.11"/>
<polygon fill="#63b8ff" stroke="#63b8ff" points="1105.51,-57.18 1099.45,-65.87 1109.61,-62.85 1105.51,-57.18"/>
</a>
</g>
</g>
<!-- Node9 -->
<g id="Node000009" class="node">
<title>Node9</title>
<g id="a_Node000009"><a xlink:href="VehicleGPS2FactGroup_8cc.html" target="_top" xlink:title=" ">
<polygon fill="white" stroke="#666666" points="1397,-30 1254,-30 1254,0 1397,0 1397,-30"/>
<text text-anchor="start" x="1262" y="-18" font-family="Helvetica,sans-Serif" font-size="10.00">src/Vehicle/FactGroups</text>
<text text-anchor="middle" x="1325.5" y="-7" font-family="Helvetica,sans-Serif" font-size="10.00">/VehicleGPS2FactGroup.cc</text>
</a>
</g>
</g>
<!-- Node1&#45;&gt;Node9 -->
<g id="edge8_Node000001_Node000009" class="edge">
<title>Node1&#45;&gt;Node9</title>
<g id="a_edge8_Node000001_Node000009"><a xlink:title=" ">
<path fill="none" stroke="#63b8ff" d="M1131.99,-63.56C1170.51,-54.1 1226.44,-40.35 1268.28,-30.06"/>
<polygon fill="#63b8ff" stroke="#63b8ff" points="1130.98,-60.21 1122.11,-65.99 1132.65,-67.01 1130.98,-60.21"/>
</a>
</g>
</g>
<!-- Node10 -->
<g id="Node000010" class="node">
<title>Node10</title>
<g id="a_Node000010"><a xlink:href="VehicleGPSFactGroup_8cc.html" target="_top" xlink:title=" ">
<polygon fill="white" stroke="#666666" points="1552,-30 1415,-30 1415,0 1552,0 1552,-30"/>
<text text-anchor="start" x="1423" y="-18" font-family="Helvetica,sans-Serif" font-size="10.00">src/Vehicle/FactGroups</text>
<text text-anchor="middle" x="1483.5" y="-7" font-family="Helvetica,sans-Serif" font-size="10.00">/VehicleGPSFactGroup.cc</text>
</a>
</g>
</g>
<!-- Node1&#45;&gt;Node10 -->
<g id="edge9_Node000001_Node000010" class="edge">
<title>Node1&#45;&gt;Node10</title>
<g id="a_edge9_Node000001_Node000010"><a xlink:title=" ">
<path fill="none" stroke="#63b8ff" d="M1164.64,-64.65C1229.33,-56.16 1324.09,-43.23 1406.5,-30 1409.18,-29.57 1411.92,-29.12 1414.68,-28.66"/>
<polygon fill="#63b8ff" stroke="#63b8ff" points="1163.99,-61.2 1154.52,-65.97 1164.89,-68.14 1163.99,-61.2"/>
</a>
</g>
</g>
<!-- Node11 -->
<g id="Node000011" class="node">
<title>Node11</title>
<g id="a_Node000011"><a xlink:href="OsmParserThread_8cc.html" target="_top" xlink:title=" ">
<polygon fill="white" stroke="#666666" points="1715,-30 1570,-30 1570,0 1715,0 1715,-30"/>
<text text-anchor="start" x="1578" y="-18" font-family="Helvetica,sans-Serif" font-size="10.00">src/Viewer3D/Providers</text>
<text text-anchor="middle" x="1642.5" y="-7" font-family="Helvetica,sans-Serif" font-size="10.00">/Osm/OsmParserThread.cc</text>
</a>
</g>
</g>
<!-- Node1&#45;&gt;Node11 -->
<g id="edge10_Node000001_Node000011" class="edge">
<title>Node1&#45;&gt;Node11</title>
<g id="a_edge10_Node000001_Node000011"><a xlink:title=" ">
<path fill="none" stroke="#63b8ff" d="M1171.71,-68.58C1266.66,-61.44 1425.53,-48.1 1561.5,-30 1564.19,-29.64 1566.92,-29.26 1569.68,-28.86"/>
<polygon fill="#63b8ff" stroke="#63b8ff" points="1171.3,-65.1 1161.59,-69.33 1171.83,-72.08 1171.3,-65.1"/>
</a>
</g>
</g>
<!-- Node12 -->
<g id="Node000012" class="node">
<title>Node12</title>
<g id="a_Node000012"><a xlink:href="Viewer3DGeoCoordinateType_8cc.html" target="_top" xlink:title=" ">
<polygon fill="white" stroke="#666666" points="1884,-30 1733,-30 1733,0 1884,0 1884,-30"/>
<text text-anchor="start" x="1741" y="-18" font-family="Helvetica,sans-Serif" font-size="10.00">src/Viewer3D/Viewer3DGeo</text>
<text text-anchor="middle" x="1808.5" y="-7" font-family="Helvetica,sans-Serif" font-size="10.00">CoordinateType.cc</text>
</a>
</g>
</g>
<!-- Node1&#45;&gt;Node12 -->
<g id="edge11_Node000001_Node000012" class="edge">
<title>Node1&#45;&gt;Node12</title>
<g id="a_edge11_Node000001_Node000012"><a xlink:title=" ">
<path fill="none" stroke="#63b8ff" d="M1171.8,-71.17C1293.96,-65.77 1527.19,-53.28 1724.5,-30 1727.29,-29.67 1730.13,-29.31 1732.99,-28.93"/>
<polygon fill="#63b8ff" stroke="#63b8ff" points="1171.6,-67.68 1161.76,-71.61 1171.91,-74.67 1171.6,-67.68"/>
</a>
</g>
</g>
<!-- Node13 -->
<g id="Node000013" class="node">
<title>Node13</title>
<g id="a_Node000013"><a xlink:href="Viewer3DTerrainGeometry_8cc.html" target="_top" xlink:title=" ">
<polygon fill="white" stroke="#666666" points="2066.5,-30 1902.5,-30 1902.5,0 2066.5,0 2066.5,-30"/>
<text text-anchor="start" x="1910.5" y="-18" font-family="Helvetica,sans-Serif" font-size="10.00">src/Viewer3D/Viewer3DTerrain</text>
<text text-anchor="middle" x="1984.5" y="-7" font-family="Helvetica,sans-Serif" font-size="10.00">Geometry.cc</text>
</a>
</g>
</g>
<!-- Node1&#45;&gt;Node13 -->
<g id="edge12_Node000001_Node000013" class="edge">
<title>Node1&#45;&gt;Node13</title>
<g id="a_edge12_Node000001_Node000013"><a xlink:title=" ">
<path fill="none" stroke="#63b8ff" d="M1171.88,-72.55C1318.83,-68.54 1631.13,-57.36 1893.5,-30 1896.36,-29.7 1899.27,-29.38 1902.21,-29.03"/>
<polygon fill="#63b8ff" stroke="#63b8ff" points="1171.49,-69.06 1161.59,-72.82 1171.68,-76.05 1171.49,-69.06"/>
</a>
</g>
</g>
</g>
</svg>
