<?xml version="1.0" encoding="UTF-8" standalone="no"?>
<!DOCTYPE svg PUBLIC "-//W3C//DTD SVG 1.1//EN"
 "http://www.w3.org/Graphics/SVG/1.1/DTD/svg11.dtd">
<!-- Generated by graphviz version 2.43.0 (0)
 -->
<!-- Title: src/Utilities/StateMachine/States/QGCHistoryState.h Pages: 1 -->
<svg width="3186pt" height="313pt"
 viewBox="0.00 0.00 3186.03 313.00" xmlns="http://www.w3.org/2000/svg" xmlns:xlink="http://www.w3.org/1999/xlink">
<g id="graph0" class="graph" transform="scale(1 1) rotate(0) translate(4 309)">
<title>src/Utilities/StateMachine/States/QGCHistoryState.h</title>
<!-- Node1 -->
<g id="Node000001" class="node">
<title>Node1</title>
<g id="a_Node000001"><a xlink:title=" ">
<polygon fill="#999999" stroke="#666666" points="1686.03,-305 1541.03,-305 1541.03,-275 1686.03,-275 1686.03,-305"/>
<text text-anchor="start" x="1549.03" y="-293" font-family="Helvetica,sans-Serif" font-size="10.00">src/Utilities/StateMachine</text>
<text text-anchor="middle" x="1613.53" y="-282" font-family="Helvetica,sans-Serif" font-size="10.00">/States/QGCHistoryState.h</text>
</a>
</g>
</g>
<!-- Node2 -->
<g id="Node000002" class="node">
<title>Node2</title>
<g id="a_Node000002"><a xlink:href="QGCStateMachine_8h.html" target="_top" xlink:title=" ">
<polygon fill="white" stroke="#666666" points="1635.53,-239 1493.53,-239 1493.53,-209 1635.53,-209 1635.53,-239"/>
<text text-anchor="start" x="1501.53" y="-227" font-family="Helvetica,sans-Serif" font-size="10.00">src/Utilities/StateMachine</text>
<text text-anchor="middle" x="1564.53" y="-216" font-family="Helvetica,sans-Serif" font-size="10.00">/QGCStateMachine.h</text>
</a>
</g>
</g>
<!-- Node1&#45;&gt;Node2 -->
<g id="edge1_Node000001_Node000002" class="edge">
<title>Node1&#45;&gt;Node2</title>
<g id="a_edge1_Node000001_Node000002"><a xlink:title=" ">
<path fill="none" stroke="#63b8ff" d="M1596.54,-266.81C1589.52,-257.64 1581.58,-247.28 1575.37,-239.16"/>
<polygon fill="#63b8ff" stroke="#63b8ff" points="1593.8,-268.98 1602.65,-274.8 1599.35,-264.73 1593.8,-268.98"/>
</a>
</g>
</g>
<!-- Node13 -->
<g id="Node000013" class="node">
<title>Node13</title>
<g id="a_Node000013"><a xlink:href="QGCHistoryState_8cc.html" target="_top" xlink:title=" ">
<polygon fill="white" stroke="#666666" points="3178.03,-167.5 3029.03,-167.5 3029.03,-137.5 3178.03,-137.5 3178.03,-167.5"/>
<text text-anchor="start" x="3037.03" y="-155.5" font-family="Helvetica,sans-Serif" font-size="10.00">src/Utilities/StateMachine</text>
<text text-anchor="middle" x="3103.53" y="-144.5" font-family="Helvetica,sans-Serif" font-size="10.00">/States/QGCHistoryState.cc</text>
</a>
</g>
</g>
<!-- Node1&#45;&gt;Node13 -->
<g id="edge32_Node000001_Node000013" class="edge">
<title>Node1&#45;&gt;Node13</title>
<g id="a_edge32_Node000001_Node000013"><a xlink:title=" ">
<path fill="none" stroke="#63b8ff" d="M1696.22,-286.07C1913.5,-277.54 2518.13,-248.33 3015.53,-173 3025.28,-171.52 3035.56,-169.59 3045.51,-167.52"/>
<polygon fill="#63b8ff" stroke="#63b8ff" points="1696.02,-282.58 1686.16,-286.46 1696.29,-289.57 1696.02,-282.58"/>
</a>
</g>
</g>
<!-- Node3 -->
<g id="Node000003" class="node">
<title>Node3</title>
<g id="a_Node000003"><a xlink:href="ParameterManager_8cc.html" target="_top" xlink:title=" ">
<polygon fill="white" stroke="#666666" points="3073.03,-30 2930.03,-30 2930.03,0 3073.03,0 3073.03,-30"/>
<text text-anchor="start" x="2938.03" y="-18" font-family="Helvetica,sans-Serif" font-size="10.00">src/FactSystem/Parameter</text>
<text text-anchor="middle" x="3001.53" y="-7" font-family="Helvetica,sans-Serif" font-size="10.00">Manager.cc</text>
</a>
</g>
</g>
<!-- Node2&#45;&gt;Node3 -->
<g id="edge2_Node000002_Node000003" class="edge">
<title>Node2&#45;&gt;Node3</title>
<g id="a_edge2_Node000002_Node000003"><a xlink:title=" ">
<path fill="none" stroke="#63b8ff" d="M1646.17,-221.54C1944.26,-216.05 2957.78,-195.73 2982.53,-173 3022.77,-136.05 3011.93,-61.67 3005.11,-30.39"/>
<polygon fill="#63b8ff" stroke="#63b8ff" points="1645.81,-218.05 1635.87,-221.73 1645.94,-225.05 1645.81,-218.05"/>
</a>
</g>
</g>
<!-- Node4 -->
<g id="Node000004" class="node">
<title>Node4</title>
<g id="a_Node000004"><a xlink:href="ErrorHandlers_8cc.html" target="_top" xlink:title=" ">
<polygon fill="white" stroke="#666666" points="193.53,-167.5 51.53,-167.5 51.53,-137.5 193.53,-137.5 193.53,-167.5"/>
<text text-anchor="start" x="59.53" y="-155.5" font-family="Helvetica,sans-Serif" font-size="10.00">src/Utilities/StateMachine</text>
<text text-anchor="middle" x="122.53" y="-144.5" font-family="Helvetica,sans-Serif" font-size="10.00">/Helpers/ErrorHandlers.cc</text>
</a>
</g>
</g>
<!-- Node2&#45;&gt;Node4 -->
<g id="edge3_Node000002_Node000004" class="edge">
<title>Node2&#45;&gt;Node4</title>
<g id="a_edge3_Node000002_Node000004"><a xlink:title=" ">
<path fill="none" stroke="#63b8ff" d="M1483.01,-222.17C1228.7,-219.24 452.05,-207.63 202.53,-173 193.04,-171.68 183.04,-169.72 173.45,-167.54"/>
<polygon fill="#63b8ff" stroke="#63b8ff" points="1483.24,-225.67 1493.28,-222.29 1483.32,-218.67 1483.24,-225.67"/>
</a>
</g>
</g>
<!-- Node5 -->
<g id="Node000005" class="node">
<title>Node5</title>
<g id="a_Node000005"><a xlink:href="ErrorRecoveryBuilder_8cc.html" target="_top" xlink:title=" ">
<polygon fill="white" stroke="#666666" points="387.53,-167.5 211.53,-167.5 211.53,-137.5 387.53,-137.5 387.53,-167.5"/>
<text text-anchor="start" x="219.53" y="-155.5" font-family="Helvetica,sans-Serif" font-size="10.00">src/Utilities/StateMachine</text>
<text text-anchor="middle" x="299.53" y="-144.5" font-family="Helvetica,sans-Serif" font-size="10.00">/Helpers/ErrorRecoveryBuilder.cc</text>
</a>
</g>
</g>
<!-- Node2&#45;&gt;Node5 -->
<g id="edge4_Node000002_Node000005" class="edge">
<title>Node2&#45;&gt;Node5</title>
<g id="a_edge4_Node000002_Node000005"><a xlink:title=" ">
<path fill="none" stroke="#63b8ff" d="M1483.03,-221.19C1253.81,-215.82 606.53,-198.78 395.53,-173 384.39,-171.64 372.61,-169.68 361.26,-167.53"/>
<polygon fill="#63b8ff" stroke="#63b8ff" points="1483.22,-224.69 1493.3,-221.43 1483.38,-217.7 1483.22,-224.69"/>
</a>
</g>
</g>
<!-- Node6 -->
<g id="Node000006" class="node">
<title>Node6</title>
<g id="a_Node000006"><a xlink:href="StateHistoryRecorder_8cc.html" target="_top" xlink:title=" ">
<polygon fill="white" stroke="#666666" points="582.03,-167.5 405.03,-167.5 405.03,-137.5 582.03,-137.5 582.03,-167.5"/>
<text text-anchor="start" x="413.03" y="-155.5" font-family="Helvetica,sans-Serif" font-size="10.00">src/Utilities/StateMachine</text>
<text text-anchor="middle" x="493.53" y="-144.5" font-family="Helvetica,sans-Serif" font-size="10.00">/Helpers/StateHistoryRecorder.cc</text>
</a>
</g>
</g>
<!-- Node2&#45;&gt;Node6 -->
<g id="edge5_Node000002_Node000006" class="edge">
<title>Node2&#45;&gt;Node6</title>
<g id="a_edge5_Node000002_Node000006"><a xlink:title=" ">
<path fill="none" stroke="#63b8ff" d="M1483.1,-222.86C1315.41,-221.67 919.64,-214.3 590.53,-173 579.45,-171.61 567.74,-169.67 556.44,-167.55"/>
<polygon fill="#63b8ff" stroke="#63b8ff" points="1483.31,-226.36 1493.33,-222.92 1483.36,-219.36 1483.31,-226.36"/>
</a>
</g>
</g>
<!-- Node7 -->
<g id="Node000007" class="node">
<title>Node7</title>
<g id="a_Node000007"><a xlink:href="StateMachineLogger_8cc.html" target="_top" xlink:title=" ">
<polygon fill="white" stroke="#666666" points="773.03,-167.5 600.03,-167.5 600.03,-137.5 773.03,-137.5 773.03,-167.5"/>
<text text-anchor="start" x="608.03" y="-155.5" font-family="Helvetica,sans-Serif" font-size="10.00">src/Utilities/StateMachine</text>
<text text-anchor="middle" x="686.53" y="-144.5" font-family="Helvetica,sans-Serif" font-size="10.00">/Helpers/StateMachineLogger.cc</text>
</a>
</g>
</g>
<!-- Node2&#45;&gt;Node7 -->
<g id="edge6_Node000002_Node000007" class="edge">
<title>Node2&#45;&gt;Node7</title>
<g id="a_edge6_Node000002_Node000007"><a xlink:title=" ">
<path fill="none" stroke="#63b8ff" d="M1482.91,-221.45C1340.28,-217.91 1036.61,-206.77 782.53,-173 771.74,-171.57 760.34,-169.63 749.32,-167.53"/>
<polygon fill="#63b8ff" stroke="#63b8ff" points="1483.23,-224.95 1493.32,-221.7 1483.4,-217.96 1483.23,-224.95"/>
</a>
</g>
</g>
<!-- Node8 -->
<g id="Node000008" class="node">
<title>Node8</title>
<g id="a_Node000008"><a xlink:href="StateMachineProfiler_8cc.html" target="_top" xlink:title=" ">
<polygon fill="white" stroke="#666666" points="965.53,-167.5 791.53,-167.5 791.53,-137.5 965.53,-137.5 965.53,-167.5"/>
<text text-anchor="start" x="799.53" y="-155.5" font-family="Helvetica,sans-Serif" font-size="10.00">src/Utilities/StateMachine</text>
<text text-anchor="middle" x="878.53" y="-144.5" font-family="Helvetica,sans-Serif" font-size="10.00">/Helpers/StateMachineProfiler.cc</text>
</a>
</g>
</g>
<!-- Node2&#45;&gt;Node8 -->
<g id="edge7_Node000002_Node000008" class="edge">
<title>Node2&#45;&gt;Node8</title>
<g id="a_edge7_Node000002_Node000008"><a xlink:title=" ">
<path fill="none" stroke="#63b8ff" d="M1483.34,-219.1C1369.27,-212.95 1155.29,-198.93 974.53,-173 964.09,-171.5 953.08,-169.59 942.38,-167.54"/>
<polygon fill="#63b8ff" stroke="#63b8ff" points="1483.22,-222.6 1493.39,-219.64 1483.59,-215.61 1483.22,-222.6"/>
</a>
</g>
</g>
<!-- Node9 -->
<g id="Node000009" class="node">
<title>Node9</title>
<g id="a_Node000009"><a xlink:href="QGCStateMachine_8cc.html" target="_top" xlink:title=" ">
<polygon fill="white" stroke="#666666" points="1125.53,-167.5 983.53,-167.5 983.53,-137.5 1125.53,-137.5 1125.53,-167.5"/>
<text text-anchor="start" x="991.53" y="-155.5" font-family="Helvetica,sans-Serif" font-size="10.00">src/Utilities/StateMachine</text>
<text text-anchor="middle" x="1054.53" y="-144.5" font-family="Helvetica,sans-Serif" font-size="10.00">/QGCStateMachine.cc</text>
</a>
</g>
</g>
<!-- Node2&#45;&gt;Node9 -->
<g id="edge8_Node000002_Node000009" class="edge">
<title>Node2&#45;&gt;Node9</title>
<g id="a_edge8_Node000002_Node000009"><a xlink:title=" ">
<path fill="none" stroke="#63b8ff" d="M1483.33,-216.56C1396.54,-208.99 1255.14,-194.63 1134.53,-173 1125.95,-171.46 1116.91,-169.55 1108.13,-167.53"/>
<polygon fill="#63b8ff" stroke="#63b8ff" points="1483.11,-220.06 1493.37,-217.43 1483.71,-213.08 1483.11,-220.06"/>
</a>
</g>
</g>
<!-- Node10 -->
<g id="Node000010" class="node">
<title>Node10</title>
<g id="a_Node000010"><a xlink:href="EventQueuedState_8cc.html" target="_top" xlink:title=" ">
<polygon fill="white" stroke="#666666" points="1301.53,-167.5 1143.53,-167.5 1143.53,-137.5 1301.53,-137.5 1301.53,-167.5"/>
<text text-anchor="start" x="1151.53" y="-155.5" font-family="Helvetica,sans-Serif" font-size="10.00">src/Utilities/StateMachine</text>
<text text-anchor="middle" x="1222.53" y="-144.5" font-family="Helvetica,sans-Serif" font-size="10.00">/States/EventQueuedState.cc</text>
</a>
</g>
</g>
<!-- Node2&#45;&gt;Node10 -->
<g id="edge9_Node000002_Node000010" class="edge">
<title>Node2&#45;&gt;Node10</title>
<g id="a_edge9_Node000002_Node000010"><a xlink:title=" ">
<path fill="none" stroke="#63b8ff" d="M1483.19,-207.5C1433.3,-197.86 1368.15,-185.05 1310.53,-173 1302.26,-171.27 1293.56,-169.4 1284.99,-167.53"/>
<polygon fill="#63b8ff" stroke="#63b8ff" points="1482.79,-210.98 1493.27,-209.44 1484.12,-204.11 1482.79,-210.98"/>
</a>
</g>
</g>
<!-- Node11 -->
<g id="Node000011" class="node">
<title>Node11</title>
<g id="a_Node000011"><a xlink:href="QGCAbstractState_8cc.html" target="_top" xlink:title=" ">
<polygon fill="white" stroke="#666666" points="1475.03,-167.5 1320.03,-167.5 1320.03,-137.5 1475.03,-137.5 1475.03,-167.5"/>
<text text-anchor="start" x="1328.03" y="-155.5" font-family="Helvetica,sans-Serif" font-size="10.00">src/Utilities/StateMachine</text>
<text text-anchor="middle" x="1397.53" y="-144.5" font-family="Helvetica,sans-Serif" font-size="10.00">/States/QGCAbstractState.cc</text>
</a>
</g>
</g>
<!-- Node2&#45;&gt;Node11 -->
<g id="edge10_Node000002_Node000011" class="edge">
<title>Node2&#45;&gt;Node11</title>
<g id="a_edge10_Node000002_Node000011"><a xlink:title=" ">
<path fill="none" stroke="#63b8ff" d="M1521.18,-204.96C1493.14,-193.29 1457.18,-178.32 1431.27,-167.54"/>
<polygon fill="#63b8ff" stroke="#63b8ff" points="1520.16,-208.32 1530.73,-208.94 1522.85,-201.86 1520.16,-208.32"/>
</a>
</g>
</g>
<!-- Node12 -->
<g id="Node000012" class="node">
<title>Node12</title>
<g id="a_Node000012"><a xlink:href="QGCFinalState_8cc.html" target="_top" xlink:title=" ">
<polygon fill="white" stroke="#666666" points="1635.53,-167.5 1493.53,-167.5 1493.53,-137.5 1635.53,-137.5 1635.53,-167.5"/>
<text text-anchor="start" x="1501.53" y="-155.5" font-family="Helvetica,sans-Serif" font-size="10.00">src/Utilities/StateMachine</text>
<text text-anchor="middle" x="1564.53" y="-144.5" font-family="Helvetica,sans-Serif" font-size="10.00">/States/QGCFinalState.cc</text>
</a>
</g>
</g>
<!-- Node2&#45;&gt;Node12 -->
<g id="edge11_Node000002_Node000012" class="edge">
<title>Node2&#45;&gt;Node12</title>
<g id="a_edge11_Node000002_Node000012"><a xlink:title=" ">
<path fill="none" stroke="#63b8ff" d="M1564.53,-198.75C1564.53,-188.31 1564.53,-176.49 1564.53,-167.54"/>
<polygon fill="#63b8ff" stroke="#63b8ff" points="1561.03,-198.94 1564.53,-208.94 1568.03,-198.94 1561.03,-198.94"/>
</a>
</g>
</g>
<!-- Node2&#45;&gt;Node13 -->
<g id="edge12_Node000002_Node000013" class="edge">
<title>Node2&#45;&gt;Node13</title>
<g id="a_edge12_Node000002_Node000013"><a xlink:title=" ">
<path fill="none" stroke="#63b8ff" d="M1645.84,-222.16C1910.78,-219.13 2747.49,-207.02 3015.53,-173 3025.93,-171.68 3036.91,-169.71 3047.46,-167.53"/>
<polygon fill="#63b8ff" stroke="#63b8ff" points="1645.49,-218.67 1635.53,-222.28 1645.57,-225.67 1645.49,-218.67"/>
</a>
</g>
</g>
<!-- Node14 -->
<g id="Node000014" class="node">
<title>Node14</title>
<g id="a_Node000014"><a xlink:href="QGCState_8cc.html" target="_top" xlink:title=" ">
<polygon fill="white" stroke="#666666" points="1795.53,-167.5 1653.53,-167.5 1653.53,-137.5 1795.53,-137.5 1795.53,-167.5"/>
<text text-anchor="start" x="1661.53" y="-155.5" font-family="Helvetica,sans-Serif" font-size="10.00">src/Utilities/StateMachine</text>
<text text-anchor="middle" x="1724.53" y="-144.5" font-family="Helvetica,sans-Serif" font-size="10.00">/States/QGCState.cc</text>
</a>
</g>
</g>
<!-- Node2&#45;&gt;Node14 -->
<g id="edge13_Node000002_Node000014" class="edge">
<title>Node2&#45;&gt;Node14</title>
<g id="a_edge13_Node000002_Node000014"><a xlink:title=" ">
<path fill="none" stroke="#63b8ff" d="M1606.42,-204.81C1633.23,-193.16 1667.49,-178.28 1692.2,-167.54"/>
<polygon fill="#63b8ff" stroke="#63b8ff" points="1604.69,-201.74 1596.91,-208.94 1607.47,-208.16 1604.69,-201.74"/>
</a>
</g>
</g>
<!-- Node15 -->
<g id="Node000015" class="node">
<title>Node15</title>
<g id="a_Node000015"><a xlink:href="RetryableRequestMessageState_8cc.html" target="_top" xlink:title=" ">
<polygon fill="white" stroke="#666666" points="1997.53,-173 1813.53,-173 1813.53,-132 1997.53,-132 1997.53,-173"/>
<text text-anchor="start" x="1821.53" y="-161" font-family="Helvetica,sans-Serif" font-size="10.00">src/Utilities/StateMachine</text>
<text text-anchor="start" x="1821.53" y="-150" font-family="Helvetica,sans-Serif" font-size="10.00">/States/RetryableRequestMessage</text>
<text text-anchor="middle" x="1905.53" y="-139" font-family="Helvetica,sans-Serif" font-size="10.00">State.cc</text>
</a>
</g>
</g>
<!-- Node2&#45;&gt;Node15 -->
<g id="edge14_Node000002_Node000015" class="edge">
<title>Node2&#45;&gt;Node15</title>
<g id="a_edge14_Node000002_Node000015"><a xlink:title=" ">
<path fill="none" stroke="#63b8ff" d="M1643.46,-206.91C1694.17,-196.58 1760.24,-183.11 1813.35,-172.29"/>
<polygon fill="#63b8ff" stroke="#63b8ff" points="1642.64,-203.51 1633.54,-208.94 1644.03,-210.37 1642.64,-203.51"/>
</a>
</g>
</g>
<!-- Node16 -->
<g id="Node000016" class="node">
<title>Node16</title>
<g id="a_Node000016"><a xlink:href="SubMachineState_8cc.html" target="_top" xlink:title=" ">
<polygon fill="white" stroke="#666666" points="2167.53,-167.5 2015.53,-167.5 2015.53,-137.5 2167.53,-137.5 2167.53,-167.5"/>
<text text-anchor="start" x="2023.53" y="-155.5" font-family="Helvetica,sans-Serif" font-size="10.00">src/Utilities/StateMachine</text>
<text text-anchor="middle" x="2091.53" y="-144.5" font-family="Helvetica,sans-Serif" font-size="10.00">/States/SubMachineState.cc</text>
</a>
</g>
</g>
<!-- Node2&#45;&gt;Node16 -->
<g id="edge15_Node000002_Node000016" class="edge">
<title>Node2&#45;&gt;Node16</title>
<g id="a_edge15_Node000002_Node000016"><a xlink:title=" ">
<path fill="none" stroke="#63b8ff" d="M1645.71,-216.58C1734.66,-208.91 1881.37,-194.37 2006.53,-173 2015.63,-171.45 2025.22,-169.53 2034.55,-167.5"/>
<polygon fill="#63b8ff" stroke="#63b8ff" points="1645.35,-213.1 1635.69,-217.44 1645.95,-220.08 1645.35,-213.1"/>
</a>
</g>
</g>
<!-- Node17 -->
<g id="Node000017" class="node">
<title>Node17</title>
<g id="a_Node000017"><a xlink:href="WaitStateBase_8cc.html" target="_top" xlink:title=" ">
<polygon fill="white" stroke="#666666" points="2327.53,-167.5 2185.53,-167.5 2185.53,-137.5 2327.53,-137.5 2327.53,-167.5"/>
<text text-anchor="start" x="2193.53" y="-155.5" font-family="Helvetica,sans-Serif" font-size="10.00">src/Utilities/StateMachine</text>
<text text-anchor="middle" x="2256.53" y="-144.5" font-family="Helvetica,sans-Serif" font-size="10.00">/States/WaitStateBase.cc</text>
</a>
</g>
</g>
<!-- Node2&#45;&gt;Node17 -->
<g id="edge16_Node000002_Node000017" class="edge">
<title>Node2&#45;&gt;Node17</title>
<g id="a_edge16_Node000002_Node000017"><a xlink:title=" ">
<path fill="none" stroke="#63b8ff" d="M1645.66,-220.44C1763.31,-215.81 1987.87,-203.51 2176.53,-173 2185.42,-171.56 2194.78,-169.65 2203.84,-167.59"/>
<polygon fill="#63b8ff" stroke="#63b8ff" points="1645.5,-216.94 1635.64,-220.82 1645.77,-223.94 1645.5,-216.94"/>
</a>
</g>
</g>
<!-- Node18 -->
<g id="Node000018" class="node">
<title>Node18</title>
<g id="a_Node000018"><a xlink:href="QGCAbstractTransition_8cc.html" target="_top" xlink:title=" ">
<polygon fill="white" stroke="#666666" points="2543.53,-167.5 2345.53,-167.5 2345.53,-137.5 2543.53,-137.5 2543.53,-167.5"/>
<text text-anchor="start" x="2353.53" y="-155.5" font-family="Helvetica,sans-Serif" font-size="10.00">src/Utilities/StateMachine</text>
<text text-anchor="middle" x="2444.53" y="-144.5" font-family="Helvetica,sans-Serif" font-size="10.00">/Transitions/QGCAbstractTransition.cc</text>
</a>
</g>
</g>
<!-- Node2&#45;&gt;Node18 -->
<g id="edge17_Node000002_Node000018" class="edge">
<title>Node2&#45;&gt;Node18</title>
<g id="a_edge17_Node000002_Node000018"><a xlink:title=" ">
<path fill="none" stroke="#63b8ff" d="M1645.85,-220.78C1786.89,-216.25 2085.84,-203.65 2336.53,-173 2348.54,-171.53 2361.24,-169.59 2373.54,-167.51"/>
<polygon fill="#63b8ff" stroke="#63b8ff" points="1645.45,-217.29 1635.56,-221.1 1645.67,-224.29 1645.45,-217.29"/>
</a>
</g>
</g>
<!-- Node19 -->
<g id="Node000019" class="node">
<title>Node19</title>
<g id="a_Node000019"><a xlink:href="QGCSignalTransition_8cc.html" target="_top" xlink:title=" ">
<polygon fill="white" stroke="#666666" points="2749.53,-167.5 2561.53,-167.5 2561.53,-137.5 2749.53,-137.5 2749.53,-167.5"/>
<text text-anchor="start" x="2569.53" y="-155.5" font-family="Helvetica,sans-Serif" font-size="10.00">src/Utilities/StateMachine</text>
<text text-anchor="middle" x="2655.53" y="-144.5" font-family="Helvetica,sans-Serif" font-size="10.00">/Transitions/QGCSignalTransition.cc</text>
</a>
</g>
</g>
<!-- Node2&#45;&gt;Node19 -->
<g id="edge18_Node000002_Node000019" class="edge">
<title>Node2&#45;&gt;Node19</title>
<g id="a_edge18_Node000002_Node000019"><a xlink:title=" ">
<path fill="none" stroke="#63b8ff" d="M1645.88,-222.63C1815.21,-221.05 2217.66,-212.98 2552.53,-173 2564.28,-171.6 2576.7,-169.65 2588.69,-167.52"/>
<polygon fill="#63b8ff" stroke="#63b8ff" points="1645.77,-219.13 1635.8,-222.72 1645.83,-226.13 1645.77,-219.13"/>
</a>
</g>
</g>
<!-- Node20 -->
<g id="Node000020" class="node">
<title>Node20</title>
<g id="a_Node000020"><a xlink:href="ComponentInformationManager_8h.html" target="_top" xlink:title=" ">
<polygon fill="white" stroke="#666666" points="2579.03,-96 2394.03,-96 2394.03,-66 2579.03,-66 2579.03,-96"/>
<text text-anchor="start" x="2402.03" y="-84" font-family="Helvetica,sans-Serif" font-size="10.00">src/Vehicle/ComponentInformation</text>
<text text-anchor="middle" x="2486.53" y="-73" font-family="Helvetica,sans-Serif" font-size="10.00">/ComponentInformationManager.h</text>
</a>
</g>
</g>
<!-- Node2&#45;&gt;Node20 -->
<g id="edge19_Node000002_Node000020" class="edge">
<title>Node2&#45;&gt;Node20</title>
<g id="a_edge19_Node000002_Node000020"><a xlink:title=" ">
<path fill="none" stroke="#63b8ff" d="M1483.12,-223.42C1174.69,-224.62 92.95,-225.1 42.53,-173 29.86,-159.91 29.76,-145 42.53,-132 83.25,-90.57 2075.46,-97.65 2133.53,-96 2221.97,-93.49 2322.82,-89.36 2394.02,-86.24"/>
<polygon fill="#63b8ff" stroke="#63b8ff" points="1483.34,-226.92 1493.32,-223.38 1483.31,-219.92 1483.34,-226.92"/>
</a>
</g>
</g>
<!-- Node26 -->
<g id="Node000026" class="node">
<title>Node26</title>
<g id="a_Node000026"><a xlink:href="RequestMetaDataTypeStateMachine_8h.html" target="_top" xlink:title=" ">
<polygon fill="white" stroke="#666666" points="2973.53,-167.5 2767.53,-167.5 2767.53,-137.5 2973.53,-137.5 2973.53,-167.5"/>
<text text-anchor="start" x="2775.53" y="-155.5" font-family="Helvetica,sans-Serif" font-size="10.00">src/Vehicle/ComponentInformation</text>
<text text-anchor="middle" x="2870.53" y="-144.5" font-family="Helvetica,sans-Serif" font-size="10.00">/RequestMetaDataTypeStateMachine.h</text>
</a>
</g>
</g>
<!-- Node2&#45;&gt;Node26 -->
<g id="edge26_Node000002_Node000026" class="edge">
<title>Node2&#45;&gt;Node26</title>
<g id="a_edge26_Node000002_Node000026"><a xlink:title=" ">
<path fill="none" stroke="#63b8ff" d="M1645.84,-223.25C1839.28,-223.03 2341.81,-217.81 2758.53,-173 2771.38,-171.62 2784.99,-169.67 2798.13,-167.53"/>
<polygon fill="#63b8ff" stroke="#63b8ff" points="1645.76,-219.75 1635.76,-223.25 1645.76,-226.75 1645.76,-219.75"/>
</a>
</g>
</g>
<!-- Node27 -->
<g id="Node000027" class="node">
<title>Node27</title>
<g id="a_Node000027"><a xlink:href="InitialConnectStateMachine_8h.html" target="_top" xlink:title=" ">
<polygon fill="white" stroke="#666666" points="2124.53,-96 1984.53,-96 1984.53,-66 2124.53,-66 2124.53,-96"/>
<text text-anchor="start" x="1992.53" y="-84" font-family="Helvetica,sans-Serif" font-size="10.00">src/Vehicle/InitialConnect</text>
<text text-anchor="middle" x="2054.53" y="-73" font-family="Helvetica,sans-Serif" font-size="10.00">StateMachine.h</text>
</a>
</g>
</g>
<!-- Node2&#45;&gt;Node27 -->
<g id="edge29_Node000002_Node000027" class="edge">
<title>Node2&#45;&gt;Node27</title>
<g id="a_edge29_Node000002_Node000027"><a xlink:title=" ">
<path fill="none" stroke="#63b8ff" d="M1482.94,-223.48C1169.99,-224.94 61.14,-226.3 9.53,-173 -3.15,-159.91 -3.2,-145.04 9.53,-132 44.76,-95.9 1628.91,-84.49 1984.28,-82.38"/>
<polygon fill="#63b8ff" stroke="#63b8ff" points="1483.31,-226.98 1493.3,-223.43 1483.28,-219.98 1483.31,-226.98"/>
</a>
</g>
</g>
<!-- Node20&#45;&gt;Node3 -->
<g id="edge20_Node000020_Node000003" class="edge">
<title>Node20&#45;&gt;Node3</title>
<g id="a_edge20_Node000020_Node000003"><a xlink:title=" ">
<path fill="none" stroke="#63b8ff" d="M2589.42,-69.8C2677.49,-60.67 2807.58,-46.25 2920.53,-30 2923.64,-29.55 2926.81,-29.08 2930.01,-28.59"/>
<polygon fill="#63b8ff" stroke="#63b8ff" points="2589.02,-66.32 2579.43,-70.83 2589.74,-73.29 2589.02,-66.32"/>
</a>
</g>
</g>
<!-- Node21 -->
<g id="Node000021" class="node">
<title>Node21</title>
<g id="a_Node000021"><a xlink:href="CompInfoGeneral_8cc.html" target="_top" xlink:title=" ">
<polygon fill="white" stroke="#666666" points="2477.03,-30 2292.03,-30 2292.03,0 2477.03,0 2477.03,-30"/>
<text text-anchor="start" x="2300.03" y="-18" font-family="Helvetica,sans-Serif" font-size="10.00">src/Vehicle/ComponentInformation</text>
<text text-anchor="middle" x="2384.53" y="-7" font-family="Helvetica,sans-Serif" font-size="10.00">/CompInfoGeneral.cc</text>
</a>
</g>
</g>
<!-- Node20&#45;&gt;Node21 -->
<g id="edge21_Node000020_Node000021" class="edge">
<title>Node20&#45;&gt;Node21</title>
<g id="a_edge21_Node000020_Node000021"><a xlink:title=" ">
<path fill="none" stroke="#63b8ff" d="M2455.32,-60.42C2439.67,-50.6 2421.07,-38.93 2406.86,-30.01"/>
<polygon fill="#63b8ff" stroke="#63b8ff" points="2453.81,-63.6 2464.14,-65.95 2457.53,-57.68 2453.81,-63.6"/>
</a>
</g>
</g>
<!-- Node22 -->
<g id="Node000022" class="node">
<title>Node22</title>
<g id="a_Node000022"><a xlink:href="ComponentInformationManager_8cc.html" target="_top" xlink:title=" ">
<polygon fill="white" stroke="#666666" points="2683.53,-30 2495.53,-30 2495.53,0 2683.53,0 2683.53,-30"/>
<text text-anchor="start" x="2503.53" y="-18" font-family="Helvetica,sans-Serif" font-size="10.00">src/Vehicle/ComponentInformation</text>
<text text-anchor="middle" x="2589.53" y="-7" font-family="Helvetica,sans-Serif" font-size="10.00">/ComponentInformationManager.cc</text>
</a>
</g>
</g>
<!-- Node20&#45;&gt;Node22 -->
<g id="edge22_Node000020_Node000022" class="edge">
<title>Node20&#45;&gt;Node22</title>
<g id="a_edge22_Node000020_Node000022"><a xlink:title=" ">
<path fill="none" stroke="#63b8ff" d="M2518.04,-60.42C2533.85,-50.6 2552.63,-38.93 2566.98,-30.01"/>
<polygon fill="#63b8ff" stroke="#63b8ff" points="2515.78,-57.7 2509.13,-65.95 2519.47,-63.65 2515.78,-57.7"/>
</a>
</g>
</g>
<!-- Node23 -->
<g id="Node000023" class="node">
<title>Node23</title>
<g id="a_Node000023"><a xlink:href="RequestMetaDataTypeStateMachine_8cc.html" target="_top" xlink:title=" ">
<polygon fill="white" stroke="#666666" points="2911.53,-30 2701.53,-30 2701.53,0 2911.53,0 2911.53,-30"/>
<text text-anchor="start" x="2709.53" y="-18" font-family="Helvetica,sans-Serif" font-size="10.00">src/Vehicle/ComponentInformation</text>
<text text-anchor="middle" x="2806.53" y="-7" font-family="Helvetica,sans-Serif" font-size="10.00">/RequestMetaDataTypeStateMachine.cc</text>
</a>
</g>
</g>
<!-- Node20&#45;&gt;Node23 -->
<g id="edge23_Node000020_Node000023" class="edge">
<title>Node20&#45;&gt;Node23</title>
<g id="a_edge23_Node000020_Node000023"><a xlink:title=" ">
<path fill="none" stroke="#63b8ff" d="M2566.65,-63.98C2618.88,-53.53 2686.38,-40.03 2736.47,-30.01"/>
<polygon fill="#63b8ff" stroke="#63b8ff" points="2565.87,-60.56 2556.75,-65.95 2567.25,-67.43 2565.87,-60.56"/>
</a>
</g>
</g>
<!-- Node24 -->
<g id="Node000024" class="node">
<title>Node24</title>
<g id="a_Node000024"><a xlink:href="InitialConnectStateMachine_8cc.html" target="_top" xlink:title=" ">
<polygon fill="white" stroke="#666666" points="2273.53,-30 2133.53,-30 2133.53,0 2273.53,0 2273.53,-30"/>
<text text-anchor="start" x="2141.53" y="-18" font-family="Helvetica,sans-Serif" font-size="10.00">src/Vehicle/InitialConnect</text>
<text text-anchor="middle" x="2203.53" y="-7" font-family="Helvetica,sans-Serif" font-size="10.00">StateMachine.cc</text>
</a>
</g>
</g>
<!-- Node20&#45;&gt;Node24 -->
<g id="edge24_Node000020_Node000024" class="edge">
<title>Node20&#45;&gt;Node24</title>
<g id="a_edge24_Node000020_Node000024"><a xlink:title=" ">
<path fill="none" stroke="#63b8ff" d="M2414.51,-63.71C2368.49,-53.31 2309.42,-39.95 2265.49,-30.01"/>
<polygon fill="#63b8ff" stroke="#63b8ff" points="2413.9,-67.16 2424.42,-65.95 2415.44,-60.34 2413.9,-67.16"/>
</a>
</g>
</g>
<!-- Node25 -->
<g id="Node000025" class="node">
<title>Node25</title>
<g id="a_Node000025"><a xlink:href="Vehicle_8cc.html" target="_top" xlink:title=" ">
<polygon fill="white" stroke="#666666" points="2115.03,-24.5 1994.03,-24.5 1994.03,-5.5 2115.03,-5.5 2115.03,-24.5"/>
<text text-anchor="middle" x="2054.53" y="-12.5" font-family="Helvetica,sans-Serif" font-size="10.00">src/Vehicle/Vehicle.cc</text>
</a>
</g>
</g>
<!-- Node20&#45;&gt;Node25 -->
<g id="edge25_Node000020_Node000025" class="edge">
<title>Node20&#45;&gt;Node25</title>
<g id="a_edge25_Node000020_Node000025"><a xlink:title=" ">
<path fill="none" stroke="#63b8ff" d="M2383.61,-67.46C2311.02,-58.2 2211.61,-44.71 2124.53,-30 2115,-28.39 2104.78,-26.46 2095.17,-24.56"/>
<polygon fill="#63b8ff" stroke="#63b8ff" points="2383.31,-70.95 2393.67,-68.74 2384.19,-64 2383.31,-70.95"/>
</a>
</g>
</g>
<!-- Node26&#45;&gt;Node20 -->
<g id="edge27_Node000026_Node000020" class="edge">
<title>Node26&#45;&gt;Node20</title>
<g id="a_edge27_Node000026_Node000020"><a xlink:title=" ">
<path fill="none" stroke="#63b8ff" d="M2782.86,-135.63C2716.94,-123.7 2627.46,-107.51 2564.12,-96.04"/>
<polygon fill="#63b8ff" stroke="#63b8ff" points="2782.36,-139.1 2792.82,-137.44 2783.6,-132.21 2782.36,-139.1"/>
</a>
</g>
</g>
<!-- Node26&#45;&gt;Node23 -->
<g id="edge28_Node000026_Node000023" class="edge">
<title>Node26&#45;&gt;Node23</title>
<g id="a_edge28_Node000026_Node000023"><a xlink:title=" ">
<path fill="none" stroke="#63b8ff" d="M2859.48,-128.1C2846.14,-99.85 2824.13,-53.27 2813.17,-30.05"/>
<polygon fill="#63b8ff" stroke="#63b8ff" points="2856.37,-129.71 2863.8,-137.26 2862.69,-126.72 2856.37,-129.71"/>
</a>
</g>
</g>
<!-- Node27&#45;&gt;Node24 -->
<g id="edge30_Node000027_Node000024" class="edge">
<title>Node27&#45;&gt;Node24</title>
<g id="a_edge30_Node000027_Node000024"><a xlink:title=" ">
<path fill="none" stroke="#63b8ff" d="M2096.62,-61.92C2120.17,-51.8 2149.09,-39.38 2170.91,-30.01"/>
<polygon fill="#63b8ff" stroke="#63b8ff" points="2095.03,-58.79 2087.23,-65.95 2097.8,-65.22 2095.03,-58.79"/>
</a>
</g>
</g>
<!-- Node27&#45;&gt;Node25 -->
<g id="edge31_Node000027_Node000025" class="edge">
<title>Node27&#45;&gt;Node25</title>
<g id="a_edge31_Node000027_Node000025"><a xlink:title=" ">
<path fill="none" stroke="#63b8ff" d="M2054.53,-55.6C2054.53,-44.8 2054.53,-32.78 2054.53,-24.84"/>
<polygon fill="#63b8ff" stroke="#63b8ff" points="2051.03,-55.8 2054.53,-65.8 2058.03,-55.8 2051.03,-55.8"/>
</a>
</g>
</g>
</g>
</svg>
