<?xml version="1.0" encoding="UTF-8" standalone="no"?>
<!DOCTYPE svg PUBLIC "-//W3C//DTD SVG 1.1//EN"
 "http://www.w3.org/Graphics/SVG/1.1/DTD/svg11.dtd">
<!-- Generated by graphviz version 2.43.0 (0)
 -->
<!-- Title: src/Utilities/Compression/QGClibarchive.cc Pages: 1 -->
<!--zoomable 203 -->

<svg id="main" version="1.1" xmlns="http://www.w3.org/2000/svg" xmlns:xlink="http://www.w3.org/1999/xlink" xml:space="preserve" onload="init(evt)">
<style type="text/css"><![CDATA[
.node, .edge {opacity: 0.7;}
.node.selected, .edge.selected {opacity: 1;}
.edge:hover path { stroke: red; }
.edge:hover polygon { stroke: red; fill: red; }
]]></style>

<defs>
  <circle id="rim" cx="0" cy="0" r="7"/>
  <circle id="rim2" cx="0" cy="0" r="3.5"/>
  <g id="zoomPlus">
    <use xlink:href="#rim" fill="#404040"><set attributeName="fill" to="#808080" begin="zoomplus.mouseover" end="zoomplus.mouseout"/></use>
    <path d="M-4,0h8M0,-4v8" fill="none" stroke="white" stroke-width="1.5" pointer-events="none"/>
  </g>
  <g id="zoomMin">
    <use xlink:href="#rim" fill="#404040"><set attributeName="fill" to="#808080" begin="zoomminus.mouseover" end="zoomminus.mouseout"/></use>
    <path d="M-4,0h8" fill="none" stroke="white" stroke-width="1.5" pointer-events="none"/>
  </g>
  <g id="arrowUp" transform="translate(30 24)">
    <use xlink:href="#rim"/>
    <path pointer-events="none" fill="none" stroke="white" stroke-width="1.5" d="M0,-3.0v7 M-2.5,-0.5L0,-3.0L2.5,-0.5"/>
  </g>
  <g id="arrowRight" transform="rotate(90) translate(36 -43)">
    <use xlink:href="#rim"/>
    <path pointer-events="none" fill="none" stroke="white" stroke-width="1.5" d="M0,-3.0v7 M-2.5,-0.5L0,-3.0L2.5,-0.5"/>
  </g>
  <g id="arrowDown" transform="rotate(180) translate(-30 -48)">
    <use xlink:href="#rim"/>
    <path pointer-events="none" fill="none" stroke="white" stroke-width="1.5" d="M0,-3.0v7 M-2.5,-0.5L0,-3.0L2.5,-0.5"/>
  </g>
  <g id="arrowLeft" transform="rotate(270) translate(-36 17)">
    <use xlink:href="#rim"/>
    <path pointer-events="none" fill="none" stroke="white" stroke-width="1.5" d="M0,-3.0v7 M-2.5,-0.5L0,-3.0L2.5,-0.5"/>
  </g>
  <g id="resetDef">
    <use xlink:href="#rim2" fill="#404040"><set attributeName="fill" to="#808080" begin="reset.mouseover" end="reset.mouseout"/></use>
  </g>
</defs>
<script type="application/ecmascript">
var viewWidth = 2228;
var viewHeight = 203;
var sectionId = 'dynsection-0';
</script>
<script type="application/ecmascript" xlink:href="svg.min.js"/>
<svg id="graph" class="graph">
<g id="viewport">
<title>src/Utilities/Compression/QGClibarchive.cc</title>
<!-- Node1 -->
<g id="Node000001" class="node">
<title>Node1</title>
<g id="a_Node000001"><a xlink:title=" ">
<polygon fill="#999999" stroke="#666666" points="1104,-195 965,-195 965,-165 1104,-165 1104,-195"/>
<text text-anchor="start" x="973" y="-183" font-family="Helvetica,sans-Serif" font-size="10.00">src/Utilities/Compression</text>
<text text-anchor="middle" x="1034.5" y="-172" font-family="Helvetica,sans-Serif" font-size="10.00">/QGClibarchive.cc</text>
</a>
</g>
</g>
<!-- Node2 -->
<g id="Node000002" class="node">
<title>Node2</title>
<g id="a_Node000002"><a xlink:href="QGClibarchive_8h.html" target="_top" xlink:title="Private implementation details for QGCCompression.">
<polygon fill="white" stroke="#666666" points="575,-129 480,-129 480,-110 575,-110 575,-129"/>
<text text-anchor="middle" x="527.5" y="-117" font-family="Helvetica,sans-Serif" font-size="10.00">QGClibarchive.h</text>
</a>
</g>
</g>
<!-- Node1&#45;&gt;Node2 -->
<g id="edge1_Node000001_Node000002" class="edge">
<title>Node1&#45;&gt;Node2</title>
<g id="a_edge1_Node000001_Node000002"><a xlink:title=" ">
<path fill="none" stroke="#63b8ff" d="M964.8,-170.96C863.95,-159.32 679.16,-138 585.38,-127.18"/>
<polygon fill="#63b8ff" stroke="#63b8ff" points="585.57,-123.68 575.23,-126.01 584.76,-130.63 585.57,-123.68"/>
</a>
</g>
</g>
<!-- Node12 -->
<g id="Node000012" class="node">
<title>Node12</title>
<g id="a_Node000012"><a xlink:title=" ">
<polygon fill="#e0e0e0" stroke="#999999" points="617.5,-74 555.5,-74 555.5,-55 617.5,-55 617.5,-74"/>
<text text-anchor="middle" x="586.5" y="-62" font-family="Helvetica,sans-Serif" font-size="10.00">archive.h</text>
</a>
</g>
</g>
<!-- Node1&#45;&gt;Node12 -->
<g id="edge18_Node000001_Node000012" class="edge">
<title>Node1&#45;&gt;Node12</title>
<g id="a_edge18_Node000001_Node000012"><a xlink:title=" ">
<path fill="none" stroke="#63b8ff" d="M964.69,-175.03C897.4,-169.66 793.43,-157.24 707.5,-129 670.49,-116.84 631.18,-94.15 607.74,-79.45"/>
<polygon fill="#63b8ff" stroke="#63b8ff" points="609.6,-76.48 599.29,-74.06 605.84,-82.39 609.6,-76.48"/>
</a>
</g>
</g>
<!-- Node13 -->
<g id="Node000013" class="node">
<title>Node13</title>
<g id="a_Node000013"><a xlink:title=" ">
<polygon fill="#e0e0e0" stroke="#999999" points="792,-129 717,-129 717,-110 792,-110 792,-129"/>
<text text-anchor="middle" x="754.5" y="-117" font-family="Helvetica,sans-Serif" font-size="10.00">QtCore/QDir</text>
</a>
</g>
</g>
<!-- Node1&#45;&gt;Node13 -->
<g id="edge13_Node000001_Node000013" class="edge">
<title>Node1&#45;&gt;Node13</title>
<g id="a_edge13_Node000001_Node000013"><a xlink:title=" ">
<path fill="none" stroke="#63b8ff" d="M967.43,-164.99C916.44,-154.33 847.55,-139.94 802.11,-130.45"/>
<polygon fill="#63b8ff" stroke="#63b8ff" points="802.72,-127 792.22,-128.38 801.29,-133.85 802.72,-127"/>
</a>
</g>
</g>
<!-- Node14 -->
<g id="Node000014" class="node">
<title>Node14</title>
<g id="a_Node000014"><a xlink:title=" ">
<polygon fill="#e0e0e0" stroke="#999999" points="907,-129 810,-129 810,-110 907,-110 907,-129"/>
<text text-anchor="middle" x="858.5" y="-117" font-family="Helvetica,sans-Serif" font-size="10.00">QtCore/QFileInfo</text>
</a>
</g>
</g>
<!-- Node1&#45;&gt;Node14 -->
<g id="edge14_Node000001_Node000014" class="edge">
<title>Node1&#45;&gt;Node14</title>
<g id="a_edge14_Node000001_Node000014"><a xlink:title=" ">
<path fill="none" stroke="#63b8ff" d="M992.34,-164.99C962.23,-154.98 922.19,-141.67 893.77,-132.22"/>
<polygon fill="#63b8ff" stroke="#63b8ff" points="894.83,-128.89 884.23,-129.05 892.62,-135.53 894.83,-128.89"/>
</a>
</g>
</g>
<!-- Node15 -->
<g id="Node000015" class="node">
<title>Node15</title>
<g id="a_Node000015"><a xlink:title=" ">
<polygon fill="#e0e0e0" stroke="#999999" points="1027.5,-129 925.5,-129 925.5,-110 1027.5,-110 1027.5,-129"/>
<text text-anchor="middle" x="976.5" y="-117" font-family="Helvetica,sans-Serif" font-size="10.00">QtCore/QSaveFile</text>
</a>
</g>
</g>
<!-- Node1&#45;&gt;Node15 -->
<g id="edge15_Node000001_Node000015" class="edge">
<title>Node1&#45;&gt;Node15</title>
<g id="a_edge15_Node000001_Node000015"><a xlink:title=" ">
<path fill="none" stroke="#63b8ff" d="M1020.46,-164.84C1011.95,-156.26 1001.09,-145.3 992.28,-136.42"/>
<polygon fill="#63b8ff" stroke="#63b8ff" points="994.72,-133.9 985.19,-129.27 989.75,-138.83 994.72,-133.9"/>
</a>
</g>
</g>
<!-- Node16 -->
<g id="Node000016" class="node">
<title>Node16</title>
<g id="a_Node000016"><a xlink:title=" ">
<polygon fill="#e0e0e0" stroke="#999999" points="1530,-74 1453,-74 1453,-55 1530,-55 1530,-74"/>
<text text-anchor="middle" x="1491.5" y="-62" font-family="Helvetica,sans-Serif" font-size="10.00">QtCore/QSet</text>
</a>
</g>
</g>
<!-- Node1&#45;&gt;Node16 -->
<g id="edge16_Node000001_Node000016" class="edge">
<title>Node1&#45;&gt;Node16</title>
<g id="a_edge16_Node000001_Node000016"><a xlink:title=" ">
<path fill="none" stroke="#63b8ff" d="M1104.24,-173.76C1196.13,-166.15 1352.34,-150.54 1405.5,-129 1432.74,-117.96 1459.2,-96.27 1475.41,-81.34"/>
<polygon fill="#63b8ff" stroke="#63b8ff" points="1478.05,-83.66 1482.9,-74.24 1473.24,-78.58 1478.05,-83.66"/>
</a>
</g>
</g>
<!-- Node17 -->
<g id="Node000017" class="node">
<title>Node17</title>
<g id="a_Node000017"><a xlink:title=" ">
<polygon fill="#e0e0e0" stroke="#999999" points="1287,-129 1160,-129 1160,-110 1287,-110 1287,-129"/>
<text text-anchor="middle" x="1223.5" y="-117" font-family="Helvetica,sans-Serif" font-size="10.00">QtCore/QTemporaryDir</text>
</a>
</g>
</g>
<!-- Node1&#45;&gt;Node17 -->
<g id="edge17_Node000001_Node000017" class="edge">
<title>Node1&#45;&gt;Node17</title>
<g id="a_edge17_Node000001_Node000017"><a xlink:title=" ">
<path fill="none" stroke="#63b8ff" d="M1079.77,-164.99C1112.25,-154.94 1155.49,-141.55 1186.03,-132.1"/>
<polygon fill="#63b8ff" stroke="#63b8ff" points="1187.35,-135.35 1195.87,-129.05 1185.28,-128.67 1187.35,-135.35"/>
</a>
</g>
</g>
<!-- Node18 -->
<g id="Node000018" class="node">
<title>Node18</title>
<g id="a_Node000018"><a xlink:title=" ">
<polygon fill="#e0e0e0" stroke="#999999" points="1396,-129 1305,-129 1305,-110 1396,-110 1396,-129"/>
<text text-anchor="middle" x="1350.5" y="-117" font-family="Helvetica,sans-Serif" font-size="10.00">archive_entry.h</text>
</a>
</g>
</g>
<!-- Node1&#45;&gt;Node18 -->
<g id="edge19_Node000001_Node000018" class="edge">
<title>Node1&#45;&gt;Node18</title>
<g id="a_edge19_Node000001_Node000018"><a xlink:title=" ">
<path fill="none" stroke="#63b8ff" d="M1104.24,-166.09C1161.61,-155.47 1241.84,-140.62 1294.94,-130.79"/>
<polygon fill="#63b8ff" stroke="#63b8ff" points="1295.66,-134.21 1304.86,-128.95 1294.39,-127.33 1295.66,-134.21"/>
</a>
</g>
</g>
<!-- Node19 -->
<g id="Node000019" class="node">
<title>Node19</title>
<g id="a_Node000019"><a xlink:href="QGCFileHelper_8h.html" target="_top" xlink:title=" ">
<polygon fill="white" stroke="#666666" points="1141.5,-129 1045.5,-129 1045.5,-110 1141.5,-110 1141.5,-129"/>
<text text-anchor="middle" x="1093.5" y="-117" font-family="Helvetica,sans-Serif" font-size="10.00">QGCFileHelper.h</text>
</a>
</g>
</g>
<!-- Node1&#45;&gt;Node19 -->
<g id="edge20_Node000001_Node000019" class="edge">
<title>Node1&#45;&gt;Node19</title>
<g id="a_edge20_Node000001_Node000019"><a xlink:title=" ">
<path fill="none" stroke="#63b8ff" d="M1048.78,-164.84C1057.43,-156.26 1068.49,-145.3 1077.44,-136.42"/>
<polygon fill="#63b8ff" stroke="#63b8ff" points="1080.02,-138.79 1084.66,-129.27 1075.09,-133.82 1080.02,-138.79"/>
</a>
</g>
</g>
<!-- Node24 -->
<g id="Node000024" class="node">
<title>Node24</title>
<g id="a_Node000024"><a xlink:href="QGCLoggingCategory_8h.html" target="_top" xlink:title=" ">
<polygon fill="white" stroke="#666666" points="1732.5,-129 1604.5,-129 1604.5,-110 1732.5,-110 1732.5,-129"/>
<text text-anchor="middle" x="1668.5" y="-117" font-family="Helvetica,sans-Serif" font-size="10.00">QGCLoggingCategory.h</text>
</a>
</g>
</g>
<!-- Node1&#45;&gt;Node24 -->
<g id="edge27_Node000001_Node000024" class="edge">
<title>Node1&#45;&gt;Node24</title>
<g id="a_edge27_Node000001_Node000024"><a xlink:title=" ">
<path fill="none" stroke="#63b8ff" d="M1104.16,-172.57C1224.62,-161.46 1470.76,-138.75 1594.3,-127.35"/>
<polygon fill="#63b8ff" stroke="#63b8ff" points="1594.78,-130.82 1604.42,-126.41 1594.14,-123.85 1594.78,-130.82"/>
</a>
</g>
</g>
<!-- Node3 -->
<g id="Node000003" class="node">
<title>Node3</title>
<g id="a_Node000003"><a xlink:href="QGCCompressionTypes_8h.html" target="_top" xlink:title="Shared type definitions for compression/archive operations.">
<polygon fill="white" stroke="#666666" points="154,-74 15,-74 15,-55 154,-55 154,-74"/>
<text text-anchor="middle" x="84.5" y="-62" font-family="Helvetica,sans-Serif" font-size="10.00">QGCCompressionTypes.h</text>
</a>
</g>
</g>
<!-- Node2&#45;&gt;Node3 -->
<g id="edge2_Node000002_Node000003" class="edge">
<title>Node2&#45;&gt;Node3</title>
<g id="a_edge2_Node000002_Node000003"><a xlink:title=" ">
<path fill="none" stroke="#63b8ff" d="M479.67,-112.78C404.09,-103.73 256.2,-86.04 164.33,-75.05"/>
<polygon fill="#63b8ff" stroke="#63b8ff" points="164.59,-71.56 154.24,-73.84 163.76,-78.51 164.59,-71.56"/>
</a>
</g>
</g>
<!-- Node5 -->
<g id="Node000005" class="node">
<title>Node5</title>
<g id="a_Node000005"><a xlink:title=" ">
<polygon fill="#e0e0e0" stroke="#999999" points="1020,-19 931,-19 931,0 1020,0 1020,-19"/>
<text text-anchor="middle" x="975.5" y="-7" font-family="Helvetica,sans-Serif" font-size="10.00">QtCore/QString</text>
</a>
</g>
</g>
<!-- Node2&#45;&gt;Node5 -->
<g id="edge10_Node000002_Node000005" class="edge">
<title>Node2&#45;&gt;Node5</title>
<g id="a_edge10_Node000002_Node000005"><a xlink:title=" ">
<path fill="none" stroke="#63b8ff" d="M527.29,-109.92C527.46,-95.99 530.02,-68.65 546.5,-55 574.78,-31.58 811.63,-17.92 920.79,-12.82"/>
<polygon fill="#63b8ff" stroke="#63b8ff" points="921.12,-16.31 930.95,-12.35 920.8,-9.31 921.12,-16.31"/>
</a>
</g>
</g>
<!-- Node7 -->
<g id="Node000007" class="node">
<title>Node7</title>
<g id="a_Node000007"><a xlink:title=" ">
<polygon fill="#e0e0e0" stroke="#999999" points="745.5,-74 635.5,-74 635.5,-55 745.5,-55 745.5,-74"/>
<text text-anchor="middle" x="690.5" y="-62" font-family="Helvetica,sans-Serif" font-size="10.00">QtCore/QByteArray</text>
</a>
</g>
</g>
<!-- Node2&#45;&gt;Node7 -->
<g id="edge6_Node000002_Node000007" class="edge">
<title>Node2&#45;&gt;Node7</title>
<g id="a_edge6_Node000002_Node000007"><a xlink:title=" ">
<path fill="none" stroke="#63b8ff" d="M553.69,-109.98C580.94,-101.13 623.8,-87.19 654.28,-77.28"/>
<polygon fill="#63b8ff" stroke="#63b8ff" points="655.68,-80.5 664.11,-74.08 653.51,-73.85 655.68,-80.5"/>
</a>
</g>
</g>
<!-- Node8 -->
<g id="Node000008" class="node">
<title>Node8</title>
<g id="a_Node000008"><a xlink:title=" ">
<polygon fill="#e0e0e0" stroke="#999999" points="250.5,-74 172.5,-74 172.5,-55 250.5,-55 250.5,-74"/>
<text text-anchor="middle" x="211.5" y="-62" font-family="Helvetica,sans-Serif" font-size="10.00">QtCore/QFile</text>
</a>
</g>
</g>
<!-- Node2&#45;&gt;Node8 -->
<g id="edge7_Node000002_Node000008" class="edge">
<title>Node2&#45;&gt;Node8</title>
<g id="a_edge7_Node000002_Node000008"><a xlink:title=" ">
<path fill="none" stroke="#63b8ff" d="M479.55,-110.7C428,-102.27 343.37,-88.34 260.61,-74.18"/>
<polygon fill="#63b8ff" stroke="#63b8ff" points="260.97,-70.69 250.53,-72.45 259.79,-77.59 260.97,-70.69"/>
</a>
</g>
</g>
<!-- Node9 -->
<g id="Node000009" class="node">
<title>Node9</title>
<g id="a_Node000009"><a xlink:title=" ">
<polygon fill="#e0e0e0" stroke="#999999" points="374,-74 269,-74 269,-55 374,-55 374,-74"/>
<text text-anchor="middle" x="321.5" y="-62" font-family="Helvetica,sans-Serif" font-size="10.00">QtCore/QIODevice</text>
</a>
</g>
</g>
<!-- Node2&#45;&gt;Node9 -->
<g id="edge8_Node000002_Node000009" class="edge">
<title>Node2&#45;&gt;Node9</title>
<g id="a_edge8_Node000002_Node000009"><a xlink:title=" ">
<path fill="none" stroke="#63b8ff" d="M494.4,-109.98C459.22,-100.93 403.43,-86.58 364.78,-76.64"/>
<polygon fill="#63b8ff" stroke="#63b8ff" points="365.41,-73.18 354.86,-74.08 363.67,-79.96 365.41,-73.18"/>
</a>
</g>
</g>
<!-- Node10 -->
<g id="Node000010" class="node">
<title>Node10</title>
<g id="a_Node000010"><a xlink:title=" ">
<polygon fill="#e0e0e0" stroke="#999999" points="1396,-74 1253,-74 1253,-55 1396,-55 1396,-74"/>
<text text-anchor="middle" x="1324.5" y="-62" font-family="Helvetica,sans-Serif" font-size="10.00">QtCore/QLoggingCategory</text>
</a>
</g>
</g>
<!-- Node2&#45;&gt;Node10 -->
<g id="edge9_Node000002_Node000010" class="edge">
<title>Node2&#45;&gt;Node10</title>
<g id="a_edge9_Node000002_Node000010"><a xlink:title=" ">
<path fill="none" stroke="#63b8ff" d="M575.31,-116.23C688.93,-110.69 984.25,-95.4 1242.63,-74.03"/>
<polygon fill="#63b8ff" stroke="#63b8ff" points="1243.29,-77.49 1252.96,-73.17 1242.71,-70.51 1243.29,-77.49"/>
</a>
</g>
</g>
<!-- Node11 -->
<g id="Node000011" class="node">
<title>Node11</title>
<g id="a_Node000011"><a xlink:title=" ">
<polygon fill="#e0e0e0" stroke="#999999" points="499,-74 392,-74 392,-55 499,-55 499,-74"/>
<text text-anchor="middle" x="445.5" y="-62" font-family="Helvetica,sans-Serif" font-size="10.00">QtCore/QStringList</text>
</a>
</g>
</g>
<!-- Node2&#45;&gt;Node11 -->
<g id="edge11_Node000002_Node000011" class="edge">
<title>Node2&#45;&gt;Node11</title>
<g id="a_edge11_Node000002_Node000011"><a xlink:title=" ">
<path fill="none" stroke="#63b8ff" d="M514.33,-109.98C501.73,-101.84 482.5,-89.41 467.56,-79.76"/>
<polygon fill="#63b8ff" stroke="#63b8ff" points="469.21,-76.66 458.91,-74.17 465.41,-82.54 469.21,-76.66"/>
</a>
</g>
</g>
<!-- Node2&#45;&gt;Node12 -->
<g id="edge12_Node000002_Node000012" class="edge">
<title>Node2&#45;&gt;Node12</title>
<g id="a_edge12_Node000002_Node000012"><a xlink:title=" ">
<path fill="none" stroke="#63b8ff" d="M536.98,-109.98C545.7,-102.15 558.84,-90.34 569.4,-80.86"/>
<polygon fill="#63b8ff" stroke="#63b8ff" points="571.75,-83.46 576.85,-74.17 567.07,-78.25 571.75,-83.46"/>
</a>
</g>
</g>
<!-- Node4 -->
<g id="Node000004" class="node">
<title>Node4</title>
<g id="a_Node000004"><a xlink:title=" ">
<polygon fill="#e0e0e0" stroke="#999999" points="192,-19 83,-19 83,0 192,0 192,-19"/>
<text text-anchor="middle" x="137.5" y="-7" font-family="Helvetica,sans-Serif" font-size="10.00">QtCore/QDateTime</text>
</a>
</g>
</g>
<!-- Node3&#45;&gt;Node4 -->
<g id="edge3_Node000003_Node000004" class="edge">
<title>Node3&#45;&gt;Node4</title>
<g id="a_edge3_Node000003_Node000004"><a xlink:title=" ">
<path fill="none" stroke="#63b8ff" d="M93.25,-54.75C100.97,-47.03 112.4,-35.6 121.72,-26.28"/>
<polygon fill="#63b8ff" stroke="#63b8ff" points="124.31,-28.64 128.91,-19.09 119.36,-23.69 124.31,-28.64"/>
</a>
</g>
</g>
<!-- Node3&#45;&gt;Node5 -->
<g id="edge4_Node000003_Node000005" class="edge">
<title>Node3&#45;&gt;Node5</title>
<g id="a_edge4_Node000003_Node000005"><a xlink:title=" ">
<path fill="none" stroke="#63b8ff" d="M154.27,-55.79C157.39,-55.51 160.48,-55.25 163.5,-55 448.14,-31.9 789.91,-17.52 920.83,-12.51"/>
<polygon fill="#63b8ff" stroke="#63b8ff" points="921.13,-16 930.99,-12.12 920.87,-9 921.13,-16"/>
</a>
</g>
</g>
<!-- Node6 -->
<g id="Node000006" class="node">
<title>Node6</title>
<g id="a_Node000006"><a xlink:title=" ">
<polygon fill="#e0e0e0" stroke="#999999" points="65,-19 0,-19 0,0 65,0 65,-19"/>
<text text-anchor="middle" x="32.5" y="-7" font-family="Helvetica,sans-Serif" font-size="10.00">functional</text>
</a>
</g>
</g>
<!-- Node3&#45;&gt;Node6 -->
<g id="edge5_Node000003_Node000006" class="edge">
<title>Node3&#45;&gt;Node6</title>
<g id="a_edge5_Node000003_Node000006"><a xlink:title=" ">
<path fill="none" stroke="#63b8ff" d="M75.91,-54.75C68.34,-47.03 57.12,-35.6 47.99,-26.28"/>
<polygon fill="#63b8ff" stroke="#63b8ff" points="50.43,-23.78 40.93,-19.09 45.43,-28.68 50.43,-23.78"/>
</a>
</g>
</g>
<!-- Node19&#45;&gt;Node5 -->
<g id="edge23_Node000019_Node000005" class="edge">
<title>Node19&#45;&gt;Node5</title>
<g id="a_edge23_Node000019_Node000005"><a xlink:title=" ">
<path fill="none" stroke="#63b8ff" d="M1141.7,-111.29C1144.68,-110.85 1147.63,-110.42 1150.5,-110 1265.24,-93.35 1483.15,-141.1 1405.5,-55 1380.82,-27.63 1140.89,-16.06 1030.53,-12.16"/>
<polygon fill="#63b8ff" stroke="#63b8ff" points="1030.38,-8.66 1020.27,-11.81 1030.14,-15.65 1030.38,-8.66"/>
</a>
</g>
</g>
<!-- Node19&#45;&gt;Node7 -->
<g id="edge21_Node000019_Node000007" class="edge">
<title>Node19&#45;&gt;Node7</title>
<g id="a_edge21_Node000019_Node000007"><a xlink:title=" ">
<path fill="none" stroke="#63b8ff" d="M1045.31,-111.24C1042.33,-110.81 1039.37,-110.4 1036.5,-110 914.52,-93.12 881.45,-90.45 755.68,-74.15"/>
<polygon fill="#63b8ff" stroke="#63b8ff" points="756.02,-70.66 745.66,-72.84 755.12,-77.6 756.02,-70.66"/>
</a>
</g>
</g>
<!-- Node20 -->
<g id="Node000020" class="node">
<title>Node20</title>
<g id="a_Node000020"><a xlink:title=" ">
<polygon fill="#e0e0e0" stroke="#999999" points="917.5,-74 763.5,-74 763.5,-55 917.5,-55 917.5,-74"/>
<text text-anchor="middle" x="840.5" y="-62" font-family="Helvetica,sans-Serif" font-size="10.00">QtCore/QCryptographicHash</text>
</a>
</g>
</g>
<!-- Node19&#45;&gt;Node20 -->
<g id="edge22_Node000019_Node000020" class="edge">
<title>Node19&#45;&gt;Node20</title>
<g id="a_edge22_Node000019_Node000020"><a xlink:title=" ">
<path fill="none" stroke="#63b8ff" d="M1052.85,-109.98C1009,-100.8 939.08,-86.15 891.55,-76.19"/>
<polygon fill="#63b8ff" stroke="#63b8ff" points="891.97,-72.71 881.47,-74.08 890.54,-79.56 891.97,-72.71"/>
</a>
</g>
</g>
<!-- Node21 -->
<g id="Node000021" class="node">
<title>Node21</title>
<g id="a_Node000021"><a xlink:title=" ">
<polygon fill="#e0e0e0" stroke="#999999" points="1065.5,-74 935.5,-74 935.5,-55 1065.5,-55 1065.5,-74"/>
<text text-anchor="middle" x="1000.5" y="-62" font-family="Helvetica,sans-Serif" font-size="10.00">QtCore/QTemporaryFile</text>
</a>
</g>
</g>
<!-- Node19&#45;&gt;Node21 -->
<g id="edge24_Node000019_Node000021" class="edge">
<title>Node19&#45;&gt;Node21</title>
<g id="a_edge24_Node000019_Node000021"><a xlink:title=" ">
<path fill="none" stroke="#63b8ff" d="M1078.56,-109.98C1064,-101.69 1041.63,-88.94 1024.57,-79.22"/>
<polygon fill="#63b8ff" stroke="#63b8ff" points="1026.14,-76.08 1015.71,-74.17 1022.67,-82.16 1026.14,-76.08"/>
</a>
</g>
</g>
<!-- Node22 -->
<g id="Node000022" class="node">
<title>Node22</title>
<g id="a_Node000022"><a xlink:title=" ">
<polygon fill="#e0e0e0" stroke="#999999" points="1159,-74 1084,-74 1084,-55 1159,-55 1159,-74"/>
<text text-anchor="middle" x="1121.5" y="-62" font-family="Helvetica,sans-Serif" font-size="10.00">QtCore/QUrl</text>
</a>
</g>
</g>
<!-- Node19&#45;&gt;Node22 -->
<g id="edge25_Node000019_Node000022" class="edge">
<title>Node19&#45;&gt;Node22</title>
<g id="a_edge25_Node000019_Node000022"><a xlink:title=" ">
<path fill="none" stroke="#63b8ff" d="M1098.12,-109.75C1101.96,-102.49 1107.52,-91.95 1112.26,-82.98"/>
<polygon fill="#63b8ff" stroke="#63b8ff" points="1115.39,-84.57 1116.96,-74.09 1109.2,-81.3 1115.39,-84.57"/>
</a>
</g>
</g>
<!-- Node23 -->
<g id="Node000023" class="node">
<title>Node23</title>
<g id="a_Node000023"><a xlink:title=" ">
<polygon fill="#e0e0e0" stroke="#999999" points="1234.5,-74 1176.5,-74 1176.5,-55 1234.5,-55 1234.5,-74"/>
<text text-anchor="middle" x="1205.5" y="-62" font-family="Helvetica,sans-Serif" font-size="10.00">memory</text>
</a>
</g>
</g>
<!-- Node19&#45;&gt;Node23 -->
<g id="edge26_Node000019_Node000023" class="edge">
<title>Node19&#45;&gt;Node23</title>
<g id="a_edge26_Node000019_Node000023"><a xlink:title=" ">
<path fill="none" stroke="#63b8ff" d="M1111.49,-109.98C1129.43,-101.5 1157.22,-88.35 1177.93,-78.54"/>
<polygon fill="#63b8ff" stroke="#63b8ff" points="1179.64,-81.61 1187.18,-74.17 1176.64,-75.28 1179.64,-81.61"/>
</a>
</g>
</g>
<!-- Node24&#45;&gt;Node5 -->
<g id="edge33_Node000024_Node000005" class="edge">
<title>Node24&#45;&gt;Node5</title>
<g id="a_edge33_Node000024_Node000005"><a xlink:title=" ">
<path fill="none" stroke="#63b8ff" d="M1651.07,-109.87C1616.19,-92.6 1540.98,-55.41 1539.5,-55 1444.59,-28.93 1152.63,-16.41 1030.31,-12.2"/>
<polygon fill="#63b8ff" stroke="#63b8ff" points="1030.17,-8.69 1020.06,-11.85 1029.93,-15.69 1030.17,-8.69"/>
</a>
</g>
</g>
<!-- Node24&#45;&gt;Node10 -->
<g id="edge29_Node000024_Node000010" class="edge">
<title>Node24&#45;&gt;Node10</title>
<g id="a_edge29_Node000024_Node000010"><a xlink:title=" ">
<path fill="none" stroke="#63b8ff" d="M1613.23,-109.98C1552.39,-100.61 1454.64,-85.55 1390,-75.59"/>
<polygon fill="#63b8ff" stroke="#63b8ff" points="1390.33,-72.1 1379.92,-74.04 1389.27,-79.02 1390.33,-72.1"/>
</a>
</g>
</g>
<!-- Node24&#45;&gt;Node16 -->
<g id="edge32_Node000024_Node000016" class="edge">
<title>Node24&#45;&gt;Node16</title>
<g id="a_edge32_Node000024_Node000016"><a xlink:title=" ">
<path fill="none" stroke="#63b8ff" d="M1640.06,-109.98C1610.22,-101.05 1563.12,-86.94 1529.97,-77.02"/>
<polygon fill="#63b8ff" stroke="#63b8ff" points="1530.74,-73.6 1520.16,-74.08 1528.74,-80.3 1530.74,-73.6"/>
</a>
</g>
</g>
<!-- Node25 -->
<g id="Node000025" class="node">
<title>Node25</title>
<g id="a_Node000025"><a xlink:title=" ">
<polygon fill="#e0e0e0" stroke="#999999" points="1957.5,-74 1871.5,-74 1871.5,-55 1957.5,-55 1957.5,-74"/>
<text text-anchor="middle" x="1914.5" y="-62" font-family="Helvetica,sans-Serif" font-size="10.00">QtCore/QHash</text>
</a>
</g>
</g>
<!-- Node24&#45;&gt;Node25 -->
<g id="edge28_Node000024_Node000025" class="edge">
<title>Node24&#45;&gt;Node25</title>
<g id="a_edge28_Node000024_Node000025"><a xlink:title=" ">
<path fill="none" stroke="#63b8ff" d="M1708.02,-109.98C1750.67,-100.8 1818.65,-86.15 1864.86,-76.19"/>
<polygon fill="#63b8ff" stroke="#63b8ff" points="1865.63,-79.61 1874.67,-74.08 1864.15,-72.77 1865.63,-79.61"/>
</a>
</g>
</g>
<!-- Node26 -->
<g id="Node000026" class="node">
<title>Node26</title>
<g id="a_Node000026"><a xlink:title=" ">
<polygon fill="#e0e0e0" stroke="#999999" points="2067.5,-74 1975.5,-74 1975.5,-55 2067.5,-55 2067.5,-74"/>
<text text-anchor="middle" x="2021.5" y="-62" font-family="Helvetica,sans-Serif" font-size="10.00">QtCore/QObject</text>
</a>
</g>
</g>
<!-- Node24&#45;&gt;Node26 -->
<g id="edge30_Node000024_Node000026" class="edge">
<title>Node24&#45;&gt;Node26</title>
<g id="a_edge30_Node000024_Node000026"><a xlink:title=" ">
<path fill="none" stroke="#63b8ff" d="M1726.2,-109.97C1784.07,-101.4 1876.04,-87.72 1965.27,-74.18"/>
<polygon fill="#63b8ff" stroke="#63b8ff" points="1965.93,-77.62 1975.29,-72.66 1964.88,-70.7 1965.93,-77.62"/>
</a>
</g>
</g>
<!-- Node27 -->
<g id="Node000027" class="node">
<title>Node27</title>
<g id="a_Node000027"><a xlink:title=" ">
<polygon fill="#e0e0e0" stroke="#999999" points="2219.5,-74 2085.5,-74 2085.5,-55 2219.5,-55 2219.5,-74"/>
<text text-anchor="middle" x="2152.5" y="-62" font-family="Helvetica,sans-Serif" font-size="10.00">QtCore/QReadWriteLock</text>
</a>
</g>
</g>
<!-- Node24&#45;&gt;Node27 -->
<g id="edge31_Node000024_Node000027" class="edge">
<title>Node24&#45;&gt;Node27</title>
<g id="a_edge31_Node000024_Node000027"><a xlink:title=" ">
<path fill="none" stroke="#63b8ff" d="M1732.81,-111.54C1811.17,-103.05 1947.88,-88.19 2075.42,-74.12"/>
<polygon fill="#63b8ff" stroke="#63b8ff" points="2075.81,-77.6 2085.36,-73.02 2075.04,-70.64 2075.81,-77.6"/>
</a>
</g>
</g>
<!-- Node28 -->
<g id="Node000028" class="node">
<title>Node28</title>
<g id="a_Node000028"><a xlink:title=" ">
<polygon fill="#e0e0e0" stroke="#999999" points="1750,-74 1587,-74 1587,-55 1750,-55 1750,-74"/>
<text text-anchor="middle" x="1668.5" y="-62" font-family="Helvetica,sans-Serif" font-size="10.00">QtCore/QSortFilterProxyModel</text>
</a>
</g>
</g>
<!-- Node24&#45;&gt;Node28 -->
<g id="edge34_Node000024_Node000028" class="edge">
<title>Node24&#45;&gt;Node28</title>
<g id="a_edge34_Node000024_Node000028"><a xlink:title=" ">
<path fill="none" stroke="#63b8ff" d="M1668.5,-109.75C1668.5,-102.8 1668.5,-92.85 1668.5,-84.13"/>
<polygon fill="#63b8ff" stroke="#63b8ff" points="1672,-84.09 1668.5,-74.09 1665,-84.09 1672,-84.09"/>
</a>
</g>
</g>
<!-- Node29 -->
<g id="Node000029" class="node">
<title>Node29</title>
<g id="a_Node000029"><a xlink:title=" ">
<polygon fill="#e0e0e0" stroke="#999999" points="1853,-74 1768,-74 1768,-55 1853,-55 1853,-74"/>
<text text-anchor="middle" x="1810.5" y="-62" font-family="Helvetica,sans-Serif" font-size="10.00">QtQml/qqml.h</text>
</a>
</g>
</g>
<!-- Node24&#45;&gt;Node29 -->
<g id="edge35_Node000024_Node000029" class="edge">
<title>Node24&#45;&gt;Node29</title>
<g id="a_edge35_Node000024_Node000029"><a xlink:title=" ">
<path fill="none" stroke="#63b8ff" d="M1691.31,-109.98C1714.67,-101.27 1751.2,-87.63 1777.67,-77.75"/>
<polygon fill="#63b8ff" stroke="#63b8ff" points="1779.13,-80.95 1787.27,-74.17 1776.68,-74.39 1779.13,-80.95"/>
</a>
</g>
</g>
</g>
</svg>

<g id="navigator" transform="translate(0 0)" fill="#404254">
  <rect fill="#f2f5e9" fill-opacity="0.5" stroke="#606060" stroke-width=".5" x="0" y="0" width="60" height="60"/>
  <use id="zoomplus" xlink:href="#zoomPlus" x="17" y="9" onmousedown="handleZoom(evt,'in')"/>
  <use id="zoomminus" xlink:href="#zoomMin" x="42" y="9" onmousedown="handleZoom(evt,'out')"/>
  <use id="reset" xlink:href="#resetDef" x="30" y="36" onmousedown="handleReset()"/>
   <use id="arrowup" xlink:href="#arrowUp" x="0" y="0" onmousedown="handlePan(0,-1)"/>
  <use id="arrowright" xlink:href="#arrowRight" x="0" y="0" onmousedown="handlePan(1,0)"/>
  <use id="arrowdown" xlink:href="#arrowDown" x="0" y="0" onmousedown="handlePan(0,1)"/>
  <use id="arrowleft" xlink:href="#arrowLeft" x="0" y="0" onmousedown="handlePan(-1,0)"/>
</g>
<svg viewBox="0 0 15 15" width="100%" height="30px" preserveAspectRatio="xMaxYMin meet">
 <g id="arrow_out" transform="scale(0.3 0.3)">
  <a xlink:href="QGClibarchive_8cc__incl_org.svg" target="_base">
   <rect id="button" ry="5" rx="5" y="6" x="6" height="38" width="38"
        fill="#f2f5e9" fill-opacity="0.5" stroke="#606060" stroke-width="1.0"/>
   <path id="arrow"
     d="M 11.500037,31.436501 C 11.940474,20.09759 22.043105,11.32322 32.158766,21.979434 L 37.068811,17.246167 C 37.068811,17.246167 37.088388,32 37.088388,32 L 22.160133,31.978069 C 22.160133,31.978069 26.997745,27.140456 26.997745,27.140456 C 18.528582,18.264221 13.291696,25.230495 11.500037,31.436501 z"
     style="fill:#404040;"/>
  </a>
 </g>
</svg>

<style type='text/css'>
<![CDATA[
[data-mouse-over-selected='false'] { opacity: 0.7; }
[data-mouse-over-selected='true']  { opacity: 1.0; }
]]>
</style>
<script type="application/ecmascript"><![CDATA[
document.addEventListener('DOMContentLoaded', (event) => {
  highlightEdges();
  highlightAdjacentNodes();
});
]]></script>
</svg>
