<?xml version="1.0" encoding="UTF-8" standalone="no"?>
<!DOCTYPE svg PUBLIC "-//W3C//DTD SVG 1.1//EN"
 "http://www.w3.org/Graphics/SVG/1.1/DTD/svg11.dtd">
<!-- Generated by graphviz version 2.43.0 (0)
 -->
<!-- Title: src/QtLocationPlugin/QGCMapEngine.cpp Pages: 1 -->
<!--zoomable 214 -->

<svg id="main" version="1.1" xmlns="http://www.w3.org/2000/svg" xmlns:xlink="http://www.w3.org/1999/xlink" xml:space="preserve" onload="init(evt)">
<style type="text/css"><![CDATA[
.node, .edge {opacity: 0.7;}
.node.selected, .edge.selected {opacity: 1;}
.edge:hover path { stroke: red; }
.edge:hover polygon { stroke: red; fill: red; }
]]></style>

<defs>
  <circle id="rim" cx="0" cy="0" r="7"/>
  <circle id="rim2" cx="0" cy="0" r="3.5"/>
  <g id="zoomPlus">
    <use xlink:href="#rim" fill="#404040"><set attributeName="fill" to="#808080" begin="zoomplus.mouseover" end="zoomplus.mouseout"/></use>
    <path d="M-4,0h8M0,-4v8" fill="none" stroke="white" stroke-width="1.5" pointer-events="none"/>
  </g>
  <g id="zoomMin">
    <use xlink:href="#rim" fill="#404040"><set attributeName="fill" to="#808080" begin="zoomminus.mouseover" end="zoomminus.mouseout"/></use>
    <path d="M-4,0h8" fill="none" stroke="white" stroke-width="1.5" pointer-events="none"/>
  </g>
  <g id="arrowUp" transform="translate(30 24)">
    <use xlink:href="#rim"/>
    <path pointer-events="none" fill="none" stroke="white" stroke-width="1.5" d="M0,-3.0v7 M-2.5,-0.5L0,-3.0L2.5,-0.5"/>
  </g>
  <g id="arrowRight" transform="rotate(90) translate(36 -43)">
    <use xlink:href="#rim"/>
    <path pointer-events="none" fill="none" stroke="white" stroke-width="1.5" d="M0,-3.0v7 M-2.5,-0.5L0,-3.0L2.5,-0.5"/>
  </g>
  <g id="arrowDown" transform="rotate(180) translate(-30 -48)">
    <use xlink:href="#rim"/>
    <path pointer-events="none" fill="none" stroke="white" stroke-width="1.5" d="M0,-3.0v7 M-2.5,-0.5L0,-3.0L2.5,-0.5"/>
  </g>
  <g id="arrowLeft" transform="rotate(270) translate(-36 17)">
    <use xlink:href="#rim"/>
    <path pointer-events="none" fill="none" stroke="white" stroke-width="1.5" d="M0,-3.0v7 M-2.5,-0.5L0,-3.0L2.5,-0.5"/>
  </g>
  <g id="resetDef">
    <use xlink:href="#rim2" fill="#404040"><set attributeName="fill" to="#808080" begin="reset.mouseover" end="reset.mouseout"/></use>
  </g>
</defs>
<script type="application/ecmascript">
var viewWidth = 2436;
var viewHeight = 214;
var sectionId = 'dynsection-0';
</script>
<script type="application/ecmascript" xlink:href="svg.min.js"/>
<svg id="graph" class="graph">
<g id="viewport">
<title>src/QtLocationPlugin/QGCMapEngine.cpp</title>
<!-- Node1 -->
<g id="Node000001" class="node">
<title>Node1</title>
<g id="a_Node000001"><a xlink:title=" ">
<polygon fill="#999999" stroke="#666666" points="1622.5,-206 1506.5,-206 1506.5,-176 1622.5,-176 1622.5,-206"/>
<text text-anchor="start" x="1514.5" y="-194" font-family="Helvetica,sans-Serif" font-size="10.00">src/QtLocationPlugin</text>
<text text-anchor="middle" x="1564.5" y="-183" font-family="Helvetica,sans-Serif" font-size="10.00">/QGCMapEngine.cpp</text>
</a>
</g>
</g>
<!-- Node2 -->
<g id="Node000002" class="node">
<title>Node2</title>
<g id="a_Node000002"><a xlink:href="QGCMapEngine_8h.html" target="_top" xlink:title=" ">
<polygon fill="white" stroke="#666666" points="1248,-79.5 1147,-79.5 1147,-60.5 1248,-60.5 1248,-79.5"/>
<text text-anchor="middle" x="1197.5" y="-67.5" font-family="Helvetica,sans-Serif" font-size="10.00">QGCMapEngine.h</text>
</a>
</g>
</g>
<!-- Node1&#45;&gt;Node2 -->
<g id="edge1_Node000001_Node000002" class="edge">
<title>Node1&#45;&gt;Node2</title>
<g id="a_edge1_Node000001_Node000002"><a xlink:title=" ">
<path fill="none" stroke="#63b8ff" d="M1506.45,-185.49C1452.1,-179.76 1369.45,-167.13 1302.5,-140 1269.22,-126.51 1235.32,-101.84 1215.36,-85.94"/>
<polygon fill="#63b8ff" stroke="#63b8ff" points="1217.43,-83.11 1207.46,-79.52 1213.01,-88.55 1217.43,-83.11"/>
</a>
</g>
</g>
<!-- Node6 -->
<g id="Node000006" class="node">
<title>Node6</title>
<g id="a_Node000006"><a xlink:title=" ">
<polygon fill="#e0e0e0" stroke="#999999" points="2110,-140 1967,-140 1967,-121 2110,-121 2110,-140"/>
<text text-anchor="middle" x="2038.5" y="-128" font-family="Helvetica,sans-Serif" font-size="10.00">QtCore/QApplicationStatic</text>
</a>
</g>
</g>
<!-- Node1&#45;&gt;Node6 -->
<g id="edge5_Node000001_Node000006" class="edge">
<title>Node1&#45;&gt;Node6</title>
<g id="a_edge5_Node000001_Node000006"><a xlink:title=" ">
<path fill="none" stroke="#63b8ff" d="M1622.62,-182.83C1707.18,-172.39 1864.36,-152.99 1959.39,-141.26"/>
<polygon fill="#63b8ff" stroke="#63b8ff" points="1960.03,-144.71 1969.53,-140.01 1959.18,-137.76 1960.03,-144.71"/>
</a>
</g>
</g>
<!-- Node7 -->
<g id="Node000007" class="node">
<title>Node7</title>
<g id="a_Node000007"><a xlink:href="QGCCachedTileSet_8h.html" target="_top" xlink:title=" ">
<polygon fill="white" stroke="#666666" points="1090,-79.5 973,-79.5 973,-60.5 1090,-60.5 1090,-79.5"/>
<text text-anchor="middle" x="1031.5" y="-67.5" font-family="Helvetica,sans-Serif" font-size="10.00">QGCCachedTileSet.h</text>
</a>
</g>
</g>
<!-- Node1&#45;&gt;Node7 -->
<g id="edge6_Node000001_Node000007" class="edge">
<title>Node1&#45;&gt;Node7</title>
<g id="a_edge6_Node000001_Node000007"><a xlink:title=" ">
<path fill="none" stroke="#63b8ff" d="M1506.46,-182.61C1445.34,-174.31 1346.51,-159.42 1262.5,-140 1191.79,-123.66 1110.9,-97.8 1066.05,-82.81"/>
<polygon fill="#63b8ff" stroke="#63b8ff" points="1067.11,-79.48 1056.52,-79.61 1064.88,-86.11 1067.11,-79.48"/>
</a>
</g>
</g>
<!-- Node13 -->
<g id="Node000013" class="node">
<title>Node13</title>
<g id="a_Node000013"><a xlink:href="QGCCacheTile_8h.html" target="_top" xlink:title=" ">
<polygon fill="white" stroke="#666666" points="1579,-79.5 1484,-79.5 1484,-60.5 1579,-60.5 1579,-79.5"/>
<text text-anchor="middle" x="1531.5" y="-67.5" font-family="Helvetica,sans-Serif" font-size="10.00">QGCCacheTile.h</text>
</a>
</g>
</g>
<!-- Node1&#45;&gt;Node13 -->
<g id="edge15_Node000001_Node000013" class="edge">
<title>Node1&#45;&gt;Node13</title>
<g id="a_edge15_Node000001_Node000013"><a xlink:title=" ">
<path fill="none" stroke="#63b8ff" d="M1560.58,-175.88C1554.63,-154.41 1543.29,-113.52 1536.67,-89.64"/>
<polygon fill="#63b8ff" stroke="#63b8ff" points="1539.96,-88.41 1533.92,-79.71 1533.22,-90.28 1539.96,-88.41"/>
</a>
</g>
</g>
<!-- Node16 -->
<g id="Node000016" class="node">
<title>Node16</title>
<g id="a_Node000016"><a xlink:href="QGCLoggingCategory_8h.html" target="_top" xlink:title=" ">
<polygon fill="white" stroke="#666666" points="1956.5,-79.5 1828.5,-79.5 1828.5,-60.5 1956.5,-60.5 1956.5,-79.5"/>
<text text-anchor="middle" x="1892.5" y="-67.5" font-family="Helvetica,sans-Serif" font-size="10.00">QGCLoggingCategory.h</text>
</a>
</g>
</g>
<!-- Node1&#45;&gt;Node16 -->
<g id="edge19_Node000001_Node000016" class="edge">
<title>Node1&#45;&gt;Node16</title>
<g id="a_edge19_Node000001_Node000016"><a xlink:title=" ">
<path fill="none" stroke="#63b8ff" d="M1622.62,-178.88C1662.21,-170.41 1715.41,-157.27 1760.5,-140 1771.37,-135.84 1832.26,-103.39 1867.42,-84.51"/>
<polygon fill="#63b8ff" stroke="#63b8ff" points="1869.44,-87.4 1876.59,-79.58 1866.13,-81.23 1869.44,-87.4"/>
</a>
</g>
</g>
<!-- Node21 -->
<g id="Node000021" class="node">
<title>Node21</title>
<g id="a_Node000021"><a xlink:href="QGCMapTasks_8h.html" target="_top" xlink:title=" ">
<polygon fill="white" stroke="#666666" points="1407,-140 1312,-140 1312,-121 1407,-121 1407,-140"/>
<text text-anchor="middle" x="1359.5" y="-128" font-family="Helvetica,sans-Serif" font-size="10.00">QGCMapTasks.h</text>
</a>
</g>
</g>
<!-- Node1&#45;&gt;Node21 -->
<g id="edge28_Node000001_Node000021" class="edge">
<title>Node1&#45;&gt;Node21</title>
<g id="a_edge28_Node000001_Node000021"><a xlink:title=" ">
<path fill="none" stroke="#63b8ff" d="M1515.4,-175.99C1479.87,-165.85 1432.46,-152.32 1399.28,-142.85"/>
<polygon fill="#63b8ff" stroke="#63b8ff" points="1400.05,-139.43 1389.47,-140.05 1398.13,-146.16 1400.05,-139.43"/>
</a>
</g>
</g>
<!-- Node24 -->
<g id="Node000024" class="node">
<title>Node24</title>
<g id="a_Node000024"><a xlink:href="QGCTile_8h.html" target="_top" xlink:title=" ">
<polygon fill="white" stroke="#666666" points="1662,-79.5 1597,-79.5 1597,-60.5 1662,-60.5 1662,-79.5"/>
<text text-anchor="middle" x="1629.5" y="-67.5" font-family="Helvetica,sans-Serif" font-size="10.00">QGCTile.h</text>
</a>
</g>
</g>
<!-- Node1&#45;&gt;Node24 -->
<g id="edge41_Node000001_Node000024" class="edge">
<title>Node1&#45;&gt;Node24</title>
<g id="a_edge41_Node000001_Node000024"><a xlink:title=" ">
<path fill="none" stroke="#63b8ff" d="M1572.21,-175.88C1584.1,-154.12 1606.88,-112.41 1619.85,-88.67"/>
<polygon fill="#63b8ff" stroke="#63b8ff" points="1623.02,-90.17 1624.74,-79.71 1616.88,-86.81 1623.02,-90.17"/>
</a>
</g>
</g>
<!-- Node26 -->
<g id="Node000026" class="node">
<title>Node26</title>
<g id="a_Node000026"><a xlink:href="QGCTileCacheWorker_8h.html" target="_top" xlink:title=" ">
<polygon fill="white" stroke="#666666" points="593.5,-79.5 465.5,-79.5 465.5,-60.5 593.5,-60.5 593.5,-79.5"/>
<text text-anchor="middle" x="529.5" y="-67.5" font-family="Helvetica,sans-Serif" font-size="10.00">QGCTileCacheWorker.h</text>
</a>
</g>
</g>
<!-- Node1&#45;&gt;Node26 -->
<g id="edge42_Node000001_Node000026" class="edge">
<title>Node1&#45;&gt;Node26</title>
<g id="a_edge42_Node000001_Node000026"><a xlink:title=" ">
<path fill="none" stroke="#63b8ff" d="M1506.26,-183.3C1329.69,-163 800.41,-102.15 603.96,-79.56"/>
<polygon fill="#63b8ff" stroke="#63b8ff" points="604.07,-76.05 593.74,-78.39 603.28,-83.01 604.07,-76.05"/>
</a>
</g>
</g>
<!-- Node31 -->
<g id="Node000031" class="node">
<title>Node31</title>
<g id="a_Node000031"><a xlink:href="QGCTileSet_8h.html" target="_top" xlink:title=" ">
<polygon fill="white" stroke="#666666" points="1752,-140 1671,-140 1671,-121 1752,-121 1752,-140"/>
<text text-anchor="middle" x="1711.5" y="-128" font-family="Helvetica,sans-Serif" font-size="10.00">QGCTileSet.h</text>
</a>
</g>
</g>
<!-- Node1&#45;&gt;Node31 -->
<g id="edge51_Node000001_Node000031" class="edge">
<title>Node1&#45;&gt;Node31</title>
<g id="a_edge51_Node000001_Node000031"><a xlink:title=" ">
<path fill="none" stroke="#63b8ff" d="M1599.71,-175.99C1624.24,-166.23 1656.65,-153.33 1680.26,-143.93"/>
<polygon fill="#63b8ff" stroke="#63b8ff" points="1681.79,-147.09 1689.79,-140.14 1679.21,-140.58 1681.79,-147.09"/>
</a>
</g>
</g>
<!-- Node33 -->
<g id="Node000033" class="node">
<title>Node33</title>
<g id="a_Node000033"><a xlink:href="QGeoFileTileCacheQGC_8h.html" target="_top" xlink:title=" ">
<polygon fill="white" stroke="#666666" points="1948.5,-140 1808.5,-140 1808.5,-121 1948.5,-121 1948.5,-140"/>
<text text-anchor="middle" x="1878.5" y="-128" font-family="Helvetica,sans-Serif" font-size="10.00">QGeoFileTileCacheQGC.h</text>
</a>
</g>
</g>
<!-- Node1&#45;&gt;Node33 -->
<g id="edge54_Node000001_Node000033" class="edge">
<title>Node1&#45;&gt;Node33</title>
<g id="a_edge54_Node000001_Node000033"><a xlink:title=" ">
<path fill="none" stroke="#63b8ff" d="M1622.83,-179.13C1679.93,-168.5 1766.31,-152.4 1822.58,-141.92"/>
<polygon fill="#63b8ff" stroke="#63b8ff" points="1823.53,-145.3 1832.72,-140.03 1822.25,-138.42 1823.53,-145.3"/>
</a>
</g>
</g>
<!-- Node3 -->
<g id="Node000003" class="node">
<title>Node3</title>
<g id="a_Node000003"><a xlink:title=" ">
<polygon fill="#e0e0e0" stroke="#999999" points="1141,-19 998,-19 998,0 1141,0 1141,-19"/>
<text text-anchor="middle" x="1069.5" y="-7" font-family="Helvetica,sans-Serif" font-size="10.00">QtCore/QLoggingCategory</text>
</a>
</g>
</g>
<!-- Node2&#45;&gt;Node3 -->
<g id="edge2_Node000002_Node000003" class="edge">
<title>Node2&#45;&gt;Node3</title>
<g id="a_edge2_Node000002_Node000003"><a xlink:title=" ">
<path fill="none" stroke="#63b8ff" d="M1178.89,-60.49C1157.46,-50.7 1122.06,-34.52 1097.35,-23.23"/>
<polygon fill="#63b8ff" stroke="#63b8ff" points="1098.68,-19.99 1088.13,-19.02 1095.78,-26.36 1098.68,-19.99"/>
</a>
</g>
</g>
<!-- Node4 -->
<g id="Node000004" class="node">
<title>Node4</title>
<g id="a_Node000004"><a xlink:title=" ">
<polygon fill="#e0e0e0" stroke="#999999" points="1251.5,-19 1159.5,-19 1159.5,0 1251.5,0 1251.5,-19"/>
<text text-anchor="middle" x="1205.5" y="-7" font-family="Helvetica,sans-Serif" font-size="10.00">QtCore/QObject</text>
</a>
</g>
</g>
<!-- Node2&#45;&gt;Node4 -->
<g id="edge3_Node000002_Node000004" class="edge">
<title>Node2&#45;&gt;Node4</title>
<g id="a_edge3_Node000002_Node000004"><a xlink:title=" ">
<path fill="none" stroke="#63b8ff" d="M1198.68,-60.37C1199.79,-52.25 1201.49,-39.81 1202.92,-29.39"/>
<polygon fill="#63b8ff" stroke="#63b8ff" points="1206.43,-29.55 1204.31,-19.17 1199.49,-28.6 1206.43,-29.55"/>
</a>
</g>
</g>
<!-- Node5 -->
<g id="Node000005" class="node">
<title>Node5</title>
<g id="a_Node000005"><a xlink:title=" ">
<polygon fill="#e0e0e0" stroke="#999999" points="1359,-19 1270,-19 1270,0 1359,0 1359,-19"/>
<text text-anchor="middle" x="1314.5" y="-7" font-family="Helvetica,sans-Serif" font-size="10.00">QtCore/QString</text>
</a>
</g>
</g>
<!-- Node2&#45;&gt;Node5 -->
<g id="edge4_Node000002_Node000005" class="edge">
<title>Node2&#45;&gt;Node5</title>
<g id="a_edge4_Node000002_Node000005"><a xlink:title=" ">
<path fill="none" stroke="#63b8ff" d="M1214.51,-60.49C1233.92,-50.79 1265.89,-34.81 1288.44,-23.53"/>
<polygon fill="#63b8ff" stroke="#63b8ff" points="1290.09,-26.62 1297.47,-19.02 1286.96,-20.36 1290.09,-26.62"/>
</a>
</g>
</g>
<!-- Node7&#45;&gt;Node3 -->
<g id="edge9_Node000007_Node000003" class="edge">
<title>Node7&#45;&gt;Node3</title>
<g id="a_edge9_Node000007_Node000003"><a xlink:title=" ">
<path fill="none" stroke="#63b8ff" d="M1037.11,-60.37C1042.66,-51.81 1051.33,-38.47 1058.3,-27.74"/>
<polygon fill="#63b8ff" stroke="#63b8ff" points="1061.36,-29.46 1063.87,-19.17 1055.49,-25.65 1061.36,-29.46"/>
</a>
</g>
</g>
<!-- Node7&#45;&gt;Node4 -->
<g id="edge11_Node000007_Node000004" class="edge">
<title>Node7&#45;&gt;Node4</title>
<g id="a_edge11_Node000007_Node000004"><a xlink:title=" ">
<path fill="none" stroke="#63b8ff" d="M1056.8,-60.49C1086.7,-50.44 1136.62,-33.66 1170.28,-22.34"/>
<polygon fill="#63b8ff" stroke="#63b8ff" points="1171.81,-25.52 1180.17,-19.02 1169.57,-18.89 1171.81,-25.52"/>
</a>
</g>
</g>
<!-- Node7&#45;&gt;Node5 -->
<g id="edge13_Node000007_Node000005" class="edge">
<title>Node7&#45;&gt;Node5</title>
<g id="a_edge13_Node000007_Node000005"><a xlink:title=" ">
<path fill="none" stroke="#63b8ff" d="M1072.65,-60.49C1123.16,-50.05 1208.82,-32.35 1263.47,-21.05"/>
<polygon fill="#63b8ff" stroke="#63b8ff" points="1264.22,-24.47 1273.3,-19.02 1262.8,-17.61 1264.22,-24.47"/>
</a>
</g>
</g>
<!-- Node8 -->
<g id="Node000008" class="node">
<title>Node8</title>
<g id="a_Node000008"><a xlink:title=" ">
<polygon fill="#e0e0e0" stroke="#999999" points="813,-19 704,-19 704,0 813,0 813,-19"/>
<text text-anchor="middle" x="758.5" y="-7" font-family="Helvetica,sans-Serif" font-size="10.00">QtCore/QDateTime</text>
</a>
</g>
</g>
<!-- Node7&#45;&gt;Node8 -->
<g id="edge7_Node000007_Node000008" class="edge">
<title>Node7&#45;&gt;Node8</title>
<g id="a_edge7_Node000007_Node000008"><a xlink:title=" ">
<path fill="none" stroke="#63b8ff" d="M991.8,-60.49C943.18,-50.07 860.79,-32.42 808.05,-21.12"/>
<polygon fill="#63b8ff" stroke="#63b8ff" points="808.76,-17.69 798.24,-19.02 807.29,-24.53 808.76,-17.69"/>
</a>
</g>
</g>
<!-- Node9 -->
<g id="Node000009" class="node">
<title>Node9</title>
<g id="a_Node000009"><a xlink:title=" ">
<polygon fill="#e0e0e0" stroke="#999999" points="1546.5,-19 1460.5,-19 1460.5,0 1546.5,0 1546.5,-19"/>
<text text-anchor="middle" x="1503.5" y="-7" font-family="Helvetica,sans-Serif" font-size="10.00">QtCore/QHash</text>
</a>
</g>
</g>
<!-- Node7&#45;&gt;Node9 -->
<g id="edge8_Node000007_Node000009" class="edge">
<title>Node7&#45;&gt;Node9</title>
<g id="a_edge8_Node000007_Node000009"><a xlink:title=" ">
<path fill="none" stroke="#63b8ff" d="M1090.07,-61.09C1105.49,-59.05 1122.12,-56.9 1137.5,-55 1276.47,-37.83 1311.78,-38.09 1450.5,-19 1450.6,-18.99 1450.7,-18.97 1450.8,-18.96"/>
<polygon fill="#63b8ff" stroke="#63b8ff" points="1451.03,-22.46 1460.43,-17.57 1450.03,-15.53 1451.03,-22.46"/>
</a>
</g>
</g>
<!-- Node10 -->
<g id="Node000010" class="node">
<title>Node10</title>
<g id="a_Node000010"><a xlink:title=" ">
<polygon fill="#e0e0e0" stroke="#999999" points="575.5,-19 483.5,-19 483.5,0 575.5,0 575.5,-19"/>
<text text-anchor="middle" x="529.5" y="-7" font-family="Helvetica,sans-Serif" font-size="10.00">QtCore/QMutex</text>
</a>
</g>
</g>
<!-- Node7&#45;&gt;Node10 -->
<g id="edge10_Node000007_Node000010" class="edge">
<title>Node7&#45;&gt;Node10</title>
<g id="a_edge10_Node000007_Node000010"><a xlink:title=" ">
<path fill="none" stroke="#63b8ff" d="M972.83,-63.23C889.22,-54.83 730.76,-38.26 585.67,-19.11"/>
<polygon fill="#63b8ff" stroke="#63b8ff" points="586.07,-15.63 575.69,-17.78 585.15,-22.57 586.07,-15.63"/>
</a>
</g>
</g>
<!-- Node11 -->
<g id="Node000011" class="node">
<title>Node11</title>
<g id="a_Node000011"><a xlink:title=" ">
<polygon fill="#e0e0e0" stroke="#999999" points="685.5,-19 593.5,-19 593.5,0 685.5,0 685.5,-19"/>
<text text-anchor="middle" x="639.5" y="-7" font-family="Helvetica,sans-Serif" font-size="10.00">QtCore/QQueue</text>
</a>
</g>
</g>
<!-- Node7&#45;&gt;Node11 -->
<g id="edge12_Node000007_Node000011" class="edge">
<title>Node7&#45;&gt;Node11</title>
<g id="a_edge12_Node000007_Node000011"><a xlink:title=" ">
<path fill="none" stroke="#63b8ff" d="M973.34,-60.48C908.26,-50.92 799.38,-34.86 695.72,-19.18"/>
<polygon fill="#63b8ff" stroke="#63b8ff" points="696.12,-15.7 685.71,-17.66 695.07,-22.62 696.12,-15.7"/>
</a>
</g>
</g>
<!-- Node12 -->
<g id="Node000012" class="node">
<title>Node12</title>
<g id="a_Node000012"><a xlink:title=" ">
<polygon fill="#e0e0e0" stroke="#999999" points="980,-19 831,-19 831,0 980,0 980,-19"/>
<text text-anchor="middle" x="905.5" y="-7" font-family="Helvetica,sans-Serif" font-size="10.00">QtNetwork/QNetworkReply</text>
</a>
</g>
</g>
<!-- Node7&#45;&gt;Node12 -->
<g id="edge14_Node000007_Node000012" class="edge">
<title>Node7&#45;&gt;Node12</title>
<g id="a_edge14_Node000007_Node000012"><a xlink:title=" ">
<path fill="none" stroke="#63b8ff" d="M1013.18,-60.49C992.09,-50.7 957.24,-34.52 932.92,-23.23"/>
<polygon fill="#63b8ff" stroke="#63b8ff" points="934.39,-20.05 923.84,-19.02 931.44,-26.4 934.39,-20.05"/>
</a>
</g>
</g>
<!-- Node13&#45;&gt;Node5 -->
<g id="edge18_Node000013_Node000005" class="edge">
<title>Node13&#45;&gt;Node5</title>
<g id="a_edge18_Node000013_Node000005"><a xlink:title=" ">
<path fill="none" stroke="#63b8ff" d="M1499.95,-60.49C1461.94,-50.25 1397.98,-33 1356,-21.69"/>
<polygon fill="#63b8ff" stroke="#63b8ff" points="1356.66,-18.24 1346.09,-19.02 1354.84,-25 1356.66,-18.24"/>
</a>
</g>
</g>
<!-- Node14 -->
<g id="Node000014" class="node">
<title>Node14</title>
<g id="a_Node000014"><a xlink:title=" ">
<polygon fill="#e0e0e0" stroke="#999999" points="1674.5,-19 1564.5,-19 1564.5,0 1674.5,0 1674.5,-19"/>
<text text-anchor="middle" x="1619.5" y="-7" font-family="Helvetica,sans-Serif" font-size="10.00">QtCore/QByteArray</text>
</a>
</g>
</g>
<!-- Node13&#45;&gt;Node14 -->
<g id="edge16_Node000013_Node000014" class="edge">
<title>Node13&#45;&gt;Node14</title>
<g id="a_edge16_Node000013_Node000014"><a xlink:title=" ">
<path fill="none" stroke="#63b8ff" d="M1544.48,-60.37C1558.52,-51.04 1581.13,-36.01 1597.86,-24.88"/>
<polygon fill="#63b8ff" stroke="#63b8ff" points="1600.07,-27.62 1606.46,-19.17 1596.2,-21.79 1600.07,-27.62"/>
</a>
</g>
</g>
<!-- Node15 -->
<g id="Node000015" class="node">
<title>Node15</title>
<g id="a_Node000015"><a xlink:title=" ">
<polygon fill="#e0e0e0" stroke="#999999" points="1896.5,-19 1788.5,-19 1788.5,0 1896.5,0 1896.5,-19"/>
<text text-anchor="middle" x="1842.5" y="-7" font-family="Helvetica,sans-Serif" font-size="10.00">QtCore/QMetaType</text>
</a>
</g>
</g>
<!-- Node13&#45;&gt;Node15 -->
<g id="edge17_Node000013_Node000015" class="edge">
<title>Node13&#45;&gt;Node15</title>
<g id="a_edge17_Node000013_Node000015"><a xlink:title=" ">
<path fill="none" stroke="#63b8ff" d="M1563.98,-60.46C1571.67,-58.55 1579.85,-56.62 1587.5,-55 1652,-41.33 1726.33,-28.71 1778.03,-20.43"/>
<polygon fill="#63b8ff" stroke="#63b8ff" points="1778.74,-23.86 1788.06,-18.83 1777.63,-16.95 1778.74,-23.86"/>
</a>
</g>
</g>
<!-- Node16&#45;&gt;Node3 -->
<g id="edge21_Node000016_Node000003" class="edge">
<title>Node16&#45;&gt;Node3</title>
<g id="a_edge21_Node000016_Node000003"><a xlink:title=" ">
<path fill="none" stroke="#63b8ff" d="M1830.93,-60.47C1814.87,-58.46 1797.55,-56.47 1781.5,-55 1505.05,-29.71 1432.18,-41.38 1151.12,-19"/>
<polygon fill="#63b8ff" stroke="#63b8ff" points="1151.28,-15.51 1141.04,-18.19 1150.72,-22.48 1151.28,-15.51"/>
</a>
</g>
</g>
<!-- Node16&#45;&gt;Node4 -->
<g id="edge22_Node000016_Node000004" class="edge">
<title>Node16&#45;&gt;Node4</title>
<g id="a_edge22_Node000016_Node000004"><a xlink:title=" ">
<path fill="none" stroke="#63b8ff" d="M1830.05,-60.5C1814.23,-58.51 1797.26,-56.54 1781.5,-55 1553.76,-32.79 1492.89,-44.41 1261.74,-19.04"/>
<polygon fill="#63b8ff" stroke="#63b8ff" points="1262,-15.55 1251.68,-17.93 1261.23,-22.51 1262,-15.55"/>
</a>
</g>
</g>
<!-- Node16&#45;&gt;Node5 -->
<g id="edge25_Node000016_Node000005" class="edge">
<title>Node16&#45;&gt;Node5</title>
<g id="a_edge25_Node000016_Node000005"><a xlink:title=" ">
<path fill="none" stroke="#63b8ff" d="M1828.28,-60.47C1812.96,-58.56 1796.66,-56.61 1781.5,-55 1601.07,-35.78 1552.5,-41.43 1369.25,-19.14"/>
<polygon fill="#63b8ff" stroke="#63b8ff" points="1369.64,-15.66 1359.29,-17.92 1368.79,-22.61 1369.64,-15.66"/>
</a>
</g>
</g>
<!-- Node16&#45;&gt;Node9 -->
<g id="edge20_Node000016_Node000009" class="edge">
<title>Node16&#45;&gt;Node9</title>
<g id="a_edge20_Node000016_Node000009"><a xlink:title=" ">
<path fill="none" stroke="#63b8ff" d="M1833.11,-60.46C1767.86,-51.01 1659.68,-35.18 1556.58,-19.15"/>
<polygon fill="#63b8ff" stroke="#63b8ff" points="1557.04,-15.68 1546.62,-17.6 1555.96,-22.6 1557.04,-15.68"/>
</a>
</g>
</g>
<!-- Node17 -->
<g id="Node000017" class="node">
<title>Node17</title>
<g id="a_Node000017"><a xlink:title=" ">
<polygon fill="#e0e0e0" stroke="#999999" points="2048.5,-19 1914.5,-19 1914.5,0 2048.5,0 2048.5,-19"/>
<text text-anchor="middle" x="1981.5" y="-7" font-family="Helvetica,sans-Serif" font-size="10.00">QtCore/QReadWriteLock</text>
</a>
</g>
</g>
<!-- Node16&#45;&gt;Node17 -->
<g id="edge23_Node000016_Node000017" class="edge">
<title>Node16&#45;&gt;Node17</title>
<g id="a_edge23_Node000016_Node000017"><a xlink:title=" ">
<path fill="none" stroke="#63b8ff" d="M1905.63,-60.37C1919.83,-51.04 1942.7,-36.01 1959.62,-24.88"/>
<polygon fill="#63b8ff" stroke="#63b8ff" points="1961.88,-27.58 1968.31,-19.17 1958.03,-21.74 1961.88,-27.58"/>
</a>
</g>
</g>
<!-- Node18 -->
<g id="Node000018" class="node">
<title>Node18</title>
<g id="a_Node000018"><a xlink:title=" ">
<polygon fill="#e0e0e0" stroke="#999999" points="2144,-19 2067,-19 2067,0 2144,0 2144,-19"/>
<text text-anchor="middle" x="2105.5" y="-7" font-family="Helvetica,sans-Serif" font-size="10.00">QtCore/QSet</text>
</a>
</g>
</g>
<!-- Node16&#45;&gt;Node18 -->
<g id="edge24_Node000016_Node000018" class="edge">
<title>Node16&#45;&gt;Node18</title>
<g id="a_edge24_Node000016_Node000018"><a xlink:title=" ">
<path fill="none" stroke="#63b8ff" d="M1923.47,-60.49C1960.78,-50.25 2023.56,-33 2064.77,-21.69"/>
<polygon fill="#63b8ff" stroke="#63b8ff" points="2065.77,-25.04 2074.49,-19.02 2063.92,-18.29 2065.77,-25.04"/>
</a>
</g>
</g>
<!-- Node19 -->
<g id="Node000019" class="node">
<title>Node19</title>
<g id="a_Node000019"><a xlink:title=" ">
<polygon fill="#e0e0e0" stroke="#999999" points="2325,-19 2162,-19 2162,0 2325,0 2325,-19"/>
<text text-anchor="middle" x="2243.5" y="-7" font-family="Helvetica,sans-Serif" font-size="10.00">QtCore/QSortFilterProxyModel</text>
</a>
</g>
</g>
<!-- Node16&#45;&gt;Node19 -->
<g id="edge26_Node000016_Node000019" class="edge">
<title>Node16&#45;&gt;Node19</title>
<g id="a_edge26_Node000016_Node000019"><a xlink:title=" ">
<path fill="none" stroke="#63b8ff" d="M1935.69,-60.49C1945.48,-58.62 1955.84,-56.7 1965.5,-55 2037.56,-42.33 2120.39,-29.26 2176.77,-20.59"/>
<polygon fill="#63b8ff" stroke="#63b8ff" points="2177.62,-24 2186.98,-19.03 2176.56,-17.08 2177.62,-24"/>
</a>
</g>
</g>
<!-- Node20 -->
<g id="Node000020" class="node">
<title>Node20</title>
<g id="a_Node000020"><a xlink:title=" ">
<polygon fill="#e0e0e0" stroke="#999999" points="2428,-19 2343,-19 2343,0 2428,0 2428,-19"/>
<text text-anchor="middle" x="2385.5" y="-7" font-family="Helvetica,sans-Serif" font-size="10.00">QtQml/qqml.h</text>
</a>
</g>
</g>
<!-- Node16&#45;&gt;Node20 -->
<g id="edge27_Node000016_Node000020" class="edge">
<title>Node16&#45;&gt;Node20</title>
<g id="a_edge27_Node000016_Node000020"><a xlink:title=" ">
<path fill="none" stroke="#63b8ff" d="M1933.31,-60.48C1943.77,-58.49 1955.03,-56.51 1965.5,-55 2125.4,-31.92 2169.43,-40.21 2333.03,-19.11"/>
<polygon fill="#63b8ff" stroke="#63b8ff" points="2333.49,-22.58 2342.96,-17.81 2332.59,-15.64 2333.49,-22.58"/>
</a>
</g>
</g>
<!-- Node21&#45;&gt;Node4 -->
<g id="edge29_Node000021_Node000004" class="edge">
<title>Node21&#45;&gt;Node4</title>
<g id="a_edge29_Node000021_Node000004"><a xlink:title=" ">
<path fill="none" stroke="#63b8ff" d="M1348.42,-120.94C1322.47,-100.88 1257.44,-50.64 1224.81,-25.42"/>
<polygon fill="#63b8ff" stroke="#63b8ff" points="1226.94,-22.65 1216.89,-19.3 1222.66,-28.19 1226.94,-22.65"/>
</a>
</g>
</g>
<!-- Node21&#45;&gt;Node5 -->
<g id="edge31_Node000021_Node000005" class="edge">
<title>Node21&#45;&gt;Node5</title>
<g id="a_edge31_Node000021_Node000005"><a xlink:title=" ">
<path fill="none" stroke="#63b8ff" d="M1353.35,-120.68C1347.51,-111.97 1338.86,-98.08 1333.5,-85 1325.99,-66.7 1320.81,-44.61 1317.78,-29.26"/>
<polygon fill="#63b8ff" stroke="#63b8ff" points="1321.14,-28.2 1315.87,-19.01 1314.26,-29.48 1321.14,-28.2"/>
</a>
</g>
</g>
<!-- Node21&#45;&gt;Node7 -->
<g id="edge33_Node000021_Node000007" class="edge">
<title>Node21&#45;&gt;Node7</title>
<g id="a_edge33_Node000021_Node000007"><a xlink:title=" ">
<path fill="none" stroke="#63b8ff" d="M1311.99,-121.45C1260.74,-112.72 1176.77,-98.24 1104.5,-85 1098.34,-83.87 1091.88,-82.67 1085.47,-81.46"/>
<polygon fill="#63b8ff" stroke="#63b8ff" points="1085.96,-77.99 1075.48,-79.56 1084.66,-84.86 1085.96,-77.99"/>
</a>
</g>
</g>
<!-- Node21&#45;&gt;Node11 -->
<g id="edge30_Node000021_Node000011" class="edge">
<title>Node21&#45;&gt;Node11</title>
<g id="a_edge30_Node000021_Node000011"><a xlink:title=" ">
<path fill="none" stroke="#63b8ff" d="M1311.71,-125.9C1237.03,-119.88 1088.3,-106.29 963.5,-85 860.83,-67.49 741.91,-37.65 680.67,-21.56"/>
<polygon fill="#63b8ff" stroke="#63b8ff" points="681.55,-18.17 670.99,-19 679.77,-24.94 681.55,-18.17"/>
</a>
</g>
</g>
<!-- Node21&#45;&gt;Node13 -->
<g id="edge32_Node000021_Node000013" class="edge">
<title>Node21&#45;&gt;Node13</title>
<g id="a_edge32_Node000021_Node000013"><a xlink:title=" ">
<path fill="none" stroke="#63b8ff" d="M1384.51,-120.99C1414.06,-110.94 1463.41,-94.16 1496.69,-82.84"/>
<polygon fill="#63b8ff" stroke="#63b8ff" points="1498.12,-86.05 1506.46,-79.52 1495.87,-79.42 1498.12,-86.05"/>
</a>
</g>
</g>
<!-- Node22 -->
<g id="Node000022" class="node">
<title>Node22</title>
<g id="a_Node000022"><a xlink:href="QGCTileCacheTypes_8h.html" target="_top" xlink:title=" ">
<polygon fill="white" stroke="#666666" points="1466,-79.5 1343,-79.5 1343,-60.5 1466,-60.5 1466,-79.5"/>
<text text-anchor="middle" x="1404.5" y="-67.5" font-family="Helvetica,sans-Serif" font-size="10.00">QGCTileCacheTypes.h</text>
</a>
</g>
</g>
<!-- Node21&#45;&gt;Node22 -->
<g id="edge34_Node000021_Node000022" class="edge">
<title>Node21&#45;&gt;Node22</title>
<g id="a_edge34_Node000021_Node000022"><a xlink:title=" ">
<path fill="none" stroke="#63b8ff" d="M1366.14,-120.87C1372.79,-112.23 1383.19,-98.7 1391.49,-87.92"/>
<polygon fill="#63b8ff" stroke="#63b8ff" points="1394.51,-89.73 1397.83,-79.67 1388.96,-85.46 1394.51,-89.73"/>
</a>
</g>
</g>
<!-- Node21&#45;&gt;Node24 -->
<g id="edge37_Node000021_Node000024" class="edge">
<title>Node21&#45;&gt;Node24</title>
<g id="a_edge37_Node000021_Node000024"><a xlink:title=" ">
<path fill="none" stroke="#63b8ff" d="M1407.06,-122.06C1453.47,-114.36 1525.88,-101.21 1587.5,-85 1590.29,-84.27 1593.16,-83.45 1596.03,-82.58"/>
<polygon fill="#63b8ff" stroke="#63b8ff" points="1597.19,-85.89 1605.67,-79.53 1595.08,-79.21 1597.19,-85.89"/>
</a>
</g>
</g>
<!-- Node22&#45;&gt;Node5 -->
<g id="edge35_Node000022_Node000005" class="edge">
<title>Node22&#45;&gt;Node5</title>
<g id="a_edge35_Node000022_Node000005"><a xlink:title=" ">
<path fill="none" stroke="#63b8ff" d="M1391.22,-60.37C1376.86,-51.04 1353.74,-36.01 1336.63,-24.88"/>
<polygon fill="#63b8ff" stroke="#63b8ff" points="1338.13,-21.68 1327.83,-19.17 1334.31,-27.55 1338.13,-21.68"/>
</a>
</g>
</g>
<!-- Node23 -->
<g id="Node000023" class="node">
<title>Node23</title>
<g id="a_Node000023"><a xlink:title=" ">
<polygon fill="#e0e0e0" stroke="#999999" points="1442,-19 1377,-19 1377,0 1442,0 1442,-19"/>
<text text-anchor="middle" x="1409.5" y="-7" font-family="Helvetica,sans-Serif" font-size="10.00">functional</text>
</a>
</g>
</g>
<!-- Node22&#45;&gt;Node23 -->
<g id="edge36_Node000022_Node000023" class="edge">
<title>Node22&#45;&gt;Node23</title>
<g id="a_edge36_Node000022_Node000023"><a xlink:title=" ">
<path fill="none" stroke="#63b8ff" d="M1405.24,-60.37C1405.93,-52.25 1407,-39.81 1407.89,-29.39"/>
<polygon fill="#63b8ff" stroke="#63b8ff" points="1411.39,-29.43 1408.76,-19.17 1404.42,-28.83 1411.39,-29.43"/>
</a>
</g>
</g>
<!-- Node24&#45;&gt;Node5 -->
<g id="edge40_Node000024_Node000005" class="edge">
<title>Node24&#45;&gt;Node5</title>
<g id="a_edge40_Node000024_Node000005"><a xlink:title=" ">
<path fill="none" stroke="#63b8ff" d="M1606.15,-60.48C1600.13,-58.49 1593.62,-56.51 1587.5,-55 1582.22,-53.7 1447.41,-31.91 1369.24,-19.31"/>
<polygon fill="#63b8ff" stroke="#63b8ff" points="1369.51,-15.81 1359.08,-17.67 1368.39,-22.72 1369.51,-15.81"/>
</a>
</g>
</g>
<!-- Node24&#45;&gt;Node15 -->
<g id="edge39_Node000024_Node000015" class="edge">
<title>Node24&#45;&gt;Node15</title>
<g id="a_edge39_Node000024_Node000015"><a xlink:title=" ">
<path fill="none" stroke="#63b8ff" d="M1654.29,-60.43C1659.92,-58.57 1665.9,-56.66 1671.5,-55 1713.79,-42.46 1762.53,-29.97 1797.13,-21.43"/>
<polygon fill="#63b8ff" stroke="#63b8ff" points="1798.06,-24.8 1806.94,-19.02 1796.39,-18 1798.06,-24.8"/>
</a>
</g>
</g>
<!-- Node25 -->
<g id="Node000025" class="node">
<title>Node25</title>
<g id="a_Node000025"><a xlink:title=" ">
<polygon fill="#e0e0e0" stroke="#999999" points="1770.5,-19 1692.5,-19 1692.5,0 1770.5,0 1770.5,-19"/>
<text text-anchor="middle" x="1731.5" y="-7" font-family="Helvetica,sans-Serif" font-size="10.00">QtCore/QList</text>
</a>
</g>
</g>
<!-- Node24&#45;&gt;Node25 -->
<g id="edge38_Node000024_Node000025" class="edge">
<title>Node24&#45;&gt;Node25</title>
<g id="a_edge38_Node000024_Node000025"><a xlink:title=" ">
<path fill="none" stroke="#63b8ff" d="M1644.55,-60.37C1661.12,-50.86 1688,-35.45 1707.49,-24.27"/>
<polygon fill="#63b8ff" stroke="#63b8ff" points="1709.45,-27.18 1716.39,-19.17 1705.97,-21.11 1709.45,-27.18"/>
</a>
</g>
</g>
<!-- Node26&#45;&gt;Node3 -->
<g id="edge44_Node000026_Node000003" class="edge">
<title>Node26&#45;&gt;Node3</title>
<g id="a_edge44_Node000026_Node000003"><a xlink:title=" ">
<path fill="none" stroke="#63b8ff" d="M593.57,-62.06C691.81,-51.42 879.61,-31.07 987.61,-19.37"/>
<polygon fill="#63b8ff" stroke="#63b8ff" points="988.24,-22.82 997.81,-18.27 987.49,-15.86 988.24,-22.82"/>
</a>
</g>
</g>
<!-- Node26&#45;&gt;Node5 -->
<g id="edge47_Node000026_Node000005" class="edge">
<title>Node26&#45;&gt;Node5</title>
<g id="a_edge47_Node000026_Node000005"><a xlink:title=" ">
<path fill="none" stroke="#63b8ff" d="M593.72,-66.51C719.48,-61.21 1007.24,-47.05 1259.65,-18.99"/>
<polygon fill="#63b8ff" stroke="#63b8ff" points="1260.2,-22.45 1269.75,-17.85 1259.42,-15.49 1260.2,-22.45"/>
</a>
</g>
</g>
<!-- Node26&#45;&gt;Node10 -->
<g id="edge45_Node000026_Node000010" class="edge">
<title>Node26&#45;&gt;Node10</title>
<g id="a_edge45_Node000026_Node000010"><a xlink:title=" ">
<path fill="none" stroke="#63b8ff" d="M529.5,-60.37C529.5,-52.25 529.5,-39.81 529.5,-29.39"/>
<polygon fill="#63b8ff" stroke="#63b8ff" points="533,-29.17 529.5,-19.17 526,-29.17 533,-29.17"/>
</a>
</g>
</g>
<!-- Node26&#45;&gt;Node11 -->
<g id="edge46_Node000026_Node000011" class="edge">
<title>Node26&#45;&gt;Node11</title>
<g id="a_edge46_Node000026_Node000011"><a xlink:title=" ">
<path fill="none" stroke="#63b8ff" d="M545.73,-60.37C563.77,-50.78 593.12,-35.17 614.18,-23.97"/>
<polygon fill="#63b8ff" stroke="#63b8ff" points="616.02,-26.95 623.2,-19.17 612.73,-20.77 616.02,-26.95"/>
</a>
</g>
</g>
<!-- Node27 -->
<g id="Node000027" class="node">
<title>Node27</title>
<g id="a_Node000027"><a xlink:title=" ">
<polygon fill="#e0e0e0" stroke="#999999" points="351.5,-19 223.5,-19 223.5,0 351.5,0 351.5,-19"/>
<text text-anchor="middle" x="287.5" y="-7" font-family="Helvetica,sans-Serif" font-size="10.00">QtCore/QElapsedTimer</text>
</a>
</g>
</g>
<!-- Node26&#45;&gt;Node27 -->
<g id="edge43_Node000026_Node000027" class="edge">
<title>Node26&#45;&gt;Node27</title>
<g id="a_edge43_Node000026_Node000027"><a xlink:title=" ">
<path fill="none" stroke="#63b8ff" d="M494.31,-60.49C451.57,-50.16 379.38,-32.71 332.6,-21.4"/>
<polygon fill="#63b8ff" stroke="#63b8ff" points="333.27,-17.96 322.73,-19.02 331.63,-24.77 333.27,-17.96"/>
</a>
</g>
</g>
<!-- Node28 -->
<g id="Node000028" class="node">
<title>Node28</title>
<g id="a_Node000028"><a xlink:title=" ">
<polygon fill="#e0e0e0" stroke="#999999" points="465,-19 370,-19 370,0 465,0 465,-19"/>
<text text-anchor="middle" x="417.5" y="-7" font-family="Helvetica,sans-Serif" font-size="10.00">QtCore/QThread</text>
</a>
</g>
</g>
<!-- Node26&#45;&gt;Node28 -->
<g id="edge48_Node000026_Node000028" class="edge">
<title>Node26&#45;&gt;Node28</title>
<g id="a_edge48_Node000026_Node000028"><a xlink:title=" ">
<path fill="none" stroke="#63b8ff" d="M512.97,-60.37C494.53,-50.73 464.46,-35.03 442.99,-23.81"/>
<polygon fill="#63b8ff" stroke="#63b8ff" points="444.58,-20.69 434.09,-19.17 441.34,-26.9 444.58,-20.69"/>
</a>
</g>
</g>
<!-- Node29 -->
<g id="Node000029" class="node">
<title>Node29</title>
<g id="a_Node000029"><a xlink:title=" ">
<polygon fill="#e0e0e0" stroke="#999999" points="129,-19 0,-19 0,0 129,0 129,-19"/>
<text text-anchor="middle" x="64.5" y="-7" font-family="Helvetica,sans-Serif" font-size="10.00">QtCore/QWaitCondition</text>
</a>
</g>
</g>
<!-- Node26&#45;&gt;Node29 -->
<g id="edge49_Node000026_Node000029" class="edge">
<title>Node26&#45;&gt;Node29</title>
<g id="a_edge49_Node000026_Node000029"><a xlink:title=" ">
<path fill="none" stroke="#63b8ff" d="M465.33,-60.93C380.05,-50.2 229.63,-31.28 139.3,-19.91"/>
<polygon fill="#63b8ff" stroke="#63b8ff" points="139.49,-16.41 129.13,-18.63 138.61,-23.35 139.49,-16.41"/>
</a>
</g>
</g>
<!-- Node30 -->
<g id="Node000030" class="node">
<title>Node30</title>
<g id="a_Node000030"><a xlink:title=" ">
<polygon fill="#e0e0e0" stroke="#999999" points="205.5,-19 147.5,-19 147.5,0 205.5,0 205.5,-19"/>
<text text-anchor="middle" x="176.5" y="-7" font-family="Helvetica,sans-Serif" font-size="10.00">memory</text>
</a>
</g>
</g>
<!-- Node26&#45;&gt;Node30 -->
<g id="edge50_Node000026_Node000030" class="edge">
<title>Node26&#45;&gt;Node30</title>
<g id="a_edge50_Node000026_Node000030"><a xlink:title=" ">
<path fill="none" stroke="#63b8ff" d="M468.62,-60.49C407.2,-51.65 309.44,-36.86 215.47,-19.08"/>
<polygon fill="#63b8ff" stroke="#63b8ff" points="215.99,-15.62 205.51,-17.18 214.68,-22.5 215.99,-15.62"/>
</a>
</g>
</g>
<!-- Node31&#45;&gt;Node15 -->
<g id="edge52_Node000031_Node000015" class="edge">
<title>Node31&#45;&gt;Node15</title>
<g id="a_edge52_Node000031_Node000015"><a xlink:title=" ">
<path fill="none" stroke="#63b8ff" d="M1728.08,-120.94C1742.95,-112.83 1764.91,-99.71 1781.5,-85 1801.16,-67.57 1819.67,-43.46 1831.03,-27.45"/>
<polygon fill="#63b8ff" stroke="#63b8ff" points="1834.02,-29.27 1836.85,-19.06 1828.27,-25.28 1834.02,-29.27"/>
</a>
</g>
</g>
<!-- Node32 -->
<g id="Node000032" class="node">
<title>Node32</title>
<g id="a_Node000032"><a xlink:title=" ">
<polygon fill="#e0e0e0" stroke="#999999" points="1772.5,-79.5 1680.5,-79.5 1680.5,-60.5 1772.5,-60.5 1772.5,-79.5"/>
<text text-anchor="middle" x="1726.5" y="-67.5" font-family="Helvetica,sans-Serif" font-size="10.00">QtCore/QtTypes</text>
</a>
</g>
</g>
<!-- Node31&#45;&gt;Node32 -->
<g id="edge53_Node000031_Node000032" class="edge">
<title>Node31&#45;&gt;Node32</title>
<g id="a_edge53_Node000031_Node000032"><a xlink:title=" ">
<path fill="none" stroke="#63b8ff" d="M1713.71,-120.87C1715.82,-112.66 1719.05,-100.04 1721.74,-89.55"/>
<polygon fill="#63b8ff" stroke="#63b8ff" points="1725.18,-90.22 1724.28,-79.67 1718.4,-88.48 1725.18,-90.22"/>
</a>
</g>
</g>
<!-- Node33&#45;&gt;Node3 -->
<g id="edge56_Node000033_Node000003" class="edge">
<title>Node33&#45;&gt;Node3</title>
<g id="a_edge56_Node000033_Node000003"><a xlink:title=" ">
<path fill="none" stroke="#63b8ff" d="M1808.32,-124.28C1792.59,-123.16 1775.97,-122 1760.5,-121 1691.31,-116.51 1200.1,-114.81 1137.5,-85 1111.89,-72.8 1091.46,-46.21 1079.91,-28.32"/>
<polygon fill="#63b8ff" stroke="#63b8ff" points="1082.66,-26.11 1074.43,-19.43 1076.7,-29.78 1082.66,-26.11"/>
</a>
</g>
</g>
<!-- Node34 -->
<g id="Node000034" class="node">
<title>Node34</title>
<g id="a_Node000034"><a xlink:title=" ">
<polygon fill="#e0e0e0" stroke="#999999" points="2024.5,-79.5 1974.5,-79.5 1974.5,-60.5 2024.5,-60.5 2024.5,-79.5"/>
<text text-anchor="middle" x="1999.5" y="-67.5" font-family="Helvetica,sans-Serif" font-size="10.00">atomic</text>
</a>
</g>
</g>
<!-- Node33&#45;&gt;Node34 -->
<g id="edge55_Node000033_Node000034" class="edge">
<title>Node33&#45;&gt;Node34</title>
<g id="a_edge55_Node000033_Node000034"><a xlink:title=" ">
<path fill="none" stroke="#63b8ff" d="M1896.09,-120.99C1916.26,-111.25 1949.52,-95.16 1972.86,-83.88"/>
<polygon fill="#63b8ff" stroke="#63b8ff" points="1974.4,-87.02 1981.88,-79.52 1971.36,-80.72 1974.4,-87.02"/>
</a>
</g>
</g>
<!-- Node35 -->
<g id="Node000035" class="node">
<title>Node35</title>
<g id="a_Node000035"><a xlink:title=" ">
<polygon fill="#e0e0e0" stroke="#999999" points="2166,-85 2043,-85 2043,-55 2166,-55 2166,-85"/>
<text text-anchor="start" x="2051" y="-73" font-family="Helvetica,sans-Serif" font-size="10.00">QtLocation/private</text>
<text text-anchor="middle" x="2104.5" y="-62" font-family="Helvetica,sans-Serif" font-size="10.00">/qgeofiletilecache_p.h</text>
</a>
</g>
</g>
<!-- Node33&#45;&gt;Node35 -->
<g id="edge57_Node000033_Node000035" class="edge">
<title>Node33&#45;&gt;Node35</title>
<g id="a_edge57_Node000033_Node000035"><a xlink:title=" ">
<path fill="none" stroke="#63b8ff" d="M1911.36,-120.99C1945.02,-112.28 1998.23,-98.51 2040.28,-87.62"/>
<polygon fill="#63b8ff" stroke="#63b8ff" points="2041.36,-90.96 2050.17,-85.06 2039.61,-84.18 2041.36,-90.96"/>
</a>
</g>
</g>
</g>
</svg>

<g id="navigator" transform="translate(0 0)" fill="#404254">
  <rect fill="#f2f5e9" fill-opacity="0.5" stroke="#606060" stroke-width=".5" x="0" y="0" width="60" height="60"/>
  <use id="zoomplus" xlink:href="#zoomPlus" x="17" y="9" onmousedown="handleZoom(evt,'in')"/>
  <use id="zoomminus" xlink:href="#zoomMin" x="42" y="9" onmousedown="handleZoom(evt,'out')"/>
  <use id="reset" xlink:href="#resetDef" x="30" y="36" onmousedown="handleReset()"/>
   <use id="arrowup" xlink:href="#arrowUp" x="0" y="0" onmousedown="handlePan(0,-1)"/>
  <use id="arrowright" xlink:href="#arrowRight" x="0" y="0" onmousedown="handlePan(1,0)"/>
  <use id="arrowdown" xlink:href="#arrowDown" x="0" y="0" onmousedown="handlePan(0,1)"/>
  <use id="arrowleft" xlink:href="#arrowLeft" x="0" y="0" onmousedown="handlePan(-1,0)"/>
</g>
<svg viewBox="0 0 15 15" width="100%" height="30px" preserveAspectRatio="xMaxYMin meet">
 <g id="arrow_out" transform="scale(0.3 0.3)">
  <a xlink:href="QGCMapEngine_8cpp__incl_org.svg" target="_base">
   <rect id="button" ry="5" rx="5" y="6" x="6" height="38" width="38"
        fill="#f2f5e9" fill-opacity="0.5" stroke="#606060" stroke-width="1.0"/>
   <path id="arrow"
     d="M 11.500037,31.436501 C 11.940474,20.09759 22.043105,11.32322 32.158766,21.979434 L 37.068811,17.246167 C 37.068811,17.246167 37.088388,32 37.088388,32 L 22.160133,31.978069 C 22.160133,31.978069 26.997745,27.140456 26.997745,27.140456 C 18.528582,18.264221 13.291696,25.230495 11.500037,31.436501 z"
     style="fill:#404040;"/>
  </a>
 </g>
</svg>

<style type='text/css'>
<![CDATA[
[data-mouse-over-selected='false'] { opacity: 0.7; }
[data-mouse-over-selected='true']  { opacity: 1.0; }
]]>
</style>
<script type="application/ecmascript"><![CDATA[
document.addEventListener('DOMContentLoaded', (event) => {
  highlightEdges();
  highlightAdjacentNodes();
});
]]></script>
</svg>
