<?xml version="1.0" encoding="UTF-8" standalone="no"?>
<!DOCTYPE svg PUBLIC "-//W3C//DTD SVG 1.1//EN"
 "http://www.w3.org/Graphics/SVG/1.1/DTD/svg11.dtd">
<!-- Generated by graphviz version 2.43.0 (0)
 -->
<!-- Title: src/QtLocationPlugin/QGCMapEngineManager.h Pages: 1 -->
<svg width="1420pt" height="203pt"
 viewBox="0.00 0.00 1420.00 203.00" xmlns="http://www.w3.org/2000/svg" xmlns:xlink="http://www.w3.org/1999/xlink">
<g id="graph0" class="graph" transform="scale(1 1) rotate(0) translate(4 199)">
<title>src/QtLocationPlugin/QGCMapEngineManager.h</title>
<!-- Node1 -->
<g id="Node000001" class="node">
<title>Node1</title>
<g id="a_Node000001"><a xlink:title=" ">
<polygon fill="#999999" stroke="#666666" points="491,-195 345,-195 345,-165 491,-165 491,-195"/>
<text text-anchor="start" x="353" y="-183" font-family="Helvetica,sans-Serif" font-size="10.00">src/QtLocationPlugin</text>
<text text-anchor="middle" x="418" y="-172" font-family="Helvetica,sans-Serif" font-size="10.00">/QGCMapEngineManager.h</text>
</a>
</g>
</g>
<!-- Node2 -->
<g id="Node000002" class="node">
<title>Node2</title>
<g id="a_Node000002"><a xlink:title=" ">
<polygon fill="#e0e0e0" stroke="#999999" points="683.5,-19 540.5,-19 540.5,0 683.5,0 683.5,-19"/>
<text text-anchor="middle" x="612" y="-7" font-family="Helvetica,sans-Serif" font-size="10.00">QtCore/QLoggingCategory</text>
</a>
</g>
</g>
<!-- Node1&#45;&gt;Node2 -->
<g id="edge1_Node000001_Node000002" class="edge">
<title>Node1&#45;&gt;Node2</title>
<g id="a_edge1_Node000001_Node000002"><a xlink:title=" ">
<path fill="none" stroke="#63b8ff" d="M487.36,-164.98C510.98,-157.46 536.14,-146.09 555,-129 585.06,-101.76 600.85,-55.24 607.7,-29.33"/>
<polygon fill="#63b8ff" stroke="#63b8ff" points="611.18,-29.86 610.17,-19.31 604.38,-28.18 611.18,-29.86"/>
</a>
</g>
</g>
<!-- Node3 -->
<g id="Node000003" class="node">
<title>Node3</title>
<g id="a_Node000003"><a xlink:title=" ">
<polygon fill="#e0e0e0" stroke="#999999" points="432.5,-129 243.5,-129 243.5,-110 432.5,-110 432.5,-129"/>
<text text-anchor="middle" x="338" y="-117" font-family="Helvetica,sans-Serif" font-size="10.00">QtQmlIntegration/QtQmlIntegration</text>
</a>
</g>
</g>
<!-- Node1&#45;&gt;Node3 -->
<g id="edge2_Node000001_Node000003" class="edge">
<title>Node1&#45;&gt;Node3</title>
<g id="a_edge2_Node000001_Node000003"><a xlink:title=" ">
<path fill="none" stroke="#63b8ff" d="M398.63,-164.84C386.43,-155.91 370.69,-144.41 358.31,-135.35"/>
<polygon fill="#63b8ff" stroke="#63b8ff" points="360.13,-132.34 349.99,-129.27 355.99,-137.99 360.13,-132.34"/>
</a>
</g>
</g>
<!-- Node4 -->
<g id="Node000004" class="node">
<title>Node4</title>
<g id="a_Node000004"><a xlink:href="QGCTileSet_8h.html" target="_top" xlink:title=" ">
<polygon fill="white" stroke="#666666" points="177.5,-129 96.5,-129 96.5,-110 177.5,-110 177.5,-129"/>
<text text-anchor="middle" x="137" y="-117" font-family="Helvetica,sans-Serif" font-size="10.00">QGCTileSet.h</text>
</a>
</g>
</g>
<!-- Node1&#45;&gt;Node4 -->
<g id="edge3_Node000001_Node000004" class="edge">
<title>Node1&#45;&gt;Node4</title>
<g id="a_edge3_Node000001_Node000004"><a xlink:title=" ">
<path fill="none" stroke="#63b8ff" d="M350.69,-164.99C300.58,-154.55 233.23,-140.53 187.63,-131.04"/>
<polygon fill="#63b8ff" stroke="#63b8ff" points="188.18,-127.58 177.68,-128.97 186.75,-134.43 188.18,-127.58"/>
</a>
</g>
</g>
<!-- Node7 -->
<g id="Node000007" class="node">
<title>Node7</title>
<g id="a_Node000007"><a xlink:href="QGCMapTasks_8h.html" target="_top" xlink:title=" ">
<polygon fill="white" stroke="#666666" points="545.5,-129 450.5,-129 450.5,-110 545.5,-110 545.5,-129"/>
<text text-anchor="middle" x="498" y="-117" font-family="Helvetica,sans-Serif" font-size="10.00">QGCMapTasks.h</text>
</a>
</g>
</g>
<!-- Node1&#45;&gt;Node7 -->
<g id="edge6_Node000001_Node000007" class="edge">
<title>Node1&#45;&gt;Node7</title>
<g id="a_edge6_Node000001_Node000007"><a xlink:title=" ">
<path fill="none" stroke="#63b8ff" d="M437.37,-164.84C449.57,-155.91 465.31,-144.41 477.69,-135.35"/>
<polygon fill="#63b8ff" stroke="#63b8ff" points="480.01,-137.99 486.01,-129.27 475.87,-132.34 480.01,-137.99"/>
</a>
</g>
</g>
<!-- Node5 -->
<g id="Node000005" class="node">
<title>Node5</title>
<g id="a_Node000005"><a xlink:title=" ">
<polygon fill="#e0e0e0" stroke="#999999" points="204,-19 96,-19 96,0 204,0 204,-19"/>
<text text-anchor="middle" x="150" y="-7" font-family="Helvetica,sans-Serif" font-size="10.00">QtCore/QMetaType</text>
</a>
</g>
</g>
<!-- Node4&#45;&gt;Node5 -->
<g id="edge4_Node000004_Node000005" class="edge">
<title>Node4&#45;&gt;Node5</title>
<g id="a_edge4_Node000004_Node000005"><a xlink:title=" ">
<path fill="none" stroke="#63b8ff" d="M119.97,-110C99.68,-98.64 69.93,-77.32 82,-55 89.58,-40.98 103.7,-30.67 117.13,-23.53"/>
<polygon fill="#63b8ff" stroke="#63b8ff" points="118.77,-26.62 126.22,-19.08 115.7,-20.33 118.77,-26.62"/>
</a>
</g>
</g>
<!-- Node6 -->
<g id="Node000006" class="node">
<title>Node6</title>
<g id="a_Node000006"><a xlink:title=" ">
<polygon fill="#e0e0e0" stroke="#999999" points="183,-74 91,-74 91,-55 183,-55 183,-74"/>
<text text-anchor="middle" x="137" y="-62" font-family="Helvetica,sans-Serif" font-size="10.00">QtCore/QtTypes</text>
</a>
</g>
</g>
<!-- Node4&#45;&gt;Node6 -->
<g id="edge5_Node000004_Node000006" class="edge">
<title>Node4&#45;&gt;Node6</title>
<g id="a_edge5_Node000004_Node000006"><a xlink:title=" ">
<path fill="none" stroke="#63b8ff" d="M137,-109.75C137,-102.8 137,-92.85 137,-84.13"/>
<polygon fill="#63b8ff" stroke="#63b8ff" points="140.5,-84.09 137,-74.09 133.5,-84.09 140.5,-84.09"/>
</a>
</g>
</g>
<!-- Node8 -->
<g id="Node000008" class="node">
<title>Node8</title>
<g id="a_Node000008"><a xlink:title=" ">
<polygon fill="#e0e0e0" stroke="#999999" points="1302,-19 1210,-19 1210,0 1302,0 1302,-19"/>
<text text-anchor="middle" x="1256" y="-7" font-family="Helvetica,sans-Serif" font-size="10.00">QtCore/QObject</text>
</a>
</g>
</g>
<!-- Node7&#45;&gt;Node8 -->
<g id="edge7_Node000007_Node000008" class="edge">
<title>Node7&#45;&gt;Node8</title>
<g id="a_edge7_Node000007_Node000008"><a xlink:title=" ">
<path fill="none" stroke="#63b8ff" d="M545.54,-116.51C633.81,-112.3 828.81,-100.61 991,-74 1072.19,-60.68 1165.36,-36.15 1216.77,-21.79"/>
<polygon fill="#63b8ff" stroke="#63b8ff" points="1217.8,-25.14 1226.48,-19.06 1215.91,-18.4 1217.8,-25.14"/>
</a>
</g>
</g>
<!-- Node9 -->
<g id="Node000009" class="node">
<title>Node9</title>
<g id="a_Node000009"><a xlink:title=" ">
<polygon fill="#e0e0e0" stroke="#999999" points="1412,-19 1320,-19 1320,0 1412,0 1412,-19"/>
<text text-anchor="middle" x="1366" y="-7" font-family="Helvetica,sans-Serif" font-size="10.00">QtCore/QQueue</text>
</a>
</g>
</g>
<!-- Node7&#45;&gt;Node9 -->
<g id="edge8_Node000007_Node000009" class="edge">
<title>Node7&#45;&gt;Node9</title>
<g id="a_edge8_Node000007_Node000009"><a xlink:title=" ">
<path fill="none" stroke="#63b8ff" d="M545.74,-116.53C641.55,-112.16 863.9,-99.92 1049,-74 1146.47,-60.35 1259.15,-35.61 1320.46,-21.37"/>
<polygon fill="#63b8ff" stroke="#63b8ff" points="1321.64,-24.69 1330.58,-19.01 1320.04,-17.87 1321.64,-24.69"/>
</a>
</g>
</g>
<!-- Node10 -->
<g id="Node000010" class="node">
<title>Node10</title>
<g id="a_Node000010"><a xlink:title=" ">
<polygon fill="#e0e0e0" stroke="#999999" points="439.5,-19 350.5,-19 350.5,0 439.5,0 439.5,-19"/>
<text text-anchor="middle" x="395" y="-7" font-family="Helvetica,sans-Serif" font-size="10.00">QtCore/QString</text>
</a>
</g>
</g>
<!-- Node7&#45;&gt;Node10 -->
<g id="edge9_Node000007_Node000010" class="edge">
<title>Node7&#45;&gt;Node10</title>
<g id="a_edge9_Node000007_Node000010"><a xlink:title=" ">
<path fill="none" stroke="#63b8ff" d="M479.13,-109.97C463.83,-102.3 442.5,-89.82 428,-74 415.94,-60.85 407.03,-42.47 401.53,-28.87"/>
<polygon fill="#63b8ff" stroke="#63b8ff" points="404.67,-27.28 397.85,-19.17 398.12,-29.76 404.67,-27.28"/>
</a>
</g>
</g>
<!-- Node11 -->
<g id="Node000011" class="node">
<title>Node11</title>
<g id="a_Node000011"><a xlink:href="QGCCacheTile_8h.html" target="_top" xlink:title=" ">
<polygon fill="white" stroke="#666666" points="379.5,-74 284.5,-74 284.5,-55 379.5,-55 379.5,-74"/>
<text text-anchor="middle" x="332" y="-62" font-family="Helvetica,sans-Serif" font-size="10.00">QGCCacheTile.h</text>
</a>
</g>
</g>
<!-- Node7&#45;&gt;Node11 -->
<g id="edge10_Node000007_Node000011" class="edge">
<title>Node7&#45;&gt;Node11</title>
<g id="a_edge10_Node000007_Node000011"><a xlink:title=" ">
<path fill="none" stroke="#63b8ff" d="M471.33,-109.98C443.46,-101.09 399.55,-87.07 368.48,-77.15"/>
<polygon fill="#63b8ff" stroke="#63b8ff" points="369.47,-73.79 358.88,-74.08 367.34,-80.46 369.47,-73.79"/>
</a>
</g>
</g>
<!-- Node13 -->
<g id="Node000013" class="node">
<title>Node13</title>
<g id="a_Node000013"><a xlink:href="QGCCachedTileSet_8h.html" target="_top" xlink:title=" ">
<polygon fill="white" stroke="#666666" points="981.5,-74 864.5,-74 864.5,-55 981.5,-55 981.5,-74"/>
<text text-anchor="middle" x="923" y="-62" font-family="Helvetica,sans-Serif" font-size="10.00">QGCCachedTileSet.h</text>
</a>
</g>
</g>
<!-- Node7&#45;&gt;Node13 -->
<g id="edge14_Node000007_Node000013" class="edge">
<title>Node7&#45;&gt;Node13</title>
<g id="a_edge14_Node000007_Node000013"><a xlink:title=" ">
<path fill="none" stroke="#63b8ff" d="M545.52,-112.57C620.73,-103.19 767.56,-84.88 854.26,-74.07"/>
<polygon fill="#63b8ff" stroke="#63b8ff" points="854.78,-77.53 864.27,-72.82 853.91,-70.59 854.78,-77.53"/>
</a>
</g>
</g>
<!-- Node18 -->
<g id="Node000018" class="node">
<title>Node18</title>
<g id="a_Node000018"><a xlink:href="QGCTileCacheTypes_8h.html" target="_top" xlink:title=" ">
<polygon fill="white" stroke="#666666" points="559.5,-74 436.5,-74 436.5,-55 559.5,-55 559.5,-74"/>
<text text-anchor="middle" x="498" y="-62" font-family="Helvetica,sans-Serif" font-size="10.00">QGCTileCacheTypes.h</text>
</a>
</g>
</g>
<!-- Node7&#45;&gt;Node18 -->
<g id="edge23_Node000007_Node000018" class="edge">
<title>Node7&#45;&gt;Node18</title>
<g id="a_edge23_Node000007_Node000018"><a xlink:title=" ">
<path fill="none" stroke="#63b8ff" d="M498,-109.75C498,-102.8 498,-92.85 498,-84.13"/>
<polygon fill="#63b8ff" stroke="#63b8ff" points="501.5,-84.09 498,-74.09 494.5,-84.09 501.5,-84.09"/>
</a>
</g>
</g>
<!-- Node20 -->
<g id="Node000020" class="node">
<title>Node20</title>
<g id="a_Node000020"><a xlink:href="QGCTile_8h.html" target="_top" xlink:title=" ">
<polygon fill="white" stroke="#666666" points="266.5,-74 201.5,-74 201.5,-55 266.5,-55 266.5,-74"/>
<text text-anchor="middle" x="234" y="-62" font-family="Helvetica,sans-Serif" font-size="10.00">QGCTile.h</text>
</a>
</g>
</g>
<!-- Node7&#45;&gt;Node20 -->
<g id="edge26_Node000007_Node000020" class="edge">
<title>Node7&#45;&gt;Node20</title>
<g id="a_edge26_Node000007_Node000020"><a xlink:title=" ">
<path fill="none" stroke="#63b8ff" d="M454.81,-109.98C411.98,-101.51 344.21,-88.05 276.63,-74.32"/>
<polygon fill="#63b8ff" stroke="#63b8ff" points="277.17,-70.86 266.67,-72.3 275.77,-77.72 277.17,-70.86"/>
</a>
</g>
</g>
<!-- Node11&#45;&gt;Node5 -->
<g id="edge12_Node000011_Node000005" class="edge">
<title>Node11&#45;&gt;Node5</title>
<g id="a_edge12_Node000011_Node000005"><a xlink:title=" ">
<path fill="none" stroke="#63b8ff" d="M302.76,-54.98C271.94,-46.01 223.22,-31.82 189.11,-21.89"/>
<polygon fill="#63b8ff" stroke="#63b8ff" points="190.05,-18.52 179.47,-19.08 188.09,-25.24 190.05,-18.52"/>
</a>
</g>
</g>
<!-- Node11&#45;&gt;Node10 -->
<g id="edge13_Node000011_Node000010" class="edge">
<title>Node11&#45;&gt;Node10</title>
<g id="a_edge13_Node000011_Node000010"><a xlink:title=" ">
<path fill="none" stroke="#63b8ff" d="M342.12,-54.98C351.44,-47.15 365.47,-35.34 376.74,-25.86"/>
<polygon fill="#63b8ff" stroke="#63b8ff" points="379.29,-28.29 384.69,-19.17 374.79,-22.93 379.29,-28.29"/>
</a>
</g>
</g>
<!-- Node12 -->
<g id="Node000012" class="node">
<title>Node12</title>
<g id="a_Node000012"><a xlink:title=" ">
<polygon fill="#e0e0e0" stroke="#999999" points="332,-19 222,-19 222,0 332,0 332,-19"/>
<text text-anchor="middle" x="277" y="-7" font-family="Helvetica,sans-Serif" font-size="10.00">QtCore/QByteArray</text>
</a>
</g>
</g>
<!-- Node11&#45;&gt;Node12 -->
<g id="edge11_Node000011_Node000012" class="edge">
<title>Node11&#45;&gt;Node12</title>
<g id="a_edge11_Node000011_Node000012"><a xlink:title=" ">
<path fill="none" stroke="#63b8ff" d="M322.92,-54.75C314.91,-47.03 303.04,-35.6 293.38,-26.28"/>
<polygon fill="#63b8ff" stroke="#63b8ff" points="295.54,-23.51 285.91,-19.09 290.69,-28.55 295.54,-23.51"/>
</a>
</g>
</g>
<!-- Node13&#45;&gt;Node2 -->
<g id="edge17_Node000013_Node000002" class="edge">
<title>Node13&#45;&gt;Node2</title>
<g id="a_edge17_Node000013_Node000002"><a xlink:title=" ">
<path fill="none" stroke="#63b8ff" d="M873.03,-54.98C818.36,-45.67 730.75,-30.74 672.3,-20.78"/>
<polygon fill="#63b8ff" stroke="#63b8ff" points="672.55,-17.27 662.1,-19.04 671.37,-24.17 672.55,-17.27"/>
</a>
</g>
</g>
<!-- Node13&#45;&gt;Node8 -->
<g id="edge19_Node000013_Node000008" class="edge">
<title>Node13&#45;&gt;Node8</title>
<g id="a_edge19_Node000013_Node000008"><a xlink:title=" ">
<path fill="none" stroke="#63b8ff" d="M976.5,-54.98C1037.72,-45.24 1137.52,-29.36 1199.83,-19.44"/>
<polygon fill="#63b8ff" stroke="#63b8ff" points="1200.55,-22.87 1209.87,-17.84 1199.45,-15.96 1200.55,-22.87"/>
</a>
</g>
</g>
<!-- Node13&#45;&gt;Node9 -->
<g id="edge20_Node000013_Node000009" class="edge">
<title>Node13&#45;&gt;Node9</title>
<g id="a_edge20_Node000013_Node000009"><a xlink:title=" ">
<path fill="none" stroke="#63b8ff" d="M981.59,-57.5C1055.63,-49.76 1187.24,-35.47 1309.86,-19.11"/>
<polygon fill="#63b8ff" stroke="#63b8ff" points="1310.36,-22.57 1319.81,-17.77 1309.43,-15.63 1310.36,-22.57"/>
</a>
</g>
</g>
<!-- Node13&#45;&gt;Node10 -->
<g id="edge21_Node000013_Node000010" class="edge">
<title>Node13&#45;&gt;Node10</title>
<g id="a_edge21_Node000013_Node000010"><a xlink:title=" ">
<path fill="none" stroke="#63b8ff" d="M864.49,-59.19C776.79,-52.47 605.81,-38.36 450,-19.05"/>
<polygon fill="#63b8ff" stroke="#63b8ff" points="450.12,-15.53 439.76,-17.77 449.25,-22.48 450.12,-15.53"/>
</a>
</g>
</g>
<!-- Node14 -->
<g id="Node000014" class="node">
<title>Node14</title>
<g id="a_Node000014"><a xlink:title=" ">
<polygon fill="#e0e0e0" stroke="#999999" points="977.5,-19 868.5,-19 868.5,0 977.5,0 977.5,-19"/>
<text text-anchor="middle" x="923" y="-7" font-family="Helvetica,sans-Serif" font-size="10.00">QtCore/QDateTime</text>
</a>
</g>
</g>
<!-- Node13&#45;&gt;Node14 -->
<g id="edge15_Node000013_Node000014" class="edge">
<title>Node13&#45;&gt;Node14</title>
<g id="a_edge15_Node000013_Node000014"><a xlink:title=" ">
<path fill="none" stroke="#63b8ff" d="M923,-54.75C923,-47.8 923,-37.85 923,-29.13"/>
<polygon fill="#63b8ff" stroke="#63b8ff" points="926.5,-29.09 923,-19.09 919.5,-29.09 926.5,-29.09"/>
</a>
</g>
</g>
<!-- Node15 -->
<g id="Node000015" class="node">
<title>Node15</title>
<g id="a_Node000015"><a xlink:title=" ">
<polygon fill="#e0e0e0" stroke="#999999" points="1082,-19 996,-19 996,0 1082,0 1082,-19"/>
<text text-anchor="middle" x="1039" y="-7" font-family="Helvetica,sans-Serif" font-size="10.00">QtCore/QHash</text>
</a>
</g>
</g>
<!-- Node13&#45;&gt;Node15 -->
<g id="edge16_Node000013_Node000015" class="edge">
<title>Node13&#45;&gt;Node15</title>
<g id="a_edge16_Node000013_Node000015"><a xlink:title=" ">
<path fill="none" stroke="#63b8ff" d="M941.64,-54.98C960.3,-46.46 989.25,-33.23 1010.74,-23.41"/>
<polygon fill="#63b8ff" stroke="#63b8ff" points="1012.38,-26.51 1020.02,-19.17 1009.47,-20.14 1012.38,-26.51"/>
</a>
</g>
</g>
<!-- Node16 -->
<g id="Node000016" class="node">
<title>Node16</title>
<g id="a_Node000016"><a xlink:title=" ">
<polygon fill="#e0e0e0" stroke="#999999" points="1192,-19 1100,-19 1100,0 1192,0 1192,-19"/>
<text text-anchor="middle" x="1146" y="-7" font-family="Helvetica,sans-Serif" font-size="10.00">QtCore/QMutex</text>
</a>
</g>
</g>
<!-- Node13&#45;&gt;Node16 -->
<g id="edge18_Node000013_Node000016" class="edge">
<title>Node13&#45;&gt;Node16</title>
<g id="a_edge18_Node000013_Node000016"><a xlink:title=" ">
<path fill="none" stroke="#63b8ff" d="M958.83,-54.98C997.16,-45.87 1058.08,-31.4 1099.95,-21.45"/>
<polygon fill="#63b8ff" stroke="#63b8ff" points="1100.97,-24.8 1109.89,-19.08 1099.35,-17.99 1100.97,-24.8"/>
</a>
</g>
</g>
<!-- Node17 -->
<g id="Node000017" class="node">
<title>Node17</title>
<g id="a_Node000017"><a xlink:title=" ">
<polygon fill="#e0e0e0" stroke="#999999" points="850.5,-19 701.5,-19 701.5,0 850.5,0 850.5,-19"/>
<text text-anchor="middle" x="776" y="-7" font-family="Helvetica,sans-Serif" font-size="10.00">QtNetwork/QNetworkReply</text>
</a>
</g>
</g>
<!-- Node13&#45;&gt;Node17 -->
<g id="edge22_Node000013_Node000017" class="edge">
<title>Node13&#45;&gt;Node17</title>
<g id="a_edge22_Node000013_Node000017"><a xlink:title=" ">
<path fill="none" stroke="#63b8ff" d="M899.38,-54.98C875.1,-46.23 837.05,-32.51 809.63,-22.62"/>
<polygon fill="#63b8ff" stroke="#63b8ff" points="810.64,-19.27 800.05,-19.17 808.27,-25.85 810.64,-19.27"/>
</a>
</g>
</g>
<!-- Node18&#45;&gt;Node10 -->
<g id="edge24_Node000018_Node000010" class="edge">
<title>Node18&#45;&gt;Node10</title>
<g id="a_edge24_Node000018_Node000010"><a xlink:title=" ">
<path fill="none" stroke="#63b8ff" d="M481.45,-54.98C465.11,-46.57 439.87,-33.59 420.87,-23.81"/>
<polygon fill="#63b8ff" stroke="#63b8ff" points="422.34,-20.63 411.85,-19.17 419.14,-26.86 422.34,-20.63"/>
</a>
</g>
</g>
<!-- Node19 -->
<g id="Node000019" class="node">
<title>Node19</title>
<g id="a_Node000019"><a xlink:title=" ">
<polygon fill="#e0e0e0" stroke="#999999" points="522.5,-19 457.5,-19 457.5,0 522.5,0 522.5,-19"/>
<text text-anchor="middle" x="490" y="-7" font-family="Helvetica,sans-Serif" font-size="10.00">functional</text>
</a>
</g>
</g>
<!-- Node18&#45;&gt;Node19 -->
<g id="edge25_Node000018_Node000019" class="edge">
<title>Node18&#45;&gt;Node19</title>
<g id="a_edge25_Node000018_Node000019"><a xlink:title=" ">
<path fill="none" stroke="#63b8ff" d="M496.68,-54.75C495.63,-47.8 494.13,-37.85 492.81,-29.13"/>
<polygon fill="#63b8ff" stroke="#63b8ff" points="496.25,-28.45 491.3,-19.09 489.33,-29.5 496.25,-28.45"/>
</a>
</g>
</g>
<!-- Node20&#45;&gt;Node5 -->
<g id="edge28_Node000020_Node000005" class="edge">
<title>Node20&#45;&gt;Node5</title>
<g id="a_edge28_Node000020_Node000005"><a xlink:title=" ">
<path fill="none" stroke="#63b8ff" d="M220.5,-54.98C207.6,-46.84 187.9,-34.41 172.6,-24.76"/>
<polygon fill="#63b8ff" stroke="#63b8ff" points="174.07,-21.55 163.74,-19.17 170.33,-27.47 174.07,-21.55"/>
</a>
</g>
</g>
<!-- Node20&#45;&gt;Node10 -->
<g id="edge29_Node000020_Node000010" class="edge">
<title>Node20&#45;&gt;Node10</title>
<g id="a_edge29_Node000020_Node000010"><a xlink:title=" ">
<path fill="none" stroke="#63b8ff" d="M259.87,-54.98C286.78,-46.13 329.12,-32.19 359.23,-22.28"/>
<polygon fill="#63b8ff" stroke="#63b8ff" points="360.53,-25.53 368.93,-19.08 358.34,-18.88 360.53,-25.53"/>
</a>
</g>
</g>
<!-- Node21 -->
<g id="Node000021" class="node">
<title>Node21</title>
<g id="a_Node000021"><a xlink:title=" ">
<polygon fill="#e0e0e0" stroke="#999999" points="78,-19 0,-19 0,0 78,0 78,-19"/>
<text text-anchor="middle" x="39" y="-7" font-family="Helvetica,sans-Serif" font-size="10.00">QtCore/QList</text>
</a>
</g>
</g>
<!-- Node20&#45;&gt;Node21 -->
<g id="edge27_Node000020_Node000021" class="edge">
<title>Node20&#45;&gt;Node21</title>
<g id="a_edge27_Node000020_Node000021"><a xlink:title=" ">
<path fill="none" stroke="#63b8ff" d="M202.67,-54.98C169.51,-45.97 117,-31.7 80.44,-21.76"/>
<polygon fill="#63b8ff" stroke="#63b8ff" points="81.14,-18.33 70.58,-19.08 79.31,-25.08 81.14,-18.33"/>
</a>
</g>
</g>
</g>
</svg>
