<?xml version="1.0" encoding="UTF-8" standalone="no"?>
<!DOCTYPE svg PUBLIC "-//W3C//DTD SVG 1.1//EN"
 "http://www.w3.org/Graphics/SVG/1.1/DTD/svg11.dtd">
<!-- Generated by graphviz version 2.43.0 (0)
 -->
<!-- Title: src/QmlControls/QGCMapCircle.cc Pages: 1 -->
<svg width="1589pt" height="247pt"
 viewBox="0.00 0.00 1589.00 247.00" xmlns="http://www.w3.org/2000/svg" xmlns:xlink="http://www.w3.org/1999/xlink">
<g id="graph0" class="graph" transform="scale(1 1) rotate(0) translate(4 243)">
<title>src/QmlControls/QGCMapCircle.cc</title>
<!-- Node1 -->
<g id="Node000001" class="node">
<title>Node1</title>
<g id="a_Node000001"><a xlink:title=" ">
<polygon fill="#999999" stroke="#666666" points="688.5,-239 506.5,-239 506.5,-220 688.5,-220 688.5,-239"/>
<text text-anchor="middle" x="597.5" y="-227" font-family="Helvetica,sans-Serif" font-size="10.00">src/QmlControls/QGCMapCircle.cc</text>
</a>
</g>
</g>
<!-- Node2 -->
<g id="Node000002" class="node">
<title>Node2</title>
<g id="a_Node000002"><a xlink:href="QGCMapCircle_8h.html" target="_top" xlink:title=" ">
<polygon fill="white" stroke="#666666" points="645.5,-184 549.5,-184 549.5,-165 645.5,-165 645.5,-184"/>
<text text-anchor="middle" x="597.5" y="-172" font-family="Helvetica,sans-Serif" font-size="10.00">QGCMapCircle.h</text>
</a>
</g>
</g>
<!-- Node1&#45;&gt;Node2 -->
<g id="edge1_Node000001_Node000002" class="edge">
<title>Node1&#45;&gt;Node2</title>
<g id="a_edge1_Node000001_Node000002"><a xlink:title=" ">
<path fill="none" stroke="#63b8ff" d="M597.5,-219.75C597.5,-212.8 597.5,-202.85 597.5,-194.13"/>
<polygon fill="#63b8ff" stroke="#63b8ff" points="601,-194.09 597.5,-184.09 594,-194.09 601,-194.09"/>
</a>
</g>
</g>
<!-- Node16 -->
<g id="Node000016" class="node">
<title>Node16</title>
<g id="a_Node000016"><a xlink:href="JsonHelper_8h.html" target="_top" xlink:title=" ">
<polygon fill="white" stroke="#666666" points="218,-184 141,-184 141,-165 218,-165 218,-184"/>
<text text-anchor="middle" x="179.5" y="-172" font-family="Helvetica,sans-Serif" font-size="10.00">JsonHelper.h</text>
</a>
</g>
</g>
<!-- Node1&#45;&gt;Node16 -->
<g id="edge22_Node000001_Node000016" class="edge">
<title>Node1&#45;&gt;Node16</title>
<g id="a_edge22_Node000001_Node000016"><a xlink:title=" ">
<path fill="none" stroke="#63b8ff" d="M530.34,-219.98C445.92,-209.28 303.05,-191.17 228.34,-181.69"/>
<polygon fill="#63b8ff" stroke="#63b8ff" points="228.62,-178.2 218.26,-180.41 227.74,-185.14 228.62,-178.2"/>
</a>
</g>
</g>
<!-- Node18 -->
<g id="Node000018" class="node">
<title>Node18</title>
<g id="a_Node000018"><a xlink:href="ParameterManager_8h.html" target="_top" xlink:title=" ">
<polygon fill="white" stroke="#666666" points="1098.5,-184 980.5,-184 980.5,-165 1098.5,-165 1098.5,-184"/>
<text text-anchor="middle" x="1039.5" y="-172" font-family="Helvetica,sans-Serif" font-size="10.00">ParameterManager.h</text>
</a>
</g>
</g>
<!-- Node1&#45;&gt;Node18 -->
<g id="edge27_Node000001_Node000018" class="edge">
<title>Node1&#45;&gt;Node18</title>
<g id="a_edge27_Node000001_Node000018"><a xlink:title=" ">
<path fill="none" stroke="#63b8ff" d="M668.51,-219.98C751.56,-210.03 888.1,-193.65 970.34,-183.79"/>
<polygon fill="#63b8ff" stroke="#63b8ff" points="970.83,-187.26 980.34,-182.59 969.99,-180.31 970.83,-187.26"/>
</a>
</g>
</g>
<!-- Node3 -->
<g id="Node000003" class="node">
<title>Node3</title>
<g id="a_Node000003"><a xlink:title=" ">
<polygon fill="#e0e0e0" stroke="#999999" points="557.5,-19 465.5,-19 465.5,0 557.5,0 557.5,-19"/>
<text text-anchor="middle" x="511.5" y="-7" font-family="Helvetica,sans-Serif" font-size="10.00">QtCore/QObject</text>
</a>
</g>
</g>
<!-- Node2&#45;&gt;Node3 -->
<g id="edge2_Node000002_Node000003" class="edge">
<title>Node2&#45;&gt;Node3</title>
<g id="a_edge2_Node000002_Node000003"><a xlink:title=" ">
<path fill="none" stroke="#63b8ff" d="M549.33,-165.37C522.1,-158.95 488.6,-147.82 463.5,-129 439.73,-111.18 434.35,-102.36 425.5,-74 422.99,-65.94 421.11,-62.21 425.5,-55 434.69,-39.9 450.84,-29.69 466.69,-22.91"/>
<polygon fill="#63b8ff" stroke="#63b8ff" points="468.4,-26 476.45,-19.12 465.86,-19.48 468.4,-26"/>
</a>
</g>
</g>
<!-- Node4 -->
<g id="Node000004" class="node">
<title>Node4</title>
<g id="a_Node000004"><a xlink:title=" ">
<polygon fill="#e0e0e0" stroke="#999999" points="373,-129 208,-129 208,-110 373,-110 373,-129"/>
<text text-anchor="middle" x="290.5" y="-117" font-family="Helvetica,sans-Serif" font-size="10.00">QtPositioning/QGeoCoordinate</text>
</a>
</g>
</g>
<!-- Node2&#45;&gt;Node4 -->
<g id="edge3_Node000002_Node000004" class="edge">
<title>Node2&#45;&gt;Node4</title>
<g id="a_edge3_Node000002_Node000004"><a xlink:title=" ">
<path fill="none" stroke="#63b8ff" d="M549.19,-165.16C495.27,-155.85 407.98,-140.78 349.92,-130.76"/>
<polygon fill="#63b8ff" stroke="#63b8ff" points="350.24,-127.26 339.79,-129.01 349.05,-134.16 350.24,-127.26"/>
</a>
</g>
</g>
<!-- Node5 -->
<g id="Node000005" class="node">
<title>Node5</title>
<g id="a_Node000005"><a xlink:title=" ">
<polygon fill="#e0e0e0" stroke="#999999" points="1174,-19 985,-19 985,0 1174,0 1174,-19"/>
<text text-anchor="middle" x="1079.5" y="-7" font-family="Helvetica,sans-Serif" font-size="10.00">QtQmlIntegration/QtQmlIntegration</text>
</a>
</g>
</g>
<!-- Node2&#45;&gt;Node5 -->
<g id="edge4_Node000002_Node000005" class="edge">
<title>Node2&#45;&gt;Node5</title>
<g id="a_edge4_Node000002_Node000005"><a xlink:title=" ">
<path fill="none" stroke="#63b8ff" d="M645.53,-171.03C726.76,-164.98 894.14,-144.27 1014.5,-74 1035.26,-61.88 1054.33,-41.69 1066.38,-27.33"/>
<polygon fill="#63b8ff" stroke="#63b8ff" points="1069.33,-29.24 1072.92,-19.27 1063.9,-24.83 1069.33,-29.24"/>
</a>
</g>
</g>
<!-- Node6 -->
<g id="Node000006" class="node">
<title>Node6</title>
<g id="a_Node000006"><a xlink:href="Fact_8h.html" target="_top" xlink:title=" ">
<polygon fill="white" stroke="#666666" points="817,-129 772,-129 772,-110 817,-110 817,-129"/>
<text text-anchor="middle" x="794.5" y="-117" font-family="Helvetica,sans-Serif" font-size="10.00">Fact.h</text>
</a>
</g>
</g>
<!-- Node2&#45;&gt;Node6 -->
<g id="edge5_Node000002_Node000006" class="edge">
<title>Node2&#45;&gt;Node6</title>
<g id="a_edge5_Node000002_Node000006"><a xlink:title=" ">
<path fill="none" stroke="#63b8ff" d="M629.15,-164.98C665.64,-155.17 725.29,-139.12 762.1,-129.22"/>
<polygon fill="#63b8ff" stroke="#63b8ff" points="763.08,-132.58 771.83,-126.6 761.27,-125.82 763.08,-132.58"/>
</a>
</g>
</g>
<!-- Node6&#45;&gt;Node3 -->
<g id="edge8_Node000006_Node000003" class="edge">
<title>Node6&#45;&gt;Node3</title>
<g id="a_edge8_Node000006_Node000003"><a xlink:title=" ">
<path fill="none" stroke="#63b8ff" d="M771.94,-117.49C715.57,-114.53 570.51,-104.11 534.5,-74 521.3,-62.96 515.67,-43.71 513.28,-29.29"/>
<polygon fill="#63b8ff" stroke="#63b8ff" points="516.7,-28.49 511.97,-19.01 509.76,-29.37 516.7,-28.49"/>
</a>
</g>
</g>
<!-- Node6&#45;&gt;Node5 -->
<g id="edge12_Node000006_Node000005" class="edge">
<title>Node6&#45;&gt;Node5</title>
<g id="a_edge12_Node000006_Node000005"><a xlink:title=" ">
<path fill="none" stroke="#63b8ff" d="M817.13,-115.8C853.44,-110.89 926.41,-98.67 983.5,-74 1012.8,-61.34 1042.9,-39.76 1061.41,-25.32"/>
<polygon fill="#63b8ff" stroke="#63b8ff" points="1063.63,-28.03 1069.27,-19.06 1059.27,-22.55 1063.63,-28.03"/>
</a>
</g>
</g>
<!-- Node7 -->
<g id="Node000007" class="node">
<title>Node7</title>
<g id="a_Node000007"><a xlink:title=" ">
<polygon fill="#e0e0e0" stroke="#999999" points="439,-19 296,-19 296,0 439,0 439,-19"/>
<text text-anchor="middle" x="367.5" y="-7" font-family="Helvetica,sans-Serif" font-size="10.00">QtCore/QLoggingCategory</text>
</a>
</g>
</g>
<!-- Node6&#45;&gt;Node7 -->
<g id="edge6_Node000006_Node000007" class="edge">
<title>Node6&#45;&gt;Node7</title>
<g id="a_edge6_Node000006_Node000007"><a xlink:title=" ">
<path fill="none" stroke="#63b8ff" d="M771.84,-116.72C724.04,-112.57 609.72,-100.51 517.5,-74 472.33,-61.02 422.58,-38.12 393.24,-23.66"/>
<polygon fill="#63b8ff" stroke="#63b8ff" points="394.62,-20.44 384.11,-19.11 391.5,-26.7 394.62,-20.44"/>
</a>
</g>
</g>
<!-- Node8 -->
<g id="Node000008" class="node">
<title>Node8</title>
<g id="a_Node000008"><a xlink:title=" ">
<polygon fill="#e0e0e0" stroke="#999999" points="667,-74 544,-74 544,-55 667,-55 667,-74"/>
<text text-anchor="middle" x="605.5" y="-62" font-family="Helvetica,sans-Serif" font-size="10.00">QtCore/QMutexLocker</text>
</a>
</g>
</g>
<!-- Node6&#45;&gt;Node8 -->
<g id="edge7_Node000006_Node000008" class="edge">
<title>Node6&#45;&gt;Node8</title>
<g id="a_edge7_Node000006_Node000008"><a xlink:title=" ">
<path fill="none" stroke="#63b8ff" d="M771.7,-112.11C740.52,-103.36 684.06,-87.53 645.69,-76.77"/>
<polygon fill="#63b8ff" stroke="#63b8ff" points="646.44,-73.35 635.87,-74.02 644.55,-80.09 646.44,-73.35"/>
</a>
</g>
</g>
<!-- Node9 -->
<g id="Node000009" class="node">
<title>Node9</title>
<g id="a_Node000009"><a xlink:title=" ">
<polygon fill="#e0e0e0" stroke="#999999" points="825.5,-74 685.5,-74 685.5,-55 825.5,-55 825.5,-74"/>
<text text-anchor="middle" x="755.5" y="-62" font-family="Helvetica,sans-Serif" font-size="10.00">QtCore/QRecursiveMutex</text>
</a>
</g>
</g>
<!-- Node6&#45;&gt;Node9 -->
<g id="edge9_Node000006_Node000009" class="edge">
<title>Node6&#45;&gt;Node9</title>
<g id="a_edge9_Node000006_Node000009"><a xlink:title=" ">
<path fill="none" stroke="#63b8ff" d="M788.06,-109.75C782.61,-102.34 774.64,-91.5 767.94,-82.41"/>
<polygon fill="#63b8ff" stroke="#63b8ff" points="770.57,-80.07 761.82,-74.09 764.93,-84.22 770.57,-80.07"/>
</a>
</g>
</g>
<!-- Node10 -->
<g id="Node000010" class="node">
<title>Node10</title>
<g id="a_Node000010"><a xlink:title=" ">
<polygon fill="#e0e0e0" stroke="#999999" points="1281,-19 1192,-19 1192,0 1281,0 1281,-19"/>
<text text-anchor="middle" x="1236.5" y="-7" font-family="Helvetica,sans-Serif" font-size="10.00">QtCore/QString</text>
</a>
</g>
</g>
<!-- Node6&#45;&gt;Node10 -->
<g id="edge10_Node000006_Node000010" class="edge">
<title>Node6&#45;&gt;Node10</title>
<g id="a_edge10_Node000006_Node000010"><a xlink:title=" ">
<path fill="none" stroke="#63b8ff" d="M817.12,-114.54C857.13,-107.38 942.95,-91.44 1014.5,-74 1080.26,-57.97 1155.85,-35.46 1199.7,-21.99"/>
<polygon fill="#63b8ff" stroke="#63b8ff" points="1200.82,-25.31 1209.34,-19.02 1198.76,-18.62 1200.82,-25.31"/>
</a>
</g>
</g>
<!-- Node11 -->
<g id="Node000011" class="node">
<title>Node11</title>
<g id="a_Node000011"><a xlink:title=" ">
<polygon fill="#e0e0e0" stroke="#999999" points="737,-19 642,-19 642,0 737,0 737,-19"/>
<text text-anchor="middle" x="689.5" y="-7" font-family="Helvetica,sans-Serif" font-size="10.00">QtCore/QVariant</text>
</a>
</g>
</g>
<!-- Node6&#45;&gt;Node11 -->
<g id="edge11_Node000006_Node000011" class="edge">
<title>Node6&#45;&gt;Node11</title>
<g id="a_edge11_Node000006_Node000011"><a xlink:title=" ">
<path fill="none" stroke="#63b8ff" d="M806.94,-109.81C823.28,-97.33 848.36,-73.76 834.5,-55 823.73,-40.43 782.67,-28.67 746.97,-20.91"/>
<polygon fill="#63b8ff" stroke="#63b8ff" points="747.59,-17.46 737.08,-18.82 746.14,-24.31 747.59,-17.46"/>
</a>
</g>
</g>
<!-- Node12 -->
<g id="Node000012" class="node">
<title>Node12</title>
<g id="a_Node000012"><a xlink:href="FactMetaData_8h.html" target="_top" xlink:title=" ">
<polygon fill="white" stroke="#666666" points="975,-74 882,-74 882,-55 975,-55 975,-74"/>
<text text-anchor="middle" x="928.5" y="-62" font-family="Helvetica,sans-Serif" font-size="10.00">FactMetaData.h</text>
</a>
</g>
</g>
<!-- Node6&#45;&gt;Node12 -->
<g id="edge13_Node000006_Node000012" class="edge">
<title>Node6&#45;&gt;Node12</title>
<g id="a_edge13_Node000006_Node000012"><a xlink:title=" ">
<path fill="none" stroke="#63b8ff" d="M816.03,-109.98C837.97,-101.3 872.24,-87.75 897.19,-77.88"/>
<polygon fill="#63b8ff" stroke="#63b8ff" points="898.57,-81.1 906.58,-74.17 895.99,-74.59 898.57,-81.1"/>
</a>
</g>
</g>
<!-- Node12&#45;&gt;Node3 -->
<g id="edge18_Node000012_Node000003" class="edge">
<title>Node12&#45;&gt;Node3</title>
<g id="a_edge18_Node000012_Node000003"><a xlink:title=" ">
<path fill="none" stroke="#63b8ff" d="M881.88,-57.57C804.66,-47.76 650.51,-28.17 567.51,-17.62"/>
<polygon fill="#63b8ff" stroke="#63b8ff" points="567.87,-14.14 557.5,-16.35 566.98,-21.08 567.87,-14.14"/>
</a>
</g>
</g>
<!-- Node12&#45;&gt;Node5 -->
<g id="edge21_Node000012_Node000005" class="edge">
<title>Node12&#45;&gt;Node5</title>
<g id="a_edge21_Node000012_Node000005"><a xlink:title=" ">
<path fill="none" stroke="#63b8ff" d="M952.76,-54.98C977.82,-46.19 1017.13,-32.39 1045.33,-22.49"/>
<polygon fill="#63b8ff" stroke="#63b8ff" points="1046.52,-25.78 1054.8,-19.17 1044.2,-19.18 1046.52,-25.78"/>
</a>
</g>
</g>
<!-- Node12&#45;&gt;Node7 -->
<g id="edge15_Node000012_Node000007" class="edge">
<title>Node12&#45;&gt;Node7</title>
<g id="a_edge15_Node000012_Node000007"><a xlink:title=" ">
<path fill="none" stroke="#63b8ff" d="M881.94,-59.13C797.26,-51.18 612.39,-33.79 456.5,-19 454.15,-18.78 451.77,-18.55 449.37,-18.32"/>
<polygon fill="#63b8ff" stroke="#63b8ff" points="449.68,-14.84 439.39,-17.37 449.01,-21.8 449.68,-14.84"/>
</a>
</g>
</g>
<!-- Node12&#45;&gt;Node10 -->
<g id="edge19_Node000012_Node000010" class="edge">
<title>Node12&#45;&gt;Node10</title>
<g id="a_edge19_Node000012_Node000010"><a xlink:title=" ">
<path fill="none" stroke="#63b8ff" d="M975.28,-55.45C1030.68,-45.92 1122.85,-30.06 1181.59,-19.95"/>
<polygon fill="#63b8ff" stroke="#63b8ff" points="1182.53,-23.34 1191.79,-18.19 1181.34,-16.44 1182.53,-23.34"/>
</a>
</g>
</g>
<!-- Node12&#45;&gt;Node11 -->
<g id="edge20_Node000012_Node000011" class="edge">
<title>Node12&#45;&gt;Node11</title>
<g id="a_edge20_Node000012_Node000011"><a xlink:title=" ">
<path fill="none" stroke="#63b8ff" d="M890.1,-54.98C848.76,-45.82 782.9,-31.21 738.01,-21.26"/>
<polygon fill="#63b8ff" stroke="#63b8ff" points="738.72,-17.83 728.2,-19.08 737.21,-24.66 738.72,-17.83"/>
</a>
</g>
</g>
<!-- Node13 -->
<g id="Node000013" class="node">
<title>Node13</title>
<g id="a_Node000013"><a xlink:title=" ">
<polygon fill="#e0e0e0" stroke="#999999" points="966.5,-19 880.5,-19 880.5,0 966.5,0 966.5,-19"/>
<text text-anchor="middle" x="923.5" y="-7" font-family="Helvetica,sans-Serif" font-size="10.00">QtCore/QHash</text>
</a>
</g>
</g>
<!-- Node12&#45;&gt;Node13 -->
<g id="edge14_Node000012_Node000013" class="edge">
<title>Node12&#45;&gt;Node13</title>
<g id="a_edge14_Node000012_Node000013"><a xlink:title=" ">
<path fill="none" stroke="#63b8ff" d="M927.67,-54.75C927.02,-47.8 926.08,-37.85 925.26,-29.13"/>
<polygon fill="#63b8ff" stroke="#63b8ff" points="928.73,-28.72 924.31,-19.09 921.77,-29.37 928.73,-28.72"/>
</a>
</g>
</g>
<!-- Node14 -->
<g id="Node000014" class="node">
<title>Node14</title>
<g id="a_Node000014"><a xlink:title=" ">
<polygon fill="#e0e0e0" stroke="#999999" points="862,-19 755,-19 755,0 862,0 862,-19"/>
<text text-anchor="middle" x="808.5" y="-7" font-family="Helvetica,sans-Serif" font-size="10.00">QtCore/QJsonArray</text>
</a>
</g>
</g>
<!-- Node12&#45;&gt;Node14 -->
<g id="edge16_Node000012_Node000014" class="edge">
<title>Node12&#45;&gt;Node14</title>
<g id="a_edge16_Node000012_Node000014"><a xlink:title=" ">
<path fill="none" stroke="#63b8ff" d="M909.22,-54.98C889.83,-46.42 859.69,-33.11 837.43,-23.28"/>
<polygon fill="#63b8ff" stroke="#63b8ff" points="838.69,-20.01 828.13,-19.17 835.86,-26.41 838.69,-20.01"/>
</a>
</g>
</g>
<!-- Node15 -->
<g id="Node000015" class="node">
<title>Node15</title>
<g id="a_Node000015"><a xlink:title=" ">
<polygon fill="#e0e0e0" stroke="#999999" points="232,-19 119,-19 119,0 232,0 232,-19"/>
<text text-anchor="middle" x="175.5" y="-7" font-family="Helvetica,sans-Serif" font-size="10.00">QtCore/QJsonObject</text>
</a>
</g>
</g>
<!-- Node12&#45;&gt;Node15 -->
<g id="edge17_Node000012_Node000015" class="edge">
<title>Node12&#45;&gt;Node15</title>
<g id="a_edge17_Node000012_Node000015"><a xlink:title=" ">
<path fill="none" stroke="#63b8ff" d="M881.66,-59.04C866.61,-57.66 849.86,-56.2 834.5,-55 591.16,-36.01 529.97,-36.32 286.5,-19 272.31,-17.99 257.09,-16.86 242.62,-15.76"/>
<polygon fill="#63b8ff" stroke="#63b8ff" points="242.48,-12.24 232.24,-14.96 241.95,-19.22 242.48,-12.24"/>
</a>
</g>
</g>
<!-- Node16&#45;&gt;Node4 -->
<g id="edge26_Node000016_Node000004" class="edge">
<title>Node16&#45;&gt;Node4</title>
<g id="a_edge26_Node000016_Node000004"><a xlink:title=" ">
<path fill="none" stroke="#63b8ff" d="M197.33,-164.98C215.11,-156.5 242.65,-143.35 263.18,-133.54"/>
<polygon fill="#63b8ff" stroke="#63b8ff" points="264.83,-136.64 272.34,-129.17 261.81,-130.32 264.83,-136.64"/>
</a>
</g>
</g>
<!-- Node16&#45;&gt;Node7 -->
<g id="edge23_Node000016_Node000007" class="edge">
<title>Node16&#45;&gt;Node7</title>
<g id="a_edge23_Node000016_Node000007"><a xlink:title=" ">
<path fill="none" stroke="#63b8ff" d="M180.11,-164.78C181.43,-151.62 185.58,-126.48 198.5,-110 233.01,-65.97 292.84,-37.47 331.28,-22.7"/>
<polygon fill="#63b8ff" stroke="#63b8ff" points="332.88,-25.84 341.03,-19.07 330.44,-19.28 332.88,-25.84"/>
</a>
</g>
</g>
<!-- Node16&#45;&gt;Node15 -->
<g id="edge24_Node000016_Node000015" class="edge">
<title>Node16&#45;&gt;Node15</title>
<g id="a_edge24_Node000016_Node000015"><a xlink:title=" ">
<path fill="none" stroke="#63b8ff" d="M175.9,-164.82C172.44,-155.99 167.47,-141.81 165.5,-129 160.51,-96.49 161.87,-87.69 165.5,-55 166.46,-46.34 168.44,-36.91 170.39,-28.97"/>
<polygon fill="#63b8ff" stroke="#63b8ff" points="173.78,-29.83 172.93,-19.27 167.01,-28.06 173.78,-29.83"/>
</a>
</g>
</g>
<!-- Node17 -->
<g id="Node000017" class="node">
<title>Node17</title>
<g id="a_Node000017"><a xlink:title=" ">
<polygon fill="#e0e0e0" stroke="#999999" points="113,-129 0,-129 0,-110 113,-110 113,-129"/>
<text text-anchor="middle" x="56.5" y="-117" font-family="Helvetica,sans-Serif" font-size="10.00">QtCore/QVariantList</text>
</a>
</g>
</g>
<!-- Node16&#45;&gt;Node17 -->
<g id="edge25_Node000016_Node000017" class="edge">
<title>Node16&#45;&gt;Node17</title>
<g id="a_edge25_Node000016_Node000017"><a xlink:title=" ">
<path fill="none" stroke="#63b8ff" d="M159.74,-164.98C139.77,-156.38 108.7,-142.99 85.85,-133.15"/>
<polygon fill="#63b8ff" stroke="#63b8ff" points="87.19,-129.91 76.62,-129.17 84.42,-136.34 87.19,-129.91"/>
</a>
</g>
</g>
<!-- Node18&#45;&gt;Node3 -->
<g id="edge31_Node000018_Node000003" class="edge">
<title>Node18&#45;&gt;Node3</title>
<g id="a_edge31_Node000018_Node000003"><a xlink:title=" ">
<path fill="none" stroke="#63b8ff" d="M980.09,-171.02C856.41,-164.52 577.79,-142.45 517.5,-74 506.87,-61.94 506.37,-43.13 507.93,-29.11"/>
<polygon fill="#63b8ff" stroke="#63b8ff" points="511.4,-29.53 509.46,-19.12 504.48,-28.47 511.4,-29.53"/>
</a>
</g>
</g>
<!-- Node18&#45;&gt;Node5 -->
<g id="edge34_Node000018_Node000005" class="edge">
<title>Node18&#45;&gt;Node5</title>
<g id="a_edge34_Node000018_Node000005"><a xlink:title=" ">
<path fill="none" stroke="#63b8ff" d="M1044.17,-164.89C1048.73,-156.11 1055.56,-141.97 1059.5,-129 1069.97,-94.52 1075.42,-52.62 1077.85,-29.01"/>
<polygon fill="#63b8ff" stroke="#63b8ff" points="1081.34,-29.29 1078.81,-19 1074.37,-28.62 1081.34,-29.29"/>
</a>
</g>
</g>
<!-- Node18&#45;&gt;Node6 -->
<g id="edge35_Node000018_Node000006" class="edge">
<title>Node18&#45;&gt;Node6</title>
<g id="a_edge35_Node000018_Node000006"><a xlink:title=" ">
<path fill="none" stroke="#63b8ff" d="M1000.14,-164.98C952.17,-154.61 872.02,-137.27 827.26,-127.59"/>
<polygon fill="#63b8ff" stroke="#63b8ff" points="827.73,-124.11 817.22,-125.41 826.25,-130.95 827.73,-124.11"/>
</a>
</g>
</g>
<!-- Node18&#45;&gt;Node7 -->
<g id="edge29_Node000018_Node000007" class="edge">
<title>Node18&#45;&gt;Node7</title>
<g id="a_edge29_Node000018_Node000007"><a xlink:title=" ">
<path fill="none" stroke="#63b8ff" d="M980.34,-170.95C872.58,-165.79 648.6,-152.55 574.5,-129 499.51,-105.17 421.8,-51.43 386.72,-25.31"/>
<polygon fill="#63b8ff" stroke="#63b8ff" points="388.46,-22.24 378.37,-19.01 384.24,-27.83 388.46,-22.24"/>
</a>
</g>
</g>
<!-- Node18&#45;&gt;Node10 -->
<g id="edge32_Node000018_Node000010" class="edge">
<title>Node18&#45;&gt;Node10</title>
<g id="a_edge32_Node000018_Node000010"><a xlink:title=" ">
<path fill="none" stroke="#63b8ff" d="M1098.53,-171.29C1205.36,-166.67 1421.84,-154.29 1444.5,-129 1495,-72.65 1368.45,-36.51 1291.15,-20.34"/>
<polygon fill="#63b8ff" stroke="#63b8ff" points="1291.55,-16.85 1281.06,-18.28 1290.16,-23.71 1291.55,-16.85"/>
</a>
</g>
</g>
<!-- Node18&#45;&gt;Node12 -->
<g id="edge36_Node000018_Node000012" class="edge">
<title>Node18&#45;&gt;Node12</title>
<g id="a_edge36_Node000018_Node000012"><a xlink:title=" ">
<path fill="none" stroke="#63b8ff" d="M999.72,-165C979.03,-158.54 955.08,-147.5 940.5,-129 930.62,-116.47 928.02,-98.27 927.65,-84.56"/>
<polygon fill="#63b8ff" stroke="#63b8ff" points="931.15,-84.37 927.76,-74.33 924.15,-84.29 931.15,-84.37"/>
</a>
</g>
</g>
<!-- Node19 -->
<g id="Node000019" class="node">
<title>Node19</title>
<g id="a_Node000019"><a xlink:title=" ">
<polygon fill="#e0e0e0" stroke="#999999" points="1335,-129 1260,-129 1260,-110 1335,-110 1335,-129"/>
<text text-anchor="middle" x="1297.5" y="-117" font-family="Helvetica,sans-Serif" font-size="10.00">QtCore/QDir</text>
</a>
</g>
</g>
<!-- Node18&#45;&gt;Node19 -->
<g id="edge28_Node000018_Node000019" class="edge">
<title>Node18&#45;&gt;Node19</title>
<g id="a_edge28_Node000018_Node000019"><a xlink:title=" ">
<path fill="none" stroke="#63b8ff" d="M1080.95,-164.98C1127.1,-155.51 1201.54,-140.21 1250,-130.26"/>
<polygon fill="#63b8ff" stroke="#63b8ff" points="1250.84,-133.66 1259.93,-128.22 1249.43,-126.8 1250.84,-133.66"/>
</a>
</g>
</g>
<!-- Node20 -->
<g id="Node000020" class="node">
<title>Node20</title>
<g id="a_Node000020"><a xlink:title=" ">
<polygon fill="#e0e0e0" stroke="#999999" points="1435.5,-129 1353.5,-129 1353.5,-110 1435.5,-110 1435.5,-129"/>
<text text-anchor="middle" x="1394.5" y="-117" font-family="Helvetica,sans-Serif" font-size="10.00">QtCore/QMap</text>
</a>
</g>
</g>
<!-- Node18&#45;&gt;Node20 -->
<g id="edge30_Node000018_Node000020" class="edge">
<title>Node18&#45;&gt;Node20</title>
<g id="a_edge30_Node000018_Node000020"><a xlink:title=" ">
<path fill="none" stroke="#63b8ff" d="M1098.6,-165.3C1157.93,-156.97 1252.22,-143.47 1343.36,-129.15"/>
<polygon fill="#63b8ff" stroke="#63b8ff" points="1343.98,-132.6 1353.31,-127.58 1342.89,-125.68 1343.98,-132.6"/>
</a>
</g>
</g>
<!-- Node21 -->
<g id="Node000021" class="node">
<title>Node21</title>
<g id="a_Node000021"><a xlink:title=" ">
<polygon fill="#e0e0e0" stroke="#999999" points="1581,-129 1492,-129 1492,-110 1581,-110 1581,-129"/>
<text text-anchor="middle" x="1536.5" y="-117" font-family="Helvetica,sans-Serif" font-size="10.00">QtCore/QTimer</text>
</a>
</g>
</g>
<!-- Node18&#45;&gt;Node21 -->
<g id="edge33_Node000018_Node000021" class="edge">
<title>Node18&#45;&gt;Node21</title>
<g id="a_edge33_Node000018_Node000021"><a xlink:title=" ">
<path fill="none" stroke="#63b8ff" d="M1098.74,-168.27C1183.01,-160.66 1342.27,-145.6 1477.5,-129 1478.8,-128.84 1480.12,-128.68 1481.44,-128.51"/>
<polygon fill="#63b8ff" stroke="#63b8ff" points="1482.29,-131.93 1491.75,-127.15 1481.38,-124.99 1482.29,-131.93"/>
</a>
</g>
</g>
<!-- Node22 -->
<g id="Node000022" class="node">
<title>Node22</title>
<g id="a_Node000022"><a xlink:title=" ">
<polygon fill="#e0e0e0" stroke="#999999" points="1051,-129 950,-129 950,-110 1051,-110 1051,-129"/>
<text text-anchor="middle" x="1000.5" y="-117" font-family="Helvetica,sans-Serif" font-size="10.00">MAVLinkEnums.h</text>
</a>
</g>
</g>
<!-- Node18&#45;&gt;Node22 -->
<g id="edge37_Node000018_Node000022" class="edge">
<title>Node18&#45;&gt;Node22</title>
<g id="a_edge37_Node000018_Node000022"><a xlink:title=" ">
<path fill="none" stroke="#63b8ff" d="M1033.06,-164.75C1027.61,-157.34 1019.64,-146.5 1012.94,-137.41"/>
<polygon fill="#63b8ff" stroke="#63b8ff" points="1015.57,-135.07 1006.82,-129.09 1009.93,-139.22 1015.57,-135.07"/>
</a>
</g>
</g>
<!-- Node23 -->
<g id="Node000023" class="node">
<title>Node23</title>
<g id="a_Node000023"><a xlink:href="MAVLinkMessageType_8h.html" target="_top" xlink:title=" ">
<polygon fill="white" stroke="#666666" points="1241.5,-129 1107.5,-129 1107.5,-110 1241.5,-110 1241.5,-129"/>
<text text-anchor="middle" x="1174.5" y="-117" font-family="Helvetica,sans-Serif" font-size="10.00">MAVLinkMessageType.h</text>
</a>
</g>
</g>
<!-- Node18&#45;&gt;Node23 -->
<g id="edge38_Node000018_Node000023" class="edge">
<title>Node18&#45;&gt;Node23</title>
<g id="a_edge38_Node000018_Node000023"><a xlink:title=" ">
<path fill="none" stroke="#63b8ff" d="M1061.19,-164.98C1083.3,-156.3 1117.82,-142.75 1142.95,-132.88"/>
<polygon fill="#63b8ff" stroke="#63b8ff" points="1144.39,-136.08 1152.42,-129.17 1141.83,-129.57 1144.39,-136.08"/>
</a>
</g>
</g>
<!-- Node24 -->
<g id="Node000024" class="node">
<title>Node24</title>
<g id="a_Node000024"><a xlink:title=" ">
<polygon fill="#e0e0e0" stroke="#999999" points="1201,-74 1148,-74 1148,-55 1201,-55 1201,-74"/>
<text text-anchor="middle" x="1174.5" y="-62" font-family="Helvetica,sans-Serif" font-size="10.00">stdint.h</text>
</a>
</g>
</g>
<!-- Node23&#45;&gt;Node24 -->
<g id="edge39_Node000023_Node000024" class="edge">
<title>Node23&#45;&gt;Node24</title>
<g id="a_edge39_Node000023_Node000024"><a xlink:title=" ">
<path fill="none" stroke="#63b8ff" d="M1174.5,-109.75C1174.5,-102.8 1174.5,-92.85 1174.5,-84.13"/>
<polygon fill="#63b8ff" stroke="#63b8ff" points="1178,-84.09 1174.5,-74.09 1171,-84.09 1178,-84.09"/>
</a>
</g>
</g>
<!-- Node25 -->
<g id="Node000025" class="node">
<title>Node25</title>
<g id="a_Node000025"><a xlink:title=" ">
<polygon fill="#e0e0e0" stroke="#999999" points="1317.5,-74 1219.5,-74 1219.5,-55 1317.5,-55 1317.5,-74"/>
<text text-anchor="middle" x="1268.5" y="-62" font-family="Helvetica,sans-Serif" font-size="10.00">mavlink_types.h</text>
</a>
</g>
</g>
<!-- Node23&#45;&gt;Node25 -->
<g id="edge40_Node000023_Node000025" class="edge">
<title>Node23&#45;&gt;Node25</title>
<g id="a_edge40_Node000023_Node000025"><a xlink:title=" ">
<path fill="none" stroke="#63b8ff" d="M1189.6,-109.98C1204.32,-101.69 1226.92,-88.94 1244.17,-79.22"/>
<polygon fill="#63b8ff" stroke="#63b8ff" points="1246.13,-82.13 1253.12,-74.17 1242.69,-76.03 1246.13,-82.13"/>
</a>
</g>
</g>
</g>
</svg>
