<?xml version="1.0" encoding="UTF-8" standalone="no"?>
<!DOCTYPE svg PUBLIC "-//W3C//DTD SVG 1.1//EN"
 "http://www.w3.org/Graphics/SVG/1.1/DTD/svg11.dtd">
<!-- Generated by graphviz version 2.43.0 (0)
 -->
<!-- Title: src/QtLocationPlugin/QGCMapUrlEngine.cpp Pages: 1 -->
<svg width="1642pt" height="269pt"
 viewBox="0.00 0.00 1642.00 269.00" xmlns="http://www.w3.org/2000/svg" xmlns:xlink="http://www.w3.org/1999/xlink">
<g id="graph0" class="graph" transform="scale(1 1) rotate(0) translate(4 265)">
<title>src/QtLocationPlugin/QGCMapUrlEngine.cpp</title>
<!-- Node1 -->
<g id="Node000001" class="node">
<title>Node1</title>
<g id="a_Node000001"><a xlink:title=" ">
<polygon fill="#999999" stroke="#666666" points="668.5,-261 538.5,-261 538.5,-231 668.5,-231 668.5,-261"/>
<text text-anchor="start" x="546.5" y="-249" font-family="Helvetica,sans-Serif" font-size="10.00">src/QtLocationPlugin</text>
<text text-anchor="middle" x="603.5" y="-238" font-family="Helvetica,sans-Serif" font-size="10.00">/QGCMapUrlEngine.cpp</text>
</a>
</g>
</g>
<!-- Node2 -->
<g id="Node000002" class="node">
<title>Node2</title>
<g id="a_Node000002"><a xlink:href="QGCMapUrlEngine_8h.html" target="_top" xlink:title=" ">
<polygon fill="white" stroke="#666666" points="256.5,-140 140.5,-140 140.5,-121 256.5,-121 256.5,-140"/>
<text text-anchor="middle" x="198.5" y="-128" font-family="Helvetica,sans-Serif" font-size="10.00">QGCMapUrlEngine.h</text>
</a>
</g>
</g>
<!-- Node1&#45;&gt;Node2 -->
<g id="edge1_Node000001_Node000002" class="edge">
<title>Node1&#45;&gt;Node2</title>
<g id="a_edge1_Node000001_Node000002"><a xlink:title=" ">
<path fill="none" stroke="#63b8ff" d="M538.43,-243.61C404.5,-240.07 107.97,-228.51 77.5,-195 54.08,-169.25 97.26,-152.15 138.39,-142.25"/>
<polygon fill="#63b8ff" stroke="#63b8ff" points="139.24,-145.65 148.21,-140.01 137.68,-138.83 139.24,-145.65"/>
</a>
</g>
</g>
<!-- Node9 -->
<g id="Node000009" class="node">
<title>Node9</title>
<g id="a_Node000009"><a xlink:title=" ">
<polygon fill="#e0e0e0" stroke="#999999" points="190.5,-195 86.5,-195 86.5,-176 190.5,-176 190.5,-195"/>
<text text-anchor="middle" x="138.5" y="-183" font-family="Helvetica,sans-Serif" font-size="10.00">QtCore/QtMinMax</text>
</a>
</g>
</g>
<!-- Node1&#45;&gt;Node9 -->
<g id="edge8_Node000001_Node000009" class="edge">
<title>Node1&#45;&gt;Node9</title>
<g id="a_edge8_Node000001_Node000009"><a xlink:title=" ">
<path fill="none" stroke="#63b8ff" d="M538.39,-237.25C460.61,-227.93 326.29,-211.61 200.9,-195.17"/>
<polygon fill="#63b8ff" stroke="#63b8ff" points="201.11,-191.66 190.74,-193.83 200.2,-198.61 201.11,-191.66"/>
</a>
</g>
</g>
<!-- Node10 -->
<g id="Node000010" class="node">
<title>Node10</title>
<g id="a_Node000010"><a xlink:href="BingMapProvider_8h.html" target="_top" xlink:title=" ">
<polygon fill="white" stroke="#666666" points="988.5,-195 880.5,-195 880.5,-176 988.5,-176 988.5,-195"/>
<text text-anchor="middle" x="934.5" y="-183" font-family="Helvetica,sans-Serif" font-size="10.00">BingMapProvider.h</text>
</a>
</g>
</g>
<!-- Node1&#45;&gt;Node10 -->
<g id="edge9_Node000001_Node000010" class="edge">
<title>Node1&#45;&gt;Node10</title>
<g id="a_edge9_Node000001_Node000010"><a xlink:title=" ">
<path fill="none" stroke="#63b8ff" d="M668.5,-233.51C728.89,-222.84 818,-207.09 876.16,-196.81"/>
<polygon fill="#63b8ff" stroke="#63b8ff" points="877.05,-200.21 886.28,-195.02 875.83,-193.32 877.05,-200.21"/>
</a>
</g>
</g>
<!-- Node16 -->
<g id="Node000016" class="node">
<title>Node16</title>
<g id="a_Node000016"><a xlink:href="ElevationMapProvider_8h.html" target="_top" xlink:title=" ">
<polygon fill="white" stroke="#666666" points="1138.5,-195 1006.5,-195 1006.5,-176 1138.5,-176 1138.5,-195"/>
<text text-anchor="middle" x="1072.5" y="-183" font-family="Helvetica,sans-Serif" font-size="10.00">ElevationMapProvider.h</text>
</a>
</g>
</g>
<!-- Node1&#45;&gt;Node16 -->
<g id="edge16_Node000001_Node000016" class="edge">
<title>Node1&#45;&gt;Node16</title>
<g id="a_edge16_Node000001_Node000016"><a xlink:title=" ">
<path fill="none" stroke="#63b8ff" d="M668.71,-236.87C754.59,-226.15 905.34,-207.35 996.35,-196"/>
<polygon fill="#63b8ff" stroke="#63b8ff" points="996.84,-199.46 1006.33,-194.75 995.97,-192.52 996.84,-199.46"/>
</a>
</g>
</g>
<!-- Node17 -->
<g id="Node000017" class="node">
<title>Node17</title>
<g id="a_Node000017"><a xlink:href="EsriMapProvider_8h.html" target="_top" xlink:title=" ">
<polygon fill="white" stroke="#666666" points="312.5,-195 208.5,-195 208.5,-176 312.5,-176 312.5,-195"/>
<text text-anchor="middle" x="260.5" y="-183" font-family="Helvetica,sans-Serif" font-size="10.00">EsriMapProvider.h</text>
</a>
</g>
</g>
<!-- Node1&#45;&gt;Node17 -->
<g id="edge18_Node000001_Node000017" class="edge">
<title>Node1&#45;&gt;Node17</title>
<g id="a_edge18_Node000001_Node000017"><a xlink:title=" ">
<path fill="none" stroke="#63b8ff" d="M538.18,-233.86C475.52,-223.17 381.69,-207.17 320.78,-196.78"/>
<polygon fill="#63b8ff" stroke="#63b8ff" points="321,-193.27 310.55,-195.04 319.82,-200.17 321,-193.27"/>
</a>
</g>
</g>
<!-- Node18 -->
<g id="Node000018" class="node">
<title>Node18</title>
<g id="a_Node000018"><a xlink:href="GenericMapProvider_8h.html" target="_top" xlink:title=" ">
<polygon fill="white" stroke="#666666" points="454.5,-195 330.5,-195 330.5,-176 454.5,-176 454.5,-195"/>
<text text-anchor="middle" x="392.5" y="-183" font-family="Helvetica,sans-Serif" font-size="10.00">GenericMapProvider.h</text>
</a>
</g>
</g>
<!-- Node1&#45;&gt;Node18 -->
<g id="edge20_Node000001_Node000018" class="edge">
<title>Node1&#45;&gt;Node18</title>
<g id="a_edge20_Node000001_Node000018"><a xlink:title=" ">
<path fill="none" stroke="#63b8ff" d="M552.96,-230.99C516.23,-220.8 467.17,-207.2 433.01,-197.73"/>
<polygon fill="#63b8ff" stroke="#63b8ff" points="433.92,-194.35 423.35,-195.05 432.05,-201.1 433.92,-194.35"/>
</a>
</g>
</g>
<!-- Node19 -->
<g id="Node000019" class="node">
<title>Node19</title>
<g id="a_Node000019"><a xlink:href="GoogleMapProvider_8h.html" target="_top" xlink:title=" ">
<polygon fill="white" stroke="#666666" points="594,-195 473,-195 473,-176 594,-176 594,-195"/>
<text text-anchor="middle" x="533.5" y="-183" font-family="Helvetica,sans-Serif" font-size="10.00">GoogleMapProvider.h</text>
</a>
</g>
</g>
<!-- Node1&#45;&gt;Node19 -->
<g id="edge22_Node000001_Node000019" class="edge">
<title>Node1&#45;&gt;Node19</title>
<g id="a_edge22_Node000001_Node000019"><a xlink:title=" ">
<path fill="none" stroke="#63b8ff" d="M586.55,-230.84C576.08,-222.09 562.64,-210.85 551.91,-201.88"/>
<polygon fill="#63b8ff" stroke="#63b8ff" points="553.91,-198.99 543.99,-195.27 549.42,-204.36 553.91,-198.99"/>
</a>
</g>
</g>
<!-- Node20 -->
<g id="Node000020" class="node">
<title>Node20</title>
<g id="a_Node000020"><a xlink:href="MapboxMapProvider_8h.html" target="_top" xlink:title=" ">
<polygon fill="white" stroke="#666666" points="737,-195 612,-195 612,-176 737,-176 737,-195"/>
<text text-anchor="middle" x="674.5" y="-183" font-family="Helvetica,sans-Serif" font-size="10.00">MapboxMapProvider.h</text>
</a>
</g>
</g>
<!-- Node1&#45;&gt;Node20 -->
<g id="edge24_Node000001_Node000020" class="edge">
<title>Node1&#45;&gt;Node20</title>
<g id="a_edge24_Node000001_Node000020"><a xlink:title=" ">
<path fill="none" stroke="#63b8ff" d="M620.69,-230.84C631.31,-222.09 644.94,-210.85 655.83,-201.88"/>
<polygon fill="#63b8ff" stroke="#63b8ff" points="658.37,-204.33 663.86,-195.27 653.92,-198.92 658.37,-204.33"/>
</a>
</g>
</g>
<!-- Node21 -->
<g id="Node000021" class="node">
<title>Node21</title>
<g id="a_Node000021"><a xlink:href="TianDiTuProvider_8h.html" target="_top" xlink:title=" ">
<polygon fill="white" stroke="#666666" points="862,-195 755,-195 755,-176 862,-176 862,-195"/>
<text text-anchor="middle" x="808.5" y="-183" font-family="Helvetica,sans-Serif" font-size="10.00">TianDiTuProvider.h</text>
</a>
</g>
</g>
<!-- Node1&#45;&gt;Node21 -->
<g id="edge26_Node000001_Node000021" class="edge">
<title>Node1&#45;&gt;Node21</title>
<g id="a_edge26_Node000001_Node000021"><a xlink:title=" ">
<path fill="none" stroke="#63b8ff" d="M652.6,-230.99C688.13,-220.85 735.54,-207.32 768.72,-197.85"/>
<polygon fill="#63b8ff" stroke="#63b8ff" points="769.87,-201.16 778.53,-195.05 767.95,-194.43 769.87,-201.16"/>
</a>
</g>
</g>
<!-- Node22 -->
<g id="Node000022" class="node">
<title>Node22</title>
<g id="a_Node000022"><a xlink:href="QGCLoggingCategory_8h.html" target="_top" xlink:title=" ">
<polygon fill="white" stroke="#666666" points="1226.5,-140 1098.5,-140 1098.5,-121 1226.5,-121 1226.5,-140"/>
<text text-anchor="middle" x="1162.5" y="-128" font-family="Helvetica,sans-Serif" font-size="10.00">QGCLoggingCategory.h</text>
</a>
</g>
</g>
<!-- Node1&#45;&gt;Node22 -->
<g id="edge28_Node000001_Node000022" class="edge">
<title>Node1&#45;&gt;Node22</title>
<g id="a_edge28_Node000001_Node000022"><a xlink:title=" ">
<path fill="none" stroke="#63b8ff" d="M668.64,-243.22C805.24,-238.89 1112.01,-225.83 1147.5,-195 1160.05,-184.1 1163.14,-164.82 1163.49,-150.36"/>
<polygon fill="#63b8ff" stroke="#63b8ff" points="1166.99,-149.99 1163.32,-140.05 1159.99,-150.11 1166.99,-149.99"/>
</a>
</g>
</g>
<!-- Node3 -->
<g id="Node000003" class="node">
<title>Node3</title>
<g id="a_Node000003"><a xlink:href="QGCTileSet_8h.html" target="_top" xlink:title=" ">
<polygon fill="white" stroke="#666666" points="365,-79.5 284,-79.5 284,-60.5 365,-60.5 365,-79.5"/>
<text text-anchor="middle" x="324.5" y="-67.5" font-family="Helvetica,sans-Serif" font-size="10.00">QGCTileSet.h</text>
</a>
</g>
</g>
<!-- Node2&#45;&gt;Node3 -->
<g id="edge2_Node000002_Node000003" class="edge">
<title>Node2&#45;&gt;Node3</title>
<g id="a_edge2_Node000002_Node000003"><a xlink:title=" ">
<path fill="none" stroke="#63b8ff" d="M216.82,-120.99C237.91,-111.2 272.76,-95.02 297.08,-83.73"/>
<polygon fill="#63b8ff" stroke="#63b8ff" points="298.56,-86.9 306.16,-79.52 295.61,-80.55 298.56,-86.9"/>
</a>
</g>
</g>
<!-- Node6 -->
<g id="Node000006" class="node">
<title>Node6</title>
<g id="a_Node000006"><a xlink:title=" ">
<polygon fill="#e0e0e0" stroke="#999999" points="475.5,-79.5 383.5,-79.5 383.5,-60.5 475.5,-60.5 475.5,-79.5"/>
<text text-anchor="middle" x="429.5" y="-67.5" font-family="Helvetica,sans-Serif" font-size="10.00">QtCore/QObject</text>
</a>
</g>
</g>
<!-- Node2&#45;&gt;Node6 -->
<g id="edge5_Node000002_Node000006" class="edge">
<title>Node2&#45;&gt;Node6</title>
<g id="a_edge5_Node000002_Node000006"><a xlink:title=" ">
<path fill="none" stroke="#63b8ff" d="M232.09,-120.99C272.81,-110.68 341.5,-93.28 386.17,-81.97"/>
<polygon fill="#63b8ff" stroke="#63b8ff" points="387.04,-85.36 395.87,-79.52 385.32,-78.58 387.04,-85.36"/>
</a>
</g>
</g>
<!-- Node7 -->
<g id="Node000007" class="node">
<title>Node7</title>
<g id="a_Node000007"><a xlink:title=" ">
<polygon fill="#e0e0e0" stroke="#999999" points="265.5,-79.5 131.5,-79.5 131.5,-60.5 265.5,-60.5 265.5,-79.5"/>
<text text-anchor="middle" x="198.5" y="-67.5" font-family="Helvetica,sans-Serif" font-size="10.00">QtCore/QByteArrayView</text>
</a>
</g>
</g>
<!-- Node2&#45;&gt;Node7 -->
<g id="edge6_Node000002_Node000007" class="edge">
<title>Node2&#45;&gt;Node7</title>
<g id="a_edge6_Node000002_Node000007"><a xlink:title=" ">
<path fill="none" stroke="#63b8ff" d="M198.5,-120.87C198.5,-112.75 198.5,-100.31 198.5,-89.89"/>
<polygon fill="#63b8ff" stroke="#63b8ff" points="202,-89.67 198.5,-79.67 195,-89.67 202,-89.67"/>
</a>
</g>
</g>
<!-- Node8 -->
<g id="Node000008" class="node">
<title>Node8</title>
<g id="a_Node000008"><a xlink:title=" ">
<polygon fill="#e0e0e0" stroke="#999999" points="113,-79.5 0,-79.5 0,-60.5 113,-60.5 113,-79.5"/>
<text text-anchor="middle" x="56.5" y="-67.5" font-family="Helvetica,sans-Serif" font-size="10.00">QtCore/QStringView</text>
</a>
</g>
</g>
<!-- Node2&#45;&gt;Node8 -->
<g id="edge7_Node000002_Node000008" class="edge">
<title>Node2&#45;&gt;Node8</title>
<g id="a_edge7_Node000002_Node000008"><a xlink:title=" ">
<path fill="none" stroke="#63b8ff" d="M177.85,-120.99C153.87,-111.12 114.11,-94.73 86.67,-83.43"/>
<polygon fill="#63b8ff" stroke="#63b8ff" points="87.75,-80.09 77.17,-79.52 85.09,-86.56 87.75,-80.09"/>
</a>
</g>
</g>
<!-- Node4 -->
<g id="Node000004" class="node">
<title>Node4</title>
<g id="a_Node000004"><a xlink:title=" ">
<polygon fill="#e0e0e0" stroke="#999999" points="319.5,-19 211.5,-19 211.5,0 319.5,0 319.5,-19"/>
<text text-anchor="middle" x="265.5" y="-7" font-family="Helvetica,sans-Serif" font-size="10.00">QtCore/QMetaType</text>
</a>
</g>
</g>
<!-- Node3&#45;&gt;Node4 -->
<g id="edge3_Node000003_Node000004" class="edge">
<title>Node3&#45;&gt;Node4</title>
<g id="a_edge3_Node000003_Node000004"><a xlink:title=" ">
<path fill="none" stroke="#63b8ff" d="M315.79,-60.37C306.82,-51.47 292.62,-37.39 281.59,-26.45"/>
<polygon fill="#63b8ff" stroke="#63b8ff" points="283.81,-23.72 274.24,-19.17 278.88,-28.69 283.81,-23.72"/>
</a>
</g>
</g>
<!-- Node5 -->
<g id="Node000005" class="node">
<title>Node5</title>
<g id="a_Node000005"><a xlink:title=" ">
<polygon fill="#e0e0e0" stroke="#999999" points="429.5,-19 337.5,-19 337.5,0 429.5,0 429.5,-19"/>
<text text-anchor="middle" x="383.5" y="-7" font-family="Helvetica,sans-Serif" font-size="10.00">QtCore/QtTypes</text>
</a>
</g>
</g>
<!-- Node3&#45;&gt;Node5 -->
<g id="edge4_Node000003_Node000005" class="edge">
<title>Node3&#45;&gt;Node5</title>
<g id="a_edge4_Node000003_Node000005"><a xlink:title=" ">
<path fill="none" stroke="#63b8ff" d="M333.21,-60.37C342.18,-51.47 356.38,-37.39 367.41,-26.45"/>
<polygon fill="#63b8ff" stroke="#63b8ff" points="370.12,-28.69 374.76,-19.17 365.19,-23.72 370.12,-28.69"/>
</a>
</g>
</g>
<!-- Node11 -->
<g id="Node000011" class="node">
<title>Node11</title>
<g id="a_Node000011"><a xlink:href="MapProvider_8h.html" target="_top" xlink:title=" ">
<polygon fill="white" stroke="#666666" points="717.5,-140 631.5,-140 631.5,-121 717.5,-121 717.5,-140"/>
<text text-anchor="middle" x="674.5" y="-128" font-family="Helvetica,sans-Serif" font-size="10.00">MapProvider.h</text>
</a>
</g>
</g>
<!-- Node10&#45;&gt;Node11 -->
<g id="edge10_Node000010_Node000011" class="edge">
<title>Node10&#45;&gt;Node11</title>
<g id="a_edge10_Node000010_Node000011"><a xlink:title=" ">
<path fill="none" stroke="#63b8ff" d="M892.73,-175.98C847.56,-166.78 775.5,-152.09 726.65,-142.13"/>
<polygon fill="#63b8ff" stroke="#63b8ff" points="727.1,-138.65 716.6,-140.08 725.7,-145.51 727.1,-138.65"/>
</a>
</g>
</g>
<!-- Node11&#45;&gt;Node3 -->
<g id="edge15_Node000011_Node000003" class="edge">
<title>Node11&#45;&gt;Node3</title>
<g id="a_edge15_Node000011_Node000003"><a xlink:title=" ">
<path fill="none" stroke="#63b8ff" d="M631.47,-124.84C572.94,-118.11 465.13,-104.33 374.5,-85 370.59,-84.17 366.54,-83.2 362.51,-82.18"/>
<polygon fill="#63b8ff" stroke="#63b8ff" points="363.2,-78.74 352.64,-79.55 361.4,-85.5 363.2,-78.74"/>
</a>
</g>
</g>
<!-- Node12 -->
<g id="Node000012" class="node">
<title>Node12</title>
<g id="a_Node000012"><a xlink:title=" ">
<polygon fill="#e0e0e0" stroke="#999999" points="601,-85 494,-85 494,-55 601,-55 601,-85"/>
<text text-anchor="start" x="502" y="-73" font-family="Helvetica,sans-Serif" font-size="10.00">QtLocation/private</text>
<text text-anchor="middle" x="547.5" y="-62" font-family="Helvetica,sans-Serif" font-size="10.00">/qgeomaptype_p.h</text>
</a>
</g>
</g>
<!-- Node11&#45;&gt;Node12 -->
<g id="edge11_Node000011_Node000012" class="edge">
<title>Node11&#45;&gt;Node12</title>
<g id="a_edge11_Node000011_Node000012"><a xlink:title=" ">
<path fill="none" stroke="#63b8ff" d="M656.03,-120.99C638.14,-112.75 610.4,-99.98 587.45,-89.4"/>
<polygon fill="#63b8ff" stroke="#63b8ff" points="588.83,-86.18 578.28,-85.18 585.9,-92.54 588.83,-86.18"/>
</a>
</g>
</g>
<!-- Node13 -->
<g id="Node000013" class="node">
<title>Node13</title>
<g id="a_Node000013"><a xlink:title=" ">
<polygon fill="#e0e0e0" stroke="#999999" points="729.5,-79.5 619.5,-79.5 619.5,-60.5 729.5,-60.5 729.5,-79.5"/>
<text text-anchor="middle" x="674.5" y="-67.5" font-family="Helvetica,sans-Serif" font-size="10.00">QtCore/QByteArray</text>
</a>
</g>
</g>
<!-- Node11&#45;&gt;Node13 -->
<g id="edge12_Node000011_Node000013" class="edge">
<title>Node11&#45;&gt;Node13</title>
<g id="a_edge12_Node000011_Node000013"><a xlink:title=" ">
<path fill="none" stroke="#63b8ff" d="M674.5,-120.87C674.5,-112.75 674.5,-100.31 674.5,-89.89"/>
<polygon fill="#63b8ff" stroke="#63b8ff" points="678,-89.67 674.5,-79.67 671,-89.67 678,-89.67"/>
</a>
</g>
</g>
<!-- Node14 -->
<g id="Node000014" class="node">
<title>Node14</title>
<g id="a_Node000014"><a xlink:title=" ">
<polygon fill="#e0e0e0" stroke="#999999" points="998,-79.5 909,-79.5 909,-60.5 998,-60.5 998,-79.5"/>
<text text-anchor="middle" x="953.5" y="-67.5" font-family="Helvetica,sans-Serif" font-size="10.00">QtCore/QString</text>
</a>
</g>
</g>
<!-- Node11&#45;&gt;Node14 -->
<g id="edge13_Node000011_Node000014" class="edge">
<title>Node11&#45;&gt;Node14</title>
<g id="a_edge13_Node000011_Node000014"><a xlink:title=" ">
<path fill="none" stroke="#63b8ff" d="M717.58,-121.86C763.18,-113.58 837.17,-99.58 900.5,-85 904.41,-84.1 908.46,-83.12 912.51,-82.1"/>
<polygon fill="#63b8ff" stroke="#63b8ff" points="913.66,-85.42 922.47,-79.55 911.92,-78.64 913.66,-85.42"/>
</a>
</g>
</g>
<!-- Node15 -->
<g id="Node000015" class="node">
<title>Node15</title>
<g id="a_Node000015"><a xlink:title=" ">
<polygon fill="#e0e0e0" stroke="#999999" points="891,-79.5 748,-79.5 748,-60.5 891,-60.5 891,-79.5"/>
<text text-anchor="middle" x="819.5" y="-67.5" font-family="Helvetica,sans-Serif" font-size="10.00">QtCore/QLoggingCategory</text>
</a>
</g>
</g>
<!-- Node11&#45;&gt;Node15 -->
<g id="edge14_Node000011_Node000015" class="edge">
<title>Node11&#45;&gt;Node15</title>
<g id="a_edge14_Node000011_Node000015"><a xlink:title=" ">
<path fill="none" stroke="#63b8ff" d="M695.58,-120.99C720.18,-111.07 761.03,-94.59 789.06,-83.28"/>
<polygon fill="#63b8ff" stroke="#63b8ff" points="790.43,-86.5 798.39,-79.52 787.81,-80.01 790.43,-86.5"/>
</a>
</g>
</g>
<!-- Node16&#45;&gt;Node11 -->
<g id="edge17_Node000016_Node000011" class="edge">
<title>Node16&#45;&gt;Node11</title>
<g id="a_edge17_Node000016_Node000011"><a xlink:title=" ">
<path fill="none" stroke="#63b8ff" d="M1008.55,-175.98C930.75,-165.62 800.79,-148.32 728.03,-138.63"/>
<polygon fill="#63b8ff" stroke="#63b8ff" points="728.09,-135.11 717.72,-137.26 727.17,-142.04 728.09,-135.11"/>
</a>
</g>
</g>
<!-- Node17&#45;&gt;Node11 -->
<g id="edge19_Node000017_Node000011" class="edge">
<title>Node17&#45;&gt;Node11</title>
<g id="a_edge19_Node000017_Node000011"><a xlink:title=" ">
<path fill="none" stroke="#63b8ff" d="M312.74,-177.18C315.7,-176.77 318.64,-176.38 321.5,-176 427.65,-161.91 551.9,-146.5 621.07,-138.02"/>
<polygon fill="#63b8ff" stroke="#63b8ff" points="621.78,-141.46 631.28,-136.76 620.92,-134.51 621.78,-141.46"/>
</a>
</g>
</g>
<!-- Node18&#45;&gt;Node11 -->
<g id="edge21_Node000018_Node000011" class="edge">
<title>Node18&#45;&gt;Node11</title>
<g id="a_edge21_Node000018_Node000011"><a xlink:title=" ">
<path fill="none" stroke="#63b8ff" d="M437.81,-175.98C487.83,-166.58 568.28,-151.46 621.27,-141.5"/>
<polygon fill="#63b8ff" stroke="#63b8ff" points="621.98,-144.93 631.16,-139.65 620.68,-138.05 621.98,-144.93"/>
</a>
</g>
</g>
<!-- Node19&#45;&gt;Node11 -->
<g id="edge23_Node000019_Node000011" class="edge">
<title>Node19&#45;&gt;Node11</title>
<g id="a_edge23_Node000019_Node000011"><a xlink:title=" ">
<path fill="none" stroke="#63b8ff" d="M556.15,-175.98C579.35,-167.27 615.62,-153.63 641.9,-143.75"/>
<polygon fill="#63b8ff" stroke="#63b8ff" points="643.3,-146.97 651.43,-140.17 640.84,-140.41 643.3,-146.97"/>
</a>
</g>
</g>
<!-- Node20&#45;&gt;Node11 -->
<g id="edge25_Node000020_Node000011" class="edge">
<title>Node20&#45;&gt;Node11</title>
<g id="a_edge25_Node000020_Node000011"><a xlink:title=" ">
<path fill="none" stroke="#63b8ff" d="M674.5,-175.75C674.5,-168.8 674.5,-158.85 674.5,-150.13"/>
<polygon fill="#63b8ff" stroke="#63b8ff" points="678,-150.09 674.5,-140.09 671,-150.09 678,-150.09"/>
</a>
</g>
</g>
<!-- Node21&#45;&gt;Node11 -->
<g id="edge27_Node000021_Node000011" class="edge">
<title>Node21&#45;&gt;Node11</title>
<g id="a_edge27_Node000021_Node000011"><a xlink:title=" ">
<path fill="none" stroke="#63b8ff" d="M786.97,-175.98C765.03,-167.3 730.76,-153.75 705.81,-143.88"/>
<polygon fill="#63b8ff" stroke="#63b8ff" points="707.01,-140.59 696.42,-140.17 704.43,-147.1 707.01,-140.59"/>
</a>
</g>
</g>
<!-- Node22&#45;&gt;Node6 -->
<g id="edge31_Node000022_Node000006" class="edge">
<title>Node22&#45;&gt;Node6</title>
<g id="a_edge31_Node000022_Node000006"><a xlink:title=" ">
<path fill="none" stroke="#63b8ff" d="M1098.03,-129.2C977.02,-127.76 707.9,-120.45 484.5,-85 479.4,-84.19 474.08,-83.13 468.85,-81.94"/>
<polygon fill="#63b8ff" stroke="#63b8ff" points="469.52,-78.5 458.98,-79.56 467.88,-85.31 469.52,-78.5"/>
</a>
</g>
</g>
<!-- Node22&#45;&gt;Node14 -->
<g id="edge34_Node000022_Node000014" class="edge">
<title>Node22&#45;&gt;Node14</title>
<g id="a_edge34_Node000022_Node000014"><a xlink:title=" ">
<path fill="none" stroke="#63b8ff" d="M1132.11,-120.99C1095.58,-110.77 1034.16,-93.58 993.73,-82.26"/>
<polygon fill="#63b8ff" stroke="#63b8ff" points="994.5,-78.84 983.93,-79.52 992.61,-85.58 994.5,-78.84"/>
</a>
</g>
</g>
<!-- Node22&#45;&gt;Node15 -->
<g id="edge30_Node000022_Node000015" class="edge">
<title>Node22&#45;&gt;Node15</title>
<g id="a_edge30_Node000022_Node000015"><a xlink:title=" ">
<path fill="none" stroke="#63b8ff" d="M1111.78,-120.93C1058.99,-112 973.94,-97.58 900.5,-85 893.44,-83.79 886.04,-82.52 878.69,-81.25"/>
<polygon fill="#63b8ff" stroke="#63b8ff" points="879.21,-77.79 868.76,-79.54 878.02,-84.69 879.21,-77.79"/>
</a>
</g>
</g>
<!-- Node23 -->
<g id="Node000023" class="node">
<title>Node23</title>
<g id="a_Node000023"><a xlink:title=" ">
<polygon fill="#e0e0e0" stroke="#999999" points="1205.5,-79.5 1119.5,-79.5 1119.5,-60.5 1205.5,-60.5 1205.5,-79.5"/>
<text text-anchor="middle" x="1162.5" y="-67.5" font-family="Helvetica,sans-Serif" font-size="10.00">QtCore/QHash</text>
</a>
</g>
</g>
<!-- Node22&#45;&gt;Node23 -->
<g id="edge29_Node000022_Node000023" class="edge">
<title>Node22&#45;&gt;Node23</title>
<g id="a_edge29_Node000022_Node000023"><a xlink:title=" ">
<path fill="none" stroke="#63b8ff" d="M1162.5,-120.87C1162.5,-112.75 1162.5,-100.31 1162.5,-89.89"/>
<polygon fill="#63b8ff" stroke="#63b8ff" points="1166,-89.67 1162.5,-79.67 1159,-89.67 1166,-89.67"/>
</a>
</g>
</g>
<!-- Node24 -->
<g id="Node000024" class="node">
<title>Node24</title>
<g id="a_Node000024"><a xlink:title=" ">
<polygon fill="#e0e0e0" stroke="#999999" points="1357.5,-79.5 1223.5,-79.5 1223.5,-60.5 1357.5,-60.5 1357.5,-79.5"/>
<text text-anchor="middle" x="1290.5" y="-67.5" font-family="Helvetica,sans-Serif" font-size="10.00">QtCore/QReadWriteLock</text>
</a>
</g>
</g>
<!-- Node22&#45;&gt;Node24 -->
<g id="edge32_Node000022_Node000024" class="edge">
<title>Node22&#45;&gt;Node24</title>
<g id="a_edge32_Node000022_Node000024"><a xlink:title=" ">
<path fill="none" stroke="#63b8ff" d="M1181.11,-120.99C1202.54,-111.2 1237.94,-95.02 1262.65,-83.73"/>
<polygon fill="#63b8ff" stroke="#63b8ff" points="1264.22,-86.86 1271.87,-79.52 1261.32,-80.49 1264.22,-86.86"/>
</a>
</g>
</g>
<!-- Node25 -->
<g id="Node000025" class="node">
<title>Node25</title>
<g id="a_Node000025"><a xlink:title=" ">
<polygon fill="#e0e0e0" stroke="#999999" points="1453,-79.5 1376,-79.5 1376,-60.5 1453,-60.5 1453,-79.5"/>
<text text-anchor="middle" x="1414.5" y="-67.5" font-family="Helvetica,sans-Serif" font-size="10.00">QtCore/QSet</text>
</a>
</g>
</g>
<!-- Node22&#45;&gt;Node25 -->
<g id="edge33_Node000022_Node000025" class="edge">
<title>Node22&#45;&gt;Node25</title>
<g id="a_edge33_Node000022_Node000025"><a xlink:title=" ">
<path fill="none" stroke="#63b8ff" d="M1205.68,-120.98C1247.12,-112.6 1311.35,-99.04 1366.5,-85 1369.84,-84.15 1373.3,-83.23 1376.76,-82.27"/>
<polygon fill="#63b8ff" stroke="#63b8ff" points="1377.74,-85.63 1386.42,-79.54 1375.84,-78.9 1377.74,-85.63"/>
</a>
</g>
</g>
<!-- Node26 -->
<g id="Node000026" class="node">
<title>Node26</title>
<g id="a_Node000026"><a xlink:title=" ">
<polygon fill="#e0e0e0" stroke="#999999" points="1634,-79.5 1471,-79.5 1471,-60.5 1634,-60.5 1634,-79.5"/>
<text text-anchor="middle" x="1552.5" y="-67.5" font-family="Helvetica,sans-Serif" font-size="10.00">QtCore/QSortFilterProxyModel</text>
</a>
</g>
</g>
<!-- Node22&#45;&gt;Node26 -->
<g id="edge35_Node000022_Node000026" class="edge">
<title>Node22&#45;&gt;Node26</title>
<g id="a_edge35_Node000022_Node000026"><a xlink:title=" ">
<path fill="none" stroke="#63b8ff" d="M1220.87,-120.97C1281.34,-112.1 1378.56,-97.75 1462.5,-85 1470.82,-83.74 1479.56,-82.39 1488.2,-81.06"/>
<polygon fill="#63b8ff" stroke="#63b8ff" points="1488.91,-84.49 1498.25,-79.5 1487.84,-77.57 1488.91,-84.49"/>
</a>
</g>
</g>
<!-- Node27 -->
<g id="Node000027" class="node">
<title>Node27</title>
<g id="a_Node000027"><a xlink:title=" ">
<polygon fill="#e0e0e0" stroke="#999999" points="1101,-79.5 1016,-79.5 1016,-60.5 1101,-60.5 1101,-79.5"/>
<text text-anchor="middle" x="1058.5" y="-67.5" font-family="Helvetica,sans-Serif" font-size="10.00">QtQml/qqml.h</text>
</a>
</g>
</g>
<!-- Node22&#45;&gt;Node27 -->
<g id="edge36_Node000022_Node000027" class="edge">
<title>Node22&#45;&gt;Node27</title>
<g id="a_edge36_Node000022_Node000027"><a xlink:title=" ">
<path fill="none" stroke="#63b8ff" d="M1147.15,-120.87C1130.18,-111.32 1102.6,-95.81 1082.71,-84.62"/>
<polygon fill="#63b8ff" stroke="#63b8ff" points="1084.34,-81.52 1073.91,-79.67 1080.91,-87.62 1084.34,-81.52"/>
</a>
</g>
</g>
</g>
</svg>
