<?xml version="1.0" encoding="UTF-8" standalone="no"?>
<!DOCTYPE svg PUBLIC "-//W3C//DTD SVG 1.1//EN"
 "http://www.w3.org/Graphics/SVG/1.1/DTD/svg11.dtd">
<!-- Generated by graphviz version 2.43.0 (0)
 -->
<!-- Title: src/QtLocationPlugin/QGCMapEngineManager.h Pages: 1 -->
<svg width="709pt" height="115pt"
 viewBox="0.00 0.00 709.00 115.00" xmlns="http://www.w3.org/2000/svg" xmlns:xlink="http://www.w3.org/1999/xlink">
<g id="graph0" class="graph" transform="scale(1 1) rotate(0) translate(4 111)">
<title>src/QtLocationPlugin/QGCMapEngineManager.h</title>
<!-- Node1 -->
<g id="Node000001" class="node">
<title>Node1</title>
<g id="a_Node000001"><a xlink:title=" ">
<polygon fill="#999999" stroke="#666666" points="412,-107 266,-107 266,-77 412,-77 412,-107"/>
<text text-anchor="start" x="274" y="-95" font-family="Helvetica,sans-Serif" font-size="10.00">src/QtLocationPlugin</text>
<text text-anchor="middle" x="339" y="-84" font-family="Helvetica,sans-Serif" font-size="10.00">/QGCMapEngineManager.h</text>
</a>
</g>
</g>
<!-- Node2 -->
<g id="Node000002" class="node">
<title>Node2</title>
<g id="a_Node000002"><a xlink:href="QGroundControlQmlGlobal_8cc.html" target="_top" xlink:title=" ">
<polygon fill="white" stroke="#666666" points="176,-35.5 0,-35.5 0,-5.5 176,-5.5 176,-35.5"/>
<text text-anchor="start" x="8" y="-23.5" font-family="Helvetica,sans-Serif" font-size="10.00">src/QmlControls/QGroundControl</text>
<text text-anchor="middle" x="88" y="-12.5" font-family="Helvetica,sans-Serif" font-size="10.00">QmlGlobal.cc</text>
</a>
</g>
</g>
<!-- Node1&#45;&gt;Node2 -->
<g id="edge1_Node000001_Node000002" class="edge">
<title>Node1&#45;&gt;Node2</title>
<g id="a_edge1_Node000001_Node000002"><a xlink:title=" ">
<path fill="none" stroke="#63b8ff" d="M278.48,-74.24C235.74,-62.41 179.1,-46.72 138.72,-35.54"/>
<polygon fill="#63b8ff" stroke="#63b8ff" points="277.64,-77.64 288.21,-76.94 279.5,-70.89 277.64,-77.64"/>
</a>
</g>
</g>
<!-- Node3 -->
<g id="Node000003" class="node">
<title>Node3</title>
<g id="a_Node000003"><a xlink:href="QGCCachedTileSet_8cpp.html" target="_top" xlink:title=" ">
<polygon fill="white" stroke="#666666" points="325.5,-35.5 194.5,-35.5 194.5,-5.5 325.5,-5.5 325.5,-35.5"/>
<text text-anchor="start" x="202.5" y="-23.5" font-family="Helvetica,sans-Serif" font-size="10.00">src/QtLocationPlugin</text>
<text text-anchor="middle" x="260" y="-12.5" font-family="Helvetica,sans-Serif" font-size="10.00">/QGCCachedTileSet.cpp</text>
</a>
</g>
</g>
<!-- Node1&#45;&gt;Node3 -->
<g id="edge2_Node000001_Node000003" class="edge">
<title>Node1&#45;&gt;Node3</title>
<g id="a_edge2_Node000001_Node000003"><a xlink:title=" ">
<path fill="none" stroke="#63b8ff" d="M315.48,-70.31C302.73,-59.09 287.31,-45.52 275.96,-35.54"/>
<polygon fill="#63b8ff" stroke="#63b8ff" points="313.19,-72.96 323.01,-76.94 317.82,-67.7 313.19,-72.96"/>
</a>
</g>
</g>
<!-- Node4 -->
<g id="Node000004" class="node">
<title>Node4</title>
<g id="a_Node000004"><a xlink:href="QGCMapEngineManager_8cc.html" target="_top" xlink:title=" ">
<polygon fill="white" stroke="#666666" points="494.5,-35.5 343.5,-35.5 343.5,-5.5 494.5,-5.5 494.5,-35.5"/>
<text text-anchor="start" x="351.5" y="-23.5" font-family="Helvetica,sans-Serif" font-size="10.00">src/QtLocationPlugin</text>
<text text-anchor="middle" x="419" y="-12.5" font-family="Helvetica,sans-Serif" font-size="10.00">/QGCMapEngineManager.cc</text>
</a>
</g>
</g>
<!-- Node1&#45;&gt;Node4 -->
<g id="edge3_Node000001_Node000004" class="edge">
<title>Node1&#45;&gt;Node4</title>
<g id="a_edge3_Node000001_Node000004"><a xlink:title=" ">
<path fill="none" stroke="#63b8ff" d="M362.82,-70.31C375.73,-59.09 391.35,-45.52 402.83,-35.54"/>
<polygon fill="#63b8ff" stroke="#63b8ff" points="360.44,-67.74 355.19,-76.94 365.03,-73.02 360.44,-67.74"/>
</a>
</g>
</g>
<!-- Node5 -->
<g id="Node000005" class="node">
<title>Node5</title>
<g id="a_Node000005"><a xlink:href="QGeoTiledMappingManagerEngineQGC_8cpp.html" target="_top" xlink:title=" ">
<polygon fill="white" stroke="#666666" points="701,-41 513,-41 513,0 701,0 701,-41"/>
<text text-anchor="start" x="521" y="-29" font-family="Helvetica,sans-Serif" font-size="10.00">src/QtLocationPlugin</text>
<text text-anchor="start" x="521" y="-18" font-family="Helvetica,sans-Serif" font-size="10.00">/QGeoTiledMappingManagerEngine</text>
<text text-anchor="middle" x="607" y="-7" font-family="Helvetica,sans-Serif" font-size="10.00">QGC.cpp</text>
</a>
</g>
</g>
<!-- Node1&#45;&gt;Node5 -->
<g id="edge4_Node000001_Node000005" class="edge">
<title>Node1&#45;&gt;Node5</title>
<g id="a_edge4_Node000001_Node000005"><a xlink:title=" ">
<path fill="none" stroke="#63b8ff" d="M403.32,-74.32C441.97,-64.3 491.33,-51.5 531.78,-41.01"/>
<polygon fill="#63b8ff" stroke="#63b8ff" points="402.03,-71.04 393.23,-76.94 403.79,-77.81 402.03,-71.04"/>
</a>
</g>
</g>
</g>
</svg>
