<?xml version="1.0" encoding="UTF-8" standalone="no"?>
<!DOCTYPE svg PUBLIC "-//W3C//DTD SVG 1.1//EN"
 "http://www.w3.org/Graphics/SVG/1.1/DTD/svg11.dtd">
<!-- Generated by graphviz version 2.43.0 (0)
 -->
<!-- Title: src/Utilities/Database/QGCSqlHelper.cc Pages: 1 -->
<svg width="637pt" height="148pt"
 viewBox="0.00 0.00 636.50 148.00" xmlns="http://www.w3.org/2000/svg" xmlns:xlink="http://www.w3.org/1999/xlink">
<g id="graph0" class="graph" transform="scale(1 1) rotate(0) translate(4 144)">
<title>src/Utilities/Database/QGCSqlHelper.cc</title>
<!-- Node1 -->
<g id="Node000001" class="node">
<title>Node1</title>
<g id="a_Node000001"><a xlink:title=" ">
<polygon fill="#999999" stroke="#666666" points="451.5,-140 329.5,-140 329.5,-110 451.5,-110 451.5,-140"/>
<text text-anchor="start" x="337.5" y="-128" font-family="Helvetica,sans-Serif" font-size="10.00">src/Utilities/Database</text>
<text text-anchor="middle" x="390.5" y="-117" font-family="Helvetica,sans-Serif" font-size="10.00">/QGCSqlHelper.cc</text>
</a>
</g>
</g>
<!-- Node2 -->
<g id="Node000002" class="node">
<title>Node2</title>
<g id="a_Node000002"><a xlink:href="QGCSqlHelper_8h.html" target="_top" xlink:title=" ">
<polygon fill="white" stroke="#666666" points="312.5,-74 218.5,-74 218.5,-55 312.5,-55 312.5,-74"/>
<text text-anchor="middle" x="265.5" y="-62" font-family="Helvetica,sans-Serif" font-size="10.00">QGCSqlHelper.h</text>
</a>
</g>
</g>
<!-- Node1&#45;&gt;Node2 -->
<g id="edge1_Node000001_Node000002" class="edge">
<title>Node1&#45;&gt;Node2</title>
<g id="a_edge1_Node000001_Node000002"><a xlink:title=" ">
<path fill="none" stroke="#63b8ff" d="M360.56,-109.99C340.08,-100.4 313.12,-87.79 293.15,-78.44"/>
<polygon fill="#63b8ff" stroke="#63b8ff" points="294.5,-75.21 283.96,-74.14 291.53,-81.55 294.5,-75.21"/>
</a>
</g>
</g>
<!-- Node5 -->
<g id="Node000005" class="node">
<title>Node5</title>
<g id="a_Node000005"><a xlink:title=" ">
<polygon fill="#e0e0e0" stroke="#999999" points="406.5,-19 308.5,-19 308.5,0 406.5,0 406.5,-19"/>
<text text-anchor="middle" x="357.5" y="-7" font-family="Helvetica,sans-Serif" font-size="10.00">QtSql/QSqlQuery</text>
</a>
</g>
</g>
<!-- Node1&#45;&gt;Node5 -->
<g id="edge8_Node000001_Node000005" class="edge">
<title>Node1&#45;&gt;Node5</title>
<g id="a_edge8_Node000001_Node000005"><a xlink:title=" ">
<path fill="none" stroke="#63b8ff" d="M383.2,-109.91C378.38,-100.08 372.28,-86.53 368.5,-74 364.1,-59.4 361.26,-42.35 359.58,-29.6"/>
<polygon fill="#63b8ff" stroke="#63b8ff" points="363.01,-28.79 358.34,-19.28 356.06,-29.63 363.01,-28.79"/>
</a>
</g>
</g>
<!-- Node7 -->
<g id="Node000007" class="node">
<title>Node7</title>
<g id="a_Node000007"><a xlink:title=" ">
<polygon fill="#e0e0e0" stroke="#999999" points="490,-74 377,-74 377,-55 490,-55 490,-74"/>
<text text-anchor="middle" x="433.5" y="-62" font-family="Helvetica,sans-Serif" font-size="10.00">QtCore/QLatin1Char</text>
</a>
</g>
</g>
<!-- Node1&#45;&gt;Node7 -->
<g id="edge6_Node000001_Node000007" class="edge">
<title>Node1&#45;&gt;Node7</title>
<g id="a_edge6_Node000001_Node000007"><a xlink:title=" ">
<path fill="none" stroke="#63b8ff" d="M400.91,-109.84C406.96,-101.61 414.62,-91.18 421,-82.51"/>
<polygon fill="#63b8ff" stroke="#63b8ff" points="423.95,-84.4 427.06,-74.27 418.31,-80.25 423.95,-84.4"/>
</a>
</g>
</g>
<!-- Node8 -->
<g id="Node000008" class="node">
<title>Node8</title>
<g id="a_Node000008"><a xlink:title=" ">
<polygon fill="#e0e0e0" stroke="#999999" points="628.5,-74 508.5,-74 508.5,-55 628.5,-55 628.5,-74"/>
<text text-anchor="middle" x="568.5" y="-62" font-family="Helvetica,sans-Serif" font-size="10.00">QtCore/QStringLiteral</text>
</a>
</g>
</g>
<!-- Node1&#45;&gt;Node8 -->
<g id="edge7_Node000001_Node000008" class="edge">
<title>Node1&#45;&gt;Node8</title>
<g id="a_edge7_Node000001_Node000008"><a xlink:title=" ">
<path fill="none" stroke="#63b8ff" d="M433.14,-109.99C463.59,-99.98 504.09,-86.67 532.83,-77.22"/>
<polygon fill="#63b8ff" stroke="#63b8ff" points="534.07,-80.5 542.47,-74.05 531.88,-73.85 534.07,-80.5"/>
</a>
</g>
</g>
<!-- Node3 -->
<g id="Node000003" class="node">
<title>Node3</title>
<g id="a_Node000003"><a xlink:title=" ">
<polygon fill="#e0e0e0" stroke="#999999" points="89,-19 0,-19 0,0 89,0 89,-19"/>
<text text-anchor="middle" x="44.5" y="-7" font-family="Helvetica,sans-Serif" font-size="10.00">QtCore/QString</text>
</a>
</g>
</g>
<!-- Node2&#45;&gt;Node3 -->
<g id="edge2_Node000002_Node000003" class="edge">
<title>Node2&#45;&gt;Node3</title>
<g id="a_edge2_Node000002_Node000003"><a xlink:title=" ">
<path fill="none" stroke="#63b8ff" d="M229.99,-54.98C192.01,-45.87 131.63,-31.4 90.14,-21.45"/>
<polygon fill="#63b8ff" stroke="#63b8ff" points="90.83,-18.01 80.29,-19.08 89.19,-24.82 90.83,-18.01"/>
</a>
</g>
</g>
<!-- Node4 -->
<g id="Node000004" class="node">
<title>Node4</title>
<g id="a_Node000004"><a xlink:title=" ">
<polygon fill="#e0e0e0" stroke="#999999" points="222,-19 107,-19 107,0 222,0 222,-19"/>
<text text-anchor="middle" x="164.5" y="-7" font-family="Helvetica,sans-Serif" font-size="10.00">QtSql/QSqlDatabase</text>
</a>
</g>
</g>
<!-- Node2&#45;&gt;Node4 -->
<g id="edge3_Node000002_Node000004" class="edge">
<title>Node2&#45;&gt;Node4</title>
<g id="a_edge3_Node000002_Node000004"><a xlink:title=" ">
<path fill="none" stroke="#63b8ff" d="M249.27,-54.98C233.32,-46.61 208.72,-33.7 190.12,-23.95"/>
<polygon fill="#63b8ff" stroke="#63b8ff" points="191.5,-20.72 181.02,-19.17 188.25,-26.92 191.5,-20.72"/>
</a>
</g>
</g>
<!-- Node2&#45;&gt;Node5 -->
<g id="edge4_Node000002_Node000005" class="edge">
<title>Node2&#45;&gt;Node5</title>
<g id="a_edge4_Node000002_Node000005"><a xlink:title=" ">
<path fill="none" stroke="#63b8ff" d="M280.28,-54.98C294.68,-46.69 316.81,-33.94 333.69,-24.22"/>
<polygon fill="#63b8ff" stroke="#63b8ff" points="335.53,-27.19 342.45,-19.17 332.04,-21.13 335.53,-27.19"/>
</a>
</g>
</g>
<!-- Node6 -->
<g id="Node000006" class="node">
<title>Node6</title>
<g id="a_Node000006"><a xlink:title=" ">
<polygon fill="#e0e0e0" stroke="#999999" points="290.5,-19 240.5,-19 240.5,0 290.5,0 290.5,-19"/>
<text text-anchor="middle" x="265.5" y="-7" font-family="Helvetica,sans-Serif" font-size="10.00">atomic</text>
</a>
</g>
</g>
<!-- Node2&#45;&gt;Node6 -->
<g id="edge5_Node000002_Node000006" class="edge">
<title>Node2&#45;&gt;Node6</title>
<g id="a_edge5_Node000002_Node000006"><a xlink:title=" ">
<path fill="none" stroke="#63b8ff" d="M265.5,-54.75C265.5,-47.8 265.5,-37.85 265.5,-29.13"/>
<polygon fill="#63b8ff" stroke="#63b8ff" points="269,-29.09 265.5,-19.09 262,-29.09 269,-29.09"/>
</a>
</g>
</g>
</g>
</svg>
