<?xml version="1.0" encoding="UTF-8" standalone="no"?>
<!DOCTYPE svg PUBLIC "-//W3C//DTD SVG 1.1//EN"
 "http://www.w3.org/Graphics/SVG/1.1/DTD/svg11.dtd">
<!-- Generated by graphviz version 2.43.0 (0)
 -->
<!-- Title: src/QtLocationPlugin/QGeoTileFetcherQGC.cpp Pages: 1 -->
<!--zoomable 291 -->

<svg id="main" version="1.1" xmlns="http://www.w3.org/2000/svg" xmlns:xlink="http://www.w3.org/1999/xlink" xml:space="preserve" onload="init(evt)">
<style type="text/css"><![CDATA[
.node, .edge {opacity: 0.7;}
.node.selected, .edge.selected {opacity: 1;}
.edge:hover path { stroke: red; }
.edge:hover polygon { stroke: red; fill: red; }
]]></style>

<defs>
  <circle id="rim" cx="0" cy="0" r="7"/>
  <circle id="rim2" cx="0" cy="0" r="3.5"/>
  <g id="zoomPlus">
    <use xlink:href="#rim" fill="#404040"><set attributeName="fill" to="#808080" begin="zoomplus.mouseover" end="zoomplus.mouseout"/></use>
    <path d="M-4,0h8M0,-4v8" fill="none" stroke="white" stroke-width="1.5" pointer-events="none"/>
  </g>
  <g id="zoomMin">
    <use xlink:href="#rim" fill="#404040"><set attributeName="fill" to="#808080" begin="zoomminus.mouseover" end="zoomminus.mouseout"/></use>
    <path d="M-4,0h8" fill="none" stroke="white" stroke-width="1.5" pointer-events="none"/>
  </g>
  <g id="arrowUp" transform="translate(30 24)">
    <use xlink:href="#rim"/>
    <path pointer-events="none" fill="none" stroke="white" stroke-width="1.5" d="M0,-3.0v7 M-2.5,-0.5L0,-3.0L2.5,-0.5"/>
  </g>
  <g id="arrowRight" transform="rotate(90) translate(36 -43)">
    <use xlink:href="#rim"/>
    <path pointer-events="none" fill="none" stroke="white" stroke-width="1.5" d="M0,-3.0v7 M-2.5,-0.5L0,-3.0L2.5,-0.5"/>
  </g>
  <g id="arrowDown" transform="rotate(180) translate(-30 -48)">
    <use xlink:href="#rim"/>
    <path pointer-events="none" fill="none" stroke="white" stroke-width="1.5" d="M0,-3.0v7 M-2.5,-0.5L0,-3.0L2.5,-0.5"/>
  </g>
  <g id="arrowLeft" transform="rotate(270) translate(-36 17)">
    <use xlink:href="#rim"/>
    <path pointer-events="none" fill="none" stroke="white" stroke-width="1.5" d="M0,-3.0v7 M-2.5,-0.5L0,-3.0L2.5,-0.5"/>
  </g>
  <g id="resetDef">
    <use xlink:href="#rim2" fill="#404040"><set attributeName="fill" to="#808080" begin="reset.mouseover" end="reset.mouseout"/></use>
  </g>
</defs>
<script type="application/ecmascript">
var viewWidth = 2122;
var viewHeight = 291;
var sectionId = 'dynsection-0';
</script>
<script type="application/ecmascript" xlink:href="svg.min.js"/>
<svg id="graph" class="graph">
<g id="viewport">
<title>src/QtLocationPlugin/QGeoTileFetcherQGC.cpp</title>
<!-- Node1 -->
<g id="Node000001" class="node">
<title>Node1</title>
<g id="a_Node000001"><a xlink:title=" ">
<polygon fill="#999999" stroke="#666666" points="1048,-283 905,-283 905,-253 1048,-253 1048,-283"/>
<text text-anchor="start" x="913" y="-271" font-family="Helvetica,sans-Serif" font-size="10.00">src/QtLocationPlugin</text>
<text text-anchor="middle" x="976.5" y="-260" font-family="Helvetica,sans-Serif" font-size="10.00">/QGeoTileFetcherQGC.cpp</text>
</a>
</g>
</g>
<!-- Node2 -->
<g id="Node000002" class="node">
<title>Node2</title>
<g id="a_Node000002"><a xlink:href="QGeoTileFetcherQGC_8h.html" target="_top" xlink:title=" ">
<polygon fill="white" stroke="#666666" points="686.5,-211.5 558.5,-211.5 558.5,-192.5 686.5,-192.5 686.5,-211.5"/>
<text text-anchor="middle" x="622.5" y="-199.5" font-family="Helvetica,sans-Serif" font-size="10.00">QGeoTileFetcherQGC.h</text>
</a>
</g>
</g>
<!-- Node1&#45;&gt;Node2 -->
<g id="edge1_Node000001_Node000002" class="edge">
<title>Node1&#45;&gt;Node2</title>
<g id="a_edge1_Node000001_Node000002"><a xlink:title=" ">
<path fill="none" stroke="#63b8ff" d="M904.86,-254.05C838.46,-242.04 740.94,-224.41 679.62,-213.33"/>
<polygon fill="#63b8ff" stroke="#63b8ff" points="680.19,-209.87 669.73,-211.54 678.95,-216.76 680.19,-209.87"/>
</a>
</g>
</g>
<!-- Node5 -->
<g id="Node000005" class="node">
<title>Node5</title>
<g id="a_Node000005"><a xlink:title=" ">
<polygon fill="#e0e0e0" stroke="#999999" points="759,-145.5 598,-145.5 598,-126.5 759,-126.5 759,-145.5"/>
<text text-anchor="middle" x="678.5" y="-133.5" font-family="Helvetica,sans-Serif" font-size="10.00">QtNetwork/QNetworkRequest</text>
</a>
</g>
</g>
<!-- Node1&#45;&gt;Node5 -->
<g id="edge7_Node000001_Node000005" class="edge">
<title>Node1&#45;&gt;Node5</title>
<g id="a_edge7_Node000001_Node000005"><a xlink:title=" ">
<path fill="none" stroke="#63b8ff" d="M944.33,-252.96C885.97,-227.51 763.56,-174.11 707.57,-149.68"/>
<polygon fill="#63b8ff" stroke="#63b8ff" points="708.8,-146.4 698.23,-145.61 706,-152.81 708.8,-146.4"/>
</a>
</g>
</g>
<!-- Node6 -->
<g id="Node000006" class="node">
<title>Node6</title>
<g id="a_Node000006"><a xlink:title=" ">
<polygon fill="#e0e0e0" stroke="#999999" points="2114,-151 1909,-151 1909,-121 2114,-121 2114,-151"/>
<text text-anchor="start" x="1917" y="-139" font-family="Helvetica,sans-Serif" font-size="10.00">QtLocation/private</text>
<text text-anchor="middle" x="2011.5" y="-128" font-family="Helvetica,sans-Serif" font-size="10.00">/qgeotiledmappingmanagerengine_p.h</text>
</a>
</g>
</g>
<!-- Node1&#45;&gt;Node6 -->
<g id="edge5_Node000001_Node000006" class="edge">
<title>Node1&#45;&gt;Node6</title>
<g id="a_edge5_Node000001_Node000006"><a xlink:title=" ">
<path fill="none" stroke="#63b8ff" d="M1048.13,-265.43C1113.03,-261.73 1210.06,-250.43 1287.5,-217 1307.58,-208.33 1306.03,-194.69 1326.5,-187 1443.23,-143.17 1757.41,-162.02 1898.46,-151.07"/>
<polygon fill="#63b8ff" stroke="#63b8ff" points="1899.05,-154.54 1908.72,-150.19 1898.45,-147.56 1899.05,-154.54"/>
</a>
</g>
</g>
<!-- Node7 -->
<g id="Node000007" class="node">
<title>Node7</title>
<g id="a_Node000007"><a xlink:title=" ">
<polygon fill="#e0e0e0" stroke="#999999" points="1442,-217 1335,-217 1335,-187 1442,-187 1442,-217"/>
<text text-anchor="start" x="1343" y="-205" font-family="Helvetica,sans-Serif" font-size="10.00">QtLocation/private</text>
<text text-anchor="middle" x="1388.5" y="-194" font-family="Helvetica,sans-Serif" font-size="10.00">/qgeotilespec_p.h</text>
</a>
</g>
</g>
<!-- Node1&#45;&gt;Node7 -->
<g id="edge6_Node000001_Node000007" class="edge">
<title>Node1&#45;&gt;Node7</title>
<g id="a_edge6_Node000001_Node000007"><a xlink:title=" ">
<path fill="none" stroke="#63b8ff" d="M1048.18,-257.83C1117.9,-248.61 1226.73,-233.45 1320.5,-217 1321.95,-216.75 1323.41,-216.48 1324.88,-216.22"/>
<polygon fill="#63b8ff" stroke="#63b8ff" points="1325.55,-219.65 1334.73,-214.37 1324.26,-212.77 1325.55,-219.65"/>
</a>
</g>
</g>
<!-- Node8 -->
<g id="Node000008" class="node">
<title>Node8</title>
<g id="a_Node000008"><a xlink:href="MapProvider_8h.html" target="_top" xlink:title=" ">
<polygon fill="white" stroke="#666666" points="939.5,-145.5 853.5,-145.5 853.5,-126.5 939.5,-126.5 939.5,-145.5"/>
<text text-anchor="middle" x="896.5" y="-133.5" font-family="Helvetica,sans-Serif" font-size="10.00">MapProvider.h</text>
</a>
</g>
</g>
<!-- Node1&#45;&gt;Node8 -->
<g id="edge8_Node000001_Node000008" class="edge">
<title>Node1&#45;&gt;Node8</title>
<g id="a_edge8_Node000001_Node000008"><a xlink:title=" ">
<path fill="none" stroke="#63b8ff" d="M945.48,-252.84C930.89,-244.53 914.72,-232.57 905.5,-217 894.51,-198.43 893.5,-173.17 894.43,-156.03"/>
<polygon fill="#63b8ff" stroke="#63b8ff" points="897.95,-155.91 895.29,-145.65 890.98,-155.33 897.95,-155.91"/>
</a>
</g>
</g>
<!-- Node15 -->
<g id="Node000015" class="node">
<title>Node15</title>
<g id="a_Node000015"><a xlink:href="QGCLoggingCategory_8h.html" target="_top" xlink:title=" ">
<polygon fill="white" stroke="#666666" points="418.5,-211.5 290.5,-211.5 290.5,-192.5 418.5,-192.5 418.5,-211.5"/>
<text text-anchor="middle" x="354.5" y="-199.5" font-family="Helvetica,sans-Serif" font-size="10.00">QGCLoggingCategory.h</text>
</a>
</g>
</g>
<!-- Node1&#45;&gt;Node15 -->
<g id="edge16_Node000001_Node000015" class="edge">
<title>Node1&#45;&gt;Node15</title>
<g id="a_edge16_Node000001_Node000015"><a xlink:title=" ">
<path fill="none" stroke="#63b8ff" d="M904.85,-259.63C786.12,-247.41 549.76,-223.09 429.11,-210.68"/>
<polygon fill="#63b8ff" stroke="#63b8ff" points="429.17,-207.16 418.86,-209.62 428.45,-214.13 429.17,-207.16"/>
</a>
</g>
</g>
<!-- Node23 -->
<g id="Node000023" class="node">
<title>Node23</title>
<g id="a_Node000023"><a xlink:href="QGCMapUrlEngine_8h.html" target="_top" xlink:title=" ">
<polygon fill="white" stroke="#666666" points="1697.5,-145.5 1581.5,-145.5 1581.5,-126.5 1697.5,-126.5 1697.5,-145.5"/>
<text text-anchor="middle" x="1639.5" y="-133.5" font-family="Helvetica,sans-Serif" font-size="10.00">QGCMapUrlEngine.h</text>
</a>
</g>
</g>
<!-- Node1&#45;&gt;Node23 -->
<g id="edge27_Node000001_Node000023" class="edge">
<title>Node1&#45;&gt;Node23</title>
<g id="a_edge27_Node000001_Node000023"><a xlink:title=" ">
<path fill="none" stroke="#63b8ff" d="M996.55,-252.96C1010.62,-243.04 1029.82,-229.36 1046.5,-217 1064.07,-203.98 1065.07,-194.8 1085.5,-187 1186.88,-148.29 1465.04,-166.13 1572.5,-151 1579.22,-150.05 1586.28,-148.83 1593.18,-147.51"/>
<polygon fill="#63b8ff" stroke="#63b8ff" points="1594.03,-150.91 1603.14,-145.51 1592.65,-144.04 1594.03,-150.91"/>
</a>
</g>
</g>
<!-- Node26 -->
<g id="Node000026" class="node">
<title>Node26</title>
<g id="a_Node000026"><a xlink:href="QGeoMapReplyQGC_8h.html" target="_top" xlink:title=" ">
<polygon fill="white" stroke="#666666" points="1038,-211.5 915,-211.5 915,-192.5 1038,-192.5 1038,-211.5"/>
<text text-anchor="middle" x="976.5" y="-199.5" font-family="Helvetica,sans-Serif" font-size="10.00">QGeoMapReplyQGC.h</text>
</a>
</g>
</g>
<!-- Node1&#45;&gt;Node26 -->
<g id="edge32_Node000001_Node000026" class="edge">
<title>Node1&#45;&gt;Node26</title>
<g id="a_edge32_Node000001_Node000026"><a xlink:title=" ">
<path fill="none" stroke="#63b8ff" d="M976.5,-252.8C976.5,-243.7 976.5,-231.79 976.5,-221.9"/>
<polygon fill="#63b8ff" stroke="#63b8ff" points="980,-221.84 976.5,-211.84 973,-221.84 980,-221.84"/>
</a>
</g>
</g>
<!-- Node40 -->
<g id="Node000040" class="node">
<title>Node40</title>
<g id="a_Node000040"><a xlink:href="QGeoTiledMappingManagerEngineQGC_8h.html" target="_top" xlink:title=" ">
<polygon fill="white" stroke="#666666" points="1279,-217 1094,-217 1094,-187 1279,-187 1279,-217"/>
<text text-anchor="start" x="1102" y="-205" font-family="Helvetica,sans-Serif" font-size="10.00">QGeoTiledMappingManagerEngine</text>
<text text-anchor="middle" x="1186.5" y="-194" font-family="Helvetica,sans-Serif" font-size="10.00">QGC.h</text>
</a>
</g>
</g>
<!-- Node1&#45;&gt;Node40 -->
<g id="edge61_Node000001_Node000040" class="edge">
<title>Node1&#45;&gt;Node40</title>
<g id="a_edge61_Node000001_Node000040"><a xlink:title=" ">
<path fill="none" stroke="#63b8ff" d="M1022.59,-252.95C1054.45,-243.24 1097.03,-230.27 1130.8,-219.98"/>
<polygon fill="#63b8ff" stroke="#63b8ff" points="1131.98,-223.28 1140.52,-217.01 1129.94,-216.58 1131.98,-223.28"/>
</a>
</g>
</g>
<!-- Node3 -->
<g id="Node000003" class="node">
<title>Node3</title>
<g id="a_Node000003"><a xlink:title=" ">
<polygon fill="#e0e0e0" stroke="#999999" points="539,-19 396,-19 396,0 539,0 539,-19"/>
<text text-anchor="middle" x="467.5" y="-7" font-family="Helvetica,sans-Serif" font-size="10.00">QtCore/QLoggingCategory</text>
</a>
</g>
</g>
<!-- Node2&#45;&gt;Node3 -->
<g id="edge2_Node000002_Node000003" class="edge">
<title>Node2&#45;&gt;Node3</title>
<g id="a_edge2_Node000002_Node000003"><a xlink:title=" ">
<path fill="none" stroke="#63b8ff" d="M558.41,-199.41C522.28,-194.81 479.84,-182.4 456.5,-151 429.46,-114.62 447.32,-57.32 459.25,-28.43"/>
<polygon fill="#63b8ff" stroke="#63b8ff" points="462.5,-29.72 463.28,-19.16 456.08,-26.93 462.5,-29.72"/>
</a>
</g>
</g>
<!-- Node4 -->
<g id="Node000004" class="node">
<title>Node4</title>
<g id="a_Node000004"><a xlink:title=" ">
<polygon fill="#e0e0e0" stroke="#999999" points="579.5,-151 465.5,-151 465.5,-121 579.5,-121 579.5,-151"/>
<text text-anchor="start" x="473.5" y="-139" font-family="Helvetica,sans-Serif" font-size="10.00">QtLocation/private</text>
<text text-anchor="middle" x="522.5" y="-128" font-family="Helvetica,sans-Serif" font-size="10.00">/qgeotilefetcher_p.h</text>
</a>
</g>
</g>
<!-- Node2&#45;&gt;Node4 -->
<g id="edge3_Node000002_Node000004" class="edge">
<title>Node2&#45;&gt;Node4</title>
<g id="a_edge3_Node000002_Node000004"><a xlink:title=" ">
<path fill="none" stroke="#63b8ff" d="M609.01,-192.37C594.75,-183.24 571.76,-168.53 553.06,-156.56"/>
<polygon fill="#63b8ff" stroke="#63b8ff" points="554.87,-153.56 544.56,-151.12 551.09,-159.45 554.87,-153.56"/>
</a>
</g>
</g>
<!-- Node2&#45;&gt;Node5 -->
<g id="edge4_Node000002_Node000005" class="edge">
<title>Node2&#45;&gt;Node5</title>
<g id="a_edge4_Node000002_Node000005"><a xlink:title=" ">
<path fill="none" stroke="#63b8ff" d="M630.05,-192.37C638.69,-182.5 653.03,-166.11 663.87,-153.72"/>
<polygon fill="#63b8ff" stroke="#63b8ff" points="666.76,-155.74 670.71,-145.91 661.49,-151.13 666.76,-155.74"/>
</a>
</g>
</g>
<!-- Node8&#45;&gt;Node3 -->
<g id="edge12_Node000008_Node000003" class="edge">
<title>Node8&#45;&gt;Node3</title>
<g id="a_edge12_Node000008_Node000003"><a xlink:title=" ">
<path fill="none" stroke="#63b8ff" d="M862.16,-126.49C854.69,-124.66 846.83,-122.75 839.5,-121 770.71,-104.57 749.11,-113.75 684.5,-85 663.21,-75.53 662.68,-64.71 641.5,-55 606.56,-38.99 564.94,-28.08 531.16,-21.07"/>
<polygon fill="#63b8ff" stroke="#63b8ff" points="531.44,-17.56 520.94,-19.02 530.06,-24.42 531.44,-17.56"/>
</a>
</g>
</g>
<!-- Node9 -->
<g id="Node000009" class="node">
<title>Node9</title>
<g id="a_Node000009"><a xlink:title=" ">
<polygon fill="#e0e0e0" stroke="#999999" points="801,-85 694,-85 694,-55 801,-55 801,-85"/>
<text text-anchor="start" x="702" y="-73" font-family="Helvetica,sans-Serif" font-size="10.00">QtLocation/private</text>
<text text-anchor="middle" x="747.5" y="-62" font-family="Helvetica,sans-Serif" font-size="10.00">/qgeomaptype_p.h</text>
</a>
</g>
</g>
<!-- Node8&#45;&gt;Node9 -->
<g id="edge9_Node000008_Node000009" class="edge">
<title>Node8&#45;&gt;Node9</title>
<g id="a_edge9_Node000008_Node000009"><a xlink:title=" ">
<path fill="none" stroke="#63b8ff" d="M876.41,-126.37C854.28,-116.87 818.08,-101.32 789.67,-89.11"/>
<polygon fill="#63b8ff" stroke="#63b8ff" points="790.93,-85.85 780.36,-85.12 788.17,-92.28 790.93,-85.85"/>
</a>
</g>
</g>
<!-- Node10 -->
<g id="Node000010" class="node">
<title>Node10</title>
<g id="a_Node000010"><a xlink:title=" ">
<polygon fill="#e0e0e0" stroke="#999999" points="678.5,-19 568.5,-19 568.5,0 678.5,0 678.5,-19"/>
<text text-anchor="middle" x="623.5" y="-7" font-family="Helvetica,sans-Serif" font-size="10.00">QtCore/QByteArray</text>
</a>
</g>
</g>
<!-- Node8&#45;&gt;Node10 -->
<g id="edge10_Node000008_Node000010" class="edge">
<title>Node8&#45;&gt;Node10</title>
<g id="a_edge10_Node000008_Node000010"><a xlink:title=" ">
<path fill="none" stroke="#63b8ff" d="M888.16,-126.29C870.1,-107.61 827.52,-64.59 809.5,-55 787.45,-43.26 727.07,-29.95 681.03,-20.97"/>
<polygon fill="#63b8ff" stroke="#63b8ff" points="681.63,-17.52 671.15,-19.06 680.31,-24.39 681.63,-17.52"/>
</a>
</g>
</g>
<!-- Node11 -->
<g id="Node000011" class="node">
<title>Node11</title>
<g id="a_Node000011"><a xlink:title=" ">
<polygon fill="#e0e0e0" stroke="#999999" points="1285,-19 1196,-19 1196,0 1285,0 1285,-19"/>
<text text-anchor="middle" x="1240.5" y="-7" font-family="Helvetica,sans-Serif" font-size="10.00">QtCore/QString</text>
</a>
</g>
</g>
<!-- Node8&#45;&gt;Node11 -->
<g id="edge11_Node000008_Node000011" class="edge">
<title>Node8&#45;&gt;Node11</title>
<g id="a_edge11_Node000008_Node000011"><a xlink:title=" ">
<path fill="none" stroke="#63b8ff" d="M939.66,-131.27C1009.19,-124.64 1142.27,-109.18 1182.5,-85 1205.05,-71.45 1222.12,-45.6 1231.72,-28.21"/>
<polygon fill="#63b8ff" stroke="#63b8ff" points="1234.95,-29.58 1236.5,-19.1 1228.75,-26.33 1234.95,-29.58"/>
</a>
</g>
</g>
<!-- Node12 -->
<g id="Node000012" class="node">
<title>Node12</title>
<g id="a_Node000012"><a xlink:href="QGCTileSet_8h.html" target="_top" xlink:title=" ">
<polygon fill="white" stroke="#666666" points="939,-79.5 858,-79.5 858,-60.5 939,-60.5 939,-79.5"/>
<text text-anchor="middle" x="898.5" y="-67.5" font-family="Helvetica,sans-Serif" font-size="10.00">QGCTileSet.h</text>
</a>
</g>
</g>
<!-- Node8&#45;&gt;Node12 -->
<g id="edge13_Node000008_Node000012" class="edge">
<title>Node8&#45;&gt;Node12</title>
<g id="a_edge13_Node000008_Node000012"><a xlink:title=" ">
<path fill="none" stroke="#63b8ff" d="M896.77,-126.37C897.06,-117.16 897.52,-102.29 897.9,-90.27"/>
<polygon fill="#63b8ff" stroke="#63b8ff" points="901.41,-90.01 898.22,-79.91 894.41,-89.79 901.41,-90.01"/>
</a>
</g>
</g>
<!-- Node13 -->
<g id="Node000013" class="node">
<title>Node13</title>
<g id="a_Node000013"><a xlink:title=" ">
<polygon fill="#e0e0e0" stroke="#999999" points="914.5,-19 806.5,-19 806.5,0 914.5,0 914.5,-19"/>
<text text-anchor="middle" x="860.5" y="-7" font-family="Helvetica,sans-Serif" font-size="10.00">QtCore/QMetaType</text>
</a>
</g>
</g>
<!-- Node12&#45;&gt;Node13 -->
<g id="edge14_Node000012_Node000013" class="edge">
<title>Node12&#45;&gt;Node13</title>
<g id="a_edge14_Node000012_Node000013"><a xlink:title=" ">
<path fill="none" stroke="#63b8ff" d="M892.89,-60.37C887.34,-51.81 878.67,-38.47 871.7,-27.74"/>
<polygon fill="#63b8ff" stroke="#63b8ff" points="874.51,-25.65 866.13,-19.17 868.64,-29.46 874.51,-25.65"/>
</a>
</g>
</g>
<!-- Node14 -->
<g id="Node000014" class="node">
<title>Node14</title>
<g id="a_Node000014"><a xlink:title=" ">
<polygon fill="#e0e0e0" stroke="#999999" points="788.5,-19 696.5,-19 696.5,0 788.5,0 788.5,-19"/>
<text text-anchor="middle" x="742.5" y="-7" font-family="Helvetica,sans-Serif" font-size="10.00">QtCore/QtTypes</text>
</a>
</g>
</g>
<!-- Node12&#45;&gt;Node14 -->
<g id="edge15_Node000012_Node000014" class="edge">
<title>Node12&#45;&gt;Node14</title>
<g id="a_edge15_Node000012_Node000014"><a xlink:title=" ">
<path fill="none" stroke="#63b8ff" d="M875.82,-60.49C849.24,-50.53 805.02,-33.95 774.86,-22.63"/>
<polygon fill="#63b8ff" stroke="#63b8ff" points="775.8,-19.25 765.21,-19.02 773.35,-25.81 775.8,-19.25"/>
</a>
</g>
</g>
<!-- Node15&#45;&gt;Node3 -->
<g id="edge23_Node000015_Node000003" class="edge">
<title>Node15&#45;&gt;Node3</title>
<g id="a_edge23_Node000015_Node000003"><a xlink:title=" ">
<path fill="none" stroke="#63b8ff" d="M359.02,-192.19C364.09,-182.24 372.54,-165.53 379.5,-151 399.78,-108.67 396.81,-93.61 423.5,-55 430.8,-44.43 440.74,-34.14 449.33,-26.11"/>
<polygon fill="#63b8ff" stroke="#63b8ff" points="451.93,-28.48 457.01,-19.18 447.24,-23.28 451.93,-28.48"/>
</a>
</g>
</g>
<!-- Node16 -->
<g id="Node000016" class="node">
<title>Node16</title>
<g id="a_Node000016"><a xlink:href="QmlObjectListModel_8h.html" target="_top" xlink:title=" ">
<polygon fill="white" stroke="#666666" points="371,-145.5 246,-145.5 246,-126.5 371,-126.5 371,-145.5"/>
<text text-anchor="middle" x="308.5" y="-133.5" font-family="Helvetica,sans-Serif" font-size="10.00">QmlObjectListModel.h</text>
</a>
</g>
</g>
<!-- Node15&#45;&gt;Node16 -->
<g id="edge17_Node000015_Node000016" class="edge">
<title>Node15&#45;&gt;Node16</title>
<g id="a_edge17_Node000015_Node000016"><a xlink:title=" ">
<path fill="none" stroke="#63b8ff" d="M348.3,-192.37C341.27,-182.59 329.65,-166.42 320.77,-154.08"/>
<polygon fill="#63b8ff" stroke="#63b8ff" points="323.58,-151.98 314.9,-145.91 317.89,-156.07 323.58,-151.98"/>
</a>
</g>
</g>
<!-- Node20 -->
<g id="Node000020" class="node">
<title>Node20</title>
<g id="a_Node000020"><a xlink:title=" ">
<polygon fill="#e0e0e0" stroke="#999999" points="1931.5,-19 1839.5,-19 1839.5,0 1931.5,0 1931.5,-19"/>
<text text-anchor="middle" x="1885.5" y="-7" font-family="Helvetica,sans-Serif" font-size="10.00">QtCore/QObject</text>
</a>
</g>
</g>
<!-- Node15&#45;&gt;Node20 -->
<g id="edge24_Node000015_Node000020" class="edge">
<title>Node15&#45;&gt;Node20</title>
<g id="a_edge24_Node000015_Node000020"><a xlink:title=" ">
<path fill="none" stroke="#63b8ff" d="M418.59,-196C456.62,-193.13 505.79,-189.59 549.5,-187 890.16,-166.78 979.67,-205.83 1316.5,-151 1364.83,-143.13 1374.86,-132.3 1422.5,-121 1504.85,-101.46 1531.91,-118.81 1609.5,-85 1630.2,-75.98 1629.79,-63.99 1650.5,-55 1666.7,-47.97 1765.18,-30.63 1829.4,-19.79"/>
<polygon fill="#63b8ff" stroke="#63b8ff" points="1830.12,-23.21 1839.4,-18.1 1828.96,-16.31 1830.12,-23.21"/>
</a>
</g>
</g>
<!-- Node21 -->
<g id="Node000021" class="node">
<title>Node21</title>
<g id="a_Node000021"><a xlink:title=" ">
<polygon fill="#e0e0e0" stroke="#999999" points="127,-145.5 20,-145.5 20,-126.5 127,-126.5 127,-145.5"/>
<text text-anchor="middle" x="73.5" y="-133.5" font-family="Helvetica,sans-Serif" font-size="10.00">QtCore/QStringList</text>
</a>
</g>
</g>
<!-- Node15&#45;&gt;Node21 -->
<g id="edge25_Node000015_Node000021" class="edge">
<title>Node15&#45;&gt;Node21</title>
<g id="a_edge25_Node000015_Node000021"><a xlink:title=" ">
<path fill="none" stroke="#63b8ff" d="M316.89,-192.44C266.21,-180.89 175.98,-160.34 120.77,-147.77"/>
<polygon fill="#63b8ff" stroke="#63b8ff" points="121.41,-144.32 110.88,-145.51 119.86,-151.15 121.41,-144.32"/>
</a>
</g>
</g>
<!-- Node22 -->
<g id="Node000022" class="node">
<title>Node22</title>
<g id="a_Node000022"><a xlink:title=" ">
<polygon fill="#e0e0e0" stroke="#999999" points="227.5,-145.5 145.5,-145.5 145.5,-126.5 227.5,-126.5 227.5,-145.5"/>
<text text-anchor="middle" x="186.5" y="-133.5" font-family="Helvetica,sans-Serif" font-size="10.00">QtCore/QMap</text>
</a>
</g>
</g>
<!-- Node15&#45;&gt;Node22 -->
<g id="edge26_Node000015_Node000022" class="edge">
<title>Node15&#45;&gt;Node22</title>
<g id="a_edge26_Node000015_Node000022"><a xlink:title=" ">
<path fill="none" stroke="#63b8ff" d="M331.84,-192.37C302.7,-181.27 251.91,-161.92 218.75,-149.28"/>
<polygon fill="#63b8ff" stroke="#63b8ff" points="219.66,-145.89 209.07,-145.6 217.16,-152.43 219.66,-145.89"/>
</a>
</g>
</g>
<!-- Node16&#45;&gt;Node3 -->
<g id="edge22_Node000016_Node000003" class="edge">
<title>Node16&#45;&gt;Node3</title>
<g id="a_edge22_Node000016_Node000003"><a xlink:title=" ">
<path fill="none" stroke="#63b8ff" d="M315.21,-126.46C327.76,-110.86 356.21,-77.31 385.5,-55 401.98,-42.45 422.46,-31.33 438.83,-23.35"/>
<polygon fill="#63b8ff" stroke="#63b8ff" points="440.4,-26.48 447.93,-19.02 437.4,-20.15 440.4,-26.48"/>
</a>
</g>
</g>
<!-- Node17 -->
<g id="Node000017" class="node">
<title>Node17</title>
<g id="a_Node000017"><a xlink:href="ObjectListModelBase_8h.html" target="_top" xlink:title=" ">
<polygon fill="white" stroke="#666666" points="333.5,-79.5 205.5,-79.5 205.5,-60.5 333.5,-60.5 333.5,-79.5"/>
<text text-anchor="middle" x="269.5" y="-67.5" font-family="Helvetica,sans-Serif" font-size="10.00">ObjectListModelBase.h</text>
</a>
</g>
</g>
<!-- Node16&#45;&gt;Node17 -->
<g id="edge18_Node000016_Node000017" class="edge">
<title>Node16&#45;&gt;Node17</title>
<g id="a_edge18_Node000016_Node000017"><a xlink:title=" ">
<path fill="none" stroke="#63b8ff" d="M303.24,-126.37C297.4,-116.78 287.81,-101.05 280.35,-88.8"/>
<polygon fill="#63b8ff" stroke="#63b8ff" points="283.12,-86.62 274.93,-79.91 277.14,-90.27 283.12,-86.62"/>
</a>
</g>
</g>
<!-- Node17&#45;&gt;Node3 -->
<g id="edge20_Node000017_Node000003" class="edge">
<title>Node17&#45;&gt;Node3</title>
<g id="a_edge20_Node000017_Node000003"><a xlink:title=" ">
<path fill="none" stroke="#63b8ff" d="M298.29,-60.49C332.75,-50.31 390.59,-33.22 428.9,-21.9"/>
<polygon fill="#63b8ff" stroke="#63b8ff" points="430.08,-25.21 438.67,-19.02 428.09,-18.49 430.08,-25.21"/>
</a>
</g>
</g>
<!-- Node18 -->
<g id="Node000018" class="node">
<title>Node18</title>
<g id="a_Node000018"><a xlink:title=" ">
<polygon fill="#e0e0e0" stroke="#999999" points="356,-19 207,-19 207,0 356,0 356,-19"/>
<text text-anchor="middle" x="281.5" y="-7" font-family="Helvetica,sans-Serif" font-size="10.00">QtCore/QAbstractListModel</text>
</a>
</g>
</g>
<!-- Node17&#45;&gt;Node18 -->
<g id="edge19_Node000017_Node000018" class="edge">
<title>Node17&#45;&gt;Node18</title>
<g id="a_edge19_Node000017_Node000018"><a xlink:title=" ">
<path fill="none" stroke="#63b8ff" d="M271.27,-60.37C272.95,-52.16 275.54,-39.54 277.69,-29.05"/>
<polygon fill="#63b8ff" stroke="#63b8ff" points="281.14,-29.67 279.72,-19.17 274.28,-28.26 281.14,-29.67"/>
</a>
</g>
</g>
<!-- Node19 -->
<g id="Node000019" class="node">
<title>Node19</title>
<g id="a_Node000019"><a xlink:title=" ">
<polygon fill="#e0e0e0" stroke="#999999" points="189,-19 0,-19 0,0 189,0 189,-19"/>
<text text-anchor="middle" x="94.5" y="-7" font-family="Helvetica,sans-Serif" font-size="10.00">QtQmlIntegration/QtQmlIntegration</text>
</a>
</g>
</g>
<!-- Node17&#45;&gt;Node19 -->
<g id="edge21_Node000017_Node000019" class="edge">
<title>Node17&#45;&gt;Node19</title>
<g id="a_edge21_Node000017_Node000019"><a xlink:title=" ">
<path fill="none" stroke="#63b8ff" d="M244.05,-60.49C213.86,-50.4 163.34,-33.51 129.48,-22.19"/>
<polygon fill="#63b8ff" stroke="#63b8ff" points="130.57,-18.87 119.98,-19.02 128.35,-25.51 130.57,-18.87"/>
</a>
</g>
</g>
<!-- Node23&#45;&gt;Node12 -->
<g id="edge28_Node000023_Node000012" class="edge">
<title>Node23&#45;&gt;Node12</title>
<g id="a_edge28_Node000023_Node000012"><a xlink:title=" ">
<path fill="none" stroke="#63b8ff" d="M1603.5,-126.48C1593.51,-124.39 1582.63,-122.36 1572.5,-121 1313.89,-86.22 1245.87,-113.53 986.5,-85 974.37,-83.67 961.35,-81.82 949.15,-79.91"/>
<polygon fill="#63b8ff" stroke="#63b8ff" points="949.56,-76.43 939.13,-78.3 948.45,-83.35 949.56,-76.43"/>
</a>
</g>
</g>
<!-- Node23&#45;&gt;Node20 -->
<g id="edge29_Node000023_Node000020" class="edge">
<title>Node23&#45;&gt;Node20</title>
<g id="a_edge29_Node000023_Node000020"><a xlink:title=" ">
<path fill="none" stroke="#63b8ff" d="M1678.76,-126.46C1687.85,-124.57 1697.5,-122.65 1706.5,-121 1756.95,-111.75 1901.18,-124 1934.5,-85 1950.96,-65.74 1926.36,-40.67 1906.46,-25.08"/>
<polygon fill="#63b8ff" stroke="#63b8ff" points="1908.46,-22.2 1898.36,-19.02 1904.27,-27.81 1908.46,-22.2"/>
</a>
</g>
</g>
<!-- Node24 -->
<g id="Node000024" class="node">
<title>Node24</title>
<g id="a_Node000024"><a xlink:title=" ">
<polygon fill="#e0e0e0" stroke="#999999" points="1793.5,-79.5 1659.5,-79.5 1659.5,-60.5 1793.5,-60.5 1793.5,-79.5"/>
<text text-anchor="middle" x="1726.5" y="-67.5" font-family="Helvetica,sans-Serif" font-size="10.00">QtCore/QByteArrayView</text>
</a>
</g>
</g>
<!-- Node23&#45;&gt;Node24 -->
<g id="edge30_Node000023_Node000024" class="edge">
<title>Node23&#45;&gt;Node24</title>
<g id="a_edge30_Node000023_Node000024"><a xlink:title=" ">
<path fill="none" stroke="#63b8ff" d="M1651.23,-126.37C1665.37,-115.97 1689.36,-98.32 1706.45,-85.75"/>
<polygon fill="#63b8ff" stroke="#63b8ff" points="1708.69,-88.44 1714.67,-79.7 1704.55,-82.81 1708.69,-88.44"/>
</a>
</g>
</g>
<!-- Node25 -->
<g id="Node000025" class="node">
<title>Node25</title>
<g id="a_Node000025"><a xlink:title=" ">
<polygon fill="#e0e0e0" stroke="#999999" points="1925,-79.5 1812,-79.5 1812,-60.5 1925,-60.5 1925,-79.5"/>
<text text-anchor="middle" x="1868.5" y="-67.5" font-family="Helvetica,sans-Serif" font-size="10.00">QtCore/QStringView</text>
</a>
</g>
</g>
<!-- Node23&#45;&gt;Node25 -->
<g id="edge31_Node000023_Node000025" class="edge">
<title>Node23&#45;&gt;Node25</title>
<g id="a_edge31_Node000023_Node000025"><a xlink:title=" ">
<path fill="none" stroke="#63b8ff" d="M1670.38,-126.37C1711.13,-114.98 1782.94,-94.91 1828,-82.32"/>
<polygon fill="#63b8ff" stroke="#63b8ff" points="1829.05,-85.66 1837.74,-79.6 1827.17,-78.92 1829.05,-85.66"/>
</a>
</g>
</g>
<!-- Node26&#45;&gt;Node3 -->
<g id="edge33_Node000026_Node000003" class="edge">
<title>Node26&#45;&gt;Node3</title>
<g id="a_edge33_Node000026_Node000003"><a xlink:title=" ">
<path fill="none" stroke="#63b8ff" d="M936.23,-192.43C902.02,-184.31 852.13,-170.45 811.5,-151 790.15,-140.78 789.17,-130.52 767.5,-121 703.15,-92.72 679.51,-109.15 613.5,-85 567.88,-68.31 518.18,-40.75 490.13,-24.24"/>
<polygon fill="#63b8ff" stroke="#63b8ff" points="491.87,-21.2 481.48,-19.1 488.29,-27.22 491.87,-21.2"/>
</a>
</g>
</g>
<!-- Node26&#45;&gt;Node5 -->
<g id="edge36_Node000026_Node000005" class="edge">
<title>Node26&#45;&gt;Node5</title>
<g id="a_edge36_Node000026_Node000005"><a xlink:title=" ">
<path fill="none" stroke="#63b8ff" d="M936.62,-192.44C882.76,-180.87 786.79,-160.26 728.26,-147.69"/>
<polygon fill="#63b8ff" stroke="#63b8ff" points="728.66,-144.19 718.14,-145.51 727.19,-151.04 728.66,-144.19"/>
</a>
</g>
</g>
<!-- Node27 -->
<g id="Node000027" class="node">
<title>Node27</title>
<g id="a_Node000027"><a xlink:title=" ">
<polygon fill="#e0e0e0" stroke="#999999" points="1563.5,-151 1431.5,-151 1431.5,-121 1563.5,-121 1563.5,-151"/>
<text text-anchor="start" x="1439.5" y="-139" font-family="Helvetica,sans-Serif" font-size="10.00">QtLocation/private</text>
<text text-anchor="middle" x="1497.5" y="-128" font-family="Helvetica,sans-Serif" font-size="10.00">/qgeotiledmapreply_p.h</text>
</a>
</g>
</g>
<!-- Node26&#45;&gt;Node27 -->
<g id="edge34_Node000026_Node000027" class="edge">
<title>Node26&#45;&gt;Node27</title>
<g id="a_edge34_Node000026_Node000027"><a xlink:title=" ">
<path fill="none" stroke="#63b8ff" d="M1019.4,-192.45C1030.18,-190.48 1041.74,-188.52 1052.5,-187 1213.91,-164.21 1255.99,-173.07 1417.5,-151 1418.76,-150.83 1420.03,-150.65 1421.3,-150.47"/>
<polygon fill="#63b8ff" stroke="#63b8ff" points="1421.83,-153.93 1431.21,-149 1420.8,-147.01 1421.83,-153.93"/>
</a>
</g>
</g>
<!-- Node28 -->
<g id="Node000028" class="node">
<title>Node28</title>
<g id="a_Node000028"><a xlink:title=" ">
<polygon fill="#e0e0e0" stroke="#999999" points="1178,-19 1029,-19 1029,0 1178,0 1178,-19"/>
<text text-anchor="middle" x="1103.5" y="-7" font-family="Helvetica,sans-Serif" font-size="10.00">QtNetwork/QNetworkReply</text>
</a>
</g>
</g>
<!-- Node26&#45;&gt;Node28 -->
<g id="edge35_Node000026_Node000028" class="edge">
<title>Node26&#45;&gt;Node28</title>
<g id="a_edge35_Node000026_Node000028"><a xlink:title=" ">
<path fill="none" stroke="#63b8ff" d="M974.19,-192.36C968.22,-167.98 954.88,-97.66 986.5,-55 998.46,-38.87 1017.02,-28.59 1035.87,-22.03"/>
<polygon fill="#63b8ff" stroke="#63b8ff" points="1036.93,-25.36 1045.41,-19.02 1034.82,-18.69 1036.93,-25.36"/>
</a>
</g>
</g>
<!-- Node29 -->
<g id="Node000029" class="node">
<title>Node29</title>
<g id="a_Node000029"><a xlink:href="QGCMapTasks_8h.html" target="_top" xlink:title=" ">
<polygon fill="white" stroke="#666666" points="1307,-145.5 1212,-145.5 1212,-126.5 1307,-126.5 1307,-145.5"/>
<text text-anchor="middle" x="1259.5" y="-133.5" font-family="Helvetica,sans-Serif" font-size="10.00">QGCMapTasks.h</text>
</a>
</g>
</g>
<!-- Node26&#45;&gt;Node29 -->
<g id="edge37_Node000026_Node000029" class="edge">
<title>Node26&#45;&gt;Node29</title>
<g id="a_edge37_Node000026_Node000029"><a xlink:title=" ">
<path fill="none" stroke="#63b8ff" d="M1014.37,-192.44C1065.42,-180.89 1156.29,-160.34 1211.9,-147.77"/>
<polygon fill="#63b8ff" stroke="#63b8ff" points="1212.87,-151.13 1221.85,-145.51 1211.33,-144.31 1212.87,-151.13"/>
</a>
</g>
</g>
<!-- Node29&#45;&gt;Node11 -->
<g id="edge40_Node000029_Node000011" class="edge">
<title>Node29&#45;&gt;Node11</title>
<g id="a_edge40_Node000029_Node000011"><a xlink:title=" ">
<path fill="none" stroke="#63b8ff" d="M1258.19,-126.44C1255.16,-106.54 1247.56,-56.76 1243.38,-29.35"/>
<polygon fill="#63b8ff" stroke="#63b8ff" points="1246.78,-28.47 1241.82,-19.12 1239.86,-29.53 1246.78,-28.47"/>
</a>
</g>
</g>
<!-- Node29&#45;&gt;Node20 -->
<g id="edge38_Node000029_Node000020" class="edge">
<title>Node29&#45;&gt;Node20</title>
<g id="a_edge38_Node000029_Node000020"><a xlink:title=" ">
<path fill="none" stroke="#63b8ff" d="M1307.17,-130.08C1382.87,-121.83 1526.87,-104.21 1574.5,-85 1596.11,-76.29 1595.92,-63.79 1617.5,-55 1627.23,-51.04 1753.16,-31.05 1828.88,-19.25"/>
<polygon fill="#63b8ff" stroke="#63b8ff" points="1829.88,-22.64 1839.22,-17.64 1828.8,-15.72 1829.88,-22.64"/>
</a>
</g>
</g>
<!-- Node30 -->
<g id="Node000030" class="node">
<title>Node30</title>
<g id="a_Node000030"><a xlink:title=" ">
<polygon fill="#e0e0e0" stroke="#999999" points="1395.5,-19 1303.5,-19 1303.5,0 1395.5,0 1395.5,-19"/>
<text text-anchor="middle" x="1349.5" y="-7" font-family="Helvetica,sans-Serif" font-size="10.00">QtCore/QQueue</text>
</a>
</g>
</g>
<!-- Node29&#45;&gt;Node30 -->
<g id="edge39_Node000029_Node000030" class="edge">
<title>Node29&#45;&gt;Node30</title>
<g id="a_edge39_Node000029_Node000030"><a xlink:title=" ">
<path fill="none" stroke="#63b8ff" d="M1262.38,-126.44C1267.81,-111.09 1280.65,-78.31 1298.5,-55 1307.1,-43.77 1318.88,-33.27 1328.95,-25.29"/>
<polygon fill="#63b8ff" stroke="#63b8ff" points="1331.08,-28.07 1336.9,-19.22 1326.83,-22.51 1331.08,-28.07"/>
</a>
</g>
</g>
<!-- Node31 -->
<g id="Node000031" class="node">
<title>Node31</title>
<g id="a_Node000031"><a xlink:href="QGCCacheTile_8h.html" target="_top" xlink:title=" ">
<polygon fill="white" stroke="#666666" points="1091,-79.5 996,-79.5 996,-60.5 1091,-60.5 1091,-79.5"/>
<text text-anchor="middle" x="1043.5" y="-67.5" font-family="Helvetica,sans-Serif" font-size="10.00">QGCCacheTile.h</text>
</a>
</g>
</g>
<!-- Node29&#45;&gt;Node31 -->
<g id="edge41_Node000029_Node000031" class="edge">
<title>Node29&#45;&gt;Node31</title>
<g id="a_edge41_Node000029_Node000031"><a xlink:title=" ">
<path fill="none" stroke="#63b8ff" d="M1230.37,-126.37C1192.1,-115.03 1124.77,-95.08 1082.24,-82.48"/>
<polygon fill="#63b8ff" stroke="#63b8ff" points="1083.1,-79.08 1072.51,-79.6 1081.11,-85.79 1083.1,-79.08"/>
</a>
</g>
</g>
<!-- Node32 -->
<g id="Node000032" class="node">
<title>Node32</title>
<g id="a_Node000032"><a xlink:href="QGCCachedTileSet_8h.html" target="_top" xlink:title=" ">
<polygon fill="white" stroke="#666666" points="1424,-79.5 1307,-79.5 1307,-60.5 1424,-60.5 1424,-79.5"/>
<text text-anchor="middle" x="1365.5" y="-67.5" font-family="Helvetica,sans-Serif" font-size="10.00">QGCCachedTileSet.h</text>
</a>
</g>
</g>
<!-- Node29&#45;&gt;Node32 -->
<g id="edge45_Node000029_Node000032" class="edge">
<title>Node29&#45;&gt;Node32</title>
<g id="a_edge45_Node000029_Node000032"><a xlink:title=" ">
<path fill="none" stroke="#63b8ff" d="M1273.8,-126.37C1291.42,-115.73 1321.59,-97.51 1342.49,-84.89"/>
<polygon fill="#63b8ff" stroke="#63b8ff" points="1344.34,-87.86 1351.09,-79.7 1340.72,-81.87 1344.34,-87.86"/>
</a>
</g>
</g>
<!-- Node36 -->
<g id="Node000036" class="node">
<title>Node36</title>
<g id="a_Node000036"><a xlink:href="QGCTileCacheTypes_8h.html" target="_top" xlink:title=" ">
<polygon fill="white" stroke="#666666" points="1565,-79.5 1442,-79.5 1442,-60.5 1565,-60.5 1565,-79.5"/>
<text text-anchor="middle" x="1503.5" y="-67.5" font-family="Helvetica,sans-Serif" font-size="10.00">QGCTileCacheTypes.h</text>
</a>
</g>
</g>
<!-- Node29&#45;&gt;Node36 -->
<g id="edge54_Node000029_Node000036" class="edge">
<title>Node29&#45;&gt;Node36</title>
<g id="a_edge54_Node000029_Node000036"><a xlink:title=" ">
<path fill="none" stroke="#63b8ff" d="M1292.15,-126.44C1335.8,-114.99 1413.21,-94.68 1461.26,-82.08"/>
<polygon fill="#63b8ff" stroke="#63b8ff" points="1462.25,-85.44 1471.04,-79.51 1460.48,-78.67 1462.25,-85.44"/>
</a>
</g>
</g>
<!-- Node38 -->
<g id="Node000038" class="node">
<title>Node38</title>
<g id="a_Node000038"><a xlink:href="QGCTile_8h.html" target="_top" xlink:title=" ">
<polygon fill="white" stroke="#666666" points="1174,-79.5 1109,-79.5 1109,-60.5 1174,-60.5 1174,-79.5"/>
<text text-anchor="middle" x="1141.5" y="-67.5" font-family="Helvetica,sans-Serif" font-size="10.00">QGCTile.h</text>
</a>
</g>
</g>
<!-- Node29&#45;&gt;Node38 -->
<g id="edge57_Node000029_Node000038" class="edge">
<title>Node29&#45;&gt;Node38</title>
<g id="a_edge57_Node000029_Node000038"><a xlink:title=" ">
<path fill="none" stroke="#63b8ff" d="M1243.59,-126.37C1223.79,-115.63 1189.77,-97.18 1166.49,-84.55"/>
<polygon fill="#63b8ff" stroke="#63b8ff" points="1168,-81.39 1157.54,-79.7 1164.66,-87.54 1168,-81.39"/>
</a>
</g>
</g>
<!-- Node31&#45;&gt;Node10 -->
<g id="edge42_Node000031_Node000010" class="edge">
<title>Node31&#45;&gt;Node10</title>
<g id="a_edge42_Node000031_Node000010"><a xlink:title=" ">
<path fill="none" stroke="#63b8ff" d="M995.66,-61.94C980.28,-59.7 963.18,-57.22 947.5,-55 857.85,-42.31 754.17,-28.16 688.72,-19.3"/>
<polygon fill="#63b8ff" stroke="#63b8ff" points="688.93,-15.79 678.55,-17.92 687.99,-22.73 688.93,-15.79"/>
</a>
</g>
</g>
<!-- Node31&#45;&gt;Node11 -->
<g id="edge44_Node000031_Node000011" class="edge">
<title>Node31&#45;&gt;Node11</title>
<g id="a_edge44_Node000031_Node000011"><a xlink:title=" ">
<path fill="none" stroke="#63b8ff" d="M1072.15,-60.49C1106.43,-50.31 1163.98,-33.22 1202.1,-21.9"/>
<polygon fill="#63b8ff" stroke="#63b8ff" points="1203.23,-25.22 1211.82,-19.02 1201.24,-18.51 1203.23,-25.22"/>
</a>
</g>
</g>
<!-- Node31&#45;&gt;Node13 -->
<g id="edge43_Node000031_Node000013" class="edge">
<title>Node31&#45;&gt;Node13</title>
<g id="a_edge43_Node000031_Node000013"><a xlink:title=" ">
<path fill="none" stroke="#63b8ff" d="M1016.89,-60.49C985.31,-50.4 932.49,-33.51 897.08,-22.19"/>
<polygon fill="#63b8ff" stroke="#63b8ff" points="897.73,-18.73 887.14,-19.02 895.6,-25.4 897.73,-18.73"/>
</a>
</g>
</g>
<!-- Node32&#45;&gt;Node3 -->
<g id="edge48_Node000032_Node000003" class="edge">
<title>Node32&#45;&gt;Node3</title>
<g id="a_edge48_Node000032_Node000003"><a xlink:title=" ">
<path fill="none" stroke="#63b8ff" d="M1306.59,-64.21C1270.73,-61.37 1223.99,-57.79 1182.5,-55 905.77,-36.42 836.07,-39.76 559.5,-19 556.22,-18.75 552.88,-18.49 549.5,-18.22"/>
<polygon fill="#63b8ff" stroke="#63b8ff" points="549.55,-14.71 539.3,-17.37 548.98,-21.69 549.55,-14.71"/>
</a>
</g>
</g>
<!-- Node32&#45;&gt;Node11 -->
<g id="edge52_Node000032_Node000011" class="edge">
<title>Node32&#45;&gt;Node11</title>
<g id="a_edge52_Node000032_Node000011"><a xlink:title=" ">
<path fill="none" stroke="#63b8ff" d="M1347.32,-60.49C1326.49,-50.75 1292.13,-34.66 1268.02,-23.38"/>
<polygon fill="#63b8ff" stroke="#63b8ff" points="1269.24,-20.09 1258.7,-19.02 1266.27,-26.43 1269.24,-20.09"/>
</a>
</g>
</g>
<!-- Node32&#45;&gt;Node20 -->
<g id="edge50_Node000032_Node000020" class="edge">
<title>Node32&#45;&gt;Node20</title>
<g id="a_edge50_Node000032_Node000020"><a xlink:title=" ">
<path fill="none" stroke="#63b8ff" d="M1403.13,-60.46C1412.98,-58.45 1423.6,-56.46 1433.5,-55 1605.51,-29.58 1652.9,-40.13 1829.18,-19.08"/>
<polygon fill="#63b8ff" stroke="#63b8ff" points="1829.81,-22.53 1839.32,-17.85 1828.97,-15.58 1829.81,-22.53"/>
</a>
</g>
</g>
<!-- Node32&#45;&gt;Node28 -->
<g id="edge53_Node000032_Node000028" class="edge">
<title>Node32&#45;&gt;Node28</title>
<g id="a_edge53_Node000032_Node000028"><a xlink:title=" ">
<path fill="none" stroke="#63b8ff" d="M1327.4,-60.49C1280.93,-50.12 1202.32,-32.57 1151.69,-21.26"/>
<polygon fill="#63b8ff" stroke="#63b8ff" points="1152.17,-17.78 1141.64,-19.02 1150.64,-24.61 1152.17,-17.78"/>
</a>
</g>
</g>
<!-- Node32&#45;&gt;Node30 -->
<g id="edge51_Node000032_Node000030" class="edge">
<title>Node32&#45;&gt;Node30</title>
<g id="a_edge51_Node000032_Node000030"><a xlink:title=" ">
<path fill="none" stroke="#63b8ff" d="M1363.14,-60.37C1360.89,-52.16 1357.44,-39.54 1354.57,-29.05"/>
<polygon fill="#63b8ff" stroke="#63b8ff" points="1357.88,-27.89 1351.87,-19.17 1351.13,-29.74 1357.88,-27.89"/>
</a>
</g>
</g>
<!-- Node33 -->
<g id="Node000033" class="node">
<title>Node33</title>
<g id="a_Node000033"><a xlink:title=" ">
<polygon fill="#e0e0e0" stroke="#999999" points="1523,-19 1414,-19 1414,0 1523,0 1523,-19"/>
<text text-anchor="middle" x="1468.5" y="-7" font-family="Helvetica,sans-Serif" font-size="10.00">QtCore/QDateTime</text>
</a>
</g>
</g>
<!-- Node32&#45;&gt;Node33 -->
<g id="edge46_Node000032_Node000033" class="edge">
<title>Node32&#45;&gt;Node33</title>
<g id="a_edge46_Node000032_Node000033"><a xlink:title=" ">
<path fill="none" stroke="#63b8ff" d="M1380.7,-60.37C1397.51,-50.82 1424.82,-35.31 1444.52,-24.12"/>
<polygon fill="#63b8ff" stroke="#63b8ff" points="1446.27,-27.15 1453.24,-19.17 1442.82,-21.06 1446.27,-27.15"/>
</a>
</g>
</g>
<!-- Node34 -->
<g id="Node000034" class="node">
<title>Node34</title>
<g id="a_Node000034"><a xlink:title=" ">
<polygon fill="#e0e0e0" stroke="#999999" points="1627.5,-19 1541.5,-19 1541.5,0 1627.5,0 1627.5,-19"/>
<text text-anchor="middle" x="1584.5" y="-7" font-family="Helvetica,sans-Serif" font-size="10.00">QtCore/QHash</text>
</a>
</g>
</g>
<!-- Node32&#45;&gt;Node34 -->
<g id="edge47_Node000032_Node000034" class="edge">
<title>Node32&#45;&gt;Node34</title>
<g id="a_edge47_Node000032_Node000034"><a xlink:title=" ">
<path fill="none" stroke="#63b8ff" d="M1397.34,-60.49C1435.78,-50.23 1500.53,-32.93 1542.89,-21.62"/>
<polygon fill="#63b8ff" stroke="#63b8ff" points="1543.86,-24.98 1552.62,-19.02 1542.05,-18.22 1543.86,-24.98"/>
</a>
</g>
</g>
<!-- Node35 -->
<g id="Node000035" class="node">
<title>Node35</title>
<g id="a_Node000035"><a xlink:title=" ">
<polygon fill="#e0e0e0" stroke="#999999" points="1737.5,-19 1645.5,-19 1645.5,0 1737.5,0 1737.5,-19"/>
<text text-anchor="middle" x="1691.5" y="-7" font-family="Helvetica,sans-Serif" font-size="10.00">QtCore/QMutex</text>
</a>
</g>
</g>
<!-- Node32&#45;&gt;Node35 -->
<g id="edge49_Node000032_Node000035" class="edge">
<title>Node32&#45;&gt;Node35</title>
<g id="a_edge49_Node000032_Node000035"><a xlink:title=" ">
<path fill="none" stroke="#63b8ff" d="M1405.73,-60.49C1414.85,-58.63 1424.5,-56.7 1433.5,-55 1502.79,-41.89 1582.86,-28.33 1635.19,-19.67"/>
<polygon fill="#63b8ff" stroke="#63b8ff" points="1635.98,-23.09 1645.28,-18.01 1634.84,-16.19 1635.98,-23.09"/>
</a>
</g>
</g>
<!-- Node36&#45;&gt;Node11 -->
<g id="edge55_Node000036_Node000011" class="edge">
<title>Node36&#45;&gt;Node11</title>
<g id="a_edge55_Node000036_Node000011"><a xlink:title=" ">
<path fill="none" stroke="#63b8ff" d="M1465.26,-60.49C1418.51,-50.1 1339.37,-32.49 1288.56,-21.19"/>
<polygon fill="#63b8ff" stroke="#63b8ff" points="1289.31,-17.77 1278.79,-19.02 1287.79,-24.6 1289.31,-17.77"/>
</a>
</g>
</g>
<!-- Node37 -->
<g id="Node000037" class="node">
<title>Node37</title>
<g id="a_Node000037"><a xlink:title=" ">
<polygon fill="#e0e0e0" stroke="#999999" points="1821,-19 1756,-19 1756,0 1821,0 1821,-19"/>
<text text-anchor="middle" x="1788.5" y="-7" font-family="Helvetica,sans-Serif" font-size="10.00">functional</text>
</a>
</g>
</g>
<!-- Node36&#45;&gt;Node37 -->
<g id="edge56_Node000036_Node000037" class="edge">
<title>Node36&#45;&gt;Node37</title>
<g id="a_edge56_Node000036_Node000037"><a xlink:title=" ">
<path fill="none" stroke="#63b8ff" d="M1544.94,-60.49C1598.6,-49.48 1691.66,-30.38 1745.89,-19.25"/>
<polygon fill="#63b8ff" stroke="#63b8ff" points="1746.78,-22.64 1755.87,-17.2 1745.37,-15.78 1746.78,-22.64"/>
</a>
</g>
</g>
<!-- Node38&#45;&gt;Node11 -->
<g id="edge60_Node000038_Node000011" class="edge">
<title>Node38&#45;&gt;Node11</title>
<g id="a_edge60_Node000038_Node000011"><a xlink:title=" ">
<path fill="none" stroke="#63b8ff" d="M1156.11,-60.37C1172.19,-50.86 1198.28,-35.45 1217.2,-24.27"/>
<polygon fill="#63b8ff" stroke="#63b8ff" points="1219,-27.27 1225.83,-19.17 1215.44,-21.24 1219,-27.27"/>
</a>
</g>
</g>
<!-- Node38&#45;&gt;Node13 -->
<g id="edge59_Node000038_Node000013" class="edge">
<title>Node38&#45;&gt;Node13</title>
<g id="a_edge59_Node000038_Node000013"><a xlink:title=" ">
<path fill="none" stroke="#63b8ff" d="M1117.68,-60.43C1111.79,-58.48 1105.45,-56.54 1099.5,-55 1040.94,-39.87 973.05,-27.73 924.62,-19.98"/>
<polygon fill="#63b8ff" stroke="#63b8ff" points="925.02,-16.5 914.6,-18.39 923.93,-23.41 925.02,-16.5"/>
</a>
</g>
</g>
<!-- Node39 -->
<g id="Node000039" class="node">
<title>Node39</title>
<g id="a_Node000039"><a xlink:title=" ">
<polygon fill="#e0e0e0" stroke="#999999" points="1010.5,-19 932.5,-19 932.5,0 1010.5,0 1010.5,-19"/>
<text text-anchor="middle" x="971.5" y="-7" font-family="Helvetica,sans-Serif" font-size="10.00">QtCore/QList</text>
</a>
</g>
</g>
<!-- Node38&#45;&gt;Node39 -->
<g id="edge58_Node000038_Node000039" class="edge">
<title>Node38&#45;&gt;Node39</title>
<g id="a_edge58_Node000038_Node000039"><a xlink:title=" ">
<path fill="none" stroke="#63b8ff" d="M1116.78,-60.49C1087.57,-50.44 1038.8,-33.66 1005.91,-22.34"/>
<polygon fill="#63b8ff" stroke="#63b8ff" points="1006.84,-18.96 996.25,-19.02 1004.57,-25.58 1006.84,-18.96"/>
</a>
</g>
</g>
<!-- Node40&#45;&gt;Node3 -->
<g id="edge62_Node000040_Node000003" class="edge">
<title>Node40&#45;&gt;Node3</title>
<g id="a_edge62_Node000040_Node000003"><a xlink:title=" ">
<path fill="none" stroke="#63b8ff" d="M1093.71,-189.77C1000.41,-178.11 867.2,-160.29 844.5,-151 823.6,-142.45 824.07,-130.31 803.5,-121 736.31,-90.58 709.62,-113.27 641.5,-85 618.61,-75.5 616.79,-65.84 594.5,-55 566.49,-41.38 533.22,-29.88 507.75,-21.98"/>
<polygon fill="#63b8ff" stroke="#63b8ff" points="508.64,-18.6 498.06,-19.03 506.6,-25.29 508.64,-18.6"/>
</a>
</g>
</g>
<!-- Node40&#45;&gt;Node6 -->
<g id="edge64_Node000040_Node000006" class="edge">
<title>Node40&#45;&gt;Node6</title>
<g id="a_edge64_Node000040_Node000006"><a xlink:title=" ">
<path fill="none" stroke="#63b8ff" d="M1279.24,-188.36C1283.72,-187.87 1288.16,-187.41 1292.5,-187 1558.68,-161.58 1629.24,-175.6 1898.64,-151.13"/>
<polygon fill="#63b8ff" stroke="#63b8ff" points="1899.08,-154.61 1908.72,-150.21 1898.44,-147.64 1899.08,-154.61"/>
</a>
</g>
</g>
<!-- Node41 -->
<g id="Node000041" class="node">
<title>Node41</title>
<g id="a_Node000041"><a xlink:title=" ">
<polygon fill="#e0e0e0" stroke="#999999" points="1891.5,-145.5 1715.5,-145.5 1715.5,-126.5 1891.5,-126.5 1891.5,-145.5"/>
<text text-anchor="middle" x="1803.5" y="-133.5" font-family="Helvetica,sans-Serif" font-size="10.00">QtLocation/QGeoServiceProvider</text>
</a>
</g>
</g>
<!-- Node40&#45;&gt;Node41 -->
<g id="edge63_Node000040_Node000041" class="edge">
<title>Node40&#45;&gt;Node41</title>
<g id="a_edge63_Node000040_Node000041"><a xlink:title=" ">
<path fill="none" stroke="#63b8ff" d="M1279.25,-188.51C1283.73,-187.98 1288.16,-187.47 1292.5,-187 1476.1,-166.9 1523.03,-172.2 1706.5,-151 1716.81,-149.81 1727.72,-148.39 1738.35,-146.92"/>
<polygon fill="#63b8ff" stroke="#63b8ff" points="1739.01,-150.36 1748.43,-145.5 1738.04,-143.43 1739.01,-150.36"/>
</a>
</g>
</g>
</g>
</svg>

<g id="navigator" transform="translate(0 0)" fill="#404254">
  <rect fill="#f2f5e9" fill-opacity="0.5" stroke="#606060" stroke-width=".5" x="0" y="0" width="60" height="60"/>
  <use id="zoomplus" xlink:href="#zoomPlus" x="17" y="9" onmousedown="handleZoom(evt,'in')"/>
  <use id="zoomminus" xlink:href="#zoomMin" x="42" y="9" onmousedown="handleZoom(evt,'out')"/>
  <use id="reset" xlink:href="#resetDef" x="30" y="36" onmousedown="handleReset()"/>
   <use id="arrowup" xlink:href="#arrowUp" x="0" y="0" onmousedown="handlePan(0,-1)"/>
  <use id="arrowright" xlink:href="#arrowRight" x="0" y="0" onmousedown="handlePan(1,0)"/>
  <use id="arrowdown" xlink:href="#arrowDown" x="0" y="0" onmousedown="handlePan(0,1)"/>
  <use id="arrowleft" xlink:href="#arrowLeft" x="0" y="0" onmousedown="handlePan(-1,0)"/>
</g>
<svg viewBox="0 0 15 15" width="100%" height="30px" preserveAspectRatio="xMaxYMin meet">
 <g id="arrow_out" transform="scale(0.3 0.3)">
  <a xlink:href="QGeoTileFetcherQGC_8cpp__incl_org.svg" target="_base">
   <rect id="button" ry="5" rx="5" y="6" x="6" height="38" width="38"
        fill="#f2f5e9" fill-opacity="0.5" stroke="#606060" stroke-width="1.0"/>
   <path id="arrow"
     d="M 11.500037,31.436501 C 11.940474,20.09759 22.043105,11.32322 32.158766,21.979434 L 37.068811,17.246167 C 37.068811,17.246167 37.088388,32 37.088388,32 L 22.160133,31.978069 C 22.160133,31.978069 26.997745,27.140456 26.997745,27.140456 C 18.528582,18.264221 13.291696,25.230495 11.500037,31.436501 z"
     style="fill:#404040;"/>
  </a>
 </g>
</svg>

<style type='text/css'>
<![CDATA[
[data-mouse-over-selected='false'] { opacity: 0.7; }
[data-mouse-over-selected='true']  { opacity: 1.0; }
]]>
</style>
<script type="application/ecmascript"><![CDATA[
document.addEventListener('DOMContentLoaded', (event) => {
  highlightEdges();
  highlightAdjacentNodes();
});
]]></script>
</svg>
