<?xml version="1.0" encoding="UTF-8" standalone="no"?>
<!DOCTYPE svg PUBLIC "-//W3C//DTD SVG 1.1//EN"
 "http://www.w3.org/Graphics/SVG/1.1/DTD/svg11.dtd">
<!-- Generated by graphviz version 2.43.0 (0)
 -->
<!-- Title: src/QtLocationPlugin/QGeoTiledMappingManagerEngineQGC.h Pages: 1 -->
<svg width="723pt" height="126pt"
 viewBox="0.00 0.00 722.50 126.00" xmlns="http://www.w3.org/2000/svg" xmlns:xlink="http://www.w3.org/1999/xlink">
<g id="graph0" class="graph" transform="scale(1 1) rotate(0) translate(4 122)">
<title>src/QtLocationPlugin/QGeoTiledMappingManagerEngineQGC.h</title>
<!-- Node1 -->
<g id="Node000001" class="node">
<title>Node1</title>
<g id="a_Node000001"><a xlink:title=" ">
<polygon fill="#999999" stroke="#666666" points="456.5,-118 268.5,-118 268.5,-77 456.5,-77 456.5,-118"/>
<text text-anchor="start" x="276.5" y="-106" font-family="Helvetica,sans-Serif" font-size="10.00">src/QtLocationPlugin</text>
<text text-anchor="start" x="276.5" y="-95" font-family="Helvetica,sans-Serif" font-size="10.00">/QGeoTiledMappingManagerEngine</text>
<text text-anchor="middle" x="362.5" y="-84" font-family="Helvetica,sans-Serif" font-size="10.00">QGC.h</text>
</a>
</g>
</g>
<!-- Node2 -->
<g id="Node000002" class="node">
<title>Node2</title>
<g id="a_Node000002"><a xlink:href="QGeoServiceProviderPluginQGC_8cpp.html" target="_top" xlink:title=" ">
<polygon fill="white" stroke="#666666" points="195,-35.5 0,-35.5 0,-5.5 195,-5.5 195,-35.5"/>
<text text-anchor="start" x="8" y="-23.5" font-family="Helvetica,sans-Serif" font-size="10.00">src/QtLocationPlugin</text>
<text text-anchor="middle" x="97.5" y="-12.5" font-family="Helvetica,sans-Serif" font-size="10.00">/QGeoServiceProviderPluginQGC.cpp</text>
</a>
</g>
</g>
<!-- Node1&#45;&gt;Node2 -->
<g id="edge1_Node000001_Node000002" class="edge">
<title>Node1&#45;&gt;Node2</title>
<g id="a_edge1_Node000001_Node000002"><a xlink:title=" ">
<path fill="none" stroke="#63b8ff" d="M283.71,-74.2C239.48,-61.68 185.65,-46.45 147.26,-35.58"/>
<polygon fill="#63b8ff" stroke="#63b8ff" points="282.99,-77.63 293.57,-76.99 284.9,-70.9 282.99,-77.63"/>
</a>
</g>
</g>
<!-- Node3 -->
<g id="Node000003" class="node">
<title>Node3</title>
<g id="a_Node000003"><a xlink:href="QGeoTileFetcherQGC_8cpp.html" target="_top" xlink:title=" ">
<polygon fill="white" stroke="#666666" points="356,-35.5 213,-35.5 213,-5.5 356,-5.5 356,-35.5"/>
<text text-anchor="start" x="221" y="-23.5" font-family="Helvetica,sans-Serif" font-size="10.00">src/QtLocationPlugin</text>
<text text-anchor="middle" x="284.5" y="-12.5" font-family="Helvetica,sans-Serif" font-size="10.00">/QGeoTileFetcherQGC.cpp</text>
</a>
</g>
</g>
<!-- Node1&#45;&gt;Node3 -->
<g id="edge2_Node000001_Node000003" class="edge">
<title>Node1&#45;&gt;Node3</title>
<g id="a_edge2_Node000001_Node000003"><a xlink:title=" ">
<path fill="none" stroke="#63b8ff" d="M334.49,-69.57C322.65,-58.18 309.34,-45.39 299.44,-35.86"/>
<polygon fill="#63b8ff" stroke="#63b8ff" points="332.37,-72.39 342.01,-76.79 337.22,-67.34 332.37,-72.39"/>
</a>
</g>
</g>
<!-- Node4 -->
<g id="Node000004" class="node">
<title>Node4</title>
<g id="a_Node000004"><a xlink:href="QGeoTiledMapQGC_8cpp.html" target="_top" xlink:title=" ">
<polygon fill="white" stroke="#666666" points="508.5,-35.5 374.5,-35.5 374.5,-5.5 508.5,-5.5 508.5,-35.5"/>
<text text-anchor="start" x="382.5" y="-23.5" font-family="Helvetica,sans-Serif" font-size="10.00">src/QtLocationPlugin</text>
<text text-anchor="middle" x="441.5" y="-12.5" font-family="Helvetica,sans-Serif" font-size="10.00">/QGeoTiledMapQGC.cpp</text>
</a>
</g>
</g>
<!-- Node1&#45;&gt;Node4 -->
<g id="edge3_Node000001_Node000004" class="edge">
<title>Node1&#45;&gt;Node4</title>
<g id="a_edge3_Node000001_Node000004"><a xlink:title=" ">
<path fill="none" stroke="#63b8ff" d="M390.53,-69.89C402.6,-58.43 416.24,-45.48 426.37,-35.86"/>
<polygon fill="#63b8ff" stroke="#63b8ff" points="388.1,-67.37 383.26,-76.79 392.92,-72.45 388.1,-67.37"/>
</a>
</g>
</g>
<!-- Node5 -->
<g id="Node000005" class="node">
<title>Node5</title>
<g id="a_Node000005"><a xlink:href="QGeoTiledMappingManagerEngineQGC_8cpp.html" target="_top" xlink:title=" ">
<polygon fill="white" stroke="#666666" points="714.5,-41 526.5,-41 526.5,0 714.5,0 714.5,-41"/>
<text text-anchor="start" x="534.5" y="-29" font-family="Helvetica,sans-Serif" font-size="10.00">src/QtLocationPlugin</text>
<text text-anchor="start" x="534.5" y="-18" font-family="Helvetica,sans-Serif" font-size="10.00">/QGeoTiledMappingManagerEngine</text>
<text text-anchor="middle" x="620.5" y="-7" font-family="Helvetica,sans-Serif" font-size="10.00">QGC.cpp</text>
</a>
</g>
</g>
<!-- Node1&#45;&gt;Node5 -->
<g id="edge4_Node000001_Node000005" class="edge">
<title>Node1&#45;&gt;Node5</title>
<g id="a_edge4_Node000001_Node000005"><a xlink:title=" ">
<path fill="none" stroke="#63b8ff" d="M439.63,-74.08C475.78,-63.57 518.46,-51.16 553.28,-41.04"/>
<polygon fill="#63b8ff" stroke="#63b8ff" points="438.24,-70.84 429.61,-76.99 440.19,-77.56 438.24,-70.84"/>
</a>
</g>
</g>
</g>
</svg>
