<?xml version="1.0" encoding="UTF-8" standalone="no"?>
<!DOCTYPE svg PUBLIC "-//W3C//DTD SVG 1.1//EN"
 "http://www.w3.org/Graphics/SVG/1.1/DTD/svg11.dtd">
<!-- Generated by graphviz version 2.43.0 (0)
 -->
<!-- Title: src/Android/qtandroidserialport/qserialportinfo_android.cpp Pages: 1 -->
<!--zoomable 368 -->

<svg id="main" version="1.1" xmlns="http://www.w3.org/2000/svg" xmlns:xlink="http://www.w3.org/1999/xlink" xml:space="preserve" onload="init(evt)">
<style type="text/css"><![CDATA[
.node, .edge {opacity: 0.7;}
.node.selected, .edge.selected {opacity: 1;}
.edge:hover path { stroke: red; }
.edge:hover polygon { stroke: red; fill: red; }
]]></style>

<defs>
  <circle id="rim" cx="0" cy="0" r="7"/>
  <circle id="rim2" cx="0" cy="0" r="3.5"/>
  <g id="zoomPlus">
    <use xlink:href="#rim" fill="#404040"><set attributeName="fill" to="#808080" begin="zoomplus.mouseover" end="zoomplus.mouseout"/></use>
    <path d="M-4,0h8M0,-4v8" fill="none" stroke="white" stroke-width="1.5" pointer-events="none"/>
  </g>
  <g id="zoomMin">
    <use xlink:href="#rim" fill="#404040"><set attributeName="fill" to="#808080" begin="zoomminus.mouseover" end="zoomminus.mouseout"/></use>
    <path d="M-4,0h8" fill="none" stroke="white" stroke-width="1.5" pointer-events="none"/>
  </g>
  <g id="arrowUp" transform="translate(30 24)">
    <use xlink:href="#rim"/>
    <path pointer-events="none" fill="none" stroke="white" stroke-width="1.5" d="M0,-3.0v7 M-2.5,-0.5L0,-3.0L2.5,-0.5"/>
  </g>
  <g id="arrowRight" transform="rotate(90) translate(36 -43)">
    <use xlink:href="#rim"/>
    <path pointer-events="none" fill="none" stroke="white" stroke-width="1.5" d="M0,-3.0v7 M-2.5,-0.5L0,-3.0L2.5,-0.5"/>
  </g>
  <g id="arrowDown" transform="rotate(180) translate(-30 -48)">
    <use xlink:href="#rim"/>
    <path pointer-events="none" fill="none" stroke="white" stroke-width="1.5" d="M0,-3.0v7 M-2.5,-0.5L0,-3.0L2.5,-0.5"/>
  </g>
  <g id="arrowLeft" transform="rotate(270) translate(-36 17)">
    <use xlink:href="#rim"/>
    <path pointer-events="none" fill="none" stroke="white" stroke-width="1.5" d="M0,-3.0v7 M-2.5,-0.5L0,-3.0L2.5,-0.5"/>
  </g>
  <g id="resetDef">
    <use xlink:href="#rim2" fill="#404040"><set attributeName="fill" to="#808080" begin="reset.mouseover" end="reset.mouseout"/></use>
  </g>
</defs>
<script type="application/ecmascript">
var viewWidth = 1945;
var viewHeight = 368;
var sectionId = 'dynsection-0';
</script>
<script type="application/ecmascript" xlink:href="svg.min.js"/>
<svg id="graph" class="graph">
<g id="viewport">
<title>src/Android/qtandroidserialport/qserialportinfo_android.cpp</title>
<!-- Node1 -->
<g id="Node000001" class="node">
<title>Node1</title>
<g id="a_Node000001"><a xlink:title=" ">
<polygon fill="#999999" stroke="#666666" points="979.5,-360 812.5,-360 812.5,-330 979.5,-330 979.5,-360"/>
<text text-anchor="start" x="820.5" y="-348" font-family="Helvetica,sans-Serif" font-size="10.00">src/Android/qtandroidserialport</text>
<text text-anchor="middle" x="896" y="-337" font-family="Helvetica,sans-Serif" font-size="10.00">/qserialportinfo_android.cpp</text>
</a>
</g>
</g>
<!-- Node2 -->
<g id="Node000002" class="node">
<title>Node2</title>
<g id="a_Node000002"><a xlink:href="QGCLoggingCategory_8h.html" target="_top" xlink:title=" ">
<polygon fill="white" stroke="#666666" points="607,-239 479,-239 479,-220 607,-220 607,-239"/>
<text text-anchor="middle" x="543" y="-227" font-family="Helvetica,sans-Serif" font-size="10.00">QGCLoggingCategory.h</text>
</a>
</g>
</g>
<!-- Node1&#45;&gt;Node2 -->
<g id="edge1_Node000001_Node000002" class="edge">
<title>Node1&#45;&gt;Node2</title>
<g id="a_edge1_Node000001_Node000002"><a xlink:title=" ">
<path fill="none" stroke="#63b8ff" d="M839.87,-329.94C803.7,-320.54 755.79,-307.47 714,-294 664.21,-277.95 607.47,-256.17 573.49,-242.74"/>
<polygon fill="#63b8ff" stroke="#63b8ff" points="574.7,-239.46 564.12,-239.02 572.12,-245.97 574.7,-239.46"/>
</a>
</g>
</g>
<!-- Node11 -->
<g id="Node000011" class="node">
<title>Node11</title>
<g id="a_Node000011"><a xlink:title=" ">
<polygon fill="#e0e0e0" stroke="#999999" points="830.5,-294 723.5,-294 723.5,-275 830.5,-275 830.5,-294"/>
<text text-anchor="middle" x="777" y="-282" font-family="Helvetica,sans-Serif" font-size="10.00">QtCore/QStringList</text>
</a>
</g>
</g>
<!-- Node1&#45;&gt;Node11 -->
<g id="edge10_Node000001_Node000011" class="edge">
<title>Node1&#45;&gt;Node11</title>
<g id="a_edge10_Node000001_Node000011"><a xlink:title=" ">
<path fill="none" stroke="#63b8ff" d="M867.5,-329.99C848.09,-320.45 822.57,-307.9 803.58,-298.57"/>
<polygon fill="#63b8ff" stroke="#63b8ff" points="805.09,-295.41 794.57,-294.14 802,-301.69 805.09,-295.41"/>
</a>
</g>
</g>
<!-- Node12 -->
<g id="Node000012" class="node">
<title>Node12</title>
<g id="a_Node000012"><a xlink:href="AndroidSerial_8h.html" target="_top" xlink:title=" ">
<polygon fill="white" stroke="#666666" points="978.5,-239 887.5,-239 887.5,-220 978.5,-220 978.5,-239"/>
<text text-anchor="middle" x="933" y="-227" font-family="Helvetica,sans-Serif" font-size="10.00">AndroidSerial.h</text>
</a>
</g>
</g>
<!-- Node1&#45;&gt;Node12 -->
<g id="edge11_Node000001_Node000012" class="edge">
<title>Node1&#45;&gt;Node12</title>
<g id="a_edge11_Node000001_Node000012"><a xlink:title=" ">
<path fill="none" stroke="#63b8ff" d="M900.69,-329.63C907.37,-309.12 919.65,-271.47 926.99,-248.93"/>
<polygon fill="#63b8ff" stroke="#63b8ff" points="930.38,-249.82 930.15,-239.23 923.73,-247.65 930.38,-249.82"/>
</a>
</g>
</g>
<!-- Node23 -->
<g id="Node000023" class="node">
<title>Node23</title>
<g id="a_Node000023"><a xlink:href="qserialportinfo_8h.html" target="_top" xlink:title=" ">
<polygon fill="white" stroke="#666666" points="949.5,-184 852.5,-184 852.5,-165 949.5,-165 949.5,-184"/>
<text text-anchor="middle" x="901" y="-172" font-family="Helvetica,sans-Serif" font-size="10.00">qserialportinfo.h</text>
</a>
</g>
</g>
<!-- Node1&#45;&gt;Node23 -->
<g id="edge37_Node000001_Node000023" class="edge">
<title>Node1&#45;&gt;Node23</title>
<g id="a_edge37_Node000001_Node000023"><a xlink:title=" ">
<path fill="none" stroke="#63b8ff" d="M890.42,-329.7C882.13,-306.45 868.49,-259.1 878,-220 880.31,-210.51 885.02,-200.78 889.58,-192.85"/>
<polygon fill="#63b8ff" stroke="#63b8ff" points="892.64,-194.55 894.9,-184.2 886.68,-190.89 892.64,-194.55"/>
</a>
</g>
</g>
<!-- Node26 -->
<g id="Node000026" class="node">
<title>Node26</title>
<g id="a_Node000026"><a xlink:href="qserialport__p_8h.html" target="_top" xlink:title=" ">
<polygon fill="white" stroke="#666666" points="1254.5,-294 1165.5,-294 1165.5,-275 1254.5,-275 1254.5,-294"/>
<text text-anchor="middle" x="1210" y="-282" font-family="Helvetica,sans-Serif" font-size="10.00">qserialport_p.h</text>
</a>
</g>
</g>
<!-- Node1&#45;&gt;Node26 -->
<g id="edge28_Node000001_Node000026" class="edge">
<title>Node1&#45;&gt;Node26</title>
<g id="a_edge28_Node000001_Node000026"><a xlink:title=" ">
<path fill="none" stroke="#63b8ff" d="M971.21,-329.99C1028.02,-319.4 1104.66,-305.13 1155.62,-295.63"/>
<polygon fill="#63b8ff" stroke="#63b8ff" points="1156.27,-299.07 1165.46,-293.8 1154.98,-292.19 1156.27,-299.07"/>
</a>
</g>
</g>
<!-- Node32 -->
<g id="Node000032" class="node">
<title>Node32</title>
<g id="a_Node000032"><a xlink:href="qserialportinfo__p_8h.html" target="_top" xlink:title=" ">
<polygon fill="white" stroke="#666666" points="1815,-294 1707,-294 1707,-275 1815,-275 1815,-294"/>
<text text-anchor="middle" x="1761" y="-282" font-family="Helvetica,sans-Serif" font-size="10.00">qserialportinfo_p.h</text>
</a>
</g>
</g>
<!-- Node1&#45;&gt;Node32 -->
<g id="edge38_Node000001_Node000032" class="edge">
<title>Node1&#45;&gt;Node32</title>
<g id="a_edge38_Node000001_Node000032"><a xlink:title=" ">
<path fill="none" stroke="#63b8ff" d="M979.73,-338.34C1151.94,-326.69 1542.59,-300.27 1696.73,-289.85"/>
<polygon fill="#63b8ff" stroke="#63b8ff" points="1697.23,-293.32 1706.98,-289.15 1696.76,-286.34 1697.23,-293.32"/>
</a>
</g>
</g>
<!-- Node3 -->
<g id="Node000003" class="node">
<title>Node3</title>
<g id="a_Node000003"><a xlink:title=" ">
<polygon fill="#e0e0e0" stroke="#999999" points="86,-184 0,-184 0,-165 86,-165 86,-184"/>
<text text-anchor="middle" x="43" y="-172" font-family="Helvetica,sans-Serif" font-size="10.00">QtCore/QHash</text>
</a>
</g>
</g>
<!-- Node2&#45;&gt;Node3 -->
<g id="edge2_Node000002_Node000003" class="edge">
<title>Node2&#45;&gt;Node3</title>
<g id="a_edge2_Node000002_Node000003"><a xlink:title=" ">
<path fill="none" stroke="#63b8ff" d="M478.68,-223.39C393.58,-216.35 238.67,-202.54 96.33,-184.1"/>
<polygon fill="#63b8ff" stroke="#63b8ff" points="96.47,-180.59 86.1,-182.76 95.56,-187.53 96.47,-180.59"/>
</a>
</g>
</g>
<!-- Node4 -->
<g id="Node000004" class="node">
<title>Node4</title>
<g id="a_Node000004"><a xlink:title=" ">
<polygon fill="#e0e0e0" stroke="#999999" points="1110.5,-184 967.5,-184 967.5,-165 1110.5,-165 1110.5,-184"/>
<text text-anchor="middle" x="1039" y="-172" font-family="Helvetica,sans-Serif" font-size="10.00">QtCore/QLoggingCategory</text>
</a>
</g>
</g>
<!-- Node2&#45;&gt;Node4 -->
<g id="edge3_Node000002_Node000004" class="edge">
<title>Node2&#45;&gt;Node4</title>
<g id="a_edge3_Node000002_Node000004"><a xlink:title=" ">
<path fill="none" stroke="#63b8ff" d="M607.08,-221.65C696.62,-212.09 859.18,-194.71 957.31,-184.23"/>
<polygon fill="#63b8ff" stroke="#63b8ff" points="957.9,-187.69 967.48,-183.14 957.16,-180.73 957.9,-187.69"/>
</a>
</g>
</g>
<!-- Node5 -->
<g id="Node000005" class="node">
<title>Node5</title>
<g id="a_Node000005"><a xlink:title=" ">
<polygon fill="#e0e0e0" stroke="#999999" points="196,-184 104,-184 104,-165 196,-165 196,-184"/>
<text text-anchor="middle" x="150" y="-172" font-family="Helvetica,sans-Serif" font-size="10.00">QtCore/QObject</text>
</a>
</g>
</g>
<!-- Node2&#45;&gt;Node5 -->
<g id="edge4_Node000002_Node000005" class="edge">
<title>Node2&#45;&gt;Node5</title>
<g id="a_edge4_Node000002_Node000005"><a xlink:title=" ">
<path fill="none" stroke="#63b8ff" d="M478.77,-220.48C412.93,-212.16 307.29,-198.54 206.28,-184.16"/>
<polygon fill="#63b8ff" stroke="#63b8ff" points="206.6,-180.67 196.2,-182.72 205.61,-187.6 206.6,-180.67"/>
</a>
</g>
</g>
<!-- Node6 -->
<g id="Node000006" class="node">
<title>Node6</title>
<g id="a_Node000006"><a xlink:title=" ">
<polygon fill="#e0e0e0" stroke="#999999" points="348,-184 214,-184 214,-165 348,-165 348,-184"/>
<text text-anchor="middle" x="281" y="-172" font-family="Helvetica,sans-Serif" font-size="10.00">QtCore/QReadWriteLock</text>
</a>
</g>
</g>
<!-- Node2&#45;&gt;Node6 -->
<g id="edge5_Node000002_Node000006" class="edge">
<title>Node2&#45;&gt;Node6</title>
<g id="a_edge5_Node000002_Node000006"><a xlink:title=" ">
<path fill="none" stroke="#63b8ff" d="M500.91,-219.98C455.3,-210.76 382.48,-196.03 333.25,-186.07"/>
<polygon fill="#63b8ff" stroke="#63b8ff" points="333.92,-182.63 323.42,-184.08 332.53,-189.5 333.92,-182.63"/>
</a>
</g>
</g>
<!-- Node7 -->
<g id="Node000007" class="node">
<title>Node7</title>
<g id="a_Node000007"><a xlink:title=" ">
<polygon fill="#e0e0e0" stroke="#999999" points="443.5,-184 366.5,-184 366.5,-165 443.5,-165 443.5,-184"/>
<text text-anchor="middle" x="405" y="-172" font-family="Helvetica,sans-Serif" font-size="10.00">QtCore/QSet</text>
</a>
</g>
</g>
<!-- Node2&#45;&gt;Node7 -->
<g id="edge6_Node000002_Node000007" class="edge">
<title>Node2&#45;&gt;Node7</title>
<g id="a_edge6_Node000002_Node000007"><a xlink:title=" ">
<path fill="none" stroke="#63b8ff" d="M520.83,-219.98C498.23,-211.3 462.94,-197.75 437.25,-187.88"/>
<polygon fill="#63b8ff" stroke="#63b8ff" points="438.17,-184.49 427.58,-184.17 435.66,-191.02 438.17,-184.49"/>
</a>
</g>
</g>
<!-- Node8 -->
<g id="Node000008" class="node">
<title>Node8</title>
<g id="a_Node000008"><a xlink:title=" ">
<polygon fill="#e0e0e0" stroke="#999999" points="834.5,-184 745.5,-184 745.5,-165 834.5,-165 834.5,-184"/>
<text text-anchor="middle" x="790" y="-172" font-family="Helvetica,sans-Serif" font-size="10.00">QtCore/QString</text>
</a>
</g>
</g>
<!-- Node2&#45;&gt;Node8 -->
<g id="edge7_Node000002_Node000008" class="edge">
<title>Node2&#45;&gt;Node8</title>
<g id="a_edge7_Node000002_Node000008"><a xlink:title=" ">
<path fill="none" stroke="#63b8ff" d="M582.68,-219.98C625.5,-210.8 693.76,-196.15 740.16,-186.19"/>
<polygon fill="#63b8ff" stroke="#63b8ff" points="740.96,-189.6 750,-184.08 739.49,-182.76 740.96,-189.6"/>
</a>
</g>
</g>
<!-- Node9 -->
<g id="Node000009" class="node">
<title>Node9</title>
<g id="a_Node000009"><a xlink:title=" ">
<polygon fill="#e0e0e0" stroke="#999999" points="624.5,-184 461.5,-184 461.5,-165 624.5,-165 624.5,-184"/>
<text text-anchor="middle" x="543" y="-172" font-family="Helvetica,sans-Serif" font-size="10.00">QtCore/QSortFilterProxyModel</text>
</a>
</g>
</g>
<!-- Node2&#45;&gt;Node9 -->
<g id="edge8_Node000002_Node000009" class="edge">
<title>Node2&#45;&gt;Node9</title>
<g id="a_edge8_Node000002_Node000009"><a xlink:title=" ">
<path fill="none" stroke="#63b8ff" d="M543,-219.75C543,-212.8 543,-202.85 543,-194.13"/>
<polygon fill="#63b8ff" stroke="#63b8ff" points="546.5,-194.09 543,-184.09 539.5,-194.09 546.5,-194.09"/>
</a>
</g>
</g>
<!-- Node10 -->
<g id="Node000010" class="node">
<title>Node10</title>
<g id="a_Node000010"><a xlink:title=" ">
<polygon fill="#e0e0e0" stroke="#999999" points="727.5,-184 642.5,-184 642.5,-165 727.5,-165 727.5,-184"/>
<text text-anchor="middle" x="685" y="-172" font-family="Helvetica,sans-Serif" font-size="10.00">QtQml/qqml.h</text>
</a>
</g>
</g>
<!-- Node2&#45;&gt;Node10 -->
<g id="edge9_Node000002_Node000010" class="edge">
<title>Node2&#45;&gt;Node10</title>
<g id="a_edge9_Node000002_Node000010"><a xlink:title=" ">
<path fill="none" stroke="#63b8ff" d="M565.81,-219.98C589.17,-211.27 625.7,-197.63 652.17,-187.75"/>
<polygon fill="#63b8ff" stroke="#63b8ff" points="653.63,-190.95 661.77,-184.17 651.18,-184.39 653.63,-190.95"/>
</a>
</g>
</g>
<!-- Node12&#45;&gt;Node4 -->
<g id="edge13_Node000012_Node000004" class="edge">
<title>Node12&#45;&gt;Node4</title>
<g id="a_edge13_Node000012_Node000004"><a xlink:title=" ">
<path fill="none" stroke="#63b8ff" d="M950.03,-219.98C966.93,-211.54 993.06,-198.47 1012.64,-188.68"/>
<polygon fill="#63b8ff" stroke="#63b8ff" points="1014.28,-191.77 1021.66,-184.17 1011.15,-185.51 1014.28,-191.77"/>
</a>
</g>
</g>
<!-- Node12&#45;&gt;Node8 -->
<g id="edge14_Node000012_Node000008" class="edge">
<title>Node12&#45;&gt;Node8</title>
<g id="a_edge14_Node000012_Node000008"><a xlink:title=" ">
<path fill="none" stroke="#63b8ff" d="M910.02,-219.98C886.5,-211.27 849.71,-197.63 823.06,-187.75"/>
<polygon fill="#63b8ff" stroke="#63b8ff" points="823.99,-184.36 813.39,-184.17 821.55,-190.93 823.99,-184.36"/>
</a>
</g>
</g>
<!-- Node13 -->
<g id="Node000013" class="node">
<title>Node13</title>
<g id="a_Node000013"><a xlink:title=" ">
<polygon fill="#e0e0e0" stroke="#999999" points="1239,-184 1129,-184 1129,-165 1239,-165 1239,-184"/>
<text text-anchor="middle" x="1184" y="-172" font-family="Helvetica,sans-Serif" font-size="10.00">QtCore/QByteArray</text>
</a>
</g>
</g>
<!-- Node12&#45;&gt;Node13 -->
<g id="edge12_Node000012_Node000013" class="edge">
<title>Node12&#45;&gt;Node13</title>
<g id="a_edge12_Node000012_Node000013"><a xlink:title=" ">
<path fill="none" stroke="#63b8ff" d="M973.33,-219.98C1016.84,-210.8 1086.2,-196.15 1133.35,-186.19"/>
<polygon fill="#63b8ff" stroke="#63b8ff" points="1134.3,-189.57 1143.36,-184.08 1132.85,-182.72 1134.3,-189.57"/>
</a>
</g>
</g>
<!-- Node14 -->
<g id="Node000014" class="node">
<title>Node14</title>
<g id="a_Node000014"><a xlink:href="qserialport_8h.html" target="_top" xlink:title=" ">
<polygon fill="white" stroke="#666666" points="1427,-184 1349,-184 1349,-165 1427,-165 1427,-184"/>
<text text-anchor="middle" x="1388" y="-172" font-family="Helvetica,sans-Serif" font-size="10.00">qserialport.h</text>
</a>
</g>
</g>
<!-- Node12&#45;&gt;Node14 -->
<g id="edge15_Node000012_Node000014" class="edge">
<title>Node12&#45;&gt;Node14</title>
<g id="a_edge15_Node000012_Node000014"><a xlink:title=" ">
<path fill="none" stroke="#63b8ff" d="M978.71,-223.18C1064.77,-213.15 1250.14,-191.56 1338.81,-181.23"/>
<polygon fill="#63b8ff" stroke="#63b8ff" points="1339.34,-184.69 1348.87,-180.06 1338.53,-177.74 1339.34,-184.69"/>
</a>
</g>
</g>
<!-- Node12&#45;&gt;Node23 -->
<g id="edge24_Node000012_Node000023" class="edge">
<title>Node12&#45;&gt;Node23</title>
<g id="a_edge24_Node000012_Node000023"><a xlink:title=" ">
<path fill="none" stroke="#63b8ff" d="M927.72,-219.75C923.29,-212.42 916.84,-201.73 911.38,-192.7"/>
<polygon fill="#63b8ff" stroke="#63b8ff" points="914.35,-190.84 906.19,-184.09 908.36,-194.46 914.35,-190.84"/>
</a>
</g>
</g>
<!-- Node15 -->
<g id="Node000015" class="node">
<title>Node15</title>
<g id="a_Node000015"><a xlink:title=" ">
<polygon fill="#e0e0e0" stroke="#999999" points="1506,-129 1396,-129 1396,-110 1506,-110 1506,-129"/>
<text text-anchor="middle" x="1451" y="-117" font-family="Helvetica,sans-Serif" font-size="10.00">QtCore/qiodevice.h</text>
</a>
</g>
</g>
<!-- Node14&#45;&gt;Node15 -->
<g id="edge16_Node000014_Node000015" class="edge">
<title>Node14&#45;&gt;Node15</title>
<g id="a_edge16_Node000014_Node000015"><a xlink:title=" ">
<path fill="none" stroke="#63b8ff" d="M1398.12,-164.98C1407.44,-157.15 1421.47,-145.34 1432.74,-135.86"/>
<polygon fill="#63b8ff" stroke="#63b8ff" points="1435.29,-138.29 1440.69,-129.17 1430.79,-132.93 1435.29,-138.29"/>
</a>
</g>
</g>
<!-- Node16 -->
<g id="Node000016" class="node">
<title>Node16</title>
<g id="a_Node000016"><a xlink:href="qserialportglobal_8h.html" target="_top" xlink:title=" ">
<polygon fill="white" stroke="#666666" points="1378,-129 1270,-129 1270,-110 1378,-110 1378,-129"/>
<text text-anchor="middle" x="1324" y="-117" font-family="Helvetica,sans-Serif" font-size="10.00">qserialportglobal.h</text>
</a>
</g>
</g>
<!-- Node14&#45;&gt;Node16 -->
<g id="edge17_Node000014_Node000016" class="edge">
<title>Node14&#45;&gt;Node16</title>
<g id="a_edge17_Node000014_Node000016"><a xlink:title=" ">
<path fill="none" stroke="#63b8ff" d="M1377.72,-164.98C1368.16,-157.07 1353.72,-145.11 1342.22,-135.58"/>
<polygon fill="#63b8ff" stroke="#63b8ff" points="1344.4,-132.85 1334.47,-129.17 1339.94,-138.24 1344.4,-132.85"/>
</a>
</g>
</g>
<!-- Node17 -->
<g id="Node000017" class="node">
<title>Node17</title>
<g id="a_Node000017"><a xlink:title=" ">
<polygon fill="#e0e0e0" stroke="#999999" points="1676,-74 1580,-74 1580,-55 1676,-55 1676,-74"/>
<text text-anchor="middle" x="1628" y="-62" font-family="Helvetica,sans-Serif" font-size="10.00">QtCore/qstring.h</text>
</a>
</g>
</g>
<!-- Node16&#45;&gt;Node17 -->
<g id="edge18_Node000016_Node000017" class="edge">
<title>Node16&#45;&gt;Node17</title>
<g id="a_edge18_Node000016_Node000017"><a xlink:title=" ">
<path fill="none" stroke="#63b8ff" d="M1372.84,-109.98C1426.52,-100.63 1512.69,-85.6 1569.82,-75.64"/>
<polygon fill="#63b8ff" stroke="#63b8ff" points="1570.53,-79.07 1579.78,-73.91 1569.33,-72.18 1570.53,-79.07"/>
</a>
</g>
</g>
<!-- Node18 -->
<g id="Node000018" class="node">
<title>Node18</title>
<g id="a_Node000018"><a xlink:title=" ">
<polygon fill="#e0e0e0" stroke="#999999" points="1415,-74 1317,-74 1317,-55 1415,-55 1415,-74"/>
<text text-anchor="middle" x="1366" y="-62" font-family="Helvetica,sans-Serif" font-size="10.00">QtCore/qglobal.h</text>
</a>
</g>
</g>
<!-- Node16&#45;&gt;Node18 -->
<g id="edge19_Node000016_Node000018" class="edge">
<title>Node16&#45;&gt;Node18</title>
<g id="a_edge19_Node000016_Node000018"><a xlink:title=" ">
<path fill="none" stroke="#63b8ff" d="M1330.94,-109.75C1336.87,-102.26 1345.57,-91.28 1352.82,-82.13"/>
<polygon fill="#63b8ff" stroke="#63b8ff" points="1355.73,-84.1 1359.19,-74.09 1350.24,-79.75 1355.73,-84.1"/>
</a>
</g>
</g>
<!-- Node19 -->
<g id="Node000019" class="node">
<title>Node19</title>
<g id="a_Node000019"><a xlink:href="qtserialportexports_8h.html" target="_top" xlink:title=" ">
<polygon fill="white" stroke="#666666" points="1298.5,-74 1179.5,-74 1179.5,-55 1298.5,-55 1298.5,-74"/>
<text text-anchor="middle" x="1239" y="-62" font-family="Helvetica,sans-Serif" font-size="10.00">qtserialportexports.h</text>
</a>
</g>
</g>
<!-- Node16&#45;&gt;Node19 -->
<g id="edge20_Node000016_Node000019" class="edge">
<title>Node16&#45;&gt;Node19</title>
<g id="a_edge20_Node000016_Node000019"><a xlink:title=" ">
<path fill="none" stroke="#63b8ff" d="M1310.34,-109.98C1297.16,-101.77 1276.97,-89.18 1261.43,-79.49"/>
<polygon fill="#63b8ff" stroke="#63b8ff" points="1263.24,-76.49 1252.91,-74.17 1259.54,-82.43 1263.24,-76.49"/>
</a>
</g>
</g>
<!-- Node20 -->
<g id="Node000020" class="node">
<title>Node20</title>
<g id="a_Node000020"><a xlink:title=" ">
<polygon fill="#e0e0e0" stroke="#999999" points="1152.5,-19 995.5,-19 995.5,0 1152.5,0 1152.5,-19"/>
<text text-anchor="middle" x="1074" y="-7" font-family="Helvetica,sans-Serif" font-size="10.00">QtCore/qcompilerdetection.h</text>
</a>
</g>
</g>
<!-- Node19&#45;&gt;Node20 -->
<g id="edge21_Node000019_Node000020" class="edge">
<title>Node19&#45;&gt;Node20</title>
<g id="a_edge21_Node000019_Node000020"><a xlink:title=" ">
<path fill="none" stroke="#63b8ff" d="M1212.49,-54.98C1184.79,-46.09 1141.14,-32.07 1110.26,-22.15"/>
<polygon fill="#63b8ff" stroke="#63b8ff" points="1111.31,-18.81 1100.72,-19.08 1109.17,-25.47 1111.31,-18.81"/>
</a>
</g>
</g>
<!-- Node21 -->
<g id="Node000021" class="node">
<title>Node21</title>
<g id="a_Node000021"><a xlink:title=" ">
<polygon fill="#e0e0e0" stroke="#999999" points="1307.5,-19 1170.5,-19 1170.5,0 1307.5,0 1307.5,-19"/>
<text text-anchor="middle" x="1239" y="-7" font-family="Helvetica,sans-Serif" font-size="10.00">QtCore/qtconfigmacros.h</text>
</a>
</g>
</g>
<!-- Node19&#45;&gt;Node21 -->
<g id="edge22_Node000019_Node000021" class="edge">
<title>Node19&#45;&gt;Node21</title>
<g id="a_edge22_Node000019_Node000021"><a xlink:title=" ">
<path fill="none" stroke="#63b8ff" d="M1239,-54.75C1239,-47.8 1239,-37.85 1239,-29.13"/>
<polygon fill="#63b8ff" stroke="#63b8ff" points="1242.5,-29.09 1239,-19.09 1235.5,-29.09 1242.5,-29.09"/>
</a>
</g>
</g>
<!-- Node22 -->
<g id="Node000022" class="node">
<title>Node22</title>
<g id="a_Node000022"><a xlink:title=" ">
<polygon fill="#e0e0e0" stroke="#999999" points="1496,-19 1326,-19 1326,0 1496,0 1496,-19"/>
<text text-anchor="middle" x="1411" y="-7" font-family="Helvetica,sans-Serif" font-size="10.00">QtCore/qtdeprecationmarkers.h</text>
</a>
</g>
</g>
<!-- Node19&#45;&gt;Node22 -->
<g id="edge23_Node000019_Node000022" class="edge">
<title>Node19&#45;&gt;Node22</title>
<g id="a_edge23_Node000019_Node000022"><a xlink:title=" ">
<path fill="none" stroke="#63b8ff" d="M1266.63,-54.98C1295.51,-46.09 1341.01,-32.07 1373.2,-22.15"/>
<polygon fill="#63b8ff" stroke="#63b8ff" points="1374.62,-25.37 1383.15,-19.08 1372.56,-18.68 1374.62,-25.37"/>
</a>
</g>
</g>
<!-- Node23&#45;&gt;Node16 -->
<g id="edge27_Node000023_Node000016" class="edge">
<title>Node23&#45;&gt;Node16</title>
<g id="a_edge27_Node000023_Node000016"><a xlink:title=" ">
<path fill="none" stroke="#63b8ff" d="M949.81,-166.13C952.58,-165.74 955.32,-165.36 958,-165 1063.72,-150.69 1186.91,-136.15 1260.01,-127.75"/>
<polygon fill="#63b8ff" stroke="#63b8ff" points="1260.45,-131.22 1269.99,-126.6 1259.66,-124.27 1260.45,-131.22"/>
</a>
</g>
</g>
<!-- Node24 -->
<g id="Node000024" class="node">
<title>Node24</title>
<g id="a_Node000024"><a xlink:title=" ">
<polygon fill="#e0e0e0" stroke="#999999" points="1006.5,-129 923.5,-129 923.5,-110 1006.5,-110 1006.5,-129"/>
<text text-anchor="middle" x="965" y="-117" font-family="Helvetica,sans-Serif" font-size="10.00">QtCore/qlist.h</text>
</a>
</g>
</g>
<!-- Node23&#45;&gt;Node24 -->
<g id="edge25_Node000023_Node000024" class="edge">
<title>Node23&#45;&gt;Node24</title>
<g id="a_edge25_Node000023_Node000024"><a xlink:title=" ">
<path fill="none" stroke="#63b8ff" d="M911.28,-164.98C920.84,-157.07 935.28,-145.11 946.78,-135.58"/>
<polygon fill="#63b8ff" stroke="#63b8ff" points="949.06,-138.24 954.53,-129.17 944.6,-132.85 949.06,-138.24"/>
</a>
</g>
</g>
<!-- Node25 -->
<g id="Node000025" class="node">
<title>Node25</title>
<g id="a_Node000025"><a xlink:title=" ">
<polygon fill="#e0e0e0" stroke="#999999" points="905.5,-129 768.5,-129 768.5,-110 905.5,-110 905.5,-129"/>
<text text-anchor="middle" x="837" y="-117" font-family="Helvetica,sans-Serif" font-size="10.00">QtCore/qscopedpointer.h</text>
</a>
</g>
</g>
<!-- Node23&#45;&gt;Node25 -->
<g id="edge26_Node000023_Node000025" class="edge">
<title>Node23&#45;&gt;Node25</title>
<g id="a_edge26_Node000023_Node000025"><a xlink:title=" ">
<path fill="none" stroke="#63b8ff" d="M890.72,-164.98C881.16,-157.07 866.72,-145.11 855.22,-135.58"/>
<polygon fill="#63b8ff" stroke="#63b8ff" points="857.4,-132.85 847.47,-129.17 852.94,-138.24 857.4,-132.85"/>
</a>
</g>
</g>
<!-- Node26&#45;&gt;Node4 -->
<g id="edge29_Node000026_Node000004" class="edge">
<title>Node26&#45;&gt;Node4</title>
<g id="a_edge29_Node000026_Node000004"><a xlink:title=" ">
<path fill="none" stroke="#63b8ff" d="M1165.34,-278.98C1116.54,-273.01 1043.02,-260.63 1026,-239 1015.81,-226.05 1021.53,-207.13 1028.3,-193.32"/>
<polygon fill="#63b8ff" stroke="#63b8ff" points="1031.49,-194.77 1033.19,-184.32 1025.34,-191.43 1031.49,-194.77"/>
</a>
</g>
</g>
<!-- Node26&#45;&gt;Node12 -->
<g id="edge35_Node000026_Node000012" class="edge">
<title>Node26&#45;&gt;Node12</title>
<g id="a_edge35_Node000026_Node000012"><a xlink:title=" ">
<path fill="none" stroke="#63b8ff" d="M1165.5,-274.98C1117.18,-265.74 1039.96,-250.97 987.91,-241.01"/>
<polygon fill="#63b8ff" stroke="#63b8ff" points="988.33,-237.52 977.85,-239.08 987.02,-244.4 988.33,-237.52"/>
</a>
</g>
</g>
<!-- Node26&#45;&gt;Node14 -->
<g id="edge36_Node000026_Node000014" class="edge">
<title>Node26&#45;&gt;Node14</title>
<g id="a_edge36_Node000026_Node000014"><a xlink:title=" ">
<path fill="none" stroke="#63b8ff" d="M1254.67,-282.18C1319.38,-279.22 1434.31,-269.67 1460,-239 1476.59,-219.2 1446.71,-200.1 1420.54,-188.11"/>
<polygon fill="#63b8ff" stroke="#63b8ff" points="1421.73,-184.81 1411.16,-184.03 1418.93,-191.23 1421.73,-184.81"/>
</a>
</g>
</g>
<!-- Node27 -->
<g id="Node000027" class="node">
<title>Node27</title>
<g id="a_Node000027"><a xlink:title=" ">
<polygon fill="#e0e0e0" stroke="#999999" points="1127,-239 1035,-239 1035,-220 1127,-220 1127,-239"/>
<text text-anchor="middle" x="1081" y="-227" font-family="Helvetica,sans-Serif" font-size="10.00">QtCore/QMutex</text>
</a>
</g>
</g>
<!-- Node26&#45;&gt;Node27 -->
<g id="edge30_Node000026_Node000027" class="edge">
<title>Node26&#45;&gt;Node27</title>
<g id="a_edge30_Node000026_Node000027"><a xlink:title=" ">
<path fill="none" stroke="#63b8ff" d="M1189.27,-274.98C1168.24,-266.34 1135.45,-252.87 1111.46,-243.02"/>
<polygon fill="#63b8ff" stroke="#63b8ff" points="1112.68,-239.73 1102.1,-239.17 1110.02,-246.21 1112.68,-239.73"/>
</a>
</g>
</g>
<!-- Node28 -->
<g id="Node000028" class="node">
<title>Node28</title>
<g id="a_Node000028"><a xlink:title=" ">
<polygon fill="#e0e0e0" stroke="#999999" points="1274.5,-239 1145.5,-239 1145.5,-220 1274.5,-220 1274.5,-239"/>
<text text-anchor="middle" x="1210" y="-227" font-family="Helvetica,sans-Serif" font-size="10.00">QtCore/QWaitCondition</text>
</a>
</g>
</g>
<!-- Node26&#45;&gt;Node28 -->
<g id="edge31_Node000026_Node000028" class="edge">
<title>Node26&#45;&gt;Node28</title>
<g id="a_edge31_Node000026_Node000028"><a xlink:title=" ">
<path fill="none" stroke="#63b8ff" d="M1210,-274.75C1210,-267.8 1210,-257.85 1210,-249.13"/>
<polygon fill="#63b8ff" stroke="#63b8ff" points="1213.5,-249.09 1210,-239.09 1206.5,-249.09 1213.5,-249.09"/>
</a>
</g>
</g>
<!-- Node29 -->
<g id="Node000029" class="node">
<title>Node29</title>
<g id="a_Node000029"><a xlink:title=" ">
<polygon fill="#e0e0e0" stroke="#999999" points="1451,-239 1293,-239 1293,-220 1451,-220 1451,-239"/>
<text text-anchor="middle" x="1372" y="-227" font-family="Helvetica,sans-Serif" font-size="10.00">QtCore/private/qiodevice_p.h</text>
</a>
</g>
</g>
<!-- Node26&#45;&gt;Node29 -->
<g id="edge32_Node000026_Node000029" class="edge">
<title>Node26&#45;&gt;Node29</title>
<g id="a_edge32_Node000026_Node000029"><a xlink:title=" ">
<path fill="none" stroke="#63b8ff" d="M1236.03,-274.98C1263.11,-266.13 1305.71,-252.19 1336.01,-242.28"/>
<polygon fill="#63b8ff" stroke="#63b8ff" points="1337.35,-245.52 1345.77,-239.08 1335.18,-238.87 1337.35,-245.52"/>
</a>
</g>
</g>
<!-- Node30 -->
<g id="Node000030" class="node">
<title>Node30</title>
<g id="a_Node000030"><a xlink:title=" ">
<polygon fill="#e0e0e0" stroke="#999999" points="1665,-239 1507,-239 1507,-220 1665,-220 1665,-239"/>
<text text-anchor="middle" x="1586" y="-227" font-family="Helvetica,sans-Serif" font-size="10.00">QtCore/private/qproperty_p.h</text>
</a>
</g>
</g>
<!-- Node26&#45;&gt;Node30 -->
<g id="edge33_Node000026_Node000030" class="edge">
<title>Node26&#45;&gt;Node30</title>
<g id="a_edge33_Node000026_Node000030"><a xlink:title=" ">
<path fill="none" stroke="#63b8ff" d="M1254.61,-277.21C1319.12,-268.12 1439.08,-251.21 1515.6,-240.42"/>
<polygon fill="#63b8ff" stroke="#63b8ff" points="1516.22,-243.87 1525.64,-239.01 1515.25,-236.94 1516.22,-243.87"/>
</a>
</g>
</g>
<!-- Node31 -->
<g id="Node000031" class="node">
<title>Node31</title>
<g id="a_Node000031"><a xlink:title=" ">
<polygon fill="#e0e0e0" stroke="#999999" points="1733,-239 1683,-239 1683,-220 1733,-220 1733,-239"/>
<text text-anchor="middle" x="1708" y="-227" font-family="Helvetica,sans-Serif" font-size="10.00">atomic</text>
</a>
</g>
</g>
<!-- Node26&#45;&gt;Node31 -->
<g id="edge34_Node000026_Node000031" class="edge">
<title>Node26&#45;&gt;Node31</title>
<g id="a_edge34_Node000026_Node000031"><a xlink:title=" ">
<path fill="none" stroke="#63b8ff" d="M1254.76,-281.43C1336.17,-277.19 1513.98,-265.71 1672.88,-238.94"/>
<polygon fill="#63b8ff" stroke="#63b8ff" points="1673.57,-242.37 1682.84,-237.24 1672.39,-235.47 1673.57,-242.37"/>
</a>
</g>
</g>
<!-- Node32&#45;&gt;Node17 -->
<g id="edge39_Node000032_Node000017" class="edge">
<title>Node32&#45;&gt;Node17</title>
<g id="a_edge39_Node000032_Node000017"><a xlink:title=" ">
<path fill="none" stroke="#63b8ff" d="M1759.42,-274.93C1756.89,-262.4 1751.26,-238.53 1742,-220 1714.45,-164.84 1667.19,-108.72 1643.09,-81.84"/>
<polygon fill="#63b8ff" stroke="#63b8ff" points="1645.45,-79.23 1636.14,-74.17 1640.26,-83.93 1645.45,-79.23"/>
</a>
</g>
</g>
<!-- Node33 -->
<g id="Node000033" class="node">
<title>Node33</title>
<g id="a_Node000033"><a xlink:title=" ">
<polygon fill="#e0e0e0" stroke="#999999" points="1936.5,-239 1789.5,-239 1789.5,-220 1936.5,-220 1936.5,-239"/>
<text text-anchor="middle" x="1863" y="-227" font-family="Helvetica,sans-Serif" font-size="10.00">QtCore/private/qglobal_p.h</text>
</a>
</g>
</g>
<!-- Node32&#45;&gt;Node33 -->
<g id="edge40_Node000032_Node000033" class="edge">
<title>Node32&#45;&gt;Node33</title>
<g id="a_edge40_Node000032_Node000033"><a xlink:title=" ">
<path fill="none" stroke="#63b8ff" d="M1777.39,-274.98C1793.57,-266.57 1818.57,-253.59 1837.38,-243.81"/>
<polygon fill="#63b8ff" stroke="#63b8ff" points="1839.05,-246.89 1846.31,-239.17 1835.83,-240.68 1839.05,-246.89"/>
</a>
</g>
</g>
</g>
</svg>

<g id="navigator" transform="translate(0 0)" fill="#404254">
  <rect fill="#f2f5e9" fill-opacity="0.5" stroke="#606060" stroke-width=".5" x="0" y="0" width="60" height="60"/>
  <use id="zoomplus" xlink:href="#zoomPlus" x="17" y="9" onmousedown="handleZoom(evt,'in')"/>
  <use id="zoomminus" xlink:href="#zoomMin" x="42" y="9" onmousedown="handleZoom(evt,'out')"/>
  <use id="reset" xlink:href="#resetDef" x="30" y="36" onmousedown="handleReset()"/>
   <use id="arrowup" xlink:href="#arrowUp" x="0" y="0" onmousedown="handlePan(0,-1)"/>
  <use id="arrowright" xlink:href="#arrowRight" x="0" y="0" onmousedown="handlePan(1,0)"/>
  <use id="arrowdown" xlink:href="#arrowDown" x="0" y="0" onmousedown="handlePan(0,1)"/>
  <use id="arrowleft" xlink:href="#arrowLeft" x="0" y="0" onmousedown="handlePan(-1,0)"/>
</g>
<svg viewBox="0 0 15 15" width="100%" height="30px" preserveAspectRatio="xMaxYMin meet">
 <g id="arrow_out" transform="scale(0.3 0.3)">
  <a xlink:href="qserialportinfo__android_8cpp__incl_org.svg" target="_base">
   <rect id="button" ry="5" rx="5" y="6" x="6" height="38" width="38"
        fill="#f2f5e9" fill-opacity="0.5" stroke="#606060" stroke-width="1.0"/>
   <path id="arrow"
     d="M 11.500037,31.436501 C 11.940474,20.09759 22.043105,11.32322 32.158766,21.979434 L 37.068811,17.246167 C 37.068811,17.246167 37.088388,32 37.088388,32 L 22.160133,31.978069 C 22.160133,31.978069 26.997745,27.140456 26.997745,27.140456 C 18.528582,18.264221 13.291696,25.230495 11.500037,31.436501 z"
     style="fill:#404040;"/>
  </a>
 </g>
</svg>

<style type='text/css'>
<![CDATA[
[data-mouse-over-selected='false'] { opacity: 0.7; }
[data-mouse-over-selected='true']  { opacity: 1.0; }
]]>
</style>
<script type="application/ecmascript"><![CDATA[
document.addEventListener('DOMContentLoaded', (event) => {
  highlightEdges();
  highlightAdjacentNodes();
});
]]></script>
</svg>
