<?xml version="1.0" encoding="UTF-8" standalone="no"?>
<!DOCTYPE svg PUBLIC "-//W3C//DTD SVG 1.1//EN"
 "http://www.w3.org/Graphics/SVG/1.1/DTD/svg11.dtd">
<!-- Generated by graphviz version 2.43.0 (0)
 -->
<!-- Title: src/Android/qtandroidserialport/qserialport_android.cpp Pages: 1 -->
<svg width="1540pt" height="368pt"
 viewBox="0.00 0.00 1539.50 368.00" xmlns="http://www.w3.org/2000/svg" xmlns:xlink="http://www.w3.org/1999/xlink">
<g id="graph0" class="graph" transform="scale(1 1) rotate(0) translate(4 364)">
<title>src/Android/qtandroidserialport/qserialport_android.cpp</title>
<!-- Node1 -->
<g id="Node000001" class="node">
<title>Node1</title>
<g id="a_Node000001"><a xlink:title=" ">
<polygon fill="#999999" stroke="#666666" points="443,-360 276,-360 276,-330 443,-330 443,-360"/>
<text text-anchor="start" x="284" y="-348" font-family="Helvetica,sans-Serif" font-size="10.00">src/Android/qtandroidserialport</text>
<text text-anchor="middle" x="359.5" y="-337" font-family="Helvetica,sans-Serif" font-size="10.00">/qserialport_android.cpp</text>
</a>
</g>
</g>
<!-- Node2 -->
<g id="Node000002" class="node">
<title>Node2</title>
<g id="a_Node000002"><a xlink:title=" ">
<polygon fill="#e0e0e0" stroke="#999999" points="117,-294 0,-294 0,-275 117,-275 117,-294"/>
<text text-anchor="middle" x="58.5" y="-282" font-family="Helvetica,sans-Serif" font-size="10.00">QtCore/QMetaObject</text>
</a>
</g>
</g>
<!-- Node1&#45;&gt;Node2 -->
<g id="edge1_Node000001_Node000002" class="edge">
<title>Node1&#45;&gt;Node2</title>
<g id="a_edge1_Node000001_Node000002"><a xlink:title=" ">
<path fill="none" stroke="#63b8ff" d="M287.4,-329.99C233.66,-319.54 161.4,-305.5 112.56,-296.01"/>
<polygon fill="#63b8ff" stroke="#63b8ff" points="113,-292.53 102.51,-294.05 111.66,-299.4 113,-292.53"/>
</a>
</g>
</g>
<!-- Node3 -->
<g id="Node000003" class="node">
<title>Node3</title>
<g id="a_Node000003"><a xlink:title=" ">
<polygon fill="#e0e0e0" stroke="#999999" points="230,-294 135,-294 135,-275 230,-275 230,-294"/>
<text text-anchor="middle" x="182.5" y="-282" font-family="Helvetica,sans-Serif" font-size="10.00">QtCore/QPointer</text>
</a>
</g>
</g>
<!-- Node1&#45;&gt;Node3 -->
<g id="edge2_Node000001_Node000003" class="edge">
<title>Node1&#45;&gt;Node3</title>
<g id="a_edge2_Node000001_Node000003"><a xlink:title=" ">
<path fill="none" stroke="#63b8ff" d="M317.1,-329.99C286.82,-319.98 246.55,-306.67 217.97,-297.22"/>
<polygon fill="#63b8ff" stroke="#63b8ff" points="218.97,-293.87 208.38,-294.05 216.78,-300.52 218.97,-293.87"/>
</a>
</g>
</g>
<!-- Node4 -->
<g id="Node000004" class="node">
<title>Node4</title>
<g id="a_Node000004"><a xlink:title=" ">
<polygon fill="#e0e0e0" stroke="#999999" points="367,-294 248,-294 248,-275 367,-275 367,-294"/>
<text text-anchor="middle" x="307.5" y="-282" font-family="Helvetica,sans-Serif" font-size="10.00">QtCore/QScopeGuard</text>
</a>
</g>
</g>
<!-- Node1&#45;&gt;Node4 -->
<g id="edge3_Node000001_Node000004" class="edge">
<title>Node1&#45;&gt;Node4</title>
<g id="a_edge3_Node000001_Node000004"><a xlink:title=" ">
<path fill="none" stroke="#63b8ff" d="M346.91,-329.84C339.44,-321.43 329.94,-310.74 322.13,-301.96"/>
<polygon fill="#63b8ff" stroke="#63b8ff" points="324.55,-299.41 315.29,-294.27 319.32,-304.07 324.55,-299.41"/>
</a>
</g>
</g>
<!-- Node5 -->
<g id="Node000005" class="node">
<title>Node5</title>
<g id="a_Node000005"><a xlink:title=" ">
<polygon fill="#e0e0e0" stroke="#999999" points="438,-294 385,-294 385,-275 438,-275 438,-294"/>
<text text-anchor="middle" x="411.5" y="-282" font-family="Helvetica,sans-Serif" font-size="10.00">iterator</text>
</a>
</g>
</g>
<!-- Node1&#45;&gt;Node5 -->
<g id="edge4_Node000001_Node000005" class="edge">
<title>Node1&#45;&gt;Node5</title>
<g id="a_edge4_Node000001_Node000005"><a xlink:title=" ">
<path fill="none" stroke="#63b8ff" d="M372.09,-329.84C379.56,-321.43 389.06,-310.74 396.87,-301.96"/>
<polygon fill="#63b8ff" stroke="#63b8ff" points="399.68,-304.07 403.71,-294.27 394.45,-299.41 399.68,-304.07"/>
</a>
</g>
</g>
<!-- Node6 -->
<g id="Node000006" class="node">
<title>Node6</title>
<g id="a_Node000006"><a xlink:href="QGCLoggingCategory_8h.html" target="_top" xlink:title=" ">
<polygon fill="white" stroke="#666666" points="584.5,-294 456.5,-294 456.5,-275 584.5,-275 584.5,-294"/>
<text text-anchor="middle" x="520.5" y="-282" font-family="Helvetica,sans-Serif" font-size="10.00">QGCLoggingCategory.h</text>
</a>
</g>
</g>
<!-- Node1&#45;&gt;Node6 -->
<g id="edge5_Node000001_Node000006" class="edge">
<title>Node1&#45;&gt;Node6</title>
<g id="a_edge5_Node000001_Node000006"><a xlink:title=" ">
<path fill="none" stroke="#63b8ff" d="M398.06,-329.99C425.29,-320.1 461.38,-306.98 487.32,-297.56"/>
<polygon fill="#63b8ff" stroke="#63b8ff" points="488.52,-300.84 496.72,-294.14 486.13,-294.26 488.52,-300.84"/>
</a>
</g>
</g>
<!-- Node8 -->
<g id="Node000008" class="node">
<title>Node8</title>
<g id="a_Node000008"><a xlink:href="qserialport__p_8h.html" target="_top" xlink:title=" ">
<polygon fill="white" stroke="#666666" points="875,-294 786,-294 786,-275 875,-275 875,-294"/>
<text text-anchor="middle" x="830.5" y="-282" font-family="Helvetica,sans-Serif" font-size="10.00">qserialport_p.h</text>
</a>
</g>
</g>
<!-- Node1&#45;&gt;Node8 -->
<g id="edge7_Node000001_Node000008" class="edge">
<title>Node1&#45;&gt;Node8</title>
<g id="a_edge7_Node000001_Node000008"><a xlink:title=" ">
<path fill="none" stroke="#63b8ff" d="M443.16,-333.61C539.24,-321.68 694.1,-302.44 775.87,-292.29"/>
<polygon fill="#63b8ff" stroke="#63b8ff" points="776.46,-295.74 785.95,-291.03 775.59,-288.79 776.46,-295.74"/>
</a>
</g>
</g>
<!-- Node7 -->
<g id="Node000007" class="node">
<title>Node7</title>
<g id="a_Node000007"><a xlink:title=" ">
<polygon fill="#e0e0e0" stroke="#999999" points="410,-239 267,-239 267,-220 410,-220 410,-239"/>
<text text-anchor="middle" x="338.5" y="-227" font-family="Helvetica,sans-Serif" font-size="10.00">QtCore/QLoggingCategory</text>
</a>
</g>
</g>
<!-- Node6&#45;&gt;Node7 -->
<g id="edge6_Node000006_Node000007" class="edge">
<title>Node6&#45;&gt;Node7</title>
<g id="a_edge6_Node000006_Node000007"><a xlink:title=" ">
<path fill="none" stroke="#63b8ff" d="M491.26,-274.98C460.44,-266.01 411.72,-251.82 377.61,-241.89"/>
<polygon fill="#63b8ff" stroke="#63b8ff" points="378.55,-238.52 367.97,-239.08 376.59,-245.24 378.55,-238.52"/>
</a>
</g>
</g>
<!-- Node8&#45;&gt;Node7 -->
<g id="edge8_Node000008_Node000007" class="edge">
<title>Node8&#45;&gt;Node7</title>
<g id="a_edge8_Node000008_Node000007"><a xlink:title=" ">
<path fill="none" stroke="#63b8ff" d="M785.97,-278.7C703.33,-269.8 525.12,-250.6 420.25,-239.31"/>
<polygon fill="#63b8ff" stroke="#63b8ff" points="420.34,-235.8 410.02,-238.2 419.59,-242.76 420.34,-235.8"/>
</a>
</g>
</g>
<!-- Node9 -->
<g id="Node000009" class="node">
<title>Node9</title>
<g id="a_Node000009"><a xlink:title=" ">
<polygon fill="#e0e0e0" stroke="#999999" points="1235.5,-239 1143.5,-239 1143.5,-220 1235.5,-220 1235.5,-239"/>
<text text-anchor="middle" x="1189.5" y="-227" font-family="Helvetica,sans-Serif" font-size="10.00">QtCore/QMutex</text>
</a>
</g>
</g>
<!-- Node8&#45;&gt;Node9 -->
<g id="edge9_Node000008_Node000009" class="edge">
<title>Node8&#45;&gt;Node9</title>
<g id="a_edge9_Node000008_Node000009"><a xlink:title=" ">
<path fill="none" stroke="#63b8ff" d="M875.24,-276.89C940.54,-267.25 1061.92,-249.34 1133.2,-238.81"/>
<polygon fill="#63b8ff" stroke="#63b8ff" points="1133.96,-242.24 1143.34,-237.31 1132.94,-235.31 1133.96,-242.24"/>
</a>
</g>
</g>
<!-- Node10 -->
<g id="Node000010" class="node">
<title>Node10</title>
<g id="a_Node000010"><a xlink:title=" ">
<polygon fill="#e0e0e0" stroke="#999999" points="557,-239 428,-239 428,-220 557,-220 557,-239"/>
<text text-anchor="middle" x="492.5" y="-227" font-family="Helvetica,sans-Serif" font-size="10.00">QtCore/QWaitCondition</text>
</a>
</g>
</g>
<!-- Node8&#45;&gt;Node10 -->
<g id="edge10_Node000008_Node000010" class="edge">
<title>Node8&#45;&gt;Node10</title>
<g id="a_edge10_Node000008_Node000010"><a xlink:title=" ">
<path fill="none" stroke="#63b8ff" d="M785.96,-276.52C727.4,-267.33 624.07,-251.13 556.96,-240.61"/>
<polygon fill="#63b8ff" stroke="#63b8ff" points="557.35,-237.13 546.93,-239.03 556.26,-244.04 557.35,-237.13"/>
</a>
</g>
</g>
<!-- Node11 -->
<g id="Node000011" class="node">
<title>Node11</title>
<g id="a_Node000011"><a xlink:title=" ">
<polygon fill="#e0e0e0" stroke="#999999" points="733.5,-239 575.5,-239 575.5,-220 733.5,-220 733.5,-239"/>
<text text-anchor="middle" x="654.5" y="-227" font-family="Helvetica,sans-Serif" font-size="10.00">QtCore/private/qiodevice_p.h</text>
</a>
</g>
</g>
<!-- Node8&#45;&gt;Node11 -->
<g id="edge11_Node000008_Node000011" class="edge">
<title>Node8&#45;&gt;Node11</title>
<g id="a_edge11_Node000008_Node000011"><a xlink:title=" ">
<path fill="none" stroke="#63b8ff" d="M802.22,-274.98C772.55,-266.05 725.71,-251.94 692.75,-242.02"/>
<polygon fill="#63b8ff" stroke="#63b8ff" points="693.58,-238.61 683,-239.08 691.57,-245.32 693.58,-238.61"/>
</a>
</g>
</g>
<!-- Node12 -->
<g id="Node000012" class="node">
<title>Node12</title>
<g id="a_Node000012"><a xlink:title=" ">
<polygon fill="#e0e0e0" stroke="#999999" points="909.5,-239 751.5,-239 751.5,-220 909.5,-220 909.5,-239"/>
<text text-anchor="middle" x="830.5" y="-227" font-family="Helvetica,sans-Serif" font-size="10.00">QtCore/private/qproperty_p.h</text>
</a>
</g>
</g>
<!-- Node8&#45;&gt;Node12 -->
<g id="edge12_Node000008_Node000012" class="edge">
<title>Node8&#45;&gt;Node12</title>
<g id="a_edge12_Node000008_Node000012"><a xlink:title=" ">
<path fill="none" stroke="#63b8ff" d="M830.5,-274.75C830.5,-267.8 830.5,-257.85 830.5,-249.13"/>
<polygon fill="#63b8ff" stroke="#63b8ff" points="834,-249.09 830.5,-239.09 827,-249.09 834,-249.09"/>
</a>
</g>
</g>
<!-- Node13 -->
<g id="Node000013" class="node">
<title>Node13</title>
<g id="a_Node000013"><a xlink:title=" ">
<polygon fill="#e0e0e0" stroke="#999999" points="977.5,-239 927.5,-239 927.5,-220 977.5,-220 977.5,-239"/>
<text text-anchor="middle" x="952.5" y="-227" font-family="Helvetica,sans-Serif" font-size="10.00">atomic</text>
</a>
</g>
</g>
<!-- Node8&#45;&gt;Node13 -->
<g id="edge13_Node000008_Node000013" class="edge">
<title>Node8&#45;&gt;Node13</title>
<g id="a_edge13_Node000008_Node000013"><a xlink:title=" ">
<path fill="none" stroke="#63b8ff" d="M850.1,-274.98C869.82,-266.42 900.45,-253.11 923.08,-243.28"/>
<polygon fill="#63b8ff" stroke="#63b8ff" points="924.76,-246.37 932.54,-239.17 921.98,-239.94 924.76,-246.37"/>
</a>
</g>
</g>
<!-- Node14 -->
<g id="Node000014" class="node">
<title>Node14</title>
<g id="a_Node000014"><a xlink:href="AndroidSerial_8h.html" target="_top" xlink:title=" ">
<polygon fill="white" stroke="#666666" points="1087,-239 996,-239 996,-220 1087,-220 1087,-239"/>
<text text-anchor="middle" x="1041.5" y="-227" font-family="Helvetica,sans-Serif" font-size="10.00">AndroidSerial.h</text>
</a>
</g>
</g>
<!-- Node8&#45;&gt;Node14 -->
<g id="edge14_Node000008_Node000014" class="edge">
<title>Node8&#45;&gt;Node14</title>
<g id="a_edge14_Node000008_Node000014"><a xlink:title=" ">
<path fill="none" stroke="#63b8ff" d="M864.4,-274.98C900.52,-265.91 957.82,-251.52 997.42,-241.57"/>
<polygon fill="#63b8ff" stroke="#63b8ff" points="998.49,-244.91 1007.33,-239.08 996.78,-238.12 998.49,-244.91"/>
</a>
</g>
</g>
<!-- Node17 -->
<g id="Node000017" class="node">
<title>Node17</title>
<g id="a_Node000017"><a xlink:href="qserialport_8h.html" target="_top" xlink:title=" ">
<polygon fill="white" stroke="#666666" points="1186.5,-184 1108.5,-184 1108.5,-165 1186.5,-165 1186.5,-184"/>
<text text-anchor="middle" x="1147.5" y="-172" font-family="Helvetica,sans-Serif" font-size="10.00">qserialport.h</text>
</a>
</g>
</g>
<!-- Node8&#45;&gt;Node17 -->
<g id="edge30_Node000008_Node000017" class="edge">
<title>Node8&#45;&gt;Node17</title>
<g id="a_edge30_Node000008_Node000017"><a xlink:title=" ">
<path fill="none" stroke="#63b8ff" d="M875.11,-279.89C940.8,-273.94 1059.74,-260.54 1096.5,-239 1114.94,-228.2 1129.38,-208.02 1138.12,-193.3"/>
<polygon fill="#63b8ff" stroke="#63b8ff" points="1141.4,-194.6 1143.24,-184.16 1135.3,-191.18 1141.4,-194.6"/>
</a>
</g>
</g>
<!-- Node15 -->
<g id="Node000015" class="node">
<title>Node15</title>
<g id="a_Node000015"><a xlink:title=" ">
<polygon fill="#e0e0e0" stroke="#999999" points="974.5,-184 864.5,-184 864.5,-165 974.5,-165 974.5,-184"/>
<text text-anchor="middle" x="919.5" y="-172" font-family="Helvetica,sans-Serif" font-size="10.00">QtCore/QByteArray</text>
</a>
</g>
</g>
<!-- Node14&#45;&gt;Node15 -->
<g id="edge15_Node000014_Node000015" class="edge">
<title>Node14&#45;&gt;Node15</title>
<g id="a_edge15_Node000014_Node000015"><a xlink:title=" ">
<path fill="none" stroke="#63b8ff" d="M1021.9,-219.98C1002.18,-211.42 971.55,-198.11 948.92,-188.28"/>
<polygon fill="#63b8ff" stroke="#63b8ff" points="950.02,-184.94 939.46,-184.17 947.24,-191.37 950.02,-184.94"/>
</a>
</g>
</g>
<!-- Node16 -->
<g id="Node000016" class="node">
<title>Node16</title>
<g id="a_Node000016"><a xlink:title=" ">
<polygon fill="#e0e0e0" stroke="#999999" points="846,-184 757,-184 757,-165 846,-165 846,-184"/>
<text text-anchor="middle" x="801.5" y="-172" font-family="Helvetica,sans-Serif" font-size="10.00">QtCore/QString</text>
</a>
</g>
</g>
<!-- Node14&#45;&gt;Node16 -->
<g id="edge16_Node000014_Node000016" class="edge">
<title>Node14&#45;&gt;Node16</title>
<g id="a_edge16_Node000014_Node000016"><a xlink:title=" ">
<path fill="none" stroke="#63b8ff" d="M1002.94,-219.98C961.43,-210.82 895.29,-196.21 850.21,-186.26"/>
<polygon fill="#63b8ff" stroke="#63b8ff" points="850.88,-182.82 840.36,-184.08 849.37,-189.66 850.88,-182.82"/>
</a>
</g>
</g>
<!-- Node14&#45;&gt;Node17 -->
<g id="edge17_Node000014_Node000017" class="edge">
<title>Node14&#45;&gt;Node17</title>
<g id="a_edge17_Node000014_Node000017"><a xlink:title=" ">
<path fill="none" stroke="#63b8ff" d="M1058.53,-219.98C1075.43,-211.54 1101.56,-198.47 1121.14,-188.68"/>
<polygon fill="#63b8ff" stroke="#63b8ff" points="1122.78,-191.77 1130.16,-184.17 1119.65,-185.51 1122.78,-191.77"/>
</a>
</g>
</g>
<!-- Node26 -->
<g id="Node000026" class="node">
<title>Node26</title>
<g id="a_Node000026"><a xlink:href="qserialportinfo_8h.html" target="_top" xlink:title=" ">
<polygon fill="white" stroke="#666666" points="1090,-184 993,-184 993,-165 1090,-165 1090,-184"/>
<text text-anchor="middle" x="1041.5" y="-172" font-family="Helvetica,sans-Serif" font-size="10.00">qserialportinfo.h</text>
</a>
</g>
</g>
<!-- Node14&#45;&gt;Node26 -->
<g id="edge26_Node000014_Node000026" class="edge">
<title>Node14&#45;&gt;Node26</title>
<g id="a_edge26_Node000014_Node000026"><a xlink:title=" ">
<path fill="none" stroke="#63b8ff" d="M1041.5,-219.75C1041.5,-212.8 1041.5,-202.85 1041.5,-194.13"/>
<polygon fill="#63b8ff" stroke="#63b8ff" points="1045,-194.09 1041.5,-184.09 1038,-194.09 1045,-194.09"/>
</a>
</g>
</g>
<!-- Node18 -->
<g id="Node000018" class="node">
<title>Node18</title>
<g id="a_Node000018"><a xlink:title=" ">
<polygon fill="#e0e0e0" stroke="#999999" points="1329.5,-129 1219.5,-129 1219.5,-110 1329.5,-110 1329.5,-129"/>
<text text-anchor="middle" x="1274.5" y="-117" font-family="Helvetica,sans-Serif" font-size="10.00">QtCore/qiodevice.h</text>
</a>
</g>
</g>
<!-- Node17&#45;&gt;Node18 -->
<g id="edge18_Node000017_Node000018" class="edge">
<title>Node17&#45;&gt;Node18</title>
<g id="a_edge18_Node000017_Node000018"><a xlink:title=" ">
<path fill="none" stroke="#63b8ff" d="M1167.9,-164.98C1188.52,-156.38 1220.61,-142.99 1244.19,-133.15"/>
<polygon fill="#63b8ff" stroke="#63b8ff" points="1245.84,-136.25 1253.72,-129.17 1243.15,-129.79 1245.84,-136.25"/>
</a>
</g>
</g>
<!-- Node19 -->
<g id="Node000019" class="node">
<title>Node19</title>
<g id="a_Node000019"><a xlink:href="qserialportglobal_8h.html" target="_top" xlink:title=" ">
<polygon fill="white" stroke="#666666" points="1201.5,-129 1093.5,-129 1093.5,-110 1201.5,-110 1201.5,-129"/>
<text text-anchor="middle" x="1147.5" y="-117" font-family="Helvetica,sans-Serif" font-size="10.00">qserialportglobal.h</text>
</a>
</g>
</g>
<!-- Node17&#45;&gt;Node19 -->
<g id="edge19_Node000017_Node000019" class="edge">
<title>Node17&#45;&gt;Node19</title>
<g id="a_edge19_Node000017_Node000019"><a xlink:title=" ">
<path fill="none" stroke="#63b8ff" d="M1147.5,-164.75C1147.5,-157.8 1147.5,-147.85 1147.5,-139.13"/>
<polygon fill="#63b8ff" stroke="#63b8ff" points="1151,-139.09 1147.5,-129.09 1144,-139.09 1151,-139.09"/>
</a>
</g>
</g>
<!-- Node20 -->
<g id="Node000020" class="node">
<title>Node20</title>
<g id="a_Node000020"><a xlink:title=" ">
<polygon fill="#e0e0e0" stroke="#999999" points="1080.5,-74 984.5,-74 984.5,-55 1080.5,-55 1080.5,-74"/>
<text text-anchor="middle" x="1032.5" y="-62" font-family="Helvetica,sans-Serif" font-size="10.00">QtCore/qstring.h</text>
</a>
</g>
</g>
<!-- Node19&#45;&gt;Node20 -->
<g id="edge20_Node000019_Node000020" class="edge">
<title>Node19&#45;&gt;Node20</title>
<g id="a_edge20_Node000019_Node000020"><a xlink:title=" ">
<path fill="none" stroke="#63b8ff" d="M1129.02,-109.98C1110.52,-101.46 1081.82,-88.23 1060.52,-78.41"/>
<polygon fill="#63b8ff" stroke="#63b8ff" points="1061.86,-75.18 1051.31,-74.17 1058.93,-81.53 1061.86,-75.18"/>
</a>
</g>
</g>
<!-- Node21 -->
<g id="Node000021" class="node">
<title>Node21</title>
<g id="a_Node000021"><a xlink:title=" ">
<polygon fill="#e0e0e0" stroke="#999999" points="1196.5,-74 1098.5,-74 1098.5,-55 1196.5,-55 1196.5,-74"/>
<text text-anchor="middle" x="1147.5" y="-62" font-family="Helvetica,sans-Serif" font-size="10.00">QtCore/qglobal.h</text>
</a>
</g>
</g>
<!-- Node19&#45;&gt;Node21 -->
<g id="edge21_Node000019_Node000021" class="edge">
<title>Node19&#45;&gt;Node21</title>
<g id="a_edge21_Node000019_Node000021"><a xlink:title=" ">
<path fill="none" stroke="#63b8ff" d="M1147.5,-109.75C1147.5,-102.8 1147.5,-92.85 1147.5,-84.13"/>
<polygon fill="#63b8ff" stroke="#63b8ff" points="1151,-84.09 1147.5,-74.09 1144,-84.09 1151,-84.09"/>
</a>
</g>
</g>
<!-- Node22 -->
<g id="Node000022" class="node">
<title>Node22</title>
<g id="a_Node000022"><a xlink:href="qtserialportexports_8h.html" target="_top" xlink:title=" ">
<polygon fill="white" stroke="#666666" points="1334,-74 1215,-74 1215,-55 1334,-55 1334,-74"/>
<text text-anchor="middle" x="1274.5" y="-62" font-family="Helvetica,sans-Serif" font-size="10.00">qtserialportexports.h</text>
</a>
</g>
</g>
<!-- Node19&#45;&gt;Node22 -->
<g id="edge22_Node000019_Node000022" class="edge">
<title>Node19&#45;&gt;Node22</title>
<g id="a_edge22_Node000019_Node000022"><a xlink:title=" ">
<path fill="none" stroke="#63b8ff" d="M1167.9,-109.98C1188.52,-101.38 1220.61,-87.99 1244.19,-78.15"/>
<polygon fill="#63b8ff" stroke="#63b8ff" points="1245.84,-81.25 1253.72,-74.17 1243.15,-74.79 1245.84,-81.25"/>
</a>
</g>
</g>
<!-- Node23 -->
<g id="Node000023" class="node">
<title>Node23</title>
<g id="a_Node000023"><a xlink:title=" ">
<polygon fill="#e0e0e0" stroke="#999999" points="1188,-19 1031,-19 1031,0 1188,0 1188,-19"/>
<text text-anchor="middle" x="1109.5" y="-7" font-family="Helvetica,sans-Serif" font-size="10.00">QtCore/qcompilerdetection.h</text>
</a>
</g>
</g>
<!-- Node22&#45;&gt;Node23 -->
<g id="edge23_Node000022_Node000023" class="edge">
<title>Node22&#45;&gt;Node23</title>
<g id="a_edge23_Node000022_Node000023"><a xlink:title=" ">
<path fill="none" stroke="#63b8ff" d="M1247.99,-54.98C1220.29,-46.09 1176.64,-32.07 1145.76,-22.15"/>
<polygon fill="#63b8ff" stroke="#63b8ff" points="1146.81,-18.81 1136.22,-19.08 1144.67,-25.47 1146.81,-18.81"/>
</a>
</g>
</g>
<!-- Node24 -->
<g id="Node000024" class="node">
<title>Node24</title>
<g id="a_Node000024"><a xlink:title=" ">
<polygon fill="#e0e0e0" stroke="#999999" points="1343,-19 1206,-19 1206,0 1343,0 1343,-19"/>
<text text-anchor="middle" x="1274.5" y="-7" font-family="Helvetica,sans-Serif" font-size="10.00">QtCore/qtconfigmacros.h</text>
</a>
</g>
</g>
<!-- Node22&#45;&gt;Node24 -->
<g id="edge24_Node000022_Node000024" class="edge">
<title>Node22&#45;&gt;Node24</title>
<g id="a_edge24_Node000022_Node000024"><a xlink:title=" ">
<path fill="none" stroke="#63b8ff" d="M1274.5,-54.75C1274.5,-47.8 1274.5,-37.85 1274.5,-29.13"/>
<polygon fill="#63b8ff" stroke="#63b8ff" points="1278,-29.09 1274.5,-19.09 1271,-29.09 1278,-29.09"/>
</a>
</g>
</g>
<!-- Node25 -->
<g id="Node000025" class="node">
<title>Node25</title>
<g id="a_Node000025"><a xlink:title=" ">
<polygon fill="#e0e0e0" stroke="#999999" points="1531.5,-19 1361.5,-19 1361.5,0 1531.5,0 1531.5,-19"/>
<text text-anchor="middle" x="1446.5" y="-7" font-family="Helvetica,sans-Serif" font-size="10.00">QtCore/qtdeprecationmarkers.h</text>
</a>
</g>
</g>
<!-- Node22&#45;&gt;Node25 -->
<g id="edge25_Node000022_Node000025" class="edge">
<title>Node22&#45;&gt;Node25</title>
<g id="a_edge25_Node000022_Node000025"><a xlink:title=" ">
<path fill="none" stroke="#63b8ff" d="M1302.13,-54.98C1331.01,-46.09 1376.51,-32.07 1408.7,-22.15"/>
<polygon fill="#63b8ff" stroke="#63b8ff" points="1410.12,-25.37 1418.65,-19.08 1408.06,-18.68 1410.12,-25.37"/>
</a>
</g>
</g>
<!-- Node26&#45;&gt;Node19 -->
<g id="edge29_Node000026_Node000019" class="edge">
<title>Node26&#45;&gt;Node19</title>
<g id="a_edge29_Node000026_Node000019"><a xlink:title=" ">
<path fill="none" stroke="#63b8ff" d="M1058.53,-164.98C1075.43,-156.54 1101.56,-143.47 1121.14,-133.68"/>
<polygon fill="#63b8ff" stroke="#63b8ff" points="1122.78,-136.77 1130.16,-129.17 1119.65,-130.51 1122.78,-136.77"/>
</a>
</g>
</g>
<!-- Node27 -->
<g id="Node000027" class="node">
<title>Node27</title>
<g id="a_Node000027"><a xlink:title=" ">
<polygon fill="#e0e0e0" stroke="#999999" points="920,-129 837,-129 837,-110 920,-110 920,-129"/>
<text text-anchor="middle" x="878.5" y="-117" font-family="Helvetica,sans-Serif" font-size="10.00">QtCore/qlist.h</text>
</a>
</g>
</g>
<!-- Node26&#45;&gt;Node27 -->
<g id="edge27_Node000026_Node000027" class="edge">
<title>Node26&#45;&gt;Node27</title>
<g id="a_edge27_Node000026_Node000027"><a xlink:title=" ">
<path fill="none" stroke="#63b8ff" d="M1015.31,-164.98C988.06,-156.13 945.2,-142.19 914.72,-132.28"/>
<polygon fill="#63b8ff" stroke="#63b8ff" points="915.49,-128.85 904.89,-129.08 913.32,-135.5 915.49,-128.85"/>
</a>
</g>
</g>
<!-- Node28 -->
<g id="Node000028" class="node">
<title>Node28</title>
<g id="a_Node000028"><a xlink:title=" ">
<polygon fill="#e0e0e0" stroke="#999999" points="1075,-129 938,-129 938,-110 1075,-110 1075,-129"/>
<text text-anchor="middle" x="1006.5" y="-117" font-family="Helvetica,sans-Serif" font-size="10.00">QtCore/qscopedpointer.h</text>
</a>
</g>
</g>
<!-- Node26&#45;&gt;Node28 -->
<g id="edge28_Node000026_Node000028" class="edge">
<title>Node26&#45;&gt;Node28</title>
<g id="a_edge28_Node000026_Node000028"><a xlink:title=" ">
<path fill="none" stroke="#63b8ff" d="M1035.72,-164.75C1030.88,-157.42 1023.82,-146.73 1017.86,-137.7"/>
<polygon fill="#63b8ff" stroke="#63b8ff" points="1020.6,-135.5 1012.17,-129.09 1014.76,-139.36 1020.6,-135.5"/>
</a>
</g>
</g>
</g>
</svg>
