<?xml version="1.0" encoding="UTF-8" standalone="no"?>
<!DOCTYPE svg PUBLIC "-//W3C//DTD SVG 1.1//EN"
 "http://www.w3.org/Graphics/SVG/1.1/DTD/svg11.dtd">
<!-- Generated by graphviz version 2.43.0 (0)
 -->
<!-- Title: src/Android/qtandroidserialport/qserialportinfo_android.cpp Pages: 1 -->
<!--zoomable 368 -->

<svg id="main" version="1.1" xmlns="http://www.w3.org/2000/svg" xmlns:xlink="http://www.w3.org/1999/xlink" xml:space="preserve" onload="init(evt)">
<style type="text/css"><![CDATA[
.node, .edge {opacity: 0.7;}
.node.selected, .edge.selected {opacity: 1;}
.edge:hover path { stroke: red; }
.edge:hover polygon { stroke: red; fill: red; }
]]></style>

<defs>
  <circle id="rim" cx="0" cy="0" r="7"/>
  <circle id="rim2" cx="0" cy="0" r="3.5"/>
  <g id="zoomPlus">
    <use xlink:href="#rim" fill="#404040"><set attributeName="fill" to="#808080" begin="zoomplus.mouseover" end="zoomplus.mouseout"/></use>
    <path d="M-4,0h8M0,-4v8" fill="none" stroke="white" stroke-width="1.5" pointer-events="none"/>
  </g>
  <g id="zoomMin">
    <use xlink:href="#rim" fill="#404040"><set attributeName="fill" to="#808080" begin="zoomminus.mouseover" end="zoomminus.mouseout"/></use>
    <path d="M-4,0h8" fill="none" stroke="white" stroke-width="1.5" pointer-events="none"/>
  </g>
  <g id="arrowUp" transform="translate(30 24)">
    <use xlink:href="#rim"/>
    <path pointer-events="none" fill="none" stroke="white" stroke-width="1.5" d="M0,-3.0v7 M-2.5,-0.5L0,-3.0L2.5,-0.5"/>
  </g>
  <g id="arrowRight" transform="rotate(90) translate(36 -43)">
    <use xlink:href="#rim"/>
    <path pointer-events="none" fill="none" stroke="white" stroke-width="1.5" d="M0,-3.0v7 M-2.5,-0.5L0,-3.0L2.5,-0.5"/>
  </g>
  <g id="arrowDown" transform="rotate(180) translate(-30 -48)">
    <use xlink:href="#rim"/>
    <path pointer-events="none" fill="none" stroke="white" stroke-width="1.5" d="M0,-3.0v7 M-2.5,-0.5L0,-3.0L2.5,-0.5"/>
  </g>
  <g id="arrowLeft" transform="rotate(270) translate(-36 17)">
    <use xlink:href="#rim"/>
    <path pointer-events="none" fill="none" stroke="white" stroke-width="1.5" d="M0,-3.0v7 M-2.5,-0.5L0,-3.0L2.5,-0.5"/>
  </g>
  <g id="resetDef">
    <use xlink:href="#rim2" fill="#404040"><set attributeName="fill" to="#808080" begin="reset.mouseover" end="reset.mouseout"/></use>
  </g>
</defs>
<script type="application/ecmascript">
var viewWidth = 1190;
var viewHeight = 368;
var sectionId = 'dynsection-0';
</script>
<script type="application/ecmascript" xlink:href="svg.min.js"/>
<svg id="graph" class="graph">
<g id="viewport">
<title>src/Android/qtandroidserialport/qserialportinfo_android.cpp</title>
<!-- Node1 -->
<g id="Node000001" class="node">
<title>Node1</title>
<g id="a_Node000001"><a xlink:title=" ">
<polygon fill="#999999" stroke="#666666" points="356,-360 189,-360 189,-330 356,-330 356,-360"/>
<text text-anchor="start" x="197" y="-348" font-family="Helvetica,sans-Serif" font-size="10.00">src/Android/qtandroidserialport</text>
<text text-anchor="middle" x="272.5" y="-337" font-family="Helvetica,sans-Serif" font-size="10.00">/qserialportinfo_android.cpp</text>
</a>
</g>
</g>
<!-- Node2 -->
<g id="Node000002" class="node">
<title>Node2</title>
<g id="a_Node000002"><a xlink:href="QGCLoggingCategory_8h.html" target="_top" xlink:title=" ">
<polygon fill="white" stroke="#666666" points="290.5,-294 162.5,-294 162.5,-275 290.5,-275 290.5,-294"/>
<text text-anchor="middle" x="226.5" y="-282" font-family="Helvetica,sans-Serif" font-size="10.00">QGCLoggingCategory.h</text>
</a>
</g>
</g>
<!-- Node1&#45;&gt;Node2 -->
<g id="edge1_Node000001_Node000002" class="edge">
<title>Node1&#45;&gt;Node2</title>
<g id="a_edge1_Node000001_Node000002"><a xlink:title=" ">
<path fill="none" stroke="#63b8ff" d="M261.36,-329.84C254.82,-321.52 246.52,-310.96 239.66,-302.23"/>
<polygon fill="#63b8ff" stroke="#63b8ff" points="242.33,-299.96 233.39,-294.27 236.82,-304.29 242.33,-299.96"/>
</a>
</g>
</g>
<!-- Node4 -->
<g id="Node000004" class="node">
<title>Node4</title>
<g id="a_Node000004"><a xlink:title=" ">
<polygon fill="#e0e0e0" stroke="#999999" points="144,-294 37,-294 37,-275 144,-275 144,-294"/>
<text text-anchor="middle" x="90.5" y="-282" font-family="Helvetica,sans-Serif" font-size="10.00">QtCore/QStringList</text>
</a>
</g>
</g>
<!-- Node1&#45;&gt;Node4 -->
<g id="edge3_Node000001_Node000004" class="edge">
<title>Node1&#45;&gt;Node4</title>
<g id="a_edge3_Node000001_Node000004"><a xlink:title=" ">
<path fill="none" stroke="#63b8ff" d="M228.91,-329.99C197.77,-319.98 156.36,-306.67 126.97,-297.22"/>
<polygon fill="#63b8ff" stroke="#63b8ff" points="127.7,-293.78 117.11,-294.05 125.56,-300.45 127.7,-293.78"/>
</a>
</g>
</g>
<!-- Node5 -->
<g id="Node000005" class="node">
<title>Node5</title>
<g id="a_Node000005"><a xlink:href="AndroidSerial_8h.html" target="_top" xlink:title=" ">
<polygon fill="white" stroke="#666666" points="289,-239 198,-239 198,-220 289,-220 289,-239"/>
<text text-anchor="middle" x="243.5" y="-227" font-family="Helvetica,sans-Serif" font-size="10.00">AndroidSerial.h</text>
</a>
</g>
</g>
<!-- Node1&#45;&gt;Node5 -->
<g id="edge4_Node000001_Node000005" class="edge">
<title>Node1&#45;&gt;Node5</title>
<g id="a_edge4_Node000001_Node000005"><a xlink:title=" ">
<path fill="none" stroke="#63b8ff" d="M284.82,-329.99C295.66,-315.85 308.45,-293.54 299.5,-275 293.28,-262.12 281.32,-251.82 270.04,-244.38"/>
<polygon fill="#63b8ff" stroke="#63b8ff" points="271.63,-241.25 261.27,-239.04 267.99,-247.23 271.63,-241.25"/>
</a>
</g>
</g>
<!-- Node17 -->
<g id="Node000017" class="node">
<title>Node17</title>
<g id="a_Node000017"><a xlink:href="qserialportinfo_8h.html" target="_top" xlink:title=" ">
<polygon fill="white" stroke="#666666" points="181,-184 84,-184 84,-165 181,-165 181,-184"/>
<text text-anchor="middle" x="132.5" y="-172" font-family="Helvetica,sans-Serif" font-size="10.00">qserialportinfo.h</text>
</a>
</g>
</g>
<!-- Node1&#45;&gt;Node17 -->
<g id="edge29_Node000001_Node000017" class="edge">
<title>Node1&#45;&gt;Node17</title>
<g id="a_edge29_Node000001_Node000017"><a xlink:title=" ">
<path fill="none" stroke="#63b8ff" d="M188.69,-338.03C126,-331.62 47.75,-318.8 27.5,-294 6.7,-268.52 9.34,-247.42 27.5,-220 38.15,-203.91 55.91,-193.63 73.82,-187.05"/>
<polygon fill="#63b8ff" stroke="#63b8ff" points="75.35,-190.23 83.74,-183.77 73.15,-183.59 75.35,-190.23"/>
</a>
</g>
</g>
<!-- Node20 -->
<g id="Node000020" class="node">
<title>Node20</title>
<g id="a_Node000020"><a xlink:href="qserialport__p_8h.html" target="_top" xlink:title=" ">
<polygon fill="white" stroke="#666666" points="607,-294 518,-294 518,-275 607,-275 607,-294"/>
<text text-anchor="middle" x="562.5" y="-282" font-family="Helvetica,sans-Serif" font-size="10.00">qserialport_p.h</text>
</a>
</g>
</g>
<!-- Node1&#45;&gt;Node20 -->
<g id="edge20_Node000001_Node000020" class="edge">
<title>Node1&#45;&gt;Node20</title>
<g id="a_edge20_Node000001_Node000020"><a xlink:title=" ">
<path fill="none" stroke="#63b8ff" d="M341.96,-329.99C393.64,-319.56 463.06,-305.56 510.12,-296.07"/>
<polygon fill="#63b8ff" stroke="#63b8ff" points="510.99,-299.46 520.1,-294.05 509.6,-292.6 510.99,-299.46"/>
</a>
</g>
</g>
<!-- Node26 -->
<g id="Node000026" class="node">
<title>Node26</title>
<g id="a_Node000026"><a xlink:href="qserialportinfo__p_8h.html" target="_top" xlink:title=" ">
<polygon fill="white" stroke="#666666" points="1150.5,-294 1042.5,-294 1042.5,-275 1150.5,-275 1150.5,-294"/>
<text text-anchor="middle" x="1096.5" y="-282" font-family="Helvetica,sans-Serif" font-size="10.00">qserialportinfo_p.h</text>
</a>
</g>
</g>
<!-- Node1&#45;&gt;Node26 -->
<g id="edge30_Node000001_Node000026" class="edge">
<title>Node1&#45;&gt;Node26</title>
<g id="a_edge30_Node000001_Node000026"><a xlink:title=" ">
<path fill="none" stroke="#63b8ff" d="M356.04,-338.07C520.76,-326.37 884.25,-300.57 1032.08,-290.07"/>
<polygon fill="#63b8ff" stroke="#63b8ff" points="1032.62,-293.54 1042.34,-289.34 1032.12,-286.56 1032.62,-293.54"/>
</a>
</g>
</g>
<!-- Node3 -->
<g id="Node000003" class="node">
<title>Node3</title>
<g id="a_Node000003"><a xlink:title=" ">
<polygon fill="#e0e0e0" stroke="#999999" points="180,-239 37,-239 37,-220 180,-220 180,-239"/>
<text text-anchor="middle" x="108.5" y="-227" font-family="Helvetica,sans-Serif" font-size="10.00">QtCore/QLoggingCategory</text>
</a>
</g>
</g>
<!-- Node2&#45;&gt;Node3 -->
<g id="edge2_Node000002_Node000003" class="edge">
<title>Node2&#45;&gt;Node3</title>
<g id="a_edge2_Node000002_Node000003"><a xlink:title=" ">
<path fill="none" stroke="#63b8ff" d="M207.54,-274.98C188.47,-266.42 158.84,-253.11 136.95,-243.28"/>
<polygon fill="#63b8ff" stroke="#63b8ff" points="138.36,-240.07 127.8,-239.17 135.49,-246.46 138.36,-240.07"/>
</a>
</g>
</g>
<!-- Node6 -->
<g id="Node000006" class="node">
<title>Node6</title>
<g id="a_Node000006"><a xlink:title=" ">
<polygon fill="#e0e0e0" stroke="#999999" points="416.5,-184 306.5,-184 306.5,-165 416.5,-165 416.5,-184"/>
<text text-anchor="middle" x="361.5" y="-172" font-family="Helvetica,sans-Serif" font-size="10.00">QtCore/QByteArray</text>
</a>
</g>
</g>
<!-- Node5&#45;&gt;Node6 -->
<g id="edge5_Node000005_Node000006" class="edge">
<title>Node5&#45;&gt;Node6</title>
<g id="a_edge5_Node000005_Node000006"><a xlink:title=" ">
<path fill="none" stroke="#63b8ff" d="M262.46,-219.98C281.53,-211.42 311.16,-198.11 333.05,-188.28"/>
<polygon fill="#63b8ff" stroke="#63b8ff" points="334.51,-191.46 342.2,-184.17 331.64,-185.07 334.51,-191.46"/>
</a>
</g>
</g>
<!-- Node7 -->
<g id="Node000007" class="node">
<title>Node7</title>
<g id="a_Node000007"><a xlink:title=" ">
<polygon fill="#e0e0e0" stroke="#999999" points="288,-184 199,-184 199,-165 288,-165 288,-184"/>
<text text-anchor="middle" x="243.5" y="-172" font-family="Helvetica,sans-Serif" font-size="10.00">QtCore/QString</text>
</a>
</g>
</g>
<!-- Node5&#45;&gt;Node7 -->
<g id="edge6_Node000005_Node000007" class="edge">
<title>Node5&#45;&gt;Node7</title>
<g id="a_edge6_Node000005_Node000007"><a xlink:title=" ">
<path fill="none" stroke="#63b8ff" d="M243.5,-219.75C243.5,-212.8 243.5,-202.85 243.5,-194.13"/>
<polygon fill="#63b8ff" stroke="#63b8ff" points="247,-194.09 243.5,-184.09 240,-194.09 247,-194.09"/>
</a>
</g>
</g>
<!-- Node8 -->
<g id="Node000008" class="node">
<title>Node8</title>
<g id="a_Node000008"><a xlink:href="qserialport_8h.html" target="_top" xlink:title=" ">
<polygon fill="white" stroke="#666666" points="644.5,-184 566.5,-184 566.5,-165 644.5,-165 644.5,-184"/>
<text text-anchor="middle" x="605.5" y="-172" font-family="Helvetica,sans-Serif" font-size="10.00">qserialport.h</text>
</a>
</g>
</g>
<!-- Node5&#45;&gt;Node8 -->
<g id="edge7_Node000005_Node000008" class="edge">
<title>Node5&#45;&gt;Node8</title>
<g id="a_edge7_Node000005_Node000008"><a xlink:title=" ">
<path fill="none" stroke="#63b8ff" d="M289.11,-221.42C292.29,-220.93 295.44,-220.46 298.5,-220 389.38,-206.39 495.5,-191.15 556.17,-182.51"/>
<polygon fill="#63b8ff" stroke="#63b8ff" points="556.82,-185.95 566.23,-181.07 555.83,-179.02 556.82,-185.95"/>
</a>
</g>
</g>
<!-- Node5&#45;&gt;Node17 -->
<g id="edge16_Node000005_Node000017" class="edge">
<title>Node5&#45;&gt;Node17</title>
<g id="a_edge16_Node000005_Node000017"><a xlink:title=" ">
<path fill="none" stroke="#63b8ff" d="M225.67,-219.98C207.89,-211.5 180.35,-198.35 159.82,-188.54"/>
<polygon fill="#63b8ff" stroke="#63b8ff" points="161.19,-185.32 150.66,-184.17 158.17,-191.64 161.19,-185.32"/>
</a>
</g>
</g>
<!-- Node9 -->
<g id="Node000009" class="node">
<title>Node9</title>
<g id="a_Node000009"><a xlink:title=" ">
<polygon fill="#e0e0e0" stroke="#999999" points="723.5,-129 613.5,-129 613.5,-110 723.5,-110 723.5,-129"/>
<text text-anchor="middle" x="668.5" y="-117" font-family="Helvetica,sans-Serif" font-size="10.00">QtCore/qiodevice.h</text>
</a>
</g>
</g>
<!-- Node8&#45;&gt;Node9 -->
<g id="edge8_Node000008_Node000009" class="edge">
<title>Node8&#45;&gt;Node9</title>
<g id="a_edge8_Node000008_Node000009"><a xlink:title=" ">
<path fill="none" stroke="#63b8ff" d="M615.62,-164.98C624.94,-157.15 638.97,-145.34 650.24,-135.86"/>
<polygon fill="#63b8ff" stroke="#63b8ff" points="652.79,-138.29 658.19,-129.17 648.29,-132.93 652.79,-138.29"/>
</a>
</g>
</g>
<!-- Node10 -->
<g id="Node000010" class="node">
<title>Node10</title>
<g id="a_Node000010"><a xlink:href="qserialportglobal_8h.html" target="_top" xlink:title=" ">
<polygon fill="white" stroke="#666666" points="595.5,-129 487.5,-129 487.5,-110 595.5,-110 595.5,-129"/>
<text text-anchor="middle" x="541.5" y="-117" font-family="Helvetica,sans-Serif" font-size="10.00">qserialportglobal.h</text>
</a>
</g>
</g>
<!-- Node8&#45;&gt;Node10 -->
<g id="edge9_Node000008_Node000010" class="edge">
<title>Node8&#45;&gt;Node10</title>
<g id="a_edge9_Node000008_Node000010"><a xlink:title=" ">
<path fill="none" stroke="#63b8ff" d="M595.22,-164.98C585.66,-157.07 571.22,-145.11 559.72,-135.58"/>
<polygon fill="#63b8ff" stroke="#63b8ff" points="561.9,-132.85 551.97,-129.17 557.44,-138.24 561.9,-132.85"/>
</a>
</g>
</g>
<!-- Node11 -->
<g id="Node000011" class="node">
<title>Node11</title>
<g id="a_Node000011"><a xlink:title=" ">
<polygon fill="#e0e0e0" stroke="#999999" points="1038.5,-74 942.5,-74 942.5,-55 1038.5,-55 1038.5,-74"/>
<text text-anchor="middle" x="990.5" y="-62" font-family="Helvetica,sans-Serif" font-size="10.00">QtCore/qstring.h</text>
</a>
</g>
</g>
<!-- Node10&#45;&gt;Node11 -->
<g id="edge10_Node000010_Node000011" class="edge">
<title>Node10&#45;&gt;Node11</title>
<g id="a_edge10_Node000010_Node000011"><a xlink:title=" ">
<path fill="none" stroke="#63b8ff" d="M595.79,-111.11C598.73,-110.73 601.65,-110.36 604.5,-110 720.53,-95.49 856.41,-80.22 932.06,-71.88"/>
<polygon fill="#63b8ff" stroke="#63b8ff" points="932.77,-75.33 942.32,-70.75 932,-68.37 932.77,-75.33"/>
</a>
</g>
</g>
<!-- Node12 -->
<g id="Node000012" class="node">
<title>Node12</title>
<g id="a_Node000012"><a xlink:title=" ">
<polygon fill="#e0e0e0" stroke="#999999" points="653.5,-74 555.5,-74 555.5,-55 653.5,-55 653.5,-74"/>
<text text-anchor="middle" x="604.5" y="-62" font-family="Helvetica,sans-Serif" font-size="10.00">QtCore/qglobal.h</text>
</a>
</g>
</g>
<!-- Node10&#45;&gt;Node12 -->
<g id="edge11_Node000010_Node000012" class="edge">
<title>Node10&#45;&gt;Node12</title>
<g id="a_edge11_Node000010_Node000012"><a xlink:title=" ">
<path fill="none" stroke="#63b8ff" d="M551.62,-109.98C560.94,-102.15 574.97,-90.34 586.24,-80.86"/>
<polygon fill="#63b8ff" stroke="#63b8ff" points="588.79,-83.29 594.19,-74.17 584.29,-77.93 588.79,-83.29"/>
</a>
</g>
</g>
<!-- Node13 -->
<g id="Node000013" class="node">
<title>Node13</title>
<g id="a_Node000013"><a xlink:href="qtserialportexports_8h.html" target="_top" xlink:title=" ">
<polygon fill="white" stroke="#666666" points="537,-74 418,-74 418,-55 537,-55 537,-74"/>
<text text-anchor="middle" x="477.5" y="-62" font-family="Helvetica,sans-Serif" font-size="10.00">qtserialportexports.h</text>
</a>
</g>
</g>
<!-- Node10&#45;&gt;Node13 -->
<g id="edge12_Node000010_Node000013" class="edge">
<title>Node10&#45;&gt;Node13</title>
<g id="a_edge12_Node000010_Node000013"><a xlink:title=" ">
<path fill="none" stroke="#63b8ff" d="M531.22,-109.98C521.66,-102.07 507.22,-90.11 495.72,-80.58"/>
<polygon fill="#63b8ff" stroke="#63b8ff" points="497.9,-77.85 487.97,-74.17 493.44,-83.24 497.9,-77.85"/>
</a>
</g>
</g>
<!-- Node14 -->
<g id="Node000014" class="node">
<title>Node14</title>
<g id="a_Node000014"><a xlink:title=" ">
<polygon fill="#e0e0e0" stroke="#999999" points="391,-19 234,-19 234,0 391,0 391,-19"/>
<text text-anchor="middle" x="312.5" y="-7" font-family="Helvetica,sans-Serif" font-size="10.00">QtCore/qcompilerdetection.h</text>
</a>
</g>
</g>
<!-- Node13&#45;&gt;Node14 -->
<g id="edge13_Node000013_Node000014" class="edge">
<title>Node13&#45;&gt;Node14</title>
<g id="a_edge13_Node000013_Node000014"><a xlink:title=" ">
<path fill="none" stroke="#63b8ff" d="M450.99,-54.98C423.29,-46.09 379.64,-32.07 348.76,-22.15"/>
<polygon fill="#63b8ff" stroke="#63b8ff" points="349.81,-18.81 339.22,-19.08 347.67,-25.47 349.81,-18.81"/>
</a>
</g>
</g>
<!-- Node15 -->
<g id="Node000015" class="node">
<title>Node15</title>
<g id="a_Node000015"><a xlink:title=" ">
<polygon fill="#e0e0e0" stroke="#999999" points="546,-19 409,-19 409,0 546,0 546,-19"/>
<text text-anchor="middle" x="477.5" y="-7" font-family="Helvetica,sans-Serif" font-size="10.00">QtCore/qtconfigmacros.h</text>
</a>
</g>
</g>
<!-- Node13&#45;&gt;Node15 -->
<g id="edge14_Node000013_Node000015" class="edge">
<title>Node13&#45;&gt;Node15</title>
<g id="a_edge14_Node000013_Node000015"><a xlink:title=" ">
<path fill="none" stroke="#63b8ff" d="M477.5,-54.75C477.5,-47.8 477.5,-37.85 477.5,-29.13"/>
<polygon fill="#63b8ff" stroke="#63b8ff" points="481,-29.09 477.5,-19.09 474,-29.09 481,-29.09"/>
</a>
</g>
</g>
<!-- Node16 -->
<g id="Node000016" class="node">
<title>Node16</title>
<g id="a_Node000016"><a xlink:title=" ">
<polygon fill="#e0e0e0" stroke="#999999" points="734.5,-19 564.5,-19 564.5,0 734.5,0 734.5,-19"/>
<text text-anchor="middle" x="649.5" y="-7" font-family="Helvetica,sans-Serif" font-size="10.00">QtCore/qtdeprecationmarkers.h</text>
</a>
</g>
</g>
<!-- Node13&#45;&gt;Node16 -->
<g id="edge15_Node000013_Node000016" class="edge">
<title>Node13&#45;&gt;Node16</title>
<g id="a_edge15_Node000013_Node000016"><a xlink:title=" ">
<path fill="none" stroke="#63b8ff" d="M505.13,-54.98C534.01,-46.09 579.51,-32.07 611.7,-22.15"/>
<polygon fill="#63b8ff" stroke="#63b8ff" points="613.12,-25.37 621.65,-19.08 611.06,-18.68 613.12,-25.37"/>
</a>
</g>
</g>
<!-- Node17&#45;&gt;Node10 -->
<g id="edge19_Node000017_Node000010" class="edge">
<title>Node17&#45;&gt;Node10</title>
<g id="a_edge19_Node000017_Node000010"><a xlink:title=" ">
<path fill="none" stroke="#63b8ff" d="M181.31,-166.15C184.08,-165.75 186.82,-165.37 189.5,-165 289.97,-151.16 406.82,-136.71 477.41,-128.17"/>
<polygon fill="#63b8ff" stroke="#63b8ff" points="477.97,-131.62 487.48,-126.95 477.13,-124.68 477.97,-131.62"/>
</a>
</g>
</g>
<!-- Node18 -->
<g id="Node000018" class="node">
<title>Node18</title>
<g id="a_Node000018"><a xlink:title=" ">
<polygon fill="#e0e0e0" stroke="#999999" points="238,-129 155,-129 155,-110 238,-110 238,-129"/>
<text text-anchor="middle" x="196.5" y="-117" font-family="Helvetica,sans-Serif" font-size="10.00">QtCore/qlist.h</text>
</a>
</g>
</g>
<!-- Node17&#45;&gt;Node18 -->
<g id="edge17_Node000017_Node000018" class="edge">
<title>Node17&#45;&gt;Node18</title>
<g id="a_edge17_Node000017_Node000018"><a xlink:title=" ">
<path fill="none" stroke="#63b8ff" d="M142.78,-164.98C152.34,-157.07 166.78,-145.11 178.28,-135.58"/>
<polygon fill="#63b8ff" stroke="#63b8ff" points="180.56,-138.24 186.03,-129.17 176.1,-132.85 180.56,-138.24"/>
</a>
</g>
</g>
<!-- Node19 -->
<g id="Node000019" class="node">
<title>Node19</title>
<g id="a_Node000019"><a xlink:title=" ">
<polygon fill="#e0e0e0" stroke="#999999" points="137,-129 0,-129 0,-110 137,-110 137,-129"/>
<text text-anchor="middle" x="68.5" y="-117" font-family="Helvetica,sans-Serif" font-size="10.00">QtCore/qscopedpointer.h</text>
</a>
</g>
</g>
<!-- Node17&#45;&gt;Node19 -->
<g id="edge18_Node000017_Node000019" class="edge">
<title>Node17&#45;&gt;Node19</title>
<g id="a_edge18_Node000017_Node000019"><a xlink:title=" ">
<path fill="none" stroke="#63b8ff" d="M122.22,-164.98C112.66,-157.07 98.22,-145.11 86.72,-135.58"/>
<polygon fill="#63b8ff" stroke="#63b8ff" points="88.9,-132.85 78.97,-129.17 84.44,-138.24 88.9,-132.85"/>
</a>
</g>
</g>
<!-- Node20&#45;&gt;Node3 -->
<g id="edge21_Node000020_Node000003" class="edge">
<title>Node20&#45;&gt;Node3</title>
<g id="a_edge21_Node000020_Node000003"><a xlink:title=" ">
<path fill="none" stroke="#63b8ff" d="M517.73,-278.27C441.67,-269.39 286.19,-251.24 190.29,-240.05"/>
<polygon fill="#63b8ff" stroke="#63b8ff" points="190.68,-236.57 180.34,-238.89 189.87,-243.52 190.68,-236.57"/>
</a>
</g>
</g>
<!-- Node20&#45;&gt;Node5 -->
<g id="edge27_Node000020_Node000005" class="edge">
<title>Node20&#45;&gt;Node5</title>
<g id="a_edge27_Node000020_Node000005"><a xlink:title=" ">
<path fill="none" stroke="#63b8ff" d="M517.81,-276.07C460.55,-266.56 361.31,-250.07 299.19,-239.75"/>
<polygon fill="#63b8ff" stroke="#63b8ff" points="299.62,-236.28 289.18,-238.09 298.47,-243.18 299.62,-236.28"/>
</a>
</g>
</g>
<!-- Node20&#45;&gt;Node8 -->
<g id="edge28_Node000020_Node000008" class="edge">
<title>Node20&#45;&gt;Node8</title>
<g id="a_edge28_Node000020_Node000008"><a xlink:title=" ">
<path fill="none" stroke="#63b8ff" d="M607.3,-276.8C648.46,-269.63 705.06,-256.82 718.5,-239 739.43,-211.26 694,-193.88 654.65,-184.46"/>
<polygon fill="#63b8ff" stroke="#63b8ff" points="655.34,-181.03 644.82,-182.23 653.8,-187.85 655.34,-181.03"/>
</a>
</g>
</g>
<!-- Node21 -->
<g id="Node000021" class="node">
<title>Node21</title>
<g id="a_Node000021"><a xlink:title=" ">
<polygon fill="#e0e0e0" stroke="#999999" points="857.5,-239 765.5,-239 765.5,-220 857.5,-220 857.5,-239"/>
<text text-anchor="middle" x="811.5" y="-227" font-family="Helvetica,sans-Serif" font-size="10.00">QtCore/QMutex</text>
</a>
</g>
</g>
<!-- Node20&#45;&gt;Node21 -->
<g id="edge22_Node000020_Node000021" class="edge">
<title>Node20&#45;&gt;Node21</title>
<g id="a_edge22_Node000020_Node000021"><a xlink:title=" ">
<path fill="none" stroke="#63b8ff" d="M602.51,-274.98C645.67,-265.8 714.48,-251.15 761.26,-241.19"/>
<polygon fill="#63b8ff" stroke="#63b8ff" points="762.13,-244.59 771.18,-239.08 760.67,-237.74 762.13,-244.59"/>
</a>
</g>
</g>
<!-- Node22 -->
<g id="Node000022" class="node">
<title>Node22</title>
<g id="a_Node000022"><a xlink:title=" ">
<polygon fill="#e0e0e0" stroke="#999999" points="1005,-239 876,-239 876,-220 1005,-220 1005,-239"/>
<text text-anchor="middle" x="940.5" y="-227" font-family="Helvetica,sans-Serif" font-size="10.00">QtCore/QWaitCondition</text>
</a>
</g>
</g>
<!-- Node20&#45;&gt;Node22 -->
<g id="edge23_Node000020_Node000022" class="edge">
<title>Node20&#45;&gt;Node22</title>
<g id="a_edge23_Node000020_Node000022"><a xlink:title=" ">
<path fill="none" stroke="#63b8ff" d="M607.35,-277.21C672.2,-268.12 792.8,-251.21 869.73,-240.42"/>
<polygon fill="#63b8ff" stroke="#63b8ff" points="870.4,-243.86 879.82,-239.01 869.43,-236.93 870.4,-243.86"/>
</a>
</g>
</g>
<!-- Node23 -->
<g id="Node000023" class="node">
<title>Node23</title>
<g id="a_Node000023"><a xlink:title=" ">
<polygon fill="#e0e0e0" stroke="#999999" points="465.5,-239 307.5,-239 307.5,-220 465.5,-220 465.5,-239"/>
<text text-anchor="middle" x="386.5" y="-227" font-family="Helvetica,sans-Serif" font-size="10.00">QtCore/private/qiodevice_p.h</text>
</a>
</g>
</g>
<!-- Node20&#45;&gt;Node23 -->
<g id="edge24_Node000020_Node000023" class="edge">
<title>Node20&#45;&gt;Node23</title>
<g id="a_edge24_Node000020_Node000023"><a xlink:title=" ">
<path fill="none" stroke="#63b8ff" d="M534.22,-274.98C504.55,-266.05 457.71,-251.94 424.75,-242.02"/>
<polygon fill="#63b8ff" stroke="#63b8ff" points="425.58,-238.61 415,-239.08 423.57,-245.32 425.58,-238.61"/>
</a>
</g>
</g>
<!-- Node24 -->
<g id="Node000024" class="node">
<title>Node24</title>
<g id="a_Node000024"><a xlink:title=" ">
<polygon fill="#e0e0e0" stroke="#999999" points="641.5,-239 483.5,-239 483.5,-220 641.5,-220 641.5,-239"/>
<text text-anchor="middle" x="562.5" y="-227" font-family="Helvetica,sans-Serif" font-size="10.00">QtCore/private/qproperty_p.h</text>
</a>
</g>
</g>
<!-- Node20&#45;&gt;Node24 -->
<g id="edge25_Node000020_Node000024" class="edge">
<title>Node20&#45;&gt;Node24</title>
<g id="a_edge25_Node000020_Node000024"><a xlink:title=" ">
<path fill="none" stroke="#63b8ff" d="M562.5,-274.75C562.5,-267.8 562.5,-257.85 562.5,-249.13"/>
<polygon fill="#63b8ff" stroke="#63b8ff" points="566,-249.09 562.5,-239.09 559,-249.09 566,-249.09"/>
</a>
</g>
</g>
<!-- Node25 -->
<g id="Node000025" class="node">
<title>Node25</title>
<g id="a_Node000025"><a xlink:title=" ">
<polygon fill="#e0e0e0" stroke="#999999" points="709.5,-239 659.5,-239 659.5,-220 709.5,-220 709.5,-239"/>
<text text-anchor="middle" x="684.5" y="-227" font-family="Helvetica,sans-Serif" font-size="10.00">atomic</text>
</a>
</g>
</g>
<!-- Node20&#45;&gt;Node25 -->
<g id="edge26_Node000020_Node000025" class="edge">
<title>Node20&#45;&gt;Node25</title>
<g id="a_edge26_Node000020_Node000025"><a xlink:title=" ">
<path fill="none" stroke="#63b8ff" d="M582.1,-274.98C601.82,-266.42 632.45,-253.11 655.08,-243.28"/>
<polygon fill="#63b8ff" stroke="#63b8ff" points="656.76,-246.37 664.54,-239.17 653.98,-239.94 656.76,-246.37"/>
</a>
</g>
</g>
<!-- Node26&#45;&gt;Node11 -->
<g id="edge31_Node000026_Node000011" class="edge">
<title>Node26&#45;&gt;Node11</title>
<g id="a_edge31_Node000026_Node000011"><a xlink:title=" ">
<path fill="none" stroke="#63b8ff" d="M1126.68,-274.94C1155.28,-265.05 1192.13,-246.64 1179.5,-220 1146.01,-149.36 1062.65,-100.3 1018.68,-78.4"/>
<polygon fill="#63b8ff" stroke="#63b8ff" points="1020.2,-75.25 1009.67,-74.02 1017.13,-81.54 1020.2,-75.25"/>
</a>
</g>
</g>
<!-- Node27 -->
<g id="Node000027" class="node">
<title>Node27</title>
<g id="a_Node000027"><a xlink:title=" ">
<polygon fill="#e0e0e0" stroke="#999999" points="1170,-239 1023,-239 1023,-220 1170,-220 1170,-239"/>
<text text-anchor="middle" x="1096.5" y="-227" font-family="Helvetica,sans-Serif" font-size="10.00">QtCore/private/qglobal_p.h</text>
</a>
</g>
</g>
<!-- Node26&#45;&gt;Node27 -->
<g id="edge32_Node000026_Node000027" class="edge">
<title>Node26&#45;&gt;Node27</title>
<g id="a_edge32_Node000026_Node000027"><a xlink:title=" ">
<path fill="none" stroke="#63b8ff" d="M1096.5,-274.75C1096.5,-267.8 1096.5,-257.85 1096.5,-249.13"/>
<polygon fill="#63b8ff" stroke="#63b8ff" points="1100,-249.09 1096.5,-239.09 1093,-249.09 1100,-249.09"/>
</a>
</g>
</g>
</g>
</svg>

<g id="navigator" transform="translate(0 0)" fill="#404254">
  <rect fill="#f2f5e9" fill-opacity="0.5" stroke="#606060" stroke-width=".5" x="0" y="0" width="60" height="60"/>
  <use id="zoomplus" xlink:href="#zoomPlus" x="17" y="9" onmousedown="handleZoom(evt,'in')"/>
  <use id="zoomminus" xlink:href="#zoomMin" x="42" y="9" onmousedown="handleZoom(evt,'out')"/>
  <use id="reset" xlink:href="#resetDef" x="30" y="36" onmousedown="handleReset()"/>
   <use id="arrowup" xlink:href="#arrowUp" x="0" y="0" onmousedown="handlePan(0,-1)"/>
  <use id="arrowright" xlink:href="#arrowRight" x="0" y="0" onmousedown="handlePan(1,0)"/>
  <use id="arrowdown" xlink:href="#arrowDown" x="0" y="0" onmousedown="handlePan(0,1)"/>
  <use id="arrowleft" xlink:href="#arrowLeft" x="0" y="0" onmousedown="handlePan(-1,0)"/>
</g>
<svg viewBox="0 0 15 15" width="100%" height="30px" preserveAspectRatio="xMaxYMin meet">
 <g id="arrow_out" transform="scale(0.3 0.3)">
  <a xlink:href="qserialportinfo__android_8cpp__incl_org.svg" target="_base">
   <rect id="button" ry="5" rx="5" y="6" x="6" height="38" width="38"
        fill="#f2f5e9" fill-opacity="0.5" stroke="#606060" stroke-width="1.0"/>
   <path id="arrow"
     d="M 11.500037,31.436501 C 11.940474,20.09759 22.043105,11.32322 32.158766,21.979434 L 37.068811,17.246167 C 37.068811,17.246167 37.088388,32 37.088388,32 L 22.160133,31.978069 C 22.160133,31.978069 26.997745,27.140456 26.997745,27.140456 C 18.528582,18.264221 13.291696,25.230495 11.500037,31.436501 z"
     style="fill:#404040;"/>
  </a>
 </g>
</svg>

<style type='text/css'>
<![CDATA[
[data-mouse-over-selected='false'] { opacity: 0.7; }
[data-mouse-over-selected='true']  { opacity: 1.0; }
]]>
</style>
<script type="application/ecmascript"><![CDATA[
document.addEventListener('DOMContentLoaded', (event) => {
  highlightEdges();
  highlightAdjacentNodes();
});
]]></script>
</svg>
