<?xml version="1.0" encoding="UTF-8" standalone="no"?>
<!DOCTYPE svg PUBLIC "-//W3C//DTD SVG 1.1//EN"
 "http://www.w3.org/Graphics/SVG/1.1/DTD/svg11.dtd">
<!-- Generated by graphviz version 2.43.0 (0)
 -->
<!-- Title: src/VideoManager/VideoReceiver/GStreamer/gstqgc/gstqml6gl/qt6/qt6glitem.h Pages: 1 -->
<svg width="970pt" height="203pt"
 viewBox="0.00 0.00 970.00 203.00" xmlns="http://www.w3.org/2000/svg" xmlns:xlink="http://www.w3.org/1999/xlink">
<g id="graph0" class="graph" transform="scale(1 1) rotate(0) translate(4 199)">
<title>src/VideoManager/VideoReceiver/GStreamer/gstqgc/gstqml6gl/qt6/qt6glitem.h</title>
<!-- Node1 -->
<g id="Node000001" class="node">
<title>Node1</title>
<g id="a_Node000001"><a xlink:title=" ">
<polygon fill="#999999" stroke="#666666" points="570,-195 392,-195 392,-154 570,-154 570,-195"/>
<text text-anchor="start" x="400" y="-183" font-family="Helvetica,sans-Serif" font-size="10.00">src/VideoManager/VideoReceiver</text>
<text text-anchor="start" x="400" y="-172" font-family="Helvetica,sans-Serif" font-size="10.00">/GStreamer/gstqgc/gstqml6gl</text>
<text text-anchor="middle" x="481" y="-161" font-family="Helvetica,sans-Serif" font-size="10.00">/qt6/qt6glitem.h</text>
</a>
</g>
</g>
<!-- Node2 -->
<g id="Node000002" class="node">
<title>Node2</title>
<g id="a_Node000002"><a xlink:href="gstqml6glregister_8cpp.html" target="_top" xlink:title=" ">
<polygon fill="white" stroke="#666666" points="178,-118 0,-118 0,-77 178,-77 178,-118"/>
<text text-anchor="start" x="8" y="-106" font-family="Helvetica,sans-Serif" font-size="10.00">src/VideoManager/VideoReceiver</text>
<text text-anchor="start" x="8" y="-95" font-family="Helvetica,sans-Serif" font-size="10.00">/GStreamer/gstqgc/gstqml6gl</text>
<text text-anchor="middle" x="89" y="-84" font-family="Helvetica,sans-Serif" font-size="10.00">/gstqml6glregister.cpp</text>
</a>
</g>
</g>
<!-- Node1&#45;&gt;Node2 -->
<g id="edge1_Node000001_Node000002" class="edge">
<title>Node1&#45;&gt;Node2</title>
<g id="a_edge1_Node000001_Node000002"><a xlink:title=" ">
<path fill="none" stroke="#63b8ff" d="M381.77,-155.02C324.76,-144.34 251.82,-130.57 187,-118 184.1,-117.44 181.16,-116.87 178.19,-116.29"/>
<polygon fill="#63b8ff" stroke="#63b8ff" points="381.39,-158.51 391.86,-156.91 382.68,-151.63 381.39,-158.51"/>
</a>
</g>
</g>
<!-- Node3 -->
<g id="Node000003" class="node">
<title>Node3</title>
<g id="a_Node000003"><a xlink:href="gstplugin_8cc.html" target="_top" xlink:title=" ">
<polygon fill="white" stroke="#666666" points="374,-118 196,-118 196,-77 374,-77 374,-118"/>
<text text-anchor="start" x="204" y="-106" font-family="Helvetica,sans-Serif" font-size="10.00">src/VideoManager/VideoReceiver</text>
<text text-anchor="start" x="204" y="-95" font-family="Helvetica,sans-Serif" font-size="10.00">/GStreamer/gstqgc/gstqml6gl</text>
<text text-anchor="middle" x="285" y="-84" font-family="Helvetica,sans-Serif" font-size="10.00">/qt6/gstplugin.cc</text>
</a>
</g>
</g>
<!-- Node1&#45;&gt;Node3 -->
<g id="edge2_Node000001_Node000003" class="edge">
<title>Node1&#45;&gt;Node3</title>
<g id="a_edge2_Node000001_Node000003"><a xlink:title=" ">
<path fill="none" stroke="#63b8ff" d="M420.64,-150.4C393.56,-140.04 361.96,-127.95 336.07,-118.04"/>
<polygon fill="#63b8ff" stroke="#63b8ff" points="419.42,-153.69 430.01,-153.99 421.93,-147.15 419.42,-153.69"/>
</a>
</g>
</g>
<!-- Node4 -->
<g id="Node000004" class="node">
<title>Node4</title>
<g id="a_Node000004"><a xlink:href="gstqml6glsink_8h.html" target="_top" xlink:title=" ">
<polygon fill="white" stroke="#666666" points="570,-118 392,-118 392,-77 570,-77 570,-118"/>
<text text-anchor="start" x="400" y="-106" font-family="Helvetica,sans-Serif" font-size="10.00">src/VideoManager/VideoReceiver</text>
<text text-anchor="start" x="400" y="-95" font-family="Helvetica,sans-Serif" font-size="10.00">/GStreamer/gstqgc/gstqml6gl</text>
<text text-anchor="middle" x="481" y="-84" font-family="Helvetica,sans-Serif" font-size="10.00">/qt6/gstqml6glsink.h</text>
</a>
</g>
</g>
<!-- Node1&#45;&gt;Node4 -->
<g id="edge3_Node000001_Node000004" class="edge">
<title>Node1&#45;&gt;Node4</title>
<g id="a_edge3_Node000001_Node000004"><a xlink:title=" ">
<path fill="none" stroke="#63b8ff" d="M481,-143.69C481,-135.08 481,-125.9 481,-118.07"/>
<polygon fill="#63b8ff" stroke="#63b8ff" points="477.5,-143.79 481,-153.79 484.5,-143.79 477.5,-143.79"/>
</a>
</g>
</g>
<!-- Node6 -->
<g id="Node000006" class="node">
<title>Node6</title>
<g id="a_Node000006"><a xlink:href="gstqt6element_8cc.html" target="_top" xlink:title=" ">
<polygon fill="white" stroke="#666666" points="766,-118 588,-118 588,-77 766,-77 766,-118"/>
<text text-anchor="start" x="596" y="-106" font-family="Helvetica,sans-Serif" font-size="10.00">src/VideoManager/VideoReceiver</text>
<text text-anchor="start" x="596" y="-95" font-family="Helvetica,sans-Serif" font-size="10.00">/GStreamer/gstqgc/gstqml6gl</text>
<text text-anchor="middle" x="677" y="-84" font-family="Helvetica,sans-Serif" font-size="10.00">/qt6/gstqt6element.cc</text>
</a>
</g>
</g>
<!-- Node1&#45;&gt;Node6 -->
<g id="edge5_Node000001_Node000006" class="edge">
<title>Node1&#45;&gt;Node6</title>
<g id="a_edge5_Node000001_Node000006"><a xlink:title=" ">
<path fill="none" stroke="#63b8ff" d="M541.36,-150.4C568.44,-140.04 600.04,-127.95 625.93,-118.04"/>
<polygon fill="#63b8ff" stroke="#63b8ff" points="540.07,-147.15 531.99,-153.99 542.58,-153.69 540.07,-147.15"/>
</a>
</g>
</g>
<!-- Node7 -->
<g id="Node000007" class="node">
<title>Node7</title>
<g id="a_Node000007"><a xlink:href="qt6glitem_8cc.html" target="_top" xlink:title=" ">
<polygon fill="white" stroke="#666666" points="962,-118 784,-118 784,-77 962,-77 962,-118"/>
<text text-anchor="start" x="792" y="-106" font-family="Helvetica,sans-Serif" font-size="10.00">src/VideoManager/VideoReceiver</text>
<text text-anchor="start" x="792" y="-95" font-family="Helvetica,sans-Serif" font-size="10.00">/GStreamer/gstqgc/gstqml6gl</text>
<text text-anchor="middle" x="873" y="-84" font-family="Helvetica,sans-Serif" font-size="10.00">/qt6/qt6glitem.cc</text>
</a>
</g>
</g>
<!-- Node1&#45;&gt;Node7 -->
<g id="edge6_Node000001_Node000007" class="edge">
<title>Node1&#45;&gt;Node7</title>
<g id="a_edge6_Node000001_Node000007"><a xlink:title=" ">
<path fill="none" stroke="#63b8ff" d="M580.23,-155.02C637.24,-144.34 710.18,-130.57 775,-118 777.9,-117.44 780.84,-116.87 783.81,-116.29"/>
<polygon fill="#63b8ff" stroke="#63b8ff" points="579.32,-151.63 570.14,-156.91 580.61,-158.51 579.32,-151.63"/>
</a>
</g>
</g>
<!-- Node5 -->
<g id="Node000005" class="node">
<title>Node5</title>
<g id="a_Node000005"><a xlink:href="gstqml6glsink_8cc.html" target="_top" xlink:title=" ">
<polygon fill="white" stroke="#666666" points="570,-41 392,-41 392,0 570,0 570,-41"/>
<text text-anchor="start" x="400" y="-29" font-family="Helvetica,sans-Serif" font-size="10.00">src/VideoManager/VideoReceiver</text>
<text text-anchor="start" x="400" y="-18" font-family="Helvetica,sans-Serif" font-size="10.00">/GStreamer/gstqgc/gstqml6gl</text>
<text text-anchor="middle" x="481" y="-7" font-family="Helvetica,sans-Serif" font-size="10.00">/qt6/gstqml6glsink.cc</text>
</a>
</g>
</g>
<!-- Node4&#45;&gt;Node5 -->
<g id="edge4_Node000004_Node000005" class="edge">
<title>Node4&#45;&gt;Node5</title>
<g id="a_edge4_Node000004_Node000005"><a xlink:title=" ">
<path fill="none" stroke="#63b8ff" d="M481,-66.69C481,-58.08 481,-48.9 481,-41.07"/>
<polygon fill="#63b8ff" stroke="#63b8ff" points="477.5,-66.79 481,-76.79 484.5,-66.79 477.5,-66.79"/>
</a>
</g>
</g>
</g>
</svg>
