<?xml version="1.0" encoding="UTF-8" standalone="no"?>
<!DOCTYPE svg PUBLIC "-//W3C//DTD SVG 1.1//EN"
 "http://www.w3.org/Graphics/SVG/1.1/DTD/svg11.dtd">
<!-- Generated by graphviz version 2.43.0 (0)
 -->
<!-- Title: src/Android/qtandroidserialport/qtserialportexports.h Pages: 1 -->
<!--zoomable 357 -->

<svg id="main" version="1.1" xmlns="http://www.w3.org/2000/svg" xmlns:xlink="http://www.w3.org/1999/xlink" xml:space="preserve" onload="init(evt)">
<style type="text/css"><![CDATA[
.node, .edge {opacity: 0.7;}
.node.selected, .edge.selected {opacity: 1;}
.edge:hover path { stroke: red; }
.edge:hover polygon { stroke: red; fill: red; }
]]></style>

<defs>
  <circle id="rim" cx="0" cy="0" r="7"/>
  <circle id="rim2" cx="0" cy="0" r="3.5"/>
  <g id="zoomPlus">
    <use xlink:href="#rim" fill="#404040"><set attributeName="fill" to="#808080" begin="zoomplus.mouseover" end="zoomplus.mouseout"/></use>
    <path d="M-4,0h8M0,-4v8" fill="none" stroke="white" stroke-width="1.5" pointer-events="none"/>
  </g>
  <g id="zoomMin">
    <use xlink:href="#rim" fill="#404040"><set attributeName="fill" to="#808080" begin="zoomminus.mouseover" end="zoomminus.mouseout"/></use>
    <path d="M-4,0h8" fill="none" stroke="white" stroke-width="1.5" pointer-events="none"/>
  </g>
  <g id="arrowUp" transform="translate(30 24)">
    <use xlink:href="#rim"/>
    <path pointer-events="none" fill="none" stroke="white" stroke-width="1.5" d="M0,-3.0v7 M-2.5,-0.5L0,-3.0L2.5,-0.5"/>
  </g>
  <g id="arrowRight" transform="rotate(90) translate(36 -43)">
    <use xlink:href="#rim"/>
    <path pointer-events="none" fill="none" stroke="white" stroke-width="1.5" d="M0,-3.0v7 M-2.5,-0.5L0,-3.0L2.5,-0.5"/>
  </g>
  <g id="arrowDown" transform="rotate(180) translate(-30 -48)">
    <use xlink:href="#rim"/>
    <path pointer-events="none" fill="none" stroke="white" stroke-width="1.5" d="M0,-3.0v7 M-2.5,-0.5L0,-3.0L2.5,-0.5"/>
  </g>
  <g id="arrowLeft" transform="rotate(270) translate(-36 17)">
    <use xlink:href="#rim"/>
    <path pointer-events="none" fill="none" stroke="white" stroke-width="1.5" d="M0,-3.0v7 M-2.5,-0.5L0,-3.0L2.5,-0.5"/>
  </g>
  <g id="resetDef">
    <use xlink:href="#rim2" fill="#404040"><set attributeName="fill" to="#808080" begin="reset.mouseover" end="reset.mouseout"/></use>
  </g>
</defs>
<script type="application/ecmascript">
var viewWidth = 901;
var viewHeight = 357;
var sectionId = 'dynsection-1';
</script>
<script type="application/ecmascript" xlink:href="svg.min.js"/>
<svg id="graph" class="graph">
<g id="viewport">
<title>src/Android/qtandroidserialport/qtserialportexports.h</title>
<!-- Node1 -->
<g id="Node000001" class="node">
<title>Node1</title>
<g id="a_Node000001"><a xlink:title=" ">
<polygon fill="#999999" stroke="#666666" points="536,-349 369,-349 369,-319 536,-319 536,-349"/>
<text text-anchor="start" x="377" y="-337" font-family="Helvetica,sans-Serif" font-size="10.00">src/Android/qtandroidserialport</text>
<text text-anchor="middle" x="452.5" y="-326" font-family="Helvetica,sans-Serif" font-size="10.00">/qtserialportexports.h</text>
</a>
</g>
</g>
<!-- Node2 -->
<g id="Node000002" class="node">
<title>Node2</title>
<g id="a_Node000002"><a xlink:href="qserialportglobal_8h.html" target="_top" xlink:title=" ">
<polygon fill="white" stroke="#666666" points="536,-283 369,-283 369,-253 536,-253 536,-283"/>
<text text-anchor="start" x="377" y="-271" font-family="Helvetica,sans-Serif" font-size="10.00">src/Android/qtandroidserialport</text>
<text text-anchor="middle" x="452.5" y="-260" font-family="Helvetica,sans-Serif" font-size="10.00">/qserialportglobal.h</text>
</a>
</g>
</g>
<!-- Node1&#45;&gt;Node2 -->
<g id="edge1_Node000001_Node000002" class="edge">
<title>Node1&#45;&gt;Node2</title>
<g id="a_edge1_Node000001_Node000002"><a xlink:title=" ">
<path fill="none" stroke="#63b8ff" d="M452.5,-308.54C452.5,-299.96 452.5,-290.61 452.5,-283.16"/>
<polygon fill="#63b8ff" stroke="#63b8ff" points="449,-308.8 452.5,-318.8 456,-308.8 449,-308.8"/>
</a>
</g>
</g>
<!-- Node3 -->
<g id="Node000003" class="node">
<title>Node3</title>
<g id="a_Node000003"><a xlink:href="qserialport_8h.html" target="_top" xlink:title=" ">
<polygon fill="white" stroke="#666666" points="444,-217 277,-217 277,-187 444,-187 444,-217"/>
<text text-anchor="start" x="285" y="-205" font-family="Helvetica,sans-Serif" font-size="10.00">src/Android/qtandroidserialport</text>
<text text-anchor="middle" x="360.5" y="-194" font-family="Helvetica,sans-Serif" font-size="10.00">/qserialport.h</text>
</a>
</g>
</g>
<!-- Node2&#45;&gt;Node3 -->
<g id="edge2_Node000002_Node000003" class="edge">
<title>Node2&#45;&gt;Node3</title>
<g id="a_edge2_Node000002_Node000003"><a xlink:title=" ">
<path fill="none" stroke="#63b8ff" d="M423.79,-247.03C409.87,-237.34 393.47,-225.94 380.86,-217.16"/>
<polygon fill="#63b8ff" stroke="#63b8ff" points="421.87,-249.96 432.08,-252.8 425.87,-244.21 421.87,-249.96"/>
</a>
</g>
</g>
<!-- Node12 -->
<g id="Node000012" class="node">
<title>Node12</title>
<g id="a_Node000012"><a xlink:href="qserialportinfo_8h.html" target="_top" xlink:title=" ">
<polygon fill="white" stroke="#666666" points="629,-217 462,-217 462,-187 629,-187 629,-217"/>
<text text-anchor="start" x="470" y="-205" font-family="Helvetica,sans-Serif" font-size="10.00">src/Android/qtandroidserialport</text>
<text text-anchor="middle" x="545.5" y="-194" font-family="Helvetica,sans-Serif" font-size="10.00">/qserialportinfo.h</text>
</a>
</g>
</g>
<!-- Node2&#45;&gt;Node12 -->
<g id="edge16_Node000002_Node000012" class="edge">
<title>Node2&#45;&gt;Node12</title>
<g id="a_edge16_Node000002_Node000012"><a xlink:title=" ">
<path fill="none" stroke="#63b8ff" d="M481.52,-247.03C495.59,-237.34 512.17,-225.94 524.92,-217.16"/>
<polygon fill="#63b8ff" stroke="#63b8ff" points="479.39,-244.24 473.14,-252.8 483.36,-250.01 479.39,-244.24"/>
</a>
</g>
</g>
<!-- Node4 -->
<g id="Node000004" class="node">
<title>Node4</title>
<g id="a_Node000004"><a xlink:href="AndroidSerial_8h.html" target="_top" xlink:title=" ">
<polygon fill="white" stroke="#666666" points="618,-151 469,-151 469,-132 618,-132 618,-151"/>
<text text-anchor="middle" x="543.5" y="-139" font-family="Helvetica,sans-Serif" font-size="10.00">src/Android/AndroidSerial.h</text>
</a>
</g>
</g>
<!-- Node3&#45;&gt;Node4 -->
<g id="edge3_Node000003_Node000004" class="edge">
<title>Node3&#45;&gt;Node4</title>
<g id="a_edge3_Node000003_Node000004"><a xlink:title=" ">
<path fill="none" stroke="#63b8ff" d="M414.06,-183.88C447.79,-173.09 489.89,-159.64 516.74,-151.05"/>
<polygon fill="#63b8ff" stroke="#63b8ff" points="412.79,-180.61 404.33,-186.99 414.92,-187.28 412.79,-180.61"/>
</a>
</g>
</g>
<!-- Node7 -->
<g id="Node000007" class="node">
<title>Node7</title>
<g id="a_Node000007"><a xlink:href="qserialport__p_8h.html" target="_top" xlink:title=" ">
<polygon fill="white" stroke="#666666" points="452,-96 285,-96 285,-66 452,-66 452,-96"/>
<text text-anchor="start" x="293" y="-84" font-family="Helvetica,sans-Serif" font-size="10.00">src/Android/qtandroidserialport</text>
<text text-anchor="middle" x="368.5" y="-73" font-family="Helvetica,sans-Serif" font-size="10.00">/qserialport_p.h</text>
</a>
</g>
</g>
<!-- Node3&#45;&gt;Node7 -->
<g id="edge14_Node000003_Node000007" class="edge">
<title>Node3&#45;&gt;Node7</title>
<g id="a_edge14_Node000003_Node000007"><a xlink:title=" ">
<path fill="none" stroke="#63b8ff" d="M362.13,-176.69C363.77,-152.42 366.22,-115.95 367.55,-96.1"/>
<polygon fill="#63b8ff" stroke="#63b8ff" points="358.63,-176.67 361.45,-186.88 365.61,-177.14 358.63,-176.67"/>
</a>
</g>
</g>
<!-- Node8 -->
<g id="Node000008" class="node">
<title>Node8</title>
<g id="a_Node000008"><a xlink:href="qserialport_8cpp.html" target="_top" xlink:title=" ">
<polygon fill="white" stroke="#666666" points="537,-30 370,-30 370,0 537,0 537,-30"/>
<text text-anchor="start" x="378" y="-18" font-family="Helvetica,sans-Serif" font-size="10.00">src/Android/qtandroidserialport</text>
<text text-anchor="middle" x="453.5" y="-7" font-family="Helvetica,sans-Serif" font-size="10.00">/qserialport.cpp</text>
</a>
</g>
</g>
<!-- Node3&#45;&gt;Node8 -->
<g id="edge13_Node000003_Node000008" class="edge">
<title>Node3&#45;&gt;Node8</title>
<g id="a_edge13_Node000003_Node000008"><a xlink:title=" ">
<path fill="none" stroke="#63b8ff" d="M331.82,-180.81C296.95,-153.77 246.15,-104.73 275.5,-66 287.52,-50.14 329.66,-37.91 369.92,-29.52"/>
<polygon fill="#63b8ff" stroke="#63b8ff" points="329.77,-183.64 339.86,-186.87 333.98,-178.05 329.77,-183.64"/>
</a>
</g>
</g>
<!-- Node10 -->
<g id="Node000010" class="node">
<title>Node10</title>
<g id="a_Node000010"><a xlink:href="qserialportinfo_8cpp.html" target="_top" xlink:title=" ">
<polygon fill="white" stroke="#666666" points="167,-30 0,-30 0,0 167,0 167,-30"/>
<text text-anchor="start" x="8" y="-18" font-family="Helvetica,sans-Serif" font-size="10.00">src/Android/qtandroidserialport</text>
<text text-anchor="middle" x="83.5" y="-7" font-family="Helvetica,sans-Serif" font-size="10.00">/qserialportinfo.cpp</text>
</a>
</g>
</g>
<!-- Node3&#45;&gt;Node10 -->
<g id="edge15_Node000003_Node000010" class="edge">
<title>Node3&#45;&gt;Node10</title>
<g id="a_edge15_Node000003_Node000010"><a xlink:title=" ">
<path fill="none" stroke="#63b8ff" d="M328.06,-181.48C313.15,-172.39 295.32,-161.32 279.5,-151 214.1,-108.33 138.43,-55.08 103.31,-30.13"/>
<polygon fill="#63b8ff" stroke="#63b8ff" points="326.55,-184.66 336.91,-186.87 330.18,-178.68 326.55,-184.66"/>
</a>
</g>
</g>
<!-- Node5 -->
<g id="Node000005" class="node">
<title>Node5</title>
<g id="a_Node000005"><a xlink:href="AndroidInit_8cc.html" target="_top" xlink:title=" ">
<polygon fill="white" stroke="#666666" points="611,-90.5 470,-90.5 470,-71.5 611,-71.5 611,-90.5"/>
<text text-anchor="middle" x="540.5" y="-78.5" font-family="Helvetica,sans-Serif" font-size="10.00">src/Android/AndroidInit.cc</text>
</a>
</g>
</g>
<!-- Node4&#45;&gt;Node5 -->
<g id="edge4_Node000004_Node000005" class="edge">
<title>Node4&#45;&gt;Node5</title>
<g id="a_edge4_Node000004_Node000005"><a xlink:title=" ">
<path fill="none" stroke="#63b8ff" d="M542.53,-121.66C542,-111.24 541.36,-98.8 540.94,-90.67"/>
<polygon fill="#63b8ff" stroke="#63b8ff" points="539.05,-122.06 543.06,-131.87 546.04,-121.7 539.05,-122.06"/>
</a>
</g>
</g>
<!-- Node6 -->
<g id="Node000006" class="node">
<title>Node6</title>
<g id="a_Node000006"><a xlink:href="AndroidSerial_8cc.html" target="_top" xlink:title=" ">
<polygon fill="white" stroke="#666666" points="708,-24.5 555,-24.5 555,-5.5 708,-5.5 708,-24.5"/>
<text text-anchor="middle" x="631.5" y="-12.5" font-family="Helvetica,sans-Serif" font-size="10.00">src/Android/AndroidSerial.cc</text>
</a>
</g>
</g>
<!-- Node4&#45;&gt;Node6 -->
<g id="edge5_Node000004_Node000006" class="edge">
<title>Node4&#45;&gt;Node6</title>
<g id="a_edge5_Node000004_Node000006"><a xlink:title=" ">
<path fill="none" stroke="#63b8ff" d="M579,-127.79C593.82,-120.69 609.8,-110.33 619.5,-96 634.54,-73.79 633.81,-40.19 632.48,-24.56"/>
<polygon fill="#63b8ff" stroke="#63b8ff" points="577.24,-124.74 569.52,-131.99 580.08,-131.14 577.24,-124.74"/>
</a>
</g>
</g>
<!-- Node4&#45;&gt;Node7 -->
<g id="edge6_Node000004_Node000007" class="edge">
<title>Node4&#45;&gt;Node7</title>
<g id="a_edge6_Node000004_Node000007"><a xlink:title=" ">
<path fill="none" stroke="#63b8ff" d="M508.22,-128.71C480.02,-119.28 440.42,-106.04 410.57,-96.06"/>
<polygon fill="#63b8ff" stroke="#63b8ff" points="507.46,-132.14 518.05,-131.99 509.68,-125.5 507.46,-132.14"/>
</a>
</g>
</g>
<!-- Node11 -->
<g id="Node000011" class="node">
<title>Node11</title>
<g id="a_Node000011"><a xlink:href="qserialportinfo__android_8cpp.html" target="_top" xlink:title=" ">
<polygon fill="white" stroke="#666666" points="893,-30 726,-30 726,0 893,0 893,-30"/>
<text text-anchor="start" x="734" y="-18" font-family="Helvetica,sans-Serif" font-size="10.00">src/Android/qtandroidserialport</text>
<text text-anchor="middle" x="809.5" y="-7" font-family="Helvetica,sans-Serif" font-size="10.00">/qserialportinfo_android.cpp</text>
</a>
</g>
</g>
<!-- Node4&#45;&gt;Node11 -->
<g id="edge12_Node000004_Node000011" class="edge">
<title>Node4&#45;&gt;Node11</title>
<g id="a_edge12_Node000004_Node000011"><a xlink:title=" ">
<path fill="none" stroke="#63b8ff" d="M571.36,-127.64C590.53,-118.77 616.58,-106.71 639.5,-96 688.71,-73.02 745.82,-46.09 779.74,-30.07"/>
<polygon fill="#63b8ff" stroke="#63b8ff" points="569.89,-124.46 562.28,-131.83 572.82,-130.82 569.89,-124.46"/>
</a>
</g>
</g>
<!-- Node7&#45;&gt;Node6 -->
<g id="edge7_Node000007_Node000006" class="edge">
<title>Node7&#45;&gt;Node6</title>
<g id="a_edge7_Node000007_Node000006"><a xlink:title=" ">
<path fill="none" stroke="#63b8ff" d="M436.22,-63.52C487.46,-51.05 555.74,-34.44 596.5,-24.52"/>
<polygon fill="#63b8ff" stroke="#63b8ff" points="435.11,-60.19 426.22,-65.95 436.76,-66.99 435.11,-60.19"/>
</a>
</g>
</g>
<!-- Node7&#45;&gt;Node8 -->
<g id="edge8_Node000007_Node000008" class="edge">
<title>Node7&#45;&gt;Node8</title>
<g id="a_edge8_Node000007_Node000008"><a xlink:title=" ">
<path fill="none" stroke="#63b8ff" d="M395.39,-59.75C408.17,-50.13 423.14,-38.86 434.69,-30.16"/>
<polygon fill="#63b8ff" stroke="#63b8ff" points="393.25,-56.99 387.36,-65.8 397.46,-62.58 393.25,-56.99"/>
</a>
</g>
</g>
<!-- Node9 -->
<g id="Node000009" class="node">
<title>Node9</title>
<g id="a_Node000009"><a xlink:href="qserialport__android_8cpp.html" target="_top" xlink:title=" ">
<polygon fill="white" stroke="#666666" points="352,-30 185,-30 185,0 352,0 352,-30"/>
<text text-anchor="start" x="193" y="-18" font-family="Helvetica,sans-Serif" font-size="10.00">src/Android/qtandroidserialport</text>
<text text-anchor="middle" x="268.5" y="-7" font-family="Helvetica,sans-Serif" font-size="10.00">/qserialport_android.cpp</text>
</a>
</g>
</g>
<!-- Node7&#45;&gt;Node9 -->
<g id="edge9_Node000007_Node000009" class="edge">
<title>Node7&#45;&gt;Node9</title>
<g id="a_edge9_Node000007_Node000009"><a xlink:title=" ">
<path fill="none" stroke="#63b8ff" d="M337.72,-60.3C322.5,-50.56 304.47,-39.02 290.63,-30.16"/>
<polygon fill="#63b8ff" stroke="#63b8ff" points="336,-63.35 346.31,-65.8 339.77,-57.46 336,-63.35"/>
</a>
</g>
</g>
<!-- Node7&#45;&gt;Node10 -->
<g id="edge10_Node000007_Node000010" class="edge">
<title>Node7&#45;&gt;Node10</title>
<g id="a_edge10_Node000007_Node000010"><a xlink:title=" ">
<path fill="none" stroke="#63b8ff" d="M295.98,-63.71C249.62,-53.31 190.14,-39.95 145.9,-30.01"/>
<polygon fill="#63b8ff" stroke="#63b8ff" points="295.43,-67.18 305.96,-65.95 296.97,-60.35 295.43,-67.18"/>
</a>
</g>
</g>
<!-- Node7&#45;&gt;Node11 -->
<g id="edge11_Node000007_Node000011" class="edge">
<title>Node7&#45;&gt;Node11</title>
<g id="a_edge11_Node000007_Node000011"><a xlink:title=" ">
<path fill="none" stroke="#63b8ff" d="M462.37,-65.74C575.87,-49.19 606.02,-46.08 716.5,-30 719.57,-29.55 722.7,-29.1 725.85,-28.63"/>
<polygon fill="#63b8ff" stroke="#63b8ff" points="461.62,-62.31 452.23,-67.22 462.63,-69.23 461.62,-62.31"/>
</a>
</g>
</g>
<!-- Node12&#45;&gt;Node4 -->
<g id="edge17_Node000012_Node000004" class="edge">
<title>Node12&#45;&gt;Node4</title>
<g id="a_edge17_Node000012_Node000004"><a xlink:title=" ">
<path fill="none" stroke="#63b8ff" d="M544.67,-176.75C544.36,-167.72 544.03,-158.03 543.8,-151.27"/>
<polygon fill="#63b8ff" stroke="#63b8ff" points="541.18,-176.96 545.02,-186.84 548.17,-176.72 541.18,-176.96"/>
</a>
</g>
</g>
<!-- Node12&#45;&gt;Node8 -->
<g id="edge18_Node000012_Node000008" class="edge">
<title>Node12&#45;&gt;Node8</title>
<g id="a_edge18_Node000012_Node000008"><a xlink:title=" ">
<path fill="none" stroke="#63b8ff" d="M593.6,-182.03C606.6,-174.43 619.11,-164.25 626.5,-151 636.76,-132.61 645.11,-96.91 619.5,-66 607.31,-51.28 566.36,-38.86 528.18,-30.08"/>
<polygon fill="#63b8ff" stroke="#63b8ff" points="591.72,-179.07 584.57,-186.89 595.03,-185.23 591.72,-179.07"/>
</a>
</g>
</g>
<!-- Node12&#45;&gt;Node10 -->
<g id="edge19_Node000012_Node000010" class="edge">
<title>Node12&#45;&gt;Node10</title>
<g id="a_edge19_Node000012_Node000010"><a xlink:title=" ">
<path fill="none" stroke="#63b8ff" d="M498.64,-183.17C444.68,-162.54 353.46,-127.39 275.5,-96 219.56,-73.47 154.9,-46.29 116.7,-30.12"/>
<polygon fill="#63b8ff" stroke="#63b8ff" points="497.68,-186.54 508.27,-186.84 500.17,-180.01 497.68,-186.54"/>
</a>
</g>
</g>
<!-- Node12&#45;&gt;Node11 -->
<g id="edge20_Node000012_Node000011" class="edge">
<title>Node12&#45;&gt;Node11</title>
<g id="a_edge20_Node000012_Node000011"><a xlink:title=" ">
<path fill="none" stroke="#63b8ff" d="M586.88,-182.59C605.06,-173.88 626.36,-162.8 644.5,-151 703.76,-112.45 766.44,-56.28 794.45,-30.23"/>
<polygon fill="#63b8ff" stroke="#63b8ff" points="585.24,-179.5 577.68,-186.93 588.22,-185.83 585.24,-179.5"/>
</a>
</g>
</g>
</g>
</svg>

<g id="navigator" transform="translate(0 0)" fill="#404254">
  <rect fill="#f2f5e9" fill-opacity="0.5" stroke="#606060" stroke-width=".5" x="0" y="0" width="60" height="60"/>
  <use id="zoomplus" xlink:href="#zoomPlus" x="17" y="9" onmousedown="handleZoom(evt,'in')"/>
  <use id="zoomminus" xlink:href="#zoomMin" x="42" y="9" onmousedown="handleZoom(evt,'out')"/>
  <use id="reset" xlink:href="#resetDef" x="30" y="36" onmousedown="handleReset()"/>
   <use id="arrowup" xlink:href="#arrowUp" x="0" y="0" onmousedown="handlePan(0,-1)"/>
  <use id="arrowright" xlink:href="#arrowRight" x="0" y="0" onmousedown="handlePan(1,0)"/>
  <use id="arrowdown" xlink:href="#arrowDown" x="0" y="0" onmousedown="handlePan(0,1)"/>
  <use id="arrowleft" xlink:href="#arrowLeft" x="0" y="0" onmousedown="handlePan(-1,0)"/>
</g>
<svg viewBox="0 0 15 15" width="100%" height="30px" preserveAspectRatio="xMaxYMin meet">
 <g id="arrow_out" transform="scale(0.3 0.3)">
  <a xlink:href="qtserialportexports_8h__dep__incl_org.svg" target="_base">
   <rect id="button" ry="5" rx="5" y="6" x="6" height="38" width="38"
        fill="#f2f5e9" fill-opacity="0.5" stroke="#606060" stroke-width="1.0"/>
   <path id="arrow"
     d="M 11.500037,31.436501 C 11.940474,20.09759 22.043105,11.32322 32.158766,21.979434 L 37.068811,17.246167 C 37.068811,17.246167 37.088388,32 37.088388,32 L 22.160133,31.978069 C 22.160133,31.978069 26.997745,27.140456 26.997745,27.140456 C 18.528582,18.264221 13.291696,25.230495 11.500037,31.436501 z"
     style="fill:#404040;"/>
  </a>
 </g>
</svg>

<style type='text/css'>
<![CDATA[
[data-mouse-over-selected='false'] { opacity: 0.7; }
[data-mouse-over-selected='true']  { opacity: 1.0; }
]]>
</style>
<script type="application/ecmascript"><![CDATA[
document.addEventListener('DOMContentLoaded', (event) => {
  highlightEdges();
  highlightAdjacentNodes();
});
]]></script>
</svg>
