<?xml version="1.0" encoding="UTF-8" standalone="no"?>
<!DOCTYPE svg PUBLIC "-//W3C//DTD SVG 1.1//EN"
 "http://www.w3.org/Graphics/SVG/1.1/DTD/svg11.dtd">
<!-- Generated by graphviz version 2.43.0 (0)
 -->
<!-- Title: src/MissionManager/RallyPoint.cc Pages: 1 -->
<svg width="1189pt" height="258pt"
 viewBox="0.00 0.00 1189.00 258.00" xmlns="http://www.w3.org/2000/svg" xmlns:xlink="http://www.w3.org/1999/xlink">
<g id="graph0" class="graph" transform="scale(1 1) rotate(0) translate(4 254)">
<title>src/MissionManager/RallyPoint.cc</title>
<!-- Node1 -->
<g id="Node000001" class="node">
<title>Node1</title>
<g id="a_Node000001"><a xlink:title=" ">
<polygon fill="#999999" stroke="#666666" points="1044.5,-250 930.5,-250 930.5,-220 1044.5,-220 1044.5,-250"/>
<text text-anchor="start" x="938.5" y="-238" font-family="Helvetica,sans-Serif" font-size="10.00">src/MissionManager</text>
<text text-anchor="middle" x="987.5" y="-227" font-family="Helvetica,sans-Serif" font-size="10.00">/RallyPoint.cc</text>
</a>
</g>
</g>
<!-- Node2 -->
<g id="Node000002" class="node">
<title>Node2</title>
<g id="a_Node000002"><a xlink:href="RallyPoint_8h.html" target="_top" xlink:title=" ">
<polygon fill="white" stroke="#666666" points="1025,-184 950,-184 950,-165 1025,-165 1025,-184"/>
<text text-anchor="middle" x="987.5" y="-172" font-family="Helvetica,sans-Serif" font-size="10.00">RallyPoint.h</text>
</a>
</g>
</g>
<!-- Node1&#45;&gt;Node2 -->
<g id="edge1_Node000001_Node000002" class="edge">
<title>Node1&#45;&gt;Node2</title>
<g id="a_edge1_Node000001_Node000002"><a xlink:title=" ">
<path fill="none" stroke="#63b8ff" d="M987.5,-219.84C987.5,-212.21 987.5,-202.7 987.5,-194.45"/>
<polygon fill="#63b8ff" stroke="#63b8ff" points="991,-194.27 987.5,-184.27 984,-194.27 991,-194.27"/>
</a>
</g>
</g>
<!-- Node3 -->
<g id="Node000003" class="node">
<title>Node3</title>
<g id="a_Node000003"><a xlink:title=" ">
<polygon fill="#e0e0e0" stroke="#999999" points="1041.5,-19 949.5,-19 949.5,0 1041.5,0 1041.5,-19"/>
<text text-anchor="middle" x="995.5" y="-7" font-family="Helvetica,sans-Serif" font-size="10.00">QtCore/QObject</text>
</a>
</g>
</g>
<!-- Node2&#45;&gt;Node3 -->
<g id="edge2_Node000002_Node000003" class="edge">
<title>Node2&#45;&gt;Node3</title>
<g id="a_edge2_Node000002_Node000003"><a xlink:title=" ">
<path fill="none" stroke="#63b8ff" d="M987.93,-164.74C989.18,-139.31 992.82,-65.08 994.56,-29.69"/>
<polygon fill="#63b8ff" stroke="#63b8ff" points="998.07,-29.47 995.07,-19.31 991.08,-29.12 998.07,-29.47"/>
</a>
</g>
</g>
<!-- Node4 -->
<g id="Node000004" class="node">
<title>Node4</title>
<g id="a_Node000004"><a xlink:title=" ">
<polygon fill="#e0e0e0" stroke="#999999" points="1181,-129 1016,-129 1016,-110 1181,-110 1181,-129"/>
<text text-anchor="middle" x="1098.5" y="-117" font-family="Helvetica,sans-Serif" font-size="10.00">QtPositioning/QGeoCoordinate</text>
</a>
</g>
</g>
<!-- Node2&#45;&gt;Node4 -->
<g id="edge3_Node000002_Node000004" class="edge">
<title>Node2&#45;&gt;Node4</title>
<g id="a_edge3_Node000002_Node000004"><a xlink:title=" ">
<path fill="none" stroke="#63b8ff" d="M1005.33,-164.98C1023.11,-156.5 1050.65,-143.35 1071.18,-133.54"/>
<polygon fill="#63b8ff" stroke="#63b8ff" points="1072.83,-136.64 1080.34,-129.17 1069.81,-130.32 1072.83,-136.64"/>
</a>
</g>
</g>
<!-- Node5 -->
<g id="Node000005" class="node">
<title>Node5</title>
<g id="a_Node000005"><a xlink:href="Fact_8h.html" target="_top" xlink:title=" ">
<polygon fill="white" stroke="#666666" points="641,-129 596,-129 596,-110 641,-110 641,-129"/>
<text text-anchor="middle" x="618.5" y="-117" font-family="Helvetica,sans-Serif" font-size="10.00">Fact.h</text>
</a>
</g>
</g>
<!-- Node2&#45;&gt;Node5 -->
<g id="edge4_Node000002_Node000005" class="edge">
<title>Node2&#45;&gt;Node5</title>
<g id="a_edge4_Node000002_Node000005"><a xlink:title=" ">
<path fill="none" stroke="#63b8ff" d="M949.74,-168.08C877.21,-157.66 719.53,-135.01 651.19,-125.19"/>
<polygon fill="#63b8ff" stroke="#63b8ff" points="651.41,-121.69 641.01,-123.73 650.41,-128.62 651.41,-121.69"/>
</a>
</g>
</g>
<!-- Node5&#45;&gt;Node3 -->
<g id="edge7_Node000005_Node000003" class="edge">
<title>Node5&#45;&gt;Node3</title>
<g id="a_edge7_Node000005_Node000003"><a xlink:title=" ">
<path fill="none" stroke="#63b8ff" d="M641.25,-116.56C685.55,-112.33 786.09,-100.42 866.5,-74 905.4,-61.22 947.42,-38.74 972.58,-24.25"/>
<polygon fill="#63b8ff" stroke="#63b8ff" points="974.49,-27.18 981.36,-19.12 970.96,-21.14 974.49,-27.18"/>
</a>
</g>
</g>
<!-- Node6 -->
<g id="Node000006" class="node">
<title>Node6</title>
<g id="a_Node000006"><a xlink:title=" ">
<polygon fill="#e0e0e0" stroke="#999999" points="931,-19 788,-19 788,0 931,0 931,-19"/>
<text text-anchor="middle" x="859.5" y="-7" font-family="Helvetica,sans-Serif" font-size="10.00">QtCore/QLoggingCategory</text>
</a>
</g>
</g>
<!-- Node5&#45;&gt;Node6 -->
<g id="edge5_Node000005_Node000006" class="edge">
<title>Node5&#45;&gt;Node6</title>
<g id="a_edge5_Node000005_Node000006"><a xlink:title=" ">
<path fill="none" stroke="#63b8ff" d="M641.3,-117.24C693.37,-113.89 818.72,-102.93 847.5,-74 858.99,-62.45 861.31,-43.58 861.16,-29.4"/>
<polygon fill="#63b8ff" stroke="#63b8ff" points="864.65,-29.08 860.64,-19.27 857.66,-29.44 864.65,-29.08"/>
</a>
</g>
</g>
<!-- Node7 -->
<g id="Node000007" class="node">
<title>Node7</title>
<g id="a_Node000007"><a xlink:title=" ">
<polygon fill="#e0e0e0" stroke="#999999" points="680,-74 557,-74 557,-55 680,-55 680,-74"/>
<text text-anchor="middle" x="618.5" y="-62" font-family="Helvetica,sans-Serif" font-size="10.00">QtCore/QMutexLocker</text>
</a>
</g>
</g>
<!-- Node5&#45;&gt;Node7 -->
<g id="edge6_Node000005_Node000007" class="edge">
<title>Node5&#45;&gt;Node7</title>
<g id="a_edge6_Node000005_Node000007"><a xlink:title=" ">
<path fill="none" stroke="#63b8ff" d="M618.5,-109.75C618.5,-102.8 618.5,-92.85 618.5,-84.13"/>
<polygon fill="#63b8ff" stroke="#63b8ff" points="622,-84.09 618.5,-74.09 615,-84.09 622,-84.09"/>
</a>
</g>
</g>
<!-- Node8 -->
<g id="Node000008" class="node">
<title>Node8</title>
<g id="a_Node000008"><a xlink:title=" ">
<polygon fill="#e0e0e0" stroke="#999999" points="838.5,-74 698.5,-74 698.5,-55 838.5,-55 838.5,-74"/>
<text text-anchor="middle" x="768.5" y="-62" font-family="Helvetica,sans-Serif" font-size="10.00">QtCore/QRecursiveMutex</text>
</a>
</g>
</g>
<!-- Node5&#45;&gt;Node8 -->
<g id="edge8_Node000005_Node000008" class="edge">
<title>Node5&#45;&gt;Node8</title>
<g id="a_edge8_Node000005_Node000008"><a xlink:title=" ">
<path fill="none" stroke="#63b8ff" d="M641.28,-110.45C666.13,-101.67 706.18,-87.52 734.69,-77.44"/>
<polygon fill="#63b8ff" stroke="#63b8ff" points="736,-80.7 744.26,-74.07 733.66,-74.1 736,-80.7"/>
</a>
</g>
</g>
<!-- Node9 -->
<g id="Node000009" class="node">
<title>Node9</title>
<g id="a_Node000009"><a xlink:title=" ">
<polygon fill="#e0e0e0" stroke="#999999" points="89,-19 0,-19 0,0 89,0 89,-19"/>
<text text-anchor="middle" x="44.5" y="-7" font-family="Helvetica,sans-Serif" font-size="10.00">QtCore/QString</text>
</a>
</g>
</g>
<!-- Node5&#45;&gt;Node9 -->
<g id="edge9_Node000005_Node000009" class="edge">
<title>Node5&#45;&gt;Node9</title>
<g id="a_edge9_Node000005_Node000009"><a xlink:title=" ">
<path fill="none" stroke="#63b8ff" d="M595.97,-115.75C546.12,-109.52 422.78,-93.37 320.5,-74 237.67,-58.31 141.99,-35.16 87.83,-21.57"/>
<polygon fill="#63b8ff" stroke="#63b8ff" points="88.44,-18.12 77.89,-19.07 86.73,-24.9 88.44,-18.12"/>
</a>
</g>
</g>
<!-- Node10 -->
<g id="Node000010" class="node">
<title>Node10</title>
<g id="a_Node000010"><a xlink:title=" ">
<polygon fill="#e0e0e0" stroke="#999999" points="202,-19 107,-19 107,0 202,0 202,-19"/>
<text text-anchor="middle" x="154.5" y="-7" font-family="Helvetica,sans-Serif" font-size="10.00">QtCore/QVariant</text>
</a>
</g>
</g>
<!-- Node5&#45;&gt;Node10 -->
<g id="edge10_Node000005_Node000010" class="edge">
<title>Node5&#45;&gt;Node10</title>
<g id="a_edge10_Node000005_Node000010"><a xlink:title=" ">
<path fill="none" stroke="#63b8ff" d="M595.93,-114.36C555.97,-106.93 470.26,-90.58 398.5,-74 326.43,-57.35 243.19,-35.01 194.93,-21.75"/>
<polygon fill="#63b8ff" stroke="#63b8ff" points="195.75,-18.35 185.18,-19.06 193.89,-25.09 195.75,-18.35"/>
</a>
</g>
</g>
<!-- Node11 -->
<g id="Node000011" class="node">
<title>Node11</title>
<g id="a_Node000011"><a xlink:title=" ">
<polygon fill="#e0e0e0" stroke="#999999" points="770,-19 581,-19 581,0 770,0 770,-19"/>
<text text-anchor="middle" x="675.5" y="-7" font-family="Helvetica,sans-Serif" font-size="10.00">QtQmlIntegration/QtQmlIntegration</text>
</a>
</g>
</g>
<!-- Node5&#45;&gt;Node11 -->
<g id="edge11_Node000005_Node000011" class="edge">
<title>Node5&#45;&gt;Node11</title>
<g id="a_edge11_Node000005_Node000011"><a xlink:title=" ">
<path fill="none" stroke="#63b8ff" d="M595.56,-109.91C569.38,-98.77 532.17,-78.02 548.5,-55 559.78,-39.1 577.2,-28.83 595.56,-22.22"/>
<polygon fill="#63b8ff" stroke="#63b8ff" points="596.79,-25.5 605.22,-19.09 594.63,-18.84 596.79,-25.5"/>
</a>
</g>
</g>
<!-- Node12 -->
<g id="Node000012" class="node">
<title>Node12</title>
<g id="a_Node000012"><a xlink:href="FactMetaData_8h.html" target="_top" xlink:title=" ">
<polygon fill="white" stroke="#666666" points="500,-74 407,-74 407,-55 500,-55 500,-74"/>
<text text-anchor="middle" x="453.5" y="-62" font-family="Helvetica,sans-Serif" font-size="10.00">FactMetaData.h</text>
</a>
</g>
</g>
<!-- Node5&#45;&gt;Node12 -->
<g id="edge12_Node000005_Node000012" class="edge">
<title>Node5&#45;&gt;Node12</title>
<g id="a_edge12_Node000005_Node000012"><a xlink:title=" ">
<path fill="none" stroke="#63b8ff" d="M595.9,-111.24C568.55,-102.45 522.13,-87.54 489.75,-77.14"/>
<polygon fill="#63b8ff" stroke="#63b8ff" points="490.78,-73.8 480.19,-74.07 488.64,-80.46 490.78,-73.8"/>
</a>
</g>
</g>
<!-- Node12&#45;&gt;Node3 -->
<g id="edge17_Node000012_Node000003" class="edge">
<title>Node12&#45;&gt;Node3</title>
<g id="a_edge17_Node000012_Node000003"><a xlink:title=" ">
<path fill="none" stroke="#63b8ff" d="M500.35,-59.3C609.86,-49.47 877.47,-25.38 939.04,-18.99"/>
<polygon fill="#63b8ff" stroke="#63b8ff" points="939.76,-22.43 949.32,-17.85 938.99,-15.47 939.76,-22.43"/>
</a>
</g>
</g>
<!-- Node12&#45;&gt;Node6 -->
<g id="edge14_Node000012_Node000006" class="edge">
<title>Node12&#45;&gt;Node6</title>
<g id="a_edge14_Node000012_Node000006"><a xlink:title=" ">
<path fill="none" stroke="#63b8ff" d="M500.07,-57.42C569.46,-48.36 700.7,-31.23 783.94,-20.36"/>
<polygon fill="#63b8ff" stroke="#63b8ff" points="784.63,-23.8 794.09,-19.04 783.72,-16.86 784.63,-23.8"/>
</a>
</g>
</g>
<!-- Node12&#45;&gt;Node9 -->
<g id="edge18_Node000012_Node000009" class="edge">
<title>Node12&#45;&gt;Node9</title>
<g id="a_edge18_Node000012_Node000009"><a xlink:title=" ">
<path fill="none" stroke="#63b8ff" d="M406.78,-58.18C340.6,-50.54 215.53,-35.66 99.17,-19.2"/>
<polygon fill="#63b8ff" stroke="#63b8ff" points="99.41,-15.7 89.02,-17.75 98.42,-22.63 99.41,-15.7"/>
</a>
</g>
</g>
<!-- Node12&#45;&gt;Node10 -->
<g id="edge19_Node000012_Node000010" class="edge">
<title>Node12&#45;&gt;Node10</title>
<g id="a_edge19_Node000012_Node000010"><a xlink:title=" ">
<path fill="none" stroke="#63b8ff" d="M406.78,-55.22C354.26,-45.91 268.92,-30.78 212.26,-20.74"/>
<polygon fill="#63b8ff" stroke="#63b8ff" points="212.83,-17.29 202.37,-18.99 211.61,-24.18 212.83,-17.29"/>
</a>
</g>
</g>
<!-- Node12&#45;&gt;Node11 -->
<g id="edge20_Node000012_Node000011" class="edge">
<title>Node12&#45;&gt;Node11</title>
<g id="a_edge20_Node000012_Node000011"><a xlink:title=" ">
<path fill="none" stroke="#63b8ff" d="M489.17,-54.98C527.33,-45.87 587.97,-31.4 629.65,-21.45"/>
<polygon fill="#63b8ff" stroke="#63b8ff" points="630.64,-24.81 639.55,-19.08 629.01,-18 630.64,-24.81"/>
</a>
</g>
</g>
<!-- Node13 -->
<g id="Node000013" class="node">
<title>Node13</title>
<g id="a_Node000013"><a xlink:title=" ">
<polygon fill="#e0e0e0" stroke="#999999" points="562.5,-19 476.5,-19 476.5,0 562.5,0 562.5,-19"/>
<text text-anchor="middle" x="519.5" y="-7" font-family="Helvetica,sans-Serif" font-size="10.00">QtCore/QHash</text>
</a>
</g>
</g>
<!-- Node12&#45;&gt;Node13 -->
<g id="edge13_Node000012_Node000013" class="edge">
<title>Node12&#45;&gt;Node13</title>
<g id="a_edge13_Node000012_Node000013"><a xlink:title=" ">
<path fill="none" stroke="#63b8ff" d="M464.1,-54.98C473.96,-47.07 488.85,-35.11 500.72,-25.58"/>
<polygon fill="#63b8ff" stroke="#63b8ff" points="503.1,-28.16 508.7,-19.17 498.71,-22.7 503.1,-28.16"/>
</a>
</g>
</g>
<!-- Node14 -->
<g id="Node000014" class="node">
<title>Node14</title>
<g id="a_Node000014"><a xlink:title=" ">
<polygon fill="#e0e0e0" stroke="#999999" points="327,-19 220,-19 220,0 327,0 327,-19"/>
<text text-anchor="middle" x="273.5" y="-7" font-family="Helvetica,sans-Serif" font-size="10.00">QtCore/QJsonArray</text>
</a>
</g>
</g>
<!-- Node12&#45;&gt;Node14 -->
<g id="edge15_Node000012_Node000014" class="edge">
<title>Node12&#45;&gt;Node14</title>
<g id="a_edge15_Node000012_Node000014"><a xlink:title=" ">
<path fill="none" stroke="#63b8ff" d="M424.58,-54.98C394.23,-46.05 346.33,-31.94 312.62,-22.02"/>
<polygon fill="#63b8ff" stroke="#63b8ff" points="313.23,-18.55 302.65,-19.08 311.25,-25.26 313.23,-18.55"/>
</a>
</g>
</g>
<!-- Node15 -->
<g id="Node000015" class="node">
<title>Node15</title>
<g id="a_Node000015"><a xlink:title=" ">
<polygon fill="#e0e0e0" stroke="#999999" points="458,-19 345,-19 345,0 458,0 458,-19"/>
<text text-anchor="middle" x="401.5" y="-7" font-family="Helvetica,sans-Serif" font-size="10.00">QtCore/QJsonObject</text>
</a>
</g>
</g>
<!-- Node12&#45;&gt;Node15 -->
<g id="edge16_Node000012_Node000015" class="edge">
<title>Node12&#45;&gt;Node15</title>
<g id="a_edge16_Node000012_Node000015"><a xlink:title=" ">
<path fill="none" stroke="#63b8ff" d="M444.91,-54.75C437.34,-47.03 426.12,-35.6 416.99,-26.28"/>
<polygon fill="#63b8ff" stroke="#63b8ff" points="419.43,-23.78 409.93,-19.09 414.43,-28.68 419.43,-23.78"/>
</a>
</g>
</g>
</g>
</svg>
