<?xml version="1.0" encoding="UTF-8" standalone="no"?>
<!DOCTYPE svg PUBLIC "-//W3C//DTD SVG 1.1//EN"
 "http://www.w3.org/Graphics/SVG/1.1/DTD/svg11.dtd">
<!-- Generated by graphviz version 2.43.0 (0)
 -->
<!-- Title: src/MissionManager/RallyPoint.cc Pages: 1 -->
<svg width="814pt" height="258pt"
 viewBox="0.00 0.00 814.00 258.00" xmlns="http://www.w3.org/2000/svg" xmlns:xlink="http://www.w3.org/1999/xlink">
<g id="graph0" class="graph" transform="scale(1 1) rotate(0) translate(4 254)">
<title>src/MissionManager/RallyPoint.cc</title>
<!-- Node1 -->
<g id="Node000001" class="node">
<title>Node1</title>
<g id="a_Node000001"><a xlink:title=" ">
<polygon fill="#999999" stroke="#666666" points="669.5,-250 555.5,-250 555.5,-220 669.5,-220 669.5,-250"/>
<text text-anchor="start" x="563.5" y="-238" font-family="Helvetica,sans-Serif" font-size="10.00">src/MissionManager</text>
<text text-anchor="middle" x="612.5" y="-227" font-family="Helvetica,sans-Serif" font-size="10.00">/RallyPoint.cc</text>
</a>
</g>
</g>
<!-- Node2 -->
<g id="Node000002" class="node">
<title>Node2</title>
<g id="a_Node000002"><a xlink:href="RallyPoint_8h.html" target="_top" xlink:title=" ">
<polygon fill="white" stroke="#666666" points="650,-184 575,-184 575,-165 650,-165 650,-184"/>
<text text-anchor="middle" x="612.5" y="-172" font-family="Helvetica,sans-Serif" font-size="10.00">RallyPoint.h</text>
</a>
</g>
</g>
<!-- Node1&#45;&gt;Node2 -->
<g id="edge1_Node000001_Node000002" class="edge">
<title>Node1&#45;&gt;Node2</title>
<g id="a_edge1_Node000001_Node000002"><a xlink:title=" ">
<path fill="none" stroke="#63b8ff" d="M612.5,-219.84C612.5,-212.21 612.5,-202.7 612.5,-194.45"/>
<polygon fill="#63b8ff" stroke="#63b8ff" points="616,-194.27 612.5,-184.27 609,-194.27 616,-194.27"/>
</a>
</g>
</g>
<!-- Node3 -->
<g id="Node000003" class="node">
<title>Node3</title>
<g id="a_Node000003"><a xlink:title=" ">
<polygon fill="#e0e0e0" stroke="#999999" points="675.5,-19 583.5,-19 583.5,0 675.5,0 675.5,-19"/>
<text text-anchor="middle" x="629.5" y="-7" font-family="Helvetica,sans-Serif" font-size="10.00">QtCore/QObject</text>
</a>
</g>
</g>
<!-- Node2&#45;&gt;Node3 -->
<g id="edge2_Node000002_Node000003" class="edge">
<title>Node2&#45;&gt;Node3</title>
<g id="a_edge2_Node000002_Node000003"><a xlink:title=" ">
<path fill="none" stroke="#63b8ff" d="M613.41,-164.74C616.07,-139.31 623.81,-65.08 627.5,-29.69"/>
<polygon fill="#63b8ff" stroke="#63b8ff" points="631.03,-29.62 628.58,-19.31 624.06,-28.89 631.03,-29.62"/>
</a>
</g>
</g>
<!-- Node4 -->
<g id="Node000004" class="node">
<title>Node4</title>
<g id="a_Node000004"><a xlink:title=" ">
<polygon fill="#e0e0e0" stroke="#999999" points="806,-129 641,-129 641,-110 806,-110 806,-129"/>
<text text-anchor="middle" x="723.5" y="-117" font-family="Helvetica,sans-Serif" font-size="10.00">QtPositioning/QGeoCoordinate</text>
</a>
</g>
</g>
<!-- Node2&#45;&gt;Node4 -->
<g id="edge3_Node000002_Node000004" class="edge">
<title>Node2&#45;&gt;Node4</title>
<g id="a_edge3_Node000002_Node000004"><a xlink:title=" ">
<path fill="none" stroke="#63b8ff" d="M630.33,-164.98C648.11,-156.5 675.65,-143.35 696.18,-133.54"/>
<polygon fill="#63b8ff" stroke="#63b8ff" points="697.83,-136.64 705.34,-129.17 694.81,-130.32 697.83,-136.64"/>
</a>
</g>
</g>
<!-- Node5 -->
<g id="Node000005" class="node">
<title>Node5</title>
<g id="a_Node000005"><a xlink:href="Fact_8h.html" target="_top" xlink:title=" ">
<polygon fill="white" stroke="#666666" points="408,-129 363,-129 363,-110 408,-110 408,-129"/>
<text text-anchor="middle" x="385.5" y="-117" font-family="Helvetica,sans-Serif" font-size="10.00">Fact.h</text>
</a>
</g>
</g>
<!-- Node2&#45;&gt;Node5 -->
<g id="edge4_Node000002_Node000005" class="edge">
<title>Node2&#45;&gt;Node5</title>
<g id="a_edge4_Node000002_Node000005"><a xlink:title=" ">
<path fill="none" stroke="#63b8ff" d="M576.03,-164.98C532.36,-154.79 459.87,-137.86 418.03,-128.09"/>
<polygon fill="#63b8ff" stroke="#63b8ff" points="418.62,-124.64 408.09,-125.77 417.03,-131.46 418.62,-124.64"/>
</a>
</g>
</g>
<!-- Node5&#45;&gt;Node3 -->
<g id="edge6_Node000005_Node000003" class="edge">
<title>Node5&#45;&gt;Node3</title>
<g id="a_edge6_Node000005_Node000003"><a xlink:title=" ">
<path fill="none" stroke="#63b8ff" d="M408.22,-110.38C431.59,-101.88 468.94,-87.84 500.5,-74 536.99,-58 578.12,-37.27 603.93,-23.92"/>
<polygon fill="#63b8ff" stroke="#63b8ff" points="605.76,-26.91 613.02,-19.2 602.53,-20.7 605.76,-26.91"/>
</a>
</g>
</g>
<!-- Node6 -->
<g id="Node000006" class="node">
<title>Node6</title>
<g id="a_Node000006"><a xlink:title=" ">
<polygon fill="#e0e0e0" stroke="#999999" points="123,-74 0,-74 0,-55 123,-55 123,-74"/>
<text text-anchor="middle" x="61.5" y="-62" font-family="Helvetica,sans-Serif" font-size="10.00">QtCore/QMutexLocker</text>
</a>
</g>
</g>
<!-- Node5&#45;&gt;Node6 -->
<g id="edge5_Node000005_Node000006" class="edge">
<title>Node5&#45;&gt;Node6</title>
<g id="a_edge5_Node000005_Node000006"><a xlink:title=" ">
<path fill="none" stroke="#63b8ff" d="M362.97,-114.82C314.04,-106.81 196.58,-87.6 123.57,-75.65"/>
<polygon fill="#63b8ff" stroke="#63b8ff" points="124.01,-72.18 113.57,-74.02 122.88,-79.09 124.01,-72.18"/>
</a>
</g>
</g>
<!-- Node7 -->
<g id="Node000007" class="node">
<title>Node7</title>
<g id="a_Node000007"><a xlink:title=" ">
<polygon fill="#e0e0e0" stroke="#999999" points="281.5,-74 141.5,-74 141.5,-55 281.5,-55 281.5,-74"/>
<text text-anchor="middle" x="211.5" y="-62" font-family="Helvetica,sans-Serif" font-size="10.00">QtCore/QRecursiveMutex</text>
</a>
</g>
</g>
<!-- Node5&#45;&gt;Node7 -->
<g id="edge7_Node000005_Node000007" class="edge">
<title>Node5&#45;&gt;Node7</title>
<g id="a_edge7_Node000005_Node000007"><a xlink:title=" ">
<path fill="none" stroke="#63b8ff" d="M362.75,-111.57C333.91,-102.79 283.78,-87.52 249.19,-76.98"/>
<polygon fill="#63b8ff" stroke="#63b8ff" points="250.02,-73.57 239.43,-74.01 247.98,-80.27 250.02,-73.57"/>
</a>
</g>
</g>
<!-- Node8 -->
<g id="Node000008" class="node">
<title>Node8</title>
<g id="a_Node000008"><a xlink:title=" ">
<polygon fill="#e0e0e0" stroke="#999999" points="565,-19 476,-19 476,0 565,0 565,-19"/>
<text text-anchor="middle" x="520.5" y="-7" font-family="Helvetica,sans-Serif" font-size="10.00">QtCore/QString</text>
</a>
</g>
</g>
<!-- Node5&#45;&gt;Node8 -->
<g id="edge8_Node000005_Node000008" class="edge">
<title>Node5&#45;&gt;Node8</title>
<g id="a_edge8_Node000005_Node000008"><a xlink:title=" ">
<path fill="none" stroke="#63b8ff" d="M408.13,-111.56C428.28,-104.53 457.71,-92.1 478.5,-74 493.1,-61.29 504.74,-42.34 512.03,-28.45"/>
<polygon fill="#63b8ff" stroke="#63b8ff" points="515.22,-29.9 516.55,-19.39 508.95,-26.78 515.22,-29.9"/>
</a>
</g>
</g>
<!-- Node9 -->
<g id="Node000009" class="node">
<title>Node9</title>
<g id="a_Node000009"><a xlink:title=" ">
<polygon fill="#e0e0e0" stroke="#999999" points="146,-19 51,-19 51,0 146,0 146,-19"/>
<text text-anchor="middle" x="98.5" y="-7" font-family="Helvetica,sans-Serif" font-size="10.00">QtCore/QVariant</text>
</a>
</g>
</g>
<!-- Node5&#45;&gt;Node9 -->
<g id="edge9_Node000005_Node000009" class="edge">
<title>Node5&#45;&gt;Node9</title>
<g id="a_edge9_Node000005_Node000009"><a xlink:title=" ">
<path fill="none" stroke="#63b8ff" d="M373.93,-110C352.68,-94.5 307.98,-62.56 290.5,-55 266.24,-44.5 201.32,-30.46 153.66,-20.99"/>
<polygon fill="#63b8ff" stroke="#63b8ff" points="154.27,-17.54 143.78,-19.04 152.91,-24.4 154.27,-17.54"/>
</a>
</g>
</g>
<!-- Node10 -->
<g id="Node000010" class="node">
<title>Node10</title>
<g id="a_Node000010"><a xlink:title=" ">
<polygon fill="#e0e0e0" stroke="#999999" points="353,-19 164,-19 164,0 353,0 353,-19"/>
<text text-anchor="middle" x="258.5" y="-7" font-family="Helvetica,sans-Serif" font-size="10.00">QtQmlIntegration/QtQmlIntegration</text>
</a>
</g>
</g>
<!-- Node5&#45;&gt;Node10 -->
<g id="edge10_Node000005_Node000010" class="edge">
<title>Node5&#45;&gt;Node10</title>
<g id="a_edge10_Node000005_Node000010"><a xlink:title=" ">
<path fill="none" stroke="#63b8ff" d="M377.97,-109.75C366.76,-96.99 344.73,-72.84 323.5,-55 310.27,-43.88 294.27,-32.9 281.45,-24.63"/>
<polygon fill="#63b8ff" stroke="#63b8ff" points="283.09,-21.52 272.77,-19.12 279.34,-27.43 283.09,-21.52"/>
</a>
</g>
</g>
<!-- Node11 -->
<g id="Node000011" class="node">
<title>Node11</title>
<g id="a_Node000011"><a xlink:href="FactMetaData_8h.html" target="_top" xlink:title=" ">
<polygon fill="white" stroke="#666666" points="469,-74 376,-74 376,-55 469,-55 469,-74"/>
<text text-anchor="middle" x="422.5" y="-62" font-family="Helvetica,sans-Serif" font-size="10.00">FactMetaData.h</text>
</a>
</g>
</g>
<!-- Node5&#45;&gt;Node11 -->
<g id="edge11_Node000005_Node000011" class="edge">
<title>Node5&#45;&gt;Node11</title>
<g id="a_edge11_Node000005_Node000011"><a xlink:title=" ">
<path fill="none" stroke="#63b8ff" d="M391.61,-109.75C396.78,-102.34 404.35,-91.5 410.69,-82.41"/>
<polygon fill="#63b8ff" stroke="#63b8ff" points="413.65,-84.29 416.5,-74.09 407.91,-80.29 413.65,-84.29"/>
</a>
</g>
</g>
<!-- Node11&#45;&gt;Node3 -->
<g id="edge13_Node000011_Node000003" class="edge">
<title>Node11&#45;&gt;Node3</title>
<g id="a_edge13_Node000011_Node000003"><a xlink:title=" ">
<path fill="none" stroke="#63b8ff" d="M455.76,-54.98C491.11,-45.93 547.17,-31.58 586.01,-21.64"/>
<polygon fill="#63b8ff" stroke="#63b8ff" points="587.16,-24.95 595.98,-19.08 585.43,-18.17 587.16,-24.95"/>
</a>
</g>
</g>
<!-- Node11&#45;&gt;Node8 -->
<g id="edge14_Node000011_Node000008" class="edge">
<title>Node11&#45;&gt;Node8</title>
<g id="a_edge14_Node000011_Node000008"><a xlink:title=" ">
<path fill="none" stroke="#63b8ff" d="M438.25,-54.98C453.73,-46.61 477.59,-33.7 495.64,-23.95"/>
<polygon fill="#63b8ff" stroke="#63b8ff" points="497.34,-27.01 504.47,-19.17 494.01,-20.85 497.34,-27.01"/>
</a>
</g>
</g>
<!-- Node11&#45;&gt;Node9 -->
<g id="edge15_Node000011_Node000009" class="edge">
<title>Node11&#45;&gt;Node9</title>
<g id="a_edge15_Node000011_Node000009"><a xlink:title=" ">
<path fill="none" stroke="#63b8ff" d="M375.73,-55.85C317.72,-46.36 218.81,-30.18 156.16,-19.93"/>
<polygon fill="#63b8ff" stroke="#63b8ff" points="156.48,-16.44 146.04,-18.28 155.35,-23.35 156.48,-16.44"/>
</a>
</g>
</g>
<!-- Node11&#45;&gt;Node10 -->
<g id="edge16_Node000011_Node000010" class="edge">
<title>Node11&#45;&gt;Node10</title>
<g id="a_edge16_Node000011_Node000010"><a xlink:title=" ">
<path fill="none" stroke="#63b8ff" d="M396.15,-54.98C368.74,-46.13 325.61,-32.19 294.94,-22.28"/>
<polygon fill="#63b8ff" stroke="#63b8ff" points="295.65,-18.83 285.06,-19.08 293.5,-25.49 295.65,-18.83"/>
</a>
</g>
</g>
<!-- Node12 -->
<g id="Node000012" class="node">
<title>Node12</title>
<g id="a_Node000012"><a xlink:title=" ">
<polygon fill="#e0e0e0" stroke="#999999" points="457.5,-19 371.5,-19 371.5,0 457.5,0 457.5,-19"/>
<text text-anchor="middle" x="414.5" y="-7" font-family="Helvetica,sans-Serif" font-size="10.00">QtCore/QHash</text>
</a>
</g>
</g>
<!-- Node11&#45;&gt;Node12 -->
<g id="edge12_Node000011_Node000012" class="edge">
<title>Node11&#45;&gt;Node12</title>
<g id="a_edge12_Node000011_Node000012"><a xlink:title=" ">
<path fill="none" stroke="#63b8ff" d="M421.18,-54.75C420.13,-47.8 418.63,-37.85 417.31,-29.13"/>
<polygon fill="#63b8ff" stroke="#63b8ff" points="420.75,-28.45 415.8,-19.09 413.83,-29.5 420.75,-28.45"/>
</a>
</g>
</g>
</g>
</svg>
