<?xml version="1.0" encoding="UTF-8" standalone="no"?>
<!DOCTYPE svg PUBLIC "-//W3C//DTD SVG 1.1//EN"
 "http://www.w3.org/Graphics/SVG/1.1/DTD/svg11.dtd">
<!-- Generated by graphviz version 2.43.0 (0)
 -->
<!-- Title: src/Utilities/StateMachine/States/RequestMessageState.h Pages: 1 -->
<!--zoomable 258 -->

<svg id="main" version="1.1" xmlns="http://www.w3.org/2000/svg" xmlns:xlink="http://www.w3.org/1999/xlink" xml:space="preserve" onload="init(evt)">
<style type="text/css"><![CDATA[
.node, .edge {opacity: 0.7;}
.node.selected, .edge.selected {opacity: 1;}
.edge:hover path { stroke: red; }
.edge:hover polygon { stroke: red; fill: red; }
]]></style>

<defs>
  <circle id="rim" cx="0" cy="0" r="7"/>
  <circle id="rim2" cx="0" cy="0" r="3.5"/>
  <g id="zoomPlus">
    <use xlink:href="#rim" fill="#404040"><set attributeName="fill" to="#808080" begin="zoomplus.mouseover" end="zoomplus.mouseout"/></use>
    <path d="M-4,0h8M0,-4v8" fill="none" stroke="white" stroke-width="1.5" pointer-events="none"/>
  </g>
  <g id="zoomMin">
    <use xlink:href="#rim" fill="#404040"><set attributeName="fill" to="#808080" begin="zoomminus.mouseover" end="zoomminus.mouseout"/></use>
    <path d="M-4,0h8" fill="none" stroke="white" stroke-width="1.5" pointer-events="none"/>
  </g>
  <g id="arrowUp" transform="translate(30 24)">
    <use xlink:href="#rim"/>
    <path pointer-events="none" fill="none" stroke="white" stroke-width="1.5" d="M0,-3.0v7 M-2.5,-0.5L0,-3.0L2.5,-0.5"/>
  </g>
  <g id="arrowRight" transform="rotate(90) translate(36 -43)">
    <use xlink:href="#rim"/>
    <path pointer-events="none" fill="none" stroke="white" stroke-width="1.5" d="M0,-3.0v7 M-2.5,-0.5L0,-3.0L2.5,-0.5"/>
  </g>
  <g id="arrowDown" transform="rotate(180) translate(-30 -48)">
    <use xlink:href="#rim"/>
    <path pointer-events="none" fill="none" stroke="white" stroke-width="1.5" d="M0,-3.0v7 M-2.5,-0.5L0,-3.0L2.5,-0.5"/>
  </g>
  <g id="arrowLeft" transform="rotate(270) translate(-36 17)">
    <use xlink:href="#rim"/>
    <path pointer-events="none" fill="none" stroke="white" stroke-width="1.5" d="M0,-3.0v7 M-2.5,-0.5L0,-3.0L2.5,-0.5"/>
  </g>
  <g id="resetDef">
    <use xlink:href="#rim2" fill="#404040"><set attributeName="fill" to="#808080" begin="reset.mouseover" end="reset.mouseout"/></use>
  </g>
</defs>
<script type="application/ecmascript">
var viewWidth = 827;
var viewHeight = 258;
var sectionId = 'dynsection-0';
</script>
<script type="application/ecmascript" xlink:href="svg.min.js"/>
<svg id="graph" class="graph">
<g id="viewport">
<title>src/Utilities/StateMachine/States/RequestMessageState.h</title>
<!-- Node1 -->
<g id="Node000001" class="node">
<title>Node1</title>
<g id="a_Node000001"><a xlink:title=" ">
<polygon fill="#999999" stroke="#666666" points="621,-250 450,-250 450,-220 621,-220 621,-250"/>
<text text-anchor="start" x="458" y="-238" font-family="Helvetica,sans-Serif" font-size="10.00">src/Utilities/StateMachine</text>
<text text-anchor="middle" x="535.5" y="-227" font-family="Helvetica,sans-Serif" font-size="10.00">/States/RequestMessageState.h</text>
</a>
</g>
</g>
<!-- Node2 -->
<g id="Node000002" class="node">
<title>Node2</title>
<g id="a_Node000002"><a xlink:href="WaitStateBase_8h.html" target="_top" xlink:title=" ">
<polygon fill="white" stroke="#666666" points="326,-184 229,-184 229,-165 326,-165 326,-184"/>
<text text-anchor="middle" x="277.5" y="-172" font-family="Helvetica,sans-Serif" font-size="10.00">WaitStateBase.h</text>
</a>
</g>
</g>
<!-- Node1&#45;&gt;Node2 -->
<g id="edge1_Node000001_Node000002" class="edge">
<title>Node1&#45;&gt;Node2</title>
<g id="a_edge1_Node000001_Node000002"><a xlink:title=" ">
<path fill="none" stroke="#63b8ff" d="M473.7,-219.99C428.12,-209.65 367,-195.79 325.16,-186.31"/>
<polygon fill="#63b8ff" stroke="#63b8ff" points="325.75,-182.85 315.22,-184.05 324.2,-189.68 325.75,-182.85"/>
</a>
</g>
</g>
<!-- Node7 -->
<g id="Node000007" class="node">
<title>Node7</title>
<g id="a_Node000007"><a xlink:title=" ">
<polygon fill="#e0e0e0" stroke="#999999" points="354,-19 289,-19 289,0 354,0 354,-19"/>
<text text-anchor="middle" x="321.5" y="-7" font-family="Helvetica,sans-Serif" font-size="10.00">functional</text>
</a>
</g>
</g>
<!-- Node1&#45;&gt;Node7 -->
<g id="edge18_Node000001_Node000007" class="edge">
<title>Node1&#45;&gt;Node7</title>
<g id="a_edge18_Node000001_Node000007"><a xlink:title=" ">
<path fill="none" stroke="#63b8ff" d="M482.96,-219.98C459.74,-212.02 433.1,-200.32 412.5,-184 389.01,-165.39 388.26,-155.08 373.5,-129 354.21,-94.92 337.08,-52.31 328.11,-28.59"/>
<polygon fill="#63b8ff" stroke="#63b8ff" points="331.36,-27.27 324.59,-19.12 324.79,-29.71 331.36,-27.27"/>
</a>
</g>
</g>
<!-- Node10 -->
<g id="Node000010" class="node">
<title>Node10</title>
<g id="a_Node000010"><a xlink:title=" ">
<polygon fill="#e0e0e0" stroke="#999999" points="671,-129 570,-129 570,-110 671,-110 671,-129"/>
<text text-anchor="middle" x="620.5" y="-117" font-family="Helvetica,sans-Serif" font-size="10.00">MAVLinkEnums.h</text>
</a>
</g>
</g>
<!-- Node1&#45;&gt;Node10 -->
<g id="edge9_Node000001_Node000010" class="edge">
<title>Node1&#45;&gt;Node10</title>
<g id="a_edge9_Node000001_Node000010"><a xlink:title=" ">
<path fill="none" stroke="#63b8ff" d="M546.27,-219.63C561.97,-198.65 591.11,-159.75 607.83,-137.42"/>
<polygon fill="#63b8ff" stroke="#63b8ff" points="610.77,-139.33 613.96,-129.23 605.17,-135.14 610.77,-139.33"/>
</a>
</g>
</g>
<!-- Node11 -->
<g id="Node000011" class="node">
<title>Node11</title>
<g id="a_Node000011"><a xlink:href="MAVLinkMessageType_8h.html" target="_top" xlink:title=" ">
<polygon fill="white" stroke="#666666" points="555.5,-184 421.5,-184 421.5,-165 555.5,-165 555.5,-184"/>
<text text-anchor="middle" x="488.5" y="-172" font-family="Helvetica,sans-Serif" font-size="10.00">MAVLinkMessageType.h</text>
</a>
</g>
</g>
<!-- Node1&#45;&gt;Node11 -->
<g id="edge10_Node000001_Node000011" class="edge">
<title>Node1&#45;&gt;Node11</title>
<g id="a_edge10_Node000001_Node000011"><a xlink:title=" ">
<path fill="none" stroke="#63b8ff" d="M524.12,-219.84C517.44,-211.52 508.95,-200.96 501.94,-192.23"/>
<polygon fill="#63b8ff" stroke="#63b8ff" points="504.53,-189.87 495.54,-184.27 499.08,-194.25 504.53,-189.87"/>
</a>
</g>
</g>
<!-- Node14 -->
<g id="Node000014" class="node">
<title>Node14</title>
<g id="a_Node000014"><a xlink:href="VehicleTypes_8h.html" target="_top" xlink:title=" ">
<polygon fill="white" stroke="#666666" points="701,-184 612,-184 612,-165 701,-165 701,-184"/>
<text text-anchor="middle" x="656.5" y="-172" font-family="Helvetica,sans-Serif" font-size="10.00">VehicleTypes.h</text>
</a>
</g>
</g>
<!-- Node1&#45;&gt;Node14 -->
<g id="edge13_Node000001_Node000014" class="edge">
<title>Node1&#45;&gt;Node14</title>
<g id="a_edge13_Node000001_Node000014"><a xlink:title=" ">
<path fill="none" stroke="#63b8ff" d="M564.48,-219.99C584.22,-210.45 610.17,-197.9 629.47,-188.57"/>
<polygon fill="#63b8ff" stroke="#63b8ff" points="631.15,-191.64 638.63,-184.14 628.1,-185.34 631.15,-191.64"/>
</a>
</g>
</g>
<!-- Node16 -->
<g id="Node000016" class="node">
<title>Node16</title>
<g id="a_Node000016"><a xlink:title=" ">
<polygon fill="#e0e0e0" stroke="#999999" points="815.5,-74 765.5,-74 765.5,-55 815.5,-55 815.5,-74"/>
<text text-anchor="middle" x="790.5" y="-62" font-family="Helvetica,sans-Serif" font-size="10.00">cstdint</text>
</a>
</g>
</g>
<!-- Node1&#45;&gt;Node16 -->
<g id="edge17_Node000001_Node000016" class="edge">
<title>Node1&#45;&gt;Node16</title>
<g id="a_edge17_Node000001_Node000016"><a xlink:title=" ">
<path fill="none" stroke="#63b8ff" d="M621.04,-228.9C687.76,-219.73 775.59,-194.96 815.5,-129 824.56,-114.03 814.85,-95.21 805.01,-81.95"/>
<polygon fill="#63b8ff" stroke="#63b8ff" points="807.72,-79.74 798.72,-74.14 802.27,-84.13 807.72,-79.74"/>
</a>
</g>
</g>
<!-- Node3 -->
<g id="Node000003" class="node">
<title>Node3</title>
<g id="a_Node000003"><a xlink:href="QGCState_8h.html" target="_top" xlink:title=" ">
<polygon fill="white" stroke="#666666" points="217,-129 144,-129 144,-110 217,-110 217,-129"/>
<text text-anchor="middle" x="180.5" y="-117" font-family="Helvetica,sans-Serif" font-size="10.00">QGCState.h</text>
</a>
</g>
</g>
<!-- Node2&#45;&gt;Node3 -->
<g id="edge2_Node000002_Node000003" class="edge">
<title>Node2&#45;&gt;Node3</title>
<g id="a_edge2_Node000002_Node000003"><a xlink:title=" ">
<path fill="none" stroke="#63b8ff" d="M261.92,-164.98C246.73,-156.69 223.4,-143.94 205.6,-134.22"/>
<polygon fill="#63b8ff" stroke="#63b8ff" points="206.82,-130.89 196.37,-129.17 203.47,-137.04 206.82,-130.89"/>
</a>
</g>
</g>
<!-- Node9 -->
<g id="Node000009" class="node">
<title>Node9</title>
<g id="a_Node000009"><a xlink:title=" ">
<polygon fill="#e0e0e0" stroke="#999999" points="324,-129 235,-129 235,-110 324,-110 324,-129"/>
<text text-anchor="middle" x="279.5" y="-117" font-family="Helvetica,sans-Serif" font-size="10.00">QtCore/QTimer</text>
</a>
</g>
</g>
<!-- Node2&#45;&gt;Node9 -->
<g id="edge8_Node000002_Node000009" class="edge">
<title>Node2&#45;&gt;Node9</title>
<g id="a_edge8_Node000002_Node000009"><a xlink:title=" ">
<path fill="none" stroke="#63b8ff" d="M277.83,-164.75C278.09,-157.8 278.47,-147.85 278.8,-139.13"/>
<polygon fill="#63b8ff" stroke="#63b8ff" points="282.3,-139.21 279.18,-129.09 275.3,-138.95 282.3,-139.21"/>
</a>
</g>
</g>
<!-- Node4 -->
<g id="Node000004" class="node">
<title>Node4</title>
<g id="a_Node000004"><a xlink:href="QGCAbstractState_8h.html" target="_top" xlink:title=" ">
<polygon fill="white" stroke="#666666" points="165,-74 52,-74 52,-55 165,-55 165,-74"/>
<text text-anchor="middle" x="108.5" y="-62" font-family="Helvetica,sans-Serif" font-size="10.00">QGCAbstractState.h</text>
</a>
</g>
</g>
<!-- Node3&#45;&gt;Node4 -->
<g id="edge3_Node000003_Node000004" class="edge">
<title>Node3&#45;&gt;Node4</title>
<g id="a_edge3_Node000003_Node000004"><a xlink:title=" ">
<path fill="none" stroke="#63b8ff" d="M168.93,-109.98C158.08,-102 141.62,-89.88 128.62,-80.31"/>
<polygon fill="#63b8ff" stroke="#63b8ff" points="130.41,-77.28 120.28,-74.17 126.26,-82.92 130.41,-77.28"/>
</a>
</g>
</g>
<!-- Node8 -->
<g id="Node000008" class="node">
<title>Node8</title>
<g id="a_Node000008"><a xlink:title=" ">
<polygon fill="#e0e0e0" stroke="#999999" points="326,-74 183,-74 183,-55 326,-55 326,-74"/>
<text text-anchor="middle" x="254.5" y="-62" font-family="Helvetica,sans-Serif" font-size="10.00">QtCore/QLoggingCategory</text>
</a>
</g>
</g>
<!-- Node3&#45;&gt;Node8 -->
<g id="edge7_Node000003_Node000008" class="edge">
<title>Node3&#45;&gt;Node8</title>
<g id="a_edge7_Node000003_Node000008"><a xlink:title=" ">
<path fill="none" stroke="#63b8ff" d="M192.39,-109.98C203.65,-101.92 220.79,-89.65 234.21,-80.03"/>
<polygon fill="#63b8ff" stroke="#63b8ff" points="236.3,-82.84 242.39,-74.17 232.23,-77.15 236.3,-82.84"/>
</a>
</g>
</g>
<!-- Node5 -->
<g id="Node000005" class="node">
<title>Node5</title>
<g id="a_Node000005"><a xlink:title=" ">
<polygon fill="#e0e0e0" stroke="#999999" points="238,-19 107,-19 107,0 238,0 238,-19"/>
<text text-anchor="middle" x="172.5" y="-7" font-family="Helvetica,sans-Serif" font-size="10.00">QtStateMachine/QState</text>
</a>
</g>
</g>
<!-- Node4&#45;&gt;Node5 -->
<g id="edge4_Node000004_Node000005" class="edge">
<title>Node4&#45;&gt;Node5</title>
<g id="a_edge4_Node000004_Node000005"><a xlink:title=" ">
<path fill="none" stroke="#63b8ff" d="M118.78,-54.98C128.34,-47.07 142.78,-35.11 154.28,-25.58"/>
<polygon fill="#63b8ff" stroke="#63b8ff" points="156.56,-28.24 162.03,-19.17 152.1,-22.85 156.56,-28.24"/>
</a>
</g>
</g>
<!-- Node6 -->
<g id="Node000006" class="node">
<title>Node6</title>
<g id="a_Node000006"><a xlink:title=" ">
<polygon fill="#e0e0e0" stroke="#999999" points="89,-19 0,-19 0,0 89,0 89,-19"/>
<text text-anchor="middle" x="44.5" y="-7" font-family="Helvetica,sans-Serif" font-size="10.00">QtCore/QString</text>
</a>
</g>
</g>
<!-- Node4&#45;&gt;Node6 -->
<g id="edge5_Node000004_Node000006" class="edge">
<title>Node4&#45;&gt;Node6</title>
<g id="a_edge5_Node000004_Node000006"><a xlink:title=" ">
<path fill="none" stroke="#63b8ff" d="M98.22,-54.98C88.66,-47.07 74.22,-35.11 62.72,-25.58"/>
<polygon fill="#63b8ff" stroke="#63b8ff" points="64.9,-22.85 54.97,-19.17 60.44,-28.24 64.9,-22.85"/>
</a>
</g>
</g>
<!-- Node4&#45;&gt;Node7 -->
<g id="edge6_Node000004_Node000007" class="edge">
<title>Node4&#45;&gt;Node7</title>
<g id="a_edge6_Node000004_Node000007"><a xlink:title=" ">
<path fill="none" stroke="#63b8ff" d="M142.72,-54.98C179.8,-45.76 239,-31.03 279.03,-21.07"/>
<polygon fill="#63b8ff" stroke="#63b8ff" points="279.9,-24.46 288.76,-18.65 278.21,-17.66 279.9,-24.46"/>
</a>
</g>
</g>
<!-- Node12 -->
<g id="Node000012" class="node">
<title>Node12</title>
<g id="a_Node000012"><a xlink:title=" ">
<polygon fill="#e0e0e0" stroke="#999999" points="552,-129 499,-129 499,-110 552,-110 552,-129"/>
<text text-anchor="middle" x="525.5" y="-117" font-family="Helvetica,sans-Serif" font-size="10.00">stdint.h</text>
</a>
</g>
</g>
<!-- Node11&#45;&gt;Node12 -->
<g id="edge11_Node000011_Node000012" class="edge">
<title>Node11&#45;&gt;Node12</title>
<g id="a_edge11_Node000011_Node000012"><a xlink:title=" ">
<path fill="none" stroke="#63b8ff" d="M494.61,-164.75C499.78,-157.34 507.35,-146.5 513.69,-137.41"/>
<polygon fill="#63b8ff" stroke="#63b8ff" points="516.65,-139.29 519.5,-129.09 510.91,-135.29 516.65,-139.29"/>
</a>
</g>
</g>
<!-- Node13 -->
<g id="Node000013" class="node">
<title>Node13</title>
<g id="a_Node000013"><a xlink:title=" ">
<polygon fill="#e0e0e0" stroke="#999999" points="480.5,-129 382.5,-129 382.5,-110 480.5,-110 480.5,-129"/>
<text text-anchor="middle" x="431.5" y="-117" font-family="Helvetica,sans-Serif" font-size="10.00">mavlink_types.h</text>
</a>
</g>
</g>
<!-- Node11&#45;&gt;Node13 -->
<g id="edge12_Node000011_Node000013" class="edge">
<title>Node11&#45;&gt;Node13</title>
<g id="a_edge12_Node000011_Node000013"><a xlink:title=" ">
<path fill="none" stroke="#63b8ff" d="M479.34,-164.98C471,-157.23 458.47,-145.58 448.32,-136.14"/>
<polygon fill="#63b8ff" stroke="#63b8ff" points="450.53,-133.42 440.82,-129.17 445.76,-138.54 450.53,-133.42"/>
</a>
</g>
</g>
<!-- Node14&#45;&gt;Node10 -->
<g id="edge14_Node000014_Node000010" class="edge">
<title>Node14&#45;&gt;Node10</title>
<g id="a_edge14_Node000014_Node000010"><a xlink:title=" ">
<path fill="none" stroke="#63b8ff" d="M650.56,-164.75C645.52,-157.34 638.16,-146.5 631.99,-137.41"/>
<polygon fill="#63b8ff" stroke="#63b8ff" points="634.85,-135.39 626.33,-129.09 629.06,-139.33 634.85,-135.39"/>
</a>
</g>
</g>
<!-- Node15 -->
<g id="Node000015" class="node">
<title>Node15</title>
<g id="a_Node000015"><a xlink:href="QGCMAVLinkTypes_8h.html" target="_top" xlink:title=" ">
<polygon fill="white" stroke="#666666" points="806,-129 689,-129 689,-110 806,-110 806,-129"/>
<text text-anchor="middle" x="747.5" y="-117" font-family="Helvetica,sans-Serif" font-size="10.00">QGCMAVLinkTypes.h</text>
</a>
</g>
</g>
<!-- Node14&#45;&gt;Node15 -->
<g id="edge15_Node000014_Node000015" class="edge">
<title>Node14&#45;&gt;Node15</title>
<g id="a_edge15_Node000014_Node000015"><a xlink:title=" ">
<path fill="none" stroke="#63b8ff" d="M671.12,-164.98C685.36,-156.69 707.25,-143.94 723.95,-134.22"/>
<polygon fill="#63b8ff" stroke="#63b8ff" points="725.73,-137.23 732.61,-129.17 722.21,-131.18 725.73,-137.23"/>
</a>
</g>
</g>
<!-- Node15&#45;&gt;Node16 -->
<g id="edge16_Node000015_Node000016" class="edge">
<title>Node15&#45;&gt;Node16</title>
<g id="a_edge16_Node000015_Node000016"><a xlink:title=" ">
<path fill="none" stroke="#63b8ff" d="M754.6,-109.75C760.67,-102.26 769.59,-91.28 777.01,-82.13"/>
<polygon fill="#63b8ff" stroke="#63b8ff" points="779.95,-84.06 783.53,-74.09 774.51,-79.65 779.95,-84.06"/>
</a>
</g>
</g>
</g>
</svg>

<g id="navigator" transform="translate(0 0)" fill="#404254">
  <rect fill="#f2f5e9" fill-opacity="0.5" stroke="#606060" stroke-width=".5" x="0" y="0" width="60" height="60"/>
  <use id="zoomplus" xlink:href="#zoomPlus" x="17" y="9" onmousedown="handleZoom(evt,'in')"/>
  <use id="zoomminus" xlink:href="#zoomMin" x="42" y="9" onmousedown="handleZoom(evt,'out')"/>
  <use id="reset" xlink:href="#resetDef" x="30" y="36" onmousedown="handleReset()"/>
   <use id="arrowup" xlink:href="#arrowUp" x="0" y="0" onmousedown="handlePan(0,-1)"/>
  <use id="arrowright" xlink:href="#arrowRight" x="0" y="0" onmousedown="handlePan(1,0)"/>
  <use id="arrowdown" xlink:href="#arrowDown" x="0" y="0" onmousedown="handlePan(0,1)"/>
  <use id="arrowleft" xlink:href="#arrowLeft" x="0" y="0" onmousedown="handlePan(-1,0)"/>
</g>
<svg viewBox="0 0 15 15" width="100%" height="30px" preserveAspectRatio="xMaxYMin meet">
 <g id="arrow_out" transform="scale(0.3 0.3)">
  <a xlink:href="RequestMessageState_8h__incl_org.svg" target="_base">
   <rect id="button" ry="5" rx="5" y="6" x="6" height="38" width="38"
        fill="#f2f5e9" fill-opacity="0.5" stroke="#606060" stroke-width="1.0"/>
   <path id="arrow"
     d="M 11.500037,31.436501 C 11.940474,20.09759 22.043105,11.32322 32.158766,21.979434 L 37.068811,17.246167 C 37.068811,17.246167 37.088388,32 37.088388,32 L 22.160133,31.978069 C 22.160133,31.978069 26.997745,27.140456 26.997745,27.140456 C 18.528582,18.264221 13.291696,25.230495 11.500037,31.436501 z"
     style="fill:#404040;"/>
  </a>
 </g>
</svg>

<style type='text/css'>
<![CDATA[
[data-mouse-over-selected='false'] { opacity: 0.7; }
[data-mouse-over-selected='true']  { opacity: 1.0; }
]]>
</style>
<script type="application/ecmascript"><![CDATA[
document.addEventListener('DOMContentLoaded', (event) => {
  highlightEdges();
  highlightAdjacentNodes();
});
]]></script>
</svg>
