<?xml version="1.0" encoding="UTF-8" standalone="no"?>
<!DOCTYPE svg PUBLIC "-//W3C//DTD SVG 1.1//EN"
 "http://www.w3.org/Graphics/SVG/1.1/DTD/svg11.dtd">
<!-- Generated by graphviz version 2.43.0 (0)
 -->
<!-- Title: src/Utilities/StateMachine/States/RetryState.cc Pages: 1 -->
<!--zoomable 258 -->

<svg id="main" version="1.1" xmlns="http://www.w3.org/2000/svg" xmlns:xlink="http://www.w3.org/1999/xlink" xml:space="preserve" onload="init(evt)">
<style type="text/css"><![CDATA[
.node, .edge {opacity: 0.7;}
.node.selected, .edge.selected {opacity: 1;}
.edge:hover path { stroke: red; }
.edge:hover polygon { stroke: red; fill: red; }
]]></style>

<defs>
  <circle id="rim" cx="0" cy="0" r="7"/>
  <circle id="rim2" cx="0" cy="0" r="3.5"/>
  <g id="zoomPlus">
    <use xlink:href="#rim" fill="#404040"><set attributeName="fill" to="#808080" begin="zoomplus.mouseover" end="zoomplus.mouseout"/></use>
    <path d="M-4,0h8M0,-4v8" fill="none" stroke="white" stroke-width="1.5" pointer-events="none"/>
  </g>
  <g id="zoomMin">
    <use xlink:href="#rim" fill="#404040"><set attributeName="fill" to="#808080" begin="zoomminus.mouseover" end="zoomminus.mouseout"/></use>
    <path d="M-4,0h8" fill="none" stroke="white" stroke-width="1.5" pointer-events="none"/>
  </g>
  <g id="arrowUp" transform="translate(30 24)">
    <use xlink:href="#rim"/>
    <path pointer-events="none" fill="none" stroke="white" stroke-width="1.5" d="M0,-3.0v7 M-2.5,-0.5L0,-3.0L2.5,-0.5"/>
  </g>
  <g id="arrowRight" transform="rotate(90) translate(36 -43)">
    <use xlink:href="#rim"/>
    <path pointer-events="none" fill="none" stroke="white" stroke-width="1.5" d="M0,-3.0v7 M-2.5,-0.5L0,-3.0L2.5,-0.5"/>
  </g>
  <g id="arrowDown" transform="rotate(180) translate(-30 -48)">
    <use xlink:href="#rim"/>
    <path pointer-events="none" fill="none" stroke="white" stroke-width="1.5" d="M0,-3.0v7 M-2.5,-0.5L0,-3.0L2.5,-0.5"/>
  </g>
  <g id="arrowLeft" transform="rotate(270) translate(-36 17)">
    <use xlink:href="#rim"/>
    <path pointer-events="none" fill="none" stroke="white" stroke-width="1.5" d="M0,-3.0v7 M-2.5,-0.5L0,-3.0L2.5,-0.5"/>
  </g>
  <g id="resetDef">
    <use xlink:href="#rim2" fill="#404040"><set attributeName="fill" to="#808080" begin="reset.mouseover" end="reset.mouseout"/></use>
  </g>
</defs>
<script type="application/ecmascript">
var viewWidth = 1128;
var viewHeight = 258;
var sectionId = 'dynsection-0';
</script>
<script type="application/ecmascript" xlink:href="svg.min.js"/>
<svg id="graph" class="graph">
<g id="viewport">
<title>src/Utilities/StateMachine/States/RetryState.cc</title>
<!-- Node1 -->
<g id="Node000001" class="node">
<title>Node1</title>
<g id="a_Node000001"><a xlink:title=" ">
<polygon fill="#999999" stroke="#666666" points="287.5,-250 145.5,-250 145.5,-220 287.5,-220 287.5,-250"/>
<text text-anchor="start" x="153.5" y="-238" font-family="Helvetica,sans-Serif" font-size="10.00">src/Utilities/StateMachine</text>
<text text-anchor="middle" x="216.5" y="-227" font-family="Helvetica,sans-Serif" font-size="10.00">/States/RetryState.cc</text>
</a>
</g>
</g>
<!-- Node2 -->
<g id="Node000002" class="node">
<title>Node2</title>
<g id="a_Node000002"><a xlink:href="RetryState_8h.html" target="_top" xlink:title=" ">
<polygon fill="white" stroke="#666666" points="222,-184 145,-184 145,-165 222,-165 222,-184"/>
<text text-anchor="middle" x="183.5" y="-172" font-family="Helvetica,sans-Serif" font-size="10.00">RetryState.h</text>
</a>
</g>
</g>
<!-- Node1&#45;&gt;Node2 -->
<g id="edge1_Node000001_Node000002" class="edge">
<title>Node1&#45;&gt;Node2</title>
<g id="a_edge1_Node000001_Node000002"><a xlink:title=" ">
<path fill="none" stroke="#63b8ff" d="M208.51,-219.84C203.97,-211.78 198.23,-201.62 193.4,-193.06"/>
<polygon fill="#63b8ff" stroke="#63b8ff" points="196.41,-191.26 188.44,-184.27 190.31,-194.7 196.41,-191.26"/>
</a>
</g>
</g>
<!-- Node10 -->
<g id="Node000010" class="node">
<title>Node10</title>
<g id="a_Node000010"><a xlink:href="QGCLoggingCategory_8h.html" target="_top" xlink:title=" ">
<polygon fill="white" stroke="#666666" points="746.5,-129 618.5,-129 618.5,-110 746.5,-110 746.5,-129"/>
<text text-anchor="middle" x="682.5" y="-117" font-family="Helvetica,sans-Serif" font-size="10.00">QGCLoggingCategory.h</text>
</a>
</g>
</g>
<!-- Node1&#45;&gt;Node10 -->
<g id="edge10_Node000001_Node000010" class="edge">
<title>Node1&#45;&gt;Node10</title>
<g id="a_edge10_Node000001_Node000010"><a xlink:title=" ">
<path fill="none" stroke="#63b8ff" d="M274.11,-219.97C368.06,-197.09 552.32,-152.21 637.43,-131.48"/>
<polygon fill="#63b8ff" stroke="#63b8ff" points="638.42,-134.84 647.31,-129.07 636.76,-128.04 638.42,-134.84"/>
</a>
</g>
</g>
<!-- Node3 -->
<g id="Node000003" class="node">
<title>Node3</title>
<g id="a_Node000003"><a xlink:href="QGCState_8h.html" target="_top" xlink:title=" ">
<polygon fill="white" stroke="#666666" points="270,-129 197,-129 197,-110 270,-110 270,-129"/>
<text text-anchor="middle" x="233.5" y="-117" font-family="Helvetica,sans-Serif" font-size="10.00">QGCState.h</text>
</a>
</g>
</g>
<!-- Node2&#45;&gt;Node3 -->
<g id="edge2_Node000002_Node000003" class="edge">
<title>Node2&#45;&gt;Node3</title>
<g id="a_edge2_Node000002_Node000003"><a xlink:title=" ">
<path fill="none" stroke="#63b8ff" d="M191.76,-164.75C198.96,-157.11 209.61,-145.82 218.35,-136.56"/>
<polygon fill="#63b8ff" stroke="#63b8ff" points="221.08,-138.76 225.4,-129.09 215.99,-133.96 221.08,-138.76"/>
</a>
</g>
</g>
<!-- Node7 -->
<g id="Node000007" class="node">
<title>Node7</title>
<g id="a_Node000007"><a xlink:title=" ">
<polygon fill="#e0e0e0" stroke="#999999" points="65,-19 0,-19 0,0 65,0 65,-19"/>
<text text-anchor="middle" x="32.5" y="-7" font-family="Helvetica,sans-Serif" font-size="10.00">functional</text>
</a>
</g>
</g>
<!-- Node2&#45;&gt;Node7 -->
<g id="edge9_Node000002_Node000007" class="edge">
<title>Node2&#45;&gt;Node7</title>
<g id="a_edge9_Node000002_Node000007"><a xlink:title=" ">
<path fill="none" stroke="#63b8ff" d="M149.57,-164.88C128.05,-158.03 100.74,-146.61 81.5,-129 52.18,-102.15 39.92,-55.1 35.19,-29.09"/>
<polygon fill="#63b8ff" stroke="#63b8ff" points="38.62,-28.37 33.55,-19.07 31.71,-29.5 38.62,-28.37"/>
</a>
</g>
</g>
<!-- Node9 -->
<g id="Node000009" class="node">
<title>Node9</title>
<g id="a_Node000009"><a xlink:title=" ">
<polygon fill="#e0e0e0" stroke="#999999" points="179,-129 90,-129 90,-110 179,-110 179,-129"/>
<text text-anchor="middle" x="134.5" y="-117" font-family="Helvetica,sans-Serif" font-size="10.00">QtCore/QTimer</text>
</a>
</g>
</g>
<!-- Node2&#45;&gt;Node9 -->
<g id="edge8_Node000002_Node000009" class="edge">
<title>Node2&#45;&gt;Node9</title>
<g id="a_edge8_Node000002_Node000009"><a xlink:title=" ">
<path fill="none" stroke="#63b8ff" d="M175.41,-164.75C168.34,-157.11 157.91,-145.82 149.35,-136.56"/>
<polygon fill="#63b8ff" stroke="#63b8ff" points="151.8,-134.06 142.44,-129.09 146.66,-138.81 151.8,-134.06"/>
</a>
</g>
</g>
<!-- Node4 -->
<g id="Node000004" class="node">
<title>Node4</title>
<g id="a_Node000004"><a xlink:href="QGCAbstractState_8h.html" target="_top" xlink:title=" ">
<polygon fill="white" stroke="#666666" points="174,-74 61,-74 61,-55 174,-55 174,-74"/>
<text text-anchor="middle" x="117.5" y="-62" font-family="Helvetica,sans-Serif" font-size="10.00">QGCAbstractState.h</text>
</a>
</g>
</g>
<!-- Node3&#45;&gt;Node4 -->
<g id="edge3_Node000003_Node000004" class="edge">
<title>Node3&#45;&gt;Node4</title>
<g id="a_edge3_Node000003_Node000004"><a xlink:title=" ">
<path fill="none" stroke="#63b8ff" d="M214.86,-109.98C196.2,-101.46 167.25,-88.23 145.76,-78.41"/>
<polygon fill="#63b8ff" stroke="#63b8ff" points="147.03,-75.14 136.48,-74.17 144.12,-81.51 147.03,-75.14"/>
</a>
</g>
</g>
<!-- Node8 -->
<g id="Node000008" class="node">
<title>Node8</title>
<g id="a_Node000008"><a xlink:title=" ">
<polygon fill="#e0e0e0" stroke="#999999" points="335,-74 192,-74 192,-55 335,-55 335,-74"/>
<text text-anchor="middle" x="263.5" y="-62" font-family="Helvetica,sans-Serif" font-size="10.00">QtCore/QLoggingCategory</text>
</a>
</g>
</g>
<!-- Node3&#45;&gt;Node8 -->
<g id="edge7_Node000003_Node000008" class="edge">
<title>Node3&#45;&gt;Node8</title>
<g id="a_edge7_Node000003_Node000008"><a xlink:title=" ">
<path fill="none" stroke="#63b8ff" d="M238.45,-109.75C242.56,-102.49 248.53,-91.95 253.6,-82.98"/>
<polygon fill="#63b8ff" stroke="#63b8ff" points="256.76,-84.52 258.64,-74.09 250.67,-81.07 256.76,-84.52"/>
</a>
</g>
</g>
<!-- Node5 -->
<g id="Node000005" class="node">
<title>Node5</title>
<g id="a_Node000005"><a xlink:title=" ">
<polygon fill="#e0e0e0" stroke="#999999" points="214,-19 83,-19 83,0 214,0 214,-19"/>
<text text-anchor="middle" x="148.5" y="-7" font-family="Helvetica,sans-Serif" font-size="10.00">QtStateMachine/QState</text>
</a>
</g>
</g>
<!-- Node4&#45;&gt;Node5 -->
<g id="edge4_Node000004_Node000005" class="edge">
<title>Node4&#45;&gt;Node5</title>
<g id="a_edge4_Node000004_Node000005"><a xlink:title=" ">
<path fill="none" stroke="#63b8ff" d="M122.62,-54.75C126.86,-47.49 133.03,-36.95 138.28,-27.98"/>
<polygon fill="#63b8ff" stroke="#63b8ff" points="141.45,-29.49 143.48,-19.09 135.41,-25.95 141.45,-29.49"/>
</a>
</g>
</g>
<!-- Node6 -->
<g id="Node000006" class="node">
<title>Node6</title>
<g id="a_Node000006"><a xlink:title=" ">
<polygon fill="#e0e0e0" stroke="#999999" points="630,-19 541,-19 541,0 630,0 630,-19"/>
<text text-anchor="middle" x="585.5" y="-7" font-family="Helvetica,sans-Serif" font-size="10.00">QtCore/QString</text>
</a>
</g>
</g>
<!-- Node4&#45;&gt;Node6 -->
<g id="edge5_Node000004_Node000006" class="edge">
<title>Node4&#45;&gt;Node6</title>
<g id="a_edge5_Node000004_Node000006"><a xlink:title=" ">
<path fill="none" stroke="#63b8ff" d="M174.02,-56.15C177.22,-55.76 180.4,-55.37 183.5,-55 307.61,-40.14 453.49,-24.43 530.86,-16.24"/>
<polygon fill="#63b8ff" stroke="#63b8ff" points="531.28,-19.71 540.85,-15.18 530.54,-12.75 531.28,-19.71"/>
</a>
</g>
</g>
<!-- Node4&#45;&gt;Node7 -->
<g id="edge6_Node000004_Node000007" class="edge">
<title>Node4&#45;&gt;Node7</title>
<g id="a_edge6_Node000004_Node000007"><a xlink:title=" ">
<path fill="none" stroke="#63b8ff" d="M103.84,-54.98C90.66,-46.77 70.47,-34.18 54.93,-24.49"/>
<polygon fill="#63b8ff" stroke="#63b8ff" points="56.74,-21.49 46.41,-19.17 53.04,-27.43 56.74,-21.49"/>
</a>
</g>
</g>
<!-- Node10&#45;&gt;Node6 -->
<g id="edge16_Node000010_Node000006" class="edge">
<title>Node10&#45;&gt;Node6</title>
<g id="a_edge16_Node000010_Node000006"><a xlink:title=" ">
<path fill="none" stroke="#63b8ff" d="M746.76,-117.29C817.32,-113.71 915.75,-100.71 876.5,-55 846.69,-20.28 716.19,-12.36 640.46,-10.74"/>
<polygon fill="#63b8ff" stroke="#63b8ff" points="640.21,-7.23 630.15,-10.55 640.08,-14.23 640.21,-7.23"/>
</a>
</g>
</g>
<!-- Node10&#45;&gt;Node8 -->
<g id="edge12_Node000010_Node000008" class="edge">
<title>Node10&#45;&gt;Node8</title>
<g id="a_edge12_Node000010_Node000008"><a xlink:title=" ">
<path fill="none" stroke="#63b8ff" d="M618.41,-110.39C543.77,-100.95 420.55,-85.37 340.71,-75.27"/>
<polygon fill="#63b8ff" stroke="#63b8ff" points="341.07,-71.78 330.71,-74 340.19,-78.73 341.07,-71.78"/>
</a>
</g>
</g>
<!-- Node11 -->
<g id="Node000011" class="node">
<title>Node11</title>
<g id="a_Node000011"><a xlink:title=" ">
<polygon fill="#e0e0e0" stroke="#999999" points="1009.5,-74 923.5,-74 923.5,-55 1009.5,-55 1009.5,-74"/>
<text text-anchor="middle" x="966.5" y="-62" font-family="Helvetica,sans-Serif" font-size="10.00">QtCore/QHash</text>
</a>
</g>
</g>
<!-- Node10&#45;&gt;Node11 -->
<g id="edge11_Node000010_Node000011" class="edge">
<title>Node10&#45;&gt;Node11</title>
<g id="a_edge11_Node000010_Node000011"><a xlink:title=" ">
<path fill="none" stroke="#63b8ff" d="M728.13,-109.98C778.65,-100.56 860,-85.38 913.36,-75.42"/>
<polygon fill="#63b8ff" stroke="#63b8ff" points="914.12,-78.84 923.31,-73.56 912.84,-71.95 914.12,-78.84"/>
</a>
</g>
</g>
<!-- Node12 -->
<g id="Node000012" class="node">
<title>Node12</title>
<g id="a_Node000012"><a xlink:title=" ">
<polygon fill="#e0e0e0" stroke="#999999" points="1119.5,-74 1027.5,-74 1027.5,-55 1119.5,-55 1119.5,-74"/>
<text text-anchor="middle" x="1073.5" y="-62" font-family="Helvetica,sans-Serif" font-size="10.00">QtCore/QObject</text>
</a>
</g>
</g>
<!-- Node10&#45;&gt;Node12 -->
<g id="edge13_Node000010_Node000012" class="edge">
<title>Node10&#45;&gt;Node12</title>
<g id="a_edge13_Node000010_Node000012"><a xlink:title=" ">
<path fill="none" stroke="#63b8ff" d="M746.66,-110.42C812.14,-102.08 916.97,-88.47 1017.29,-74.15"/>
<polygon fill="#63b8ff" stroke="#63b8ff" points="1017.89,-77.6 1027.3,-72.71 1016.9,-70.67 1017.89,-77.6"/>
</a>
</g>
</g>
<!-- Node13 -->
<g id="Node000013" class="node">
<title>Node13</title>
<g id="a_Node000013"><a xlink:title=" ">
<polygon fill="#e0e0e0" stroke="#999999" points="487.5,-74 353.5,-74 353.5,-55 487.5,-55 487.5,-74"/>
<text text-anchor="middle" x="420.5" y="-62" font-family="Helvetica,sans-Serif" font-size="10.00">QtCore/QReadWriteLock</text>
</a>
</g>
</g>
<!-- Node10&#45;&gt;Node13 -->
<g id="edge14_Node000010_Node000013" class="edge">
<title>Node10&#45;&gt;Node13</title>
<g id="a_edge14_Node000010_Node000013"><a xlink:title=" ">
<path fill="none" stroke="#63b8ff" d="M640.41,-109.98C594.8,-100.76 521.98,-86.03 472.75,-76.07"/>
<polygon fill="#63b8ff" stroke="#63b8ff" points="473.42,-72.63 462.92,-74.08 472.03,-79.5 473.42,-72.63"/>
</a>
</g>
</g>
<!-- Node14 -->
<g id="Node000014" class="node">
<title>Node14</title>
<g id="a_Node000014"><a xlink:title=" ">
<polygon fill="#e0e0e0" stroke="#999999" points="583,-74 506,-74 506,-55 583,-55 583,-74"/>
<text text-anchor="middle" x="544.5" y="-62" font-family="Helvetica,sans-Serif" font-size="10.00">QtCore/QSet</text>
</a>
</g>
</g>
<!-- Node10&#45;&gt;Node14 -->
<g id="edge15_Node000010_Node000014" class="edge">
<title>Node10&#45;&gt;Node14</title>
<g id="a_edge15_Node000010_Node000014"><a xlink:title=" ">
<path fill="none" stroke="#63b8ff" d="M660.33,-109.98C637.73,-101.3 602.44,-87.75 576.75,-77.88"/>
<polygon fill="#63b8ff" stroke="#63b8ff" points="577.67,-74.49 567.08,-74.17 575.16,-81.02 577.67,-74.49"/>
</a>
</g>
</g>
<!-- Node15 -->
<g id="Node000015" class="node">
<title>Node15</title>
<g id="a_Node000015"><a xlink:title=" ">
<polygon fill="#e0e0e0" stroke="#999999" points="764,-74 601,-74 601,-55 764,-55 764,-74"/>
<text text-anchor="middle" x="682.5" y="-62" font-family="Helvetica,sans-Serif" font-size="10.00">QtCore/QSortFilterProxyModel</text>
</a>
</g>
</g>
<!-- Node10&#45;&gt;Node15 -->
<g id="edge17_Node000010_Node000015" class="edge">
<title>Node10&#45;&gt;Node15</title>
<g id="a_edge17_Node000010_Node000015"><a xlink:title=" ">
<path fill="none" stroke="#63b8ff" d="M682.5,-109.75C682.5,-102.8 682.5,-92.85 682.5,-84.13"/>
<polygon fill="#63b8ff" stroke="#63b8ff" points="686,-84.09 682.5,-74.09 679,-84.09 686,-84.09"/>
</a>
</g>
</g>
<!-- Node16 -->
<g id="Node000016" class="node">
<title>Node16</title>
<g id="a_Node000016"><a xlink:title=" ">
<polygon fill="#e0e0e0" stroke="#999999" points="867,-74 782,-74 782,-55 867,-55 867,-74"/>
<text text-anchor="middle" x="824.5" y="-62" font-family="Helvetica,sans-Serif" font-size="10.00">QtQml/qqml.h</text>
</a>
</g>
</g>
<!-- Node10&#45;&gt;Node16 -->
<g id="edge18_Node000010_Node000016" class="edge">
<title>Node10&#45;&gt;Node16</title>
<g id="a_edge18_Node000010_Node000016"><a xlink:title=" ">
<path fill="none" stroke="#63b8ff" d="M705.31,-109.98C728.67,-101.27 765.2,-87.63 791.67,-77.75"/>
<polygon fill="#63b8ff" stroke="#63b8ff" points="793.13,-80.95 801.27,-74.17 790.68,-74.39 793.13,-80.95"/>
</a>
</g>
</g>
</g>
</svg>

<g id="navigator" transform="translate(0 0)" fill="#404254">
  <rect fill="#f2f5e9" fill-opacity="0.5" stroke="#606060" stroke-width=".5" x="0" y="0" width="60" height="60"/>
  <use id="zoomplus" xlink:href="#zoomPlus" x="17" y="9" onmousedown="handleZoom(evt,'in')"/>
  <use id="zoomminus" xlink:href="#zoomMin" x="42" y="9" onmousedown="handleZoom(evt,'out')"/>
  <use id="reset" xlink:href="#resetDef" x="30" y="36" onmousedown="handleReset()"/>
   <use id="arrowup" xlink:href="#arrowUp" x="0" y="0" onmousedown="handlePan(0,-1)"/>
  <use id="arrowright" xlink:href="#arrowRight" x="0" y="0" onmousedown="handlePan(1,0)"/>
  <use id="arrowdown" xlink:href="#arrowDown" x="0" y="0" onmousedown="handlePan(0,1)"/>
  <use id="arrowleft" xlink:href="#arrowLeft" x="0" y="0" onmousedown="handlePan(-1,0)"/>
</g>
<svg viewBox="0 0 15 15" width="100%" height="30px" preserveAspectRatio="xMaxYMin meet">
 <g id="arrow_out" transform="scale(0.3 0.3)">
  <a xlink:href="RetryState_8cc__incl_org.svg" target="_base">
   <rect id="button" ry="5" rx="5" y="6" x="6" height="38" width="38"
        fill="#f2f5e9" fill-opacity="0.5" stroke="#606060" stroke-width="1.0"/>
   <path id="arrow"
     d="M 11.500037,31.436501 C 11.940474,20.09759 22.043105,11.32322 32.158766,21.979434 L 37.068811,17.246167 C 37.068811,17.246167 37.088388,32 37.088388,32 L 22.160133,31.978069 C 22.160133,31.978069 26.997745,27.140456 26.997745,27.140456 C 18.528582,18.264221 13.291696,25.230495 11.500037,31.436501 z"
     style="fill:#404040;"/>
  </a>
 </g>
</svg>

<style type='text/css'>
<![CDATA[
[data-mouse-over-selected='false'] { opacity: 0.7; }
[data-mouse-over-selected='true']  { opacity: 1.0; }
]]>
</style>
<script type="application/ecmascript"><![CDATA[
document.addEventListener('DOMContentLoaded', (event) => {
  highlightEdges();
  highlightAdjacentNodes();
});
]]></script>
</svg>
