<?xml version="1.0" encoding="UTF-8" standalone="no"?>
<!DOCTYPE svg PUBLIC "-//W3C//DTD SVG 1.1//EN"
 "http://www.w3.org/Graphics/SVG/1.1/DTD/svg11.dtd">
<!-- Generated by graphviz version 2.43.0 (0)
 -->
<!-- Title: src/Utilities/StateMachine/Transitions/RetryTransition.cc Pages: 1 -->
<svg width="530pt" height="258pt"
 viewBox="0.00 0.00 529.50 258.00" xmlns="http://www.w3.org/2000/svg" xmlns:xlink="http://www.w3.org/1999/xlink">
<g id="graph0" class="graph" transform="scale(1 1) rotate(0) translate(4 254)">
<title>src/Utilities/StateMachine/Transitions/RetryTransition.cc</title>
<!-- Node1 -->
<g id="Node000001" class="node">
<title>Node1</title>
<g id="a_Node000001"><a xlink:title=" ">
<polygon fill="#999999" stroke="#666666" points="392,-250 230,-250 230,-220 392,-220 392,-250"/>
<text text-anchor="start" x="238" y="-238" font-family="Helvetica,sans-Serif" font-size="10.00">src/Utilities/StateMachine</text>
<text text-anchor="middle" x="311" y="-227" font-family="Helvetica,sans-Serif" font-size="10.00">/Transitions/RetryTransition.cc</text>
</a>
</g>
</g>
<!-- Node2 -->
<g id="Node000002" class="node">
<title>Node2</title>
<g id="a_Node000002"><a xlink:href="RetryTransition_8h.html" target="_top" xlink:title=" ">
<polygon fill="white" stroke="#666666" points="244.5,-129 145.5,-129 145.5,-110 244.5,-110 244.5,-129"/>
<text text-anchor="middle" x="195" y="-117" font-family="Helvetica,sans-Serif" font-size="10.00">RetryTransition.h</text>
</a>
</g>
</g>
<!-- Node1&#45;&gt;Node2 -->
<g id="edge1_Node000001_Node000002" class="edge">
<title>Node1&#45;&gt;Node2</title>
<g id="a_edge1_Node000001_Node000002"><a xlink:title=" ">
<path fill="none" stroke="#63b8ff" d="M295.92,-219.62C285.51,-209.66 271.36,-196.08 259,-184 242.49,-167.88 223.78,-149.27 210.87,-136.38"/>
<polygon fill="#63b8ff" stroke="#63b8ff" points="213.2,-133.76 203.65,-129.17 208.25,-138.72 213.2,-133.76"/>
</a>
</g>
</g>
<!-- Node6 -->
<g id="Node000006" class="node">
<title>Node6</title>
<g id="a_Node000006"><a xlink:title=" ">
<polygon fill="#e0e0e0" stroke="#999999" points="367.5,-74 224.5,-74 224.5,-55 367.5,-55 367.5,-74"/>
<text text-anchor="middle" x="296" y="-62" font-family="Helvetica,sans-Serif" font-size="10.00">QtCore/QLoggingCategory</text>
</a>
</g>
</g>
<!-- Node1&#45;&gt;Node6 -->
<g id="edge16_Node000001_Node000006" class="edge">
<title>Node1&#45;&gt;Node6</title>
<g id="a_edge16_Node000001_Node000006"><a xlink:title=" ">
<path fill="none" stroke="#63b8ff" d="M304.45,-219.92C300.25,-210.09 295.19,-196.54 293,-184 286.92,-149.16 290.36,-107.68 293.27,-84.19"/>
<polygon fill="#63b8ff" stroke="#63b8ff" points="296.75,-84.59 294.62,-74.21 289.81,-83.65 296.75,-84.59"/>
</a>
</g>
</g>
<!-- Node8 -->
<g id="Node000008" class="node">
<title>Node8</title>
<g id="a_Node000008"><a xlink:href="QGCState_8h.html" target="_top" xlink:title=" ">
<polygon fill="white" stroke="#666666" points="481.5,-129 408.5,-129 408.5,-110 481.5,-110 481.5,-129"/>
<text text-anchor="middle" x="445" y="-117" font-family="Helvetica,sans-Serif" font-size="10.00">QGCState.h</text>
</a>
</g>
</g>
<!-- Node1&#45;&gt;Node8 -->
<g id="edge7_Node000001_Node000008" class="edge">
<title>Node1&#45;&gt;Node8</title>
<g id="a_edge7_Node000001_Node000008"><a xlink:title=" ">
<path fill="none" stroke="#63b8ff" d="M349.13,-219.96C368.1,-211.62 390.45,-199.6 407,-184 420.56,-171.22 430.95,-152.54 437.41,-138.75"/>
<polygon fill="#63b8ff" stroke="#63b8ff" points="440.73,-139.89 441.58,-129.33 434.33,-137.06 440.73,-139.89"/>
</a>
</g>
</g>
<!-- Node11 -->
<g id="Node000011" class="node">
<title>Node11</title>
<g id="a_Node000011"><a xlink:href="WaitStateBase_8h.html" target="_top" xlink:title=" ">
<polygon fill="white" stroke="#666666" points="398.5,-184 301.5,-184 301.5,-165 398.5,-165 398.5,-184"/>
<text text-anchor="middle" x="350" y="-172" font-family="Helvetica,sans-Serif" font-size="10.00">WaitStateBase.h</text>
</a>
</g>
</g>
<!-- Node1&#45;&gt;Node11 -->
<g id="edge13_Node000001_Node000011" class="edge">
<title>Node1&#45;&gt;Node11</title>
<g id="a_edge13_Node000001_Node000011"><a xlink:title=" ">
<path fill="none" stroke="#63b8ff" d="M320.44,-219.84C325.87,-211.69 332.73,-201.4 338.48,-192.78"/>
<polygon fill="#63b8ff" stroke="#63b8ff" points="341.52,-194.53 344.16,-184.27 335.7,-190.65 341.52,-194.53"/>
</a>
</g>
</g>
<!-- Node3 -->
<g id="Node000003" class="node">
<title>Node3</title>
<g id="a_Node000003"><a xlink:href="QGCSignalTransition_8h.html" target="_top" xlink:title=" ">
<polygon fill="white" stroke="#666666" points="167.5,-74 42.5,-74 42.5,-55 167.5,-55 167.5,-74"/>
<text text-anchor="middle" x="105" y="-62" font-family="Helvetica,sans-Serif" font-size="10.00">QGCSignalTransition.h</text>
</a>
</g>
</g>
<!-- Node2&#45;&gt;Node3 -->
<g id="edge2_Node000002_Node000003" class="edge">
<title>Node2&#45;&gt;Node3</title>
<g id="a_edge2_Node000002_Node000003"><a xlink:title=" ">
<path fill="none" stroke="#63b8ff" d="M180.54,-109.98C166.58,-101.77 145.21,-89.18 128.75,-79.49"/>
<polygon fill="#63b8ff" stroke="#63b8ff" points="130.12,-76.23 119.72,-74.17 126.56,-82.26 130.12,-76.23"/>
</a>
</g>
</g>
<!-- Node2&#45;&gt;Node6 -->
<g id="edge5_Node000002_Node000006" class="edge">
<title>Node2&#45;&gt;Node6</title>
<g id="a_edge5_Node000002_Node000006"><a xlink:title=" ">
<path fill="none" stroke="#63b8ff" d="M211.23,-109.98C227.18,-101.61 251.78,-88.7 270.38,-78.95"/>
<polygon fill="#63b8ff" stroke="#63b8ff" points="272.25,-81.92 279.48,-74.17 269,-75.72 272.25,-81.92"/>
</a>
</g>
</g>
<!-- Node7 -->
<g id="Node000007" class="node">
<title>Node7</title>
<g id="a_Node000007"><a xlink:title=" ">
<polygon fill="#e0e0e0" stroke="#999999" points="372.5,-19 307.5,-19 307.5,0 372.5,0 372.5,-19"/>
<text text-anchor="middle" x="340" y="-7" font-family="Helvetica,sans-Serif" font-size="10.00">functional</text>
</a>
</g>
</g>
<!-- Node2&#45;&gt;Node7 -->
<g id="edge6_Node000002_Node000007" class="edge">
<title>Node2&#45;&gt;Node7</title>
<g id="a_edge6_Node000002_Node000007"><a xlink:title=" ">
<path fill="none" stroke="#63b8ff" d="M195.35,-109.89C196.37,-96.42 200.24,-70.31 215,-55 226.72,-42.84 266.02,-30.01 297.47,-21.27"/>
<polygon fill="#63b8ff" stroke="#63b8ff" points="298.62,-24.58 307.35,-18.58 296.79,-17.83 298.62,-24.58"/>
</a>
</g>
</g>
<!-- Node4 -->
<g id="Node000004" class="node">
<title>Node4</title>
<g id="a_Node000004"><a xlink:title=" ">
<polygon fill="#e0e0e0" stroke="#999999" points="182,-19 0,-19 0,0 182,0 182,-19"/>
<text text-anchor="middle" x="91" y="-7" font-family="Helvetica,sans-Serif" font-size="10.00">QtStateMachine/QSignalTransition</text>
</a>
</g>
</g>
<!-- Node3&#45;&gt;Node4 -->
<g id="edge3_Node000003_Node000004" class="edge">
<title>Node3&#45;&gt;Node4</title>
<g id="a_edge3_Node000003_Node000004"><a xlink:title=" ">
<path fill="none" stroke="#63b8ff" d="M102.69,-54.75C100.83,-47.72 98.16,-37.62 95.85,-28.84"/>
<polygon fill="#63b8ff" stroke="#63b8ff" points="99.21,-27.86 93.27,-19.09 92.44,-29.65 99.21,-27.86"/>
</a>
</g>
</g>
<!-- Node5 -->
<g id="Node000005" class="node">
<title>Node5</title>
<g id="a_Node000005"><a xlink:title=" ">
<polygon fill="#e0e0e0" stroke="#999999" points="289.5,-19 200.5,-19 200.5,0 289.5,0 289.5,-19"/>
<text text-anchor="middle" x="245" y="-7" font-family="Helvetica,sans-Serif" font-size="10.00">QtCore/QString</text>
</a>
</g>
</g>
<!-- Node3&#45;&gt;Node5 -->
<g id="edge4_Node000003_Node000005" class="edge">
<title>Node3&#45;&gt;Node5</title>
<g id="a_edge4_Node000003_Node000005"><a xlink:title=" ">
<path fill="none" stroke="#63b8ff" d="M127.49,-54.98C150.52,-46.27 186.54,-32.63 212.63,-22.75"/>
<polygon fill="#63b8ff" stroke="#63b8ff" points="213.98,-25.98 222.1,-19.17 211.51,-19.44 213.98,-25.98"/>
</a>
</g>
</g>
<!-- Node8&#45;&gt;Node6 -->
<g id="edge12_Node000008_Node000006" class="edge">
<title>Node8&#45;&gt;Node6</title>
<g id="a_edge12_Node000008_Node000006"><a xlink:title=" ">
<path fill="none" stroke="#63b8ff" d="M421.06,-109.98C396.44,-101.23 357.88,-87.51 330.08,-77.62"/>
<polygon fill="#63b8ff" stroke="#63b8ff" points="330.97,-74.22 320.38,-74.17 328.62,-80.82 330.97,-74.22"/>
</a>
</g>
</g>
<!-- Node9 -->
<g id="Node000009" class="node">
<title>Node9</title>
<g id="a_Node000009"><a xlink:href="QGCAbstractState_8h.html" target="_top" xlink:title=" ">
<polygon fill="white" stroke="#666666" points="500.5,-74 387.5,-74 387.5,-55 500.5,-55 500.5,-74"/>
<text text-anchor="middle" x="444" y="-62" font-family="Helvetica,sans-Serif" font-size="10.00">QGCAbstractState.h</text>
</a>
</g>
</g>
<!-- Node8&#45;&gt;Node9 -->
<g id="edge8_Node000008_Node000009" class="edge">
<title>Node8&#45;&gt;Node9</title>
<g id="a_edge8_Node000008_Node000009"><a xlink:title=" ">
<path fill="none" stroke="#63b8ff" d="M444.83,-109.75C444.7,-102.8 444.52,-92.85 444.35,-84.13"/>
<polygon fill="#63b8ff" stroke="#63b8ff" points="447.85,-84.02 444.16,-74.09 440.85,-84.15 447.85,-84.02"/>
</a>
</g>
</g>
<!-- Node9&#45;&gt;Node5 -->
<g id="edge10_Node000009_Node000005" class="edge">
<title>Node9&#45;&gt;Node5</title>
<g id="a_edge10_Node000009_Node000005"><a xlink:title=" ">
<path fill="none" stroke="#63b8ff" d="M412.03,-54.98C378.18,-45.97 324.6,-31.7 287.29,-21.76"/>
<polygon fill="#63b8ff" stroke="#63b8ff" points="287.79,-18.27 277.22,-19.08 285.99,-25.04 287.79,-18.27"/>
</a>
</g>
</g>
<!-- Node9&#45;&gt;Node7 -->
<g id="edge11_Node000009_Node000007" class="edge">
<title>Node9&#45;&gt;Node7</title>
<g id="a_edge11_Node000009_Node000007"><a xlink:title=" ">
<path fill="none" stroke="#63b8ff" d="M427.29,-54.98C410.79,-46.57 385.3,-33.59 366.12,-23.81"/>
<polygon fill="#63b8ff" stroke="#63b8ff" points="367.51,-20.59 357.01,-19.17 364.33,-26.83 367.51,-20.59"/>
</a>
</g>
</g>
<!-- Node10 -->
<g id="Node000010" class="node">
<title>Node10</title>
<g id="a_Node000010"><a xlink:title=" ">
<polygon fill="#e0e0e0" stroke="#999999" points="521.5,-19 390.5,-19 390.5,0 521.5,0 521.5,-19"/>
<text text-anchor="middle" x="456" y="-7" font-family="Helvetica,sans-Serif" font-size="10.00">QtStateMachine/QState</text>
</a>
</g>
</g>
<!-- Node9&#45;&gt;Node10 -->
<g id="edge9_Node000009_Node000010" class="edge">
<title>Node9&#45;&gt;Node10</title>
<g id="a_edge9_Node000009_Node000010"><a xlink:title=" ">
<path fill="none" stroke="#63b8ff" d="M445.98,-54.75C447.57,-47.72 449.86,-37.62 451.85,-28.84"/>
<polygon fill="#63b8ff" stroke="#63b8ff" points="455.26,-29.62 454.06,-19.09 448.43,-28.07 455.26,-29.62"/>
</a>
</g>
</g>
<!-- Node11&#45;&gt;Node8 -->
<g id="edge14_Node000011_Node000008" class="edge">
<title>Node11&#45;&gt;Node8</title>
<g id="a_edge14_Node000011_Node000008"><a xlink:title=" ">
<path fill="none" stroke="#63b8ff" d="M365.26,-164.98C380.13,-156.69 402.98,-143.94 420.42,-134.22"/>
<polygon fill="#63b8ff" stroke="#63b8ff" points="422.43,-137.1 429.46,-129.17 419.02,-130.99 422.43,-137.1"/>
</a>
</g>
</g>
<!-- Node12 -->
<g id="Node000012" class="node">
<title>Node12</title>
<g id="a_Node000012"><a xlink:title=" ">
<polygon fill="#e0e0e0" stroke="#999999" points="390.5,-129 301.5,-129 301.5,-110 390.5,-110 390.5,-129"/>
<text text-anchor="middle" x="346" y="-117" font-family="Helvetica,sans-Serif" font-size="10.00">QtCore/QTimer</text>
</a>
</g>
</g>
<!-- Node11&#45;&gt;Node12 -->
<g id="edge15_Node000011_Node000012" class="edge">
<title>Node11&#45;&gt;Node12</title>
<g id="a_edge15_Node000011_Node000012"><a xlink:title=" ">
<path fill="none" stroke="#63b8ff" d="M349.34,-164.75C348.82,-157.8 348.06,-147.85 347.41,-139.13"/>
<polygon fill="#63b8ff" stroke="#63b8ff" points="350.89,-138.8 346.65,-129.09 343.91,-139.32 350.89,-138.8"/>
</a>
</g>
</g>
</g>
</svg>
