<?xml version="1.0" encoding="UTF-8" standalone="no"?>
<!DOCTYPE svg PUBLIC "-//W3C//DTD SVG 1.1//EN"
 "http://www.w3.org/Graphics/SVG/1.1/DTD/svg11.dtd">
<!-- Generated by graphviz version 2.43.0 (0)
 -->
<!-- Title: src/Utilities/StateMachine/States/RollbackState.cc Pages: 1 -->
<svg width="1128pt" height="258pt"
 viewBox="0.00 0.00 1127.50 258.00" xmlns="http://www.w3.org/2000/svg" xmlns:xlink="http://www.w3.org/1999/xlink">
<g id="graph0" class="graph" transform="scale(1 1) rotate(0) translate(4 254)">
<title>src/Utilities/StateMachine/States/RollbackState.cc</title>
<!-- Node1 -->
<g id="Node000001" class="node">
<title>Node1</title>
<g id="a_Node000001"><a xlink:title=" ">
<polygon fill="#999999" stroke="#666666" points="298.5,-250 156.5,-250 156.5,-220 298.5,-220 298.5,-250"/>
<text text-anchor="start" x="164.5" y="-238" font-family="Helvetica,sans-Serif" font-size="10.00">src/Utilities/StateMachine</text>
<text text-anchor="middle" x="227.5" y="-227" font-family="Helvetica,sans-Serif" font-size="10.00">/States/RollbackState.cc</text>
</a>
</g>
</g>
<!-- Node2 -->
<g id="Node000002" class="node">
<title>Node2</title>
<g id="a_Node000002"><a xlink:href="RollbackState_8h.html" target="_top" xlink:title=" ">
<polygon fill="white" stroke="#666666" points="237,-184 144,-184 144,-165 237,-165 237,-184"/>
<text text-anchor="middle" x="190.5" y="-172" font-family="Helvetica,sans-Serif" font-size="10.00">RollbackState.h</text>
</a>
</g>
</g>
<!-- Node1&#45;&gt;Node2 -->
<g id="edge1_Node000001_Node000002" class="edge">
<title>Node1&#45;&gt;Node2</title>
<g id="a_edge1_Node000001_Node000002"><a xlink:title=" ">
<path fill="none" stroke="#63b8ff" d="M218.54,-219.84C213.39,-211.69 206.88,-201.4 201.43,-192.78"/>
<polygon fill="#63b8ff" stroke="#63b8ff" points="204.35,-190.85 196.04,-184.27 198.43,-194.59 204.35,-190.85"/>
</a>
</g>
</g>
<!-- Node9 -->
<g id="Node000009" class="node">
<title>Node9</title>
<g id="a_Node000009"><a xlink:href="QGCLoggingCategory_8h.html" target="_top" xlink:title=" ">
<polygon fill="white" stroke="#666666" points="746.5,-129 618.5,-129 618.5,-110 746.5,-110 746.5,-129"/>
<text text-anchor="middle" x="682.5" y="-117" font-family="Helvetica,sans-Serif" font-size="10.00">QGCLoggingCategory.h</text>
</a>
</g>
</g>
<!-- Node1&#45;&gt;Node9 -->
<g id="edge9_Node000001_Node000009" class="edge">
<title>Node1&#45;&gt;Node9</title>
<g id="a_edge9_Node000001_Node000009"><a xlink:title=" ">
<path fill="none" stroke="#63b8ff" d="M283.75,-219.97C375.39,-197.11 555.02,-152.3 638.24,-131.54"/>
<polygon fill="#63b8ff" stroke="#63b8ff" points="639.28,-134.89 648.14,-129.07 637.59,-128.1 639.28,-134.89"/>
</a>
</g>
</g>
<!-- Node3 -->
<g id="Node000003" class="node">
<title>Node3</title>
<g id="a_Node000003"><a xlink:href="QGCState_8h.html" target="_top" xlink:title=" ">
<polygon fill="white" stroke="#666666" points="227,-129 154,-129 154,-110 227,-110 227,-129"/>
<text text-anchor="middle" x="190.5" y="-117" font-family="Helvetica,sans-Serif" font-size="10.00">QGCState.h</text>
</a>
</g>
</g>
<!-- Node2&#45;&gt;Node3 -->
<g id="edge2_Node000002_Node000003" class="edge">
<title>Node2&#45;&gt;Node3</title>
<g id="a_edge2_Node000002_Node000003"><a xlink:title=" ">
<path fill="none" stroke="#63b8ff" d="M190.5,-164.75C190.5,-157.8 190.5,-147.85 190.5,-139.13"/>
<polygon fill="#63b8ff" stroke="#63b8ff" points="194,-139.09 190.5,-129.09 187,-139.09 194,-139.09"/>
</a>
</g>
</g>
<!-- Node7 -->
<g id="Node000007" class="node">
<title>Node7</title>
<g id="a_Node000007"><a xlink:title=" ">
<polygon fill="#e0e0e0" stroke="#999999" points="65,-19 0,-19 0,0 65,0 65,-19"/>
<text text-anchor="middle" x="32.5" y="-7" font-family="Helvetica,sans-Serif" font-size="10.00">functional</text>
</a>
</g>
</g>
<!-- Node2&#45;&gt;Node7 -->
<g id="edge8_Node000002_Node000007" class="edge">
<title>Node2&#45;&gt;Node7</title>
<g id="a_edge8_Node000002_Node000007"><a xlink:title=" ">
<path fill="none" stroke="#63b8ff" d="M171.23,-164.86C141.16,-150.4 83.23,-118.44 51.5,-74 41.99,-60.68 37.18,-42.57 34.79,-29.1"/>
<polygon fill="#63b8ff" stroke="#63b8ff" points="38.23,-28.45 33.29,-19.08 31.31,-29.48 38.23,-28.45"/>
</a>
</g>
</g>
<!-- Node4 -->
<g id="Node000004" class="node">
<title>Node4</title>
<g id="a_Node000004"><a xlink:href="QGCAbstractState_8h.html" target="_top" xlink:title=" ">
<polygon fill="white" stroke="#666666" points="174,-74 61,-74 61,-55 174,-55 174,-74"/>
<text text-anchor="middle" x="117.5" y="-62" font-family="Helvetica,sans-Serif" font-size="10.00">QGCAbstractState.h</text>
</a>
</g>
</g>
<!-- Node3&#45;&gt;Node4 -->
<g id="edge3_Node000003_Node000004" class="edge">
<title>Node3&#45;&gt;Node4</title>
<g id="a_edge3_Node000003_Node000004"><a xlink:title=" ">
<path fill="none" stroke="#63b8ff" d="M178.77,-109.98C167.77,-102 151.08,-89.88 137.9,-80.31"/>
<polygon fill="#63b8ff" stroke="#63b8ff" points="139.59,-77.21 129.44,-74.17 135.48,-82.88 139.59,-77.21"/>
</a>
</g>
</g>
<!-- Node8 -->
<g id="Node000008" class="node">
<title>Node8</title>
<g id="a_Node000008"><a xlink:title=" ">
<polygon fill="#e0e0e0" stroke="#999999" points="335,-74 192,-74 192,-55 335,-55 335,-74"/>
<text text-anchor="middle" x="263.5" y="-62" font-family="Helvetica,sans-Serif" font-size="10.00">QtCore/QLoggingCategory</text>
</a>
</g>
</g>
<!-- Node3&#45;&gt;Node8 -->
<g id="edge7_Node000003_Node000008" class="edge">
<title>Node3&#45;&gt;Node8</title>
<g id="a_edge7_Node000003_Node000008"><a xlink:title=" ">
<path fill="none" stroke="#63b8ff" d="M202.23,-109.98C213.23,-102 229.92,-89.88 243.1,-80.31"/>
<polygon fill="#63b8ff" stroke="#63b8ff" points="245.52,-82.88 251.56,-74.17 241.41,-77.21 245.52,-82.88"/>
</a>
</g>
</g>
<!-- Node5 -->
<g id="Node000005" class="node">
<title>Node5</title>
<g id="a_Node000005"><a xlink:title=" ">
<polygon fill="#e0e0e0" stroke="#999999" points="214,-19 83,-19 83,0 214,0 214,-19"/>
<text text-anchor="middle" x="148.5" y="-7" font-family="Helvetica,sans-Serif" font-size="10.00">QtStateMachine/QState</text>
</a>
</g>
</g>
<!-- Node4&#45;&gt;Node5 -->
<g id="edge4_Node000004_Node000005" class="edge">
<title>Node4&#45;&gt;Node5</title>
<g id="a_edge4_Node000004_Node000005"><a xlink:title=" ">
<path fill="none" stroke="#63b8ff" d="M122.62,-54.75C126.86,-47.49 133.03,-36.95 138.28,-27.98"/>
<polygon fill="#63b8ff" stroke="#63b8ff" points="141.45,-29.49 143.48,-19.09 135.41,-25.95 141.45,-29.49"/>
</a>
</g>
</g>
<!-- Node6 -->
<g id="Node000006" class="node">
<title>Node6</title>
<g id="a_Node000006"><a xlink:title=" ">
<polygon fill="#e0e0e0" stroke="#999999" points="630,-19 541,-19 541,0 630,0 630,-19"/>
<text text-anchor="middle" x="585.5" y="-7" font-family="Helvetica,sans-Serif" font-size="10.00">QtCore/QString</text>
</a>
</g>
</g>
<!-- Node4&#45;&gt;Node6 -->
<g id="edge5_Node000004_Node000006" class="edge">
<title>Node4&#45;&gt;Node6</title>
<g id="a_edge5_Node000004_Node000006"><a xlink:title=" ">
<path fill="none" stroke="#63b8ff" d="M174.02,-56.15C177.22,-55.76 180.4,-55.37 183.5,-55 307.61,-40.14 453.49,-24.43 530.86,-16.24"/>
<polygon fill="#63b8ff" stroke="#63b8ff" points="531.28,-19.71 540.85,-15.18 530.54,-12.75 531.28,-19.71"/>
</a>
</g>
</g>
<!-- Node4&#45;&gt;Node7 -->
<g id="edge6_Node000004_Node000007" class="edge">
<title>Node4&#45;&gt;Node7</title>
<g id="a_edge6_Node000004_Node000007"><a xlink:title=" ">
<path fill="none" stroke="#63b8ff" d="M103.84,-54.98C90.66,-46.77 70.47,-34.18 54.93,-24.49"/>
<polygon fill="#63b8ff" stroke="#63b8ff" points="56.74,-21.49 46.41,-19.17 53.04,-27.43 56.74,-21.49"/>
</a>
</g>
</g>
<!-- Node9&#45;&gt;Node6 -->
<g id="edge15_Node000009_Node000006" class="edge">
<title>Node9&#45;&gt;Node6</title>
<g id="a_edge15_Node000009_Node000006"><a xlink:title=" ">
<path fill="none" stroke="#63b8ff" d="M746.76,-117.29C817.32,-113.71 915.75,-100.71 876.5,-55 846.69,-20.28 716.19,-12.36 640.46,-10.74"/>
<polygon fill="#63b8ff" stroke="#63b8ff" points="640.21,-7.23 630.15,-10.55 640.08,-14.23 640.21,-7.23"/>
</a>
</g>
</g>
<!-- Node9&#45;&gt;Node8 -->
<g id="edge11_Node000009_Node000008" class="edge">
<title>Node9&#45;&gt;Node8</title>
<g id="a_edge11_Node000009_Node000008"><a xlink:title=" ">
<path fill="none" stroke="#63b8ff" d="M618.41,-110.39C543.77,-100.95 420.55,-85.37 340.71,-75.27"/>
<polygon fill="#63b8ff" stroke="#63b8ff" points="341.07,-71.78 330.71,-74 340.19,-78.73 341.07,-71.78"/>
</a>
</g>
</g>
<!-- Node10 -->
<g id="Node000010" class="node">
<title>Node10</title>
<g id="a_Node000010"><a xlink:title=" ">
<polygon fill="#e0e0e0" stroke="#999999" points="1009.5,-74 923.5,-74 923.5,-55 1009.5,-55 1009.5,-74"/>
<text text-anchor="middle" x="966.5" y="-62" font-family="Helvetica,sans-Serif" font-size="10.00">QtCore/QHash</text>
</a>
</g>
</g>
<!-- Node9&#45;&gt;Node10 -->
<g id="edge10_Node000009_Node000010" class="edge">
<title>Node9&#45;&gt;Node10</title>
<g id="a_edge10_Node000009_Node000010"><a xlink:title=" ">
<path fill="none" stroke="#63b8ff" d="M728.13,-109.98C778.65,-100.56 860,-85.38 913.36,-75.42"/>
<polygon fill="#63b8ff" stroke="#63b8ff" points="914.12,-78.84 923.31,-73.56 912.84,-71.95 914.12,-78.84"/>
</a>
</g>
</g>
<!-- Node11 -->
<g id="Node000011" class="node">
<title>Node11</title>
<g id="a_Node000011"><a xlink:title=" ">
<polygon fill="#e0e0e0" stroke="#999999" points="1119.5,-74 1027.5,-74 1027.5,-55 1119.5,-55 1119.5,-74"/>
<text text-anchor="middle" x="1073.5" y="-62" font-family="Helvetica,sans-Serif" font-size="10.00">QtCore/QObject</text>
</a>
</g>
</g>
<!-- Node9&#45;&gt;Node11 -->
<g id="edge12_Node000009_Node000011" class="edge">
<title>Node9&#45;&gt;Node11</title>
<g id="a_edge12_Node000009_Node000011"><a xlink:title=" ">
<path fill="none" stroke="#63b8ff" d="M746.66,-110.42C812.14,-102.08 916.97,-88.47 1017.29,-74.15"/>
<polygon fill="#63b8ff" stroke="#63b8ff" points="1017.89,-77.6 1027.3,-72.71 1016.9,-70.67 1017.89,-77.6"/>
</a>
</g>
</g>
<!-- Node12 -->
<g id="Node000012" class="node">
<title>Node12</title>
<g id="a_Node000012"><a xlink:title=" ">
<polygon fill="#e0e0e0" stroke="#999999" points="487.5,-74 353.5,-74 353.5,-55 487.5,-55 487.5,-74"/>
<text text-anchor="middle" x="420.5" y="-62" font-family="Helvetica,sans-Serif" font-size="10.00">QtCore/QReadWriteLock</text>
</a>
</g>
</g>
<!-- Node9&#45;&gt;Node12 -->
<g id="edge13_Node000009_Node000012" class="edge">
<title>Node9&#45;&gt;Node12</title>
<g id="a_edge13_Node000009_Node000012"><a xlink:title=" ">
<path fill="none" stroke="#63b8ff" d="M640.41,-109.98C594.8,-100.76 521.98,-86.03 472.75,-76.07"/>
<polygon fill="#63b8ff" stroke="#63b8ff" points="473.42,-72.63 462.92,-74.08 472.03,-79.5 473.42,-72.63"/>
</a>
</g>
</g>
<!-- Node13 -->
<g id="Node000013" class="node">
<title>Node13</title>
<g id="a_Node000013"><a xlink:title=" ">
<polygon fill="#e0e0e0" stroke="#999999" points="583,-74 506,-74 506,-55 583,-55 583,-74"/>
<text text-anchor="middle" x="544.5" y="-62" font-family="Helvetica,sans-Serif" font-size="10.00">QtCore/QSet</text>
</a>
</g>
</g>
<!-- Node9&#45;&gt;Node13 -->
<g id="edge14_Node000009_Node000013" class="edge">
<title>Node9&#45;&gt;Node13</title>
<g id="a_edge14_Node000009_Node000013"><a xlink:title=" ">
<path fill="none" stroke="#63b8ff" d="M660.33,-109.98C637.73,-101.3 602.44,-87.75 576.75,-77.88"/>
<polygon fill="#63b8ff" stroke="#63b8ff" points="577.67,-74.49 567.08,-74.17 575.16,-81.02 577.67,-74.49"/>
</a>
</g>
</g>
<!-- Node14 -->
<g id="Node000014" class="node">
<title>Node14</title>
<g id="a_Node000014"><a xlink:title=" ">
<polygon fill="#e0e0e0" stroke="#999999" points="764,-74 601,-74 601,-55 764,-55 764,-74"/>
<text text-anchor="middle" x="682.5" y="-62" font-family="Helvetica,sans-Serif" font-size="10.00">QtCore/QSortFilterProxyModel</text>
</a>
</g>
</g>
<!-- Node9&#45;&gt;Node14 -->
<g id="edge16_Node000009_Node000014" class="edge">
<title>Node9&#45;&gt;Node14</title>
<g id="a_edge16_Node000009_Node000014"><a xlink:title=" ">
<path fill="none" stroke="#63b8ff" d="M682.5,-109.75C682.5,-102.8 682.5,-92.85 682.5,-84.13"/>
<polygon fill="#63b8ff" stroke="#63b8ff" points="686,-84.09 682.5,-74.09 679,-84.09 686,-84.09"/>
</a>
</g>
</g>
<!-- Node15 -->
<g id="Node000015" class="node">
<title>Node15</title>
<g id="a_Node000015"><a xlink:title=" ">
<polygon fill="#e0e0e0" stroke="#999999" points="867,-74 782,-74 782,-55 867,-55 867,-74"/>
<text text-anchor="middle" x="824.5" y="-62" font-family="Helvetica,sans-Serif" font-size="10.00">QtQml/qqml.h</text>
</a>
</g>
</g>
<!-- Node9&#45;&gt;Node15 -->
<g id="edge17_Node000009_Node000015" class="edge">
<title>Node9&#45;&gt;Node15</title>
<g id="a_edge17_Node000009_Node000015"><a xlink:title=" ">
<path fill="none" stroke="#63b8ff" d="M705.31,-109.98C728.67,-101.27 765.2,-87.63 791.67,-77.75"/>
<polygon fill="#63b8ff" stroke="#63b8ff" points="793.13,-80.95 801.27,-74.17 790.68,-74.39 793.13,-80.95"/>
</a>
</g>
</g>
</g>
</svg>
