<?xml version="1.0" encoding="UTF-8" standalone="no"?>
<!DOCTYPE svg PUBLIC "-//W3C//DTD SVG 1.1//EN"
 "http://www.w3.org/Graphics/SVG/1.1/DTD/svg11.dtd">
<!-- Generated by graphviz version 2.43.0 (0)
 -->
<!-- Title: src/GPS/Corrections/MAVLink/RTCMMavlinkPacket.h Pages: 1 -->
<!--zoomable 236 -->

<svg id="main" version="1.1" xmlns="http://www.w3.org/2000/svg" xmlns:xlink="http://www.w3.org/1999/xlink" xml:space="preserve" onload="init(evt)">
<style type="text/css"><![CDATA[
.node, .edge {opacity: 0.7;}
.node.selected, .edge.selected {opacity: 1;}
.edge:hover path { stroke: red; }
.edge:hover polygon { stroke: red; fill: red; }
]]></style>

<defs>
  <circle id="rim" cx="0" cy="0" r="7"/>
  <circle id="rim2" cx="0" cy="0" r="3.5"/>
  <g id="zoomPlus">
    <use xlink:href="#rim" fill="#404040"><set attributeName="fill" to="#808080" begin="zoomplus.mouseover" end="zoomplus.mouseout"/></use>
    <path d="M-4,0h8M0,-4v8" fill="none" stroke="white" stroke-width="1.5" pointer-events="none"/>
  </g>
  <g id="zoomMin">
    <use xlink:href="#rim" fill="#404040"><set attributeName="fill" to="#808080" begin="zoomminus.mouseover" end="zoomminus.mouseout"/></use>
    <path d="M-4,0h8" fill="none" stroke="white" stroke-width="1.5" pointer-events="none"/>
  </g>
  <g id="arrowUp" transform="translate(30 24)">
    <use xlink:href="#rim"/>
    <path pointer-events="none" fill="none" stroke="white" stroke-width="1.5" d="M0,-3.0v7 M-2.5,-0.5L0,-3.0L2.5,-0.5"/>
  </g>
  <g id="arrowRight" transform="rotate(90) translate(36 -43)">
    <use xlink:href="#rim"/>
    <path pointer-events="none" fill="none" stroke="white" stroke-width="1.5" d="M0,-3.0v7 M-2.5,-0.5L0,-3.0L2.5,-0.5"/>
  </g>
  <g id="arrowDown" transform="rotate(180) translate(-30 -48)">
    <use xlink:href="#rim"/>
    <path pointer-events="none" fill="none" stroke="white" stroke-width="1.5" d="M0,-3.0v7 M-2.5,-0.5L0,-3.0L2.5,-0.5"/>
  </g>
  <g id="arrowLeft" transform="rotate(270) translate(-36 17)">
    <use xlink:href="#rim"/>
    <path pointer-events="none" fill="none" stroke="white" stroke-width="1.5" d="M0,-3.0v7 M-2.5,-0.5L0,-3.0L2.5,-0.5"/>
  </g>
  <g id="resetDef">
    <use xlink:href="#rim2" fill="#404040"><set attributeName="fill" to="#808080" begin="reset.mouseover" end="reset.mouseout"/></use>
  </g>
</defs>
<script type="application/ecmascript">
var viewWidth = 850;
var viewHeight = 236;
var sectionId = 'dynsection-1';
</script>
<script type="application/ecmascript" xlink:href="svg.min.js"/>
<svg id="graph" class="graph">
<g id="viewport">
<title>src/GPS/Corrections/MAVLink/RTCMMavlinkPacket.h</title>
<!-- Node1 -->
<g id="Node000001" class="node">
<title>Node1</title>
<g id="a_Node000001"><a xlink:title=" ">
<polygon fill="#999999" stroke="#666666" points="751,-228 580,-228 580,-198 751,-198 751,-228"/>
<text text-anchor="start" x="588" y="-216" font-family="Helvetica,sans-Serif" font-size="10.00">src/GPS/Corrections</text>
<text text-anchor="middle" x="665.5" y="-205" font-family="Helvetica,sans-Serif" font-size="10.00">/MAVLink/RTCMMavlinkPacket.h</text>
</a>
</g>
</g>
<!-- Node2 -->
<g id="Node000002" class="node">
<title>Node2</title>
<g id="a_Node000002"><a xlink:href="RTCMMavlink_8h.html" target="_top" xlink:title=" ">
<polygon fill="white" stroke="#666666" points="647.5,-162 507.5,-162 507.5,-132 647.5,-132 647.5,-162"/>
<text text-anchor="start" x="515.5" y="-150" font-family="Helvetica,sans-Serif" font-size="10.00">src/GPS/Corrections</text>
<text text-anchor="middle" x="577.5" y="-139" font-family="Helvetica,sans-Serif" font-size="10.00">/MAVLink/RTCMMavlink.h</text>
</a>
</g>
</g>
<!-- Node1&#45;&gt;Node2 -->
<g id="edge1_Node000001_Node000002" class="edge">
<title>Node1&#45;&gt;Node2</title>
<g id="a_edge1_Node000001_Node000002"><a xlink:title=" ">
<path fill="none" stroke="#63b8ff" d="M637.66,-191.75C624.43,-182.13 608.93,-170.86 596.98,-162.16"/>
<polygon fill="#63b8ff" stroke="#63b8ff" points="635.82,-194.75 645.97,-197.8 639.94,-189.08 635.82,-194.75"/>
</a>
</g>
</g>
<!-- Node11 -->
<g id="Node000011" class="node">
<title>Node11</title>
<g id="a_Node000011"><a xlink:href="RTCMMavlinkPacket_8cc.html" target="_top" xlink:title=" ">
<polygon fill="white" stroke="#666666" points="841.5,-162 665.5,-162 665.5,-132 841.5,-132 841.5,-162"/>
<text text-anchor="start" x="673.5" y="-150" font-family="Helvetica,sans-Serif" font-size="10.00">src/GPS/Corrections</text>
<text text-anchor="middle" x="753.5" y="-139" font-family="Helvetica,sans-Serif" font-size="10.00">/MAVLink/RTCMMavlinkPacket.cc</text>
</a>
</g>
</g>
<!-- Node1&#45;&gt;Node11 -->
<g id="edge11_Node000001_Node000011" class="edge">
<title>Node1&#45;&gt;Node11</title>
<g id="a_edge11_Node000001_Node000011"><a xlink:title=" ">
<path fill="none" stroke="#63b8ff" d="M693.34,-191.75C706.57,-182.13 722.07,-170.86 734.02,-162.16"/>
<polygon fill="#63b8ff" stroke="#63b8ff" points="691.06,-189.08 685.03,-197.8 695.18,-194.75 691.06,-189.08"/>
</a>
</g>
</g>
<!-- Node3 -->
<g id="Node000003" class="node">
<title>Node3</title>
<g id="a_Node000003"><a xlink:href="GPSCorrectionManager_8h.html" target="_top" xlink:title=" ">
<polygon fill="white" stroke="#666666" points="476.5,-96 336.5,-96 336.5,-66 476.5,-66 476.5,-96"/>
<text text-anchor="start" x="344.5" y="-84" font-family="Helvetica,sans-Serif" font-size="10.00">src/GPS/Corrections</text>
<text text-anchor="middle" x="406.5" y="-73" font-family="Helvetica,sans-Serif" font-size="10.00">/GPSCorrectionManager.h</text>
</a>
</g>
</g>
<!-- Node2&#45;&gt;Node3 -->
<g id="edge2_Node000002_Node000003" class="edge">
<title>Node2&#45;&gt;Node3</title>
<g id="a_edge2_Node000002_Node000003"><a xlink:title=" ">
<path fill="none" stroke="#63b8ff" d="M530.27,-128.32C503.05,-118.14 469.31,-105.51 443.94,-96.01"/>
<polygon fill="#63b8ff" stroke="#63b8ff" points="529.38,-131.73 539.97,-131.95 531.83,-125.17 529.38,-131.73"/>
</a>
</g>
</g>
<!-- Node8 -->
<g id="Node000008" class="node">
<title>Node8</title>
<g id="a_Node000008"><a xlink:href="GPSMavlinkOutput_8h.html" target="_top" xlink:title=" ">
<polygon fill="white" stroke="#666666" points="660,-96 495,-96 495,-66 660,-66 660,-96"/>
<text text-anchor="start" x="503" y="-84" font-family="Helvetica,sans-Serif" font-size="10.00">src/GPS/Corrections</text>
<text text-anchor="middle" x="577.5" y="-73" font-family="Helvetica,sans-Serif" font-size="10.00">/MAVLink/GPSMavlinkOutput.h</text>
</a>
</g>
</g>
<!-- Node2&#45;&gt;Node8 -->
<g id="edge7_Node000002_Node000008" class="edge">
<title>Node2&#45;&gt;Node8</title>
<g id="a_edge7_Node000002_Node000008"><a xlink:title=" ">
<path fill="none" stroke="#63b8ff" d="M577.5,-121.54C577.5,-112.96 577.5,-103.61 577.5,-96.16"/>
<polygon fill="#63b8ff" stroke="#63b8ff" points="574,-121.8 577.5,-131.8 581,-121.8 574,-121.8"/>
</a>
</g>
</g>
<!-- Node10 -->
<g id="Node000010" class="node">
<title>Node10</title>
<g id="a_Node000010"><a xlink:href="RTCMMavlink_8cc.html" target="_top" xlink:title=" ">
<polygon fill="white" stroke="#666666" points="822.5,-96 678.5,-96 678.5,-66 822.5,-66 822.5,-96"/>
<text text-anchor="start" x="686.5" y="-84" font-family="Helvetica,sans-Serif" font-size="10.00">src/GPS/Corrections</text>
<text text-anchor="middle" x="750.5" y="-73" font-family="Helvetica,sans-Serif" font-size="10.00">/MAVLink/RTCMMavlink.cc</text>
</a>
</g>
</g>
<!-- Node2&#45;&gt;Node10 -->
<g id="edge10_Node000002_Node000010" class="edge">
<title>Node2&#45;&gt;Node10</title>
<g id="a_edge10_Node000002_Node000010"><a xlink:title=" ">
<path fill="none" stroke="#63b8ff" d="M624.92,-128.46C652.52,-118.25 686.84,-105.55 712.62,-96.01"/>
<polygon fill="#63b8ff" stroke="#63b8ff" points="623.63,-125.2 615.47,-131.95 626.06,-131.77 623.63,-125.2"/>
</a>
</g>
</g>
<!-- Node4 -->
<g id="Node000004" class="node">
<title>Node4</title>
<g id="a_Node000004"><a xlink:href="GPSCorrectionManager_8cc.html" target="_top" xlink:title=" ">
<polygon fill="white" stroke="#666666" points="145,-30 0,-30 0,0 145,0 145,-30"/>
<text text-anchor="start" x="8" y="-18" font-family="Helvetica,sans-Serif" font-size="10.00">src/GPS/Corrections</text>
<text text-anchor="middle" x="72.5" y="-7" font-family="Helvetica,sans-Serif" font-size="10.00">/GPSCorrectionManager.cc</text>
</a>
</g>
</g>
<!-- Node3&#45;&gt;Node4 -->
<g id="edge3_Node000003_Node000004" class="edge">
<title>Node3&#45;&gt;Node4</title>
<g id="a_edge3_Node000003_Node000004"><a xlink:title=" ">
<path fill="none" stroke="#63b8ff" d="M326.39,-64.65C271.21,-54.08 198.49,-40.14 145.02,-29.9"/>
<polygon fill="#63b8ff" stroke="#63b8ff" points="326,-68.14 336.48,-66.58 327.32,-61.26 326,-68.14"/>
</a>
</g>
</g>
<!-- Node5 -->
<g id="Node000005" class="node">
<title>Node5</title>
<g id="a_Node000005"><a xlink:href="GPSManager_8cc.html" target="_top" xlink:title=" ">
<polygon fill="white" stroke="#666666" points="632,-24.5 501,-24.5 501,-5.5 632,-5.5 632,-24.5"/>
<text text-anchor="middle" x="566.5" y="-12.5" font-family="Helvetica,sans-Serif" font-size="10.00">src/GPS/GPSManager.cc</text>
</a>
</g>
</g>
<!-- Node3&#45;&gt;Node5 -->
<g id="edge4_Node000003_Node000005" class="edge">
<title>Node3&#45;&gt;Node5</title>
<g id="a_edge4_Node000003_Node000005"><a xlink:title=" ">
<path fill="none" stroke="#63b8ff" d="M451.25,-62.1C481.96,-49.82 521.34,-34.06 545.21,-24.52"/>
<polygon fill="#63b8ff" stroke="#63b8ff" points="449.6,-58.99 441.61,-65.95 452.2,-65.49 449.6,-58.99"/>
</a>
</g>
</g>
<!-- Node6 -->
<g id="Node000006" class="node">
<title>Node6</title>
<g id="a_Node000006"><a xlink:href="NTRIPManager_8cc.html" target="_top" xlink:title=" ">
<polygon fill="white" stroke="#666666" points="336,-24.5 163,-24.5 163,-5.5 336,-5.5 336,-24.5"/>
<text text-anchor="middle" x="249.5" y="-12.5" font-family="Helvetica,sans-Serif" font-size="10.00">src/GPS/NTRIP/NTRIPManager.cc</text>
</a>
</g>
</g>
<!-- Node3&#45;&gt;Node6 -->
<g id="edge5_Node000003_Node000006" class="edge">
<title>Node3&#45;&gt;Node6</title>
<g id="a_edge5_Node000003_Node000006"><a xlink:title=" ">
<path fill="none" stroke="#63b8ff" d="M362.59,-62.1C332.45,-49.82 293.81,-34.06 270.39,-24.52"/>
<polygon fill="#63b8ff" stroke="#63b8ff" points="361.46,-65.42 372.05,-65.95 364.11,-58.94 361.46,-65.42"/>
</a>
</g>
</g>
<!-- Node7 -->
<g id="Node000007" class="node">
<title>Node7</title>
<g id="a_Node000007"><a xlink:href="GPSRtk_8cc.html" target="_top" xlink:title=" ">
<polygon fill="white" stroke="#666666" points="482.5,-24.5 354.5,-24.5 354.5,-5.5 482.5,-5.5 482.5,-24.5"/>
<text text-anchor="middle" x="418.5" y="-12.5" font-family="Helvetica,sans-Serif" font-size="10.00">src/GPS/RTK/GPSRtk.cc</text>
</a>
</g>
</g>
<!-- Node3&#45;&gt;Node7 -->
<g id="edge6_Node000003_Node000007" class="edge">
<title>Node3&#45;&gt;Node7</title>
<g id="a_edge6_Node000003_Node000007"><a xlink:title=" ">
<path fill="none" stroke="#63b8ff" d="M411.01,-55.94C413.05,-45.06 415.34,-32.86 416.84,-24.84"/>
<polygon fill="#63b8ff" stroke="#63b8ff" points="407.57,-55.32 409.16,-65.8 414.45,-56.61 407.57,-55.32"/>
</a>
</g>
</g>
<!-- Node8&#45;&gt;Node5 -->
<g id="edge9_Node000008_Node000005" class="edge">
<title>Node8&#45;&gt;Node5</title>
<g id="a_edge9_Node000008_Node000005"><a xlink:title=" ">
<path fill="none" stroke="#63b8ff" d="M573.36,-55.94C571.49,-45.06 569.4,-32.86 568.02,-24.84"/>
<polygon fill="#63b8ff" stroke="#63b8ff" points="569.92,-56.53 575.06,-65.8 576.81,-55.35 569.92,-56.53"/>
</a>
</g>
</g>
<!-- Node9 -->
<g id="Node000009" class="node">
<title>Node9</title>
<g id="a_Node000009"><a xlink:href="GPSMavlinkOutput_8cc.html" target="_top" xlink:title=" ">
<polygon fill="white" stroke="#666666" points="820.5,-30 650.5,-30 650.5,0 820.5,0 820.5,-30"/>
<text text-anchor="start" x="658.5" y="-18" font-family="Helvetica,sans-Serif" font-size="10.00">src/GPS/Corrections</text>
<text text-anchor="middle" x="735.5" y="-7" font-family="Helvetica,sans-Serif" font-size="10.00">/MAVLink/GPSMavlinkOutput.cc</text>
</a>
</g>
</g>
<!-- Node8&#45;&gt;Node9 -->
<g id="edge8_Node000008_Node000009" class="edge">
<title>Node8&#45;&gt;Node9</title>
<g id="a_edge8_Node000008_Node000009"><a xlink:title=" ">
<path fill="none" stroke="#63b8ff" d="M621.47,-62.19C646.56,-52.02 677.57,-39.47 700.91,-30.01"/>
<polygon fill="#63b8ff" stroke="#63b8ff" points="620.13,-58.96 612.17,-65.95 622.76,-65.44 620.13,-58.96"/>
</a>
</g>
</g>
</g>
</svg>

<g id="navigator" transform="translate(0 0)" fill="#404254">
  <rect fill="#f2f5e9" fill-opacity="0.5" stroke="#606060" stroke-width=".5" x="0" y="0" width="60" height="60"/>
  <use id="zoomplus" xlink:href="#zoomPlus" x="17" y="9" onmousedown="handleZoom(evt,'in')"/>
  <use id="zoomminus" xlink:href="#zoomMin" x="42" y="9" onmousedown="handleZoom(evt,'out')"/>
  <use id="reset" xlink:href="#resetDef" x="30" y="36" onmousedown="handleReset()"/>
   <use id="arrowup" xlink:href="#arrowUp" x="0" y="0" onmousedown="handlePan(0,-1)"/>
  <use id="arrowright" xlink:href="#arrowRight" x="0" y="0" onmousedown="handlePan(1,0)"/>
  <use id="arrowdown" xlink:href="#arrowDown" x="0" y="0" onmousedown="handlePan(0,1)"/>
  <use id="arrowleft" xlink:href="#arrowLeft" x="0" y="0" onmousedown="handlePan(-1,0)"/>
</g>
<svg viewBox="0 0 15 15" width="100%" height="30px" preserveAspectRatio="xMaxYMin meet">
 <g id="arrow_out" transform="scale(0.3 0.3)">
  <a xlink:href="RTCMMavlinkPacket_8h__dep__incl_org.svg" target="_base">
   <rect id="button" ry="5" rx="5" y="6" x="6" height="38" width="38"
        fill="#f2f5e9" fill-opacity="0.5" stroke="#606060" stroke-width="1.0"/>
   <path id="arrow"
     d="M 11.500037,31.436501 C 11.940474,20.09759 22.043105,11.32322 32.158766,21.979434 L 37.068811,17.246167 C 37.068811,17.246167 37.088388,32 37.088388,32 L 22.160133,31.978069 C 22.160133,31.978069 26.997745,27.140456 26.997745,27.140456 C 18.528582,18.264221 13.291696,25.230495 11.500037,31.436501 z"
     style="fill:#404040;"/>
  </a>
 </g>
</svg>

<style type='text/css'>
<![CDATA[
[data-mouse-over-selected='false'] { opacity: 0.7; }
[data-mouse-over-selected='true']  { opacity: 1.0; }
]]>
</style>
<script type="application/ecmascript"><![CDATA[
document.addEventListener('DOMContentLoaded', (event) => {
  highlightEdges();
  highlightAdjacentNodes();
});
]]></script>
</svg>
