<?xml version="1.0" encoding="UTF-8" standalone="no"?>
<!DOCTYPE svg PUBLIC "-//W3C//DTD SVG 1.1//EN"
 "http://www.w3.org/Graphics/SVG/1.1/DTD/svg11.dtd">
<!-- Generated by graphviz version 2.43.0 (0)
 -->
<!-- Title: src/Utilities/StateMachine/States/SendMavlinkCommandState.h Pages: 1 -->
<svg width="3532pt" height="313pt"
 viewBox="0.00 0.00 3531.50 313.00" xmlns="http://www.w3.org/2000/svg" xmlns:xlink="http://www.w3.org/1999/xlink">
<g id="graph0" class="graph" transform="scale(1 1) rotate(0) translate(4 309)">
<title>src/Utilities/StateMachine/States/SendMavlinkCommandState.h</title>
<!-- Node1 -->
<g id="Node000001" class="node">
<title>Node1</title>
<g id="a_Node000001"><a xlink:title=" ">
<polygon fill="#999999" stroke="#666666" points="1941,-305 1740,-305 1740,-275 1941,-275 1941,-305"/>
<text text-anchor="start" x="1748" y="-293" font-family="Helvetica,sans-Serif" font-size="10.00">src/Utilities/StateMachine</text>
<text text-anchor="middle" x="1840.5" y="-282" font-family="Helvetica,sans-Serif" font-size="10.00">/States/SendMavlinkCommandState.h</text>
</a>
</g>
</g>
<!-- Node2 -->
<g id="Node000002" class="node">
<title>Node2</title>
<g id="a_Node000002"><a xlink:href="QGCStateMachine_8h.html" target="_top" xlink:title=" ">
<polygon fill="white" stroke="#666666" points="1815.5,-239 1673.5,-239 1673.5,-209 1815.5,-209 1815.5,-239"/>
<text text-anchor="start" x="1681.5" y="-227" font-family="Helvetica,sans-Serif" font-size="10.00">src/Utilities/StateMachine</text>
<text text-anchor="middle" x="1744.5" y="-216" font-family="Helvetica,sans-Serif" font-size="10.00">/QGCStateMachine.h</text>
</a>
</g>
</g>
<!-- Node1&#45;&gt;Node2 -->
<g id="edge1_Node000001_Node000002" class="edge">
<title>Node1&#45;&gt;Node2</title>
<g id="a_edge1_Node000001_Node000002"><a xlink:title=" ">
<path fill="none" stroke="#63b8ff" d="M1810.54,-269.03C1796.01,-259.34 1778.91,-247.94 1765.75,-239.16"/>
<polygon fill="#63b8ff" stroke="#63b8ff" points="1808.93,-272.16 1819.19,-274.8 1812.82,-266.34 1808.93,-272.16"/>
</a>
</g>
</g>
<!-- Node27 -->
<g id="Node000027" class="node">
<title>Node27</title>
<g id="a_Node000027"><a xlink:href="SendMavlinkCommandState_8cc.html" target="_top" xlink:title=" ">
<polygon fill="white" stroke="#666666" points="2039.5,-239 1833.5,-239 1833.5,-209 2039.5,-209 2039.5,-239"/>
<text text-anchor="start" x="1841.5" y="-227" font-family="Helvetica,sans-Serif" font-size="10.00">src/Utilities/StateMachine</text>
<text text-anchor="middle" x="1936.5" y="-216" font-family="Helvetica,sans-Serif" font-size="10.00">/States/SendMavlinkCommandState.cc</text>
</a>
</g>
</g>
<!-- Node1&#45;&gt;Node27 -->
<g id="edge31_Node000001_Node000027" class="edge">
<title>Node1&#45;&gt;Node27</title>
<g id="a_edge31_Node000001_Node000027"><a xlink:title=" ">
<path fill="none" stroke="#63b8ff" d="M1870.46,-269.03C1884.99,-259.34 1902.09,-247.94 1915.25,-239.16"/>
<polygon fill="#63b8ff" stroke="#63b8ff" points="1868.18,-266.34 1861.81,-274.8 1872.07,-272.16 1868.18,-266.34"/>
</a>
</g>
</g>
<!-- Node3 -->
<g id="Node000003" class="node">
<title>Node3</title>
<g id="a_Node000003"><a xlink:href="ParameterManager_8cc.html" target="_top" xlink:title=" ">
<polygon fill="white" stroke="#666666" points="143,-30 0,-30 0,0 143,0 143,-30"/>
<text text-anchor="start" x="8" y="-18" font-family="Helvetica,sans-Serif" font-size="10.00">src/FactSystem/Parameter</text>
<text text-anchor="middle" x="71.5" y="-7" font-family="Helvetica,sans-Serif" font-size="10.00">Manager.cc</text>
</a>
</g>
</g>
<!-- Node2&#45;&gt;Node3 -->
<g id="edge2_Node000002_Node000003" class="edge">
<title>Node2&#45;&gt;Node3</title>
<g id="a_edge2_Node000002_Node000003"><a xlink:title=" ">
<path fill="none" stroke="#63b8ff" d="M1662.71,-222.16C1385.55,-219.03 492.18,-206.43 367.5,-173 254.29,-142.64 135.91,-62.81 90.64,-30.19"/>
<polygon fill="#63b8ff" stroke="#63b8ff" points="1663.06,-225.67 1673.09,-222.28 1663.13,-218.67 1663.06,-225.67"/>
</a>
</g>
</g>
<!-- Node4 -->
<g id="Node000004" class="node">
<title>Node4</title>
<g id="a_Node000004"><a xlink:href="ErrorHandlers_8cc.html" target="_top" xlink:title=" ">
<polygon fill="white" stroke="#666666" points="799.5,-167.5 657.5,-167.5 657.5,-137.5 799.5,-137.5 799.5,-167.5"/>
<text text-anchor="start" x="665.5" y="-155.5" font-family="Helvetica,sans-Serif" font-size="10.00">src/Utilities/StateMachine</text>
<text text-anchor="middle" x="728.5" y="-144.5" font-family="Helvetica,sans-Serif" font-size="10.00">/Helpers/ErrorHandlers.cc</text>
</a>
</g>
</g>
<!-- Node2&#45;&gt;Node4 -->
<g id="edge3_Node000002_Node000004" class="edge">
<title>Node2&#45;&gt;Node4</title>
<g id="a_edge3_Node000002_Node000004"><a xlink:title=" ">
<path fill="none" stroke="#63b8ff" d="M1662.87,-223.71C1499.65,-224.03 1121.8,-219.14 808.5,-173 799.17,-171.63 789.33,-169.66 779.86,-167.51"/>
<polygon fill="#63b8ff" stroke="#63b8ff" points="1663.32,-227.21 1673.31,-223.69 1663.3,-220.21 1663.32,-227.21"/>
</a>
</g>
</g>
<!-- Node5 -->
<g id="Node000005" class="node">
<title>Node5</title>
<g id="a_Node000005"><a xlink:href="ErrorRecoveryBuilder_8cc.html" target="_top" xlink:title=" ">
<polygon fill="white" stroke="#666666" points="993.5,-167.5 817.5,-167.5 817.5,-137.5 993.5,-137.5 993.5,-167.5"/>
<text text-anchor="start" x="825.5" y="-155.5" font-family="Helvetica,sans-Serif" font-size="10.00">src/Utilities/StateMachine</text>
<text text-anchor="middle" x="905.5" y="-144.5" font-family="Helvetica,sans-Serif" font-size="10.00">/Helpers/ErrorRecoveryBuilder.cc</text>
</a>
</g>
</g>
<!-- Node2&#45;&gt;Node5 -->
<g id="edge4_Node000002_Node000005" class="edge">
<title>Node2&#45;&gt;Node5</title>
<g id="a_edge4_Node000002_Node000005"><a xlink:title=" ">
<path fill="none" stroke="#63b8ff" d="M1662.94,-221C1525.95,-216.86 1241.19,-204.89 1002.5,-173 991.69,-171.56 980.27,-169.63 969.22,-167.55"/>
<polygon fill="#63b8ff" stroke="#63b8ff" points="1663.24,-224.51 1673.34,-221.31 1663.45,-217.51 1663.24,-224.51"/>
</a>
</g>
</g>
<!-- Node6 -->
<g id="Node000006" class="node">
<title>Node6</title>
<g id="a_Node000006"><a xlink:href="StateHistoryRecorder_8cc.html" target="_top" xlink:title=" ">
<polygon fill="white" stroke="#666666" points="1188,-167.5 1011,-167.5 1011,-137.5 1188,-137.5 1188,-167.5"/>
<text text-anchor="start" x="1019" y="-155.5" font-family="Helvetica,sans-Serif" font-size="10.00">src/Utilities/StateMachine</text>
<text text-anchor="middle" x="1099.5" y="-144.5" font-family="Helvetica,sans-Serif" font-size="10.00">/Helpers/StateHistoryRecorder.cc</text>
</a>
</g>
</g>
<!-- Node2&#45;&gt;Node6 -->
<g id="edge5_Node000002_Node000006" class="edge">
<title>Node2&#45;&gt;Node6</title>
<g id="a_edge5_Node000002_Node000006"><a xlink:title=" ">
<path fill="none" stroke="#63b8ff" d="M1663.32,-218.26C1556.24,-211.39 1362.07,-196.83 1197.5,-173 1186.94,-171.47 1175.8,-169.55 1164.97,-167.52"/>
<polygon fill="#63b8ff" stroke="#63b8ff" points="1663.21,-221.76 1673.41,-218.9 1663.65,-214.77 1663.21,-221.76"/>
</a>
</g>
</g>
<!-- Node7 -->
<g id="Node000007" class="node">
<title>Node7</title>
<g id="a_Node000007"><a xlink:href="StateMachineLogger_8cc.html" target="_top" xlink:title=" ">
<polygon fill="white" stroke="#666666" points="1379,-167.5 1206,-167.5 1206,-137.5 1379,-137.5 1379,-167.5"/>
<text text-anchor="start" x="1214" y="-155.5" font-family="Helvetica,sans-Serif" font-size="10.00">src/Utilities/StateMachine</text>
<text text-anchor="middle" x="1292.5" y="-144.5" font-family="Helvetica,sans-Serif" font-size="10.00">/Helpers/StateMachineLogger.cc</text>
</a>
</g>
</g>
<!-- Node2&#45;&gt;Node7 -->
<g id="edge6_Node000002_Node000007" class="edge">
<title>Node2&#45;&gt;Node7</title>
<g id="a_edge6_Node000002_Node000007"><a xlink:title=" ">
<path fill="none" stroke="#63b8ff" d="M1663.43,-213.04C1591.13,-203.82 1482.5,-189.13 1388.5,-173 1378.86,-171.35 1368.71,-169.45 1358.76,-167.51"/>
<polygon fill="#63b8ff" stroke="#63b8ff" points="1663.02,-216.52 1673.38,-214.31 1663.9,-209.57 1663.02,-216.52"/>
</a>
</g>
</g>
<!-- Node8 -->
<g id="Node000008" class="node">
<title>Node8</title>
<g id="a_Node000008"><a xlink:href="StateMachineProfiler_8cc.html" target="_top" xlink:title=" ">
<polygon fill="white" stroke="#666666" points="1571.5,-167.5 1397.5,-167.5 1397.5,-137.5 1571.5,-137.5 1571.5,-167.5"/>
<text text-anchor="start" x="1405.5" y="-155.5" font-family="Helvetica,sans-Serif" font-size="10.00">src/Utilities/StateMachine</text>
<text text-anchor="middle" x="1484.5" y="-144.5" font-family="Helvetica,sans-Serif" font-size="10.00">/Helpers/StateMachineProfiler.cc</text>
</a>
</g>
</g>
<!-- Node2&#45;&gt;Node8 -->
<g id="edge7_Node000002_Node000008" class="edge">
<title>Node2&#45;&gt;Node8</title>
<g id="a_edge7_Node000002_Node000008"><a xlink:title=" ">
<path fill="none" stroke="#63b8ff" d="M1682.09,-206.32C1637.78,-194.47 1578.95,-178.75 1537.04,-167.54"/>
<polygon fill="#63b8ff" stroke="#63b8ff" points="1681.32,-209.73 1691.89,-208.94 1683.13,-202.97 1681.32,-209.73"/>
</a>
</g>
</g>
<!-- Node9 -->
<g id="Node000009" class="node">
<title>Node9</title>
<g id="a_Node000009"><a xlink:href="QGCStateMachine_8cc.html" target="_top" xlink:title=" ">
<polygon fill="white" stroke="#666666" points="1731.5,-167.5 1589.5,-167.5 1589.5,-137.5 1731.5,-137.5 1731.5,-167.5"/>
<text text-anchor="start" x="1597.5" y="-155.5" font-family="Helvetica,sans-Serif" font-size="10.00">src/Utilities/StateMachine</text>
<text text-anchor="middle" x="1660.5" y="-144.5" font-family="Helvetica,sans-Serif" font-size="10.00">/QGCStateMachine.cc</text>
</a>
</g>
</g>
<!-- Node2&#45;&gt;Node9 -->
<g id="edge8_Node000002_Node000009" class="edge">
<title>Node2&#45;&gt;Node9</title>
<g id="a_edge8_Node000002_Node000009"><a xlink:title=" ">
<path fill="none" stroke="#63b8ff" d="M1719.49,-202.31C1705.93,-191.09 1689.54,-177.52 1677.47,-167.54"/>
<polygon fill="#63b8ff" stroke="#63b8ff" points="1717.57,-205.26 1727.5,-208.94 1722.03,-199.86 1717.57,-205.26"/>
</a>
</g>
</g>
<!-- Node10 -->
<g id="Node000010" class="node">
<title>Node10</title>
<g id="a_Node000010"><a xlink:href="EventQueuedState_8cc.html" target="_top" xlink:title=" ">
<polygon fill="white" stroke="#666666" points="1907.5,-167.5 1749.5,-167.5 1749.5,-137.5 1907.5,-137.5 1907.5,-167.5"/>
<text text-anchor="start" x="1757.5" y="-155.5" font-family="Helvetica,sans-Serif" font-size="10.00">src/Utilities/StateMachine</text>
<text text-anchor="middle" x="1828.5" y="-144.5" font-family="Helvetica,sans-Serif" font-size="10.00">/States/EventQueuedState.cc</text>
</a>
</g>
</g>
<!-- Node2&#45;&gt;Node10 -->
<g id="edge9_Node000002_Node000010" class="edge">
<title>Node2&#45;&gt;Node10</title>
<g id="a_edge9_Node000002_Node000010"><a xlink:title=" ">
<path fill="none" stroke="#63b8ff" d="M1769.51,-202.31C1783.07,-191.09 1799.46,-177.52 1811.53,-167.54"/>
<polygon fill="#63b8ff" stroke="#63b8ff" points="1766.97,-199.86 1761.5,-208.94 1771.43,-205.26 1766.97,-199.86"/>
</a>
</g>
</g>
<!-- Node11 -->
<g id="Node000011" class="node">
<title>Node11</title>
<g id="a_Node000011"><a xlink:href="QGCAbstractState_8cc.html" target="_top" xlink:title=" ">
<polygon fill="white" stroke="#666666" points="2081,-167.5 1926,-167.5 1926,-137.5 2081,-137.5 2081,-167.5"/>
<text text-anchor="start" x="1934" y="-155.5" font-family="Helvetica,sans-Serif" font-size="10.00">src/Utilities/StateMachine</text>
<text text-anchor="middle" x="2003.5" y="-144.5" font-family="Helvetica,sans-Serif" font-size="10.00">/States/QGCAbstractState.cc</text>
</a>
</g>
</g>
<!-- Node2&#45;&gt;Node11 -->
<g id="edge10_Node000002_Node000011" class="edge">
<title>Node2&#45;&gt;Node11</title>
<g id="a_edge10_Node000002_Node000011"><a xlink:title=" ">
<path fill="none" stroke="#63b8ff" d="M1806.67,-206.32C1850.81,-194.47 1909.41,-178.75 1951.17,-167.54"/>
<polygon fill="#63b8ff" stroke="#63b8ff" points="1805.66,-202.96 1796.91,-208.94 1807.48,-209.72 1805.66,-202.96"/>
</a>
</g>
</g>
<!-- Node12 -->
<g id="Node000012" class="node">
<title>Node12</title>
<g id="a_Node000012"><a xlink:href="QGCFinalState_8cc.html" target="_top" xlink:title=" ">
<polygon fill="white" stroke="#666666" points="2241.5,-167.5 2099.5,-167.5 2099.5,-137.5 2241.5,-137.5 2241.5,-167.5"/>
<text text-anchor="start" x="2107.5" y="-155.5" font-family="Helvetica,sans-Serif" font-size="10.00">src/Utilities/StateMachine</text>
<text text-anchor="middle" x="2170.5" y="-144.5" font-family="Helvetica,sans-Serif" font-size="10.00">/States/QGCFinalState.cc</text>
</a>
</g>
</g>
<!-- Node2&#45;&gt;Node12 -->
<g id="edge11_Node000002_Node000012" class="edge">
<title>Node2&#45;&gt;Node12</title>
<g id="a_edge11_Node000002_Node000012"><a xlink:title=" ">
<path fill="none" stroke="#63b8ff" d="M1825.77,-208.85C1944.14,-190.94 1976.48,-194.55 2090.5,-173 2098.79,-171.43 2107.5,-169.55 2116.01,-167.59"/>
<polygon fill="#63b8ff" stroke="#63b8ff" points="1824.93,-205.44 1815.58,-210.41 1825.99,-212.36 1824.93,-205.44"/>
</a>
</g>
</g>
<!-- Node13 -->
<g id="Node000013" class="node">
<title>Node13</title>
<g id="a_Node000013"><a xlink:href="QGCHistoryState_8cc.html" target="_top" xlink:title=" ">
<polygon fill="white" stroke="#666666" points="2409,-167.5 2260,-167.5 2260,-137.5 2409,-137.5 2409,-167.5"/>
<text text-anchor="start" x="2268" y="-155.5" font-family="Helvetica,sans-Serif" font-size="10.00">src/Utilities/StateMachine</text>
<text text-anchor="middle" x="2334.5" y="-144.5" font-family="Helvetica,sans-Serif" font-size="10.00">/States/QGCHistoryState.cc</text>
</a>
</g>
</g>
<!-- Node2&#45;&gt;Node13 -->
<g id="edge12_Node000002_Node000013" class="edge">
<title>Node2&#45;&gt;Node13</title>
<g id="a_edge12_Node000002_Node000013"><a xlink:title=" ">
<path fill="none" stroke="#63b8ff" d="M1825.54,-208.95C2014.68,-185.2 2066.01,-202.05 2250.5,-173 2259.82,-171.53 2269.64,-169.61 2279.14,-167.54"/>
<polygon fill="#63b8ff" stroke="#63b8ff" points="1825.03,-205.49 1815.55,-210.23 1825.91,-212.43 1825.03,-205.49"/>
</a>
</g>
</g>
<!-- Node14 -->
<g id="Node000014" class="node">
<title>Node14</title>
<g id="a_Node000014"><a xlink:href="QGCState_8cc.html" target="_top" xlink:title=" ">
<polygon fill="white" stroke="#666666" points="2569.5,-167.5 2427.5,-167.5 2427.5,-137.5 2569.5,-137.5 2569.5,-167.5"/>
<text text-anchor="start" x="2435.5" y="-155.5" font-family="Helvetica,sans-Serif" font-size="10.00">src/Utilities/StateMachine</text>
<text text-anchor="middle" x="2498.5" y="-144.5" font-family="Helvetica,sans-Serif" font-size="10.00">/States/QGCState.cc</text>
</a>
</g>
</g>
<!-- Node2&#45;&gt;Node14 -->
<g id="edge13_Node000002_Node000014" class="edge">
<title>Node2&#45;&gt;Node14</title>
<g id="a_edge13_Node000002_Node000014"><a xlink:title=" ">
<path fill="none" stroke="#63b8ff" d="M1825.79,-208.95C2088.98,-179.01 2160.3,-211.97 2418.5,-173 2427.69,-171.61 2437.37,-169.67 2446.7,-167.55"/>
<polygon fill="#63b8ff" stroke="#63b8ff" points="1825.07,-205.51 1815.54,-210.14 1825.88,-212.47 1825.07,-205.51"/>
</a>
</g>
</g>
<!-- Node15 -->
<g id="Node000015" class="node">
<title>Node15</title>
<g id="a_Node000015"><a xlink:href="RetryableRequestMessageState_8cc.html" target="_top" xlink:title=" ">
<polygon fill="white" stroke="#666666" points="2771.5,-173 2587.5,-173 2587.5,-132 2771.5,-132 2771.5,-173"/>
<text text-anchor="start" x="2595.5" y="-161" font-family="Helvetica,sans-Serif" font-size="10.00">src/Utilities/StateMachine</text>
<text text-anchor="start" x="2595.5" y="-150" font-family="Helvetica,sans-Serif" font-size="10.00">/States/RetryableRequestMessage</text>
<text text-anchor="middle" x="2679.5" y="-139" font-family="Helvetica,sans-Serif" font-size="10.00">State.cc</text>
</a>
</g>
</g>
<!-- Node2&#45;&gt;Node15 -->
<g id="edge14_Node000002_Node000015" class="edge">
<title>Node2&#45;&gt;Node15</title>
<g id="a_edge14_Node000002_Node000015"><a xlink:title=" ">
<path fill="none" stroke="#63b8ff" d="M1825.49,-209C2159.68,-172.8 2248.64,-212.51 2578.5,-173 2581.43,-172.65 2584.39,-172.26 2587.39,-171.85"/>
<polygon fill="#63b8ff" stroke="#63b8ff" points="1825.09,-205.52 1815.53,-210.09 1825.86,-212.48 1825.09,-205.52"/>
</a>
</g>
</g>
<!-- Node16 -->
<g id="Node000016" class="node">
<title>Node16</title>
<g id="a_Node000016"><a xlink:href="SubMachineState_8cc.html" target="_top" xlink:title=" ">
<polygon fill="white" stroke="#666666" points="2941.5,-167.5 2789.5,-167.5 2789.5,-137.5 2941.5,-137.5 2941.5,-167.5"/>
<text text-anchor="start" x="2797.5" y="-155.5" font-family="Helvetica,sans-Serif" font-size="10.00">src/Utilities/StateMachine</text>
<text text-anchor="middle" x="2865.5" y="-144.5" font-family="Helvetica,sans-Serif" font-size="10.00">/States/SubMachineState.cc</text>
</a>
</g>
</g>
<!-- Node2&#45;&gt;Node16 -->
<g id="edge15_Node000002_Node000016" class="edge">
<title>Node2&#45;&gt;Node16</title>
<g id="a_edge15_Node000002_Node000016"><a xlink:title=" ">
<path fill="none" stroke="#63b8ff" d="M1825.59,-209C2249.09,-165.25 2362.28,-228.35 2780.5,-173 2790.56,-171.67 2801.17,-169.7 2811.36,-167.52"/>
<polygon fill="#63b8ff" stroke="#63b8ff" points="1825.11,-205.53 1815.53,-210.05 1825.84,-212.49 1825.11,-205.53"/>
</a>
</g>
</g>
<!-- Node17 -->
<g id="Node000017" class="node">
<title>Node17</title>
<g id="a_Node000017"><a xlink:href="WaitStateBase_8cc.html" target="_top" xlink:title=" ">
<polygon fill="white" stroke="#666666" points="3101.5,-167.5 2959.5,-167.5 2959.5,-137.5 3101.5,-137.5 3101.5,-167.5"/>
<text text-anchor="start" x="2967.5" y="-155.5" font-family="Helvetica,sans-Serif" font-size="10.00">src/Utilities/StateMachine</text>
<text text-anchor="middle" x="3030.5" y="-144.5" font-family="Helvetica,sans-Serif" font-size="10.00">/States/WaitStateBase.cc</text>
</a>
</g>
</g>
<!-- Node2&#45;&gt;Node17 -->
<g id="edge16_Node000002_Node000017" class="edge">
<title>Node2&#45;&gt;Node17</title>
<g id="a_edge16_Node000002_Node000017"><a xlink:title=" ">
<path fill="none" stroke="#63b8ff" d="M1825.51,-209.02C2324.32,-158.8 2457.66,-240.2 2950.5,-173 2959.99,-171.71 2969.99,-169.75 2979.59,-167.58"/>
<polygon fill="#63b8ff" stroke="#63b8ff" points="1825.12,-205.54 1815.53,-210.03 1825.83,-212.5 1825.12,-205.54"/>
</a>
</g>
</g>
<!-- Node18 -->
<g id="Node000018" class="node">
<title>Node18</title>
<g id="a_Node000018"><a xlink:href="QGCAbstractTransition_8cc.html" target="_top" xlink:title=" ">
<polygon fill="white" stroke="#666666" points="3317.5,-167.5 3119.5,-167.5 3119.5,-137.5 3317.5,-137.5 3317.5,-167.5"/>
<text text-anchor="start" x="3127.5" y="-155.5" font-family="Helvetica,sans-Serif" font-size="10.00">src/Utilities/StateMachine</text>
<text text-anchor="middle" x="3218.5" y="-144.5" font-family="Helvetica,sans-Serif" font-size="10.00">/Transitions/QGCAbstractTransition.cc</text>
</a>
</g>
</g>
<!-- Node2&#45;&gt;Node18 -->
<g id="edge17_Node000002_Node000018" class="edge">
<title>Node2&#45;&gt;Node18</title>
<g id="a_edge17_Node000002_Node000018"><a xlink:title=" ">
<path fill="none" stroke="#63b8ff" d="M1825.64,-209.01C2395.14,-152.5 2545.1,-231.62 3110.5,-173 3123.2,-171.68 3136.65,-169.72 3149.58,-167.54"/>
<polygon fill="#63b8ff" stroke="#63b8ff" points="1825.13,-205.54 1815.53,-210.02 1825.82,-212.5 1825.13,-205.54"/>
</a>
</g>
</g>
<!-- Node19 -->
<g id="Node000019" class="node">
<title>Node19</title>
<g id="a_Node000019"><a xlink:href="QGCSignalTransition_8cc.html" target="_top" xlink:title=" ">
<polygon fill="white" stroke="#666666" points="3523.5,-167.5 3335.5,-167.5 3335.5,-137.5 3523.5,-137.5 3523.5,-167.5"/>
<text text-anchor="start" x="3343.5" y="-155.5" font-family="Helvetica,sans-Serif" font-size="10.00">src/Utilities/StateMachine</text>
<text text-anchor="middle" x="3429.5" y="-144.5" font-family="Helvetica,sans-Serif" font-size="10.00">/Transitions/QGCSignalTransition.cc</text>
</a>
</g>
</g>
<!-- Node2&#45;&gt;Node19 -->
<g id="edge18_Node000002_Node000019" class="edge">
<title>Node2&#45;&gt;Node19</title>
<g id="a_edge18_Node000002_Node000019"><a xlink:title=" ">
<path fill="none" stroke="#63b8ff" d="M1825.84,-208.99C2490.8,-144.29 2665.87,-242.98 3326.5,-173 3338.72,-171.71 3351.65,-169.74 3364.08,-167.54"/>
<polygon fill="#63b8ff" stroke="#63b8ff" points="1825.13,-205.54 1815.52,-210 1825.82,-212.51 1825.13,-205.54"/>
</a>
</g>
</g>
<!-- Node20 -->
<g id="Node000020" class="node">
<title>Node20</title>
<g id="a_Node000020"><a xlink:href="ComponentInformationManager_8h.html" target="_top" xlink:title=" ">
<polygon fill="white" stroke="#666666" points="471,-96 286,-96 286,-66 471,-66 471,-96"/>
<text text-anchor="start" x="294" y="-84" font-family="Helvetica,sans-Serif" font-size="10.00">src/Vehicle/ComponentInformation</text>
<text text-anchor="middle" x="378.5" y="-73" font-family="Helvetica,sans-Serif" font-size="10.00">/ComponentInformationManager.h</text>
</a>
</g>
</g>
<!-- Node2&#45;&gt;Node20 -->
<g id="edge19_Node000002_Node000020" class="edge">
<title>Node2&#45;&gt;Node20</title>
<g id="a_edge19_Node000002_Node000020"><a xlink:title=" ">
<path fill="none" stroke="#63b8ff" d="M1663.05,-222.94C1376.97,-222.36 432.9,-217.1 386.5,-173 365.81,-153.33 370.26,-116.33 374.73,-96.1"/>
<polygon fill="#63b8ff" stroke="#63b8ff" points="1663.34,-226.44 1673.35,-222.96 1663.36,-219.44 1663.34,-226.44"/>
</a>
</g>
</g>
<!-- Node25 -->
<g id="Node000025" class="node">
<title>Node25</title>
<g id="a_Node000025"><a xlink:href="RequestMetaDataTypeStateMachine_8h.html" target="_top" xlink:title=" ">
<polygon fill="white" stroke="#666666" points="601.5,-167.5 395.5,-167.5 395.5,-137.5 601.5,-137.5 601.5,-167.5"/>
<text text-anchor="start" x="403.5" y="-155.5" font-family="Helvetica,sans-Serif" font-size="10.00">src/Vehicle/ComponentInformation</text>
<text text-anchor="middle" x="498.5" y="-144.5" font-family="Helvetica,sans-Serif" font-size="10.00">/RequestMetaDataTypeStateMachine.h</text>
</a>
</g>
</g>
<!-- Node2&#45;&gt;Node25 -->
<g id="edge25_Node000002_Node000025" class="edge">
<title>Node2&#45;&gt;Node25</title>
<g id="a_edge25_Node000002_Node000025"><a xlink:title=" ">
<path fill="none" stroke="#63b8ff" d="M1663.03,-222.76C1476.91,-221.48 1006.41,-214.08 615.5,-173 602.19,-171.6 588.09,-169.66 574.47,-167.53"/>
<polygon fill="#63b8ff" stroke="#63b8ff" points="1663.25,-226.26 1673.28,-222.83 1663.3,-219.26 1663.25,-226.26"/>
</a>
</g>
</g>
<!-- Node26 -->
<g id="Node000026" class="node">
<title>Node26</title>
<g id="a_Node000026"><a xlink:href="InitialConnectStateMachine_8h.html" target="_top" xlink:title=" ">
<polygon fill="white" stroke="#666666" points="726.5,-96 586.5,-96 586.5,-66 726.5,-66 726.5,-96"/>
<text text-anchor="start" x="594.5" y="-84" font-family="Helvetica,sans-Serif" font-size="10.00">src/Vehicle/InitialConnect</text>
<text text-anchor="middle" x="656.5" y="-73" font-family="Helvetica,sans-Serif" font-size="10.00">StateMachine.h</text>
</a>
</g>
</g>
<!-- Node2&#45;&gt;Node26 -->
<g id="edge28_Node000002_Node000026" class="edge">
<title>Node2&#45;&gt;Node26</title>
<g id="a_edge28_Node000002_Node000026"><a xlink:title=" ">
<path fill="none" stroke="#63b8ff" d="M1663.1,-222.33C1415.08,-219.88 683.44,-209.57 648.5,-173 628.89,-152.47 640.61,-116.16 649.44,-96.17"/>
<polygon fill="#63b8ff" stroke="#63b8ff" points="1663.1,-225.83 1673.13,-222.42 1663.17,-218.83 1663.1,-225.83"/>
</a>
</g>
</g>
<!-- Node20&#45;&gt;Node3 -->
<g id="edge20_Node000020_Node000003" class="edge">
<title>Node20&#45;&gt;Node3</title>
<g id="a_edge20_Node000020_Node000003"><a xlink:title=" ">
<path fill="none" stroke="#63b8ff" d="M301.32,-63.91C251.26,-53.47 186.67,-40.01 138.72,-30.01"/>
<polygon fill="#63b8ff" stroke="#63b8ff" points="300.62,-67.34 311.13,-65.95 302.05,-60.49 300.62,-67.34"/>
</a>
</g>
</g>
<!-- Node21 -->
<g id="Node000021" class="node">
<title>Node21</title>
<g id="a_Node000021"><a xlink:href="ComponentInformationManager_8cc.html" target="_top" xlink:title=" ">
<polygon fill="white" stroke="#666666" points="349.5,-30 161.5,-30 161.5,0 349.5,0 349.5,-30"/>
<text text-anchor="start" x="169.5" y="-18" font-family="Helvetica,sans-Serif" font-size="10.00">src/Vehicle/ComponentInformation</text>
<text text-anchor="middle" x="255.5" y="-7" font-family="Helvetica,sans-Serif" font-size="10.00">/ComponentInformationManager.cc</text>
</a>
</g>
</g>
<!-- Node20&#45;&gt;Node21 -->
<g id="edge21_Node000020_Node000021" class="edge">
<title>Node20&#45;&gt;Node21</title>
<g id="a_edge21_Node000020_Node000021"><a xlink:title=" ">
<path fill="none" stroke="#63b8ff" d="M342.45,-61.24C323.25,-51.25 300.04,-39.18 282.43,-30.01"/>
<polygon fill="#63b8ff" stroke="#63b8ff" points="341.02,-64.44 351.51,-65.95 344.25,-58.23 341.02,-64.44"/>
</a>
</g>
</g>
<!-- Node22 -->
<g id="Node000022" class="node">
<title>Node22</title>
<g id="a_Node000022"><a xlink:href="RequestMetaDataTypeStateMachine_8cc.html" target="_top" xlink:title=" ">
<polygon fill="white" stroke="#666666" points="577.5,-30 367.5,-30 367.5,0 577.5,0 577.5,-30"/>
<text text-anchor="start" x="375.5" y="-18" font-family="Helvetica,sans-Serif" font-size="10.00">src/Vehicle/ComponentInformation</text>
<text text-anchor="middle" x="472.5" y="-7" font-family="Helvetica,sans-Serif" font-size="10.00">/RequestMetaDataTypeStateMachine.cc</text>
</a>
</g>
</g>
<!-- Node20&#45;&gt;Node22 -->
<g id="edge22_Node000020_Node000022" class="edge">
<title>Node20&#45;&gt;Node22</title>
<g id="a_edge22_Node000020_Node000022"><a xlink:title=" ">
<path fill="none" stroke="#63b8ff" d="M407.83,-60.03C422.06,-50.34 438.81,-38.94 451.7,-30.16"/>
<polygon fill="#63b8ff" stroke="#63b8ff" points="405.66,-57.28 399.36,-65.8 409.6,-63.06 405.66,-57.28"/>
</a>
</g>
</g>
<!-- Node23 -->
<g id="Node000023" class="node">
<title>Node23</title>
<g id="a_Node000023"><a xlink:href="InitialConnectStateMachine_8cc.html" target="_top" xlink:title=" ">
<polygon fill="white" stroke="#666666" points="875.5,-30 735.5,-30 735.5,0 875.5,0 875.5,-30"/>
<text text-anchor="start" x="743.5" y="-18" font-family="Helvetica,sans-Serif" font-size="10.00">src/Vehicle/InitialConnect</text>
<text text-anchor="middle" x="805.5" y="-7" font-family="Helvetica,sans-Serif" font-size="10.00">StateMachine.cc</text>
</a>
</g>
</g>
<!-- Node20&#45;&gt;Node23 -->
<g id="edge23_Node000020_Node000023" class="edge">
<title>Node20&#45;&gt;Node23</title>
<g id="a_edge23_Node000020_Node000023"><a xlink:title=" ">
<path fill="none" stroke="#63b8ff" d="M481.36,-66.12C550.71,-56.54 644.21,-43.2 726.5,-30 729.39,-29.54 732.33,-29.06 735.31,-28.56"/>
<polygon fill="#63b8ff" stroke="#63b8ff" points="480.74,-62.67 471.31,-67.51 481.7,-69.61 480.74,-62.67"/>
</a>
</g>
</g>
<!-- Node24 -->
<g id="Node000024" class="node">
<title>Node24</title>
<g id="a_Node000024"><a xlink:href="Vehicle_8cc.html" target="_top" xlink:title=" ">
<polygon fill="white" stroke="#666666" points="717,-24.5 596,-24.5 596,-5.5 717,-5.5 717,-24.5"/>
<text text-anchor="middle" x="656.5" y="-12.5" font-family="Helvetica,sans-Serif" font-size="10.00">src/Vehicle/Vehicle.cc</text>
</a>
</g>
</g>
<!-- Node20&#45;&gt;Node24 -->
<g id="edge24_Node000020_Node000024" class="edge">
<title>Node20&#45;&gt;Node24</title>
<g id="a_edge24_Node000020_Node000024"><a xlink:title=" ">
<path fill="none" stroke="#63b8ff" d="M449.41,-63.68C503.64,-51.19 576.24,-34.48 619.5,-24.52"/>
<polygon fill="#63b8ff" stroke="#63b8ff" points="448.47,-60.3 439.51,-65.95 450.04,-67.12 448.47,-60.3"/>
</a>
</g>
</g>
<!-- Node25&#45;&gt;Node20 -->
<g id="edge26_Node000025_Node000020" class="edge">
<title>Node25&#45;&gt;Node20</title>
<g id="a_edge26_Node000025_Node000020"><a xlink:title=" ">
<path fill="none" stroke="#63b8ff" d="M465.49,-132.38C445.63,-120.88 420.79,-106.49 402.75,-96.04"/>
<polygon fill="#63b8ff" stroke="#63b8ff" points="463.81,-135.45 474.22,-137.44 467.32,-129.4 463.81,-135.45"/>
</a>
</g>
</g>
<!-- Node25&#45;&gt;Node22 -->
<g id="edge27_Node000025_Node000022" class="edge">
<title>Node25&#45;&gt;Node22</title>
<g id="a_edge27_Node000025_Node000022"><a xlink:title=" ">
<path fill="none" stroke="#63b8ff" d="M493.87,-127.35C488.43,-99.04 479.61,-53.06 475.2,-30.05"/>
<polygon fill="#63b8ff" stroke="#63b8ff" points="490.44,-128.09 495.77,-137.26 497.32,-126.77 490.44,-128.09"/>
</a>
</g>
</g>
<!-- Node26&#45;&gt;Node23 -->
<g id="edge29_Node000026_Node000023" class="edge">
<title>Node26&#45;&gt;Node23</title>
<g id="a_edge29_Node000026_Node000023"><a xlink:title=" ">
<path fill="none" stroke="#63b8ff" d="M698.59,-61.92C722.14,-51.8 751.06,-39.38 772.88,-30.01"/>
<polygon fill="#63b8ff" stroke="#63b8ff" points="697.01,-58.79 689.2,-65.95 699.77,-65.22 697.01,-58.79"/>
</a>
</g>
</g>
<!-- Node26&#45;&gt;Node24 -->
<g id="edge30_Node000026_Node000024" class="edge">
<title>Node26&#45;&gt;Node24</title>
<g id="a_edge30_Node000026_Node000024"><a xlink:title=" ">
<path fill="none" stroke="#63b8ff" d="M656.5,-55.6C656.5,-44.8 656.5,-32.78 656.5,-24.84"/>
<polygon fill="#63b8ff" stroke="#63b8ff" points="653,-55.8 656.5,-65.8 660,-55.8 653,-55.8"/>
</a>
</g>
</g>
</g>
</svg>
