<?xml version="1.0" encoding="UTF-8" standalone="no"?>
<!DOCTYPE svg PUBLIC "-//W3C//DTD SVG 1.1//EN"
 "http://www.w3.org/Graphics/SVG/1.1/DTD/svg11.dtd">
<!-- Generated by graphviz version 2.43.0 (0)
 -->
<!-- Title: src/Utilities/StateMachine/States/SendMavlinkCommandState.h Pages: 1 -->
<svg width="1019pt" height="258pt"
 viewBox="0.00 0.00 1019.00 258.00" xmlns="http://www.w3.org/2000/svg" xmlns:xlink="http://www.w3.org/1999/xlink">
<g id="graph0" class="graph" transform="scale(1 1) rotate(0) translate(4 254)">
<title>src/Utilities/StateMachine/States/SendMavlinkCommandState.h</title>
<!-- Node1 -->
<g id="Node000001" class="node">
<title>Node1</title>
<g id="a_Node000001"><a xlink:title=" ">
<polygon fill="#999999" stroke="#666666" points="487,-250 286,-250 286,-220 487,-220 487,-250"/>
<text text-anchor="start" x="294" y="-238" font-family="Helvetica,sans-Serif" font-size="10.00">src/Utilities/StateMachine</text>
<text text-anchor="middle" x="386.5" y="-227" font-family="Helvetica,sans-Serif" font-size="10.00">/States/SendMavlinkCommandState.h</text>
</a>
</g>
</g>
<!-- Node2 -->
<g id="Node000002" class="node">
<title>Node2</title>
<g id="a_Node000002"><a xlink:href="WaitStateBase_8h.html" target="_top" xlink:title=" ">
<polygon fill="white" stroke="#666666" points="397,-184 300,-184 300,-165 397,-165 397,-184"/>
<text text-anchor="middle" x="348.5" y="-172" font-family="Helvetica,sans-Serif" font-size="10.00">WaitStateBase.h</text>
</a>
</g>
</g>
<!-- Node1&#45;&gt;Node2 -->
<g id="edge1_Node000001_Node000002" class="edge">
<title>Node1&#45;&gt;Node2</title>
<g id="a_edge1_Node000001_Node000002"><a xlink:title=" ">
<path fill="none" stroke="#63b8ff" d="M377.3,-219.84C372.01,-211.69 365.32,-201.4 359.72,-192.78"/>
<polygon fill="#63b8ff" stroke="#63b8ff" points="362.58,-190.75 354.19,-184.27 356.71,-194.56 362.58,-190.75"/>
</a>
</g>
</g>
<!-- Node10 -->
<g id="Node000010" class="node">
<title>Node10</title>
<g id="a_Node000010"><a xlink:href="QGCMAVLink_8h.html" target="_top" xlink:title=" ">
<polygon fill="white" stroke="#666666" points="500,-129 411,-129 411,-110 500,-110 500,-129"/>
<text text-anchor="middle" x="455.5" y="-117" font-family="Helvetica,sans-Serif" font-size="10.00">QGCMAVLink.h</text>
</a>
</g>
</g>
<!-- Node1&#45;&gt;Node10 -->
<g id="edge9_Node000001_Node000010" class="edge">
<title>Node1&#45;&gt;Node10</title>
<g id="a_edge9_Node000001_Node000010"><a xlink:title=" ">
<path fill="none" stroke="#63b8ff" d="M395.24,-219.63C407.87,-198.84 431.22,-160.44 444.85,-138.02"/>
<polygon fill="#63b8ff" stroke="#63b8ff" points="447.99,-139.59 450.19,-129.23 442.01,-135.96 447.99,-139.59"/>
</a>
</g>
</g>
<!-- Node3 -->
<g id="Node000003" class="node">
<title>Node3</title>
<g id="a_Node000003"><a xlink:href="QGCState_8h.html" target="_top" xlink:title=" ">
<polygon fill="white" stroke="#666666" points="286,-129 213,-129 213,-110 286,-110 286,-129"/>
<text text-anchor="middle" x="249.5" y="-117" font-family="Helvetica,sans-Serif" font-size="10.00">QGCState.h</text>
</a>
</g>
</g>
<!-- Node2&#45;&gt;Node3 -->
<g id="edge2_Node000002_Node000003" class="edge">
<title>Node2&#45;&gt;Node3</title>
<g id="a_edge2_Node000002_Node000003"><a xlink:title=" ">
<path fill="none" stroke="#63b8ff" d="M332.59,-164.98C316.95,-156.61 292.84,-143.7 274.62,-133.95"/>
<polygon fill="#63b8ff" stroke="#63b8ff" points="276.16,-130.8 265.7,-129.17 272.86,-136.98 276.16,-130.8"/>
</a>
</g>
</g>
<!-- Node9 -->
<g id="Node000009" class="node">
<title>Node9</title>
<g id="a_Node000009"><a xlink:title=" ">
<polygon fill="#e0e0e0" stroke="#999999" points="393,-129 304,-129 304,-110 393,-110 393,-129"/>
<text text-anchor="middle" x="348.5" y="-117" font-family="Helvetica,sans-Serif" font-size="10.00">QtCore/QTimer</text>
</a>
</g>
</g>
<!-- Node2&#45;&gt;Node9 -->
<g id="edge8_Node000002_Node000009" class="edge">
<title>Node2&#45;&gt;Node9</title>
<g id="a_edge8_Node000002_Node000009"><a xlink:title=" ">
<path fill="none" stroke="#63b8ff" d="M348.5,-164.75C348.5,-157.8 348.5,-147.85 348.5,-139.13"/>
<polygon fill="#63b8ff" stroke="#63b8ff" points="352,-139.09 348.5,-129.09 345,-139.09 352,-139.09"/>
</a>
</g>
</g>
<!-- Node4 -->
<g id="Node000004" class="node">
<title>Node4</title>
<g id="a_Node000004"><a xlink:href="QGCAbstractState_8h.html" target="_top" xlink:title=" ">
<polygon fill="white" stroke="#666666" points="180,-74 67,-74 67,-55 180,-55 180,-74"/>
<text text-anchor="middle" x="123.5" y="-62" font-family="Helvetica,sans-Serif" font-size="10.00">QGCAbstractState.h</text>
</a>
</g>
</g>
<!-- Node3&#45;&gt;Node4 -->
<g id="edge3_Node000003_Node000004" class="edge">
<title>Node3&#45;&gt;Node4</title>
<g id="a_edge3_Node000003_Node000004"><a xlink:title=" ">
<path fill="none" stroke="#63b8ff" d="M229.26,-109.98C208.8,-101.38 176.97,-87.99 153.57,-78.15"/>
<polygon fill="#63b8ff" stroke="#63b8ff" points="154.69,-74.82 144.11,-74.17 151.97,-81.27 154.69,-74.82"/>
</a>
</g>
</g>
<!-- Node8 -->
<g id="Node000008" class="node">
<title>Node8</title>
<g id="a_Node000008"><a xlink:title=" ">
<polygon fill="#e0e0e0" stroke="#999999" points="341,-74 198,-74 198,-55 341,-55 341,-74"/>
<text text-anchor="middle" x="269.5" y="-62" font-family="Helvetica,sans-Serif" font-size="10.00">QtCore/QLoggingCategory</text>
</a>
</g>
</g>
<!-- Node3&#45;&gt;Node8 -->
<g id="edge7_Node000003_Node000008" class="edge">
<title>Node3&#45;&gt;Node8</title>
<g id="a_edge7_Node000003_Node000008"><a xlink:title=" ">
<path fill="none" stroke="#63b8ff" d="M252.8,-109.75C255.48,-102.65 259.35,-92.4 262.69,-83.56"/>
<polygon fill="#63b8ff" stroke="#63b8ff" points="266,-84.68 266.26,-74.09 259.45,-82.21 266,-84.68"/>
</a>
</g>
</g>
<!-- Node5 -->
<g id="Node000005" class="node">
<title>Node5</title>
<g id="a_Node000005"><a xlink:title=" ">
<polygon fill="#e0e0e0" stroke="#999999" points="131,-19 0,-19 0,0 131,0 131,-19"/>
<text text-anchor="middle" x="65.5" y="-7" font-family="Helvetica,sans-Serif" font-size="10.00">QtStateMachine/QState</text>
</a>
</g>
</g>
<!-- Node4&#45;&gt;Node5 -->
<g id="edge4_Node000004_Node000005" class="edge">
<title>Node4&#45;&gt;Node5</title>
<g id="a_edge4_Node000004_Node000005"><a xlink:title=" ">
<path fill="none" stroke="#63b8ff" d="M114.18,-54.98C105.69,-47.23 92.94,-35.58 82.62,-26.14"/>
<polygon fill="#63b8ff" stroke="#63b8ff" points="84.73,-23.33 74.99,-19.17 80.01,-28.5 84.73,-23.33"/>
</a>
</g>
</g>
<!-- Node6 -->
<g id="Node000006" class="node">
<title>Node6</title>
<g id="a_Node000006"><a xlink:title=" ">
<polygon fill="#e0e0e0" stroke="#999999" points="368,-19 279,-19 279,0 368,0 368,-19"/>
<text text-anchor="middle" x="323.5" y="-7" font-family="Helvetica,sans-Serif" font-size="10.00">QtCore/QString</text>
</a>
</g>
</g>
<!-- Node4&#45;&gt;Node6 -->
<g id="edge5_Node000004_Node000006" class="edge">
<title>Node4&#45;&gt;Node6</title>
<g id="a_edge5_Node000004_Node000006"><a xlink:title=" ">
<path fill="none" stroke="#63b8ff" d="M155.63,-54.98C189.65,-45.97 243.5,-31.7 281,-21.76"/>
<polygon fill="#63b8ff" stroke="#63b8ff" points="282.34,-25.03 291.11,-19.08 280.55,-18.26 282.34,-25.03"/>
</a>
</g>
</g>
<!-- Node7 -->
<g id="Node000007" class="node">
<title>Node7</title>
<g id="a_Node000007"><a xlink:title=" ">
<polygon fill="#e0e0e0" stroke="#999999" points="214,-19 149,-19 149,0 214,0 214,-19"/>
<text text-anchor="middle" x="181.5" y="-7" font-family="Helvetica,sans-Serif" font-size="10.00">functional</text>
</a>
</g>
</g>
<!-- Node4&#45;&gt;Node7 -->
<g id="edge6_Node000004_Node000007" class="edge">
<title>Node4&#45;&gt;Node7</title>
<g id="a_edge6_Node000004_Node000007"><a xlink:title=" ">
<path fill="none" stroke="#63b8ff" d="M132.82,-54.98C141.31,-47.23 154.06,-35.58 164.38,-26.14"/>
<polygon fill="#63b8ff" stroke="#63b8ff" points="166.99,-28.5 172.01,-19.17 162.27,-23.33 166.99,-28.5"/>
</a>
</g>
</g>
<!-- Node10&#45;&gt;Node6 -->
<g id="edge13_Node000010_Node000006" class="edge">
<title>Node10&#45;&gt;Node6</title>
<g id="a_edge13_Node000010_Node000006"><a xlink:title=" ">
<path fill="none" stroke="#63b8ff" d="M440.84,-109.87C426.88,-101.4 405.55,-87.79 388.5,-74 370.21,-59.21 351.19,-40.12 338.48,-26.74"/>
<polygon fill="#63b8ff" stroke="#63b8ff" points="340.84,-24.15 331.45,-19.25 335.73,-28.93 340.84,-24.15"/>
</a>
</g>
</g>
<!-- Node10&#45;&gt;Node8 -->
<g id="edge11_Node000010_Node000008" class="edge">
<title>Node10&#45;&gt;Node8</title>
<g id="a_edge11_Node000010_Node000008"><a xlink:title=" ">
<path fill="none" stroke="#63b8ff" d="M425.62,-109.98C394.12,-101.01 344.33,-86.82 309.47,-76.89"/>
<polygon fill="#63b8ff" stroke="#63b8ff" points="310.19,-73.46 299.62,-74.08 308.28,-80.19 310.19,-73.46"/>
</a>
</g>
</g>
<!-- Node11 -->
<g id="Node000011" class="node">
<title>Node11</title>
<g id="a_Node000011"><a xlink:title=" ">
<polygon fill="#e0e0e0" stroke="#999999" points="475.5,-74 397.5,-74 397.5,-55 475.5,-55 475.5,-74"/>
<text text-anchor="middle" x="436.5" y="-62" font-family="Helvetica,sans-Serif" font-size="10.00">QtCore/QList</text>
</a>
</g>
</g>
<!-- Node10&#45;&gt;Node11 -->
<g id="edge10_Node000010_Node000011" class="edge">
<title>Node10&#45;&gt;Node11</title>
<g id="a_edge10_Node000010_Node000011"><a xlink:title=" ">
<path fill="none" stroke="#63b8ff" d="M452.36,-109.75C449.82,-102.65 446.14,-92.4 442.97,-83.56"/>
<polygon fill="#63b8ff" stroke="#63b8ff" points="446.25,-82.32 439.58,-74.09 439.66,-84.68 446.25,-82.32"/>
</a>
</g>
</g>
<!-- Node12 -->
<g id="Node000012" class="node">
<title>Node12</title>
<g id="a_Node000012"><a xlink:title=" ">
<polygon fill="#e0e0e0" stroke="#999999" points="585.5,-74 493.5,-74 493.5,-55 585.5,-55 585.5,-74"/>
<text text-anchor="middle" x="539.5" y="-62" font-family="Helvetica,sans-Serif" font-size="10.00">QtCore/QObject</text>
</a>
</g>
</g>
<!-- Node10&#45;&gt;Node12 -->
<g id="edge12_Node000010_Node000012" class="edge">
<title>Node10&#45;&gt;Node12</title>
<g id="a_edge12_Node000010_Node000012"><a xlink:title=" ">
<path fill="none" stroke="#63b8ff" d="M469,-109.98C481.9,-101.84 501.6,-89.41 516.9,-79.76"/>
<polygon fill="#63b8ff" stroke="#63b8ff" points="519.17,-82.47 525.76,-74.17 515.43,-76.55 519.17,-82.47"/>
</a>
</g>
</g>
<!-- Node13 -->
<g id="Node000013" class="node">
<title>Node13</title>
<g id="a_Node000013"><a xlink:title=" ">
<polygon fill="#e0e0e0" stroke="#999999" points="793,-74 604,-74 604,-55 793,-55 793,-74"/>
<text text-anchor="middle" x="698.5" y="-62" font-family="Helvetica,sans-Serif" font-size="10.00">QtQmlIntegration/QtQmlIntegration</text>
</a>
</g>
</g>
<!-- Node10&#45;&gt;Node13 -->
<g id="edge14_Node000010_Node000013" class="edge">
<title>Node10&#45;&gt;Node13</title>
<g id="a_edge14_Node000010_Node000013"><a xlink:title=" ">
<path fill="none" stroke="#63b8ff" d="M494.54,-109.98C536.58,-100.82 603.54,-86.21 649.18,-76.26"/>
<polygon fill="#63b8ff" stroke="#63b8ff" points="650.13,-79.63 659.15,-74.08 648.64,-72.79 650.13,-79.63"/>
</a>
</g>
</g>
<!-- Node14 -->
<g id="Node000014" class="node">
<title>Node14</title>
<g id="a_Node000014"><a xlink:href="MAVLinkLib_8h.html" target="_top" xlink:title=" ">
<polygon fill="white" stroke="#666666" points="893.5,-74 811.5,-74 811.5,-55 893.5,-55 893.5,-74"/>
<text text-anchor="middle" x="852.5" y="-62" font-family="Helvetica,sans-Serif" font-size="10.00">MAVLinkLib.h</text>
</a>
</g>
</g>
<!-- Node10&#45;&gt;Node14 -->
<g id="edge15_Node000010_Node000014" class="edge">
<title>Node10&#45;&gt;Node14</title>
<g id="a_edge15_Node000010_Node000014"><a xlink:title=" ">
<path fill="none" stroke="#63b8ff" d="M500.09,-113.3C564.19,-105.72 686.33,-90.81 801.29,-73.97"/>
<polygon fill="#63b8ff" stroke="#63b8ff" points="801.94,-77.42 811.32,-72.5 800.92,-70.49 801.94,-77.42"/>
</a>
</g>
</g>
<!-- Node15 -->
<g id="Node000015" class="node">
<title>Node15</title>
<g id="a_Node000015"><a xlink:title=" ">
<polygon fill="#e0e0e0" stroke="#999999" points="737,-19 684,-19 684,0 737,0 737,-19"/>
<text text-anchor="middle" x="710.5" y="-7" font-family="Helvetica,sans-Serif" font-size="10.00">stdint.h</text>
</a>
</g>
</g>
<!-- Node14&#45;&gt;Node15 -->
<g id="edge16_Node000014_Node000015" class="edge">
<title>Node14&#45;&gt;Node15</title>
<g id="a_edge16_Node000014_Node000015"><a xlink:title=" ">
<path fill="none" stroke="#63b8ff" d="M829.69,-54.98C806.33,-46.27 769.8,-32.63 743.33,-22.75"/>
<polygon fill="#63b8ff" stroke="#63b8ff" points="744.32,-19.39 733.73,-19.17 741.87,-25.95 744.32,-19.39"/>
</a>
</g>
</g>
<!-- Node16 -->
<g id="Node000016" class="node">
<title>Node16</title>
<g id="a_Node000016"><a xlink:title=" ">
<polygon fill="#e0e0e0" stroke="#999999" points="853.5,-19 755.5,-19 755.5,0 853.5,0 853.5,-19"/>
<text text-anchor="middle" x="804.5" y="-7" font-family="Helvetica,sans-Serif" font-size="10.00">mavlink_types.h</text>
</a>
</g>
</g>
<!-- Node14&#45;&gt;Node16 -->
<g id="edge17_Node000014_Node000016" class="edge">
<title>Node14&#45;&gt;Node16</title>
<g id="a_edge17_Node000014_Node000016"><a xlink:title=" ">
<path fill="none" stroke="#63b8ff" d="M844.57,-54.75C837.65,-47.11 827.43,-35.82 819.05,-26.56"/>
<polygon fill="#63b8ff" stroke="#63b8ff" points="821.59,-24.15 812.28,-19.09 816.4,-28.85 821.59,-24.15"/>
</a>
</g>
</g>
<!-- Node17 -->
<g id="Node000017" class="node">
<title>Node17</title>
<g id="a_Node000017"><a xlink:title=" ">
<polygon fill="#e0e0e0" stroke="#999999" points="927.5,-19 871.5,-19 871.5,0 927.5,0 927.5,-19"/>
<text text-anchor="middle" x="899.5" y="-7" font-family="Helvetica,sans-Serif" font-size="10.00">stddef.h</text>
</a>
</g>
</g>
<!-- Node14&#45;&gt;Node17 -->
<g id="edge18_Node000014_Node000017" class="edge">
<title>Node14&#45;&gt;Node17</title>
<g id="a_edge18_Node000014_Node000017"><a xlink:title=" ">
<path fill="none" stroke="#63b8ff" d="M860.26,-54.75C866.97,-47.18 876.84,-36.05 885.01,-26.84"/>
<polygon fill="#63b8ff" stroke="#63b8ff" points="887.87,-28.89 891.88,-19.09 882.63,-24.25 887.87,-28.89"/>
</a>
</g>
</g>
<!-- Node18 -->
<g id="Node000018" class="node">
<title>Node18</title>
<g id="a_Node000018"><a xlink:title=" ">
<polygon fill="#e0e0e0" stroke="#999999" points="1011,-19 946,-19 946,0 1011,0 1011,-19"/>
<text text-anchor="middle" x="978.5" y="-7" font-family="Helvetica,sans-Serif" font-size="10.00">mavlink.h</text>
</a>
</g>
</g>
<!-- Node14&#45;&gt;Node18 -->
<g id="edge19_Node000014_Node000018" class="edge">
<title>Node14&#45;&gt;Node18</title>
<g id="a_edge19_Node000014_Node000018"><a xlink:title=" ">
<path fill="none" stroke="#63b8ff" d="M872.74,-54.98C893.2,-46.38 925.03,-32.99 948.43,-23.15"/>
<polygon fill="#63b8ff" stroke="#63b8ff" points="950.03,-26.27 957.89,-19.17 947.31,-19.82 950.03,-26.27"/>
</a>
</g>
</g>
</g>
</svg>
