<?xml version="1.0" encoding="UTF-8" standalone="no"?>
<!DOCTYPE svg PUBLIC "-//W3C//DTD SVG 1.1//EN"
 "http://www.w3.org/Graphics/SVG/1.1/DTD/svg11.dtd">
<!-- Generated by graphviz version 2.43.0 (0)
 -->
<!-- Title: src/AutoPilotPlugins/PX4/SensorsComponentController.h Pages: 1 -->
<svg width="701pt" height="148pt"
 viewBox="0.00 0.00 701.00 148.00" xmlns="http://www.w3.org/2000/svg" xmlns:xlink="http://www.w3.org/1999/xlink">
<g id="graph0" class="graph" transform="scale(1 1) rotate(0) translate(4 144)">
<title>src/AutoPilotPlugins/PX4/SensorsComponentController.h</title>
<!-- Node1 -->
<g id="Node000001" class="node">
<title>Node1</title>
<g id="a_Node000001"><a xlink:title=" ">
<polygon fill="#999999" stroke="#666666" points="332.5,-140 140.5,-140 140.5,-110 332.5,-110 332.5,-140"/>
<text text-anchor="start" x="148.5" y="-128" font-family="Helvetica,sans-Serif" font-size="10.00">src/AutoPilotPlugins</text>
<text text-anchor="middle" x="236.5" y="-117" font-family="Helvetica,sans-Serif" font-size="10.00">/PX4/SensorsComponentController.h</text>
</a>
</g>
</g>
<!-- Node2 -->
<g id="Node000002" class="node">
<title>Node2</title>
<g id="a_Node000002"><a xlink:title=" ">
<polygon fill="#e0e0e0" stroke="#999999" points="189.5,-74 73.5,-74 73.5,-55 189.5,-55 189.5,-74"/>
<text text-anchor="middle" x="131.5" y="-62" font-family="Helvetica,sans-Serif" font-size="10.00">QtQuick/QQuickItem</text>
</a>
</g>
</g>
<!-- Node1&#45;&gt;Node2 -->
<g id="edge1_Node000001_Node000002" class="edge">
<title>Node1&#45;&gt;Node2</title>
<g id="a_edge1_Node000001_Node000002"><a xlink:title=" ">
<path fill="none" stroke="#63b8ff" d="M211.35,-109.99C194.61,-100.66 172.73,-88.47 156.11,-79.21"/>
<polygon fill="#63b8ff" stroke="#63b8ff" points="157.45,-75.95 147.01,-74.14 154.04,-82.06 157.45,-75.95"/>
</a>
</g>
</g>
<!-- Node3 -->
<g id="Node000003" class="node">
<title>Node3</title>
<g id="a_Node000003"><a xlink:title=" ">
<polygon fill="#e0e0e0" stroke="#999999" points="143,-19 0,-19 0,0 143,0 143,-19"/>
<text text-anchor="middle" x="71.5" y="-7" font-family="Helvetica,sans-Serif" font-size="10.00">QtCore/QLoggingCategory</text>
</a>
</g>
</g>
<!-- Node1&#45;&gt;Node3 -->
<g id="edge2_Node000001_Node000003" class="edge">
<title>Node1&#45;&gt;Node3</title>
<g id="a_edge2_Node000001_Node000003"><a xlink:title=" ">
<path fill="none" stroke="#63b8ff" d="M232.14,-109.85C226.66,-94.32 215.83,-69.66 198.5,-55 179.3,-38.76 153.8,-28.31 130.69,-21.65"/>
<polygon fill="#63b8ff" stroke="#63b8ff" points="131.52,-18.25 120.95,-19.02 129.7,-25.01 131.52,-18.25"/>
</a>
</g>
</g>
<!-- Node4 -->
<g id="Node000004" class="node">
<title>Node4</title>
<g id="a_Node000004"><a xlink:title=" ">
<polygon fill="#e0e0e0" stroke="#999999" points="350,-19 161,-19 161,0 350,0 350,-19"/>
<text text-anchor="middle" x="255.5" y="-7" font-family="Helvetica,sans-Serif" font-size="10.00">QtQmlIntegration/QtQmlIntegration</text>
</a>
</g>
</g>
<!-- Node1&#45;&gt;Node4 -->
<g id="edge3_Node000001_Node000004" class="edge">
<title>Node1&#45;&gt;Node4</title>
<g id="a_edge3_Node000001_Node000004"><a xlink:title=" ">
<path fill="none" stroke="#63b8ff" d="M238.91,-109.63C242.32,-89.21 248.58,-51.81 252.36,-29.24"/>
<polygon fill="#63b8ff" stroke="#63b8ff" points="255.84,-29.67 254.04,-19.23 248.94,-28.51 255.84,-29.67"/>
</a>
</g>
</g>
<!-- Node5 -->
<g id="Node000005" class="node">
<title>Node5</title>
<g id="a_Node000005"><a xlink:href="FactPanelController_8h.html" target="_top" xlink:title=" ">
<polygon fill="white" stroke="#666666" points="438,-74 319,-74 319,-55 438,-55 438,-74"/>
<text text-anchor="middle" x="378.5" y="-62" font-family="Helvetica,sans-Serif" font-size="10.00">FactPanelController.h</text>
</a>
</g>
</g>
<!-- Node1&#45;&gt;Node5 -->
<g id="edge4_Node000001_Node000005" class="edge">
<title>Node1&#45;&gt;Node5</title>
<g id="a_edge4_Node000001_Node000005"><a xlink:title=" ">
<path fill="none" stroke="#63b8ff" d="M270.51,-109.99C294.1,-100.27 325.24,-87.44 348.02,-78.06"/>
<polygon fill="#63b8ff" stroke="#63b8ff" points="349.62,-81.18 357.53,-74.14 346.95,-74.71 349.62,-81.18"/>
</a>
</g>
</g>
<!-- Node5&#45;&gt;Node3 -->
<g id="edge5_Node000005_Node000003" class="edge">
<title>Node5&#45;&gt;Node3</title>
<g id="a_edge5_Node000005_Node000003"><a xlink:title=" ">
<path fill="none" stroke="#63b8ff" d="M329.18,-54.98C275.21,-45.67 188.72,-30.74 131.02,-20.78"/>
<polygon fill="#63b8ff" stroke="#63b8ff" points="131.41,-17.29 120.96,-19.04 130.22,-24.19 131.41,-17.29"/>
</a>
</g>
</g>
<!-- Node5&#45;&gt;Node4 -->
<g id="edge9_Node000005_Node000004" class="edge">
<title>Node5&#45;&gt;Node4</title>
<g id="a_edge9_Node000005_Node000004"><a xlink:title=" ">
<path fill="none" stroke="#63b8ff" d="M358.74,-54.98C338.77,-46.38 307.7,-32.99 284.85,-23.15"/>
<polygon fill="#63b8ff" stroke="#63b8ff" points="286.19,-19.91 275.62,-19.17 283.42,-26.34 286.19,-19.91"/>
</a>
</g>
</g>
<!-- Node6 -->
<g id="Node000006" class="node">
<title>Node6</title>
<g id="a_Node000006"><a xlink:title=" ">
<polygon fill="#e0e0e0" stroke="#999999" points="460.5,-19 368.5,-19 368.5,0 460.5,0 460.5,-19"/>
<text text-anchor="middle" x="414.5" y="-7" font-family="Helvetica,sans-Serif" font-size="10.00">QtCore/QObject</text>
</a>
</g>
</g>
<!-- Node5&#45;&gt;Node6 -->
<g id="edge6_Node000005_Node000006" class="edge">
<title>Node5&#45;&gt;Node6</title>
<g id="a_edge6_Node000005_Node000006"><a xlink:title=" ">
<path fill="none" stroke="#63b8ff" d="M384.44,-54.75C389.48,-47.34 396.84,-36.5 403.01,-27.41"/>
<polygon fill="#63b8ff" stroke="#63b8ff" points="405.94,-29.33 408.67,-19.09 400.15,-25.39 405.94,-29.33"/>
</a>
</g>
</g>
<!-- Node7 -->
<g id="Node000007" class="node">
<title>Node7</title>
<g id="a_Node000007"><a xlink:title=" ">
<polygon fill="#e0e0e0" stroke="#999999" points="586,-19 479,-19 479,0 586,0 586,-19"/>
<text text-anchor="middle" x="532.5" y="-7" font-family="Helvetica,sans-Serif" font-size="10.00">QtCore/QStringList</text>
</a>
</g>
</g>
<!-- Node5&#45;&gt;Node7 -->
<g id="edge7_Node000005_Node000007" class="edge">
<title>Node5&#45;&gt;Node7</title>
<g id="a_edge7_Node000005_Node000007"><a xlink:title=" ">
<path fill="none" stroke="#63b8ff" d="M403.24,-54.98C428.87,-46.16 469.13,-32.31 497.91,-22.41"/>
<polygon fill="#63b8ff" stroke="#63b8ff" points="499.25,-25.65 507.56,-19.08 496.97,-19.03 499.25,-25.65"/>
</a>
</g>
</g>
<!-- Node8 -->
<g id="Node000008" class="node">
<title>Node8</title>
<g id="a_Node000008"><a xlink:title=" ">
<polygon fill="#e0e0e0" stroke="#999999" points="693,-19 604,-19 604,0 693,0 693,-19"/>
<text text-anchor="middle" x="648.5" y="-7" font-family="Helvetica,sans-Serif" font-size="10.00">QtCore/QTimer</text>
</a>
</g>
</g>
<!-- Node5&#45;&gt;Node8 -->
<g id="edge8_Node000005_Node000008" class="edge">
<title>Node5&#45;&gt;Node8</title>
<g id="a_edge8_Node000005_Node000008"><a xlink:title=" ">
<path fill="none" stroke="#63b8ff" d="M421.88,-54.98C468.88,-45.76 543.93,-31.03 594.66,-21.07"/>
<polygon fill="#63b8ff" stroke="#63b8ff" points="595.64,-24.44 604.78,-19.08 594.29,-17.57 595.64,-24.44"/>
</a>
</g>
</g>
</g>
</svg>
