<?xml version="1.0" encoding="UTF-8" standalone="no"?>
<!DOCTYPE svg PUBLIC "-//W3C//DTD SVG 1.1//EN"
 "http://www.w3.org/Graphics/SVG/1.1/DTD/svg11.dtd">
<!-- Generated by graphviz version 2.43.0 (0)
 -->
<!-- Title: src/FactSystem/SettingsFact.cc Pages: 1 -->
<!--zoomable 302 -->

<svg id="main" version="1.1" xmlns="http://www.w3.org/2000/svg" xmlns:xlink="http://www.w3.org/1999/xlink" xml:space="preserve" onload="init(evt)">
<style type="text/css"><![CDATA[
.node, .edge {opacity: 0.7;}
.node.selected, .edge.selected {opacity: 1;}
.edge:hover path { stroke: red; }
.edge:hover polygon { stroke: red; fill: red; }
]]></style>

<defs>
  <circle id="rim" cx="0" cy="0" r="7"/>
  <circle id="rim2" cx="0" cy="0" r="3.5"/>
  <g id="zoomPlus">
    <use xlink:href="#rim" fill="#404040"><set attributeName="fill" to="#808080" begin="zoomplus.mouseover" end="zoomplus.mouseout"/></use>
    <path d="M-4,0h8M0,-4v8" fill="none" stroke="white" stroke-width="1.5" pointer-events="none"/>
  </g>
  <g id="zoomMin">
    <use xlink:href="#rim" fill="#404040"><set attributeName="fill" to="#808080" begin="zoomminus.mouseover" end="zoomminus.mouseout"/></use>
    <path d="M-4,0h8" fill="none" stroke="white" stroke-width="1.5" pointer-events="none"/>
  </g>
  <g id="arrowUp" transform="translate(30 24)">
    <use xlink:href="#rim"/>
    <path pointer-events="none" fill="none" stroke="white" stroke-width="1.5" d="M0,-3.0v7 M-2.5,-0.5L0,-3.0L2.5,-0.5"/>
  </g>
  <g id="arrowRight" transform="rotate(90) translate(36 -43)">
    <use xlink:href="#rim"/>
    <path pointer-events="none" fill="none" stroke="white" stroke-width="1.5" d="M0,-3.0v7 M-2.5,-0.5L0,-3.0L2.5,-0.5"/>
  </g>
  <g id="arrowDown" transform="rotate(180) translate(-30 -48)">
    <use xlink:href="#rim"/>
    <path pointer-events="none" fill="none" stroke="white" stroke-width="1.5" d="M0,-3.0v7 M-2.5,-0.5L0,-3.0L2.5,-0.5"/>
  </g>
  <g id="arrowLeft" transform="rotate(270) translate(-36 17)">
    <use xlink:href="#rim"/>
    <path pointer-events="none" fill="none" stroke="white" stroke-width="1.5" d="M0,-3.0v7 M-2.5,-0.5L0,-3.0L2.5,-0.5"/>
  </g>
  <g id="resetDef">
    <use xlink:href="#rim2" fill="#404040"><set attributeName="fill" to="#808080" begin="reset.mouseover" end="reset.mouseout"/></use>
  </g>
</defs>
<script type="application/ecmascript">
var viewWidth = 2021;
var viewHeight = 302;
var sectionId = 'dynsection-0';
</script>
<script type="application/ecmascript" xlink:href="svg.min.js"/>
<svg id="graph" class="graph">
<g id="viewport">
<title>src/FactSystem/SettingsFact.cc</title>
<!-- Node1 -->
<g id="Node000001" class="node">
<title>Node1</title>
<g id="a_Node000001"><a xlink:title=" ">
<polygon fill="#999999" stroke="#666666" points="1344,-294 1178,-294 1178,-275 1344,-275 1344,-294"/>
<text text-anchor="middle" x="1261" y="-282" font-family="Helvetica,sans-Serif" font-size="10.00">src/FactSystem/SettingsFact.cc</text>
</a>
</g>
</g>
<!-- Node2 -->
<g id="Node000002" class="node">
<title>Node2</title>
<g id="a_Node000002"><a xlink:href="SettingsFact_8h.html" target="_top" xlink:title=" ">
<polygon fill="white" stroke="#666666" points="1145.5,-184 1060.5,-184 1060.5,-165 1145.5,-165 1145.5,-184"/>
<text text-anchor="middle" x="1103" y="-172" font-family="Helvetica,sans-Serif" font-size="10.00">SettingsFact.h</text>
</a>
</g>
</g>
<!-- Node1&#45;&gt;Node2 -->
<g id="edge1_Node000001_Node000002" class="edge">
<title>Node1&#45;&gt;Node2</title>
<g id="a_edge1_Node000001_Node000002"><a xlink:title=" ">
<path fill="none" stroke="#63b8ff" d="M1236.42,-274.96C1216.2,-267.29 1187.35,-254.81 1165,-239 1146.04,-225.59 1127.92,-205.96 1116.21,-192.08"/>
<polygon fill="#63b8ff" stroke="#63b8ff" points="1118.86,-189.79 1109.81,-184.29 1113.46,-194.24 1118.86,-189.79"/>
</a>
</g>
</g>
<!-- Node14 -->
<g id="Node000014" class="node">
<title>Node14</title>
<g id="a_Node000014"><a xlink:href="QGCApplication_8h.html" target="_top" xlink:title=" ">
<polygon fill="white" stroke="#666666" points="483,-74 381,-74 381,-55 483,-55 483,-74"/>
<text text-anchor="middle" x="432" y="-62" font-family="Helvetica,sans-Serif" font-size="10.00">QGCApplication.h</text>
</a>
</g>
</g>
<!-- Node1&#45;&gt;Node14 -->
<g id="edge21_Node000001_Node000014" class="edge">
<title>Node1&#45;&gt;Node14</title>
<g id="a_edge21_Node000001_Node000014"><a xlink:title=" ">
<path fill="none" stroke="#63b8ff" d="M1224.27,-274.96C1128.32,-252.51 862.38,-189.4 643,-129 581.5,-112.07 510.59,-90.25 468.63,-77.1"/>
<polygon fill="#63b8ff" stroke="#63b8ff" points="469.45,-73.69 458.86,-74.03 467.35,-80.37 469.45,-73.69"/>
</a>
</g>
</g>
<!-- Node21 -->
<g id="Node000021" class="node">
<title>Node21</title>
<g id="a_Node000021"><a xlink:href="QGCCorePlugin_8h.html" target="_top" xlink:title=" ">
<polygon fill="white" stroke="#666666" points="1690,-129 1590,-129 1590,-110 1690,-110 1690,-129"/>
<text text-anchor="middle" x="1640" y="-117" font-family="Helvetica,sans-Serif" font-size="10.00">QGCCorePlugin.h</text>
</a>
</g>
</g>
<!-- Node1&#45;&gt;Node21 -->
<g id="edge29_Node000001_Node000021" class="edge">
<title>Node1&#45;&gt;Node21</title>
<g id="a_edge29_Node000001_Node000021"><a xlink:title=" ">
<path fill="none" stroke="#63b8ff" d="M1324.09,-274.96C1363.39,-268.25 1414.4,-256.96 1457,-239 1522.35,-211.45 1590.08,-160.74 1621.69,-135.54"/>
<polygon fill="#63b8ff" stroke="#63b8ff" points="1624.03,-138.15 1629.62,-129.15 1619.64,-132.7 1624.03,-138.15"/>
</a>
</g>
</g>
<!-- Node25 -->
<g id="Node000025" class="node">
<title>Node25</title>
<g id="a_Node000025"><a xlink:href="QGCLoggingCategory_8h.html" target="_top" xlink:title=" ">
<polygon fill="white" stroke="#666666" points="1448,-239 1320,-239 1320,-220 1448,-220 1448,-239"/>
<text text-anchor="middle" x="1384" y="-227" font-family="Helvetica,sans-Serif" font-size="10.00">QGCLoggingCategory.h</text>
</a>
</g>
</g>
<!-- Node1&#45;&gt;Node25 -->
<g id="edge39_Node000001_Node000025" class="edge">
<title>Node1&#45;&gt;Node25</title>
<g id="a_edge39_Node000001_Node000025"><a xlink:title=" ">
<path fill="none" stroke="#63b8ff" d="M1280.76,-274.98C1300.73,-266.38 1331.8,-252.99 1354.65,-243.15"/>
<polygon fill="#63b8ff" stroke="#63b8ff" points="1356.08,-246.34 1363.88,-239.17 1353.31,-239.91 1356.08,-246.34"/>
</a>
</g>
</g>
<!-- Node31 -->
<g id="Node000031" class="node">
<title>Node31</title>
<g id="a_Node000031"><a xlink:href="SettingsManager_8h.html" target="_top" xlink:title=" ">
<polygon fill="white" stroke="#666666" points="1314.5,-74 1207.5,-74 1207.5,-55 1314.5,-55 1314.5,-74"/>
<text text-anchor="middle" x="1261" y="-62" font-family="Helvetica,sans-Serif" font-size="10.00">SettingsManager.h</text>
</a>
</g>
</g>
<!-- Node1&#45;&gt;Node31 -->
<g id="edge51_Node000001_Node000031" class="edge">
<title>Node1&#45;&gt;Node31</title>
<g id="a_edge51_Node000001_Node000031"><a xlink:title=" ">
<path fill="none" stroke="#63b8ff" d="M1261,-274.95C1261,-242.95 1261,-129.68 1261,-84.4"/>
<polygon fill="#63b8ff" stroke="#63b8ff" points="1264.5,-84.22 1261,-74.22 1257.5,-84.22 1264.5,-84.22"/>
</a>
</g>
</g>
<!-- Node32 -->
<g id="Node000032" class="node">
<title>Node32</title>
<g id="a_Node000032"><a xlink:title=" ">
<polygon fill="#e0e0e0" stroke="#999999" points="1842.5,-239 1741.5,-239 1741.5,-220 1842.5,-220 1842.5,-239"/>
<text text-anchor="middle" x="1792" y="-227" font-family="Helvetica,sans-Serif" font-size="10.00">QtCore/QSettings</text>
</a>
</g>
</g>
<!-- Node1&#45;&gt;Node32 -->
<g id="edge57_Node000001_Node000032" class="edge">
<title>Node1&#45;&gt;Node32</title>
<g id="a_edge57_Node000001_Node000032"><a xlink:title=" ">
<path fill="none" stroke="#63b8ff" d="M1344.01,-276.45C1437.27,-268.33 1593.15,-254.14 1727,-239 1728.3,-238.85 1729.62,-238.7 1730.95,-238.55"/>
<polygon fill="#63b8ff" stroke="#63b8ff" points="1731.77,-241.97 1741.28,-237.31 1730.93,-235.02 1731.77,-241.97"/>
</a>
</g>
</g>
<!-- Node3 -->
<g id="Node000003" class="node">
<title>Node3</title>
<g id="a_Node000003"><a xlink:title=" ">
<polygon fill="#e0e0e0" stroke="#999999" points="1798.5,-19 1655.5,-19 1655.5,0 1798.5,0 1798.5,-19"/>
<text text-anchor="middle" x="1727" y="-7" font-family="Helvetica,sans-Serif" font-size="10.00">QtCore/QLoggingCategory</text>
</a>
</g>
</g>
<!-- Node2&#45;&gt;Node3 -->
<g id="edge2_Node000002_Node000003" class="edge">
<title>Node2&#45;&gt;Node3</title>
<g id="a_edge2_Node000002_Node000003"><a xlink:title=" ">
<path fill="none" stroke="#63b8ff" d="M1145.89,-171.51C1278.83,-165.18 1676.47,-144.98 1699,-129 1730.23,-106.85 1731.28,-56.72 1729.23,-29.3"/>
<polygon fill="#63b8ff" stroke="#63b8ff" points="1732.69,-28.69 1728.24,-19.08 1725.72,-29.37 1732.69,-28.69"/>
</a>
</g>
</g>
<!-- Node4 -->
<g id="Node000004" class="node">
<title>Node4</title>
<g id="a_Node000004"><a xlink:title=" ">
<polygon fill="#e0e0e0" stroke="#999999" points="1195,-19 1103,-19 1103,0 1195,0 1195,-19"/>
<text text-anchor="middle" x="1149" y="-7" font-family="Helvetica,sans-Serif" font-size="10.00">QtCore/QObject</text>
</a>
</g>
</g>
<!-- Node2&#45;&gt;Node4 -->
<g id="edge3_Node000002_Node000004" class="edge">
<title>Node2&#45;&gt;Node4</title>
<g id="a_edge3_Node000002_Node000004"><a xlink:title=" ">
<path fill="none" stroke="#63b8ff" d="M1103.96,-164.97C1106.34,-145.21 1113.35,-94.92 1127,-55 1130.17,-45.72 1134.87,-35.91 1139.11,-27.86"/>
<polygon fill="#63b8ff" stroke="#63b8ff" points="1142.19,-29.53 1143.92,-19.08 1136.05,-26.16 1142.19,-29.53"/>
</a>
</g>
</g>
<!-- Node5 -->
<g id="Node000005" class="node">
<title>Node5</title>
<g id="a_Node000005"><a xlink:title=" ">
<polygon fill="#e0e0e0" stroke="#999999" points="715.5,-19 626.5,-19 626.5,0 715.5,0 715.5,-19"/>
<text text-anchor="middle" x="671" y="-7" font-family="Helvetica,sans-Serif" font-size="10.00">QtCore/QString</text>
</a>
</g>
</g>
<!-- Node2&#45;&gt;Node5 -->
<g id="edge4_Node000002_Node000005" class="edge">
<title>Node2&#45;&gt;Node5</title>
<g id="a_edge4_Node000002_Node000005"><a xlink:title=" ">
<path fill="none" stroke="#63b8ff" d="M1060.13,-171.96C947.39,-166.93 647.12,-146.82 587,-74 569.15,-52.37 602.85,-33.87 632.73,-22.5"/>
<polygon fill="#63b8ff" stroke="#63b8ff" points="634.02,-25.76 642.23,-19.07 631.64,-19.18 634.02,-25.76"/>
</a>
</g>
</g>
<!-- Node6 -->
<g id="Node000006" class="node">
<title>Node6</title>
<g id="a_Node000006"><a xlink:href="Fact_8h.html" target="_top" xlink:title=" ">
<polygon fill="white" stroke="#666666" points="945.5,-129 900.5,-129 900.5,-110 945.5,-110 945.5,-129"/>
<text text-anchor="middle" x="923" y="-117" font-family="Helvetica,sans-Serif" font-size="10.00">Fact.h</text>
</a>
</g>
</g>
<!-- Node2&#45;&gt;Node6 -->
<g id="edge5_Node000002_Node000006" class="edge">
<title>Node2&#45;&gt;Node6</title>
<g id="a_edge5_Node000002_Node000006"><a xlink:title=" ">
<path fill="none" stroke="#63b8ff" d="M1074.08,-164.98C1041.66,-155.44 989.21,-140 955.42,-130.05"/>
<polygon fill="#63b8ff" stroke="#63b8ff" points="956.16,-126.62 945.58,-127.15 954.18,-133.33 956.16,-126.62"/>
</a>
</g>
</g>
<!-- Node6&#45;&gt;Node3 -->
<g id="edge6_Node000006_Node000003" class="edge">
<title>Node6&#45;&gt;Node3</title>
<g id="a_edge6_Node000006_Node000003"><a xlink:title=" ">
<path fill="none" stroke="#63b8ff" d="M945.63,-118.95C1022.54,-120 1280.57,-119.66 1487,-74 1510.62,-68.78 1514.85,-62.01 1538,-55 1583.31,-41.28 1635.8,-29.22 1673.94,-21.13"/>
<polygon fill="#63b8ff" stroke="#63b8ff" points="1674.74,-24.54 1683.81,-19.06 1673.3,-17.69 1674.74,-24.54"/>
</a>
</g>
</g>
<!-- Node6&#45;&gt;Node4 -->
<g id="edge8_Node000006_Node000004" class="edge">
<title>Node6&#45;&gt;Node4</title>
<g id="a_edge8_Node000006_Node000004"><a xlink:title=" ">
<path fill="none" stroke="#63b8ff" d="M922.97,-109.67C923.44,-95.89 926.45,-69.37 942,-55 953.11,-44.73 1035.52,-29.27 1092.95,-19.54"/>
<polygon fill="#63b8ff" stroke="#63b8ff" points="1093.72,-22.96 1103,-17.85 1092.56,-16.05 1093.72,-22.96"/>
</a>
</g>
</g>
<!-- Node6&#45;&gt;Node5 -->
<g id="edge10_Node000006_Node000005" class="edge">
<title>Node6&#45;&gt;Node5</title>
<g id="a_edge10_Node000006_Node000005"><a xlink:title=" ">
<path fill="none" stroke="#63b8ff" d="M900.41,-119.07C833.05,-120.24 635.85,-119.64 596,-74 578.63,-54.11 609.67,-35.06 636.94,-23.11"/>
<polygon fill="#63b8ff" stroke="#63b8ff" points="638.46,-26.27 646.34,-19.19 635.76,-19.81 638.46,-26.27"/>
</a>
</g>
</g>
<!-- Node7 -->
<g id="Node000007" class="node">
<title>Node7</title>
<g id="a_Node000007"><a xlink:title=" ">
<polygon fill="#e0e0e0" stroke="#999999" points="1074.5,-74 951.5,-74 951.5,-55 1074.5,-55 1074.5,-74"/>
<text text-anchor="middle" x="1013" y="-62" font-family="Helvetica,sans-Serif" font-size="10.00">QtCore/QMutexLocker</text>
</a>
</g>
</g>
<!-- Node6&#45;&gt;Node7 -->
<g id="edge7_Node000006_Node000007" class="edge">
<title>Node6&#45;&gt;Node7</title>
<g id="a_edge7_Node000006_Node000007"><a xlink:title=" ">
<path fill="none" stroke="#63b8ff" d="M937.46,-109.98C951.42,-101.77 972.79,-89.18 989.25,-79.49"/>
<polygon fill="#63b8ff" stroke="#63b8ff" points="991.44,-82.26 998.28,-74.17 987.88,-76.23 991.44,-82.26"/>
</a>
</g>
</g>
<!-- Node8 -->
<g id="Node000008" class="node">
<title>Node8</title>
<g id="a_Node000008"><a xlink:title=" ">
<polygon fill="#e0e0e0" stroke="#999999" points="745,-74 605,-74 605,-55 745,-55 745,-74"/>
<text text-anchor="middle" x="675" y="-62" font-family="Helvetica,sans-Serif" font-size="10.00">QtCore/QRecursiveMutex</text>
</a>
</g>
</g>
<!-- Node6&#45;&gt;Node8 -->
<g id="edge9_Node000006_Node000008" class="edge">
<title>Node6&#45;&gt;Node8</title>
<g id="a_edge9_Node000006_Node000008"><a xlink:title=" ">
<path fill="none" stroke="#63b8ff" d="M900.11,-113.61C860.46,-105.13 778.12,-87.54 724.78,-76.14"/>
<polygon fill="#63b8ff" stroke="#63b8ff" points="725.36,-72.68 714.85,-74.02 723.89,-79.53 725.36,-72.68"/>
</a>
</g>
</g>
<!-- Node9 -->
<g id="Node000009" class="node">
<title>Node9</title>
<g id="a_Node000009"><a xlink:title=" ">
<polygon fill="#e0e0e0" stroke="#999999" points="828.5,-19 733.5,-19 733.5,0 828.5,0 828.5,-19"/>
<text text-anchor="middle" x="781" y="-7" font-family="Helvetica,sans-Serif" font-size="10.00">QtCore/QVariant</text>
</a>
</g>
</g>
<!-- Node6&#45;&gt;Node9 -->
<g id="edge11_Node000006_Node000009" class="edge">
<title>Node6&#45;&gt;Node9</title>
<g id="a_edge11_Node000006_Node000009"><a xlink:title=" ">
<path fill="none" stroke="#63b8ff" d="M900.41,-117.57C870.8,-115.06 819.4,-106.04 792,-74 781.55,-61.78 779.37,-43.26 779.46,-29.37"/>
<polygon fill="#63b8ff" stroke="#63b8ff" points="782.97,-29.18 779.95,-19.03 775.98,-28.86 782.97,-29.18"/>
</a>
</g>
</g>
<!-- Node10 -->
<g id="Node000010" class="node">
<title>Node10</title>
<g id="a_Node000010"><a xlink:title=" ">
<polygon fill="#e0e0e0" stroke="#999999" points="1607.5,-19 1418.5,-19 1418.5,0 1607.5,0 1607.5,-19"/>
<text text-anchor="middle" x="1513" y="-7" font-family="Helvetica,sans-Serif" font-size="10.00">QtQmlIntegration/QtQmlIntegration</text>
</a>
</g>
</g>
<!-- Node6&#45;&gt;Node10 -->
<g id="edge12_Node000006_Node000010" class="edge">
<title>Node6&#45;&gt;Node10</title>
<g id="a_edge12_Node000006_Node000010"><a xlink:title=" ">
<path fill="none" stroke="#63b8ff" d="M945.58,-118.94C1035.74,-120.33 1369.42,-122.1 1461,-74 1480.25,-63.89 1495.02,-43.28 1503.82,-28.27"/>
<polygon fill="#63b8ff" stroke="#63b8ff" points="1506.96,-29.83 1508.73,-19.38 1500.83,-26.45 1506.96,-29.83"/>
</a>
</g>
</g>
<!-- Node11 -->
<g id="Node000011" class="node">
<title>Node11</title>
<g id="a_Node000011"><a xlink:href="FactMetaData_8h.html" target="_top" xlink:title=" ">
<polygon fill="white" stroke="#666666" points="894.5,-74 801.5,-74 801.5,-55 894.5,-55 894.5,-74"/>
<text text-anchor="middle" x="848" y="-62" font-family="Helvetica,sans-Serif" font-size="10.00">FactMetaData.h</text>
</a>
</g>
</g>
<!-- Node6&#45;&gt;Node11 -->
<g id="edge13_Node000006_Node000011" class="edge">
<title>Node6&#45;&gt;Node11</title>
<g id="a_edge13_Node000006_Node000011"><a xlink:title=" ">
<path fill="none" stroke="#63b8ff" d="M910.95,-109.98C899.54,-101.92 882.17,-89.65 868.57,-80.03"/>
<polygon fill="#63b8ff" stroke="#63b8ff" points="870.46,-77.08 860.27,-74.17 866.42,-82.8 870.46,-77.08"/>
</a>
</g>
</g>
<!-- Node11&#45;&gt;Node3 -->
<g id="edge14_Node000011_Node000003" class="edge">
<title>Node11&#45;&gt;Node3</title>
<g id="a_edge14_Node000011_Node000003"><a xlink:title=" ">
<path fill="none" stroke="#63b8ff" d="M894.83,-58.92C909.88,-57.54 926.64,-56.1 942,-55 1241.21,-33.49 1316.65,-38.45 1616,-19 1625.45,-18.39 1635.34,-17.7 1645.17,-16.98"/>
<polygon fill="#63b8ff" stroke="#63b8ff" points="1645.65,-20.46 1655.36,-16.23 1645.13,-13.47 1645.65,-20.46"/>
</a>
</g>
</g>
<!-- Node11&#45;&gt;Node4 -->
<g id="edge17_Node000011_Node000004" class="edge">
<title>Node11&#45;&gt;Node4</title>
<g id="a_edge17_Node000011_Node000004"><a xlink:title=" ">
<path fill="none" stroke="#63b8ff" d="M894.7,-55.28C948.13,-45.87 1035.59,-30.47 1092.73,-20.41"/>
<polygon fill="#63b8ff" stroke="#63b8ff" points="1093.44,-23.84 1102.68,-18.66 1092.23,-16.94 1093.44,-23.84"/>
</a>
</g>
</g>
<!-- Node11&#45;&gt;Node5 -->
<g id="edge18_Node000011_Node000005" class="edge">
<title>Node11&#45;&gt;Node5</title>
<g id="a_edge18_Node000011_Node000005"><a xlink:title=" ">
<path fill="none" stroke="#63b8ff" d="M819.56,-54.98C789.72,-46.05 742.62,-31.94 709.47,-22.02"/>
<polygon fill="#63b8ff" stroke="#63b8ff" points="710.24,-18.6 699.66,-19.08 708.24,-25.3 710.24,-18.6"/>
</a>
</g>
</g>
<!-- Node11&#45;&gt;Node9 -->
<g id="edge19_Node000011_Node000009" class="edge">
<title>Node11&#45;&gt;Node9</title>
<g id="a_edge19_Node000011_Node000009"><a xlink:title=" ">
<path fill="none" stroke="#63b8ff" d="M837.24,-54.98C827.23,-47.07 812.11,-35.11 800.07,-25.58"/>
<polygon fill="#63b8ff" stroke="#63b8ff" points="801.97,-22.63 791.96,-19.17 797.63,-28.12 801.97,-22.63"/>
</a>
</g>
</g>
<!-- Node11&#45;&gt;Node10 -->
<g id="edge20_Node000011_Node000010" class="edge">
<title>Node11&#45;&gt;Node10</title>
<g id="a_edge20_Node000011_Node000010"><a xlink:title=" ">
<path fill="none" stroke="#63b8ff" d="M894.85,-59.14C909.9,-57.77 926.65,-56.29 942,-55 1146.2,-37.9 1199.82,-35.55 1408.3,-19.05"/>
<polygon fill="#63b8ff" stroke="#63b8ff" points="1408.65,-22.53 1418.34,-18.26 1408.1,-15.56 1408.65,-22.53"/>
</a>
</g>
</g>
<!-- Node12 -->
<g id="Node000012" class="node">
<title>Node12</title>
<g id="a_Node000012"><a xlink:title=" ">
<polygon fill="#e0e0e0" stroke="#999999" points="953.5,-19 846.5,-19 846.5,0 953.5,0 953.5,-19"/>
<text text-anchor="middle" x="900" y="-7" font-family="Helvetica,sans-Serif" font-size="10.00">QtCore/QJsonArray</text>
</a>
</g>
</g>
<!-- Node11&#45;&gt;Node12 -->
<g id="edge15_Node000011_Node000012" class="edge">
<title>Node11&#45;&gt;Node12</title>
<g id="a_edge15_Node000011_Node000012"><a xlink:title=" ">
<path fill="none" stroke="#63b8ff" d="M856.59,-54.75C864.16,-47.03 875.38,-35.6 884.51,-26.28"/>
<polygon fill="#63b8ff" stroke="#63b8ff" points="887.07,-28.68 891.57,-19.09 882.07,-23.78 887.07,-28.68"/>
</a>
</g>
</g>
<!-- Node13 -->
<g id="Node000013" class="node">
<title>Node13</title>
<g id="a_Node000013"><a xlink:title=" ">
<polygon fill="#e0e0e0" stroke="#999999" points="1084.5,-19 971.5,-19 971.5,0 1084.5,0 1084.5,-19"/>
<text text-anchor="middle" x="1028" y="-7" font-family="Helvetica,sans-Serif" font-size="10.00">QtCore/QJsonObject</text>
</a>
</g>
</g>
<!-- Node11&#45;&gt;Node13 -->
<g id="edge16_Node000011_Node000013" class="edge">
<title>Node11&#45;&gt;Node13</title>
<g id="a_edge16_Node000011_Node000013"><a xlink:title=" ">
<path fill="none" stroke="#63b8ff" d="M876.92,-54.98C907.27,-46.05 955.17,-31.94 988.88,-22.02"/>
<polygon fill="#63b8ff" stroke="#63b8ff" points="990.25,-25.26 998.85,-19.08 988.27,-18.55 990.25,-25.26"/>
</a>
</g>
</g>
<!-- Node14&#45;&gt;Node3 -->
<g id="edge22_Node000014_Node000003" class="edge">
<title>Node14&#45;&gt;Node3</title>
<g id="a_edge22_Node000014_Node000003"><a xlink:title=" ">
<path fill="none" stroke="#63b8ff" d="M483.33,-60.62C515.65,-58.86 558.26,-56.64 596,-55 1049.19,-35.26 1163.09,-44.32 1616,-19 1625.45,-18.47 1635.35,-17.83 1645.18,-17.15"/>
<polygon fill="#63b8ff" stroke="#63b8ff" points="1645.65,-20.62 1655.38,-16.42 1645.15,-13.64 1645.65,-20.62"/>
</a>
</g>
</g>
<!-- Node15 -->
<g id="Node000015" class="node">
<title>Node15</title>
<g id="a_Node000015"><a xlink:title=" ">
<polygon fill="#e0e0e0" stroke="#999999" points="128,-19 0,-19 0,0 128,0 128,-19"/>
<text text-anchor="middle" x="64" y="-7" font-family="Helvetica,sans-Serif" font-size="10.00">QtCore/QElapsedTimer</text>
</a>
</g>
</g>
<!-- Node14&#45;&gt;Node15 -->
<g id="edge23_Node000014_Node000015" class="edge">
<title>Node14&#45;&gt;Node15</title>
<g id="a_edge23_Node000014_Node000015"><a xlink:title=" ">
<path fill="none" stroke="#63b8ff" d="M380.83,-56.13C316.45,-46.86 205.63,-30.9 133.59,-20.52"/>
<polygon fill="#63b8ff" stroke="#63b8ff" points="133.65,-17 123.25,-19.03 132.65,-23.92 133.65,-17"/>
</a>
</g>
</g>
<!-- Node16 -->
<g id="Node000016" class="node">
<title>Node16</title>
<g id="a_Node000016"><a xlink:title=" ">
<polygon fill="#e0e0e0" stroke="#999999" points="1302,-19 1220,-19 1220,0 1302,0 1302,-19"/>
<text text-anchor="middle" x="1261" y="-7" font-family="Helvetica,sans-Serif" font-size="10.00">QtCore/QMap</text>
</a>
</g>
</g>
<!-- Node14&#45;&gt;Node16 -->
<g id="edge24_Node000014_Node000016" class="edge">
<title>Node14&#45;&gt;Node16</title>
<g id="a_edge24_Node000014_Node000016"><a xlink:title=" ">
<path fill="none" stroke="#63b8ff" d="M483.16,-60.82C643.96,-52.36 1132.76,-26.35 1204,-19 1205.94,-18.8 1207.92,-18.58 1209.91,-18.35"/>
<polygon fill="#63b8ff" stroke="#63b8ff" points="1210.48,-21.8 1219.96,-17.07 1209.6,-14.86 1210.48,-21.8"/>
</a>
</g>
</g>
<!-- Node17 -->
<g id="Node000017" class="node">
<title>Node17</title>
<g id="a_Node000017"><a xlink:title=" ">
<polygon fill="#e0e0e0" stroke="#999999" points="223.5,-19 146.5,-19 146.5,0 223.5,0 223.5,-19"/>
<text text-anchor="middle" x="185" y="-7" font-family="Helvetica,sans-Serif" font-size="10.00">QtCore/QSet</text>
</a>
</g>
</g>
<!-- Node14&#45;&gt;Node17 -->
<g id="edge25_Node000014_Node000017" class="edge">
<title>Node14&#45;&gt;Node17</title>
<g id="a_edge25_Node000014_Node000017"><a xlink:title=" ">
<path fill="none" stroke="#63b8ff" d="M392.32,-54.98C349.12,-45.72 280.02,-30.89 233.6,-20.93"/>
<polygon fill="#63b8ff" stroke="#63b8ff" points="234.28,-17.5 223.77,-18.82 232.82,-24.34 234.28,-17.5"/>
</a>
</g>
</g>
<!-- Node18 -->
<g id="Node000018" class="node">
<title>Node18</title>
<g id="a_Node000018"><a xlink:title=" ">
<polygon fill="#e0e0e0" stroke="#999999" points="330.5,-19 241.5,-19 241.5,0 330.5,0 330.5,-19"/>
<text text-anchor="middle" x="286" y="-7" font-family="Helvetica,sans-Serif" font-size="10.00">QtCore/QTimer</text>
</a>
</g>
</g>
<!-- Node14&#45;&gt;Node18 -->
<g id="edge26_Node000014_Node000018" class="edge">
<title>Node14&#45;&gt;Node18</title>
<g id="a_edge26_Node000014_Node000018"><a xlink:title=" ">
<path fill="none" stroke="#63b8ff" d="M408.54,-54.98C384.42,-46.23 346.63,-32.51 319.4,-22.62"/>
<polygon fill="#63b8ff" stroke="#63b8ff" points="320.48,-19.29 309.88,-19.17 318.09,-25.87 320.48,-19.29"/>
</a>
</g>
</g>
<!-- Node19 -->
<g id="Node000019" class="node">
<title>Node19</title>
<g id="a_Node000019"><a xlink:title=" ">
<polygon fill="#e0e0e0" stroke="#999999" points="457.5,-19 348.5,-19 348.5,0 457.5,0 457.5,-19"/>
<text text-anchor="middle" x="403" y="-7" font-family="Helvetica,sans-Serif" font-size="10.00">QtCore/QTranslator</text>
</a>
</g>
</g>
<!-- Node14&#45;&gt;Node19 -->
<g id="edge27_Node000014_Node000019" class="edge">
<title>Node14&#45;&gt;Node19</title>
<g id="a_edge27_Node000014_Node000019"><a xlink:title=" ">
<path fill="none" stroke="#63b8ff" d="M427.21,-54.75C423.24,-47.49 417.47,-36.95 412.57,-27.98"/>
<polygon fill="#63b8ff" stroke="#63b8ff" points="415.57,-26.18 407.7,-19.09 409.43,-29.54 415.57,-26.18"/>
</a>
</g>
</g>
<!-- Node20 -->
<g id="Node000020" class="node">
<title>Node20</title>
<g id="a_Node000020"><a xlink:title=" ">
<polygon fill="#e0e0e0" stroke="#999999" points="608.5,-19 475.5,-19 475.5,0 608.5,0 608.5,-19"/>
<text text-anchor="middle" x="542" y="-7" font-family="Helvetica,sans-Serif" font-size="10.00">QtWidgets/QApplication</text>
</a>
</g>
</g>
<!-- Node14&#45;&gt;Node20 -->
<g id="edge28_Node000014_Node000020" class="edge">
<title>Node14&#45;&gt;Node20</title>
<g id="a_edge28_Node000014_Node000020"><a xlink:title=" ">
<path fill="none" stroke="#63b8ff" d="M449.67,-54.98C467.29,-46.5 494.58,-33.35 514.93,-23.54"/>
<polygon fill="#63b8ff" stroke="#63b8ff" points="516.52,-26.66 524.01,-19.17 513.48,-20.36 516.52,-26.66"/>
</a>
</g>
</g>
<!-- Node21&#45;&gt;Node3 -->
<g id="edge30_Node000021_Node000003" class="edge">
<title>Node21&#45;&gt;Node3</title>
<g id="a_edge30_Node000021_Node000003"><a xlink:title=" ">
<path fill="none" stroke="#63b8ff" d="M1657.42,-109.95C1671.45,-102.27 1690.79,-89.78 1703,-74 1713.26,-60.75 1719.52,-42.63 1723.07,-29.13"/>
<polygon fill="#63b8ff" stroke="#63b8ff" points="1726.55,-29.63 1725.43,-19.1 1719.73,-28.03 1726.55,-29.63"/>
</a>
</g>
</g>
<!-- Node21&#45;&gt;Node4 -->
<g id="edge31_Node000021_Node000004" class="edge">
<title>Node21&#45;&gt;Node4</title>
<g id="a_edge31_Node000021_Node000004"><a xlink:title=" ">
<path fill="none" stroke="#63b8ff" d="M1589.82,-118.36C1488.64,-117.3 1264.16,-110.74 1198,-74 1179.6,-63.78 1165.85,-43.5 1157.67,-28.6"/>
<polygon fill="#63b8ff" stroke="#63b8ff" points="1160.59,-26.62 1152.91,-19.33 1154.36,-29.82 1160.59,-26.62"/>
</a>
</g>
</g>
<!-- Node21&#45;&gt;Node10 -->
<g id="edge33_Node000021_Node000010" class="edge">
<title>Node21&#45;&gt;Node10</title>
<g id="a_edge33_Node000021_Node000010"><a xlink:title=" ">
<path fill="none" stroke="#63b8ff" d="M1649.62,-109.64C1662.47,-96.73 1682.14,-72.41 1669,-55 1657.67,-39.99 1615.7,-28.53 1578.14,-21"/>
<polygon fill="#63b8ff" stroke="#63b8ff" points="1578.69,-17.54 1568.21,-19.07 1577.36,-24.41 1578.69,-17.54"/>
</a>
</g>
</g>
<!-- Node22 -->
<g id="Node000022" class="node">
<title>Node22</title>
<g id="a_Node000022"><a xlink:title=" ">
<polygon fill="#e0e0e0" stroke="#999999" points="1660.5,-74 1547.5,-74 1547.5,-55 1660.5,-55 1660.5,-74"/>
<text text-anchor="middle" x="1604" y="-62" font-family="Helvetica,sans-Serif" font-size="10.00">QtCore/QVariantList</text>
</a>
</g>
</g>
<!-- Node21&#45;&gt;Node22 -->
<g id="edge32_Node000021_Node000022" class="edge">
<title>Node21&#45;&gt;Node22</title>
<g id="a_edge32_Node000021_Node000022"><a xlink:title=" ">
<path fill="none" stroke="#63b8ff" d="M1634.06,-109.75C1629.02,-102.34 1621.66,-91.5 1615.49,-82.41"/>
<polygon fill="#63b8ff" stroke="#63b8ff" points="1618.35,-80.39 1609.83,-74.09 1612.56,-84.33 1618.35,-80.39"/>
</a>
</g>
</g>
<!-- Node23 -->
<g id="Node000023" class="node">
<title>Node23</title>
<g id="a_Node000023"><a xlink:href="QGCPalette_8h.html" target="_top" xlink:title=" ">
<polygon fill="white" stroke="#666666" points="1452.5,-74 1371.5,-74 1371.5,-55 1452.5,-55 1452.5,-74"/>
<text text-anchor="middle" x="1412" y="-62" font-family="Helvetica,sans-Serif" font-size="10.00">QGCPalette.h</text>
</a>
</g>
</g>
<!-- Node21&#45;&gt;Node23 -->
<g id="edge34_Node000021_Node000023" class="edge">
<title>Node21&#45;&gt;Node23</title>
<g id="a_edge34_Node000021_Node000023"><a xlink:title=" ">
<path fill="none" stroke="#63b8ff" d="M1603.37,-109.98C1564.09,-100.86 1501.63,-86.33 1458.81,-76.38"/>
<polygon fill="#63b8ff" stroke="#63b8ff" points="1459.45,-72.94 1448.92,-74.08 1457.87,-79.76 1459.45,-72.94"/>
</a>
</g>
</g>
<!-- Node23&#45;&gt;Node4 -->
<g id="edge35_Node000023_Node000004" class="edge">
<title>Node23&#45;&gt;Node4</title>
<g id="a_edge35_Node000023_Node000004"><a xlink:title=" ">
<path fill="none" stroke="#63b8ff" d="M1371.48,-55.33C1325.78,-46.13 1251.33,-31.12 1201.29,-21.04"/>
<polygon fill="#63b8ff" stroke="#63b8ff" points="1201.8,-17.57 1191.31,-19.03 1200.42,-24.43 1201.8,-17.57"/>
</a>
</g>
</g>
<!-- Node23&#45;&gt;Node10 -->
<g id="edge38_Node000023_Node000010" class="edge">
<title>Node23&#45;&gt;Node10</title>
<g id="a_edge38_Node000023_Node000010"><a xlink:title=" ">
<path fill="none" stroke="#63b8ff" d="M1428.23,-54.98C1444.18,-46.61 1468.78,-33.7 1487.38,-23.95"/>
<polygon fill="#63b8ff" stroke="#63b8ff" points="1489.25,-26.92 1496.48,-19.17 1486,-20.72 1489.25,-26.92"/>
</a>
</g>
</g>
<!-- Node23&#45;&gt;Node16 -->
<g id="edge37_Node000023_Node000016" class="edge">
<title>Node23&#45;&gt;Node16</title>
<g id="a_edge37_Node000023_Node000016"><a xlink:title=" ">
<path fill="none" stroke="#63b8ff" d="M1387.74,-54.98C1362.68,-46.19 1323.37,-32.39 1295.17,-22.49"/>
<polygon fill="#63b8ff" stroke="#63b8ff" points="1296.3,-19.18 1285.7,-19.17 1293.98,-25.78 1296.3,-19.18"/>
</a>
</g>
</g>
<!-- Node24 -->
<g id="Node000024" class="node">
<title>Node24</title>
<g id="a_Node000024"><a xlink:title=" ">
<polygon fill="#e0e0e0" stroke="#999999" points="1400,-19 1320,-19 1320,0 1400,0 1400,-19"/>
<text text-anchor="middle" x="1360" y="-7" font-family="Helvetica,sans-Serif" font-size="10.00">QtGui/QColor</text>
</a>
</g>
</g>
<!-- Node23&#45;&gt;Node24 -->
<g id="edge36_Node000023_Node000024" class="edge">
<title>Node23&#45;&gt;Node24</title>
<g id="a_edge36_Node000023_Node000024"><a xlink:title=" ">
<path fill="none" stroke="#63b8ff" d="M1403.41,-54.75C1395.84,-47.03 1384.62,-35.6 1375.49,-26.28"/>
<polygon fill="#63b8ff" stroke="#63b8ff" points="1377.93,-23.78 1368.43,-19.09 1372.93,-28.68 1377.93,-23.78"/>
</a>
</g>
</g>
<!-- Node25&#45;&gt;Node3 -->
<g id="edge47_Node000025_Node000003" class="edge">
<title>Node25&#45;&gt;Node3</title>
<g id="a_edge47_Node000025_Node000003"><a xlink:title=" ">
<path fill="none" stroke="#63b8ff" d="M1448.28,-226.15C1523.1,-220.06 1646.09,-199.18 1722,-129 1747.1,-105.79 1748.87,-88.68 1743,-55 1741.43,-46 1738.2,-36.42 1735.06,-28.46"/>
<polygon fill="#63b8ff" stroke="#63b8ff" points="1738.23,-26.97 1731.11,-19.12 1731.78,-29.69 1738.23,-26.97"/>
</a>
</g>
</g>
<!-- Node25&#45;&gt;Node4 -->
<g id="edge48_Node000025_Node000004" class="edge">
<title>Node25&#45;&gt;Node4</title>
<g id="a_edge48_Node000025_Node000004"><a xlink:title=" ">
<path fill="none" stroke="#63b8ff" d="M1366.02,-219.93C1325.83,-199.92 1227.96,-146.28 1173,-74 1162.86,-60.66 1156.58,-42.55 1153,-29.08"/>
<polygon fill="#63b8ff" stroke="#63b8ff" points="1156.33,-27.98 1150.6,-19.07 1149.53,-29.61 1156.33,-27.98"/>
</a>
</g>
</g>
<!-- Node25&#45;&gt;Node16 -->
<g id="edge50_Node000025_Node000016" class="edge">
<title>Node25&#45;&gt;Node16</title>
<g id="a_edge50_Node000025_Node000016"><a xlink:title=" ">
<path fill="none" stroke="#63b8ff" d="M1379.18,-219.83C1374.39,-211 1367.07,-196.82 1362,-184 1339.99,-128.3 1357.85,-103.72 1323,-55 1313.91,-42.29 1300.04,-31.85 1287.72,-24.28"/>
<polygon fill="#63b8ff" stroke="#63b8ff" points="1289.11,-21.04 1278.7,-19.06 1285.6,-27.1 1289.11,-21.04"/>
</a>
</g>
</g>
<!-- Node26 -->
<g id="Node000026" class="node">
<title>Node26</title>
<g id="a_Node000026"><a xlink:href="QmlObjectListModel_8h.html" target="_top" xlink:title=" ">
<polygon fill="white" stroke="#666666" points="1903.5,-184 1778.5,-184 1778.5,-165 1903.5,-165 1903.5,-184"/>
<text text-anchor="middle" x="1841" y="-172" font-family="Helvetica,sans-Serif" font-size="10.00">QmlObjectListModel.h</text>
</a>
</g>
</g>
<!-- Node25&#45;&gt;Node26 -->
<g id="edge40_Node000025_Node000026" class="edge">
<title>Node25&#45;&gt;Node26</title>
<g id="a_edge40_Node000025_Node000026"><a xlink:title=" ">
<path fill="none" stroke="#63b8ff" d="M1448.03,-221.07C1532.23,-211.31 1679.83,-194.19 1768.2,-183.94"/>
<polygon fill="#63b8ff" stroke="#63b8ff" points="1768.61,-187.42 1778.14,-182.79 1767.8,-180.47 1768.61,-187.42"/>
</a>
</g>
</g>
<!-- Node30 -->
<g id="Node000030" class="node">
<title>Node30</title>
<g id="a_Node000030"><a xlink:title=" ">
<polygon fill="#e0e0e0" stroke="#999999" points="1478.5,-184 1371.5,-184 1371.5,-165 1478.5,-165 1478.5,-184"/>
<text text-anchor="middle" x="1425" y="-172" font-family="Helvetica,sans-Serif" font-size="10.00">QtCore/QStringList</text>
</a>
</g>
</g>
<!-- Node25&#45;&gt;Node30 -->
<g id="edge49_Node000025_Node000030" class="edge">
<title>Node25&#45;&gt;Node30</title>
<g id="a_edge49_Node000025_Node000030"><a xlink:title=" ">
<path fill="none" stroke="#63b8ff" d="M1390.77,-219.75C1396.56,-212.26 1405.06,-201.28 1412.14,-192.13"/>
<polygon fill="#63b8ff" stroke="#63b8ff" points="1415.01,-194.14 1418.36,-184.09 1409.47,-189.86 1415.01,-194.14"/>
</a>
</g>
</g>
<!-- Node26&#45;&gt;Node3 -->
<g id="edge46_Node000026_Node000003" class="edge">
<title>Node26&#45;&gt;Node3</title>
<g id="a_edge46_Node000026_Node000003"><a xlink:title=" ">
<path fill="none" stroke="#63b8ff" d="M1841.68,-164.71C1842.85,-143.5 1842.98,-88.77 1817,-55 1805.36,-39.87 1787.21,-29.54 1770.25,-22.68"/>
<polygon fill="#63b8ff" stroke="#63b8ff" points="1771.05,-19.24 1760.46,-19.02 1768.61,-25.8 1771.05,-19.24"/>
</a>
</g>
</g>
<!-- Node27 -->
<g id="Node000027" class="node">
<title>Node27</title>
<g id="a_Node000027"><a xlink:href="ObjectListModelBase_8h.html" target="_top" xlink:title=" ">
<polygon fill="white" stroke="#666666" points="1998,-129 1870,-129 1870,-110 1998,-110 1998,-129"/>
<text text-anchor="middle" x="1934" y="-117" font-family="Helvetica,sans-Serif" font-size="10.00">ObjectListModelBase.h</text>
</a>
</g>
</g>
<!-- Node26&#45;&gt;Node27 -->
<g id="edge41_Node000026_Node000027" class="edge">
<title>Node26&#45;&gt;Node27</title>
<g id="a_edge41_Node000026_Node000027"><a xlink:title=" ">
<path fill="none" stroke="#63b8ff" d="M1855.94,-164.98C1870.5,-156.69 1892.87,-143.94 1909.93,-134.22"/>
<polygon fill="#63b8ff" stroke="#63b8ff" points="1911.83,-137.16 1918.79,-129.17 1908.36,-131.08 1911.83,-137.16"/>
</a>
</g>
</g>
<!-- Node28 -->
<g id="Node000028" class="node">
<title>Node28</title>
<g id="a_Node000028"><a xlink:href="ObjectItemModelBase_8h.html" target="_top" xlink:title=" ">
<polygon fill="white" stroke="#666666" points="2003,-74 1869,-74 1869,-55 2003,-55 2003,-74"/>
<text text-anchor="middle" x="1936" y="-62" font-family="Helvetica,sans-Serif" font-size="10.00">ObjectItemModelBase.h</text>
</a>
</g>
</g>
<!-- Node27&#45;&gt;Node28 -->
<g id="edge42_Node000027_Node000028" class="edge">
<title>Node27&#45;&gt;Node28</title>
<g id="a_edge42_Node000027_Node000028"><a xlink:title=" ">
<path fill="none" stroke="#63b8ff" d="M1934.33,-109.75C1934.59,-102.8 1934.97,-92.85 1935.3,-84.13"/>
<polygon fill="#63b8ff" stroke="#63b8ff" points="1938.8,-84.21 1935.68,-74.09 1931.8,-83.95 1938.8,-84.21"/>
</a>
</g>
</g>
<!-- Node28&#45;&gt;Node3 -->
<g id="edge44_Node000028_Node000003" class="edge">
<title>Node28&#45;&gt;Node3</title>
<g id="a_edge44_Node000028_Node000003"><a xlink:title=" ">
<path fill="none" stroke="#63b8ff" d="M1902.42,-54.98C1866.65,-45.91 1809.88,-31.52 1770.66,-21.57"/>
<polygon fill="#63b8ff" stroke="#63b8ff" points="1771.4,-18.15 1760.84,-19.08 1769.68,-24.93 1771.4,-18.15"/>
</a>
</g>
</g>
<!-- Node28&#45;&gt;Node10 -->
<g id="edge45_Node000028_Node000010" class="edge">
<title>Node28&#45;&gt;Node10</title>
<g id="a_edge45_Node000028_Node000010"><a xlink:title=" ">
<path fill="none" stroke="#63b8ff" d="M1868.97,-55.1C1793.46,-45.64 1670.89,-30.28 1591.11,-20.29"/>
<polygon fill="#63b8ff" stroke="#63b8ff" points="1591.47,-16.8 1581.11,-19.03 1590.6,-23.75 1591.47,-16.8"/>
</a>
</g>
</g>
<!-- Node29 -->
<g id="Node000029" class="node">
<title>Node29</title>
<g id="a_Node000029"><a xlink:title=" ">
<polygon fill="#e0e0e0" stroke="#999999" points="2013,-19 1859,-19 1859,0 2013,0 2013,-19"/>
<text text-anchor="middle" x="1936" y="-7" font-family="Helvetica,sans-Serif" font-size="10.00">QtCore/QAbstractItemModel</text>
</a>
</g>
</g>
<!-- Node28&#45;&gt;Node29 -->
<g id="edge43_Node000028_Node000029" class="edge">
<title>Node28&#45;&gt;Node29</title>
<g id="a_edge43_Node000028_Node000029"><a xlink:title=" ">
<path fill="none" stroke="#63b8ff" d="M1936,-54.75C1936,-47.8 1936,-37.85 1936,-29.13"/>
<polygon fill="#63b8ff" stroke="#63b8ff" points="1939.5,-29.09 1936,-19.09 1932.5,-29.09 1939.5,-29.09"/>
</a>
</g>
</g>
<!-- Node31&#45;&gt;Node3 -->
<g id="edge52_Node000031_Node000003" class="edge">
<title>Node31&#45;&gt;Node3</title>
<g id="a_edge52_Node000031_Node000003"><a xlink:title=" ">
<path fill="none" stroke="#63b8ff" d="M1314.91,-57.37C1396.05,-48.14 1550.14,-30.61 1645.18,-19.81"/>
<polygon fill="#63b8ff" stroke="#63b8ff" points="1645.79,-23.26 1655.33,-18.65 1645,-16.3 1645.79,-23.26"/>
</a>
</g>
</g>
<!-- Node31&#45;&gt;Node4 -->
<g id="edge53_Node000031_Node000004" class="edge">
<title>Node31&#45;&gt;Node4</title>
<g id="a_edge53_Node000031_Node000004"><a xlink:title=" ">
<path fill="none" stroke="#63b8ff" d="M1243.01,-54.98C1225.07,-46.5 1197.28,-33.35 1176.57,-23.54"/>
<polygon fill="#63b8ff" stroke="#63b8ff" points="1177.86,-20.28 1167.32,-19.17 1174.86,-26.61 1177.86,-20.28"/>
</a>
</g>
</g>
<!-- Node31&#45;&gt;Node10 -->
<g id="edge54_Node000031_Node000010" class="edge">
<title>Node31&#45;&gt;Node10</title>
<g id="a_edge54_Node000031_Node000010"><a xlink:title=" ">
<path fill="none" stroke="#63b8ff" d="M1301.49,-54.98C1345.17,-45.8 1414.81,-31.15 1462.15,-21.19"/>
<polygon fill="#63b8ff" stroke="#63b8ff" points="1463.13,-24.57 1472.19,-19.08 1461.69,-17.72 1463.13,-24.57"/>
</a>
</g>
</g>
<!-- Node31&#45;&gt;Node13 -->
<g id="edge55_Node000031_Node000013" class="edge">
<title>Node31&#45;&gt;Node13</title>
<g id="a_edge55_Node000031_Node000013"><a xlink:title=" ">
<path fill="none" stroke="#63b8ff" d="M1223.56,-54.98C1183.35,-45.84 1119.32,-31.27 1075.56,-21.32"/>
<polygon fill="#63b8ff" stroke="#63b8ff" points="1076.26,-17.89 1065.73,-19.08 1074.7,-24.71 1076.26,-17.89"/>
</a>
</g>
</g>
<!-- Node31&#45;&gt;Node16 -->
<g id="edge56_Node000031_Node000016" class="edge">
<title>Node31&#45;&gt;Node16</title>
<g id="a_edge56_Node000031_Node000016"><a xlink:title=" ">
<path fill="none" stroke="#63b8ff" d="M1261,-54.75C1261,-47.8 1261,-37.85 1261,-29.13"/>
<polygon fill="#63b8ff" stroke="#63b8ff" points="1264.5,-29.09 1261,-19.09 1257.5,-29.09 1264.5,-29.09"/>
</a>
</g>
</g>
</g>
</svg>

<g id="navigator" transform="translate(0 0)" fill="#404254">
  <rect fill="#f2f5e9" fill-opacity="0.5" stroke="#606060" stroke-width=".5" x="0" y="0" width="60" height="60"/>
  <use id="zoomplus" xlink:href="#zoomPlus" x="17" y="9" onmousedown="handleZoom(evt,'in')"/>
  <use id="zoomminus" xlink:href="#zoomMin" x="42" y="9" onmousedown="handleZoom(evt,'out')"/>
  <use id="reset" xlink:href="#resetDef" x="30" y="36" onmousedown="handleReset()"/>
   <use id="arrowup" xlink:href="#arrowUp" x="0" y="0" onmousedown="handlePan(0,-1)"/>
  <use id="arrowright" xlink:href="#arrowRight" x="0" y="0" onmousedown="handlePan(1,0)"/>
  <use id="arrowdown" xlink:href="#arrowDown" x="0" y="0" onmousedown="handlePan(0,1)"/>
  <use id="arrowleft" xlink:href="#arrowLeft" x="0" y="0" onmousedown="handlePan(-1,0)"/>
</g>
<svg viewBox="0 0 15 15" width="100%" height="30px" preserveAspectRatio="xMaxYMin meet">
 <g id="arrow_out" transform="scale(0.3 0.3)">
  <a xlink:href="SettingsFact_8cc__incl_org.svg" target="_base">
   <rect id="button" ry="5" rx="5" y="6" x="6" height="38" width="38"
        fill="#f2f5e9" fill-opacity="0.5" stroke="#606060" stroke-width="1.0"/>
   <path id="arrow"
     d="M 11.500037,31.436501 C 11.940474,20.09759 22.043105,11.32322 32.158766,21.979434 L 37.068811,17.246167 C 37.068811,17.246167 37.088388,32 37.088388,32 L 22.160133,31.978069 C 22.160133,31.978069 26.997745,27.140456 26.997745,27.140456 C 18.528582,18.264221 13.291696,25.230495 11.500037,31.436501 z"
     style="fill:#404040;"/>
  </a>
 </g>
</svg>

<style type='text/css'>
<![CDATA[
[data-mouse-over-selected='false'] { opacity: 0.7; }
[data-mouse-over-selected='true']  { opacity: 1.0; }
]]>
</style>
<script type="application/ecmascript"><![CDATA[
document.addEventListener('DOMContentLoaded', (event) => {
  highlightEdges();
  highlightAdjacentNodes();
});
]]></script>
</svg>
