<?xml version="1.0" encoding="UTF-8" standalone="no"?>
<!DOCTYPE svg PUBLIC "-//W3C//DTD SVG 1.1//EN"
 "http://www.w3.org/Graphics/SVG/1.1/DTD/svg11.dtd">
<!-- Generated by graphviz version 2.43.0 (0)
 -->
<!-- Title: src/Utilities/Geo/ShapeFileHelper.cc Pages: 1 -->
<!--zoomable 313 -->

<svg id="main" version="1.1" xmlns="http://www.w3.org/2000/svg" xmlns:xlink="http://www.w3.org/1999/xlink" xml:space="preserve" onload="init(evt)">
<style type="text/css"><![CDATA[
.node, .edge {opacity: 0.7;}
.node.selected, .edge.selected {opacity: 1;}
.edge:hover path { stroke: red; }
.edge:hover polygon { stroke: red; fill: red; }
]]></style>

<defs>
  <circle id="rim" cx="0" cy="0" r="7"/>
  <circle id="rim2" cx="0" cy="0" r="3.5"/>
  <g id="zoomPlus">
    <use xlink:href="#rim" fill="#404040"><set attributeName="fill" to="#808080" begin="zoomplus.mouseover" end="zoomplus.mouseout"/></use>
    <path d="M-4,0h8M0,-4v8" fill="none" stroke="white" stroke-width="1.5" pointer-events="none"/>
  </g>
  <g id="zoomMin">
    <use xlink:href="#rim" fill="#404040"><set attributeName="fill" to="#808080" begin="zoomminus.mouseover" end="zoomminus.mouseout"/></use>
    <path d="M-4,0h8" fill="none" stroke="white" stroke-width="1.5" pointer-events="none"/>
  </g>
  <g id="arrowUp" transform="translate(30 24)">
    <use xlink:href="#rim"/>
    <path pointer-events="none" fill="none" stroke="white" stroke-width="1.5" d="M0,-3.0v7 M-2.5,-0.5L0,-3.0L2.5,-0.5"/>
  </g>
  <g id="arrowRight" transform="rotate(90) translate(36 -43)">
    <use xlink:href="#rim"/>
    <path pointer-events="none" fill="none" stroke="white" stroke-width="1.5" d="M0,-3.0v7 M-2.5,-0.5L0,-3.0L2.5,-0.5"/>
  </g>
  <g id="arrowDown" transform="rotate(180) translate(-30 -48)">
    <use xlink:href="#rim"/>
    <path pointer-events="none" fill="none" stroke="white" stroke-width="1.5" d="M0,-3.0v7 M-2.5,-0.5L0,-3.0L2.5,-0.5"/>
  </g>
  <g id="arrowLeft" transform="rotate(270) translate(-36 17)">
    <use xlink:href="#rim"/>
    <path pointer-events="none" fill="none" stroke="white" stroke-width="1.5" d="M0,-3.0v7 M-2.5,-0.5L0,-3.0L2.5,-0.5"/>
  </g>
  <g id="resetDef">
    <use xlink:href="#rim2" fill="#404040"><set attributeName="fill" to="#808080" begin="reset.mouseover" end="reset.mouseout"/></use>
  </g>
</defs>
<script type="application/ecmascript">
var viewWidth = 953;
var viewHeight = 313;
var sectionId = 'dynsection-0';
</script>
<script type="application/ecmascript" xlink:href="svg.min.js"/>
<svg id="graph" class="graph">
<g id="viewport">
<title>src/Utilities/Geo/ShapeFileHelper.cc</title>
<!-- Node1 -->
<g id="Node000001" class="node">
<title>Node1</title>
<g id="a_Node000001"><a xlink:title=" ">
<polygon fill="#999999" stroke="#666666" points="355.79,-305 210.79,-305 210.79,-275 355.79,-275 355.79,-305"/>
<text text-anchor="start" x="218.79" y="-293" font-family="Helvetica,sans-Serif" font-size="10.00">src/Utilities/Geo/ShapeFile</text>
<text text-anchor="middle" x="283.29" y="-282" font-family="Helvetica,sans-Serif" font-size="10.00">Helper.cc</text>
</a>
</g>
</g>
<!-- Node2 -->
<g id="Node000002" class="node">
<title>Node2</title>
<g id="a_Node000002"><a xlink:href="ShapeFileHelper_8h.html" target="_top" xlink:title=" ">
<polygon fill="white" stroke="#666666" points="366.29,-184 262.29,-184 262.29,-165 366.29,-165 366.29,-184"/>
<text text-anchor="middle" x="314.29" y="-172" font-family="Helvetica,sans-Serif" font-size="10.00">ShapeFileHelper.h</text>
</a>
</g>
</g>
<!-- Node1&#45;&gt;Node2 -->
<g id="edge1_Node000001_Node000002" class="edge">
<title>Node1&#45;&gt;Node2</title>
<g id="a_edge1_Node000001_Node000002"><a xlink:title=" ">
<path fill="none" stroke="#63b8ff" d="M287.8,-274.61C290.87,-264.64 294.97,-251.06 298.29,-239 302.45,-223.91 306.77,-206.69 309.87,-193.99"/>
<polygon fill="#63b8ff" stroke="#63b8ff" points="313.29,-194.7 312.24,-184.16 306.49,-193.06 313.29,-194.7"/>
</a>
</g>
</g>
<!-- Node8 -->
<g id="Node000008" class="node">
<title>Node8</title>
<g id="a_Node000008"><a xlink:href="KMLHelper_8h.html" target="_top" xlink:title=" ">
<polygon fill="white" stroke="#666666" points="289.29,-239 211.29,-239 211.29,-220 289.29,-220 289.29,-239"/>
<text text-anchor="middle" x="250.29" y="-227" font-family="Helvetica,sans-Serif" font-size="10.00">KMLHelper.h</text>
</a>
</g>
</g>
<!-- Node1&#45;&gt;Node8 -->
<g id="edge7_Node000001_Node000008" class="edge">
<title>Node1&#45;&gt;Node8</title>
<g id="a_edge7_Node000001_Node000008"><a xlink:title=" ">
<path fill="none" stroke="#63b8ff" d="M275.3,-274.84C270.76,-266.78 265.03,-256.62 260.2,-248.06"/>
<polygon fill="#63b8ff" stroke="#63b8ff" points="263.2,-246.26 255.24,-239.27 257.1,-249.7 263.2,-246.26"/>
</a>
</g>
</g>
<!-- Node9 -->
<g id="Node000009" class="node">
<title>Node9</title>
<g id="a_Node000009"><a xlink:href="SHPFileHelper_8h.html" target="_top" xlink:title=" ">
<polygon fill="white" stroke="#666666" points="193.29,-239 99.29,-239 99.29,-220 193.29,-220 193.29,-239"/>
<text text-anchor="middle" x="146.29" y="-227" font-family="Helvetica,sans-Serif" font-size="10.00">SHPFileHelper.h</text>
</a>
</g>
</g>
<!-- Node1&#45;&gt;Node9 -->
<g id="edge12_Node000001_Node000009" class="edge">
<title>Node1&#45;&gt;Node9</title>
<g id="a_edge12_Node000001_Node000009"><a xlink:title=" ">
<path fill="none" stroke="#63b8ff" d="M250.48,-274.99C227.82,-265.31 197.95,-252.56 176,-243.18"/>
<polygon fill="#63b8ff" stroke="#63b8ff" points="177.1,-239.85 166.53,-239.14 174.35,-246.29 177.1,-239.85"/>
</a>
</g>
</g>
<!-- Node10 -->
<g id="Node000010" class="node">
<title>Node10</title>
<g id="a_Node000010"><a xlink:href="QGCLoggingCategory_8h.html" target="_top" xlink:title=" ">
<polygon fill="white" stroke="#666666" points="637.29,-239 509.29,-239 509.29,-220 637.29,-220 637.29,-239"/>
<text text-anchor="middle" x="573.29" y="-227" font-family="Helvetica,sans-Serif" font-size="10.00">QGCLoggingCategory.h</text>
</a>
</g>
</g>
<!-- Node1&#45;&gt;Node10 -->
<g id="edge17_Node000001_Node000010" class="edge">
<title>Node1&#45;&gt;Node10</title>
<g id="a_edge17_Node000001_Node000010"><a xlink:title=" ">
<path fill="none" stroke="#63b8ff" d="M352.76,-274.99C404.43,-264.56 473.86,-250.56 520.91,-241.07"/>
<polygon fill="#63b8ff" stroke="#63b8ff" points="521.78,-244.46 530.89,-239.05 520.4,-237.6 521.78,-244.46"/>
</a>
</g>
</g>
<!-- Node3 -->
<g id="Node000003" class="node">
<title>Node3</title>
<g id="a_Node000003"><a xlink:title=" ">
<polygon fill="#e0e0e0" stroke="#999999" points="280.29,-129 202.29,-129 202.29,-110 280.29,-110 280.29,-129"/>
<text text-anchor="middle" x="241.29" y="-117" font-family="Helvetica,sans-Serif" font-size="10.00">QtCore/QList</text>
</a>
</g>
</g>
<!-- Node2&#45;&gt;Node3 -->
<g id="edge2_Node000002_Node000003" class="edge">
<title>Node2&#45;&gt;Node3</title>
<g id="a_edge2_Node000002_Node000003"><a xlink:title=" ">
<path fill="none" stroke="#63b8ff" d="M302.56,-164.98C291.56,-157 274.87,-144.88 261.69,-135.31"/>
<polygon fill="#63b8ff" stroke="#63b8ff" points="263.38,-132.21 253.24,-129.17 259.27,-137.88 263.38,-132.21"/>
</a>
</g>
</g>
<!-- Node4 -->
<g id="Node000004" class="node">
<title>Node4</title>
<g id="a_Node000004"><a xlink:title=" ">
<polygon fill="#e0e0e0" stroke="#999999" points="565.79,-19 422.79,-19 422.79,0 565.79,0 565.79,-19"/>
<text text-anchor="middle" x="494.29" y="-7" font-family="Helvetica,sans-Serif" font-size="10.00">QtCore/QLoggingCategory</text>
</a>
</g>
</g>
<!-- Node2&#45;&gt;Node4 -->
<g id="edge3_Node000002_Node000004" class="edge">
<title>Node2&#45;&gt;Node4</title>
<g id="a_edge3_Node000002_Node000004"><a xlink:title=" ">
<path fill="none" stroke="#63b8ff" d="M314.78,-164.82C315.92,-151.71 319.7,-126.63 332.29,-110 365.22,-66.52 423.13,-37.72 460.06,-22.76"/>
<polygon fill="#63b8ff" stroke="#63b8ff" points="461.39,-25.99 469.42,-19.08 458.83,-19.48 461.39,-25.99"/>
</a>
</g>
</g>
<!-- Node5 -->
<g id="Node000005" class="node">
<title>Node5</title>
<g id="a_Node000005"><a xlink:title=" ">
<polygon fill="#e0e0e0" stroke="#999999" points="466.29,-129 374.29,-129 374.29,-110 466.29,-110 466.29,-129"/>
<text text-anchor="middle" x="420.29" y="-117" font-family="Helvetica,sans-Serif" font-size="10.00">QtCore/QObject</text>
</a>
</g>
</g>
<!-- Node2&#45;&gt;Node5 -->
<g id="edge4_Node000002_Node000005" class="edge">
<title>Node2&#45;&gt;Node5</title>
<g id="a_edge4_Node000002_Node000005"><a xlink:title=" ">
<path fill="none" stroke="#63b8ff" d="M331.32,-164.98C348.22,-156.54 374.36,-143.47 393.94,-133.68"/>
<polygon fill="#63b8ff" stroke="#63b8ff" points="395.57,-136.77 402.95,-129.17 392.44,-130.51 395.57,-136.77"/>
</a>
</g>
</g>
<!-- Node6 -->
<g id="Node000006" class="node">
<title>Node6</title>
<g id="a_Node000006"><a xlink:title=" ">
<polygon fill="#e0e0e0" stroke="#999999" points="183.79,-129 18.79,-129 18.79,-110 183.79,-110 183.79,-129"/>
<text text-anchor="middle" x="101.29" y="-117" font-family="Helvetica,sans-Serif" font-size="10.00">QtPositioning/QGeoCoordinate</text>
</a>
</g>
</g>
<!-- Node2&#45;&gt;Node6 -->
<g id="edge5_Node000002_Node000006" class="edge">
<title>Node2&#45;&gt;Node6</title>
<g id="a_edge5_Node000002_Node000006"><a xlink:title=" ">
<path fill="none" stroke="#63b8ff" d="M280.07,-164.98C243.54,-155.89 185.52,-141.46 145.54,-131.51"/>
<polygon fill="#63b8ff" stroke="#63b8ff" points="146.33,-128.1 135.78,-129.08 144.64,-134.89 146.33,-128.1"/>
</a>
</g>
</g>
<!-- Node7 -->
<g id="Node000007" class="node">
<title>Node7</title>
<g id="a_Node000007"><a xlink:title=" ">
<polygon fill="#e0e0e0" stroke="#999999" points="772.79,-19 583.79,-19 583.79,0 772.79,0 772.79,-19"/>
<text text-anchor="middle" x="678.29" y="-7" font-family="Helvetica,sans-Serif" font-size="10.00">QtQmlIntegration/QtQmlIntegration</text>
</a>
</g>
</g>
<!-- Node2&#45;&gt;Node7 -->
<g id="edge6_Node000002_Node000007" class="edge">
<title>Node2&#45;&gt;Node7</title>
<g id="a_edge6_Node000002_Node000007"><a xlink:title=" ">
<path fill="none" stroke="#63b8ff" d="M319.03,-164.75C326.88,-151.08 343.83,-124.71 365.29,-110 439.33,-59.25 540.66,-33.29 607.73,-20.82"/>
<polygon fill="#63b8ff" stroke="#63b8ff" points="608.56,-24.23 617.78,-19.01 607.32,-17.34 608.56,-24.23"/>
</a>
</g>
</g>
<!-- Node8&#45;&gt;Node2 -->
<g id="edge11_Node000008_Node000002" class="edge">
<title>Node8&#45;&gt;Node2</title>
<g id="a_edge11_Node000008_Node000002"><a xlink:title=" ">
<path fill="none" stroke="#63b8ff" d="M260.58,-219.98C270.13,-212.07 284.57,-200.11 296.08,-190.58"/>
<polygon fill="#63b8ff" stroke="#63b8ff" points="298.35,-193.24 303.82,-184.17 293.89,-187.85 298.35,-193.24"/>
</a>
</g>
</g>
<!-- Node8&#45;&gt;Node3 -->
<g id="edge8_Node000008_Node000003" class="edge">
<title>Node8&#45;&gt;Node3</title>
<g id="a_edge8_Node000008_Node000003"><a xlink:title=" ">
<path fill="none" stroke="#63b8ff" d="M249.56,-219.66C248.1,-202.17 244.82,-162.8 242.86,-139.27"/>
<polygon fill="#63b8ff" stroke="#63b8ff" points="246.33,-138.83 242.01,-129.16 239.36,-139.41 246.33,-138.83"/>
</a>
</g>
</g>
<!-- Node8&#45;&gt;Node4 -->
<g id="edge9_Node000008_Node000004" class="edge">
<title>Node8&#45;&gt;Node4</title>
<g id="a_edge9_Node000008_Node000004"><a xlink:title=" ">
<path fill="none" stroke="#63b8ff" d="M289.36,-223.51C341.38,-214.58 431.89,-190.64 475.29,-129 496.41,-99.01 497.47,-54.23 496.07,-29.18"/>
<polygon fill="#63b8ff" stroke="#63b8ff" points="499.56,-28.9 495.32,-19.19 492.58,-29.42 499.56,-28.9"/>
</a>
</g>
</g>
<!-- Node8&#45;&gt;Node6 -->
<g id="edge10_Node000008_Node000006" class="edge">
<title>Node8&#45;&gt;Node6</title>
<g id="a_edge10_Node000008_Node000006"><a xlink:title=" ">
<path fill="none" stroke="#63b8ff" d="M238.35,-219.84C212.96,-201.44 153.35,-158.23 121.77,-135.34"/>
<polygon fill="#63b8ff" stroke="#63b8ff" points="123.44,-132.23 113.29,-129.2 119.33,-137.9 123.44,-132.23"/>
</a>
</g>
</g>
<!-- Node9&#45;&gt;Node2 -->
<g id="edge16_Node000009_Node000002" class="edge">
<title>Node9&#45;&gt;Node2</title>
<g id="a_edge16_Node000009_Node000002"><a xlink:title=" ">
<path fill="none" stroke="#63b8ff" d="M173.29,-219.98C201.49,-211.09 245.93,-197.07 277.37,-187.15"/>
<polygon fill="#63b8ff" stroke="#63b8ff" points="278.61,-190.43 287.09,-184.08 276.5,-183.75 278.61,-190.43"/>
</a>
</g>
</g>
<!-- Node9&#45;&gt;Node3 -->
<g id="edge13_Node000009_Node000003" class="edge">
<title>Node9&#45;&gt;Node3</title>
<g id="a_edge13_Node000009_Node000003"><a xlink:title=" ">
<path fill="none" stroke="#63b8ff" d="M154.07,-219.66C170.01,-201.54 206.62,-159.91 226.98,-136.77"/>
<polygon fill="#63b8ff" stroke="#63b8ff" points="229.7,-138.98 233.68,-129.16 224.44,-134.36 229.7,-138.98"/>
</a>
</g>
</g>
<!-- Node9&#45;&gt;Node4 -->
<g id="edge14_Node000009_Node000004" class="edge">
<title>Node9&#45;&gt;Node4</title>
<g id="a_edge14_Node000009_Node000004"><a xlink:title=" ">
<path fill="none" stroke="#63b8ff" d="M120.82,-219.89C71.34,-201.85 -29.67,-157.76 9.29,-110 59.23,-48.78 287.54,-24.17 412.3,-15.17"/>
<polygon fill="#63b8ff" stroke="#63b8ff" points="412.84,-18.64 422.57,-14.44 412.35,-11.66 412.84,-18.64"/>
</a>
</g>
</g>
<!-- Node9&#45;&gt;Node6 -->
<g id="edge15_Node000009_Node000006" class="edge">
<title>Node9&#45;&gt;Node6</title>
<g id="a_edge15_Node000009_Node000006"><a xlink:title=" ">
<path fill="none" stroke="#63b8ff" d="M142.61,-219.66C135.26,-202.01 118.62,-162.09 108.85,-138.64"/>
<polygon fill="#63b8ff" stroke="#63b8ff" points="111.98,-137.04 104.9,-129.16 105.52,-139.74 111.98,-137.04"/>
</a>
</g>
</g>
<!-- Node10&#45;&gt;Node4 -->
<g id="edge25_Node000010_Node000004" class="edge">
<title>Node10&#45;&gt;Node4</title>
<g id="a_edge25_Node000010_Node000004"><a xlink:title=" ">
<path fill="none" stroke="#63b8ff" d="M568.8,-219.77C564.32,-210.9 557.39,-196.68 552.29,-184 540.61,-154.89 512.43,-67.43 500.16,-28.98"/>
<polygon fill="#63b8ff" stroke="#63b8ff" points="503.4,-27.59 497.03,-19.13 496.73,-29.72 503.4,-27.59"/>
</a>
</g>
</g>
<!-- Node10&#45;&gt;Node5 -->
<g id="edge26_Node000010_Node000005" class="edge">
<title>Node10&#45;&gt;Node5</title>
<g id="a_edge26_Node000010_Node000005"><a xlink:title=" ">
<path fill="none" stroke="#63b8ff" d="M561.03,-219.84C534.84,-201.36 473.22,-157.86 440.9,-135.05"/>
<polygon fill="#63b8ff" stroke="#63b8ff" points="442.8,-132.1 432.61,-129.2 438.76,-137.82 442.8,-132.1"/>
</a>
</g>
</g>
<!-- Node11 -->
<g id="Node000011" class="node">
<title>Node11</title>
<g id="a_Node000011"><a xlink:href="QmlObjectListModel_8h.html" target="_top" xlink:title=" ">
<polygon fill="white" stroke="#666666" points="911.79,-184 786.79,-184 786.79,-165 911.79,-165 911.79,-184"/>
<text text-anchor="middle" x="849.29" y="-172" font-family="Helvetica,sans-Serif" font-size="10.00">QmlObjectListModel.h</text>
</a>
</g>
</g>
<!-- Node10&#45;&gt;Node11 -->
<g id="edge18_Node000010_Node000011" class="edge">
<title>Node10&#45;&gt;Node11</title>
<g id="a_edge18_Node000010_Node000011"><a xlink:title=" ">
<path fill="none" stroke="#63b8ff" d="M617.64,-219.98C665.78,-210.74 742.72,-195.97 794.58,-186.01"/>
<polygon fill="#63b8ff" stroke="#63b8ff" points="795.44,-189.41 804.6,-184.08 794.12,-182.53 795.44,-189.41"/>
</a>
</g>
</g>
<!-- Node15 -->
<g id="Node000015" class="node">
<title>Node15</title>
<g id="a_Node000015"><a xlink:title=" ">
<polygon fill="#e0e0e0" stroke="#999999" points="667.79,-184 560.79,-184 560.79,-165 667.79,-165 667.79,-184"/>
<text text-anchor="middle" x="614.29" y="-172" font-family="Helvetica,sans-Serif" font-size="10.00">QtCore/QStringList</text>
</a>
</g>
</g>
<!-- Node10&#45;&gt;Node15 -->
<g id="edge27_Node000010_Node000015" class="edge">
<title>Node10&#45;&gt;Node15</title>
<g id="a_edge27_Node000010_Node000015"><a xlink:title=" ">
<path fill="none" stroke="#63b8ff" d="M580.06,-219.75C585.85,-212.26 594.35,-201.28 601.43,-192.13"/>
<polygon fill="#63b8ff" stroke="#63b8ff" points="604.3,-194.14 607.65,-184.09 598.76,-189.86 604.3,-194.14"/>
</a>
</g>
</g>
<!-- Node16 -->
<g id="Node000016" class="node">
<title>Node16</title>
<g id="a_Node000016"><a xlink:title=" ">
<polygon fill="#e0e0e0" stroke="#999999" points="768.29,-184 686.29,-184 686.29,-165 768.29,-165 768.29,-184"/>
<text text-anchor="middle" x="727.29" y="-172" font-family="Helvetica,sans-Serif" font-size="10.00">QtCore/QMap</text>
</a>
</g>
</g>
<!-- Node10&#45;&gt;Node16 -->
<g id="edge28_Node000010_Node000016" class="edge">
<title>Node10&#45;&gt;Node16</title>
<g id="a_edge28_Node000010_Node000016"><a xlink:title=" ">
<path fill="none" stroke="#63b8ff" d="M598.04,-219.98C623.67,-211.16 663.92,-197.31 692.7,-187.41"/>
<polygon fill="#63b8ff" stroke="#63b8ff" points="694.04,-190.65 702.36,-184.08 691.76,-184.03 694.04,-190.65"/>
</a>
</g>
</g>
<!-- Node11&#45;&gt;Node4 -->
<g id="edge24_Node000011_Node000004" class="edge">
<title>Node11&#45;&gt;Node4</title>
<g id="a_edge24_Node000011_Node000004"><a xlink:title=" ">
<path fill="none" stroke="#63b8ff" d="M830.71,-164.97C772.37,-138.18 592.65,-55.66 522.63,-23.51"/>
<polygon fill="#63b8ff" stroke="#63b8ff" points="523.67,-20.14 513.12,-19.15 520.75,-26.5 523.67,-20.14"/>
</a>
</g>
</g>
<!-- Node12 -->
<g id="Node000012" class="node">
<title>Node12</title>
<g id="a_Node000012"><a xlink:href="ObjectListModelBase_8h.html" target="_top" xlink:title=" ">
<polygon fill="white" stroke="#666666" points="894.29,-129 766.29,-129 766.29,-110 894.29,-110 894.29,-129"/>
<text text-anchor="middle" x="830.29" y="-117" font-family="Helvetica,sans-Serif" font-size="10.00">ObjectListModelBase.h</text>
</a>
</g>
</g>
<!-- Node11&#45;&gt;Node12 -->
<g id="edge19_Node000011_Node000012" class="edge">
<title>Node11&#45;&gt;Node12</title>
<g id="a_edge19_Node000011_Node000012"><a xlink:title=" ">
<path fill="none" stroke="#63b8ff" d="M846.16,-164.75C843.61,-157.65 839.94,-147.4 836.77,-138.56"/>
<polygon fill="#63b8ff" stroke="#63b8ff" points="840.04,-137.32 833.37,-129.09 833.45,-139.68 840.04,-137.32"/>
</a>
</g>
</g>
<!-- Node13 -->
<g id="Node000013" class="node">
<title>Node13</title>
<g id="a_Node000013"><a xlink:href="ObjectItemModelBase_8h.html" target="_top" xlink:title=" ">
<polygon fill="white" stroke="#666666" points="824.29,-74 690.29,-74 690.29,-55 824.29,-55 824.29,-74"/>
<text text-anchor="middle" x="757.29" y="-62" font-family="Helvetica,sans-Serif" font-size="10.00">ObjectItemModelBase.h</text>
</a>
</g>
</g>
<!-- Node12&#45;&gt;Node13 -->
<g id="edge20_Node000012_Node000013" class="edge">
<title>Node12&#45;&gt;Node13</title>
<g id="a_edge20_Node000012_Node000013"><a xlink:title=" ">
<path fill="none" stroke="#63b8ff" d="M818.56,-109.98C807.56,-102 790.87,-89.88 777.69,-80.31"/>
<polygon fill="#63b8ff" stroke="#63b8ff" points="779.38,-77.21 769.24,-74.17 775.27,-82.88 779.38,-77.21"/>
</a>
</g>
</g>
<!-- Node13&#45;&gt;Node4 -->
<g id="edge22_Node000013_Node000004" class="edge">
<title>Node13&#45;&gt;Node4</title>
<g id="a_edge22_Node000013_Node000004"><a xlink:title=" ">
<path fill="none" stroke="#63b8ff" d="M715.04,-54.98C669.26,-45.76 596.16,-31.03 546.74,-21.07"/>
<polygon fill="#63b8ff" stroke="#63b8ff" points="547.37,-17.63 536.88,-19.08 545.99,-24.49 547.37,-17.63"/>
</a>
</g>
</g>
<!-- Node13&#45;&gt;Node7 -->
<g id="edge23_Node000013_Node000007" class="edge">
<title>Node13&#45;&gt;Node7</title>
<g id="a_edge23_Node000013_Node000007"><a xlink:title=" ">
<path fill="none" stroke="#63b8ff" d="M744.6,-54.98C732.46,-46.84 713.94,-34.41 699.55,-24.76"/>
<polygon fill="#63b8ff" stroke="#63b8ff" points="701.47,-21.84 691.22,-19.17 697.57,-27.65 701.47,-21.84"/>
</a>
</g>
</g>
<!-- Node14 -->
<g id="Node000014" class="node">
<title>Node14</title>
<g id="a_Node000014"><a xlink:title=" ">
<polygon fill="#e0e0e0" stroke="#999999" points="945.29,-19 791.29,-19 791.29,0 945.29,0 945.29,-19"/>
<text text-anchor="middle" x="868.29" y="-7" font-family="Helvetica,sans-Serif" font-size="10.00">QtCore/QAbstractItemModel</text>
</a>
</g>
</g>
<!-- Node13&#45;&gt;Node14 -->
<g id="edge21_Node000013_Node000014" class="edge">
<title>Node13&#45;&gt;Node14</title>
<g id="a_edge21_Node000013_Node000014"><a xlink:title=" ">
<path fill="none" stroke="#63b8ff" d="M775.13,-54.98C792.9,-46.5 820.44,-33.35 840.97,-23.54"/>
<polygon fill="#63b8ff" stroke="#63b8ff" points="842.62,-26.64 850.13,-19.17 839.6,-20.32 842.62,-26.64"/>
</a>
</g>
</g>
</g>
</svg>

<g id="navigator" transform="translate(0 0)" fill="#404254">
  <rect fill="#f2f5e9" fill-opacity="0.5" stroke="#606060" stroke-width=".5" x="0" y="0" width="60" height="60"/>
  <use id="zoomplus" xlink:href="#zoomPlus" x="17" y="9" onmousedown="handleZoom(evt,'in')"/>
  <use id="zoomminus" xlink:href="#zoomMin" x="42" y="9" onmousedown="handleZoom(evt,'out')"/>
  <use id="reset" xlink:href="#resetDef" x="30" y="36" onmousedown="handleReset()"/>
   <use id="arrowup" xlink:href="#arrowUp" x="0" y="0" onmousedown="handlePan(0,-1)"/>
  <use id="arrowright" xlink:href="#arrowRight" x="0" y="0" onmousedown="handlePan(1,0)"/>
  <use id="arrowdown" xlink:href="#arrowDown" x="0" y="0" onmousedown="handlePan(0,1)"/>
  <use id="arrowleft" xlink:href="#arrowLeft" x="0" y="0" onmousedown="handlePan(-1,0)"/>
</g>
<svg viewBox="0 0 15 15" width="100%" height="30px" preserveAspectRatio="xMaxYMin meet">
 <g id="arrow_out" transform="scale(0.3 0.3)">
  <a xlink:href="ShapeFileHelper_8cc__incl_org.svg" target="_base">
   <rect id="button" ry="5" rx="5" y="6" x="6" height="38" width="38"
        fill="#f2f5e9" fill-opacity="0.5" stroke="#606060" stroke-width="1.0"/>
   <path id="arrow"
     d="M 11.500037,31.436501 C 11.940474,20.09759 22.043105,11.32322 32.158766,21.979434 L 37.068811,17.246167 C 37.068811,17.246167 37.088388,32 37.088388,32 L 22.160133,31.978069 C 22.160133,31.978069 26.997745,27.140456 26.997745,27.140456 C 18.528582,18.264221 13.291696,25.230495 11.500037,31.436501 z"
     style="fill:#404040;"/>
  </a>
 </g>
</svg>

<style type='text/css'>
<![CDATA[
[data-mouse-over-selected='false'] { opacity: 0.7; }
[data-mouse-over-selected='true']  { opacity: 1.0; }
]]>
</style>
<script type="application/ecmascript"><![CDATA[
document.addEventListener('DOMContentLoaded', (event) => {
  highlightEdges();
  highlightAdjacentNodes();
});
]]></script>
</svg>
