<?xml version="1.0" encoding="UTF-8" standalone="no"?>
<!DOCTYPE svg PUBLIC "-//W3C//DTD SVG 1.1//EN"
 "http://www.w3.org/Graphics/SVG/1.1/DTD/svg11.dtd">
<!-- Generated by graphviz version 2.43.0 (0)
 -->
<!-- Title: src/Utilities/Geo/ShapeFileHelper.cc Pages: 1 -->
<!--zoomable 258 -->

<svg id="main" version="1.1" xmlns="http://www.w3.org/2000/svg" xmlns:xlink="http://www.w3.org/1999/xlink" xml:space="preserve" onload="init(evt)">
<style type="text/css"><![CDATA[
.node, .edge {opacity: 0.7;}
.node.selected, .edge.selected {opacity: 1;}
.edge:hover path { stroke: red; }
.edge:hover polygon { stroke: red; fill: red; }
]]></style>

<defs>
  <circle id="rim" cx="0" cy="0" r="7"/>
  <circle id="rim2" cx="0" cy="0" r="3.5"/>
  <g id="zoomPlus">
    <use xlink:href="#rim" fill="#404040"><set attributeName="fill" to="#808080" begin="zoomplus.mouseover" end="zoomplus.mouseout"/></use>
    <path d="M-4,0h8M0,-4v8" fill="none" stroke="white" stroke-width="1.5" pointer-events="none"/>
  </g>
  <g id="zoomMin">
    <use xlink:href="#rim" fill="#404040"><set attributeName="fill" to="#808080" begin="zoomminus.mouseover" end="zoomminus.mouseout"/></use>
    <path d="M-4,0h8" fill="none" stroke="white" stroke-width="1.5" pointer-events="none"/>
  </g>
  <g id="arrowUp" transform="translate(30 24)">
    <use xlink:href="#rim"/>
    <path pointer-events="none" fill="none" stroke="white" stroke-width="1.5" d="M0,-3.0v7 M-2.5,-0.5L0,-3.0L2.5,-0.5"/>
  </g>
  <g id="arrowRight" transform="rotate(90) translate(36 -43)">
    <use xlink:href="#rim"/>
    <path pointer-events="none" fill="none" stroke="white" stroke-width="1.5" d="M0,-3.0v7 M-2.5,-0.5L0,-3.0L2.5,-0.5"/>
  </g>
  <g id="arrowDown" transform="rotate(180) translate(-30 -48)">
    <use xlink:href="#rim"/>
    <path pointer-events="none" fill="none" stroke="white" stroke-width="1.5" d="M0,-3.0v7 M-2.5,-0.5L0,-3.0L2.5,-0.5"/>
  </g>
  <g id="arrowLeft" transform="rotate(270) translate(-36 17)">
    <use xlink:href="#rim"/>
    <path pointer-events="none" fill="none" stroke="white" stroke-width="1.5" d="M0,-3.0v7 M-2.5,-0.5L0,-3.0L2.5,-0.5"/>
  </g>
  <g id="resetDef">
    <use xlink:href="#rim2" fill="#404040"><set attributeName="fill" to="#808080" begin="reset.mouseover" end="reset.mouseout"/></use>
  </g>
</defs>
<script type="application/ecmascript">
var viewWidth = 932;
var viewHeight = 258;
var sectionId = 'dynsection-0';
</script>
<script type="application/ecmascript" xlink:href="svg.min.js"/>
<svg id="graph" class="graph">
<g id="viewport">
<title>src/Utilities/Geo/ShapeFileHelper.cc</title>
<!-- Node1 -->
<g id="Node000001" class="node">
<title>Node1</title>
<g id="a_Node000001"><a xlink:title=" ">
<polygon fill="#999999" stroke="#666666" points="333.28,-250 188.28,-250 188.28,-220 333.28,-220 333.28,-250"/>
<text text-anchor="start" x="196.28" y="-238" font-family="Helvetica,sans-Serif" font-size="10.00">src/Utilities/Geo/ShapeFile</text>
<text text-anchor="middle" x="260.78" y="-227" font-family="Helvetica,sans-Serif" font-size="10.00">Helper.cc</text>
</a>
</g>
</g>
<!-- Node2 -->
<g id="Node000002" class="node">
<title>Node2</title>
<g id="a_Node000002"><a xlink:href="ShapeFileHelper_8h.html" target="_top" xlink:title=" ">
<polygon fill="white" stroke="#666666" points="345.78,-129 241.78,-129 241.78,-110 345.78,-110 345.78,-129"/>
<text text-anchor="middle" x="293.78" y="-117" font-family="Helvetica,sans-Serif" font-size="10.00">ShapeFileHelper.h</text>
</a>
</g>
</g>
<!-- Node1&#45;&gt;Node2 -->
<g id="edge1_Node000001_Node000002" class="edge">
<title>Node1&#45;&gt;Node2</title>
<g id="a_edge1_Node000001_Node000002"><a xlink:title=" ">
<path fill="none" stroke="#63b8ff" d="M265.17,-219.58C268.19,-209.6 272.28,-196.01 275.78,-184 280.2,-168.86 285.07,-151.64 288.63,-138.95"/>
<polygon fill="#63b8ff" stroke="#63b8ff" points="292.05,-139.71 291.38,-129.14 285.31,-137.83 292.05,-139.71"/>
</a>
</g>
</g>
<!-- Node8 -->
<g id="Node000008" class="node">
<title>Node8</title>
<g id="a_Node000008"><a xlink:href="KMLHelper_8h.html" target="_top" xlink:title=" ">
<polygon fill="white" stroke="#666666" points="266.78,-184 188.78,-184 188.78,-165 266.78,-165 266.78,-184"/>
<text text-anchor="middle" x="227.78" y="-172" font-family="Helvetica,sans-Serif" font-size="10.00">KMLHelper.h</text>
</a>
</g>
</g>
<!-- Node1&#45;&gt;Node8 -->
<g id="edge7_Node000001_Node000008" class="edge">
<title>Node1&#45;&gt;Node8</title>
<g id="a_edge7_Node000001_Node000008"><a xlink:title=" ">
<path fill="none" stroke="#63b8ff" d="M252.79,-219.84C248.25,-211.78 242.51,-201.62 237.68,-193.06"/>
<polygon fill="#63b8ff" stroke="#63b8ff" points="240.69,-191.26 232.73,-184.27 234.59,-194.7 240.69,-191.26"/>
</a>
</g>
</g>
<!-- Node9 -->
<g id="Node000009" class="node">
<title>Node9</title>
<g id="a_Node000009"><a xlink:href="SHPFileHelper_8h.html" target="_top" xlink:title=" ">
<polygon fill="white" stroke="#666666" points="170.78,-184 76.78,-184 76.78,-165 170.78,-165 170.78,-184"/>
<text text-anchor="middle" x="123.78" y="-172" font-family="Helvetica,sans-Serif" font-size="10.00">SHPFileHelper.h</text>
</a>
</g>
</g>
<!-- Node1&#45;&gt;Node9 -->
<g id="edge12_Node000001_Node000009" class="edge">
<title>Node1&#45;&gt;Node9</title>
<g id="a_edge12_Node000001_Node000009"><a xlink:title=" ">
<path fill="none" stroke="#63b8ff" d="M227.97,-219.99C205.31,-210.31 175.43,-197.56 153.48,-188.18"/>
<polygon fill="#63b8ff" stroke="#63b8ff" points="154.58,-184.85 144.01,-184.14 151.83,-191.29 154.58,-184.85"/>
</a>
</g>
</g>
<!-- Node10 -->
<g id="Node000010" class="node">
<title>Node10</title>
<g id="a_Node000010"><a xlink:href="QGCLoggingCategory_8h.html" target="_top" xlink:title=" ">
<polygon fill="white" stroke="#666666" points="641.78,-184 513.78,-184 513.78,-165 641.78,-165 641.78,-184"/>
<text text-anchor="middle" x="577.78" y="-172" font-family="Helvetica,sans-Serif" font-size="10.00">QGCLoggingCategory.h</text>
</a>
</g>
</g>
<!-- Node1&#45;&gt;Node10 -->
<g id="edge17_Node000001_Node000010" class="edge">
<title>Node1&#45;&gt;Node10</title>
<g id="a_edge17_Node000001_Node000010"><a xlink:title=" ">
<path fill="none" stroke="#63b8ff" d="M333.51,-220.58C390.57,-210.05 468.86,-195.6 521.28,-185.93"/>
<polygon fill="#63b8ff" stroke="#63b8ff" points="522.21,-189.31 531.41,-184.06 520.94,-182.43 522.21,-189.31"/>
</a>
</g>
</g>
<!-- Node3 -->
<g id="Node000003" class="node">
<title>Node3</title>
<g id="a_Node000003"><a xlink:title=" ">
<polygon fill="#e0e0e0" stroke="#999999" points="96.78,-74 18.78,-74 18.78,-55 96.78,-55 96.78,-74"/>
<text text-anchor="middle" x="57.78" y="-62" font-family="Helvetica,sans-Serif" font-size="10.00">QtCore/QList</text>
</a>
</g>
</g>
<!-- Node2&#45;&gt;Node3 -->
<g id="edge2_Node000002_Node000003" class="edge">
<title>Node2&#45;&gt;Node3</title>
<g id="a_edge2_Node000002_Node000003"><a xlink:title=" ">
<path fill="none" stroke="#63b8ff" d="M255.86,-109.98C215.13,-100.84 150.28,-86.27 105.96,-76.32"/>
<polygon fill="#63b8ff" stroke="#63b8ff" points="106.52,-72.86 95.99,-74.08 104.98,-79.69 106.52,-72.86"/>
</a>
</g>
</g>
<!-- Node4 -->
<g id="Node000004" class="node">
<title>Node4</title>
<g id="a_Node000004"><a xlink:title=" ">
<polygon fill="#e0e0e0" stroke="#999999" points="550.28,-19 407.28,-19 407.28,0 550.28,0 550.28,-19"/>
<text text-anchor="middle" x="478.78" y="-7" font-family="Helvetica,sans-Serif" font-size="10.00">QtCore/QLoggingCategory</text>
</a>
</g>
</g>
<!-- Node2&#45;&gt;Node4 -->
<g id="edge3_Node000002_Node000004" class="edge">
<title>Node2&#45;&gt;Node4</title>
<g id="a_edge3_Node000002_Node000004"><a xlink:title=" ">
<path fill="none" stroke="#63b8ff" d="M296.83,-109.71C302.04,-95.99 313.94,-69.56 332.78,-55 354.25,-38.41 381.91,-27.97 407.36,-21.42"/>
<polygon fill="#63b8ff" stroke="#63b8ff" points="408.46,-24.75 417.37,-19.01 406.82,-17.95 408.46,-24.75"/>
</a>
</g>
</g>
<!-- Node5 -->
<g id="Node000005" class="node">
<title>Node5</title>
<g id="a_Node000005"><a xlink:title=" ">
<polygon fill="#e0e0e0" stroke="#999999" points="466.78,-74 374.78,-74 374.78,-55 466.78,-55 466.78,-74"/>
<text text-anchor="middle" x="420.78" y="-62" font-family="Helvetica,sans-Serif" font-size="10.00">QtCore/QObject</text>
</a>
</g>
</g>
<!-- Node2&#45;&gt;Node5 -->
<g id="edge4_Node000002_Node000005" class="edge">
<title>Node2&#45;&gt;Node5</title>
<g id="a_edge4_Node000002_Node000005"><a xlink:title=" ">
<path fill="none" stroke="#63b8ff" d="M314.18,-109.98C334.8,-101.38 366.89,-87.99 390.47,-78.15"/>
<polygon fill="#63b8ff" stroke="#63b8ff" points="392.12,-81.25 400,-74.17 389.43,-74.79 392.12,-81.25"/>
</a>
</g>
</g>
<!-- Node6 -->
<g id="Node000006" class="node">
<title>Node6</title>
<g id="a_Node000006"><a xlink:title=" ">
<polygon fill="#e0e0e0" stroke="#999999" points="280.28,-74 115.28,-74 115.28,-55 280.28,-55 280.28,-74"/>
<text text-anchor="middle" x="197.78" y="-62" font-family="Helvetica,sans-Serif" font-size="10.00">QtPositioning/QGeoCoordinate</text>
</a>
</g>
</g>
<!-- Node2&#45;&gt;Node6 -->
<g id="edge5_Node000002_Node000006" class="edge">
<title>Node2&#45;&gt;Node6</title>
<g id="a_edge5_Node000002_Node000006"><a xlink:title=" ">
<path fill="none" stroke="#63b8ff" d="M278.36,-109.98C263.33,-101.69 240.24,-88.94 222.62,-79.22"/>
<polygon fill="#63b8ff" stroke="#63b8ff" points="223.93,-75.94 213.48,-74.17 220.55,-82.07 223.93,-75.94"/>
</a>
</g>
</g>
<!-- Node7 -->
<g id="Node000007" class="node">
<title>Node7</title>
<g id="a_Node000007"><a xlink:title=" ">
<polygon fill="#e0e0e0" stroke="#999999" points="757.28,-19 568.28,-19 568.28,0 757.28,0 757.28,-19"/>
<text text-anchor="middle" x="662.78" y="-7" font-family="Helvetica,sans-Serif" font-size="10.00">QtQmlIntegration/QtQmlIntegration</text>
</a>
</g>
</g>
<!-- Node2&#45;&gt;Node7 -->
<g id="edge6_Node000002_Node000007" class="edge">
<title>Node2&#45;&gt;Node7</title>
<g id="a_edge6_Node000002_Node000007"><a xlink:title=" ">
<path fill="none" stroke="#63b8ff" d="M300.68,-109.79C312.4,-95.68 337.68,-68.08 365.78,-55 399.3,-39.39 486.84,-27.42 558.25,-19.85"/>
<polygon fill="#63b8ff" stroke="#63b8ff" points="558.63,-23.33 568.22,-18.81 557.91,-16.36 558.63,-23.33"/>
</a>
</g>
</g>
<!-- Node8&#45;&gt;Node2 -->
<g id="edge11_Node000008_Node000002" class="edge">
<title>Node8&#45;&gt;Node2</title>
<g id="a_edge11_Node000008_Node000002"><a xlink:title=" ">
<path fill="none" stroke="#63b8ff" d="M238.38,-164.98C248.24,-157.07 263.13,-145.11 275,-135.58"/>
<polygon fill="#63b8ff" stroke="#63b8ff" points="277.38,-138.16 282.98,-129.17 272.99,-132.7 277.38,-138.16"/>
</a>
</g>
</g>
<!-- Node8&#45;&gt;Node3 -->
<g id="edge8_Node000008_Node000003" class="edge">
<title>Node8&#45;&gt;Node3</title>
<g id="a_edge8_Node000008_Node000003"><a xlink:title=" ">
<path fill="none" stroke="#63b8ff" d="M214.16,-164.84C184.94,-146.28 116,-102.49 80.22,-79.75"/>
<polygon fill="#63b8ff" stroke="#63b8ff" points="81.79,-76.6 71.47,-74.2 78.03,-82.51 81.79,-76.6"/>
</a>
</g>
</g>
<!-- Node8&#45;&gt;Node4 -->
<g id="edge9_Node000008_Node000004" class="edge">
<title>Node8&#45;&gt;Node4</title>
<g id="a_edge9_Node000008_Node000004"><a xlink:title=" ">
<path fill="none" stroke="#63b8ff" d="M267.03,-170.78C324.2,-164.47 428.67,-143.51 475.78,-74 484.59,-61.01 484.53,-42.86 482.75,-29.29"/>
<polygon fill="#63b8ff" stroke="#63b8ff" points="486.15,-28.44 481,-19.18 479.26,-29.63 486.15,-28.44"/>
</a>
</g>
</g>
<!-- Node8&#45;&gt;Node6 -->
<g id="edge10_Node000008_Node000006" class="edge">
<title>Node8&#45;&gt;Node6</title>
<g id="a_edge10_Node000008_Node000006"><a xlink:title=" ">
<path fill="none" stroke="#63b8ff" d="M225.33,-164.66C220.44,-147.09 209.43,-107.45 202.91,-83.95"/>
<polygon fill="#63b8ff" stroke="#63b8ff" points="206.23,-82.86 200.19,-74.16 199.49,-84.73 206.23,-82.86"/>
</a>
</g>
</g>
<!-- Node9&#45;&gt;Node2 -->
<g id="edge16_Node000009_Node000002" class="edge">
<title>Node9&#45;&gt;Node2</title>
<g id="a_edge16_Node000009_Node000002"><a xlink:title=" ">
<path fill="none" stroke="#63b8ff" d="M151.09,-164.98C179.63,-156.09 224.61,-142.07 256.42,-132.15"/>
<polygon fill="#63b8ff" stroke="#63b8ff" points="257.75,-135.4 266.25,-129.08 255.66,-128.72 257.75,-135.4"/>
</a>
</g>
</g>
<!-- Node9&#45;&gt;Node3 -->
<g id="edge13_Node000009_Node000003" class="edge">
<title>Node9&#45;&gt;Node3</title>
<g id="a_edge13_Node000009_Node000003"><a xlink:title=" ">
<path fill="none" stroke="#63b8ff" d="M118.38,-164.66C107.45,-146.77 82.53,-106 68.29,-82.69"/>
<polygon fill="#63b8ff" stroke="#63b8ff" points="71.27,-80.87 63.07,-74.16 65.3,-84.52 71.27,-80.87"/>
</a>
</g>
</g>
<!-- Node9&#45;&gt;Node4 -->
<g id="edge14_Node000009_Node000004" class="edge">
<title>Node9&#45;&gt;Node4</title>
<g id="a_edge14_Node000009_Node000004"><a xlink:title=" ">
<path fill="none" stroke="#63b8ff" d="M103.97,-164.89C62.1,-145.56 -28.54,-97.13 9.78,-55 35.27,-26.98 269.42,-16.21 396.92,-12.4"/>
<polygon fill="#63b8ff" stroke="#63b8ff" points="397.15,-15.89 407.04,-12.1 396.94,-8.9 397.15,-15.89"/>
</a>
</g>
</g>
<!-- Node9&#45;&gt;Node6 -->
<g id="edge15_Node000009_Node000006" class="edge">
<title>Node9&#45;&gt;Node6</title>
<g id="a_edge15_Node000009_Node000006"><a xlink:title=" ">
<path fill="none" stroke="#63b8ff" d="M129.84,-164.66C142.09,-146.77 170.03,-106 186,-82.69"/>
<polygon fill="#63b8ff" stroke="#63b8ff" points="189.08,-84.39 191.85,-74.16 183.31,-80.43 189.08,-84.39"/>
</a>
</g>
</g>
<!-- Node10&#45;&gt;Node4 -->
<g id="edge24_Node000010_Node000004" class="edge">
<title>Node10&#45;&gt;Node4</title>
<g id="a_edge24_Node000010_Node000004"><a xlink:title=" ">
<path fill="none" stroke="#63b8ff" d="M572.95,-164.76C561.96,-144.97 534.08,-95.33 508.78,-55 503.02,-45.82 496.31,-35.81 490.69,-27.6"/>
<polygon fill="#63b8ff" stroke="#63b8ff" points="493.49,-25.49 484.93,-19.25 487.73,-29.47 493.49,-25.49"/>
</a>
</g>
</g>
<!-- Node10&#45;&gt;Node5 -->
<g id="edge25_Node000010_Node000005" class="edge">
<title>Node10&#45;&gt;Node5</title>
<g id="a_edge25_Node000010_Node000005"><a xlink:title=" ">
<path fill="none" stroke="#63b8ff" d="M565.2,-164.84C538.33,-146.36 475.09,-102.86 441.92,-80.05"/>
<polygon fill="#63b8ff" stroke="#63b8ff" points="443.65,-76.98 433.42,-74.2 439.68,-82.75 443.65,-76.98"/>
</a>
</g>
</g>
<!-- Node11 -->
<g id="Node000011" class="node">
<title>Node11</title>
<g id="a_Node000011"><a xlink:href="QmlObjectListModel_8h.html" target="_top" xlink:title=" ">
<polygon fill="white" stroke="#666666" points="686.28,-129 561.28,-129 561.28,-110 686.28,-110 686.28,-129"/>
<text text-anchor="middle" x="623.78" y="-117" font-family="Helvetica,sans-Serif" font-size="10.00">QmlObjectListModel.h</text>
</a>
</g>
</g>
<!-- Node10&#45;&gt;Node11 -->
<g id="edge18_Node000010_Node000011" class="edge">
<title>Node10&#45;&gt;Node11</title>
<g id="a_edge18_Node000010_Node000011"><a xlink:title=" ">
<path fill="none" stroke="#63b8ff" d="M585.38,-164.75C591.94,-157.18 601.6,-146.05 609.59,-136.84"/>
<polygon fill="#63b8ff" stroke="#63b8ff" points="612.41,-138.94 616.33,-129.09 607.13,-134.35 612.41,-138.94"/>
</a>
</g>
</g>
<!-- Node14 -->
<g id="Node000014" class="node">
<title>Node14</title>
<g id="a_Node000014"><a xlink:title=" ">
<polygon fill="#e0e0e0" stroke="#999999" points="811.28,-129 704.28,-129 704.28,-110 811.28,-110 811.28,-129"/>
<text text-anchor="middle" x="757.78" y="-117" font-family="Helvetica,sans-Serif" font-size="10.00">QtCore/QStringList</text>
</a>
</g>
</g>
<!-- Node10&#45;&gt;Node14 -->
<g id="edge26_Node000010_Node000014" class="edge">
<title>Node10&#45;&gt;Node14</title>
<g id="a_edge26_Node000010_Node000014"><a xlink:title=" ">
<path fill="none" stroke="#63b8ff" d="M606.7,-164.98C637.05,-156.05 684.95,-141.94 718.66,-132.02"/>
<polygon fill="#63b8ff" stroke="#63b8ff" points="720.03,-135.26 728.63,-129.08 718.05,-128.55 720.03,-135.26"/>
</a>
</g>
</g>
<!-- Node15 -->
<g id="Node000015" class="node">
<title>Node15</title>
<g id="a_Node000015"><a xlink:title=" ">
<polygon fill="#e0e0e0" stroke="#999999" points="911.78,-129 829.78,-129 829.78,-110 911.78,-110 911.78,-129"/>
<text text-anchor="middle" x="870.78" y="-117" font-family="Helvetica,sans-Serif" font-size="10.00">QtCore/QMap</text>
</a>
</g>
</g>
<!-- Node10&#45;&gt;Node15 -->
<g id="edge27_Node000010_Node000015" class="edge">
<title>Node10&#45;&gt;Node15</title>
<g id="a_edge27_Node000010_Node000015"><a xlink:title=" ">
<path fill="none" stroke="#63b8ff" d="M624.86,-164.98C678.16,-155.34 764.7,-139.69 819.63,-129.75"/>
<polygon fill="#63b8ff" stroke="#63b8ff" points="820.29,-133.19 829.5,-127.97 819.04,-126.3 820.29,-133.19"/>
</a>
</g>
</g>
<!-- Node11&#45;&gt;Node4 -->
<g id="edge23_Node000011_Node000004" class="edge">
<title>Node11&#45;&gt;Node4</title>
<g id="a_edge23_Node000011_Node000004"><a xlink:title=" ">
<path fill="none" stroke="#63b8ff" d="M614.09,-109.92C599.76,-97.37 571.9,-73.49 546.78,-55 532.1,-44.2 514.92,-32.96 501.5,-24.49"/>
<polygon fill="#63b8ff" stroke="#63b8ff" points="503.22,-21.43 492.89,-19.1 499.51,-27.37 503.22,-21.43"/>
</a>
</g>
</g>
<!-- Node12 -->
<g id="Node000012" class="node">
<title>Node12</title>
<g id="a_Node000012"><a xlink:href="ObjectListModelBase_8h.html" target="_top" xlink:title=" ">
<polygon fill="white" stroke="#666666" points="726.78,-74 598.78,-74 598.78,-55 726.78,-55 726.78,-74"/>
<text text-anchor="middle" x="662.78" y="-62" font-family="Helvetica,sans-Serif" font-size="10.00">ObjectListModelBase.h</text>
</a>
</g>
</g>
<!-- Node11&#45;&gt;Node12 -->
<g id="edge19_Node000011_Node000012" class="edge">
<title>Node11&#45;&gt;Node12</title>
<g id="a_edge19_Node000011_Node000012"><a xlink:title=" ">
<path fill="none" stroke="#63b8ff" d="M630.22,-109.75C635.67,-102.34 643.65,-91.5 650.34,-82.41"/>
<polygon fill="#63b8ff" stroke="#63b8ff" points="653.35,-84.22 656.46,-74.09 647.71,-80.07 653.35,-84.22"/>
</a>
</g>
</g>
<!-- Node12&#45;&gt;Node4 -->
<g id="edge21_Node000012_Node000004" class="edge">
<title>Node12&#45;&gt;Node4</title>
<g id="a_edge21_Node000012_Node000004"><a xlink:title=" ">
<path fill="none" stroke="#63b8ff" d="M633.22,-54.98C602.06,-46.01 552.81,-31.82 518.32,-21.89"/>
<polygon fill="#63b8ff" stroke="#63b8ff" points="519.15,-18.49 508.57,-19.08 517.22,-25.21 519.15,-18.49"/>
</a>
</g>
</g>
<!-- Node12&#45;&gt;Node7 -->
<g id="edge22_Node000012_Node000007" class="edge">
<title>Node12&#45;&gt;Node7</title>
<g id="a_edge22_Node000012_Node000007"><a xlink:title=" ">
<path fill="none" stroke="#63b8ff" d="M662.78,-54.75C662.78,-47.8 662.78,-37.85 662.78,-29.13"/>
<polygon fill="#63b8ff" stroke="#63b8ff" points="666.28,-29.09 662.78,-19.09 659.28,-29.09 666.28,-29.09"/>
</a>
</g>
</g>
<!-- Node13 -->
<g id="Node000013" class="node">
<title>Node13</title>
<g id="a_Node000013"><a xlink:title=" ">
<polygon fill="#e0e0e0" stroke="#999999" points="924.28,-19 775.28,-19 775.28,0 924.28,0 924.28,-19"/>
<text text-anchor="middle" x="849.78" y="-7" font-family="Helvetica,sans-Serif" font-size="10.00">QtCore/QAbstractListModel</text>
</a>
</g>
</g>
<!-- Node12&#45;&gt;Node13 -->
<g id="edge20_Node000012_Node000013" class="edge">
<title>Node12&#45;&gt;Node13</title>
<g id="a_edge20_Node000012_Node000013"><a xlink:title=" ">
<path fill="none" stroke="#63b8ff" d="M692.82,-54.98C724.49,-46.01 774.55,-31.82 809.59,-21.89"/>
<polygon fill="#63b8ff" stroke="#63b8ff" points="810.83,-25.18 819.5,-19.08 808.92,-18.44 810.83,-25.18"/>
</a>
</g>
</g>
</g>
</svg>

<g id="navigator" transform="translate(0 0)" fill="#404254">
  <rect fill="#f2f5e9" fill-opacity="0.5" stroke="#606060" stroke-width=".5" x="0" y="0" width="60" height="60"/>
  <use id="zoomplus" xlink:href="#zoomPlus" x="17" y="9" onmousedown="handleZoom(evt,'in')"/>
  <use id="zoomminus" xlink:href="#zoomMin" x="42" y="9" onmousedown="handleZoom(evt,'out')"/>
  <use id="reset" xlink:href="#resetDef" x="30" y="36" onmousedown="handleReset()"/>
   <use id="arrowup" xlink:href="#arrowUp" x="0" y="0" onmousedown="handlePan(0,-1)"/>
  <use id="arrowright" xlink:href="#arrowRight" x="0" y="0" onmousedown="handlePan(1,0)"/>
  <use id="arrowdown" xlink:href="#arrowDown" x="0" y="0" onmousedown="handlePan(0,1)"/>
  <use id="arrowleft" xlink:href="#arrowLeft" x="0" y="0" onmousedown="handlePan(-1,0)"/>
</g>
<svg viewBox="0 0 15 15" width="100%" height="30px" preserveAspectRatio="xMaxYMin meet">
 <g id="arrow_out" transform="scale(0.3 0.3)">
  <a xlink:href="ShapeFileHelper_8cc__incl_org.svg" target="_base">
   <rect id="button" ry="5" rx="5" y="6" x="6" height="38" width="38"
        fill="#f2f5e9" fill-opacity="0.5" stroke="#606060" stroke-width="1.0"/>
   <path id="arrow"
     d="M 11.500037,31.436501 C 11.940474,20.09759 22.043105,11.32322 32.158766,21.979434 L 37.068811,17.246167 C 37.068811,17.246167 37.088388,32 37.088388,32 L 22.160133,31.978069 C 22.160133,31.978069 26.997745,27.140456 26.997745,27.140456 C 18.528582,18.264221 13.291696,25.230495 11.500037,31.436501 z"
     style="fill:#404040;"/>
  </a>
 </g>
</svg>

<style type='text/css'>
<![CDATA[
[data-mouse-over-selected='false'] { opacity: 0.7; }
[data-mouse-over-selected='true']  { opacity: 1.0; }
]]>
</style>
<script type="application/ecmascript"><![CDATA[
document.addEventListener('DOMContentLoaded', (event) => {
  highlightEdges();
  highlightAdjacentNodes();
});
]]></script>
</svg>
