<?xml version="1.0" encoding="UTF-8" standalone="no"?>
<!DOCTYPE svg PUBLIC "-//W3C//DTD SVG 1.1//EN"
 "http://www.w3.org/Graphics/SVG/1.1/DTD/svg11.dtd">
<!-- Generated by graphviz version 2.43.0 (0)
 -->
<!-- Title: src/Utilities/Platform/SignalHandler.cc Pages: 1 -->
<svg width="1000pt" height="313pt"
 viewBox="0.00 0.00 1000.00 313.00" xmlns="http://www.w3.org/2000/svg" xmlns:xlink="http://www.w3.org/1999/xlink">
<g id="graph0" class="graph" transform="scale(1 1) rotate(0) translate(4 309)">
<title>src/Utilities/Platform/SignalHandler.cc</title>
<!-- Node1 -->
<g id="Node000001" class="node">
<title>Node1</title>
<g id="a_Node000001"><a xlink:title=" ">
<polygon fill="#999999" stroke="#666666" points="690,-305 573,-305 573,-275 690,-275 690,-305"/>
<text text-anchor="start" x="581" y="-293" font-family="Helvetica,sans-Serif" font-size="10.00">src/Utilities/Platform</text>
<text text-anchor="middle" x="631.5" y="-282" font-family="Helvetica,sans-Serif" font-size="10.00">/SignalHandler.cc</text>
</a>
</g>
</g>
<!-- Node2 -->
<g id="Node000002" class="node">
<title>Node2</title>
<g id="a_Node000002"><a xlink:href="SignalHandler_8h.html" target="_top" xlink:title=" ">
<polygon fill="white" stroke="#666666" points="93,-239 0,-239 0,-220 93,-220 93,-239"/>
<text text-anchor="middle" x="46.5" y="-227" font-family="Helvetica,sans-Serif" font-size="10.00">SignalHandler.h</text>
</a>
</g>
</g>
<!-- Node1&#45;&gt;Node2 -->
<g id="edge1_Node000001_Node000002" class="edge">
<title>Node1&#45;&gt;Node2</title>
<g id="a_edge1_Node000001_Node000002"><a xlink:title=" ">
<path fill="none" stroke="#63b8ff" d="M572.67,-284.53C476.7,-277 280.26,-260.58 103.24,-239.02"/>
<polygon fill="#63b8ff" stroke="#63b8ff" points="103.58,-235.54 93.22,-237.79 102.72,-242.48 103.58,-235.54"/>
</a>
</g>
</g>
<!-- Node6 -->
<g id="Node000006" class="node">
<title>Node6</title>
<g id="a_Node000006"><a xlink:title=" ">
<polygon fill="#e0e0e0" stroke="#999999" points="249.5,-239 111.5,-239 111.5,-220 249.5,-220 249.5,-239"/>
<text text-anchor="middle" x="180.5" y="-227" font-family="Helvetica,sans-Serif" font-size="10.00">QtCore/QCoreApplication</text>
</a>
</g>
</g>
<!-- Node1&#45;&gt;Node6 -->
<g id="edge5_Node000001_Node000006" class="edge">
<title>Node1&#45;&gt;Node6</title>
<g id="a_edge5_Node000001_Node000006"><a xlink:title=" ">
<path fill="none" stroke="#63b8ff" d="M572.54,-281.35C491.38,-270.83 345.2,-251.86 256.1,-240.31"/>
<polygon fill="#63b8ff" stroke="#63b8ff" points="256.42,-236.82 246.06,-239 255.52,-243.76 256.42,-236.82"/>
</a>
</g>
</g>
<!-- Node7 -->
<g id="Node000007" class="node">
<title>Node7</title>
<g id="a_Node000007"><a xlink:title=" ">
<polygon fill="#e0e0e0" stroke="#999999" points="397,-239 268,-239 268,-220 397,-220 397,-239"/>
<text text-anchor="middle" x="332.5" y="-227" font-family="Helvetica,sans-Serif" font-size="10.00">QtCore/QSocketNotifier</text>
</a>
</g>
</g>
<!-- Node1&#45;&gt;Node7 -->
<g id="edge6_Node000001_Node000007" class="edge">
<title>Node1&#45;&gt;Node7</title>
<g id="a_edge6_Node000001_Node000007"><a xlink:title=" ">
<path fill="none" stroke="#63b8ff" d="M572.78,-277.51C518.57,-266.91 438.73,-251.28 386.18,-241"/>
<polygon fill="#63b8ff" stroke="#63b8ff" points="386.54,-237.51 376.05,-239.02 385.2,-244.38 386.54,-237.51"/>
</a>
</g>
</g>
<!-- Node8 -->
<g id="Node000008" class="node">
<title>Node8</title>
<g id="a_Node000008"><a xlink:href="QGCLoggingCategory_8h.html" target="_top" xlink:title=" ">
<polygon fill="white" stroke="#666666" points="543.5,-239 415.5,-239 415.5,-220 543.5,-220 543.5,-239"/>
<text text-anchor="middle" x="479.5" y="-227" font-family="Helvetica,sans-Serif" font-size="10.00">QGCLoggingCategory.h</text>
</a>
</g>
</g>
<!-- Node1&#45;&gt;Node8 -->
<g id="edge7_Node000001_Node000008" class="edge">
<title>Node1&#45;&gt;Node8</title>
<g id="a_edge7_Node000001_Node000008"><a xlink:title=" ">
<path fill="none" stroke="#63b8ff" d="M595.09,-274.99C569.62,-265.18 535.91,-252.21 511.47,-242.81"/>
<polygon fill="#63b8ff" stroke="#63b8ff" points="512.54,-239.46 501.95,-239.14 510.02,-246 512.54,-239.46"/>
</a>
</g>
</g>
<!-- Node16 -->
<g id="Node000016" class="node">
<title>Node16</title>
<g id="a_Node000016"><a xlink:title=" ">
<polygon fill="#e0e0e0" stroke="#999999" points="617,-239 562,-239 562,-220 617,-220 617,-239"/>
<text text-anchor="middle" x="589.5" y="-227" font-family="Helvetica,sans-Serif" font-size="10.00">signal.h</text>
</a>
</g>
</g>
<!-- Node1&#45;&gt;Node16 -->
<g id="edge19_Node000001_Node000016" class="edge">
<title>Node1&#45;&gt;Node16</title>
<g id="a_edge19_Node000001_Node000016"><a xlink:title=" ">
<path fill="none" stroke="#63b8ff" d="M621.33,-274.84C615.42,-266.61 607.94,-256.18 601.71,-247.51"/>
<polygon fill="#63b8ff" stroke="#63b8ff" points="604.47,-245.35 595.79,-239.27 598.78,-249.43 604.47,-245.35"/>
</a>
</g>
</g>
<!-- Node17 -->
<g id="Node000017" class="node">
<title>Node17</title>
<g id="a_Node000017"><a xlink:title=" ">
<polygon fill="#e0e0e0" stroke="#999999" points="712,-239 635,-239 635,-220 712,-220 712,-239"/>
<text text-anchor="middle" x="673.5" y="-227" font-family="Helvetica,sans-Serif" font-size="10.00">sys/socket.h</text>
</a>
</g>
</g>
<!-- Node1&#45;&gt;Node17 -->
<g id="edge20_Node000001_Node000017" class="edge">
<title>Node1&#45;&gt;Node17</title>
<g id="a_edge20_Node000001_Node000017"><a xlink:title=" ">
<path fill="none" stroke="#63b8ff" d="M641.67,-274.84C647.58,-266.61 655.06,-256.18 661.29,-247.51"/>
<polygon fill="#63b8ff" stroke="#63b8ff" points="664.22,-249.43 667.21,-239.27 658.53,-245.35 664.22,-249.43"/>
</a>
</g>
</g>
<!-- Node18 -->
<g id="Node000018" class="node">
<title>Node18</title>
<g id="a_Node000018"><a xlink:title=" ">
<polygon fill="#e0e0e0" stroke="#999999" points="786.5,-239 730.5,-239 730.5,-220 786.5,-220 786.5,-239"/>
<text text-anchor="middle" x="758.5" y="-227" font-family="Helvetica,sans-Serif" font-size="10.00">unistd.h</text>
</a>
</g>
</g>
<!-- Node1&#45;&gt;Node18 -->
<g id="edge21_Node000001_Node000018" class="edge">
<title>Node1&#45;&gt;Node18</title>
<g id="a_edge21_Node000001_Node000018"><a xlink:title=" ">
<path fill="none" stroke="#63b8ff" d="M661.92,-274.99C682.73,-265.4 710.12,-252.79 730.41,-243.44"/>
<polygon fill="#63b8ff" stroke="#63b8ff" points="732.13,-246.5 739.74,-239.14 729.2,-240.14 732.13,-246.5"/>
</a>
</g>
</g>
<!-- Node19 -->
<g id="Node000019" class="node">
<title>Node19</title>
<g id="a_Node000019"><a xlink:title=" ">
<polygon fill="#e0e0e0" stroke="#999999" points="856,-239 805,-239 805,-220 856,-220 856,-239"/>
<text text-anchor="middle" x="830.5" y="-227" font-family="Helvetica,sans-Serif" font-size="10.00">errno.h</text>
</a>
</g>
</g>
<!-- Node1&#45;&gt;Node19 -->
<g id="edge22_Node000001_Node000019" class="edge">
<title>Node1&#45;&gt;Node19</title>
<g id="a_edge22_Node000001_Node000019"><a xlink:title=" ">
<path fill="none" stroke="#63b8ff" d="M679.17,-274.99C714.75,-264.53 762.62,-250.46 794.91,-240.96"/>
<polygon fill="#63b8ff" stroke="#63b8ff" points="796.2,-244.23 804.81,-238.05 794.23,-237.51 796.2,-244.23"/>
</a>
</g>
</g>
<!-- Node20 -->
<g id="Node000020" class="node">
<title>Node20</title>
<g id="a_Node000020"><a xlink:title=" ">
<polygon fill="#e0e0e0" stroke="#999999" points="927,-239 874,-239 874,-220 927,-220 927,-239"/>
<text text-anchor="middle" x="900.5" y="-227" font-family="Helvetica,sans-Serif" font-size="10.00">string.h</text>
</a>
</g>
</g>
<!-- Node1&#45;&gt;Node20 -->
<g id="edge23_Node000001_Node000020" class="edge">
<title>Node1&#45;&gt;Node20</title>
<g id="a_edge23_Node000001_Node000020"><a xlink:title=" ">
<path fill="none" stroke="#63b8ff" d="M690.26,-276.92C735.33,-267.54 799.34,-253.99 863.83,-239.34"/>
<polygon fill="#63b8ff" stroke="#63b8ff" points="864.79,-242.71 873.77,-237.07 863.24,-235.88 864.79,-242.71"/>
</a>
</g>
</g>
<!-- Node21 -->
<g id="Node000021" class="node">
<title>Node21</title>
<g id="a_Node000021"><a xlink:title=" ">
<polygon fill="#e0e0e0" stroke="#999999" points="992,-239 945,-239 945,-220 992,-220 992,-239"/>
<text text-anchor="middle" x="968.5" y="-227" font-family="Helvetica,sans-Serif" font-size="10.00">fcntl.h</text>
</a>
</g>
</g>
<!-- Node1&#45;&gt;Node21 -->
<g id="edge24_Node000001_Node000021" class="edge">
<title>Node1&#45;&gt;Node21</title>
<g id="a_edge24_Node000001_Node000021"><a xlink:title=" ">
<path fill="none" stroke="#63b8ff" d="M690,-281.13C749.47,-272.75 844.41,-258.3 934.92,-239.18"/>
<polygon fill="#63b8ff" stroke="#63b8ff" points="935.75,-242.58 944.8,-237.07 934.29,-235.74 935.75,-242.58"/>
</a>
</g>
</g>
<!-- Node3 -->
<g id="Node000003" class="node">
<title>Node3</title>
<g id="a_Node000003"><a xlink:title=" ">
<polygon fill="#e0e0e0" stroke="#999999" points="71.5,-184 21.5,-184 21.5,-165 71.5,-165 71.5,-184"/>
<text text-anchor="middle" x="46.5" y="-172" font-family="Helvetica,sans-Serif" font-size="10.00">atomic</text>
</a>
</g>
</g>
<!-- Node2&#45;&gt;Node3 -->
<g id="edge2_Node000002_Node000003" class="edge">
<title>Node2&#45;&gt;Node3</title>
<g id="a_edge2_Node000002_Node000003"><a xlink:title=" ">
<path fill="none" stroke="#63b8ff" d="M46.5,-219.75C46.5,-212.8 46.5,-202.85 46.5,-194.13"/>
<polygon fill="#63b8ff" stroke="#63b8ff" points="50,-194.09 46.5,-184.09 43,-194.09 50,-194.09"/>
</a>
</g>
</g>
<!-- Node4 -->
<g id="Node000004" class="node">
<title>Node4</title>
<g id="a_Node000004"><a xlink:title=" ">
<polygon fill="#e0e0e0" stroke="#999999" points="320,-19 177,-19 177,0 320,0 320,-19"/>
<text text-anchor="middle" x="248.5" y="-7" font-family="Helvetica,sans-Serif" font-size="10.00">QtCore/QLoggingCategory</text>
</a>
</g>
</g>
<!-- Node2&#45;&gt;Node4 -->
<g id="edge3_Node000002_Node000004" class="edge">
<title>Node2&#45;&gt;Node4</title>
<g id="a_edge3_Node000002_Node000004"><a xlink:title=" ">
<path fill="none" stroke="#63b8ff" d="M54.42,-219.95C84.71,-187.27 193.52,-69.83 233.57,-26.61"/>
<polygon fill="#63b8ff" stroke="#63b8ff" points="236.19,-28.94 240.42,-19.22 231.05,-24.18 236.19,-28.94"/>
</a>
</g>
</g>
<!-- Node5 -->
<g id="Node000005" class="node">
<title>Node5</title>
<g id="a_Node000005"><a xlink:title=" ">
<polygon fill="#e0e0e0" stroke="#999999" points="224.5,-184 132.5,-184 132.5,-165 224.5,-165 224.5,-184"/>
<text text-anchor="middle" x="178.5" y="-172" font-family="Helvetica,sans-Serif" font-size="10.00">QtCore/QObject</text>
</a>
</g>
</g>
<!-- Node2&#45;&gt;Node5 -->
<g id="edge4_Node000002_Node000005" class="edge">
<title>Node2&#45;&gt;Node5</title>
<g id="a_edge4_Node000002_Node000005"><a xlink:title=" ">
<path fill="none" stroke="#63b8ff" d="M67.71,-219.98C89.23,-211.34 122.78,-197.87 147.33,-188.02"/>
<polygon fill="#63b8ff" stroke="#63b8ff" points="148.93,-191.14 156.91,-184.17 146.32,-184.65 148.93,-191.14"/>
</a>
</g>
</g>
<!-- Node8&#45;&gt;Node4 -->
<g id="edge15_Node000008_Node000004" class="edge">
<title>Node8&#45;&gt;Node4</title>
<g id="a_edge15_Node000008_Node000004"><a xlink:title=" ">
<path fill="none" stroke="#63b8ff" d="M424.86,-219.98C367.4,-210.52 283.86,-195.1 273.5,-184 233.42,-141.02 239.58,-64.17 245.03,-28.99"/>
<polygon fill="#63b8ff" stroke="#63b8ff" points="248.48,-29.58 246.71,-19.13 241.58,-28.4 248.48,-29.58"/>
</a>
</g>
</g>
<!-- Node8&#45;&gt;Node5 -->
<g id="edge16_Node000008_Node000005" class="edge">
<title>Node8&#45;&gt;Node5</title>
<g id="a_edge16_Node000008_Node000005"><a xlink:title=" ">
<path fill="none" stroke="#63b8ff" d="M431.14,-219.98C377.52,-210.54 291.16,-195.34 234.61,-185.38"/>
<polygon fill="#63b8ff" stroke="#63b8ff" points="235.22,-181.93 224.76,-183.65 234.01,-188.83 235.22,-181.93"/>
</a>
</g>
</g>
<!-- Node9 -->
<g id="Node000009" class="node">
<title>Node9</title>
<g id="a_Node000009"><a xlink:href="QmlObjectListModel_8h.html" target="_top" xlink:title=" ">
<polygon fill="white" stroke="#666666" points="408,-184 283,-184 283,-165 408,-165 408,-184"/>
<text text-anchor="middle" x="345.5" y="-172" font-family="Helvetica,sans-Serif" font-size="10.00">QmlObjectListModel.h</text>
</a>
</g>
</g>
<!-- Node8&#45;&gt;Node9 -->
<g id="edge8_Node000008_Node000009" class="edge">
<title>Node8&#45;&gt;Node9</title>
<g id="a_edge8_Node000008_Node000009"><a xlink:title=" ">
<path fill="none" stroke="#63b8ff" d="M457.97,-219.98C436.03,-211.3 401.76,-197.75 376.81,-187.88"/>
<polygon fill="#63b8ff" stroke="#63b8ff" points="378.01,-184.59 367.42,-184.17 375.43,-191.1 378.01,-184.59"/>
</a>
</g>
</g>
<!-- Node14 -->
<g id="Node000014" class="node">
<title>Node14</title>
<g id="a_Node000014"><a xlink:title=" ">
<polygon fill="#e0e0e0" stroke="#999999" points="533,-184 426,-184 426,-165 533,-165 533,-184"/>
<text text-anchor="middle" x="479.5" y="-172" font-family="Helvetica,sans-Serif" font-size="10.00">QtCore/QStringList</text>
</a>
</g>
</g>
<!-- Node8&#45;&gt;Node14 -->
<g id="edge17_Node000008_Node000014" class="edge">
<title>Node8&#45;&gt;Node14</title>
<g id="a_edge17_Node000008_Node000014"><a xlink:title=" ">
<path fill="none" stroke="#63b8ff" d="M479.5,-219.75C479.5,-212.8 479.5,-202.85 479.5,-194.13"/>
<polygon fill="#63b8ff" stroke="#63b8ff" points="483,-194.09 479.5,-184.09 476,-194.09 483,-194.09"/>
</a>
</g>
</g>
<!-- Node15 -->
<g id="Node000015" class="node">
<title>Node15</title>
<g id="a_Node000015"><a xlink:title=" ">
<polygon fill="#e0e0e0" stroke="#999999" points="633.5,-184 551.5,-184 551.5,-165 633.5,-165 633.5,-184"/>
<text text-anchor="middle" x="592.5" y="-172" font-family="Helvetica,sans-Serif" font-size="10.00">QtCore/QMap</text>
</a>
</g>
</g>
<!-- Node8&#45;&gt;Node15 -->
<g id="edge18_Node000008_Node000015" class="edge">
<title>Node8&#45;&gt;Node15</title>
<g id="a_edge18_Node000008_Node000015"><a xlink:title=" ">
<path fill="none" stroke="#63b8ff" d="M497.66,-219.98C515.75,-211.5 543.78,-198.35 564.69,-188.54"/>
<polygon fill="#63b8ff" stroke="#63b8ff" points="566.45,-191.59 574.01,-184.17 563.47,-185.25 566.45,-191.59"/>
</a>
</g>
</g>
<!-- Node9&#45;&gt;Node4 -->
<g id="edge14_Node000009_Node000004" class="edge">
<title>Node9&#45;&gt;Node4</title>
<g id="a_edge14_Node000009_Node000004"><a xlink:title=" ">
<path fill="none" stroke="#63b8ff" d="M340.28,-164.74C324.96,-138.98 279.82,-63.13 259.11,-28.33"/>
<polygon fill="#63b8ff" stroke="#63b8ff" points="261.86,-26.11 253.74,-19.31 255.85,-29.69 261.86,-26.11"/>
</a>
</g>
</g>
<!-- Node10 -->
<g id="Node000010" class="node">
<title>Node10</title>
<g id="a_Node000010"><a xlink:href="ObjectListModelBase_8h.html" target="_top" xlink:title=" ">
<polygon fill="white" stroke="#666666" points="465.5,-129 337.5,-129 337.5,-110 465.5,-110 465.5,-129"/>
<text text-anchor="middle" x="401.5" y="-117" font-family="Helvetica,sans-Serif" font-size="10.00">ObjectListModelBase.h</text>
</a>
</g>
</g>
<!-- Node9&#45;&gt;Node10 -->
<g id="edge9_Node000009_Node000010" class="edge">
<title>Node9&#45;&gt;Node10</title>
<g id="a_edge9_Node000009_Node000010"><a xlink:title=" ">
<path fill="none" stroke="#63b8ff" d="M354.5,-164.98C362.69,-157.23 375.01,-145.58 384.97,-136.14"/>
<polygon fill="#63b8ff" stroke="#63b8ff" points="387.48,-138.59 392.34,-129.17 382.67,-133.5 387.48,-138.59"/>
</a>
</g>
</g>
<!-- Node11 -->
<g id="Node000011" class="node">
<title>Node11</title>
<g id="a_Node000011"><a xlink:href="ObjectItemModelBase_8h.html" target="_top" xlink:title=" ">
<polygon fill="white" stroke="#666666" points="478.5,-74 344.5,-74 344.5,-55 478.5,-55 478.5,-74"/>
<text text-anchor="middle" x="411.5" y="-62" font-family="Helvetica,sans-Serif" font-size="10.00">ObjectItemModelBase.h</text>
</a>
</g>
</g>
<!-- Node10&#45;&gt;Node11 -->
<g id="edge10_Node000010_Node000011" class="edge">
<title>Node10&#45;&gt;Node11</title>
<g id="a_edge10_Node000010_Node000011"><a xlink:title=" ">
<path fill="none" stroke="#63b8ff" d="M403.15,-109.75C404.46,-102.8 406.34,-92.85 407.98,-84.13"/>
<polygon fill="#63b8ff" stroke="#63b8ff" points="411.46,-84.56 409.88,-74.09 404.59,-83.27 411.46,-84.56"/>
</a>
</g>
</g>
<!-- Node11&#45;&gt;Node4 -->
<g id="edge12_Node000011_Node000004" class="edge">
<title>Node11&#45;&gt;Node4</title>
<g id="a_edge12_Node000011_Node000004"><a xlink:title=" ">
<path fill="none" stroke="#63b8ff" d="M385.31,-54.98C358.06,-46.13 315.2,-32.19 284.72,-22.28"/>
<polygon fill="#63b8ff" stroke="#63b8ff" points="285.49,-18.85 274.89,-19.08 283.32,-25.5 285.49,-18.85"/>
</a>
</g>
</g>
<!-- Node12 -->
<g id="Node000012" class="node">
<title>Node12</title>
<g id="a_Node000012"><a xlink:title=" ">
<polygon fill="#e0e0e0" stroke="#999999" points="492.5,-19 338.5,-19 338.5,0 492.5,0 492.5,-19"/>
<text text-anchor="middle" x="415.5" y="-7" font-family="Helvetica,sans-Serif" font-size="10.00">QtCore/QAbstractItemModel</text>
</a>
</g>
</g>
<!-- Node11&#45;&gt;Node12 -->
<g id="edge11_Node000011_Node000012" class="edge">
<title>Node11&#45;&gt;Node12</title>
<g id="a_edge11_Node000011_Node000012"><a xlink:title=" ">
<path fill="none" stroke="#63b8ff" d="M412.16,-54.75C412.68,-47.8 413.44,-37.85 414.09,-29.13"/>
<polygon fill="#63b8ff" stroke="#63b8ff" points="417.59,-29.32 414.85,-19.09 410.61,-28.8 417.59,-29.32"/>
</a>
</g>
</g>
<!-- Node13 -->
<g id="Node000013" class="node">
<title>Node13</title>
<g id="a_Node000013"><a xlink:title=" ">
<polygon fill="#e0e0e0" stroke="#999999" points="700,-19 511,-19 511,0 700,0 700,-19"/>
<text text-anchor="middle" x="605.5" y="-7" font-family="Helvetica,sans-Serif" font-size="10.00">QtQmlIntegration/QtQmlIntegration</text>
</a>
</g>
</g>
<!-- Node11&#45;&gt;Node13 -->
<g id="edge13_Node000011_Node000013" class="edge">
<title>Node11&#45;&gt;Node13</title>
<g id="a_edge13_Node000011_Node000013"><a xlink:title=" ">
<path fill="none" stroke="#63b8ff" d="M442.67,-54.98C475.66,-45.97 527.9,-31.7 564.27,-21.76"/>
<polygon fill="#63b8ff" stroke="#63b8ff" points="565.36,-25.09 574.09,-19.08 563.52,-18.34 565.36,-25.09"/>
</a>
</g>
</g>
</g>
</svg>
