<?xml version="1.0" encoding="UTF-8" standalone="no"?>
<!DOCTYPE svg PUBLIC "-//W3C//DTD SVG 1.1//EN"
 "http://www.w3.org/Graphics/SVG/1.1/DTD/svg11.dtd">
<!-- Generated by graphviz version 2.43.0 (0)
 -->
<!-- Title: src/Utilities/StateMachine/Transitions/SignalDataTransition.cc Pages: 1 -->
<svg width="749pt" height="258pt"
 viewBox="0.00 0.00 749.00 258.00" xmlns="http://www.w3.org/2000/svg" xmlns:xlink="http://www.w3.org/1999/xlink">
<g id="graph0" class="graph" transform="scale(1 1) rotate(0) translate(4 254)">
<title>src/Utilities/StateMachine/Transitions/SignalDataTransition.cc</title>
<!-- Node1 -->
<g id="Node000001" class="node">
<title>Node1</title>
<g id="a_Node000001"><a xlink:title=" ">
<polygon fill="#999999" stroke="#666666" points="585.5,-250 396.5,-250 396.5,-220 585.5,-220 585.5,-250"/>
<text text-anchor="start" x="404.5" y="-238" font-family="Helvetica,sans-Serif" font-size="10.00">src/Utilities/StateMachine</text>
<text text-anchor="middle" x="491" y="-227" font-family="Helvetica,sans-Serif" font-size="10.00">/Transitions/SignalDataTransition.cc</text>
</a>
</g>
</g>
<!-- Node2 -->
<g id="Node000002" class="node">
<title>Node2</title>
<g id="a_Node000002"><a xlink:href="SignalDataTransition_8h.html" target="_top" xlink:title=" ">
<polygon fill="white" stroke="#666666" points="554,-184 428,-184 428,-165 554,-165 554,-184"/>
<text text-anchor="middle" x="491" y="-172" font-family="Helvetica,sans-Serif" font-size="10.00">SignalDataTransition.h</text>
</a>
</g>
</g>
<!-- Node1&#45;&gt;Node2 -->
<g id="edge1_Node000001_Node000002" class="edge">
<title>Node1&#45;&gt;Node2</title>
<g id="a_edge1_Node000001_Node000002"><a xlink:title=" ">
<path fill="none" stroke="#63b8ff" d="M491,-219.84C491,-212.21 491,-202.7 491,-194.45"/>
<polygon fill="#63b8ff" stroke="#63b8ff" points="494.5,-194.27 491,-184.27 487.5,-194.27 494.5,-194.27"/>
</a>
</g>
</g>
<!-- Node3 -->
<g id="Node000003" class="node">
<title>Node3</title>
<g id="a_Node000003"><a xlink:href="QGCSignalTransition_8h.html" target="_top" xlink:title=" ">
<polygon fill="white" stroke="#666666" points="272.5,-129 147.5,-129 147.5,-110 272.5,-110 272.5,-129"/>
<text text-anchor="middle" x="210" y="-117" font-family="Helvetica,sans-Serif" font-size="10.00">QGCSignalTransition.h</text>
</a>
</g>
</g>
<!-- Node2&#45;&gt;Node3 -->
<g id="edge2_Node000002_Node000003" class="edge">
<title>Node2&#45;&gt;Node3</title>
<g id="a_edge2_Node000002_Node000003"><a xlink:title=" ">
<path fill="none" stroke="#63b8ff" d="M445.85,-164.98C396.74,-155.72 318.18,-140.9 265.38,-130.94"/>
<polygon fill="#63b8ff" stroke="#63b8ff" points="265.98,-127.5 255.5,-129.08 264.68,-134.37 265.98,-127.5"/>
</a>
</g>
</g>
<!-- Node6 -->
<g id="Node000006" class="node">
<title>Node6</title>
<g id="a_Node000006"><a xlink:href="QGCState_8h.html" target="_top" xlink:title=" ">
<polygon fill="white" stroke="#666666" points="477.5,-129 404.5,-129 404.5,-110 477.5,-110 477.5,-129"/>
<text text-anchor="middle" x="441" y="-117" font-family="Helvetica,sans-Serif" font-size="10.00">QGCState.h</text>
</a>
</g>
</g>
<!-- Node2&#45;&gt;Node6 -->
<g id="edge5_Node000002_Node000006" class="edge">
<title>Node2&#45;&gt;Node6</title>
<g id="a_edge5_Node000002_Node000006"><a xlink:title=" ">
<path fill="none" stroke="#63b8ff" d="M482.74,-164.75C475.54,-157.11 464.89,-145.82 456.15,-136.56"/>
<polygon fill="#63b8ff" stroke="#63b8ff" points="458.51,-133.96 449.1,-129.09 453.42,-138.76 458.51,-133.96"/>
</a>
</g>
</g>
<!-- Node9 -->
<g id="Node000009" class="node">
<title>Node9</title>
<g id="a_Node000009"><a xlink:title=" ">
<polygon fill="#e0e0e0" stroke="#999999" points="529.5,-19 464.5,-19 464.5,0 529.5,0 529.5,-19"/>
<text text-anchor="middle" x="497" y="-7" font-family="Helvetica,sans-Serif" font-size="10.00">functional</text>
</a>
</g>
</g>
<!-- Node2&#45;&gt;Node9 -->
<g id="edge12_Node000002_Node000009" class="edge">
<title>Node2&#45;&gt;Node9</title>
<g id="a_edge12_Node000002_Node000009"><a xlink:title=" ">
<path fill="none" stroke="#63b8ff" d="M496.35,-164.88C507.79,-145.33 532.77,-96.15 522,-55 519.45,-45.26 514.25,-35.41 509.24,-27.46"/>
<polygon fill="#63b8ff" stroke="#63b8ff" points="512.11,-25.46 503.63,-19.12 506.31,-29.37 512.11,-25.46"/>
</a>
</g>
</g>
<!-- Node11 -->
<g id="Node000011" class="node">
<title>Node11</title>
<g id="a_Node000011"><a xlink:title=" ">
<polygon fill="#e0e0e0" stroke="#999999" points="741,-129 569,-129 569,-110 741,-110 741,-129"/>
<text text-anchor="middle" x="655" y="-117" font-family="Helvetica,sans-Serif" font-size="10.00">QtStateMachine/QStateMachine</text>
</a>
</g>
</g>
<!-- Node2&#45;&gt;Node11 -->
<g id="edge11_Node000002_Node000011" class="edge">
<title>Node2&#45;&gt;Node11</title>
<g id="a_edge11_Node000002_Node000011"><a xlink:title=" ">
<path fill="none" stroke="#63b8ff" d="M517.35,-164.98C544.76,-156.13 587.89,-142.19 618.56,-132.28"/>
<polygon fill="#63b8ff" stroke="#63b8ff" points="620,-135.49 628.44,-129.08 617.85,-128.83 620,-135.49"/>
</a>
</g>
</g>
<!-- Node4 -->
<g id="Node000004" class="node">
<title>Node4</title>
<g id="a_Node000004"><a xlink:title=" ">
<polygon fill="#e0e0e0" stroke="#999999" points="182,-74 0,-74 0,-55 182,-55 182,-74"/>
<text text-anchor="middle" x="91" y="-62" font-family="Helvetica,sans-Serif" font-size="10.00">QtStateMachine/QSignalTransition</text>
</a>
</g>
</g>
<!-- Node3&#45;&gt;Node4 -->
<g id="edge3_Node000003_Node000004" class="edge">
<title>Node3&#45;&gt;Node4</title>
<g id="a_edge3_Node000003_Node000004"><a xlink:title=" ">
<path fill="none" stroke="#63b8ff" d="M190.88,-109.98C171.65,-101.42 141.77,-88.11 119.69,-78.28"/>
<polygon fill="#63b8ff" stroke="#63b8ff" points="121.03,-75.04 110.47,-74.17 118.18,-81.44 121.03,-75.04"/>
</a>
</g>
</g>
<!-- Node5 -->
<g id="Node000005" class="node">
<title>Node5</title>
<g id="a_Node000005"><a xlink:title=" ">
<polygon fill="#e0e0e0" stroke="#999999" points="254.5,-19 165.5,-19 165.5,0 254.5,0 254.5,-19"/>
<text text-anchor="middle" x="210" y="-7" font-family="Helvetica,sans-Serif" font-size="10.00">QtCore/QString</text>
</a>
</g>
</g>
<!-- Node3&#45;&gt;Node5 -->
<g id="edge4_Node000003_Node000005" class="edge">
<title>Node3&#45;&gt;Node5</title>
<g id="a_edge4_Node000003_Node000005"><a xlink:title=" ">
<path fill="none" stroke="#63b8ff" d="M210,-109.66C210,-92.17 210,-52.8 210,-29.27"/>
<polygon fill="#63b8ff" stroke="#63b8ff" points="213.5,-29.16 210,-19.16 206.5,-29.16 213.5,-29.16"/>
</a>
</g>
</g>
<!-- Node7 -->
<g id="Node000007" class="node">
<title>Node7</title>
<g id="a_Node000007"><a xlink:href="QGCAbstractState_8h.html" target="_top" xlink:title=" ">
<polygon fill="white" stroke="#666666" points="351.5,-74 238.5,-74 238.5,-55 351.5,-55 351.5,-74"/>
<text text-anchor="middle" x="295" y="-62" font-family="Helvetica,sans-Serif" font-size="10.00">QGCAbstractState.h</text>
</a>
</g>
</g>
<!-- Node6&#45;&gt;Node7 -->
<g id="edge6_Node000006_Node000007" class="edge">
<title>Node6&#45;&gt;Node7</title>
<g id="a_edge6_Node000006_Node000007"><a xlink:title=" ">
<path fill="none" stroke="#63b8ff" d="M417.54,-109.98C393.42,-101.23 355.63,-87.51 328.4,-77.62"/>
<polygon fill="#63b8ff" stroke="#63b8ff" points="329.48,-74.29 318.88,-74.17 327.09,-80.87 329.48,-74.29"/>
</a>
</g>
</g>
<!-- Node10 -->
<g id="Node000010" class="node">
<title>Node10</title>
<g id="a_Node000010"><a xlink:title=" ">
<polygon fill="#e0e0e0" stroke="#999999" points="512.5,-74 369.5,-74 369.5,-55 512.5,-55 512.5,-74"/>
<text text-anchor="middle" x="441" y="-62" font-family="Helvetica,sans-Serif" font-size="10.00">QtCore/QLoggingCategory</text>
</a>
</g>
</g>
<!-- Node6&#45;&gt;Node10 -->
<g id="edge10_Node000006_Node000010" class="edge">
<title>Node6&#45;&gt;Node10</title>
<g id="a_edge10_Node000006_Node000010"><a xlink:title=" ">
<path fill="none" stroke="#63b8ff" d="M441,-109.75C441,-102.8 441,-92.85 441,-84.13"/>
<polygon fill="#63b8ff" stroke="#63b8ff" points="444.5,-84.09 441,-74.09 437.5,-84.09 444.5,-84.09"/>
</a>
</g>
</g>
<!-- Node7&#45;&gt;Node5 -->
<g id="edge8_Node000007_Node000005" class="edge">
<title>Node7&#45;&gt;Node5</title>
<g id="a_edge8_Node000007_Node000005"><a xlink:title=" ">
<path fill="none" stroke="#63b8ff" d="M281.34,-54.98C268.16,-46.77 247.97,-34.18 232.43,-24.49"/>
<polygon fill="#63b8ff" stroke="#63b8ff" points="234.24,-21.49 223.91,-19.17 230.54,-27.43 234.24,-21.49"/>
</a>
</g>
</g>
<!-- Node8 -->
<g id="Node000008" class="node">
<title>Node8</title>
<g id="a_Node000008"><a xlink:title=" ">
<polygon fill="#e0e0e0" stroke="#999999" points="403.5,-19 272.5,-19 272.5,0 403.5,0 403.5,-19"/>
<text text-anchor="middle" x="338" y="-7" font-family="Helvetica,sans-Serif" font-size="10.00">QtStateMachine/QState</text>
</a>
</g>
</g>
<!-- Node7&#45;&gt;Node8 -->
<g id="edge7_Node000007_Node000008" class="edge">
<title>Node7&#45;&gt;Node8</title>
<g id="a_edge7_Node000007_Node000008"><a xlink:title=" ">
<path fill="none" stroke="#63b8ff" d="M302.1,-54.75C308.17,-47.26 317.09,-36.28 324.51,-27.13"/>
<polygon fill="#63b8ff" stroke="#63b8ff" points="327.45,-29.06 331.03,-19.09 322.01,-24.65 327.45,-29.06"/>
</a>
</g>
</g>
<!-- Node7&#45;&gt;Node9 -->
<g id="edge9_Node000007_Node000009" class="edge">
<title>Node7&#45;&gt;Node9</title>
<g id="a_edge9_Node000007_Node000009"><a xlink:title=" ">
<path fill="none" stroke="#63b8ff" d="M327.45,-54.98C361.96,-45.93 416.66,-31.58 454.56,-21.64"/>
<polygon fill="#63b8ff" stroke="#63b8ff" points="455.51,-25.01 464.29,-19.08 453.73,-18.23 455.51,-25.01"/>
</a>
</g>
</g>
</g>
</svg>
