<?xml version="1.0" encoding="UTF-8" standalone="no"?>
<!DOCTYPE svg PUBLIC "-//W3C//DTD SVG 1.1//EN"
 "http://www.w3.org/Graphics/SVG/1.1/DTD/svg11.dtd">
<!-- Generated by graphviz version 2.43.0 (0)
 -->
<!-- Title: src/MissionManager/SimpleMissionItem.h Pages: 1 -->
<svg width="794pt" height="170pt"
 viewBox="0.00 0.00 793.87 170.00" xmlns="http://www.w3.org/2000/svg" xmlns:xlink="http://www.w3.org/1999/xlink">
<g id="graph0" class="graph" transform="scale(1 1) rotate(0) translate(4 166)">
<title>src/MissionManager/SimpleMissionItem.h</title>
<!-- Node1 -->
<g id="Node000001" class="node">
<title>Node1</title>
<g id="a_Node000001"><a xlink:title=" ">
<polygon fill="#999999" stroke="#666666" points="462,-162 340,-162 340,-132 462,-132 462,-162"/>
<text text-anchor="start" x="348" y="-150" font-family="Helvetica,sans-Serif" font-size="10.00">src/MissionManager</text>
<text text-anchor="middle" x="401" y="-139" font-family="Helvetica,sans-Serif" font-size="10.00">/SimpleMissionItem.h</text>
</a>
</g>
</g>
<!-- Node2 -->
<g id="Node000002" class="node">
<title>Node2</title>
<g id="a_Node000002"><a xlink:href="CameraSection_8cc.html" target="_top" xlink:title=" ">
<polygon fill="white" stroke="#666666" points="114,-96 0,-96 0,-66 114,-66 114,-96"/>
<text text-anchor="start" x="8" y="-84" font-family="Helvetica,sans-Serif" font-size="10.00">src/MissionManager</text>
<text text-anchor="middle" x="57" y="-73" font-family="Helvetica,sans-Serif" font-size="10.00">/CameraSection.cc</text>
</a>
</g>
</g>
<!-- Node1&#45;&gt;Node2 -->
<g id="edge1_Node000001_Node000002" class="edge">
<title>Node1&#45;&gt;Node2</title>
<g id="a_edge1_Node000001_Node000002"><a xlink:title=" ">
<path fill="none" stroke="#63b8ff" d="M329.95,-133.26C274.82,-123.31 196.51,-109.03 128,-96 123.56,-95.16 118.96,-94.27 114.34,-93.38"/>
<polygon fill="#63b8ff" stroke="#63b8ff" points="329.5,-136.74 339.97,-135.07 330.75,-129.85 329.5,-136.74"/>
</a>
</g>
</g>
<!-- Node3 -->
<g id="Node000003" class="node">
<title>Node3</title>
<g id="a_Node000003"><a xlink:href="LandingComplexItem_8cc.html" target="_top" xlink:title=" ">
<polygon fill="white" stroke="#666666" points="210.5,-30 73.5,-30 73.5,0 210.5,0 210.5,-30"/>
<text text-anchor="start" x="81.5" y="-18" font-family="Helvetica,sans-Serif" font-size="10.00">src/MissionManager</text>
<text text-anchor="middle" x="142" y="-7" font-family="Helvetica,sans-Serif" font-size="10.00">/LandingComplexItem.cc</text>
</a>
</g>
</g>
<!-- Node1&#45;&gt;Node3 -->
<g id="edge2_Node000001_Node000003" class="edge">
<title>Node1&#45;&gt;Node3</title>
<g id="a_edge2_Node000001_Node000003"><a xlink:title=" ">
<path fill="none" stroke="#63b8ff" d="M329.87,-139.58C268.02,-132.54 184.7,-119.05 161,-96 143.19,-78.68 140.82,-47.95 141.12,-30.04"/>
<polygon fill="#63b8ff" stroke="#63b8ff" points="329.66,-143.08 339.98,-140.7 330.43,-136.12 329.66,-143.08"/>
</a>
</g>
</g>
<!-- Node4 -->
<g id="Node000004" class="node">
<title>Node4</title>
<g id="a_Node000004"><a xlink:href="MissionController_8cc.html" target="_top" xlink:title=" ">
<polygon fill="white" stroke="#666666" points="674,-30 556,-30 556,0 674,0 674,-30"/>
<text text-anchor="start" x="564" y="-18" font-family="Helvetica,sans-Serif" font-size="10.00">src/MissionManager</text>
<text text-anchor="middle" x="615" y="-7" font-family="Helvetica,sans-Serif" font-size="10.00">/MissionController.cc</text>
</a>
</g>
</g>
<!-- Node1&#45;&gt;Node4 -->
<g id="edge3_Node000001_Node000004" class="edge">
<title>Node1&#45;&gt;Node4</title>
<g id="a_edge3_Node000001_Node000004"><a xlink:title=" ">
<path fill="none" stroke="#63b8ff" d="M472.24,-141.52C575.66,-134.29 757.27,-118.53 777,-96 811.2,-56.95 733.48,-34.95 674.25,-24.28"/>
<polygon fill="#63b8ff" stroke="#63b8ff" points="471.91,-138.04 462.18,-142.22 472.4,-145.02 471.91,-138.04"/>
</a>
</g>
</g>
<!-- Node5 -->
<g id="Node000005" class="node">
<title>Node5</title>
<g id="a_Node000005"><a xlink:href="MissionFlightStatusCalculator_8cc.html" target="_top" xlink:title=" ">
<polygon fill="white" stroke="#666666" points="490,-96 312,-96 312,-66 490,-66 490,-96"/>
<text text-anchor="start" x="320" y="-84" font-family="Helvetica,sans-Serif" font-size="10.00">src/MissionManager</text>
<text text-anchor="middle" x="401" y="-73" font-family="Helvetica,sans-Serif" font-size="10.00">/MissionFlightStatusCalculator.cc</text>
</a>
</g>
</g>
<!-- Node1&#45;&gt;Node5 -->
<g id="edge4_Node000001_Node000005" class="edge">
<title>Node1&#45;&gt;Node5</title>
<g id="a_edge4_Node000001_Node000005"><a xlink:title=" ">
<path fill="none" stroke="#63b8ff" d="M401,-121.54C401,-112.96 401,-103.61 401,-96.16"/>
<polygon fill="#63b8ff" stroke="#63b8ff" points="397.5,-121.8 401,-131.8 404.5,-121.8 397.5,-121.8"/>
</a>
</g>
</g>
<!-- Node6 -->
<g id="Node000006" class="node">
<title>Node6</title>
<g id="a_Node000006"><a xlink:href="SimpleMissionItem_8cc.html" target="_top" xlink:title=" ">
<polygon fill="white" stroke="#666666" points="635.5,-96 508.5,-96 508.5,-66 635.5,-66 635.5,-96"/>
<text text-anchor="start" x="516.5" y="-84" font-family="Helvetica,sans-Serif" font-size="10.00">src/MissionManager</text>
<text text-anchor="middle" x="572" y="-73" font-family="Helvetica,sans-Serif" font-size="10.00">/SimpleMissionItem.cc</text>
</a>
</g>
</g>
<!-- Node1&#45;&gt;Node6 -->
<g id="edge5_Node000001_Node000006" class="edge">
<title>Node1&#45;&gt;Node6</title>
<g id="a_edge5_Node000001_Node000006"><a xlink:title=" ">
<path fill="none" stroke="#63b8ff" d="M448.23,-128.32C475.45,-118.14 509.19,-105.51 534.56,-96.01"/>
<polygon fill="#63b8ff" stroke="#63b8ff" points="446.67,-125.17 438.53,-131.95 449.12,-131.73 446.67,-125.17"/>
</a>
</g>
</g>
<!-- Node7 -->
<g id="Node000007" class="node">
<title>Node7</title>
<g id="a_Node000007"><a xlink:href="SpeedSection_8cc.html" target="_top" xlink:title=" ">
<polygon fill="white" stroke="#666666" points="768,-96 654,-96 654,-66 768,-66 768,-96"/>
<text text-anchor="start" x="662" y="-84" font-family="Helvetica,sans-Serif" font-size="10.00">src/MissionManager</text>
<text text-anchor="middle" x="711" y="-73" font-family="Helvetica,sans-Serif" font-size="10.00">/SpeedSection.cc</text>
</a>
</g>
</g>
<!-- Node1&#45;&gt;Node7 -->
<g id="edge6_Node000001_Node000007" class="edge">
<title>Node1&#45;&gt;Node7</title>
<g id="a_edge6_Node000001_Node000007"><a xlink:title=" ">
<path fill="none" stroke="#63b8ff" d="M472,-131.59C520.7,-121.67 586.78,-108.14 645,-96 647.87,-95.4 650.8,-94.79 653.77,-94.17"/>
<polygon fill="#63b8ff" stroke="#63b8ff" points="471.29,-128.16 462.19,-133.58 472.69,-135.02 471.29,-128.16"/>
</a>
</g>
</g>
<!-- Node8 -->
<g id="Node000008" class="node">
<title>Node8</title>
<g id="a_Node000008"><a xlink:href="TakeoffMissionItem_8h.html" target="_top" xlink:title=" ">
<polygon fill="white" stroke="#666666" points="293.5,-96 170.5,-96 170.5,-66 293.5,-66 293.5,-96"/>
<text text-anchor="start" x="178.5" y="-84" font-family="Helvetica,sans-Serif" font-size="10.00">src/MissionManager</text>
<text text-anchor="middle" x="232" y="-73" font-family="Helvetica,sans-Serif" font-size="10.00">/TakeoffMissionItem.h</text>
</a>
</g>
</g>
<!-- Node1&#45;&gt;Node8 -->
<g id="edge7_Node000001_Node000008" class="edge">
<title>Node1&#45;&gt;Node8</title>
<g id="a_edge7_Node000001_Node000008"><a xlink:title=" ">
<path fill="none" stroke="#63b8ff" d="M354.32,-128.32C327.42,-118.14 294.08,-105.51 269,-96.01"/>
<polygon fill="#63b8ff" stroke="#63b8ff" points="353.32,-131.69 363.91,-131.95 355.8,-125.14 353.32,-131.69"/>
</a>
</g>
</g>
<!-- Node8&#45;&gt;Node3 -->
<g id="edge8_Node000008_Node000003" class="edge">
<title>Node8&#45;&gt;Node3</title>
<g id="a_edge8_Node000008_Node000003"><a xlink:title=" ">
<path fill="none" stroke="#63b8ff" d="M203.53,-59.75C189.99,-50.13 174.14,-38.86 161.92,-30.16"/>
<polygon fill="#63b8ff" stroke="#63b8ff" points="201.85,-62.85 212.03,-65.8 205.9,-57.15 201.85,-62.85"/>
</a>
</g>
</g>
<!-- Node8&#45;&gt;Node4 -->
<g id="edge9_Node000008_Node000004" class="edge">
<title>Node8&#45;&gt;Node4</title>
<g id="a_edge9_Node000008_Node000004"><a xlink:title=" ">
<path fill="none" stroke="#63b8ff" d="M303.54,-65.94C397.83,-49.22 495.28,-34.03 555.95,-24.82"/>
<polygon fill="#63b8ff" stroke="#63b8ff" points="302.78,-62.52 293.55,-67.72 304.01,-69.42 302.78,-62.52"/>
</a>
</g>
</g>
<!-- Node9 -->
<g id="Node000009" class="node">
<title>Node9</title>
<g id="a_Node000009"><a xlink:href="TakeoffMissionItem_8cc.html" target="_top" xlink:title=" ">
<polygon fill="white" stroke="#666666" points="357,-30 229,-30 229,0 357,0 357,-30"/>
<text text-anchor="start" x="237" y="-18" font-family="Helvetica,sans-Serif" font-size="10.00">src/MissionManager</text>
<text text-anchor="middle" x="293" y="-7" font-family="Helvetica,sans-Serif" font-size="10.00">/TakeoffMissionItem.cc</text>
</a>
</g>
</g>
<!-- Node8&#45;&gt;Node9 -->
<g id="edge10_Node000008_Node000009" class="edge">
<title>Node8&#45;&gt;Node9</title>
<g id="a_edge10_Node000008_Node000009"><a xlink:title=" ">
<path fill="none" stroke="#63b8ff" d="M252.62,-58.37C261.49,-49.06 271.61,-38.44 279.5,-30.16"/>
<polygon fill="#63b8ff" stroke="#63b8ff" points="249.9,-56.14 245.54,-65.8 254.97,-60.97 249.9,-56.14"/>
</a>
</g>
</g>
</g>
</svg>
