<?xml version="1.0" encoding="UTF-8" standalone="no"?>
<!DOCTYPE svg PUBLIC "-//W3C//DTD SVG 1.1//EN"
 "http://www.w3.org/Graphics/SVG/1.1/DTD/svg11.dtd">
<!-- Generated by graphviz version 2.43.0 (0)
 -->
<!-- Title: src/PositionManager/SimulatedPosition.cc Pages: 1 -->
<svg width="1909pt" height="379pt"
 viewBox="0.00 0.00 1909.00 379.00" xmlns="http://www.w3.org/2000/svg" xmlns:xlink="http://www.w3.org/1999/xlink">
<g id="graph0" class="graph" transform="scale(1 1) rotate(0) translate(4 375)">
<title>src/PositionManager/SimulatedPosition.cc</title>
<!-- Node1 -->
<g id="Node000001" class="node">
<title>Node1</title>
<g id="a_Node000001"><a xlink:title=" ">
<polygon fill="#999999" stroke="#666666" points="1659.5,-371 1537.5,-371 1537.5,-341 1659.5,-341 1659.5,-371"/>
<text text-anchor="start" x="1545.5" y="-359" font-family="Helvetica,sans-Serif" font-size="10.00">src/PositionManager</text>
<text text-anchor="middle" x="1598.5" y="-348" font-family="Helvetica,sans-Serif" font-size="10.00">/SimulatedPosition.cc</text>
</a>
</g>
</g>
<!-- Node2 -->
<g id="Node000002" class="node">
<title>Node2</title>
<g id="a_Node000002"><a xlink:href="SimulatedPosition_8h.html" target="_top" xlink:title=" ">
<polygon fill="white" stroke="#666666" points="497.5,-305 383.5,-305 383.5,-286 497.5,-286 497.5,-305"/>
<text text-anchor="middle" x="440.5" y="-293" font-family="Helvetica,sans-Serif" font-size="10.00">SimulatedPosition.h</text>
</a>
</g>
</g>
<!-- Node1&#45;&gt;Node2 -->
<g id="edge1_Node000001_Node000002" class="edge">
<title>Node1&#45;&gt;Node2</title>
<g id="a_edge1_Node000001_Node000002"><a xlink:title=" ">
<path fill="none" stroke="#63b8ff" d="M1537.47,-351.92C1339.29,-341.91 714.75,-310.35 507.83,-299.9"/>
<polygon fill="#63b8ff" stroke="#63b8ff" points="507.88,-296.4 497.72,-299.39 507.53,-303.39 507.88,-296.4"/>
</a>
</g>
</g>
<!-- Node4 -->
<g id="Node000004" class="node">
<title>Node4</title>
<g id="a_Node000004"><a xlink:href="MultiVehicleManager_8h.html" target="_top" xlink:title=" ">
<polygon fill="white" stroke="#666666" points="878.5,-74 750.5,-74 750.5,-55 878.5,-55 878.5,-74"/>
<text text-anchor="middle" x="814.5" y="-62" font-family="Helvetica,sans-Serif" font-size="10.00">MultiVehicleManager.h</text>
</a>
</g>
</g>
<!-- Node1&#45;&gt;Node4 -->
<g id="edge3_Node000001_Node000004" class="edge">
<title>Node1&#45;&gt;Node4</title>
<g id="a_edge3_Node000001_Node000004"><a xlink:title=" ">
<path fill="none" stroke="#63b8ff" d="M1591.04,-340.67C1575.46,-312.36 1536.57,-249.45 1484.5,-220 1397.12,-170.57 1359.7,-204.89 1261.5,-184 1108.37,-151.43 929.18,-99.72 852.47,-76.93"/>
<polygon fill="#63b8ff" stroke="#63b8ff" points="853.35,-73.54 842.77,-74.04 851.35,-80.25 853.35,-73.54"/>
</a>
</g>
</g>
<!-- Node7 -->
<g id="Node000007" class="node">
<title>Node7</title>
<g id="a_Node000007"><a xlink:href="Vehicle_8h.html" target="_top" xlink:title=" ">
<polygon fill="white" stroke="#666666" points="1019,-305 958,-305 958,-286 1019,-286 1019,-305"/>
<text text-anchor="middle" x="988.5" y="-293" font-family="Helvetica,sans-Serif" font-size="10.00">Vehicle.h</text>
</a>
</g>
</g>
<!-- Node1&#45;&gt;Node7 -->
<g id="edge6_Node000001_Node000007" class="edge">
<title>Node1&#45;&gt;Node7</title>
<g id="a_edge6_Node000001_Node000007"><a xlink:title=" ">
<path fill="none" stroke="#63b8ff" d="M1537.5,-349.15C1413.37,-337.25 1134.3,-310.48 1029.4,-300.42"/>
<polygon fill="#63b8ff" stroke="#63b8ff" points="1029.51,-296.92 1019.22,-299.45 1028.84,-303.88 1029.51,-296.92"/>
</a>
</g>
</g>
<!-- Node15 -->
<g id="Node000015" class="node">
<title>Node15</title>
<g id="a_Node000015"><a xlink:title=" ">
<polygon fill="#e0e0e0" stroke="#999999" points="1614,-129 1525,-129 1525,-110 1614,-110 1614,-129"/>
<text text-anchor="middle" x="1569.5" y="-117" font-family="Helvetica,sans-Serif" font-size="10.00">QtCore/QTimer</text>
</a>
</g>
</g>
<!-- Node1&#45;&gt;Node15 -->
<g id="edge56_Node000001_Node000015" class="edge">
<title>Node1&#45;&gt;Node15</title>
<g id="a_edge56_Node000001_Node000015"><a xlink:title=" ">
<path fill="none" stroke="#63b8ff" d="M1598.9,-340.73C1599.39,-316.01 1599.52,-263.68 1593.5,-220 1589.55,-191.32 1580.91,-158.84 1575.14,-139.02"/>
<polygon fill="#63b8ff" stroke="#63b8ff" points="1578.42,-137.76 1572.21,-129.17 1571.71,-139.76 1578.42,-137.76"/>
</a>
</g>
</g>
<!-- Node38 -->
<g id="Node000038" class="node">
<title>Node38</title>
<g id="a_Node000038"><a xlink:href="QGCLoggingCategory_8h.html" target="_top" xlink:title=" ">
<polygon fill="white" stroke="#666666" points="1773.5,-305 1645.5,-305 1645.5,-286 1773.5,-286 1773.5,-305"/>
<text text-anchor="middle" x="1709.5" y="-293" font-family="Helvetica,sans-Serif" font-size="10.00">QGCLoggingCategory.h</text>
</a>
</g>
</g>
<!-- Node1&#45;&gt;Node38 -->
<g id="edge53_Node000001_Node000038" class="edge">
<title>Node1&#45;&gt;Node38</title>
<g id="a_edge53_Node000001_Node000038"><a xlink:title=" ">
<path fill="none" stroke="#63b8ff" d="M1625.09,-340.99C1642.95,-331.58 1666.34,-319.24 1683.98,-309.95"/>
<polygon fill="#63b8ff" stroke="#63b8ff" points="1685.89,-312.9 1693.11,-305.14 1682.63,-306.71 1685.89,-312.9"/>
</a>
</g>
</g>
<!-- Node40 -->
<g id="Node000040" class="node">
<title>Node40</title>
<g id="a_Node000040"><a xlink:title=" ">
<polygon fill="#e0e0e0" stroke="#999999" points="1901,-305 1792,-305 1792,-286 1901,-286 1901,-305"/>
<text text-anchor="middle" x="1846.5" y="-293" font-family="Helvetica,sans-Serif" font-size="10.00">QtCore/QDateTime</text>
</a>
</g>
</g>
<!-- Node1&#45;&gt;Node40 -->
<g id="edge55_Node000001_Node000040" class="edge">
<title>Node1&#45;&gt;Node40</title>
<g id="a_edge55_Node000001_Node000040"><a xlink:title=" ">
<path fill="none" stroke="#63b8ff" d="M1657.9,-340.99C1701.63,-330.67 1760.22,-316.85 1800.43,-307.37"/>
<polygon fill="#63b8ff" stroke="#63b8ff" points="1801.31,-310.76 1810.24,-305.05 1799.7,-303.94 1801.31,-310.76"/>
</a>
</g>
</g>
<!-- Node3 -->
<g id="Node000003" class="node">
<title>Node3</title>
<g id="a_Node000003"><a xlink:title=" ">
<polygon fill="#e0e0e0" stroke="#999999" points="151,-250 0,-250 0,-220 151,-220 151,-250"/>
<text text-anchor="start" x="8" y="-238" font-family="Helvetica,sans-Serif" font-size="10.00">QtPositioning/QGeoPosition</text>
<text text-anchor="middle" x="75.5" y="-227" font-family="Helvetica,sans-Serif" font-size="10.00">InfoSource</text>
</a>
</g>
</g>
<!-- Node2&#45;&gt;Node3 -->
<g id="edge2_Node000002_Node000003" class="edge">
<title>Node2&#45;&gt;Node3</title>
<g id="a_edge2_Node000002_Node000003"><a xlink:title=" ">
<path fill="none" stroke="#63b8ff" d="M387.43,-285.99C328.16,-276.49 231.37,-260.98 161.31,-249.75"/>
<polygon fill="#63b8ff" stroke="#63b8ff" points="161.6,-246.26 151.18,-248.13 160.5,-253.17 161.6,-246.26"/>
</a>
</g>
</g>
<!-- Node5 -->
<g id="Node000005" class="node">
<title>Node5</title>
<g id="a_Node000005"><a xlink:title=" ">
<polygon fill="#e0e0e0" stroke="#999999" points="860.5,-19 768.5,-19 768.5,0 860.5,0 860.5,-19"/>
<text text-anchor="middle" x="814.5" y="-7" font-family="Helvetica,sans-Serif" font-size="10.00">QtCore/QObject</text>
</a>
</g>
</g>
<!-- Node4&#45;&gt;Node5 -->
<g id="edge4_Node000004_Node000005" class="edge">
<title>Node4&#45;&gt;Node5</title>
<g id="a_edge4_Node000004_Node000005"><a xlink:title=" ">
<path fill="none" stroke="#63b8ff" d="M814.5,-54.75C814.5,-47.8 814.5,-37.85 814.5,-29.13"/>
<polygon fill="#63b8ff" stroke="#63b8ff" points="818,-29.09 814.5,-19.09 811,-29.09 818,-29.09"/>
</a>
</g>
</g>
<!-- Node6 -->
<g id="Node000006" class="node">
<title>Node6</title>
<g id="a_Node000006"><a xlink:title=" ">
<polygon fill="#e0e0e0" stroke="#999999" points="1545,-19 1356,-19 1356,0 1545,0 1545,-19"/>
<text text-anchor="middle" x="1450.5" y="-7" font-family="Helvetica,sans-Serif" font-size="10.00">QtQmlIntegration/QtQmlIntegration</text>
</a>
</g>
</g>
<!-- Node4&#45;&gt;Node6 -->
<g id="edge5_Node000004_Node000006" class="edge">
<title>Node4&#45;&gt;Node6</title>
<g id="a_edge5_Node000004_Node000006"><a xlink:title=" ">
<path fill="none" stroke="#63b8ff" d="M878.69,-58.15C988.43,-49.01 1213.08,-30.28 1345.79,-19.23"/>
<polygon fill="#63b8ff" stroke="#63b8ff" points="1346.3,-22.7 1355.97,-18.38 1345.72,-15.72 1346.3,-22.7"/>
</a>
</g>
</g>
<!-- Node7&#45;&gt;Node5 -->
<g id="edge11_Node000007_Node000005" class="edge">
<title>Node7&#45;&gt;Node5</title>
<g id="a_edge11_Node000007_Node000005"><a xlink:title=" ">
<path fill="none" stroke="#63b8ff" d="M957.86,-293.78C815.98,-290.32 228.33,-274.55 198.5,-250 172.12,-228.28 179.5,-209.67 179.5,-175.5 179.5,-175.5 179.5,-175.5 179.5,-118.5 179.5,-60.09 602.53,-25.08 758.03,-14.18"/>
<polygon fill="#63b8ff" stroke="#63b8ff" points="758.59,-17.65 768.32,-13.47 758.1,-10.67 758.59,-17.65"/>
</a>
</g>
</g>
<!-- Node7&#45;&gt;Node6 -->
<g id="edge18_Node000007_Node000006" class="edge">
<title>Node7&#45;&gt;Node6</title>
<g id="a_edge18_Node000007_Node000006"><a xlink:title=" ">
<path fill="none" stroke="#63b8ff" d="M1019.11,-294.79C1117.59,-295.29 1424.91,-293.27 1512.5,-250 1583.45,-214.95 1662.04,-178.55 1622.5,-110 1595.05,-62.42 1535.21,-35.53 1493.88,-22.01"/>
<polygon fill="#63b8ff" stroke="#63b8ff" points="1494.92,-18.66 1484.33,-19.01 1492.82,-25.34 1494.92,-18.66"/>
</a>
</g>
</g>
<!-- Node8 -->
<g id="Node000008" class="node">
<title>Node8</title>
<g id="a_Node000008"><a xlink:title=" ">
<polygon fill="#e0e0e0" stroke="#999999" points="1399,-244.5 1334,-244.5 1334,-225.5 1399,-225.5 1399,-244.5"/>
<text text-anchor="middle" x="1366.5" y="-232.5" font-family="Helvetica,sans-Serif" font-size="10.00">functional</text>
</a>
</g>
</g>
<!-- Node7&#45;&gt;Node8 -->
<g id="edge7_Node000007_Node000008" class="edge">
<title>Node7&#45;&gt;Node8</title>
<g id="a_edge7_Node000007_Node000008"><a xlink:title=" ">
<path fill="none" stroke="#63b8ff" d="M1019.43,-292.38C1079.06,-287.86 1213.84,-275.53 1324.5,-250 1327.55,-249.3 1330.69,-248.46 1333.81,-247.56"/>
<polygon fill="#63b8ff" stroke="#63b8ff" points="1335.11,-250.82 1343.62,-244.5 1333.03,-244.14 1335.11,-250.82"/>
</a>
</g>
</g>
<!-- Node9 -->
<g id="Node000009" class="node">
<title>Node9</title>
<g id="a_Node000009"><a xlink:title=" ">
<polygon fill="#e0e0e0" stroke="#999999" points="1475.5,-244.5 1417.5,-244.5 1417.5,-225.5 1475.5,-225.5 1475.5,-244.5"/>
<text text-anchor="middle" x="1446.5" y="-232.5" font-family="Helvetica,sans-Serif" font-size="10.00">memory</text>
</a>
</g>
</g>
<!-- Node7&#45;&gt;Node9 -->
<g id="edge8_Node000007_Node000009" class="edge">
<title>Node7&#45;&gt;Node9</title>
<g id="a_edge8_Node000007_Node000009"><a xlink:title=" ">
<path fill="none" stroke="#63b8ff" d="M1019.14,-293.74C1088.93,-291.48 1264.71,-282.71 1407.5,-250 1410.17,-249.39 1412.91,-248.65 1415.63,-247.83"/>
<polygon fill="#63b8ff" stroke="#63b8ff" points="1416.92,-251.1 1425.32,-244.64 1414.73,-244.45 1416.92,-251.1"/>
</a>
</g>
</g>
<!-- Node10 -->
<g id="Node000010" class="node">
<title>Node10</title>
<g id="a_Node000010"><a xlink:title=" ">
<polygon fill="#e0e0e0" stroke="#999999" points="335.5,-244.5 207.5,-244.5 207.5,-225.5 335.5,-225.5 335.5,-244.5"/>
<text text-anchor="middle" x="271.5" y="-232.5" font-family="Helvetica,sans-Serif" font-size="10.00">QtCore/QElapsedTimer</text>
</a>
</g>
</g>
<!-- Node7&#45;&gt;Node10 -->
<g id="edge9_Node000007_Node000010" class="edge">
<title>Node7&#45;&gt;Node10</title>
<g id="a_edge9_Node000007_Node000010"><a xlink:title=" ">
<path fill="none" stroke="#63b8ff" d="M957.87,-293.69C865.11,-290.97 579.28,-280.51 344.5,-250 336.94,-249.02 328.97,-247.74 321.2,-246.36"/>
<polygon fill="#63b8ff" stroke="#63b8ff" points="321.61,-242.88 311.14,-244.5 320.34,-249.76 321.61,-242.88"/>
</a>
</g>
</g>
<!-- Node11 -->
<g id="Node000011" class="node">
<title>Node11</title>
<g id="a_Node000011"><a xlink:title=" ">
<polygon fill="#e0e0e0" stroke="#999999" points="431.5,-244.5 353.5,-244.5 353.5,-225.5 431.5,-225.5 431.5,-244.5"/>
<text text-anchor="middle" x="392.5" y="-232.5" font-family="Helvetica,sans-Serif" font-size="10.00">QtCore/QFile</text>
</a>
</g>
</g>
<!-- Node7&#45;&gt;Node11 -->
<g id="edge10_Node000007_Node000011" class="edge">
<title>Node7&#45;&gt;Node11</title>
<g id="a_edge10_Node000007_Node000011"><a xlink:title=" ">
<path fill="none" stroke="#63b8ff" d="M957.92,-294.18C874.33,-292.85 635.28,-285.93 440.5,-250 436.37,-249.24 432.09,-248.26 427.86,-247.19"/>
<polygon fill="#63b8ff" stroke="#63b8ff" points="428.75,-243.8 418.18,-244.53 426.89,-250.55 428.75,-243.8"/>
</a>
</g>
</g>
<!-- Node12 -->
<g id="Node000012" class="node">
<title>Node12</title>
<g id="a_Node000012"><a xlink:title=" ">
<polygon fill="#e0e0e0" stroke="#999999" points="545,-244.5 450,-244.5 450,-225.5 545,-225.5 545,-244.5"/>
<text text-anchor="middle" x="497.5" y="-232.5" font-family="Helvetica,sans-Serif" font-size="10.00">QtCore/QPointer</text>
</a>
</g>
</g>
<!-- Node7&#45;&gt;Node12 -->
<g id="edge12_Node000007_Node000012" class="edge">
<title>Node7&#45;&gt;Node12</title>
<g id="a_edge12_Node000007_Node000012"><a xlink:title=" ">
<path fill="none" stroke="#63b8ff" d="M957.97,-292.88C886.7,-288.78 703.99,-276.37 553.5,-250 548.51,-249.13 543.3,-248.05 538.16,-246.89"/>
<polygon fill="#63b8ff" stroke="#63b8ff" points="538.97,-243.48 528.43,-244.57 537.35,-250.29 538.97,-243.48"/>
</a>
</g>
</g>
<!-- Node13 -->
<g id="Node000013" class="node">
<title>Node13</title>
<g id="a_Node000013"><a xlink:title=" ">
<polygon fill="#e0e0e0" stroke="#999999" points="692,-244.5 563,-244.5 563,-225.5 692,-225.5 692,-244.5"/>
<text text-anchor="middle" x="627.5" y="-232.5" font-family="Helvetica,sans-Serif" font-size="10.00">QtCore/QSharedPointer</text>
</a>
</g>
</g>
<!-- Node7&#45;&gt;Node13 -->
<g id="edge13_Node000007_Node000013" class="edge">
<title>Node7&#45;&gt;Node13</title>
<g id="a_edge13_Node000007_Node000013"><a xlink:title=" ">
<path fill="none" stroke="#63b8ff" d="M957.86,-290.09C905.32,-282.45 794.67,-266.03 701.5,-250 694.92,-248.87 688.02,-247.63 681.19,-246.37"/>
<polygon fill="#63b8ff" stroke="#63b8ff" points="681.75,-242.92 671.28,-244.53 680.47,-249.8 681.75,-242.92"/>
</a>
</g>
</g>
<!-- Node14 -->
<g id="Node000014" class="node">
<title>Node14</title>
<g id="a_Node000014"><a xlink:title=" ">
<polygon fill="#e0e0e0" stroke="#999999" points="796.5,-244.5 710.5,-244.5 710.5,-225.5 796.5,-225.5 796.5,-244.5"/>
<text text-anchor="middle" x="753.5" y="-232.5" font-family="Helvetica,sans-Serif" font-size="10.00">QtCore/QTime</text>
</a>
</g>
</g>
<!-- Node7&#45;&gt;Node14 -->
<g id="edge14_Node000007_Node000014" class="edge">
<title>Node7&#45;&gt;Node14</title>
<g id="a_edge14_Node000007_Node000014"><a xlink:title=" ">
<path fill="none" stroke="#63b8ff" d="M957.78,-286.85C916.86,-276.67 844.23,-258.59 797.5,-246.95"/>
<polygon fill="#63b8ff" stroke="#63b8ff" points="798.21,-243.52 787.66,-244.5 796.52,-250.32 798.21,-243.52"/>
</a>
</g>
</g>
<!-- Node7&#45;&gt;Node15 -->
<g id="edge15_Node000007_Node000015" class="edge">
<title>Node7&#45;&gt;Node15</title>
<g id="a_edge15_Node000007_Node000015"><a xlink:title=" ">
<path fill="none" stroke="#63b8ff" d="M1019.17,-293.29C1121.13,-289.07 1444.59,-273.91 1484.5,-250 1506.57,-236.78 1543.12,-171.01 1560.18,-138.6"/>
<polygon fill="#63b8ff" stroke="#63b8ff" points="1563.48,-139.85 1565,-129.36 1557.27,-136.61 1563.48,-139.85"/>
</a>
</g>
</g>
<!-- Node16 -->
<g id="Node000016" class="node">
<title>Node16</title>
<g id="a_Node000016"><a xlink:title=" ">
<polygon fill="#e0e0e0" stroke="#999999" points="966,-244.5 853,-244.5 853,-225.5 966,-225.5 966,-244.5"/>
<text text-anchor="middle" x="909.5" y="-232.5" font-family="Helvetica,sans-Serif" font-size="10.00">QtCore/QVariantList</text>
</a>
</g>
</g>
<!-- Node7&#45;&gt;Node16 -->
<g id="edge16_Node000007_Node000016" class="edge">
<title>Node7&#45;&gt;Node16</title>
<g id="a_edge16_Node000007_Node000016"><a xlink:title=" ">
<path fill="none" stroke="#63b8ff" d="M976.84,-285.87C964.36,-276.62 944.32,-261.78 929.34,-250.69"/>
<polygon fill="#63b8ff" stroke="#63b8ff" points="931.32,-247.81 921.2,-244.67 927.16,-253.43 931.32,-247.81"/>
</a>
</g>
</g>
<!-- Node17 -->
<g id="Node000017" class="node">
<title>Node17</title>
<g id="a_Node000017"><a xlink:title=" ">
<polygon fill="#e0e0e0" stroke="#999999" points="1149,-244.5 984,-244.5 984,-225.5 1149,-225.5 1149,-244.5"/>
<text text-anchor="middle" x="1066.5" y="-232.5" font-family="Helvetica,sans-Serif" font-size="10.00">QtPositioning/QGeoCoordinate</text>
</a>
</g>
</g>
<!-- Node7&#45;&gt;Node17 -->
<g id="edge17_Node000007_Node000017" class="edge">
<title>Node7&#45;&gt;Node17</title>
<g id="a_edge17_Node000007_Node000017"><a xlink:title=" ">
<path fill="none" stroke="#63b8ff" d="M1000.01,-285.87C1012.34,-276.62 1032.12,-261.78 1046.91,-250.69"/>
<polygon fill="#63b8ff" stroke="#63b8ff" points="1049.04,-253.47 1054.94,-244.67 1044.84,-247.87 1049.04,-253.47"/>
</a>
</g>
</g>
<!-- Node18 -->
<g id="Node000018" class="node">
<title>Node18</title>
<g id="a_Node000018"><a xlink:href="QGCMAVLink_8h.html" target="_top" xlink:title=" ">
<polygon fill="white" stroke="#666666" points="608,-184 519,-184 519,-165 608,-165 608,-184"/>
<text text-anchor="middle" x="563.5" y="-172" font-family="Helvetica,sans-Serif" font-size="10.00">QGCMAVLink.h</text>
</a>
</g>
</g>
<!-- Node7&#45;&gt;Node18 -->
<g id="edge19_Node000007_Node000018" class="edge">
<title>Node7&#45;&gt;Node18</title>
<g id="a_edge19_Node000007_Node000018"><a xlink:title=" ">
<path fill="none" stroke="#63b8ff" d="M957.79,-288.55C927.53,-281.9 880.58,-269.45 843.5,-250 824.44,-240.01 825.1,-228.87 805.5,-220 788.69,-212.39 684.36,-194.79 618.29,-184.14"/>
<polygon fill="#63b8ff" stroke="#63b8ff" points="618.46,-180.62 608.03,-182.5 617.35,-187.54 618.46,-180.62"/>
</a>
</g>
</g>
<!-- Node27 -->
<g id="Node000027" class="node">
<title>Node27</title>
<g id="a_Node000027"><a xlink:href="VehicleFactGroup_8h.html" target="_top" xlink:title=" ">
<polygon fill="white" stroke="#666666" points="1315.5,-244.5 1205.5,-244.5 1205.5,-225.5 1315.5,-225.5 1315.5,-244.5"/>
<text text-anchor="middle" x="1260.5" y="-232.5" font-family="Helvetica,sans-Serif" font-size="10.00">VehicleFactGroup.h</text>
</a>
</g>
</g>
<!-- Node7&#45;&gt;Node27 -->
<g id="edge30_Node000007_Node000027" class="edge">
<title>Node7&#45;&gt;Node27</title>
<g id="a_edge30_Node000007_Node000027"><a xlink:title=" ">
<path fill="none" stroke="#63b8ff" d="M1019.17,-287.9C1065.74,-277.89 1154.74,-258.75 1210.68,-246.72"/>
<polygon fill="#63b8ff" stroke="#63b8ff" points="1211.68,-250.08 1220.72,-244.56 1210.2,-243.24 1211.68,-250.08"/>
</a>
</g>
</g>
<!-- Node37 -->
<g id="Node000037" class="node">
<title>Node37</title>
<g id="a_Node000037"><a xlink:href="VehicleTypes_8h.html" target="_top" xlink:title=" ">
<polygon fill="white" stroke="#666666" points="725,-184 636,-184 636,-165 725,-165 725,-184"/>
<text text-anchor="middle" x="680.5" y="-172" font-family="Helvetica,sans-Serif" font-size="10.00">VehicleTypes.h</text>
</a>
</g>
</g>
<!-- Node7&#45;&gt;Node37 -->
<g id="edge50_Node000007_Node000037" class="edge">
<title>Node7&#45;&gt;Node37</title>
<g id="a_edge50_Node000007_Node000037"><a xlink:title=" ">
<path fill="none" stroke="#63b8ff" d="M1019.43,-291.75C1078.89,-285.35 1199.72,-266.34 1157.5,-220 1129.5,-189.27 854.32,-179.4 735.11,-176.55"/>
<polygon fill="#63b8ff" stroke="#63b8ff" points="735.17,-173.05 725.09,-176.32 735.01,-180.05 735.17,-173.05"/>
</a>
</g>
</g>
<!-- Node18&#45;&gt;Node5 -->
<g id="edge21_Node000018_Node000005" class="edge">
<title>Node18&#45;&gt;Node5</title>
<g id="a_edge21_Node000018_Node000005"><a xlink:title=" ">
<path fill="none" stroke="#63b8ff" d="M518.53,-170.55C462.65,-165.83 372.12,-154.4 351.5,-129 346.18,-122.44 347.19,-117.26 351.5,-110 392.78,-40.51 643.75,-19.07 757.97,-12.86"/>
<polygon fill="#63b8ff" stroke="#63b8ff" points="758.46,-16.34 768.26,-12.32 758.09,-9.35 758.46,-16.34"/>
</a>
</g>
</g>
<!-- Node18&#45;&gt;Node6 -->
<g id="edge23_Node000018_Node000006" class="edge">
<title>Node18&#45;&gt;Node6</title>
<g id="a_edge23_Node000018_Node000006"><a xlink:title=" ">
<path fill="none" stroke="#63b8ff" d="M608.19,-167C614.33,-166.25 620.57,-165.55 626.5,-165 784.25,-150.4 1188.74,-180.69 1338.5,-129 1358.55,-122.08 1402.45,-89.89 1416.5,-74 1428.4,-60.55 1437.65,-42.21 1443.47,-28.69"/>
<polygon fill="#63b8ff" stroke="#63b8ff" points="1446.86,-29.66 1447.4,-19.08 1440.38,-27.01 1446.86,-29.66"/>
</a>
</g>
</g>
<!-- Node19 -->
<g id="Node000019" class="node">
<title>Node19</title>
<g id="a_Node000019"><a xlink:title=" ">
<polygon fill="#e0e0e0" stroke="#999999" points="438.5,-129 360.5,-129 360.5,-110 438.5,-110 438.5,-129"/>
<text text-anchor="middle" x="399.5" y="-117" font-family="Helvetica,sans-Serif" font-size="10.00">QtCore/QList</text>
</a>
</g>
</g>
<!-- Node18&#45;&gt;Node19 -->
<g id="edge20_Node000018_Node000019" class="edge">
<title>Node18&#45;&gt;Node19</title>
<g id="a_edge20_Node000018_Node000019"><a xlink:title=" ">
<path fill="none" stroke="#63b8ff" d="M537.15,-164.98C509.74,-156.13 466.61,-142.19 435.94,-132.28"/>
<polygon fill="#63b8ff" stroke="#63b8ff" points="436.65,-128.83 426.06,-129.08 434.5,-135.49 436.65,-128.83"/>
</a>
</g>
</g>
<!-- Node20 -->
<g id="Node000020" class="node">
<title>Node20</title>
<g id="a_Node000020"><a xlink:title=" ">
<polygon fill="#e0e0e0" stroke="#999999" points="979,-19 890,-19 890,0 979,0 979,-19"/>
<text text-anchor="middle" x="934.5" y="-7" font-family="Helvetica,sans-Serif" font-size="10.00">QtCore/QString</text>
</a>
</g>
</g>
<!-- Node18&#45;&gt;Node20 -->
<g id="edge22_Node000018_Node000020" class="edge">
<title>Node18&#45;&gt;Node20</title>
<g id="a_edge22_Node000018_Node000020"><a xlink:title=" ">
<path fill="none" stroke="#63b8ff" d="M534,-164.97C516.56,-158.24 495.91,-146.93 485.5,-129 468.98,-100.56 463.36,-79.32 485.5,-55 514.35,-23.32 826.91,-23.78 869.5,-19 872.78,-18.63 876.15,-18.24 879.55,-17.83"/>
<polygon fill="#63b8ff" stroke="#63b8ff" points="880.27,-21.27 889.77,-16.57 879.42,-14.32 880.27,-21.27"/>
</a>
</g>
</g>
<!-- Node21 -->
<g id="Node000021" class="node">
<title>Node21</title>
<g id="a_Node000021"><a xlink:title=" ">
<polygon fill="#e0e0e0" stroke="#999999" points="731,-129 630,-129 630,-110 731,-110 731,-129"/>
<text text-anchor="middle" x="680.5" y="-117" font-family="Helvetica,sans-Serif" font-size="10.00">MAVLinkEnums.h</text>
</a>
</g>
</g>
<!-- Node18&#45;&gt;Node21 -->
<g id="edge24_Node000018_Node000021" class="edge">
<title>Node18&#45;&gt;Node21</title>
<g id="a_edge24_Node000018_Node000021"><a xlink:title=" ">
<path fill="none" stroke="#63b8ff" d="M582.3,-164.98C601.12,-156.46 630.32,-143.23 652,-133.41"/>
<polygon fill="#63b8ff" stroke="#63b8ff" points="653.7,-136.48 661.36,-129.17 650.81,-130.11 653.7,-136.48"/>
</a>
</g>
</g>
<!-- Node22 -->
<g id="Node000022" class="node">
<title>Node22</title>
<g id="a_Node000022"><a xlink:href="MAVLinkMessageType_8h.html" target="_top" xlink:title=" ">
<polygon fill="white" stroke="#666666" points="883.5,-129 749.5,-129 749.5,-110 883.5,-110 883.5,-129"/>
<text text-anchor="middle" x="816.5" y="-117" font-family="Helvetica,sans-Serif" font-size="10.00">MAVLinkMessageType.h</text>
</a>
</g>
</g>
<!-- Node18&#45;&gt;Node22 -->
<g id="edge25_Node000018_Node000022" class="edge">
<title>Node18&#45;&gt;Node22</title>
<g id="a_edge25_Node000018_Node000022"><a xlink:title=" ">
<path fill="none" stroke="#63b8ff" d="M604.15,-164.98C648,-155.8 717.92,-141.15 765.45,-131.19"/>
<polygon fill="#63b8ff" stroke="#63b8ff" points="766.46,-134.56 775.53,-129.08 765.03,-127.71 766.46,-134.56"/>
</a>
</g>
</g>
<!-- Node25 -->
<g id="Node000025" class="node">
<title>Node25</title>
<g id="a_Node000025"><a xlink:href="QGCMAVLinkTypes_8h.html" target="_top" xlink:title=" ">
<polygon fill="white" stroke="#666666" points="612,-129 495,-129 495,-110 612,-110 612,-129"/>
<text text-anchor="middle" x="553.5" y="-117" font-family="Helvetica,sans-Serif" font-size="10.00">QGCMAVLinkTypes.h</text>
</a>
</g>
</g>
<!-- Node18&#45;&gt;Node25 -->
<g id="edge28_Node000018_Node000025" class="edge">
<title>Node18&#45;&gt;Node25</title>
<g id="a_edge28_Node000018_Node000025"><a xlink:title=" ">
<path fill="none" stroke="#63b8ff" d="M561.85,-164.75C560.54,-157.8 558.66,-147.85 557.02,-139.13"/>
<polygon fill="#63b8ff" stroke="#63b8ff" points="560.41,-138.27 555.12,-129.09 553.54,-139.56 560.41,-138.27"/>
</a>
</g>
</g>
<!-- Node23 -->
<g id="Node000023" class="node">
<title>Node23</title>
<g id="a_Node000023"><a xlink:title=" ">
<polygon fill="#e0e0e0" stroke="#999999" points="732,-74 679,-74 679,-55 732,-55 732,-74"/>
<text text-anchor="middle" x="705.5" y="-62" font-family="Helvetica,sans-Serif" font-size="10.00">stdint.h</text>
</a>
</g>
</g>
<!-- Node22&#45;&gt;Node23 -->
<g id="edge26_Node000022_Node000023" class="edge">
<title>Node22&#45;&gt;Node23</title>
<g id="a_edge26_Node000022_Node000023"><a xlink:title=" ">
<path fill="none" stroke="#63b8ff" d="M798.67,-109.98C780.89,-101.5 753.35,-88.35 732.82,-78.54"/>
<polygon fill="#63b8ff" stroke="#63b8ff" points="734.19,-75.32 723.66,-74.17 731.17,-81.64 734.19,-75.32"/>
</a>
</g>
</g>
<!-- Node24 -->
<g id="Node000024" class="node">
<title>Node24</title>
<g id="a_Node000024"><a xlink:title=" ">
<polygon fill="#e0e0e0" stroke="#999999" points="660.5,-74 562.5,-74 562.5,-55 660.5,-55 660.5,-74"/>
<text text-anchor="middle" x="611.5" y="-62" font-family="Helvetica,sans-Serif" font-size="10.00">mavlink_types.h</text>
</a>
</g>
</g>
<!-- Node22&#45;&gt;Node24 -->
<g id="edge27_Node000022_Node000024" class="edge">
<title>Node22&#45;&gt;Node24</title>
<g id="a_edge27_Node000022_Node000024"><a xlink:title=" ">
<path fill="none" stroke="#63b8ff" d="M783.56,-109.98C748.55,-100.93 693.03,-86.58 654.57,-76.64"/>
<polygon fill="#63b8ff" stroke="#63b8ff" points="655.25,-73.2 644.69,-74.08 653.5,-79.97 655.25,-73.2"/>
</a>
</g>
</g>
<!-- Node26 -->
<g id="Node000026" class="node">
<title>Node26</title>
<g id="a_Node000026"><a xlink:title=" ">
<polygon fill="#e0e0e0" stroke="#999999" points="544.5,-74 494.5,-74 494.5,-55 544.5,-55 544.5,-74"/>
<text text-anchor="middle" x="519.5" y="-62" font-family="Helvetica,sans-Serif" font-size="10.00">cstdint</text>
</a>
</g>
</g>
<!-- Node25&#45;&gt;Node26 -->
<g id="edge29_Node000025_Node000026" class="edge">
<title>Node25&#45;&gt;Node26</title>
<g id="a_edge29_Node000025_Node000026"><a xlink:title=" ">
<path fill="none" stroke="#63b8ff" d="M547.89,-109.75C543.18,-102.42 536.33,-91.73 530.53,-82.7"/>
<polygon fill="#63b8ff" stroke="#63b8ff" points="533.36,-80.62 525.01,-74.09 527.46,-84.4 533.36,-80.62"/>
</a>
</g>
</g>
<!-- Node28 -->
<g id="Node000028" class="node">
<title>Node28</title>
<g id="a_Node000028"><a xlink:href="FactGroup_8h.html" target="_top" xlink:title=" ">
<polygon fill="white" stroke="#666666" points="1344.5,-184 1270.5,-184 1270.5,-165 1344.5,-165 1344.5,-184"/>
<text text-anchor="middle" x="1307.5" y="-172" font-family="Helvetica,sans-Serif" font-size="10.00">FactGroup.h</text>
</a>
</g>
</g>
<!-- Node27&#45;&gt;Node28 -->
<g id="edge31_Node000027_Node000028" class="edge">
<title>Node27&#45;&gt;Node28</title>
<g id="a_edge31_Node000027_Node000028"><a xlink:title=" ">
<path fill="none" stroke="#63b8ff" d="M1267.44,-225.37C1274.45,-216.64 1285.46,-202.93 1294.17,-192.09"/>
<polygon fill="#63b8ff" stroke="#63b8ff" points="1297,-194.16 1300.54,-184.17 1291.54,-189.77 1297,-194.16"/>
</a>
</g>
</g>
<!-- Node28&#45;&gt;Node6 -->
<g id="edge35_Node000028_Node000006" class="edge">
<title>Node28&#45;&gt;Node6</title>
<g id="a_edge35_Node000028_Node000006"><a xlink:title=" ">
<path fill="none" stroke="#63b8ff" d="M1344.86,-168.69C1389.51,-162.13 1460.36,-148.87 1477.5,-129 1499.05,-104.01 1493.85,-86.33 1483.5,-55 1480.04,-44.54 1473.07,-34.53 1466.42,-26.66"/>
<polygon fill="#63b8ff" stroke="#63b8ff" points="1468.83,-24.1 1459.52,-19.04 1463.64,-28.8 1468.83,-24.1"/>
</a>
</g>
</g>
<!-- Node28&#45;&gt;Node15 -->
<g id="edge34_Node000028_Node000015" class="edge">
<title>Node28&#45;&gt;Node15</title>
<g id="a_edge34_Node000028_Node000015"><a xlink:title=" ">
<path fill="none" stroke="#63b8ff" d="M1344.76,-165.96C1389.92,-156.83 1466.31,-141.38 1517.31,-131.06"/>
<polygon fill="#63b8ff" stroke="#63b8ff" points="1518.05,-134.48 1527.16,-129.06 1516.66,-127.62 1518.05,-134.48"/>
</a>
</g>
</g>
<!-- Node28&#45;&gt;Node22 -->
<g id="edge49_Node000028_Node000022" class="edge">
<title>Node28&#45;&gt;Node22</title>
<g id="a_edge49_Node000028_Node000022"><a xlink:title=" ">
<path fill="none" stroke="#63b8ff" d="M1270.19,-169.47C1190.19,-160.84 1000.75,-140.39 893.68,-128.83"/>
<polygon fill="#63b8ff" stroke="#63b8ff" points="893.9,-125.33 883.58,-127.74 893.15,-132.29 893.9,-125.33"/>
</a>
</g>
</g>
<!-- Node29 -->
<g id="Node000029" class="node">
<title>Node29</title>
<g id="a_Node000029"><a xlink:title=" ">
<polygon fill="#e0e0e0" stroke="#999999" points="1468.5,-129 1386.5,-129 1386.5,-110 1468.5,-110 1468.5,-129"/>
<text text-anchor="middle" x="1427.5" y="-117" font-family="Helvetica,sans-Serif" font-size="10.00">QtCore/QMap</text>
</a>
</g>
</g>
<!-- Node28&#45;&gt;Node29 -->
<g id="edge32_Node000028_Node000029" class="edge">
<title>Node28&#45;&gt;Node29</title>
<g id="a_edge32_Node000028_Node000029"><a xlink:title=" ">
<path fill="none" stroke="#63b8ff" d="M1326.78,-164.98C1346.17,-156.42 1376.31,-143.11 1398.57,-133.28"/>
<polygon fill="#63b8ff" stroke="#63b8ff" points="1400.14,-136.41 1407.87,-129.17 1397.31,-130.01 1400.14,-136.41"/>
</a>
</g>
</g>
<!-- Node30 -->
<g id="Node000030" class="node">
<title>Node30</title>
<g id="a_Node000030"><a xlink:title=" ">
<polygon fill="#e0e0e0" stroke="#999999" points="1267,-129 1160,-129 1160,-110 1267,-110 1267,-129"/>
<text text-anchor="middle" x="1213.5" y="-117" font-family="Helvetica,sans-Serif" font-size="10.00">QtCore/QStringList</text>
</a>
</g>
</g>
<!-- Node28&#45;&gt;Node30 -->
<g id="edge33_Node000028_Node000030" class="edge">
<title>Node28&#45;&gt;Node30</title>
<g id="a_edge33_Node000028_Node000030"><a xlink:title=" ">
<path fill="none" stroke="#63b8ff" d="M1292.4,-164.98C1277.68,-156.69 1255.08,-143.94 1237.83,-134.22"/>
<polygon fill="#63b8ff" stroke="#63b8ff" points="1239.31,-131.03 1228.88,-129.17 1235.87,-137.13 1239.31,-131.03"/>
</a>
</g>
</g>
<!-- Node31 -->
<g id="Node000031" class="node">
<title>Node31</title>
<g id="a_Node000031"><a xlink:href="Fact_8h.html" target="_top" xlink:title=" ">
<polygon fill="white" stroke="#666666" points="1330,-129 1285,-129 1285,-110 1330,-110 1330,-129"/>
<text text-anchor="middle" x="1307.5" y="-117" font-family="Helvetica,sans-Serif" font-size="10.00">Fact.h</text>
</a>
</g>
</g>
<!-- Node28&#45;&gt;Node31 -->
<g id="edge36_Node000028_Node000031" class="edge">
<title>Node28&#45;&gt;Node31</title>
<g id="a_edge36_Node000028_Node000031"><a xlink:title=" ">
<path fill="none" stroke="#63b8ff" d="M1307.5,-164.75C1307.5,-157.8 1307.5,-147.85 1307.5,-139.13"/>
<polygon fill="#63b8ff" stroke="#63b8ff" points="1311,-139.09 1307.5,-129.09 1304,-139.09 1311,-139.09"/>
</a>
</g>
</g>
<!-- Node31&#45;&gt;Node5 -->
<g id="edge38_Node000031_Node000005" class="edge">
<title>Node31&#45;&gt;Node5</title>
<g id="a_edge38_Node000031_Node000005"><a xlink:title=" ">
<path fill="none" stroke="#63b8ff" d="M1284.87,-112.04C1281.74,-111.27 1278.55,-110.57 1275.5,-110 1130.02,-82.93 1086.66,-115.09 944.5,-74 904.49,-62.44 861.77,-39.21 836.64,-24.28"/>
<polygon fill="#63b8ff" stroke="#63b8ff" points="838.28,-21.19 827.91,-19.01 834.66,-27.18 838.28,-21.19"/>
</a>
</g>
</g>
<!-- Node31&#45;&gt;Node6 -->
<g id="edge42_Node000031_Node000006" class="edge">
<title>Node31&#45;&gt;Node6</title>
<g id="a_edge42_Node000031_Node000006"><a xlink:title=" ">
<path fill="none" stroke="#63b8ff" d="M1327.97,-110C1345.72,-102.1 1371.6,-89.27 1391.5,-74 1409.32,-60.32 1426.42,-41 1437.58,-27.27"/>
<polygon fill="#63b8ff" stroke="#63b8ff" points="1440.54,-29.18 1444.01,-19.17 1435.05,-24.83 1440.54,-29.18"/>
</a>
</g>
</g>
<!-- Node31&#45;&gt;Node20 -->
<g id="edge40_Node000031_Node000020" class="edge">
<title>Node31&#45;&gt;Node20</title>
<g id="a_edge40_Node000031_Node000020"><a xlink:title=" ">
<path fill="none" stroke="#63b8ff" d="M1284.87,-112.05C1281.74,-111.29 1278.55,-110.58 1275.5,-110 1206.93,-97.01 1019.95,-115.04 963.5,-74 948.97,-63.44 941.54,-43.82 937.87,-29.17"/>
<polygon fill="#63b8ff" stroke="#63b8ff" points="941.24,-28.22 935.73,-19.17 934.4,-29.68 941.24,-28.22"/>
</a>
</g>
</g>
<!-- Node32 -->
<g id="Node000032" class="node">
<title>Node32</title>
<g id="a_Node000032"><a xlink:title=" ">
<polygon fill="#e0e0e0" stroke="#999999" points="1207,-74 1084,-74 1084,-55 1207,-55 1207,-74"/>
<text text-anchor="middle" x="1145.5" y="-62" font-family="Helvetica,sans-Serif" font-size="10.00">QtCore/QMutexLocker</text>
</a>
</g>
</g>
<!-- Node31&#45;&gt;Node32 -->
<g id="edge37_Node000031_Node000032" class="edge">
<title>Node31&#45;&gt;Node32</title>
<g id="a_edge37_Node000031_Node000032"><a xlink:title=" ">
<path fill="none" stroke="#63b8ff" d="M1284.97,-111.13C1258.14,-102.35 1212.99,-87.58 1181.34,-77.23"/>
<polygon fill="#63b8ff" stroke="#63b8ff" points="1182.18,-73.82 1171.58,-74.03 1180,-80.47 1182.18,-73.82"/>
</a>
</g>
</g>
<!-- Node33 -->
<g id="Node000033" class="node">
<title>Node33</title>
<g id="a_Node000033"><a xlink:title=" ">
<polygon fill="#e0e0e0" stroke="#999999" points="1365.5,-74 1225.5,-74 1225.5,-55 1365.5,-55 1365.5,-74"/>
<text text-anchor="middle" x="1295.5" y="-62" font-family="Helvetica,sans-Serif" font-size="10.00">QtCore/QRecursiveMutex</text>
</a>
</g>
</g>
<!-- Node31&#45;&gt;Node33 -->
<g id="edge39_Node000031_Node000033" class="edge">
<title>Node31&#45;&gt;Node33</title>
<g id="a_edge39_Node000031_Node000033"><a xlink:title=" ">
<path fill="none" stroke="#63b8ff" d="M1305.52,-109.75C1303.93,-102.72 1301.64,-92.62 1299.65,-83.84"/>
<polygon fill="#63b8ff" stroke="#63b8ff" points="1303.07,-83.07 1297.44,-74.09 1296.24,-84.62 1303.07,-83.07"/>
</a>
</g>
</g>
<!-- Node34 -->
<g id="Node000034" class="node">
<title>Node34</title>
<g id="a_Node000034"><a xlink:title=" ">
<polygon fill="#e0e0e0" stroke="#999999" points="1277,-19 1182,-19 1182,0 1277,0 1277,-19"/>
<text text-anchor="middle" x="1229.5" y="-7" font-family="Helvetica,sans-Serif" font-size="10.00">QtCore/QVariant</text>
</a>
</g>
</g>
<!-- Node31&#45;&gt;Node34 -->
<g id="edge41_Node000031_Node000034" class="edge">
<title>Node31&#45;&gt;Node34</title>
<g id="a_edge41_Node000031_Node000034"><a xlink:title=" ">
<path fill="none" stroke="#63b8ff" d="M1329.26,-109.83C1354.59,-98.46 1390.98,-77.3 1374.5,-55 1354.6,-28.08 1318.71,-16.92 1287.61,-12.51"/>
<polygon fill="#63b8ff" stroke="#63b8ff" points="1287.63,-8.99 1277.28,-11.26 1286.79,-15.94 1287.63,-8.99"/>
</a>
</g>
</g>
<!-- Node35 -->
<g id="Node000035" class="node">
<title>Node35</title>
<g id="a_Node000035"><a xlink:href="FactMetaData_8h.html" target="_top" xlink:title=" ">
<polygon fill="white" stroke="#666666" points="1066,-74 973,-74 973,-55 1066,-55 1066,-74"/>
<text text-anchor="middle" x="1019.5" y="-62" font-family="Helvetica,sans-Serif" font-size="10.00">FactMetaData.h</text>
</a>
</g>
</g>
<!-- Node31&#45;&gt;Node35 -->
<g id="edge43_Node000031_Node000035" class="edge">
<title>Node31&#45;&gt;Node35</title>
<g id="a_edge43_Node000031_Node000035"><a xlink:title=" ">
<path fill="none" stroke="#63b8ff" d="M1284.83,-112.22C1281.71,-111.43 1278.53,-110.66 1275.5,-110 1238.51,-101.89 1139.92,-85.27 1076.44,-74.8"/>
<polygon fill="#63b8ff" stroke="#63b8ff" points="1076.62,-71.28 1066.18,-73.11 1075.48,-78.19 1076.62,-71.28"/>
</a>
</g>
</g>
<!-- Node35&#45;&gt;Node5 -->
<g id="edge45_Node000035_Node000005" class="edge">
<title>Node35&#45;&gt;Node5</title>
<g id="a_edge45_Node000035_Node000005"><a xlink:title=" ">
<path fill="none" stroke="#63b8ff" d="M986.56,-54.98C951.55,-45.93 896.03,-31.58 857.57,-21.64"/>
<polygon fill="#63b8ff" stroke="#63b8ff" points="858.25,-18.2 847.69,-19.08 856.5,-24.97 858.25,-18.2"/>
</a>
</g>
</g>
<!-- Node35&#45;&gt;Node6 -->
<g id="edge48_Node000035_Node000006" class="edge">
<title>Node35&#45;&gt;Node6</title>
<g id="a_edge48_Node000035_Node000006"><a xlink:title=" ">
<path fill="none" stroke="#63b8ff" d="M1066.29,-56.15C1069.07,-55.75 1071.82,-55.37 1074.5,-55 1172.52,-41.63 1285.23,-28.6 1361.49,-20.13"/>
<polygon fill="#63b8ff" stroke="#63b8ff" points="1361.98,-23.6 1371.54,-19.02 1361.21,-16.64 1361.98,-23.6"/>
</a>
</g>
</g>
<!-- Node35&#45;&gt;Node20 -->
<g id="edge46_Node000035_Node000020" class="edge">
<title>Node35&#45;&gt;Node20</title>
<g id="a_edge46_Node000035_Node000020"><a xlink:title=" ">
<path fill="none" stroke="#63b8ff" d="M1005.84,-54.98C992.66,-46.77 972.47,-34.18 956.93,-24.49"/>
<polygon fill="#63b8ff" stroke="#63b8ff" points="958.74,-21.49 948.41,-19.17 955.04,-27.43 958.74,-21.49"/>
</a>
</g>
</g>
<!-- Node35&#45;&gt;Node34 -->
<g id="edge47_Node000035_Node000034" class="edge">
<title>Node35&#45;&gt;Node34</title>
<g id="a_edge47_Node000035_Node000034"><a xlink:title=" ">
<path fill="none" stroke="#63b8ff" d="M1053.24,-54.98C1089.18,-45.91 1146.22,-31.52 1185.63,-21.57"/>
<polygon fill="#63b8ff" stroke="#63b8ff" points="1186.66,-24.92 1195.5,-19.08 1184.94,-18.14 1186.66,-24.92"/>
</a>
</g>
</g>
<!-- Node36 -->
<g id="Node000036" class="node">
<title>Node36</title>
<g id="a_Node000036"><a xlink:title=" ">
<polygon fill="#e0e0e0" stroke="#999999" points="1083.5,-19 997.5,-19 997.5,0 1083.5,0 1083.5,-19"/>
<text text-anchor="middle" x="1040.5" y="-7" font-family="Helvetica,sans-Serif" font-size="10.00">QtCore/QHash</text>
</a>
</g>
</g>
<!-- Node35&#45;&gt;Node36 -->
<g id="edge44_Node000035_Node000036" class="edge">
<title>Node35&#45;&gt;Node36</title>
<g id="a_edge44_Node000035_Node000036"><a xlink:title=" ">
<path fill="none" stroke="#63b8ff" d="M1022.97,-54.75C1025.78,-47.65 1029.84,-37.4 1033.35,-28.56"/>
<polygon fill="#63b8ff" stroke="#63b8ff" points="1036.67,-29.68 1037.1,-19.09 1030.16,-27.1 1036.67,-29.68"/>
</a>
</g>
</g>
<!-- Node37&#45;&gt;Node21 -->
<g id="edge51_Node000037_Node000021" class="edge">
<title>Node37&#45;&gt;Node21</title>
<g id="a_edge51_Node000037_Node000021"><a xlink:title=" ">
<path fill="none" stroke="#63b8ff" d="M680.5,-164.75C680.5,-157.8 680.5,-147.85 680.5,-139.13"/>
<polygon fill="#63b8ff" stroke="#63b8ff" points="684,-139.09 680.5,-129.09 677,-139.09 684,-139.09"/>
</a>
</g>
</g>
<!-- Node37&#45;&gt;Node25 -->
<g id="edge52_Node000037_Node000025" class="edge">
<title>Node37&#45;&gt;Node25</title>
<g id="a_edge52_Node000037_Node000025"><a xlink:title=" ">
<path fill="none" stroke="#63b8ff" d="M660.1,-164.98C639.48,-156.38 607.39,-142.99 583.81,-133.15"/>
<polygon fill="#63b8ff" stroke="#63b8ff" points="584.85,-129.79 574.28,-129.17 582.16,-136.25 584.85,-129.79"/>
</a>
</g>
</g>
<!-- Node39 -->
<g id="Node000039" class="node">
<title>Node39</title>
<g id="a_Node000039"><a xlink:title=" ">
<polygon fill="#e0e0e0" stroke="#999999" points="1789,-244.5 1646,-244.5 1646,-225.5 1789,-225.5 1789,-244.5"/>
<text text-anchor="middle" x="1717.5" y="-232.5" font-family="Helvetica,sans-Serif" font-size="10.00">QtCore/QLoggingCategory</text>
</a>
</g>
</g>
<!-- Node38&#45;&gt;Node39 -->
<g id="edge54_Node000038_Node000039" class="edge">
<title>Node38&#45;&gt;Node39</title>
<g id="a_edge54_Node000038_Node000039"><a xlink:title=" ">
<path fill="none" stroke="#63b8ff" d="M1710.68,-285.87C1711.79,-277.75 1713.49,-265.31 1714.92,-254.89"/>
<polygon fill="#63b8ff" stroke="#63b8ff" points="1718.43,-255.05 1716.31,-244.67 1711.49,-254.1 1718.43,-255.05"/>
</a>
</g>
</g>
</g>
</svg>
