<?xml version="1.0" encoding="UTF-8" standalone="no"?>
<!DOCTYPE svg PUBLIC "-//W3C//DTD SVG 1.1//EN"
 "http://www.w3.org/Graphics/SVG/1.1/DTD/svg11.dtd">
<!-- Generated by graphviz version 2.43.0 (0)
 -->
<!-- Title: src/MissionManager/SpeedSection.h Pages: 1 -->
<svg width="945pt" height="203pt"
 viewBox="0.00 0.00 944.50 203.00" xmlns="http://www.w3.org/2000/svg" xmlns:xlink="http://www.w3.org/1999/xlink">
<g id="graph0" class="graph" transform="scale(1 1) rotate(0) translate(4 199)">
<title>src/MissionManager/SpeedSection.h</title>
<!-- Node1 -->
<g id="Node000001" class="node">
<title>Node1</title>
<g id="a_Node000001"><a xlink:title=" ">
<polygon fill="#999999" stroke="#666666" points="296,-195 182,-195 182,-165 296,-165 296,-195"/>
<text text-anchor="start" x="190" y="-183" font-family="Helvetica,sans-Serif" font-size="10.00">src/MissionManager</text>
<text text-anchor="middle" x="239" y="-172" font-family="Helvetica,sans-Serif" font-size="10.00">/SpeedSection.h</text>
</a>
</g>
</g>
<!-- Node2 -->
<g id="Node000002" class="node">
<title>Node2</title>
<g id="a_Node000002"><a xlink:href="Section_8h.html" target="_top" xlink:title=" ">
<polygon fill="white" stroke="#666666" points="165,-74 103,-74 103,-55 165,-55 165,-74"/>
<text text-anchor="middle" x="134" y="-62" font-family="Helvetica,sans-Serif" font-size="10.00">Section.h</text>
</a>
</g>
</g>
<!-- Node1&#45;&gt;Node2 -->
<g id="edge1_Node000001_Node000002" class="edge">
<title>Node1&#45;&gt;Node2</title>
<g id="a_edge1_Node000001_Node000002"><a xlink:title=" ">
<path fill="none" stroke="#63b8ff" d="M225.7,-164.63C206.13,-143.47 169.67,-104.05 149.11,-81.83"/>
<polygon fill="#63b8ff" stroke="#63b8ff" points="151.44,-79.19 142.08,-74.23 146.3,-83.95 151.44,-79.19"/>
</a>
</g>
</g>
<!-- Node5 -->
<g id="Node000005" class="node">
<title>Node5</title>
<g id="a_Node000005"><a xlink:href="Fact_8h.html" target="_top" xlink:title=" ">
<polygon fill="white" stroke="#666666" points="366.5,-129 321.5,-129 321.5,-110 366.5,-110 366.5,-129"/>
<text text-anchor="middle" x="344" y="-117" font-family="Helvetica,sans-Serif" font-size="10.00">Fact.h</text>
</a>
</g>
</g>
<!-- Node1&#45;&gt;Node5 -->
<g id="edge4_Node000001_Node000005" class="edge">
<title>Node1&#45;&gt;Node5</title>
<g id="a_edge4_Node000001_Node000005"><a xlink:title=" ">
<path fill="none" stroke="#63b8ff" d="M264.15,-164.99C280.89,-155.66 302.77,-143.47 319.39,-134.21"/>
<polygon fill="#63b8ff" stroke="#63b8ff" points="321.46,-137.06 328.49,-129.14 318.05,-130.95 321.46,-137.06"/>
</a>
</g>
</g>
<!-- Node3 -->
<g id="Node000003" class="node">
<title>Node3</title>
<g id="a_Node000003"><a xlink:title=" ">
<polygon fill="#e0e0e0" stroke="#999999" points="92,-19 0,-19 0,0 92,0 92,-19"/>
<text text-anchor="middle" x="46" y="-7" font-family="Helvetica,sans-Serif" font-size="10.00">QtCore/QObject</text>
</a>
</g>
</g>
<!-- Node2&#45;&gt;Node3 -->
<g id="edge2_Node000002_Node000003" class="edge">
<title>Node2&#45;&gt;Node3</title>
<g id="a_edge2_Node000002_Node000003"><a xlink:title=" ">
<path fill="none" stroke="#63b8ff" d="M119.86,-54.98C106.21,-46.77 85.31,-34.18 69.22,-24.49"/>
<polygon fill="#63b8ff" stroke="#63b8ff" points="70.77,-21.33 60.4,-19.17 67.16,-27.33 70.77,-21.33"/>
</a>
</g>
</g>
<!-- Node4 -->
<g id="Node000004" class="node">
<title>Node4</title>
<g id="a_Node000004"><a xlink:title=" ">
<polygon fill="#e0e0e0" stroke="#999999" points="253.5,-19 110.5,-19 110.5,0 253.5,0 253.5,-19"/>
<text text-anchor="middle" x="182" y="-7" font-family="Helvetica,sans-Serif" font-size="10.00">QtCore/QLoggingCategory</text>
</a>
</g>
</g>
<!-- Node2&#45;&gt;Node4 -->
<g id="edge3_Node000002_Node000004" class="edge">
<title>Node2&#45;&gt;Node4</title>
<g id="a_edge3_Node000002_Node000004"><a xlink:title=" ">
<path fill="none" stroke="#63b8ff" d="M141.93,-54.75C148.85,-47.11 159.07,-35.82 167.45,-26.56"/>
<polygon fill="#63b8ff" stroke="#63b8ff" points="170.1,-28.85 174.22,-19.09 164.91,-24.15 170.1,-28.85"/>
</a>
</g>
</g>
<!-- Node5&#45;&gt;Node3 -->
<g id="edge7_Node000005_Node000003" class="edge">
<title>Node5&#45;&gt;Node3</title>
<g id="a_edge7_Node000005_Node000003"><a xlink:title=" ">
<path fill="none" stroke="#63b8ff" d="M321.51,-109.91C289.03,-97.55 227.05,-74.13 174,-55 142.54,-43.66 106.56,-31.19 80.77,-22.35"/>
<polygon fill="#63b8ff" stroke="#63b8ff" points="81.67,-18.96 71.08,-19.03 79.4,-25.58 81.67,-18.96"/>
</a>
</g>
</g>
<!-- Node5&#45;&gt;Node4 -->
<g id="edge5_Node000005_Node000004" class="edge">
<title>Node5&#45;&gt;Node4</title>
<g id="a_edge5_Node000005_Node000004"><a xlink:title=" ">
<path fill="none" stroke="#63b8ff" d="M331.02,-109.84C303.17,-91.28 237.48,-47.49 203.38,-24.75"/>
<polygon fill="#63b8ff" stroke="#63b8ff" points="205.31,-21.83 195.05,-19.2 201.42,-27.66 205.31,-21.83"/>
</a>
</g>
</g>
<!-- Node6 -->
<g id="Node000006" class="node">
<title>Node6</title>
<g id="a_Node000006"><a xlink:title=" ">
<polygon fill="#e0e0e0" stroke="#999999" points="531.5,-74 408.5,-74 408.5,-55 531.5,-55 531.5,-74"/>
<text text-anchor="middle" x="470" y="-62" font-family="Helvetica,sans-Serif" font-size="10.00">QtCore/QMutexLocker</text>
</a>
</g>
</g>
<!-- Node5&#45;&gt;Node6 -->
<g id="edge6_Node000005_Node000006" class="edge">
<title>Node5&#45;&gt;Node6</title>
<g id="a_edge6_Node000005_Node000006"><a xlink:title=" ">
<path fill="none" stroke="#63b8ff" d="M364.24,-109.98C384.7,-101.38 416.53,-87.99 439.93,-78.15"/>
<polygon fill="#63b8ff" stroke="#63b8ff" points="441.53,-81.27 449.39,-74.17 438.81,-74.82 441.53,-81.27"/>
</a>
</g>
</g>
<!-- Node7 -->
<g id="Node000007" class="node">
<title>Node7</title>
<g id="a_Node000007"><a xlink:title=" ">
<polygon fill="#e0e0e0" stroke="#999999" points="690,-74 550,-74 550,-55 690,-55 690,-74"/>
<text text-anchor="middle" x="620" y="-62" font-family="Helvetica,sans-Serif" font-size="10.00">QtCore/QRecursiveMutex</text>
</a>
</g>
</g>
<!-- Node5&#45;&gt;Node7 -->
<g id="edge8_Node000005_Node000007" class="edge">
<title>Node5&#45;&gt;Node7</title>
<g id="a_edge8_Node000005_Node000007"><a xlink:title=" ">
<path fill="none" stroke="#63b8ff" d="M366.59,-114.16C409.67,-105.89 504.69,-87.64 565.35,-75.99"/>
<polygon fill="#63b8ff" stroke="#63b8ff" points="566.36,-79.37 575.52,-74.04 565.04,-72.49 566.36,-79.37"/>
</a>
</g>
</g>
<!-- Node8 -->
<g id="Node000008" class="node">
<title>Node8</title>
<g id="a_Node000008"><a xlink:title=" ">
<polygon fill="#e0e0e0" stroke="#999999" points="360.5,-19 271.5,-19 271.5,0 360.5,0 360.5,-19"/>
<text text-anchor="middle" x="316" y="-7" font-family="Helvetica,sans-Serif" font-size="10.00">QtCore/QString</text>
</a>
</g>
</g>
<!-- Node5&#45;&gt;Node8 -->
<g id="edge9_Node000005_Node000008" class="edge">
<title>Node5&#45;&gt;Node8</title>
<g id="a_edge9_Node000005_Node000008"><a xlink:title=" ">
<path fill="none" stroke="#63b8ff" d="M326.23,-109.96C312.99,-102.51 295.88,-90.33 288,-74 280.43,-58.31 290.35,-40.08 300.41,-27.19"/>
<polygon fill="#63b8ff" stroke="#63b8ff" points="303.38,-29.1 307.19,-19.21 298.05,-24.57 303.38,-29.1"/>
</a>
</g>
</g>
<!-- Node9 -->
<g id="Node000009" class="node">
<title>Node9</title>
<g id="a_Node000009"><a xlink:title=" ">
<polygon fill="#e0e0e0" stroke="#999999" points="729.5,-19 634.5,-19 634.5,0 729.5,0 729.5,-19"/>
<text text-anchor="middle" x="682" y="-7" font-family="Helvetica,sans-Serif" font-size="10.00">QtCore/QVariant</text>
</a>
</g>
</g>
<!-- Node5&#45;&gt;Node9 -->
<g id="edge10_Node000005_Node000009" class="edge">
<title>Node5&#45;&gt;Node9</title>
<g id="a_edge10_Node000005_Node000009"><a xlink:title=" ">
<path fill="none" stroke="#63b8ff" d="M366.7,-117.37C441.53,-113.41 676.91,-99.03 699,-74 710.29,-61.21 702.6,-41.7 694.24,-27.68"/>
<polygon fill="#63b8ff" stroke="#63b8ff" points="696.97,-25.47 688.58,-19.01 691.11,-29.29 696.97,-25.47"/>
</a>
</g>
</g>
<!-- Node10 -->
<g id="Node000010" class="node">
<title>Node10</title>
<g id="a_Node000010"><a xlink:title=" ">
<polygon fill="#e0e0e0" stroke="#999999" points="936.5,-19 747.5,-19 747.5,0 936.5,0 936.5,-19"/>
<text text-anchor="middle" x="842" y="-7" font-family="Helvetica,sans-Serif" font-size="10.00">QtQmlIntegration/QtQmlIntegration</text>
</a>
</g>
</g>
<!-- Node5&#45;&gt;Node10 -->
<g id="edge11_Node000005_Node000010" class="edge">
<title>Node5&#45;&gt;Node10</title>
<g id="a_edge11_Node000005_Node000010"><a xlink:title=" ">
<path fill="none" stroke="#63b8ff" d="M366.78,-118.49C425.8,-117.9 588.03,-112.6 716,-74 754.51,-62.38 795.46,-39.55 819.87,-24.66"/>
<polygon fill="#63b8ff" stroke="#63b8ff" points="822.02,-27.44 828.67,-19.2 818.33,-21.49 822.02,-27.44"/>
</a>
</g>
</g>
<!-- Node11 -->
<g id="Node000011" class="node">
<title>Node11</title>
<g id="a_Node000011"><a xlink:href="FactMetaData_8h.html" target="_top" xlink:title=" ">
<polygon fill="white" stroke="#666666" points="390.5,-74 297.5,-74 297.5,-55 390.5,-55 390.5,-74"/>
<text text-anchor="middle" x="344" y="-62" font-family="Helvetica,sans-Serif" font-size="10.00">FactMetaData.h</text>
</a>
</g>
</g>
<!-- Node5&#45;&gt;Node11 -->
<g id="edge12_Node000005_Node000011" class="edge">
<title>Node5&#45;&gt;Node11</title>
<g id="a_edge12_Node000005_Node000011"><a xlink:title=" ">
<path fill="none" stroke="#63b8ff" d="M344,-109.75C344,-102.8 344,-92.85 344,-84.13"/>
<polygon fill="#63b8ff" stroke="#63b8ff" points="347.5,-84.09 344,-74.09 340.5,-84.09 347.5,-84.09"/>
</a>
</g>
</g>
<!-- Node11&#45;&gt;Node3 -->
<g id="edge16_Node000011_Node000003" class="edge">
<title>Node11&#45;&gt;Node3</title>
<g id="a_edge16_Node000011_Node000003"><a xlink:title=" ">
<path fill="none" stroke="#63b8ff" d="M297.44,-55.22C244.73,-45.85 158.89,-30.58 102.42,-20.53"/>
<polygon fill="#63b8ff" stroke="#63b8ff" points="102.69,-17.03 92.24,-18.72 101.47,-23.92 102.69,-17.03"/>
</a>
</g>
</g>
<!-- Node11&#45;&gt;Node4 -->
<g id="edge13_Node000011_Node000004" class="edge">
<title>Node11&#45;&gt;Node4</title>
<g id="a_edge13_Node000011_Node000004"><a xlink:title=" ">
<path fill="none" stroke="#63b8ff" d="M317.97,-54.98C290.89,-46.13 248.29,-32.19 217.99,-22.28"/>
<polygon fill="#63b8ff" stroke="#63b8ff" points="218.82,-18.87 208.23,-19.08 216.65,-25.52 218.82,-18.87"/>
</a>
</g>
</g>
<!-- Node11&#45;&gt;Node8 -->
<g id="edge17_Node000011_Node000008" class="edge">
<title>Node11&#45;&gt;Node8</title>
<g id="a_edge17_Node000011_Node000008"><a xlink:title=" ">
<path fill="none" stroke="#63b8ff" d="M339.38,-54.75C335.54,-47.49 329.98,-36.95 325.24,-27.98"/>
<polygon fill="#63b8ff" stroke="#63b8ff" points="328.3,-26.3 320.54,-19.09 322.11,-29.57 328.3,-26.3"/>
</a>
</g>
</g>
<!-- Node11&#45;&gt;Node9 -->
<g id="edge18_Node000011_Node000009" class="edge">
<title>Node11&#45;&gt;Node9</title>
<g id="a_edge18_Node000011_Node000009"><a xlink:title=" ">
<path fill="none" stroke="#63b8ff" d="M390.64,-56.19C451.58,-46.63 558.27,-29.9 624.25,-19.56"/>
<polygon fill="#63b8ff" stroke="#63b8ff" points="625.14,-22.96 634.48,-17.95 624.05,-16.04 625.14,-22.96"/>
</a>
</g>
</g>
<!-- Node11&#45;&gt;Node10 -->
<g id="edge19_Node000011_Node000010" class="edge">
<title>Node11&#45;&gt;Node10</title>
<g id="a_edge19_Node000011_Node000010"><a xlink:title=" ">
<path fill="none" stroke="#63b8ff" d="M390.78,-56.1C393.56,-55.71 396.32,-55.34 399,-55 514.36,-40.3 647.14,-27.51 737.01,-19.46"/>
<polygon fill="#63b8ff" stroke="#63b8ff" points="737.56,-22.93 747.21,-18.55 736.94,-15.95 737.56,-22.93"/>
</a>
</g>
</g>
<!-- Node12 -->
<g id="Node000012" class="node">
<title>Node12</title>
<g id="a_Node000012"><a xlink:title=" ">
<polygon fill="#e0e0e0" stroke="#999999" points="485.5,-19 378.5,-19 378.5,0 485.5,0 485.5,-19"/>
<text text-anchor="middle" x="432" y="-7" font-family="Helvetica,sans-Serif" font-size="10.00">QtCore/QJsonArray</text>
</a>
</g>
</g>
<!-- Node11&#45;&gt;Node12 -->
<g id="edge14_Node000011_Node000012" class="edge">
<title>Node11&#45;&gt;Node12</title>
<g id="a_edge14_Node000011_Node000012"><a xlink:title=" ">
<path fill="none" stroke="#63b8ff" d="M358.14,-54.98C371.79,-46.77 392.69,-34.18 408.78,-24.49"/>
<polygon fill="#63b8ff" stroke="#63b8ff" points="410.84,-27.33 417.6,-19.17 407.23,-21.33 410.84,-27.33"/>
</a>
</g>
</g>
<!-- Node13 -->
<g id="Node000013" class="node">
<title>Node13</title>
<g id="a_Node000013"><a xlink:title=" ">
<polygon fill="#e0e0e0" stroke="#999999" points="616.5,-19 503.5,-19 503.5,0 616.5,0 616.5,-19"/>
<text text-anchor="middle" x="560" y="-7" font-family="Helvetica,sans-Serif" font-size="10.00">QtCore/QJsonObject</text>
</a>
</g>
</g>
<!-- Node11&#45;&gt;Node13 -->
<g id="edge15_Node000011_Node000013" class="edge">
<title>Node11&#45;&gt;Node13</title>
<g id="a_edge15_Node000011_Node000013"><a xlink:title=" ">
<path fill="none" stroke="#63b8ff" d="M378.7,-54.98C415.75,-45.89 474.59,-31.46 515.13,-21.51"/>
<polygon fill="#63b8ff" stroke="#63b8ff" points="516.15,-24.86 525.02,-19.08 514.48,-18.07 516.15,-24.86"/>
</a>
</g>
</g>
</g>
</svg>
