<?xml version="1.0" encoding="UTF-8" standalone="no"?>
<!DOCTYPE svg PUBLIC "-//W3C//DTD SVG 1.1//EN"
 "http://www.w3.org/Graphics/SVG/1.1/DTD/svg11.dtd">
<!-- Generated by graphviz version 2.43.0 (0)
 -->
<!-- Title: src/Vehicle/StandardModes.h Pages: 1 -->
<svg width="1141pt" height="247pt"
 viewBox="0.00 0.00 1140.90 247.00" xmlns="http://www.w3.org/2000/svg" xmlns:xlink="http://www.w3.org/1999/xlink">
<g id="graph0" class="graph" transform="scale(1 1) rotate(0) translate(4 243)">
<title>src/Vehicle/StandardModes.h</title>
<!-- Node1 -->
<g id="Node000001" class="node">
<title>Node1</title>
<g id="a_Node000001"><a xlink:title=" ">
<polygon fill="#999999" stroke="#666666" points="384.4,-239 227.4,-239 227.4,-220 384.4,-220 384.4,-239"/>
<text text-anchor="middle" x="305.9" y="-227" font-family="Helvetica,sans-Serif" font-size="10.00">src/Vehicle/StandardModes.h</text>
</a>
</g>
</g>
<!-- Node2 -->
<g id="Node000002" class="node">
<title>Node2</title>
<g id="a_Node000002"><a xlink:href="FirmwarePlugin_8h.html" target="_top" xlink:title=" ">
<polygon fill="white" stroke="#666666" points="425.4,-184 324.4,-184 324.4,-165 425.4,-165 425.4,-184"/>
<text text-anchor="middle" x="374.9" y="-172" font-family="Helvetica,sans-Serif" font-size="10.00">FirmwarePlugin.h</text>
</a>
</g>
</g>
<!-- Node1&#45;&gt;Node2 -->
<g id="edge1_Node000001_Node000002" class="edge">
<title>Node1&#45;&gt;Node2</title>
<g id="a_edge1_Node000001_Node000002"><a xlink:title=" ">
<path fill="none" stroke="#63b8ff" d="M316.99,-219.98C327.39,-212 343.17,-199.88 355.63,-190.31"/>
<polygon fill="#63b8ff" stroke="#63b8ff" points="357.82,-193.04 363.62,-184.17 353.55,-187.49 357.82,-193.04"/>
</a>
</g>
</g>
<!-- Node4 -->
<g id="Node000004" class="node">
<title>Node4</title>
<g id="a_Node000004"><a xlink:title=" ">
<polygon fill="#e0e0e0" stroke="#999999" points="94.9,-129 12.9,-129 12.9,-110 94.9,-110 94.9,-129"/>
<text text-anchor="middle" x="53.9" y="-117" font-family="Helvetica,sans-Serif" font-size="10.00">QtCore/QMap</text>
</a>
</g>
</g>
<!-- Node1&#45;&gt;Node4 -->
<g id="edge23_Node000001_Node000004" class="edge">
<title>Node1&#45;&gt;Node4</title>
<g id="a_edge23_Node000001_Node000004"><a xlink:title=" ">
<path fill="none" stroke="#63b8ff" d="M285.71,-219.84C241.27,-200.8 134.87,-155.2 83.14,-133.03"/>
<polygon fill="#63b8ff" stroke="#63b8ff" points="84.42,-129.77 73.85,-129.05 81.66,-136.2 84.42,-129.77"/>
</a>
</g>
</g>
<!-- Node5 -->
<g id="Node000005" class="node">
<title>Node5</title>
<g id="a_Node000005"><a xlink:title=" ">
<polygon fill="#e0e0e0" stroke="#999999" points="202.4,-129 113.4,-129 113.4,-110 202.4,-110 202.4,-129"/>
<text text-anchor="middle" x="157.9" y="-117" font-family="Helvetica,sans-Serif" font-size="10.00">QtCore/QString</text>
</a>
</g>
</g>
<!-- Node1&#45;&gt;Node5 -->
<g id="edge22_Node000001_Node000005" class="edge">
<title>Node1&#45;&gt;Node5</title>
<g id="a_edge22_Node000001_Node000005"><a xlink:title=" ">
<path fill="none" stroke="#63b8ff" d="M294.04,-219.84C268.82,-201.44 209.61,-158.23 178.24,-135.34"/>
<polygon fill="#63b8ff" stroke="#63b8ff" points="179.96,-132.26 169.82,-129.2 175.84,-137.92 179.96,-132.26"/>
</a>
</g>
</g>
<!-- Node8 -->
<g id="Node000008" class="node">
<title>Node8</title>
<g id="a_Node000008"><a xlink:title=" ">
<polygon fill="#e0e0e0" stroke="#999999" points="281.4,-74 180.4,-74 180.4,-55 281.4,-55 281.4,-74"/>
<text text-anchor="middle" x="230.9" y="-62" font-family="Helvetica,sans-Serif" font-size="10.00">MAVLinkEnums.h</text>
</a>
</g>
</g>
<!-- Node1&#45;&gt;Node8 -->
<g id="edge17_Node000001_Node000008" class="edge">
<title>Node1&#45;&gt;Node8</title>
<g id="a_edge17_Node000001_Node000008"><a xlink:title=" ">
<path fill="none" stroke="#63b8ff" d="M227.15,-227.03C155.62,-220.96 53.88,-199.47 3.9,-129 -0.98,-122.11 -1.46,-116.52 3.9,-110 24.59,-84.86 110.12,-73.72 170.06,-68.92"/>
<polygon fill="#63b8ff" stroke="#63b8ff" points="170.48,-72.4 180.19,-68.15 169.95,-65.42 170.48,-72.4"/>
</a>
</g>
</g>
<!-- Node12 -->
<g id="Node000012" class="node">
<title>Node12</title>
<g id="a_Node000012"><a xlink:title=" ">
<polygon fill="#e0e0e0" stroke="#999999" points="982.9,-74 890.9,-74 890.9,-55 982.9,-55 982.9,-74"/>
<text text-anchor="middle" x="936.9" y="-62" font-family="Helvetica,sans-Serif" font-size="10.00">QtCore/QObject</text>
</a>
</g>
</g>
<!-- Node1&#45;&gt;Node12 -->
<g id="edge21_Node000001_Node000012" class="edge">
<title>Node1&#45;&gt;Node12</title>
<g id="a_edge21_Node000001_Node000012"><a xlink:title=" ">
<path fill="none" stroke="#63b8ff" d="M384.67,-223.06C525.4,-212.09 813.05,-183.55 895.9,-129 912.31,-118.2 923.55,-98.32 930.05,-83.67"/>
<polygon fill="#63b8ff" stroke="#63b8ff" points="933.41,-84.72 933.96,-74.14 926.93,-82.06 933.41,-84.72"/>
</a>
</g>
</g>
<!-- Node16 -->
<g id="Node000016" class="node">
<title>Node16</title>
<g id="a_Node000016"><a xlink:href="MAVLinkMessageType_8h.html" target="_top" xlink:title=" ">
<polygon fill="white" stroke="#666666" points="1076.9,-184 942.9,-184 942.9,-165 1076.9,-165 1076.9,-184"/>
<text text-anchor="middle" x="1009.9" y="-172" font-family="Helvetica,sans-Serif" font-size="10.00">MAVLinkMessageType.h</text>
</a>
</g>
</g>
<!-- Node1&#45;&gt;Node16 -->
<g id="edge18_Node000001_Node000016" class="edge">
<title>Node1&#45;&gt;Node16</title>
<g id="a_edge18_Node000001_Node000016"><a xlink:title=" ">
<path fill="none" stroke="#63b8ff" d="M384.65,-223.72C502.91,-216.34 733.39,-201.24 928.9,-184 930.17,-183.89 931.45,-183.77 932.74,-183.66"/>
<polygon fill="#63b8ff" stroke="#63b8ff" points="933.11,-187.14 942.74,-182.72 932.45,-180.17 933.11,-187.14"/>
</a>
</g>
</g>
<!-- Node3 -->
<g id="Node000003" class="node">
<title>Node3</title>
<g id="a_Node000003"><a xlink:title=" ">
<polygon fill="#e0e0e0" stroke="#999999" points="796.9,-129 718.9,-129 718.9,-110 796.9,-110 796.9,-129"/>
<text text-anchor="middle" x="757.9" y="-117" font-family="Helvetica,sans-Serif" font-size="10.00">QtCore/QList</text>
</a>
</g>
</g>
<!-- Node2&#45;&gt;Node3 -->
<g id="edge2_Node000002_Node000003" class="edge">
<title>Node2&#45;&gt;Node3</title>
<g id="a_edge2_Node000002_Node000003"><a xlink:title=" ">
<path fill="none" stroke="#63b8ff" d="M425.56,-167.07C490.38,-158.75 606.11,-143.58 704.9,-129 706.17,-128.81 707.46,-128.62 708.76,-128.43"/>
<polygon fill="#63b8ff" stroke="#63b8ff" points="709.49,-131.85 718.85,-126.88 708.43,-124.93 709.49,-131.85"/>
</a>
</g>
</g>
<!-- Node2&#45;&gt;Node4 -->
<g id="edge3_Node000002_Node000004" class="edge">
<title>Node2&#45;&gt;Node4</title>
<g id="a_edge3_Node000002_Node000004"><a xlink:title=" ">
<path fill="none" stroke="#63b8ff" d="M324.19,-165.26C271.86,-156.74 187.58,-142.96 105.14,-129.2"/>
<polygon fill="#63b8ff" stroke="#63b8ff" points="105.54,-125.72 95.1,-127.52 104.39,-132.62 105.54,-125.72"/>
</a>
</g>
</g>
<!-- Node2&#45;&gt;Node5 -->
<g id="edge4_Node000002_Node000005" class="edge">
<title>Node2&#45;&gt;Node5</title>
<g id="a_edge4_Node000002_Node000005"><a xlink:title=" ">
<path fill="none" stroke="#63b8ff" d="M340.04,-164.98C302.82,-155.89 243.71,-141.46 202.98,-131.51"/>
<polygon fill="#63b8ff" stroke="#63b8ff" points="203.59,-128.05 193.04,-129.08 201.93,-134.85 203.59,-128.05"/>
</a>
</g>
</g>
<!-- Node6 -->
<g id="Node000006" class="node">
<title>Node6</title>
<g id="a_Node000006"><a xlink:title=" ">
<polygon fill="#e0e0e0" stroke="#999999" points="372.4,-129 259.4,-129 259.4,-110 372.4,-110 372.4,-129"/>
<text text-anchor="middle" x="315.9" y="-117" font-family="Helvetica,sans-Serif" font-size="10.00">QtCore/QVariantList</text>
</a>
</g>
</g>
<!-- Node2&#45;&gt;Node6 -->
<g id="edge5_Node000002_Node000006" class="edge">
<title>Node2&#45;&gt;Node6</title>
<g id="a_edge5_Node000002_Node000006"><a xlink:title=" ">
<path fill="none" stroke="#63b8ff" d="M365.43,-164.98C356.7,-157.15 343.56,-145.34 333.01,-135.86"/>
<polygon fill="#63b8ff" stroke="#63b8ff" points="335.33,-133.25 325.56,-129.17 330.66,-138.46 335.33,-133.25"/>
</a>
</g>
</g>
<!-- Node7 -->
<g id="Node000007" class="node">
<title>Node7</title>
<g id="a_Node000007"><a xlink:title=" ">
<polygon fill="#e0e0e0" stroke="#999999" points="662.4,-129 497.4,-129 497.4,-110 662.4,-110 662.4,-129"/>
<text text-anchor="middle" x="579.9" y="-117" font-family="Helvetica,sans-Serif" font-size="10.00">QtPositioning/QGeoCoordinate</text>
</a>
</g>
</g>
<!-- Node2&#45;&gt;Node7 -->
<g id="edge6_Node000002_Node000007" class="edge">
<title>Node2&#45;&gt;Node7</title>
<g id="a_edge6_Node000002_Node000007"><a xlink:title=" ">
<path fill="none" stroke="#63b8ff" d="M407.84,-164.98C442.85,-155.93 498.37,-141.58 536.83,-131.64"/>
<polygon fill="#63b8ff" stroke="#63b8ff" points="537.9,-134.97 546.71,-129.08 536.15,-128.2 537.9,-134.97"/>
</a>
</g>
</g>
<!-- Node2&#45;&gt;Node8 -->
<g id="edge7_Node000002_Node000008" class="edge">
<title>Node2&#45;&gt;Node8</title>
<g id="a_edge7_Node000002_Node000008"><a xlink:title=" ">
<path fill="none" stroke="#63b8ff" d="M324.23,-166.51C298.8,-160.53 269.34,-149.46 249.9,-129 238.4,-116.89 233.83,-98.09 232.03,-84.08"/>
<polygon fill="#63b8ff" stroke="#63b8ff" points="235.52,-83.73 231.11,-74.1 228.55,-84.38 235.52,-83.73"/>
</a>
</g>
</g>
<!-- Node9 -->
<g id="Node000009" class="node">
<title>Node9</title>
<g id="a_Node000009"><a xlink:href="QGCMAVLinkTypes_8h.html" target="_top" xlink:title=" ">
<polygon fill="white" stroke="#666666" points="561.4,-74 444.4,-74 444.4,-55 561.4,-55 561.4,-74"/>
<text text-anchor="middle" x="502.9" y="-62" font-family="Helvetica,sans-Serif" font-size="10.00">QGCMAVLinkTypes.h</text>
</a>
</g>
</g>
<!-- Node2&#45;&gt;Node9 -->
<g id="edge8_Node000002_Node000009" class="edge">
<title>Node2&#45;&gt;Node9</title>
<g id="a_edge8_Node000002_Node000009"><a xlink:title=" ">
<path fill="none" stroke="#63b8ff" d="M425.51,-173.5C501.58,-172.31 639.84,-165.08 670.9,-129 703.12,-91.58 631.21,-76.16 571.66,-69.84"/>
<polygon fill="#63b8ff" stroke="#63b8ff" points="571.77,-66.33 561.47,-68.83 571.08,-73.3 571.77,-66.33"/>
</a>
</g>
</g>
<!-- Node11 -->
<g id="Node000011" class="node">
<title>Node11</title>
<g id="a_Node000011"><a xlink:href="FollowMe_8h.html" target="_top" xlink:title=" ">
<polygon fill="white" stroke="#666666" points="886.9,-129 814.9,-129 814.9,-110 886.9,-110 886.9,-129"/>
<text text-anchor="middle" x="850.9" y="-117" font-family="Helvetica,sans-Serif" font-size="10.00">FollowMe.h</text>
</a>
</g>
</g>
<!-- Node2&#45;&gt;Node11 -->
<g id="edge10_Node000002_Node000011" class="edge">
<title>Node2&#45;&gt;Node11</title>
<g id="a_edge10_Node000002_Node000011"><a xlink:title=" ">
<path fill="none" stroke="#63b8ff" d="M425.5,-169.66C504.32,-163.37 661.36,-149.63 804.33,-129.12"/>
<polygon fill="#63b8ff" stroke="#63b8ff" points="805.2,-132.53 814.6,-127.63 804.2,-125.6 805.2,-132.53"/>
</a>
</g>
</g>
<!-- Node15 -->
<g id="Node000015" class="node">
<title>Node15</title>
<g id="a_Node000015"><a xlink:href="VehicleTypes_8h.html" target="_top" xlink:title=" ">
<polygon fill="white" stroke="#666666" points="479.4,-129 390.4,-129 390.4,-110 479.4,-110 479.4,-129"/>
<text text-anchor="middle" x="434.9" y="-117" font-family="Helvetica,sans-Serif" font-size="10.00">VehicleTypes.h</text>
</a>
</g>
</g>
<!-- Node2&#45;&gt;Node15 -->
<g id="edge14_Node000002_Node000015" class="edge">
<title>Node2&#45;&gt;Node15</title>
<g id="a_edge14_Node000002_Node000015"><a xlink:title=" ">
<path fill="none" stroke="#63b8ff" d="M384.54,-164.98C393.41,-157.15 406.78,-145.34 417.51,-135.86"/>
<polygon fill="#63b8ff" stroke="#63b8ff" points="419.91,-138.41 425.09,-129.17 415.28,-133.17 419.91,-138.41"/>
</a>
</g>
</g>
<!-- Node10 -->
<g id="Node000010" class="node">
<title>Node10</title>
<g id="a_Node000010"><a xlink:title=" ">
<polygon fill="#e0e0e0" stroke="#999999" points="527.9,-19 477.9,-19 477.9,0 527.9,0 527.9,-19"/>
<text text-anchor="middle" x="502.9" y="-7" font-family="Helvetica,sans-Serif" font-size="10.00">cstdint</text>
</a>
</g>
</g>
<!-- Node9&#45;&gt;Node10 -->
<g id="edge9_Node000009_Node000010" class="edge">
<title>Node9&#45;&gt;Node10</title>
<g id="a_edge9_Node000009_Node000010"><a xlink:title=" ">
<path fill="none" stroke="#63b8ff" d="M502.9,-54.75C502.9,-47.8 502.9,-37.85 502.9,-29.13"/>
<polygon fill="#63b8ff" stroke="#63b8ff" points="506.4,-29.09 502.9,-19.09 499.4,-29.09 506.4,-29.09"/>
</a>
</g>
</g>
<!-- Node11&#45;&gt;Node12 -->
<g id="edge11_Node000011_Node000012" class="edge">
<title>Node11&#45;&gt;Node12</title>
<g id="a_edge11_Node000011_Node000012"><a xlink:title=" ">
<path fill="none" stroke="#63b8ff" d="M864.72,-109.98C878.06,-101.77 898.49,-89.18 914.21,-79.49"/>
<polygon fill="#63b8ff" stroke="#63b8ff" points="916.16,-82.4 922.84,-74.17 912.49,-76.44 916.16,-82.4"/>
</a>
</g>
</g>
<!-- Node13 -->
<g id="Node000013" class="node">
<title>Node13</title>
<g id="a_Node000013"><a xlink:title=" ">
<polygon fill="#e0e0e0" stroke="#999999" points="872.4,-74 783.4,-74 783.4,-55 872.4,-55 872.4,-74"/>
<text text-anchor="middle" x="827.9" y="-62" font-family="Helvetica,sans-Serif" font-size="10.00">QtCore/QTimer</text>
</a>
</g>
</g>
<!-- Node11&#45;&gt;Node13 -->
<g id="edge12_Node000011_Node000013" class="edge">
<title>Node11&#45;&gt;Node13</title>
<g id="a_edge12_Node000011_Node000013"><a xlink:title=" ">
<path fill="none" stroke="#63b8ff" d="M847.11,-109.75C843.99,-102.57 839.48,-92.18 835.62,-83.27"/>
<polygon fill="#63b8ff" stroke="#63b8ff" points="838.82,-81.87 831.63,-74.09 832.4,-84.66 838.82,-81.87"/>
</a>
</g>
</g>
<!-- Node14 -->
<g id="Node000014" class="node">
<title>Node14</title>
<g id="a_Node000014"><a xlink:title=" ">
<polygon fill="#e0e0e0" stroke="#999999" points="765.4,-74 670.4,-74 670.4,-55 765.4,-55 765.4,-74"/>
<text text-anchor="middle" x="717.9" y="-62" font-family="Helvetica,sans-Serif" font-size="10.00">QtCore/QVariant</text>
</a>
</g>
</g>
<!-- Node11&#45;&gt;Node14 -->
<g id="edge13_Node000011_Node000014" class="edge">
<title>Node11&#45;&gt;Node14</title>
<g id="a_edge13_Node000011_Node000014"><a xlink:title=" ">
<path fill="none" stroke="#63b8ff" d="M829.54,-109.98C807.75,-101.3 773.74,-87.75 748.98,-77.88"/>
<polygon fill="#63b8ff" stroke="#63b8ff" points="750.25,-74.62 739.66,-74.17 747.66,-81.12 750.25,-74.62"/>
</a>
</g>
</g>
<!-- Node15&#45;&gt;Node8 -->
<g id="edge15_Node000015_Node000008" class="edge">
<title>Node15&#45;&gt;Node8</title>
<g id="a_edge15_Node000015_Node000008"><a xlink:title=" ">
<path fill="none" stroke="#63b8ff" d="M402.13,-109.98C367.29,-100.93 312.04,-86.58 273.76,-76.64"/>
<polygon fill="#63b8ff" stroke="#63b8ff" points="274.5,-73.21 263.94,-74.08 272.74,-79.98 274.5,-73.21"/>
</a>
</g>
</g>
<!-- Node15&#45;&gt;Node9 -->
<g id="edge16_Node000015_Node000009" class="edge">
<title>Node15&#45;&gt;Node9</title>
<g id="a_edge16_Node000015_Node000009"><a xlink:title=" ">
<path fill="none" stroke="#63b8ff" d="M445.83,-109.98C455.98,-102.07 471.33,-90.11 483.55,-80.58"/>
<polygon fill="#63b8ff" stroke="#63b8ff" points="486.04,-83.08 491.78,-74.17 481.74,-77.56 486.04,-83.08"/>
</a>
</g>
</g>
<!-- Node17 -->
<g id="Node000017" class="node">
<title>Node17</title>
<g id="a_Node000017"><a xlink:title=" ">
<polygon fill="#e0e0e0" stroke="#999999" points="1016.4,-129 963.4,-129 963.4,-110 1016.4,-110 1016.4,-129"/>
<text text-anchor="middle" x="989.9" y="-117" font-family="Helvetica,sans-Serif" font-size="10.00">stdint.h</text>
</a>
</g>
</g>
<!-- Node16&#45;&gt;Node17 -->
<g id="edge19_Node000016_Node000017" class="edge">
<title>Node16&#45;&gt;Node17</title>
<g id="a_edge19_Node000016_Node000017"><a xlink:title=" ">
<path fill="none" stroke="#63b8ff" d="M1006.6,-164.75C1003.92,-157.65 1000.06,-147.4 996.72,-138.56"/>
<polygon fill="#63b8ff" stroke="#63b8ff" points="999.95,-137.21 993.15,-129.09 993.4,-139.68 999.95,-137.21"/>
</a>
</g>
</g>
<!-- Node18 -->
<g id="Node000018" class="node">
<title>Node18</title>
<g id="a_Node000018"><a xlink:title=" ">
<polygon fill="#e0e0e0" stroke="#999999" points="1132.9,-129 1034.9,-129 1034.9,-110 1132.9,-110 1132.9,-129"/>
<text text-anchor="middle" x="1083.9" y="-117" font-family="Helvetica,sans-Serif" font-size="10.00">mavlink_types.h</text>
</a>
</g>
</g>
<!-- Node16&#45;&gt;Node18 -->
<g id="edge20_Node000016_Node000018" class="edge">
<title>Node16&#45;&gt;Node18</title>
<g id="a_edge20_Node000016_Node000018"><a xlink:title=" ">
<path fill="none" stroke="#63b8ff" d="M1021.79,-164.98C1033.05,-156.92 1050.19,-144.65 1063.61,-135.03"/>
<polygon fill="#63b8ff" stroke="#63b8ff" points="1065.71,-137.84 1071.8,-129.17 1061.63,-132.15 1065.71,-137.84"/>
</a>
</g>
</g>
</g>
</svg>
