<?xml version="1.0" encoding="UTF-8" standalone="no"?>
<!DOCTYPE svg PUBLIC "-//W3C//DTD SVG 1.1//EN"
 "http://www.w3.org/Graphics/SVG/1.1/DTD/svg11.dtd">
<!-- Generated by graphviz version 2.43.0 (0)
 -->
<!-- Title: LogDownloadData Pages: 1 -->
<svg width="114pt" height="149pt"
 viewBox="0.00 0.00 114.00 149.00" xmlns="http://www.w3.org/2000/svg" xmlns:xlink="http://www.w3.org/1999/xlink">
<g id="graph0" class="graph" transform="scale(1 1) rotate(0) translate(4 145)">
<title>LogDownloadData</title>
<!-- Node1 -->
<g id="Node000001" class="node">
<title>Node1</title>
<g id="a_Node000001"><a xlink:title=" ">
<polygon fill="#999999" stroke="#666666" points="106,-19 0,-19 0,0 106,0 106,-19"/>
<text text-anchor="middle" x="53" y="-7" font-family="Helvetica,sans-Serif" font-size="10.00">LogDownloadData</text>
</a>
</g>
</g>
<!-- Node2 -->
<g id="Node000002" class="node">
<title>Node2</title>
<g id="a_Node000002"><a xlink:href="classQGCLogEntry.html" target="_top" xlink:title=" ">
<polygon fill="white" stroke="#666666" points="93.5,-85 12.5,-85 12.5,-66 93.5,-66 93.5,-85"/>
<text text-anchor="middle" x="53" y="-73" font-family="Helvetica,sans-Serif" font-size="10.00">QGCLogEntry</text>
</a>
</g>
</g>
<!-- Node2&#45;&gt;Node1 -->
<g id="edge1_Node000001_Node000002" class="edge">
<title>Node2&#45;&gt;Node1</title>
<g id="a_edge1_Node000001_Node000002"><a xlink:title=" ">
<path fill="none" stroke="#9a32cd" stroke-dasharray="5,2" d="M53,-55.58C53,-43.63 53,-28.72 53,-19.41"/>
<polygon fill="#9a32cd" stroke="#9a32cd" points="49.5,-55.87 53,-65.87 56.5,-55.87 49.5,-55.87"/>
</a>
</g>
<text text-anchor="middle" x="67.5" y="-40" font-family="Helvetica,sans-Serif" font-size="10.00" fill="grey"> entry</text>
</g>
<!-- Node3 -->
<g id="Node000003" class="node">
<title>Node3</title>
<g id="a_Node000003"><a xlink:title=" ">
<polygon fill="white" stroke="#666666" points="81,-141 25,-141 25,-122 81,-122 81,-141"/>
<text text-anchor="middle" x="53" y="-129" font-family="Helvetica,sans-Serif" font-size="10.00">QObject</text>
</a>
</g>
</g>
<!-- Node3&#45;&gt;Node2 -->
<g id="edge2_Node000002_Node000003" class="edge">
<title>Node3&#45;&gt;Node2</title>
<g id="a_edge2_Node000002_Node000003"><a xlink:title=" ">
<path fill="none" stroke="#63b8ff" d="M53,-111.3C53,-102.41 53,-92.28 53,-85.25"/>
<polygon fill="#63b8ff" stroke="#63b8ff" points="49.5,-111.58 53,-121.58 56.5,-111.58 49.5,-111.58"/>
</a>
</g>
</g>
</g>
</svg>
