<?xml version="1.0" encoding="UTF-8" standalone="no"?>
<!DOCTYPE svg PUBLIC "-//W3C//DTD SVG 1.1//EN"
 "http://www.w3.org/Graphics/SVG/1.1/DTD/svg11.dtd">
<!-- Generated by graphviz version 2.43.0 (0)
 -->
<!-- Title: src/MAVLink/SysStatusSensorInfo.cc Pages: 1 -->
<svg width="953pt" height="258pt"
 viewBox="0.00 0.00 952.50 258.00" xmlns="http://www.w3.org/2000/svg" xmlns:xlink="http://www.w3.org/1999/xlink">
<g id="graph0" class="graph" transform="scale(1 1) rotate(0) translate(4 254)">
<title>src/MAVLink/SysStatusSensorInfo.cc</title>
<!-- Node1 -->
<g id="Node000001" class="node">
<title>Node1</title>
<g id="a_Node000001"><a xlink:title=" ">
<polygon fill="#999999" stroke="#666666" points="534.5,-250 374.5,-250 374.5,-220 534.5,-220 534.5,-250"/>
<text text-anchor="start" x="382.5" y="-238" font-family="Helvetica,sans-Serif" font-size="10.00">src/MAVLink/SysStatusSensor</text>
<text text-anchor="middle" x="454.5" y="-227" font-family="Helvetica,sans-Serif" font-size="10.00">Info.cc</text>
</a>
</g>
</g>
<!-- Node2 -->
<g id="Node000002" class="node">
<title>Node2</title>
<g id="a_Node000002"><a xlink:href="SysStatusSensorInfo_8h.html" target="_top" xlink:title=" ">
<polygon fill="white" stroke="#666666" points="517,-184 392,-184 392,-165 517,-165 517,-184"/>
<text text-anchor="middle" x="454.5" y="-172" font-family="Helvetica,sans-Serif" font-size="10.00">SysStatusSensorInfo.h</text>
</a>
</g>
</g>
<!-- Node1&#45;&gt;Node2 -->
<g id="edge1_Node000001_Node000002" class="edge">
<title>Node1&#45;&gt;Node2</title>
<g id="a_edge1_Node000001_Node000002"><a xlink:title=" ">
<path fill="none" stroke="#63b8ff" d="M454.5,-219.84C454.5,-212.21 454.5,-202.7 454.5,-194.45"/>
<polygon fill="#63b8ff" stroke="#63b8ff" points="458,-194.27 454.5,-184.27 451,-194.27 458,-194.27"/>
</a>
</g>
</g>
<!-- Node11 -->
<g id="Node000011" class="node">
<title>Node11</title>
<g id="a_Node000011"><a xlink:href="QGCLoggingCategory_8h.html" target="_top" xlink:title=" ">
<polygon fill="white" stroke="#666666" points="350.5,-184 222.5,-184 222.5,-165 350.5,-165 350.5,-184"/>
<text text-anchor="middle" x="286.5" y="-172" font-family="Helvetica,sans-Serif" font-size="10.00">QGCLoggingCategory.h</text>
</a>
</g>
</g>
<!-- Node1&#45;&gt;Node11 -->
<g id="edge10_Node000001_Node000011" class="edge">
<title>Node1&#45;&gt;Node11</title>
<g id="a_edge10_Node000001_Node000011"><a xlink:title=" ">
<path fill="none" stroke="#63b8ff" d="M414.26,-219.99C385.73,-210.05 347.85,-196.86 320.77,-187.43"/>
<polygon fill="#63b8ff" stroke="#63b8ff" points="321.9,-184.12 311.31,-184.14 319.6,-190.73 321.9,-184.12"/>
</a>
</g>
</g>
<!-- Node17 -->
<g id="Node000017" class="node">
<title>Node17</title>
<g id="a_Node000017"><a xlink:href="QGCMAVLink_8h.html" target="_top" xlink:title=" ">
<polygon fill="white" stroke="#666666" points="737,-184 648,-184 648,-165 737,-165 737,-184"/>
<text text-anchor="middle" x="692.5" y="-172" font-family="Helvetica,sans-Serif" font-size="10.00">QGCMAVLink.h</text>
</a>
</g>
</g>
<!-- Node1&#45;&gt;Node17 -->
<g id="edge21_Node000001_Node000017" class="edge">
<title>Node1&#45;&gt;Node17</title>
<g id="a_edge21_Node000001_Node000017"><a xlink:title=" ">
<path fill="none" stroke="#63b8ff" d="M511.51,-219.99C553.29,-209.72 609.23,-195.97 647.8,-186.49"/>
<polygon fill="#63b8ff" stroke="#63b8ff" points="648.83,-189.84 657.7,-184.05 647.15,-183.04 648.83,-189.84"/>
</a>
</g>
</g>
<!-- Node3 -->
<g id="Node000003" class="node">
<title>Node3</title>
<g id="a_Node000003"><a xlink:title=" ">
<polygon fill="#e0e0e0" stroke="#999999" points="308,-19 165,-19 165,0 308,0 308,-19"/>
<text text-anchor="middle" x="236.5" y="-7" font-family="Helvetica,sans-Serif" font-size="10.00">QtCore/QLoggingCategory</text>
</a>
</g>
</g>
<!-- Node2&#45;&gt;Node3 -->
<g id="edge2_Node000002_Node000003" class="edge">
<title>Node2&#45;&gt;Node3</title>
<g id="a_edge2_Node000002_Node000003"><a xlink:title=" ">
<path fill="none" stroke="#63b8ff" d="M449.12,-164.69C440.28,-150.95 421.34,-124.49 398.5,-110 350.04,-79.26 319.94,-109.05 274.5,-74 259.44,-62.38 249.09,-42.96 243.04,-28.65"/>
<polygon fill="#63b8ff" stroke="#63b8ff" points="246.29,-27.35 239.38,-19.32 239.77,-29.9 246.29,-27.35"/>
</a>
</g>
</g>
<!-- Node4 -->
<g id="Node000004" class="node">
<title>Node4</title>
<g id="a_Node000004"><a xlink:title=" ">
<polygon fill="#e0e0e0" stroke="#999999" points="389.5,-129 307.5,-129 307.5,-110 389.5,-110 389.5,-129"/>
<text text-anchor="middle" x="348.5" y="-117" font-family="Helvetica,sans-Serif" font-size="10.00">QtCore/QMap</text>
</a>
</g>
</g>
<!-- Node2&#45;&gt;Node4 -->
<g id="edge3_Node000002_Node000004" class="edge">
<title>Node2&#45;&gt;Node4</title>
<g id="a_edge3_Node000002_Node000004"><a xlink:title=" ">
<path fill="none" stroke="#63b8ff" d="M437.47,-164.98C420.57,-156.54 394.44,-143.47 374.86,-133.68"/>
<polygon fill="#63b8ff" stroke="#63b8ff" points="376.35,-130.51 365.84,-129.17 373.22,-136.77 376.35,-130.51"/>
</a>
</g>
</g>
<!-- Node5 -->
<g id="Node000005" class="node">
<title>Node5</title>
<g id="a_Node000005"><a xlink:title=" ">
<polygon fill="#e0e0e0" stroke="#999999" points="537.5,-129 445.5,-129 445.5,-110 537.5,-110 537.5,-129"/>
<text text-anchor="middle" x="491.5" y="-117" font-family="Helvetica,sans-Serif" font-size="10.00">QtCore/QObject</text>
</a>
</g>
</g>
<!-- Node2&#45;&gt;Node5 -->
<g id="edge4_Node000002_Node000005" class="edge">
<title>Node2&#45;&gt;Node5</title>
<g id="a_edge4_Node000002_Node000005"><a xlink:title=" ">
<path fill="none" stroke="#63b8ff" d="M460.61,-164.75C465.78,-157.34 473.35,-146.5 479.69,-137.41"/>
<polygon fill="#63b8ff" stroke="#63b8ff" points="482.65,-139.29 485.5,-129.09 476.91,-135.29 482.65,-139.29"/>
</a>
</g>
</g>
<!-- Node6 -->
<g id="Node000006" class="node">
<title>Node6</title>
<g id="a_Node000006"><a xlink:href="MAVLinkLib_8h.html" target="_top" xlink:title=" ">
<polygon fill="white" stroke="#666666" points="655.5,-129 573.5,-129 573.5,-110 655.5,-110 655.5,-129"/>
<text text-anchor="middle" x="614.5" y="-117" font-family="Helvetica,sans-Serif" font-size="10.00">MAVLinkLib.h</text>
</a>
</g>
</g>
<!-- Node2&#45;&gt;Node6 -->
<g id="edge5_Node000002_Node000006" class="edge">
<title>Node2&#45;&gt;Node6</title>
<g id="a_edge5_Node000002_Node000006"><a xlink:title=" ">
<path fill="none" stroke="#63b8ff" d="M480.21,-164.98C506.95,-156.13 549.03,-142.19 578.95,-132.28"/>
<polygon fill="#63b8ff" stroke="#63b8ff" points="580.2,-135.55 588.59,-129.08 578,-128.9 580.2,-135.55"/>
</a>
</g>
</g>
<!-- Node7 -->
<g id="Node000007" class="node">
<title>Node7</title>
<g id="a_Node000007"><a xlink:title=" ">
<polygon fill="#e0e0e0" stroke="#999999" points="756,-74 703,-74 703,-55 756,-55 756,-74"/>
<text text-anchor="middle" x="729.5" y="-62" font-family="Helvetica,sans-Serif" font-size="10.00">stdint.h</text>
</a>
</g>
</g>
<!-- Node6&#45;&gt;Node7 -->
<g id="edge6_Node000006_Node000007" class="edge">
<title>Node6&#45;&gt;Node7</title>
<g id="a_edge6_Node000006_Node000007"><a xlink:title=" ">
<path fill="none" stroke="#63b8ff" d="M632.98,-109.98C651.48,-101.46 680.18,-88.23 701.48,-78.41"/>
<polygon fill="#63b8ff" stroke="#63b8ff" points="703.07,-81.53 710.69,-74.17 700.14,-75.18 703.07,-81.53"/>
</a>
</g>
</g>
<!-- Node8 -->
<g id="Node000008" class="node">
<title>Node8</title>
<g id="a_Node000008"><a xlink:title=" ">
<polygon fill="#e0e0e0" stroke="#999999" points="527.5,-74 429.5,-74 429.5,-55 527.5,-55 527.5,-74"/>
<text text-anchor="middle" x="478.5" y="-62" font-family="Helvetica,sans-Serif" font-size="10.00">mavlink_types.h</text>
</a>
</g>
</g>
<!-- Node6&#45;&gt;Node8 -->
<g id="edge7_Node000006_Node000008" class="edge">
<title>Node6&#45;&gt;Node8</title>
<g id="a_edge7_Node000006_Node000008"><a xlink:title=" ">
<path fill="none" stroke="#63b8ff" d="M592.65,-109.98C570.38,-101.3 535.6,-87.75 510.28,-77.88"/>
<polygon fill="#63b8ff" stroke="#63b8ff" points="511.34,-74.54 500.75,-74.17 508.79,-81.06 511.34,-74.54"/>
</a>
</g>
</g>
<!-- Node9 -->
<g id="Node000009" class="node">
<title>Node9</title>
<g id="a_Node000009"><a xlink:title=" ">
<polygon fill="#e0e0e0" stroke="#999999" points="601.5,-74 545.5,-74 545.5,-55 601.5,-55 601.5,-74"/>
<text text-anchor="middle" x="573.5" y="-62" font-family="Helvetica,sans-Serif" font-size="10.00">stddef.h</text>
</a>
</g>
</g>
<!-- Node6&#45;&gt;Node9 -->
<g id="edge8_Node000006_Node000009" class="edge">
<title>Node6&#45;&gt;Node9</title>
<g id="a_edge8_Node000006_Node000009"><a xlink:title=" ">
<path fill="none" stroke="#63b8ff" d="M607.73,-109.75C601.94,-102.26 593.44,-91.28 586.36,-82.13"/>
<polygon fill="#63b8ff" stroke="#63b8ff" points="589.03,-79.86 580.14,-74.09 583.49,-84.14 589.03,-79.86"/>
</a>
</g>
</g>
<!-- Node10 -->
<g id="Node000010" class="node">
<title>Node10</title>
<g id="a_Node000010"><a xlink:title=" ">
<polygon fill="#e0e0e0" stroke="#999999" points="685,-74 620,-74 620,-55 685,-55 685,-74"/>
<text text-anchor="middle" x="652.5" y="-62" font-family="Helvetica,sans-Serif" font-size="10.00">mavlink.h</text>
</a>
</g>
</g>
<!-- Node6&#45;&gt;Node10 -->
<g id="edge9_Node000006_Node000010" class="edge">
<title>Node6&#45;&gt;Node10</title>
<g id="a_edge9_Node000006_Node000010"><a xlink:title=" ">
<path fill="none" stroke="#63b8ff" d="M620.77,-109.75C626.09,-102.34 633.86,-91.5 640.38,-82.41"/>
<polygon fill="#63b8ff" stroke="#63b8ff" points="643.36,-84.26 646.34,-74.09 637.67,-80.18 643.36,-84.26"/>
</a>
</g>
</g>
<!-- Node11&#45;&gt;Node3 -->
<g id="edge17_Node000011_Node000003" class="edge">
<title>Node11&#45;&gt;Node3</title>
<g id="a_edge17_Node000011_Node000003"><a xlink:title=" ">
<path fill="none" stroke="#63b8ff" d="M222.5,-167.83C197.06,-162.07 170.16,-150.8 154.5,-129 127.82,-91.85 181.06,-47.33 213.68,-24.91"/>
<polygon fill="#63b8ff" stroke="#63b8ff" points="215.88,-27.65 222.26,-19.2 211.99,-21.83 215.88,-27.65"/>
</a>
</g>
</g>
<!-- Node11&#45;&gt;Node4 -->
<g id="edge20_Node000011_Node000004" class="edge">
<title>Node11&#45;&gt;Node4</title>
<g id="a_edge20_Node000011_Node000004"><a xlink:title=" ">
<path fill="none" stroke="#63b8ff" d="M296.46,-164.98C305.63,-157.15 319.44,-145.34 330.53,-135.86"/>
<polygon fill="#63b8ff" stroke="#63b8ff" points="333.03,-138.33 338.36,-129.17 328.48,-133.01 333.03,-138.33"/>
</a>
</g>
</g>
<!-- Node11&#45;&gt;Node5 -->
<g id="edge18_Node000011_Node000005" class="edge">
<title>Node11&#45;&gt;Node5</title>
<g id="a_edge18_Node000011_Node000005"><a xlink:title=" ">
<path fill="none" stroke="#63b8ff" d="M319.44,-164.98C354.45,-155.93 409.97,-141.58 448.43,-131.64"/>
<polygon fill="#63b8ff" stroke="#63b8ff" points="449.5,-134.97 458.31,-129.08 447.75,-128.2 449.5,-134.97"/>
</a>
</g>
</g>
<!-- Node12 -->
<g id="Node000012" class="node">
<title>Node12</title>
<g id="a_Node000012"><a xlink:href="QmlObjectListModel_8h.html" target="_top" xlink:title=" ">
<polygon fill="white" stroke="#666666" points="289,-129 164,-129 164,-110 289,-110 289,-129"/>
<text text-anchor="middle" x="226.5" y="-117" font-family="Helvetica,sans-Serif" font-size="10.00">QmlObjectListModel.h</text>
</a>
</g>
</g>
<!-- Node11&#45;&gt;Node12 -->
<g id="edge11_Node000011_Node000012" class="edge">
<title>Node11&#45;&gt;Node12</title>
<g id="a_edge11_Node000011_Node000012"><a xlink:title=" ">
<path fill="none" stroke="#63b8ff" d="M276.86,-164.98C267.99,-157.15 254.63,-145.34 243.89,-135.86"/>
<polygon fill="#63b8ff" stroke="#63b8ff" points="246.13,-133.17 236.32,-129.17 241.49,-138.41 246.13,-133.17"/>
</a>
</g>
</g>
<!-- Node16 -->
<g id="Node000016" class="node">
<title>Node16</title>
<g id="a_Node000016"><a xlink:title=" ">
<polygon fill="#e0e0e0" stroke="#999999" points="107,-129 0,-129 0,-110 107,-110 107,-129"/>
<text text-anchor="middle" x="53.5" y="-117" font-family="Helvetica,sans-Serif" font-size="10.00">QtCore/QStringList</text>
</a>
</g>
</g>
<!-- Node11&#45;&gt;Node16 -->
<g id="edge19_Node000011_Node000016" class="edge">
<title>Node11&#45;&gt;Node16</title>
<g id="a_edge19_Node000011_Node000016"><a xlink:title=" ">
<path fill="none" stroke="#63b8ff" d="M249.06,-164.98C208.85,-155.84 144.82,-141.27 101.06,-131.32"/>
<polygon fill="#63b8ff" stroke="#63b8ff" points="101.76,-127.89 91.23,-129.08 100.2,-134.71 101.76,-127.89"/>
</a>
</g>
</g>
<!-- Node12&#45;&gt;Node3 -->
<g id="edge16_Node000012_Node000003" class="edge">
<title>Node12&#45;&gt;Node3</title>
<g id="a_edge16_Node000012_Node000003"><a xlink:title=" ">
<path fill="none" stroke="#63b8ff" d="M227.32,-109.66C228.94,-92.17 232.58,-52.8 234.76,-29.27"/>
<polygon fill="#63b8ff" stroke="#63b8ff" points="238.26,-29.44 235.7,-19.16 231.29,-28.79 238.26,-29.44"/>
</a>
</g>
</g>
<!-- Node13 -->
<g id="Node000013" class="node">
<title>Node13</title>
<g id="a_Node000013"><a xlink:href="ObjectListModelBase_8h.html" target="_top" xlink:title=" ">
<polygon fill="white" stroke="#666666" points="411.5,-74 283.5,-74 283.5,-55 411.5,-55 411.5,-74"/>
<text text-anchor="middle" x="347.5" y="-62" font-family="Helvetica,sans-Serif" font-size="10.00">ObjectListModelBase.h</text>
</a>
</g>
</g>
<!-- Node12&#45;&gt;Node13 -->
<g id="edge12_Node000012_Node000013" class="edge">
<title>Node12&#45;&gt;Node13</title>
<g id="a_edge12_Node000012_Node000013"><a xlink:title=" ">
<path fill="none" stroke="#63b8ff" d="M245.94,-109.98C265.49,-101.42 295.88,-88.11 318.32,-78.28"/>
<polygon fill="#63b8ff" stroke="#63b8ff" points="319.95,-81.39 327.71,-74.17 317.14,-74.98 319.95,-81.39"/>
</a>
</g>
</g>
<!-- Node13&#45;&gt;Node3 -->
<g id="edge14_Node000013_Node000003" class="edge">
<title>Node13&#45;&gt;Node3</title>
<g id="a_edge14_Node000013_Node000003"><a xlink:title=" ">
<path fill="none" stroke="#63b8ff" d="M329.67,-54.98C311.89,-46.5 284.35,-33.35 263.82,-23.54"/>
<polygon fill="#63b8ff" stroke="#63b8ff" points="265.19,-20.32 254.66,-19.17 262.17,-26.64 265.19,-20.32"/>
</a>
</g>
</g>
<!-- Node14 -->
<g id="Node000014" class="node">
<title>Node14</title>
<g id="a_Node000014"><a xlink:title=" ">
<polygon fill="#e0e0e0" stroke="#999999" points="475,-19 326,-19 326,0 475,0 475,-19"/>
<text text-anchor="middle" x="400.5" y="-7" font-family="Helvetica,sans-Serif" font-size="10.00">QtCore/QAbstractListModel</text>
</a>
</g>
</g>
<!-- Node13&#45;&gt;Node14 -->
<g id="edge13_Node000013_Node000014" class="edge">
<title>Node13&#45;&gt;Node14</title>
<g id="a_edge13_Node000013_Node000014"><a xlink:title=" ">
<path fill="none" stroke="#63b8ff" d="M356.25,-54.75C363.97,-47.03 375.4,-35.6 384.72,-26.28"/>
<polygon fill="#63b8ff" stroke="#63b8ff" points="387.31,-28.64 391.91,-19.09 382.36,-23.69 387.31,-28.64"/>
</a>
</g>
</g>
<!-- Node15 -->
<g id="Node000015" class="node">
<title>Node15</title>
<g id="a_Node000015"><a xlink:title=" ">
<polygon fill="#e0e0e0" stroke="#999999" points="807,-19 618,-19 618,0 807,0 807,-19"/>
<text text-anchor="middle" x="712.5" y="-7" font-family="Helvetica,sans-Serif" font-size="10.00">QtQmlIntegration/QtQmlIntegration</text>
</a>
</g>
</g>
<!-- Node13&#45;&gt;Node15 -->
<g id="edge15_Node000013_Node000015" class="edge">
<title>Node13&#45;&gt;Node15</title>
<g id="a_edge15_Node000013_Node000015"><a xlink:title=" ">
<path fill="none" stroke="#63b8ff" d="M406.14,-54.98C470.83,-45.59 574.84,-30.49 643.43,-20.53"/>
<polygon fill="#63b8ff" stroke="#63b8ff" points="644.31,-23.94 653.7,-19.04 643.3,-17.01 644.31,-23.94"/>
</a>
</g>
</g>
<!-- Node17&#45;&gt;Node3 -->
<g id="edge23_Node000017_Node000003" class="edge">
<title>Node17&#45;&gt;Node3</title>
<g id="a_edge23_Node000017_Node000003"><a xlink:title=" ">
<path fill="none" stroke="#63b8ff" d="M693.4,-164.88C695.13,-151.85 699.94,-126.88 712.5,-110 732.76,-82.76 788.52,-79.95 765.5,-55 733.22,-20.02 400.66,-23.2 318.31,-18.81"/>
<polygon fill="#63b8ff" stroke="#63b8ff" points="318.26,-15.3 308.04,-18.1 317.78,-22.28 318.26,-15.3"/>
</a>
</g>
</g>
<!-- Node17&#45;&gt;Node5 -->
<g id="edge24_Node000017_Node000005" class="edge">
<title>Node17&#45;&gt;Node5</title>
<g id="a_edge24_Node000017_Node000005"><a xlink:title=" ">
<path fill="none" stroke="#63b8ff" d="M660.21,-164.98C625.88,-155.93 571.44,-141.58 533.73,-131.64"/>
<polygon fill="#63b8ff" stroke="#63b8ff" points="534.61,-128.25 524.05,-129.08 532.82,-135.02 534.61,-128.25"/>
</a>
</g>
</g>
<!-- Node17&#45;&gt;Node6 -->
<g id="edge27_Node000017_Node000006" class="edge">
<title>Node17&#45;&gt;Node6</title>
<g id="a_edge27_Node000017_Node000006"><a xlink:title=" ">
<path fill="none" stroke="#63b8ff" d="M679.97,-164.98C668.1,-156.92 650.04,-144.65 635.89,-135.03"/>
<polygon fill="#63b8ff" stroke="#63b8ff" points="637.5,-131.9 627.26,-129.17 633.56,-137.69 637.5,-131.9"/>
</a>
</g>
</g>
<!-- Node17&#45;&gt;Node15 -->
<g id="edge26_Node000017_Node000015" class="edge">
<title>Node17&#45;&gt;Node15</title>
<g id="a_edge26_Node000017_Node000015"><a xlink:title=" ">
<path fill="none" stroke="#63b8ff" d="M737.31,-170.52C765.91,-166.02 800.98,-155.11 819.5,-129 833.93,-108.66 812.19,-70.32 798.5,-55 785.58,-40.54 766.84,-30.07 750.15,-22.94"/>
<polygon fill="#63b8ff" stroke="#63b8ff" points="751.21,-19.59 740.62,-19.12 748.6,-26.09 751.21,-19.59"/>
</a>
</g>
</g>
<!-- Node18 -->
<g id="Node000018" class="node">
<title>Node18</title>
<g id="a_Node000018"><a xlink:title=" ">
<polygon fill="#e0e0e0" stroke="#999999" points="944.5,-129 866.5,-129 866.5,-110 944.5,-110 944.5,-129"/>
<text text-anchor="middle" x="905.5" y="-117" font-family="Helvetica,sans-Serif" font-size="10.00">QtCore/QList</text>
</a>
</g>
</g>
<!-- Node17&#45;&gt;Node18 -->
<g id="edge22_Node000017_Node000018" class="edge">
<title>Node17&#45;&gt;Node18</title>
<g id="a_edge22_Node000017_Node000018"><a xlink:title=" ">
<path fill="none" stroke="#63b8ff" d="M726.72,-164.98C763.26,-155.89 821.28,-141.46 861.26,-131.51"/>
<polygon fill="#63b8ff" stroke="#63b8ff" points="862.15,-134.89 871.01,-129.08 860.46,-128.1 862.15,-134.89"/>
</a>
</g>
</g>
<!-- Node19 -->
<g id="Node000019" class="node">
<title>Node19</title>
<g id="a_Node000019"><a xlink:title=" ">
<polygon fill="#e0e0e0" stroke="#999999" points="810,-129 721,-129 721,-110 810,-110 810,-129"/>
<text text-anchor="middle" x="765.5" y="-117" font-family="Helvetica,sans-Serif" font-size="10.00">QtCore/QString</text>
</a>
</g>
</g>
<!-- Node17&#45;&gt;Node19 -->
<g id="edge25_Node000017_Node000019" class="edge">
<title>Node17&#45;&gt;Node19</title>
<g id="a_edge25_Node000017_Node000019"><a xlink:title=" ">
<path fill="none" stroke="#63b8ff" d="M704.23,-164.98C715.23,-157 731.92,-144.88 745.1,-135.31"/>
<polygon fill="#63b8ff" stroke="#63b8ff" points="747.52,-137.88 753.56,-129.17 743.41,-132.21 747.52,-137.88"/>
</a>
</g>
</g>
</g>
</svg>
