<?xml version="1.0" encoding="UTF-8" standalone="no"?>
<!DOCTYPE svg PUBLIC "-//W3C//DTD SVG 1.1//EN"
 "http://www.w3.org/Graphics/SVG/1.1/DTD/svg11.dtd">
<!-- Generated by graphviz version 2.43.0 (0)
 -->
<!-- Title: src/Terrain/TerrainQuery.cc Pages: 1 -->
<!--zoomable 192 -->

<svg id="main" version="1.1" xmlns="http://www.w3.org/2000/svg" xmlns:xlink="http://www.w3.org/1999/xlink" xml:space="preserve" onload="init(evt)">
<style type="text/css"><![CDATA[
.node, .edge {opacity: 0.7;}
.node.selected, .edge.selected {opacity: 1;}
.edge:hover path { stroke: red; }
.edge:hover polygon { stroke: red; fill: red; }
]]></style>

<defs>
  <circle id="rim" cx="0" cy="0" r="7"/>
  <circle id="rim2" cx="0" cy="0" r="3.5"/>
  <g id="zoomPlus">
    <use xlink:href="#rim" fill="#404040"><set attributeName="fill" to="#808080" begin="zoomplus.mouseover" end="zoomplus.mouseout"/></use>
    <path d="M-4,0h8M0,-4v8" fill="none" stroke="white" stroke-width="1.5" pointer-events="none"/>
  </g>
  <g id="zoomMin">
    <use xlink:href="#rim" fill="#404040"><set attributeName="fill" to="#808080" begin="zoomminus.mouseover" end="zoomminus.mouseout"/></use>
    <path d="M-4,0h8" fill="none" stroke="white" stroke-width="1.5" pointer-events="none"/>
  </g>
  <g id="arrowUp" transform="translate(30 24)">
    <use xlink:href="#rim"/>
    <path pointer-events="none" fill="none" stroke="white" stroke-width="1.5" d="M0,-3.0v7 M-2.5,-0.5L0,-3.0L2.5,-0.5"/>
  </g>
  <g id="arrowRight" transform="rotate(90) translate(36 -43)">
    <use xlink:href="#rim"/>
    <path pointer-events="none" fill="none" stroke="white" stroke-width="1.5" d="M0,-3.0v7 M-2.5,-0.5L0,-3.0L2.5,-0.5"/>
  </g>
  <g id="arrowDown" transform="rotate(180) translate(-30 -48)">
    <use xlink:href="#rim"/>
    <path pointer-events="none" fill="none" stroke="white" stroke-width="1.5" d="M0,-3.0v7 M-2.5,-0.5L0,-3.0L2.5,-0.5"/>
  </g>
  <g id="arrowLeft" transform="rotate(270) translate(-36 17)">
    <use xlink:href="#rim"/>
    <path pointer-events="none" fill="none" stroke="white" stroke-width="1.5" d="M0,-3.0v7 M-2.5,-0.5L0,-3.0L2.5,-0.5"/>
  </g>
  <g id="resetDef">
    <use xlink:href="#rim2" fill="#404040"><set attributeName="fill" to="#808080" begin="reset.mouseover" end="reset.mouseout"/></use>
  </g>
</defs>
<script type="application/ecmascript">
var viewWidth = 1157;
var viewHeight = 192;
var sectionId = 'dynsection-0';
</script>
<script type="application/ecmascript" xlink:href="svg.min.js"/>
<svg id="graph" class="graph">
<g id="viewport">
<title>src/Terrain/TerrainQuery.cc</title>
<!-- Node1 -->
<g id="Node000001" class="node">
<title>Node1</title>
<g id="a_Node000001"><a xlink:title=" ">
<polygon fill="#999999" stroke="#666666" points="668,-184 524,-184 524,-165 668,-165 668,-184"/>
<text text-anchor="middle" x="596" y="-172" font-family="Helvetica,sans-Serif" font-size="10.00">src/Terrain/TerrainQuery.cc</text>
</a>
</g>
</g>
<!-- Node2 -->
<g id="Node000002" class="node">
<title>Node2</title>
<g id="a_Node000002"><a xlink:href="TerrainQuery_8h.html" target="_top" xlink:title=" ">
<polygon fill="white" stroke="#666666" points="639,-129 553,-129 553,-110 639,-110 639,-129"/>
<text text-anchor="middle" x="596" y="-117" font-family="Helvetica,sans-Serif" font-size="10.00">TerrainQuery.h</text>
</a>
</g>
</g>
<!-- Node1&#45;&gt;Node2 -->
<g id="edge1_Node000001_Node000002" class="edge">
<title>Node1&#45;&gt;Node2</title>
<g id="a_edge1_Node000001_Node000002"><a xlink:title=" ">
<path fill="none" stroke="#63b8ff" d="M596,-164.75C596,-157.8 596,-147.85 596,-139.13"/>
<polygon fill="#63b8ff" stroke="#63b8ff" points="599.5,-139.09 596,-129.09 592.5,-139.09 599.5,-139.09"/>
</a>
</g>
</g>
<!-- Node11 -->
<g id="Node000011" class="node">
<title>Node11</title>
<g id="a_Node000011"><a xlink:href="TerrainQueryInterface_8h.html" target="_top" xlink:title=" ">
<polygon fill="white" stroke="#666666" points="573.5,-74 442.5,-74 442.5,-55 573.5,-55 573.5,-74"/>
<text text-anchor="middle" x="508" y="-62" font-family="Helvetica,sans-Serif" font-size="10.00">TerrainQueryInterface.h</text>
</a>
</g>
</g>
<!-- Node1&#45;&gt;Node11 -->
<g id="edge14_Node000001_Node000011" class="edge">
<title>Node1&#45;&gt;Node11</title>
<g id="a_edge14_Node000001_Node000011"><a xlink:title=" ">
<path fill="none" stroke="#63b8ff" d="M583.79,-164.98C572.52,-156.7 555.79,-143.3 544,-129 532.44,-114.97 522.53,-96.73 516.05,-83.4"/>
<polygon fill="#63b8ff" stroke="#63b8ff" points="519.21,-81.88 511.8,-74.31 512.87,-84.85 519.21,-81.88"/>
</a>
</g>
</g>
<!-- Node13 -->
<g id="Node000013" class="node">
<title>Node13</title>
<g id="a_Node000013"><a xlink:href="TerrainTileManager_8h.html" target="_top" xlink:title=" ">
<polygon fill="white" stroke="#666666" points="364.5,-129 245.5,-129 245.5,-110 364.5,-110 364.5,-129"/>
<text text-anchor="middle" x="305" y="-117" font-family="Helvetica,sans-Serif" font-size="10.00">TerrainTileManager.h</text>
</a>
</g>
</g>
<!-- Node1&#45;&gt;Node13 -->
<g id="edge15_Node000001_Node000013" class="edge">
<title>Node1&#45;&gt;Node13</title>
<g id="a_edge15_Node000001_Node000013"><a xlink:title=" ">
<path fill="none" stroke="#63b8ff" d="M549.25,-164.98C498.28,-155.7 416.69,-140.84 362.01,-130.88"/>
<polygon fill="#63b8ff" stroke="#63b8ff" points="362.59,-127.43 352.12,-129.08 361.33,-134.32 362.59,-127.43"/>
</a>
</g>
</g>
<!-- Node15 -->
<g id="Node000015" class="node">
<title>Node15</title>
<g id="a_Node000015"><a xlink:href="QGCLoggingCategory_8h.html" target="_top" xlink:title=" ">
<polygon fill="white" stroke="#666666" points="785,-129 657,-129 657,-110 785,-110 785,-129"/>
<text text-anchor="middle" x="721" y="-117" font-family="Helvetica,sans-Serif" font-size="10.00">QGCLoggingCategory.h</text>
</a>
</g>
</g>
<!-- Node1&#45;&gt;Node15 -->
<g id="edge21_Node000001_Node000015" class="edge">
<title>Node1&#45;&gt;Node15</title>
<g id="a_edge21_Node000001_Node000015"><a xlink:title=" ">
<path fill="none" stroke="#63b8ff" d="M616.08,-164.98C636.37,-156.38 667.96,-142.99 691.17,-133.15"/>
<polygon fill="#63b8ff" stroke="#63b8ff" points="692.71,-136.3 700.55,-129.17 689.98,-129.85 692.71,-136.3"/>
</a>
</g>
</g>
<!-- Node17 -->
<g id="Node000017" class="node">
<title>Node17</title>
<g id="a_Node000017"><a xlink:title=" ">
<polygon fill="#e0e0e0" stroke="#999999" points="892.5,-129 803.5,-129 803.5,-110 892.5,-110 892.5,-129"/>
<text text-anchor="middle" x="848" y="-117" font-family="Helvetica,sans-Serif" font-size="10.00">QtCore/QTimer</text>
</a>
</g>
</g>
<!-- Node1&#45;&gt;Node17 -->
<g id="edge23_Node000001_Node000017" class="edge">
<title>Node1&#45;&gt;Node17</title>
<g id="a_edge23_Node000001_Node000017"><a xlink:title=" ">
<path fill="none" stroke="#63b8ff" d="M636.49,-164.98C680.17,-155.8 749.81,-141.15 797.15,-131.19"/>
<polygon fill="#63b8ff" stroke="#63b8ff" points="798.13,-134.57 807.19,-129.08 796.69,-127.72 798.13,-134.57"/>
</a>
</g>
</g>
<!-- Node3 -->
<g id="Node000003" class="node">
<title>Node3</title>
<g id="a_Node000003"><a xlink:title=" ">
<polygon fill="#e0e0e0" stroke="#999999" points="576,-19 484,-19 484,0 576,0 576,-19"/>
<text text-anchor="middle" x="530" y="-7" font-family="Helvetica,sans-Serif" font-size="10.00">QtCore/QObject</text>
</a>
</g>
</g>
<!-- Node2&#45;&gt;Node3 -->
<g id="edge2_Node000002_Node000003" class="edge">
<title>Node2&#45;&gt;Node3</title>
<g id="a_edge2_Node000002_Node000003"><a xlink:title=" ">
<path fill="none" stroke="#63b8ff" d="M595.98,-109.63C595.58,-96.73 593.36,-72.4 583,-55 575.8,-42.9 564.08,-32.56 553.5,-24.89"/>
<polygon fill="#63b8ff" stroke="#63b8ff" points="555.23,-21.84 544.99,-19.11 551.29,-27.63 555.23,-21.84"/>
</a>
</g>
</g>
<!-- Node4 -->
<g id="Node000004" class="node">
<title>Node4</title>
<g id="a_Node000004"><a xlink:title=" ">
<polygon fill="#e0e0e0" stroke="#999999" points="987.5,-74 892.5,-74 892.5,-55 987.5,-55 987.5,-74"/>
<text text-anchor="middle" x="940" y="-62" font-family="Helvetica,sans-Serif" font-size="10.00">QtCore/QPointer</text>
</a>
</g>
</g>
<!-- Node2&#45;&gt;Node4 -->
<g id="edge3_Node000002_Node000004" class="edge">
<title>Node2&#45;&gt;Node4</title>
<g id="a_edge3_Node000002_Node000004"><a xlink:title=" ">
<path fill="none" stroke="#63b8ff" d="M639.12,-111.41C642.13,-110.93 645.11,-110.46 648,-110 670.6,-106.43 803.63,-86.21 882.12,-74.29"/>
<polygon fill="#63b8ff" stroke="#63b8ff" points="882.98,-77.7 892.34,-72.73 881.93,-70.78 882.98,-77.7"/>
</a>
</g>
</g>
<!-- Node5 -->
<g id="Node000005" class="node">
<title>Node5</title>
<g id="a_Node000005"><a xlink:title=" ">
<polygon fill="#e0e0e0" stroke="#999999" points="424,-74 332,-74 332,-55 424,-55 424,-74"/>
<text text-anchor="middle" x="378" y="-62" font-family="Helvetica,sans-Serif" font-size="10.00">QtCore/QQueue</text>
</a>
</g>
</g>
<!-- Node2&#45;&gt;Node5 -->
<g id="edge4_Node000002_Node000005" class="edge">
<title>Node2&#45;&gt;Node5</title>
<g id="a_edge4_Node000002_Node000005"><a xlink:title=" ">
<path fill="none" stroke="#63b8ff" d="M560.97,-109.98C523.5,-100.87 463.95,-86.4 423.02,-76.45"/>
<polygon fill="#63b8ff" stroke="#63b8ff" points="423.84,-73.04 413.3,-74.08 422.19,-79.85 423.84,-73.04"/>
</a>
</g>
</g>
<!-- Node6 -->
<g id="Node000006" class="node">
<title>Node6</title>
<g id="a_Node000006"><a xlink:title=" ">
<polygon fill="#e0e0e0" stroke="#999999" points="725.5,-74 630.5,-74 630.5,-55 725.5,-55 725.5,-74"/>
<text text-anchor="middle" x="678" y="-62" font-family="Helvetica,sans-Serif" font-size="10.00">QtCore/QVariant</text>
</a>
</g>
</g>
<!-- Node2&#45;&gt;Node6 -->
<g id="edge5_Node000002_Node000006" class="edge">
<title>Node2&#45;&gt;Node6</title>
<g id="a_edge5_Node000002_Node000006"><a xlink:title=" ">
<path fill="none" stroke="#63b8ff" d="M609.17,-109.98C621.77,-101.84 641,-89.41 655.94,-79.76"/>
<polygon fill="#63b8ff" stroke="#63b8ff" points="658.09,-82.54 664.59,-74.17 654.29,-76.66 658.09,-82.54"/>
</a>
</g>
</g>
<!-- Node7 -->
<g id="Node000007" class="node">
<title>Node7</title>
<g id="a_Node000007"><a xlink:title=" ">
<polygon fill="#e0e0e0" stroke="#999999" points="313.5,-74 148.5,-74 148.5,-55 313.5,-55 313.5,-74"/>
<text text-anchor="middle" x="231" y="-62" font-family="Helvetica,sans-Serif" font-size="10.00">QtPositioning/QGeoCoordinate</text>
</a>
</g>
</g>
<!-- Node2&#45;&gt;Node7 -->
<g id="edge6_Node000002_Node000007" class="edge">
<title>Node2&#45;&gt;Node7</title>
<g id="a_edge6_Node000002_Node000007"><a xlink:title=" ">
<path fill="none" stroke="#63b8ff" d="M552.7,-112.21C490.2,-103.14 374.1,-86.28 299.79,-75.49"/>
<polygon fill="#63b8ff" stroke="#63b8ff" points="300,-71.98 289.6,-74.01 298.99,-78.91 300,-71.98"/>
</a>
</g>
</g>
<!-- Node8 -->
<g id="Node000008" class="node">
<title>Node8</title>
<g id="a_Node000008"><a xlink:href="TerrainPathHeightInfo_8h.html" target="_top" xlink:title=" ">
<polygon fill="white" stroke="#666666" points="874.5,-74 743.5,-74 743.5,-55 874.5,-55 874.5,-74"/>
<text text-anchor="middle" x="809" y="-62" font-family="Helvetica,sans-Serif" font-size="10.00">TerrainPathHeightInfo.h</text>
</a>
</g>
</g>
<!-- Node2&#45;&gt;Node8 -->
<g id="edge7_Node000002_Node000008" class="edge">
<title>Node2&#45;&gt;Node8</title>
<g id="a_edge7_Node000002_Node000008"><a xlink:title=" ">
<path fill="none" stroke="#63b8ff" d="M630.22,-109.98C666.76,-100.89 724.78,-86.46 764.76,-76.51"/>
<polygon fill="#63b8ff" stroke="#63b8ff" points="765.65,-79.89 774.51,-74.08 763.96,-73.1 765.65,-79.89"/>
</a>
</g>
</g>
<!-- Node2&#45;&gt;Node11 -->
<g id="edge10_Node000002_Node000011" class="edge">
<title>Node2&#45;&gt;Node11</title>
<g id="a_edge10_Node000002_Node000011"><a xlink:title=" ">
<path fill="none" stroke="#63b8ff" d="M581.86,-109.98C568.21,-101.77 547.31,-89.18 531.22,-79.49"/>
<polygon fill="#63b8ff" stroke="#63b8ff" points="532.77,-76.33 522.4,-74.17 529.16,-82.33 532.77,-76.33"/>
</a>
</g>
</g>
<!-- Node9 -->
<g id="Node000009" class="node">
<title>Node9</title>
<g id="a_Node000009"><a xlink:title=" ">
<polygon fill="#e0e0e0" stroke="#999999" points="694,-19 616,-19 616,0 694,0 694,-19"/>
<text text-anchor="middle" x="655" y="-7" font-family="Helvetica,sans-Serif" font-size="10.00">QtCore/QList</text>
</a>
</g>
</g>
<!-- Node8&#45;&gt;Node9 -->
<g id="edge8_Node000008_Node000009" class="edge">
<title>Node8&#45;&gt;Node9</title>
<g id="a_edge8_Node000008_Node000009"><a xlink:title=" ">
<path fill="none" stroke="#63b8ff" d="M784.26,-54.98C758.63,-46.16 718.37,-32.31 689.59,-22.41"/>
<polygon fill="#63b8ff" stroke="#63b8ff" points="690.53,-19.03 679.94,-19.08 688.25,-25.65 690.53,-19.03"/>
</a>
</g>
</g>
<!-- Node10 -->
<g id="Node000010" class="node">
<title>Node10</title>
<g id="a_Node000010"><a xlink:title=" ">
<polygon fill="#e0e0e0" stroke="#999999" points="863,-19 755,-19 755,0 863,0 863,-19"/>
<text text-anchor="middle" x="809" y="-7" font-family="Helvetica,sans-Serif" font-size="10.00">QtCore/QMetaType</text>
</a>
</g>
</g>
<!-- Node8&#45;&gt;Node10 -->
<g id="edge9_Node000008_Node000010" class="edge">
<title>Node8&#45;&gt;Node10</title>
<g id="a_edge9_Node000008_Node000010"><a xlink:title=" ">
<path fill="none" stroke="#63b8ff" d="M809,-54.75C809,-47.8 809,-37.85 809,-29.13"/>
<polygon fill="#63b8ff" stroke="#63b8ff" points="812.5,-29.09 809,-19.09 805.5,-29.09 812.5,-29.09"/>
</a>
</g>
</g>
<!-- Node11&#45;&gt;Node3 -->
<g id="edge12_Node000011_Node000003" class="edge">
<title>Node11&#45;&gt;Node3</title>
<g id="a_edge12_Node000011_Node000003"><a xlink:title=" ">
<path fill="none" stroke="#63b8ff" d="M511.63,-54.75C514.58,-47.65 518.83,-37.4 522.51,-28.56"/>
<polygon fill="#63b8ff" stroke="#63b8ff" points="525.83,-29.67 526.43,-19.09 519.37,-26.98 525.83,-29.67"/>
</a>
</g>
</g>
<!-- Node11&#45;&gt;Node9 -->
<g id="edge11_Node000011_Node000009" class="edge">
<title>Node11&#45;&gt;Node9</title>
<g id="a_edge11_Node000011_Node000009"><a xlink:title=" ">
<path fill="none" stroke="#63b8ff" d="M531.62,-54.98C555.9,-46.23 593.95,-32.51 621.37,-22.62"/>
<polygon fill="#63b8ff" stroke="#63b8ff" points="622.73,-25.85 630.95,-19.17 620.36,-19.27 622.73,-25.85"/>
</a>
</g>
</g>
<!-- Node12 -->
<g id="Node000012" class="node">
<title>Node12</title>
<g id="a_Node000012"><a xlink:title=" ">
<polygon fill="#e0e0e0" stroke="#999999" points="465.5,-19 316.5,-19 316.5,0 465.5,0 465.5,-19"/>
<text text-anchor="middle" x="391" y="-7" font-family="Helvetica,sans-Serif" font-size="10.00">QtNetwork/QNetworkReply</text>
</a>
</g>
</g>
<!-- Node11&#45;&gt;Node12 -->
<g id="edge13_Node000011_Node000012" class="edge">
<title>Node11&#45;&gt;Node12</title>
<g id="a_edge13_Node000011_Node000012"><a xlink:title=" ">
<path fill="none" stroke="#63b8ff" d="M489.2,-54.98C470.38,-46.46 441.18,-33.23 419.5,-23.41"/>
<polygon fill="#63b8ff" stroke="#63b8ff" points="420.69,-20.11 410.14,-19.17 417.8,-26.48 420.69,-20.11"/>
</a>
</g>
</g>
<!-- Node13&#45;&gt;Node3 -->
<g id="edge18_Node000013_Node000003" class="edge">
<title>Node13&#45;&gt;Node3</title>
<g id="a_edge18_Node000013_Node000003"><a xlink:title=" ">
<path fill="none" stroke="#63b8ff" d="M245.46,-114.63C184.97,-108.54 104.72,-93.16 139,-55 187.13,-1.42 383.93,-26.51 473.73,-18.75"/>
<polygon fill="#63b8ff" stroke="#63b8ff" points="474.31,-22.21 483.88,-17.66 473.56,-15.25 474.31,-22.21"/>
</a>
</g>
</g>
<!-- Node13&#45;&gt;Node5 -->
<g id="edge19_Node000013_Node000005" class="edge">
<title>Node13&#45;&gt;Node5</title>
<g id="a_edge19_Node000013_Node000005"><a xlink:title=" ">
<path fill="none" stroke="#63b8ff" d="M316.73,-109.98C327.73,-102 344.42,-89.88 357.6,-80.31"/>
<polygon fill="#63b8ff" stroke="#63b8ff" points="360.02,-82.88 366.06,-74.17 355.91,-77.21 360.02,-82.88"/>
</a>
</g>
</g>
<!-- Node13&#45;&gt;Node7 -->
<g id="edge20_Node000013_Node000007" class="edge">
<title>Node13&#45;&gt;Node7</title>
<g id="a_edge20_Node000013_Node000007"><a xlink:title=" ">
<path fill="none" stroke="#63b8ff" d="M293.11,-109.98C281.85,-101.92 264.71,-89.65 251.29,-80.03"/>
<polygon fill="#63b8ff" stroke="#63b8ff" points="253.27,-77.15 243.11,-74.17 249.2,-82.84 253.27,-77.15"/>
</a>
</g>
</g>
<!-- Node13&#45;&gt;Node11 -->
<g id="edge16_Node000013_Node000011" class="edge">
<title>Node13&#45;&gt;Node11</title>
<g id="a_edge16_Node000013_Node000011"><a xlink:title=" ">
<path fill="none" stroke="#63b8ff" d="M337.62,-109.98C372.29,-100.93 427.26,-86.58 465.35,-76.64"/>
<polygon fill="#63b8ff" stroke="#63b8ff" points="466.34,-79.99 475.13,-74.08 464.57,-73.22 466.34,-79.99"/>
</a>
</g>
</g>
<!-- Node14 -->
<g id="Node000014" class="node">
<title>Node14</title>
<g id="a_Node000014"><a xlink:title=" ">
<polygon fill="#e0e0e0" stroke="#999999" points="92,-74 0,-74 0,-55 92,-55 92,-74"/>
<text text-anchor="middle" x="46" y="-62" font-family="Helvetica,sans-Serif" font-size="10.00">QtCore/QMutex</text>
</a>
</g>
</g>
<!-- Node13&#45;&gt;Node14 -->
<g id="edge17_Node000013_Node000014" class="edge">
<title>Node13&#45;&gt;Node14</title>
<g id="a_edge17_Node000013_Node000014"><a xlink:title=" ">
<path fill="none" stroke="#63b8ff" d="M263.39,-109.98C218.4,-100.78 146.61,-86.09 97.95,-76.13"/>
<polygon fill="#63b8ff" stroke="#63b8ff" points="98.44,-72.66 87.94,-74.08 97.03,-79.52 98.44,-72.66"/>
</a>
</g>
</g>
<!-- Node16 -->
<g id="Node000016" class="node">
<title>Node16</title>
<g id="a_Node000016"><a xlink:title=" ">
<polygon fill="#e0e0e0" stroke="#999999" points="1148.5,-74 1005.5,-74 1005.5,-55 1148.5,-55 1148.5,-74"/>
<text text-anchor="middle" x="1077" y="-62" font-family="Helvetica,sans-Serif" font-size="10.00">QtCore/QLoggingCategory</text>
</a>
</g>
</g>
<!-- Node15&#45;&gt;Node16 -->
<g id="edge22_Node000015_Node000016" class="edge">
<title>Node15&#45;&gt;Node16</title>
<g id="a_edge22_Node000015_Node000016"><a xlink:title=" ">
<path fill="none" stroke="#63b8ff" d="M778.2,-109.98C841.29,-100.59 942.73,-85.49 1009.63,-75.53"/>
<polygon fill="#63b8ff" stroke="#63b8ff" points="1010.27,-78.97 1019.65,-74.04 1009.24,-72.05 1010.27,-78.97"/>
</a>
</g>
</g>
</g>
</svg>

<g id="navigator" transform="translate(0 0)" fill="#404254">
  <rect fill="#f2f5e9" fill-opacity="0.5" stroke="#606060" stroke-width=".5" x="0" y="0" width="60" height="60"/>
  <use id="zoomplus" xlink:href="#zoomPlus" x="17" y="9" onmousedown="handleZoom(evt,'in')"/>
  <use id="zoomminus" xlink:href="#zoomMin" x="42" y="9" onmousedown="handleZoom(evt,'out')"/>
  <use id="reset" xlink:href="#resetDef" x="30" y="36" onmousedown="handleReset()"/>
   <use id="arrowup" xlink:href="#arrowUp" x="0" y="0" onmousedown="handlePan(0,-1)"/>
  <use id="arrowright" xlink:href="#arrowRight" x="0" y="0" onmousedown="handlePan(1,0)"/>
  <use id="arrowdown" xlink:href="#arrowDown" x="0" y="0" onmousedown="handlePan(0,1)"/>
  <use id="arrowleft" xlink:href="#arrowLeft" x="0" y="0" onmousedown="handlePan(-1,0)"/>
</g>
<svg viewBox="0 0 15 15" width="100%" height="30px" preserveAspectRatio="xMaxYMin meet">
 <g id="arrow_out" transform="scale(0.3 0.3)">
  <a xlink:href="TerrainQuery_8cc__incl_org.svg" target="_base">
   <rect id="button" ry="5" rx="5" y="6" x="6" height="38" width="38"
        fill="#f2f5e9" fill-opacity="0.5" stroke="#606060" stroke-width="1.0"/>
   <path id="arrow"
     d="M 11.500037,31.436501 C 11.940474,20.09759 22.043105,11.32322 32.158766,21.979434 L 37.068811,17.246167 C 37.068811,17.246167 37.088388,32 37.088388,32 L 22.160133,31.978069 C 22.160133,31.978069 26.997745,27.140456 26.997745,27.140456 C 18.528582,18.264221 13.291696,25.230495 11.500037,31.436501 z"
     style="fill:#404040;"/>
  </a>
 </g>
</svg>

<style type='text/css'>
<![CDATA[
[data-mouse-over-selected='false'] { opacity: 0.7; }
[data-mouse-over-selected='true']  { opacity: 1.0; }
]]>
</style>
<script type="application/ecmascript"><![CDATA[
document.addEventListener('DOMContentLoaded', (event) => {
  highlightEdges();
  highlightAdjacentNodes();
});
]]></script>
</svg>
