<?xml version="1.0" encoding="UTF-8" standalone="no"?>
<!DOCTYPE svg PUBLIC "-//W3C//DTD SVG 1.1//EN"
 "http://www.w3.org/Graphics/SVG/1.1/DTD/svg11.dtd">
<!-- Generated by graphviz version 2.43.0 (0)
 -->
<!-- Title: src/Terrain/Providers/TerrainQueryCopernicus.cc Pages: 1 -->
<svg width="2641pt" height="291pt"
 viewBox="0.00 0.00 2641.00 291.00" xmlns="http://www.w3.org/2000/svg" xmlns:xlink="http://www.w3.org/1999/xlink">
<g id="graph0" class="graph" transform="scale(1 1) rotate(0) translate(4 287)">
<title>src/Terrain/Providers/TerrainQueryCopernicus.cc</title>
<!-- Node1 -->
<g id="Node000001" class="node">
<title>Node1</title>
<g id="a_Node000001"><a xlink:title=" ">
<polygon fill="#999999" stroke="#666666" points="1380,-283 1231,-283 1231,-253 1380,-253 1380,-283"/>
<text text-anchor="start" x="1239" y="-271" font-family="Helvetica,sans-Serif" font-size="10.00">src/Terrain/Providers</text>
<text text-anchor="middle" x="1305.5" y="-260" font-family="Helvetica,sans-Serif" font-size="10.00">/TerrainQueryCopernicus.cc</text>
</a>
</g>
</g>
<!-- Node2 -->
<g id="Node000002" class="node">
<title>Node2</title>
<g id="a_Node000002"><a xlink:href="TerrainQueryCopernicus_8h.html" target="_top" xlink:title=" ">
<polygon fill="white" stroke="#666666" points="309.5,-211.5 167.5,-211.5 167.5,-192.5 309.5,-192.5 309.5,-211.5"/>
<text text-anchor="middle" x="238.5" y="-199.5" font-family="Helvetica,sans-Serif" font-size="10.00">TerrainQueryCopernicus.h</text>
</a>
</g>
</g>
<!-- Node1&#45;&gt;Node2 -->
<g id="edge1_Node000001_Node000002" class="edge">
<title>Node1&#45;&gt;Node2</title>
<g id="a_edge1_Node000001_Node000002"><a xlink:title=" ">
<path fill="none" stroke="#63b8ff" d="M1230.82,-264.26C1072.58,-258.16 691.94,-242.04 373.5,-217 356.12,-215.63 337.51,-213.89 319.84,-212.1"/>
<polygon fill="#63b8ff" stroke="#63b8ff" points="319.86,-208.58 309.55,-211.04 319.14,-215.54 319.86,-208.58"/>
</a>
</g>
</g>
<!-- Node7 -->
<g id="Node000007" class="node">
<title>Node7</title>
<g id="a_Node000007"><a xlink:title=" ">
<polygon fill="#e0e0e0" stroke="#999999" points="149,-79.5 0,-79.5 0,-60.5 149,-60.5 149,-79.5"/>
<text text-anchor="middle" x="74.5" y="-67.5" font-family="Helvetica,sans-Serif" font-size="10.00">QtNetwork/QNetworkReply</text>
</a>
</g>
</g>
<!-- Node1&#45;&gt;Node7 -->
<g id="edge54_Node000001_Node000007" class="edge">
<title>Node1&#45;&gt;Node7</title>
<g id="a_edge54_Node000001_Node000007"><a xlink:title=" ">
<path fill="none" stroke="#63b8ff" d="M1230.79,-267.09C991.63,-266.92 254.87,-262.66 158.5,-217 107.93,-193.04 86.02,-123.32 78.19,-89.64"/>
<polygon fill="#63b8ff" stroke="#63b8ff" points="81.58,-88.75 76.05,-79.72 74.74,-90.23 81.58,-88.75"/>
</a>
</g>
</g>
<!-- Node8 -->
<g id="Node000008" class="node">
<title>Node8</title>
<g id="a_Node000008"><a xlink:href="TerrainTileCopernicus_8h.html" target="_top" xlink:title=" ">
<polygon fill="white" stroke="#666666" points="514,-211.5 383,-211.5 383,-192.5 514,-192.5 514,-211.5"/>
<text text-anchor="middle" x="448.5" y="-199.5" font-family="Helvetica,sans-Serif" font-size="10.00">TerrainTileCopernicus.h</text>
</a>
</g>
</g>
<!-- Node1&#45;&gt;Node8 -->
<g id="edge9_Node000001_Node000008" class="edge">
<title>Node1&#45;&gt;Node8</title>
<g id="a_edge9_Node000001_Node000008"><a xlink:title=" ">
<path fill="none" stroke="#63b8ff" d="M1230.95,-261.43C1069.26,-249.36 687.83,-220.87 524.68,-208.69"/>
<polygon fill="#63b8ff" stroke="#63b8ff" points="524.49,-205.17 514.25,-207.91 523.97,-212.15 524.49,-205.17"/>
</a>
</g>
</g>
<!-- Node10 -->
<g id="Node000010" class="node">
<title>Node10</title>
<g id="a_Node000010"><a xlink:href="ElevationMapProvider_8h.html" target="_top" xlink:title=" ">
<polygon fill="white" stroke="#666666" points="1277.5,-211.5 1145.5,-211.5 1145.5,-192.5 1277.5,-192.5 1277.5,-211.5"/>
<text text-anchor="middle" x="1211.5" y="-199.5" font-family="Helvetica,sans-Serif" font-size="10.00">ElevationMapProvider.h</text>
</a>
</g>
</g>
<!-- Node1&#45;&gt;Node10 -->
<g id="edge15_Node000001_Node000010" class="edge">
<title>Node1&#45;&gt;Node10</title>
<g id="a_edge15_Node000001_Node000010"><a xlink:title=" ">
<path fill="none" stroke="#63b8ff" d="M1284.64,-252.8C1269.18,-242.27 1248.18,-227.97 1232.65,-217.4"/>
<polygon fill="#63b8ff" stroke="#63b8ff" points="1234.45,-214.39 1224.22,-211.66 1230.51,-220.18 1234.45,-214.39"/>
</a>
</g>
</g>
<!-- Node18 -->
<g id="Node000018" class="node">
<title>Node18</title>
<g id="a_Node000018"><a xlink:href="QGCLoggingCategory_8h.html" target="_top" xlink:title=" ">
<polygon fill="white" stroke="#666666" points="2374.5,-145.5 2246.5,-145.5 2246.5,-126.5 2374.5,-126.5 2374.5,-145.5"/>
<text text-anchor="middle" x="2310.5" y="-133.5" font-family="Helvetica,sans-Serif" font-size="10.00">QGCLoggingCategory.h</text>
</a>
</g>
</g>
<!-- Node1&#45;&gt;Node18 -->
<g id="edge24_Node000001_Node000018" class="edge">
<title>Node1&#45;&gt;Node18</title>
<g id="a_edge24_Node000001_Node000018"><a xlink:title=" ">
<path fill="none" stroke="#63b8ff" d="M1322.15,-252.9C1349,-230.18 1399.13,-187.91 1401.5,-187 1574.94,-119.95 2052.81,-172.57 2237.5,-151 2245.34,-150.08 2253.6,-148.81 2261.64,-147.39"/>
<polygon fill="#63b8ff" stroke="#63b8ff" points="2262.44,-150.8 2271.64,-145.55 2261.17,-143.92 2262.44,-150.8"/>
</a>
</g>
</g>
<!-- Node24 -->
<g id="Node000024" class="node">
<title>Node24</title>
<g id="a_Node000024"><a xlink:href="QGCNetworkHelper_8h.html" target="_top" xlink:title=" ">
<polygon fill="white" stroke="#666666" points="1127.5,-211.5 1007.5,-211.5 1007.5,-192.5 1127.5,-192.5 1127.5,-211.5"/>
<text text-anchor="middle" x="1067.5" y="-199.5" font-family="Helvetica,sans-Serif" font-size="10.00">QGCNetworkHelper.h</text>
</a>
</g>
</g>
<!-- Node1&#45;&gt;Node24 -->
<g id="edge33_Node000001_Node000024" class="edge">
<title>Node1&#45;&gt;Node24</title>
<g id="a_edge33_Node000001_Node000024"><a xlink:title=" ">
<path fill="none" stroke="#63b8ff" d="M1253.27,-252.95C1209.88,-241.29 1148.97,-224.91 1108.89,-214.13"/>
<polygon fill="#63b8ff" stroke="#63b8ff" points="1109.74,-210.73 1099.17,-211.52 1107.92,-217.49 1109.74,-210.73"/>
</a>
</g>
</g>
<!-- Node25 -->
<g id="Node000025" class="node">
<title>Node25</title>
<g id="a_Node000025"><a xlink:title=" ">
<polygon fill="#e0e0e0" stroke="#999999" points="636,-145.5 505,-145.5 505,-126.5 636,-126.5 636,-145.5"/>
<text text-anchor="middle" x="570.5" y="-133.5" font-family="Helvetica,sans-Serif" font-size="10.00">QtCore/QJsonDocument</text>
</a>
</g>
</g>
<!-- Node1&#45;&gt;Node25 -->
<g id="edge49_Node000001_Node000025" class="edge">
<title>Node1&#45;&gt;Node25</title>
<g id="a_edge49_Node000001_Node000025"><a xlink:title=" ">
<path fill="none" stroke="#63b8ff" d="M1230.9,-261.71C1144.04,-254.8 996.51,-240.68 871.5,-217 774.97,-198.71 663.84,-166.09 607.46,-148.69"/>
<polygon fill="#63b8ff" stroke="#63b8ff" points="608.17,-145.24 597.59,-145.62 606.1,-151.93 608.17,-145.24"/>
</a>
</g>
</g>
<!-- Node27 -->
<g id="Node000027" class="node">
<title>Node27</title>
<g id="a_Node000027"><a xlink:title=" ">
<polygon fill="#e0e0e0" stroke="#999999" points="729,-145.5 654,-145.5 654,-126.5 729,-126.5 729,-145.5"/>
<text text-anchor="middle" x="691.5" y="-133.5" font-family="Helvetica,sans-Serif" font-size="10.00">QtCore/QUrl</text>
</a>
</g>
</g>
<!-- Node1&#45;&gt;Node27 -->
<g id="edge51_Node000001_Node000027" class="edge">
<title>Node1&#45;&gt;Node27</title>
<g id="a_edge51_Node000001_Node000027"><a xlink:title=" ">
<path fill="none" stroke="#63b8ff" d="M1230.7,-256.78C1168.32,-247.79 1077.24,-233.56 998.5,-217 883.94,-192.9 856.69,-180.88 743.5,-151 740.1,-150.1 736.57,-149.16 733.03,-148.22"/>
<polygon fill="#63b8ff" stroke="#63b8ff" points="733.68,-144.77 723.11,-145.56 731.86,-151.53 733.68,-144.77"/>
</a>
</g>
</g>
<!-- Node32 -->
<g id="Node000032" class="node">
<title>Node32</title>
<g id="a_Node000032"><a xlink:title=" ">
<polygon fill="#e0e0e0" stroke="#999999" points="2051,-145.5 1890,-145.5 1890,-126.5 2051,-126.5 2051,-145.5"/>
<text text-anchor="middle" x="1970.5" y="-133.5" font-family="Helvetica,sans-Serif" font-size="10.00">QtNetwork/QNetworkRequest</text>
</a>
</g>
</g>
<!-- Node1&#45;&gt;Node32 -->
<g id="edge55_Node000001_Node000032" class="edge">
<title>Node1&#45;&gt;Node32</title>
<g id="a_edge55_Node000001_Node000032"><a xlink:title=" ">
<path fill="none" stroke="#63b8ff" d="M1305.23,-252.79C1305.72,-234.39 1309.65,-202.81 1329.5,-187 1377.06,-149.12 1815.04,-157.44 1875.5,-151 1885.93,-149.89 1896.97,-148.48 1907.68,-146.98"/>
<polygon fill="#63b8ff" stroke="#63b8ff" points="1908.43,-150.41 1917.83,-145.53 1907.44,-143.48 1908.43,-150.41"/>
</a>
</g>
</g>
<!-- Node34 -->
<g id="Node000034" class="node">
<title>Node34</title>
<g id="a_Node000034"><a xlink:title=" ">
<polygon fill="#e0e0e0" stroke="#999999" points="2228,-145.5 2069,-145.5 2069,-126.5 2228,-126.5 2228,-145.5"/>
<text text-anchor="middle" x="2148.5" y="-133.5" font-family="Helvetica,sans-Serif" font-size="10.00">QtNetwork/QSslConfiguration</text>
</a>
</g>
</g>
<!-- Node1&#45;&gt;Node34 -->
<g id="edge56_Node000001_Node000034" class="edge">
<title>Node1&#45;&gt;Node34</title>
<g id="a_edge56_Node000001_Node000034"><a xlink:title=" ">
<path fill="none" stroke="#63b8ff" d="M1311.69,-252.96C1320.85,-234.14 1339.94,-201.41 1367.5,-187 1435.83,-151.28 1983.82,-159.07 2060.5,-151 2070.31,-149.97 2080.69,-148.58 2090.75,-147.08"/>
<polygon fill="#63b8ff" stroke="#63b8ff" points="2091.32,-150.54 2100.67,-145.55 2090.25,-143.62 2091.32,-150.54"/>
</a>
</g>
</g>
<!-- Node36 -->
<g id="Node000036" class="node">
<title>Node36</title>
<g id="a_Node000036"><a xlink:title=" ">
<polygon fill="#e0e0e0" stroke="#999999" points="1517,-211.5 1410,-211.5 1410,-192.5 1517,-192.5 1517,-211.5"/>
<text text-anchor="middle" x="1463.5" y="-199.5" font-family="Helvetica,sans-Serif" font-size="10.00">QtCore/QJsonArray</text>
</a>
</g>
</g>
<!-- Node1&#45;&gt;Node36 -->
<g id="edge48_Node000001_Node000036" class="edge">
<title>Node1&#45;&gt;Node36</title>
<g id="a_edge48_Node000001_Node000036"><a xlink:title=" ">
<path fill="none" stroke="#63b8ff" d="M1340.17,-252.95C1367.88,-241.73 1406.35,-226.15 1432.92,-215.39"/>
<polygon fill="#63b8ff" stroke="#63b8ff" points="1434.52,-218.52 1442.47,-211.52 1431.89,-212.03 1434.52,-218.52"/>
</a>
</g>
</g>
<!-- Node37 -->
<g id="Node000037" class="node">
<title>Node37</title>
<g id="a_Node000037"><a xlink:title=" ">
<polygon fill="#e0e0e0" stroke="#999999" points="1648,-211.5 1535,-211.5 1535,-192.5 1648,-192.5 1648,-211.5"/>
<text text-anchor="middle" x="1591.5" y="-199.5" font-family="Helvetica,sans-Serif" font-size="10.00">QtCore/QJsonObject</text>
</a>
</g>
</g>
<!-- Node1&#45;&gt;Node37 -->
<g id="edge50_Node000001_Node000037" class="edge">
<title>Node1&#45;&gt;Node37</title>
<g id="a_edge50_Node000001_Node000037"><a xlink:title=" ">
<path fill="none" stroke="#63b8ff" d="M1368.26,-252.95C1421.07,-241.14 1495.46,-224.49 1543.59,-213.72"/>
<polygon fill="#63b8ff" stroke="#63b8ff" points="1544.44,-217.12 1553.44,-211.52 1542.92,-210.29 1544.44,-217.12"/>
</a>
</g>
</g>
<!-- Node38 -->
<g id="Node000038" class="node">
<title>Node38</title>
<g id="a_Node000038"><a xlink:title=" ">
<polygon fill="#e0e0e0" stroke="#999999" points="1770.5,-211.5 1666.5,-211.5 1666.5,-192.5 1770.5,-192.5 1770.5,-211.5"/>
<text text-anchor="middle" x="1718.5" y="-199.5" font-family="Helvetica,sans-Serif" font-size="10.00">QtCore/QUrlQuery</text>
</a>
</g>
</g>
<!-- Node1&#45;&gt;Node38 -->
<g id="edge52_Node000001_Node000038" class="edge">
<title>Node1&#45;&gt;Node38</title>
<g id="a_edge52_Node000001_Node000038"><a xlink:title=" ">
<path fill="none" stroke="#63b8ff" d="M1380.3,-258.24C1451.77,-249.42 1562.37,-234.64 1657.5,-217 1662.84,-216.01 1668.42,-214.87 1673.95,-213.68"/>
<polygon fill="#63b8ff" stroke="#63b8ff" points="1674.76,-217.09 1683.77,-211.51 1673.25,-210.25 1674.76,-217.09"/>
</a>
</g>
</g>
<!-- Node39 -->
<g id="Node000039" class="node">
<title>Node39</title>
<g id="a_Node000039"><a xlink:title=" ">
<polygon fill="#e0e0e0" stroke="#999999" points="1944,-217 1789,-217 1789,-187 1944,-187 1944,-217"/>
<text text-anchor="start" x="1797" y="-205" font-family="Helvetica,sans-Serif" font-size="10.00">QtNetwork/QNetworkAccess</text>
<text text-anchor="middle" x="1866.5" y="-194" font-family="Helvetica,sans-Serif" font-size="10.00">Manager</text>
</a>
</g>
</g>
<!-- Node1&#45;&gt;Node39 -->
<g id="edge53_Node000001_Node000039" class="edge">
<title>Node1&#45;&gt;Node39</title>
<g id="a_edge53_Node000001_Node000039"><a xlink:title=" ">
<path fill="none" stroke="#63b8ff" d="M1380.36,-260.37C1471.8,-251.99 1631.45,-236.44 1778.62,-217.07"/>
<polygon fill="#63b8ff" stroke="#63b8ff" points="1779.29,-220.51 1788.74,-215.73 1778.37,-213.57 1779.29,-220.51"/>
</a>
</g>
</g>
<!-- Node40 -->
<g id="Node000040" class="node">
<title>Node40</title>
<g id="a_Node000040"><a xlink:title=" ">
<polygon fill="#e0e0e0" stroke="#999999" points="2127,-211.5 1962,-211.5 1962,-192.5 2127,-192.5 2127,-211.5"/>
<text text-anchor="middle" x="2044.5" y="-199.5" font-family="Helvetica,sans-Serif" font-size="10.00">QtPositioning/QGeoCoordinate</text>
</a>
</g>
</g>
<!-- Node1&#45;&gt;Node40 -->
<g id="edge57_Node000001_Node000040" class="edge">
<title>Node1&#45;&gt;Node40</title>
<g id="a_edge57_Node000001_Node000040"><a xlink:title=" ">
<path fill="none" stroke="#63b8ff" d="M1380.02,-263.09C1500.73,-256.34 1746.41,-240.88 1953.5,-217 1963.27,-215.87 1973.59,-214.48 1983.64,-213.01"/>
<polygon fill="#63b8ff" stroke="#63b8ff" points="1984.2,-216.47 1993.57,-211.53 1983.17,-209.55 1984.2,-216.47"/>
</a>
</g>
</g>
<!-- Node3 -->
<g id="Node000003" class="node">
<title>Node3</title>
<g id="a_Node000003"><a xlink:title=" ">
<polygon fill="#e0e0e0" stroke="#999999" points="531,-79.5 388,-79.5 388,-60.5 531,-60.5 531,-79.5"/>
<text text-anchor="middle" x="459.5" y="-67.5" font-family="Helvetica,sans-Serif" font-size="10.00">QtCore/QLoggingCategory</text>
</a>
</g>
</g>
<!-- Node2&#45;&gt;Node3 -->
<g id="edge2_Node000002_Node000003" class="edge">
<title>Node2&#45;&gt;Node3</title>
<g id="a_edge2_Node000002_Node000003"><a xlink:title=" ">
<path fill="none" stroke="#63b8ff" d="M250.8,-192.38C272.64,-177.22 319.82,-145.1 361.5,-121 384.8,-107.53 412.15,-93.73 432.03,-84.06"/>
<polygon fill="#63b8ff" stroke="#63b8ff" points="433.65,-87.16 441.13,-79.66 430.61,-80.86 433.65,-87.16"/>
</a>
</g>
</g>
<!-- Node4 -->
<g id="Node000004" class="node">
<title>Node4</title>
<g id="a_Node000004"><a xlink:title=" ">
<polygon fill="#e0e0e0" stroke="#999999" points="259.5,-79.5 167.5,-79.5 167.5,-60.5 259.5,-60.5 259.5,-79.5"/>
<text text-anchor="middle" x="213.5" y="-67.5" font-family="Helvetica,sans-Serif" font-size="10.00">QtCore/QObject</text>
</a>
</g>
</g>
<!-- Node2&#45;&gt;Node4 -->
<g id="edge3_Node000002_Node000004" class="edge">
<title>Node2&#45;&gt;Node4</title>
<g id="a_edge3_Node000002_Node000004"><a xlink:title=" ">
<path fill="none" stroke="#63b8ff" d="M197.91,-192.42C175.36,-185.36 149.16,-172.82 135.5,-151 128.42,-139.7 129.1,-132.7 135.5,-121 144.85,-103.89 162.84,-91.78 179.18,-83.76"/>
<polygon fill="#63b8ff" stroke="#63b8ff" points="180.88,-86.83 188.53,-79.51 177.98,-80.46 180.88,-86.83"/>
</a>
</g>
</g>
<!-- Node5 -->
<g id="Node000005" class="node">
<title>Node5</title>
<g id="a_Node000005"><a xlink:href="TerrainQueryInterface_8h.html" target="_top" xlink:title=" ">
<polygon fill="white" stroke="#666666" points="276,-145.5 145,-145.5 145,-126.5 276,-126.5 276,-145.5"/>
<text text-anchor="middle" x="210.5" y="-133.5" font-family="Helvetica,sans-Serif" font-size="10.00">TerrainQueryInterface.h</text>
</a>
</g>
</g>
<!-- Node2&#45;&gt;Node5 -->
<g id="edge4_Node000002_Node000005" class="edge">
<title>Node2&#45;&gt;Node5</title>
<g id="a_edge4_Node000002_Node000005"><a xlink:title=" ">
<path fill="none" stroke="#63b8ff" d="M234.72,-192.37C230.57,-182.88 223.78,-167.36 218.45,-155.16"/>
<polygon fill="#63b8ff" stroke="#63b8ff" points="221.61,-153.66 214.4,-145.91 215.2,-156.47 221.61,-153.66"/>
</a>
</g>
</g>
<!-- Node5&#45;&gt;Node3 -->
<g id="edge5_Node000005_Node000003" class="edge">
<title>Node5&#45;&gt;Node3</title>
<g id="a_edge5_Node000005_Node000003"><a xlink:title=" ">
<path fill="none" stroke="#63b8ff" d="M243.82,-126.44C288.36,-114.99 367.36,-94.68 416.39,-82.08"/>
<polygon fill="#63b8ff" stroke="#63b8ff" points="417.56,-85.39 426.37,-79.51 415.82,-78.61 417.56,-85.39"/>
</a>
</g>
</g>
<!-- Node5&#45;&gt;Node4 -->
<g id="edge7_Node000005_Node000004" class="edge">
<title>Node5&#45;&gt;Node4</title>
<g id="a_edge7_Node000005_Node000004"><a xlink:title=" ">
<path fill="none" stroke="#63b8ff" d="M210.9,-126.37C211.34,-117.07 212.05,-101.98 212.61,-89.9"/>
<polygon fill="#63b8ff" stroke="#63b8ff" points="216.11,-90.06 213.08,-79.91 209.12,-89.73 216.11,-90.06"/>
</a>
</g>
</g>
<!-- Node6 -->
<g id="Node000006" class="node">
<title>Node6</title>
<g id="a_Node000006"><a xlink:title=" ">
<polygon fill="#e0e0e0" stroke="#999999" points="361.5,-79.5 283.5,-79.5 283.5,-60.5 361.5,-60.5 361.5,-79.5"/>
<text text-anchor="middle" x="322.5" y="-67.5" font-family="Helvetica,sans-Serif" font-size="10.00">QtCore/QList</text>
</a>
</g>
</g>
<!-- Node5&#45;&gt;Node6 -->
<g id="edge6_Node000005_Node000006" class="edge">
<title>Node5&#45;&gt;Node6</title>
<g id="a_edge6_Node000005_Node000006"><a xlink:title=" ">
<path fill="none" stroke="#63b8ff" d="M225.6,-126.37C244.31,-115.68 276.4,-97.35 298.49,-84.72"/>
<polygon fill="#63b8ff" stroke="#63b8ff" points="300.33,-87.7 307.28,-79.7 296.86,-81.62 300.33,-87.7"/>
</a>
</g>
</g>
<!-- Node5&#45;&gt;Node7 -->
<g id="edge8_Node000005_Node000007" class="edge">
<title>Node5&#45;&gt;Node7</title>
<g id="a_edge8_Node000005_Node000007"><a xlink:title=" ">
<path fill="none" stroke="#63b8ff" d="M192.16,-126.37C169.04,-115.49 129.09,-96.69 102.23,-84.05"/>
<polygon fill="#63b8ff" stroke="#63b8ff" points="103.52,-80.79 92.99,-79.7 100.54,-87.12 103.52,-80.79"/>
</a>
</g>
</g>
<!-- Node8&#45;&gt;Node3 -->
<g id="edge11_Node000008_Node000003" class="edge">
<title>Node8&#45;&gt;Node3</title>
<g id="a_edge11_Node000008_Node000003"><a xlink:title=" ">
<path fill="none" stroke="#63b8ff" d="M450.24,-192.19C452.13,-182.23 455.07,-165.52 456.5,-151 458.54,-130.3 459.22,-106.46 459.43,-90.22"/>
<polygon fill="#63b8ff" stroke="#63b8ff" points="462.93,-89.93 459.52,-79.9 455.93,-89.87 462.93,-89.93"/>
</a>
</g>
</g>
<!-- Node8&#45;&gt;Node6 -->
<g id="edge10_Node000008_Node000006" class="edge">
<title>Node8&#45;&gt;Node6</title>
<g id="a_edge10_Node000008_Node000006"><a xlink:title=" ">
<path fill="none" stroke="#63b8ff" d="M425.66,-192.37C406.5,-184.16 379.46,-170.22 361.5,-151 344.82,-133.14 333.86,-106.81 327.92,-89.29"/>
<polygon fill="#63b8ff" stroke="#63b8ff" points="331.23,-88.15 324.87,-79.68 324.56,-90.27 331.23,-88.15"/>
</a>
</g>
</g>
<!-- Node9 -->
<g id="Node000009" class="node">
<title>Node9</title>
<g id="a_Node000009"><a xlink:href="TerrainTile_8h.html" target="_top" xlink:title=" ">
<polygon fill="white" stroke="#666666" points="448,-145.5 371,-145.5 371,-126.5 448,-126.5 448,-145.5"/>
<text text-anchor="middle" x="409.5" y="-133.5" font-family="Helvetica,sans-Serif" font-size="10.00">TerrainTile.h</text>
</a>
</g>
</g>
<!-- Node8&#45;&gt;Node9 -->
<g id="edge12_Node000008_Node000009" class="edge">
<title>Node8&#45;&gt;Node9</title>
<g id="a_edge12_Node000008_Node000009"><a xlink:title=" ">
<path fill="none" stroke="#63b8ff" d="M443.24,-192.37C437.4,-182.78 427.81,-167.05 420.35,-154.8"/>
<polygon fill="#63b8ff" stroke="#63b8ff" points="423.12,-152.62 414.93,-145.91 417.14,-156.27 423.12,-152.62"/>
</a>
</g>
</g>
<!-- Node9&#45;&gt;Node3 -->
<g id="edge14_Node000009_Node000003" class="edge">
<title>Node9&#45;&gt;Node3</title>
<g id="a_edge14_Node000009_Node000003"><a xlink:title=" ">
<path fill="none" stroke="#63b8ff" d="M416.24,-126.37C423.88,-116.59 436.51,-100.42 446.16,-88.08"/>
<polygon fill="#63b8ff" stroke="#63b8ff" points="449.14,-89.94 452.54,-79.91 443.63,-85.63 449.14,-89.94"/>
</a>
</g>
</g>
<!-- Node9&#45;&gt;Node6 -->
<g id="edge13_Node000009_Node000006" class="edge">
<title>Node9&#45;&gt;Node6</title>
<g id="a_edge13_Node000009_Node000006"><a xlink:title=" ">
<path fill="none" stroke="#63b8ff" d="M397.77,-126.37C383.63,-115.97 359.64,-98.32 342.55,-85.75"/>
<polygon fill="#63b8ff" stroke="#63b8ff" points="344.45,-82.81 334.33,-79.7 340.31,-88.44 344.45,-82.81"/>
</a>
</g>
</g>
<!-- Node11 -->
<g id="Node000011" class="node">
<title>Node11</title>
<g id="a_Node000011"><a xlink:href="MapProvider_8h.html" target="_top" xlink:title=" ">
<polygon fill="white" stroke="#666666" points="1833.5,-145.5 1747.5,-145.5 1747.5,-126.5 1833.5,-126.5 1833.5,-145.5"/>
<text text-anchor="middle" x="1790.5" y="-133.5" font-family="Helvetica,sans-Serif" font-size="10.00">MapProvider.h</text>
</a>
</g>
</g>
<!-- Node10&#45;&gt;Node11 -->
<g id="edge16_Node000010_Node000011" class="edge">
<title>Node10&#45;&gt;Node11</title>
<g id="a_edge16_Node000010_Node000011"><a xlink:title=" ">
<path fill="none" stroke="#63b8ff" d="M1255.82,-192.49C1267.4,-190.47 1279.89,-188.48 1291.5,-187 1489.21,-161.79 1542.12,-185.05 1738.5,-151 1743.2,-150.18 1748.1,-149.14 1752.92,-147.98"/>
<polygon fill="#63b8ff" stroke="#63b8ff" points="1753.82,-151.37 1762.64,-145.5 1752.09,-144.58 1753.82,-151.37"/>
</a>
</g>
</g>
<!-- Node11&#45;&gt;Node3 -->
<g id="edge20_Node000011_Node000003" class="edge">
<title>Node11&#45;&gt;Node3</title>
<g id="a_edge20_Node000011_Node000003"><a xlink:title=" ">
<path fill="none" stroke="#63b8ff" d="M1763.49,-126.5C1755.52,-124.33 1746.73,-122.25 1738.5,-121 1506.36,-85.67 785.83,-74.6 541.5,-71.81"/>
<polygon fill="#63b8ff" stroke="#63b8ff" points="541.31,-68.31 531.27,-71.69 541.23,-75.31 541.31,-68.31"/>
</a>
</g>
</g>
<!-- Node12 -->
<g id="Node000012" class="node">
<title>Node12</title>
<g id="a_Node000012"><a xlink:title=" ">
<polygon fill="#e0e0e0" stroke="#999999" points="1867,-85 1760,-85 1760,-55 1867,-55 1867,-85"/>
<text text-anchor="start" x="1768" y="-73" font-family="Helvetica,sans-Serif" font-size="10.00">QtLocation/private</text>
<text text-anchor="middle" x="1813.5" y="-62" font-family="Helvetica,sans-Serif" font-size="10.00">/qgeomaptype_p.h</text>
</a>
</g>
</g>
<!-- Node11&#45;&gt;Node12 -->
<g id="edge17_Node000011_Node000012" class="edge">
<title>Node11&#45;&gt;Node12</title>
<g id="a_edge17_Node000011_Node000012"><a xlink:title=" ">
<path fill="none" stroke="#63b8ff" d="M1793.6,-126.37C1796.49,-118.32 1800.94,-105.94 1804.9,-94.93"/>
<polygon fill="#63b8ff" stroke="#63b8ff" points="1808.25,-95.95 1808.34,-85.36 1801.66,-93.59 1808.25,-95.95"/>
</a>
</g>
</g>
<!-- Node13 -->
<g id="Node000013" class="node">
<title>Node13</title>
<g id="a_Node000013"><a xlink:title=" ">
<polygon fill="#e0e0e0" stroke="#999999" points="1642.5,-79.5 1532.5,-79.5 1532.5,-60.5 1642.5,-60.5 1642.5,-79.5"/>
<text text-anchor="middle" x="1587.5" y="-67.5" font-family="Helvetica,sans-Serif" font-size="10.00">QtCore/QByteArray</text>
</a>
</g>
</g>
<!-- Node11&#45;&gt;Node13 -->
<g id="edge18_Node000011_Node000013" class="edge">
<title>Node11&#45;&gt;Node13</title>
<g id="a_edge18_Node000011_Node000013"><a xlink:title=" ">
<path fill="none" stroke="#63b8ff" d="M1763.12,-126.37C1727.31,-115.08 1664.41,-95.25 1624.41,-82.64"/>
<polygon fill="#63b8ff" stroke="#63b8ff" points="1625.36,-79.27 1614.77,-79.6 1623.25,-85.94 1625.36,-79.27"/>
</a>
</g>
</g>
<!-- Node14 -->
<g id="Node000014" class="node">
<title>Node14</title>
<g id="a_Node000014"><a xlink:title=" ">
<polygon fill="#e0e0e0" stroke="#999999" points="1974,-79.5 1885,-79.5 1885,-60.5 1974,-60.5 1974,-79.5"/>
<text text-anchor="middle" x="1929.5" y="-67.5" font-family="Helvetica,sans-Serif" font-size="10.00">QtCore/QString</text>
</a>
</g>
</g>
<!-- Node11&#45;&gt;Node14 -->
<g id="edge19_Node000011_Node000014" class="edge">
<title>Node11&#45;&gt;Node14</title>
<g id="a_edge19_Node000011_Node000014"><a xlink:title=" ">
<path fill="none" stroke="#63b8ff" d="M1809.25,-126.37C1832.98,-115.44 1874.07,-96.52 1901.52,-83.88"/>
<polygon fill="#63b8ff" stroke="#63b8ff" points="1902.99,-87.06 1910.61,-79.7 1900.06,-80.7 1902.99,-87.06"/>
</a>
</g>
</g>
<!-- Node15 -->
<g id="Node000015" class="node">
<title>Node15</title>
<g id="a_Node000015"><a xlink:href="QGCTileSet_8h.html" target="_top" xlink:title=" ">
<polygon fill="white" stroke="#666666" points="1742,-79.5 1661,-79.5 1661,-60.5 1742,-60.5 1742,-79.5"/>
<text text-anchor="middle" x="1701.5" y="-67.5" font-family="Helvetica,sans-Serif" font-size="10.00">QGCTileSet.h</text>
</a>
</g>
</g>
<!-- Node11&#45;&gt;Node15 -->
<g id="edge21_Node000011_Node000015" class="edge">
<title>Node11&#45;&gt;Node15</title>
<g id="a_edge21_Node000011_Node000015"><a xlink:title=" ">
<path fill="none" stroke="#63b8ff" d="M1778.5,-126.37C1764.03,-115.97 1739.49,-98.32 1722.01,-85.75"/>
<polygon fill="#63b8ff" stroke="#63b8ff" points="1723.76,-82.7 1713.6,-79.7 1719.67,-88.38 1723.76,-82.7"/>
</a>
</g>
</g>
<!-- Node16 -->
<g id="Node000016" class="node">
<title>Node16</title>
<g id="a_Node000016"><a xlink:title=" ">
<polygon fill="#e0e0e0" stroke="#999999" points="1696.5,-19 1588.5,-19 1588.5,0 1696.5,0 1696.5,-19"/>
<text text-anchor="middle" x="1642.5" y="-7" font-family="Helvetica,sans-Serif" font-size="10.00">QtCore/QMetaType</text>
</a>
</g>
</g>
<!-- Node15&#45;&gt;Node16 -->
<g id="edge22_Node000015_Node000016" class="edge">
<title>Node15&#45;&gt;Node16</title>
<g id="a_edge22_Node000015_Node000016"><a xlink:title=" ">
<path fill="none" stroke="#63b8ff" d="M1692.79,-60.37C1683.82,-51.47 1669.62,-37.39 1658.59,-26.45"/>
<polygon fill="#63b8ff" stroke="#63b8ff" points="1660.81,-23.72 1651.24,-19.17 1655.88,-28.69 1660.81,-23.72"/>
</a>
</g>
</g>
<!-- Node17 -->
<g id="Node000017" class="node">
<title>Node17</title>
<g id="a_Node000017"><a xlink:title=" ">
<polygon fill="#e0e0e0" stroke="#999999" points="1806.5,-19 1714.5,-19 1714.5,0 1806.5,0 1806.5,-19"/>
<text text-anchor="middle" x="1760.5" y="-7" font-family="Helvetica,sans-Serif" font-size="10.00">QtCore/QtTypes</text>
</a>
</g>
</g>
<!-- Node15&#45;&gt;Node17 -->
<g id="edge23_Node000015_Node000017" class="edge">
<title>Node15&#45;&gt;Node17</title>
<g id="a_edge23_Node000015_Node000017"><a xlink:title=" ">
<path fill="none" stroke="#63b8ff" d="M1710.21,-60.37C1719.18,-51.47 1733.38,-37.39 1744.41,-26.45"/>
<polygon fill="#63b8ff" stroke="#63b8ff" points="1747.12,-28.69 1751.76,-19.17 1742.19,-23.72 1747.12,-28.69"/>
</a>
</g>
</g>
<!-- Node18&#45;&gt;Node3 -->
<g id="edge26_Node000018_Node000003" class="edge">
<title>Node18&#45;&gt;Node3</title>
<g id="a_edge26_Node000018_Node000003"><a xlink:title=" ">
<path fill="none" stroke="#63b8ff" d="M2272.41,-126.49C2261.22,-124.32 2248.92,-122.25 2237.5,-121 1902.1,-84.36 843.82,-73.84 541.11,-71.55"/>
<polygon fill="#63b8ff" stroke="#63b8ff" points="541.12,-68.05 531.09,-71.47 541.07,-75.05 541.12,-68.05"/>
</a>
</g>
</g>
<!-- Node18&#45;&gt;Node4 -->
<g id="edge27_Node000018_Node000004" class="edge">
<title>Node18&#45;&gt;Node4</title>
<g id="a_edge27_Node000018_Node000004"><a xlink:title=" ">
<path fill="none" stroke="#63b8ff" d="M2272.79,-126.49C2261.5,-124.29 2249.05,-122.2 2237.5,-121 1803.56,-75.75 707.55,-138.08 274.5,-85 268.13,-84.22 261.45,-83.05 254.95,-81.72"/>
<polygon fill="#63b8ff" stroke="#63b8ff" points="255.46,-78.25 244.94,-79.52 253.96,-85.09 255.46,-78.25"/>
</a>
</g>
</g>
<!-- Node18&#45;&gt;Node14 -->
<g id="edge30_Node000018_Node000014" class="edge">
<title>Node18&#45;&gt;Node14</title>
<g id="a_edge30_Node000018_Node000014"><a xlink:title=" ">
<path fill="none" stroke="#63b8ff" d="M2267.31,-126.46C2257.52,-124.59 2247.16,-122.68 2237.5,-121 2135.13,-103.21 2108.96,-102.3 2006.5,-85 1999.32,-83.79 1991.76,-82.47 1984.31,-81.14"/>
<polygon fill="#63b8ff" stroke="#63b8ff" points="1984.72,-77.66 1974.25,-79.33 1983.48,-84.55 1984.72,-77.66"/>
</a>
</g>
</g>
<!-- Node19 -->
<g id="Node000019" class="node">
<title>Node19</title>
<g id="a_Node000019"><a xlink:title=" ">
<polygon fill="#e0e0e0" stroke="#999999" points="2101.5,-79.5 2015.5,-79.5 2015.5,-60.5 2101.5,-60.5 2101.5,-79.5"/>
<text text-anchor="middle" x="2058.5" y="-67.5" font-family="Helvetica,sans-Serif" font-size="10.00">QtCore/QHash</text>
</a>
</g>
</g>
<!-- Node18&#45;&gt;Node19 -->
<g id="edge25_Node000018_Node000019" class="edge">
<title>Node18&#45;&gt;Node19</title>
<g id="a_edge25_Node000018_Node000019"><a xlink:title=" ">
<path fill="none" stroke="#63b8ff" d="M2275.41,-126.43C2235.43,-116.62 2168.18,-99.97 2110.5,-85 2106.94,-84.08 2103.25,-83.11 2099.55,-82.13"/>
<polygon fill="#63b8ff" stroke="#63b8ff" points="2100.39,-78.73 2089.82,-79.53 2098.58,-85.49 2100.39,-78.73"/>
</a>
</g>
</g>
<!-- Node20 -->
<g id="Node000020" class="node">
<title>Node20</title>
<g id="a_Node000020"><a xlink:title=" ">
<polygon fill="#e0e0e0" stroke="#999999" points="2253.5,-79.5 2119.5,-79.5 2119.5,-60.5 2253.5,-60.5 2253.5,-79.5"/>
<text text-anchor="middle" x="2186.5" y="-67.5" font-family="Helvetica,sans-Serif" font-size="10.00">QtCore/QReadWriteLock</text>
</a>
</g>
</g>
<!-- Node18&#45;&gt;Node20 -->
<g id="edge28_Node000018_Node000020" class="edge">
<title>Node18&#45;&gt;Node20</title>
<g id="a_edge28_Node000018_Node000020"><a xlink:title=" ">
<path fill="none" stroke="#63b8ff" d="M2293.78,-126.37C2272.88,-115.59 2236.91,-97.02 2212.43,-84.38"/>
<polygon fill="#63b8ff" stroke="#63b8ff" points="2213.85,-81.18 2203.35,-79.7 2210.64,-87.4 2213.85,-81.18"/>
</a>
</g>
</g>
<!-- Node21 -->
<g id="Node000021" class="node">
<title>Node21</title>
<g id="a_Node000021"><a xlink:title=" ">
<polygon fill="#e0e0e0" stroke="#999999" points="2349,-79.5 2272,-79.5 2272,-60.5 2349,-60.5 2349,-79.5"/>
<text text-anchor="middle" x="2310.5" y="-67.5" font-family="Helvetica,sans-Serif" font-size="10.00">QtCore/QSet</text>
</a>
</g>
</g>
<!-- Node18&#45;&gt;Node21 -->
<g id="edge29_Node000018_Node000021" class="edge">
<title>Node18&#45;&gt;Node21</title>
<g id="a_edge29_Node000018_Node000021"><a xlink:title=" ">
<path fill="none" stroke="#63b8ff" d="M2310.5,-126.37C2310.5,-117.16 2310.5,-102.29 2310.5,-90.27"/>
<polygon fill="#63b8ff" stroke="#63b8ff" points="2314,-89.91 2310.5,-79.91 2307,-89.91 2314,-89.91"/>
</a>
</g>
</g>
<!-- Node22 -->
<g id="Node000022" class="node">
<title>Node22</title>
<g id="a_Node000022"><a xlink:title=" ">
<polygon fill="#e0e0e0" stroke="#999999" points="2530,-79.5 2367,-79.5 2367,-60.5 2530,-60.5 2530,-79.5"/>
<text text-anchor="middle" x="2448.5" y="-67.5" font-family="Helvetica,sans-Serif" font-size="10.00">QtCore/QSortFilterProxyModel</text>
</a>
</g>
</g>
<!-- Node18&#45;&gt;Node22 -->
<g id="edge31_Node000018_Node000022" class="edge">
<title>Node18&#45;&gt;Node22</title>
<g id="a_edge31_Node000018_Node000022"><a xlink:title=" ">
<path fill="none" stroke="#63b8ff" d="M2329.11,-126.37C2352.57,-115.49 2393.11,-96.69 2420.36,-84.05"/>
<polygon fill="#63b8ff" stroke="#63b8ff" points="2422.14,-87.08 2429.74,-79.7 2419.2,-80.73 2422.14,-87.08"/>
</a>
</g>
</g>
<!-- Node23 -->
<g id="Node000023" class="node">
<title>Node23</title>
<g id="a_Node000023"><a xlink:title=" ">
<polygon fill="#e0e0e0" stroke="#999999" points="2633,-79.5 2548,-79.5 2548,-60.5 2633,-60.5 2633,-79.5"/>
<text text-anchor="middle" x="2590.5" y="-67.5" font-family="Helvetica,sans-Serif" font-size="10.00">QtQml/qqml.h</text>
</a>
</g>
</g>
<!-- Node18&#45;&gt;Node23 -->
<g id="edge32_Node000018_Node000023" class="edge">
<title>Node18&#45;&gt;Node23</title>
<g id="a_edge32_Node000018_Node000023"><a xlink:title=" ">
<path fill="none" stroke="#63b8ff" d="M2352.86,-126.45C2398.94,-116.99 2474.7,-100.96 2539.5,-85 2543.1,-84.11 2546.83,-83.16 2550.57,-82.18"/>
<polygon fill="#63b8ff" stroke="#63b8ff" points="2551.61,-85.52 2560.37,-79.56 2549.8,-78.76 2551.61,-85.52"/>
</a>
</g>
</g>
<!-- Node24&#45;&gt;Node6 -->
<g id="edge35_Node000024_Node000006" class="edge">
<title>Node24&#45;&gt;Node6</title>
<g id="a_edge35_Node000024_Node000006"><a xlink:title=" ">
<path fill="none" stroke="#63b8ff" d="M1007.43,-194.14C934.7,-185.23 816.94,-168.72 776.5,-151 756.47,-142.22 757.83,-129.07 737.5,-121 588.45,-61.85 536.48,-112.52 378.5,-85 373.45,-84.12 368.17,-83.03 362.97,-81.85"/>
<polygon fill="#63b8ff" stroke="#63b8ff" points="363.68,-78.42 353.14,-79.51 362.05,-85.23 363.68,-78.42"/>
</a>
</g>
</g>
<!-- Node24&#45;&gt;Node7 -->
<g id="edge43_Node000024_Node000007" class="edge">
<title>Node24&#45;&gt;Node7</title>
<g id="a_edge43_Node000024_Node000007"><a xlink:title=" ">
<path fill="none" stroke="#63b8ff" d="M1007.45,-199.16C807.41,-192.86 174.06,-171.39 135.5,-151 109.98,-137.5 91.98,-108.08 82.44,-88.93"/>
<polygon fill="#63b8ff" stroke="#63b8ff" points="85.54,-87.31 78.11,-79.75 79.21,-90.29 85.54,-87.31"/>
</a>
</g>
</g>
<!-- Node24&#45;&gt;Node14 -->
<g id="edge37_Node000024_Node000014" class="edge">
<title>Node24&#45;&gt;Node14</title>
<g id="a_edge37_Node000024_Node000014"><a xlink:title=" ">
<path fill="none" stroke="#63b8ff" d="M1104.22,-192.49C1114.6,-190.38 1125.95,-188.33 1136.5,-187 1292.36,-167.33 1697.64,-211.77 1842.5,-151 1859.28,-143.96 1894.56,-108.28 1914.66,-87.02"/>
<polygon fill="#63b8ff" stroke="#63b8ff" points="1917.27,-89.36 1921.55,-79.67 1912.16,-84.57 1917.27,-89.36"/>
</a>
</g>
</g>
<!-- Node24&#45;&gt;Node25 -->
<g id="edge34_Node000024_Node000025" class="edge">
<title>Node24&#45;&gt;Node25</title>
<g id="a_edge34_Node000024_Node000025"><a xlink:title=" ">
<path fill="none" stroke="#63b8ff" d="M1007.43,-195.22C925.27,-187.02 773.33,-170.78 644.5,-151 637.39,-149.91 629.92,-148.64 622.57,-147.32"/>
<polygon fill="#63b8ff" stroke="#63b8ff" points="623.14,-143.87 612.68,-145.5 621.88,-150.75 623.14,-143.87"/>
</a>
</g>
</g>
<!-- Node26 -->
<g id="Node000026" class="node">
<title>Node26</title>
<g id="a_Node000026"><a xlink:title=" ">
<polygon fill="#e0e0e0" stroke="#999999" points="865,-145.5 786,-145.5 786,-126.5 865,-126.5 865,-145.5"/>
<text text-anchor="middle" x="825.5" y="-133.5" font-family="Helvetica,sans-Serif" font-size="10.00">QtCore/QPair</text>
</a>
</g>
</g>
<!-- Node24&#45;&gt;Node26 -->
<g id="edge36_Node000024_Node000026" class="edge">
<title>Node24&#45;&gt;Node26</title>
<g id="a_edge36_Node000024_Node000026"><a xlink:title=" ">
<path fill="none" stroke="#63b8ff" d="M1033.07,-192.48C994.22,-182.77 929.18,-166.29 873.5,-151 870.36,-150.14 867.11,-149.23 863.85,-148.3"/>
<polygon fill="#63b8ff" stroke="#63b8ff" points="864.72,-144.91 854.14,-145.51 862.78,-151.64 864.72,-144.91"/>
</a>
</g>
</g>
<!-- Node24&#45;&gt;Node27 -->
<g id="edge38_Node000024_Node000027" class="edge">
<title>Node24&#45;&gt;Node27</title>
<g id="a_edge38_Node000024_Node000027"><a xlink:title=" ">
<path fill="none" stroke="#63b8ff" d="M1007.43,-193.74C942.11,-185.38 834.83,-170.28 743.5,-151 739.38,-150.13 735.11,-149.13 730.86,-148.08"/>
<polygon fill="#63b8ff" stroke="#63b8ff" points="731.62,-144.67 721.06,-145.56 729.87,-151.44 731.62,-144.67"/>
</a>
</g>
</g>
<!-- Node28 -->
<g id="Node000028" class="node">
<title>Node28</title>
<g id="a_Node000028"><a xlink:title=" ">
<polygon fill="#e0e0e0" stroke="#999999" points="978,-145.5 883,-145.5 883,-126.5 978,-126.5 978,-145.5"/>
<text text-anchor="middle" x="930.5" y="-133.5" font-family="Helvetica,sans-Serif" font-size="10.00">QtCore/QVariant</text>
</a>
</g>
</g>
<!-- Node24&#45;&gt;Node28 -->
<g id="edge39_Node000024_Node000028" class="edge">
<title>Node24&#45;&gt;Node28</title>
<g id="a_edge39_Node000024_Node000028"><a xlink:title=" ">
<path fill="none" stroke="#63b8ff" d="M1049.02,-192.37C1025.74,-181.49 985.49,-162.69 958.44,-150.05"/>
<polygon fill="#63b8ff" stroke="#63b8ff" points="959.66,-146.76 949.12,-145.7 956.7,-153.1 959.66,-146.76"/>
</a>
</g>
</g>
<!-- Node29 -->
<g id="Node000029" class="node">
<title>Node29</title>
<g id="a_Node000029"><a xlink:title=" ">
<polygon fill="#e0e0e0" stroke="#999999" points="1139,-151 996,-151 996,-121 1139,-121 1139,-151"/>
<text text-anchor="start" x="1004" y="-139" font-family="Helvetica,sans-Serif" font-size="10.00">QtHttpServer/QHttpServer</text>
<text text-anchor="middle" x="1067.5" y="-128" font-family="Helvetica,sans-Serif" font-size="10.00">Request</text>
</a>
</g>
</g>
<!-- Node24&#45;&gt;Node29 -->
<g id="edge40_Node000024_Node000029" class="edge">
<title>Node24&#45;&gt;Node29</title>
<g id="a_edge40_Node000024_Node000029"><a xlink:title=" ">
<path fill="none" stroke="#63b8ff" d="M1067.5,-192.37C1067.5,-184.49 1067.5,-172.45 1067.5,-161.6"/>
<polygon fill="#63b8ff" stroke="#63b8ff" points="1071,-161.36 1067.5,-151.36 1064,-161.36 1071,-161.36"/>
</a>
</g>
</g>
<!-- Node30 -->
<g id="Node000030" class="node">
<title>Node30</title>
<g id="a_Node000030"><a xlink:title=" ">
<polygon fill="#e0e0e0" stroke="#999999" points="1300,-151 1157,-151 1157,-121 1300,-121 1300,-151"/>
<text text-anchor="start" x="1165" y="-139" font-family="Helvetica,sans-Serif" font-size="10.00">QtHttpServer/QHttpServer</text>
<text text-anchor="middle" x="1228.5" y="-128" font-family="Helvetica,sans-Serif" font-size="10.00">Responder</text>
</a>
</g>
</g>
<!-- Node24&#45;&gt;Node30 -->
<g id="edge41_Node000024_Node000030" class="edge">
<title>Node24&#45;&gt;Node30</title>
<g id="a_edge41_Node000024_Node000030"><a xlink:title=" ">
<path fill="none" stroke="#63b8ff" d="M1089.21,-192.37C1113.22,-182.82 1152.57,-167.18 1183.33,-154.95"/>
<polygon fill="#63b8ff" stroke="#63b8ff" points="1184.99,-158.06 1192.99,-151.12 1182.4,-151.56 1184.99,-158.06"/>
</a>
</g>
</g>
<!-- Node31 -->
<g id="Node000031" class="node">
<title>Node31</title>
<g id="a_Node000031"><a xlink:title=" ">
<polygon fill="#e0e0e0" stroke="#999999" points="1437,-145.5 1318,-145.5 1318,-126.5 1437,-126.5 1437,-145.5"/>
<text text-anchor="middle" x="1377.5" y="-133.5" font-family="Helvetica,sans-Serif" font-size="10.00">QtNetwork/QHttpPart</text>
</a>
</g>
</g>
<!-- Node24&#45;&gt;Node31 -->
<g id="edge42_Node000024_Node000031" class="edge">
<title>Node24&#45;&gt;Node31</title>
<g id="a_edge42_Node000024_Node000031"><a xlink:title=" ">
<path fill="none" stroke="#63b8ff" d="M1108.99,-192.44C1165.13,-180.84 1265.27,-160.17 1326.11,-147.61"/>
<polygon fill="#63b8ff" stroke="#63b8ff" points="1327.17,-150.96 1336.26,-145.51 1325.76,-144.11 1327.17,-150.96"/>
</a>
</g>
</g>
<!-- Node24&#45;&gt;Node32 -->
<g id="edge44_Node000024_Node000032" class="edge">
<title>Node24&#45;&gt;Node32</title>
<g id="a_edge44_Node000024_Node000032"><a xlink:title=" ">
<path fill="none" stroke="#63b8ff" d="M1104.21,-192.48C1114.6,-190.36 1125.95,-188.32 1136.5,-187 1462.79,-146.19 1548.23,-183.01 1875.5,-151 1886.3,-149.94 1897.74,-148.52 1908.81,-146.98"/>
<polygon fill="#63b8ff" stroke="#63b8ff" points="1909.44,-150.43 1918.84,-145.55 1908.45,-143.5 1909.44,-150.43"/>
</a>
</g>
</g>
<!-- Node33 -->
<g id="Node000033" class="node">
<title>Node33</title>
<g id="a_Node000033"><a xlink:title=" ">
<polygon fill="#e0e0e0" stroke="#999999" points="1599.5,-145.5 1455.5,-145.5 1455.5,-126.5 1599.5,-126.5 1599.5,-145.5"/>
<text text-anchor="middle" x="1527.5" y="-133.5" font-family="Helvetica,sans-Serif" font-size="10.00">QtNetwork/QSslCertificate</text>
</a>
</g>
</g>
<!-- Node24&#45;&gt;Node33 -->
<g id="edge45_Node000024_Node000033" class="edge">
<title>Node24&#45;&gt;Node33</title>
<g id="a_edge45_Node000024_Node000033"><a xlink:title=" ">
<path fill="none" stroke="#63b8ff" d="M1106.8,-192.43C1116.48,-190.48 1126.84,-188.54 1136.5,-187 1273.48,-165.19 1309.22,-170.82 1446.5,-151 1454.43,-149.85 1462.78,-148.54 1470.99,-147.18"/>
<polygon fill="#63b8ff" stroke="#63b8ff" points="1471.6,-150.63 1480.88,-145.51 1470.44,-143.72 1471.6,-150.63"/>
</a>
</g>
</g>
<!-- Node24&#45;&gt;Node34 -->
<g id="edge46_Node000024_Node000034" class="edge">
<title>Node24&#45;&gt;Node34</title>
<g id="a_edge46_Node000024_Node000034"><a xlink:title=" ">
<path fill="none" stroke="#63b8ff" d="M1103.85,-192.48C1114.33,-190.34 1125.82,-188.28 1136.5,-187 1544.54,-137.98 1651.51,-191.36 2060.5,-151 2070.55,-150.01 2081.19,-148.61 2091.47,-147.08"/>
<polygon fill="#63b8ff" stroke="#63b8ff" points="2092.25,-150.51 2101.59,-145.52 2091.18,-143.59 2092.25,-150.51"/>
</a>
</g>
</g>
<!-- Node35 -->
<g id="Node000035" class="node">
<title>Node35</title>
<g id="a_Node000035"><a xlink:title=" ">
<polygon fill="#e0e0e0" stroke="#999999" points="1729.5,-145.5 1617.5,-145.5 1617.5,-126.5 1729.5,-126.5 1729.5,-145.5"/>
<text text-anchor="middle" x="1673.5" y="-133.5" font-family="Helvetica,sans-Serif" font-size="10.00">QtNetwork/QSslKey</text>
</a>
</g>
</g>
<!-- Node24&#45;&gt;Node35 -->
<g id="edge47_Node000024_Node000035" class="edge">
<title>Node24&#45;&gt;Node35</title>
<g id="a_edge47_Node000024_Node000035"><a xlink:title=" ">
<path fill="none" stroke="#63b8ff" d="M1105.32,-192.45C1115.41,-190.41 1126.33,-188.41 1136.5,-187 1344.88,-158.03 1400.29,-181.22 1608.5,-151 1614.87,-150.08 1621.55,-148.89 1628.11,-147.6"/>
<polygon fill="#63b8ff" stroke="#63b8ff" points="1629.15,-150.96 1638.24,-145.51 1627.74,-144.1 1629.15,-150.96"/>
</a>
</g>
</g>
</g>
</svg>
