<?xml version="1.0" encoding="UTF-8" standalone="no"?>
<!DOCTYPE svg PUBLIC "-//W3C//DTD SVG 1.1//EN"
 "http://www.w3.org/Graphics/SVG/1.1/DTD/svg11.dtd">
<!-- Generated by graphviz version 2.43.0 (0)
 -->
<!-- Title: src/Terrain/TerrainQuery.cc Pages: 1 -->
<svg width="1356pt" height="302pt"
 viewBox="0.00 0.00 1355.55 302.00" xmlns="http://www.w3.org/2000/svg" xmlns:xlink="http://www.w3.org/1999/xlink">
<g id="graph0" class="graph" transform="scale(1 1) rotate(0) translate(4 298)">
<title>src/Terrain/TerrainQuery.cc</title>
<!-- Node1 -->
<g id="Node000001" class="node">
<title>Node1</title>
<g id="a_Node000001"><a xlink:title=" ">
<polygon fill="#999999" stroke="#666666" points="723.55,-294 579.55,-294 579.55,-275 723.55,-275 723.55,-294"/>
<text text-anchor="middle" x="651.55" y="-282" font-family="Helvetica,sans-Serif" font-size="10.00">src/Terrain/TerrainQuery.cc</text>
</a>
</g>
</g>
<!-- Node2 -->
<g id="Node000002" class="node">
<title>Node2</title>
<g id="a_Node000002"><a xlink:href="TerrainQuery_8h.html" target="_top" xlink:title=" ">
<polygon fill="white" stroke="#666666" points="694.55,-239 608.55,-239 608.55,-220 694.55,-220 694.55,-239"/>
<text text-anchor="middle" x="651.55" y="-227" font-family="Helvetica,sans-Serif" font-size="10.00">TerrainQuery.h</text>
</a>
</g>
</g>
<!-- Node1&#45;&gt;Node2 -->
<g id="edge1_Node000001_Node000002" class="edge">
<title>Node1&#45;&gt;Node2</title>
<g id="a_edge1_Node000001_Node000002"><a xlink:title=" ">
<path fill="none" stroke="#63b8ff" d="M651.55,-274.75C651.55,-267.8 651.55,-257.85 651.55,-249.13"/>
<polygon fill="#63b8ff" stroke="#63b8ff" points="655.05,-249.09 651.55,-239.09 648.05,-249.09 655.05,-249.09"/>
</a>
</g>
</g>
<!-- Node9 -->
<g id="Node000009" class="node">
<title>Node9</title>
<g id="a_Node000009"><a xlink:href="TerrainQueryInterface_8h.html" target="_top" xlink:title=" ">
<polygon fill="white" stroke="#666666" points="144.05,-184 13.05,-184 13.05,-165 144.05,-165 144.05,-184"/>
<text text-anchor="middle" x="78.55" y="-172" font-family="Helvetica,sans-Serif" font-size="10.00">TerrainQueryInterface.h</text>
</a>
</g>
</g>
<!-- Node1&#45;&gt;Node9 -->
<g id="edge13_Node000001_Node000009" class="edge">
<title>Node1&#45;&gt;Node9</title>
<g id="a_edge13_Node000001_Node000009"><a xlink:title=" ">
<path fill="none" stroke="#63b8ff" d="M579.25,-283.57C491.27,-281.97 338.95,-273.77 213.55,-239 171.98,-227.47 127.36,-204.07 101.25,-189.12"/>
<polygon fill="#63b8ff" stroke="#63b8ff" points="102.91,-186.04 92.51,-184.03 99.39,-192.09 102.91,-186.04"/>
</a>
</g>
</g>
<!-- Node12 -->
<g id="Node000012" class="node">
<title>Node12</title>
<g id="a_Node000012"><a xlink:href="TerrainTileManager_8h.html" target="_top" xlink:title=" ">
<polygon fill="white" stroke="#666666" points="342.05,-239 223.05,-239 223.05,-220 342.05,-220 342.05,-239"/>
<text text-anchor="middle" x="282.55" y="-227" font-family="Helvetica,sans-Serif" font-size="10.00">TerrainTileManager.h</text>
</a>
</g>
</g>
<!-- Node1&#45;&gt;Node12 -->
<g id="edge14_Node000001_Node000012" class="edge">
<title>Node1&#45;&gt;Node12</title>
<g id="a_edge14_Node000001_Node000012"><a xlink:title=" ">
<path fill="none" stroke="#63b8ff" d="M592.26,-274.98C526.73,-265.57 421.29,-250.43 351.95,-240.47"/>
<polygon fill="#63b8ff" stroke="#63b8ff" points="352.39,-237 341.99,-239.04 351.39,-243.92 352.39,-237"/>
</a>
</g>
</g>
<!-- Node14 -->
<g id="Node000014" class="node">
<title>Node14</title>
<g id="a_Node000014"><a xlink:href="QGCLoggingCategory_8h.html" target="_top" xlink:title=" ">
<polygon fill="white" stroke="#666666" points="1018.55,-239 890.55,-239 890.55,-220 1018.55,-220 1018.55,-239"/>
<text text-anchor="middle" x="954.55" y="-227" font-family="Helvetica,sans-Serif" font-size="10.00">QGCLoggingCategory.h</text>
</a>
</g>
</g>
<!-- Node1&#45;&gt;Node14 -->
<g id="edge21_Node000001_Node000014" class="edge">
<title>Node1&#45;&gt;Node14</title>
<g id="a_edge21_Node000001_Node000014"><a xlink:title=" ">
<path fill="none" stroke="#63b8ff" d="M700.23,-274.98C753.49,-265.67 838.85,-250.74 895.8,-240.78"/>
<polygon fill="#63b8ff" stroke="#63b8ff" points="896.49,-244.21 905.74,-239.04 895.28,-237.31 896.49,-244.21"/>
</a>
</g>
</g>
<!-- Node22 -->
<g id="Node000022" class="node">
<title>Node22</title>
<g id="a_Node000022"><a xlink:title=" ">
<polygon fill="#e0e0e0" stroke="#999999" points="1126.05,-239 1037.05,-239 1037.05,-220 1126.05,-220 1126.05,-239"/>
<text text-anchor="middle" x="1081.55" y="-227" font-family="Helvetica,sans-Serif" font-size="10.00">QtCore/QTimer</text>
</a>
</g>
</g>
<!-- Node1&#45;&gt;Node22 -->
<g id="edge33_Node000001_Node000022" class="edge">
<title>Node1&#45;&gt;Node22</title>
<g id="a_edge33_Node000001_Node000022"><a xlink:title=" ">
<path fill="none" stroke="#63b8ff" d="M723.73,-275.79C797.29,-267.74 914.92,-254.35 1026.68,-239.07"/>
<polygon fill="#63b8ff" stroke="#63b8ff" points="1027.35,-242.51 1036.78,-237.68 1026.4,-235.58 1027.35,-242.51"/>
</a>
</g>
</g>
<!-- Node3 -->
<g id="Node000003" class="node">
<title>Node3</title>
<g id="a_Node000003"><a xlink:title=" ">
<polygon fill="#e0e0e0" stroke="#999999" points="962.05,-19 819.05,-19 819.05,0 962.05,0 962.05,-19"/>
<text text-anchor="middle" x="890.55" y="-7" font-family="Helvetica,sans-Serif" font-size="10.00">QtCore/QLoggingCategory</text>
</a>
</g>
</g>
<!-- Node2&#45;&gt;Node3 -->
<g id="edge2_Node000002_Node000003" class="edge">
<title>Node2&#45;&gt;Node3</title>
<g id="a_edge2_Node000002_Node000003"><a xlink:title=" ">
<path fill="none" stroke="#63b8ff" d="M694.56,-223.28C743.12,-216.55 818.04,-203.36 838.55,-184 882.51,-142.5 889.77,-65.47 890.66,-29.69"/>
<polygon fill="#63b8ff" stroke="#63b8ff" points="894.16,-29.28 890.76,-19.25 887.16,-29.21 894.16,-29.28"/>
</a>
</g>
</g>
<!-- Node4 -->
<g id="Node000004" class="node">
<title>Node4</title>
<g id="a_Node000004"><a xlink:title=" ">
<polygon fill="#e0e0e0" stroke="#999999" points="628.55,-129 536.55,-129 536.55,-110 628.55,-110 628.55,-129"/>
<text text-anchor="middle" x="582.55" y="-117" font-family="Helvetica,sans-Serif" font-size="10.00">QtCore/QObject</text>
</a>
</g>
</g>
<!-- Node2&#45;&gt;Node4 -->
<g id="edge3_Node000002_Node000004" class="edge">
<title>Node2&#45;&gt;Node4</title>
<g id="a_edge3_Node000002_Node000004"><a xlink:title=" ">
<path fill="none" stroke="#63b8ff" d="M694.63,-226.74C756.25,-222.66 858.3,-209.22 821.55,-165 798.77,-137.59 702.07,-126.98 638.87,-122.93"/>
<polygon fill="#63b8ff" stroke="#63b8ff" points="638.83,-119.42 628.64,-122.32 638.41,-126.41 638.83,-119.42"/>
</a>
</g>
</g>
<!-- Node5 -->
<g id="Node000005" class="node">
<title>Node5</title>
<g id="a_Node000005"><a xlink:title=" ">
<polygon fill="#e0e0e0" stroke="#999999" points="699.05,-184 604.05,-184 604.05,-165 699.05,-165 699.05,-184"/>
<text text-anchor="middle" x="651.55" y="-172" font-family="Helvetica,sans-Serif" font-size="10.00">QtCore/QPointer</text>
</a>
</g>
</g>
<!-- Node2&#45;&gt;Node5 -->
<g id="edge4_Node000002_Node000005" class="edge">
<title>Node2&#45;&gt;Node5</title>
<g id="a_edge4_Node000002_Node000005"><a xlink:title=" ">
<path fill="none" stroke="#63b8ff" d="M651.55,-219.75C651.55,-212.8 651.55,-202.85 651.55,-194.13"/>
<polygon fill="#63b8ff" stroke="#63b8ff" points="655.05,-194.09 651.55,-184.09 648.05,-194.09 655.05,-194.09"/>
</a>
</g>
</g>
<!-- Node6 -->
<g id="Node000006" class="node">
<title>Node6</title>
<g id="a_Node000006"><a xlink:title=" ">
<polygon fill="#e0e0e0" stroke="#999999" points="402.55,-184 310.55,-184 310.55,-165 402.55,-165 402.55,-184"/>
<text text-anchor="middle" x="356.55" y="-172" font-family="Helvetica,sans-Serif" font-size="10.00">QtCore/QQueue</text>
</a>
</g>
</g>
<!-- Node2&#45;&gt;Node6 -->
<g id="edge5_Node000002_Node000006" class="edge">
<title>Node2&#45;&gt;Node6</title>
<g id="a_edge5_Node000002_Node000006"><a xlink:title=" ">
<path fill="none" stroke="#63b8ff" d="M608.34,-220.74C556.55,-211.43 469.66,-195.82 412.71,-185.59"/>
<polygon fill="#63b8ff" stroke="#63b8ff" points="413.26,-182.13 402.79,-183.81 412.02,-189.02 413.26,-182.13"/>
</a>
</g>
</g>
<!-- Node7 -->
<g id="Node000007" class="node">
<title>Node7</title>
<g id="a_Node000007"><a xlink:title=" ">
<polygon fill="#e0e0e0" stroke="#999999" points="812.05,-184 717.05,-184 717.05,-165 812.05,-165 812.05,-184"/>
<text text-anchor="middle" x="764.55" y="-172" font-family="Helvetica,sans-Serif" font-size="10.00">QtCore/QVariant</text>
</a>
</g>
</g>
<!-- Node2&#45;&gt;Node7 -->
<g id="edge6_Node000002_Node000007" class="edge">
<title>Node2&#45;&gt;Node7</title>
<g id="a_edge6_Node000002_Node000007"><a xlink:title=" ">
<path fill="none" stroke="#63b8ff" d="M669.7,-219.98C687.8,-211.5 715.83,-198.35 736.74,-188.54"/>
<polygon fill="#63b8ff" stroke="#63b8ff" points="738.5,-191.59 746.06,-184.17 735.52,-185.25 738.5,-191.59"/>
</a>
</g>
</g>
<!-- Node8 -->
<g id="Node000008" class="node">
<title>Node8</title>
<g id="a_Node000008"><a xlink:title=" ">
<polygon fill="#e0e0e0" stroke="#999999" points="586.05,-184 421.05,-184 421.05,-165 586.05,-165 586.05,-184"/>
<text text-anchor="middle" x="503.55" y="-172" font-family="Helvetica,sans-Serif" font-size="10.00">QtPositioning/QGeoCoordinate</text>
</a>
</g>
</g>
<!-- Node2&#45;&gt;Node8 -->
<g id="edge7_Node000002_Node000008" class="edge">
<title>Node2&#45;&gt;Node8</title>
<g id="a_edge7_Node000002_Node000008"><a xlink:title=" ">
<path fill="none" stroke="#63b8ff" d="M627.77,-219.98C603.32,-211.23 565.01,-197.51 537.4,-187.62"/>
<polygon fill="#63b8ff" stroke="#63b8ff" points="538.35,-184.25 527.76,-184.17 535.99,-190.84 538.35,-184.25"/>
</a>
</g>
</g>
<!-- Node2&#45;&gt;Node9 -->
<g id="edge8_Node000002_Node000009" class="edge">
<title>Node2&#45;&gt;Node9</title>
<g id="a_edge8_Node000002_Node000009"><a xlink:title=" ">
<path fill="none" stroke="#63b8ff" d="M608.22,-224.98C523.37,-218 329.1,-201.66 154.53,-184.08"/>
<polygon fill="#63b8ff" stroke="#63b8ff" points="154.69,-180.57 144.39,-183.05 153.99,-187.54 154.69,-180.57"/>
</a>
</g>
</g>
<!-- Node9&#45;&gt;Node3 -->
<g id="edge9_Node000009_Node000003" class="edge">
<title>Node9&#45;&gt;Node3</title>
<g id="a_edge9_Node000009_Node000003"><a xlink:title=" ">
<path fill="none" stroke="#63b8ff" d="M73.39,-164.9C66.05,-151.45 54.93,-125.37 68.55,-110 117.19,-55.11 610.65,-24.5 808.82,-14.35"/>
<polygon fill="#63b8ff" stroke="#63b8ff" points="809.08,-17.84 818.89,-13.83 808.72,-10.85 809.08,-17.84"/>
</a>
</g>
</g>
<!-- Node9&#45;&gt;Node4 -->
<g id="edge11_Node000009_Node000004" class="edge">
<title>Node9&#45;&gt;Node4</title>
<g id="a_edge11_Node000009_Node000004"><a xlink:title=" ">
<path fill="none" stroke="#63b8ff" d="M144.39,-166C147.49,-165.66 150.55,-165.33 153.55,-165 287.22,-150.49 444.45,-134.44 526.41,-126.15"/>
<polygon fill="#63b8ff" stroke="#63b8ff" points="526.91,-129.62 536.51,-125.13 526.2,-122.65 526.91,-129.62"/>
</a>
</g>
</g>
<!-- Node10 -->
<g id="Node000010" class="node">
<title>Node10</title>
<g id="a_Node000010"><a xlink:title=" ">
<polygon fill="#e0e0e0" stroke="#999999" points="323.55,-129 245.55,-129 245.55,-110 323.55,-110 323.55,-129"/>
<text text-anchor="middle" x="284.55" y="-117" font-family="Helvetica,sans-Serif" font-size="10.00">QtCore/QList</text>
</a>
</g>
</g>
<!-- Node9&#45;&gt;Node10 -->
<g id="edge10_Node000009_Node000010" class="edge">
<title>Node9&#45;&gt;Node10</title>
<g id="a_edge10_Node000009_Node000010"><a xlink:title=" ">
<path fill="none" stroke="#63b8ff" d="M111.65,-164.98C146.83,-155.93 202.62,-141.58 241.27,-131.64"/>
<polygon fill="#63b8ff" stroke="#63b8ff" points="242.38,-134.96 251.19,-129.08 240.63,-128.18 242.38,-134.96"/>
</a>
</g>
</g>
<!-- Node11 -->
<g id="Node000011" class="node">
<title>Node11</title>
<g id="a_Node000011"><a xlink:title=" ">
<polygon fill="#e0e0e0" stroke="#999999" points="227.05,-129 78.05,-129 78.05,-110 227.05,-110 227.05,-129"/>
<text text-anchor="middle" x="152.55" y="-117" font-family="Helvetica,sans-Serif" font-size="10.00">QtNetwork/QNetworkReply</text>
</a>
</g>
</g>
<!-- Node9&#45;&gt;Node11 -->
<g id="edge12_Node000009_Node000011" class="edge">
<title>Node9&#45;&gt;Node11</title>
<g id="a_edge12_Node000009_Node000011"><a xlink:title=" ">
<path fill="none" stroke="#63b8ff" d="M90.44,-164.98C101.7,-156.92 118.83,-144.65 132.26,-135.03"/>
<polygon fill="#63b8ff" stroke="#63b8ff" points="134.35,-137.84 140.44,-129.17 130.27,-132.15 134.35,-137.84"/>
</a>
</g>
</g>
<!-- Node12&#45;&gt;Node3 -->
<g id="edge16_Node000012_Node000003" class="edge">
<title>Node12&#45;&gt;Node3</title>
<g id="a_edge16_Node000012_Node000003"><a xlink:title=" ">
<path fill="none" stroke="#63b8ff" d="M222.9,-227.7C149.5,-225.3 31.17,-216.37 3.55,-184 -1.93,-177.58 0.32,-172.8 3.55,-165 37.99,-81.86 86.44,-77.62 173.55,-55 291.38,-24.41 646.43,-14.59 808.4,-11.66"/>
<polygon fill="#63b8ff" stroke="#63b8ff" points="808.85,-15.15 818.79,-11.48 808.73,-8.15 808.85,-15.15"/>
</a>
</g>
</g>
<!-- Node12&#45;&gt;Node4 -->
<g id="edge18_Node000012_Node000004" class="edge">
<title>Node12&#45;&gt;Node4</title>
<g id="a_edge18_Node000012_Node000004"><a xlink:title=" ">
<path fill="none" stroke="#63b8ff" d="M282.43,-219.56C282.77,-205.64 285.61,-178.94 301.55,-165 334.15,-136.49 453.96,-126.16 526.19,-122.48"/>
<polygon fill="#63b8ff" stroke="#63b8ff" points="526.67,-125.96 536.49,-121.98 526.33,-118.97 526.67,-125.96"/>
</a>
</g>
</g>
<!-- Node12&#45;&gt;Node6 -->
<g id="edge19_Node000012_Node000006" class="edge">
<title>Node12&#45;&gt;Node6</title>
<g id="a_edge19_Node000012_Node000006"><a xlink:title=" ">
<path fill="none" stroke="#63b8ff" d="M294.44,-219.98C305.7,-211.92 322.83,-199.65 336.26,-190.03"/>
<polygon fill="#63b8ff" stroke="#63b8ff" points="338.35,-192.84 344.44,-184.17 334.27,-187.15 338.35,-192.84"/>
</a>
</g>
</g>
<!-- Node12&#45;&gt;Node8 -->
<g id="edge20_Node000012_Node000008" class="edge">
<title>Node12&#45;&gt;Node8</title>
<g id="a_edge20_Node000012_Node000008"><a xlink:title=" ">
<path fill="none" stroke="#63b8ff" d="M318.06,-219.98C356.04,-210.87 416.42,-196.4 457.91,-186.45"/>
<polygon fill="#63b8ff" stroke="#63b8ff" points="458.85,-189.82 467.76,-184.08 457.22,-183.01 458.85,-189.82"/>
</a>
</g>
</g>
<!-- Node12&#45;&gt;Node9 -->
<g id="edge15_Node000012_Node000009" class="edge">
<title>Node12&#45;&gt;Node9</title>
<g id="a_edge15_Node000012_Node000009"><a xlink:title=" ">
<path fill="none" stroke="#63b8ff" d="M249.77,-219.98C214.93,-210.93 159.68,-196.58 121.41,-186.64"/>
<polygon fill="#63b8ff" stroke="#63b8ff" points="122.14,-183.21 111.58,-184.08 120.38,-189.98 122.14,-183.21"/>
</a>
</g>
</g>
<!-- Node13 -->
<g id="Node000013" class="node">
<title>Node13</title>
<g id="a_Node000013"><a xlink:title=" ">
<polygon fill="#e0e0e0" stroke="#999999" points="254.55,-184 162.55,-184 162.55,-165 254.55,-165 254.55,-184"/>
<text text-anchor="middle" x="208.55" y="-172" font-family="Helvetica,sans-Serif" font-size="10.00">QtCore/QMutex</text>
</a>
</g>
</g>
<!-- Node12&#45;&gt;Node13 -->
<g id="edge17_Node000012_Node000013" class="edge">
<title>Node12&#45;&gt;Node13</title>
<g id="a_edge17_Node000012_Node000013"><a xlink:title=" ">
<path fill="none" stroke="#63b8ff" d="M270.66,-219.98C259.4,-211.92 242.26,-199.65 228.84,-190.03"/>
<polygon fill="#63b8ff" stroke="#63b8ff" points="230.82,-187.15 220.65,-184.17 226.75,-192.84 230.82,-187.15"/>
</a>
</g>
</g>
<!-- Node14&#45;&gt;Node3 -->
<g id="edge29_Node000014_Node000003" class="edge">
<title>Node14&#45;&gt;Node3</title>
<g id="a_edge29_Node000014_Node000003"><a xlink:title=" ">
<path fill="none" stroke="#63b8ff" d="M952.04,-219.95C942.6,-187.81 909.11,-73.72 895.93,-28.83"/>
<polygon fill="#63b8ff" stroke="#63b8ff" points="899.28,-27.83 893.11,-19.22 892.57,-29.8 899.28,-27.83"/>
</a>
</g>
</g>
<!-- Node14&#45;&gt;Node4 -->
<g id="edge30_Node000014_Node000004" class="edge">
<title>Node14&#45;&gt;Node4</title>
<g id="a_edge30_Node000014_Node000004"><a xlink:title=" ">
<path fill="none" stroke="#63b8ff" d="M941.98,-219.79C921.37,-205.94 878.64,-179.02 838.55,-165 772.28,-141.82 691.98,-130.38 639.19,-124.97"/>
<polygon fill="#63b8ff" stroke="#63b8ff" points="639.31,-121.46 629.01,-123.97 638.62,-128.43 639.31,-121.46"/>
</a>
</g>
</g>
<!-- Node15 -->
<g id="Node000015" class="node">
<title>Node15</title>
<g id="a_Node000015"><a xlink:href="QmlObjectListModel_8h.html" target="_top" xlink:title=" ">
<polygon fill="white" stroke="#666666" points="1108.05,-184 983.05,-184 983.05,-165 1108.05,-165 1108.05,-184"/>
<text text-anchor="middle" x="1045.55" y="-172" font-family="Helvetica,sans-Serif" font-size="10.00">QmlObjectListModel.h</text>
</a>
</g>
</g>
<!-- Node14&#45;&gt;Node15 -->
<g id="edge22_Node000014_Node000015" class="edge">
<title>Node14&#45;&gt;Node15</title>
<g id="a_edge22_Node000014_Node000015"><a xlink:title=" ">
<path fill="none" stroke="#63b8ff" d="M969.17,-219.98C983.41,-211.69 1005.3,-198.94 1022,-189.22"/>
<polygon fill="#63b8ff" stroke="#63b8ff" points="1023.78,-192.23 1030.66,-184.17 1020.26,-186.18 1023.78,-192.23"/>
</a>
</g>
</g>
<!-- Node20 -->
<g id="Node000020" class="node">
<title>Node20</title>
<g id="a_Node000020"><a xlink:title=" ">
<polygon fill="#e0e0e0" stroke="#999999" points="1233.05,-184 1126.05,-184 1126.05,-165 1233.05,-165 1233.05,-184"/>
<text text-anchor="middle" x="1179.55" y="-172" font-family="Helvetica,sans-Serif" font-size="10.00">QtCore/QStringList</text>
</a>
</g>
</g>
<!-- Node14&#45;&gt;Node20 -->
<g id="edge31_Node000014_Node000020" class="edge">
<title>Node14&#45;&gt;Node20</title>
<g id="a_edge31_Node000014_Node000020"><a xlink:title=" ">
<path fill="none" stroke="#63b8ff" d="M990.7,-219.98C1029.45,-210.86 1091.1,-196.33 1133.35,-186.38"/>
<polygon fill="#63b8ff" stroke="#63b8ff" points="1134.18,-189.78 1143.11,-184.08 1132.58,-182.97 1134.18,-189.78"/>
</a>
</g>
</g>
<!-- Node21 -->
<g id="Node000021" class="node">
<title>Node21</title>
<g id="a_Node000021"><a xlink:title=" ">
<polygon fill="#e0e0e0" stroke="#999999" points="1333.55,-184 1251.55,-184 1251.55,-165 1333.55,-165 1333.55,-184"/>
<text text-anchor="middle" x="1292.55" y="-172" font-family="Helvetica,sans-Serif" font-size="10.00">QtCore/QMap</text>
</a>
</g>
</g>
<!-- Node14&#45;&gt;Node21 -->
<g id="edge32_Node000014_Node000021" class="edge">
<title>Node14&#45;&gt;Node21</title>
<g id="a_edge32_Node000014_Node000021"><a xlink:title=" ">
<path fill="none" stroke="#63b8ff" d="M1011.42,-219.97C1067.38,-211.52 1155.55,-198.05 1241.44,-184.16"/>
<polygon fill="#63b8ff" stroke="#63b8ff" points="1242.04,-187.61 1251.36,-182.55 1240.92,-180.7 1242.04,-187.61"/>
</a>
</g>
</g>
<!-- Node15&#45;&gt;Node3 -->
<g id="edge28_Node000015_Node000003" class="edge">
<title>Node15&#45;&gt;Node3</title>
<g id="a_edge28_Node000015_Node000003"><a xlink:title=" ">
<path fill="none" stroke="#63b8ff" d="M1038.97,-164.78C1032.35,-155.9 1021.95,-141.69 1013.55,-129 992.3,-96.91 996.14,-81.84 968.55,-55 954.94,-41.77 936.64,-31.06 921.18,-23.46"/>
<polygon fill="#63b8ff" stroke="#63b8ff" points="922.53,-20.23 911.99,-19.14 919.55,-26.57 922.53,-20.23"/>
</a>
</g>
</g>
<!-- Node16 -->
<g id="Node000016" class="node">
<title>Node16</title>
<g id="a_Node000016"><a xlink:href="ObjectListModelBase_8h.html" target="_top" xlink:title=" ">
<polygon fill="white" stroke="#666666" points="1150.55,-129 1022.55,-129 1022.55,-110 1150.55,-110 1150.55,-129"/>
<text text-anchor="middle" x="1086.55" y="-117" font-family="Helvetica,sans-Serif" font-size="10.00">ObjectListModelBase.h</text>
</a>
</g>
</g>
<!-- Node15&#45;&gt;Node16 -->
<g id="edge23_Node000015_Node000016" class="edge">
<title>Node15&#45;&gt;Node16</title>
<g id="a_edge23_Node000015_Node000016"><a xlink:title=" ">
<path fill="none" stroke="#63b8ff" d="M1052.32,-164.75C1058.11,-157.26 1066.61,-146.28 1073.69,-137.13"/>
<polygon fill="#63b8ff" stroke="#63b8ff" points="1076.55,-139.14 1079.9,-129.09 1071.02,-134.86 1076.55,-139.14"/>
</a>
</g>
</g>
<!-- Node17 -->
<g id="Node000017" class="node">
<title>Node17</title>
<g id="a_Node000017"><a xlink:href="ObjectItemModelBase_8h.html" target="_top" xlink:title=" ">
<polygon fill="white" stroke="#666666" points="1154.55,-74 1020.55,-74 1020.55,-55 1154.55,-55 1154.55,-74"/>
<text text-anchor="middle" x="1087.55" y="-62" font-family="Helvetica,sans-Serif" font-size="10.00">ObjectItemModelBase.h</text>
</a>
</g>
</g>
<!-- Node16&#45;&gt;Node17 -->
<g id="edge24_Node000016_Node000017" class="edge">
<title>Node16&#45;&gt;Node17</title>
<g id="a_edge24_Node000016_Node000017"><a xlink:title=" ">
<path fill="none" stroke="#63b8ff" d="M1086.71,-109.75C1086.84,-102.8 1087.03,-92.85 1087.2,-84.13"/>
<polygon fill="#63b8ff" stroke="#63b8ff" points="1090.7,-84.15 1087.39,-74.09 1083.7,-84.02 1090.7,-84.15"/>
</a>
</g>
</g>
<!-- Node17&#45;&gt;Node3 -->
<g id="edge26_Node000017_Node000003" class="edge">
<title>Node17&#45;&gt;Node3</title>
<g id="a_edge26_Node000017_Node000003"><a xlink:title=" ">
<path fill="none" stroke="#63b8ff" d="M1055.9,-54.98C1022.39,-45.97 969.35,-31.7 932.41,-21.76"/>
<polygon fill="#63b8ff" stroke="#63b8ff" points="933.01,-18.3 922.45,-19.08 931.2,-25.06 933.01,-18.3"/>
</a>
</g>
</g>
<!-- Node18 -->
<g id="Node000018" class="node">
<title>Node18</title>
<g id="a_Node000018"><a xlink:title=" ">
<polygon fill="#e0e0e0" stroke="#999999" points="1347.55,-19 1193.55,-19 1193.55,0 1347.55,0 1347.55,-19"/>
<text text-anchor="middle" x="1270.55" y="-7" font-family="Helvetica,sans-Serif" font-size="10.00">QtCore/QAbstractItemModel</text>
</a>
</g>
</g>
<!-- Node17&#45;&gt;Node18 -->
<g id="edge25_Node000017_Node000018" class="edge">
<title>Node17&#45;&gt;Node18</title>
<g id="a_edge25_Node000017_Node000018"><a xlink:title=" ">
<path fill="none" stroke="#63b8ff" d="M1116.95,-54.98C1147.94,-46.01 1196.92,-31.82 1231.22,-21.89"/>
<polygon fill="#63b8ff" stroke="#63b8ff" points="1232.28,-25.23 1240.92,-19.08 1230.34,-18.5 1232.28,-25.23"/>
</a>
</g>
</g>
<!-- Node19 -->
<g id="Node000019" class="node">
<title>Node19</title>
<g id="a_Node000019"><a xlink:title=" ">
<polygon fill="#e0e0e0" stroke="#999999" points="1175.05,-19 986.05,-19 986.05,0 1175.05,0 1175.05,-19"/>
<text text-anchor="middle" x="1080.55" y="-7" font-family="Helvetica,sans-Serif" font-size="10.00">QtQmlIntegration/QtQmlIntegration</text>
</a>
</g>
</g>
<!-- Node17&#45;&gt;Node19 -->
<g id="edge27_Node000017_Node000019" class="edge">
<title>Node17&#45;&gt;Node19</title>
<g id="a_edge27_Node000017_Node000019"><a xlink:title=" ">
<path fill="none" stroke="#63b8ff" d="M1086.39,-54.75C1085.47,-47.8 1084.16,-37.85 1083.01,-29.13"/>
<polygon fill="#63b8ff" stroke="#63b8ff" points="1086.46,-28.54 1081.68,-19.09 1079.52,-29.46 1086.46,-28.54"/>
</a>
</g>
</g>
</g>
</svg>
