<?xml version="1.0" encoding="UTF-8" standalone="no"?>
<!DOCTYPE svg PUBLIC "-//W3C//DTD SVG 1.1//EN"
 "http://www.w3.org/Graphics/SVG/1.1/DTD/svg11.dtd">
<!-- Generated by graphviz version 2.43.0 (0)
 -->
<!-- Title: src/Terrain/Providers/TerrainTileCopernicus.cc Pages: 1 -->
<svg width="3304pt" height="214pt"
 viewBox="0.00 0.00 3304.00 214.00" xmlns="http://www.w3.org/2000/svg" xmlns:xlink="http://www.w3.org/1999/xlink">
<g id="graph0" class="graph" transform="scale(1 1) rotate(0) translate(4 210)">
<title>src/Terrain/Providers/TerrainTileCopernicus.cc</title>
<!-- Node1 -->
<g id="Node000001" class="node">
<title>Node1</title>
<g id="a_Node000001"><a xlink:title=" ">
<polygon fill="#999999" stroke="#666666" points="1082.5,-206 944.5,-206 944.5,-176 1082.5,-176 1082.5,-206"/>
<text text-anchor="start" x="952.5" y="-194" font-family="Helvetica,sans-Serif" font-size="10.00">src/Terrain/Providers</text>
<text text-anchor="middle" x="1013.5" y="-183" font-family="Helvetica,sans-Serif" font-size="10.00">/TerrainTileCopernicus.cc</text>
</a>
</g>
</g>
<!-- Node2 -->
<g id="Node000002" class="node">
<title>Node2</title>
<g id="a_Node000002"><a xlink:href="TerrainTileCopernicus_8h.html" target="_top" xlink:title=" ">
<polygon fill="white" stroke="#666666" points="660,-140 529,-140 529,-121 660,-121 660,-140"/>
<text text-anchor="middle" x="594.5" y="-128" font-family="Helvetica,sans-Serif" font-size="10.00">TerrainTileCopernicus.h</text>
</a>
</g>
</g>
<!-- Node1&#45;&gt;Node2 -->
<g id="edge1_Node000001_Node000002" class="edge">
<title>Node1&#45;&gt;Node2</title>
<g id="a_edge1_Node000001_Node000002"><a xlink:title=" ">
<path fill="none" stroke="#63b8ff" d="M944.31,-180.34C867.34,-169.59 743.61,-152.32 665.8,-141.46"/>
<polygon fill="#63b8ff" stroke="#63b8ff" points="666,-137.95 655.61,-140.03 665.03,-144.88 666,-137.95"/>
</a>
</g>
</g>
<!-- Node6 -->
<g id="Node000006" class="node">
<title>Node6</title>
<g id="a_Node000006"><a xlink:title=" ">
<polygon fill="#e0e0e0" stroke="#999999" points="2379,-140 2272,-140 2272,-121 2379,-121 2379,-140"/>
<text text-anchor="middle" x="2325.5" y="-128" font-family="Helvetica,sans-Serif" font-size="10.00">QtCore/QJsonArray</text>
</a>
</g>
</g>
<!-- Node1&#45;&gt;Node6 -->
<g id="edge7_Node000001_Node000006" class="edge">
<title>Node1&#45;&gt;Node6</title>
<g id="a_edge7_Node000001_Node000006"><a xlink:title=" ">
<path fill="none" stroke="#63b8ff" d="M1082.7,-189.51C1270.56,-187.7 1805.98,-179.28 2261.84,-139.95"/>
<polygon fill="#63b8ff" stroke="#63b8ff" points="2262.26,-143.43 2271.92,-139.08 2261.66,-136.46 2262.26,-143.43"/>
</a>
</g>
</g>
<!-- Node7 -->
<g id="Node000007" class="node">
<title>Node7</title>
<g id="a_Node000007"><a xlink:title=" ">
<polygon fill="#e0e0e0" stroke="#999999" points="1679,-79.5 1548,-79.5 1548,-60.5 1679,-60.5 1679,-79.5"/>
<text text-anchor="middle" x="1613.5" y="-67.5" font-family="Helvetica,sans-Serif" font-size="10.00">QtCore/QJsonDocument</text>
</a>
</g>
</g>
<!-- Node1&#45;&gt;Node7 -->
<g id="edge8_Node000001_Node000007" class="edge">
<title>Node1&#45;&gt;Node7</title>
<g id="a_edge8_Node000001_Node000007"><a xlink:title=" ">
<path fill="none" stroke="#63b8ff" d="M1082.62,-176.29C1203.67,-152.28 1451.48,-103.13 1560.28,-81.56"/>
<polygon fill="#63b8ff" stroke="#63b8ff" points="1561.24,-84.93 1570.37,-79.55 1559.88,-78.07 1561.24,-84.93"/>
</a>
</g>
</g>
<!-- Node8 -->
<g id="Node000008" class="node">
<title>Node8</title>
<g id="a_Node000008"><a xlink:title=" ">
<polygon fill="#e0e0e0" stroke="#999999" points="466,-79.5 353,-79.5 353,-60.5 466,-60.5 466,-79.5"/>
<text text-anchor="middle" x="409.5" y="-67.5" font-family="Helvetica,sans-Serif" font-size="10.00">QtCore/QJsonObject</text>
</a>
</g>
</g>
<!-- Node1&#45;&gt;Node8 -->
<g id="edge9_Node000001_Node000008" class="edge">
<title>Node1&#45;&gt;Node8</title>
<g id="a_edge9_Node000001_Node000008"><a xlink:title=" ">
<path fill="none" stroke="#63b8ff" d="M944.14,-186.88C827.25,-180.98 596.25,-166.33 519.5,-140 484.05,-127.84 448.25,-102.37 427.51,-86.01"/>
<polygon fill="#63b8ff" stroke="#63b8ff" points="429.57,-83.17 419.59,-79.62 425.17,-88.62 429.57,-83.17"/>
</a>
</g>
</g>
<!-- Node9 -->
<g id="Node000009" class="node">
<title>Node9</title>
<g id="a_Node000009"><a xlink:href="JsonHelper_8h.html" target="_top" xlink:title=" ">
<polygon fill="white" stroke="#666666" points="363,-140 286,-140 286,-121 363,-121 363,-140"/>
<text text-anchor="middle" x="324.5" y="-128" font-family="Helvetica,sans-Serif" font-size="10.00">JsonHelper.h</text>
</a>
</g>
</g>
<!-- Node1&#45;&gt;Node9 -->
<g id="edge10_Node000001_Node000009" class="edge">
<title>Node1&#45;&gt;Node9</title>
<g id="a_edge10_Node000001_Node000009"><a xlink:title=" ">
<path fill="none" stroke="#63b8ff" d="M944.28,-184.12C804.85,-172.28 493.25,-145.83 373.07,-135.62"/>
<polygon fill="#63b8ff" stroke="#63b8ff" points="373.32,-132.13 363.06,-134.77 372.73,-139.11 373.32,-132.13"/>
</a>
</g>
</g>
<!-- Node12 -->
<g id="Node000012" class="node">
<title>Node12</title>
<g id="a_Node000012"><a xlink:href="QGCLoggingCategory_8h.html" target="_top" xlink:title=" ">
<polygon fill="white" stroke="#666666" points="1077.5,-140 949.5,-140 949.5,-121 1077.5,-121 1077.5,-140"/>
<text text-anchor="middle" x="1013.5" y="-128" font-family="Helvetica,sans-Serif" font-size="10.00">QGCLoggingCategory.h</text>
</a>
</g>
</g>
<!-- Node1&#45;&gt;Node12 -->
<g id="edge15_Node000001_Node000012" class="edge">
<title>Node1&#45;&gt;Node12</title>
<g id="a_edge15_Node000001_Node000012"><a xlink:title=" ">
<path fill="none" stroke="#63b8ff" d="M1013.5,-175.84C1013.5,-168.21 1013.5,-158.7 1013.5,-150.45"/>
<polygon fill="#63b8ff" stroke="#63b8ff" points="1017,-150.27 1013.5,-140.27 1010,-150.27 1017,-150.27"/>
</a>
</g>
</g>
<!-- Node20 -->
<g id="Node000020" class="node">
<title>Node20</title>
<g id="a_Node000020"><a xlink:href="QGCNetworkHelper_8h.html" target="_top" xlink:title=" ">
<polygon fill="white" stroke="#666666" points="2253.5,-140 2133.5,-140 2133.5,-121 2253.5,-121 2253.5,-140"/>
<text text-anchor="middle" x="2193.5" y="-128" font-family="Helvetica,sans-Serif" font-size="10.00">QGCNetworkHelper.h</text>
</a>
</g>
</g>
<!-- Node1&#45;&gt;Node20 -->
<g id="edge24_Node000001_Node000020" class="edge">
<title>Node1&#45;&gt;Node20</title>
<g id="a_edge24_Node000001_Node000020"><a xlink:title=" ">
<path fill="none" stroke="#63b8ff" d="M1082.91,-186.56C1291.69,-176.21 1912.47,-145.43 2122.86,-135"/>
<polygon fill="#63b8ff" stroke="#63b8ff" points="2123.35,-138.48 2133.16,-134.49 2123,-131.49 2123.35,-138.48"/>
</a>
</g>
</g>
<!-- Node3 -->
<g id="Node000003" class="node">
<title>Node3</title>
<g id="a_Node000003"><a xlink:title=" ">
<polygon fill="#e0e0e0" stroke="#999999" points="667.5,-19 589.5,-19 589.5,0 667.5,0 667.5,-19"/>
<text text-anchor="middle" x="628.5" y="-7" font-family="Helvetica,sans-Serif" font-size="10.00">QtCore/QList</text>
</a>
</g>
</g>
<!-- Node2&#45;&gt;Node3 -->
<g id="edge2_Node000002_Node000003" class="edge">
<title>Node2&#45;&gt;Node3</title>
<g id="a_edge2_Node000002_Node000003"><a xlink:title=" ">
<path fill="none" stroke="#63b8ff" d="M597.4,-120.67C600.31,-111.71 604.87,-97.44 608.5,-85 613.99,-66.15 619.75,-44.45 623.68,-29.35"/>
<polygon fill="#63b8ff" stroke="#63b8ff" points="627.17,-29.81 626.28,-19.25 620.39,-28.06 627.17,-29.81"/>
</a>
</g>
</g>
<!-- Node4 -->
<g id="Node000004" class="node">
<title>Node4</title>
<g id="a_Node000004"><a xlink:title=" ">
<polygon fill="#e0e0e0" stroke="#999999" points="569,-19 426,-19 426,0 569,0 569,-19"/>
<text text-anchor="middle" x="497.5" y="-7" font-family="Helvetica,sans-Serif" font-size="10.00">QtCore/QLoggingCategory</text>
</a>
</g>
</g>
<!-- Node2&#45;&gt;Node4 -->
<g id="edge3_Node000002_Node000004" class="edge">
<title>Node2&#45;&gt;Node4</title>
<g id="a_edge3_Node000002_Node000004"><a xlink:title=" ">
<path fill="none" stroke="#63b8ff" d="M566.38,-120.87C548.58,-113.97 526.53,-102.5 513.5,-85 501.55,-68.95 498.13,-45.85 497.34,-29.64"/>
<polygon fill="#63b8ff" stroke="#63b8ff" points="500.83,-29.19 497.14,-19.25 493.84,-29.32 500.83,-29.19"/>
</a>
</g>
</g>
<!-- Node5 -->
<g id="Node000005" class="node">
<title>Node5</title>
<g id="a_Node000005"><a xlink:href="TerrainTile_8h.html" target="_top" xlink:title=" ">
<polygon fill="white" stroke="#666666" points="600,-79.5 523,-79.5 523,-60.5 600,-60.5 600,-79.5"/>
<text text-anchor="middle" x="561.5" y="-67.5" font-family="Helvetica,sans-Serif" font-size="10.00">TerrainTile.h</text>
</a>
</g>
</g>
<!-- Node2&#45;&gt;Node5 -->
<g id="edge4_Node000002_Node000005" class="edge">
<title>Node2&#45;&gt;Node5</title>
<g id="a_edge4_Node000002_Node000005"><a xlink:title=" ">
<path fill="none" stroke="#63b8ff" d="M589.63,-120.87C584.85,-112.4 577.43,-99.24 571.41,-88.57"/>
<polygon fill="#63b8ff" stroke="#63b8ff" points="574.35,-86.66 566.39,-79.67 568.25,-90.1 574.35,-86.66"/>
</a>
</g>
</g>
<!-- Node5&#45;&gt;Node3 -->
<g id="edge5_Node000005_Node000003" class="edge">
<title>Node5&#45;&gt;Node3</title>
<g id="a_edge5_Node000005_Node000003"><a xlink:title=" ">
<path fill="none" stroke="#63b8ff" d="M571.39,-60.37C581.78,-51.3 598.34,-36.84 610.95,-25.82"/>
<polygon fill="#63b8ff" stroke="#63b8ff" points="613.34,-28.38 618.57,-19.17 608.74,-23.11 613.34,-28.38"/>
</a>
</g>
</g>
<!-- Node5&#45;&gt;Node4 -->
<g id="edge6_Node000005_Node000004" class="edge">
<title>Node5&#45;&gt;Node4</title>
<g id="a_edge6_Node000005_Node000004"><a xlink:title=" ">
<path fill="none" stroke="#63b8ff" d="M552.06,-60.37C542.23,-51.38 526.61,-37.11 514.61,-26.14"/>
<polygon fill="#63b8ff" stroke="#63b8ff" points="516.72,-23.33 506.98,-19.17 512,-28.5 516.72,-23.33"/>
</a>
</g>
</g>
<!-- Node9&#45;&gt;Node4 -->
<g id="edge11_Node000009_Node000004" class="edge">
<title>Node9&#45;&gt;Node4</title>
<g id="a_edge11_Node000009_Node000004"><a xlink:title=" ">
<path fill="none" stroke="#63b8ff" d="M324.12,-120.83C323.93,-105.43 325.85,-73.21 343.5,-55 362.56,-35.33 389.73,-24.2 415.95,-17.96"/>
<polygon fill="#63b8ff" stroke="#63b8ff" points="416.9,-21.34 425.94,-15.8 415.42,-14.5 416.9,-21.34"/>
</a>
</g>
</g>
<!-- Node9&#45;&gt;Node8 -->
<g id="edge12_Node000009_Node000008" class="edge">
<title>Node9&#45;&gt;Node8</title>
<g id="a_edge12_Node000009_Node000008"><a xlink:title=" ">
<path fill="none" stroke="#63b8ff" d="M337.04,-120.87C350.6,-111.54 372.44,-96.51 388.6,-85.38"/>
<polygon fill="#63b8ff" stroke="#63b8ff" points="390.65,-88.22 396.91,-79.67 386.68,-82.45 390.65,-88.22"/>
</a>
</g>
</g>
<!-- Node10 -->
<g id="Node000010" class="node">
<title>Node10</title>
<g id="a_Node000010"><a xlink:title=" ">
<polygon fill="#e0e0e0" stroke="#999999" points="113,-79.5 0,-79.5 0,-60.5 113,-60.5 113,-79.5"/>
<text text-anchor="middle" x="56.5" y="-67.5" font-family="Helvetica,sans-Serif" font-size="10.00">QtCore/QVariantList</text>
</a>
</g>
</g>
<!-- Node9&#45;&gt;Node10 -->
<g id="edge13_Node000009_Node000010" class="edge">
<title>Node9&#45;&gt;Node10</title>
<g id="a_edge13_Node000009_Node000010"><a xlink:title=" ">
<path fill="none" stroke="#63b8ff" d="M285.82,-121.06C238.25,-110.67 157.47,-93.04 105.58,-81.71"/>
<polygon fill="#63b8ff" stroke="#63b8ff" points="106.12,-78.25 95.61,-79.54 104.63,-85.09 106.12,-78.25"/>
</a>
</g>
</g>
<!-- Node11 -->
<g id="Node000011" class="node">
<title>Node11</title>
<g id="a_Node000011"><a xlink:title=" ">
<polygon fill="#e0e0e0" stroke="#999999" points="296,-79.5 131,-79.5 131,-60.5 296,-60.5 296,-79.5"/>
<text text-anchor="middle" x="213.5" y="-67.5" font-family="Helvetica,sans-Serif" font-size="10.00">QtPositioning/QGeoCoordinate</text>
</a>
</g>
</g>
<!-- Node9&#45;&gt;Node11 -->
<g id="edge14_Node000009_Node000011" class="edge">
<title>Node9&#45;&gt;Node11</title>
<g id="a_edge14_Node000009_Node000011"><a xlink:title=" ">
<path fill="none" stroke="#63b8ff" d="M308.12,-120.87C289.92,-111.28 260.3,-95.67 239.05,-84.47"/>
<polygon fill="#63b8ff" stroke="#63b8ff" points="240.42,-81.23 229.95,-79.67 237.16,-87.43 240.42,-81.23"/>
</a>
</g>
</g>
<!-- Node12&#45;&gt;Node4 -->
<g id="edge17_Node000012_Node000004" class="edge">
<title>Node12&#45;&gt;Node4</title>
<g id="a_edge17_Node000012_Node000004"><a xlink:title=" ">
<path fill="none" stroke="#63b8ff" d="M949.42,-125.42C882.65,-120.1 775.42,-108.54 685.5,-85 681.48,-83.95 580.61,-43.72 528.32,-22.82"/>
<polygon fill="#63b8ff" stroke="#63b8ff" points="529.44,-19.5 518.85,-19.04 526.84,-26 529.44,-19.5"/>
</a>
</g>
</g>
<!-- Node13 -->
<g id="Node000013" class="node">
<title>Node13</title>
<g id="a_Node000013"><a xlink:title=" ">
<polygon fill="#e0e0e0" stroke="#999999" points="884.5,-79.5 798.5,-79.5 798.5,-60.5 884.5,-60.5 884.5,-79.5"/>
<text text-anchor="middle" x="841.5" y="-67.5" font-family="Helvetica,sans-Serif" font-size="10.00">QtCore/QHash</text>
</a>
</g>
</g>
<!-- Node12&#45;&gt;Node13 -->
<g id="edge16_Node000012_Node000013" class="edge">
<title>Node12&#45;&gt;Node13</title>
<g id="a_edge16_Node000012_Node000013"><a xlink:title=" ">
<path fill="none" stroke="#63b8ff" d="M988.49,-120.99C958.94,-110.94 909.59,-94.16 876.31,-82.84"/>
<polygon fill="#63b8ff" stroke="#63b8ff" points="877.13,-79.42 866.54,-79.52 874.88,-86.05 877.13,-79.42"/>
</a>
</g>
</g>
<!-- Node14 -->
<g id="Node000014" class="node">
<title>Node14</title>
<g id="a_Node000014"><a xlink:title=" ">
<polygon fill="#e0e0e0" stroke="#999999" points="994.5,-79.5 902.5,-79.5 902.5,-60.5 994.5,-60.5 994.5,-79.5"/>
<text text-anchor="middle" x="948.5" y="-67.5" font-family="Helvetica,sans-Serif" font-size="10.00">QtCore/QObject</text>
</a>
</g>
</g>
<!-- Node12&#45;&gt;Node14 -->
<g id="edge18_Node000012_Node000014" class="edge">
<title>Node12&#45;&gt;Node14</title>
<g id="a_edge18_Node000012_Node000014"><a xlink:title=" ">
<path fill="none" stroke="#63b8ff" d="M1003.91,-120.87C993.92,-111.88 978.07,-97.61 965.87,-86.64"/>
<polygon fill="#63b8ff" stroke="#63b8ff" points="967.9,-83.76 958.13,-79.67 963.22,-88.96 967.9,-83.76"/>
</a>
</g>
</g>
<!-- Node15 -->
<g id="Node000015" class="node">
<title>Node15</title>
<g id="a_Node000015"><a xlink:title=" ">
<polygon fill="#e0e0e0" stroke="#999999" points="1146.5,-79.5 1012.5,-79.5 1012.5,-60.5 1146.5,-60.5 1146.5,-79.5"/>
<text text-anchor="middle" x="1079.5" y="-67.5" font-family="Helvetica,sans-Serif" font-size="10.00">QtCore/QReadWriteLock</text>
</a>
</g>
</g>
<!-- Node12&#45;&gt;Node15 -->
<g id="edge19_Node000012_Node000015" class="edge">
<title>Node12&#45;&gt;Node15</title>
<g id="a_edge19_Node000012_Node000015"><a xlink:title=" ">
<path fill="none" stroke="#63b8ff" d="M1023.24,-120.87C1033.47,-111.8 1049.79,-97.34 1062.22,-86.32"/>
<polygon fill="#63b8ff" stroke="#63b8ff" points="1064.56,-88.92 1069.72,-79.67 1059.92,-83.68 1064.56,-88.92"/>
</a>
</g>
</g>
<!-- Node16 -->
<g id="Node000016" class="node">
<title>Node16</title>
<g id="a_Node000016"><a xlink:title=" ">
<polygon fill="#e0e0e0" stroke="#999999" points="1242,-79.5 1165,-79.5 1165,-60.5 1242,-60.5 1242,-79.5"/>
<text text-anchor="middle" x="1203.5" y="-67.5" font-family="Helvetica,sans-Serif" font-size="10.00">QtCore/QSet</text>
</a>
</g>
</g>
<!-- Node12&#45;&gt;Node16 -->
<g id="edge20_Node000012_Node000016" class="edge">
<title>Node12&#45;&gt;Node16</title>
<g id="a_edge20_Node000012_Node000016"><a xlink:title=" ">
<path fill="none" stroke="#63b8ff" d="M1041.13,-120.99C1074.05,-110.86 1129.23,-93.87 1165.99,-82.55"/>
<polygon fill="#63b8ff" stroke="#63b8ff" points="1167.31,-85.8 1175.84,-79.52 1165.25,-79.11 1167.31,-85.8"/>
</a>
</g>
</g>
<!-- Node17 -->
<g id="Node000017" class="node">
<title>Node17</title>
<g id="a_Node000017"><a xlink:title=" ">
<polygon fill="#e0e0e0" stroke="#999999" points="1530,-79.5 1441,-79.5 1441,-60.5 1530,-60.5 1530,-79.5"/>
<text text-anchor="middle" x="1485.5" y="-67.5" font-family="Helvetica,sans-Serif" font-size="10.00">QtCore/QString</text>
</a>
</g>
</g>
<!-- Node12&#45;&gt;Node17 -->
<g id="edge21_Node000012_Node000017" class="edge">
<title>Node12&#45;&gt;Node17</title>
<g id="a_edge21_Node000012_Node000017"><a xlink:title=" ">
<path fill="none" stroke="#63b8ff" d="M1077.82,-125.72C1160.44,-120.18 1308.04,-107.91 1432.5,-85 1437.05,-84.16 1441.77,-83.14 1446.45,-82.03"/>
<polygon fill="#63b8ff" stroke="#63b8ff" points="1447.67,-85.33 1456.52,-79.51 1445.97,-78.54 1447.67,-85.33"/>
</a>
</g>
</g>
<!-- Node18 -->
<g id="Node000018" class="node">
<title>Node18</title>
<g id="a_Node000018"><a xlink:title=" ">
<polygon fill="#e0e0e0" stroke="#999999" points="1423,-79.5 1260,-79.5 1260,-60.5 1423,-60.5 1423,-79.5"/>
<text text-anchor="middle" x="1341.5" y="-67.5" font-family="Helvetica,sans-Serif" font-size="10.00">QtCore/QSortFilterProxyModel</text>
</a>
</g>
</g>
<!-- Node12&#45;&gt;Node18 -->
<g id="edge22_Node000012_Node000018" class="edge">
<title>Node12&#45;&gt;Node18</title>
<g id="a_edge22_Node000012_Node000018"><a xlink:title=" ">
<path fill="none" stroke="#63b8ff" d="M1061.19,-120.99C1120.1,-110.49 1220.25,-92.62 1283.54,-81.34"/>
<polygon fill="#63b8ff" stroke="#63b8ff" points="1284.52,-84.72 1293.75,-79.52 1283.29,-77.83 1284.52,-84.72"/>
</a>
</g>
</g>
<!-- Node19 -->
<g id="Node000019" class="node">
<title>Node19</title>
<g id="a_Node000019"><a xlink:title=" ">
<polygon fill="#e0e0e0" stroke="#999999" points="780,-79.5 695,-79.5 695,-60.5 780,-60.5 780,-79.5"/>
<text text-anchor="middle" x="737.5" y="-67.5" font-family="Helvetica,sans-Serif" font-size="10.00">QtQml/qqml.h</text>
</a>
</g>
</g>
<!-- Node12&#45;&gt;Node19 -->
<g id="edge23_Node000012_Node000019" class="edge">
<title>Node12&#45;&gt;Node19</title>
<g id="a_edge23_Node000012_Node000019"><a xlink:title=" ">
<path fill="none" stroke="#63b8ff" d="M965.67,-120.96C920.18,-112.61 849.92,-99.12 789.5,-85 785.67,-84.1 781.69,-83.12 777.71,-82.11"/>
<polygon fill="#63b8ff" stroke="#63b8ff" points="778.49,-78.7 767.93,-79.56 776.73,-85.47 778.49,-78.7"/>
</a>
</g>
</g>
<!-- Node20&#45;&gt;Node3 -->
<g id="edge26_Node000020_Node000003" class="edge">
<title>Node20&#45;&gt;Node3</title>
<g id="a_edge26_Node000020_Node000003"><a xlink:title=" ">
<path fill="none" stroke="#63b8ff" d="M2133.45,-127.88C2024.74,-124.28 1799.9,-113.53 1727.5,-85 1707.15,-76.98 1709.05,-62.47 1688.5,-55 1592.95,-20.25 873.69,-12.34 677.69,-10.82"/>
<polygon fill="#63b8ff" stroke="#63b8ff" points="677.71,-7.32 667.68,-10.75 677.65,-14.32 677.71,-7.32"/>
</a>
</g>
</g>
<!-- Node20&#45;&gt;Node7 -->
<g id="edge25_Node000020_Node000007" class="edge">
<title>Node20&#45;&gt;Node7</title>
<g id="a_edge25_Node000020_Node000007"><a xlink:title=" ">
<path fill="none" stroke="#63b8ff" d="M2133.29,-125.79C2039.18,-119.62 1851.62,-105.83 1693.5,-85 1685.35,-83.93 1676.76,-82.62 1668.36,-81.23"/>
<polygon fill="#63b8ff" stroke="#63b8ff" points="1668.69,-77.74 1658.25,-79.52 1667.52,-84.64 1668.69,-77.74"/>
</a>
</g>
</g>
<!-- Node20&#45;&gt;Node17 -->
<g id="edge28_Node000020_Node000017" class="edge">
<title>Node20&#45;&gt;Node17</title>
<g id="a_edge28_Node000020_Node000017"><a xlink:title=" ">
<path fill="none" stroke="#63b8ff" d="M2133.11,-129.12C2017.25,-127.58 1756.03,-120.12 1539.5,-85 1534.62,-84.21 1529.54,-83.18 1524.53,-82.03"/>
<polygon fill="#63b8ff" stroke="#63b8ff" points="1524.98,-78.54 1514.44,-79.56 1523.32,-85.34 1524.98,-78.54"/>
</a>
</g>
</g>
<!-- Node21 -->
<g id="Node000021" class="node">
<title>Node21</title>
<g id="a_Node000021"><a xlink:title=" ">
<polygon fill="#e0e0e0" stroke="#999999" points="3090,-79.5 3011,-79.5 3011,-60.5 3090,-60.5 3090,-79.5"/>
<text text-anchor="middle" x="3050.5" y="-67.5" font-family="Helvetica,sans-Serif" font-size="10.00">QtCore/QPair</text>
</a>
</g>
</g>
<!-- Node20&#45;&gt;Node21 -->
<g id="edge27_Node000020_Node000021" class="edge">
<title>Node20&#45;&gt;Node21</title>
<g id="a_edge27_Node000020_Node000021"><a xlink:title=" ">
<path fill="none" stroke="#63b8ff" d="M2253.8,-121.9C2257.08,-121.57 2260.33,-121.27 2263.5,-121 2590.71,-93.19 2677.49,-138.46 3001.5,-85 3005.94,-84.27 3010.55,-83.27 3015.09,-82.15"/>
<polygon fill="#63b8ff" stroke="#63b8ff" points="3016.07,-85.51 3024.81,-79.54 3014.25,-78.75 3016.07,-85.51"/>
</a>
</g>
</g>
<!-- Node22 -->
<g id="Node000022" class="node">
<title>Node22</title>
<g id="a_Node000022"><a xlink:title=" ">
<polygon fill="#e0e0e0" stroke="#999999" points="3183,-79.5 3108,-79.5 3108,-60.5 3183,-60.5 3183,-79.5"/>
<text text-anchor="middle" x="3145.5" y="-67.5" font-family="Helvetica,sans-Serif" font-size="10.00">QtCore/QUrl</text>
</a>
</g>
</g>
<!-- Node20&#45;&gt;Node22 -->
<g id="edge29_Node000020_Node000022" class="edge">
<title>Node20&#45;&gt;Node22</title>
<g id="a_edge29_Node000020_Node000022"><a xlink:title=" ">
<path fill="none" stroke="#63b8ff" d="M2253.8,-121.88C2257.08,-121.56 2260.33,-121.26 2263.5,-121 2634.15,-90.56 2732.91,-147.64 3099.5,-85 3103.46,-84.32 3107.56,-83.41 3111.6,-82.36"/>
<polygon fill="#63b8ff" stroke="#63b8ff" points="3112.76,-85.67 3121.43,-79.58 3110.85,-78.94 3112.76,-85.67"/>
</a>
</g>
</g>
<!-- Node23 -->
<g id="Node000023" class="node">
<title>Node23</title>
<g id="a_Node000023"><a xlink:title=" ">
<polygon fill="#e0e0e0" stroke="#999999" points="3296,-79.5 3201,-79.5 3201,-60.5 3296,-60.5 3296,-79.5"/>
<text text-anchor="middle" x="3248.5" y="-67.5" font-family="Helvetica,sans-Serif" font-size="10.00">QtCore/QVariant</text>
</a>
</g>
</g>
<!-- Node20&#45;&gt;Node23 -->
<g id="edge30_Node000020_Node000023" class="edge">
<title>Node20&#45;&gt;Node23</title>
<g id="a_edge30_Node000020_Node000023"><a xlink:title=" ">
<path fill="none" stroke="#63b8ff" d="M2253.8,-121.86C2257.08,-121.54 2260.33,-121.25 2263.5,-121 2675.38,-88.07 2783.45,-143.42 3192.5,-85 3197.96,-84.22 3203.65,-83.13 3209.24,-81.9"/>
<polygon fill="#63b8ff" stroke="#63b8ff" points="3210.16,-85.28 3219.08,-79.56 3208.54,-78.46 3210.16,-85.28"/>
</a>
</g>
</g>
<!-- Node24 -->
<g id="Node000024" class="node">
<title>Node24</title>
<g id="a_Node000024"><a xlink:title=" ">
<polygon fill="#e0e0e0" stroke="#999999" points="1879,-85 1736,-85 1736,-55 1879,-55 1879,-85"/>
<text text-anchor="start" x="1744" y="-73" font-family="Helvetica,sans-Serif" font-size="10.00">QtHttpServer/QHttpServer</text>
<text text-anchor="middle" x="1807.5" y="-62" font-family="Helvetica,sans-Serif" font-size="10.00">Request</text>
</a>
</g>
</g>
<!-- Node20&#45;&gt;Node24 -->
<g id="edge31_Node000020_Node000024" class="edge">
<title>Node20&#45;&gt;Node24</title>
<g id="a_edge31_Node000020_Node000024"><a xlink:title=" ">
<path fill="none" stroke="#63b8ff" d="M2133.24,-121.18C2073.83,-112.88 1980.19,-99.5 1888.99,-85.05"/>
<polygon fill="#63b8ff" stroke="#63b8ff" points="1889.46,-81.58 1879.04,-83.47 1888.36,-88.5 1889.46,-81.58"/>
</a>
</g>
</g>
<!-- Node25 -->
<g id="Node000025" class="node">
<title>Node25</title>
<g id="a_Node000025"><a xlink:title=" ">
<polygon fill="#e0e0e0" stroke="#999999" points="2040,-85 1897,-85 1897,-55 2040,-55 2040,-85"/>
<text text-anchor="start" x="1905" y="-73" font-family="Helvetica,sans-Serif" font-size="10.00">QtHttpServer/QHttpServer</text>
<text text-anchor="middle" x="1968.5" y="-62" font-family="Helvetica,sans-Serif" font-size="10.00">Responder</text>
</a>
</g>
</g>
<!-- Node20&#45;&gt;Node25 -->
<g id="edge32_Node000020_Node000025" class="edge">
<title>Node20&#45;&gt;Node25</title>
<g id="a_edge32_Node000020_Node000025"><a xlink:title=" ">
<path fill="none" stroke="#63b8ff" d="M2160.78,-120.99C2127.27,-112.28 2074.3,-98.51 2032.43,-87.62"/>
<polygon fill="#63b8ff" stroke="#63b8ff" points="2033.15,-84.19 2022.59,-85.06 2031.39,-90.97 2033.15,-84.19"/>
</a>
</g>
</g>
<!-- Node26 -->
<g id="Node000026" class="node">
<title>Node26</title>
<g id="a_Node000026"><a xlink:title=" ">
<polygon fill="#e0e0e0" stroke="#999999" points="2177,-79.5 2058,-79.5 2058,-60.5 2177,-60.5 2177,-79.5"/>
<text text-anchor="middle" x="2117.5" y="-67.5" font-family="Helvetica,sans-Serif" font-size="10.00">QtNetwork/QHttpPart</text>
</a>
</g>
</g>
<!-- Node20&#45;&gt;Node26 -->
<g id="edge33_Node000020_Node000026" class="edge">
<title>Node20&#45;&gt;Node26</title>
<g id="a_edge33_Node000020_Node000026"><a xlink:title=" ">
<path fill="none" stroke="#63b8ff" d="M2182.29,-120.87C2170.39,-111.71 2151.36,-97.06 2136.99,-86.01"/>
<polygon fill="#63b8ff" stroke="#63b8ff" points="2138.82,-82.99 2128.76,-79.67 2134.55,-88.54 2138.82,-82.99"/>
</a>
</g>
</g>
<!-- Node27 -->
<g id="Node000027" class="node">
<title>Node27</title>
<g id="a_Node000027"><a xlink:title=" ">
<polygon fill="#e0e0e0" stroke="#999999" points="2344,-79.5 2195,-79.5 2195,-60.5 2344,-60.5 2344,-79.5"/>
<text text-anchor="middle" x="2269.5" y="-67.5" font-family="Helvetica,sans-Serif" font-size="10.00">QtNetwork/QNetworkReply</text>
</a>
</g>
</g>
<!-- Node20&#45;&gt;Node27 -->
<g id="edge34_Node000020_Node000027" class="edge">
<title>Node20&#45;&gt;Node27</title>
<g id="a_edge34_Node000020_Node000027"><a xlink:title=" ">
<path fill="none" stroke="#63b8ff" d="M2204.71,-120.87C2216.61,-111.71 2235.64,-97.06 2250.01,-86.01"/>
<polygon fill="#63b8ff" stroke="#63b8ff" points="2252.45,-88.54 2258.24,-79.67 2248.18,-82.99 2252.45,-88.54"/>
</a>
</g>
</g>
<!-- Node28 -->
<g id="Node000028" class="node">
<title>Node28</title>
<g id="a_Node000028"><a xlink:title=" ">
<polygon fill="#e0e0e0" stroke="#999999" points="2523,-79.5 2362,-79.5 2362,-60.5 2523,-60.5 2523,-79.5"/>
<text text-anchor="middle" x="2442.5" y="-67.5" font-family="Helvetica,sans-Serif" font-size="10.00">QtNetwork/QNetworkRequest</text>
</a>
</g>
</g>
<!-- Node20&#45;&gt;Node28 -->
<g id="edge35_Node000020_Node000028" class="edge">
<title>Node20&#45;&gt;Node28</title>
<g id="a_edge35_Node000020_Node000028"><a xlink:title=" ">
<path fill="none" stroke="#63b8ff" d="M2229.71,-120.99C2273.78,-110.64 2348.27,-93.14 2396.4,-81.83"/>
<polygon fill="#63b8ff" stroke="#63b8ff" points="2397.32,-85.21 2406.25,-79.52 2395.71,-78.4 2397.32,-85.21"/>
</a>
</g>
</g>
<!-- Node29 -->
<g id="Node000029" class="node">
<title>Node29</title>
<g id="a_Node000029"><a xlink:title=" ">
<polygon fill="#e0e0e0" stroke="#999999" points="2685.5,-79.5 2541.5,-79.5 2541.5,-60.5 2685.5,-60.5 2685.5,-79.5"/>
<text text-anchor="middle" x="2613.5" y="-67.5" font-family="Helvetica,sans-Serif" font-size="10.00">QtNetwork/QSslCertificate</text>
</a>
</g>
</g>
<!-- Node20&#45;&gt;Node29 -->
<g id="edge36_Node000020_Node000029" class="edge">
<title>Node20&#45;&gt;Node29</title>
<g id="a_edge36_Node000020_Node000029"><a xlink:title=" ">
<path fill="none" stroke="#63b8ff" d="M2253.84,-121.88C2336.38,-111.4 2480.2,-92.95 2532.5,-85 2540.14,-83.84 2548.17,-82.54 2556.08,-81.22"/>
<polygon fill="#63b8ff" stroke="#63b8ff" points="2556.73,-84.66 2566.01,-79.54 2555.57,-77.76 2556.73,-84.66"/>
</a>
</g>
</g>
<!-- Node30 -->
<g id="Node000030" class="node">
<title>Node30</title>
<g id="a_Node000030"><a xlink:title=" ">
<polygon fill="#e0e0e0" stroke="#999999" points="2863,-79.5 2704,-79.5 2704,-60.5 2863,-60.5 2863,-79.5"/>
<text text-anchor="middle" x="2783.5" y="-67.5" font-family="Helvetica,sans-Serif" font-size="10.00">QtNetwork/QSslConfiguration</text>
</a>
</g>
</g>
<!-- Node20&#45;&gt;Node30 -->
<g id="edge37_Node000020_Node000030" class="edge">
<title>Node20&#45;&gt;Node30</title>
<g id="a_edge37_Node000020_Node000030"><a xlink:title=" ">
<path fill="none" stroke="#63b8ff" d="M2253.81,-122.03C2257.09,-121.67 2260.33,-121.32 2263.5,-121 2454.72,-101.41 2503.65,-107.95 2694.5,-85 2703.84,-83.88 2713.7,-82.51 2723.32,-81.07"/>
<polygon fill="#63b8ff" stroke="#63b8ff" points="2723.87,-84.53 2733.23,-79.56 2722.81,-77.61 2723.87,-84.53"/>
</a>
</g>
</g>
<!-- Node31 -->
<g id="Node000031" class="node">
<title>Node31</title>
<g id="a_Node000031"><a xlink:title=" ">
<polygon fill="#e0e0e0" stroke="#999999" points="2992.5,-79.5 2880.5,-79.5 2880.5,-60.5 2992.5,-60.5 2992.5,-79.5"/>
<text text-anchor="middle" x="2936.5" y="-67.5" font-family="Helvetica,sans-Serif" font-size="10.00">QtNetwork/QSslKey</text>
</a>
</g>
</g>
<!-- Node20&#45;&gt;Node31 -->
<g id="edge38_Node000020_Node000031" class="edge">
<title>Node20&#45;&gt;Node31</title>
<g id="a_edge38_Node000020_Node000031"><a xlink:title=" ">
<path fill="none" stroke="#63b8ff" d="M2253.8,-121.94C2257.08,-121.6 2260.33,-121.29 2263.5,-121 2533.54,-96.65 2603.91,-122.08 2872.5,-85 2878.86,-84.12 2885.52,-82.95 2892.05,-81.66"/>
<polygon fill="#63b8ff" stroke="#63b8ff" points="2893.06,-85.02 2902.13,-79.55 2891.63,-78.17 2893.06,-85.02"/>
</a>
</g>
</g>
</g>
</svg>
