<?xml version="1.0" encoding="UTF-8" standalone="no"?>
<!DOCTYPE svg PUBLIC "-//W3C//DTD SVG 1.1//EN"
 "http://www.w3.org/Graphics/SVG/1.1/DTD/svg11.dtd">
<!-- Generated by graphviz version 2.43.0 (0)
 -->
<!-- Title: src/Terrain/TerrainQuery.h Pages: 1 -->
<svg width="863pt" height="137pt"
 viewBox="0.00 0.00 863.06 137.00" xmlns="http://www.w3.org/2000/svg" xmlns:xlink="http://www.w3.org/1999/xlink">
<g id="graph0" class="graph" transform="scale(1 1) rotate(0) translate(4 133)">
<title>src/Terrain/TerrainQuery.h</title>
<!-- Node1 -->
<g id="Node000001" class="node">
<title>Node1</title>
<g id="a_Node000001"><a xlink:title=" ">
<polygon fill="#999999" stroke="#666666" points="361.06,-129 221.06,-129 221.06,-110 361.06,-110 361.06,-129"/>
<text text-anchor="middle" x="291.06" y="-117" font-family="Helvetica,sans-Serif" font-size="10.00">src/Terrain/TerrainQuery.h</text>
</a>
</g>
</g>
<!-- Node2 -->
<g id="Node000002" class="node">
<title>Node2</title>
<g id="a_Node000002"><a xlink:title=" ">
<polygon fill="#e0e0e0" stroke="#999999" points="275.06,-19 183.06,-19 183.06,0 275.06,0 275.06,-19"/>
<text text-anchor="middle" x="229.06" y="-7" font-family="Helvetica,sans-Serif" font-size="10.00">QtCore/QObject</text>
</a>
</g>
</g>
<!-- Node1&#45;&gt;Node2 -->
<g id="edge1_Node000001_Node000002" class="edge">
<title>Node1&#45;&gt;Node2</title>
<g id="a_edge1_Node000001_Node000002"><a xlink:title=" ">
<path fill="none" stroke="#63b8ff" d="M220.83,-117.41C146.6,-114.6 36.65,-105.13 10.06,-74 -36.63,-19.34 93.12,-10.27 172.49,-9.62"/>
<polygon fill="#63b8ff" stroke="#63b8ff" points="172.87,-13.12 182.85,-9.58 172.84,-6.12 172.87,-13.12"/>
</a>
</g>
</g>
<!-- Node3 -->
<g id="Node000003" class="node">
<title>Node3</title>
<g id="a_Node000003"><a xlink:title=" ">
<polygon fill="#e0e0e0" stroke="#999999" points="114.56,-74 19.56,-74 19.56,-55 114.56,-55 114.56,-74"/>
<text text-anchor="middle" x="67.06" y="-62" font-family="Helvetica,sans-Serif" font-size="10.00">QtCore/QPointer</text>
</a>
</g>
</g>
<!-- Node1&#45;&gt;Node3 -->
<g id="edge2_Node000001_Node000003" class="edge">
<title>Node1&#45;&gt;Node3</title>
<g id="a_edge2_Node000001_Node000003"><a xlink:title=" ">
<path fill="none" stroke="#63b8ff" d="M255.07,-109.98C216.57,-100.87 155.38,-86.4 113.32,-76.45"/>
<polygon fill="#63b8ff" stroke="#63b8ff" points="113.87,-72.98 103.33,-74.08 112.26,-79.79 113.87,-72.98"/>
</a>
</g>
</g>
<!-- Node4 -->
<g id="Node000004" class="node">
<title>Node4</title>
<g id="a_Node000004"><a xlink:title=" ">
<polygon fill="#e0e0e0" stroke="#999999" points="225.06,-74 133.06,-74 133.06,-55 225.06,-55 225.06,-74"/>
<text text-anchor="middle" x="179.06" y="-62" font-family="Helvetica,sans-Serif" font-size="10.00">QtCore/QQueue</text>
</a>
</g>
</g>
<!-- Node1&#45;&gt;Node4 -->
<g id="edge3_Node000001_Node000004" class="edge">
<title>Node1&#45;&gt;Node4</title>
<g id="a_edge3_Node000001_Node000004"><a xlink:title=" ">
<path fill="none" stroke="#63b8ff" d="M273.07,-109.98C255.13,-101.5 227.35,-88.35 206.63,-78.54"/>
<polygon fill="#63b8ff" stroke="#63b8ff" points="207.92,-75.28 197.39,-74.17 204.93,-81.61 207.92,-75.28"/>
</a>
</g>
</g>
<!-- Node5 -->
<g id="Node000005" class="node">
<title>Node5</title>
<g id="a_Node000005"><a xlink:title=" ">
<polygon fill="#e0e0e0" stroke="#999999" points="338.56,-74 243.56,-74 243.56,-55 338.56,-55 338.56,-74"/>
<text text-anchor="middle" x="291.06" y="-62" font-family="Helvetica,sans-Serif" font-size="10.00">QtCore/QVariant</text>
</a>
</g>
</g>
<!-- Node1&#45;&gt;Node5 -->
<g id="edge4_Node000001_Node000005" class="edge">
<title>Node1&#45;&gt;Node5</title>
<g id="a_edge4_Node000001_Node000005"><a xlink:title=" ">
<path fill="none" stroke="#63b8ff" d="M291.06,-109.75C291.06,-102.8 291.06,-92.85 291.06,-84.13"/>
<polygon fill="#63b8ff" stroke="#63b8ff" points="294.56,-84.09 291.06,-74.09 287.56,-84.09 294.56,-84.09"/>
</a>
</g>
</g>
<!-- Node6 -->
<g id="Node000006" class="node">
<title>Node6</title>
<g id="a_Node000006"><a xlink:title=" ">
<polygon fill="#e0e0e0" stroke="#999999" points="521.56,-74 356.56,-74 356.56,-55 521.56,-55 521.56,-74"/>
<text text-anchor="middle" x="439.06" y="-62" font-family="Helvetica,sans-Serif" font-size="10.00">QtPositioning/QGeoCoordinate</text>
</a>
</g>
</g>
<!-- Node1&#45;&gt;Node6 -->
<g id="edge5_Node000001_Node000006" class="edge">
<title>Node1&#45;&gt;Node6</title>
<g id="a_edge5_Node000001_Node000006"><a xlink:title=" ">
<path fill="none" stroke="#63b8ff" d="M314.84,-109.98C339.29,-101.23 377.6,-87.51 405.21,-77.62"/>
<polygon fill="#63b8ff" stroke="#63b8ff" points="406.62,-80.84 414.85,-74.17 404.26,-74.25 406.62,-80.84"/>
</a>
</g>
</g>
<!-- Node7 -->
<g id="Node000007" class="node">
<title>Node7</title>
<g id="a_Node000007"><a xlink:href="TerrainPathHeightInfo_8h.html" target="_top" xlink:title=" ">
<polygon fill="white" stroke="#666666" points="819.56,-74 688.56,-74 688.56,-55 819.56,-55 819.56,-74"/>
<text text-anchor="middle" x="754.06" y="-62" font-family="Helvetica,sans-Serif" font-size="10.00">TerrainPathHeightInfo.h</text>
</a>
</g>
</g>
<!-- Node1&#45;&gt;Node7 -->
<g id="edge6_Node000001_Node000007" class="edge">
<title>Node1&#45;&gt;Node7</title>
<g id="a_edge6_Node000001_Node000007"><a xlink:title=" ">
<path fill="none" stroke="#63b8ff" d="M361.34,-110.47C437.04,-101.82 561.35,-87.61 678.11,-74.22"/>
<polygon fill="#63b8ff" stroke="#63b8ff" points="678.76,-77.67 688.3,-73.06 677.96,-70.72 678.76,-77.67"/>
</a>
</g>
</g>
<!-- Node10 -->
<g id="Node000010" class="node">
<title>Node10</title>
<g id="a_Node000010"><a xlink:href="TerrainQueryInterface_8h.html" target="_top" xlink:title=" ">
<polygon fill="white" stroke="#666666" points="670.56,-74 539.56,-74 539.56,-55 670.56,-55 670.56,-74"/>
<text text-anchor="middle" x="605.06" y="-62" font-family="Helvetica,sans-Serif" font-size="10.00">TerrainQueryInterface.h</text>
</a>
</g>
</g>
<!-- Node1&#45;&gt;Node10 -->
<g id="edge9_Node000001_Node000010" class="edge">
<title>Node1&#45;&gt;Node10</title>
<g id="a_edge9_Node000001_Node000010"><a xlink:title=" ">
<path fill="none" stroke="#63b8ff" d="M341.51,-109.98C396.82,-100.65 485.54,-85.67 544.55,-75.71"/>
<polygon fill="#63b8ff" stroke="#63b8ff" points="545.2,-79.15 554.48,-74.04 544.04,-72.25 545.2,-79.15"/>
</a>
</g>
</g>
<!-- Node8 -->
<g id="Node000008" class="node">
<title>Node8</title>
<g id="a_Node000008"><a xlink:title=" ">
<polygon fill="#e0e0e0" stroke="#999999" points="729.06,-19 651.06,-19 651.06,0 729.06,0 729.06,-19"/>
<text text-anchor="middle" x="690.06" y="-7" font-family="Helvetica,sans-Serif" font-size="10.00">QtCore/QList</text>
</a>
</g>
</g>
<!-- Node7&#45;&gt;Node8 -->
<g id="edge7_Node000007_Node000008" class="edge">
<title>Node7&#45;&gt;Node8</title>
<g id="a_edge7_Node000007_Node000008"><a xlink:title=" ">
<path fill="none" stroke="#63b8ff" d="M743.78,-54.98C734.23,-47.07 719.78,-35.11 708.28,-25.58"/>
<polygon fill="#63b8ff" stroke="#63b8ff" points="710.47,-22.85 700.53,-19.17 706,-28.24 710.47,-22.85"/>
</a>
</g>
</g>
<!-- Node9 -->
<g id="Node000009" class="node">
<title>Node9</title>
<g id="a_Node000009"><a xlink:title=" ">
<polygon fill="#e0e0e0" stroke="#999999" points="855.06,-19 747.06,-19 747.06,0 855.06,0 855.06,-19"/>
<text text-anchor="middle" x="801.06" y="-7" font-family="Helvetica,sans-Serif" font-size="10.00">QtCore/QMetaType</text>
</a>
</g>
</g>
<!-- Node7&#45;&gt;Node9 -->
<g id="edge8_Node000007_Node000009" class="edge">
<title>Node7&#45;&gt;Node9</title>
<g id="a_edge8_Node000007_Node000009"><a xlink:title=" ">
<path fill="none" stroke="#63b8ff" d="M761.82,-54.75C768.53,-47.18 778.4,-36.05 786.57,-26.84"/>
<polygon fill="#63b8ff" stroke="#63b8ff" points="789.43,-28.89 793.45,-19.09 784.19,-24.25 789.43,-28.89"/>
</a>
</g>
</g>
<!-- Node10&#45;&gt;Node2 -->
<g id="edge11_Node000010_Node000002" class="edge">
<title>Node10&#45;&gt;Node2</title>
<g id="a_edge11_Node000010_Node000002"><a xlink:title=" ">
<path fill="none" stroke="#63b8ff" d="M544.65,-54.98C473.03,-44.89 354.62,-28.2 285.01,-18.39"/>
<polygon fill="#63b8ff" stroke="#63b8ff" points="285.49,-14.92 275.1,-16.99 284.52,-21.85 285.49,-14.92"/>
</a>
</g>
</g>
<!-- Node10&#45;&gt;Node8 -->
<g id="edge10_Node000010_Node000008" class="edge">
<title>Node10&#45;&gt;Node8</title>
<g id="a_edge10_Node000010_Node000008"><a xlink:title=" ">
<path fill="none" stroke="#63b8ff" d="M618.72,-54.98C631.9,-46.77 652.09,-34.18 667.63,-24.49"/>
<polygon fill="#63b8ff" stroke="#63b8ff" points="669.52,-27.43 676.16,-19.17 665.82,-21.49 669.52,-27.43"/>
</a>
</g>
</g>
<!-- Node11 -->
<g id="Node000011" class="node">
<title>Node11</title>
<g id="a_Node000011"><a xlink:title=" ">
<polygon fill="#e0e0e0" stroke="#999999" points="632.56,-19 483.56,-19 483.56,0 632.56,0 632.56,-19"/>
<text text-anchor="middle" x="558.06" y="-7" font-family="Helvetica,sans-Serif" font-size="10.00">QtNetwork/QNetworkReply</text>
</a>
</g>
</g>
<!-- Node10&#45;&gt;Node11 -->
<g id="edge12_Node000010_Node000011" class="edge">
<title>Node10&#45;&gt;Node11</title>
<g id="a_edge12_Node000010_Node000011"><a xlink:title=" ">
<path fill="none" stroke="#63b8ff" d="M597.3,-54.75C590.59,-47.18 580.72,-36.05 572.56,-26.84"/>
<polygon fill="#63b8ff" stroke="#63b8ff" points="574.93,-24.25 565.68,-19.09 569.7,-28.89 574.93,-24.25"/>
</a>
</g>
</g>
</g>
</svg>
