<?xml version="1.0" encoding="UTF-8" standalone="no"?>
<!DOCTYPE svg PUBLIC "-//W3C//DTD SVG 1.1//EN"
 "http://www.w3.org/Graphics/SVG/1.1/DTD/svg11.dtd">
<!-- Generated by graphviz version 2.43.0 (0)
 -->
<!-- Title: src/Terrain/TerrainPathHeightInfo.h Pages: 1 -->
<!--zoomable 368 -->

<svg id="main" version="1.1" xmlns="http://www.w3.org/2000/svg" xmlns:xlink="http://www.w3.org/1999/xlink" xml:space="preserve" onload="init(evt)">
<style type="text/css"><![CDATA[
.node, .edge {opacity: 0.7;}
.node.selected, .edge.selected {opacity: 1;}
.edge:hover path { stroke: red; }
.edge:hover polygon { stroke: red; fill: red; }
]]></style>

<defs>
  <circle id="rim" cx="0" cy="0" r="7"/>
  <circle id="rim2" cx="0" cy="0" r="3.5"/>
  <g id="zoomPlus">
    <use xlink:href="#rim" fill="#404040"><set attributeName="fill" to="#808080" begin="zoomplus.mouseover" end="zoomplus.mouseout"/></use>
    <path d="M-4,0h8M0,-4v8" fill="none" stroke="white" stroke-width="1.5" pointer-events="none"/>
  </g>
  <g id="zoomMin">
    <use xlink:href="#rim" fill="#404040"><set attributeName="fill" to="#808080" begin="zoomminus.mouseover" end="zoomminus.mouseout"/></use>
    <path d="M-4,0h8" fill="none" stroke="white" stroke-width="1.5" pointer-events="none"/>
  </g>
  <g id="arrowUp" transform="translate(30 24)">
    <use xlink:href="#rim"/>
    <path pointer-events="none" fill="none" stroke="white" stroke-width="1.5" d="M0,-3.0v7 M-2.5,-0.5L0,-3.0L2.5,-0.5"/>
  </g>
  <g id="arrowRight" transform="rotate(90) translate(36 -43)">
    <use xlink:href="#rim"/>
    <path pointer-events="none" fill="none" stroke="white" stroke-width="1.5" d="M0,-3.0v7 M-2.5,-0.5L0,-3.0L2.5,-0.5"/>
  </g>
  <g id="arrowDown" transform="rotate(180) translate(-30 -48)">
    <use xlink:href="#rim"/>
    <path pointer-events="none" fill="none" stroke="white" stroke-width="1.5" d="M0,-3.0v7 M-2.5,-0.5L0,-3.0L2.5,-0.5"/>
  </g>
  <g id="arrowLeft" transform="rotate(270) translate(-36 17)">
    <use xlink:href="#rim"/>
    <path pointer-events="none" fill="none" stroke="white" stroke-width="1.5" d="M0,-3.0v7 M-2.5,-0.5L0,-3.0L2.5,-0.5"/>
  </g>
  <g id="resetDef">
    <use xlink:href="#rim2" fill="#404040"><set attributeName="fill" to="#808080" begin="reset.mouseover" end="reset.mouseout"/></use>
  </g>
</defs>
<script type="application/ecmascript">
var viewWidth = 2575;
var viewHeight = 368;
var sectionId = 'dynsection-1';
</script>
<script type="application/ecmascript" xlink:href="svg.min.js"/>
<svg id="graph" class="graph">
<g id="viewport">
<title>src/Terrain/TerrainPathHeightInfo.h</title>
<!-- Node1 -->
<g id="Node000001" class="node">
<title>Node1</title>
<g id="a_Node000001"><a xlink:title=" ">
<polygon fill="#999999" stroke="#666666" points="1790.5,-360 1634.5,-360 1634.5,-330 1790.5,-330 1790.5,-360"/>
<text text-anchor="start" x="1642.5" y="-348" font-family="Helvetica,sans-Serif" font-size="10.00">src/Terrain/TerrainPathHeight</text>
<text text-anchor="middle" x="1712.5" y="-337" font-family="Helvetica,sans-Serif" font-size="10.00">Info.h</text>
</a>
</g>
</g>
<!-- Node2 -->
<g id="Node000002" class="node">
<title>Node2</title>
<g id="a_Node000002"><a xlink:href="FlightPathSegment_8h.html" target="_top" xlink:title=" ">
<polygon fill="white" stroke="#666666" points="1536.5,-294 1390.5,-294 1390.5,-264 1536.5,-264 1536.5,-294"/>
<text text-anchor="start" x="1398.5" y="-282" font-family="Helvetica,sans-Serif" font-size="10.00">src/QmlControls/FlightPath</text>
<text text-anchor="middle" x="1463.5" y="-271" font-family="Helvetica,sans-Serif" font-size="10.00">Segment.h</text>
</a>
</g>
</g>
<!-- Node1&#45;&gt;Node2 -->
<g id="edge1_Node000001_Node000002" class="edge">
<title>Node1&#45;&gt;Node2</title>
<g id="a_edge1_Node000001_Node000002"><a xlink:title=" ">
<path fill="none" stroke="#63b8ff" d="M1648.12,-327.45C1607.77,-317.08 1556.34,-303.86 1518.02,-294.01"/>
<polygon fill="#63b8ff" stroke="#63b8ff" points="1647.3,-330.86 1657.86,-329.95 1649.04,-324.08 1647.3,-330.86"/>
</a>
</g>
</g>
<!-- Node30 -->
<g id="Node000030" class="node">
<title>Node30</title>
<g id="a_Node000030"><a xlink:href="TerrainQuery_8h.html" target="_top" xlink:title=" ">
<polygon fill="white" stroke="#666666" points="2160.5,-288.5 2020.5,-288.5 2020.5,-269.5 2160.5,-269.5 2160.5,-288.5"/>
<text text-anchor="middle" x="2090.5" y="-276.5" font-family="Helvetica,sans-Serif" font-size="10.00">src/Terrain/TerrainQuery.h</text>
</a>
</g>
</g>
<!-- Node1&#45;&gt;Node30 -->
<g id="edge42_Node000001_Node000030" class="edge">
<title>Node1&#45;&gt;Node30</title>
<g id="a_edge42_Node000001_Node000030"><a xlink:title=" ">
<path fill="none" stroke="#63b8ff" d="M1801.13,-328.99C1875.61,-316.38 1979.38,-298.81 2040.29,-288.5"/>
<polygon fill="#63b8ff" stroke="#63b8ff" points="1800.1,-325.62 1790.82,-330.74 1801.27,-332.52 1800.1,-325.62"/>
</a>
</g>
</g>
<!-- Node3 -->
<g id="Node000003" class="node">
<title>Node3</title>
<g id="a_Node000003"><a xlink:href="ComplexMissionItem_8cc.html" target="_top" xlink:title=" ">
<polygon fill="white" stroke="#666666" points="490,-162 353,-162 353,-132 490,-132 490,-162"/>
<text text-anchor="start" x="361" y="-150" font-family="Helvetica,sans-Serif" font-size="10.00">src/MissionManager</text>
<text text-anchor="middle" x="421.5" y="-139" font-family="Helvetica,sans-Serif" font-size="10.00">/ComplexMissionItem.cc</text>
</a>
</g>
</g>
<!-- Node2&#45;&gt;Node3 -->
<g id="edge2_Node000002_Node000003" class="edge">
<title>Node2&#45;&gt;Node3</title>
<g id="a_edge2_Node000002_Node000003"><a xlink:title=" ">
<path fill="none" stroke="#63b8ff" d="M1380.29,-273.45C1265,-266.59 1050.34,-251.81 868.5,-228 702.87,-206.32 662.9,-191.61 498.5,-162 495.83,-161.52 493.1,-161.03 490.34,-160.53"/>
<polygon fill="#63b8ff" stroke="#63b8ff" points="1380.26,-276.95 1390.45,-274.05 1380.67,-269.97 1380.26,-276.95"/>
</a>
</g>
</g>
<!-- Node4 -->
<g id="Node000004" class="node">
<title>Node4</title>
<g id="a_Node000004"><a xlink:href="ComplexMissionItem_8h.html" target="_top" xlink:title=" ">
<polygon fill="white" stroke="#666666" points="1009.5,-228 877.5,-228 877.5,-198 1009.5,-198 1009.5,-228"/>
<text text-anchor="start" x="885.5" y="-216" font-family="Helvetica,sans-Serif" font-size="10.00">src/MissionManager</text>
<text text-anchor="middle" x="943.5" y="-205" font-family="Helvetica,sans-Serif" font-size="10.00">/ComplexMissionItem.h</text>
</a>
</g>
</g>
<!-- Node2&#45;&gt;Node4 -->
<g id="edge3_Node000002_Node000004" class="edge">
<title>Node2&#45;&gt;Node4</title>
<g id="a_edge3_Node000002_Node000004"><a xlink:title=" ">
<path fill="none" stroke="#63b8ff" d="M1380.33,-267.76C1277.34,-255.09 1104.01,-233.75 1009.61,-222.14"/>
<polygon fill="#63b8ff" stroke="#63b8ff" points="1380.02,-271.25 1390.37,-269 1380.88,-264.3 1380.02,-271.25"/>
</a>
</g>
</g>
<!-- Node8 -->
<g id="Node000008" class="node">
<title>Node8</title>
<g id="a_Node000008"><a xlink:href="FixedWingLandingComplexItem_8cc.html" target="_top" xlink:title=" ">
<polygon fill="white" stroke="#666666" points="404.5,-30 216.5,-30 216.5,0 404.5,0 404.5,-30"/>
<text text-anchor="start" x="224.5" y="-18" font-family="Helvetica,sans-Serif" font-size="10.00">src/MissionManager</text>
<text text-anchor="middle" x="310.5" y="-7" font-family="Helvetica,sans-Serif" font-size="10.00">/FixedWingLandingComplexItem.cc</text>
</a>
</g>
</g>
<!-- Node2&#45;&gt;Node8 -->
<g id="edge35_Node000002_Node000008" class="edge">
<title>Node2&#45;&gt;Node8</title>
<g id="a_edge35_Node000002_Node000008"><a xlink:title=" ">
<path fill="none" stroke="#63b8ff" d="M1380.27,-276.1C1237.56,-272.08 937.22,-260.25 685.5,-228 531.95,-208.33 494.25,-197.22 343.5,-162 235.77,-136.83 170.56,-183.99 103.5,-96 95.42,-85.4 95.25,-76.48 103.5,-66 117.96,-47.63 168.68,-35.2 216.28,-27.33"/>
<polygon fill="#63b8ff" stroke="#63b8ff" points="1380.17,-279.6 1390.27,-276.38 1380.37,-272.6 1380.17,-279.6"/>
</a>
</g>
</g>
<!-- Node9 -->
<g id="Node000009" class="node">
<title>Node9</title>
<g id="a_Node000009"><a xlink:href="MissionController_8cc.html" target="_top" xlink:title=" ">
<polygon fill="white" stroke="#666666" points="1246.5,-30 1128.5,-30 1128.5,0 1246.5,0 1246.5,-30"/>
<text text-anchor="start" x="1136.5" y="-18" font-family="Helvetica,sans-Serif" font-size="10.00">src/MissionManager</text>
<text text-anchor="middle" x="1187.5" y="-7" font-family="Helvetica,sans-Serif" font-size="10.00">/MissionController.cc</text>
</a>
</g>
</g>
<!-- Node2&#45;&gt;Node9 -->
<g id="edge36_Node000002_Node000009" class="edge">
<title>Node2&#45;&gt;Node9</title>
<g id="a_edge36_Node000002_Node000009"><a xlink:title=" ">
<path fill="none" stroke="#63b8ff" d="M1488.17,-257.15C1533.3,-216.58 1619.9,-125.75 1567.5,-66 1546.71,-42.3 1348.48,-26.29 1246.9,-19.57"/>
<polygon fill="#63b8ff" stroke="#63b8ff" points="1485.71,-254.66 1480.53,-263.9 1490.34,-259.9 1485.71,-254.66"/>
</a>
</g>
</g>
<!-- Node12 -->
<g id="Node000012" class="node">
<title>Node12</title>
<g id="a_Node000012"><a xlink:href="VTOLLandingComplexItem_8cc.html" target="_top" xlink:title=" ">
<polygon fill="white" stroke="#666666" points="163,-30 0,-30 0,0 163,0 163,-30"/>
<text text-anchor="start" x="8" y="-18" font-family="Helvetica,sans-Serif" font-size="10.00">src/MissionManager</text>
<text text-anchor="middle" x="81.5" y="-7" font-family="Helvetica,sans-Serif" font-size="10.00">/VTOLLandingComplexItem.cc</text>
</a>
</g>
</g>
<!-- Node2&#45;&gt;Node12 -->
<g id="edge39_Node000002_Node000012" class="edge">
<title>Node2&#45;&gt;Node12</title>
<g id="a_edge39_Node000002_Node000012"><a xlink:title=" ">
<path fill="none" stroke="#63b8ff" d="M1379.97,-277.33C1212.17,-275.17 822.4,-266.11 497.5,-228 336.38,-209.1 274.46,-250.51 138.5,-162 108.75,-142.63 106.46,-129.05 93.5,-96 84.89,-74.03 82.41,-46.45 81.73,-30.07"/>
<polygon fill="#63b8ff" stroke="#63b8ff" points="1380.17,-280.83 1390.22,-277.45 1380.26,-273.83 1380.17,-280.83"/>
</a>
</g>
</g>
<!-- Node18 -->
<g id="Node000018" class="node">
<title>Node18</title>
<g id="a_Node000018"><a xlink:href="StructureScanComplexItem_8cc.html" target="_top" xlink:title=" ">
<polygon fill="white" stroke="#666666" points="1558,-96 1391,-96 1391,-66 1558,-66 1558,-96"/>
<text text-anchor="start" x="1399" y="-84" font-family="Helvetica,sans-Serif" font-size="10.00">src/MissionManager</text>
<text text-anchor="middle" x="1474.5" y="-73" font-family="Helvetica,sans-Serif" font-size="10.00">/StructureScanComplexItem.cc</text>
</a>
</g>
</g>
<!-- Node2&#45;&gt;Node18 -->
<g id="edge37_Node000002_Node000018" class="edge">
<title>Node2&#45;&gt;Node18</title>
<g id="a_edge37_Node000002_Node000018"><a xlink:title=" ">
<path fill="none" stroke="#63b8ff" d="M1464.85,-253.89C1467.17,-212.58 1471.84,-129.48 1473.7,-96.23"/>
<polygon fill="#63b8ff" stroke="#63b8ff" points="1461.36,-253.72 1464.29,-263.9 1468.35,-254.12 1461.36,-253.72"/>
</a>
</g>
</g>
<!-- Node27 -->
<g id="Node000027" class="node">
<title>Node27</title>
<g id="a_Node000027"><a xlink:href="TransectStyleComplexItem_8cc.html" target="_top" xlink:title=" ">
<polygon fill="white" stroke="#666666" points="1777.5,-96 1613.5,-96 1613.5,-66 1777.5,-66 1777.5,-96"/>
<text text-anchor="start" x="1621.5" y="-84" font-family="Helvetica,sans-Serif" font-size="10.00">src/MissionManager</text>
<text text-anchor="middle" x="1695.5" y="-73" font-family="Helvetica,sans-Serif" font-size="10.00">/TransectStyleComplexItem.cc</text>
</a>
</g>
</g>
<!-- Node2&#45;&gt;Node27 -->
<g id="edge38_Node000002_Node000027" class="edge">
<title>Node2&#45;&gt;Node27</title>
<g id="a_edge38_Node000002_Node000027"><a xlink:title=" ">
<path fill="none" stroke="#63b8ff" d="M1513.02,-260.08C1532.02,-251.91 1553.25,-241.11 1570.5,-228 1622.3,-188.63 1667.71,-124.52 1686.41,-96.21"/>
<polygon fill="#63b8ff" stroke="#63b8ff" points="1511.51,-256.92 1503.62,-264 1514.2,-263.39 1511.51,-256.92"/>
</a>
</g>
</g>
<!-- Node28 -->
<g id="Node000028" class="node">
<title>Node28</title>
<g id="a_Node000028"><a xlink:href="TerrainProfile_8cc.html" target="_top" xlink:title=" ">
<polygon fill="white" stroke="#666666" points="1454,-156.5 1279,-156.5 1279,-137.5 1454,-137.5 1454,-156.5"/>
<text text-anchor="middle" x="1366.5" y="-144.5" font-family="Helvetica,sans-Serif" font-size="10.00">src/QmlControls/TerrainProfile.cc</text>
</a>
</g>
</g>
<!-- Node2&#45;&gt;Node28 -->
<g id="edge41_Node000002_Node000028" class="edge">
<title>Node2&#45;&gt;Node28</title>
<g id="a_edge41_Node000002_Node000028"><a xlink:title=" ">
<path fill="none" stroke="#63b8ff" d="M1446.7,-255.49C1424.92,-226.29 1387.94,-176.74 1373.03,-156.75"/>
<polygon fill="#63b8ff" stroke="#63b8ff" points="1444.15,-257.92 1452.93,-263.84 1449.76,-253.73 1444.15,-257.92"/>
</a>
</g>
</g>
<!-- Node29 -->
<g id="Node000029" class="node">
<title>Node29</title>
<g id="a_Node000029"><a xlink:href="FlightPathSegment_8cc.html" target="_top" xlink:title=" ">
<polygon fill="white" stroke="#666666" points="1768.5,-228 1622.5,-228 1622.5,-198 1768.5,-198 1768.5,-228"/>
<text text-anchor="start" x="1630.5" y="-216" font-family="Helvetica,sans-Serif" font-size="10.00">src/QmlControls/FlightPath</text>
<text text-anchor="middle" x="1695.5" y="-205" font-family="Helvetica,sans-Serif" font-size="10.00">Segment.cc</text>
</a>
</g>
</g>
<!-- Node2&#45;&gt;Node29 -->
<g id="edge40_Node000002_Node000029" class="edge">
<title>Node2&#45;&gt;Node29</title>
<g id="a_edge40_Node000002_Node000029"><a xlink:title=" ">
<path fill="none" stroke="#63b8ff" d="M1524.21,-261.25C1561.69,-250.91 1609.22,-237.8 1644.71,-228.01"/>
<polygon fill="#63b8ff" stroke="#63b8ff" points="1523.12,-257.92 1514.41,-263.95 1524.98,-264.67 1523.12,-257.92"/>
</a>
</g>
</g>
<!-- Node4&#45;&gt;Node3 -->
<g id="edge4_Node000004_Node000003" class="edge">
<title>Node4&#45;&gt;Node3</title>
<g id="a_edge4_Node000004_Node000003"><a xlink:title=" ">
<path fill="none" stroke="#63b8ff" d="M867.37,-205.03C778.6,-196.54 627.55,-180.96 498.5,-162 495.81,-161.61 493.07,-161.19 490.31,-160.75"/>
<polygon fill="#63b8ff" stroke="#63b8ff" points="867.06,-208.52 877.35,-205.98 867.72,-201.55 867.06,-208.52"/>
</a>
</g>
</g>
<!-- Node5 -->
<g id="Node000005" class="node">
<title>Node5</title>
<g id="a_Node000005"><a xlink:href="KMLPlanDomDocument_8cc.html" target="_top" xlink:title=" ">
<polygon fill="white" stroke="#666666" points="824,-162 675,-162 675,-132 824,-132 824,-162"/>
<text text-anchor="start" x="683" y="-150" font-family="Helvetica,sans-Serif" font-size="10.00">src/MissionManager</text>
<text text-anchor="middle" x="749.5" y="-139" font-family="Helvetica,sans-Serif" font-size="10.00">/KMLPlanDomDocument.cc</text>
</a>
</g>
</g>
<!-- Node4&#45;&gt;Node5 -->
<g id="edge5_Node000004_Node000005" class="edge">
<title>Node4&#45;&gt;Node5</title>
<g id="a_edge5_Node000004_Node000005"><a xlink:title=" ">
<path fill="none" stroke="#63b8ff" d="M891.13,-194.72C860.04,-184.47 821.14,-171.63 791.97,-162.01"/>
<polygon fill="#63b8ff" stroke="#63b8ff" points="890.33,-198.15 900.93,-197.95 892.53,-191.5 890.33,-198.15"/>
</a>
</g>
</g>
<!-- Node6 -->
<g id="Node000006" class="node">
<title>Node6</title>
<g id="a_Node000006"><a xlink:href="LandingComplexItem_8h.html" target="_top" xlink:title=" ">
<polygon fill="white" stroke="#666666" points="641,-162 508,-162 508,-132 641,-132 641,-162"/>
<text text-anchor="start" x="516" y="-150" font-family="Helvetica,sans-Serif" font-size="10.00">src/MissionManager</text>
<text text-anchor="middle" x="574.5" y="-139" font-family="Helvetica,sans-Serif" font-size="10.00">/LandingComplexItem.h</text>
</a>
</g>
</g>
<!-- Node4&#45;&gt;Node6 -->
<g id="edge6_Node000004_Node000006" class="edge">
<title>Node4&#45;&gt;Node6</title>
<g id="a_edge6_Node000004_Node000006"><a xlink:title=" ">
<path fill="none" stroke="#63b8ff" d="M867.09,-198.75C800.49,-187.2 704.88,-170.61 641.3,-159.59"/>
<polygon fill="#63b8ff" stroke="#63b8ff" points="866.65,-202.22 877.1,-200.48 867.85,-195.33 866.65,-202.22"/>
</a>
</g>
</g>
<!-- Node13 -->
<g id="Node000013" class="node">
<title>Node13</title>
<g id="a_Node000013"><a xlink:href="MissionFlightStatusCalculator_8cc.html" target="_top" xlink:title=" ">
<polygon fill="white" stroke="#666666" points="823.5,-96 645.5,-96 645.5,-66 823.5,-66 823.5,-96"/>
<text text-anchor="start" x="653.5" y="-84" font-family="Helvetica,sans-Serif" font-size="10.00">src/MissionManager</text>
<text text-anchor="middle" x="734.5" y="-73" font-family="Helvetica,sans-Serif" font-size="10.00">/MissionFlightStatusCalculator.cc</text>
</a>
</g>
</g>
<!-- Node4&#45;&gt;Node13 -->
<g id="edge14_Node000004_Node000013" class="edge">
<title>Node4&#45;&gt;Node13</title>
<g id="a_edge14_Node000004_Node000013"><a xlink:title=" ">
<path fill="none" stroke="#63b8ff" d="M913.77,-192.31C900.4,-183.28 884.51,-172.31 870.5,-162 853.17,-149.25 850.62,-143.61 832.5,-132 811.11,-118.29 785.5,-105.33 765.82,-96.04"/>
<polygon fill="#63b8ff" stroke="#63b8ff" points="911.9,-195.26 922.15,-197.93 915.8,-189.45 911.9,-195.26"/>
</a>
</g>
</g>
<!-- Node14 -->
<g id="Node000014" class="node">
<title>Node14</title>
<g id="a_Node000014"><a xlink:href="MissionSettingsItem_8h.html" target="_top" xlink:title=" ">
<polygon fill="white" stroke="#666666" points="1007.5,-162 879.5,-162 879.5,-132 1007.5,-132 1007.5,-162"/>
<text text-anchor="start" x="887.5" y="-150" font-family="Helvetica,sans-Serif" font-size="10.00">src/MissionManager</text>
<text text-anchor="middle" x="943.5" y="-139" font-family="Helvetica,sans-Serif" font-size="10.00">/MissionSettingsItem.h</text>
</a>
</g>
</g>
<!-- Node4&#45;&gt;Node14 -->
<g id="edge15_Node000004_Node000014" class="edge">
<title>Node4&#45;&gt;Node14</title>
<g id="a_edge15_Node000004_Node000014"><a xlink:title=" ">
<path fill="none" stroke="#63b8ff" d="M943.5,-187.54C943.5,-178.96 943.5,-169.61 943.5,-162.16"/>
<polygon fill="#63b8ff" stroke="#63b8ff" points="940,-187.8 943.5,-197.8 947,-187.8 940,-187.8"/>
</a>
</g>
</g>
<!-- Node17 -->
<g id="Node000017" class="node">
<title>Node17</title>
<g id="a_Node000017"><a xlink:href="StructureScanComplexItem_8h.html" target="_top" xlink:title=" ">
<polygon fill="white" stroke="#666666" points="1260.5,-162 1098.5,-162 1098.5,-132 1260.5,-132 1260.5,-162"/>
<text text-anchor="start" x="1106.5" y="-150" font-family="Helvetica,sans-Serif" font-size="10.00">src/MissionManager</text>
<text text-anchor="middle" x="1179.5" y="-139" font-family="Helvetica,sans-Serif" font-size="10.00">/StructureScanComplexItem.h</text>
</a>
</g>
</g>
<!-- Node4&#45;&gt;Node17 -->
<g id="edge20_Node000004_Node000017" class="edge">
<title>Node4&#45;&gt;Node17</title>
<g id="a_edge20_Node000004_Node000017"><a xlink:title=" ">
<path fill="none" stroke="#63b8ff" d="M1005.25,-195.25C1043.38,-184.91 1091.74,-171.8 1127.83,-162.01"/>
<polygon fill="#63b8ff" stroke="#63b8ff" points="1004.03,-191.96 995.29,-197.95 1005.86,-198.72 1004.03,-191.96"/>
</a>
</g>
</g>
<!-- Node20 -->
<g id="Node000020" class="node">
<title>Node20</title>
<g id="a_Node000020"><a xlink:href="TransectStyleComplexItem_8h.html" target="_top" xlink:title=" ">
<polygon fill="white" stroke="#666666" points="1939.5,-162 1779.5,-162 1779.5,-132 1939.5,-132 1939.5,-162"/>
<text text-anchor="start" x="1787.5" y="-150" font-family="Helvetica,sans-Serif" font-size="10.00">src/MissionManager</text>
<text text-anchor="middle" x="1859.5" y="-139" font-family="Helvetica,sans-Serif" font-size="10.00">/TransectStyleComplexItem.h</text>
</a>
</g>
</g>
<!-- Node4&#45;&gt;Node20 -->
<g id="edge24_Node000004_Node000020" class="edge">
<title>Node4&#45;&gt;Node20</title>
<g id="a_edge24_Node000004_Node000020"><a xlink:title=" ">
<path fill="none" stroke="#63b8ff" d="M1019.93,-206.66C1191.21,-194.69 1604.42,-165.82 1779.24,-153.61"/>
<polygon fill="#63b8ff" stroke="#63b8ff" points="1019.48,-203.18 1009.74,-207.37 1019.96,-210.17 1019.48,-203.18"/>
</a>
</g>
</g>
<!-- Node4&#45;&gt;Node28 -->
<g id="edge34_Node000004_Node000028" class="edge">
<title>Node4&#45;&gt;Node28</title>
<g id="a_edge34_Node000004_Node000028"><a xlink:title=" ">
<path fill="none" stroke="#63b8ff" d="M1019.53,-200.5C1103.04,-187.86 1235.2,-167.87 1310,-156.55"/>
<polygon fill="#63b8ff" stroke="#63b8ff" points="1018.96,-197.04 1009.59,-202 1020,-203.96 1018.96,-197.04"/>
</a>
</g>
</g>
<!-- Node7 -->
<g id="Node000007" class="node">
<title>Node7</title>
<g id="a_Node000007"><a xlink:href="FixedWingLandingComplexItem_8h.html" target="_top" xlink:title=" ">
<polygon fill="white" stroke="#666666" points="472,-96 289,-96 289,-66 472,-66 472,-96"/>
<text text-anchor="start" x="297" y="-84" font-family="Helvetica,sans-Serif" font-size="10.00">src/MissionManager</text>
<text text-anchor="middle" x="380.5" y="-73" font-family="Helvetica,sans-Serif" font-size="10.00">/FixedWingLandingComplexItem.h</text>
</a>
</g>
</g>
<!-- Node6&#45;&gt;Node7 -->
<g id="edge7_Node000006_Node000007" class="edge">
<title>Node6&#45;&gt;Node7</title>
<g id="a_edge7_Node000006_Node000007"><a xlink:title=" ">
<path fill="none" stroke="#63b8ff" d="M522.13,-128.72C491.04,-118.47 452.14,-105.63 422.97,-96.01"/>
<polygon fill="#63b8ff" stroke="#63b8ff" points="521.33,-132.15 531.93,-131.95 523.53,-125.5 521.33,-132.15"/>
</a>
</g>
</g>
<!-- Node10 -->
<g id="Node000010" class="node">
<title>Node10</title>
<g id="a_Node000010"><a xlink:href="LandingComplexItem_8cc.html" target="_top" xlink:title=" ">
<polygon fill="white" stroke="#666666" points="627,-96 490,-96 490,-66 627,-66 627,-96"/>
<text text-anchor="start" x="498" y="-84" font-family="Helvetica,sans-Serif" font-size="10.00">src/MissionManager</text>
<text text-anchor="middle" x="558.5" y="-73" font-family="Helvetica,sans-Serif" font-size="10.00">/LandingComplexItem.cc</text>
</a>
</g>
</g>
<!-- Node6&#45;&gt;Node10 -->
<g id="edge10_Node000006_Node000010" class="edge">
<title>Node6&#45;&gt;Node10</title>
<g id="a_edge10_Node000006_Node000010"><a xlink:title=" ">
<path fill="none" stroke="#63b8ff" d="M568.46,-121.83C566.29,-113.17 563.92,-103.7 562.04,-96.16"/>
<polygon fill="#63b8ff" stroke="#63b8ff" points="565.13,-122.94 570.95,-131.8 571.92,-121.25 565.13,-122.94"/>
</a>
</g>
</g>
<!-- Node11 -->
<g id="Node000011" class="node">
<title>Node11</title>
<g id="a_Node000011"><a xlink:href="VTOLLandingComplexItem_8h.html" target="_top" xlink:title=" ">
<polygon fill="white" stroke="#666666" points="270.5,-96 112.5,-96 112.5,-66 270.5,-66 270.5,-96"/>
<text text-anchor="start" x="120.5" y="-84" font-family="Helvetica,sans-Serif" font-size="10.00">src/MissionManager</text>
<text text-anchor="middle" x="191.5" y="-73" font-family="Helvetica,sans-Serif" font-size="10.00">/VTOLLandingComplexItem.h</text>
</a>
</g>
</g>
<!-- Node6&#45;&gt;Node11 -->
<g id="edge11_Node000006_Node000011" class="edge">
<title>Node6&#45;&gt;Node11</title>
<g id="a_edge11_Node000006_Node000011"><a xlink:title=" ">
<path fill="none" stroke="#63b8ff" d="M497.76,-131.9C442.82,-122.49 342.05,-106.19 270.68,-94.7"/>
<polygon fill="#63b8ff" stroke="#63b8ff" points="497.34,-135.38 507.79,-133.63 498.53,-128.48 497.34,-135.38"/>
</a>
</g>
</g>
<!-- Node7&#45;&gt;Node8 -->
<g id="edge8_Node000007_Node000008" class="edge">
<title>Node7&#45;&gt;Node8</title>
<g id="a_edge8_Node000007_Node000008"><a xlink:title=" ">
<path fill="none" stroke="#63b8ff" d="M357.45,-58.92C347.13,-49.49 335.23,-38.61 325.99,-30.16"/>
<polygon fill="#63b8ff" stroke="#63b8ff" points="355.22,-61.63 364.96,-65.8 359.95,-56.47 355.22,-61.63"/>
</a>
</g>
</g>
<!-- Node7&#45;&gt;Node9 -->
<g id="edge9_Node000007_Node000009" class="edge">
<title>Node7&#45;&gt;Node9</title>
<g id="a_edge9_Node000007_Node000009"><a xlink:title=" ">
<path fill="none" stroke="#63b8ff" d="M482.22,-65.86C727.85,-40.36 1008.29,-24.82 1128.26,-18.82"/>
<polygon fill="#63b8ff" stroke="#63b8ff" points="481.6,-62.41 472.02,-66.93 482.33,-69.37 481.6,-62.41"/>
</a>
</g>
</g>
<!-- Node11&#45;&gt;Node9 -->
<g id="edge12_Node000011_Node000009" class="edge">
<title>Node11&#45;&gt;Node9</title>
<g id="a_edge12_Node000011_Node000009"><a xlink:title=" ">
<path fill="none" stroke="#63b8ff" d="M280.71,-65.95C606.44,-31.69 984.84,-20.41 1128.37,-17.15"/>
<polygon fill="#63b8ff" stroke="#63b8ff" points="280.18,-62.49 270.6,-67.02 280.92,-69.45 280.18,-62.49"/>
</a>
</g>
</g>
<!-- Node11&#45;&gt;Node12 -->
<g id="edge13_Node000011_Node000012" class="edge">
<title>Node11&#45;&gt;Node12</title>
<g id="a_edge13_Node000011_Node000012"><a xlink:title=" ">
<path fill="none" stroke="#63b8ff" d="M158.32,-60.69C141.34,-50.82 121.05,-39.01 105.58,-30.01"/>
<polygon fill="#63b8ff" stroke="#63b8ff" points="156.96,-63.95 167.36,-65.95 160.48,-57.9 156.96,-63.95"/>
</a>
</g>
</g>
<!-- Node14&#45;&gt;Node9 -->
<g id="edge16_Node000014_Node000009" class="edge">
<title>Node14&#45;&gt;Node9</title>
<g id="a_edge16_Node000014_Node000009"><a xlink:title=" ">
<path fill="none" stroke="#63b8ff" d="M906.2,-126.82C879.9,-110.81 852.34,-87.25 870.5,-66 902.99,-27.99 1045.77,-18.7 1128.2,-16.54"/>
<polygon fill="#63b8ff" stroke="#63b8ff" points="904.6,-129.94 915,-131.94 908.12,-123.89 904.6,-129.94"/>
</a>
</g>
</g>
<!-- Node14&#45;&gt;Node13 -->
<g id="edge17_Node000014_Node000013" class="edge">
<title>Node14&#45;&gt;Node13</title>
<g id="a_edge17_Node000014_Node000013"><a xlink:title=" ">
<path fill="none" stroke="#63b8ff" d="M887.95,-128.99C854.32,-118.69 811.95,-105.72 780.26,-96.01"/>
<polygon fill="#63b8ff" stroke="#63b8ff" points="887.05,-132.37 897.63,-131.95 889.1,-125.68 887.05,-132.37"/>
</a>
</g>
</g>
<!-- Node15 -->
<g id="Node000015" class="node">
<title>Node15</title>
<g id="a_Node000015"><a xlink:href="MissionSettingsItem_8cc.html" target="_top" xlink:title=" ">
<polygon fill="white" stroke="#666666" points="1159,-96 1026,-96 1026,-66 1159,-66 1159,-96"/>
<text text-anchor="start" x="1034" y="-84" font-family="Helvetica,sans-Serif" font-size="10.00">src/MissionManager</text>
<text text-anchor="middle" x="1092.5" y="-73" font-family="Helvetica,sans-Serif" font-size="10.00">/MissionSettingsItem.cc</text>
</a>
</g>
</g>
<!-- Node14&#45;&gt;Node15 -->
<g id="edge18_Node000014_Node000015" class="edge">
<title>Node14&#45;&gt;Node15</title>
<g id="a_edge18_Node000014_Node000015"><a xlink:title=" ">
<path fill="none" stroke="#63b8ff" d="M985.59,-127.92C1009.14,-117.8 1038.06,-105.38 1059.88,-96.01"/>
<polygon fill="#63b8ff" stroke="#63b8ff" points="984.01,-124.79 976.2,-131.95 986.77,-131.22 984.01,-124.79"/>
</a>
</g>
</g>
<!-- Node16 -->
<g id="Node000016" class="node">
<title>Node16</title>
<g id="a_Node000016"><a xlink:href="TakeoffMissionItem_8cc.html" target="_top" xlink:title=" ">
<polygon fill="white" stroke="#666666" points="1007.5,-96 879.5,-96 879.5,-66 1007.5,-66 1007.5,-96"/>
<text text-anchor="start" x="887.5" y="-84" font-family="Helvetica,sans-Serif" font-size="10.00">src/MissionManager</text>
<text text-anchor="middle" x="943.5" y="-73" font-family="Helvetica,sans-Serif" font-size="10.00">/TakeoffMissionItem.cc</text>
</a>
</g>
</g>
<!-- Node14&#45;&gt;Node16 -->
<g id="edge19_Node000014_Node000016" class="edge">
<title>Node14&#45;&gt;Node16</title>
<g id="a_edge19_Node000014_Node000016"><a xlink:title=" ">
<path fill="none" stroke="#63b8ff" d="M943.5,-121.54C943.5,-112.96 943.5,-103.61 943.5,-96.16"/>
<polygon fill="#63b8ff" stroke="#63b8ff" points="940,-121.8 943.5,-131.8 947,-121.8 940,-121.8"/>
</a>
</g>
</g>
<!-- Node17&#45;&gt;Node9 -->
<g id="edge21_Node000017_Node000009" class="edge">
<title>Node17&#45;&gt;Node9</title>
<g id="a_edge21_Node000017_Node000009"><a xlink:title=" ">
<path fill="none" stroke="#63b8ff" d="M1181,-121.68C1182.66,-94.7 1185.28,-52.11 1186.63,-30.14"/>
<polygon fill="#63b8ff" stroke="#63b8ff" points="1177.49,-121.64 1180.37,-131.84 1184.48,-122.07 1177.49,-121.64"/>
</a>
</g>
</g>
<!-- Node17&#45;&gt;Node18 -->
<g id="edge22_Node000017_Node000018" class="edge">
<title>Node17&#45;&gt;Node18</title>
<g id="a_edge22_Node000017_Node000018"><a xlink:title=" ">
<path fill="none" stroke="#63b8ff" d="M1254.27,-129.78C1302.29,-119.36 1364.03,-105.97 1409.91,-96.01"/>
<polygon fill="#63b8ff" stroke="#63b8ff" points="1253.27,-126.41 1244.24,-131.95 1254.75,-133.26 1253.27,-126.41"/>
</a>
</g>
</g>
<!-- Node19 -->
<g id="Node000019" class="node">
<title>Node19</title>
<g id="a_Node000019"><a xlink:href="StructureScanPlanCreator_8cc.html" target="_top" xlink:title=" ">
<polygon fill="white" stroke="#666666" points="1373,-96 1216,-96 1216,-66 1373,-66 1373,-96"/>
<text text-anchor="start" x="1224" y="-84" font-family="Helvetica,sans-Serif" font-size="10.00">src/MissionManager</text>
<text text-anchor="middle" x="1294.5" y="-73" font-family="Helvetica,sans-Serif" font-size="10.00">/StructureScanPlanCreator.cc</text>
</a>
</g>
</g>
<!-- Node17&#45;&gt;Node19 -->
<g id="edge23_Node000017_Node000019" class="edge">
<title>Node17&#45;&gt;Node19</title>
<g id="a_edge23_Node000017_Node000019"><a xlink:title=" ">
<path fill="none" stroke="#63b8ff" d="M1213.7,-126.97C1231.55,-117.03 1253.01,-105.09 1269.32,-96.01"/>
<polygon fill="#63b8ff" stroke="#63b8ff" points="1211.77,-124.03 1204.74,-131.95 1215.18,-130.15 1211.77,-124.03"/>
</a>
</g>
</g>
<!-- Node21 -->
<g id="Node000021" class="node">
<title>Node21</title>
<g id="a_Node000021"><a xlink:href="CorridorScanComplexItem_8h.html" target="_top" xlink:title=" ">
<polygon fill="white" stroke="#666666" points="2099,-96 1942,-96 1942,-66 2099,-66 2099,-96"/>
<text text-anchor="start" x="1950" y="-84" font-family="Helvetica,sans-Serif" font-size="10.00">src/MissionManager</text>
<text text-anchor="middle" x="2020.5" y="-73" font-family="Helvetica,sans-Serif" font-size="10.00">/CorridorScanComplexItem.h</text>
</a>
</g>
</g>
<!-- Node20&#45;&gt;Node21 -->
<g id="edge25_Node000020_Node000021" class="edge">
<title>Node20&#45;&gt;Node21</title>
<g id="a_edge25_Node000020_Node000021"><a xlink:title=" ">
<path fill="none" stroke="#63b8ff" d="M1904.31,-128.19C1929.87,-118.02 1961.47,-105.47 1985.25,-96.01"/>
<polygon fill="#63b8ff" stroke="#63b8ff" points="1902.83,-125.01 1894.83,-131.95 1905.42,-131.51 1902.83,-125.01"/>
</a>
</g>
</g>
<!-- Node24 -->
<g id="Node000024" class="node">
<title>Node24</title>
<g id="a_Node000024"><a xlink:href="SurveyComplexItem_8h.html" target="_top" xlink:title=" ">
<polygon fill="white" stroke="#666666" points="1923.5,-96 1795.5,-96 1795.5,-66 1923.5,-66 1923.5,-96"/>
<text text-anchor="start" x="1803.5" y="-84" font-family="Helvetica,sans-Serif" font-size="10.00">src/MissionManager</text>
<text text-anchor="middle" x="1859.5" y="-73" font-family="Helvetica,sans-Serif" font-size="10.00">/SurveyComplexItem.h</text>
</a>
</g>
</g>
<!-- Node20&#45;&gt;Node24 -->
<g id="edge29_Node000020_Node000024" class="edge">
<title>Node20&#45;&gt;Node24</title>
<g id="a_edge29_Node000020_Node000024"><a xlink:title=" ">
<path fill="none" stroke="#63b8ff" d="M1859.5,-121.54C1859.5,-112.96 1859.5,-103.61 1859.5,-96.16"/>
<polygon fill="#63b8ff" stroke="#63b8ff" points="1856,-121.8 1859.5,-131.8 1863,-121.8 1856,-121.8"/>
</a>
</g>
</g>
<!-- Node20&#45;&gt;Node27 -->
<g id="edge33_Node000020_Node000027" class="edge">
<title>Node20&#45;&gt;Node27</title>
<g id="a_edge33_Node000020_Node000027"><a xlink:title=" ">
<path fill="none" stroke="#63b8ff" d="M1813.86,-128.19C1787.81,-118.02 1755.63,-105.47 1731.41,-96.01"/>
<polygon fill="#63b8ff" stroke="#63b8ff" points="1812.92,-131.58 1823.51,-131.95 1815.47,-125.06 1812.92,-131.58"/>
</a>
</g>
</g>
<!-- Node21&#45;&gt;Node9 -->
<g id="edge28_Node000021_Node000009" class="edge">
<title>Node21&#45;&gt;Node9</title>
<g id="a_edge28_Node000021_Node000009"><a xlink:title=" ">
<path fill="none" stroke="#63b8ff" d="M1931.8,-66C1670.37,-36.93 1371.21,-23.05 1246.58,-18.14"/>
<polygon fill="#63b8ff" stroke="#63b8ff" points="1931.54,-69.49 1941.87,-67.13 1932.32,-62.53 1931.54,-69.49"/>
</a>
</g>
</g>
<!-- Node22 -->
<g id="Node000022" class="node">
<title>Node22</title>
<g id="a_Node000022"><a xlink:href="CorridorScanComplexItem_8cc.html" target="_top" xlink:title=" ">
<polygon fill="white" stroke="#666666" points="2276,-30 2115,-30 2115,0 2276,0 2276,-30"/>
<text text-anchor="start" x="2123" y="-18" font-family="Helvetica,sans-Serif" font-size="10.00">src/MissionManager</text>
<text text-anchor="middle" x="2195.5" y="-7" font-family="Helvetica,sans-Serif" font-size="10.00">/CorridorScanComplexItem.cc</text>
</a>
</g>
</g>
<!-- Node21&#45;&gt;Node22 -->
<g id="edge26_Node000021_Node000022" class="edge">
<title>Node21&#45;&gt;Node22</title>
<g id="a_edge26_Node000021_Node000022"><a xlink:title=" ">
<path fill="none" stroke="#63b8ff" d="M2068.47,-62.46C2096.39,-52.25 2131.1,-39.55 2157.19,-30.01"/>
<polygon fill="#63b8ff" stroke="#63b8ff" points="2067.09,-59.23 2058.9,-65.95 2069.5,-65.81 2067.09,-59.23"/>
</a>
</g>
</g>
<!-- Node23 -->
<g id="Node000023" class="node">
<title>Node23</title>
<g id="a_Node000023"><a xlink:href="CorridorScanPlanCreator_8cc.html" target="_top" xlink:title=" ">
<polygon fill="white" stroke="#666666" points="2096.5,-30 1944.5,-30 1944.5,0 2096.5,0 2096.5,-30"/>
<text text-anchor="start" x="1952.5" y="-18" font-family="Helvetica,sans-Serif" font-size="10.00">src/MissionManager</text>
<text text-anchor="middle" x="2020.5" y="-7" font-family="Helvetica,sans-Serif" font-size="10.00">/CorridorScanPlanCreator.cc</text>
</a>
</g>
</g>
<!-- Node21&#45;&gt;Node23 -->
<g id="edge27_Node000021_Node000023" class="edge">
<title>Node21&#45;&gt;Node23</title>
<g id="a_edge27_Node000021_Node000023"><a xlink:title=" ">
<path fill="none" stroke="#63b8ff" d="M2020.5,-55.54C2020.5,-46.96 2020.5,-37.61 2020.5,-30.16"/>
<polygon fill="#63b8ff" stroke="#63b8ff" points="2017,-55.8 2020.5,-65.8 2024,-55.8 2017,-55.8"/>
</a>
</g>
</g>
<!-- Node24&#45;&gt;Node9 -->
<g id="edge30_Node000024_Node000009" class="edge">
<title>Node24&#45;&gt;Node9</title>
<g id="a_edge30_Node000024_Node000009"><a xlink:title=" ">
<path fill="none" stroke="#63b8ff" d="M1785.51,-65.96C1582.26,-38.54 1352.9,-24.43 1246.82,-18.86"/>
<polygon fill="#63b8ff" stroke="#63b8ff" points="1785.09,-69.44 1795.47,-67.32 1786.03,-62.5 1785.09,-69.44"/>
</a>
</g>
</g>
<!-- Node25 -->
<g id="Node000025" class="node">
<title>Node25</title>
<g id="a_Node000025"><a xlink:href="SurveyComplexItem_8cc.html" target="_top" xlink:title=" ">
<polygon fill="white" stroke="#666666" points="1926,-30 1793,-30 1793,0 1926,0 1926,-30"/>
<text text-anchor="start" x="1801" y="-18" font-family="Helvetica,sans-Serif" font-size="10.00">src/MissionManager</text>
<text text-anchor="middle" x="1859.5" y="-7" font-family="Helvetica,sans-Serif" font-size="10.00">/SurveyComplexItem.cc</text>
</a>
</g>
</g>
<!-- Node24&#45;&gt;Node25 -->
<g id="edge31_Node000024_Node000025" class="edge">
<title>Node24&#45;&gt;Node25</title>
<g id="a_edge31_Node000024_Node000025"><a xlink:title=" ">
<path fill="none" stroke="#63b8ff" d="M1859.5,-55.54C1859.5,-46.96 1859.5,-37.61 1859.5,-30.16"/>
<polygon fill="#63b8ff" stroke="#63b8ff" points="1856,-55.8 1859.5,-65.8 1863,-55.8 1856,-55.8"/>
</a>
</g>
</g>
<!-- Node26 -->
<g id="Node000026" class="node">
<title>Node26</title>
<g id="a_Node000026"><a xlink:href="SurveyPlanCreator_8cc.html" target="_top" xlink:title=" ">
<polygon fill="white" stroke="#666666" points="1775,-30 1652,-30 1652,0 1775,0 1775,-30"/>
<text text-anchor="start" x="1660" y="-18" font-family="Helvetica,sans-Serif" font-size="10.00">src/MissionManager</text>
<text text-anchor="middle" x="1713.5" y="-7" font-family="Helvetica,sans-Serif" font-size="10.00">/SurveyPlanCreator.cc</text>
</a>
</g>
</g>
<!-- Node24&#45;&gt;Node26 -->
<g id="edge32_Node000024_Node000026" class="edge">
<title>Node24&#45;&gt;Node26</title>
<g id="a_edge32_Node000024_Node000026"><a xlink:title=" ">
<path fill="none" stroke="#63b8ff" d="M1818.25,-61.92C1795.18,-51.8 1766.84,-39.38 1745.47,-30.01"/>
<polygon fill="#63b8ff" stroke="#63b8ff" points="1816.9,-65.15 1827.46,-65.95 1819.71,-58.73 1816.9,-65.15"/>
</a>
</g>
</g>
<!-- Node30&#45;&gt;Node20 -->
<g id="edge43_Node000030_Node000020" class="edge">
<title>Node30&#45;&gt;Node20</title>
<g id="a_edge43_Node000030_Node000020"><a xlink:title=" ">
<path fill="none" stroke="#63b8ff" d="M2148.22,-267.18C2199.98,-254.99 2263.51,-232.29 2233.5,-198 2214.46,-176.25 2043.9,-160.72 1939.8,-153.18"/>
<polygon fill="#63b8ff" stroke="#63b8ff" points="2147.37,-263.78 2138.39,-269.4 2148.91,-270.61 2147.37,-263.78"/>
</a>
</g>
</g>
<!-- Node30&#45;&gt;Node29 -->
<g id="edge45_Node000030_Node000029" class="edge">
<title>Node30&#45;&gt;Node29</title>
<g id="a_edge45_Node000030_Node000029"><a xlink:title=" ">
<path fill="none" stroke="#63b8ff" d="M2026.17,-267.85C1963.07,-257.85 1864.13,-242.08 1778.5,-228 1775.33,-227.48 1772.09,-226.94 1768.81,-226.4"/>
<polygon fill="#63b8ff" stroke="#63b8ff" points="2025.94,-271.36 2036.37,-269.46 2027.04,-264.44 2025.94,-271.36"/>
</a>
</g>
</g>
<!-- Node31 -->
<g id="Node000031" class="node">
<title>Node31</title>
<g id="a_Node000031"><a xlink:href="VisualMissionItem_8cc.html" target="_top" xlink:title=" ">
<polygon fill="white" stroke="#666666" points="2404,-228 2281,-228 2281,-198 2404,-198 2404,-228"/>
<text text-anchor="start" x="2289" y="-216" font-family="Helvetica,sans-Serif" font-size="10.00">src/MissionManager</text>
<text text-anchor="middle" x="2342.5" y="-205" font-family="Helvetica,sans-Serif" font-size="10.00">/VisualMissionItem.cc</text>
</a>
</g>
</g>
<!-- Node30&#45;&gt;Node31 -->
<g id="edge44_Node000030_Node000031" class="edge">
<title>Node30&#45;&gt;Node31</title>
<g id="a_edge44_Node000030_Node000031"><a xlink:title=" ">
<path fill="none" stroke="#63b8ff" d="M2133.98,-266.96C2176.44,-256.17 2241.2,-239.73 2287.28,-228.02"/>
<polygon fill="#63b8ff" stroke="#63b8ff" points="2133.06,-263.58 2124.22,-269.44 2134.78,-270.37 2133.06,-263.58"/>
</a>
</g>
</g>
<!-- Node32 -->
<g id="Node000032" class="node">
<title>Node32</title>
<g id="a_Node000032"><a xlink:href="TerrainQuery_8cc.html" target="_top" xlink:title=" ">
<polygon fill="white" stroke="#666666" points="2566.5,-222.5 2422.5,-222.5 2422.5,-203.5 2566.5,-203.5 2566.5,-222.5"/>
<text text-anchor="middle" x="2494.5" y="-210.5" font-family="Helvetica,sans-Serif" font-size="10.00">src/Terrain/TerrainQuery.cc</text>
</a>
</g>
</g>
<!-- Node30&#45;&gt;Node32 -->
<g id="edge46_Node000030_Node000032" class="edge">
<title>Node30&#45;&gt;Node32</title>
<g id="a_edge46_Node000030_Node000032"><a xlink:title=" ">
<path fill="none" stroke="#63b8ff" d="M2157.6,-267.96C2222.97,-258.1 2325.13,-242.48 2413.5,-228 2424.06,-226.27 2435.39,-224.35 2446.12,-222.5"/>
<polygon fill="#63b8ff" stroke="#63b8ff" points="2156.8,-264.54 2147.44,-269.5 2157.85,-271.47 2156.8,-264.54"/>
</a>
</g>
</g>
<!-- Node33 -->
<g id="Node000033" class="node">
<title>Node33</title>
<g id="a_Node000033"><a xlink:href="TerrainProtocolHandler_8cc.html" target="_top" xlink:title=" ">
<polygon fill="white" stroke="#666666" points="1932,-228 1787,-228 1787,-198 1932,-198 1932,-228"/>
<text text-anchor="start" x="1795" y="-216" font-family="Helvetica,sans-Serif" font-size="10.00">src/Vehicle/TerrainProtocol</text>
<text text-anchor="middle" x="1859.5" y="-205" font-family="Helvetica,sans-Serif" font-size="10.00">Handler.cc</text>
</a>
</g>
</g>
<!-- Node30&#45;&gt;Node33 -->
<g id="edge47_Node000030_Node000033" class="edge">
<title>Node30&#45;&gt;Node33</title>
<g id="a_edge47_Node000030_Node000033"><a xlink:title=" ">
<path fill="none" stroke="#63b8ff" d="M2049.43,-266.62C2010.6,-255.86 1952.23,-239.69 1910.45,-228.12"/>
<polygon fill="#63b8ff" stroke="#63b8ff" points="2048.77,-270.07 2059.35,-269.37 2050.64,-263.33 2048.77,-270.07"/>
</a>
</g>
</g>
<!-- Node34 -->
<g id="Node000034" class="node">
<title>Node34</title>
<g id="a_Node000034"><a xlink:href="TerrainQueryCoordinator_8cc.html" target="_top" xlink:title=" ">
<polygon fill="white" stroke="#666666" points="2084.5,-228 1950.5,-228 1950.5,-198 2084.5,-198 2084.5,-228"/>
<text text-anchor="start" x="1958.5" y="-216" font-family="Helvetica,sans-Serif" font-size="10.00">src/Vehicle/TerrainQuery</text>
<text text-anchor="middle" x="2017.5" y="-205" font-family="Helvetica,sans-Serif" font-size="10.00">Coordinator.cc</text>
</a>
</g>
</g>
<!-- Node30&#45;&gt;Node34 -->
<g id="edge48_Node000030_Node000034" class="edge">
<title>Node30&#45;&gt;Node34</title>
<g id="a_edge48_Node000030_Node000034"><a xlink:title=" ">
<path fill="none" stroke="#63b8ff" d="M2073.06,-262.71C2061.08,-252.21 2045.29,-238.36 2033.6,-228.12"/>
<polygon fill="#63b8ff" stroke="#63b8ff" points="2070.83,-265.41 2080.65,-269.37 2075.44,-260.14 2070.83,-265.41"/>
</a>
</g>
</g>
<!-- Node35 -->
<g id="Node000035" class="node">
<title>Node35</title>
<g id="a_Node000035"><a xlink:href="Vehicle_8cc.html" target="_top" xlink:title=" ">
<polygon fill="white" stroke="#666666" points="2224,-222.5 2103,-222.5 2103,-203.5 2224,-203.5 2224,-222.5"/>
<text text-anchor="middle" x="2163.5" y="-210.5" font-family="Helvetica,sans-Serif" font-size="10.00">src/Vehicle/Vehicle.cc</text>
</a>
</g>
</g>
<!-- Node30&#45;&gt;Node35 -->
<g id="edge49_Node000030_Node000035" class="edge">
<title>Node30&#45;&gt;Node35</title>
<g id="a_edge49_Node000030_Node000035"><a xlink:title=" ">
<path fill="none" stroke="#63b8ff" d="M2107.98,-262.68C2122.14,-250.26 2141.62,-233.18 2153.34,-222.91"/>
<polygon fill="#63b8ff" stroke="#63b8ff" points="2105.56,-260.14 2100.35,-269.37 2110.17,-265.41 2105.56,-260.14"/>
</a>
</g>
</g>
</g>
</svg>

<g id="navigator" transform="translate(0 0)" fill="#404254">
  <rect fill="#f2f5e9" fill-opacity="0.5" stroke="#606060" stroke-width=".5" x="0" y="0" width="60" height="60"/>
  <use id="zoomplus" xlink:href="#zoomPlus" x="17" y="9" onmousedown="handleZoom(evt,'in')"/>
  <use id="zoomminus" xlink:href="#zoomMin" x="42" y="9" onmousedown="handleZoom(evt,'out')"/>
  <use id="reset" xlink:href="#resetDef" x="30" y="36" onmousedown="handleReset()"/>
   <use id="arrowup" xlink:href="#arrowUp" x="0" y="0" onmousedown="handlePan(0,-1)"/>
  <use id="arrowright" xlink:href="#arrowRight" x="0" y="0" onmousedown="handlePan(1,0)"/>
  <use id="arrowdown" xlink:href="#arrowDown" x="0" y="0" onmousedown="handlePan(0,1)"/>
  <use id="arrowleft" xlink:href="#arrowLeft" x="0" y="0" onmousedown="handlePan(-1,0)"/>
</g>
<svg viewBox="0 0 15 15" width="100%" height="30px" preserveAspectRatio="xMaxYMin meet">
 <g id="arrow_out" transform="scale(0.3 0.3)">
  <a xlink:href="TerrainPathHeightInfo_8h__dep__incl_org.svg" target="_base">
   <rect id="button" ry="5" rx="5" y="6" x="6" height="38" width="38"
        fill="#f2f5e9" fill-opacity="0.5" stroke="#606060" stroke-width="1.0"/>
   <path id="arrow"
     d="M 11.500037,31.436501 C 11.940474,20.09759 22.043105,11.32322 32.158766,21.979434 L 37.068811,17.246167 C 37.068811,17.246167 37.088388,32 37.088388,32 L 22.160133,31.978069 C 22.160133,31.978069 26.997745,27.140456 26.997745,27.140456 C 18.528582,18.264221 13.291696,25.230495 11.500037,31.436501 z"
     style="fill:#404040;"/>
  </a>
 </g>
</svg>

<style type='text/css'>
<![CDATA[
[data-mouse-over-selected='false'] { opacity: 0.7; }
[data-mouse-over-selected='true']  { opacity: 1.0; }
]]>
</style>
<script type="application/ecmascript"><![CDATA[
document.addEventListener('DOMContentLoaded', (event) => {
  highlightEdges();
  highlightAdjacentNodes();
});
]]></script>
</svg>
