<?xml version="1.0" encoding="UTF-8" standalone="no"?>
<!DOCTYPE svg PUBLIC "-//W3C//DTD SVG 1.1//EN"
 "http://www.w3.org/Graphics/SVG/1.1/DTD/svg11.dtd">
<!-- Generated by graphviz version 2.43.0 (0)
 -->
<!-- Title: src/Terrain/TerrainQueryInterface.h Pages: 1 -->
<!--zoomable 434 -->

<svg id="main" version="1.1" xmlns="http://www.w3.org/2000/svg" xmlns:xlink="http://www.w3.org/1999/xlink" xml:space="preserve" onload="init(evt)">
<style type="text/css"><![CDATA[
.node, .edge {opacity: 0.7;}
.node.selected, .edge.selected {opacity: 1;}
.edge:hover path { stroke: red; }
.edge:hover polygon { stroke: red; fill: red; }
]]></style>

<defs>
  <circle id="rim" cx="0" cy="0" r="7"/>
  <circle id="rim2" cx="0" cy="0" r="3.5"/>
  <g id="zoomPlus">
    <use xlink:href="#rim" fill="#404040"><set attributeName="fill" to="#808080" begin="zoomplus.mouseover" end="zoomplus.mouseout"/></use>
    <path d="M-4,0h8M0,-4v8" fill="none" stroke="white" stroke-width="1.5" pointer-events="none"/>
  </g>
  <g id="zoomMin">
    <use xlink:href="#rim" fill="#404040"><set attributeName="fill" to="#808080" begin="zoomminus.mouseover" end="zoomminus.mouseout"/></use>
    <path d="M-4,0h8" fill="none" stroke="white" stroke-width="1.5" pointer-events="none"/>
  </g>
  <g id="arrowUp" transform="translate(30 24)">
    <use xlink:href="#rim"/>
    <path pointer-events="none" fill="none" stroke="white" stroke-width="1.5" d="M0,-3.0v7 M-2.5,-0.5L0,-3.0L2.5,-0.5"/>
  </g>
  <g id="arrowRight" transform="rotate(90) translate(36 -43)">
    <use xlink:href="#rim"/>
    <path pointer-events="none" fill="none" stroke="white" stroke-width="1.5" d="M0,-3.0v7 M-2.5,-0.5L0,-3.0L2.5,-0.5"/>
  </g>
  <g id="arrowDown" transform="rotate(180) translate(-30 -48)">
    <use xlink:href="#rim"/>
    <path pointer-events="none" fill="none" stroke="white" stroke-width="1.5" d="M0,-3.0v7 M-2.5,-0.5L0,-3.0L2.5,-0.5"/>
  </g>
  <g id="arrowLeft" transform="rotate(270) translate(-36 17)">
    <use xlink:href="#rim"/>
    <path pointer-events="none" fill="none" stroke="white" stroke-width="1.5" d="M0,-3.0v7 M-2.5,-0.5L0,-3.0L2.5,-0.5"/>
  </g>
  <g id="resetDef">
    <use xlink:href="#rim2" fill="#404040"><set attributeName="fill" to="#808080" begin="reset.mouseover" end="reset.mouseout"/></use>
  </g>
</defs>
<script type="application/ecmascript">
var viewWidth = 2057;
var viewHeight = 434;
var sectionId = 'dynsection-1';
</script>
<script type="application/ecmascript" xlink:href="svg.min.js"/>
<svg id="graph" class="graph">
<g id="viewport">
<title>src/Terrain/TerrainQueryInterface.h</title>
<!-- Node1 -->
<g id="Node000001" class="node">
<title>Node1</title>
<g id="a_Node000001"><a xlink:title=" ">
<polygon fill="#999999" stroke="#666666" points="1319.5,-426 1187.5,-426 1187.5,-396 1319.5,-396 1319.5,-426"/>
<text text-anchor="start" x="1195.5" y="-414" font-family="Helvetica,sans-Serif" font-size="10.00">src/Terrain/TerrainQuery</text>
<text text-anchor="middle" x="1253.5" y="-403" font-family="Helvetica,sans-Serif" font-size="10.00">Interface.h</text>
</a>
</g>
</g>
<!-- Node2 -->
<g id="Node000002" class="node">
<title>Node2</title>
<g id="a_Node000002"><a xlink:href="TerrainQueryCopernicus_8h.html" target="_top" xlink:title=" ">
<polygon fill="white" stroke="#666666" points="517,-360 372,-360 372,-330 517,-330 517,-360"/>
<text text-anchor="start" x="380" y="-348" font-family="Helvetica,sans-Serif" font-size="10.00">src/Terrain/Providers</text>
<text text-anchor="middle" x="444.5" y="-337" font-family="Helvetica,sans-Serif" font-size="10.00">/TerrainQueryCopernicus.h</text>
</a>
</g>
</g>
<!-- Node1&#45;&gt;Node2 -->
<g id="edge1_Node000001_Node000002" class="edge">
<title>Node1&#45;&gt;Node2</title>
<g id="a_edge1_Node000001_Node000002"><a xlink:title=" ">
<path fill="none" stroke="#63b8ff" d="M1176.87,-403.94C1021.12,-391.62 669.45,-363.8 517.12,-351.74"/>
<polygon fill="#63b8ff" stroke="#63b8ff" points="1177.05,-407.46 1187.3,-404.76 1177.6,-400.48 1177.05,-407.46"/>
</a>
</g>
</g>
<!-- Node4 -->
<g id="Node000004" class="node">
<title>Node4</title>
<g id="a_Node000004"><a xlink:href="TerrainQuery_8cc.html" target="_top" xlink:title=" ">
<polygon fill="white" stroke="#666666" points="1325.5,-288.5 1181.5,-288.5 1181.5,-269.5 1325.5,-269.5 1325.5,-288.5"/>
<text text-anchor="middle" x="1253.5" y="-276.5" font-family="Helvetica,sans-Serif" font-size="10.00">src/Terrain/TerrainQuery.cc</text>
</a>
</g>
</g>
<!-- Node1&#45;&gt;Node4 -->
<g id="edge3_Node000001_Node000004" class="edge">
<title>Node1&#45;&gt;Node4</title>
<g id="a_edge3_Node000001_Node000004"><a xlink:title=" ">
<path fill="none" stroke="#63b8ff" d="M1253.5,-385.57C1253.5,-356.17 1253.5,-308.31 1253.5,-288.75"/>
<polygon fill="#63b8ff" stroke="#63b8ff" points="1250,-385.84 1253.5,-395.84 1257,-385.84 1250,-385.84"/>
</a>
</g>
</g>
<!-- Node5 -->
<g id="Node000005" class="node">
<title>Node5</title>
<g id="a_Node000005"><a xlink:href="TerrainQuery_8h.html" target="_top" xlink:title=" ">
<polygon fill="white" stroke="#666666" points="867.5,-354.5 727.5,-354.5 727.5,-335.5 867.5,-335.5 867.5,-354.5"/>
<text text-anchor="middle" x="797.5" y="-342.5" font-family="Helvetica,sans-Serif" font-size="10.00">src/Terrain/TerrainQuery.h</text>
</a>
</g>
</g>
<!-- Node1&#45;&gt;Node5 -->
<g id="edge4_Node000001_Node000005" class="edge">
<title>Node1&#45;&gt;Node5</title>
<g id="a_edge4_Node000001_Node000005"><a xlink:title=" ">
<path fill="none" stroke="#63b8ff" d="M1177.09,-399.28C1087.48,-386.7 940.73,-366.1 858.42,-354.55"/>
<polygon fill="#63b8ff" stroke="#63b8ff" points="1176.8,-402.77 1187.19,-400.69 1177.78,-395.84 1176.8,-402.77"/>
</a>
</g>
</g>
<!-- Node36 -->
<g id="Node000036" class="node">
<title>Node36</title>
<g id="a_Node000036"><a xlink:href="TerrainQueryInterface_8cc.html" target="_top" xlink:title=" ">
<polygon fill="white" stroke="#666666" points="1669.5,-294 1537.5,-294 1537.5,-264 1669.5,-264 1669.5,-294"/>
<text text-anchor="start" x="1545.5" y="-282" font-family="Helvetica,sans-Serif" font-size="10.00">src/Terrain/TerrainQuery</text>
<text text-anchor="middle" x="1603.5" y="-271" font-family="Helvetica,sans-Serif" font-size="10.00">Interface.cc</text>
</a>
</g>
</g>
<!-- Node1&#45;&gt;Node36 -->
<g id="edge49_Node000001_Node000036" class="edge">
<title>Node1&#45;&gt;Node36</title>
<g id="a_edge49_Node000001_Node000036"><a xlink:title=" ">
<path fill="none" stroke="#63b8ff" d="M1329.67,-402.65C1378.42,-395.93 1442.11,-383.32 1494.5,-360 1531.81,-343.39 1568.76,-312.4 1588.6,-294.25"/>
<polygon fill="#63b8ff" stroke="#63b8ff" points="1328.96,-399.22 1319.5,-404 1329.88,-406.16 1328.96,-399.22"/>
</a>
</g>
</g>
<!-- Node37 -->
<g id="Node000037" class="node">
<title>Node37</title>
<g id="a_Node000037"><a xlink:href="TerrainTileManager_8h.html" target="_top" xlink:title=" ">
<polygon fill="white" stroke="#666666" points="1485.5,-354.5 1313.5,-354.5 1313.5,-335.5 1485.5,-335.5 1485.5,-354.5"/>
<text text-anchor="middle" x="1399.5" y="-342.5" font-family="Helvetica,sans-Serif" font-size="10.00">src/Terrain/TerrainTileManager.h</text>
</a>
</g>
</g>
<!-- Node1&#45;&gt;Node37 -->
<g id="edge50_Node000001_Node000037" class="edge">
<title>Node1&#45;&gt;Node37</title>
<g id="a_edge50_Node000001_Node000037"><a xlink:title=" ">
<path fill="none" stroke="#63b8ff" d="M1295.06,-391.78C1322.98,-379.54 1358.48,-363.98 1380.07,-354.52"/>
<polygon fill="#63b8ff" stroke="#63b8ff" points="1293.29,-388.73 1285.54,-395.95 1296.1,-395.15 1293.29,-388.73"/>
</a>
</g>
</g>
<!-- Node3 -->
<g id="Node000003" class="node">
<title>Node3</title>
<g id="a_Node000003"><a xlink:href="TerrainQueryCopernicus_8cc.html" target="_top" xlink:title=" ">
<polygon fill="white" stroke="#666666" points="326,-294 177,-294 177,-264 326,-264 326,-294"/>
<text text-anchor="start" x="185" y="-282" font-family="Helvetica,sans-Serif" font-size="10.00">src/Terrain/Providers</text>
<text text-anchor="middle" x="251.5" y="-271" font-family="Helvetica,sans-Serif" font-size="10.00">/TerrainQueryCopernicus.cc</text>
</a>
</g>
</g>
<!-- Node2&#45;&gt;Node3 -->
<g id="edge2_Node000002_Node000003" class="edge">
<title>Node2&#45;&gt;Node3</title>
<g id="a_edge2_Node000002_Node000003"><a xlink:title=" ">
<path fill="none" stroke="#63b8ff" d="M392.4,-326.72C361.48,-316.47 322.77,-303.63 293.76,-294.01"/>
<polygon fill="#63b8ff" stroke="#63b8ff" points="391.55,-330.13 402.15,-329.95 393.76,-323.49 391.55,-330.13"/>
</a>
</g>
</g>
<!-- Node5&#45;&gt;Node4 -->
<g id="edge46_Node000005_Node000004" class="edge">
<title>Node5&#45;&gt;Node4</title>
<g id="a_edge46_Node000005_Node000004"><a xlink:title=" ">
<path fill="none" stroke="#63b8ff" d="M877.4,-334.25C953.41,-324.77 1070.91,-309.55 1172.5,-294 1183.36,-292.34 1195.02,-290.41 1206.01,-288.52"/>
<polygon fill="#63b8ff" stroke="#63b8ff" points="876.91,-330.79 867.42,-335.5 877.78,-337.73 876.91,-330.79"/>
</a>
</g>
</g>
<!-- Node6 -->
<g id="Node000006" class="node">
<title>Node6</title>
<g id="a_Node000006"><a xlink:href="TransectStyleComplexItem_8h.html" target="_top" xlink:title=" ">
<polygon fill="white" stroke="#666666" points="615.5,-162 455.5,-162 455.5,-132 615.5,-132 615.5,-162"/>
<text text-anchor="start" x="463.5" y="-150" font-family="Helvetica,sans-Serif" font-size="10.00">src/MissionManager</text>
<text text-anchor="middle" x="535.5" y="-139" font-family="Helvetica,sans-Serif" font-size="10.00">/TransectStyleComplexItem.h</text>
</a>
</g>
</g>
<!-- Node5&#45;&gt;Node6 -->
<g id="edge5_Node000005_Node000006" class="edge">
<title>Node5&#45;&gt;Node6</title>
<g id="a_edge5_Node000005_Node000006"><a xlink:title=" ">
<path fill="none" stroke="#63b8ff" d="M798.01,-324.9C797.42,-306.77 793.57,-279.97 777.5,-264 729.48,-216.28 689.8,-258.77 629.5,-228 596.29,-211.05 564.8,-180.18 548.03,-162.15"/>
<polygon fill="#63b8ff" stroke="#63b8ff" points="794.51,-325.14 798.03,-335.13 801.51,-325.12 794.51,-325.14"/>
</a>
</g>
</g>
<!-- Node15 -->
<g id="Node000015" class="node">
<title>Node15</title>
<g id="a_Node000015"><a xlink:href="VisualMissionItem_8cc.html" target="_top" xlink:title=" ">
<polygon fill="white" stroke="#666666" points="467,-294 344,-294 344,-264 467,-264 467,-294"/>
<text text-anchor="start" x="352" y="-282" font-family="Helvetica,sans-Serif" font-size="10.00">src/MissionManager</text>
<text text-anchor="middle" x="405.5" y="-271" font-family="Helvetica,sans-Serif" font-size="10.00">/VisualMissionItem.cc</text>
</a>
</g>
</g>
<!-- Node5&#45;&gt;Node15 -->
<g id="edge15_Node000005_Node000015" class="edge">
<title>Node5&#45;&gt;Node15</title>
<g id="a_edge15_Node000005_Node000015"><a xlink:title=" ">
<path fill="none" stroke="#63b8ff" d="M727.25,-333.99C661.92,-324.46 561.95,-309.35 475.5,-294 472.82,-293.52 470.08,-293.03 467.31,-292.51"/>
<polygon fill="#63b8ff" stroke="#63b8ff" points="727.03,-337.49 737.43,-335.47 728.04,-330.57 727.03,-337.49"/>
</a>
</g>
</g>
<!-- Node16 -->
<g id="Node000016" class="node">
<title>Node16</title>
<g id="a_Node000016"><a xlink:href="FlightPathSegment_8h.html" target="_top" xlink:title=" ">
<polygon fill="white" stroke="#666666" points="1163.5,-294 1017.5,-294 1017.5,-264 1163.5,-264 1163.5,-294"/>
<text text-anchor="start" x="1025.5" y="-282" font-family="Helvetica,sans-Serif" font-size="10.00">src/QmlControls/FlightPath</text>
<text text-anchor="middle" x="1090.5" y="-271" font-family="Helvetica,sans-Serif" font-size="10.00">Segment.h</text>
</a>
</g>
</g>
<!-- Node5&#45;&gt;Node16 -->
<g id="edge16_Node000005_Node000016" class="edge">
<title>Node5&#45;&gt;Node16</title>
<g id="a_edge16_Node000005_Node000016"><a xlink:title=" ">
<path fill="none" stroke="#63b8ff" d="M846.51,-333.3C895.83,-322.52 972.16,-305.85 1026.29,-294.02"/>
<polygon fill="#63b8ff" stroke="#63b8ff" points="845.73,-329.88 836.71,-335.44 847.23,-336.72 845.73,-329.88"/>
</a>
</g>
</g>
<!-- Node34 -->
<g id="Node000034" class="node">
<title>Node34</title>
<g id="a_Node000034"><a xlink:href="TerrainProtocolHandler_8cc.html" target="_top" xlink:title=" ">
<polygon fill="white" stroke="#666666" points="630,-294 485,-294 485,-264 630,-264 630,-294"/>
<text text-anchor="start" x="493" y="-282" font-family="Helvetica,sans-Serif" font-size="10.00">src/Vehicle/TerrainProtocol</text>
<text text-anchor="middle" x="557.5" y="-271" font-family="Helvetica,sans-Serif" font-size="10.00">Handler.cc</text>
</a>
</g>
</g>
<!-- Node5&#45;&gt;Node34 -->
<g id="edge47_Node000005_Node000034" class="edge">
<title>Node5&#45;&gt;Node34</title>
<g id="a_edge47_Node000005_Node000034"><a xlink:title=" ">
<path fill="none" stroke="#63b8ff" d="M755.35,-332.76C715.01,-322 654.02,-305.74 610.43,-294.12"/>
<polygon fill="#63b8ff" stroke="#63b8ff" points="754.57,-336.17 765.13,-335.37 756.37,-329.41 754.57,-336.17"/>
</a>
</g>
</g>
<!-- Node35 -->
<g id="Node000035" class="node">
<title>Node35</title>
<g id="a_Node000035"><a xlink:href="Vehicle_8cc.html" target="_top" xlink:title=" ">
<polygon fill="white" stroke="#666666" points="769,-288.5 648,-288.5 648,-269.5 769,-269.5 769,-288.5"/>
<text text-anchor="middle" x="708.5" y="-276.5" font-family="Helvetica,sans-Serif" font-size="10.00">src/Vehicle/Vehicle.cc</text>
</a>
</g>
</g>
<!-- Node5&#45;&gt;Node35 -->
<g id="edge48_Node000005_Node000035" class="edge">
<title>Node5&#45;&gt;Node35</title>
<g id="a_edge48_Node000005_Node000035"><a xlink:title=" ">
<path fill="none" stroke="#63b8ff" d="M777.11,-329.33C759.65,-316.78 735.11,-299.13 720.6,-288.7"/>
<polygon fill="#63b8ff" stroke="#63b8ff" points="775.33,-332.37 785.5,-335.37 779.42,-326.69 775.33,-332.37"/>
</a>
</g>
</g>
<!-- Node7 -->
<g id="Node000007" class="node">
<title>Node7</title>
<g id="a_Node000007"><a xlink:href="CorridorScanComplexItem_8h.html" target="_top" xlink:title=" ">
<polygon fill="white" stroke="#666666" points="447,-96 290,-96 290,-66 447,-66 447,-96"/>
<text text-anchor="start" x="298" y="-84" font-family="Helvetica,sans-Serif" font-size="10.00">src/MissionManager</text>
<text text-anchor="middle" x="368.5" y="-73" font-family="Helvetica,sans-Serif" font-size="10.00">/CorridorScanComplexItem.h</text>
</a>
</g>
</g>
<!-- Node6&#45;&gt;Node7 -->
<g id="edge6_Node000006_Node000007" class="edge">
<title>Node6&#45;&gt;Node7</title>
<g id="a_edge6_Node000006_Node000007"><a xlink:title=" ">
<path fill="none" stroke="#63b8ff" d="M489.37,-128.32C462.79,-118.14 429.84,-105.51 405.06,-96.01"/>
<polygon fill="#63b8ff" stroke="#63b8ff" points="488.26,-131.64 498.85,-131.95 490.77,-125.11 488.26,-131.64"/>
</a>
</g>
</g>
<!-- Node11 -->
<g id="Node000011" class="node">
<title>Node11</title>
<g id="a_Node000011"><a xlink:href="SurveyComplexItem_8h.html" target="_top" xlink:title=" ">
<polygon fill="white" stroke="#666666" points="271.5,-96 143.5,-96 143.5,-66 271.5,-66 271.5,-96"/>
<text text-anchor="start" x="151.5" y="-84" font-family="Helvetica,sans-Serif" font-size="10.00">src/MissionManager</text>
<text text-anchor="middle" x="207.5" y="-73" font-family="Helvetica,sans-Serif" font-size="10.00">/SurveyComplexItem.h</text>
</a>
</g>
</g>
<!-- Node6&#45;&gt;Node11 -->
<g id="edge10_Node000006_Node000011" class="edge">
<title>Node6&#45;&gt;Node11</title>
<g id="a_edge10_Node000006_Node000011"><a xlink:title=" ">
<path fill="none" stroke="#63b8ff" d="M453.57,-130.01C397.26,-119.03 323.56,-104.65 271.54,-94.5"/>
<polygon fill="#63b8ff" stroke="#63b8ff" points="453.03,-133.47 463.52,-131.95 454.37,-126.6 453.03,-133.47"/>
</a>
</g>
</g>
<!-- Node14 -->
<g id="Node000014" class="node">
<title>Node14</title>
<g id="a_Node000014"><a xlink:href="TransectStyleComplexItem_8cc.html" target="_top" xlink:title=" ">
<polygon fill="white" stroke="#666666" points="629.5,-96 465.5,-96 465.5,-66 629.5,-66 629.5,-96"/>
<text text-anchor="start" x="473.5" y="-84" font-family="Helvetica,sans-Serif" font-size="10.00">src/MissionManager</text>
<text text-anchor="middle" x="547.5" y="-73" font-family="Helvetica,sans-Serif" font-size="10.00">/TransectStyleComplexItem.cc</text>
</a>
</g>
</g>
<!-- Node6&#45;&gt;Node14 -->
<g id="edge14_Node000006_Node000014" class="edge">
<title>Node6&#45;&gt;Node14</title>
<g id="a_edge14_Node000006_Node000014"><a xlink:title=" ">
<path fill="none" stroke="#63b8ff" d="M540.03,-121.83C541.66,-113.17 543.43,-103.7 544.84,-96.16"/>
<polygon fill="#63b8ff" stroke="#63b8ff" points="536.57,-121.32 538.16,-131.8 543.45,-122.61 536.57,-121.32"/>
</a>
</g>
</g>
<!-- Node8 -->
<g id="Node000008" class="node">
<title>Node8</title>
<g id="a_Node000008"><a xlink:href="CorridorScanComplexItem_8cc.html" target="_top" xlink:title=" ">
<polygon fill="white" stroke="#666666" points="624,-30 463,-30 463,0 624,0 624,-30"/>
<text text-anchor="start" x="471" y="-18" font-family="Helvetica,sans-Serif" font-size="10.00">src/MissionManager</text>
<text text-anchor="middle" x="543.5" y="-7" font-family="Helvetica,sans-Serif" font-size="10.00">/CorridorScanComplexItem.cc</text>
</a>
</g>
</g>
<!-- Node7&#45;&gt;Node8 -->
<g id="edge7_Node000007_Node000008" class="edge">
<title>Node7&#45;&gt;Node8</title>
<g id="a_edge7_Node000007_Node000008"><a xlink:title=" ">
<path fill="none" stroke="#63b8ff" d="M416.47,-62.46C444.39,-52.25 479.1,-39.55 505.19,-30.01"/>
<polygon fill="#63b8ff" stroke="#63b8ff" points="415.09,-59.23 406.9,-65.95 417.5,-65.81 415.09,-59.23"/>
</a>
</g>
</g>
<!-- Node9 -->
<g id="Node000009" class="node">
<title>Node9</title>
<g id="a_Node000009"><a xlink:href="CorridorScanPlanCreator_8cc.html" target="_top" xlink:title=" ">
<polygon fill="white" stroke="#666666" points="444.5,-30 292.5,-30 292.5,0 444.5,0 444.5,-30"/>
<text text-anchor="start" x="300.5" y="-18" font-family="Helvetica,sans-Serif" font-size="10.00">src/MissionManager</text>
<text text-anchor="middle" x="368.5" y="-7" font-family="Helvetica,sans-Serif" font-size="10.00">/CorridorScanPlanCreator.cc</text>
</a>
</g>
</g>
<!-- Node7&#45;&gt;Node9 -->
<g id="edge8_Node000007_Node000009" class="edge">
<title>Node7&#45;&gt;Node9</title>
<g id="a_edge8_Node000007_Node000009"><a xlink:title=" ">
<path fill="none" stroke="#63b8ff" d="M368.5,-55.54C368.5,-46.96 368.5,-37.61 368.5,-30.16"/>
<polygon fill="#63b8ff" stroke="#63b8ff" points="365,-55.8 368.5,-65.8 372,-55.8 365,-55.8"/>
</a>
</g>
</g>
<!-- Node10 -->
<g id="Node000010" class="node">
<title>Node10</title>
<g id="a_Node000010"><a xlink:href="MissionController_8cc.html" target="_top" xlink:title=" ">
<polygon fill="white" stroke="#666666" points="760.5,-30 642.5,-30 642.5,0 760.5,0 760.5,-30"/>
<text text-anchor="start" x="650.5" y="-18" font-family="Helvetica,sans-Serif" font-size="10.00">src/MissionManager</text>
<text text-anchor="middle" x="701.5" y="-7" font-family="Helvetica,sans-Serif" font-size="10.00">/MissionController.cc</text>
</a>
</g>
</g>
<!-- Node7&#45;&gt;Node10 -->
<g id="edge9_Node000007_Node000010" class="edge">
<title>Node7&#45;&gt;Node10</title>
<g id="a_edge9_Node000007_Node000010"><a xlink:title=" ">
<path fill="none" stroke="#63b8ff" d="M454.07,-64.09C505.76,-54.4 572.96,-41.68 632.5,-30 635.74,-29.36 639.06,-28.71 642.42,-28.04"/>
<polygon fill="#63b8ff" stroke="#63b8ff" points="453.12,-60.7 443.94,-65.98 454.41,-67.58 453.12,-60.7"/>
</a>
</g>
</g>
<!-- Node11&#45;&gt;Node10 -->
<g id="edge11_Node000011_Node000010" class="edge">
<title>Node11&#45;&gt;Node10</title>
<g id="a_edge11_Node000011_Node000010"><a xlink:title=" ">
<path fill="none" stroke="#63b8ff" d="M281.51,-65.94C437.82,-43.58 480.22,-53.18 632.5,-30 635.76,-29.5 639.1,-28.96 642.47,-28.37"/>
<polygon fill="#63b8ff" stroke="#63b8ff" points="280.93,-62.49 271.54,-67.39 281.94,-69.42 280.93,-62.49"/>
</a>
</g>
</g>
<!-- Node12 -->
<g id="Node000012" class="node">
<title>Node12</title>
<g id="a_Node000012"><a xlink:href="SurveyComplexItem_8cc.html" target="_top" xlink:title=" ">
<polygon fill="white" stroke="#666666" points="274,-30 141,-30 141,0 274,0 274,-30"/>
<text text-anchor="start" x="149" y="-18" font-family="Helvetica,sans-Serif" font-size="10.00">src/MissionManager</text>
<text text-anchor="middle" x="207.5" y="-7" font-family="Helvetica,sans-Serif" font-size="10.00">/SurveyComplexItem.cc</text>
</a>
</g>
</g>
<!-- Node11&#45;&gt;Node12 -->
<g id="edge12_Node000011_Node000012" class="edge">
<title>Node11&#45;&gt;Node12</title>
<g id="a_edge12_Node000011_Node000012"><a xlink:title=" ">
<path fill="none" stroke="#63b8ff" d="M207.5,-55.54C207.5,-46.96 207.5,-37.61 207.5,-30.16"/>
<polygon fill="#63b8ff" stroke="#63b8ff" points="204,-55.8 207.5,-65.8 211,-55.8 204,-55.8"/>
</a>
</g>
</g>
<!-- Node13 -->
<g id="Node000013" class="node">
<title>Node13</title>
<g id="a_Node000013"><a xlink:href="SurveyPlanCreator_8cc.html" target="_top" xlink:title=" ">
<polygon fill="white" stroke="#666666" points="123,-30 0,-30 0,0 123,0 123,-30"/>
<text text-anchor="start" x="8" y="-18" font-family="Helvetica,sans-Serif" font-size="10.00">src/MissionManager</text>
<text text-anchor="middle" x="61.5" y="-7" font-family="Helvetica,sans-Serif" font-size="10.00">/SurveyPlanCreator.cc</text>
</a>
</g>
</g>
<!-- Node11&#45;&gt;Node13 -->
<g id="edge13_Node000011_Node000013" class="edge">
<title>Node11&#45;&gt;Node13</title>
<g id="a_edge13_Node000011_Node000013"><a xlink:title=" ">
<path fill="none" stroke="#63b8ff" d="M166.25,-61.92C143.18,-51.8 114.84,-39.38 93.47,-30.01"/>
<polygon fill="#63b8ff" stroke="#63b8ff" points="164.9,-65.15 175.46,-65.95 167.71,-58.73 164.9,-65.15"/>
</a>
</g>
</g>
<!-- Node16&#45;&gt;Node10 -->
<g id="edge40_Node000016_Node000010" class="edge">
<title>Node16&#45;&gt;Node10</title>
<g id="a_edge40_Node000016_Node000010"><a xlink:title=" ">
<path fill="none" stroke="#63b8ff" d="M1007.34,-264.93C904.13,-246.84 737.08,-210.79 699.5,-162 669.34,-122.84 686.29,-58.63 696.08,-30.25"/>
<polygon fill="#63b8ff" stroke="#63b8ff" points="1006.98,-268.42 1017.44,-266.68 1008.18,-261.52 1006.98,-268.42"/>
</a>
</g>
</g>
<!-- Node16&#45;&gt;Node14 -->
<g id="edge42_Node000016_Node000014" class="edge">
<title>Node16&#45;&gt;Node14</title>
<g id="a_edge42_Node000016_Node000014"><a xlink:title=" ">
<path fill="none" stroke="#63b8ff" d="M1007.07,-272.55C891.62,-264.34 694.25,-247.66 667.5,-228 629.82,-200.32 654.9,-167.52 624.5,-132 611.65,-116.99 593.18,-104.79 577.55,-96.2"/>
<polygon fill="#63b8ff" stroke="#63b8ff" points="1007.08,-276.06 1017.3,-273.27 1007.57,-269.07 1007.08,-276.06"/>
</a>
</g>
</g>
<!-- Node17 -->
<g id="Node000017" class="node">
<title>Node17</title>
<g id="a_Node000017"><a xlink:href="ComplexMissionItem_8cc.html" target="_top" xlink:title=" ">
<polygon fill="white" stroke="#666666" points="1493,-162 1356,-162 1356,-132 1493,-132 1493,-162"/>
<text text-anchor="start" x="1364" y="-150" font-family="Helvetica,sans-Serif" font-size="10.00">src/MissionManager</text>
<text text-anchor="middle" x="1424.5" y="-139" font-family="Helvetica,sans-Serif" font-size="10.00">/ComplexMissionItem.cc</text>
</a>
</g>
</g>
<!-- Node16&#45;&gt;Node17 -->
<g id="edge17_Node000016_Node000017" class="edge">
<title>Node16&#45;&gt;Node17</title>
<g id="a_edge17_Node000016_Node000017"><a xlink:title=" ">
<path fill="none" stroke="#63b8ff" d="M1136.03,-260.28C1203.09,-234.18 1327.09,-185.91 1388.34,-162.08"/>
<polygon fill="#63b8ff" stroke="#63b8ff" points="1134.61,-257.08 1126.56,-263.96 1137.15,-263.6 1134.61,-257.08"/>
</a>
</g>
</g>
<!-- Node18 -->
<g id="Node000018" class="node">
<title>Node18</title>
<g id="a_Node000018"><a xlink:href="ComplexMissionItem_8h.html" target="_top" xlink:title=" ">
<polygon fill="white" stroke="#666666" points="1156.5,-228 1024.5,-228 1024.5,-198 1156.5,-198 1156.5,-228"/>
<text text-anchor="start" x="1032.5" y="-216" font-family="Helvetica,sans-Serif" font-size="10.00">src/MissionManager</text>
<text text-anchor="middle" x="1090.5" y="-205" font-family="Helvetica,sans-Serif" font-size="10.00">/ComplexMissionItem.h</text>
</a>
</g>
</g>
<!-- Node16&#45;&gt;Node18 -->
<g id="edge18_Node000016_Node000018" class="edge">
<title>Node16&#45;&gt;Node18</title>
<g id="a_edge18_Node000016_Node000018"><a xlink:title=" ">
<path fill="none" stroke="#63b8ff" d="M1090.5,-253.54C1090.5,-244.96 1090.5,-235.61 1090.5,-228.16"/>
<polygon fill="#63b8ff" stroke="#63b8ff" points="1087,-253.8 1090.5,-263.8 1094,-253.8 1087,-253.8"/>
</a>
</g>
</g>
<!-- Node22 -->
<g id="Node000022" class="node">
<title>Node22</title>
<g id="a_Node000022"><a xlink:href="FixedWingLandingComplexItem_8cc.html" target="_top" xlink:title=" ">
<polygon fill="white" stroke="#666666" points="1977.5,-30 1789.5,-30 1789.5,0 1977.5,0 1977.5,-30"/>
<text text-anchor="start" x="1797.5" y="-18" font-family="Helvetica,sans-Serif" font-size="10.00">src/MissionManager</text>
<text text-anchor="middle" x="1883.5" y="-7" font-family="Helvetica,sans-Serif" font-size="10.00">/FixedWingLandingComplexItem.cc</text>
</a>
</g>
</g>
<!-- Node16&#45;&gt;Node22 -->
<g id="edge39_Node000016_Node000022" class="edge">
<title>Node16&#45;&gt;Node22</title>
<g id="a_edge39_Node000016_Node000022"><a xlink:title=" ">
<path fill="none" stroke="#63b8ff" d="M1173.8,-264.34C1280.13,-259.2 1992.07,-260.79 2023.5,-228 2063,-186.79 2067.06,-185.28 1962.5,-66 1949.23,-50.86 1930.28,-38.66 1914.27,-30.1"/>
<polygon fill="#63b8ff" stroke="#63b8ff" points="1173.49,-260.85 1163.75,-265.02 1173.97,-267.84 1173.49,-260.85"/>
</a>
</g>
</g>
<!-- Node25 -->
<g id="Node000025" class="node">
<title>Node25</title>
<g id="a_Node000025"><a xlink:href="VTOLLandingComplexItem_8cc.html" target="_top" xlink:title=" ">
<polygon fill="white" stroke="#666666" points="1496,-30 1333,-30 1333,0 1496,0 1496,-30"/>
<text text-anchor="start" x="1341" y="-18" font-family="Helvetica,sans-Serif" font-size="10.00">src/MissionManager</text>
<text text-anchor="middle" x="1414.5" y="-7" font-family="Helvetica,sans-Serif" font-size="10.00">/VTOLLandingComplexItem.cc</text>
</a>
</g>
</g>
<!-- Node16&#45;&gt;Node25 -->
<g id="edge43_Node000016_Node000025" class="edge">
<title>Node16&#45;&gt;Node25</title>
<g id="a_edge43_Node000016_Node000025"><a xlink:title=" ">
<path fill="none" stroke="#63b8ff" d="M1173.71,-263.92C1363.74,-238.46 1844,-235.72 1945.5,-96 1953.34,-85.21 1954.48,-75.86 1945.5,-66 1915.87,-33.45 1637.37,-21.67 1496,-17.76"/>
<polygon fill="#63b8ff" stroke="#63b8ff" points="1173.21,-260.46 1163.79,-265.31 1174.18,-267.39 1173.21,-260.46"/>
</a>
</g>
</g>
<!-- Node30 -->
<g id="Node000030" class="node">
<title>Node30</title>
<g id="a_Node000030"><a xlink:href="StructureScanComplexItem_8cc.html" target="_top" xlink:title=" ">
<polygon fill="white" stroke="#666666" points="1936,-96 1769,-96 1769,-66 1936,-66 1936,-96"/>
<text text-anchor="start" x="1777" y="-84" font-family="Helvetica,sans-Serif" font-size="10.00">src/MissionManager</text>
<text text-anchor="middle" x="1852.5" y="-73" font-family="Helvetica,sans-Serif" font-size="10.00">/StructureScanComplexItem.cc</text>
</a>
</g>
</g>
<!-- Node16&#45;&gt;Node30 -->
<g id="edge41_Node000016_Node000030" class="edge">
<title>Node16&#45;&gt;Node30</title>
<g id="a_edge41_Node000016_Node000030"><a xlink:title=" ">
<path fill="none" stroke="#63b8ff" d="M1173.5,-263.45C1327.59,-236.23 1646.72,-178.85 1695.5,-162 1745.81,-144.62 1800.26,-113.91 1829.98,-96.02"/>
<polygon fill="#63b8ff" stroke="#63b8ff" points="1172.83,-260.01 1163.59,-265.2 1174.05,-266.91 1172.83,-260.01"/>
</a>
</g>
</g>
<!-- Node32 -->
<g id="Node000032" class="node">
<title>Node32</title>
<g id="a_Node000032"><a xlink:href="TerrainProfile_8cc.html" target="_top" xlink:title=" ">
<polygon fill="white" stroke="#666666" points="1686,-156.5 1511,-156.5 1511,-137.5 1686,-137.5 1686,-156.5"/>
<text text-anchor="middle" x="1598.5" y="-144.5" font-family="Helvetica,sans-Serif" font-size="10.00">src/QmlControls/TerrainProfile.cc</text>
</a>
</g>
</g>
<!-- Node16&#45;&gt;Node32 -->
<g id="edge45_Node000016_Node000032" class="edge">
<title>Node16&#45;&gt;Node32</title>
<g id="a_edge45_Node000016_Node000032"><a xlink:title=" ">
<path fill="none" stroke="#63b8ff" d="M1155.27,-261.43C1264.63,-233.44 1482.1,-177.79 1565.18,-156.53"/>
<polygon fill="#63b8ff" stroke="#63b8ff" points="1154.17,-258.09 1145.35,-263.96 1155.9,-264.88 1154.17,-258.09"/>
</a>
</g>
</g>
<!-- Node33 -->
<g id="Node000033" class="node">
<title>Node33</title>
<g id="a_Node000033"><a xlink:href="FlightPathSegment_8cc.html" target="_top" xlink:title=" ">
<polygon fill="white" stroke="#666666" points="2014.5,-228 1868.5,-228 1868.5,-198 2014.5,-198 2014.5,-228"/>
<text text-anchor="start" x="1876.5" y="-216" font-family="Helvetica,sans-Serif" font-size="10.00">src/QmlControls/FlightPath</text>
<text text-anchor="middle" x="1941.5" y="-205" font-family="Helvetica,sans-Serif" font-size="10.00">Segment.cc</text>
</a>
</g>
</g>
<!-- Node16&#45;&gt;Node33 -->
<g id="edge44_Node000016_Node000033" class="edge">
<title>Node16&#45;&gt;Node33</title>
<g id="a_edge44_Node000016_Node000033"><a xlink:title=" ">
<path fill="none" stroke="#63b8ff" d="M1174.13,-263.91C1475.96,-231.06 1556.06,-259.8 1854.5,-228 1859.06,-227.51 1863.75,-226.95 1868.47,-226.33"/>
<polygon fill="#63b8ff" stroke="#63b8ff" points="1173.31,-260.48 1163.76,-265.06 1174.08,-267.44 1173.31,-260.48"/>
</a>
</g>
</g>
<!-- Node18&#45;&gt;Node6 -->
<g id="edge37_Node000018_Node000006" class="edge">
<title>Node18&#45;&gt;Node6</title>
<g id="a_edge37_Node000018_Node000006"><a xlink:title=" ">
<path fill="none" stroke="#63b8ff" d="M1014.2,-203.2C909.49,-191.13 722.12,-169.52 615.5,-157.23"/>
<polygon fill="#63b8ff" stroke="#63b8ff" points="1014.05,-206.71 1024.38,-204.38 1014.85,-199.75 1014.05,-206.71"/>
</a>
</g>
</g>
<!-- Node18&#45;&gt;Node17 -->
<g id="edge19_Node000018_Node000017" class="edge">
<title>Node18&#45;&gt;Node17</title>
<g id="a_edge19_Node000018_Node000017"><a xlink:title=" ">
<path fill="none" stroke="#63b8ff" d="M1166.92,-197.36C1223.87,-186.44 1300.97,-171.67 1355.94,-161.14"/>
<polygon fill="#63b8ff" stroke="#63b8ff" points="1166.05,-193.96 1156.89,-199.28 1167.37,-200.83 1166.05,-193.96"/>
</a>
</g>
</g>
<!-- Node19 -->
<g id="Node000019" class="node">
<title>Node19</title>
<g id="a_Node000019"><a xlink:href="KMLPlanDomDocument_8cc.html" target="_top" xlink:title=" ">
<polygon fill="white" stroke="#666666" points="858,-162 709,-162 709,-132 858,-132 858,-162"/>
<text text-anchor="start" x="717" y="-150" font-family="Helvetica,sans-Serif" font-size="10.00">src/MissionManager</text>
<text text-anchor="middle" x="783.5" y="-139" font-family="Helvetica,sans-Serif" font-size="10.00">/KMLPlanDomDocument.cc</text>
</a>
</g>
</g>
<!-- Node18&#45;&gt;Node19 -->
<g id="edge20_Node000018_Node000019" class="edge">
<title>Node18&#45;&gt;Node19</title>
<g id="a_edge20_Node000018_Node000019"><a xlink:title=" ">
<path fill="none" stroke="#63b8ff" d="M1014.43,-196.14C964.2,-185.67 898.99,-172.08 850.68,-162"/>
<polygon fill="#63b8ff" stroke="#63b8ff" points="1013.76,-199.58 1024.26,-198.19 1015.19,-192.72 1013.76,-199.58"/>
</a>
</g>
</g>
<!-- Node20 -->
<g id="Node000020" class="node">
<title>Node20</title>
<g id="a_Node000020"><a xlink:href="LandingComplexItem_8h.html" target="_top" xlink:title=" ">
<polygon fill="white" stroke="#666666" points="1157,-162 1024,-162 1024,-132 1157,-132 1157,-162"/>
<text text-anchor="start" x="1032" y="-150" font-family="Helvetica,sans-Serif" font-size="10.00">src/MissionManager</text>
<text text-anchor="middle" x="1090.5" y="-139" font-family="Helvetica,sans-Serif" font-size="10.00">/LandingComplexItem.h</text>
</a>
</g>
</g>
<!-- Node18&#45;&gt;Node20 -->
<g id="edge21_Node000018_Node000020" class="edge">
<title>Node18&#45;&gt;Node20</title>
<g id="a_edge21_Node000018_Node000020"><a xlink:title=" ">
<path fill="none" stroke="#63b8ff" d="M1090.5,-187.54C1090.5,-178.96 1090.5,-169.61 1090.5,-162.16"/>
<polygon fill="#63b8ff" stroke="#63b8ff" points="1087,-187.8 1090.5,-197.8 1094,-187.8 1087,-187.8"/>
</a>
</g>
</g>
<!-- Node26 -->
<g id="Node000026" class="node">
<title>Node26</title>
<g id="a_Node000026"><a xlink:href="MissionSettingsItem_8h.html" target="_top" xlink:title=" ">
<polygon fill="white" stroke="#666666" points="1004.5,-162 876.5,-162 876.5,-132 1004.5,-132 1004.5,-162"/>
<text text-anchor="start" x="884.5" y="-150" font-family="Helvetica,sans-Serif" font-size="10.00">src/MissionManager</text>
<text text-anchor="middle" x="940.5" y="-139" font-family="Helvetica,sans-Serif" font-size="10.00">/MissionSettingsItem.h</text>
</a>
</g>
</g>
<!-- Node18&#45;&gt;Node26 -->
<g id="edge29_Node000018_Node000026" class="edge">
<title>Node18&#45;&gt;Node26</title>
<g id="a_edge29_Node000018_Node000026"><a xlink:title=" ">
<path fill="none" stroke="#63b8ff" d="M1048.12,-193.92C1024.42,-183.8 995.31,-171.38 973.34,-162.01"/>
<polygon fill="#63b8ff" stroke="#63b8ff" points="1047.01,-197.25 1057.58,-197.95 1049.76,-190.81 1047.01,-197.25"/>
</a>
</g>
</g>
<!-- Node29 -->
<g id="Node000029" class="node">
<title>Node29</title>
<g id="a_Node000029"><a xlink:href="StructureScanComplexItem_8h.html" target="_top" xlink:title=" ">
<polygon fill="white" stroke="#666666" points="1337.5,-162 1175.5,-162 1175.5,-132 1337.5,-132 1337.5,-162"/>
<text text-anchor="start" x="1183.5" y="-150" font-family="Helvetica,sans-Serif" font-size="10.00">src/MissionManager</text>
<text text-anchor="middle" x="1256.5" y="-139" font-family="Helvetica,sans-Serif" font-size="10.00">/StructureScanComplexItem.h</text>
</a>
</g>
</g>
<!-- Node18&#45;&gt;Node29 -->
<g id="edge33_Node000018_Node000029" class="edge">
<title>Node18&#45;&gt;Node29</title>
<g id="a_edge33_Node000018_Node000029"><a xlink:title=" ">
<path fill="none" stroke="#63b8ff" d="M1136.35,-194.32C1162.77,-184.14 1195.52,-171.51 1220.16,-162.01"/>
<polygon fill="#63b8ff" stroke="#63b8ff" points="1135,-191.09 1126.93,-197.95 1137.52,-197.62 1135,-191.09"/>
</a>
</g>
</g>
<!-- Node18&#45;&gt;Node32 -->
<g id="edge38_Node000018_Node000032" class="edge">
<title>Node18&#45;&gt;Node32</title>
<g id="a_edge38_Node000018_Node000032"><a xlink:title=" ">
<path fill="none" stroke="#63b8ff" d="M1166.64,-203.32C1249.37,-193.75 1385.44,-177.64 1502.5,-162 1515.19,-160.31 1528.8,-158.38 1541.68,-156.52"/>
<polygon fill="#63b8ff" stroke="#63b8ff" points="1166.1,-199.85 1156.57,-204.48 1166.9,-206.81 1166.1,-199.85"/>
</a>
</g>
</g>
<!-- Node21 -->
<g id="Node000021" class="node">
<title>Node21</title>
<g id="a_Node000021"><a xlink:href="FixedWingLandingComplexItem_8h.html" target="_top" xlink:title=" ">
<polygon fill="white" stroke="#666666" points="1537,-96 1354,-96 1354,-66 1537,-66 1537,-96"/>
<text text-anchor="start" x="1362" y="-84" font-family="Helvetica,sans-Serif" font-size="10.00">src/MissionManager</text>
<text text-anchor="middle" x="1445.5" y="-73" font-family="Helvetica,sans-Serif" font-size="10.00">/FixedWingLandingComplexItem.h</text>
</a>
</g>
</g>
<!-- Node20&#45;&gt;Node21 -->
<g id="edge22_Node000020_Node000021" class="edge">
<title>Node20&#45;&gt;Node21</title>
<g id="a_edge22_Node000020_Node000021"><a xlink:title=" ">
<path fill="none" stroke="#63b8ff" d="M1167.12,-131.89C1240.6,-118.55 1313.22,-105.55 1366.71,-96.01"/>
<polygon fill="#63b8ff" stroke="#63b8ff" points="1166.44,-128.46 1157.22,-133.69 1167.69,-135.35 1166.44,-128.46"/>
</a>
</g>
</g>
<!-- Node23 -->
<g id="Node000023" class="node">
<title>Node23</title>
<g id="a_Node000023"><a xlink:href="LandingComplexItem_8cc.html" target="_top" xlink:title=" ">
<polygon fill="white" stroke="#666666" points="1159,-96 1022,-96 1022,-66 1159,-66 1159,-96"/>
<text text-anchor="start" x="1030" y="-84" font-family="Helvetica,sans-Serif" font-size="10.00">src/MissionManager</text>
<text text-anchor="middle" x="1090.5" y="-73" font-family="Helvetica,sans-Serif" font-size="10.00">/LandingComplexItem.cc</text>
</a>
</g>
</g>
<!-- Node20&#45;&gt;Node23 -->
<g id="edge25_Node000020_Node000023" class="edge">
<title>Node20&#45;&gt;Node23</title>
<g id="a_edge25_Node000020_Node000023"><a xlink:title=" ">
<path fill="none" stroke="#63b8ff" d="M1090.5,-121.54C1090.5,-112.96 1090.5,-103.61 1090.5,-96.16"/>
<polygon fill="#63b8ff" stroke="#63b8ff" points="1087,-121.8 1090.5,-131.8 1094,-121.8 1087,-121.8"/>
</a>
</g>
</g>
<!-- Node24 -->
<g id="Node000024" class="node">
<title>Node24</title>
<g id="a_Node000024"><a xlink:href="VTOLLandingComplexItem_8h.html" target="_top" xlink:title=" ">
<polygon fill="white" stroke="#666666" points="1335.5,-96 1177.5,-96 1177.5,-66 1335.5,-66 1335.5,-96"/>
<text text-anchor="start" x="1185.5" y="-84" font-family="Helvetica,sans-Serif" font-size="10.00">src/MissionManager</text>
<text text-anchor="middle" x="1256.5" y="-73" font-family="Helvetica,sans-Serif" font-size="10.00">/VTOLLandingComplexItem.h</text>
</a>
</g>
</g>
<!-- Node20&#45;&gt;Node24 -->
<g id="edge26_Node000020_Node000024" class="edge">
<title>Node20&#45;&gt;Node24</title>
<g id="a_edge26_Node000020_Node000024"><a xlink:title=" ">
<path fill="none" stroke="#63b8ff" d="M1136.35,-128.32C1162.77,-118.14 1195.52,-105.51 1220.16,-96.01"/>
<polygon fill="#63b8ff" stroke="#63b8ff" points="1135,-125.09 1126.93,-131.95 1137.52,-131.62 1135,-125.09"/>
</a>
</g>
</g>
<!-- Node21&#45;&gt;Node10 -->
<g id="edge24_Node000021_Node000010" class="edge">
<title>Node21&#45;&gt;Node10</title>
<g id="a_edge24_Node000021_Node000010"><a xlink:title=" ">
<path fill="none" stroke="#63b8ff" d="M1343.68,-65.96C1122.21,-42.31 872.24,-26.09 760.56,-19.4"/>
<polygon fill="#63b8ff" stroke="#63b8ff" points="1343.55,-69.46 1353.87,-67.05 1344.3,-62.51 1343.55,-69.46"/>
</a>
</g>
</g>
<!-- Node21&#45;&gt;Node22 -->
<g id="edge23_Node000021_Node000022" class="edge">
<title>Node21&#45;&gt;Node22</title>
<g id="a_edge23_Node000021_Node000022"><a xlink:title=" ">
<path fill="none" stroke="#63b8ff" d="M1547.2,-65.14C1620.3,-54.46 1718.13,-40.16 1789.42,-29.75"/>
<polygon fill="#63b8ff" stroke="#63b8ff" points="1546.44,-61.71 1537.05,-66.62 1547.45,-68.64 1546.44,-61.71"/>
</a>
</g>
</g>
<!-- Node24&#45;&gt;Node10 -->
<g id="edge27_Node000024_Node000010" class="edge">
<title>Node24&#45;&gt;Node10</title>
<g id="a_edge27_Node000024_Node000010"><a xlink:title=" ">
<path fill="none" stroke="#63b8ff" d="M1167.81,-66.04C1167.7,-66.03 1167.6,-66.01 1167.5,-66 1021.7,-46.72 849.48,-29.74 760.83,-21.42"/>
<polygon fill="#63b8ff" stroke="#63b8ff" points="1167.05,-69.47 1177.43,-67.36 1168,-62.53 1167.05,-69.47"/>
</a>
</g>
</g>
<!-- Node24&#45;&gt;Node25 -->
<g id="edge28_Node000024_Node000025" class="edge">
<title>Node24&#45;&gt;Node25</title>
<g id="a_edge28_Node000024_Node000025"><a xlink:title=" ">
<path fill="none" stroke="#63b8ff" d="M1300.47,-62.19C1325.56,-52.02 1356.57,-39.47 1379.91,-30.01"/>
<polygon fill="#63b8ff" stroke="#63b8ff" points="1299.13,-58.96 1291.17,-65.95 1301.76,-65.44 1299.13,-58.96"/>
</a>
</g>
</g>
<!-- Node26&#45;&gt;Node10 -->
<g id="edge30_Node000026_Node000010" class="edge">
<title>Node26&#45;&gt;Node10</title>
<g id="a_edge30_Node000026_Node000010"><a xlink:title=" ">
<path fill="none" stroke="#63b8ff" d="M866.34,-131.66C802.53,-119 719.88,-101.69 714.5,-96 697.78,-78.31 697.72,-47.99 699.44,-30.2"/>
<polygon fill="#63b8ff" stroke="#63b8ff" points="865.91,-135.14 876.4,-133.65 867.27,-128.27 865.91,-135.14"/>
</a>
</g>
</g>
<!-- Node27 -->
<g id="Node000027" class="node">
<title>Node27</title>
<g id="a_Node000027"><a xlink:href="MissionSettingsItem_8cc.html" target="_top" xlink:title=" ">
<polygon fill="white" stroke="#666666" points="857,-96 724,-96 724,-66 857,-66 857,-96"/>
<text text-anchor="start" x="732" y="-84" font-family="Helvetica,sans-Serif" font-size="10.00">src/MissionManager</text>
<text text-anchor="middle" x="790.5" y="-73" font-family="Helvetica,sans-Serif" font-size="10.00">/MissionSettingsItem.cc</text>
</a>
</g>
</g>
<!-- Node26&#45;&gt;Node27 -->
<g id="edge31_Node000026_Node000027" class="edge">
<title>Node26&#45;&gt;Node27</title>
<g id="a_edge31_Node000026_Node000027"><a xlink:title=" ">
<path fill="none" stroke="#63b8ff" d="M898.12,-127.92C874.42,-117.8 845.31,-105.38 823.34,-96.01"/>
<polygon fill="#63b8ff" stroke="#63b8ff" points="897.01,-131.25 907.58,-131.95 899.76,-124.81 897.01,-131.25"/>
</a>
</g>
</g>
<!-- Node28 -->
<g id="Node000028" class="node">
<title>Node28</title>
<g id="a_Node000028"><a xlink:href="TakeoffMissionItem_8cc.html" target="_top" xlink:title=" ">
<polygon fill="white" stroke="#666666" points="1003.5,-96 875.5,-96 875.5,-66 1003.5,-66 1003.5,-96"/>
<text text-anchor="start" x="883.5" y="-84" font-family="Helvetica,sans-Serif" font-size="10.00">src/MissionManager</text>
<text text-anchor="middle" x="939.5" y="-73" font-family="Helvetica,sans-Serif" font-size="10.00">/TakeoffMissionItem.cc</text>
</a>
</g>
</g>
<!-- Node26&#45;&gt;Node28 -->
<g id="edge32_Node000026_Node000028" class="edge">
<title>Node26&#45;&gt;Node28</title>
<g id="a_edge32_Node000026_Node000028"><a xlink:title=" ">
<path fill="none" stroke="#63b8ff" d="M940.12,-121.54C939.98,-112.96 939.84,-103.61 939.72,-96.16"/>
<polygon fill="#63b8ff" stroke="#63b8ff" points="936.62,-121.85 940.28,-131.8 943.62,-121.74 936.62,-121.85"/>
</a>
</g>
</g>
<!-- Node29&#45;&gt;Node10 -->
<g id="edge34_Node000029_Node000010" class="edge">
<title>Node29&#45;&gt;Node10</title>
<g id="a_edge34_Node000029_Node000010"><a xlink:title=" ">
<path fill="none" stroke="#63b8ff" d="M1347.63,-131.71C1431.43,-118.35 1543.22,-99.9 1546.5,-96 1555.09,-85.8 1555.65,-75.7 1546.5,-66 1519.57,-37.43 948.51,-21.71 760.75,-17.3"/>
<polygon fill="#63b8ff" stroke="#63b8ff" points="1346.89,-128.28 1337.56,-133.31 1347.99,-135.19 1346.89,-128.28"/>
</a>
</g>
</g>
<!-- Node29&#45;&gt;Node30 -->
<g id="edge35_Node000029_Node000030" class="edge">
<title>Node29&#45;&gt;Node30</title>
<g id="a_edge35_Node000029_Node000030"><a xlink:title=" ">
<path fill="none" stroke="#63b8ff" d="M1347.89,-131.89C1531.56,-110.07 1580.33,-117.52 1760.5,-96 1763.23,-95.67 1766,-95.33 1768.79,-94.97"/>
<polygon fill="#63b8ff" stroke="#63b8ff" points="1347.41,-128.42 1337.9,-133.09 1348.25,-135.37 1347.41,-128.42"/>
</a>
</g>
</g>
<!-- Node31 -->
<g id="Node000031" class="node">
<title>Node31</title>
<g id="a_Node000031"><a xlink:href="StructureScanPlanCreator_8cc.html" target="_top" xlink:title=" ">
<polygon fill="white" stroke="#666666" points="1751,-96 1594,-96 1594,-66 1751,-66 1751,-96"/>
<text text-anchor="start" x="1602" y="-84" font-family="Helvetica,sans-Serif" font-size="10.00">src/MissionManager</text>
<text text-anchor="middle" x="1672.5" y="-73" font-family="Helvetica,sans-Serif" font-size="10.00">/StructureScanPlanCreator.cc</text>
</a>
</g>
</g>
<!-- Node29&#45;&gt;Node31 -->
<g id="edge36_Node000029_Node000031" class="edge">
<title>Node29&#45;&gt;Node31</title>
<g id="a_edge36_Node000029_Node000031"><a xlink:title=" ">
<path fill="none" stroke="#63b8ff" d="M1348.03,-131.77C1437.91,-117.89 1530.13,-103.76 1593.77,-94.03"/>
<polygon fill="#63b8ff" stroke="#63b8ff" points="1347.28,-128.34 1337.93,-133.32 1348.35,-135.26 1347.28,-128.34"/>
</a>
</g>
</g>
<!-- Node37&#45;&gt;Node4 -->
<g id="edge51_Node000037_Node000004" class="edge">
<title>Node37&#45;&gt;Node4</title>
<g id="a_edge51_Node000037_Node000004"><a xlink:title=" ">
<path fill="none" stroke="#63b8ff" d="M1370.29,-331.19C1341.51,-318.58 1298.35,-299.66 1273.34,-288.7"/>
<polygon fill="#63b8ff" stroke="#63b8ff" points="1369.25,-334.56 1379.81,-335.37 1372.06,-328.15 1369.25,-334.56"/>
</a>
</g>
</g>
<!-- Node37&#45;&gt;Node36 -->
<g id="edge52_Node000037_Node000036" class="edge">
<title>Node37&#45;&gt;Node36</title>
<g id="a_edge52_Node000037_Node000036"><a xlink:title=" ">
<path fill="none" stroke="#63b8ff" d="M1436.65,-332.35C1470.93,-321.59 1521.93,-305.59 1558.51,-294.12"/>
<polygon fill="#63b8ff" stroke="#63b8ff" points="1435.51,-329.04 1427.01,-335.37 1437.6,-335.71 1435.51,-329.04"/>
</a>
</g>
</g>
<!-- Node38 -->
<g id="Node000038" class="node">
<title>Node38</title>
<g id="a_Node000038"><a xlink:href="TerrainTileManager_8cc.html" target="_top" xlink:title=" ">
<polygon fill="white" stroke="#666666" points="1519.5,-288.5 1343.5,-288.5 1343.5,-269.5 1519.5,-269.5 1519.5,-288.5"/>
<text text-anchor="middle" x="1431.5" y="-276.5" font-family="Helvetica,sans-Serif" font-size="10.00">src/Terrain/TerrainTileManager.cc</text>
</a>
</g>
</g>
<!-- Node37&#45;&gt;Node38 -->
<g id="edge53_Node000037_Node000038" class="edge">
<title>Node37&#45;&gt;Node38</title>
<g id="a_edge53_Node000037_Node000038"><a xlink:title=" ">
<path fill="none" stroke="#63b8ff" d="M1408.41,-326.18C1414.47,-314.05 1422.25,-298.51 1427.05,-288.91"/>
<polygon fill="#63b8ff" stroke="#63b8ff" points="1405.16,-324.86 1403.82,-335.37 1411.42,-327.99 1405.16,-324.86"/>
</a>
</g>
</g>
</g>
</svg>

<g id="navigator" transform="translate(0 0)" fill="#404254">
  <rect fill="#f2f5e9" fill-opacity="0.5" stroke="#606060" stroke-width=".5" x="0" y="0" width="60" height="60"/>
  <use id="zoomplus" xlink:href="#zoomPlus" x="17" y="9" onmousedown="handleZoom(evt,'in')"/>
  <use id="zoomminus" xlink:href="#zoomMin" x="42" y="9" onmousedown="handleZoom(evt,'out')"/>
  <use id="reset" xlink:href="#resetDef" x="30" y="36" onmousedown="handleReset()"/>
   <use id="arrowup" xlink:href="#arrowUp" x="0" y="0" onmousedown="handlePan(0,-1)"/>
  <use id="arrowright" xlink:href="#arrowRight" x="0" y="0" onmousedown="handlePan(1,0)"/>
  <use id="arrowdown" xlink:href="#arrowDown" x="0" y="0" onmousedown="handlePan(0,1)"/>
  <use id="arrowleft" xlink:href="#arrowLeft" x="0" y="0" onmousedown="handlePan(-1,0)"/>
</g>
<svg viewBox="0 0 15 15" width="100%" height="30px" preserveAspectRatio="xMaxYMin meet">
 <g id="arrow_out" transform="scale(0.3 0.3)">
  <a xlink:href="TerrainQueryInterface_8h__dep__incl_org.svg" target="_base">
   <rect id="button" ry="5" rx="5" y="6" x="6" height="38" width="38"
        fill="#f2f5e9" fill-opacity="0.5" stroke="#606060" stroke-width="1.0"/>
   <path id="arrow"
     d="M 11.500037,31.436501 C 11.940474,20.09759 22.043105,11.32322 32.158766,21.979434 L 37.068811,17.246167 C 37.068811,17.246167 37.088388,32 37.088388,32 L 22.160133,31.978069 C 22.160133,31.978069 26.997745,27.140456 26.997745,27.140456 C 18.528582,18.264221 13.291696,25.230495 11.500037,31.436501 z"
     style="fill:#404040;"/>
  </a>
 </g>
</svg>

<style type='text/css'>
<![CDATA[
[data-mouse-over-selected='false'] { opacity: 0.7; }
[data-mouse-over-selected='true']  { opacity: 1.0; }
]]>
</style>
<script type="application/ecmascript"><![CDATA[
document.addEventListener('DOMContentLoaded', (event) => {
  highlightEdges();
  highlightAdjacentNodes();
});
]]></script>
</svg>
