<?xml version="1.0" encoding="UTF-8" standalone="no"?>
<!DOCTYPE svg PUBLIC "-//W3C//DTD SVG 1.1//EN"
 "http://www.w3.org/Graphics/SVG/1.1/DTD/svg11.dtd">
<!-- Generated by graphviz version 2.43.0 (0)
 -->
<!-- Title: src/MissionManager/TransectStyleComplexItem.h Pages: 1 -->
<svg width="773pt" height="170pt"
 viewBox="0.00 0.00 772.50 170.00" xmlns="http://www.w3.org/2000/svg" xmlns:xlink="http://www.w3.org/1999/xlink">
<g id="graph0" class="graph" transform="scale(1 1) rotate(0) translate(4 166)">
<title>src/MissionManager/TransectStyleComplexItem.h</title>
<!-- Node1 -->
<g id="Node000001" class="node">
<title>Node1</title>
<g id="a_Node000001"><a xlink:title=" ">
<polygon fill="#999999" stroke="#666666" points="598.5,-162 438.5,-162 438.5,-132 598.5,-132 598.5,-162"/>
<text text-anchor="start" x="446.5" y="-150" font-family="Helvetica,sans-Serif" font-size="10.00">src/MissionManager</text>
<text text-anchor="middle" x="518.5" y="-139" font-family="Helvetica,sans-Serif" font-size="10.00">/TransectStyleComplexItem.h</text>
</a>
</g>
</g>
<!-- Node2 -->
<g id="Node000002" class="node">
<title>Node2</title>
<g id="a_Node000002"><a xlink:href="CorridorScanComplexItem_8h.html" target="_top" xlink:title=" ">
<polygon fill="white" stroke="#666666" points="402,-96 245,-96 245,-66 402,-66 402,-96"/>
<text text-anchor="start" x="253" y="-84" font-family="Helvetica,sans-Serif" font-size="10.00">src/MissionManager</text>
<text text-anchor="middle" x="323.5" y="-73" font-family="Helvetica,sans-Serif" font-size="10.00">/CorridorScanComplexItem.h</text>
</a>
</g>
</g>
<!-- Node1&#45;&gt;Node2 -->
<g id="edge1_Node000001_Node000002" class="edge">
<title>Node1&#45;&gt;Node2</title>
<g id="a_edge1_Node000001_Node000002"><a xlink:title=" ">
<path fill="none" stroke="#63b8ff" d="M465.86,-128.72C434.61,-118.47 395.51,-105.63 366.19,-96.01"/>
<polygon fill="#63b8ff" stroke="#63b8ff" points="465.11,-132.16 475.71,-131.95 467.3,-125.51 465.11,-132.16"/>
</a>
</g>
</g>
<!-- Node6 -->
<g id="Node000006" class="node">
<title>Node6</title>
<g id="a_Node000006"><a xlink:href="SurveyComplexItem_8h.html" target="_top" xlink:title=" ">
<polygon fill="white" stroke="#666666" points="582.5,-96 454.5,-96 454.5,-66 582.5,-66 582.5,-96"/>
<text text-anchor="start" x="462.5" y="-84" font-family="Helvetica,sans-Serif" font-size="10.00">src/MissionManager</text>
<text text-anchor="middle" x="518.5" y="-73" font-family="Helvetica,sans-Serif" font-size="10.00">/SurveyComplexItem.h</text>
</a>
</g>
</g>
<!-- Node1&#45;&gt;Node6 -->
<g id="edge5_Node000001_Node000006" class="edge">
<title>Node1&#45;&gt;Node6</title>
<g id="a_edge5_Node000001_Node000006"><a xlink:title=" ">
<path fill="none" stroke="#63b8ff" d="M518.5,-121.54C518.5,-112.96 518.5,-103.61 518.5,-96.16"/>
<polygon fill="#63b8ff" stroke="#63b8ff" points="515,-121.8 518.5,-131.8 522,-121.8 515,-121.8"/>
</a>
</g>
</g>
<!-- Node9 -->
<g id="Node000009" class="node">
<title>Node9</title>
<g id="a_Node000009"><a xlink:href="TransectStyleComplexItem_8cc.html" target="_top" xlink:title=" ">
<polygon fill="white" stroke="#666666" points="764.5,-96 600.5,-96 600.5,-66 764.5,-66 764.5,-96"/>
<text text-anchor="start" x="608.5" y="-84" font-family="Helvetica,sans-Serif" font-size="10.00">src/MissionManager</text>
<text text-anchor="middle" x="682.5" y="-73" font-family="Helvetica,sans-Serif" font-size="10.00">/TransectStyleComplexItem.cc</text>
</a>
</g>
</g>
<!-- Node1&#45;&gt;Node9 -->
<g id="edge9_Node000001_Node000009" class="edge">
<title>Node1&#45;&gt;Node9</title>
<g id="a_edge9_Node000001_Node000009"><a xlink:title=" ">
<path fill="none" stroke="#63b8ff" d="M564.14,-128.19C590.19,-118.02 622.37,-105.47 646.59,-96.01"/>
<polygon fill="#63b8ff" stroke="#63b8ff" points="562.53,-125.06 554.49,-131.95 565.08,-131.58 562.53,-125.06"/>
</a>
</g>
</g>
<!-- Node3 -->
<g id="Node000003" class="node">
<title>Node3</title>
<g id="a_Node000003"><a xlink:href="CorridorScanComplexItem_8cc.html" target="_top" xlink:title=" ">
<polygon fill="white" stroke="#666666" points="161,-30 0,-30 0,0 161,0 161,-30"/>
<text text-anchor="start" x="8" y="-18" font-family="Helvetica,sans-Serif" font-size="10.00">src/MissionManager</text>
<text text-anchor="middle" x="80.5" y="-7" font-family="Helvetica,sans-Serif" font-size="10.00">/CorridorScanComplexItem.cc</text>
</a>
</g>
</g>
<!-- Node2&#45;&gt;Node3 -->
<g id="edge2_Node000002_Node000003" class="edge">
<title>Node2&#45;&gt;Node3</title>
<g id="a_edge2_Node000002_Node000003"><a xlink:title=" ">
<path fill="none" stroke="#63b8ff" d="M260.42,-63.39C221.08,-53.03 171.03,-39.84 133.7,-30.01"/>
<polygon fill="#63b8ff" stroke="#63b8ff" points="259.61,-66.79 270.17,-65.95 261.39,-60.02 259.61,-66.79"/>
</a>
</g>
</g>
<!-- Node4 -->
<g id="Node000004" class="node">
<title>Node4</title>
<g id="a_Node000004"><a xlink:href="CorridorScanPlanCreator_8cc.html" target="_top" xlink:title=" ">
<polygon fill="white" stroke="#666666" points="331.5,-30 179.5,-30 179.5,0 331.5,0 331.5,-30"/>
<text text-anchor="start" x="187.5" y="-18" font-family="Helvetica,sans-Serif" font-size="10.00">src/MissionManager</text>
<text text-anchor="middle" x="255.5" y="-7" font-family="Helvetica,sans-Serif" font-size="10.00">/CorridorScanPlanCreator.cc</text>
</a>
</g>
</g>
<!-- Node2&#45;&gt;Node4 -->
<g id="edge3_Node000002_Node000004" class="edge">
<title>Node2&#45;&gt;Node4</title>
<g id="a_edge3_Node000002_Node000004"><a xlink:title=" ">
<path fill="none" stroke="#63b8ff" d="M301.11,-58.92C291.08,-49.49 279.52,-38.61 270.55,-30.16"/>
<polygon fill="#63b8ff" stroke="#63b8ff" points="298.73,-61.49 308.41,-65.8 303.53,-56.39 298.73,-61.49"/>
</a>
</g>
</g>
<!-- Node5 -->
<g id="Node000005" class="node">
<title>Node5</title>
<g id="a_Node000005"><a xlink:href="MissionController_8cc.html" target="_top" xlink:title=" ">
<polygon fill="white" stroke="#666666" points="467.5,-30 349.5,-30 349.5,0 467.5,0 467.5,-30"/>
<text text-anchor="start" x="357.5" y="-18" font-family="Helvetica,sans-Serif" font-size="10.00">src/MissionManager</text>
<text text-anchor="middle" x="408.5" y="-7" font-family="Helvetica,sans-Serif" font-size="10.00">/MissionController.cc</text>
</a>
</g>
</g>
<!-- Node2&#45;&gt;Node5 -->
<g id="edge4_Node000002_Node000005" class="edge">
<title>Node2&#45;&gt;Node5</title>
<g id="a_edge4_Node000002_Node000005"><a xlink:title=" ">
<path fill="none" stroke="#63b8ff" d="M350.39,-59.75C363.17,-50.13 378.14,-38.86 389.69,-30.16"/>
<polygon fill="#63b8ff" stroke="#63b8ff" points="348.25,-56.99 342.36,-65.8 352.46,-62.58 348.25,-56.99"/>
</a>
</g>
</g>
<!-- Node6&#45;&gt;Node5 -->
<g id="edge6_Node000006_Node000005" class="edge">
<title>Node6&#45;&gt;Node5</title>
<g id="a_edge6_Node000006_Node000005"><a xlink:title=" ">
<path fill="none" stroke="#63b8ff" d="M485.32,-60.69C468.34,-50.82 448.05,-39.01 432.58,-30.01"/>
<polygon fill="#63b8ff" stroke="#63b8ff" points="483.96,-63.95 494.36,-65.95 487.48,-57.9 483.96,-63.95"/>
</a>
</g>
</g>
<!-- Node7 -->
<g id="Node000007" class="node">
<title>Node7</title>
<g id="a_Node000007"><a xlink:href="SurveyComplexItem_8cc.html" target="_top" xlink:title=" ">
<polygon fill="white" stroke="#666666" points="619,-30 486,-30 486,0 619,0 619,-30"/>
<text text-anchor="start" x="494" y="-18" font-family="Helvetica,sans-Serif" font-size="10.00">src/MissionManager</text>
<text text-anchor="middle" x="552.5" y="-7" font-family="Helvetica,sans-Serif" font-size="10.00">/SurveyComplexItem.cc</text>
</a>
</g>
</g>
<!-- Node6&#45;&gt;Node7 -->
<g id="edge7_Node000006_Node000007" class="edge">
<title>Node6&#45;&gt;Node7</title>
<g id="a_edge7_Node000006_Node000007"><a xlink:title=" ">
<path fill="none" stroke="#63b8ff" d="M530.74,-56.96C535.5,-48 540.8,-38.03 544.98,-30.16"/>
<polygon fill="#63b8ff" stroke="#63b8ff" points="527.65,-55.32 526.05,-65.8 533.83,-58.61 527.65,-55.32"/>
</a>
</g>
</g>
<!-- Node8 -->
<g id="Node000008" class="node">
<title>Node8</title>
<g id="a_Node000008"><a xlink:href="SurveyPlanCreator_8cc.html" target="_top" xlink:title=" ">
<polygon fill="white" stroke="#666666" points="760,-30 637,-30 637,0 760,0 760,-30"/>
<text text-anchor="start" x="645" y="-18" font-family="Helvetica,sans-Serif" font-size="10.00">src/MissionManager</text>
<text text-anchor="middle" x="698.5" y="-7" font-family="Helvetica,sans-Serif" font-size="10.00">/SurveyPlanCreator.cc</text>
</a>
</g>
</g>
<!-- Node6&#45;&gt;Node8 -->
<g id="edge8_Node000006_Node000008" class="edge">
<title>Node6&#45;&gt;Node8</title>
<g id="a_edge8_Node000006_Node000008"><a xlink:title=" ">
<path fill="none" stroke="#63b8ff" d="M567.47,-62.59C596.24,-52.36 632.15,-39.59 659.09,-30.01"/>
<polygon fill="#63b8ff" stroke="#63b8ff" points="566.25,-59.31 558,-65.95 568.6,-65.9 566.25,-59.31"/>
</a>
</g>
</g>
</g>
</svg>
