<?xml version="1.0" encoding="UTF-8" standalone="no"?>
<!DOCTYPE svg PUBLIC "-//W3C//DTD SVG 1.1//EN"
 "http://www.w3.org/Graphics/SVG/1.1/DTD/svg11.dtd">
<!-- Generated by graphviz version 2.43.0 (0)
 -->
<!-- Title: src/AnalyzeView/GeoTag/ULogParser.cc Pages: 1 -->
<!--zoomable 324 -->

<svg id="main" version="1.1" xmlns="http://www.w3.org/2000/svg" xmlns:xlink="http://www.w3.org/1999/xlink" xml:space="preserve" onload="init(evt)">
<style type="text/css"><![CDATA[
.node, .edge {opacity: 0.7;}
.node.selected, .edge.selected {opacity: 1;}
.edge:hover path { stroke: red; }
.edge:hover polygon { stroke: red; fill: red; }
]]></style>

<defs>
  <circle id="rim" cx="0" cy="0" r="7"/>
  <circle id="rim2" cx="0" cy="0" r="3.5"/>
  <g id="zoomPlus">
    <use xlink:href="#rim" fill="#404040"><set attributeName="fill" to="#808080" begin="zoomplus.mouseover" end="zoomplus.mouseout"/></use>
    <path d="M-4,0h8M0,-4v8" fill="none" stroke="white" stroke-width="1.5" pointer-events="none"/>
  </g>
  <g id="zoomMin">
    <use xlink:href="#rim" fill="#404040"><set attributeName="fill" to="#808080" begin="zoomminus.mouseover" end="zoomminus.mouseout"/></use>
    <path d="M-4,0h8" fill="none" stroke="white" stroke-width="1.5" pointer-events="none"/>
  </g>
  <g id="arrowUp" transform="translate(30 24)">
    <use xlink:href="#rim"/>
    <path pointer-events="none" fill="none" stroke="white" stroke-width="1.5" d="M0,-3.0v7 M-2.5,-0.5L0,-3.0L2.5,-0.5"/>
  </g>
  <g id="arrowRight" transform="rotate(90) translate(36 -43)">
    <use xlink:href="#rim"/>
    <path pointer-events="none" fill="none" stroke="white" stroke-width="1.5" d="M0,-3.0v7 M-2.5,-0.5L0,-3.0L2.5,-0.5"/>
  </g>
  <g id="arrowDown" transform="rotate(180) translate(-30 -48)">
    <use xlink:href="#rim"/>
    <path pointer-events="none" fill="none" stroke="white" stroke-width="1.5" d="M0,-3.0v7 M-2.5,-0.5L0,-3.0L2.5,-0.5"/>
  </g>
  <g id="arrowLeft" transform="rotate(270) translate(-36 17)">
    <use xlink:href="#rim"/>
    <path pointer-events="none" fill="none" stroke="white" stroke-width="1.5" d="M0,-3.0v7 M-2.5,-0.5L0,-3.0L2.5,-0.5"/>
  </g>
  <g id="resetDef">
    <use xlink:href="#rim2" fill="#404040"><set attributeName="fill" to="#808080" begin="reset.mouseover" end="reset.mouseout"/></use>
  </g>
</defs>
<script type="application/ecmascript">
var viewWidth = 1792;
var viewHeight = 324;
var sectionId = 'dynsection-0';
</script>
<script type="application/ecmascript" xlink:href="svg.min.js"/>
<svg id="graph" class="graph">
<g id="viewport">
<title>src/AnalyzeView/GeoTag/ULogParser.cc</title>
<!-- Node1 -->
<g id="Node000001" class="node">
<title>Node1</title>
<g id="a_Node000001"><a xlink:title=" ">
<polygon fill="#999999" stroke="#666666" points="1082.5,-316 946.5,-316 946.5,-286 1082.5,-286 1082.5,-316"/>
<text text-anchor="start" x="954.5" y="-304" font-family="Helvetica,sans-Serif" font-size="10.00">src/AnalyzeView/GeoTag</text>
<text text-anchor="middle" x="1014.5" y="-293" font-family="Helvetica,sans-Serif" font-size="10.00">/ULogParser.cc</text>
</a>
</g>
</g>
<!-- Node2 -->
<g id="Node000002" class="node">
<title>Node2</title>
<g id="a_Node000002"><a xlink:href="ULogParser_8h.html" target="_top" xlink:title=" ">
<polygon fill="white" stroke="#666666" points="853.5,-250 773.5,-250 773.5,-231 853.5,-231 853.5,-250"/>
<text text-anchor="middle" x="813.5" y="-238" font-family="Helvetica,sans-Serif" font-size="10.00">ULogParser.h</text>
</a>
</g>
</g>
<!-- Node1&#45;&gt;Node2 -->
<g id="edge1_Node000001_Node000002" class="edge">
<title>Node1&#45;&gt;Node2</title>
<g id="a_edge1_Node000001_Node000002"><a xlink:title=" ">
<path fill="none" stroke="#63b8ff" d="M966.36,-285.99C931.52,-275.85 885.03,-262.32 852.51,-252.85"/>
<polygon fill="#63b8ff" stroke="#63b8ff" points="853.47,-249.49 842.89,-250.05 851.51,-256.21 853.47,-249.49"/>
</a>
</g>
</g>
<!-- Node12 -->
<g id="Node000012" class="node">
<title>Node12</title>
<g id="a_Node000012"><a xlink:href="ULogUtility_8h.html" target="_top" xlink:title=" ">
<polygon fill="white" stroke="#666666" points="1307,-250 1228,-250 1228,-231 1307,-231 1307,-250"/>
<text text-anchor="middle" x="1267.5" y="-238" font-family="Helvetica,sans-Serif" font-size="10.00">ULogUtility.h</text>
</a>
</g>
</g>
<!-- Node1&#45;&gt;Node12 -->
<g id="edge11_Node000001_Node000012" class="edge">
<title>Node1&#45;&gt;Node12</title>
<g id="a_edge11_Node000001_Node000012"><a xlink:title=" ">
<path fill="none" stroke="#63b8ff" d="M1075.1,-285.99C1119.8,-275.65 1179.74,-261.79 1220.76,-252.31"/>
<polygon fill="#63b8ff" stroke="#63b8ff" points="1221.55,-255.72 1230.51,-250.05 1219.98,-248.9 1221.55,-255.72"/>
</a>
</g>
</g>
<!-- Node19 -->
<g id="Node000019" class="node">
<title>Node19</title>
<g id="a_Node000019"><a xlink:href="QGCLoggingCategory_8h.html" target="_top" xlink:title=" ">
<polygon fill="white" stroke="#666666" points="431.5,-250 303.5,-250 303.5,-231 431.5,-231 431.5,-250"/>
<text text-anchor="middle" x="367.5" y="-238" font-family="Helvetica,sans-Serif" font-size="10.00">QGCLoggingCategory.h</text>
</a>
</g>
</g>
<!-- Node1&#45;&gt;Node19 -->
<g id="edge22_Node000001_Node000019" class="edge">
<title>Node1&#45;&gt;Node19</title>
<g id="a_edge22_Node000001_Node000019"><a xlink:title=" ">
<path fill="none" stroke="#63b8ff" d="M946.48,-293.85C824.23,-282.8 568.35,-259.66 441.73,-248.21"/>
<polygon fill="#63b8ff" stroke="#63b8ff" points="442,-244.72 431.73,-247.31 441.37,-251.69 442,-244.72"/>
</a>
</g>
</g>
<!-- Node28 -->
<g id="Node000028" class="node">
<title>Node28</title>
<g id="a_Node000028"><a xlink:title=" ">
<polygon fill="#e0e0e0" stroke="#999999" points="1372,-250 1325,-250 1325,-231 1372,-231 1372,-250"/>
<text text-anchor="middle" x="1348.5" y="-238" font-family="Helvetica,sans-Serif" font-size="10.00">cmath</text>
</a>
</g>
</g>
<!-- Node1&#45;&gt;Node28 -->
<g id="edge34_Node000001_Node000028" class="edge">
<title>Node1&#45;&gt;Node28</title>
<g id="a_edge34_Node000001_Node000028"><a xlink:title=" ">
<path fill="none" stroke="#63b8ff" d="M1082.62,-290.62C1141.78,-282.04 1229.91,-268.23 1314.98,-250.17"/>
<polygon fill="#63b8ff" stroke="#63b8ff" points="1315.75,-253.59 1324.8,-248.07 1314.28,-246.74 1315.75,-253.59"/>
</a>
</g>
</g>
<!-- Node3 -->
<g id="Node000003" class="node">
<title>Node3</title>
<g id="a_Node000003"><a xlink:href="GeoTagData_8h.html" target="_top" xlink:title=" ">
<polygon fill="white" stroke="#666666" points="740,-189.5 655,-189.5 655,-170.5 740,-170.5 740,-189.5"/>
<text text-anchor="middle" x="697.5" y="-177.5" font-family="Helvetica,sans-Serif" font-size="10.00">GeoTagData.h</text>
</a>
</g>
</g>
<!-- Node2&#45;&gt;Node3 -->
<g id="edge2_Node000002_Node000003" class="edge">
<title>Node2&#45;&gt;Node3</title>
<g id="a_edge2_Node000002_Node000003"><a xlink:title=" ">
<path fill="none" stroke="#63b8ff" d="M796.38,-230.87C777.28,-221.23 746.13,-205.53 723.9,-194.31"/>
<polygon fill="#63b8ff" stroke="#63b8ff" points="725.19,-191.05 714.69,-189.67 722.04,-197.3 725.19,-191.05"/>
</a>
</g>
</g>
<!-- Node7 -->
<g id="Node000007" class="node">
<title>Node7</title>
<g id="a_Node000007"><a xlink:title=" ">
<polygon fill="#e0e0e0" stroke="#999999" points="868.5,-189.5 758.5,-189.5 758.5,-170.5 868.5,-170.5 868.5,-189.5"/>
<text text-anchor="middle" x="813.5" y="-177.5" font-family="Helvetica,sans-Serif" font-size="10.00">QtCore/QByteArray</text>
</a>
</g>
</g>
<!-- Node2&#45;&gt;Node7 -->
<g id="edge6_Node000002_Node000007" class="edge">
<title>Node2&#45;&gt;Node7</title>
<g id="a_edge6_Node000002_Node000007"><a xlink:title=" ">
<path fill="none" stroke="#63b8ff" d="M813.5,-230.87C813.5,-222.75 813.5,-210.31 813.5,-199.89"/>
<polygon fill="#63b8ff" stroke="#63b8ff" points="817,-199.67 813.5,-189.67 810,-199.67 817,-199.67"/>
</a>
</g>
</g>
<!-- Node8 -->
<g id="Node000008" class="node">
<title>Node8</title>
<g id="a_Node000008"><a xlink:title=" ">
<polygon fill="#e0e0e0" stroke="#999999" points="636.5,-189.5 558.5,-189.5 558.5,-170.5 636.5,-170.5 636.5,-189.5"/>
<text text-anchor="middle" x="597.5" y="-177.5" font-family="Helvetica,sans-Serif" font-size="10.00">QtCore/QList</text>
</a>
</g>
</g>
<!-- Node2&#45;&gt;Node8 -->
<g id="edge7_Node000002_Node000008" class="edge">
<title>Node2&#45;&gt;Node8</title>
<g id="a_edge7_Node000002_Node000008"><a xlink:title=" ">
<path fill="none" stroke="#63b8ff" d="M780.81,-230.97C747.11,-222.14 693.07,-207.86 646.5,-195 643.34,-194.13 640.08,-193.22 636.8,-192.29"/>
<polygon fill="#63b8ff" stroke="#63b8ff" points="637.59,-188.88 627.01,-189.53 635.68,-195.62 637.59,-188.88"/>
</a>
</g>
</g>
<!-- Node9 -->
<g id="Node000009" class="node">
<title>Node9</title>
<g id="a_Node000009"><a xlink:title=" ">
<polygon fill="#e0e0e0" stroke="#999999" points="564,-19 421,-19 421,0 564,0 564,-19"/>
<text text-anchor="middle" x="492.5" y="-7" font-family="Helvetica,sans-Serif" font-size="10.00">QtCore/QLoggingCategory</text>
</a>
</g>
</g>
<!-- Node2&#45;&gt;Node9 -->
<g id="edge8_Node000002_Node000009" class="edge">
<title>Node2&#45;&gt;Node9</title>
<g id="a_edge8_Node000002_Node000009"><a xlink:title=" ">
<path fill="none" stroke="#63b8ff" d="M773.26,-237.98C707.56,-234.65 581.4,-224.51 549.5,-195 502.41,-151.45 536.62,-115.2 514.5,-55 511.12,-45.8 506.4,-35.99 502.2,-27.93"/>
<polygon fill="#63b8ff" stroke="#63b8ff" points="505.28,-26.26 497.45,-19.12 499.12,-29.58 505.28,-26.26"/>
</a>
</g>
</g>
<!-- Node10 -->
<g id="Node000010" class="node">
<title>Node10</title>
<g id="a_Node000010"><a xlink:title=" ">
<polygon fill="#e0e0e0" stroke="#999999" points="976,-189.5 887,-189.5 887,-170.5 976,-170.5 976,-189.5"/>
<text text-anchor="middle" x="931.5" y="-177.5" font-family="Helvetica,sans-Serif" font-size="10.00">QtCore/QString</text>
</a>
</g>
</g>
<!-- Node2&#45;&gt;Node10 -->
<g id="edge9_Node000002_Node000010" class="edge">
<title>Node2&#45;&gt;Node10</title>
<g id="a_edge9_Node000002_Node000010"><a xlink:title=" ">
<path fill="none" stroke="#63b8ff" d="M830.66,-230.99C850.23,-221.29 882.47,-205.31 905.22,-194.03"/>
<polygon fill="#63b8ff" stroke="#63b8ff" points="906.92,-197.09 914.32,-189.52 903.81,-190.82 906.92,-197.09"/>
</a>
</g>
</g>
<!-- Node11 -->
<g id="Node000011" class="node">
<title>Node11</title>
<g id="a_Node000011"><a xlink:title=" ">
<polygon fill="#e0e0e0" stroke="#999999" points="1137,-189.5 994,-189.5 994,-170.5 1137,-170.5 1137,-189.5"/>
<text text-anchor="middle" x="1065.5" y="-177.5" font-family="Helvetica,sans-Serif" font-size="10.00">ulog_cpp/subscription.hpp</text>
</a>
</g>
</g>
<!-- Node2&#45;&gt;Node11 -->
<g id="edge10_Node000002_Node000011" class="edge">
<title>Node2&#45;&gt;Node11</title>
<g id="a_edge10_Node000002_Node000011"><a xlink:title=" ">
<path fill="none" stroke="#63b8ff" d="M850.14,-230.99C894.75,-220.64 970.13,-203.14 1018.84,-191.83"/>
<polygon fill="#63b8ff" stroke="#63b8ff" points="1019.86,-195.19 1028.81,-189.52 1018.28,-188.37 1019.86,-195.19"/>
</a>
</g>
</g>
<!-- Node4 -->
<g id="Node000004" class="node">
<title>Node4</title>
<g id="a_Node000004"><a xlink:title=" ">
<polygon fill="#e0e0e0" stroke="#999999" points="710,-129 601,-129 601,-110 710,-110 710,-129"/>
<text text-anchor="middle" x="655.5" y="-117" font-family="Helvetica,sans-Serif" font-size="10.00">QtGui/QQuaternion</text>
</a>
</g>
</g>
<!-- Node3&#45;&gt;Node4 -->
<g id="edge3_Node000003_Node000004" class="edge">
<title>Node3&#45;&gt;Node4</title>
<g id="a_edge3_Node000003_Node000004"><a xlink:title=" ">
<path fill="none" stroke="#63b8ff" d="M691.3,-170.37C685.1,-161.73 675.39,-148.2 667.64,-137.42"/>
<polygon fill="#63b8ff" stroke="#63b8ff" points="670.4,-135.25 661.72,-129.17 664.71,-139.33 670.4,-135.25"/>
</a>
</g>
</g>
<!-- Node5 -->
<g id="Node000005" class="node">
<title>Node5</title>
<g id="a_Node000005"><a xlink:title=" ">
<polygon fill="#e0e0e0" stroke="#999999" points="893,-129 728,-129 728,-110 893,-110 893,-129"/>
<text text-anchor="middle" x="810.5" y="-117" font-family="Helvetica,sans-Serif" font-size="10.00">QtPositioning/QGeoCoordinate</text>
</a>
</g>
</g>
<!-- Node3&#45;&gt;Node5 -->
<g id="edge4_Node000003_Node000005" class="edge">
<title>Node3&#45;&gt;Node5</title>
<g id="a_edge4_Node000003_Node000005"><a xlink:title=" ">
<path fill="none" stroke="#63b8ff" d="M714.17,-170.37C732.78,-160.73 763.12,-145.03 784.78,-133.81"/>
<polygon fill="#63b8ff" stroke="#63b8ff" points="786.49,-136.87 793.76,-129.17 783.27,-130.66 786.49,-136.87"/>
</a>
</g>
</g>
<!-- Node6 -->
<g id="Node000006" class="node">
<title>Node6</title>
<g id="a_Node000006"><a xlink:title=" ">
<polygon fill="#e0e0e0" stroke="#999999" points="1076.5,-129 1026.5,-129 1026.5,-110 1076.5,-110 1076.5,-129"/>
<text text-anchor="middle" x="1051.5" y="-117" font-family="Helvetica,sans-Serif" font-size="10.00">cstdint</text>
</a>
</g>
</g>
<!-- Node3&#45;&gt;Node6 -->
<g id="edge5_Node000003_Node000006" class="edge">
<title>Node3&#45;&gt;Node6</title>
<g id="a_edge5_Node000003_Node000006"><a xlink:title=" ">
<path fill="none" stroke="#63b8ff" d="M726.78,-170.48C734.16,-168.51 742.09,-166.54 749.5,-165 845.05,-145.17 959.39,-130.84 1016.05,-124.36"/>
<polygon fill="#63b8ff" stroke="#63b8ff" points="1016.73,-127.81 1026.27,-123.21 1015.94,-120.85 1016.73,-127.81"/>
</a>
</g>
</g>
<!-- Node12&#45;&gt;Node6 -->
<g id="edge14_Node000012_Node000006" class="edge">
<title>Node12&#45;&gt;Node6</title>
<g id="a_edge14_Node000012_Node000006"><a xlink:title=" ">
<path fill="none" stroke="#63b8ff" d="M1249.49,-231C1232.32,-222.62 1205.97,-209.07 1184.5,-195 1166.5,-183.2 1164.81,-176.31 1146.5,-165 1126.18,-152.45 1101.75,-141.08 1082.75,-132.98"/>
<polygon fill="#63b8ff" stroke="#63b8ff" points="1083.94,-129.68 1073.36,-129.05 1081.23,-136.14 1083.94,-129.68"/>
</a>
</g>
</g>
<!-- Node12&#45;&gt;Node9 -->
<g id="edge12_Node000012_Node000009" class="edge">
<title>Node12&#45;&gt;Node9</title>
<g id="a_edge12_Node000012_Node000009"><a xlink:title=" ">
<path fill="none" stroke="#63b8ff" d="M1307.07,-232.58C1310.26,-232.04 1313.43,-231.51 1316.5,-231 1420.57,-213.76 1613.46,-244.83 1544.5,-165 1481,-91.49 810.67,-34.41 574.38,-16.44"/>
<polygon fill="#63b8ff" stroke="#63b8ff" points="574.37,-12.93 564.13,-15.67 573.84,-19.91 574.37,-12.93"/>
</a>
</g>
</g>
<!-- Node12&#45;&gt;Node10 -->
<g id="edge13_Node000012_Node000010" class="edge">
<title>Node12&#45;&gt;Node10</title>
<g id="a_edge13_Node000012_Node000010"><a xlink:title=" ">
<path fill="none" stroke="#63b8ff" d="M1227.58,-234.45C1172.74,-227.22 1071.15,-212.82 985.5,-195 981.11,-194.09 976.55,-193.05 972.02,-191.96"/>
<polygon fill="#63b8ff" stroke="#63b8ff" points="972.77,-188.54 962.22,-189.52 971.08,-195.33 972.77,-188.54"/>
</a>
</g>
</g>
<!-- Node12&#45;&gt;Node11 -->
<g id="edge21_Node000012_Node000011" class="edge">
<title>Node12&#45;&gt;Node11</title>
<g id="a_edge21_Node000012_Node000011"><a xlink:title=" ">
<path fill="none" stroke="#63b8ff" d="M1238.13,-230.99C1202.9,-220.79 1143.71,-203.65 1104.63,-192.33"/>
<polygon fill="#63b8ff" stroke="#63b8ff" points="1105.49,-188.94 1094.91,-189.52 1103.54,-195.66 1105.49,-188.94"/>
</a>
</g>
</g>
<!-- Node13 -->
<g id="Node000013" class="node">
<title>Node13</title>
<g id="a_Node000013"><a xlink:title=" ">
<polygon fill="#e0e0e0" stroke="#999999" points="1657,-189.5 1592,-189.5 1592,-170.5 1657,-170.5 1657,-189.5"/>
<text text-anchor="middle" x="1624.5" y="-177.5" font-family="Helvetica,sans-Serif" font-size="10.00">functional</text>
</a>
</g>
</g>
<!-- Node12&#45;&gt;Node13 -->
<g id="edge15_Node000012_Node000013" class="edge">
<title>Node12&#45;&gt;Node13</title>
<g id="a_edge15_Node000012_Node000013"><a xlink:title=" ">
<path fill="none" stroke="#63b8ff" d="M1307.06,-232.52C1310.25,-231.99 1313.43,-231.48 1316.5,-231 1432.21,-212.99 1463.06,-219.79 1577.5,-195 1581.12,-194.21 1584.88,-193.29 1588.61,-192.3"/>
<polygon fill="#63b8ff" stroke="#63b8ff" points="1589.66,-195.64 1598.33,-189.56 1587.76,-188.9 1589.66,-195.64"/>
</a>
</g>
</g>
<!-- Node14 -->
<g id="Node000014" class="node">
<title>Node14</title>
<g id="a_Node000014"><a xlink:title=" ">
<polygon fill="#e0e0e0" stroke="#999999" points="1733.5,-189.5 1675.5,-189.5 1675.5,-170.5 1733.5,-170.5 1733.5,-189.5"/>
<text text-anchor="middle" x="1704.5" y="-177.5" font-family="Helvetica,sans-Serif" font-size="10.00">memory</text>
</a>
</g>
</g>
<!-- Node12&#45;&gt;Node14 -->
<g id="edge16_Node000012_Node000014" class="edge">
<title>Node12&#45;&gt;Node14</title>
<g id="a_edge16_Node000012_Node000014"><a xlink:title=" ">
<path fill="none" stroke="#63b8ff" d="M1307.04,-232.4C1310.24,-231.9 1313.42,-231.42 1316.5,-231 1471.41,-209.62 1514.16,-230.31 1666.5,-195 1669.17,-194.38 1671.91,-193.63 1674.63,-192.79"/>
<polygon fill="#63b8ff" stroke="#63b8ff" points="1675.93,-196.05 1684.28,-189.52 1673.68,-189.42 1675.93,-196.05"/>
</a>
</g>
</g>
<!-- Node15 -->
<g id="Node000015" class="node">
<title>Node15</title>
<g id="a_Node000015"><a xlink:title=" ">
<polygon fill="#e0e0e0" stroke="#999999" points="1783.5,-189.5 1751.5,-189.5 1751.5,-170.5 1783.5,-170.5 1783.5,-189.5"/>
<text text-anchor="middle" x="1767.5" y="-177.5" font-family="Helvetica,sans-Serif" font-size="10.00">set</text>
</a>
</g>
</g>
<!-- Node12&#45;&gt;Node15 -->
<g id="edge17_Node000012_Node000015" class="edge">
<title>Node12&#45;&gt;Node15</title>
<g id="a_edge17_Node000012_Node000015"><a xlink:title=" ">
<path fill="none" stroke="#63b8ff" d="M1307.04,-232.34C1310.23,-231.85 1313.42,-231.4 1316.5,-231 1504.95,-206.74 1560.83,-250.68 1742.5,-195 1743.55,-194.68 1744.6,-194.31 1745.64,-193.9"/>
<polygon fill="#63b8ff" stroke="#63b8ff" points="1747.25,-197.01 1754.74,-189.52 1744.21,-190.71 1747.25,-197.01"/>
</a>
</g>
</g>
<!-- Node16 -->
<g id="Node000016" class="node">
<title>Node16</title>
<g id="a_Node000016"><a xlink:title=" ">
<polygon fill="#e0e0e0" stroke="#999999" points="1237.5,-189.5 1193.5,-189.5 1193.5,-170.5 1237.5,-170.5 1237.5,-189.5"/>
<text text-anchor="middle" x="1215.5" y="-177.5" font-family="Helvetica,sans-Serif" font-size="10.00">string</text>
</a>
</g>
</g>
<!-- Node12&#45;&gt;Node16 -->
<g id="edge18_Node000012_Node000016" class="edge">
<title>Node12&#45;&gt;Node16</title>
<g id="a_edge18_Node000012_Node000016"><a xlink:title=" ">
<path fill="none" stroke="#63b8ff" d="M1259.83,-230.87C1251.99,-222.05 1239.64,-208.16 1229.96,-197.27"/>
<polygon fill="#63b8ff" stroke="#63b8ff" points="1232.46,-194.82 1223.2,-189.67 1227.23,-199.47 1232.46,-194.82"/>
</a>
</g>
</g>
<!-- Node17 -->
<g id="Node000017" class="node">
<title>Node17</title>
<g id="a_Node000017"><a xlink:title=" ">
<polygon fill="#e0e0e0" stroke="#999999" points="1383,-195 1256,-195 1256,-165 1383,-165 1383,-195"/>
<text text-anchor="start" x="1264" y="-183" font-family="Helvetica,sans-Serif" font-size="10.00">ulog_cpp/data_handler</text>
<text text-anchor="middle" x="1319.5" y="-172" font-family="Helvetica,sans-Serif" font-size="10.00">_interface.hpp</text>
</a>
</g>
</g>
<!-- Node12&#45;&gt;Node17 -->
<g id="edge19_Node000012_Node000017" class="edge">
<title>Node12&#45;&gt;Node17</title>
<g id="a_edge19_Node000012_Node000017"><a xlink:title=" ">
<path fill="none" stroke="#63b8ff" d="M1275.17,-230.87C1281.77,-223.44 1291.57,-212.42 1300.28,-202.62"/>
<polygon fill="#63b8ff" stroke="#63b8ff" points="1302.93,-204.91 1306.95,-195.11 1297.69,-200.26 1302.93,-204.91"/>
</a>
</g>
</g>
<!-- Node18 -->
<g id="Node000018" class="node">
<title>Node18</title>
<g id="a_Node000018"><a xlink:title=" ">
<polygon fill="#e0e0e0" stroke="#999999" points="1535.5,-189.5 1401.5,-189.5 1401.5,-170.5 1535.5,-170.5 1535.5,-189.5"/>
<text text-anchor="middle" x="1468.5" y="-177.5" font-family="Helvetica,sans-Serif" font-size="10.00">ulog_cpp/messages.hpp</text>
</a>
</g>
</g>
<!-- Node12&#45;&gt;Node18 -->
<g id="edge20_Node000012_Node000018" class="edge">
<title>Node12&#45;&gt;Node18</title>
<g id="a_edge20_Node000012_Node000018"><a xlink:title=" ">
<path fill="none" stroke="#63b8ff" d="M1296.73,-230.99C1331.71,-220.81 1390.43,-203.72 1429.32,-192.4"/>
<polygon fill="#63b8ff" stroke="#63b8ff" points="1430.61,-195.67 1439.24,-189.52 1428.66,-188.95 1430.61,-195.67"/>
</a>
</g>
</g>
<!-- Node19&#45;&gt;Node9 -->
<g id="edge30_Node000019_Node000009" class="edge">
<title>Node19&#45;&gt;Node9</title>
<g id="a_edge30_Node000019_Node000009"><a xlink:title=" ">
<path fill="none" stroke="#63b8ff" d="M415.01,-230.98C436.26,-224.67 459.59,-213.76 473.5,-195 510.53,-145.05 502.51,-65.48 496.33,-29.39"/>
<polygon fill="#63b8ff" stroke="#63b8ff" points="499.72,-28.49 494.45,-19.3 492.84,-29.77 499.72,-28.49"/>
</a>
</g>
</g>
<!-- Node20 -->
<g id="Node000020" class="node">
<title>Node20</title>
<g id="a_Node000020"><a xlink:href="QmlObjectListModel_8h.html" target="_top" xlink:title=" ">
<polygon fill="white" stroke="#666666" points="128,-189.5 3,-189.5 3,-170.5 128,-170.5 128,-189.5"/>
<text text-anchor="middle" x="65.5" y="-177.5" font-family="Helvetica,sans-Serif" font-size="10.00">QmlObjectListModel.h</text>
</a>
</g>
</g>
<!-- Node19&#45;&gt;Node20 -->
<g id="edge23_Node000019_Node000020" class="edge">
<title>Node19&#45;&gt;Node20</title>
<g id="a_edge23_Node000019_Node000020"><a xlink:title=" ">
<path fill="none" stroke="#63b8ff" d="M323.41,-230.98C277.1,-222.03 202.18,-207.55 137.5,-195 131.65,-193.87 125.54,-192.68 119.45,-191.5"/>
<polygon fill="#63b8ff" stroke="#63b8ff" points="119.77,-187.99 109.29,-189.52 118.43,-194.86 119.77,-187.99"/>
</a>
</g>
</g>
<!-- Node25 -->
<g id="Node000025" class="node">
<title>Node25</title>
<g id="a_Node000025"><a xlink:title=" ">
<polygon fill="#e0e0e0" stroke="#999999" points="238.5,-189.5 146.5,-189.5 146.5,-170.5 238.5,-170.5 238.5,-189.5"/>
<text text-anchor="middle" x="192.5" y="-177.5" font-family="Helvetica,sans-Serif" font-size="10.00">QtCore/QObject</text>
</a>
</g>
</g>
<!-- Node19&#45;&gt;Node25 -->
<g id="edge31_Node000019_Node000025" class="edge">
<title>Node19&#45;&gt;Node25</title>
<g id="a_edge31_Node000019_Node000025"><a xlink:title=" ">
<path fill="none" stroke="#63b8ff" d="M342.05,-230.99C311.86,-220.9 261.34,-204.01 227.48,-192.69"/>
<polygon fill="#63b8ff" stroke="#63b8ff" points="228.57,-189.37 217.98,-189.52 226.35,-196.01 228.57,-189.37"/>
</a>
</g>
</g>
<!-- Node26 -->
<g id="Node000026" class="node">
<title>Node26</title>
<g id="a_Node000026"><a xlink:title=" ">
<polygon fill="#e0e0e0" stroke="#999999" points="364,-189.5 257,-189.5 257,-170.5 364,-170.5 364,-189.5"/>
<text text-anchor="middle" x="310.5" y="-177.5" font-family="Helvetica,sans-Serif" font-size="10.00">QtCore/QStringList</text>
</a>
</g>
</g>
<!-- Node19&#45;&gt;Node26 -->
<g id="edge32_Node000019_Node000026" class="edge">
<title>Node19&#45;&gt;Node26</title>
<g id="a_edge32_Node000019_Node000026"><a xlink:title=" ">
<path fill="none" stroke="#63b8ff" d="M359.09,-230.87C350.42,-221.97 336.7,-207.89 326.04,-196.95"/>
<polygon fill="#63b8ff" stroke="#63b8ff" points="328.43,-194.39 318.95,-189.67 323.42,-199.27 328.43,-194.39"/>
</a>
</g>
</g>
<!-- Node27 -->
<g id="Node000027" class="node">
<title>Node27</title>
<g id="a_Node000027"><a xlink:title=" ">
<polygon fill="#e0e0e0" stroke="#999999" points="464.5,-189.5 382.5,-189.5 382.5,-170.5 464.5,-170.5 464.5,-189.5"/>
<text text-anchor="middle" x="423.5" y="-177.5" font-family="Helvetica,sans-Serif" font-size="10.00">QtCore/QMap</text>
</a>
</g>
</g>
<!-- Node19&#45;&gt;Node27 -->
<g id="edge33_Node000019_Node000027" class="edge">
<title>Node19&#45;&gt;Node27</title>
<g id="a_edge33_Node000019_Node000027"><a xlink:title=" ">
<path fill="none" stroke="#63b8ff" d="M375.76,-230.87C384.28,-221.97 397.76,-207.89 408.23,-196.95"/>
<polygon fill="#63b8ff" stroke="#63b8ff" points="410.82,-199.31 415.2,-189.67 405.76,-194.47 410.82,-199.31"/>
</a>
</g>
</g>
<!-- Node20&#45;&gt;Node9 -->
<g id="edge29_Node000020_Node000009" class="edge">
<title>Node20&#45;&gt;Node9</title>
<g id="a_edge29_Node000020_Node000009"><a xlink:title=" ">
<path fill="none" stroke="#63b8ff" d="M94.94,-170.45C126.34,-161.11 177.39,-145.3 220.5,-129 311.78,-94.49 416.92,-46.16 465.42,-23.37"/>
<polygon fill="#63b8ff" stroke="#63b8ff" points="467.06,-26.46 474.61,-19.03 464.07,-20.13 467.06,-26.46"/>
</a>
</g>
</g>
<!-- Node21 -->
<g id="Node000021" class="node">
<title>Node21</title>
<g id="a_Node000021"><a xlink:href="ObjectListModelBase_8h.html" target="_top" xlink:title=" ">
<polygon fill="white" stroke="#666666" points="211.5,-129 83.5,-129 83.5,-110 211.5,-110 211.5,-129"/>
<text text-anchor="middle" x="147.5" y="-117" font-family="Helvetica,sans-Serif" font-size="10.00">ObjectListModelBase.h</text>
</a>
</g>
</g>
<!-- Node20&#45;&gt;Node21 -->
<g id="edge24_Node000020_Node000021" class="edge">
<title>Node20&#45;&gt;Node21</title>
<g id="a_edge24_Node000020_Node000021"><a xlink:title=" ">
<path fill="none" stroke="#63b8ff" d="M77.6,-170.37C90.56,-161.12 111.36,-146.28 126.9,-135.19"/>
<polygon fill="#63b8ff" stroke="#63b8ff" points="129.24,-137.82 135.35,-129.17 125.18,-132.13 129.24,-137.82"/>
</a>
</g>
</g>
<!-- Node22 -->
<g id="Node000022" class="node">
<title>Node22</title>
<g id="a_Node000022"><a xlink:href="ObjectItemModelBase_8h.html" target="_top" xlink:title=" ">
<polygon fill="white" stroke="#666666" points="256.5,-74 122.5,-74 122.5,-55 256.5,-55 256.5,-74"/>
<text text-anchor="middle" x="189.5" y="-62" font-family="Helvetica,sans-Serif" font-size="10.00">ObjectItemModelBase.h</text>
</a>
</g>
</g>
<!-- Node21&#45;&gt;Node22 -->
<g id="edge25_Node000021_Node000022" class="edge">
<title>Node21&#45;&gt;Node22</title>
<g id="a_edge25_Node000021_Node000022"><a xlink:title=" ">
<path fill="none" stroke="#63b8ff" d="M154.44,-109.75C160.37,-102.26 169.07,-91.28 176.32,-82.13"/>
<polygon fill="#63b8ff" stroke="#63b8ff" points="179.23,-84.1 182.69,-74.09 173.74,-79.75 179.23,-84.1"/>
</a>
</g>
</g>
<!-- Node22&#45;&gt;Node9 -->
<g id="edge27_Node000022_Node000009" class="edge">
<title>Node22&#45;&gt;Node9</title>
<g id="a_edge27_Node000022_Node000009"><a xlink:title=" ">
<path fill="none" stroke="#63b8ff" d="M238.18,-54.98C291.44,-45.67 376.81,-30.74 433.75,-20.78"/>
<polygon fill="#63b8ff" stroke="#63b8ff" points="434.44,-24.21 443.69,-19.04 433.23,-17.31 434.44,-24.21"/>
</a>
</g>
</g>
<!-- Node23 -->
<g id="Node000023" class="node">
<title>Node23</title>
<g id="a_Node000023"><a xlink:title=" ">
<polygon fill="#e0e0e0" stroke="#999999" points="361.5,-19 207.5,-19 207.5,0 361.5,0 361.5,-19"/>
<text text-anchor="middle" x="284.5" y="-7" font-family="Helvetica,sans-Serif" font-size="10.00">QtCore/QAbstractItemModel</text>
</a>
</g>
</g>
<!-- Node22&#45;&gt;Node23 -->
<g id="edge26_Node000022_Node000023" class="edge">
<title>Node22&#45;&gt;Node23</title>
<g id="a_edge26_Node000022_Node000023"><a xlink:title=" ">
<path fill="none" stroke="#63b8ff" d="M204.76,-54.98C219.63,-46.69 242.48,-33.94 259.92,-24.22"/>
<polygon fill="#63b8ff" stroke="#63b8ff" points="261.93,-27.1 268.96,-19.17 258.52,-20.99 261.93,-27.1"/>
</a>
</g>
</g>
<!-- Node24 -->
<g id="Node000024" class="node">
<title>Node24</title>
<g id="a_Node000024"><a xlink:title=" ">
<polygon fill="#e0e0e0" stroke="#999999" points="189,-19 0,-19 0,0 189,0 189,-19"/>
<text text-anchor="middle" x="94.5" y="-7" font-family="Helvetica,sans-Serif" font-size="10.00">QtQmlIntegration/QtQmlIntegration</text>
</a>
</g>
</g>
<!-- Node22&#45;&gt;Node24 -->
<g id="edge28_Node000022_Node000024" class="edge">
<title>Node22&#45;&gt;Node24</title>
<g id="a_edge28_Node000022_Node000024"><a xlink:title=" ">
<path fill="none" stroke="#63b8ff" d="M174.24,-54.98C159.37,-46.69 136.52,-33.94 119.08,-24.22"/>
<polygon fill="#63b8ff" stroke="#63b8ff" points="120.48,-20.99 110.04,-19.17 117.07,-27.1 120.48,-20.99"/>
</a>
</g>
</g>
</g>
</svg>

<g id="navigator" transform="translate(0 0)" fill="#404254">
  <rect fill="#f2f5e9" fill-opacity="0.5" stroke="#606060" stroke-width=".5" x="0" y="0" width="60" height="60"/>
  <use id="zoomplus" xlink:href="#zoomPlus" x="17" y="9" onmousedown="handleZoom(evt,'in')"/>
  <use id="zoomminus" xlink:href="#zoomMin" x="42" y="9" onmousedown="handleZoom(evt,'out')"/>
  <use id="reset" xlink:href="#resetDef" x="30" y="36" onmousedown="handleReset()"/>
   <use id="arrowup" xlink:href="#arrowUp" x="0" y="0" onmousedown="handlePan(0,-1)"/>
  <use id="arrowright" xlink:href="#arrowRight" x="0" y="0" onmousedown="handlePan(1,0)"/>
  <use id="arrowdown" xlink:href="#arrowDown" x="0" y="0" onmousedown="handlePan(0,1)"/>
  <use id="arrowleft" xlink:href="#arrowLeft" x="0" y="0" onmousedown="handlePan(-1,0)"/>
</g>
<svg viewBox="0 0 15 15" width="100%" height="30px" preserveAspectRatio="xMaxYMin meet">
 <g id="arrow_out" transform="scale(0.3 0.3)">
  <a xlink:href="ULogParser_8cc__incl_org.svg" target="_base">
   <rect id="button" ry="5" rx="5" y="6" x="6" height="38" width="38"
        fill="#f2f5e9" fill-opacity="0.5" stroke="#606060" stroke-width="1.0"/>
   <path id="arrow"
     d="M 11.500037,31.436501 C 11.940474,20.09759 22.043105,11.32322 32.158766,21.979434 L 37.068811,17.246167 C 37.068811,17.246167 37.088388,32 37.088388,32 L 22.160133,31.978069 C 22.160133,31.978069 26.997745,27.140456 26.997745,27.140456 C 18.528582,18.264221 13.291696,25.230495 11.500037,31.436501 z"
     style="fill:#404040;"/>
  </a>
 </g>
</svg>

<style type='text/css'>
<![CDATA[
[data-mouse-over-selected='false'] { opacity: 0.7; }
[data-mouse-over-selected='true']  { opacity: 1.0; }
]]>
</style>
<script type="application/ecmascript"><![CDATA[
document.addEventListener('DOMContentLoaded', (event) => {
  highlightEdges();
  highlightAdjacentNodes();
});
]]></script>
</svg>
