<?xml version="1.0" encoding="UTF-8" standalone="no"?>
<!DOCTYPE svg PUBLIC "-//W3C//DTD SVG 1.1//EN"
 "http://www.w3.org/Graphics/SVG/1.1/DTD/svg11.dtd">
<!-- Generated by graphviz version 2.43.0 (0)
 -->
<!-- Title: src/Utilities/Parsing/ULog/ULogUtility.cc Pages: 1 -->
<svg width="1432pt" height="269pt"
 viewBox="0.00 0.00 1431.66 269.00" xmlns="http://www.w3.org/2000/svg" xmlns:xlink="http://www.w3.org/1999/xlink">
<g id="graph0" class="graph" transform="scale(1 1) rotate(0) translate(4 265)">
<title>src/Utilities/Parsing/ULog/ULogUtility.cc</title>
<!-- Node1 -->
<g id="Node000001" class="node">
<title>Node1</title>
<g id="a_Node000001"><a xlink:title=" ">
<polygon fill="#999999" stroke="#666666" points="1197.66,-261 1083.66,-261 1083.66,-231 1197.66,-231 1197.66,-261"/>
<text text-anchor="start" x="1091.66" y="-249" font-family="Helvetica,sans-Serif" font-size="10.00">src/Utilities/Parsing</text>
<text text-anchor="middle" x="1140.66" y="-238" font-family="Helvetica,sans-Serif" font-size="10.00">/ULog/ULogUtility.cc</text>
</a>
</g>
</g>
<!-- Node2 -->
<g id="Node000002" class="node">
<title>Node2</title>
<g id="a_Node000002"><a xlink:href="ULogUtility_8h.html" target="_top" xlink:title=" ">
<polygon fill="white" stroke="#666666" points="407.16,-195 328.16,-195 328.16,-176 407.16,-176 407.16,-195"/>
<text text-anchor="middle" x="367.66" y="-183" font-family="Helvetica,sans-Serif" font-size="10.00">ULogUtility.h</text>
</a>
</g>
</g>
<!-- Node1&#45;&gt;Node2 -->
<g id="edge1_Node000001_Node000002" class="edge">
<title>Node1&#45;&gt;Node2</title>
<g id="a_edge1_Node000001_Node000002"><a xlink:title=" ">
<path fill="none" stroke="#63b8ff" d="M1083.5,-240.67C937.98,-229.66 555.26,-200.7 417.75,-190.29"/>
<polygon fill="#63b8ff" stroke="#63b8ff" points="417.75,-186.78 407.51,-189.52 417.22,-193.76 417.75,-186.78"/>
</a>
</g>
</g>
<!-- Node13 -->
<g id="Node000013" class="node">
<title>Node13</title>
<g id="a_Node000013"><a xlink:href="QGCLoggingCategory_8h.html" target="_top" xlink:title=" ">
<polygon fill="white" stroke="#666666" points="1151.66,-195 1023.66,-195 1023.66,-176 1151.66,-176 1151.66,-195"/>
<text text-anchor="middle" x="1087.66" y="-183" font-family="Helvetica,sans-Serif" font-size="10.00">QGCLoggingCategory.h</text>
</a>
</g>
</g>
<!-- Node1&#45;&gt;Node13 -->
<g id="edge12_Node000001_Node000013" class="edge">
<title>Node1&#45;&gt;Node13</title>
<g id="a_edge12_Node000001_Node000013"><a xlink:title=" ">
<path fill="none" stroke="#63b8ff" d="M1127.83,-230.84C1120.13,-222.35 1110.32,-211.52 1102.32,-202.69"/>
<polygon fill="#63b8ff" stroke="#63b8ff" points="1104.91,-200.33 1095.6,-195.27 1099.72,-205.03 1104.91,-200.33"/>
</a>
</g>
</g>
<!-- Node21 -->
<g id="Node000021" class="node">
<title>Node21</title>
<g id="a_Node000021"><a xlink:title=" ">
<polygon fill="#e0e0e0" stroke="#999999" points="1219.66,-195 1169.66,-195 1169.66,-176 1219.66,-176 1219.66,-195"/>
<text text-anchor="middle" x="1194.66" y="-183" font-family="Helvetica,sans-Serif" font-size="10.00">cstring</text>
</a>
</g>
</g>
<!-- Node1&#45;&gt;Node21 -->
<g id="edge23_Node000001_Node000021" class="edge">
<title>Node1&#45;&gt;Node21</title>
<g id="a_edge23_Node000001_Node000021"><a xlink:title=" ">
<path fill="none" stroke="#63b8ff" d="M1153.73,-230.84C1161.57,-222.35 1171.56,-211.52 1179.71,-202.69"/>
<polygon fill="#63b8ff" stroke="#63b8ff" points="1182.35,-204.99 1186.57,-195.27 1177.21,-200.24 1182.35,-204.99"/>
</a>
</g>
</g>
<!-- Node22 -->
<g id="Node000022" class="node">
<title>Node22</title>
<g id="a_Node000022"><a xlink:title=" ">
<polygon fill="#e0e0e0" stroke="#999999" points="1353.16,-195 1238.16,-195 1238.16,-176 1353.16,-176 1353.16,-195"/>
<text text-anchor="middle" x="1295.66" y="-183" font-family="Helvetica,sans-Serif" font-size="10.00">ulog_cpp/reader.hpp</text>
</a>
</g>
</g>
<!-- Node1&#45;&gt;Node22 -->
<g id="edge24_Node000001_Node000022" class="edge">
<title>Node1&#45;&gt;Node22</title>
<g id="a_edge24_Node000001_Node000022"><a xlink:title=" ">
<path fill="none" stroke="#63b8ff" d="M1177.78,-230.99C1203.88,-221.14 1238.44,-208.1 1263.38,-198.68"/>
<polygon fill="#63b8ff" stroke="#63b8ff" points="1264.65,-201.94 1272.77,-195.14 1262.18,-195.4 1264.65,-201.94"/>
</a>
</g>
</g>
<!-- Node3 -->
<g id="Node000003" class="node">
<title>Node3</title>
<g id="a_Node000003"><a xlink:title=" ">
<polygon fill="#e0e0e0" stroke="#999999" points="1000.16,-19 857.16,-19 857.16,0 1000.16,0 1000.16,-19"/>
<text text-anchor="middle" x="928.66" y="-7" font-family="Helvetica,sans-Serif" font-size="10.00">QtCore/QLoggingCategory</text>
</a>
</g>
</g>
<!-- Node2&#45;&gt;Node3 -->
<g id="edge2_Node000002_Node000003" class="edge">
<title>Node2&#45;&gt;Node3</title>
<g id="a_edge2_Node000002_Node000003"><a xlink:title=" ">
<path fill="none" stroke="#63b8ff" d="M328.07,-182.53C238.76,-177.68 27.7,-163.8 6.66,-140 -2.18,-130.01 -2.25,-119.92 6.66,-110 62.35,-47.97 631.39,-21.18 846.71,-13.21"/>
<polygon fill="#63b8ff" stroke="#63b8ff" points="847.13,-16.7 857,-12.84 846.88,-9.71 847.13,-16.7"/>
</a>
</g>
</g>
<!-- Node4 -->
<g id="Node000004" class="node">
<title>Node4</title>
<g id="a_Node000004"><a xlink:title=" ">
<polygon fill="#e0e0e0" stroke="#999999" points="105.16,-134.5 16.16,-134.5 16.16,-115.5 105.16,-115.5 105.16,-134.5"/>
<text text-anchor="middle" x="60.66" y="-122.5" font-family="Helvetica,sans-Serif" font-size="10.00">QtCore/QString</text>
</a>
</g>
</g>
<!-- Node2&#45;&gt;Node4 -->
<g id="edge3_Node000002_Node000004" class="edge">
<title>Node2&#45;&gt;Node4</title>
<g id="a_edge3_Node000002_Node000004"><a xlink:title=" ">
<path fill="none" stroke="#63b8ff" d="M328.03,-178.53C278.06,-170.77 189.62,-156.28 114.66,-140 110.5,-139.1 106.19,-138.09 101.89,-137.05"/>
<polygon fill="#63b8ff" stroke="#63b8ff" points="102.52,-133.6 91.97,-134.57 100.82,-140.39 102.52,-133.6"/>
</a>
</g>
</g>
<!-- Node5 -->
<g id="Node000005" class="node">
<title>Node5</title>
<g id="a_Node000005"><a xlink:title=" ">
<polygon fill="#e0e0e0" stroke="#999999" points="173.66,-134.5 123.66,-134.5 123.66,-115.5 173.66,-115.5 173.66,-134.5"/>
<text text-anchor="middle" x="148.66" y="-122.5" font-family="Helvetica,sans-Serif" font-size="10.00">cstdint</text>
</a>
</g>
</g>
<!-- Node2&#45;&gt;Node5 -->
<g id="edge4_Node000002_Node000005" class="edge">
<title>Node2&#45;&gt;Node5</title>
<g id="a_edge4_Node000002_Node000005"><a xlink:title=" ">
<path fill="none" stroke="#63b8ff" d="M327.83,-176.78C290.03,-169.02 231.84,-155.94 182.66,-140 180.99,-139.46 179.28,-138.87 177.57,-138.26"/>
<polygon fill="#63b8ff" stroke="#63b8ff" points="178.47,-134.85 167.88,-134.52 175.95,-141.38 178.47,-134.85"/>
</a>
</g>
</g>
<!-- Node6 -->
<g id="Node000006" class="node">
<title>Node6</title>
<g id="a_Node000006"><a xlink:title=" ">
<polygon fill="#e0e0e0" stroke="#999999" points="257.16,-134.5 192.16,-134.5 192.16,-115.5 257.16,-115.5 257.16,-134.5"/>
<text text-anchor="middle" x="224.66" y="-122.5" font-family="Helvetica,sans-Serif" font-size="10.00">functional</text>
</a>
</g>
</g>
<!-- Node2&#45;&gt;Node6 -->
<g id="edge5_Node000002_Node000006" class="edge">
<title>Node2&#45;&gt;Node6</title>
<g id="a_edge5_Node000002_Node000006"><a xlink:title=" ">
<path fill="none" stroke="#63b8ff" d="M346.86,-175.99C322.72,-166.12 282.67,-149.73 255.04,-138.43"/>
<polygon fill="#63b8ff" stroke="#63b8ff" points="256.06,-135.06 245.48,-134.52 253.41,-141.54 256.06,-135.06"/>
</a>
</g>
</g>
<!-- Node7 -->
<g id="Node000007" class="node">
<title>Node7</title>
<g id="a_Node000007"><a xlink:title=" ">
<polygon fill="#e0e0e0" stroke="#999999" points="333.66,-134.5 275.66,-134.5 275.66,-115.5 333.66,-115.5 333.66,-134.5"/>
<text text-anchor="middle" x="304.66" y="-122.5" font-family="Helvetica,sans-Serif" font-size="10.00">memory</text>
</a>
</g>
</g>
<!-- Node2&#45;&gt;Node7 -->
<g id="edge6_Node000002_Node000007" class="edge">
<title>Node2&#45;&gt;Node7</title>
<g id="a_edge6_Node000002_Node000007"><a xlink:title=" ">
<path fill="none" stroke="#63b8ff" d="M358.36,-175.87C348.68,-166.88 333.32,-152.61 321.5,-141.64"/>
<polygon fill="#63b8ff" stroke="#63b8ff" points="323.7,-138.91 313.99,-134.67 318.94,-144.04 323.7,-138.91"/>
</a>
</g>
</g>
<!-- Node8 -->
<g id="Node000008" class="node">
<title>Node8</title>
<g id="a_Node000008"><a xlink:title=" ">
<polygon fill="#e0e0e0" stroke="#999999" points="383.66,-134.5 351.66,-134.5 351.66,-115.5 383.66,-115.5 383.66,-134.5"/>
<text text-anchor="middle" x="367.66" y="-122.5" font-family="Helvetica,sans-Serif" font-size="10.00">set</text>
</a>
</g>
</g>
<!-- Node2&#45;&gt;Node8 -->
<g id="edge7_Node000002_Node000008" class="edge">
<title>Node2&#45;&gt;Node8</title>
<g id="a_edge7_Node000002_Node000008"><a xlink:title=" ">
<path fill="none" stroke="#63b8ff" d="M367.66,-175.87C367.66,-167.75 367.66,-155.31 367.66,-144.89"/>
<polygon fill="#63b8ff" stroke="#63b8ff" points="371.16,-144.67 367.66,-134.67 364.16,-144.67 371.16,-144.67"/>
</a>
</g>
</g>
<!-- Node9 -->
<g id="Node000009" class="node">
<title>Node9</title>
<g id="a_Node000009"><a xlink:title=" ">
<polygon fill="#e0e0e0" stroke="#999999" points="445.66,-134.5 401.66,-134.5 401.66,-115.5 445.66,-115.5 445.66,-134.5"/>
<text text-anchor="middle" x="423.66" y="-122.5" font-family="Helvetica,sans-Serif" font-size="10.00">string</text>
</a>
</g>
</g>
<!-- Node2&#45;&gt;Node9 -->
<g id="edge8_Node000002_Node000009" class="edge">
<title>Node2&#45;&gt;Node9</title>
<g id="a_edge8_Node000002_Node000009"><a xlink:title=" ">
<path fill="none" stroke="#63b8ff" d="M375.92,-175.87C384.44,-166.97 397.92,-152.89 408.39,-141.95"/>
<polygon fill="#63b8ff" stroke="#63b8ff" points="410.97,-144.31 415.36,-134.67 405.92,-139.47 410.97,-144.31"/>
</a>
</g>
</g>
<!-- Node10 -->
<g id="Node000010" class="node">
<title>Node10</title>
<g id="a_Node000010"><a xlink:title=" ">
<polygon fill="#e0e0e0" stroke="#999999" points="591.16,-140 464.16,-140 464.16,-110 591.16,-110 591.16,-140"/>
<text text-anchor="start" x="472.16" y="-128" font-family="Helvetica,sans-Serif" font-size="10.00">ulog_cpp/data_handler</text>
<text text-anchor="middle" x="527.66" y="-117" font-family="Helvetica,sans-Serif" font-size="10.00">_interface.hpp</text>
</a>
</g>
</g>
<!-- Node2&#45;&gt;Node10 -->
<g id="edge9_Node000002_Node000010" class="edge">
<title>Node2&#45;&gt;Node10</title>
<g id="a_edge9_Node000002_Node000010"><a xlink:title=" ">
<path fill="none" stroke="#63b8ff" d="M390.92,-175.99C414.05,-167.54 450.21,-154.32 479.54,-143.59"/>
<polygon fill="#63b8ff" stroke="#63b8ff" points="481,-146.79 489.19,-140.06 478.6,-140.21 481,-146.79"/>
</a>
</g>
</g>
<!-- Node11 -->
<g id="Node000011" class="node">
<title>Node11</title>
<g id="a_Node000011"><a xlink:title=" ">
<polygon fill="#e0e0e0" stroke="#999999" points="743.66,-134.5 609.66,-134.5 609.66,-115.5 743.66,-115.5 743.66,-134.5"/>
<text text-anchor="middle" x="676.66" y="-122.5" font-family="Helvetica,sans-Serif" font-size="10.00">ulog_cpp/messages.hpp</text>
</a>
</g>
</g>
<!-- Node2&#45;&gt;Node11 -->
<g id="edge10_Node000002_Node000011" class="edge">
<title>Node2&#45;&gt;Node11</title>
<g id="a_edge10_Node000002_Node000011"><a xlink:title=" ">
<path fill="none" stroke="#63b8ff" d="M407.42,-176.97C461.93,-166.65 560.08,-148.07 621.61,-136.42"/>
<polygon fill="#63b8ff" stroke="#63b8ff" points="622.36,-139.84 631.54,-134.54 621.06,-132.96 622.36,-139.84"/>
</a>
</g>
</g>
<!-- Node12 -->
<g id="Node000012" class="node">
<title>Node12</title>
<g id="a_Node000012"><a xlink:title=" ">
<polygon fill="#e0e0e0" stroke="#999999" points="905.16,-134.5 762.16,-134.5 762.16,-115.5 905.16,-115.5 905.16,-134.5"/>
<text text-anchor="middle" x="833.66" y="-122.5" font-family="Helvetica,sans-Serif" font-size="10.00">ulog_cpp/subscription.hpp</text>
</a>
</g>
</g>
<!-- Node2&#45;&gt;Node12 -->
<g id="edge11_Node000002_Node000012" class="edge">
<title>Node2&#45;&gt;Node12</title>
<g id="a_edge11_Node000002_Node000012"><a xlink:title=" ">
<path fill="none" stroke="#63b8ff" d="M407.38,-180.65C477.32,-173.71 626.95,-158.11 752.66,-140 760.59,-138.86 768.94,-137.54 777.15,-136.18"/>
<polygon fill="#63b8ff" stroke="#63b8ff" points="777.76,-139.63 787.04,-134.52 776.6,-132.73 777.76,-139.63"/>
</a>
</g>
</g>
<!-- Node13&#45;&gt;Node3 -->
<g id="edge19_Node000013_Node000003" class="edge">
<title>Node13&#45;&gt;Node3</title>
<g id="a_edge19_Node000013_Node000003"><a xlink:title=" ">
<path fill="none" stroke="#63b8ff" d="M1023.44,-177.54C997.95,-171.54 970.51,-160.45 952.66,-140 925.55,-108.96 924.72,-57.43 926.6,-29.65"/>
<polygon fill="#63b8ff" stroke="#63b8ff" points="930.12,-29.6 927.5,-19.33 923.14,-28.99 930.12,-29.6"/>
</a>
</g>
</g>
<!-- Node14 -->
<g id="Node000014" class="node">
<title>Node14</title>
<g id="a_Node000014"><a xlink:href="QmlObjectListModel_8h.html" target="_top" xlink:title=" ">
<polygon fill="white" stroke="#666666" points="1087.16,-134.5 962.16,-134.5 962.16,-115.5 1087.16,-115.5 1087.16,-134.5"/>
<text text-anchor="middle" x="1024.66" y="-122.5" font-family="Helvetica,sans-Serif" font-size="10.00">QmlObjectListModel.h</text>
</a>
</g>
</g>
<!-- Node13&#45;&gt;Node14 -->
<g id="edge13_Node000013_Node000014" class="edge">
<title>Node13&#45;&gt;Node14</title>
<g id="a_edge13_Node000013_Node000014"><a xlink:title=" ">
<path fill="none" stroke="#63b8ff" d="M1078.36,-175.87C1068.68,-166.88 1053.32,-152.61 1041.5,-141.64"/>
<polygon fill="#63b8ff" stroke="#63b8ff" points="1043.7,-138.91 1033.99,-134.67 1038.94,-144.04 1043.7,-138.91"/>
</a>
</g>
</g>
<!-- Node18 -->
<g id="Node000018" class="node">
<title>Node18</title>
<g id="a_Node000018"><a xlink:title=" ">
<polygon fill="#e0e0e0" stroke="#999999" points="1197.66,-134.5 1105.66,-134.5 1105.66,-115.5 1197.66,-115.5 1197.66,-134.5"/>
<text text-anchor="middle" x="1151.66" y="-122.5" font-family="Helvetica,sans-Serif" font-size="10.00">QtCore/QObject</text>
</a>
</g>
</g>
<!-- Node13&#45;&gt;Node18 -->
<g id="edge20_Node000013_Node000018" class="edge">
<title>Node13&#45;&gt;Node18</title>
<g id="a_edge20_Node000013_Node000018"><a xlink:title=" ">
<path fill="none" stroke="#63b8ff" d="M1097.1,-175.87C1106.93,-166.88 1122.54,-152.61 1134.55,-141.64"/>
<polygon fill="#63b8ff" stroke="#63b8ff" points="1137.16,-144 1142.18,-134.67 1132.43,-138.83 1137.16,-144"/>
</a>
</g>
</g>
<!-- Node19 -->
<g id="Node000019" class="node">
<title>Node19</title>
<g id="a_Node000019"><a xlink:title=" ">
<polygon fill="#e0e0e0" stroke="#999999" points="1323.16,-134.5 1216.16,-134.5 1216.16,-115.5 1323.16,-115.5 1323.16,-134.5"/>
<text text-anchor="middle" x="1269.66" y="-122.5" font-family="Helvetica,sans-Serif" font-size="10.00">QtCore/QStringList</text>
</a>
</g>
</g>
<!-- Node13&#45;&gt;Node19 -->
<g id="edge21_Node000013_Node000019" class="edge">
<title>Node13&#45;&gt;Node19</title>
<g id="a_edge21_Node000013_Node000019"><a xlink:title=" ">
<path fill="none" stroke="#63b8ff" d="M1114.12,-175.99C1145.53,-165.9 1198.06,-149.01 1233.28,-137.69"/>
<polygon fill="#63b8ff" stroke="#63b8ff" points="1234.71,-140.91 1243.16,-134.52 1232.57,-134.24 1234.71,-140.91"/>
</a>
</g>
</g>
<!-- Node20 -->
<g id="Node000020" class="node">
<title>Node20</title>
<g id="a_Node000020"><a xlink:title=" ">
<polygon fill="#e0e0e0" stroke="#999999" points="1423.66,-134.5 1341.66,-134.5 1341.66,-115.5 1423.66,-115.5 1423.66,-134.5"/>
<text text-anchor="middle" x="1382.66" y="-122.5" font-family="Helvetica,sans-Serif" font-size="10.00">QtCore/QMap</text>
</a>
</g>
</g>
<!-- Node13&#45;&gt;Node20 -->
<g id="edge22_Node000013_Node000020" class="edge">
<title>Node13&#45;&gt;Node20</title>
<g id="a_edge22_Node000013_Node000020"><a xlink:title=" ">
<path fill="none" stroke="#63b8ff" d="M1142.93,-175.97C1192.79,-167.92 1267.99,-154.89 1332.66,-140 1336.34,-139.15 1340.17,-138.2 1343.98,-137.21"/>
<polygon fill="#63b8ff" stroke="#63b8ff" points="1345.21,-140.51 1353.96,-134.53 1343.39,-133.75 1345.21,-140.51"/>
</a>
</g>
</g>
<!-- Node14&#45;&gt;Node3 -->
<g id="edge18_Node000014_Node000003" class="edge">
<title>Node14&#45;&gt;Node3</title>
<g id="a_edge18_Node000014_Node000003"><a xlink:title=" ">
<path fill="none" stroke="#63b8ff" d="M1017.44,-115.47C1001.53,-96.65 963.19,-51.32 942.48,-26.84"/>
<polygon fill="#63b8ff" stroke="#63b8ff" points="945.09,-24.5 935.96,-19.13 939.74,-29.03 945.09,-24.5"/>
</a>
</g>
</g>
<!-- Node15 -->
<g id="Node000015" class="node">
<title>Node15</title>
<g id="a_Node000015"><a xlink:href="ObjectListModelBase_8h.html" target="_top" xlink:title=" ">
<polygon fill="white" stroke="#666666" points="1152.66,-74 1024.66,-74 1024.66,-55 1152.66,-55 1152.66,-74"/>
<text text-anchor="middle" x="1088.66" y="-62" font-family="Helvetica,sans-Serif" font-size="10.00">ObjectListModelBase.h</text>
</a>
</g>
</g>
<!-- Node14&#45;&gt;Node15 -->
<g id="edge14_Node000014_Node000015" class="edge">
<title>Node14&#45;&gt;Node15</title>
<g id="a_edge14_Node000014_Node000015"><a xlink:title=" ">
<path fill="none" stroke="#63b8ff" d="M1034.1,-115.37C1043.93,-106.38 1059.54,-92.11 1071.55,-81.14"/>
<polygon fill="#63b8ff" stroke="#63b8ff" points="1074.16,-83.5 1079.18,-74.17 1069.43,-78.33 1074.16,-83.5"/>
</a>
</g>
</g>
<!-- Node15&#45;&gt;Node3 -->
<g id="edge16_Node000015_Node000003" class="edge">
<title>Node15&#45;&gt;Node3</title>
<g id="a_edge16_Node000015_Node000003"><a xlink:title=" ">
<path fill="none" stroke="#63b8ff" d="M1062.95,-54.98C1036.2,-46.13 994.13,-32.19 964.21,-22.28"/>
<polygon fill="#63b8ff" stroke="#63b8ff" points="965.16,-18.9 954.57,-19.08 962.96,-25.55 965.16,-18.9"/>
</a>
</g>
</g>
<!-- Node16 -->
<g id="Node000016" class="node">
<title>Node16</title>
<g id="a_Node000016"><a xlink:title=" ">
<polygon fill="#e0e0e0" stroke="#999999" points="1167.16,-19 1018.16,-19 1018.16,0 1167.16,0 1167.16,-19"/>
<text text-anchor="middle" x="1092.66" y="-7" font-family="Helvetica,sans-Serif" font-size="10.00">QtCore/QAbstractListModel</text>
</a>
</g>
</g>
<!-- Node15&#45;&gt;Node16 -->
<g id="edge15_Node000015_Node000016" class="edge">
<title>Node15&#45;&gt;Node16</title>
<g id="a_edge15_Node000015_Node000016"><a xlink:title=" ">
<path fill="none" stroke="#63b8ff" d="M1089.32,-54.75C1089.84,-47.8 1090.59,-37.85 1091.25,-29.13"/>
<polygon fill="#63b8ff" stroke="#63b8ff" points="1094.75,-29.32 1092.01,-19.09 1087.77,-28.8 1094.75,-29.32"/>
</a>
</g>
</g>
<!-- Node17 -->
<g id="Node000017" class="node">
<title>Node17</title>
<g id="a_Node000017"><a xlink:title=" ">
<polygon fill="#e0e0e0" stroke="#999999" points="1374.16,-19 1185.16,-19 1185.16,0 1374.16,0 1374.16,-19"/>
<text text-anchor="middle" x="1279.66" y="-7" font-family="Helvetica,sans-Serif" font-size="10.00">QtQmlIntegration/QtQmlIntegration</text>
</a>
</g>
</g>
<!-- Node15&#45;&gt;Node17 -->
<g id="edge17_Node000015_Node000017" class="edge">
<title>Node15&#45;&gt;Node17</title>
<g id="a_edge17_Node000015_Node000017"><a xlink:title=" ">
<path fill="none" stroke="#63b8ff" d="M1119.34,-54.98C1151.83,-45.97 1203.25,-31.7 1239.07,-21.76"/>
<polygon fill="#63b8ff" stroke="#63b8ff" points="1240.03,-25.13 1248.73,-19.08 1238.16,-18.38 1240.03,-25.13"/>
</a>
</g>
</g>
</g>
</svg>
