<?xml version="1.0" encoding="UTF-8" standalone="no"?>
<!DOCTYPE svg PUBLIC "-//W3C//DTD SVG 1.1//EN"
 "http://www.w3.org/Graphics/SVG/1.1/DTD/svg11.dtd">
<!-- Generated by graphviz version 2.43.0 (0)
 -->
<!-- Title: src/AnalyzeView/GeoTag/ULogParser.cc Pages: 1 -->
<svg width="1472pt" height="214pt"
 viewBox="0.00 0.00 1472.00 214.00" xmlns="http://www.w3.org/2000/svg" xmlns:xlink="http://www.w3.org/1999/xlink">
<g id="graph0" class="graph" transform="scale(1 1) rotate(0) translate(4 210)">
<title>src/AnalyzeView/GeoTag/ULogParser.cc</title>
<!-- Node1 -->
<g id="Node000001" class="node">
<title>Node1</title>
<g id="a_Node000001"><a xlink:title=" ">
<polygon fill="#999999" stroke="#666666" points="1116.5,-206 980.5,-206 980.5,-176 1116.5,-176 1116.5,-206"/>
<text text-anchor="start" x="988.5" y="-194" font-family="Helvetica,sans-Serif" font-size="10.00">src/AnalyzeView/GeoTag</text>
<text text-anchor="middle" x="1048.5" y="-183" font-family="Helvetica,sans-Serif" font-size="10.00">/ULogParser.cc</text>
</a>
</g>
</g>
<!-- Node2 -->
<g id="Node000002" class="node">
<title>Node2</title>
<g id="a_Node000002"><a xlink:href="ULogParser_8h.html" target="_top" xlink:title=" ">
<polygon fill="white" stroke="#666666" points="492.5,-140 412.5,-140 412.5,-121 492.5,-121 492.5,-140"/>
<text text-anchor="middle" x="452.5" y="-128" font-family="Helvetica,sans-Serif" font-size="10.00">ULogParser.h</text>
</a>
</g>
</g>
<!-- Node1&#45;&gt;Node2 -->
<g id="edge1_Node000001_Node000002" class="edge">
<title>Node1&#45;&gt;Node2</title>
<g id="a_edge1_Node000001_Node000002"><a xlink:title=" ">
<path fill="none" stroke="#63b8ff" d="M980.42,-183.32C859.53,-171.45 610.04,-146.96 503.04,-136.46"/>
<polygon fill="#63b8ff" stroke="#63b8ff" points="503.13,-132.95 492.83,-135.46 502.44,-139.92 503.13,-132.95"/>
</a>
</g>
</g>
<!-- Node11 -->
<g id="Node000011" class="node">
<title>Node11</title>
<g id="a_Node000011"><a xlink:href="ULogUtility_8h.html" target="_top" xlink:title=" ">
<polygon fill="white" stroke="#666666" points="1027,-140 948,-140 948,-121 1027,-121 1027,-140"/>
<text text-anchor="middle" x="987.5" y="-128" font-family="Helvetica,sans-Serif" font-size="10.00">ULogUtility.h</text>
</a>
</g>
</g>
<!-- Node1&#45;&gt;Node11 -->
<g id="edge10_Node000001_Node000011" class="edge">
<title>Node1&#45;&gt;Node11</title>
<g id="a_edge10_Node000001_Node000011"><a xlink:title=" ">
<path fill="none" stroke="#63b8ff" d="M1033.73,-175.84C1024.79,-167.26 1013.36,-156.3 1004.1,-147.42"/>
<polygon fill="#63b8ff" stroke="#63b8ff" points="1006.28,-144.66 996.64,-140.27 1001.44,-149.71 1006.28,-144.66"/>
</a>
</g>
</g>
<!-- Node18 -->
<g id="Node000018" class="node">
<title>Node18</title>
<g id="a_Node000018"><a xlink:href="QGCLoggingCategory_8h.html" target="_top" xlink:title=" ">
<polygon fill="white" stroke="#666666" points="1173.5,-140 1045.5,-140 1045.5,-121 1173.5,-121 1173.5,-140"/>
<text text-anchor="middle" x="1109.5" y="-128" font-family="Helvetica,sans-Serif" font-size="10.00">QGCLoggingCategory.h</text>
</a>
</g>
</g>
<!-- Node1&#45;&gt;Node18 -->
<g id="edge20_Node000001_Node000018" class="edge">
<title>Node1&#45;&gt;Node18</title>
<g id="a_edge20_Node000001_Node000018"><a xlink:title=" ">
<path fill="none" stroke="#63b8ff" d="M1063.27,-175.84C1072.21,-167.26 1083.64,-156.3 1092.9,-147.42"/>
<polygon fill="#63b8ff" stroke="#63b8ff" points="1095.56,-149.71 1100.36,-140.27 1090.72,-144.66 1095.56,-149.71"/>
</a>
</g>
</g>
<!-- Node20 -->
<g id="Node000020" class="node">
<title>Node20</title>
<g id="a_Node000020"><a xlink:title=" ">
<polygon fill="#e0e0e0" stroke="#999999" points="1239,-140 1192,-140 1192,-121 1239,-121 1239,-140"/>
<text text-anchor="middle" x="1215.5" y="-128" font-family="Helvetica,sans-Serif" font-size="10.00">cmath</text>
</a>
</g>
</g>
<!-- Node1&#45;&gt;Node20 -->
<g id="edge22_Node000001_Node000020" class="edge">
<title>Node1&#45;&gt;Node20</title>
<g id="a_edge22_Node000001_Node000020"><a xlink:title=" ">
<path fill="none" stroke="#63b8ff" d="M1088.5,-175.99C1117.08,-165.98 1155.09,-152.66 1182.06,-143.21"/>
<polygon fill="#63b8ff" stroke="#63b8ff" points="1183.53,-146.41 1191.81,-139.8 1181.21,-139.8 1183.53,-146.41"/>
</a>
</g>
</g>
<!-- Node3 -->
<g id="Node000003" class="node">
<title>Node3</title>
<g id="a_Node000003"><a xlink:href="GeoTagData_8h.html" target="_top" xlink:title=" ">
<polygon fill="white" stroke="#666666" points="202,-79.5 117,-79.5 117,-60.5 202,-60.5 202,-79.5"/>
<text text-anchor="middle" x="159.5" y="-67.5" font-family="Helvetica,sans-Serif" font-size="10.00">GeoTagData.h</text>
</a>
</g>
</g>
<!-- Node2&#45;&gt;Node3 -->
<g id="edge2_Node000002_Node000003" class="edge">
<title>Node2&#45;&gt;Node3</title>
<g id="a_edge2_Node000002_Node000003"><a xlink:title=" ">
<path fill="none" stroke="#63b8ff" d="M412.21,-123.08C364.19,-115.19 281.63,-100.89 211.5,-85 207.61,-84.12 203.57,-83.14 199.55,-82.13"/>
<polygon fill="#63b8ff" stroke="#63b8ff" points="200.2,-78.68 189.64,-79.56 198.44,-85.46 200.2,-78.68"/>
</a>
</g>
</g>
<!-- Node7 -->
<g id="Node000007" class="node">
<title>Node7</title>
<g id="a_Node000007"><a xlink:title=" ">
<polygon fill="#e0e0e0" stroke="#999999" points="330.5,-79.5 220.5,-79.5 220.5,-60.5 330.5,-60.5 330.5,-79.5"/>
<text text-anchor="middle" x="275.5" y="-67.5" font-family="Helvetica,sans-Serif" font-size="10.00">QtCore/QByteArray</text>
</a>
</g>
</g>
<!-- Node2&#45;&gt;Node7 -->
<g id="edge6_Node000002_Node000007" class="edge">
<title>Node2&#45;&gt;Node7</title>
<g id="a_edge6_Node000002_Node000007"><a xlink:title=" ">
<path fill="none" stroke="#63b8ff" d="M426.76,-120.99C396.22,-110.9 345.13,-94.01 310.88,-82.69"/>
<polygon fill="#63b8ff" stroke="#63b8ff" points="311.86,-79.33 301.27,-79.52 309.66,-85.98 311.86,-79.33"/>
</a>
</g>
</g>
<!-- Node8 -->
<g id="Node000008" class="node">
<title>Node8</title>
<g id="a_Node000008"><a xlink:title=" ">
<polygon fill="#e0e0e0" stroke="#999999" points="426.5,-79.5 348.5,-79.5 348.5,-60.5 426.5,-60.5 426.5,-79.5"/>
<text text-anchor="middle" x="387.5" y="-67.5" font-family="Helvetica,sans-Serif" font-size="10.00">QtCore/QList</text>
</a>
</g>
</g>
<!-- Node2&#45;&gt;Node8 -->
<g id="edge7_Node000002_Node000008" class="edge">
<title>Node2&#45;&gt;Node8</title>
<g id="a_edge7_Node000002_Node000008"><a xlink:title=" ">
<path fill="none" stroke="#63b8ff" d="M442.91,-120.87C432.92,-111.88 417.07,-97.61 404.87,-86.64"/>
<polygon fill="#63b8ff" stroke="#63b8ff" points="406.9,-83.76 397.13,-79.67 402.22,-88.96 406.9,-83.76"/>
</a>
</g>
</g>
<!-- Node9 -->
<g id="Node000009" class="node">
<title>Node9</title>
<g id="a_Node000009"><a xlink:title=" ">
<polygon fill="#e0e0e0" stroke="#999999" points="695,-79.5 606,-79.5 606,-60.5 695,-60.5 695,-79.5"/>
<text text-anchor="middle" x="650.5" y="-67.5" font-family="Helvetica,sans-Serif" font-size="10.00">QtCore/QString</text>
</a>
</g>
</g>
<!-- Node2&#45;&gt;Node9 -->
<g id="edge8_Node000002_Node000009" class="edge">
<title>Node2&#45;&gt;Node9</title>
<g id="a_edge8_Node000002_Node000009"><a xlink:title=" ">
<path fill="none" stroke="#63b8ff" d="M481.29,-120.99C515.75,-110.81 573.59,-93.72 611.9,-82.4"/>
<polygon fill="#63b8ff" stroke="#63b8ff" points="613.08,-85.71 621.67,-79.52 611.09,-78.99 613.08,-85.71"/>
</a>
</g>
</g>
<!-- Node10 -->
<g id="Node000010" class="node">
<title>Node10</title>
<g id="a_Node000010"><a xlink:title=" ">
<polygon fill="#e0e0e0" stroke="#999999" points="588,-79.5 445,-79.5 445,-60.5 588,-60.5 588,-79.5"/>
<text text-anchor="middle" x="516.5" y="-67.5" font-family="Helvetica,sans-Serif" font-size="10.00">ulog_cpp/subscription.hpp</text>
</a>
</g>
</g>
<!-- Node2&#45;&gt;Node10 -->
<g id="edge9_Node000002_Node000010" class="edge">
<title>Node2&#45;&gt;Node10</title>
<g id="a_edge9_Node000002_Node000010"><a xlink:title=" ">
<path fill="none" stroke="#63b8ff" d="M461.94,-120.87C471.77,-111.88 487.39,-97.61 499.39,-86.64"/>
<polygon fill="#63b8ff" stroke="#63b8ff" points="502,-89 507.02,-79.67 497.28,-83.83 502,-89"/>
</a>
</g>
</g>
<!-- Node4 -->
<g id="Node000004" class="node">
<title>Node4</title>
<g id="a_Node000004"><a xlink:title=" ">
<polygon fill="#e0e0e0" stroke="#999999" points="292,-19 183,-19 183,0 292,0 292,-19"/>
<text text-anchor="middle" x="237.5" y="-7" font-family="Helvetica,sans-Serif" font-size="10.00">QtGui/QQuaternion</text>
</a>
</g>
</g>
<!-- Node3&#45;&gt;Node4 -->
<g id="edge3_Node000003_Node000004" class="edge">
<title>Node3&#45;&gt;Node4</title>
<g id="a_edge3_Node000003_Node000004"><a xlink:title=" ">
<path fill="none" stroke="#63b8ff" d="M171.01,-60.37C183.34,-51.12 203.12,-36.28 217.91,-25.19"/>
<polygon fill="#63b8ff" stroke="#63b8ff" points="220.04,-27.97 225.94,-19.17 215.84,-22.37 220.04,-27.97"/>
</a>
</g>
</g>
<!-- Node5 -->
<g id="Node000005" class="node">
<title>Node5</title>
<g id="a_Node000005"><a xlink:title=" ">
<polygon fill="#e0e0e0" stroke="#999999" points="165,-19 0,-19 0,0 165,0 165,-19"/>
<text text-anchor="middle" x="82.5" y="-7" font-family="Helvetica,sans-Serif" font-size="10.00">QtPositioning/QGeoCoordinate</text>
</a>
</g>
</g>
<!-- Node3&#45;&gt;Node5 -->
<g id="edge4_Node000003_Node000005" class="edge">
<title>Node3&#45;&gt;Node5</title>
<g id="a_edge4_Node000003_Node000005"><a xlink:title=" ">
<path fill="none" stroke="#63b8ff" d="M148.14,-60.37C136.08,-51.21 116.8,-36.56 102.25,-25.51"/>
<polygon fill="#63b8ff" stroke="#63b8ff" points="103.99,-22.43 93.91,-19.17 99.75,-28 103.99,-22.43"/>
</a>
</g>
</g>
<!-- Node6 -->
<g id="Node000006" class="node">
<title>Node6</title>
<g id="a_Node000006"><a xlink:title=" ">
<polygon fill="#e0e0e0" stroke="#999999" points="733.5,-19 683.5,-19 683.5,0 733.5,0 733.5,-19"/>
<text text-anchor="middle" x="708.5" y="-7" font-family="Helvetica,sans-Serif" font-size="10.00">cstdint</text>
</a>
</g>
</g>
<!-- Node3&#45;&gt;Node6 -->
<g id="edge5_Node000003_Node000006" class="edge">
<title>Node3&#45;&gt;Node6</title>
<g id="a_edge5_Node000003_Node000006"><a xlink:title=" ">
<path fill="none" stroke="#63b8ff" d="M187.64,-60.47C195.32,-58.4 203.68,-56.39 211.5,-55 382.91,-24.49 591.5,-14.46 673.25,-11.56"/>
<polygon fill="#63b8ff" stroke="#63b8ff" points="673.6,-15.05 683.47,-11.21 673.36,-8.05 673.6,-15.05"/>
</a>
</g>
</g>
<!-- Node11&#45;&gt;Node6 -->
<g id="edge12_Node000011_Node000006" class="edge">
<title>Node11&#45;&gt;Node6</title>
<g id="a_edge12_Node000011_Node000006"><a xlink:title=" ">
<path fill="none" stroke="#63b8ff" d="M1015.89,-120.92C1032.96,-114.13 1053.31,-102.77 1063.5,-85 1070.13,-73.43 1072.32,-65 1063.5,-55 1042.52,-31.22 829.07,-17.06 743.61,-12.31"/>
<polygon fill="#63b8ff" stroke="#63b8ff" points="743.78,-8.81 733.6,-11.76 743.4,-15.8 743.78,-8.81"/>
</a>
</g>
</g>
<!-- Node11&#45;&gt;Node9 -->
<g id="edge11_Node000011_Node000009" class="edge">
<title>Node11&#45;&gt;Node9</title>
<g id="a_edge11_Node000011_Node000009"><a xlink:title=" ">
<path fill="none" stroke="#63b8ff" d="M947.75,-124.59C892.62,-117.47 789.95,-103.14 703.5,-85 699.31,-84.12 694.95,-83.12 690.62,-82.06"/>
<polygon fill="#63b8ff" stroke="#63b8ff" points="691.19,-78.6 680.64,-79.54 689.48,-85.38 691.19,-78.6"/>
</a>
</g>
</g>
<!-- Node11&#45;&gt;Node10 -->
<g id="edge19_Node000011_Node000010" class="edge">
<title>Node11&#45;&gt;Node10</title>
<g id="a_edge19_Node000011_Node000010"><a xlink:title=" ">
<path fill="none" stroke="#63b8ff" d="M948,-125.79C877.32,-118.99 724.64,-103.49 596.5,-85 588.75,-83.88 580.59,-82.59 572.58,-81.25"/>
<polygon fill="#63b8ff" stroke="#63b8ff" points="572.98,-77.77 562.54,-79.54 571.81,-84.67 572.98,-77.77"/>
</a>
</g>
</g>
<!-- Node12 -->
<g id="Node000012" class="node">
<title>Node12</title>
<g id="a_Node000012"><a xlink:title=" ">
<polygon fill="#e0e0e0" stroke="#999999" points="1176,-79.5 1111,-79.5 1111,-60.5 1176,-60.5 1176,-79.5"/>
<text text-anchor="middle" x="1143.5" y="-67.5" font-family="Helvetica,sans-Serif" font-size="10.00">functional</text>
</a>
</g>
</g>
<!-- Node11&#45;&gt;Node12 -->
<g id="edge13_Node000011_Node000012" class="edge">
<title>Node11&#45;&gt;Node12</title>
<g id="a_edge13_Node000011_Node000012"><a xlink:title=" ">
<path fill="none" stroke="#63b8ff" d="M1010.18,-120.99C1036.76,-111.03 1080.98,-94.45 1111.14,-83.13"/>
<polygon fill="#63b8ff" stroke="#63b8ff" points="1112.65,-86.31 1120.79,-79.52 1110.2,-79.75 1112.65,-86.31"/>
</a>
</g>
</g>
<!-- Node13 -->
<g id="Node000013" class="node">
<title>Node13</title>
<g id="a_Node000013"><a xlink:title=" ">
<polygon fill="#e0e0e0" stroke="#999999" points="1252.5,-79.5 1194.5,-79.5 1194.5,-60.5 1252.5,-60.5 1252.5,-79.5"/>
<text text-anchor="middle" x="1223.5" y="-67.5" font-family="Helvetica,sans-Serif" font-size="10.00">memory</text>
</a>
</g>
</g>
<!-- Node11&#45;&gt;Node13 -->
<g id="edge14_Node000011_Node000013" class="edge">
<title>Node11&#45;&gt;Node13</title>
<g id="a_edge14_Node000011_Node000013"><a xlink:title=" ">
<path fill="none" stroke="#63b8ff" d="M1027.34,-122.15C1067.61,-114.35 1131.43,-100.96 1185.5,-85 1187.64,-84.37 1189.83,-83.68 1192.02,-82.96"/>
<polygon fill="#63b8ff" stroke="#63b8ff" points="1193.27,-86.23 1201.56,-79.64 1190.97,-79.62 1193.27,-86.23"/>
</a>
</g>
</g>
<!-- Node14 -->
<g id="Node000014" class="node">
<title>Node14</title>
<g id="a_Node000014"><a xlink:title=" ">
<polygon fill="#e0e0e0" stroke="#999999" points="1302.5,-79.5 1270.5,-79.5 1270.5,-60.5 1302.5,-60.5 1302.5,-79.5"/>
<text text-anchor="middle" x="1286.5" y="-67.5" font-family="Helvetica,sans-Serif" font-size="10.00">set</text>
</a>
</g>
</g>
<!-- Node11&#45;&gt;Node14 -->
<g id="edge15_Node000011_Node000014" class="edge">
<title>Node11&#45;&gt;Node14</title>
<g id="a_edge15_Node000011_Node000014"><a xlink:title=" ">
<path fill="none" stroke="#63b8ff" d="M1027.07,-122.59C1030.26,-122.05 1033.43,-121.51 1036.5,-121 1136.39,-104.35 1165.84,-118.25 1261.5,-85 1262.36,-84.7 1263.23,-84.37 1264.1,-84.02"/>
<polygon fill="#63b8ff" stroke="#63b8ff" points="1265.7,-87.13 1273.15,-79.61 1262.63,-80.84 1265.7,-87.13"/>
</a>
</g>
</g>
<!-- Node15 -->
<g id="Node000015" class="node">
<title>Node15</title>
<g id="a_Node000015"><a xlink:title=" ">
<polygon fill="#e0e0e0" stroke="#999999" points="756.5,-79.5 712.5,-79.5 712.5,-60.5 756.5,-60.5 756.5,-79.5"/>
<text text-anchor="middle" x="734.5" y="-67.5" font-family="Helvetica,sans-Serif" font-size="10.00">string</text>
</a>
</g>
</g>
<!-- Node11&#45;&gt;Node15 -->
<g id="edge16_Node000011_Node000015" class="edge">
<title>Node11&#45;&gt;Node15</title>
<g id="a_edge16_Node000011_Node000015"><a xlink:title=" ">
<path fill="none" stroke="#63b8ff" d="M947.92,-124.33C902.98,-117.83 827.81,-105.03 765.5,-85 764.06,-84.54 762.6,-84.03 761.13,-83.48"/>
<polygon fill="#63b8ff" stroke="#63b8ff" points="762.19,-80.13 751.61,-79.56 759.52,-86.6 762.19,-80.13"/>
</a>
</g>
</g>
<!-- Node16 -->
<g id="Node000016" class="node">
<title>Node16</title>
<g id="a_Node000016"><a xlink:title=" ">
<polygon fill="#e0e0e0" stroke="#999999" points="902,-85 775,-85 775,-55 902,-55 902,-85"/>
<text text-anchor="start" x="783" y="-73" font-family="Helvetica,sans-Serif" font-size="10.00">ulog_cpp/data_handler</text>
<text text-anchor="middle" x="838.5" y="-62" font-family="Helvetica,sans-Serif" font-size="10.00">_interface.hpp</text>
</a>
</g>
</g>
<!-- Node11&#45;&gt;Node16 -->
<g id="edge17_Node000011_Node000016" class="edge">
<title>Node11&#45;&gt;Node16</title>
<g id="a_edge17_Node000011_Node000016"><a xlink:title=" ">
<path fill="none" stroke="#63b8ff" d="M965.83,-120.99C944.39,-112.57 910.92,-99.43 883.67,-88.73"/>
<polygon fill="#63b8ff" stroke="#63b8ff" points="884.91,-85.46 874.32,-85.06 882.35,-91.98 884.91,-85.46"/>
</a>
</g>
</g>
<!-- Node17 -->
<g id="Node000017" class="node">
<title>Node17</title>
<g id="a_Node000017"><a xlink:title=" ">
<polygon fill="#e0e0e0" stroke="#999999" points="1054.5,-79.5 920.5,-79.5 920.5,-60.5 1054.5,-60.5 1054.5,-79.5"/>
<text text-anchor="middle" x="987.5" y="-67.5" font-family="Helvetica,sans-Serif" font-size="10.00">ulog_cpp/messages.hpp</text>
</a>
</g>
</g>
<!-- Node11&#45;&gt;Node17 -->
<g id="edge18_Node000011_Node000017" class="edge">
<title>Node11&#45;&gt;Node17</title>
<g id="a_edge18_Node000011_Node000017"><a xlink:title=" ">
<path fill="none" stroke="#63b8ff" d="M987.5,-120.87C987.5,-112.75 987.5,-100.31 987.5,-89.89"/>
<polygon fill="#63b8ff" stroke="#63b8ff" points="991,-89.67 987.5,-79.67 984,-89.67 991,-89.67"/>
</a>
</g>
</g>
<!-- Node19 -->
<g id="Node000019" class="node">
<title>Node19</title>
<g id="a_Node000019"><a xlink:title=" ">
<polygon fill="#e0e0e0" stroke="#999999" points="1464,-79.5 1321,-79.5 1321,-60.5 1464,-60.5 1464,-79.5"/>
<text text-anchor="middle" x="1392.5" y="-67.5" font-family="Helvetica,sans-Serif" font-size="10.00">QtCore/QLoggingCategory</text>
</a>
</g>
</g>
<!-- Node18&#45;&gt;Node19 -->
<g id="edge21_Node000018_Node000019" class="edge">
<title>Node18&#45;&gt;Node19</title>
<g id="a_edge21_Node000018_Node000019"><a xlink:title=" ">
<path fill="none" stroke="#63b8ff" d="M1150.65,-120.99C1201.16,-110.55 1286.82,-92.85 1341.47,-81.55"/>
<polygon fill="#63b8ff" stroke="#63b8ff" points="1342.22,-84.97 1351.3,-79.52 1340.8,-78.11 1342.22,-84.97"/>
</a>
</g>
</g>
</g>
</svg>
