<?xml version="1.0" encoding="UTF-8" standalone="no"?>
<!DOCTYPE svg PUBLIC "-//W3C//DTD SVG 1.1//EN"
 "http://www.w3.org/Graphics/SVG/1.1/DTD/svg11.dtd">
<!-- Generated by graphviz version 2.43.0 (0)
 -->
<!-- Title: src/Vehicle/Vehicle.h Pages: 1 -->
<!--zoomable 302 -->

<svg id="main" version="1.1" xmlns="http://www.w3.org/2000/svg" xmlns:xlink="http://www.w3.org/1999/xlink" xml:space="preserve" onload="init(evt)">
<style type="text/css"><![CDATA[
.node, .edge {opacity: 0.7;}
.node.selected, .edge.selected {opacity: 1;}
.edge:hover path { stroke: red; }
.edge:hover polygon { stroke: red; fill: red; }
]]></style>

<defs>
  <circle id="rim" cx="0" cy="0" r="7"/>
  <circle id="rim2" cx="0" cy="0" r="3.5"/>
  <g id="zoomPlus">
    <use xlink:href="#rim" fill="#404040"><set attributeName="fill" to="#808080" begin="zoomplus.mouseover" end="zoomplus.mouseout"/></use>
    <path d="M-4,0h8M0,-4v8" fill="none" stroke="white" stroke-width="1.5" pointer-events="none"/>
  </g>
  <g id="zoomMin">
    <use xlink:href="#rim" fill="#404040"><set attributeName="fill" to="#808080" begin="zoomminus.mouseover" end="zoomminus.mouseout"/></use>
    <path d="M-4,0h8" fill="none" stroke="white" stroke-width="1.5" pointer-events="none"/>
  </g>
  <g id="arrowUp" transform="translate(30 24)">
    <use xlink:href="#rim"/>
    <path pointer-events="none" fill="none" stroke="white" stroke-width="1.5" d="M0,-3.0v7 M-2.5,-0.5L0,-3.0L2.5,-0.5"/>
  </g>
  <g id="arrowRight" transform="rotate(90) translate(36 -43)">
    <use xlink:href="#rim"/>
    <path pointer-events="none" fill="none" stroke="white" stroke-width="1.5" d="M0,-3.0v7 M-2.5,-0.5L0,-3.0L2.5,-0.5"/>
  </g>
  <g id="arrowDown" transform="rotate(180) translate(-30 -48)">
    <use xlink:href="#rim"/>
    <path pointer-events="none" fill="none" stroke="white" stroke-width="1.5" d="M0,-3.0v7 M-2.5,-0.5L0,-3.0L2.5,-0.5"/>
  </g>
  <g id="arrowLeft" transform="rotate(270) translate(-36 17)">
    <use xlink:href="#rim"/>
    <path pointer-events="none" fill="none" stroke="white" stroke-width="1.5" d="M0,-3.0v7 M-2.5,-0.5L0,-3.0L2.5,-0.5"/>
  </g>
  <g id="resetDef">
    <use xlink:href="#rim2" fill="#404040"><set attributeName="fill" to="#808080" begin="reset.mouseover" end="reset.mouseout"/></use>
  </g>
</defs>
<script type="application/ecmascript">
var viewWidth = 1389;
var viewHeight = 302;
var sectionId = 'dynsection-0';
</script>
<script type="application/ecmascript" xlink:href="svg.min.js"/>
<svg id="graph" class="graph">
<g id="viewport">
<title>src/Vehicle/Vehicle.h</title>
<!-- Node1 -->
<g id="Node000001" class="node">
<title>Node1</title>
<g id="a_Node000001"><a xlink:title=" ">
<polygon fill="#999999" stroke="#666666" points="673.5,-294 557.5,-294 557.5,-275 673.5,-275 673.5,-294"/>
<text text-anchor="middle" x="615.5" y="-282" font-family="Helvetica,sans-Serif" font-size="10.00">src/Vehicle/Vehicle.h</text>
</a>
</g>
</g>
<!-- Node2 -->
<g id="Node000002" class="node">
<title>Node2</title>
<g id="a_Node000002"><a xlink:title=" ">
<polygon fill="#e0e0e0" stroke="#999999" points="65,-239 0,-239 0,-220 65,-220 65,-239"/>
<text text-anchor="middle" x="32.5" y="-227" font-family="Helvetica,sans-Serif" font-size="10.00">functional</text>
</a>
</g>
</g>
<!-- Node1&#45;&gt;Node2 -->
<g id="edge1_Node000001_Node000002" class="edge">
<title>Node1&#45;&gt;Node2</title>
<g id="a_edge1_Node000001_Node000002"><a xlink:title=" ">
<path fill="none" stroke="#63b8ff" d="M557.21,-280.96C459.58,-276.2 256.72,-264.22 75.44,-238.96"/>
<polygon fill="#63b8ff" stroke="#63b8ff" points="75.84,-235.48 65.45,-237.55 74.86,-242.41 75.84,-235.48"/>
</a>
</g>
</g>
<!-- Node3 -->
<g id="Node000003" class="node">
<title>Node3</title>
<g id="a_Node000003"><a xlink:title=" ">
<polygon fill="#e0e0e0" stroke="#999999" points="141.5,-239 83.5,-239 83.5,-220 141.5,-220 141.5,-239"/>
<text text-anchor="middle" x="112.5" y="-227" font-family="Helvetica,sans-Serif" font-size="10.00">memory</text>
</a>
</g>
</g>
<!-- Node1&#45;&gt;Node3 -->
<g id="edge2_Node000001_Node000003" class="edge">
<title>Node1&#45;&gt;Node3</title>
<g id="a_edge2_Node000001_Node000003"><a xlink:title=" ">
<path fill="none" stroke="#63b8ff" d="M557.21,-280.26C470.74,-274.94 303.26,-262.66 151.84,-239.03"/>
<polygon fill="#63b8ff" stroke="#63b8ff" points="152.31,-235.56 141.89,-237.45 151.22,-242.47 152.31,-235.56"/>
</a>
</g>
</g>
<!-- Node4 -->
<g id="Node000004" class="node">
<title>Node4</title>
<g id="a_Node000004"><a xlink:title=" ">
<polygon fill="#e0e0e0" stroke="#999999" points="287.5,-239 159.5,-239 159.5,-220 287.5,-220 287.5,-239"/>
<text text-anchor="middle" x="223.5" y="-227" font-family="Helvetica,sans-Serif" font-size="10.00">QtCore/QElapsedTimer</text>
</a>
</g>
</g>
<!-- Node1&#45;&gt;Node4 -->
<g id="edge3_Node000001_Node000004" class="edge">
<title>Node1&#45;&gt;Node4</title>
<g id="a_edge3_Node000001_Node000004"><a xlink:title=" ">
<path fill="none" stroke="#63b8ff" d="M557.24,-275.62C487.98,-266.26 372.33,-250.62 296.99,-240.44"/>
<polygon fill="#63b8ff" stroke="#63b8ff" points="297.01,-236.91 286.63,-239.04 296.08,-243.84 297.01,-236.91"/>
</a>
</g>
</g>
<!-- Node5 -->
<g id="Node000005" class="node">
<title>Node5</title>
<g id="a_Node000005"><a xlink:title=" ">
<polygon fill="#e0e0e0" stroke="#999999" points="383.5,-239 305.5,-239 305.5,-220 383.5,-220 383.5,-239"/>
<text text-anchor="middle" x="344.5" y="-227" font-family="Helvetica,sans-Serif" font-size="10.00">QtCore/QFile</text>
</a>
</g>
</g>
<!-- Node1&#45;&gt;Node5 -->
<g id="edge4_Node000001_Node000005" class="edge">
<title>Node1&#45;&gt;Node5</title>
<g id="a_edge4_Node000001_Node000005"><a xlink:title=" ">
<path fill="none" stroke="#63b8ff" d="M571.96,-274.98C523.25,-265.46 444.51,-250.06 393.64,-240.11"/>
<polygon fill="#63b8ff" stroke="#63b8ff" points="394.02,-236.62 383.54,-238.13 392.68,-243.49 394.02,-236.62"/>
</a>
</g>
</g>
<!-- Node6 -->
<g id="Node000006" class="node">
<title>Node6</title>
<g id="a_Node000006"><a xlink:title=" ">
<polygon fill="#e0e0e0" stroke="#999999" points="983.5,-19 891.5,-19 891.5,0 983.5,0 983.5,-19"/>
<text text-anchor="middle" x="937.5" y="-7" font-family="Helvetica,sans-Serif" font-size="10.00">QtCore/QObject</text>
</a>
</g>
</g>
<!-- Node1&#45;&gt;Node6 -->
<g id="edge5_Node000001_Node000006" class="edge">
<title>Node1&#45;&gt;Node6</title>
<g id="a_edge5_Node000001_Node000006"><a xlink:title=" ">
<path fill="none" stroke="#63b8ff" d="M620.34,-274.7C628.69,-260.46 647.28,-232.68 671.5,-220 828.03,-138.03 976.24,-285.38 1058.5,-129 1083.19,-82.07 1013.03,-42.45 969.41,-23.13"/>
<polygon fill="#63b8ff" stroke="#63b8ff" points="970.6,-19.83 960.03,-19.1 967.84,-26.26 970.6,-19.83"/>
</a>
</g>
</g>
<!-- Node7 -->
<g id="Node000007" class="node">
<title>Node7</title>
<g id="a_Node000007"><a xlink:title=" ">
<polygon fill="#e0e0e0" stroke="#999999" points="815,-239 720,-239 720,-220 815,-220 815,-239"/>
<text text-anchor="middle" x="767.5" y="-227" font-family="Helvetica,sans-Serif" font-size="10.00">QtCore/QPointer</text>
</a>
</g>
</g>
<!-- Node1&#45;&gt;Node7 -->
<g id="edge6_Node000001_Node000007" class="edge">
<title>Node1&#45;&gt;Node7</title>
<g id="a_edge6_Node000001_Node000007"><a xlink:title=" ">
<path fill="none" stroke="#63b8ff" d="M639.92,-274.98C665.22,-266.16 704.95,-252.31 733.36,-242.41"/>
<polygon fill="#63b8ff" stroke="#63b8ff" points="734.6,-245.68 742.89,-239.08 732.29,-239.07 734.6,-245.68"/>
</a>
</g>
</g>
<!-- Node8 -->
<g id="Node000008" class="node">
<title>Node8</title>
<g id="a_Node000008"><a xlink:title=" ">
<polygon fill="#e0e0e0" stroke="#999999" points="962,-239 833,-239 833,-220 962,-220 962,-239"/>
<text text-anchor="middle" x="897.5" y="-227" font-family="Helvetica,sans-Serif" font-size="10.00">QtCore/QSharedPointer</text>
</a>
</g>
</g>
<!-- Node1&#45;&gt;Node8 -->
<g id="edge7_Node000001_Node000008" class="edge">
<title>Node1&#45;&gt;Node8</title>
<g id="a_edge7_Node000001_Node000008"><a xlink:title=" ">
<path fill="none" stroke="#63b8ff" d="M660.81,-274.98C710.1,-265.72 788.93,-250.9 841.93,-240.94"/>
<polygon fill="#63b8ff" stroke="#63b8ff" points="842.66,-244.37 851.84,-239.08 841.36,-237.49 842.66,-244.37"/>
</a>
</g>
</g>
<!-- Node9 -->
<g id="Node000009" class="node">
<title>Node9</title>
<g id="a_Node000009"><a xlink:title=" ">
<polygon fill="#e0e0e0" stroke="#999999" points="1066.5,-239 980.5,-239 980.5,-220 1066.5,-220 1066.5,-239"/>
<text text-anchor="middle" x="1023.5" y="-227" font-family="Helvetica,sans-Serif" font-size="10.00">QtCore/QTime</text>
</a>
</g>
</g>
<!-- Node1&#45;&gt;Node9 -->
<g id="edge8_Node000001_Node000009" class="edge">
<title>Node1&#45;&gt;Node9</title>
<g id="a_edge8_Node000001_Node000009"><a xlink:title=" ">
<path fill="none" stroke="#63b8ff" d="M673.55,-276.92C742.03,-269.01 859.56,-254.96 970.38,-239.12"/>
<polygon fill="#63b8ff" stroke="#63b8ff" points="970.99,-242.56 980.39,-237.68 969.99,-235.63 970.99,-242.56"/>
</a>
</g>
</g>
<!-- Node10 -->
<g id="Node000010" class="node">
<title>Node10</title>
<g id="a_Node000010"><a xlink:title=" ">
<polygon fill="#e0e0e0" stroke="#999999" points="467,-129 378,-129 378,-110 467,-110 467,-129"/>
<text text-anchor="middle" x="422.5" y="-117" font-family="Helvetica,sans-Serif" font-size="10.00">QtCore/QTimer</text>
</a>
</g>
</g>
<!-- Node1&#45;&gt;Node10 -->
<g id="edge9_Node000001_Node000010" class="edge">
<title>Node1&#45;&gt;Node10</title>
<g id="a_edge9_Node000001_Node000010"><a xlink:title=" ">
<path fill="none" stroke="#63b8ff" d="M608.64,-274.76C598.42,-262.02 578.27,-237.89 558.5,-220 521.27,-186.32 472.85,-153.08 444.96,-134.83"/>
<polygon fill="#63b8ff" stroke="#63b8ff" points="446.63,-131.74 436.34,-129.24 442.82,-137.61 446.63,-131.74"/>
</a>
</g>
</g>
<!-- Node11 -->
<g id="Node000011" class="node">
<title>Node11</title>
<g id="a_Node000011"><a xlink:title=" ">
<polygon fill="#e0e0e0" stroke="#999999" points="1198,-239 1085,-239 1085,-220 1198,-220 1198,-239"/>
<text text-anchor="middle" x="1141.5" y="-227" font-family="Helvetica,sans-Serif" font-size="10.00">QtCore/QVariantList</text>
</a>
</g>
</g>
<!-- Node1&#45;&gt;Node11 -->
<g id="edge10_Node000001_Node000011" class="edge">
<title>Node1&#45;&gt;Node11</title>
<g id="a_edge10_Node000001_Node000011"><a xlink:title=" ">
<path fill="none" stroke="#63b8ff" d="M673.65,-278.47C759.03,-270.95 923.59,-255.96 1074.6,-239.07"/>
<polygon fill="#63b8ff" stroke="#63b8ff" points="1075.44,-242.49 1084.99,-237.9 1074.66,-235.54 1075.44,-242.49"/>
</a>
</g>
</g>
<!-- Node12 -->
<g id="Node000012" class="node">
<title>Node12</title>
<g id="a_Node000012"><a xlink:title=" ">
<polygon fill="#e0e0e0" stroke="#999999" points="1381,-239 1216,-239 1216,-220 1381,-220 1381,-239"/>
<text text-anchor="middle" x="1298.5" y="-227" font-family="Helvetica,sans-Serif" font-size="10.00">QtPositioning/QGeoCoordinate</text>
</a>
</g>
</g>
<!-- Node1&#45;&gt;Node12 -->
<g id="edge11_Node000001_Node000012" class="edge">
<title>Node1&#45;&gt;Node12</title>
<g id="a_edge11_Node000001_Node000012"><a xlink:title=" ">
<path fill="none" stroke="#63b8ff" d="M673.51,-279.49C777.8,-272.2 1004.17,-256.04 1205.5,-239.16"/>
<polygon fill="#63b8ff" stroke="#63b8ff" points="1206.01,-242.63 1215.68,-238.3 1205.42,-235.65 1206.01,-242.63"/>
</a>
</g>
</g>
<!-- Node13 -->
<g id="Node000013" class="node">
<title>Node13</title>
<g id="a_Node000013"><a xlink:title=" ">
<polygon fill="#e0e0e0" stroke="#999999" points="287,-19 98,-19 98,0 287,0 287,-19"/>
<text text-anchor="middle" x="192.5" y="-7" font-family="Helvetica,sans-Serif" font-size="10.00">QtQmlIntegration/QtQmlIntegration</text>
</a>
</g>
</g>
<!-- Node1&#45;&gt;Node13 -->
<g id="edge12_Node000001_Node000013" class="edge">
<title>Node1&#45;&gt;Node13</title>
<g id="a_edge12_Node000001_Node000013"><a xlink:title=" ">
<path fill="none" stroke="#63b8ff" d="M567.09,-274.99C529.24,-267.6 475.65,-255.47 430.5,-239 412.76,-232.53 410,-227.1 392.5,-220 268.5,-169.7 184.54,-236.98 105.5,-129 77.82,-91.19 134.59,-46.66 168.92,-24.5"/>
<polygon fill="#63b8ff" stroke="#63b8ff" points="170.89,-27.4 177.5,-19.12 167.17,-21.46 170.89,-27.4"/>
</a>
</g>
</g>
<!-- Node14 -->
<g id="Node000014" class="node">
<title>Node14</title>
<g id="a_Node000014"><a xlink:href="QGCMAVLink_8h.html" target="_top" xlink:title=" ">
<polygon fill="white" stroke="#666666" points="969,-184 880,-184 880,-165 969,-165 969,-184"/>
<text text-anchor="middle" x="924.5" y="-172" font-family="Helvetica,sans-Serif" font-size="10.00">QGCMAVLink.h</text>
</a>
</g>
</g>
<!-- Node1&#45;&gt;Node14 -->
<g id="edge13_Node000001_Node000014" class="edge">
<title>Node1&#45;&gt;Node14</title>
<g id="a_edge13_Node000001_Node000014"><a xlink:title=" ">
<path fill="none" stroke="#63b8ff" d="M616.09,-274.95C617.53,-261.08 622.48,-233.82 639.5,-220 673.86,-192.09 796.7,-181.5 869.42,-177.63"/>
<polygon fill="#63b8ff" stroke="#63b8ff" points="869.95,-181.1 879.76,-177.1 869.6,-174.11 869.95,-181.1"/>
</a>
</g>
</g>
<!-- Node23 -->
<g id="Node000023" class="node">
<title>Node23</title>
<g id="a_Node000023"><a xlink:href="VehicleFactGroup_8h.html" target="_top" xlink:title=" ">
<polygon fill="white" stroke="#666666" points="549.5,-239 439.5,-239 439.5,-220 549.5,-220 549.5,-239"/>
<text text-anchor="middle" x="494.5" y="-227" font-family="Helvetica,sans-Serif" font-size="10.00">VehicleFactGroup.h</text>
</a>
</g>
</g>
<!-- Node1&#45;&gt;Node23 -->
<g id="edge24_Node000001_Node000023" class="edge">
<title>Node1&#45;&gt;Node23</title>
<g id="a_edge24_Node000001_Node000023"><a xlink:title=" ">
<path fill="none" stroke="#63b8ff" d="M596.06,-274.98C576.51,-266.42 546.12,-253.11 523.68,-243.28"/>
<polygon fill="#63b8ff" stroke="#63b8ff" points="524.86,-239.98 514.29,-239.17 522.05,-246.39 524.86,-239.98"/>
</a>
</g>
</g>
<!-- Node33 -->
<g id="Node000033" class="node">
<title>Node33</title>
<g id="a_Node000033"><a xlink:href="VehicleTypes_8h.html" target="_top" xlink:title=" ">
<polygon fill="white" stroke="#666666" points="1209,-184 1120,-184 1120,-165 1209,-165 1209,-184"/>
<text text-anchor="middle" x="1164.5" y="-172" font-family="Helvetica,sans-Serif" font-size="10.00">VehicleTypes.h</text>
</a>
</g>
</g>
<!-- Node1&#45;&gt;Node33 -->
<g id="edge44_Node000001_Node000033" class="edge">
<title>Node1&#45;&gt;Node33</title>
<g id="a_edge44_Node000001_Node000033"><a xlink:title=" ">
<path fill="none" stroke="#63b8ff" d="M624.99,-274.87C641.29,-260.62 676.29,-232.5 711.5,-220 748.24,-206.96 997.52,-187.58 1109.83,-179.38"/>
<polygon fill="#63b8ff" stroke="#63b8ff" points="1110.22,-182.87 1119.94,-178.65 1109.71,-175.88 1110.22,-182.87"/>
</a>
</g>
</g>
<!-- Node14&#45;&gt;Node6 -->
<g id="edge15_Node000014_Node000006" class="edge">
<title>Node14&#45;&gt;Node6</title>
<g id="a_edge15_Node000014_Node000006"><a xlink:title=" ">
<path fill="none" stroke="#63b8ff" d="M928.9,-164.94C935.51,-152.4 948.68,-128.54 962.5,-110 975.47,-92.6 987.63,-94.23 995.5,-74 998.56,-66.13 999.24,-62.57 995.5,-55 989.01,-41.85 976.57,-31.5 964.86,-24.11"/>
<polygon fill="#63b8ff" stroke="#63b8ff" points="966.57,-21.05 956.17,-19.03 963.04,-27.1 966.57,-21.05"/>
</a>
</g>
</g>
<!-- Node14&#45;&gt;Node13 -->
<g id="edge17_Node000014_Node000013" class="edge">
<title>Node14&#45;&gt;Node13</title>
<g id="a_edge17_Node000014_Node000013"><a xlink:title=" ">
<path fill="none" stroke="#63b8ff" d="M879.85,-173.64C803.47,-172.78 643.49,-166.19 514.5,-129 495.97,-123.66 493.93,-115.65 475.5,-110 366.91,-76.72 313.91,-141.41 222.5,-74 207.96,-63.27 200.2,-43.68 196.24,-29.09"/>
<polygon fill="#63b8ff" stroke="#63b8ff" points="199.6,-28.07 193.91,-19.13 192.78,-29.66 199.6,-28.07"/>
</a>
</g>
</g>
<!-- Node15 -->
<g id="Node000015" class="node">
<title>Node15</title>
<g id="a_Node000015"><a xlink:title=" ">
<polygon fill="#e0e0e0" stroke="#999999" points="1049.5,-129 971.5,-129 971.5,-110 1049.5,-110 1049.5,-129"/>
<text text-anchor="middle" x="1010.5" y="-117" font-family="Helvetica,sans-Serif" font-size="10.00">QtCore/QList</text>
</a>
</g>
</g>
<!-- Node14&#45;&gt;Node15 -->
<g id="edge14_Node000014_Node000015" class="edge">
<title>Node14&#45;&gt;Node15</title>
<g id="a_edge14_Node000014_Node000015"><a xlink:title=" ">
<path fill="none" stroke="#63b8ff" d="M938.32,-164.98C951.65,-156.77 972.08,-144.18 987.81,-134.49"/>
<polygon fill="#63b8ff" stroke="#63b8ff" points="989.75,-137.4 996.43,-129.17 986.08,-131.44 989.75,-137.4"/>
</a>
</g>
</g>
<!-- Node16 -->
<g id="Node000016" class="node">
<title>Node16</title>
<g id="a_Node000016"><a xlink:title=" ">
<polygon fill="#e0e0e0" stroke="#999999" points="777,-19 688,-19 688,0 777,0 777,-19"/>
<text text-anchor="middle" x="732.5" y="-7" font-family="Helvetica,sans-Serif" font-size="10.00">QtCore/QString</text>
</a>
</g>
</g>
<!-- Node14&#45;&gt;Node16 -->
<g id="edge16_Node000014_Node000016" class="edge">
<title>Node14&#45;&gt;Node16</title>
<g id="a_edge16_Node000014_Node000016"><a xlink:title=" ">
<path fill="none" stroke="#63b8ff" d="M927.02,-164.75C930.67,-152.39 937.83,-129.19 945.5,-110 952.07,-93.57 958.63,-91.27 962.5,-74 964.35,-65.76 967.87,-61.51 962.5,-55 940.72,-28.61 848.21,-17.68 787.35,-13.3"/>
<polygon fill="#63b8ff" stroke="#63b8ff" points="787.34,-9.79 777.13,-12.6 786.87,-16.77 787.34,-9.79"/>
</a>
</g>
</g>
<!-- Node17 -->
<g id="Node000017" class="node">
<title>Node17</title>
<g id="a_Node000017"><a xlink:title=" ">
<polygon fill="#e0e0e0" stroke="#999999" points="1342,-129 1241,-129 1241,-110 1342,-110 1342,-129"/>
<text text-anchor="middle" x="1291.5" y="-117" font-family="Helvetica,sans-Serif" font-size="10.00">MAVLinkEnums.h</text>
</a>
</g>
</g>
<!-- Node14&#45;&gt;Node17 -->
<g id="edge18_Node000014_Node000017" class="edge">
<title>Node14&#45;&gt;Node17</title>
<g id="a_edge18_Node000014_Node000017"><a xlink:title=" ">
<path fill="none" stroke="#63b8ff" d="M969.13,-167.05C1034.63,-157.6 1156.98,-139.93 1230.65,-129.29"/>
<polygon fill="#63b8ff" stroke="#63b8ff" points="1231.32,-132.73 1240.72,-127.83 1230.32,-125.8 1231.32,-132.73"/>
</a>
</g>
</g>
<!-- Node18 -->
<g id="Node000018" class="node">
<title>Node18</title>
<g id="a_Node000018"><a xlink:href="MAVLinkMessageType_8h.html" target="_top" xlink:title=" ">
<polygon fill="white" stroke="#666666" points="877.5,-129 743.5,-129 743.5,-110 877.5,-110 877.5,-129"/>
<text text-anchor="middle" x="810.5" y="-117" font-family="Helvetica,sans-Serif" font-size="10.00">MAVLinkMessageType.h</text>
</a>
</g>
</g>
<!-- Node14&#45;&gt;Node18 -->
<g id="edge19_Node000014_Node000018" class="edge">
<title>Node14&#45;&gt;Node18</title>
<g id="a_edge19_Node000014_Node000018"><a xlink:title=" ">
<path fill="none" stroke="#63b8ff" d="M906.18,-164.98C887.84,-156.46 859.39,-143.23 838.27,-133.41"/>
<polygon fill="#63b8ff" stroke="#63b8ff" points="839.69,-130.21 829.15,-129.17 836.74,-136.56 839.69,-130.21"/>
</a>
</g>
</g>
<!-- Node21 -->
<g id="Node000021" class="node">
<title>Node21</title>
<g id="a_Node000021"><a xlink:href="QGCMAVLinkTypes_8h.html" target="_top" xlink:title=" ">
<polygon fill="white" stroke="#666666" points="1223,-129 1106,-129 1106,-110 1223,-110 1223,-129"/>
<text text-anchor="middle" x="1164.5" y="-117" font-family="Helvetica,sans-Serif" font-size="10.00">QGCMAVLinkTypes.h</text>
</a>
</g>
</g>
<!-- Node14&#45;&gt;Node21 -->
<g id="edge22_Node000014_Node000021" class="edge">
<title>Node14&#45;&gt;Node21</title>
<g id="a_edge22_Node000014_Node000021"><a xlink:title=" ">
<path fill="none" stroke="#63b8ff" d="M963.06,-164.98C1004.57,-155.82 1070.71,-141.21 1115.79,-131.26"/>
<polygon fill="#63b8ff" stroke="#63b8ff" points="1116.63,-134.66 1125.64,-129.08 1115.12,-127.82 1116.63,-134.66"/>
</a>
</g>
</g>
<!-- Node19 -->
<g id="Node000019" class="node">
<title>Node19</title>
<g id="a_Node000019"><a xlink:title=" ">
<polygon fill="#e0e0e0" stroke="#999999" points="837,-74 784,-74 784,-55 837,-55 837,-74"/>
<text text-anchor="middle" x="810.5" y="-62" font-family="Helvetica,sans-Serif" font-size="10.00">stdint.h</text>
</a>
</g>
</g>
<!-- Node18&#45;&gt;Node19 -->
<g id="edge20_Node000018_Node000019" class="edge">
<title>Node18&#45;&gt;Node19</title>
<g id="a_edge20_Node000018_Node000019"><a xlink:title=" ">
<path fill="none" stroke="#63b8ff" d="M810.5,-109.75C810.5,-102.8 810.5,-92.85 810.5,-84.13"/>
<polygon fill="#63b8ff" stroke="#63b8ff" points="814,-84.09 810.5,-74.09 807,-84.09 814,-84.09"/>
</a>
</g>
</g>
<!-- Node20 -->
<g id="Node000020" class="node">
<title>Node20</title>
<g id="a_Node000020"><a xlink:title=" ">
<polygon fill="#e0e0e0" stroke="#999999" points="953.5,-74 855.5,-74 855.5,-55 953.5,-55 953.5,-74"/>
<text text-anchor="middle" x="904.5" y="-62" font-family="Helvetica,sans-Serif" font-size="10.00">mavlink_types.h</text>
</a>
</g>
</g>
<!-- Node18&#45;&gt;Node20 -->
<g id="edge21_Node000018_Node000020" class="edge">
<title>Node18&#45;&gt;Node20</title>
<g id="a_edge21_Node000018_Node000020"><a xlink:title=" ">
<path fill="none" stroke="#63b8ff" d="M825.6,-109.98C840.32,-101.69 862.92,-88.94 880.17,-79.22"/>
<polygon fill="#63b8ff" stroke="#63b8ff" points="882.13,-82.13 889.12,-74.17 878.69,-76.03 882.13,-82.13"/>
</a>
</g>
</g>
<!-- Node22 -->
<g id="Node000022" class="node">
<title>Node22</title>
<g id="a_Node000022"><a xlink:title=" ">
<polygon fill="#e0e0e0" stroke="#999999" points="1189.5,-74 1139.5,-74 1139.5,-55 1189.5,-55 1189.5,-74"/>
<text text-anchor="middle" x="1164.5" y="-62" font-family="Helvetica,sans-Serif" font-size="10.00">cstdint</text>
</a>
</g>
</g>
<!-- Node21&#45;&gt;Node22 -->
<g id="edge23_Node000021_Node000022" class="edge">
<title>Node21&#45;&gt;Node22</title>
<g id="a_edge23_Node000021_Node000022"><a xlink:title=" ">
<path fill="none" stroke="#63b8ff" d="M1164.5,-109.75C1164.5,-102.8 1164.5,-92.85 1164.5,-84.13"/>
<polygon fill="#63b8ff" stroke="#63b8ff" points="1168,-84.09 1164.5,-74.09 1161,-84.09 1168,-84.09"/>
</a>
</g>
</g>
<!-- Node24 -->
<g id="Node000024" class="node">
<title>Node24</title>
<g id="a_Node000024"><a xlink:href="FactGroup_8h.html" target="_top" xlink:title=" ">
<polygon fill="white" stroke="#666666" points="459.5,-184 385.5,-184 385.5,-165 459.5,-165 459.5,-184"/>
<text text-anchor="middle" x="422.5" y="-172" font-family="Helvetica,sans-Serif" font-size="10.00">FactGroup.h</text>
</a>
</g>
</g>
<!-- Node23&#45;&gt;Node24 -->
<g id="edge25_Node000023_Node000024" class="edge">
<title>Node23&#45;&gt;Node24</title>
<g id="a_edge25_Node000023_Node000024"><a xlink:title=" ">
<path fill="none" stroke="#63b8ff" d="M482.93,-219.98C472.08,-212 455.62,-199.88 442.62,-190.31"/>
<polygon fill="#63b8ff" stroke="#63b8ff" points="444.41,-187.28 434.28,-184.17 440.26,-192.92 444.41,-187.28"/>
</a>
</g>
</g>
<!-- Node24&#45;&gt;Node10 -->
<g id="edge28_Node000024_Node000010" class="edge">
<title>Node24&#45;&gt;Node10</title>
<g id="a_edge28_Node000024_Node000010"><a xlink:title=" ">
<path fill="none" stroke="#63b8ff" d="M422.5,-164.75C422.5,-157.8 422.5,-147.85 422.5,-139.13"/>
<polygon fill="#63b8ff" stroke="#63b8ff" points="426,-139.09 422.5,-129.09 419,-139.09 426,-139.09"/>
</a>
</g>
</g>
<!-- Node24&#45;&gt;Node13 -->
<g id="edge29_Node000024_Node000013" class="edge">
<title>Node24&#45;&gt;Node13</title>
<g id="a_edge29_Node000024_Node000013"><a xlink:title=" ">
<path fill="none" stroke="#63b8ff" d="M385.46,-169.32C348,-163.96 289.25,-152.41 243.5,-129 209.81,-111.76 194.42,-108.33 178.5,-74 171.75,-59.45 176.8,-41.5 182.64,-28.4"/>
<polygon fill="#63b8ff" stroke="#63b8ff" points="185.95,-29.6 187.27,-19.09 179.68,-26.48 185.95,-29.6"/>
</a>
</g>
</g>
<!-- Node24&#45;&gt;Node18 -->
<g id="edge43_Node000024_Node000018" class="edge">
<title>Node24&#45;&gt;Node18</title>
<g id="a_edge43_Node000024_Node000018"><a xlink:title=" ">
<path fill="none" stroke="#63b8ff" d="M459.7,-168.42C523.61,-159.69 655.33,-141.7 737.93,-130.41"/>
<polygon fill="#63b8ff" stroke="#63b8ff" points="738.57,-133.86 748,-129.04 737.62,-126.92 738.57,-133.86"/>
</a>
</g>
</g>
<!-- Node25 -->
<g id="Node000025" class="node">
<title>Node25</title>
<g id="a_Node000025"><a xlink:title=" ">
<polygon fill="#e0e0e0" stroke="#999999" points="196.5,-129 114.5,-129 114.5,-110 196.5,-110 196.5,-129"/>
<text text-anchor="middle" x="155.5" y="-117" font-family="Helvetica,sans-Serif" font-size="10.00">QtCore/QMap</text>
</a>
</g>
</g>
<!-- Node24&#45;&gt;Node25 -->
<g id="edge26_Node000024_Node000025" class="edge">
<title>Node24&#45;&gt;Node25</title>
<g id="a_edge26_Node000024_Node000025"><a xlink:title=" ">
<path fill="none" stroke="#63b8ff" d="M385.37,-166.13C338.9,-156.9 259.04,-141.05 206.76,-130.68"/>
<polygon fill="#63b8ff" stroke="#63b8ff" points="207.18,-127.19 196.69,-128.68 205.82,-134.06 207.18,-127.19"/>
</a>
</g>
</g>
<!-- Node26 -->
<g id="Node000026" class="node">
<title>Node26</title>
<g id="a_Node000026"><a xlink:title=" ">
<polygon fill="#e0e0e0" stroke="#999999" points="360,-129 253,-129 253,-110 360,-110 360,-129"/>
<text text-anchor="middle" x="306.5" y="-117" font-family="Helvetica,sans-Serif" font-size="10.00">QtCore/QStringList</text>
</a>
</g>
</g>
<!-- Node24&#45;&gt;Node26 -->
<g id="edge27_Node000024_Node000026" class="edge">
<title>Node24&#45;&gt;Node26</title>
<g id="a_edge27_Node000024_Node000026"><a xlink:title=" ">
<path fill="none" stroke="#63b8ff" d="M403.86,-164.98C385.2,-156.46 356.25,-143.23 334.76,-133.41"/>
<polygon fill="#63b8ff" stroke="#63b8ff" points="336.03,-130.14 325.48,-129.17 333.12,-136.51 336.03,-130.14"/>
</a>
</g>
</g>
<!-- Node27 -->
<g id="Node000027" class="node">
<title>Node27</title>
<g id="a_Node000027"><a xlink:href="Fact_8h.html" target="_top" xlink:title=" ">
<polygon fill="white" stroke="#666666" points="569,-129 524,-129 524,-110 569,-110 569,-129"/>
<text text-anchor="middle" x="546.5" y="-117" font-family="Helvetica,sans-Serif" font-size="10.00">Fact.h</text>
</a>
</g>
</g>
<!-- Node24&#45;&gt;Node27 -->
<g id="edge30_Node000024_Node000027" class="edge">
<title>Node24&#45;&gt;Node27</title>
<g id="a_edge30_Node000024_Node000027"><a xlink:title=" ">
<path fill="none" stroke="#63b8ff" d="M442.42,-164.98C462.55,-156.38 493.88,-142.99 516.91,-133.15"/>
<polygon fill="#63b8ff" stroke="#63b8ff" points="518.4,-136.32 526.21,-129.17 515.64,-129.88 518.4,-136.32"/>
</a>
</g>
</g>
<!-- Node27&#45;&gt;Node6 -->
<g id="edge32_Node000027_Node000006" class="edge">
<title>Node27&#45;&gt;Node6</title>
<g id="a_edge32_Node000027_Node000006"><a xlink:title=" ">
<path fill="none" stroke="#63b8ff" d="M569.17,-113.16C602.21,-105.26 665.41,-89.7 718.5,-74 744.11,-66.43 749.95,-62.76 775.5,-55 815.71,-42.78 861.98,-30.22 894.75,-21.57"/>
<polygon fill="#63b8ff" stroke="#63b8ff" points="895.68,-24.95 904.46,-19.02 893.9,-18.18 895.68,-24.95"/>
</a>
</g>
</g>
<!-- Node27&#45;&gt;Node13 -->
<g id="edge36_Node000027_Node000013" class="edge">
<title>Node27&#45;&gt;Node13</title>
<g id="a_edge36_Node000027_Node000013"><a xlink:title=" ">
<path fill="none" stroke="#63b8ff" d="M523.87,-112.97C519.14,-111.91 514.17,-110.86 509.5,-110 394.76,-88.92 352.52,-128.74 249.5,-74 229.54,-63.39 213.12,-42.87 203.12,-28.02"/>
<polygon fill="#63b8ff" stroke="#63b8ff" points="205.84,-25.78 197.5,-19.25 199.94,-29.56 205.84,-25.78"/>
</a>
</g>
</g>
<!-- Node27&#45;&gt;Node16 -->
<g id="edge34_Node000027_Node000016" class="edge">
<title>Node27&#45;&gt;Node16</title>
<g id="a_edge34_Node000027_Node000016"><a xlink:title=" ">
<path fill="none" stroke="#63b8ff" d="M569.18,-117.13C601.06,-114.13 659.47,-104.55 697.5,-74 711.89,-62.44 721.28,-43.29 726.67,-29.04"/>
<polygon fill="#63b8ff" stroke="#63b8ff" points="730.08,-29.9 730.04,-19.3 723.46,-27.61 730.08,-29.9"/>
</a>
</g>
</g>
<!-- Node28 -->
<g id="Node000028" class="node">
<title>Node28</title>
<g id="a_Node000028"><a xlink:title=" ">
<polygon fill="#e0e0e0" stroke="#999999" points="578,-74 455,-74 455,-55 578,-55 578,-74"/>
<text text-anchor="middle" x="516.5" y="-62" font-family="Helvetica,sans-Serif" font-size="10.00">QtCore/QMutexLocker</text>
</a>
</g>
</g>
<!-- Node27&#45;&gt;Node28 -->
<g id="edge31_Node000027_Node000028" class="edge">
<title>Node27&#45;&gt;Node28</title>
<g id="a_edge31_Node000027_Node000028"><a xlink:title=" ">
<path fill="none" stroke="#63b8ff" d="M541.55,-109.75C537.44,-102.49 531.47,-91.95 526.4,-82.98"/>
<polygon fill="#63b8ff" stroke="#63b8ff" points="529.33,-81.07 521.36,-74.09 523.24,-84.52 529.33,-81.07"/>
</a>
</g>
</g>
<!-- Node29 -->
<g id="Node000029" class="node">
<title>Node29</title>
<g id="a_Node000029"><a xlink:title=" ">
<polygon fill="#e0e0e0" stroke="#999999" points="398.5,-74 258.5,-74 258.5,-55 398.5,-55 398.5,-74"/>
<text text-anchor="middle" x="328.5" y="-62" font-family="Helvetica,sans-Serif" font-size="10.00">QtCore/QRecursiveMutex</text>
</a>
</g>
</g>
<!-- Node27&#45;&gt;Node29 -->
<g id="edge33_Node000027_Node000029" class="edge">
<title>Node27&#45;&gt;Node29</title>
<g id="a_edge33_Node000027_Node000029"><a xlink:title=" ">
<path fill="none" stroke="#63b8ff" d="M523.99,-113.03C488.69,-104.45 419.63,-87.65 373.76,-76.5"/>
<polygon fill="#63b8ff" stroke="#63b8ff" points="374.32,-73.04 363.78,-74.08 372.67,-79.84 374.32,-73.04"/>
</a>
</g>
</g>
<!-- Node30 -->
<g id="Node000030" class="node">
<title>Node30</title>
<g id="a_Node000030"><a xlink:title=" ">
<polygon fill="#e0e0e0" stroke="#999999" points="519,-19 424,-19 424,0 519,0 519,-19"/>
<text text-anchor="middle" x="471.5" y="-7" font-family="Helvetica,sans-Serif" font-size="10.00">QtCore/QVariant</text>
</a>
</g>
</g>
<!-- Node27&#45;&gt;Node30 -->
<g id="edge35_Node000027_Node000030" class="edge">
<title>Node27&#45;&gt;Node30</title>
<g id="a_edge35_Node000027_Node000030"><a xlink:title=" ">
<path fill="none" stroke="#63b8ff" d="M523.92,-111.73C497,-103.15 454.5,-87.8 445.5,-74 435.89,-59.27 446.02,-40.4 456.31,-27.08"/>
<polygon fill="#63b8ff" stroke="#63b8ff" points="459.15,-29.13 462.89,-19.22 453.79,-24.64 459.15,-29.13"/>
</a>
</g>
</g>
<!-- Node31 -->
<g id="Node000031" class="node">
<title>Node31</title>
<g id="a_Node000031"><a xlink:href="FactMetaData_8h.html" target="_top" xlink:title=" ">
<polygon fill="white" stroke="#666666" points="689,-74 596,-74 596,-55 689,-55 689,-74"/>
<text text-anchor="middle" x="642.5" y="-62" font-family="Helvetica,sans-Serif" font-size="10.00">FactMetaData.h</text>
</a>
</g>
</g>
<!-- Node27&#45;&gt;Node31 -->
<g id="edge37_Node000027_Node000031" class="edge">
<title>Node27&#45;&gt;Node31</title>
<g id="a_edge37_Node000027_Node000031"><a xlink:title=" ">
<path fill="none" stroke="#63b8ff" d="M561.92,-109.98C576.95,-101.69 600.04,-88.94 617.66,-79.22"/>
<polygon fill="#63b8ff" stroke="#63b8ff" points="619.73,-82.07 626.8,-74.17 616.35,-75.94 619.73,-82.07"/>
</a>
</g>
</g>
<!-- Node31&#45;&gt;Node6 -->
<g id="edge39_Node000031_Node000006" class="edge">
<title>Node31&#45;&gt;Node6</title>
<g id="a_edge39_Node000031_Node000006"><a xlink:title=" ">
<path fill="none" stroke="#63b8ff" d="M689.24,-55.1C741.4,-45.73 825.75,-30.58 881.41,-20.58"/>
<polygon fill="#63b8ff" stroke="#63b8ff" points="882.24,-23.98 891.46,-18.77 881,-17.1 882.24,-23.98"/>
</a>
</g>
</g>
<!-- Node31&#45;&gt;Node13 -->
<g id="edge42_Node000031_Node000013" class="edge">
<title>Node31&#45;&gt;Node13</title>
<g id="a_edge42_Node000031_Node000013"><a xlink:title=" ">
<path fill="none" stroke="#63b8ff" d="M595.77,-56.27C592.63,-55.83 589.52,-55.4 586.5,-55 484.08,-41.45 366.33,-28.49 286.43,-20.09"/>
<polygon fill="#63b8ff" stroke="#63b8ff" points="286.7,-16.6 276.39,-19.04 285.97,-23.56 286.7,-16.6"/>
</a>
</g>
</g>
<!-- Node31&#45;&gt;Node16 -->
<g id="edge40_Node000031_Node000016" class="edge">
<title>Node31&#45;&gt;Node16</title>
<g id="a_edge40_Node000031_Node000016"><a xlink:title=" ">
<path fill="none" stroke="#63b8ff" d="M656.96,-54.98C670.92,-46.77 692.29,-34.18 708.75,-24.49"/>
<polygon fill="#63b8ff" stroke="#63b8ff" points="710.94,-27.26 717.78,-19.17 707.38,-21.23 710.94,-27.26"/>
</a>
</g>
</g>
<!-- Node31&#45;&gt;Node30 -->
<g id="edge41_Node000031_Node000030" class="edge">
<title>Node31&#45;&gt;Node30</title>
<g id="a_edge41_Node000031_Node000030"><a xlink:title=" ">
<path fill="none" stroke="#63b8ff" d="M615.03,-54.98C586.32,-46.09 541.08,-32.07 509.08,-22.15"/>
<polygon fill="#63b8ff" stroke="#63b8ff" points="509.78,-18.7 499.19,-19.08 507.7,-25.39 509.78,-18.7"/>
</a>
</g>
</g>
<!-- Node32 -->
<g id="Node000032" class="node">
<title>Node32</title>
<g id="a_Node000032"><a xlink:title=" ">
<polygon fill="#e0e0e0" stroke="#999999" points="669.5,-19 583.5,-19 583.5,0 669.5,0 669.5,-19"/>
<text text-anchor="middle" x="626.5" y="-7" font-family="Helvetica,sans-Serif" font-size="10.00">QtCore/QHash</text>
</a>
</g>
</g>
<!-- Node31&#45;&gt;Node32 -->
<g id="edge38_Node000031_Node000032" class="edge">
<title>Node31&#45;&gt;Node32</title>
<g id="a_edge38_Node000031_Node000032"><a xlink:title=" ">
<path fill="none" stroke="#63b8ff" d="M639.86,-54.75C637.74,-47.72 634.69,-37.62 632.04,-28.84"/>
<polygon fill="#63b8ff" stroke="#63b8ff" points="635.33,-27.65 629.09,-19.09 628.63,-29.67 635.33,-27.65"/>
</a>
</g>
</g>
<!-- Node33&#45;&gt;Node17 -->
<g id="edge45_Node000033_Node000017" class="edge">
<title>Node33&#45;&gt;Node17</title>
<g id="a_edge45_Node000033_Node000017"><a xlink:title=" ">
<path fill="none" stroke="#63b8ff" d="M1184.9,-164.98C1205.52,-156.38 1237.61,-142.99 1261.19,-133.15"/>
<polygon fill="#63b8ff" stroke="#63b8ff" points="1262.84,-136.25 1270.72,-129.17 1260.15,-129.79 1262.84,-136.25"/>
</a>
</g>
</g>
<!-- Node33&#45;&gt;Node21 -->
<g id="edge46_Node000033_Node000021" class="edge">
<title>Node33&#45;&gt;Node21</title>
<g id="a_edge46_Node000033_Node000021"><a xlink:title=" ">
<path fill="none" stroke="#63b8ff" d="M1164.5,-164.75C1164.5,-157.8 1164.5,-147.85 1164.5,-139.13"/>
<polygon fill="#63b8ff" stroke="#63b8ff" points="1168,-139.09 1164.5,-129.09 1161,-139.09 1168,-139.09"/>
</a>
</g>
</g>
</g>
</svg>

<g id="navigator" transform="translate(0 0)" fill="#404254">
  <rect fill="#f2f5e9" fill-opacity="0.5" stroke="#606060" stroke-width=".5" x="0" y="0" width="60" height="60"/>
  <use id="zoomplus" xlink:href="#zoomPlus" x="17" y="9" onmousedown="handleZoom(evt,'in')"/>
  <use id="zoomminus" xlink:href="#zoomMin" x="42" y="9" onmousedown="handleZoom(evt,'out')"/>
  <use id="reset" xlink:href="#resetDef" x="30" y="36" onmousedown="handleReset()"/>
   <use id="arrowup" xlink:href="#arrowUp" x="0" y="0" onmousedown="handlePan(0,-1)"/>
  <use id="arrowright" xlink:href="#arrowRight" x="0" y="0" onmousedown="handlePan(1,0)"/>
  <use id="arrowdown" xlink:href="#arrowDown" x="0" y="0" onmousedown="handlePan(0,1)"/>
  <use id="arrowleft" xlink:href="#arrowLeft" x="0" y="0" onmousedown="handlePan(-1,0)"/>
</g>
<svg viewBox="0 0 15 15" width="100%" height="30px" preserveAspectRatio="xMaxYMin meet">
 <g id="arrow_out" transform="scale(0.3 0.3)">
  <a xlink:href="Vehicle_8h__incl_org.svg" target="_base">
   <rect id="button" ry="5" rx="5" y="6" x="6" height="38" width="38"
        fill="#f2f5e9" fill-opacity="0.5" stroke="#606060" stroke-width="1.0"/>
   <path id="arrow"
     d="M 11.500037,31.436501 C 11.940474,20.09759 22.043105,11.32322 32.158766,21.979434 L 37.068811,17.246167 C 37.068811,17.246167 37.088388,32 37.088388,32 L 22.160133,31.978069 C 22.160133,31.978069 26.997745,27.140456 26.997745,27.140456 C 18.528582,18.264221 13.291696,25.230495 11.500037,31.436501 z"
     style="fill:#404040;"/>
  </a>
 </g>
</svg>

<style type='text/css'>
<![CDATA[
[data-mouse-over-selected='false'] { opacity: 0.7; }
[data-mouse-over-selected='true']  { opacity: 1.0; }
]]>
</style>
<script type="application/ecmascript"><![CDATA[
document.addEventListener('DOMContentLoaded', (event) => {
  highlightEdges();
  highlightAdjacentNodes();
});
]]></script>
</svg>
