<?xml version="1.0" encoding="UTF-8" standalone="no"?>
<!DOCTYPE svg PUBLIC "-//W3C//DTD SVG 1.1//EN"
 "http://www.w3.org/Graphics/SVG/1.1/DTD/svg11.dtd">
<!-- Generated by graphviz version 2.43.0 (0)
 -->
<!-- Title: src/Vehicle/FactGroups/VehicleGPSAggregateFactGroup.h Pages: 1 -->
<!--zoomable 258 -->

<svg id="main" version="1.1" xmlns="http://www.w3.org/2000/svg" xmlns:xlink="http://www.w3.org/1999/xlink" xml:space="preserve" onload="init(evt)">
<style type="text/css"><![CDATA[
.node, .edge {opacity: 0.7;}
.node.selected, .edge.selected {opacity: 1;}
.edge:hover path { stroke: red; }
.edge:hover polygon { stroke: red; fill: red; }
]]></style>

<defs>
  <circle id="rim" cx="0" cy="0" r="7"/>
  <circle id="rim2" cx="0" cy="0" r="3.5"/>
  <g id="zoomPlus">
    <use xlink:href="#rim" fill="#404040"><set attributeName="fill" to="#808080" begin="zoomplus.mouseover" end="zoomplus.mouseout"/></use>
    <path d="M-4,0h8M0,-4v8" fill="none" stroke="white" stroke-width="1.5" pointer-events="none"/>
  </g>
  <g id="zoomMin">
    <use xlink:href="#rim" fill="#404040"><set attributeName="fill" to="#808080" begin="zoomminus.mouseover" end="zoomminus.mouseout"/></use>
    <path d="M-4,0h8" fill="none" stroke="white" stroke-width="1.5" pointer-events="none"/>
  </g>
  <g id="arrowUp" transform="translate(30 24)">
    <use xlink:href="#rim"/>
    <path pointer-events="none" fill="none" stroke="white" stroke-width="1.5" d="M0,-3.0v7 M-2.5,-0.5L0,-3.0L2.5,-0.5"/>
  </g>
  <g id="arrowRight" transform="rotate(90) translate(36 -43)">
    <use xlink:href="#rim"/>
    <path pointer-events="none" fill="none" stroke="white" stroke-width="1.5" d="M0,-3.0v7 M-2.5,-0.5L0,-3.0L2.5,-0.5"/>
  </g>
  <g id="arrowDown" transform="rotate(180) translate(-30 -48)">
    <use xlink:href="#rim"/>
    <path pointer-events="none" fill="none" stroke="white" stroke-width="1.5" d="M0,-3.0v7 M-2.5,-0.5L0,-3.0L2.5,-0.5"/>
  </g>
  <g id="arrowLeft" transform="rotate(270) translate(-36 17)">
    <use xlink:href="#rim"/>
    <path pointer-events="none" fill="none" stroke="white" stroke-width="1.5" d="M0,-3.0v7 M-2.5,-0.5L0,-3.0L2.5,-0.5"/>
  </g>
  <g id="resetDef">
    <use xlink:href="#rim2" fill="#404040"><set attributeName="fill" to="#808080" begin="reset.mouseover" end="reset.mouseout"/></use>
  </g>
</defs>
<script type="application/ecmascript">
var viewWidth = 910;
var viewHeight = 258;
var sectionId = 'dynsection-0';
</script>
<script type="application/ecmascript" xlink:href="svg.min.js"/>
<svg id="graph" class="graph">
<g id="viewport">
<title>src/Vehicle/FactGroups/VehicleGPSAggregateFactGroup.h</title>
<!-- Node1 -->
<g id="Node000001" class="node">
<title>Node1</title>
<g id="a_Node000001"><a xlink:title=" ">
<polygon fill="#999999" stroke="#666666" points="354,-250 171,-250 171,-220 354,-220 354,-250"/>
<text text-anchor="start" x="179" y="-238" font-family="Helvetica,sans-Serif" font-size="10.00">src/Vehicle/FactGroups</text>
<text text-anchor="middle" x="262.5" y="-227" font-family="Helvetica,sans-Serif" font-size="10.00">/VehicleGPSAggregateFactGroup.h</text>
</a>
</g>
</g>
<!-- Node2 -->
<g id="Node000002" class="node">
<title>Node2</title>
<g id="a_Node000002"><a xlink:href="FactGroup_8h.html" target="_top" xlink:title=" ">
<polygon fill="white" stroke="#666666" points="249.5,-184 175.5,-184 175.5,-165 249.5,-165 249.5,-184"/>
<text text-anchor="middle" x="212.5" y="-172" font-family="Helvetica,sans-Serif" font-size="10.00">FactGroup.h</text>
</a>
</g>
</g>
<!-- Node1&#45;&gt;Node2 -->
<g id="edge1_Node000001_Node000002" class="edge">
<title>Node1&#45;&gt;Node2</title>
<g id="a_edge1_Node000001_Node000002"><a xlink:title=" ">
<path fill="none" stroke="#63b8ff" d="M250.4,-219.84C243.21,-211.43 234.07,-200.74 226.57,-191.96"/>
<polygon fill="#63b8ff" stroke="#63b8ff" points="229.15,-189.59 219.99,-184.27 223.83,-194.14 229.15,-189.59"/>
</a>
</g>
</g>
<!-- Node5 -->
<g id="Node000005" class="node">
<title>Node5</title>
<g id="a_Node000005"><a xlink:title=" ">
<polygon fill="#e0e0e0" stroke="#999999" points="89,-129 0,-129 0,-110 89,-110 89,-129"/>
<text text-anchor="middle" x="44.5" y="-117" font-family="Helvetica,sans-Serif" font-size="10.00">QtCore/QTimer</text>
</a>
</g>
</g>
<!-- Node1&#45;&gt;Node5 -->
<g id="edge22_Node000001_Node000005" class="edge">
<title>Node1&#45;&gt;Node5</title>
<g id="a_edge22_Node000001_Node000005"><a xlink:title=" ">
<path fill="none" stroke="#63b8ff" d="M235.33,-219.85C192.87,-197.75 111.36,-155.31 69.97,-133.76"/>
<polygon fill="#63b8ff" stroke="#63b8ff" points="71.55,-130.64 61.07,-129.12 68.32,-136.85 71.55,-130.64"/>
</a>
</g>
</g>
<!-- Node18 -->
<g id="Node000018" class="node">
<title>Node18</title>
<g id="a_Node000018"><a xlink:title=" ">
<polygon fill="#e0e0e0" stroke="#999999" points="359.5,-184 267.5,-184 267.5,-165 359.5,-165 359.5,-184"/>
<text text-anchor="middle" x="313.5" y="-172" font-family="Helvetica,sans-Serif" font-size="10.00">QtCore/QVector</text>
</a>
</g>
</g>
<!-- Node1&#45;&gt;Node18 -->
<g id="edge23_Node000001_Node000018" class="edge">
<title>Node1&#45;&gt;Node18</title>
<g id="a_edge23_Node000001_Node000018"><a xlink:title=" ">
<path fill="none" stroke="#63b8ff" d="M274.85,-219.84C282.17,-211.43 291.5,-200.74 299.15,-191.96"/>
<polygon fill="#63b8ff" stroke="#63b8ff" points="301.92,-194.1 305.86,-184.27 296.65,-189.5 301.92,-194.1"/>
</a>
</g>
</g>
<!-- Node19 -->
<g id="Node000019" class="node">
<title>Node19</title>
<g id="a_Node000019"><a xlink:title=" ">
<polygon fill="#e0e0e0" stroke="#999999" points="495,-184 378,-184 378,-165 495,-165 495,-184"/>
<text text-anchor="middle" x="436.5" y="-172" font-family="Helvetica,sans-Serif" font-size="10.00">QtCore/QMetaObject</text>
</a>
</g>
</g>
<!-- Node1&#45;&gt;Node19 -->
<g id="edge24_Node000001_Node000019" class="edge">
<title>Node1&#45;&gt;Node19</title>
<g id="a_edge24_Node000001_Node000019"><a xlink:title=" ">
<path fill="none" stroke="#63b8ff" d="M304.18,-219.99C333.82,-210.02 373.19,-196.78 401.27,-187.35"/>
<polygon fill="#63b8ff" stroke="#63b8ff" points="402.7,-190.56 411.06,-184.05 400.46,-183.92 402.7,-190.56"/>
</a>
</g>
</g>
<!-- Node3 -->
<g id="Node000003" class="node">
<title>Node3</title>
<g id="a_Node000003"><a xlink:title=" ">
<polygon fill="#e0e0e0" stroke="#999999" points="379.5,-129 297.5,-129 297.5,-110 379.5,-110 379.5,-129"/>
<text text-anchor="middle" x="338.5" y="-117" font-family="Helvetica,sans-Serif" font-size="10.00">QtCore/QMap</text>
</a>
</g>
</g>
<!-- Node2&#45;&gt;Node3 -->
<g id="edge2_Node000002_Node000003" class="edge">
<title>Node2&#45;&gt;Node3</title>
<g id="a_edge2_Node000002_Node000003"><a xlink:title=" ">
<path fill="none" stroke="#63b8ff" d="M232.74,-164.98C253.2,-156.38 285.03,-142.99 308.43,-133.15"/>
<polygon fill="#63b8ff" stroke="#63b8ff" points="310.03,-136.27 317.89,-129.17 307.31,-129.82 310.03,-136.27"/>
</a>
</g>
</g>
<!-- Node4 -->
<g id="Node000004" class="node">
<title>Node4</title>
<g id="a_Node000004"><a xlink:title=" ">
<polygon fill="#e0e0e0" stroke="#999999" points="505,-129 398,-129 398,-110 505,-110 505,-129"/>
<text text-anchor="middle" x="451.5" y="-117" font-family="Helvetica,sans-Serif" font-size="10.00">QtCore/QStringList</text>
</a>
</g>
</g>
<!-- Node2&#45;&gt;Node4 -->
<g id="edge3_Node000002_Node000004" class="edge">
<title>Node2&#45;&gt;Node4</title>
<g id="a_edge3_Node000002_Node000004"><a xlink:title=" ">
<path fill="none" stroke="#63b8ff" d="M249.58,-165.28C290.9,-156.11 357.86,-141.26 403.24,-131.2"/>
<polygon fill="#63b8ff" stroke="#63b8ff" points="404.14,-134.59 413.14,-129.01 402.62,-127.75 404.14,-134.59"/>
</a>
</g>
</g>
<!-- Node2&#45;&gt;Node5 -->
<g id="edge4_Node000002_Node000005" class="edge">
<title>Node2&#45;&gt;Node5</title>
<g id="a_edge4_Node000002_Node000005"><a xlink:title=" ">
<path fill="none" stroke="#63b8ff" d="M185.51,-164.98C157.3,-156.09 112.86,-142.07 81.42,-132.15"/>
<polygon fill="#63b8ff" stroke="#63b8ff" points="82.29,-128.75 71.7,-129.08 80.19,-135.43 82.29,-128.75"/>
</a>
</g>
</g>
<!-- Node6 -->
<g id="Node000006" class="node">
<title>Node6</title>
<g id="a_Node000006"><a xlink:title=" ">
<polygon fill="#e0e0e0" stroke="#999999" points="441,-19 252,-19 252,0 441,0 441,-19"/>
<text text-anchor="middle" x="346.5" y="-7" font-family="Helvetica,sans-Serif" font-size="10.00">QtQmlIntegration/QtQmlIntegration</text>
</a>
</g>
</g>
<!-- Node2&#45;&gt;Node6 -->
<g id="edge5_Node000002_Node000006" class="edge">
<title>Node2&#45;&gt;Node6</title>
<g id="a_edge5_Node000002_Node000006"><a xlink:title=" ">
<path fill="none" stroke="#63b8ff" d="M184.11,-164.92C167.04,-158.13 146.69,-146.77 136.5,-129 120.14,-100.47 115.79,-80.55 136.5,-55 150.41,-37.84 196.47,-27.03 241.92,-20.37"/>
<polygon fill="#63b8ff" stroke="#63b8ff" points="242.49,-23.82 251.9,-18.97 241.52,-16.89 242.49,-23.82"/>
</a>
</g>
</g>
<!-- Node7 -->
<g id="Node000007" class="node">
<title>Node7</title>
<g id="a_Node000007"><a xlink:href="Fact_8h.html" target="_top" xlink:title=" ">
<polygon fill="white" stroke="#666666" points="594,-129 549,-129 549,-110 594,-110 594,-129"/>
<text text-anchor="middle" x="571.5" y="-117" font-family="Helvetica,sans-Serif" font-size="10.00">Fact.h</text>
</a>
</g>
</g>
<!-- Node2&#45;&gt;Node7 -->
<g id="edge6_Node000002_Node000007" class="edge">
<title>Node2&#45;&gt;Node7</title>
<g id="a_edge6_Node000002_Node000007"><a xlink:title=" ">
<path fill="none" stroke="#63b8ff" d="M249.63,-166.5C252.63,-165.97 255.61,-165.47 258.5,-165 371.91,-146.56 400.79,-145.47 514.5,-129 522.35,-127.86 530.8,-126.62 538.73,-125.43"/>
<polygon fill="#63b8ff" stroke="#63b8ff" points="539.39,-128.87 548.76,-123.94 538.35,-121.95 539.39,-128.87"/>
</a>
</g>
</g>
<!-- Node15 -->
<g id="Node000015" class="node">
<title>Node15</title>
<g id="a_Node000015"><a xlink:href="MAVLinkMessageType_8h.html" target="_top" xlink:title=" ">
<polygon fill="white" stroke="#666666" points="279.5,-129 145.5,-129 145.5,-110 279.5,-110 279.5,-129"/>
<text text-anchor="middle" x="212.5" y="-117" font-family="Helvetica,sans-Serif" font-size="10.00">MAVLinkMessageType.h</text>
</a>
</g>
</g>
<!-- Node2&#45;&gt;Node15 -->
<g id="edge19_Node000002_Node000015" class="edge">
<title>Node2&#45;&gt;Node15</title>
<g id="a_edge19_Node000002_Node000015"><a xlink:title=" ">
<path fill="none" stroke="#63b8ff" d="M212.5,-164.75C212.5,-157.8 212.5,-147.85 212.5,-139.13"/>
<polygon fill="#63b8ff" stroke="#63b8ff" points="216,-139.09 212.5,-129.09 209,-139.09 216,-139.09"/>
</a>
</g>
</g>
<!-- Node7&#45;&gt;Node6 -->
<g id="edge12_Node000007_Node000006" class="edge">
<title>Node7&#45;&gt;Node6</title>
<g id="a_edge12_Node000007_Node000006"><a xlink:title=" ">
<path fill="none" stroke="#63b8ff" d="M558.87,-109.9C539.41,-96.89 500.68,-71.94 465.5,-55 438.72,-42.1 407.16,-30.46 383.28,-22.31"/>
<polygon fill="#63b8ff" stroke="#63b8ff" points="384.14,-18.91 373.55,-19.05 381.91,-25.55 384.14,-18.91"/>
</a>
</g>
</g>
<!-- Node8 -->
<g id="Node000008" class="node">
<title>Node8</title>
<g id="a_Node000008"><a xlink:title=" ">
<polygon fill="#e0e0e0" stroke="#999999" points="456,-74 333,-74 333,-55 456,-55 456,-74"/>
<text text-anchor="middle" x="394.5" y="-62" font-family="Helvetica,sans-Serif" font-size="10.00">QtCore/QMutexLocker</text>
</a>
</g>
</g>
<!-- Node7&#45;&gt;Node8 -->
<g id="edge7_Node000007_Node000008" class="edge">
<title>Node7&#45;&gt;Node8</title>
<g id="a_edge7_Node000007_Node000008"><a xlink:title=" ">
<path fill="none" stroke="#63b8ff" d="M548.72,-111.68C519.49,-102.93 468.34,-87.61 433.01,-77.03"/>
<polygon fill="#63b8ff" stroke="#63b8ff" points="433.63,-73.56 423.04,-74.05 431.62,-80.27 433.63,-73.56"/>
</a>
</g>
</g>
<!-- Node9 -->
<g id="Node000009" class="node">
<title>Node9</title>
<g id="a_Node000009"><a xlink:title=" ">
<polygon fill="#e0e0e0" stroke="#999999" points="901.5,-19 809.5,-19 809.5,0 901.5,0 901.5,-19"/>
<text text-anchor="middle" x="855.5" y="-7" font-family="Helvetica,sans-Serif" font-size="10.00">QtCore/QObject</text>
</a>
</g>
</g>
<!-- Node7&#45;&gt;Node9 -->
<g id="edge8_Node000007_Node000009" class="edge">
<title>Node7&#45;&gt;Node9</title>
<g id="a_edge8_Node000007_Node000009"><a xlink:title=" ">
<path fill="none" stroke="#63b8ff" d="M594.35,-118.29C654.49,-117.22 814.9,-110.91 849.5,-74 860.5,-62.27 860.95,-43.42 859.28,-29.3"/>
<polygon fill="#63b8ff" stroke="#63b8ff" points="862.7,-28.53 857.65,-19.22 855.79,-29.65 862.7,-28.53"/>
</a>
</g>
</g>
<!-- Node10 -->
<g id="Node000010" class="node">
<title>Node10</title>
<g id="a_Node000010"><a xlink:title=" ">
<polygon fill="#e0e0e0" stroke="#999999" points="840.5,-74 700.5,-74 700.5,-55 840.5,-55 840.5,-74"/>
<text text-anchor="middle" x="770.5" y="-62" font-family="Helvetica,sans-Serif" font-size="10.00">QtCore/QRecursiveMutex</text>
</a>
</g>
</g>
<!-- Node7&#45;&gt;Node10 -->
<g id="edge9_Node000007_Node000010" class="edge">
<title>Node7&#45;&gt;Node10</title>
<g id="a_edge9_Node000007_Node000010"><a xlink:title=" ">
<path fill="none" stroke="#63b8ff" d="M594.33,-112.42C627.06,-103.7 687.86,-87.51 728.76,-76.62"/>
<polygon fill="#63b8ff" stroke="#63b8ff" points="729.68,-79.99 738.44,-74.04 727.88,-73.23 729.68,-79.99"/>
</a>
</g>
</g>
<!-- Node11 -->
<g id="Node000011" class="node">
<title>Node11</title>
<g id="a_Node000011"><a xlink:title=" ">
<polygon fill="#e0e0e0" stroke="#999999" points="548,-19 459,-19 459,0 548,0 548,-19"/>
<text text-anchor="middle" x="503.5" y="-7" font-family="Helvetica,sans-Serif" font-size="10.00">QtCore/QString</text>
</a>
</g>
</g>
<!-- Node7&#45;&gt;Node11 -->
<g id="edge10_Node000007_Node000011" class="edge">
<title>Node7&#45;&gt;Node11</title>
<g id="a_edge10_Node000007_Node000011"><a xlink:title=" ">
<path fill="none" stroke="#63b8ff" d="M565.65,-109.68C559.75,-100.73 550.39,-86.47 542.5,-74 532.69,-58.49 521.78,-40.68 514,-27.87"/>
<polygon fill="#63b8ff" stroke="#63b8ff" points="516.9,-25.91 508.73,-19.17 510.92,-29.54 516.9,-25.91"/>
</a>
</g>
</g>
<!-- Node12 -->
<g id="Node000012" class="node">
<title>Node12</title>
<g id="a_Node000012"><a xlink:title=" ">
<polygon fill="#e0e0e0" stroke="#999999" points="766,-19 671,-19 671,0 766,0 766,-19"/>
<text text-anchor="middle" x="718.5" y="-7" font-family="Helvetica,sans-Serif" font-size="10.00">QtCore/QVariant</text>
</a>
</g>
</g>
<!-- Node7&#45;&gt;Node12 -->
<g id="edge11_Node000007_Node000012" class="edge">
<title>Node7&#45;&gt;Node12</title>
<g id="a_edge11_Node000007_Node000012"><a xlink:title=" ">
<path fill="none" stroke="#63b8ff" d="M590.62,-109.99C607.83,-101.9 633.43,-88.81 653.5,-74 672.64,-59.89 691.77,-40.38 704.27,-26.72"/>
<polygon fill="#63b8ff" stroke="#63b8ff" points="707.06,-28.86 711.14,-19.08 701.85,-24.18 707.06,-28.86"/>
</a>
</g>
</g>
<!-- Node13 -->
<g id="Node000013" class="node">
<title>Node13</title>
<g id="a_Node000013"><a xlink:href="FactMetaData_8h.html" target="_top" xlink:title=" ">
<polygon fill="white" stroke="#666666" points="644,-74 551,-74 551,-55 644,-55 644,-74"/>
<text text-anchor="middle" x="597.5" y="-62" font-family="Helvetica,sans-Serif" font-size="10.00">FactMetaData.h</text>
</a>
</g>
</g>
<!-- Node7&#45;&gt;Node13 -->
<g id="edge13_Node000007_Node000013" class="edge">
<title>Node7&#45;&gt;Node13</title>
<g id="a_edge13_Node000007_Node000013"><a xlink:title=" ">
<path fill="none" stroke="#63b8ff" d="M575.79,-109.75C579.31,-102.57 584.41,-92.18 588.78,-83.27"/>
<polygon fill="#63b8ff" stroke="#63b8ff" points="592.02,-84.61 593.29,-74.09 585.74,-81.53 592.02,-84.61"/>
</a>
</g>
</g>
<!-- Node13&#45;&gt;Node6 -->
<g id="edge18_Node000013_Node000006" class="edge">
<title>Node13&#45;&gt;Node6</title>
<g id="a_edge18_Node000013_Node000006"><a xlink:title=" ">
<path fill="none" stroke="#63b8ff" d="M557.17,-54.98C513.66,-45.8 444.3,-31.15 397.15,-21.19"/>
<polygon fill="#63b8ff" stroke="#63b8ff" points="397.65,-17.72 387.14,-19.08 396.2,-24.57 397.65,-17.72"/>
</a>
</g>
</g>
<!-- Node13&#45;&gt;Node9 -->
<g id="edge15_Node000013_Node000009" class="edge">
<title>Node13&#45;&gt;Node9</title>
<g id="a_edge15_Node000013_Node000009"><a xlink:title=" ">
<path fill="none" stroke="#63b8ff" d="M638.95,-54.98C683.77,-45.78 755.27,-31.09 803.75,-21.13"/>
<polygon fill="#63b8ff" stroke="#63b8ff" points="804.63,-24.52 813.72,-19.08 803.22,-17.67 804.63,-24.52"/>
</a>
</g>
</g>
<!-- Node13&#45;&gt;Node11 -->
<g id="edge16_Node000013_Node000011" class="edge">
<title>Node13&#45;&gt;Node11</title>
<g id="a_edge16_Node000013_Node000011"><a xlink:title=" ">
<path fill="none" stroke="#63b8ff" d="M582.4,-54.98C567.68,-46.69 545.08,-33.94 527.83,-24.22"/>
<polygon fill="#63b8ff" stroke="#63b8ff" points="529.31,-21.03 518.88,-19.17 525.87,-27.13 529.31,-21.03"/>
</a>
</g>
</g>
<!-- Node13&#45;&gt;Node12 -->
<g id="edge17_Node000013_Node000012" class="edge">
<title>Node13&#45;&gt;Node12</title>
<g id="a_edge17_Node000013_Node000012"><a xlink:title=" ">
<path fill="none" stroke="#63b8ff" d="M616.94,-54.98C636.49,-46.42 666.88,-33.11 689.32,-23.28"/>
<polygon fill="#63b8ff" stroke="#63b8ff" points="690.95,-26.39 698.71,-19.17 688.14,-19.98 690.95,-26.39"/>
</a>
</g>
</g>
<!-- Node14 -->
<g id="Node000014" class="node">
<title>Node14</title>
<g id="a_Node000014"><a xlink:title=" ">
<polygon fill="#e0e0e0" stroke="#999999" points="652.5,-19 566.5,-19 566.5,0 652.5,0 652.5,-19"/>
<text text-anchor="middle" x="609.5" y="-7" font-family="Helvetica,sans-Serif" font-size="10.00">QtCore/QHash</text>
</a>
</g>
</g>
<!-- Node13&#45;&gt;Node14 -->
<g id="edge14_Node000013_Node000014" class="edge">
<title>Node13&#45;&gt;Node14</title>
<g id="a_edge14_Node000013_Node000014"><a xlink:title=" ">
<path fill="none" stroke="#63b8ff" d="M599.48,-54.75C601.07,-47.72 603.36,-37.62 605.35,-28.84"/>
<polygon fill="#63b8ff" stroke="#63b8ff" points="608.76,-29.62 607.56,-19.09 601.93,-28.07 608.76,-29.62"/>
</a>
</g>
</g>
<!-- Node16 -->
<g id="Node000016" class="node">
<title>Node16</title>
<g id="a_Node000016"><a xlink:title=" ">
<polygon fill="#e0e0e0" stroke="#999999" points="315,-74 262,-74 262,-55 315,-55 315,-74"/>
<text text-anchor="middle" x="288.5" y="-62" font-family="Helvetica,sans-Serif" font-size="10.00">stdint.h</text>
</a>
</g>
</g>
<!-- Node15&#45;&gt;Node16 -->
<g id="edge20_Node000015_Node000016" class="edge">
<title>Node15&#45;&gt;Node16</title>
<g id="a_edge20_Node000015_Node000016"><a xlink:title=" ">
<path fill="none" stroke="#63b8ff" d="M224.71,-109.98C236.28,-101.92 253.88,-89.65 267.66,-80.03"/>
<polygon fill="#63b8ff" stroke="#63b8ff" points="269.87,-82.76 276.07,-74.17 265.86,-77.02 269.87,-82.76"/>
</a>
</g>
</g>
<!-- Node17 -->
<g id="Node000017" class="node">
<title>Node17</title>
<g id="a_Node000017"><a xlink:title=" ">
<polygon fill="#e0e0e0" stroke="#999999" points="243.5,-74 145.5,-74 145.5,-55 243.5,-55 243.5,-74"/>
<text text-anchor="middle" x="194.5" y="-62" font-family="Helvetica,sans-Serif" font-size="10.00">mavlink_types.h</text>
</a>
</g>
</g>
<!-- Node15&#45;&gt;Node17 -->
<g id="edge21_Node000015_Node000017" class="edge">
<title>Node15&#45;&gt;Node17</title>
<g id="a_edge21_Node000015_Node000017"><a xlink:title=" ">
<path fill="none" stroke="#63b8ff" d="M209.53,-109.75C207.14,-102.72 203.71,-92.62 200.73,-83.84"/>
<polygon fill="#63b8ff" stroke="#63b8ff" points="203.95,-82.43 197.42,-74.09 197.32,-84.68 203.95,-82.43"/>
</a>
</g>
</g>
</g>
</svg>

<g id="navigator" transform="translate(0 0)" fill="#404254">
  <rect fill="#f2f5e9" fill-opacity="0.5" stroke="#606060" stroke-width=".5" x="0" y="0" width="60" height="60"/>
  <use id="zoomplus" xlink:href="#zoomPlus" x="17" y="9" onmousedown="handleZoom(evt,'in')"/>
  <use id="zoomminus" xlink:href="#zoomMin" x="42" y="9" onmousedown="handleZoom(evt,'out')"/>
  <use id="reset" xlink:href="#resetDef" x="30" y="36" onmousedown="handleReset()"/>
   <use id="arrowup" xlink:href="#arrowUp" x="0" y="0" onmousedown="handlePan(0,-1)"/>
  <use id="arrowright" xlink:href="#arrowRight" x="0" y="0" onmousedown="handlePan(1,0)"/>
  <use id="arrowdown" xlink:href="#arrowDown" x="0" y="0" onmousedown="handlePan(0,1)"/>
  <use id="arrowleft" xlink:href="#arrowLeft" x="0" y="0" onmousedown="handlePan(-1,0)"/>
</g>
<svg viewBox="0 0 15 15" width="100%" height="30px" preserveAspectRatio="xMaxYMin meet">
 <g id="arrow_out" transform="scale(0.3 0.3)">
  <a xlink:href="VehicleGPSAggregateFactGroup_8h__incl_org.svg" target="_base">
   <rect id="button" ry="5" rx="5" y="6" x="6" height="38" width="38"
        fill="#f2f5e9" fill-opacity="0.5" stroke="#606060" stroke-width="1.0"/>
   <path id="arrow"
     d="M 11.500037,31.436501 C 11.940474,20.09759 22.043105,11.32322 32.158766,21.979434 L 37.068811,17.246167 C 37.068811,17.246167 37.088388,32 37.088388,32 L 22.160133,31.978069 C 22.160133,31.978069 26.997745,27.140456 26.997745,27.140456 C 18.528582,18.264221 13.291696,25.230495 11.500037,31.436501 z"
     style="fill:#404040;"/>
  </a>
 </g>
</svg>

<style type='text/css'>
<![CDATA[
[data-mouse-over-selected='false'] { opacity: 0.7; }
[data-mouse-over-selected='true']  { opacity: 1.0; }
]]>
</style>
<script type="application/ecmascript"><![CDATA[
document.addEventListener('DOMContentLoaded', (event) => {
  highlightEdges();
  highlightAdjacentNodes();
});
]]></script>
</svg>
