<?xml version="1.0" encoding="UTF-8" standalone="no"?>
<!DOCTYPE svg PUBLIC "-//W3C//DTD SVG 1.1//EN"
 "http://www.w3.org/Graphics/SVG/1.1/DTD/svg11.dtd">
<!-- Generated by graphviz version 2.43.0 (0)
 -->
<!-- Title: src/Vehicle/FactGroups/VehicleHygrometerFactGroup.h Pages: 1 -->
<svg width="1197pt" height="258pt"
 viewBox="0.00 0.00 1197.00 258.00" xmlns="http://www.w3.org/2000/svg" xmlns:xlink="http://www.w3.org/1999/xlink">
<g id="graph0" class="graph" transform="scale(1 1) rotate(0) translate(4 254)">
<title>src/Vehicle/FactGroups/VehicleHygrometerFactGroup.h</title>
<!-- Node1 -->
<g id="Node000001" class="node">
<title>Node1</title>
<g id="a_Node000001"><a xlink:title=" ">
<polygon fill="#999999" stroke="#666666" points="388,-250 217,-250 217,-220 388,-220 388,-250"/>
<text text-anchor="start" x="225" y="-238" font-family="Helvetica,sans-Serif" font-size="10.00">src/Vehicle/FactGroups</text>
<text text-anchor="middle" x="302.5" y="-227" font-family="Helvetica,sans-Serif" font-size="10.00">/VehicleHygrometerFactGroup.h</text>
</a>
</g>
</g>
<!-- Node2 -->
<g id="Node000002" class="node">
<title>Node2</title>
<g id="a_Node000002"><a xlink:href="FactGroup_8h.html" target="_top" xlink:title=" ">
<polygon fill="white" stroke="#666666" points="339.5,-184 265.5,-184 265.5,-165 339.5,-165 339.5,-184"/>
<text text-anchor="middle" x="302.5" y="-172" font-family="Helvetica,sans-Serif" font-size="10.00">FactGroup.h</text>
</a>
</g>
</g>
<!-- Node1&#45;&gt;Node2 -->
<g id="edge1_Node000001_Node000002" class="edge">
<title>Node1&#45;&gt;Node2</title>
<g id="a_edge1_Node000001_Node000002"><a xlink:title=" ">
<path fill="none" stroke="#63b8ff" d="M302.5,-219.84C302.5,-212.21 302.5,-202.7 302.5,-194.45"/>
<polygon fill="#63b8ff" stroke="#63b8ff" points="306,-194.27 302.5,-184.27 299,-194.27 306,-194.27"/>
</a>
</g>
</g>
<!-- Node3 -->
<g id="Node000003" class="node">
<title>Node3</title>
<g id="a_Node000003"><a xlink:title=" ">
<polygon fill="#e0e0e0" stroke="#999999" points="143,-19 0,-19 0,0 143,0 143,-19"/>
<text text-anchor="middle" x="71.5" y="-7" font-family="Helvetica,sans-Serif" font-size="10.00">QtCore/QLoggingCategory</text>
</a>
</g>
</g>
<!-- Node2&#45;&gt;Node3 -->
<g id="edge2_Node000002_Node000003" class="edge">
<title>Node2&#45;&gt;Node3</title>
<g id="a_edge2_Node000002_Node000003"><a xlink:title=" ">
<path fill="none" stroke="#63b8ff" d="M265.24,-171.96C205.85,-168.63 93.91,-158.51 69.5,-129 46.09,-100.7 56.3,-54.25 64.63,-28.72"/>
<polygon fill="#63b8ff" stroke="#63b8ff" points="67.97,-29.77 67.97,-19.18 61.36,-27.46 67.97,-29.77"/>
</a>
</g>
</g>
<!-- Node4 -->
<g id="Node000004" class="node">
<title>Node4</title>
<g id="a_Node000004"><a xlink:title=" ">
<polygon fill="#e0e0e0" stroke="#999999" points="268,-19 161,-19 161,0 268,0 268,-19"/>
<text text-anchor="middle" x="214.5" y="-7" font-family="Helvetica,sans-Serif" font-size="10.00">QtCore/QJsonArray</text>
</a>
</g>
</g>
<!-- Node2&#45;&gt;Node4 -->
<g id="edge3_Node000002_Node000004" class="edge">
<title>Node2&#45;&gt;Node4</title>
<g id="a_edge3_Node000002_Node000004"><a xlink:title=" ">
<path fill="none" stroke="#63b8ff" d="M265.3,-171.53C208.5,-167.66 104.31,-156.86 81.5,-129 45.41,-84.92 130.13,-42.92 180.48,-22.83"/>
<polygon fill="#63b8ff" stroke="#63b8ff" points="182,-25.99 190.05,-19.11 179.46,-19.47 182,-25.99"/>
</a>
</g>
</g>
<!-- Node5 -->
<g id="Node000005" class="node">
<title>Node5</title>
<g id="a_Node000005"><a xlink:title=" ">
<polygon fill="#e0e0e0" stroke="#999999" points="172.5,-129 90.5,-129 90.5,-110 172.5,-110 172.5,-129"/>
<text text-anchor="middle" x="131.5" y="-117" font-family="Helvetica,sans-Serif" font-size="10.00">QtCore/QMap</text>
</a>
</g>
</g>
<!-- Node2&#45;&gt;Node5 -->
<g id="edge4_Node000002_Node000005" class="edge">
<title>Node2&#45;&gt;Node5</title>
<g id="a_edge4_Node000002_Node000005"><a xlink:title=" ">
<path fill="none" stroke="#63b8ff" d="M275.03,-164.98C246.32,-156.09 201.08,-142.07 169.08,-132.15"/>
<polygon fill="#63b8ff" stroke="#63b8ff" points="169.78,-128.7 159.19,-129.08 167.7,-135.39 169.78,-128.7"/>
</a>
</g>
</g>
<!-- Node6 -->
<g id="Node000006" class="node">
<title>Node6</title>
<g id="a_Node000006"><a xlink:title=" ">
<polygon fill="#e0e0e0" stroke="#999999" points="298,-129 191,-129 191,-110 298,-110 298,-129"/>
<text text-anchor="middle" x="244.5" y="-117" font-family="Helvetica,sans-Serif" font-size="10.00">QtCore/QStringList</text>
</a>
</g>
</g>
<!-- Node2&#45;&gt;Node6 -->
<g id="edge5_Node000002_Node000006" class="edge">
<title>Node2&#45;&gt;Node6</title>
<g id="a_edge5_Node000002_Node000006"><a xlink:title=" ">
<path fill="none" stroke="#63b8ff" d="M293.18,-164.98C284.69,-157.23 271.94,-145.58 261.62,-136.14"/>
<polygon fill="#63b8ff" stroke="#63b8ff" points="263.73,-133.33 253.99,-129.17 259.01,-138.5 263.73,-133.33"/>
</a>
</g>
</g>
<!-- Node7 -->
<g id="Node000007" class="node">
<title>Node7</title>
<g id="a_Node000007"><a xlink:title=" ">
<polygon fill="#e0e0e0" stroke="#999999" points="405,-129 316,-129 316,-110 405,-110 405,-129"/>
<text text-anchor="middle" x="360.5" y="-117" font-family="Helvetica,sans-Serif" font-size="10.00">QtCore/QTimer</text>
</a>
</g>
</g>
<!-- Node2&#45;&gt;Node7 -->
<g id="edge6_Node000002_Node000007" class="edge">
<title>Node2&#45;&gt;Node7</title>
<g id="a_edge6_Node000002_Node000007"><a xlink:title=" ">
<path fill="none" stroke="#63b8ff" d="M311.82,-164.98C320.31,-157.23 333.06,-145.58 343.38,-136.14"/>
<polygon fill="#63b8ff" stroke="#63b8ff" points="345.99,-138.5 351.01,-129.17 341.27,-133.33 345.99,-138.5"/>
</a>
</g>
</g>
<!-- Node8 -->
<g id="Node000008" class="node">
<title>Node8</title>
<g id="a_Node000008"><a xlink:title=" ">
<polygon fill="#e0e0e0" stroke="#999999" points="475,-19 286,-19 286,0 475,0 475,-19"/>
<text text-anchor="middle" x="380.5" y="-7" font-family="Helvetica,sans-Serif" font-size="10.00">QtQmlIntegration/QtQmlIntegration</text>
</a>
</g>
</g>
<!-- Node2&#45;&gt;Node8 -->
<g id="edge7_Node000002_Node000008" class="edge">
<title>Node2&#45;&gt;Node8</title>
<g id="a_edge7_Node000002_Node000008"><a xlink:title=" ">
<path fill="none" stroke="#63b8ff" d="M339.64,-169.31C365.09,-164.28 397.1,-153.25 413.5,-129 435.04,-97.16 409.97,-51.51 393.19,-27.21"/>
<polygon fill="#63b8ff" stroke="#63b8ff" points="395.97,-25.08 387.28,-19.02 390.29,-29.17 395.97,-25.08"/>
</a>
</g>
</g>
<!-- Node9 -->
<g id="Node000009" class="node">
<title>Node9</title>
<g id="a_Node000009"><a xlink:href="Fact_8h.html" target="_top" xlink:title=" ">
<polygon fill="white" stroke="#666666" points="638,-129 593,-129 593,-110 638,-110 638,-129"/>
<text text-anchor="middle" x="615.5" y="-117" font-family="Helvetica,sans-Serif" font-size="10.00">Fact.h</text>
</a>
</g>
</g>
<!-- Node2&#45;&gt;Node9 -->
<g id="edge8_Node000002_Node000009" class="edge">
<title>Node2&#45;&gt;Node9</title>
<g id="a_edge8_Node000002_Node000009"><a xlink:title=" ">
<path fill="none" stroke="#63b8ff" d="M339.63,-167.21C401.38,-156.76 524.14,-135.97 582.8,-126.04"/>
<polygon fill="#63b8ff" stroke="#63b8ff" points="583.71,-129.43 592.98,-124.31 582.54,-122.53 583.71,-129.43"/>
</a>
</g>
</g>
<!-- Node18 -->
<g id="Node000018" class="node">
<title>Node18</title>
<g id="a_Node000018"><a xlink:href="MAVLinkMessageType_8h.html" target="_top" xlink:title=" ">
<polygon fill="white" stroke="#666666" points="1135.5,-129 1001.5,-129 1001.5,-110 1135.5,-110 1135.5,-129"/>
<text text-anchor="middle" x="1068.5" y="-117" font-family="Helvetica,sans-Serif" font-size="10.00">MAVLinkMessageType.h</text>
</a>
</g>
</g>
<!-- Node2&#45;&gt;Node18 -->
<g id="edge25_Node000002_Node000018" class="edge">
<title>Node2&#45;&gt;Node18</title>
<g id="a_edge25_Node000002_Node000018"><a xlink:title=" ">
<path fill="none" stroke="#63b8ff" d="M339.7,-170.93C458.22,-162.73 828.62,-137.1 990.96,-125.87"/>
<polygon fill="#63b8ff" stroke="#63b8ff" points="991.61,-129.33 1001.35,-125.15 991.13,-122.35 991.61,-129.33"/>
</a>
</g>
</g>
<!-- Node9&#45;&gt;Node3 -->
<g id="edge9_Node000009_Node000003" class="edge">
<title>Node9&#45;&gt;Node3</title>
<g id="a_edge9_Node000009_Node000003"><a xlink:title=" ">
<path fill="none" stroke="#63b8ff" d="M592.82,-114C512.59,-98.07 240.86,-44.12 124.78,-21.08"/>
<polygon fill="#63b8ff" stroke="#63b8ff" points="125.2,-17.59 114.71,-19.08 123.83,-24.46 125.2,-17.59"/>
</a>
</g>
</g>
<!-- Node9&#45;&gt;Node8 -->
<g id="edge15_Node000009_Node000008" class="edge">
<title>Node9&#45;&gt;Node8</title>
<g id="a_edge15_Node000009_Node000008"><a xlink:title=" ">
<path fill="none" stroke="#63b8ff" d="M592.66,-112.4C566.04,-104.93 521.05,-91.11 484.5,-74 454.09,-59.77 421.42,-38.78 400.98,-24.88"/>
<polygon fill="#63b8ff" stroke="#63b8ff" points="402.72,-21.83 392.49,-19.04 398.75,-27.59 402.72,-21.83"/>
</a>
</g>
</g>
<!-- Node10 -->
<g id="Node000010" class="node">
<title>Node10</title>
<g id="a_Node000010"><a xlink:title=" ">
<polygon fill="#e0e0e0" stroke="#999999" points="767,-74 644,-74 644,-55 767,-55 767,-74"/>
<text text-anchor="middle" x="705.5" y="-62" font-family="Helvetica,sans-Serif" font-size="10.00">QtCore/QMutexLocker</text>
</a>
</g>
</g>
<!-- Node9&#45;&gt;Node10 -->
<g id="edge10_Node000009_Node000010" class="edge">
<title>Node9&#45;&gt;Node10</title>
<g id="a_edge10_Node000009_Node000010"><a xlink:title=" ">
<path fill="none" stroke="#63b8ff" d="M629.96,-109.98C643.92,-101.77 665.29,-89.18 681.75,-79.49"/>
<polygon fill="#63b8ff" stroke="#63b8ff" points="683.94,-82.26 690.78,-74.17 680.38,-76.23 683.94,-82.26"/>
</a>
</g>
</g>
<!-- Node11 -->
<g id="Node000011" class="node">
<title>Node11</title>
<g id="a_Node000011"><a xlink:title=" ">
<polygon fill="#e0e0e0" stroke="#999999" points="1041.5,-19 949.5,-19 949.5,0 1041.5,0 1041.5,-19"/>
<text text-anchor="middle" x="995.5" y="-7" font-family="Helvetica,sans-Serif" font-size="10.00">QtCore/QObject</text>
</a>
</g>
</g>
<!-- Node9&#45;&gt;Node11 -->
<g id="edge11_Node000009_Node000011" class="edge">
<title>Node9&#45;&gt;Node11</title>
<g id="a_edge11_Node000009_Node000011"><a xlink:title=" ">
<path fill="none" stroke="#63b8ff" d="M638.09,-117.86C704.62,-115.61 898.52,-106.36 951.5,-74 968.8,-63.44 981.01,-43.22 988.11,-28.42"/>
<polygon fill="#63b8ff" stroke="#63b8ff" points="991.33,-29.79 992.21,-19.23 984.94,-26.94 991.33,-29.79"/>
</a>
</g>
</g>
<!-- Node12 -->
<g id="Node000012" class="node">
<title>Node12</title>
<g id="a_Node000012"><a xlink:title=" ">
<polygon fill="#e0e0e0" stroke="#999999" points="925.5,-74 785.5,-74 785.5,-55 925.5,-55 925.5,-74"/>
<text text-anchor="middle" x="855.5" y="-62" font-family="Helvetica,sans-Serif" font-size="10.00">QtCore/QRecursiveMutex</text>
</a>
</g>
</g>
<!-- Node9&#45;&gt;Node12 -->
<g id="edge12_Node000009_Node000012" class="edge">
<title>Node9&#45;&gt;Node12</title>
<g id="a_edge12_Node000009_Node000012"><a xlink:title=" ">
<path fill="none" stroke="#63b8ff" d="M638.08,-113.51C676.48,-105.03 755.33,-87.62 806.77,-76.26"/>
<polygon fill="#63b8ff" stroke="#63b8ff" points="807.66,-79.65 816.67,-74.07 806.15,-72.81 807.66,-79.65"/>
</a>
</g>
</g>
<!-- Node13 -->
<g id="Node000013" class="node">
<title>Node13</title>
<g id="a_Node000013"><a xlink:title=" ">
<polygon fill="#e0e0e0" stroke="#999999" points="818,-19 729,-19 729,0 818,0 818,-19"/>
<text text-anchor="middle" x="773.5" y="-7" font-family="Helvetica,sans-Serif" font-size="10.00">QtCore/QString</text>
</a>
</g>
</g>
<!-- Node9&#45;&gt;Node13 -->
<g id="edge13_Node000009_Node000013" class="edge">
<title>Node9&#45;&gt;Node13</title>
<g id="a_edge13_Node000009_Node000013"><a xlink:title=" ">
<path fill="none" stroke="#63b8ff" d="M615.64,-109.84C616.34,-96.31 619.67,-70.11 634.5,-55 647.14,-42.12 688.74,-29.79 723.17,-21.4"/>
<polygon fill="#63b8ff" stroke="#63b8ff" points="724.2,-24.75 733.12,-19.03 722.58,-17.94 724.2,-24.75"/>
</a>
</g>
</g>
<!-- Node14 -->
<g id="Node000014" class="node">
<title>Node14</title>
<g id="a_Node000014"><a xlink:title=" ">
<polygon fill="#e0e0e0" stroke="#999999" points="931,-19 836,-19 836,0 931,0 931,-19"/>
<text text-anchor="middle" x="883.5" y="-7" font-family="Helvetica,sans-Serif" font-size="10.00">QtCore/QVariant</text>
</a>
</g>
</g>
<!-- Node9&#45;&gt;Node14 -->
<g id="edge14_Node000009_Node000014" class="edge">
<title>Node9&#45;&gt;Node14</title>
<g id="a_edge14_Node000009_Node000014"><a xlink:title=" ">
<path fill="none" stroke="#63b8ff" d="M638.02,-118.98C704.18,-119.88 895.77,-118.5 934.5,-74 948.91,-57.44 927.09,-37.62 907.68,-24.58"/>
<polygon fill="#63b8ff" stroke="#63b8ff" points="909.39,-21.51 899.08,-19.1 905.63,-27.42 909.39,-21.51"/>
</a>
</g>
</g>
<!-- Node15 -->
<g id="Node000015" class="node">
<title>Node15</title>
<g id="a_Node000015"><a xlink:href="FactMetaData_8h.html" target="_top" xlink:title=" ">
<polygon fill="white" stroke="#666666" points="587,-74 494,-74 494,-55 587,-55 587,-74"/>
<text text-anchor="middle" x="540.5" y="-62" font-family="Helvetica,sans-Serif" font-size="10.00">FactMetaData.h</text>
</a>
</g>
</g>
<!-- Node9&#45;&gt;Node15 -->
<g id="edge16_Node000009_Node000015" class="edge">
<title>Node9&#45;&gt;Node15</title>
<g id="a_edge16_Node000009_Node000015"><a xlink:title=" ">
<path fill="none" stroke="#63b8ff" d="M603.45,-109.98C592.04,-101.92 574.67,-89.65 561.07,-80.03"/>
<polygon fill="#63b8ff" stroke="#63b8ff" points="562.96,-77.08 552.77,-74.17 558.92,-82.8 562.96,-77.08"/>
</a>
</g>
</g>
<!-- Node15&#45;&gt;Node3 -->
<g id="edge18_Node000015_Node000003" class="edge">
<title>Node15&#45;&gt;Node3</title>
<g id="a_edge18_Node000015_Node000003"><a xlink:title=" ">
<path fill="none" stroke="#63b8ff" d="M493.82,-58.22C414.38,-49.25 251.95,-30.89 153.3,-19.74"/>
<polygon fill="#63b8ff" stroke="#63b8ff" points="153.4,-16.23 143.07,-18.59 152.62,-23.19 153.4,-16.23"/>
</a>
</g>
</g>
<!-- Node15&#45;&gt;Node4 -->
<g id="edge19_Node000015_Node000004" class="edge">
<title>Node15&#45;&gt;Node4</title>
<g id="a_edge19_Node000015_Node000004"><a xlink:title=" ">
<path fill="none" stroke="#63b8ff" d="M493.79,-55.91C436.84,-46.65 340.36,-30.96 277.04,-20.67"/>
<polygon fill="#63b8ff" stroke="#63b8ff" points="277.22,-17.15 266.79,-19 276.09,-24.06 277.22,-17.15"/>
</a>
</g>
</g>
<!-- Node15&#45;&gt;Node8 -->
<g id="edge24_Node000015_Node000008" class="edge">
<title>Node15&#45;&gt;Node8</title>
<g id="a_edge24_Node000015_Node000008"><a xlink:title=" ">
<path fill="none" stroke="#63b8ff" d="M514.79,-54.98C488.05,-46.13 445.97,-32.19 416.05,-22.28"/>
<polygon fill="#63b8ff" stroke="#63b8ff" points="417,-18.9 406.41,-19.08 414.8,-25.55 417,-18.9"/>
</a>
</g>
</g>
<!-- Node15&#45;&gt;Node11 -->
<g id="edge21_Node000015_Node000011" class="edge">
<title>Node15&#45;&gt;Node11</title>
<g id="a_edge21_Node000015_Node000011"><a xlink:title=" ">
<path fill="none" stroke="#63b8ff" d="M587.26,-58.89C660.03,-51.58 805.04,-36.49 939.32,-18.97"/>
<polygon fill="#63b8ff" stroke="#63b8ff" points="939.92,-22.42 949.38,-17.65 939.01,-15.48 939.92,-22.42"/>
</a>
</g>
</g>
<!-- Node15&#45;&gt;Node13 -->
<g id="edge22_Node000015_Node000013" class="edge">
<title>Node15&#45;&gt;Node13</title>
<g id="a_edge22_Node000015_Node000013"><a xlink:title=" ">
<path fill="none" stroke="#63b8ff" d="M577.94,-54.98C618.15,-45.84 682.18,-31.27 725.94,-21.32"/>
<polygon fill="#63b8ff" stroke="#63b8ff" points="726.8,-24.71 735.77,-19.08 725.24,-17.89 726.8,-24.71"/>
</a>
</g>
</g>
<!-- Node15&#45;&gt;Node14 -->
<g id="edge23_Node000015_Node000014" class="edge">
<title>Node15&#45;&gt;Node14</title>
<g id="a_edge23_Node000015_Node000014"><a xlink:title=" ">
<path fill="none" stroke="#63b8ff" d="M587.12,-56.3C649.14,-46.71 758.76,-29.77 825.89,-19.4"/>
<polygon fill="#63b8ff" stroke="#63b8ff" points="826.54,-22.84 835.88,-17.86 825.47,-15.93 826.54,-22.84"/>
</a>
</g>
</g>
<!-- Node16 -->
<g id="Node000016" class="node">
<title>Node16</title>
<g id="a_Node000016"><a xlink:title=" ">
<polygon fill="#e0e0e0" stroke="#999999" points="579.5,-19 493.5,-19 493.5,0 579.5,0 579.5,-19"/>
<text text-anchor="middle" x="536.5" y="-7" font-family="Helvetica,sans-Serif" font-size="10.00">QtCore/QHash</text>
</a>
</g>
</g>
<!-- Node15&#45;&gt;Node16 -->
<g id="edge17_Node000015_Node000016" class="edge">
<title>Node15&#45;&gt;Node16</title>
<g id="a_edge17_Node000015_Node000016"><a xlink:title=" ">
<path fill="none" stroke="#63b8ff" d="M539.84,-54.75C539.32,-47.8 538.56,-37.85 537.91,-29.13"/>
<polygon fill="#63b8ff" stroke="#63b8ff" points="541.39,-28.8 537.15,-19.09 534.41,-29.32 541.39,-28.8"/>
</a>
</g>
</g>
<!-- Node17 -->
<g id="Node000017" class="node">
<title>Node17</title>
<g id="a_Node000017"><a xlink:title=" ">
<polygon fill="#e0e0e0" stroke="#999999" points="711,-19 598,-19 598,0 711,0 711,-19"/>
<text text-anchor="middle" x="654.5" y="-7" font-family="Helvetica,sans-Serif" font-size="10.00">QtCore/QJsonObject</text>
</a>
</g>
</g>
<!-- Node15&#45;&gt;Node17 -->
<g id="edge20_Node000015_Node000017" class="edge">
<title>Node15&#45;&gt;Node17</title>
<g id="a_edge20_Node000015_Node000017"><a xlink:title=" ">
<path fill="none" stroke="#63b8ff" d="M558.82,-54.98C577.16,-46.46 605.61,-33.23 626.73,-23.41"/>
<polygon fill="#63b8ff" stroke="#63b8ff" points="628.26,-26.56 635.85,-19.17 625.31,-20.21 628.26,-26.56"/>
</a>
</g>
</g>
<!-- Node19 -->
<g id="Node000019" class="node">
<title>Node19</title>
<g id="a_Node000019"><a xlink:title=" ">
<polygon fill="#e0e0e0" stroke="#999999" points="1189,-74 1136,-74 1136,-55 1189,-55 1189,-74"/>
<text text-anchor="middle" x="1162.5" y="-62" font-family="Helvetica,sans-Serif" font-size="10.00">stdint.h</text>
</a>
</g>
</g>
<!-- Node18&#45;&gt;Node19 -->
<g id="edge26_Node000018_Node000019" class="edge">
<title>Node18&#45;&gt;Node19</title>
<g id="a_edge26_Node000018_Node000019"><a xlink:title=" ">
<path fill="none" stroke="#63b8ff" d="M1083.6,-109.98C1098.32,-101.69 1120.92,-88.94 1138.17,-79.22"/>
<polygon fill="#63b8ff" stroke="#63b8ff" points="1140.13,-82.13 1147.12,-74.17 1136.69,-76.03 1140.13,-82.13"/>
</a>
</g>
</g>
<!-- Node20 -->
<g id="Node000020" class="node">
<title>Node20</title>
<g id="a_Node000020"><a xlink:title=" ">
<polygon fill="#e0e0e0" stroke="#999999" points="1117.5,-74 1019.5,-74 1019.5,-55 1117.5,-55 1117.5,-74"/>
<text text-anchor="middle" x="1068.5" y="-62" font-family="Helvetica,sans-Serif" font-size="10.00">mavlink_types.h</text>
</a>
</g>
</g>
<!-- Node18&#45;&gt;Node20 -->
<g id="edge27_Node000018_Node000020" class="edge">
<title>Node18&#45;&gt;Node20</title>
<g id="a_edge27_Node000018_Node000020"><a xlink:title=" ">
<path fill="none" stroke="#63b8ff" d="M1068.5,-109.75C1068.5,-102.8 1068.5,-92.85 1068.5,-84.13"/>
<polygon fill="#63b8ff" stroke="#63b8ff" points="1072,-84.09 1068.5,-74.09 1065,-84.09 1072,-84.09"/>
</a>
</g>
</g>
</g>
</svg>
