<?xml version="1.0" encoding="UTF-8" standalone="no"?>
<!DOCTYPE svg PUBLIC "-//W3C//DTD SVG 1.1//EN"
 "http://www.w3.org/Graphics/SVG/1.1/DTD/svg11.dtd">
<!-- Generated by graphviz version 2.43.0 (0)
 -->
<!-- Title: src/Settings/VideoSettings.cc Pages: 1 -->
<!--zoomable 357 -->

<svg id="main" version="1.1" xmlns="http://www.w3.org/2000/svg" xmlns:xlink="http://www.w3.org/1999/xlink" xml:space="preserve" onload="init(evt)">
<style type="text/css"><![CDATA[
.node, .edge {opacity: 0.7;}
.node.selected, .edge.selected {opacity: 1;}
.edge:hover path { stroke: red; }
.edge:hover polygon { stroke: red; fill: red; }
]]></style>

<defs>
  <circle id="rim" cx="0" cy="0" r="7"/>
  <circle id="rim2" cx="0" cy="0" r="3.5"/>
  <g id="zoomPlus">
    <use xlink:href="#rim" fill="#404040"><set attributeName="fill" to="#808080" begin="zoomplus.mouseover" end="zoomplus.mouseout"/></use>
    <path d="M-4,0h8M0,-4v8" fill="none" stroke="white" stroke-width="1.5" pointer-events="none"/>
  </g>
  <g id="zoomMin">
    <use xlink:href="#rim" fill="#404040"><set attributeName="fill" to="#808080" begin="zoomminus.mouseover" end="zoomminus.mouseout"/></use>
    <path d="M-4,0h8" fill="none" stroke="white" stroke-width="1.5" pointer-events="none"/>
  </g>
  <g id="arrowUp" transform="translate(30 24)">
    <use xlink:href="#rim"/>
    <path pointer-events="none" fill="none" stroke="white" stroke-width="1.5" d="M0,-3.0v7 M-2.5,-0.5L0,-3.0L2.5,-0.5"/>
  </g>
  <g id="arrowRight" transform="rotate(90) translate(36 -43)">
    <use xlink:href="#rim"/>
    <path pointer-events="none" fill="none" stroke="white" stroke-width="1.5" d="M0,-3.0v7 M-2.5,-0.5L0,-3.0L2.5,-0.5"/>
  </g>
  <g id="arrowDown" transform="rotate(180) translate(-30 -48)">
    <use xlink:href="#rim"/>
    <path pointer-events="none" fill="none" stroke="white" stroke-width="1.5" d="M0,-3.0v7 M-2.5,-0.5L0,-3.0L2.5,-0.5"/>
  </g>
  <g id="arrowLeft" transform="rotate(270) translate(-36 17)">
    <use xlink:href="#rim"/>
    <path pointer-events="none" fill="none" stroke="white" stroke-width="1.5" d="M0,-3.0v7 M-2.5,-0.5L0,-3.0L2.5,-0.5"/>
  </g>
  <g id="resetDef">
    <use xlink:href="#rim2" fill="#404040"><set attributeName="fill" to="#808080" begin="reset.mouseover" end="reset.mouseout"/></use>
  </g>
</defs>
<script type="application/ecmascript">
var viewWidth = 1276;
var viewHeight = 357;
var sectionId = 'dynsection-0';
</script>
<script type="application/ecmascript" xlink:href="svg.min.js"/>
<svg id="graph" class="graph">
<g id="viewport">
<title>src/Settings/VideoSettings.cc</title>
<!-- Node1 -->
<g id="Node000001" class="node">
<title>Node1</title>
<g id="a_Node000001"><a xlink:title=" ">
<polygon fill="#999999" stroke="#666666" points="960.5,-349 802.5,-349 802.5,-330 960.5,-330 960.5,-349"/>
<text text-anchor="middle" x="881.5" y="-337" font-family="Helvetica,sans-Serif" font-size="10.00">src/Settings/VideoSettings.cc</text>
</a>
</g>
</g>
<!-- Node2 -->
<g id="Node000002" class="node">
<title>Node2</title>
<g id="a_Node000002"><a xlink:href="VideoSettings_8h.html" target="_top" xlink:title=" ">
<polygon fill="white" stroke="#666666" points="795,-294 702,-294 702,-275 795,-275 795,-294"/>
<text text-anchor="middle" x="748.5" y="-282" font-family="Helvetica,sans-Serif" font-size="10.00">VideoSettings.h</text>
</a>
</g>
</g>
<!-- Node1&#45;&gt;Node2 -->
<g id="edge1_Node000001_Node000002" class="edge">
<title>Node1&#45;&gt;Node2</title>
<g id="a_edge1_Node000001_Node000002"><a xlink:title=" ">
<path fill="none" stroke="#63b8ff" d="M860.13,-329.98C838.35,-321.3 804.34,-307.75 779.58,-297.88"/>
<polygon fill="#63b8ff" stroke="#63b8ff" points="780.84,-294.62 770.26,-294.17 778.25,-301.12 780.84,-294.62"/>
</a>
</g>
</g>
<!-- Node16 -->
<g id="Node000016" class="node">
<title>Node16</title>
<g id="a_Node000016"><a xlink:href="VideoManager_8h.html" target="_top" xlink:title=" ">
<polygon fill="white" stroke="#666666" points="910,-74 815,-74 815,-55 910,-55 910,-74"/>
<text text-anchor="middle" x="862.5" y="-62" font-family="Helvetica,sans-Serif" font-size="10.00">VideoManager.h</text>
</a>
</g>
</g>
<!-- Node1&#45;&gt;Node16 -->
<g id="edge24_Node000001_Node000016" class="edge">
<title>Node1&#45;&gt;Node16</title>
<g id="a_edge24_Node000001_Node000016"><a xlink:title=" ">
<path fill="none" stroke="#63b8ff" d="M878.94,-329.91C873.75,-311.74 862.5,-268 862.5,-230.5 862.5,-230.5 862.5,-230.5 862.5,-173.5 862.5,-142.19 862.5,-105.77 862.5,-84.23"/>
<polygon fill="#63b8ff" stroke="#63b8ff" points="866,-84.18 862.5,-74.18 859,-84.18 866,-84.18"/>
</a>
</g>
</g>
<!-- Node19 -->
<g id="Node000019" class="node">
<title>Node19</title>
<g id="a_Node000019"><a xlink:title=" ">
<polygon fill="#e0e0e0" stroke="#999999" points="1042,-294 929,-294 929,-275 1042,-275 1042,-294"/>
<text text-anchor="middle" x="985.5" y="-282" font-family="Helvetica,sans-Serif" font-size="10.00">QtCore/QVariantList</text>
</a>
</g>
</g>
<!-- Node1&#45;&gt;Node19 -->
<g id="edge30_Node000001_Node000019" class="edge">
<title>Node1&#45;&gt;Node19</title>
<g id="a_edge30_Node000001_Node000019"><a xlink:title=" ">
<path fill="none" stroke="#63b8ff" d="M898.21,-329.98C914.71,-321.57 940.2,-308.59 959.38,-298.81"/>
<polygon fill="#63b8ff" stroke="#63b8ff" points="961.17,-301.83 968.49,-294.17 957.99,-295.59 961.17,-301.83"/>
</a>
</g>
</g>
<!-- Node20 -->
<g id="Node000020" class="node">
<title>Node20</title>
<g id="a_Node000020"><a xlink:href="UVCReceiver_8h.html" target="_top" xlink:title=" ">
<polygon fill="white" stroke="#666666" points="1011,-184 922,-184 922,-165 1011,-165 1011,-184"/>
<text text-anchor="middle" x="966.5" y="-172" font-family="Helvetica,sans-Serif" font-size="10.00">UVCReceiver.h</text>
</a>
</g>
</g>
<!-- Node1&#45;&gt;Node20 -->
<g id="edge31_Node000001_Node000020" class="edge">
<title>Node1&#45;&gt;Node20</title>
<g id="a_edge31_Node000001_Node000020"><a xlink:title=" ">
<path fill="none" stroke="#63b8ff" d="M886.07,-329.74C899.5,-303.98 939.05,-228.13 957.2,-193.33"/>
<polygon fill="#63b8ff" stroke="#63b8ff" points="960.39,-194.79 961.91,-184.31 954.18,-191.56 960.39,-194.79"/>
</a>
</g>
</g>
<!-- Node3 -->
<g id="Node000003" class="node">
<title>Node3</title>
<g id="a_Node000003"><a xlink:title=" ">
<polygon fill="#e0e0e0" stroke="#999999" points="937,-19 748,-19 748,0 937,0 937,-19"/>
<text text-anchor="middle" x="842.5" y="-7" font-family="Helvetica,sans-Serif" font-size="10.00">QtQmlIntegration/QtQmlIntegration</text>
</a>
</g>
</g>
<!-- Node2&#45;&gt;Node3 -->
<g id="edge2_Node000002_Node000003" class="edge">
<title>Node2&#45;&gt;Node3</title>
<g id="a_edge2_Node000002_Node000003"><a xlink:title=" ">
<path fill="none" stroke="#63b8ff" d="M748.5,-274.82C748.5,-256.48 748.5,-212.44 748.5,-175.5 748.5,-175.5 748.5,-175.5 748.5,-118.5 748.5,-76.29 789.86,-42.56 817.71,-24.63"/>
<polygon fill="#63b8ff" stroke="#63b8ff" points="819.88,-27.4 826.55,-19.17 816.21,-21.44 819.88,-27.4"/>
</a>
</g>
</g>
<!-- Node4 -->
<g id="Node000004" class="node">
<title>Node4</title>
<g id="a_Node000004"><a xlink:href="SettingsGroup_8h.html" target="_top" xlink:title=" ">
<polygon fill="white" stroke="#666666" points="682,-239 587,-239 587,-220 682,-220 682,-239"/>
<text text-anchor="middle" x="634.5" y="-227" font-family="Helvetica,sans-Serif" font-size="10.00">SettingsGroup.h</text>
</a>
</g>
</g>
<!-- Node2&#45;&gt;Node4 -->
<g id="edge3_Node000002_Node000004" class="edge">
<title>Node2&#45;&gt;Node4</title>
<g id="a_edge3_Node000002_Node000004"><a xlink:title=" ">
<path fill="none" stroke="#63b8ff" d="M730.18,-274.98C711.84,-266.46 683.39,-253.23 662.27,-243.41"/>
<polygon fill="#63b8ff" stroke="#63b8ff" points="663.69,-240.21 653.15,-239.17 660.74,-246.56 663.69,-240.21"/>
</a>
</g>
</g>
<!-- Node5 -->
<g id="Node000005" class="node">
<title>Node5</title>
<g id="a_Node000005"><a xlink:href="SettingsFact_8h.html" target="_top" xlink:title=" ">
<polygon fill="white" stroke="#666666" points="639,-184 554,-184 554,-165 639,-165 639,-184"/>
<text text-anchor="middle" x="596.5" y="-172" font-family="Helvetica,sans-Serif" font-size="10.00">SettingsFact.h</text>
</a>
</g>
</g>
<!-- Node4&#45;&gt;Node5 -->
<g id="edge4_Node000004_Node000005" class="edge">
<title>Node4&#45;&gt;Node5</title>
<g id="a_edge4_Node000004_Node000005"><a xlink:title=" ">
<path fill="none" stroke="#63b8ff" d="M628.23,-219.75C622.91,-212.34 615.14,-201.5 608.62,-192.41"/>
<polygon fill="#63b8ff" stroke="#63b8ff" points="611.33,-190.18 602.66,-184.09 605.64,-194.26 611.33,-190.18"/>
</a>
</g>
</g>
<!-- Node6 -->
<g id="Node000006" class="node">
<title>Node6</title>
<g id="a_Node000006"><a xlink:title=" ">
<polygon fill="#e0e0e0" stroke="#999999" points="619,-19 476,-19 476,0 619,0 619,-19"/>
<text text-anchor="middle" x="547.5" y="-7" font-family="Helvetica,sans-Serif" font-size="10.00">QtCore/QLoggingCategory</text>
</a>
</g>
</g>
<!-- Node5&#45;&gt;Node6 -->
<g id="edge5_Node000005_Node000006" class="edge">
<title>Node5&#45;&gt;Node6</title>
<g id="a_edge5_Node000005_Node000006"><a xlink:title=" ">
<path fill="none" stroke="#63b8ff" d="M593.87,-164.74C586.19,-139.2 563.71,-64.43 553.13,-29.23"/>
<polygon fill="#63b8ff" stroke="#63b8ff" points="556.38,-27.88 550.15,-19.31 549.67,-29.89 556.38,-27.88"/>
</a>
</g>
</g>
<!-- Node7 -->
<g id="Node000007" class="node">
<title>Node7</title>
<g id="a_Node000007"><a xlink:title=" ">
<polygon fill="#e0e0e0" stroke="#999999" points="729.5,-19 637.5,-19 637.5,0 729.5,0 729.5,-19"/>
<text text-anchor="middle" x="683.5" y="-7" font-family="Helvetica,sans-Serif" font-size="10.00">QtCore/QObject</text>
</a>
</g>
</g>
<!-- Node5&#45;&gt;Node7 -->
<g id="edge6_Node000005_Node000007" class="edge">
<title>Node5&#45;&gt;Node7</title>
<g id="a_edge6_Node000005_Node000007"><a xlink:title=" ">
<path fill="none" stroke="#63b8ff" d="M601.18,-164.74C614.93,-138.98 655.41,-63.13 673.99,-28.33"/>
<polygon fill="#63b8ff" stroke="#63b8ff" points="677.18,-29.78 678.8,-19.31 671,-26.48 677.18,-29.78"/>
</a>
</g>
</g>
<!-- Node8 -->
<g id="Node000008" class="node">
<title>Node8</title>
<g id="a_Node000008"><a xlink:title=" ">
<polygon fill="#e0e0e0" stroke="#999999" points="89,-19 0,-19 0,0 89,0 89,-19"/>
<text text-anchor="middle" x="44.5" y="-7" font-family="Helvetica,sans-Serif" font-size="10.00">QtCore/QString</text>
</a>
</g>
</g>
<!-- Node5&#45;&gt;Node8 -->
<g id="edge7_Node000005_Node000008" class="edge">
<title>Node5&#45;&gt;Node8</title>
<g id="a_edge7_Node000005_Node000008"><a xlink:title=" ">
<path fill="none" stroke="#63b8ff" d="M553.66,-172.64C434.66,-169.27 104.52,-152.84 38.5,-74 28.08,-61.55 31.56,-42.53 36.44,-28.55"/>
<polygon fill="#63b8ff" stroke="#63b8ff" points="39.78,-29.62 40.24,-19.04 33.28,-27.03 39.78,-29.62"/>
</a>
</g>
</g>
<!-- Node9 -->
<g id="Node000009" class="node">
<title>Node9</title>
<g id="a_Node000009"><a xlink:href="Fact_8h.html" target="_top" xlink:title=" ">
<polygon fill="white" stroke="#666666" points="506,-129 461,-129 461,-110 506,-110 506,-129"/>
<text text-anchor="middle" x="483.5" y="-117" font-family="Helvetica,sans-Serif" font-size="10.00">Fact.h</text>
</a>
</g>
</g>
<!-- Node5&#45;&gt;Node9 -->
<g id="edge8_Node000005_Node000009" class="edge">
<title>Node5&#45;&gt;Node9</title>
<g id="a_edge8_Node000005_Node000009"><a xlink:title=" ">
<path fill="none" stroke="#63b8ff" d="M578.34,-164.98C560.25,-156.5 532.22,-143.35 511.31,-133.54"/>
<polygon fill="#63b8ff" stroke="#63b8ff" points="512.53,-130.25 501.99,-129.17 509.55,-136.59 512.53,-130.25"/>
</a>
</g>
</g>
<!-- Node9&#45;&gt;Node3 -->
<g id="edge15_Node000009_Node000003" class="edge">
<title>Node9&#45;&gt;Node3</title>
<g id="a_edge15_Node000009_Node000003"><a xlink:title=" ">
<path fill="none" stroke="#63b8ff" d="M506.23,-111.66C566.22,-93.62 729.31,-44.55 804.1,-22.05"/>
<polygon fill="#63b8ff" stroke="#63b8ff" points="805.48,-25.29 814.04,-19.06 803.46,-18.59 805.48,-25.29"/>
</a>
</g>
</g>
<!-- Node9&#45;&gt;Node6 -->
<g id="edge9_Node000009_Node000006" class="edge">
<title>Node9&#45;&gt;Node6</title>
<g id="a_edge9_Node000009_Node000006"><a xlink:title=" ">
<path fill="none" stroke="#63b8ff" d="M499.82,-109.87C512.55,-102.22 529.54,-89.81 538.5,-74 546.14,-60.51 548.14,-42.92 548.36,-29.67"/>
<polygon fill="#63b8ff" stroke="#63b8ff" points="551.86,-29.3 548.2,-19.36 544.86,-29.41 551.86,-29.3"/>
</a>
</g>
</g>
<!-- Node9&#45;&gt;Node7 -->
<g id="edge11_Node000009_Node000007" class="edge">
<title>Node9&#45;&gt;Node7</title>
<g id="a_edge11_Node000009_Node000007"><a xlink:title=" ">
<path fill="none" stroke="#63b8ff" d="M499.53,-109.84C534.36,-91.04 617.14,-46.33 658.74,-23.87"/>
<polygon fill="#63b8ff" stroke="#63b8ff" points="660.54,-26.88 667.67,-19.05 657.21,-20.72 660.54,-26.88"/>
</a>
</g>
</g>
<!-- Node9&#45;&gt;Node8 -->
<g id="edge13_Node000009_Node000008" class="edge">
<title>Node9&#45;&gt;Node8</title>
<g id="a_edge13_Node000009_Node000008"><a xlink:title=" ">
<path fill="none" stroke="#63b8ff" d="M460.87,-117.8C376.12,-114.97 80.79,-103.08 51.5,-74 40.07,-62.65 39.36,-43.75 40.88,-29.52"/>
<polygon fill="#63b8ff" stroke="#63b8ff" points="44.38,-29.74 42.41,-19.33 37.46,-28.7 44.38,-29.74"/>
</a>
</g>
</g>
<!-- Node10 -->
<g id="Node000010" class="node">
<title>Node10</title>
<g id="a_Node000010"><a xlink:title=" ">
<polygon fill="#e0e0e0" stroke="#999999" points="342,-74 219,-74 219,-55 342,-55 342,-74"/>
<text text-anchor="middle" x="280.5" y="-62" font-family="Helvetica,sans-Serif" font-size="10.00">QtCore/QMutexLocker</text>
</a>
</g>
</g>
<!-- Node9&#45;&gt;Node10 -->
<g id="edge10_Node000009_Node000010" class="edge">
<title>Node9&#45;&gt;Node10</title>
<g id="a_edge10_Node000009_Node000010"><a xlink:title=" ">
<path fill="none" stroke="#63b8ff" d="M461,-112.63C427.74,-103.94 364.87,-87.53 322.82,-76.55"/>
<polygon fill="#63b8ff" stroke="#63b8ff" points="323.7,-73.16 313.14,-74.02 321.93,-79.93 323.7,-73.16"/>
</a>
</g>
</g>
<!-- Node11 -->
<g id="Node000011" class="node">
<title>Node11</title>
<g id="a_Node000011"><a xlink:title=" ">
<polygon fill="#e0e0e0" stroke="#999999" points="200.5,-74 60.5,-74 60.5,-55 200.5,-55 200.5,-74"/>
<text text-anchor="middle" x="130.5" y="-62" font-family="Helvetica,sans-Serif" font-size="10.00">QtCore/QRecursiveMutex</text>
</a>
</g>
</g>
<!-- Node9&#45;&gt;Node11 -->
<g id="edge12_Node000009_Node000011" class="edge">
<title>Node9&#45;&gt;Node11</title>
<g id="a_edge12_Node000009_Node000011"><a xlink:title=" ">
<path fill="none" stroke="#63b8ff" d="M460.88,-115.1C408.64,-107.26 277.91,-87.63 197.44,-75.55"/>
<polygon fill="#63b8ff" stroke="#63b8ff" points="197.81,-72.07 187.4,-74.04 196.77,-78.99 197.81,-72.07"/>
</a>
</g>
</g>
<!-- Node12 -->
<g id="Node000012" class="node">
<title>Node12</title>
<g id="a_Node000012"><a xlink:title=" ">
<polygon fill="#e0e0e0" stroke="#999999" points="202,-19 107,-19 107,0 202,0 202,-19"/>
<text text-anchor="middle" x="154.5" y="-7" font-family="Helvetica,sans-Serif" font-size="10.00">QtCore/QVariant</text>
</a>
</g>
</g>
<!-- Node9&#45;&gt;Node12 -->
<g id="edge14_Node000009_Node000012" class="edge">
<title>Node9&#45;&gt;Node12</title>
<g id="a_edge14_Node000009_Node000012"><a xlink:title=" ">
<path fill="none" stroke="#63b8ff" d="M468.41,-109.92C444.22,-96.49 394.97,-70.45 350.5,-55 305.02,-39.2 251.62,-27.5 212.06,-20.08"/>
<polygon fill="#63b8ff" stroke="#63b8ff" points="212.52,-16.6 202.05,-18.24 211.25,-23.49 212.52,-16.6"/>
</a>
</g>
</g>
<!-- Node13 -->
<g id="Node000013" class="node">
<title>Node13</title>
<g id="a_Node000013"><a xlink:href="FactMetaData_8h.html" target="_top" xlink:title=" ">
<polygon fill="white" stroke="#666666" points="530,-74 437,-74 437,-55 530,-55 530,-74"/>
<text text-anchor="middle" x="483.5" y="-62" font-family="Helvetica,sans-Serif" font-size="10.00">FactMetaData.h</text>
</a>
</g>
</g>
<!-- Node9&#45;&gt;Node13 -->
<g id="edge16_Node000009_Node000013" class="edge">
<title>Node9&#45;&gt;Node13</title>
<g id="a_edge16_Node000009_Node000013"><a xlink:title=" ">
<path fill="none" stroke="#63b8ff" d="M483.5,-109.75C483.5,-102.8 483.5,-92.85 483.5,-84.13"/>
<polygon fill="#63b8ff" stroke="#63b8ff" points="487,-84.09 483.5,-74.09 480,-84.09 487,-84.09"/>
</a>
</g>
</g>
<!-- Node13&#45;&gt;Node3 -->
<g id="edge23_Node000013_Node000003" class="edge">
<title>Node13&#45;&gt;Node3</title>
<g id="a_edge23_Node000013_Node000003"><a xlink:title=" ">
<path fill="none" stroke="#63b8ff" d="M530.06,-56.63C592.27,-47.44 702.93,-31.1 774.48,-20.54"/>
<polygon fill="#63b8ff" stroke="#63b8ff" points="775.36,-23.95 784.74,-19.03 774.34,-17.03 775.36,-23.95"/>
</a>
</g>
</g>
<!-- Node13&#45;&gt;Node6 -->
<g id="edge17_Node000013_Node000006" class="edge">
<title>Node13&#45;&gt;Node6</title>
<g id="a_edge17_Node000013_Node000006"><a xlink:title=" ">
<path fill="none" stroke="#63b8ff" d="M493.78,-54.98C503.34,-47.07 517.78,-35.11 529.28,-25.58"/>
<polygon fill="#63b8ff" stroke="#63b8ff" points="531.56,-28.24 537.03,-19.17 527.1,-22.85 531.56,-28.24"/>
</a>
</g>
</g>
<!-- Node13&#45;&gt;Node7 -->
<g id="edge20_Node000013_Node000007" class="edge">
<title>Node13&#45;&gt;Node7</title>
<g id="a_edge20_Node000013_Node000007"><a xlink:title=" ">
<path fill="none" stroke="#63b8ff" d="M515.63,-54.98C549.65,-45.97 603.5,-31.7 641,-21.76"/>
<polygon fill="#63b8ff" stroke="#63b8ff" points="642.34,-25.03 651.11,-19.08 640.55,-18.26 642.34,-25.03"/>
</a>
</g>
</g>
<!-- Node13&#45;&gt;Node8 -->
<g id="edge21_Node000013_Node000008" class="edge">
<title>Node13&#45;&gt;Node8</title>
<g id="a_edge21_Node000013_Node000008"><a xlink:title=" ">
<path fill="none" stroke="#63b8ff" d="M436.89,-56.87C432.03,-56.22 427.17,-55.58 422.5,-55 281.53,-37.37 243.22,-38.45 99.11,-19.16"/>
<polygon fill="#63b8ff" stroke="#63b8ff" points="99.39,-15.67 89.01,-17.8 98.45,-22.6 99.39,-15.67"/>
</a>
</g>
</g>
<!-- Node13&#45;&gt;Node12 -->
<g id="edge22_Node000013_Node000012" class="edge">
<title>Node13&#45;&gt;Node12</title>
<g id="a_edge22_Node000013_Node000012"><a xlink:title=" ">
<path fill="none" stroke="#63b8ff" d="M436.71,-55.96C377.6,-46.44 275.92,-30.06 212.1,-19.78"/>
<polygon fill="#63b8ff" stroke="#63b8ff" points="212.62,-16.32 202.19,-18.18 211.51,-23.23 212.62,-16.32"/>
</a>
</g>
</g>
<!-- Node14 -->
<g id="Node000014" class="node">
<title>Node14</title>
<g id="a_Node000014"><a xlink:title=" ">
<polygon fill="#e0e0e0" stroke="#999999" points="327,-19 220,-19 220,0 327,0 327,-19"/>
<text text-anchor="middle" x="273.5" y="-7" font-family="Helvetica,sans-Serif" font-size="10.00">QtCore/QJsonArray</text>
</a>
</g>
</g>
<!-- Node13&#45;&gt;Node14 -->
<g id="edge18_Node000013_Node000014" class="edge">
<title>Node13&#45;&gt;Node14</title>
<g id="a_edge18_Node000013_Node000014"><a xlink:title=" ">
<path fill="none" stroke="#63b8ff" d="M449.76,-54.98C413.82,-45.91 356.78,-31.52 317.37,-21.57"/>
<polygon fill="#63b8ff" stroke="#63b8ff" points="318.06,-18.14 307.5,-19.08 316.34,-24.92 318.06,-18.14"/>
</a>
</g>
</g>
<!-- Node15 -->
<g id="Node000015" class="node">
<title>Node15</title>
<g id="a_Node000015"><a xlink:title=" ">
<polygon fill="#e0e0e0" stroke="#999999" points="458,-19 345,-19 345,0 458,0 458,-19"/>
<text text-anchor="middle" x="401.5" y="-7" font-family="Helvetica,sans-Serif" font-size="10.00">QtCore/QJsonObject</text>
</a>
</g>
</g>
<!-- Node13&#45;&gt;Node15 -->
<g id="edge19_Node000013_Node000015" class="edge">
<title>Node13&#45;&gt;Node15</title>
<g id="a_edge19_Node000013_Node000015"><a xlink:title=" ">
<path fill="none" stroke="#63b8ff" d="M470.33,-54.98C457.73,-46.84 438.5,-34.41 423.56,-24.76"/>
<polygon fill="#63b8ff" stroke="#63b8ff" points="425.21,-21.66 414.91,-19.17 421.41,-27.54 425.21,-21.66"/>
</a>
</g>
</g>
<!-- Node16&#45;&gt;Node3 -->
<g id="edge29_Node000016_Node000003" class="edge">
<title>Node16&#45;&gt;Node3</title>
<g id="a_edge29_Node000016_Node000003"><a xlink:title=" ">
<path fill="none" stroke="#63b8ff" d="M859.2,-54.75C856.52,-47.65 852.65,-37.4 849.31,-28.56"/>
<polygon fill="#63b8ff" stroke="#63b8ff" points="852.55,-27.21 845.74,-19.09 846,-29.68 852.55,-27.21"/>
</a>
</g>
</g>
<!-- Node16&#45;&gt;Node6 -->
<g id="edge25_Node000016_Node000006" class="edge">
<title>Node16&#45;&gt;Node6</title>
<g id="a_edge25_Node000016_Node000006"><a xlink:title=" ">
<path fill="none" stroke="#63b8ff" d="M814.66,-55.45C759.42,-46.16 668.46,-30.85 608.27,-20.72"/>
<polygon fill="#63b8ff" stroke="#63b8ff" points="608.59,-17.23 598.14,-19.02 607.42,-24.13 608.59,-17.23"/>
</a>
</g>
</g>
<!-- Node16&#45;&gt;Node7 -->
<g id="edge26_Node000016_Node000007" class="edge">
<title>Node16&#45;&gt;Node7</title>
<g id="a_edge26_Node000016_Node000007"><a xlink:title=" ">
<path fill="none" stroke="#63b8ff" d="M833.74,-54.98C803.56,-46.05 755.93,-31.94 722.4,-22.02"/>
<polygon fill="#63b8ff" stroke="#63b8ff" points="723.07,-18.57 712.48,-19.08 721.08,-25.28 723.07,-18.57"/>
</a>
</g>
</g>
<!-- Node17 -->
<g id="Node000017" class="node">
<title>Node17</title>
<g id="a_Node000017"><a xlink:title=" ">
<polygon fill="#e0e0e0" stroke="#999999" points="1062,-19 955,-19 955,0 1062,0 1062,-19"/>
<text text-anchor="middle" x="1008.5" y="-7" font-family="Helvetica,sans-Serif" font-size="10.00">QtCore/QRunnable</text>
</a>
</g>
</g>
<!-- Node16&#45;&gt;Node17 -->
<g id="edge27_Node000016_Node000017" class="edge">
<title>Node16&#45;&gt;Node17</title>
<g id="a_edge27_Node000016_Node000017"><a xlink:title=" ">
<path fill="none" stroke="#63b8ff" d="M885.96,-54.98C910.08,-46.23 947.87,-32.51 975.1,-22.62"/>
<polygon fill="#63b8ff" stroke="#63b8ff" points="976.41,-25.87 984.62,-19.17 974.02,-19.29 976.41,-25.87"/>
</a>
</g>
</g>
<!-- Node18 -->
<g id="Node000018" class="node">
<title>Node18</title>
<g id="a_Node000018"><a xlink:title=" ">
<polygon fill="#e0e0e0" stroke="#999999" points="1161,-19 1080,-19 1080,0 1161,0 1161,-19"/>
<text text-anchor="middle" x="1120.5" y="-7" font-family="Helvetica,sans-Serif" font-size="10.00">QtCore/QSize</text>
</a>
</g>
</g>
<!-- Node16&#45;&gt;Node18 -->
<g id="edge28_Node000016_Node000018" class="edge">
<title>Node16&#45;&gt;Node18</title>
<g id="a_edge28_Node000016_Node000018"><a xlink:title=" ">
<path fill="none" stroke="#63b8ff" d="M903.95,-54.98C949.03,-45.72 1021.12,-30.91 1069.61,-20.95"/>
<polygon fill="#63b8ff" stroke="#63b8ff" points="1070.49,-24.35 1079.58,-18.91 1069.08,-17.49 1070.49,-24.35"/>
</a>
</g>
</g>
<!-- Node21 -->
<g id="Node000021" class="node">
<title>Node21</title>
<g id="a_Node000021"><a xlink:title=" ">
<polygon fill="#e0e0e0" stroke="#999999" points="1217.5,-129 1051.5,-129 1051.5,-110 1217.5,-110 1217.5,-129"/>
<text text-anchor="middle" x="1134.5" y="-117" font-family="Helvetica,sans-Serif" font-size="10.00">QtMultimedia/QCameraDevice</text>
</a>
</g>
</g>
<!-- Node20&#45;&gt;Node21 -->
<g id="edge32_Node000020_Node000021" class="edge">
<title>Node20&#45;&gt;Node21</title>
<g id="a_edge32_Node000020_Node000021"><a xlink:title=" ">
<path fill="none" stroke="#63b8ff" d="M993.49,-164.98C1021.7,-156.09 1066.14,-142.07 1097.58,-132.15"/>
<polygon fill="#63b8ff" stroke="#63b8ff" points="1098.81,-135.43 1107.3,-129.08 1096.71,-128.75 1098.81,-135.43"/>
</a>
</g>
</g>
<!-- Node22 -->
<g id="Node000022" class="node">
<title>Node22</title>
<g id="a_Node000022"><a xlink:href="QtMultimediaReceiver_8h.html" target="_top" xlink:title=" ">
<polygon fill="white" stroke="#666666" points="1033.5,-129 899.5,-129 899.5,-110 1033.5,-110 1033.5,-129"/>
<text text-anchor="middle" x="966.5" y="-117" font-family="Helvetica,sans-Serif" font-size="10.00">QtMultimediaReceiver.h</text>
</a>
</g>
</g>
<!-- Node20&#45;&gt;Node22 -->
<g id="edge33_Node000020_Node000022" class="edge">
<title>Node20&#45;&gt;Node22</title>
<g id="a_edge33_Node000020_Node000022"><a xlink:title=" ">
<path fill="none" stroke="#63b8ff" d="M966.5,-164.75C966.5,-157.8 966.5,-147.85 966.5,-139.13"/>
<polygon fill="#63b8ff" stroke="#63b8ff" points="970,-139.09 966.5,-129.09 963,-139.09 970,-139.09"/>
</a>
</g>
</g>
<!-- Node22&#45;&gt;Node6 -->
<g id="edge34_Node000022_Node000006" class="edge">
<title>Node22&#45;&gt;Node6</title>
<g id="a_edge34_Node000022_Node000006"><a xlink:title=" ">
<path fill="none" stroke="#63b8ff" d="M933.27,-109.94C857.94,-90.52 674.24,-43.17 590.44,-21.57"/>
<polygon fill="#63b8ff" stroke="#63b8ff" points="591.29,-18.17 580.73,-19.07 589.54,-24.95 591.29,-18.17"/>
</a>
</g>
</g>
<!-- Node22&#45;&gt;Node8 -->
<g id="edge36_Node000022_Node000008" class="edge">
<title>Node22&#45;&gt;Node8</title>
<g id="a_edge36_Node000022_Node000008"><a xlink:title=" ">
<path fill="none" stroke="#63b8ff" d="M899.28,-116.39C796.87,-112.41 595.92,-101.55 427.5,-74 392.71,-68.31 385.1,-61.71 350.5,-55 242.16,-33.98 211.52,-35.86 99.07,-19.2"/>
<polygon fill="#63b8ff" stroke="#63b8ff" points="99.43,-15.72 89.02,-17.7 98.4,-22.64 99.43,-15.72"/>
</a>
</g>
</g>
<!-- Node23 -->
<g id="Node000023" class="node">
<title>Node23</title>
<g id="a_Node000023"><a xlink:title=" ">
<polygon fill="#e0e0e0" stroke="#999999" points="1197,-74 1080,-74 1080,-55 1197,-55 1197,-74"/>
<text text-anchor="middle" x="1138.5" y="-62" font-family="Helvetica,sans-Serif" font-size="10.00">QtCore/QMetaObject</text>
</a>
</g>
</g>
<!-- Node22&#45;&gt;Node23 -->
<g id="edge35_Node000022_Node000023" class="edge">
<title>Node22&#45;&gt;Node23</title>
<g id="a_edge35_Node000022_Node000023"><a xlink:title=" ">
<path fill="none" stroke="#63b8ff" d="M994.13,-109.98C1023.01,-101.09 1068.51,-87.07 1100.7,-77.15"/>
<polygon fill="#63b8ff" stroke="#63b8ff" points="1102.12,-80.37 1110.65,-74.08 1100.06,-73.68 1102.12,-80.37"/>
</a>
</g>
</g>
<!-- Node24 -->
<g id="Node000024" class="node">
<title>Node24</title>
<g id="a_Node000024"><a xlink:title=" ">
<polygon fill="#e0e0e0" stroke="#999999" points="1268,-19 1179,-19 1179,0 1268,0 1268,-19"/>
<text text-anchor="middle" x="1223.5" y="-7" font-family="Helvetica,sans-Serif" font-size="10.00">QtCore/QTimer</text>
</a>
</g>
</g>
<!-- Node22&#45;&gt;Node24 -->
<g id="edge37_Node000022_Node000024" class="edge">
<title>Node22&#45;&gt;Node24</title>
<g id="a_edge37_Node000022_Node000024"><a xlink:title=" ">
<path fill="none" stroke="#63b8ff" d="M978.54,-109.78C997.49,-96.4 1035.81,-70.7 1071.5,-55 1104.63,-40.43 1143.87,-29.08 1174.18,-21.49"/>
<polygon fill="#63b8ff" stroke="#63b8ff" points="1175.22,-24.84 1184.1,-19.06 1173.55,-18.04 1175.22,-24.84"/>
</a>
</g>
</g>
<!-- Node25 -->
<g id="Node000025" class="node">
<title>Node25</title>
<g id="a_Node000025"><a xlink:href="VideoReceiver_8h.html" target="_top" xlink:title=" ">
<polygon fill="white" stroke="#666666" points="1023,-74 928,-74 928,-55 1023,-55 1023,-74"/>
<text text-anchor="middle" x="975.5" y="-62" font-family="Helvetica,sans-Serif" font-size="10.00">VideoReceiver.h</text>
</a>
</g>
</g>
<!-- Node22&#45;&gt;Node25 -->
<g id="edge38_Node000022_Node000025" class="edge">
<title>Node22&#45;&gt;Node25</title>
<g id="a_edge38_Node000022_Node000025"><a xlink:title=" ">
<path fill="none" stroke="#63b8ff" d="M967.99,-109.75C969.17,-102.8 970.86,-92.85 972.34,-84.13"/>
<polygon fill="#63b8ff" stroke="#63b8ff" points="975.82,-84.53 974.04,-74.09 968.92,-83.36 975.82,-84.53"/>
</a>
</g>
</g>
<!-- Node25&#45;&gt;Node3 -->
<g id="edge42_Node000025_Node000003" class="edge">
<title>Node25&#45;&gt;Node3</title>
<g id="a_edge42_Node000025_Node000003"><a xlink:title=" ">
<path fill="none" stroke="#63b8ff" d="M954.13,-54.98C932.35,-46.3 898.34,-32.75 873.58,-22.88"/>
<polygon fill="#63b8ff" stroke="#63b8ff" points="874.84,-19.62 864.26,-19.17 872.25,-26.12 874.84,-19.62"/>
</a>
</g>
</g>
<!-- Node25&#45;&gt;Node7 -->
<g id="edge39_Node000025_Node000007" class="edge">
<title>Node25&#45;&gt;Node7</title>
<g id="a_edge39_Node000025_Node000007"><a xlink:title=" ">
<path fill="none" stroke="#63b8ff" d="M928.59,-54.98C877.14,-45.65 794.6,-30.67 739.73,-20.71"/>
<polygon fill="#63b8ff" stroke="#63b8ff" points="740.28,-17.25 729.82,-18.91 739.03,-24.14 740.28,-17.25"/>
</a>
</g>
</g>
<!-- Node25&#45;&gt;Node18 -->
<g id="edge40_Node000025_Node000018" class="edge">
<title>Node25&#45;&gt;Node18</title>
<g id="a_edge40_Node000025_Node000018"><a xlink:title=" ">
<path fill="none" stroke="#63b8ff" d="M998.8,-54.98C1022.75,-46.23 1060.28,-32.51 1087.33,-22.62"/>
<polygon fill="#63b8ff" stroke="#63b8ff" points="1088.59,-25.89 1096.78,-19.17 1086.19,-19.32 1088.59,-25.89"/>
</a>
</g>
</g>
<!-- Node25&#45;&gt;Node24 -->
<g id="edge41_Node000025_Node000024" class="edge">
<title>Node25&#45;&gt;Node24</title>
<g id="a_edge41_Node000025_Node000024"><a xlink:title=" ">
<path fill="none" stroke="#63b8ff" d="M1015.35,-54.98C1058.33,-45.8 1126.87,-31.15 1173.46,-21.19"/>
<polygon fill="#63b8ff" stroke="#63b8ff" points="1174.29,-24.59 1183.34,-19.08 1172.83,-17.75 1174.29,-24.59"/>
</a>
</g>
</g>
</g>
</svg>

<g id="navigator" transform="translate(0 0)" fill="#404254">
  <rect fill="#f2f5e9" fill-opacity="0.5" stroke="#606060" stroke-width=".5" x="0" y="0" width="60" height="60"/>
  <use id="zoomplus" xlink:href="#zoomPlus" x="17" y="9" onmousedown="handleZoom(evt,'in')"/>
  <use id="zoomminus" xlink:href="#zoomMin" x="42" y="9" onmousedown="handleZoom(evt,'out')"/>
  <use id="reset" xlink:href="#resetDef" x="30" y="36" onmousedown="handleReset()"/>
   <use id="arrowup" xlink:href="#arrowUp" x="0" y="0" onmousedown="handlePan(0,-1)"/>
  <use id="arrowright" xlink:href="#arrowRight" x="0" y="0" onmousedown="handlePan(1,0)"/>
  <use id="arrowdown" xlink:href="#arrowDown" x="0" y="0" onmousedown="handlePan(0,1)"/>
  <use id="arrowleft" xlink:href="#arrowLeft" x="0" y="0" onmousedown="handlePan(-1,0)"/>
</g>
<svg viewBox="0 0 15 15" width="100%" height="30px" preserveAspectRatio="xMaxYMin meet">
 <g id="arrow_out" transform="scale(0.3 0.3)">
  <a xlink:href="VideoSettings_8cc__incl_org.svg" target="_base">
   <rect id="button" ry="5" rx="5" y="6" x="6" height="38" width="38"
        fill="#f2f5e9" fill-opacity="0.5" stroke="#606060" stroke-width="1.0"/>
   <path id="arrow"
     d="M 11.500037,31.436501 C 11.940474,20.09759 22.043105,11.32322 32.158766,21.979434 L 37.068811,17.246167 C 37.068811,17.246167 37.088388,32 37.088388,32 L 22.160133,31.978069 C 22.160133,31.978069 26.997745,27.140456 26.997745,27.140456 C 18.528582,18.264221 13.291696,25.230495 11.500037,31.436501 z"
     style="fill:#404040;"/>
  </a>
 </g>
</svg>

<style type='text/css'>
<![CDATA[
[data-mouse-over-selected='false'] { opacity: 0.7; }
[data-mouse-over-selected='true']  { opacity: 1.0; }
]]>
</style>
<script type="application/ecmascript"><![CDATA[
document.addEventListener('DOMContentLoaded', (event) => {
  highlightEdges();
  highlightAdjacentNodes();
});
]]></script>
</svg>
