<?xml version="1.0" encoding="UTF-8" standalone="no"?>
<!DOCTYPE svg PUBLIC "-//W3C//DTD SVG 1.1//EN"
 "http://www.w3.org/Graphics/SVG/1.1/DTD/svg11.dtd">
<!-- Generated by graphviz version 2.43.0 (0)
 -->
<!-- Title: src/Viewer3D/Viewer3DTerrainTexture.cc Pages: 1 -->
<!--zoomable 368 -->

<svg id="main" version="1.1" xmlns="http://www.w3.org/2000/svg" xmlns:xlink="http://www.w3.org/1999/xlink" xml:space="preserve" onload="init(evt)">
<style type="text/css"><![CDATA[
.node, .edge {opacity: 0.7;}
.node.selected, .edge.selected {opacity: 1;}
.edge:hover path { stroke: red; }
.edge:hover polygon { stroke: red; fill: red; }
]]></style>

<defs>
  <circle id="rim" cx="0" cy="0" r="7"/>
  <circle id="rim2" cx="0" cy="0" r="3.5"/>
  <g id="zoomPlus">
    <use xlink:href="#rim" fill="#404040"><set attributeName="fill" to="#808080" begin="zoomplus.mouseover" end="zoomplus.mouseout"/></use>
    <path d="M-4,0h8M0,-4v8" fill="none" stroke="white" stroke-width="1.5" pointer-events="none"/>
  </g>
  <g id="zoomMin">
    <use xlink:href="#rim" fill="#404040"><set attributeName="fill" to="#808080" begin="zoomminus.mouseover" end="zoomminus.mouseout"/></use>
    <path d="M-4,0h8" fill="none" stroke="white" stroke-width="1.5" pointer-events="none"/>
  </g>
  <g id="arrowUp" transform="translate(30 24)">
    <use xlink:href="#rim"/>
    <path pointer-events="none" fill="none" stroke="white" stroke-width="1.5" d="M0,-3.0v7 M-2.5,-0.5L0,-3.0L2.5,-0.5"/>
  </g>
  <g id="arrowRight" transform="rotate(90) translate(36 -43)">
    <use xlink:href="#rim"/>
    <path pointer-events="none" fill="none" stroke="white" stroke-width="1.5" d="M0,-3.0v7 M-2.5,-0.5L0,-3.0L2.5,-0.5"/>
  </g>
  <g id="arrowDown" transform="rotate(180) translate(-30 -48)">
    <use xlink:href="#rim"/>
    <path pointer-events="none" fill="none" stroke="white" stroke-width="1.5" d="M0,-3.0v7 M-2.5,-0.5L0,-3.0L2.5,-0.5"/>
  </g>
  <g id="arrowLeft" transform="rotate(270) translate(-36 17)">
    <use xlink:href="#rim"/>
    <path pointer-events="none" fill="none" stroke="white" stroke-width="1.5" d="M0,-3.0v7 M-2.5,-0.5L0,-3.0L2.5,-0.5"/>
  </g>
  <g id="resetDef">
    <use xlink:href="#rim2" fill="#404040"><set attributeName="fill" to="#808080" begin="reset.mouseover" end="reset.mouseout"/></use>
  </g>
</defs>
<script type="application/ecmascript">
var viewWidth = 2120;
var viewHeight = 368;
var sectionId = 'dynsection-0';
</script>
<script type="application/ecmascript" xlink:href="svg.min.js"/>
<svg id="graph" class="graph">
<g id="viewport">
<title>src/Viewer3D/Viewer3DTerrainTexture.cc</title>
<!-- Node1 -->
<g id="Node000001" class="node">
<title>Node1</title>
<g id="a_Node000001"><a xlink:title=" ">
<polygon fill="#999999" stroke="#666666" points="1307,-360 1143,-360 1143,-330 1307,-330 1307,-360"/>
<text text-anchor="start" x="1151" y="-348" font-family="Helvetica,sans-Serif" font-size="10.00">src/Viewer3D/Viewer3DTerrain</text>
<text text-anchor="middle" x="1225" y="-337" font-family="Helvetica,sans-Serif" font-size="10.00">Texture.cc</text>
</a>
</g>
</g>
<!-- Node2 -->
<g id="Node000002" class="node">
<title>Node2</title>
<g id="a_Node000002"><a xlink:href="Viewer3DTerrainTexture_8h.html" target="_top" xlink:title=" ">
<polygon fill="white" stroke="#666666" points="1296,-184 1154,-184 1154,-165 1296,-165 1296,-184"/>
<text text-anchor="middle" x="1225" y="-172" font-family="Helvetica,sans-Serif" font-size="10.00">Viewer3DTerrainTexture.h</text>
</a>
</g>
</g>
<!-- Node1&#45;&gt;Node2 -->
<g id="edge1_Node000001_Node000002" class="edge">
<title>Node1&#45;&gt;Node2</title>
<g id="a_edge1_Node000001_Node000002"><a xlink:title=" ">
<path fill="none" stroke="#63b8ff" d="M1225,-329.92C1225,-299.65 1225,-228.35 1225,-194.27"/>
<polygon fill="#63b8ff" stroke="#63b8ff" points="1228.5,-194.25 1225,-184.25 1221.5,-194.25 1228.5,-194.25"/>
</a>
</g>
</g>
<!-- Node14 -->
<g id="Node000014" class="node">
<title>Node14</title>
<g id="a_Node000014"><a xlink:href="FlightMapSettings_8h.html" target="_top" xlink:title=" ">
<polygon fill="white" stroke="#666666" points="719,-294 605,-294 605,-275 719,-275 719,-294"/>
<text text-anchor="middle" x="662" y="-282" font-family="Helvetica,sans-Serif" font-size="10.00">FlightMapSettings.h</text>
</a>
</g>
</g>
<!-- Node1&#45;&gt;Node14 -->
<g id="edge17_Node000001_Node000014" class="edge">
<title>Node1&#45;&gt;Node14</title>
<g id="a_edge17_Node000001_Node000014"><a xlink:title=" ">
<path fill="none" stroke="#63b8ff" d="M1142.69,-336.09C1044.94,-326.59 877,-309.94 733,-294 731.89,-293.88 730.77,-293.75 729.64,-293.63"/>
<polygon fill="#63b8ff" stroke="#63b8ff" points="729.67,-290.11 719.34,-292.45 728.88,-297.06 729.67,-290.11"/>
</a>
</g>
</g>
<!-- Node25 -->
<g id="Node000025" class="node">
<title>Node25</title>
<g id="a_Node000025"><a xlink:href="QGCLoggingCategory_8h.html" target="_top" xlink:title=" ">
<polygon fill="white" stroke="#666666" points="1910,-74 1782,-74 1782,-55 1910,-55 1910,-74"/>
<text text-anchor="middle" x="1846" y="-62" font-family="Helvetica,sans-Serif" font-size="10.00">QGCLoggingCategory.h</text>
</a>
</g>
</g>
<!-- Node1&#45;&gt;Node25 -->
<g id="edge41_Node000001_Node000025" class="edge">
<title>Node1&#45;&gt;Node25</title>
<g id="a_edge41_Node000001_Node000025"><a xlink:title=" ">
<path fill="none" stroke="#63b8ff" d="M1307.24,-339.13C1492.01,-327.1 1924,-292.36 1924,-230.5 1924,-230.5 1924,-230.5 1924,-173.5 1924,-133.95 1889.2,-99.05 1866.09,-80.23"/>
<polygon fill="#63b8ff" stroke="#63b8ff" points="1868.22,-77.46 1858.19,-74.05 1863.9,-82.97 1868.22,-77.46"/>
</a>
</g>
</g>
<!-- Node30 -->
<g id="Node000030" class="node">
<title>Node30</title>
<g id="a_Node000030"><a xlink:href="QGCMapEngine_8h.html" target="_top" xlink:title=" ">
<polygon fill="white" stroke="#666666" points="971.5,-74 870.5,-74 870.5,-55 971.5,-55 971.5,-74"/>
<text text-anchor="middle" x="921" y="-62" font-family="Helvetica,sans-Serif" font-size="10.00">QGCMapEngine.h</text>
</a>
</g>
</g>
<!-- Node1&#45;&gt;Node30 -->
<g id="edge50_Node000001_Node000030" class="edge">
<title>Node1&#45;&gt;Node30</title>
<g id="a_edge50_Node000001_Node000030"><a xlink:title=" ">
<path fill="none" stroke="#63b8ff" d="M1142.92,-341.89C1065.42,-335.01 961,-310.82 961,-230.5 961,-230.5 961,-230.5 961,-173.5 961,-139.67 943.53,-103.38 931.68,-82.66"/>
<polygon fill="#63b8ff" stroke="#63b8ff" points="934.68,-80.86 926.56,-74.06 928.66,-84.44 934.68,-80.86"/>
</a>
</g>
</g>
<!-- Node31 -->
<g id="Node000031" class="node">
<title>Node31</title>
<g id="a_Node000031"><a xlink:href="QGCMapUrlEngine_8h.html" target="_top" xlink:title=" ">
<polygon fill="white" stroke="#666666" points="1717,-294 1601,-294 1601,-275 1717,-275 1717,-294"/>
<text text-anchor="middle" x="1659" y="-282" font-family="Helvetica,sans-Serif" font-size="10.00">QGCMapUrlEngine.h</text>
</a>
</g>
</g>
<!-- Node1&#45;&gt;Node31 -->
<g id="edge54_Node000001_Node000031" class="edge">
<title>Node1&#45;&gt;Node31</title>
<g id="a_edge54_Node000001_Node000031"><a xlink:title=" ">
<path fill="none" stroke="#63b8ff" d="M1307.14,-332.93C1389.22,-321.86 1513.95,-305.05 1590.75,-294.7"/>
<polygon fill="#63b8ff" stroke="#63b8ff" points="1591.36,-298.15 1600.8,-293.35 1590.42,-291.21 1591.36,-298.15"/>
</a>
</g>
</g>
<!-- Node37 -->
<g id="Node000037" class="node">
<title>Node37</title>
<g id="a_Node000037"><a xlink:href="SettingsManager_8h.html" target="_top" xlink:title=" ">
<polygon fill="white" stroke="#666666" points="737.5,-74 630.5,-74 630.5,-55 737.5,-55 737.5,-74"/>
<text text-anchor="middle" x="684" y="-62" font-family="Helvetica,sans-Serif" font-size="10.00">SettingsManager.h</text>
</a>
</g>
</g>
<!-- Node1&#45;&gt;Node37 -->
<g id="edge61_Node000001_Node000037" class="edge">
<title>Node1&#45;&gt;Node37</title>
<g id="a_edge61_Node000001_Node000037"><a xlink:title=" ">
<path fill="none" stroke="#63b8ff" d="M1142.83,-341.26C1006.16,-334.43 747,-310.89 747,-230.5 747,-230.5 747,-230.5 747,-173.5 747,-136.49 719.05,-100.87 700.39,-81.21"/>
<polygon fill="#63b8ff" stroke="#63b8ff" points="702.81,-78.68 693.3,-74.03 697.83,-83.6 702.81,-78.68"/>
</a>
</g>
</g>
<!-- Node39 -->
<g id="Node000039" class="node">
<title>Node39</title>
<g id="a_Node000039"><a xlink:href="Viewer3DMapProvider_8h.html" target="_top" xlink:title=" ">
<polygon fill="white" stroke="#666666" points="1726,-129 1592,-129 1592,-110 1726,-110 1726,-129"/>
<text text-anchor="middle" x="1659" y="-117" font-family="Helvetica,sans-Serif" font-size="10.00">Viewer3DMapProvider.h</text>
</a>
</g>
</g>
<!-- Node1&#45;&gt;Node39 -->
<g id="edge67_Node000001_Node000039" class="edge">
<title>Node1&#45;&gt;Node39</title>
<g id="a_edge67_Node000001_Node000039"><a xlink:title=" ">
<path fill="none" stroke="#63b8ff" d="M1235.61,-329.77C1262.21,-295.24 1335.61,-206.76 1419,-165 1447.03,-150.96 1522.81,-138.29 1581.8,-130.09"/>
<polygon fill="#63b8ff" stroke="#63b8ff" points="1582.42,-133.54 1591.85,-128.71 1581.47,-126.6 1582.42,-133.54"/>
</a>
</g>
</g>
<!-- Node3 -->
<g id="Node000003" class="node">
<title>Node3</title>
<g id="a_Node000003"><a xlink:title=" ">
<polygon fill="#e0e0e0" stroke="#999999" points="1103.5,-19 960.5,-19 960.5,0 1103.5,0 1103.5,-19"/>
<text text-anchor="middle" x="1032" y="-7" font-family="Helvetica,sans-Serif" font-size="10.00">QtCore/QLoggingCategory</text>
</a>
</g>
</g>
<!-- Node2&#45;&gt;Node3 -->
<g id="edge2_Node000002_Node000003" class="edge">
<title>Node2&#45;&gt;Node3</title>
<g id="a_edge2_Node000002_Node000003"><a xlink:title=" ">
<path fill="none" stroke="#63b8ff" d="M1153.76,-167.4C1124.86,-161.55 1093.14,-150.34 1071,-129 1043.16,-102.16 1035.18,-55.1 1032.9,-29.1"/>
<polygon fill="#63b8ff" stroke="#63b8ff" points="1036.39,-28.81 1032.22,-19.07 1029.41,-29.28 1036.39,-28.81"/>
</a>
</g>
</g>
<!-- Node4 -->
<g id="Node000004" class="node">
<title>Node4</title>
<g id="a_Node000004"><a xlink:title=" ">
<polygon fill="#e0e0e0" stroke="#999999" points="1337.5,-129 1256.5,-129 1256.5,-110 1337.5,-110 1337.5,-129"/>
<text text-anchor="middle" x="1297" y="-117" font-family="Helvetica,sans-Serif" font-size="10.00">QtCore/QSize</text>
</a>
</g>
</g>
<!-- Node2&#45;&gt;Node4 -->
<g id="edge3_Node000002_Node000004" class="edge">
<title>Node2&#45;&gt;Node4</title>
<g id="a_edge3_Node000002_Node000004"><a xlink:title=" ">
<path fill="none" stroke="#63b8ff" d="M1236.57,-164.98C1247.42,-157 1263.88,-144.88 1276.88,-135.31"/>
<polygon fill="#63b8ff" stroke="#63b8ff" points="1279.24,-137.92 1285.22,-129.17 1275.09,-132.28 1279.24,-137.92"/>
</a>
</g>
</g>
<!-- Node5 -->
<g id="Node000005" class="node">
<title>Node5</title>
<g id="a_Node000005"><a xlink:title=" ">
<polygon fill="#e0e0e0" stroke="#999999" points="1585.5,-74 1420.5,-74 1420.5,-55 1585.5,-55 1585.5,-74"/>
<text text-anchor="middle" x="1503" y="-62" font-family="Helvetica,sans-Serif" font-size="10.00">QtPositioning/QGeoCoordinate</text>
</a>
</g>
</g>
<!-- Node2&#45;&gt;Node5 -->
<g id="edge4_Node000002_Node000005" class="edge">
<title>Node2&#45;&gt;Node5</title>
<g id="a_edge4_Node000002_Node000005"><a xlink:title=" ">
<path fill="none" stroke="#63b8ff" d="M1250.79,-164.86C1275.49,-156.39 1313.67,-142.78 1346,-129 1363.74,-121.44 1367.29,-117.63 1385,-110 1412.8,-98.02 1444.98,-86 1468.71,-77.48"/>
<polygon fill="#63b8ff" stroke="#63b8ff" points="1470.08,-80.71 1478.33,-74.05 1467.73,-74.11 1470.08,-80.71"/>
</a>
</g>
</g>
<!-- Node6 -->
<g id="Node000006" class="node">
<title>Node6</title>
<g id="a_Node000006"><a xlink:title=" ">
<polygon fill="#e0e0e0" stroke="#999999" points="193.5,-19 4.5,-19 4.5,0 193.5,0 193.5,-19"/>
<text text-anchor="middle" x="99" y="-7" font-family="Helvetica,sans-Serif" font-size="10.00">QtQmlIntegration/QtQmlIntegration</text>
</a>
</g>
</g>
<!-- Node2&#45;&gt;Node6 -->
<g id="edge5_Node000002_Node000006" class="edge">
<title>Node2&#45;&gt;Node6</title>
<g id="a_edge5_Node000002_Node000006"><a xlink:title=" ">
<path fill="none" stroke="#63b8ff" d="M1153.87,-171.03C1023.14,-166.07 735.98,-153.26 495,-129 320.39,-111.43 224.24,-201.83 104,-74 93,-62.31 92.87,-43.45 94.82,-29.32"/>
<polygon fill="#63b8ff" stroke="#63b8ff" points="98.31,-29.69 96.66,-19.23 91.42,-28.44 98.31,-29.69"/>
</a>
</g>
</g>
<!-- Node7 -->
<g id="Node000007" class="node">
<title>Node7</title>
<g id="a_Node000007"><a xlink:title=" ">
<polygon fill="#e0e0e0" stroke="#999999" points="1574,-129 1394,-129 1394,-110 1574,-110 1574,-129"/>
<text text-anchor="middle" x="1484" y="-117" font-family="Helvetica,sans-Serif" font-size="10.00">QtQuick3D/QQuick3DTextureData</text>
</a>
</g>
</g>
<!-- Node2&#45;&gt;Node7 -->
<g id="edge6_Node000002_Node000007" class="edge">
<title>Node2&#45;&gt;Node7</title>
<g id="a_edge6_Node000002_Node000007"><a xlink:title=" ">
<path fill="none" stroke="#63b8ff" d="M1266.61,-164.98C1311.6,-155.78 1383.39,-141.09 1432.05,-131.13"/>
<polygon fill="#63b8ff" stroke="#63b8ff" points="1432.97,-134.52 1442.06,-129.08 1431.56,-127.66 1432.97,-134.52"/>
</a>
</g>
</g>
<!-- Node8 -->
<g id="Node000008" class="node">
<title>Node8</title>
<g id="a_Node000008"><a xlink:href="Viewer3DTileQuery_8h.html" target="_top" xlink:title=" ">
<polygon fill="white" stroke="#666666" points="1199.5,-129 1080.5,-129 1080.5,-110 1199.5,-110 1199.5,-129"/>
<text text-anchor="middle" x="1140" y="-117" font-family="Helvetica,sans-Serif" font-size="10.00">Viewer3DTileQuery.h</text>
</a>
</g>
</g>
<!-- Node2&#45;&gt;Node8 -->
<g id="edge7_Node000002_Node000008" class="edge">
<title>Node2&#45;&gt;Node8</title>
<g id="a_edge7_Node000002_Node000008"><a xlink:title=" ">
<path fill="none" stroke="#63b8ff" d="M1211.34,-164.98C1198.16,-156.77 1177.97,-144.18 1162.43,-134.49"/>
<polygon fill="#63b8ff" stroke="#63b8ff" points="1164.24,-131.49 1153.91,-129.17 1160.54,-137.43 1164.24,-131.49"/>
</a>
</g>
</g>
<!-- Node8&#45;&gt;Node3 -->
<g id="edge8_Node000008_Node000003" class="edge">
<title>Node8&#45;&gt;Node3</title>
<g id="a_edge8_Node000008_Node000003"><a xlink:title=" ">
<path fill="none" stroke="#63b8ff" d="M1131.35,-109.99C1122.27,-101.06 1107.6,-86.58 1095,-74 1078.8,-57.83 1060.37,-39.23 1047.65,-26.35"/>
<polygon fill="#63b8ff" stroke="#63b8ff" points="1050.05,-23.81 1040.53,-19.15 1045.07,-28.73 1050.05,-23.81"/>
</a>
</g>
</g>
<!-- Node8&#45;&gt;Node5 -->
<g id="edge11_Node000008_Node000005" class="edge">
<title>Node8&#45;&gt;Node5</title>
<g id="a_edge11_Node000008_Node000005"><a xlink:title=" ">
<path fill="none" stroke="#63b8ff" d="M1198.32,-109.98C1262.66,-100.59 1366.09,-85.49 1434.31,-75.53"/>
<polygon fill="#63b8ff" stroke="#63b8ff" points="1435.13,-78.95 1444.52,-74.04 1434.12,-72.02 1435.13,-78.95"/>
</a>
</g>
</g>
<!-- Node9 -->
<g id="Node000009" class="node">
<title>Node9</title>
<g id="a_Node000009"><a xlink:title=" ">
<polygon fill="#e0e0e0" stroke="#999999" points="1400,-19 1308,-19 1308,0 1400,0 1400,-19"/>
<text text-anchor="middle" x="1354" y="-7" font-family="Helvetica,sans-Serif" font-size="10.00">QtCore/QObject</text>
</a>
</g>
</g>
<!-- Node8&#45;&gt;Node9 -->
<g id="edge9_Node000008_Node000009" class="edge">
<title>Node8&#45;&gt;Node9</title>
<g id="a_edge9_Node000008_Node000009"><a xlink:title=" ">
<path fill="none" stroke="#63b8ff" d="M1199.51,-111.39C1249.08,-104.33 1314.58,-91.93 1334,-74 1346.33,-62.62 1351.11,-43.72 1352.93,-29.49"/>
<polygon fill="#63b8ff" stroke="#63b8ff" points="1356.44,-29.59 1353.85,-19.32 1349.47,-28.96 1356.44,-29.59"/>
</a>
</g>
</g>
<!-- Node10 -->
<g id="Node000010" class="node">
<title>Node10</title>
<g id="a_Node000010"><a xlink:title=" ">
<polygon fill="#e0e0e0" stroke="#999999" points="1190,-74 1104,-74 1104,-55 1190,-55 1190,-74"/>
<text text-anchor="middle" x="1147" y="-62" font-family="Helvetica,sans-Serif" font-size="10.00">QtGui/QImage</text>
</a>
</g>
</g>
<!-- Node8&#45;&gt;Node10 -->
<g id="edge10_Node000008_Node000010" class="edge">
<title>Node8&#45;&gt;Node10</title>
<g id="a_edge10_Node000008_Node000010"><a xlink:title=" ">
<path fill="none" stroke="#63b8ff" d="M1141.16,-109.75C1142.07,-102.8 1143.39,-92.85 1144.54,-84.13"/>
<polygon fill="#63b8ff" stroke="#63b8ff" points="1148.03,-84.46 1145.87,-74.09 1141.09,-83.54 1148.03,-84.46"/>
</a>
</g>
</g>
<!-- Node11 -->
<g id="Node000011" class="node">
<title>Node11</title>
<g id="a_Node000011"><a xlink:href="Viewer3DTileReply_8h.html" target="_top" xlink:title=" ">
<polygon fill="white" stroke="#666666" points="1325.5,-74 1208.5,-74 1208.5,-55 1325.5,-55 1325.5,-74"/>
<text text-anchor="middle" x="1267" y="-62" font-family="Helvetica,sans-Serif" font-size="10.00">Viewer3DTileReply.h</text>
</a>
</g>
</g>
<!-- Node8&#45;&gt;Node11 -->
<g id="edge12_Node000008_Node000011" class="edge">
<title>Node8&#45;&gt;Node11</title>
<g id="a_edge12_Node000008_Node000011"><a xlink:title=" ">
<path fill="none" stroke="#63b8ff" d="M1160.4,-109.98C1181.02,-101.38 1213.11,-87.99 1236.69,-78.15"/>
<polygon fill="#63b8ff" stroke="#63b8ff" points="1238.34,-81.25 1246.22,-74.17 1235.65,-74.79 1238.34,-81.25"/>
</a>
</g>
</g>
<!-- Node11&#45;&gt;Node3 -->
<g id="edge14_Node000011_Node000003" class="edge">
<title>Node11&#45;&gt;Node3</title>
<g id="a_edge14_Node000011_Node000003"><a xlink:title=" ">
<path fill="none" stroke="#63b8ff" d="M1229.24,-54.98C1188.68,-45.84 1124.11,-31.27 1079.97,-21.32"/>
<polygon fill="#63b8ff" stroke="#63b8ff" points="1080.58,-17.87 1070.05,-19.08 1079.04,-24.7 1080.58,-17.87"/>
</a>
</g>
</g>
<!-- Node11&#45;&gt;Node9 -->
<g id="edge15_Node000011_Node000009" class="edge">
<title>Node11&#45;&gt;Node9</title>
<g id="a_edge15_Node000011_Node000009"><a xlink:title=" ">
<path fill="none" stroke="#63b8ff" d="M1280.98,-54.98C1294.47,-46.77 1315.13,-34.18 1331.04,-24.49"/>
<polygon fill="#63b8ff" stroke="#63b8ff" points="1333.05,-27.36 1339.77,-19.17 1329.41,-21.38 1333.05,-27.36"/>
</a>
</g>
</g>
<!-- Node12 -->
<g id="Node000012" class="node">
<title>Node12</title>
<g id="a_Node000012"><a xlink:title=" ">
<polygon fill="#e0e0e0" stroke="#999999" points="1290,-19 1180,-19 1180,0 1290,0 1290,-19"/>
<text text-anchor="middle" x="1235" y="-7" font-family="Helvetica,sans-Serif" font-size="10.00">QtCore/QByteArray</text>
</a>
</g>
</g>
<!-- Node11&#45;&gt;Node12 -->
<g id="edge13_Node000011_Node000012" class="edge">
<title>Node11&#45;&gt;Node12</title>
<g id="a_edge13_Node000011_Node000012"><a xlink:title=" ">
<path fill="none" stroke="#63b8ff" d="M1261.72,-54.75C1257.29,-47.42 1250.84,-36.73 1245.38,-27.7"/>
<polygon fill="#63b8ff" stroke="#63b8ff" points="1248.35,-25.84 1240.19,-19.09 1242.36,-29.46 1248.35,-25.84"/>
</a>
</g>
</g>
<!-- Node13 -->
<g id="Node000013" class="node">
<title>Node13</title>
<g id="a_Node000013"><a xlink:title=" ">
<polygon fill="#e0e0e0" stroke="#999999" points="941.5,-19 852.5,-19 852.5,0 941.5,0 941.5,-19"/>
<text text-anchor="middle" x="897" y="-7" font-family="Helvetica,sans-Serif" font-size="10.00">QtCore/QString</text>
</a>
</g>
</g>
<!-- Node11&#45;&gt;Node13 -->
<g id="edge16_Node000011_Node000013" class="edge">
<title>Node11&#45;&gt;Node13</title>
<g id="a_edge16_Node000011_Node000013"><a xlink:title=" ">
<path fill="none" stroke="#63b8ff" d="M1208.43,-55.54C1147.13,-47.15 1047.81,-33.36 951.94,-19.12"/>
<polygon fill="#63b8ff" stroke="#63b8ff" points="952.19,-15.62 941.78,-17.61 951.16,-22.54 952.19,-15.62"/>
</a>
</g>
</g>
<!-- Node14&#45;&gt;Node6 -->
<g id="edge18_Node000014_Node000006" class="edge">
<title>Node14&#45;&gt;Node6</title>
<g id="a_edge18_Node000014_Node000006"><a xlink:title=" ">
<path fill="none" stroke="#63b8ff" d="M604.99,-280.18C444.41,-270.07 0,-236.56 0,-175.5 0,-175.5 0,-175.5 0,-118.5 0,-75.35 43.47,-41.96 72.8,-24.35"/>
<polygon fill="#63b8ff" stroke="#63b8ff" points="74.84,-27.21 81.76,-19.19 71.34,-21.15 74.84,-27.21"/>
</a>
</g>
</g>
<!-- Node15 -->
<g id="Node000015" class="node">
<title>Node15</title>
<g id="a_Node000015"><a xlink:href="SettingsGroup_8h.html" target="_top" xlink:title=" ">
<polygon fill="white" stroke="#666666" points="870.5,-239 775.5,-239 775.5,-220 870.5,-220 870.5,-239"/>
<text text-anchor="middle" x="823" y="-227" font-family="Helvetica,sans-Serif" font-size="10.00">SettingsGroup.h</text>
</a>
</g>
</g>
<!-- Node14&#45;&gt;Node15 -->
<g id="edge19_Node000014_Node000015" class="edge">
<title>Node14&#45;&gt;Node15</title>
<g id="a_edge19_Node000014_Node000015"><a xlink:title=" ">
<path fill="none" stroke="#63b8ff" d="M687.87,-274.98C714.78,-266.13 757.12,-252.19 787.23,-242.28"/>
<polygon fill="#63b8ff" stroke="#63b8ff" points="788.53,-245.53 796.93,-239.08 786.34,-238.88 788.53,-245.53"/>
</a>
</g>
</g>
<!-- Node16 -->
<g id="Node000016" class="node">
<title>Node16</title>
<g id="a_Node000016"><a xlink:href="SettingsFact_8h.html" target="_top" xlink:title=" ">
<polygon fill="white" stroke="#666666" points="865.5,-184 780.5,-184 780.5,-165 865.5,-165 865.5,-184"/>
<text text-anchor="middle" x="823" y="-172" font-family="Helvetica,sans-Serif" font-size="10.00">SettingsFact.h</text>
</a>
</g>
</g>
<!-- Node15&#45;&gt;Node16 -->
<g id="edge20_Node000015_Node000016" class="edge">
<title>Node15&#45;&gt;Node16</title>
<g id="a_edge20_Node000015_Node000016"><a xlink:title=" ">
<path fill="none" stroke="#63b8ff" d="M823,-219.75C823,-212.8 823,-202.85 823,-194.13"/>
<polygon fill="#63b8ff" stroke="#63b8ff" points="826.5,-194.09 823,-184.09 819.5,-194.09 826.5,-194.09"/>
</a>
</g>
</g>
<!-- Node16&#45;&gt;Node3 -->
<g id="edge21_Node000016_Node000003" class="edge">
<title>Node16&#45;&gt;Node3</title>
<g id="a_edge21_Node000016_Node000003"><a xlink:title=" ">
<path fill="none" stroke="#63b8ff" d="M824.64,-164.91C829.51,-140.34 844.52,-70.59 861,-55 876.39,-40.44 924.95,-28.64 966.4,-20.86"/>
<polygon fill="#63b8ff" stroke="#63b8ff" points="967.28,-24.26 976.49,-19.02 966.02,-17.37 967.28,-24.26"/>
</a>
</g>
</g>
<!-- Node16&#45;&gt;Node9 -->
<g id="edge22_Node000016_Node000009" class="edge">
<title>Node16&#45;&gt;Node9</title>
<g id="a_edge22_Node000016_Node000009"><a xlink:title=" ">
<path fill="none" stroke="#63b8ff" d="M865.51,-173.23C937.46,-171.76 1087.22,-164.28 1208,-129 1226.51,-123.59 1229.16,-117.31 1247,-110 1293.43,-90.97 1324.72,-114.75 1354,-74 1363.24,-61.14 1362.11,-42.73 1359.34,-29.04"/>
<polygon fill="#63b8ff" stroke="#63b8ff" points="1362.73,-28.14 1356.94,-19.27 1355.93,-29.81 1362.73,-28.14"/>
</a>
</g>
</g>
<!-- Node16&#45;&gt;Node13 -->
<g id="edge23_Node000016_Node000013" class="edge">
<title>Node16&#45;&gt;Node13</title>
<g id="a_edge23_Node000016_Node000013"><a xlink:title=" ">
<path fill="none" stroke="#63b8ff" d="M820.81,-164.72C816.17,-144.01 807.33,-91.09 828,-55 836,-41.03 850.37,-30.73 863.93,-23.57"/>
<polygon fill="#63b8ff" stroke="#63b8ff" points="865.64,-26.63 873.11,-19.11 862.58,-20.34 865.64,-26.63"/>
</a>
</g>
</g>
<!-- Node17 -->
<g id="Node000017" class="node">
<title>Node17</title>
<g id="a_Node000017"><a xlink:href="Fact_8h.html" target="_top" xlink:title=" ">
<polygon fill="white" stroke="#666666" points="549.5,-129 504.5,-129 504.5,-110 549.5,-110 549.5,-129"/>
<text text-anchor="middle" x="527" y="-117" font-family="Helvetica,sans-Serif" font-size="10.00">Fact.h</text>
</a>
</g>
</g>
<!-- Node16&#45;&gt;Node17 -->
<g id="edge24_Node000016_Node000017" class="edge">
<title>Node16&#45;&gt;Node17</title>
<g id="a_edge24_Node000016_Node000017"><a xlink:title=" ">
<path fill="none" stroke="#63b8ff" d="M780.28,-165.85C720.54,-155.15 613.36,-135.96 559.61,-126.34"/>
<polygon fill="#63b8ff" stroke="#63b8ff" points="560.06,-122.86 549.6,-124.55 558.83,-129.75 560.06,-122.86"/>
</a>
</g>
</g>
<!-- Node17&#45;&gt;Node3 -->
<g id="edge25_Node000017_Node000003" class="edge">
<title>Node17&#45;&gt;Node3</title>
<g id="a_edge25_Node000017_Node000003"><a xlink:title=" ">
<path fill="none" stroke="#63b8ff" d="M549.74,-114.09C589.58,-106.32 674.54,-89.54 746,-74 782.56,-66.05 791.5,-63.21 828,-55 880.6,-43.17 940.94,-30.06 982.27,-21.16"/>
<polygon fill="#63b8ff" stroke="#63b8ff" points="983.06,-24.57 992.09,-19.05 981.58,-17.73 983.06,-24.57"/>
</a>
</g>
</g>
<!-- Node17&#45;&gt;Node6 -->
<g id="edge31_Node000017_Node000006" class="edge">
<title>Node17&#45;&gt;Node6</title>
<g id="a_edge31_Node000017_Node000006"><a xlink:title=" ">
<path fill="none" stroke="#63b8ff" d="M504.26,-117.41C423.13,-113.35 151.14,-98.04 121,-74 107.61,-63.32 102.34,-44.02 100.29,-29.49"/>
<polygon fill="#63b8ff" stroke="#63b8ff" points="103.72,-28.71 99.23,-19.11 96.76,-29.42 103.72,-28.71"/>
</a>
</g>
</g>
<!-- Node17&#45;&gt;Node9 -->
<g id="edge27_Node000017_Node000009" class="edge">
<title>Node17&#45;&gt;Node9</title>
<g id="a_edge27_Node000017_Node000009"><a xlink:title=" ">
<path fill="none" stroke="#63b8ff" d="M549.69,-116.84C616.06,-111.86 815.52,-96.01 980,-74 995.64,-71.91 1197.51,-37.35 1297.98,-20.12"/>
<polygon fill="#63b8ff" stroke="#63b8ff" points="1298.69,-23.55 1307.96,-18.41 1297.51,-16.65 1298.69,-23.55"/>
</a>
</g>
</g>
<!-- Node17&#45;&gt;Node13 -->
<g id="edge29_Node000017_Node000013" class="edge">
<title>Node17&#45;&gt;Node13</title>
<g id="a_edge29_Node000017_Node000013"><a xlink:title=" ">
<path fill="none" stroke="#63b8ff" d="M536.6,-109.88C552.75,-95.9 586.94,-68.48 621,-55 631.2,-50.96 764.77,-30.41 842.29,-18.7"/>
<polygon fill="#63b8ff" stroke="#63b8ff" points="843.01,-22.13 852.37,-17.18 841.96,-15.21 843.01,-22.13"/>
</a>
</g>
</g>
<!-- Node18 -->
<g id="Node000018" class="node">
<title>Node18</title>
<g id="a_Node000018"><a xlink:title=" ">
<polygon fill="#e0e0e0" stroke="#999999" points="265.5,-74 142.5,-74 142.5,-55 265.5,-55 265.5,-74"/>
<text text-anchor="middle" x="204" y="-62" font-family="Helvetica,sans-Serif" font-size="10.00">QtCore/QMutexLocker</text>
</a>
</g>
</g>
<!-- Node17&#45;&gt;Node18 -->
<g id="edge26_Node000017_Node000018" class="edge">
<title>Node17&#45;&gt;Node18</title>
<g id="a_edge26_Node000017_Node000018"><a xlink:title=" ">
<path fill="none" stroke="#63b8ff" d="M504.29,-114.77C455.33,-106.74 338.4,-87.55 265.75,-75.63"/>
<polygon fill="#63b8ff" stroke="#63b8ff" points="266.24,-72.17 255.8,-74 265.11,-79.07 266.24,-72.17"/>
</a>
</g>
</g>
<!-- Node19 -->
<g id="Node000019" class="node">
<title>Node19</title>
<g id="a_Node000019"><a xlink:title=" ">
<polygon fill="#e0e0e0" stroke="#999999" points="424,-74 284,-74 284,-55 424,-55 424,-74"/>
<text text-anchor="middle" x="354" y="-62" font-family="Helvetica,sans-Serif" font-size="10.00">QtCore/QRecursiveMutex</text>
</a>
</g>
</g>
<!-- Node17&#45;&gt;Node19 -->
<g id="edge28_Node000017_Node000019" class="edge">
<title>Node17&#45;&gt;Node19</title>
<g id="a_edge28_Node000017_Node000019"><a xlink:title=" ">
<path fill="none" stroke="#63b8ff" d="M504.38,-111.57C475.71,-102.79 425.87,-87.52 391.47,-76.98"/>
<polygon fill="#63b8ff" stroke="#63b8ff" points="392.36,-73.59 381.77,-74.01 390.31,-80.28 392.36,-73.59"/>
</a>
</g>
</g>
<!-- Node20 -->
<g id="Node000020" class="node">
<title>Node20</title>
<g id="a_Node000020"><a xlink:title=" ">
<polygon fill="#e0e0e0" stroke="#999999" points="348.5,-19 253.5,-19 253.5,0 348.5,0 348.5,-19"/>
<text text-anchor="middle" x="301" y="-7" font-family="Helvetica,sans-Serif" font-size="10.00">QtCore/QVariant</text>
</a>
</g>
</g>
<!-- Node17&#45;&gt;Node20 -->
<g id="edge30_Node000017_Node000020" class="edge">
<title>Node17&#45;&gt;Node20</title>
<g id="a_edge30_Node000017_Node000020"><a xlink:title=" ">
<path fill="none" stroke="#63b8ff" d="M504.36,-117.67C424.29,-114.49 157.91,-101.88 133,-74 97.97,-34.79 181.97,-19.69 243.39,-13.94"/>
<polygon fill="#63b8ff" stroke="#63b8ff" points="243.76,-17.42 253.42,-13.07 243.15,-10.45 243.76,-17.42"/>
</a>
</g>
</g>
<!-- Node21 -->
<g id="Node000021" class="node">
<title>Node21</title>
<g id="a_Node000021"><a xlink:href="FactMetaData_8h.html" target="_top" xlink:title=" ">
<polygon fill="white" stroke="#666666" points="573.5,-74 480.5,-74 480.5,-55 573.5,-55 573.5,-74"/>
<text text-anchor="middle" x="527" y="-62" font-family="Helvetica,sans-Serif" font-size="10.00">FactMetaData.h</text>
</a>
</g>
</g>
<!-- Node17&#45;&gt;Node21 -->
<g id="edge32_Node000017_Node000021" class="edge">
<title>Node17&#45;&gt;Node21</title>
<g id="a_edge32_Node000017_Node000021"><a xlink:title=" ">
<path fill="none" stroke="#63b8ff" d="M527,-109.75C527,-102.8 527,-92.85 527,-84.13"/>
<polygon fill="#63b8ff" stroke="#63b8ff" points="530.5,-84.09 527,-74.09 523.5,-84.09 530.5,-84.09"/>
</a>
</g>
</g>
<!-- Node21&#45;&gt;Node3 -->
<g id="edge34_Node000021_Node000003" class="edge">
<title>Node21&#45;&gt;Node3</title>
<g id="a_edge34_Node000021_Node000003"><a xlink:title=" ">
<path fill="none" stroke="#63b8ff" d="M573.6,-58.61C659.35,-49.61 843.12,-30.32 950.11,-19.09"/>
<polygon fill="#63b8ff" stroke="#63b8ff" points="950.64,-22.56 960.22,-18.03 949.9,-15.6 950.64,-22.56"/>
</a>
</g>
</g>
<!-- Node21&#45;&gt;Node6 -->
<g id="edge40_Node000021_Node000006" class="edge">
<title>Node21&#45;&gt;Node6</title>
<g id="a_edge40_Node000021_Node000006"><a xlink:title=" ">
<path fill="none" stroke="#63b8ff" d="M480.38,-56.92C475.53,-56.26 470.67,-55.61 466,-55 368.9,-42.35 257.18,-28.97 182.76,-20.23"/>
<polygon fill="#63b8ff" stroke="#63b8ff" points="182.85,-16.71 172.51,-19.02 182.03,-23.67 182.85,-16.71"/>
</a>
</g>
</g>
<!-- Node21&#45;&gt;Node9 -->
<g id="edge37_Node000021_Node000009" class="edge">
<title>Node21&#45;&gt;Node9</title>
<g id="a_edge37_Node000021_Node000009"><a xlink:title=" ">
<path fill="none" stroke="#63b8ff" d="M573.83,-58.92C588.88,-57.54 605.64,-56.1 621,-55 918.6,-33.65 997.09,-49.71 1297.51,-19.04"/>
<polygon fill="#63b8ff" stroke="#63b8ff" points="1298.24,-22.49 1307.83,-17.98 1297.52,-15.52 1298.24,-22.49"/>
</a>
</g>
</g>
<!-- Node21&#45;&gt;Node13 -->
<g id="edge38_Node000021_Node000013" class="edge">
<title>Node21&#45;&gt;Node13</title>
<g id="a_edge38_Node000021_Node000013"><a xlink:title=" ">
<path fill="none" stroke="#63b8ff" d="M573.68,-56.96C634.86,-48.38 745.49,-32.76 840,-19 840.74,-18.89 841.49,-18.78 842.24,-18.67"/>
<polygon fill="#63b8ff" stroke="#63b8ff" points="842.81,-22.13 852.2,-17.21 841.8,-15.2 842.81,-22.13"/>
</a>
</g>
</g>
<!-- Node21&#45;&gt;Node20 -->
<g id="edge39_Node000021_Node000020" class="edge">
<title>Node21&#45;&gt;Node20</title>
<g id="a_edge39_Node000021_Node000020"><a xlink:title=" ">
<path fill="none" stroke="#63b8ff" d="M490.69,-54.98C451.76,-45.86 389.84,-31.33 347.4,-21.38"/>
<polygon fill="#63b8ff" stroke="#63b8ff" points="348.13,-17.96 337.6,-19.08 346.53,-24.77 348.13,-17.96"/>
</a>
</g>
</g>
<!-- Node22 -->
<g id="Node000022" class="node">
<title>Node22</title>
<g id="a_Node000022"><a xlink:title=" ">
<polygon fill="#e0e0e0" stroke="#999999" points="831,-19 745,-19 745,0 831,0 831,-19"/>
<text text-anchor="middle" x="788" y="-7" font-family="Helvetica,sans-Serif" font-size="10.00">QtCore/QHash</text>
</a>
</g>
</g>
<!-- Node21&#45;&gt;Node22 -->
<g id="edge33_Node000021_Node000022" class="edge">
<title>Node21&#45;&gt;Node22</title>
<g id="a_edge33_Node000021_Node000022"><a xlink:title=" ">
<path fill="none" stroke="#63b8ff" d="M568.93,-54.98C614.27,-45.78 686.61,-31.09 735.65,-21.13"/>
<polygon fill="#63b8ff" stroke="#63b8ff" points="736.63,-24.5 745.74,-19.08 735.24,-17.64 736.63,-24.5"/>
</a>
</g>
</g>
<!-- Node23 -->
<g id="Node000023" class="node">
<title>Node23</title>
<g id="a_Node000023"><a xlink:title=" ">
<polygon fill="#e0e0e0" stroke="#999999" points="494.5,-19 387.5,-19 387.5,0 494.5,0 494.5,-19"/>
<text text-anchor="middle" x="441" y="-7" font-family="Helvetica,sans-Serif" font-size="10.00">QtCore/QJsonArray</text>
</a>
</g>
</g>
<!-- Node21&#45;&gt;Node23 -->
<g id="edge35_Node000021_Node000023" class="edge">
<title>Node21&#45;&gt;Node23</title>
<g id="a_edge35_Node000021_Node000023"><a xlink:title=" ">
<path fill="none" stroke="#63b8ff" d="M513.18,-54.98C499.85,-46.77 479.42,-34.18 463.69,-24.49"/>
<polygon fill="#63b8ff" stroke="#63b8ff" points="465.42,-21.44 455.07,-19.17 461.75,-27.4 465.42,-21.44"/>
</a>
</g>
</g>
<!-- Node24 -->
<g id="Node000024" class="node">
<title>Node24</title>
<g id="a_Node000024"><a xlink:title=" ">
<polygon fill="#e0e0e0" stroke="#999999" points="625.5,-19 512.5,-19 512.5,0 625.5,0 625.5,-19"/>
<text text-anchor="middle" x="569" y="-7" font-family="Helvetica,sans-Serif" font-size="10.00">QtCore/QJsonObject</text>
</a>
</g>
</g>
<!-- Node21&#45;&gt;Node24 -->
<g id="edge36_Node000021_Node000024" class="edge">
<title>Node21&#45;&gt;Node24</title>
<g id="a_edge36_Node000021_Node000024"><a xlink:title=" ">
<path fill="none" stroke="#63b8ff" d="M533.94,-54.75C539.87,-47.26 548.57,-36.28 555.82,-27.13"/>
<polygon fill="#63b8ff" stroke="#63b8ff" points="558.73,-29.1 562.19,-19.09 553.24,-24.75 558.73,-29.1"/>
</a>
</g>
</g>
<!-- Node25&#45;&gt;Node3 -->
<g id="edge43_Node000025_Node000003" class="edge">
<title>Node25&#45;&gt;Node3</title>
<g id="a_edge43_Node000025_Node000003"><a xlink:title=" ">
<path fill="none" stroke="#63b8ff" d="M1781.74,-58.43C1766.43,-57.27 1750.13,-56.06 1735,-55 1616.37,-46.7 1272.27,-25.33 1113.73,-15.54"/>
<polygon fill="#63b8ff" stroke="#63b8ff" points="1113.76,-12.03 1103.56,-14.91 1113.33,-19.02 1113.76,-12.03"/>
</a>
</g>
</g>
<!-- Node25&#45;&gt;Node9 -->
<g id="edge44_Node000025_Node000009" class="edge">
<title>Node25&#45;&gt;Node9</title>
<g id="a_edge44_Node000025_Node000009"><a xlink:title=" ">
<path fill="none" stroke="#63b8ff" d="M1781.73,-56.49C1777.08,-55.98 1772.47,-55.48 1768,-55 1640.24,-41.17 1490.28,-25.09 1410.56,-16.55"/>
<polygon fill="#63b8ff" stroke="#63b8ff" points="1410.57,-13.03 1400.26,-15.45 1409.83,-19.99 1410.57,-13.03"/>
</a>
</g>
</g>
<!-- Node25&#45;&gt;Node13 -->
<g id="edge47_Node000025_Node000013" class="edge">
<title>Node25&#45;&gt;Node13</title>
<g id="a_edge47_Node000025_Node000013"><a xlink:title=" ">
<path fill="none" stroke="#63b8ff" d="M1781.75,-58.24C1766.44,-57.09 1750.14,-55.93 1735,-55 1390.16,-33.88 1299.75,-53.79 951.84,-18.95"/>
<polygon fill="#63b8ff" stroke="#63b8ff" points="952.04,-15.45 941.74,-17.93 951.34,-22.42 952.04,-15.45"/>
</a>
</g>
</g>
<!-- Node25&#45;&gt;Node22 -->
<g id="edge42_Node000025_Node000022" class="edge">
<title>Node25&#45;&gt;Node22</title>
<g id="a_edge42_Node000025_Node000022"><a xlink:title=" ">
<path fill="none" stroke="#63b8ff" d="M1781.75,-58.18C1766.44,-57.03 1750.15,-55.89 1735,-55 1338.91,-31.85 1237.91,-57.36 843,-19 842.4,-18.94 841.79,-18.88 841.19,-18.82"/>
<polygon fill="#63b8ff" stroke="#63b8ff" points="841.52,-15.33 831.18,-17.64 840.7,-22.29 841.52,-15.33"/>
</a>
</g>
</g>
<!-- Node26 -->
<g id="Node000026" class="node">
<title>Node26</title>
<g id="a_Node000026"><a xlink:title=" ">
<polygon fill="#e0e0e0" stroke="#999999" points="2112,-19 1978,-19 1978,0 2112,0 2112,-19"/>
<text text-anchor="middle" x="2045" y="-7" font-family="Helvetica,sans-Serif" font-size="10.00">QtCore/QReadWriteLock</text>
</a>
</g>
</g>
<!-- Node25&#45;&gt;Node26 -->
<g id="edge45_Node000025_Node000026" class="edge">
<title>Node25&#45;&gt;Node26</title>
<g id="a_edge45_Node000025_Node000026"><a xlink:title=" ">
<path fill="none" stroke="#63b8ff" d="M1877.97,-54.98C1911.82,-45.97 1965.4,-31.7 2002.71,-21.76"/>
<polygon fill="#63b8ff" stroke="#63b8ff" points="2004.01,-25.04 2012.78,-19.08 2002.21,-18.27 2004.01,-25.04"/>
</a>
</g>
</g>
<!-- Node27 -->
<g id="Node000027" class="node">
<title>Node27</title>
<g id="a_Node000027"><a xlink:title=" ">
<polygon fill="#e0e0e0" stroke="#999999" points="1675.5,-19 1598.5,-19 1598.5,0 1675.5,0 1675.5,-19"/>
<text text-anchor="middle" x="1637" y="-7" font-family="Helvetica,sans-Serif" font-size="10.00">QtCore/QSet</text>
</a>
</g>
</g>
<!-- Node25&#45;&gt;Node27 -->
<g id="edge46_Node000025_Node000027" class="edge">
<title>Node25&#45;&gt;Node27</title>
<g id="a_edge46_Node000025_Node000027"><a xlink:title=" ">
<path fill="none" stroke="#63b8ff" d="M1812.42,-54.98C1776.65,-45.91 1719.88,-31.52 1680.66,-21.57"/>
<polygon fill="#63b8ff" stroke="#63b8ff" points="1681.4,-18.15 1670.84,-19.08 1679.68,-24.93 1681.4,-18.15"/>
</a>
</g>
</g>
<!-- Node28 -->
<g id="Node000028" class="node">
<title>Node28</title>
<g id="a_Node000028"><a xlink:title=" ">
<polygon fill="#e0e0e0" stroke="#999999" points="1856.5,-19 1693.5,-19 1693.5,0 1856.5,0 1856.5,-19"/>
<text text-anchor="middle" x="1775" y="-7" font-family="Helvetica,sans-Serif" font-size="10.00">QtCore/QSortFilterProxyModel</text>
</a>
</g>
</g>
<!-- Node25&#45;&gt;Node28 -->
<g id="edge48_Node000025_Node000028" class="edge">
<title>Node25&#45;&gt;Node28</title>
<g id="a_edge48_Node000025_Node000028"><a xlink:title=" ">
<path fill="none" stroke="#63b8ff" d="M1834.59,-54.98C1823.89,-47 1807.66,-34.88 1794.84,-25.31"/>
<polygon fill="#63b8ff" stroke="#63b8ff" points="1796.72,-22.35 1786.61,-19.17 1792.53,-27.96 1796.72,-22.35"/>
</a>
</g>
</g>
<!-- Node29 -->
<g id="Node000029" class="node">
<title>Node29</title>
<g id="a_Node000029"><a xlink:title=" ">
<polygon fill="#e0e0e0" stroke="#999999" points="1959.5,-19 1874.5,-19 1874.5,0 1959.5,0 1959.5,-19"/>
<text text-anchor="middle" x="1917" y="-7" font-family="Helvetica,sans-Serif" font-size="10.00">QtQml/qqml.h</text>
</a>
</g>
</g>
<!-- Node25&#45;&gt;Node29 -->
<g id="edge49_Node000025_Node000029" class="edge">
<title>Node25&#45;&gt;Node29</title>
<g id="a_edge49_Node000025_Node000029"><a xlink:title=" ">
<path fill="none" stroke="#63b8ff" d="M1857.41,-54.98C1868.11,-47 1884.34,-34.88 1897.16,-25.31"/>
<polygon fill="#63b8ff" stroke="#63b8ff" points="1899.47,-27.96 1905.39,-19.17 1895.28,-22.35 1899.47,-27.96"/>
</a>
</g>
</g>
<!-- Node30&#45;&gt;Node3 -->
<g id="edge51_Node000030_Node000003" class="edge">
<title>Node30&#45;&gt;Node3</title>
<g id="a_edge51_Node000030_Node000003"><a xlink:title=" ">
<path fill="none" stroke="#63b8ff" d="M938.83,-54.98C956.61,-46.5 984.15,-33.35 1004.68,-23.54"/>
<polygon fill="#63b8ff" stroke="#63b8ff" points="1006.33,-26.64 1013.84,-19.17 1003.31,-20.32 1006.33,-26.64"/>
</a>
</g>
</g>
<!-- Node30&#45;&gt;Node9 -->
<g id="edge52_Node000030_Node000009" class="edge">
<title>Node30&#45;&gt;Node9</title>
<g id="a_edge52_Node000030_Node000009"><a xlink:title=" ">
<path fill="none" stroke="#63b8ff" d="M971.73,-56.79C976.55,-56.17 981.37,-55.57 986,-55 1121.73,-38.32 1158.52,-37.72 1297.61,-19.14"/>
<polygon fill="#63b8ff" stroke="#63b8ff" points="1298.36,-22.57 1307.81,-17.77 1297.43,-15.63 1298.36,-22.57"/>
</a>
</g>
</g>
<!-- Node30&#45;&gt;Node13 -->
<g id="edge53_Node000030_Node000013" class="edge">
<title>Node30&#45;&gt;Node13</title>
<g id="a_edge53_Node000030_Node000013"><a xlink:title=" ">
<path fill="none" stroke="#63b8ff" d="M917.04,-54.75C913.79,-47.57 909.08,-37.18 905.05,-28.27"/>
<polygon fill="#63b8ff" stroke="#63b8ff" points="908.2,-26.75 900.89,-19.09 901.83,-29.64 908.2,-26.75"/>
</a>
</g>
</g>
<!-- Node31&#45;&gt;Node9 -->
<g id="edge58_Node000031_Node000009" class="edge">
<title>Node31&#45;&gt;Node9</title>
<g id="a_edge58_Node000031_Node000009"><a xlink:title=" ">
<path fill="none" stroke="#63b8ff" d="M1683.17,-274.89C1699.98,-267.73 1721.68,-255.95 1735,-239 1753.2,-215.84 1754,-204.96 1754,-175.5 1754,-175.5 1754,-175.5 1754,-118.5 1754,-89.04 1757.57,-73.94 1735,-55 1710.64,-34.56 1510.56,-19.85 1410.52,-13.7"/>
<polygon fill="#63b8ff" stroke="#63b8ff" points="1410.48,-10.19 1400.28,-13.08 1410.05,-17.18 1410.48,-10.19"/>
</a>
</g>
</g>
<!-- Node32 -->
<g id="Node000032" class="node">
<title>Node32</title>
<g id="a_Node000032"><a xlink:href="QGCTileSet_8h.html" target="_top" xlink:title=" ">
<polygon fill="white" stroke="#666666" points="1573.5,-239 1492.5,-239 1492.5,-220 1573.5,-220 1573.5,-239"/>
<text text-anchor="middle" x="1533" y="-227" font-family="Helvetica,sans-Serif" font-size="10.00">QGCTileSet.h</text>
</a>
</g>
</g>
<!-- Node31&#45;&gt;Node32 -->
<g id="edge55_Node000031_Node000032" class="edge">
<title>Node31&#45;&gt;Node32</title>
<g id="a_edge55_Node000031_Node000032"><a xlink:title=" ">
<path fill="none" stroke="#63b8ff" d="M1638.76,-274.98C1618.3,-266.38 1586.47,-252.99 1563.07,-243.15"/>
<polygon fill="#63b8ff" stroke="#63b8ff" points="1564.19,-239.82 1553.61,-239.17 1561.47,-246.27 1564.19,-239.82"/>
</a>
</g>
</g>
<!-- Node35 -->
<g id="Node000035" class="node">
<title>Node35</title>
<g id="a_Node000035"><a xlink:title=" ">
<polygon fill="#e0e0e0" stroke="#999999" points="1726,-239 1592,-239 1592,-220 1726,-220 1726,-239"/>
<text text-anchor="middle" x="1659" y="-227" font-family="Helvetica,sans-Serif" font-size="10.00">QtCore/QByteArrayView</text>
</a>
</g>
</g>
<!-- Node31&#45;&gt;Node35 -->
<g id="edge59_Node000031_Node000035" class="edge">
<title>Node31&#45;&gt;Node35</title>
<g id="a_edge59_Node000031_Node000035"><a xlink:title=" ">
<path fill="none" stroke="#63b8ff" d="M1659,-274.75C1659,-267.8 1659,-257.85 1659,-249.13"/>
<polygon fill="#63b8ff" stroke="#63b8ff" points="1662.5,-249.09 1659,-239.09 1655.5,-249.09 1662.5,-249.09"/>
</a>
</g>
</g>
<!-- Node36 -->
<g id="Node000036" class="node">
<title>Node36</title>
<g id="a_Node000036"><a xlink:title=" ">
<polygon fill="#e0e0e0" stroke="#999999" points="1895.5,-239 1782.5,-239 1782.5,-220 1895.5,-220 1895.5,-239"/>
<text text-anchor="middle" x="1839" y="-227" font-family="Helvetica,sans-Serif" font-size="10.00">QtCore/QStringView</text>
</a>
</g>
</g>
<!-- Node31&#45;&gt;Node36 -->
<g id="edge60_Node000031_Node000036" class="edge">
<title>Node31&#45;&gt;Node36</title>
<g id="a_edge60_Node000031_Node000036"><a xlink:title=" ">
<path fill="none" stroke="#63b8ff" d="M1687.92,-274.98C1718.27,-266.05 1766.17,-251.94 1799.88,-242.02"/>
<polygon fill="#63b8ff" stroke="#63b8ff" points="1801.25,-245.26 1809.85,-239.08 1799.27,-238.55 1801.25,-245.26"/>
</a>
</g>
</g>
<!-- Node33 -->
<g id="Node000033" class="node">
<title>Node33</title>
<g id="a_Node000033"><a xlink:title=" ">
<polygon fill="#e0e0e0" stroke="#999999" points="1646,-184 1538,-184 1538,-165 1646,-165 1646,-184"/>
<text text-anchor="middle" x="1592" y="-172" font-family="Helvetica,sans-Serif" font-size="10.00">QtCore/QMetaType</text>
</a>
</g>
</g>
<!-- Node32&#45;&gt;Node33 -->
<g id="edge56_Node000032_Node000033" class="edge">
<title>Node32&#45;&gt;Node33</title>
<g id="a_edge56_Node000032_Node000033"><a xlink:title=" ">
<path fill="none" stroke="#63b8ff" d="M1542.48,-219.98C1551.2,-212.15 1564.34,-200.34 1574.9,-190.86"/>
<polygon fill="#63b8ff" stroke="#63b8ff" points="1577.25,-193.46 1582.35,-184.17 1572.57,-188.25 1577.25,-193.46"/>
</a>
</g>
</g>
<!-- Node34 -->
<g id="Node000034" class="node">
<title>Node34</title>
<g id="a_Node000034"><a xlink:title=" ">
<polygon fill="#e0e0e0" stroke="#999999" points="1520,-184 1428,-184 1428,-165 1520,-165 1520,-184"/>
<text text-anchor="middle" x="1474" y="-172" font-family="Helvetica,sans-Serif" font-size="10.00">QtCore/QtTypes</text>
</a>
</g>
</g>
<!-- Node32&#45;&gt;Node34 -->
<g id="edge57_Node000032_Node000034" class="edge">
<title>Node32&#45;&gt;Node34</title>
<g id="a_edge57_Node000032_Node000034"><a xlink:title=" ">
<path fill="none" stroke="#63b8ff" d="M1523.52,-219.98C1514.8,-212.15 1501.66,-200.34 1491.1,-190.86"/>
<polygon fill="#63b8ff" stroke="#63b8ff" points="1493.43,-188.25 1483.65,-184.17 1488.75,-193.46 1493.43,-188.25"/>
</a>
</g>
</g>
<!-- Node37&#45;&gt;Node3 -->
<g id="edge62_Node000037_Node000003" class="edge">
<title>Node37&#45;&gt;Node3</title>
<g id="a_edge62_Node000037_Node000003"><a xlink:title=" ">
<path fill="none" stroke="#63b8ff" d="M737.61,-55.33C799.09,-45.97 899.89,-30.62 966.11,-20.54"/>
<polygon fill="#63b8ff" stroke="#63b8ff" points="966.66,-23.99 976.02,-19.03 965.61,-17.07 966.66,-23.99"/>
</a>
</g>
</g>
<!-- Node37&#45;&gt;Node6 -->
<g id="edge64_Node000037_Node000006" class="edge">
<title>Node37&#45;&gt;Node6</title>
<g id="a_edge64_Node000037_Node000006"><a xlink:title=" ">
<path fill="none" stroke="#63b8ff" d="M630.27,-58.63C533.4,-49.86 327.93,-31.24 202.81,-19.91"/>
<polygon fill="#63b8ff" stroke="#63b8ff" points="203.1,-16.42 192.83,-19 202.47,-23.39 203.1,-16.42"/>
</a>
</g>
</g>
<!-- Node37&#45;&gt;Node9 -->
<g id="edge63_Node000037_Node000009" class="edge">
<title>Node37&#45;&gt;Node9</title>
<g id="a_edge63_Node000037_Node000009"><a xlink:title=" ">
<path fill="none" stroke="#63b8ff" d="M737.61,-61.09C842.92,-56.03 1084.41,-42.85 1297.69,-19.06"/>
<polygon fill="#63b8ff" stroke="#63b8ff" points="1298.28,-22.51 1307.82,-17.91 1297.49,-15.56 1298.28,-22.51"/>
</a>
</g>
</g>
<!-- Node37&#45;&gt;Node24 -->
<g id="edge65_Node000037_Node000024" class="edge">
<title>Node37&#45;&gt;Node24</title>
<g id="a_edge65_Node000037_Node000024"><a xlink:title=" ">
<path fill="none" stroke="#63b8ff" d="M665.52,-54.98C647.02,-46.46 618.32,-33.23 597.02,-23.41"/>
<polygon fill="#63b8ff" stroke="#63b8ff" points="598.36,-20.18 587.81,-19.17 595.43,-26.53 598.36,-20.18"/>
</a>
</g>
</g>
<!-- Node38 -->
<g id="Node000038" class="node">
<title>Node38</title>
<g id="a_Node000038"><a xlink:title=" ">
<polygon fill="#e0e0e0" stroke="#999999" points="726,-19 644,-19 644,0 726,0 726,-19"/>
<text text-anchor="middle" x="685" y="-7" font-family="Helvetica,sans-Serif" font-size="10.00">QtCore/QMap</text>
</a>
</g>
</g>
<!-- Node37&#45;&gt;Node38 -->
<g id="edge66_Node000037_Node000038" class="edge">
<title>Node37&#45;&gt;Node38</title>
<g id="a_edge66_Node000037_Node000038"><a xlink:title=" ">
<path fill="none" stroke="#63b8ff" d="M684.17,-54.75C684.3,-47.8 684.48,-37.85 684.65,-29.13"/>
<polygon fill="#63b8ff" stroke="#63b8ff" points="688.15,-29.15 684.84,-19.09 681.15,-29.02 688.15,-29.15"/>
</a>
</g>
</g>
<!-- Node39&#45;&gt;Node3 -->
<g id="edge69_Node000039_Node000003" class="edge">
<title>Node39&#45;&gt;Node3</title>
<g id="a_edge69_Node000039_Node000003"><a xlink:title=" ">
<path fill="none" stroke="#63b8ff" d="M1653.2,-109.58C1643.26,-95.16 1621.46,-67.14 1595,-55 1573.51,-45.14 1264.61,-24.86 1113.74,-15.47"/>
<polygon fill="#63b8ff" stroke="#63b8ff" points="1113.79,-11.97 1103.59,-14.85 1113.36,-18.96 1113.79,-11.97"/>
</a>
</g>
</g>
<!-- Node39&#45;&gt;Node5 -->
<g id="edge71_Node000039_Node000005" class="edge">
<title>Node39&#45;&gt;Node5</title>
<g id="a_edge71_Node000039_Node000005"><a xlink:title=" ">
<path fill="none" stroke="#63b8ff" d="M1633.94,-109.98C1607.97,-101.16 1567.19,-87.31 1538.04,-77.41"/>
<polygon fill="#63b8ff" stroke="#63b8ff" points="1538.85,-73.99 1528.26,-74.08 1536.6,-80.61 1538.85,-73.99"/>
</a>
</g>
</g>
<!-- Node39&#45;&gt;Node6 -->
<g id="edge72_Node000039_Node000006" class="edge">
<title>Node39&#45;&gt;Node6</title>
<g id="a_edge72_Node000039_Node000006"><a xlink:title=" ">
<path fill="none" stroke="#63b8ff" d="M1591.89,-110.7C1588.89,-110.45 1585.91,-110.21 1583,-110 1336.4,-92.25 710.68,-134.69 471,-74 452.7,-69.36 451.05,-60.54 433,-55 358.27,-32.04 270.54,-20.93 203.75,-15.55"/>
<polygon fill="#63b8ff" stroke="#63b8ff" points="203.88,-12.05 193.64,-14.76 203.34,-19.02 203.88,-12.05"/>
</a>
</g>
</g>
<!-- Node39&#45;&gt;Node9 -->
<g id="edge70_Node000039_Node000009" class="edge">
<title>Node39&#45;&gt;Node9</title>
<g id="a_edge70_Node000039_Node000009"><a xlink:title=" ">
<path fill="none" stroke="#63b8ff" d="M1657.42,-109.9C1654.38,-95.96 1646.32,-68.61 1628,-55 1594.42,-30.06 1480.4,-18.48 1410.46,-13.61"/>
<polygon fill="#63b8ff" stroke="#63b8ff" points="1410.27,-10.09 1400.06,-12.91 1409.8,-17.08 1410.27,-10.09"/>
</a>
</g>
</g>
<!-- Node40 -->
<g id="Node000040" class="node">
<title>Node40</title>
<g id="a_Node000040"><a xlink:title=" ">
<polygon fill="#e0e0e0" stroke="#999999" points="1725.5,-74 1680.5,-74 1680.5,-55 1725.5,-55 1725.5,-74"/>
<text text-anchor="middle" x="1703" y="-62" font-family="Helvetica,sans-Serif" font-size="10.00">utility</text>
</a>
</g>
</g>
<!-- Node39&#45;&gt;Node40 -->
<g id="edge68_Node000039_Node000040" class="edge">
<title>Node39&#45;&gt;Node40</title>
<g id="a_edge68_Node000039_Node000040"><a xlink:title=" ">
<path fill="none" stroke="#63b8ff" d="M1666.27,-109.75C1672.54,-102.18 1681.79,-91.05 1689.43,-81.84"/>
<polygon fill="#63b8ff" stroke="#63b8ff" points="1692.17,-84.02 1695.87,-74.09 1686.79,-79.55 1692.17,-84.02"/>
</a>
</g>
</g>
</g>
</svg>

<g id="navigator" transform="translate(0 0)" fill="#404254">
  <rect fill="#f2f5e9" fill-opacity="0.5" stroke="#606060" stroke-width=".5" x="0" y="0" width="60" height="60"/>
  <use id="zoomplus" xlink:href="#zoomPlus" x="17" y="9" onmousedown="handleZoom(evt,'in')"/>
  <use id="zoomminus" xlink:href="#zoomMin" x="42" y="9" onmousedown="handleZoom(evt,'out')"/>
  <use id="reset" xlink:href="#resetDef" x="30" y="36" onmousedown="handleReset()"/>
   <use id="arrowup" xlink:href="#arrowUp" x="0" y="0" onmousedown="handlePan(0,-1)"/>
  <use id="arrowright" xlink:href="#arrowRight" x="0" y="0" onmousedown="handlePan(1,0)"/>
  <use id="arrowdown" xlink:href="#arrowDown" x="0" y="0" onmousedown="handlePan(0,1)"/>
  <use id="arrowleft" xlink:href="#arrowLeft" x="0" y="0" onmousedown="handlePan(-1,0)"/>
</g>
<svg viewBox="0 0 15 15" width="100%" height="30px" preserveAspectRatio="xMaxYMin meet">
 <g id="arrow_out" transform="scale(0.3 0.3)">
  <a xlink:href="Viewer3DTerrainTexture_8cc__incl_org.svg" target="_base">
   <rect id="button" ry="5" rx="5" y="6" x="6" height="38" width="38"
        fill="#f2f5e9" fill-opacity="0.5" stroke="#606060" stroke-width="1.0"/>
   <path id="arrow"
     d="M 11.500037,31.436501 C 11.940474,20.09759 22.043105,11.32322 32.158766,21.979434 L 37.068811,17.246167 C 37.068811,17.246167 37.088388,32 37.088388,32 L 22.160133,31.978069 C 22.160133,31.978069 26.997745,27.140456 26.997745,27.140456 C 18.528582,18.264221 13.291696,25.230495 11.500037,31.436501 z"
     style="fill:#404040;"/>
  </a>
 </g>
</svg>

<style type='text/css'>
<![CDATA[
[data-mouse-over-selected='false'] { opacity: 0.7; }
[data-mouse-over-selected='true']  { opacity: 1.0; }
]]>
</style>
<script type="application/ecmascript"><![CDATA[
document.addEventListener('DOMContentLoaded', (event) => {
  highlightEdges();
  highlightAdjacentNodes();
});
]]></script>
</svg>
