<?xml version="1.0" encoding="UTF-8" standalone="no"?>
<!DOCTYPE svg PUBLIC "-//W3C//DTD SVG 1.1//EN"
 "http://www.w3.org/Graphics/SVG/1.1/DTD/svg11.dtd">
<!-- Generated by graphviz version 2.43.0 (0)
 -->
<!-- Title: src/Viewer3D/Viewer3DInstancing.cc Pages: 1 -->
<svg width="1107pt" height="302pt"
 viewBox="0.00 0.00 1106.50 302.00" xmlns="http://www.w3.org/2000/svg" xmlns:xlink="http://www.w3.org/1999/xlink">
<g id="graph0" class="graph" transform="scale(1 1) rotate(0) translate(4 298)">
<title>src/Viewer3D/Viewer3DInstancing.cc</title>
<!-- Node1 -->
<g id="Node000001" class="node">
<title>Node1</title>
<g id="a_Node000001"><a xlink:title=" ">
<polygon fill="#999999" stroke="#666666" points="924,-294 729,-294 729,-275 924,-275 924,-294"/>
<text text-anchor="middle" x="826.5" y="-282" font-family="Helvetica,sans-Serif" font-size="10.00">src/Viewer3D/Viewer3DInstancing.cc</text>
</a>
</g>
</g>
<!-- Node2 -->
<g id="Node000002" class="node">
<title>Node2</title>
<g id="a_Node000002"><a xlink:href="Viewer3DInstancing_8h.html" target="_top" xlink:title=" ">
<polygon fill="white" stroke="#666666" points="521,-74 398,-74 398,-55 521,-55 521,-74"/>
<text text-anchor="middle" x="459.5" y="-62" font-family="Helvetica,sans-Serif" font-size="10.00">Viewer3DInstancing.h</text>
</a>
</g>
</g>
<!-- Node1&#45;&gt;Node2 -->
<g id="edge1_Node000001_Node000002" class="edge">
<title>Node1&#45;&gt;Node2</title>
<g id="a_edge1_Node000001_Node000002"><a xlink:title=" ">
<path fill="none" stroke="#63b8ff" d="M797.6,-274.92C751.36,-260.43 658.89,-228.31 589.5,-184 542.53,-154.01 496.47,-106.56 473.88,-81.78"/>
<polygon fill="#63b8ff" stroke="#63b8ff" points="476.2,-79.13 466.91,-74.03 471,-83.81 476.2,-79.13"/>
</a>
</g>
</g>
<!-- Node9 -->
<g id="Node000009" class="node">
<title>Node9</title>
<g id="a_Node000009"><a xlink:href="QGCLoggingCategory_8h.html" target="_top" xlink:title=" ">
<polygon fill="white" stroke="#666666" points="890.5,-239 762.5,-239 762.5,-220 890.5,-220 890.5,-239"/>
<text text-anchor="middle" x="826.5" y="-227" font-family="Helvetica,sans-Serif" font-size="10.00">QGCLoggingCategory.h</text>
</a>
</g>
</g>
<!-- Node1&#45;&gt;Node9 -->
<g id="edge8_Node000001_Node000009" class="edge">
<title>Node1&#45;&gt;Node9</title>
<g id="a_edge8_Node000001_Node000009"><a xlink:title=" ">
<path fill="none" stroke="#63b8ff" d="M826.5,-274.75C826.5,-267.8 826.5,-257.85 826.5,-249.13"/>
<polygon fill="#63b8ff" stroke="#63b8ff" points="830,-249.09 826.5,-239.09 823,-249.09 830,-249.09"/>
</a>
</g>
</g>
<!-- Node17 -->
<g id="Node000017" class="node">
<title>Node17</title>
<g id="a_Node000017"><a xlink:title=" ">
<polygon fill="#e0e0e0" stroke="#999999" points="956,-239 909,-239 909,-220 956,-220 956,-239"/>
<text text-anchor="middle" x="932.5" y="-227" font-family="Helvetica,sans-Serif" font-size="10.00">cmath</text>
</a>
</g>
</g>
<!-- Node1&#45;&gt;Node17 -->
<g id="edge20_Node000001_Node000017" class="edge">
<title>Node1&#45;&gt;Node17</title>
<g id="a_edge20_Node000001_Node000017"><a xlink:title=" ">
<path fill="none" stroke="#63b8ff" d="M843.53,-274.98C860.43,-266.54 886.56,-253.47 906.14,-243.68"/>
<polygon fill="#63b8ff" stroke="#63b8ff" points="907.78,-246.77 915.16,-239.17 904.65,-240.51 907.78,-246.77"/>
</a>
</g>
</g>
<!-- Node3 -->
<g id="Node000003" class="node">
<title>Node3</title>
<g id="a_Node000003"><a xlink:title=" ">
<polygon fill="#e0e0e0" stroke="#999999" points="1055,-19 912,-19 912,0 1055,0 1055,-19"/>
<text text-anchor="middle" x="983.5" y="-7" font-family="Helvetica,sans-Serif" font-size="10.00">QtCore/QLoggingCategory</text>
</a>
</g>
</g>
<!-- Node2&#45;&gt;Node3 -->
<g id="edge2_Node000002_Node000003" class="edge">
<title>Node2&#45;&gt;Node3</title>
<g id="a_edge2_Node000002_Node000003"><a xlink:title=" ">
<path fill="none" stroke="#63b8ff" d="M521.14,-57.4C604.72,-49.1 758.96,-33.72 901.69,-19.08"/>
<polygon fill="#63b8ff" stroke="#63b8ff" points="902.36,-22.53 911.95,-18.03 901.64,-15.57 902.36,-22.53"/>
</a>
</g>
</g>
<!-- Node4 -->
<g id="Node000004" class="node">
<title>Node4</title>
<g id="a_Node000004"><a xlink:title=" ">
<polygon fill="#e0e0e0" stroke="#999999" points="386.5,-19 306.5,-19 306.5,0 386.5,0 386.5,-19"/>
<text text-anchor="middle" x="346.5" y="-7" font-family="Helvetica,sans-Serif" font-size="10.00">QtGui/QColor</text>
</a>
</g>
</g>
<!-- Node2&#45;&gt;Node4 -->
<g id="edge3_Node000002_Node000004" class="edge">
<title>Node2&#45;&gt;Node4</title>
<g id="a_edge3_Node000002_Node000004"><a xlink:title=" ">
<path fill="none" stroke="#63b8ff" d="M441.34,-54.98C423.25,-46.5 395.22,-33.35 374.31,-23.54"/>
<polygon fill="#63b8ff" stroke="#63b8ff" points="375.53,-20.25 364.99,-19.17 372.55,-26.59 375.53,-20.25"/>
</a>
</g>
</g>
<!-- Node5 -->
<g id="Node000005" class="node">
<title>Node5</title>
<g id="a_Node000005"><a xlink:title=" ">
<polygon fill="#e0e0e0" stroke="#999999" points="514,-19 405,-19 405,0 514,0 514,-19"/>
<text text-anchor="middle" x="459.5" y="-7" font-family="Helvetica,sans-Serif" font-size="10.00">QtGui/QQuaternion</text>
</a>
</g>
</g>
<!-- Node2&#45;&gt;Node5 -->
<g id="edge4_Node000002_Node000005" class="edge">
<title>Node2&#45;&gt;Node5</title>
<g id="a_edge4_Node000002_Node000005"><a xlink:title=" ">
<path fill="none" stroke="#63b8ff" d="M459.5,-54.75C459.5,-47.8 459.5,-37.85 459.5,-29.13"/>
<polygon fill="#63b8ff" stroke="#63b8ff" points="463,-29.09 459.5,-19.09 456,-29.09 463,-29.09"/>
</a>
</g>
</g>
<!-- Node6 -->
<g id="Node000006" class="node">
<title>Node6</title>
<g id="a_Node000006"><a xlink:title=" ">
<polygon fill="#e0e0e0" stroke="#999999" points="99,-19 0,-19 0,0 99,0 99,-19"/>
<text text-anchor="middle" x="49.5" y="-7" font-family="Helvetica,sans-Serif" font-size="10.00">QtGui/QVector3D</text>
</a>
</g>
</g>
<!-- Node2&#45;&gt;Node6 -->
<g id="edge5_Node000002_Node000006" class="edge">
<title>Node2&#45;&gt;Node6</title>
<g id="a_edge5_Node000002_Node000006"><a xlink:title=" ">
<path fill="none" stroke="#63b8ff" d="M397.77,-56.07C329.58,-47.78 216.24,-33.75 109.17,-19.21"/>
<polygon fill="#63b8ff" stroke="#63b8ff" points="109.55,-15.73 99.16,-17.84 108.6,-22.66 109.55,-15.73"/>
</a>
</g>
</g>
<!-- Node7 -->
<g id="Node000007" class="node">
<title>Node7</title>
<g id="a_Node000007"><a xlink:title=" ">
<polygon fill="#e0e0e0" stroke="#999999" points="721,-19 532,-19 532,0 721,0 721,-19"/>
<text text-anchor="middle" x="626.5" y="-7" font-family="Helvetica,sans-Serif" font-size="10.00">QtQmlIntegration/QtQmlIntegration</text>
</a>
</g>
</g>
<!-- Node2&#45;&gt;Node7 -->
<g id="edge6_Node000002_Node000007" class="edge">
<title>Node2&#45;&gt;Node7</title>
<g id="a_edge6_Node000002_Node000007"><a xlink:title=" ">
<path fill="none" stroke="#63b8ff" d="M486.33,-54.98C514.37,-46.09 558.55,-32.07 589.8,-22.15"/>
<polygon fill="#63b8ff" stroke="#63b8ff" points="590.99,-25.44 599.46,-19.08 588.87,-18.77 590.99,-25.44"/>
</a>
</g>
</g>
<!-- Node8 -->
<g id="Node000008" class="node">
<title>Node8</title>
<g id="a_Node000008"><a xlink:title=" ">
<polygon fill="#e0e0e0" stroke="#999999" points="288,-19 117,-19 117,0 288,0 288,-19"/>
<text text-anchor="middle" x="202.5" y="-7" font-family="Helvetica,sans-Serif" font-size="10.00">QtQuick3D/QQuick3DInstancing</text>
</a>
</g>
</g>
<!-- Node2&#45;&gt;Node8 -->
<g id="edge7_Node000002_Node000008" class="edge">
<title>Node2&#45;&gt;Node8</title>
<g id="a_edge7_Node000002_Node000008"><a xlink:title=" ">
<path fill="none" stroke="#63b8ff" d="M418.21,-54.98C373.57,-45.78 302.34,-31.09 254.05,-21.13"/>
<polygon fill="#63b8ff" stroke="#63b8ff" points="254.62,-17.67 244.12,-19.08 253.2,-24.53 254.62,-17.67"/>
</a>
</g>
</g>
<!-- Node9&#45;&gt;Node3 -->
<g id="edge16_Node000009_Node000003" class="edge">
<title>Node9&#45;&gt;Node3</title>
<g id="a_edge16_Node000009_Node000003"><a xlink:title=" ">
<path fill="none" stroke="#63b8ff" d="M890.59,-221.62C915.68,-215.62 942.47,-204.52 959.5,-184 996.66,-139.22 991.68,-64.44 986.79,-29.53"/>
<polygon fill="#63b8ff" stroke="#63b8ff" points="990.2,-28.66 985.2,-19.32 983.28,-29.74 990.2,-28.66"/>
</a>
</g>
</g>
<!-- Node10 -->
<g id="Node000010" class="node">
<title>Node10</title>
<g id="a_Node000010"><a xlink:href="QmlObjectListModel_8h.html" target="_top" xlink:title=" ">
<polygon fill="white" stroke="#666666" points="950,-184 825,-184 825,-165 950,-165 950,-184"/>
<text text-anchor="middle" x="887.5" y="-172" font-family="Helvetica,sans-Serif" font-size="10.00">QmlObjectListModel.h</text>
</a>
</g>
</g>
<!-- Node9&#45;&gt;Node10 -->
<g id="edge9_Node000009_Node000010" class="edge">
<title>Node9&#45;&gt;Node10</title>
<g id="a_edge9_Node000009_Node000010"><a xlink:title=" ">
<path fill="none" stroke="#63b8ff" d="M836.3,-219.98C845.32,-212.15 858.91,-200.34 869.82,-190.86"/>
<polygon fill="#63b8ff" stroke="#63b8ff" points="872.27,-193.37 877.52,-184.17 867.68,-188.09 872.27,-193.37"/>
</a>
</g>
</g>
<!-- Node14 -->
<g id="Node000014" class="node">
<title>Node14</title>
<g id="a_Node000014"><a xlink:title=" ">
<polygon fill="#e0e0e0" stroke="#999999" points="1098.5,-184 1006.5,-184 1006.5,-165 1098.5,-165 1098.5,-184"/>
<text text-anchor="middle" x="1052.5" y="-172" font-family="Helvetica,sans-Serif" font-size="10.00">QtCore/QObject</text>
</a>
</g>
</g>
<!-- Node9&#45;&gt;Node14 -->
<g id="edge17_Node000009_Node000014" class="edge">
<title>Node9&#45;&gt;Node14</title>
<g id="a_edge17_Node000009_Node000014"><a xlink:title=" ">
<path fill="none" stroke="#63b8ff" d="M862.81,-219.98C901.74,-210.86 963.66,-196.33 1006.1,-186.38"/>
<polygon fill="#63b8ff" stroke="#63b8ff" points="1006.97,-189.77 1015.9,-184.08 1005.37,-182.96 1006.97,-189.77"/>
</a>
</g>
</g>
<!-- Node15 -->
<g id="Node000015" class="node">
<title>Node15</title>
<g id="a_Node000015"><a xlink:title=" ">
<polygon fill="#e0e0e0" stroke="#999999" points="706,-184 599,-184 599,-165 706,-165 706,-184"/>
<text text-anchor="middle" x="652.5" y="-172" font-family="Helvetica,sans-Serif" font-size="10.00">QtCore/QStringList</text>
</a>
</g>
</g>
<!-- Node9&#45;&gt;Node15 -->
<g id="edge18_Node000009_Node000015" class="edge">
<title>Node9&#45;&gt;Node15</title>
<g id="a_edge18_Node000009_Node000015"><a xlink:title=" ">
<path fill="none" stroke="#63b8ff" d="M798.54,-219.98C769.2,-211.05 722.9,-196.94 690.31,-187.02"/>
<polygon fill="#63b8ff" stroke="#63b8ff" points="691.26,-183.65 680.68,-184.08 689.22,-190.34 691.26,-183.65"/>
</a>
</g>
</g>
<!-- Node16 -->
<g id="Node000016" class="node">
<title>Node16</title>
<g id="a_Node000016"><a xlink:title=" ">
<polygon fill="#e0e0e0" stroke="#999999" points="806.5,-184 724.5,-184 724.5,-165 806.5,-165 806.5,-184"/>
<text text-anchor="middle" x="765.5" y="-172" font-family="Helvetica,sans-Serif" font-size="10.00">QtCore/QMap</text>
</a>
</g>
</g>
<!-- Node9&#45;&gt;Node16 -->
<g id="edge19_Node000009_Node000016" class="edge">
<title>Node9&#45;&gt;Node16</title>
<g id="a_edge19_Node000009_Node000016"><a xlink:title=" ">
<path fill="none" stroke="#63b8ff" d="M816.7,-219.98C807.68,-212.15 794.09,-200.34 783.18,-190.86"/>
<polygon fill="#63b8ff" stroke="#63b8ff" points="785.32,-188.09 775.48,-184.17 780.73,-193.37 785.32,-188.09"/>
</a>
</g>
</g>
<!-- Node10&#45;&gt;Node3 -->
<g id="edge15_Node000010_Node000003" class="edge">
<title>Node10&#45;&gt;Node3</title>
<g id="a_edge15_Node000010_Node000003"><a xlink:title=" ">
<path fill="none" stroke="#63b8ff" d="M892.66,-164.74C907.83,-138.98 952.5,-63.13 973,-28.33"/>
<polygon fill="#63b8ff" stroke="#63b8ff" points="976.25,-29.7 978.31,-19.31 970.22,-26.15 976.25,-29.7"/>
</a>
</g>
</g>
<!-- Node11 -->
<g id="Node000011" class="node">
<title>Node11</title>
<g id="a_Node000011"><a xlink:href="ObjectListModelBase_8h.html" target="_top" xlink:title=" ">
<polygon fill="white" stroke="#666666" points="889.5,-129 761.5,-129 761.5,-110 889.5,-110 889.5,-129"/>
<text text-anchor="middle" x="825.5" y="-117" font-family="Helvetica,sans-Serif" font-size="10.00">ObjectListModelBase.h</text>
</a>
</g>
</g>
<!-- Node10&#45;&gt;Node11 -->
<g id="edge10_Node000010_Node000011" class="edge">
<title>Node10&#45;&gt;Node11</title>
<g id="a_edge10_Node000010_Node000011"><a xlink:title=" ">
<path fill="none" stroke="#63b8ff" d="M877.54,-164.98C868.37,-157.15 854.56,-145.34 843.47,-135.86"/>
<polygon fill="#63b8ff" stroke="#63b8ff" points="845.52,-133.01 835.64,-129.17 840.97,-138.33 845.52,-133.01"/>
</a>
</g>
</g>
<!-- Node12 -->
<g id="Node000012" class="node">
<title>Node12</title>
<g id="a_Node000012"><a xlink:href="ObjectItemModelBase_8h.html" target="_top" xlink:title=" ">
<polygon fill="white" stroke="#666666" points="887.5,-74 753.5,-74 753.5,-55 887.5,-55 887.5,-74"/>
<text text-anchor="middle" x="820.5" y="-62" font-family="Helvetica,sans-Serif" font-size="10.00">ObjectItemModelBase.h</text>
</a>
</g>
</g>
<!-- Node11&#45;&gt;Node12 -->
<g id="edge11_Node000011_Node000012" class="edge">
<title>Node11&#45;&gt;Node12</title>
<g id="a_edge11_Node000011_Node000012"><a xlink:title=" ">
<path fill="none" stroke="#63b8ff" d="M824.67,-109.75C824.02,-102.8 823.08,-92.85 822.26,-84.13"/>
<polygon fill="#63b8ff" stroke="#63b8ff" points="825.73,-83.72 821.31,-74.09 818.77,-84.37 825.73,-83.72"/>
</a>
</g>
</g>
<!-- Node12&#45;&gt;Node3 -->
<g id="edge13_Node000012_Node000003" class="edge">
<title>Node12&#45;&gt;Node3</title>
<g id="a_edge13_Node000012_Node000003"><a xlink:title=" ">
<path fill="none" stroke="#63b8ff" d="M846.69,-54.98C873.94,-46.13 916.8,-32.19 947.28,-22.28"/>
<polygon fill="#63b8ff" stroke="#63b8ff" points="948.68,-25.5 957.11,-19.08 946.51,-18.85 948.68,-25.5"/>
</a>
</g>
</g>
<!-- Node12&#45;&gt;Node7 -->
<g id="edge14_Node000012_Node000007" class="edge">
<title>Node12&#45;&gt;Node7</title>
<g id="a_edge14_Node000012_Node000007"><a xlink:title=" ">
<path fill="none" stroke="#63b8ff" d="M789.33,-54.98C756.34,-45.97 704.1,-31.7 667.73,-21.76"/>
<polygon fill="#63b8ff" stroke="#63b8ff" points="668.48,-18.34 657.91,-19.08 666.64,-25.09 668.48,-18.34"/>
</a>
</g>
</g>
<!-- Node13 -->
<g id="Node000013" class="node">
<title>Node13</title>
<g id="a_Node000013"><a xlink:title=" ">
<polygon fill="#e0e0e0" stroke="#999999" points="893.5,-19 739.5,-19 739.5,0 893.5,0 893.5,-19"/>
<text text-anchor="middle" x="816.5" y="-7" font-family="Helvetica,sans-Serif" font-size="10.00">QtCore/QAbstractItemModel</text>
</a>
</g>
</g>
<!-- Node12&#45;&gt;Node13 -->
<g id="edge12_Node000012_Node000013" class="edge">
<title>Node12&#45;&gt;Node13</title>
<g id="a_edge12_Node000012_Node000013"><a xlink:title=" ">
<path fill="none" stroke="#63b8ff" d="M819.84,-54.75C819.32,-47.8 818.56,-37.85 817.91,-29.13"/>
<polygon fill="#63b8ff" stroke="#63b8ff" points="821.39,-28.8 817.15,-19.09 814.41,-29.32 821.39,-28.8"/>
</a>
</g>
</g>
</g>
</svg>
