<?xml version="1.0" encoding="UTF-8" standalone="no"?>
<!DOCTYPE svg PUBLIC "-//W3C//DTD SVG 1.1//EN"
 "http://www.w3.org/Graphics/SVG/1.1/DTD/svg11.dtd">
<!-- Generated by graphviz version 2.43.0 (0)
 -->
<!-- Title: src/Viewer3D/Viewer3DTerrainGeometry.cc Pages: 1 -->
<svg width="1819pt" height="368pt"
 viewBox="0.00 0.00 1819.00 368.00" xmlns="http://www.w3.org/2000/svg" xmlns:xlink="http://www.w3.org/1999/xlink">
<g id="graph0" class="graph" transform="scale(1 1) rotate(0) translate(4 364)">
<title>src/Viewer3D/Viewer3DTerrainGeometry.cc</title>
<!-- Node1 -->
<g id="Node000001" class="node">
<title>Node1</title>
<g id="a_Node000001"><a xlink:title=" ">
<polygon fill="#999999" stroke="#666666" points="1054.5,-360 890.5,-360 890.5,-330 1054.5,-330 1054.5,-360"/>
<text text-anchor="start" x="898.5" y="-348" font-family="Helvetica,sans-Serif" font-size="10.00">src/Viewer3D/Viewer3DTerrain</text>
<text text-anchor="middle" x="972.5" y="-337" font-family="Helvetica,sans-Serif" font-size="10.00">Geometry.cc</text>
</a>
</g>
</g>
<!-- Node2 -->
<g id="Node000002" class="node">
<title>Node2</title>
<g id="a_Node000002"><a xlink:href="Viewer3DTerrainGeometry_8h.html" target="_top" xlink:title=" ">
<polygon fill="white" stroke="#666666" points="487,-74 334,-74 334,-55 487,-55 487,-74"/>
<text text-anchor="middle" x="410.5" y="-62" font-family="Helvetica,sans-Serif" font-size="10.00">Viewer3DTerrainGeometry.h</text>
</a>
</g>
</g>
<!-- Node1&#45;&gt;Node2 -->
<g id="edge1_Node000001_Node000002" class="edge">
<title>Node1&#45;&gt;Node2</title>
<g id="a_edge1_Node000001_Node000002"><a xlink:title=" ">
<path fill="none" stroke="#63b8ff" d="M890.31,-343.85C737.16,-341.32 423.5,-324.66 423.5,-230.5 423.5,-230.5 423.5,-230.5 423.5,-173.5 423.5,-141.96 417.97,-105.62 414.12,-84.15"/>
<polygon fill="#63b8ff" stroke="#63b8ff" points="417.53,-83.33 412.25,-74.14 410.65,-84.61 417.53,-83.33"/>
</a>
</g>
</g>
<!-- Node9 -->
<g id="Node000009" class="node">
<title>Node9</title>
<g id="a_Node000009"><a xlink:href="QGCGeo_8h.html" target="_top" xlink:title="Geographic coordinate conversion utilities using GeographicLib.">
<polygon fill="white" stroke="#666666" points="572,-74 505,-74 505,-55 572,-55 572,-74"/>
<text text-anchor="middle" x="538.5" y="-62" font-family="Helvetica,sans-Serif" font-size="10.00">QGCGeo.h</text>
</a>
</g>
</g>
<!-- Node1&#45;&gt;Node9 -->
<g id="edge8_Node000001_Node000009" class="edge">
<title>Node1&#45;&gt;Node9</title>
<g id="a_edge8_Node000001_Node000009"><a xlink:title=" ">
<path fill="none" stroke="#63b8ff" d="M890.33,-341.58C751.75,-335.25 486.5,-312.43 486.5,-230.5 486.5,-230.5 486.5,-230.5 486.5,-173.5 486.5,-144.04 492.31,-136.34 505.5,-110 510.5,-100.02 517.75,-89.95 524.18,-81.91"/>
<polygon fill="#63b8ff" stroke="#63b8ff" points="526.97,-84.02 530.69,-74.1 521.6,-79.54 526.97,-84.02"/>
</a>
</g>
</g>
<!-- Node10 -->
<g id="Node000010" class="node">
<title>Node10</title>
<g id="a_Node000010"><a xlink:href="QGCLoggingCategory_8h.html" target="_top" xlink:title=" ">
<polygon fill="white" stroke="#666666" points="849.5,-184 721.5,-184 721.5,-165 849.5,-165 849.5,-184"/>
<text text-anchor="middle" x="785.5" y="-172" font-family="Helvetica,sans-Serif" font-size="10.00">QGCLoggingCategory.h</text>
</a>
</g>
</g>
<!-- Node1&#45;&gt;Node10 -->
<g id="edge12_Node000001_Node000010" class="edge">
<title>Node1&#45;&gt;Node10</title>
<g id="a_edge12_Node000001_Node000010"><a xlink:title=" ">
<path fill="none" stroke="#63b8ff" d="M956.88,-329.92C922.26,-298.73 839.29,-223.97 803,-191.27"/>
<polygon fill="#63b8ff" stroke="#63b8ff" points="804.99,-188.35 795.22,-184.25 800.3,-193.55 804.99,-188.35"/>
</a>
</g>
</g>
<!-- Node17 -->
<g id="Node000017" class="node">
<title>Node17</title>
<g id="a_Node000017"><a xlink:href="SettingsManager_8h.html" target="_top" xlink:title=" ">
<polygon fill="white" stroke="#666666" points="1058,-74 951,-74 951,-55 1058,-55 1058,-74"/>
<text text-anchor="middle" x="1004.5" y="-62" font-family="Helvetica,sans-Serif" font-size="10.00">SettingsManager.h</text>
</a>
</g>
</g>
<!-- Node1&#45;&gt;Node17 -->
<g id="edge23_Node000001_Node000017" class="edge">
<title>Node1&#45;&gt;Node17</title>
<g id="a_edge23_Node000001_Node000017"><a xlink:title=" ">
<path fill="none" stroke="#63b8ff" d="M979.29,-329.67C988.68,-308.49 1004.5,-267.35 1004.5,-230.5 1004.5,-230.5 1004.5,-230.5 1004.5,-173.5 1004.5,-142.19 1004.5,-105.77 1004.5,-84.23"/>
<polygon fill="#63b8ff" stroke="#63b8ff" points="1008,-84.18 1004.5,-74.18 1001,-84.18 1008,-84.18"/>
</a>
</g>
</g>
<!-- Node19 -->
<g id="Node000019" class="node">
<title>Node19</title>
<g id="a_Node000019"><a xlink:href="Viewer3DSettings_8h.html" target="_top" xlink:title=" ">
<polygon fill="white" stroke="#666666" points="1146,-294 1033,-294 1033,-275 1146,-275 1146,-294"/>
<text text-anchor="middle" x="1089.5" y="-282" font-family="Helvetica,sans-Serif" font-size="10.00">Viewer3DSettings.h</text>
</a>
</g>
</g>
<!-- Node1&#45;&gt;Node19 -->
<g id="edge29_Node000001_Node000019" class="edge">
<title>Node1&#45;&gt;Node19</title>
<g id="a_edge29_Node000001_Node000019"><a xlink:title=" ">
<path fill="none" stroke="#63b8ff" d="M1000.52,-329.99C1019.52,-320.49 1044.47,-308.02 1063.11,-298.69"/>
<polygon fill="#63b8ff" stroke="#63b8ff" points="1064.84,-301.74 1072.22,-294.14 1061.71,-295.48 1064.84,-301.74"/>
</a>
</g>
</g>
<!-- Node29 -->
<g id="Node000029" class="node">
<title>Node29</title>
<g id="a_Node000029"><a xlink:title=" ">
<polygon fill="#e0e0e0" stroke="#999999" points="1211,-294 1164,-294 1164,-275 1211,-275 1211,-294"/>
<text text-anchor="middle" x="1187.5" y="-282" font-family="Helvetica,sans-Serif" font-size="10.00">cmath</text>
</a>
</g>
</g>
<!-- Node1&#45;&gt;Node29 -->
<g id="edge52_Node000001_Node000029" class="edge">
<title>Node1&#45;&gt;Node29</title>
<g id="a_edge52_Node000001_Node000029"><a xlink:title=" ">
<path fill="none" stroke="#63b8ff" d="M1024,-329.99C1064.36,-319 1119.34,-304.04 1154.13,-294.58"/>
<polygon fill="#63b8ff" stroke="#63b8ff" points="1155.08,-297.95 1163.81,-291.95 1153.24,-291.19 1155.08,-297.95"/>
</a>
</g>
</g>
<!-- Node3 -->
<g id="Node000003" class="node">
<title>Node3</title>
<g id="a_Node000003"><a xlink:title=" ">
<polygon fill="#e0e0e0" stroke="#999999" points="916,-19 773,-19 773,0 916,0 916,-19"/>
<text text-anchor="middle" x="844.5" y="-7" font-family="Helvetica,sans-Serif" font-size="10.00">QtCore/QLoggingCategory</text>
</a>
</g>
</g>
<!-- Node2&#45;&gt;Node3 -->
<g id="edge2_Node000002_Node000003" class="edge">
<title>Node2&#45;&gt;Node3</title>
<g id="a_edge2_Node000002_Node000003"><a xlink:title=" ">
<path fill="none" stroke="#63b8ff" d="M480.23,-54.98C557.78,-45.51 682.85,-30.24 764.37,-20.29"/>
<polygon fill="#63b8ff" stroke="#63b8ff" points="765.08,-23.72 774.58,-19.04 764.23,-16.78 765.08,-23.72"/>
</a>
</g>
</g>
<!-- Node4 -->
<g id="Node000004" class="node">
<title>Node4</title>
<g id="a_Node000004"><a xlink:title=" ">
<polygon fill="#e0e0e0" stroke="#999999" points="99,-19 0,-19 0,0 99,0 99,-19"/>
<text text-anchor="middle" x="49.5" y="-7" font-family="Helvetica,sans-Serif" font-size="10.00">QtGui/QVector2D</text>
</a>
</g>
</g>
<!-- Node2&#45;&gt;Node4 -->
<g id="edge3_Node000002_Node000004" class="edge">
<title>Node2&#45;&gt;Node4</title>
<g id="a_edge3_Node000002_Node000004"><a xlink:title=" ">
<path fill="none" stroke="#63b8ff" d="M352.5,-54.98C285.77,-45.19 176.74,-29.18 109.27,-19.28"/>
<polygon fill="#63b8ff" stroke="#63b8ff" points="109.62,-15.79 99.22,-17.8 108.61,-22.72 109.62,-15.79"/>
</a>
</g>
</g>
<!-- Node5 -->
<g id="Node000005" class="node">
<title>Node5</title>
<g id="a_Node000005"><a xlink:title=" ">
<polygon fill="#e0e0e0" stroke="#999999" points="588,-19 489,-19 489,0 588,0 588,-19"/>
<text text-anchor="middle" x="538.5" y="-7" font-family="Helvetica,sans-Serif" font-size="10.00">QtGui/QVector3D</text>
</a>
</g>
</g>
<!-- Node2&#45;&gt;Node5 -->
<g id="edge4_Node000002_Node000005" class="edge">
<title>Node2&#45;&gt;Node5</title>
<g id="a_edge4_Node000002_Node000005"><a xlink:title=" ">
<path fill="none" stroke="#63b8ff" d="M431.07,-54.98C451.93,-46.34 484.47,-32.87 508.27,-23.02"/>
<polygon fill="#63b8ff" stroke="#63b8ff" points="509.66,-26.23 517.56,-19.17 506.98,-19.76 509.66,-26.23"/>
</a>
</g>
</g>
<!-- Node6 -->
<g id="Node000006" class="node">
<title>Node6</title>
<g id="a_Node000006"><a xlink:title=" ">
<polygon fill="#e0e0e0" stroke="#999999" points="471,-19 306,-19 306,0 471,0 471,-19"/>
<text text-anchor="middle" x="388.5" y="-7" font-family="Helvetica,sans-Serif" font-size="10.00">QtPositioning/QGeoCoordinate</text>
</a>
</g>
</g>
<!-- Node2&#45;&gt;Node6 -->
<g id="edge5_Node000002_Node000006" class="edge">
<title>Node2&#45;&gt;Node6</title>
<g id="a_edge5_Node000002_Node000006"><a xlink:title=" ">
<path fill="none" stroke="#63b8ff" d="M406.87,-54.75C403.92,-47.65 399.67,-37.4 395.99,-28.56"/>
<polygon fill="#63b8ff" stroke="#63b8ff" points="399.13,-26.98 392.07,-19.09 392.67,-29.67 399.13,-26.98"/>
</a>
</g>
</g>
<!-- Node7 -->
<g id="Node000007" class="node">
<title>Node7</title>
<g id="a_Node000007"><a xlink:title=" ">
<polygon fill="#e0e0e0" stroke="#999999" points="1224,-19 1035,-19 1035,0 1224,0 1224,-19"/>
<text text-anchor="middle" x="1129.5" y="-7" font-family="Helvetica,sans-Serif" font-size="10.00">QtQmlIntegration/QtQmlIntegration</text>
</a>
</g>
</g>
<!-- Node2&#45;&gt;Node7 -->
<g id="edge6_Node000002_Node000007" class="edge">
<title>Node2&#45;&gt;Node7</title>
<g id="a_edge6_Node000002_Node000007"><a xlink:title=" ">
<path fill="none" stroke="#63b8ff" d="M487.4,-55.7C490.13,-55.46 492.84,-55.22 495.5,-55 727.44,-35.53 788.35,-36.58 1024.56,-19.06"/>
<polygon fill="#63b8ff" stroke="#63b8ff" points="1025.13,-22.53 1034.85,-18.29 1024.61,-15.54 1025.13,-22.53"/>
</a>
</g>
</g>
<!-- Node8 -->
<g id="Node000008" class="node">
<title>Node8</title>
<g id="a_Node000008"><a xlink:title=" ">
<polygon fill="#e0e0e0" stroke="#999999" points="287.5,-19 117.5,-19 117.5,0 287.5,0 287.5,-19"/>
<text text-anchor="middle" x="202.5" y="-7" font-family="Helvetica,sans-Serif" font-size="10.00">QtQuick3D/QQuick3DGeometry</text>
</a>
</g>
</g>
<!-- Node2&#45;&gt;Node8 -->
<g id="edge7_Node000002_Node000008" class="edge">
<title>Node2&#45;&gt;Node8</title>
<g id="a_edge7_Node000002_Node000008"><a xlink:title=" ">
<path fill="none" stroke="#63b8ff" d="M377.08,-54.98C341.56,-45.93 285.23,-31.58 246.2,-21.64"/>
<polygon fill="#63b8ff" stroke="#63b8ff" points="246.74,-18.16 236.18,-19.08 245.01,-24.94 246.74,-18.16"/>
</a>
</g>
</g>
<!-- Node9&#45;&gt;Node3 -->
<g id="edge9_Node000009_Node000003" class="edge">
<title>Node9&#45;&gt;Node3</title>
<g id="a_edge9_Node000009_Node000003"><a xlink:title=" ">
<path fill="none" stroke="#63b8ff" d="M572.12,-57.68C623.41,-48.79 721.89,-31.74 785.33,-20.75"/>
<polygon fill="#63b8ff" stroke="#63b8ff" points="785.94,-24.2 795.2,-19.04 784.74,-17.3 785.94,-24.2"/>
</a>
</g>
</g>
<!-- Node9&#45;&gt;Node5 -->
<g id="edge10_Node000009_Node000005" class="edge">
<title>Node9&#45;&gt;Node5</title>
<g id="a_edge10_Node000009_Node000005"><a xlink:title=" ">
<path fill="none" stroke="#63b8ff" d="M538.5,-54.75C538.5,-47.8 538.5,-37.85 538.5,-29.13"/>
<polygon fill="#63b8ff" stroke="#63b8ff" points="542,-29.09 538.5,-19.09 535,-29.09 542,-29.09"/>
</a>
</g>
</g>
<!-- Node9&#45;&gt;Node6 -->
<g id="edge11_Node000009_Node000006" class="edge">
<title>Node9&#45;&gt;Node6</title>
<g id="a_edge11_Node000009_Node000006"><a xlink:title=" ">
<path fill="none" stroke="#63b8ff" d="M514.4,-54.98C489.62,-46.23 450.8,-32.51 422.81,-22.62"/>
<polygon fill="#63b8ff" stroke="#63b8ff" points="423.63,-19.2 413.04,-19.17 421.3,-25.8 423.63,-19.2"/>
</a>
</g>
</g>
<!-- Node10&#45;&gt;Node3 -->
<g id="edge19_Node000010_Node000003" class="edge">
<title>Node10&#45;&gt;Node3</title>
<g id="a_edge19_Node000010_Node000003"><a xlink:title=" ">
<path fill="none" stroke="#63b8ff" d="M741.88,-164.93C720.8,-158.54 697,-147.58 682.5,-129 662.12,-102.88 653.24,-81.21 673.5,-55 685.72,-39.19 729.78,-27.95 770.11,-20.72"/>
<polygon fill="#63b8ff" stroke="#63b8ff" points="770.73,-24.17 779.99,-19.01 769.54,-17.27 770.73,-24.17"/>
</a>
</g>
</g>
<!-- Node11 -->
<g id="Node000011" class="node">
<title>Node11</title>
<g id="a_Node000011"><a xlink:href="QmlObjectListModel_8h.html" target="_top" xlink:title=" ">
<polygon fill="white" stroke="#666666" points="817,-129 692,-129 692,-110 817,-110 817,-129"/>
<text text-anchor="middle" x="754.5" y="-117" font-family="Helvetica,sans-Serif" font-size="10.00">QmlObjectListModel.h</text>
</a>
</g>
</g>
<!-- Node10&#45;&gt;Node11 -->
<g id="edge13_Node000010_Node000011" class="edge">
<title>Node10&#45;&gt;Node11</title>
<g id="a_edge13_Node000010_Node000011"><a xlink:title=" ">
<path fill="none" stroke="#63b8ff" d="M780.38,-164.75C776.14,-157.49 769.97,-146.95 764.72,-137.98"/>
<polygon fill="#63b8ff" stroke="#63b8ff" points="767.59,-135.95 759.52,-129.09 761.55,-139.49 767.59,-135.95"/>
</a>
</g>
</g>
<!-- Node14 -->
<g id="Node000014" class="node">
<title>Node14</title>
<g id="a_Node000014"><a xlink:title=" ">
<polygon fill="#e0e0e0" stroke="#999999" points="1465.5,-19 1373.5,-19 1373.5,0 1465.5,0 1465.5,-19"/>
<text text-anchor="middle" x="1419.5" y="-7" font-family="Helvetica,sans-Serif" font-size="10.00">QtCore/QObject</text>
</a>
</g>
</g>
<!-- Node10&#45;&gt;Node14 -->
<g id="edge20_Node000010_Node000014" class="edge">
<title>Node10&#45;&gt;Node14</title>
<g id="a_edge20_Node000010_Node000014"><a xlink:title=" ">
<path fill="none" stroke="#63b8ff" d="M810.79,-164.94C873.29,-144.02 1040.25,-89.49 1182.5,-55 1243.85,-40.13 1315.14,-27.34 1363.39,-19.34"/>
<polygon fill="#63b8ff" stroke="#63b8ff" points="1364.02,-22.78 1373.32,-17.7 1362.88,-15.87 1364.02,-22.78"/>
</a>
</g>
</g>
<!-- Node15 -->
<g id="Node000015" class="node">
<title>Node15</title>
<g id="a_Node000015"><a xlink:title=" ">
<polygon fill="#e0e0e0" stroke="#999999" points="622,-129 515,-129 515,-110 622,-110 622,-129"/>
<text text-anchor="middle" x="568.5" y="-117" font-family="Helvetica,sans-Serif" font-size="10.00">QtCore/QStringList</text>
</a>
</g>
</g>
<!-- Node10&#45;&gt;Node15 -->
<g id="edge21_Node000010_Node000015" class="edge">
<title>Node10&#45;&gt;Node15</title>
<g id="a_edge21_Node000010_Node000015"><a xlink:title=" ">
<path fill="none" stroke="#63b8ff" d="M750.64,-164.98C713.41,-155.89 654.3,-141.46 613.57,-131.51"/>
<polygon fill="#63b8ff" stroke="#63b8ff" points="614.18,-128.05 603.64,-129.08 612.52,-134.85 614.18,-128.05"/>
</a>
</g>
</g>
<!-- Node16 -->
<g id="Node000016" class="node">
<title>Node16</title>
<g id="a_Node000016"><a xlink:title=" ">
<polygon fill="#e0e0e0" stroke="#999999" points="1016.5,-19 934.5,-19 934.5,0 1016.5,0 1016.5,-19"/>
<text text-anchor="middle" x="975.5" y="-7" font-family="Helvetica,sans-Serif" font-size="10.00">QtCore/QMap</text>
</a>
</g>
</g>
<!-- Node10&#45;&gt;Node16 -->
<g id="edge22_Node000010_Node000016" class="edge">
<title>Node10&#45;&gt;Node16</title>
<g id="a_edge22_Node000010_Node000016"><a xlink:title=" ">
<path fill="none" stroke="#63b8ff" d="M795.45,-164.97C825.83,-138.9 917.74,-60.06 957.19,-26.21"/>
<polygon fill="#63b8ff" stroke="#63b8ff" points="959.88,-28.51 965.19,-19.34 955.32,-23.2 959.88,-28.51"/>
</a>
</g>
</g>
<!-- Node11&#45;&gt;Node3 -->
<g id="edge18_Node000011_Node000003" class="edge">
<title>Node11&#45;&gt;Node3</title>
<g id="a_edge18_Node000011_Node000003"><a xlink:title=" ">
<path fill="none" stroke="#63b8ff" d="M730.42,-109.89C702.95,-98.73 663.97,-77.96 681.5,-55 693.23,-39.64 736.04,-28.31 774.85,-20.92"/>
<polygon fill="#63b8ff" stroke="#63b8ff" points="775.93,-24.28 785.13,-19.04 774.66,-17.4 775.93,-24.28"/>
</a>
</g>
</g>
<!-- Node12 -->
<g id="Node000012" class="node">
<title>Node12</title>
<g id="a_Node000012"><a xlink:href="ObjectListModelBase_8h.html" target="_top" xlink:title=" ">
<polygon fill="white" stroke="#666666" points="818.5,-74 690.5,-74 690.5,-55 818.5,-55 818.5,-74"/>
<text text-anchor="middle" x="754.5" y="-62" font-family="Helvetica,sans-Serif" font-size="10.00">ObjectListModelBase.h</text>
</a>
</g>
</g>
<!-- Node11&#45;&gt;Node12 -->
<g id="edge14_Node000011_Node000012" class="edge">
<title>Node11&#45;&gt;Node12</title>
<g id="a_edge14_Node000011_Node000012"><a xlink:title=" ">
<path fill="none" stroke="#63b8ff" d="M754.5,-109.75C754.5,-102.8 754.5,-92.85 754.5,-84.13"/>
<polygon fill="#63b8ff" stroke="#63b8ff" points="758,-84.09 754.5,-74.09 751,-84.09 758,-84.09"/>
</a>
</g>
</g>
<!-- Node12&#45;&gt;Node3 -->
<g id="edge16_Node000012_Node000003" class="edge">
<title>Node12&#45;&gt;Node3</title>
<g id="a_edge16_Node000012_Node000003"><a xlink:title=" ">
<path fill="none" stroke="#63b8ff" d="M768.96,-54.98C782.92,-46.77 804.29,-34.18 820.75,-24.49"/>
<polygon fill="#63b8ff" stroke="#63b8ff" points="822.94,-27.26 829.78,-19.17 819.38,-21.23 822.94,-27.26"/>
</a>
</g>
</g>
<!-- Node12&#45;&gt;Node7 -->
<g id="edge17_Node000012_Node000007" class="edge">
<title>Node12&#45;&gt;Node7</title>
<g id="a_edge17_Node000012_Node000007"><a xlink:title=" ">
<path fill="none" stroke="#63b8ff" d="M814.75,-54.98C881.35,-45.57 988.51,-30.43 1058.97,-20.47"/>
<polygon fill="#63b8ff" stroke="#63b8ff" points="1059.68,-23.9 1069.09,-19.04 1058.7,-16.97 1059.68,-23.9"/>
</a>
</g>
</g>
<!-- Node13 -->
<g id="Node000013" class="node">
<title>Node13</title>
<g id="a_Node000013"><a xlink:title=" ">
<polygon fill="#e0e0e0" stroke="#999999" points="755,-19 606,-19 606,0 755,0 755,-19"/>
<text text-anchor="middle" x="680.5" y="-7" font-family="Helvetica,sans-Serif" font-size="10.00">QtCore/QAbstractListModel</text>
</a>
</g>
</g>
<!-- Node12&#45;&gt;Node13 -->
<g id="edge15_Node000012_Node000013" class="edge">
<title>Node12&#45;&gt;Node13</title>
<g id="a_edge15_Node000012_Node000013"><a xlink:title=" ">
<path fill="none" stroke="#63b8ff" d="M742.61,-54.98C731.35,-46.92 714.21,-34.65 700.79,-25.03"/>
<polygon fill="#63b8ff" stroke="#63b8ff" points="702.77,-22.15 692.61,-19.17 698.7,-27.84 702.77,-22.15"/>
</a>
</g>
</g>
<!-- Node17&#45;&gt;Node3 -->
<g id="edge24_Node000017_Node000003" class="edge">
<title>Node17&#45;&gt;Node3</title>
<g id="a_edge24_Node000017_Node000003"><a xlink:title=" ">
<path fill="none" stroke="#63b8ff" d="M978.79,-54.98C952.05,-46.13 909.97,-32.19 880.05,-22.28"/>
<polygon fill="#63b8ff" stroke="#63b8ff" points="881,-18.9 870.41,-19.08 878.8,-25.55 881,-18.9"/>
</a>
</g>
</g>
<!-- Node17&#45;&gt;Node7 -->
<g id="edge26_Node000017_Node000007" class="edge">
<title>Node17&#45;&gt;Node7</title>
<g id="a_edge26_Node000017_Node000007"><a xlink:title=" ">
<path fill="none" stroke="#63b8ff" d="M1024.58,-54.98C1044.87,-46.38 1076.46,-32.99 1099.67,-23.15"/>
<polygon fill="#63b8ff" stroke="#63b8ff" points="1101.21,-26.3 1109.05,-19.17 1098.48,-19.85 1101.21,-26.3"/>
</a>
</g>
</g>
<!-- Node17&#45;&gt;Node14 -->
<g id="edge25_Node000017_Node000014" class="edge">
<title>Node17&#45;&gt;Node14</title>
<g id="a_edge25_Node000017_Node000014"><a xlink:title=" ">
<path fill="none" stroke="#63b8ff" d="M1058.24,-57.37C1126.67,-49.46 1248.8,-34.94 1363.31,-19.13"/>
<polygon fill="#63b8ff" stroke="#63b8ff" points="1363.88,-22.58 1373.3,-17.74 1362.92,-15.65 1363.88,-22.58"/>
</a>
</g>
</g>
<!-- Node17&#45;&gt;Node16 -->
<g id="edge28_Node000017_Node000016" class="edge">
<title>Node17&#45;&gt;Node16</title>
<g id="a_edge28_Node000017_Node000016"><a xlink:title=" ">
<path fill="none" stroke="#63b8ff" d="M999.71,-54.75C995.74,-47.49 989.97,-36.95 985.07,-27.98"/>
<polygon fill="#63b8ff" stroke="#63b8ff" points="988.07,-26.18 980.2,-19.09 981.93,-29.54 988.07,-26.18"/>
</a>
</g>
</g>
<!-- Node18 -->
<g id="Node000018" class="node">
<title>Node18</title>
<g id="a_Node000018"><a xlink:title=" ">
<polygon fill="#e0e0e0" stroke="#999999" points="1355,-19 1242,-19 1242,0 1355,0 1355,-19"/>
<text text-anchor="middle" x="1298.5" y="-7" font-family="Helvetica,sans-Serif" font-size="10.00">QtCore/QJsonObject</text>
</a>
</g>
</g>
<!-- Node17&#45;&gt;Node18 -->
<g id="edge27_Node000017_Node000018" class="edge">
<title>Node17&#45;&gt;Node18</title>
<g id="a_edge27_Node000017_Node000018"><a xlink:title=" ">
<path fill="none" stroke="#63b8ff" d="M1051.74,-54.98C1103.23,-45.7 1185.66,-30.84 1240.91,-20.88"/>
<polygon fill="#63b8ff" stroke="#63b8ff" points="1241.67,-24.3 1250.89,-19.08 1240.43,-17.41 1241.67,-24.3"/>
</a>
</g>
</g>
<!-- Node19&#45;&gt;Node7 -->
<g id="edge30_Node000019_Node000007" class="edge">
<title>Node19&#45;&gt;Node7</title>
<g id="a_edge30_Node000019_Node000007"><a xlink:title=" ">
<path fill="none" stroke="#63b8ff" d="M1089.1,-274.82C1088.28,-256.49 1086.5,-212.45 1086.5,-175.5 1086.5,-175.5 1086.5,-175.5 1086.5,-118.5 1086.5,-84.53 1105.09,-48.53 1117.83,-27.87"/>
<polygon fill="#63b8ff" stroke="#63b8ff" points="1120.89,-29.58 1123.34,-19.27 1115,-25.8 1120.89,-29.58"/>
</a>
</g>
</g>
<!-- Node20 -->
<g id="Node000020" class="node">
<title>Node20</title>
<g id="a_Node000020"><a xlink:href="SettingsGroup_8h.html" target="_top" xlink:title=" ">
<polygon fill="white" stroke="#666666" points="1330,-239 1235,-239 1235,-220 1330,-220 1330,-239"/>
<text text-anchor="middle" x="1282.5" y="-227" font-family="Helvetica,sans-Serif" font-size="10.00">SettingsGroup.h</text>
</a>
</g>
</g>
<!-- Node19&#45;&gt;Node20 -->
<g id="edge31_Node000019_Node000020" class="edge">
<title>Node19&#45;&gt;Node20</title>
<g id="a_edge31_Node000019_Node000020"><a xlink:title=" ">
<path fill="none" stroke="#63b8ff" d="M1120.51,-274.98C1153.33,-265.97 1205.3,-251.7 1241.49,-241.76"/>
<polygon fill="#63b8ff" stroke="#63b8ff" points="1242.53,-245.11 1251.25,-239.08 1240.68,-238.36 1242.53,-245.11"/>
</a>
</g>
</g>
<!-- Node21 -->
<g id="Node000021" class="node">
<title>Node21</title>
<g id="a_Node000021"><a xlink:href="SettingsFact_8h.html" target="_top" xlink:title=" ">
<polygon fill="white" stroke="#666666" points="1512,-184 1427,-184 1427,-165 1512,-165 1512,-184"/>
<text text-anchor="middle" x="1469.5" y="-172" font-family="Helvetica,sans-Serif" font-size="10.00">SettingsFact.h</text>
</a>
</g>
</g>
<!-- Node20&#45;&gt;Node21 -->
<g id="edge32_Node000020_Node000021" class="edge">
<title>Node20&#45;&gt;Node21</title>
<g id="a_edge32_Node000020_Node000021"><a xlink:title=" ">
<path fill="none" stroke="#63b8ff" d="M1312.54,-219.98C1344.21,-211.01 1394.27,-196.82 1429.31,-186.89"/>
<polygon fill="#63b8ff" stroke="#63b8ff" points="1430.55,-190.18 1439.22,-184.08 1428.64,-183.44 1430.55,-190.18"/>
</a>
</g>
</g>
<!-- Node21&#45;&gt;Node3 -->
<g id="edge33_Node000021_Node000003" class="edge">
<title>Node21&#45;&gt;Node3</title>
<g id="a_edge33_Node000021_Node000003"><a xlink:title=" ">
<path fill="none" stroke="#63b8ff" d="M1426.59,-169.69C1310.25,-158.8 991.49,-124.97 900.5,-74 880.93,-63.04 864.8,-42.59 854.95,-27.85"/>
<polygon fill="#63b8ff" stroke="#63b8ff" points="857.74,-25.71 849.42,-19.15 851.83,-29.47 857.74,-25.71"/>
</a>
</g>
</g>
<!-- Node21&#45;&gt;Node14 -->
<g id="edge34_Node000021_Node000014" class="edge">
<title>Node21&#45;&gt;Node14</title>
<g id="a_edge34_Node000021_Node000014"><a xlink:title=" ">
<path fill="none" stroke="#63b8ff" d="M1495.74,-164.95C1546.13,-147.17 1648.18,-103.78 1609.5,-55 1601.07,-44.37 1528.81,-29.62 1475.89,-20.07"/>
<polygon fill="#63b8ff" stroke="#63b8ff" points="1476.38,-16.6 1465.92,-18.29 1475.15,-23.49 1476.38,-16.6"/>
</a>
</g>
</g>
<!-- Node22 -->
<g id="Node000022" class="node">
<title>Node22</title>
<g id="a_Node000022"><a xlink:title=" ">
<polygon fill="#e0e0e0" stroke="#999999" points="1811,-19 1722,-19 1722,0 1811,0 1811,-19"/>
<text text-anchor="middle" x="1766.5" y="-7" font-family="Helvetica,sans-Serif" font-size="10.00">QtCore/QString</text>
</a>
</g>
</g>
<!-- Node21&#45;&gt;Node22 -->
<g id="edge35_Node000021_Node000022" class="edge">
<title>Node21&#45;&gt;Node22</title>
<g id="a_edge35_Node000021_Node000022"><a xlink:title=" ">
<path fill="none" stroke="#63b8ff" d="M1503.43,-164.93C1530.55,-157.39 1569.08,-145.11 1600.5,-129 1659,-99.01 1719.97,-50.19 1749.05,-25.63"/>
<polygon fill="#63b8ff" stroke="#63b8ff" points="1751.36,-28.26 1756.69,-19.1 1746.81,-22.93 1751.36,-28.26"/>
</a>
</g>
</g>
<!-- Node23 -->
<g id="Node000023" class="node">
<title>Node23</title>
<g id="a_Node000023"><a xlink:href="Fact_8h.html" target="_top" xlink:title=" ">
<polygon fill="white" stroke="#666666" points="1492,-129 1447,-129 1447,-110 1492,-110 1492,-129"/>
<text text-anchor="middle" x="1469.5" y="-117" font-family="Helvetica,sans-Serif" font-size="10.00">Fact.h</text>
</a>
</g>
</g>
<!-- Node21&#45;&gt;Node23 -->
<g id="edge36_Node000021_Node000023" class="edge">
<title>Node21&#45;&gt;Node23</title>
<g id="a_edge36_Node000021_Node000023"><a xlink:title=" ">
<path fill="none" stroke="#63b8ff" d="M1469.5,-164.75C1469.5,-157.8 1469.5,-147.85 1469.5,-139.13"/>
<polygon fill="#63b8ff" stroke="#63b8ff" points="1473,-139.09 1469.5,-129.09 1466,-139.09 1473,-139.09"/>
</a>
</g>
</g>
<!-- Node23&#45;&gt;Node3 -->
<g id="edge37_Node000023_Node000003" class="edge">
<title>Node23&#45;&gt;Node3</title>
<g id="a_edge37_Node000023_Node000003"><a xlink:title=" ">
<path fill="none" stroke="#63b8ff" d="M1446.84,-118.05C1358.58,-116.06 1038.06,-106.69 942.5,-74 911.53,-63.41 880.65,-40.92 862.06,-25.76"/>
<polygon fill="#63b8ff" stroke="#63b8ff" points="864.12,-22.91 854.2,-19.18 859.62,-28.28 864.12,-22.91"/>
</a>
</g>
</g>
<!-- Node23&#45;&gt;Node7 -->
<g id="edge43_Node000023_Node000007" class="edge">
<title>Node23&#45;&gt;Node7</title>
<g id="a_edge43_Node000023_Node000007"><a xlink:title=" ">
<path fill="none" stroke="#63b8ff" d="M1446.97,-117.06C1387.54,-112.93 1227.93,-99.68 1182.5,-74 1163.43,-63.22 1148.26,-42.73 1139.12,-27.94"/>
<polygon fill="#63b8ff" stroke="#63b8ff" points="1142.08,-26.06 1134.01,-19.2 1136.04,-29.6 1142.08,-26.06"/>
</a>
</g>
</g>
<!-- Node23&#45;&gt;Node14 -->
<g id="edge39_Node000023_Node000014" class="edge">
<title>Node23&#45;&gt;Node14</title>
<g id="a_edge39_Node000023_Node000014"><a xlink:title=" ">
<path fill="none" stroke="#63b8ff" d="M1492.19,-115.75C1535.34,-109.6 1622.42,-92.25 1593.5,-55 1586.02,-45.37 1522.76,-30.9 1474.65,-21.1"/>
<polygon fill="#63b8ff" stroke="#63b8ff" points="1475.13,-17.63 1464.64,-19.08 1473.75,-24.49 1475.13,-17.63"/>
</a>
</g>
</g>
<!-- Node23&#45;&gt;Node22 -->
<g id="edge41_Node000023_Node000022" class="edge">
<title>Node23&#45;&gt;Node22</title>
<g id="a_edge41_Node000023_Node000022"><a xlink:title=" ">
<path fill="none" stroke="#63b8ff" d="M1492.04,-113.67C1523.86,-106.56 1583.53,-92.13 1632.5,-74 1671.85,-59.43 1715.41,-37.68 1741.87,-23.79"/>
<polygon fill="#63b8ff" stroke="#63b8ff" points="1743.6,-26.83 1750.8,-19.06 1740.33,-20.64 1743.6,-26.83"/>
</a>
</g>
</g>
<!-- Node24 -->
<g id="Node000024" class="node">
<title>Node24</title>
<g id="a_Node000024"><a xlink:title=" ">
<polygon fill="#e0e0e0" stroke="#999999" points="1314,-74 1191,-74 1191,-55 1314,-55 1314,-74"/>
<text text-anchor="middle" x="1252.5" y="-62" font-family="Helvetica,sans-Serif" font-size="10.00">QtCore/QMutexLocker</text>
</a>
</g>
</g>
<!-- Node23&#45;&gt;Node24 -->
<g id="edge38_Node000023_Node000024" class="edge">
<title>Node23&#45;&gt;Node24</title>
<g id="a_edge38_Node000023_Node000024"><a xlink:title=" ">
<path fill="none" stroke="#63b8ff" d="M1446.69,-112.93C1411.38,-104.3 1342.84,-87.56 1297.36,-76.46"/>
<polygon fill="#63b8ff" stroke="#63b8ff" points="1298.01,-73.01 1287.47,-74.04 1296.35,-79.81 1298.01,-73.01"/>
</a>
</g>
</g>
<!-- Node25 -->
<g id="Node000025" class="node">
<title>Node25</title>
<g id="a_Node000025"><a xlink:title=" ">
<polygon fill="#e0e0e0" stroke="#999999" points="1472.5,-74 1332.5,-74 1332.5,-55 1472.5,-55 1472.5,-74"/>
<text text-anchor="middle" x="1402.5" y="-62" font-family="Helvetica,sans-Serif" font-size="10.00">QtCore/QRecursiveMutex</text>
</a>
</g>
</g>
<!-- Node23&#45;&gt;Node25 -->
<g id="edge40_Node000023_Node000025" class="edge">
<title>Node23&#45;&gt;Node25</title>
<g id="a_edge40_Node000023_Node000025"><a xlink:title=" ">
<path fill="none" stroke="#63b8ff" d="M1458.74,-109.98C1448.73,-102.07 1433.61,-90.11 1421.57,-80.58"/>
<polygon fill="#63b8ff" stroke="#63b8ff" points="1423.47,-77.63 1413.46,-74.17 1419.13,-83.12 1423.47,-77.63"/>
</a>
</g>
</g>
<!-- Node26 -->
<g id="Node000026" class="node">
<title>Node26</title>
<g id="a_Node000026"><a xlink:title=" ">
<polygon fill="#e0e0e0" stroke="#999999" points="1704,-19 1609,-19 1609,0 1704,0 1704,-19"/>
<text text-anchor="middle" x="1656.5" y="-7" font-family="Helvetica,sans-Serif" font-size="10.00">QtCore/QVariant</text>
</a>
</g>
</g>
<!-- Node23&#45;&gt;Node26 -->
<g id="edge42_Node000023_Node000026" class="edge">
<title>Node23&#45;&gt;Node26</title>
<g id="a_edge42_Node000023_Node000026"><a xlink:title=" ">
<path fill="none" stroke="#63b8ff" d="M1492.03,-115.71C1521.4,-111.16 1573.3,-99.88 1609.5,-74 1626.18,-62.07 1639.41,-42.42 1647.53,-28.13"/>
<polygon fill="#63b8ff" stroke="#63b8ff" points="1650.64,-29.72 1652.31,-19.26 1644.48,-26.4 1650.64,-29.72"/>
</a>
</g>
</g>
<!-- Node27 -->
<g id="Node000027" class="node">
<title>Node27</title>
<g id="a_Node000027"><a xlink:href="FactMetaData_8h.html" target="_top" xlink:title=" ">
<polygon fill="white" stroke="#666666" points="1584,-74 1491,-74 1491,-55 1584,-55 1584,-74"/>
<text text-anchor="middle" x="1537.5" y="-62" font-family="Helvetica,sans-Serif" font-size="10.00">FactMetaData.h</text>
</a>
</g>
</g>
<!-- Node23&#45;&gt;Node27 -->
<g id="edge44_Node000023_Node000027" class="edge">
<title>Node23&#45;&gt;Node27</title>
<g id="a_edge44_Node000023_Node000027"><a xlink:title=" ">
<path fill="none" stroke="#63b8ff" d="M1480.43,-109.98C1490.58,-102.07 1505.92,-90.11 1518.15,-80.58"/>
<polygon fill="#63b8ff" stroke="#63b8ff" points="1520.64,-83.08 1526.38,-74.17 1516.34,-77.56 1520.64,-83.08"/>
</a>
</g>
</g>
<!-- Node27&#45;&gt;Node3 -->
<g id="edge45_Node000027_Node000003" class="edge">
<title>Node27&#45;&gt;Node3</title>
<g id="a_edge45_Node000027_Node000003"><a xlink:title=" ">
<path fill="none" stroke="#63b8ff" d="M1490.79,-56.1C1487.65,-55.7 1484.53,-55.33 1481.5,-55 1238.55,-28.75 1173.94,-39.63 926.07,-19.01"/>
<polygon fill="#63b8ff" stroke="#63b8ff" points="926.3,-15.51 916.04,-18.16 925.71,-22.49 926.3,-15.51"/>
</a>
</g>
</g>
<!-- Node27&#45;&gt;Node7 -->
<g id="edge51_Node000027_Node000007" class="edge">
<title>Node27&#45;&gt;Node7</title>
<g id="a_edge51_Node000027_Node000007"><a xlink:title=" ">
<path fill="none" stroke="#63b8ff" d="M1490.76,-56.32C1487.63,-55.86 1484.52,-55.42 1481.5,-55 1389.04,-42.14 1282.69,-28.91 1211.3,-20.26"/>
<polygon fill="#63b8ff" stroke="#63b8ff" points="1211.38,-16.74 1201.03,-19.01 1210.54,-23.69 1211.38,-16.74"/>
</a>
</g>
</g>
<!-- Node27&#45;&gt;Node14 -->
<g id="edge48_Node000027_Node000014" class="edge">
<title>Node27&#45;&gt;Node14</title>
<g id="a_edge48_Node000027_Node000014"><a xlink:title=" ">
<path fill="none" stroke="#63b8ff" d="M1518.54,-54.98C1499.47,-46.42 1469.84,-33.11 1447.95,-23.28"/>
<polygon fill="#63b8ff" stroke="#63b8ff" points="1449.36,-20.07 1438.8,-19.17 1446.49,-26.46 1449.36,-20.07"/>
</a>
</g>
</g>
<!-- Node27&#45;&gt;Node18 -->
<g id="edge47_Node000027_Node000018" class="edge">
<title>Node27&#45;&gt;Node18</title>
<g id="a_edge47_Node000027_Node000018"><a xlink:title=" ">
<path fill="none" stroke="#63b8ff" d="M1499.1,-54.98C1457.76,-45.82 1391.9,-31.21 1347.01,-21.26"/>
<polygon fill="#63b8ff" stroke="#63b8ff" points="1347.72,-17.83 1337.2,-19.08 1346.21,-24.66 1347.72,-17.83"/>
</a>
</g>
</g>
<!-- Node27&#45;&gt;Node22 -->
<g id="edge49_Node000027_Node000022" class="edge">
<title>Node27&#45;&gt;Node22</title>
<g id="a_edge49_Node000027_Node000022"><a xlink:title=" ">
<path fill="none" stroke="#63b8ff" d="M1574.29,-54.98C1613.74,-45.86 1676.48,-31.33 1719.48,-21.38"/>
<polygon fill="#63b8ff" stroke="#63b8ff" points="1720.47,-24.75 1729.42,-19.08 1718.89,-17.93 1720.47,-24.75"/>
</a>
</g>
</g>
<!-- Node27&#45;&gt;Node26 -->
<g id="edge50_Node000027_Node000026" class="edge">
<title>Node27&#45;&gt;Node26</title>
<g id="a_edge50_Node000027_Node000026"><a xlink:title=" ">
<path fill="none" stroke="#63b8ff" d="M1556.62,-54.98C1575.85,-46.42 1605.73,-33.11 1627.81,-23.28"/>
<polygon fill="#63b8ff" stroke="#63b8ff" points="1629.32,-26.44 1637.03,-19.17 1626.47,-20.04 1629.32,-26.44"/>
</a>
</g>
</g>
<!-- Node28 -->
<g id="Node000028" class="node">
<title>Node28</title>
<g id="a_Node000028"><a xlink:title=" ">
<polygon fill="#e0e0e0" stroke="#999999" points="1591,-19 1484,-19 1484,0 1591,0 1591,-19"/>
<text text-anchor="middle" x="1537.5" y="-7" font-family="Helvetica,sans-Serif" font-size="10.00">QtCore/QJsonArray</text>
</a>
</g>
</g>
<!-- Node27&#45;&gt;Node28 -->
<g id="edge46_Node000027_Node000028" class="edge">
<title>Node27&#45;&gt;Node28</title>
<g id="a_edge46_Node000027_Node000028"><a xlink:title=" ">
<path fill="none" stroke="#63b8ff" d="M1537.5,-54.75C1537.5,-47.8 1537.5,-37.85 1537.5,-29.13"/>
<polygon fill="#63b8ff" stroke="#63b8ff" points="1541,-29.09 1537.5,-19.09 1534,-29.09 1541,-29.09"/>
</a>
</g>
</g>
</g>
</svg>
