<?xml version="1.0" encoding="UTF-8" standalone="no"?>
<!DOCTYPE svg PUBLIC "-//W3C//DTD SVG 1.1//EN"
 "http://www.w3.org/Graphics/SVG/1.1/DTD/svg11.dtd">
<!-- Generated by graphviz version 2.43.0 (0)
 -->
<!-- Title: src/Viewer3D/Viewer3DGeoCoordinateType.cc Pages: 1 -->
<svg width="880pt" height="313pt"
 viewBox="0.00 0.00 880.40 313.00" xmlns="http://www.w3.org/2000/svg" xmlns:xlink="http://www.w3.org/1999/xlink">
<g id="graph0" class="graph" transform="scale(1 1) rotate(0) translate(4 309)">
<title>src/Viewer3D/Viewer3DGeoCoordinateType.cc</title>
<!-- Node1 -->
<g id="Node000001" class="node">
<title>Node1</title>
<g id="a_Node000001"><a xlink:title=" ">
<polygon fill="#999999" stroke="#666666" points="407,-305 256,-305 256,-275 407,-275 407,-305"/>
<text text-anchor="start" x="264" y="-293" font-family="Helvetica,sans-Serif" font-size="10.00">src/Viewer3D/Viewer3DGeo</text>
<text text-anchor="middle" x="331.5" y="-282" font-family="Helvetica,sans-Serif" font-size="10.00">CoordinateType.cc</text>
</a>
</g>
</g>
<!-- Node2 -->
<g id="Node000002" class="node">
<title>Node2</title>
<g id="a_Node000002"><a xlink:href="Viewer3DGeoCoordinateType_8h.html" target="_top" xlink:title=" ">
<polygon fill="white" stroke="#666666" points="415.5,-239 247.5,-239 247.5,-220 415.5,-220 415.5,-239"/>
<text text-anchor="middle" x="331.5" y="-227" font-family="Helvetica,sans-Serif" font-size="10.00">Viewer3DGeoCoordinateType.h</text>
</a>
</g>
</g>
<!-- Node1&#45;&gt;Node2 -->
<g id="edge1_Node000001_Node000002" class="edge">
<title>Node1&#45;&gt;Node2</title>
<g id="a_edge1_Node000001_Node000002"><a xlink:title=" ">
<path fill="none" stroke="#63b8ff" d="M331.5,-274.84C331.5,-267.21 331.5,-257.7 331.5,-249.45"/>
<polygon fill="#63b8ff" stroke="#63b8ff" points="335,-249.27 331.5,-239.27 328,-249.27 335,-249.27"/>
</a>
</g>
</g>
<!-- Node8 -->
<g id="Node000008" class="node">
<title>Node8</title>
<g id="a_Node000008"><a xlink:href="QGCGeo_8h.html" target="_top" xlink:title="Geographic coordinate conversion utilities using GeographicLib.">
<polygon fill="white" stroke="#666666" points="167,-239 100,-239 100,-220 167,-220 167,-239"/>
<text text-anchor="middle" x="133.5" y="-227" font-family="Helvetica,sans-Serif" font-size="10.00">QGCGeo.h</text>
</a>
</g>
</g>
<!-- Node1&#45;&gt;Node8 -->
<g id="edge7_Node000001_Node000008" class="edge">
<title>Node1&#45;&gt;Node8</title>
<g id="a_edge7_Node000001_Node000008"><a xlink:title=" ">
<path fill="none" stroke="#63b8ff" d="M284.07,-274.99C249.9,-264.89 204.36,-251.44 172.34,-241.98"/>
<polygon fill="#63b8ff" stroke="#63b8ff" points="173.03,-238.53 162.45,-239.05 171.05,-245.24 173.03,-238.53"/>
</a>
</g>
</g>
<!-- Node9 -->
<g id="Node000009" class="node">
<title>Node9</title>
<g id="a_Node000009"><a xlink:href="QGCLoggingCategory_8h.html" target="_top" xlink:title=" ">
<polygon fill="white" stroke="#666666" points="695.5,-239 567.5,-239 567.5,-220 695.5,-220 695.5,-239"/>
<text text-anchor="middle" x="631.5" y="-227" font-family="Helvetica,sans-Serif" font-size="10.00">QGCLoggingCategory.h</text>
</a>
</g>
</g>
<!-- Node1&#45;&gt;Node9 -->
<g id="edge11_Node000001_Node000009" class="edge">
<title>Node1&#45;&gt;Node9</title>
<g id="a_edge11_Node000001_Node000009"><a xlink:title=" ">
<path fill="none" stroke="#63b8ff" d="M403.36,-274.99C456.92,-264.54 528.94,-250.5 577.62,-241.01"/>
<polygon fill="#63b8ff" stroke="#63b8ff" points="578.49,-244.4 587.64,-239.05 577.15,-237.53 578.49,-244.4"/>
</a>
</g>
</g>
<!-- Node3 -->
<g id="Node000003" class="node">
<title>Node3</title>
<g id="a_Node000003"><a xlink:title=" ">
<polygon fill="#e0e0e0" stroke="#999999" points="523,-19 380,-19 380,0 523,0 523,-19"/>
<text text-anchor="middle" x="451.5" y="-7" font-family="Helvetica,sans-Serif" font-size="10.00">QtCore/QLoggingCategory</text>
</a>
</g>
</g>
<!-- Node2&#45;&gt;Node3 -->
<g id="edge2_Node000002_Node000003" class="edge">
<title>Node2&#45;&gt;Node3</title>
<g id="a_edge2_Node000002_Node000003"><a xlink:title=" ">
<path fill="none" stroke="#63b8ff" d="M335.88,-219.8C345.83,-200.11 371.04,-150.64 393.5,-110 409.55,-80.96 429.17,-47.75 440.98,-27.99"/>
<polygon fill="#63b8ff" stroke="#63b8ff" points="444.1,-29.58 446.24,-19.21 438.1,-25.99 444.1,-29.58"/>
</a>
</g>
</g>
<!-- Node4 -->
<g id="Node000004" class="node">
<title>Node4</title>
<g id="a_Node000004"><a xlink:title=" ">
<polygon fill="#e0e0e0" stroke="#999999" points="489.5,-184 397.5,-184 397.5,-165 489.5,-165 489.5,-184"/>
<text text-anchor="middle" x="443.5" y="-172" font-family="Helvetica,sans-Serif" font-size="10.00">QtCore/QObject</text>
</a>
</g>
</g>
<!-- Node2&#45;&gt;Node4 -->
<g id="edge3_Node000002_Node000004" class="edge">
<title>Node2&#45;&gt;Node4</title>
<g id="a_edge3_Node000002_Node000004"><a xlink:title=" ">
<path fill="none" stroke="#63b8ff" d="M349.49,-219.98C367.43,-211.5 395.22,-198.35 415.93,-188.54"/>
<polygon fill="#63b8ff" stroke="#63b8ff" points="417.64,-191.61 425.18,-184.17 414.64,-185.28 417.64,-191.61"/>
</a>
</g>
</g>
<!-- Node5 -->
<g id="Node000005" class="node">
<title>Node5</title>
<g id="a_Node000005"><a xlink:title=" ">
<polygon fill="#e0e0e0" stroke="#999999" points="120,-184 21,-184 21,-165 120,-165 120,-184"/>
<text text-anchor="middle" x="70.5" y="-172" font-family="Helvetica,sans-Serif" font-size="10.00">QtGui/QVector3D</text>
</a>
</g>
</g>
<!-- Node2&#45;&gt;Node5 -->
<g id="edge4_Node000002_Node000005" class="edge">
<title>Node2&#45;&gt;Node5</title>
<g id="a_edge4_Node000002_Node000005"><a xlink:title=" ">
<path fill="none" stroke="#63b8ff" d="M289.57,-219.98C244.23,-210.78 171.89,-196.09 122.85,-186.13"/>
<polygon fill="#63b8ff" stroke="#63b8ff" points="123.26,-182.64 112.76,-184.08 121.87,-189.5 123.26,-182.64"/>
</a>
</g>
</g>
<!-- Node6 -->
<g id="Node000006" class="node">
<title>Node6</title>
<g id="a_Node000006"><a xlink:title=" ">
<polygon fill="#e0e0e0" stroke="#999999" points="303,-184 138,-184 138,-165 303,-165 303,-184"/>
<text text-anchor="middle" x="220.5" y="-172" font-family="Helvetica,sans-Serif" font-size="10.00">QtPositioning/QGeoCoordinate</text>
</a>
</g>
</g>
<!-- Node2&#45;&gt;Node6 -->
<g id="edge5_Node000002_Node000006" class="edge">
<title>Node2&#45;&gt;Node6</title>
<g id="a_edge5_Node000002_Node000006"><a xlink:title=" ">
<path fill="none" stroke="#63b8ff" d="M313.67,-219.98C295.89,-211.5 268.35,-198.35 247.82,-188.54"/>
<polygon fill="#63b8ff" stroke="#63b8ff" points="249.19,-185.32 238.66,-184.17 246.17,-191.64 249.19,-185.32"/>
</a>
</g>
</g>
<!-- Node7 -->
<g id="Node000007" class="node">
<title>Node7</title>
<g id="a_Node000007"><a xlink:title=" ">
<polygon fill="#e0e0e0" stroke="#999999" points="189,-19 0,-19 0,0 189,0 189,-19"/>
<text text-anchor="middle" x="94.5" y="-7" font-family="Helvetica,sans-Serif" font-size="10.00">QtQmlIntegration/QtQmlIntegration</text>
</a>
</g>
</g>
<!-- Node2&#45;&gt;Node7 -->
<g id="edge6_Node000002_Node000007" class="edge">
<title>Node2&#45;&gt;Node7</title>
<g id="a_edge6_Node000002_Node000007"><a xlink:title=" ">
<path fill="none" stroke="#63b8ff" d="M330.88,-219.79C329.54,-206.65 325.36,-181.53 312.5,-165 264.16,-102.85 223.05,-121.82 160.5,-74 141.67,-59.6 122.39,-40.44 109.57,-26.95"/>
<polygon fill="#63b8ff" stroke="#63b8ff" points="111.87,-24.28 102.49,-19.37 106.76,-29.06 111.87,-24.28"/>
</a>
</g>
</g>
<!-- Node8&#45;&gt;Node3 -->
<g id="edge8_Node000008_Node000003" class="edge">
<title>Node8&#45;&gt;Node3</title>
<g id="a_edge8_Node000008_Node000003"><a xlink:title=" ">
<path fill="none" stroke="#63b8ff" d="M99.74,-223.97C55.43,-216.59 -13.91,-199.22 11.5,-165 94.81,-52.78 181.75,-123.37 312.5,-74 352.91,-58.74 398.14,-37.21 425.71,-23.55"/>
<polygon fill="#63b8ff" stroke="#63b8ff" points="427.31,-26.67 434.69,-19.07 424.18,-20.4 427.31,-26.67"/>
</a>
</g>
</g>
<!-- Node8&#45;&gt;Node5 -->
<g id="edge9_Node000008_Node000005" class="edge">
<title>Node8&#45;&gt;Node5</title>
<g id="a_edge9_Node000008_Node000005"><a xlink:title=" ">
<path fill="none" stroke="#63b8ff" d="M123.38,-219.98C114.06,-212.15 100.03,-200.34 88.76,-190.86"/>
<polygon fill="#63b8ff" stroke="#63b8ff" points="90.71,-187.93 80.81,-184.17 86.21,-193.29 90.71,-187.93"/>
</a>
</g>
</g>
<!-- Node8&#45;&gt;Node6 -->
<g id="edge10_Node000008_Node000006" class="edge">
<title>Node8&#45;&gt;Node6</title>
<g id="a_edge10_Node000008_Node000006"><a xlink:title=" ">
<path fill="none" stroke="#63b8ff" d="M147.48,-219.98C160.97,-211.77 181.63,-199.18 197.54,-189.49"/>
<polygon fill="#63b8ff" stroke="#63b8ff" points="199.55,-192.36 206.27,-184.17 195.91,-186.38 199.55,-192.36"/>
</a>
</g>
</g>
<!-- Node9&#45;&gt;Node3 -->
<g id="edge19_Node000009_Node000003" class="edge">
<title>Node9&#45;&gt;Node3</title>
<g id="a_edge19_Node000009_Node000003"><a xlink:title=" ">
<path fill="none" stroke="#63b8ff" d="M695.72,-225.42C758.24,-220.92 846.91,-210.02 868.5,-184 873.89,-177.5 873.32,-171.93 868.5,-165 792.9,-56.36 631.55,-23.94 533.2,-14.38"/>
<polygon fill="#63b8ff" stroke="#63b8ff" points="533.28,-10.87 523,-13.44 532.64,-17.84 533.28,-10.87"/>
</a>
</g>
</g>
<!-- Node9&#45;&gt;Node4 -->
<g id="edge20_Node000009_Node000004" class="edge">
<title>Node9&#45;&gt;Node4</title>
<g id="a_edge20_Node000009_Node000004"><a xlink:title=" ">
<path fill="none" stroke="#63b8ff" d="M601.29,-219.98C569.46,-211.01 519.14,-196.82 483.9,-186.89"/>
<polygon fill="#63b8ff" stroke="#63b8ff" points="484.52,-183.43 473.94,-184.08 482.62,-190.16 484.52,-183.43"/>
</a>
</g>
</g>
<!-- Node10 -->
<g id="Node000010" class="node">
<title>Node10</title>
<g id="a_Node000010"><a xlink:href="QmlObjectListModel_8h.html" target="_top" xlink:title=" ">
<polygon fill="white" stroke="#666666" points="633,-184 508,-184 508,-165 633,-165 633,-184"/>
<text text-anchor="middle" x="570.5" y="-172" font-family="Helvetica,sans-Serif" font-size="10.00">QmlObjectListModel.h</text>
</a>
</g>
</g>
<!-- Node9&#45;&gt;Node10 -->
<g id="edge12_Node000009_Node000010" class="edge">
<title>Node9&#45;&gt;Node10</title>
<g id="a_edge12_Node000009_Node000010"><a xlink:title=" ">
<path fill="none" stroke="#63b8ff" d="M621.7,-219.98C612.68,-212.15 599.09,-200.34 588.18,-190.86"/>
<polygon fill="#63b8ff" stroke="#63b8ff" points="590.32,-188.09 580.48,-184.17 585.73,-193.37 590.32,-188.09"/>
</a>
</g>
</g>
<!-- Node14 -->
<g id="Node000014" class="node">
<title>Node14</title>
<g id="a_Node000014"><a xlink:title=" ">
<polygon fill="#e0e0e0" stroke="#999999" points="859,-184 752,-184 752,-165 859,-165 859,-184"/>
<text text-anchor="middle" x="805.5" y="-172" font-family="Helvetica,sans-Serif" font-size="10.00">QtCore/QStringList</text>
</a>
</g>
</g>
<!-- Node9&#45;&gt;Node14 -->
<g id="edge21_Node000009_Node000014" class="edge">
<title>Node9&#45;&gt;Node14</title>
<g id="a_edge21_Node000009_Node000014"><a xlink:title=" ">
<path fill="none" stroke="#63b8ff" d="M659.46,-219.98C688.8,-211.05 735.1,-196.94 767.69,-187.02"/>
<polygon fill="#63b8ff" stroke="#63b8ff" points="768.78,-190.34 777.32,-184.08 766.74,-183.65 768.78,-190.34"/>
</a>
</g>
</g>
<!-- Node15 -->
<g id="Node000015" class="node">
<title>Node15</title>
<g id="a_Node000015"><a xlink:title=" ">
<polygon fill="#e0e0e0" stroke="#999999" points="733.5,-184 651.5,-184 651.5,-165 733.5,-165 733.5,-184"/>
<text text-anchor="middle" x="692.5" y="-172" font-family="Helvetica,sans-Serif" font-size="10.00">QtCore/QMap</text>
</a>
</g>
</g>
<!-- Node9&#45;&gt;Node15 -->
<g id="edge22_Node000009_Node000015" class="edge">
<title>Node9&#45;&gt;Node15</title>
<g id="a_edge22_Node000009_Node000015"><a xlink:title=" ">
<path fill="none" stroke="#63b8ff" d="M641.3,-219.98C650.32,-212.15 663.91,-200.34 674.82,-190.86"/>
<polygon fill="#63b8ff" stroke="#63b8ff" points="677.27,-193.37 682.52,-184.17 672.68,-188.09 677.27,-193.37"/>
</a>
</g>
</g>
<!-- Node10&#45;&gt;Node3 -->
<g id="edge18_Node000010_Node000003" class="edge">
<title>Node10&#45;&gt;Node3</title>
<g id="a_edge18_Node000010_Node000003"><a xlink:title=" ">
<path fill="none" stroke="#63b8ff" d="M567.17,-164.89C562.11,-152.29 551.77,-128.36 539.5,-110 517.97,-77.79 486.8,-45 467.92,-26.27"/>
<polygon fill="#63b8ff" stroke="#63b8ff" points="470.23,-23.64 460.64,-19.14 465.33,-28.64 470.23,-23.64"/>
</a>
</g>
</g>
<!-- Node11 -->
<g id="Node000011" class="node">
<title>Node11</title>
<g id="a_Node000011"><a xlink:href="ObjectListModelBase_8h.html" target="_top" xlink:title=" ">
<polygon fill="white" stroke="#666666" points="530.5,-129 402.5,-129 402.5,-110 530.5,-110 530.5,-129"/>
<text text-anchor="middle" x="466.5" y="-117" font-family="Helvetica,sans-Serif" font-size="10.00">ObjectListModelBase.h</text>
</a>
</g>
</g>
<!-- Node10&#45;&gt;Node11 -->
<g id="edge13_Node000010_Node000011" class="edge">
<title>Node10&#45;&gt;Node11</title>
<g id="a_edge13_Node000010_Node000011"><a xlink:title=" ">
<path fill="none" stroke="#63b8ff" d="M553.79,-164.98C537.29,-156.57 511.8,-143.59 492.62,-133.81"/>
<polygon fill="#63b8ff" stroke="#63b8ff" points="494.01,-130.59 483.51,-129.17 490.83,-136.83 494.01,-130.59"/>
</a>
</g>
</g>
<!-- Node12 -->
<g id="Node000012" class="node">
<title>Node12</title>
<g id="a_Node000012"><a xlink:href="ObjectItemModelBase_8h.html" target="_top" xlink:title=" ">
<polygon fill="white" stroke="#666666" points="303.5,-74 169.5,-74 169.5,-55 303.5,-55 303.5,-74"/>
<text text-anchor="middle" x="236.5" y="-62" font-family="Helvetica,sans-Serif" font-size="10.00">ObjectItemModelBase.h</text>
</a>
</g>
</g>
<!-- Node11&#45;&gt;Node12 -->
<g id="edge14_Node000011_Node000012" class="edge">
<title>Node11&#45;&gt;Node12</title>
<g id="a_edge14_Node000011_Node000012"><a xlink:title=" ">
<path fill="none" stroke="#63b8ff" d="M429.55,-109.98C389.93,-100.86 326.91,-86.33 283.73,-76.38"/>
<polygon fill="#63b8ff" stroke="#63b8ff" points="284.27,-72.92 273.74,-74.08 282.7,-79.74 284.27,-72.92"/>
</a>
</g>
</g>
<!-- Node12&#45;&gt;Node3 -->
<g id="edge16_Node000012_Node000003" class="edge">
<title>Node12&#45;&gt;Node3</title>
<g id="a_edge16_Node000012_Node000003"><a xlink:title=" ">
<path fill="none" stroke="#63b8ff" d="M271.04,-54.98C307.92,-45.89 366.49,-31.46 406.84,-21.51"/>
<polygon fill="#63b8ff" stroke="#63b8ff" points="407.81,-24.87 416.69,-19.08 406.14,-18.08 407.81,-24.87"/>
</a>
</g>
</g>
<!-- Node12&#45;&gt;Node7 -->
<g id="edge17_Node000012_Node000007" class="edge">
<title>Node12&#45;&gt;Node7</title>
<g id="a_edge17_Node000012_Node000007"><a xlink:title=" ">
<path fill="none" stroke="#63b8ff" d="M213.69,-54.98C190.33,-46.27 153.8,-32.63 127.33,-22.75"/>
<polygon fill="#63b8ff" stroke="#63b8ff" points="128.32,-19.39 117.73,-19.17 125.87,-25.95 128.32,-19.39"/>
</a>
</g>
</g>
<!-- Node13 -->
<g id="Node000013" class="node">
<title>Node13</title>
<g id="a_Node000013"><a xlink:title=" ">
<polygon fill="#e0e0e0" stroke="#999999" points="361.5,-19 207.5,-19 207.5,0 361.5,0 361.5,-19"/>
<text text-anchor="middle" x="284.5" y="-7" font-family="Helvetica,sans-Serif" font-size="10.00">QtCore/QAbstractItemModel</text>
</a>
</g>
</g>
<!-- Node12&#45;&gt;Node13 -->
<g id="edge15_Node000012_Node000013" class="edge">
<title>Node12&#45;&gt;Node13</title>
<g id="a_edge15_Node000012_Node000013"><a xlink:title=" ">
<path fill="none" stroke="#63b8ff" d="M244.43,-54.75C251.35,-47.11 261.57,-35.82 269.95,-26.56"/>
<polygon fill="#63b8ff" stroke="#63b8ff" points="272.6,-28.85 276.72,-19.09 267.41,-24.15 272.6,-28.85"/>
</a>
</g>
</g>
</g>
</svg>
