<?xml version="1.0" encoding="UTF-8" standalone="no"?>
<!DOCTYPE svg PUBLIC "-//W3C//DTD SVG 1.1//EN"
 "http://www.w3.org/Graphics/SVG/1.1/DTD/svg11.dtd">
<!-- Generated by graphviz version 2.43.0 (0)
 -->
<!-- Title: src/Viewer3D/Viewer3DTileQuery.cc Pages: 1 -->
<svg width="1457pt" height="335pt"
 viewBox="0.00 0.00 1457.00 335.00" xmlns="http://www.w3.org/2000/svg" xmlns:xlink="http://www.w3.org/1999/xlink">
<g id="graph0" class="graph" transform="scale(1 1) rotate(0) translate(4 331)">
<title>src/Viewer3D/Viewer3DTileQuery.cc</title>
<!-- Node1 -->
<g id="Node000001" class="node">
<title>Node1</title>
<g id="a_Node000001"><a xlink:title=" ">
<polygon fill="#999999" stroke="#666666" points="1087.5,-327 938.5,-327 938.5,-297 1087.5,-297 1087.5,-327"/>
<text text-anchor="start" x="946.5" y="-315" font-family="Helvetica,sans-Serif" font-size="10.00">src/Viewer3D/Viewer3DTile</text>
<text text-anchor="middle" x="1013" y="-304" font-family="Helvetica,sans-Serif" font-size="10.00">Query.cc</text>
</a>
</g>
</g>
<!-- Node2 -->
<g id="Node000002" class="node">
<title>Node2</title>
<g id="a_Node000002"><a xlink:href="Viewer3DTileQuery_8h.html" target="_top" xlink:title=" ">
<polygon fill="white" stroke="#666666" points="763.5,-255.5 644.5,-255.5 644.5,-236.5 763.5,-236.5 763.5,-255.5"/>
<text text-anchor="middle" x="704" y="-243.5" font-family="Helvetica,sans-Serif" font-size="10.00">Viewer3DTileQuery.h</text>
</a>
</g>
</g>
<!-- Node1&#45;&gt;Node2 -->
<g id="edge1_Node000001_Node000002" class="edge">
<title>Node1&#45;&gt;Node2</title>
<g id="a_edge1_Node000001_Node000002"><a xlink:title=" ">
<path fill="none" stroke="#63b8ff" d="M945.19,-296.95C887.89,-285.09 807.09,-268.35 755.12,-257.59"/>
<polygon fill="#63b8ff" stroke="#63b8ff" points="755.62,-254.12 745.12,-255.52 754.2,-260.97 755.62,-254.12"/>
</a>
</g>
</g>
<!-- Node10 -->
<g id="Node000010" class="node">
<title>Node10</title>
<g id="a_Node000010"><a xlink:href="QGCLoggingCategory_8h.html" target="_top" xlink:title=" ">
<polygon fill="white" stroke="#666666" points="435,-255.5 307,-255.5 307,-236.5 435,-236.5 435,-255.5"/>
<text text-anchor="middle" x="371" y="-243.5" font-family="Helvetica,sans-Serif" font-size="10.00">QGCLoggingCategory.h</text>
</a>
</g>
</g>
<!-- Node1&#45;&gt;Node10 -->
<g id="edge11_Node000001_Node000010" class="edge">
<title>Node1&#45;&gt;Node10</title>
<g id="a_edge11_Node000001_Node000010"><a xlink:title=" ">
<path fill="none" stroke="#63b8ff" d="M938.41,-303.56C814.84,-291.25 569.05,-266.74 445.52,-254.43"/>
<polygon fill="#63b8ff" stroke="#63b8ff" points="445.7,-250.93 435.4,-253.42 445,-257.89 445.7,-250.93"/>
</a>
</g>
</g>
<!-- Node18 -->
<g id="Node000018" class="node">
<title>Node18</title>
<g id="a_Node000018"><a xlink:href="MapProvider_8h.html" target="_top" xlink:title=" ">
<polygon fill="white" stroke="#666666" points="1056,-195 970,-195 970,-176 1056,-176 1056,-195"/>
<text text-anchor="middle" x="1013" y="-183" font-family="Helvetica,sans-Serif" font-size="10.00">MapProvider.h</text>
</a>
</g>
</g>
<!-- Node1&#45;&gt;Node18 -->
<g id="edge23_Node000001_Node000018" class="edge">
<title>Node1&#45;&gt;Node18</title>
<g id="a_edge23_Node000001_Node000018"><a xlink:title=" ">
<path fill="none" stroke="#63b8ff" d="M992.51,-296.89C981.51,-288.02 969.01,-275.52 963,-261 957.9,-248.68 957.54,-243.16 963,-231 968.5,-218.74 979.23,-208.48 989.35,-200.91"/>
<polygon fill="#63b8ff" stroke="#63b8ff" points="991.35,-203.78 997.57,-195.2 987.36,-198.03 991.35,-203.78"/>
</a>
</g>
</g>
<!-- Node23 -->
<g id="Node000023" class="node">
<title>Node23</title>
<g id="a_Node000023"><a xlink:href="QGCMapUrlEngine_8h.html" target="_top" xlink:title=" ">
<polygon fill="white" stroke="#666666" points="1190,-195 1074,-195 1074,-176 1190,-176 1190,-195"/>
<text text-anchor="middle" x="1132" y="-183" font-family="Helvetica,sans-Serif" font-size="10.00">QGCMapUrlEngine.h</text>
</a>
</g>
</g>
<!-- Node1&#45;&gt;Node23 -->
<g id="edge31_Node000001_Node000023" class="edge">
<title>Node1&#45;&gt;Node23</title>
<g id="a_edge31_Node000001_Node000023"><a xlink:title=" ">
<path fill="none" stroke="#63b8ff" d="M1004.18,-296.89C994.71,-279.73 982.81,-250.62 997,-231 1006.96,-217.23 1045.29,-205.39 1078.57,-197.4"/>
<polygon fill="#63b8ff" stroke="#63b8ff" points="1079.76,-200.72 1088.7,-195.04 1078.17,-193.9 1079.76,-200.72"/>
</a>
</g>
</g>
<!-- Node26 -->
<g id="Node000026" class="node">
<title>Node26</title>
<g id="a_Node000026"><a xlink:title=" ">
<polygon fill="#e0e0e0" stroke="#999999" points="1094.5,-255.5 1005.5,-255.5 1005.5,-236.5 1094.5,-236.5 1094.5,-255.5"/>
<text text-anchor="middle" x="1050" y="-243.5" font-family="Helvetica,sans-Serif" font-size="10.00">QtGui/QPainter</text>
</a>
</g>
</g>
<!-- Node1&#45;&gt;Node26 -->
<g id="edge36_Node000001_Node000026" class="edge">
<title>Node1&#45;&gt;Node26</title>
<g id="a_edge36_Node000001_Node000026"><a xlink:title=" ">
<path fill="none" stroke="#63b8ff" d="M1021.21,-296.8C1026.7,-287.31 1033.95,-274.76 1039.81,-264.63"/>
<polygon fill="#63b8ff" stroke="#63b8ff" points="1042.91,-266.25 1044.89,-255.84 1036.85,-262.75 1042.91,-266.25"/>
</a>
</g>
</g>
<!-- Node27 -->
<g id="Node000027" class="node">
<title>Node27</title>
<g id="a_Node000027"><a xlink:title=" ">
<polygon fill="#e0e0e0" stroke="#999999" points="1205,-255.5 1113,-255.5 1113,-236.5 1205,-236.5 1205,-255.5"/>
<text text-anchor="middle" x="1159" y="-243.5" font-family="Helvetica,sans-Serif" font-size="10.00">QtGui/QPixmap</text>
</a>
</g>
</g>
<!-- Node1&#45;&gt;Node27 -->
<g id="edge37_Node000001_Node000027" class="edge">
<title>Node1&#45;&gt;Node27</title>
<g id="a_edge37_Node000001_Node000027"><a xlink:title=" ">
<path fill="none" stroke="#63b8ff" d="M1045.04,-296.95C1070.42,-285.83 1105.56,-270.42 1130.09,-259.67"/>
<polygon fill="#63b8ff" stroke="#63b8ff" points="1131.82,-262.74 1139.57,-255.52 1129.01,-256.33 1131.82,-262.74"/>
</a>
</g>
</g>
<!-- Node28 -->
<g id="Node000028" class="node">
<title>Node28</title>
<g id="a_Node000028"><a xlink:title=" ">
<polygon fill="#e0e0e0" stroke="#999999" points="1378.5,-261 1223.5,-261 1223.5,-231 1378.5,-231 1378.5,-261"/>
<text text-anchor="start" x="1231.5" y="-249" font-family="Helvetica,sans-Serif" font-size="10.00">QtNetwork/QNetworkAccess</text>
<text text-anchor="middle" x="1301" y="-238" font-family="Helvetica,sans-Serif" font-size="10.00">Manager</text>
</a>
</g>
</g>
<!-- Node1&#45;&gt;Node28 -->
<g id="edge38_Node000001_Node000028" class="edge">
<title>Node1&#45;&gt;Node28</title>
<g id="a_edge38_Node000001_Node000028"><a xlink:title=" ">
<path fill="none" stroke="#63b8ff" d="M1076.2,-296.95C1121.03,-286.99 1181.31,-273.6 1228.16,-263.19"/>
<polygon fill="#63b8ff" stroke="#63b8ff" points="1228.94,-266.6 1237.94,-261.01 1227.42,-259.77 1228.94,-266.6"/>
</a>
</g>
</g>
<!-- Node29 -->
<g id="Node000029" class="node">
<title>Node29</title>
<g id="a_Node000029"><a xlink:title=" ">
<polygon fill="#e0e0e0" stroke="#999999" points="1443.5,-255.5 1396.5,-255.5 1396.5,-236.5 1443.5,-236.5 1443.5,-255.5"/>
<text text-anchor="middle" x="1420" y="-243.5" font-family="Helvetica,sans-Serif" font-size="10.00">cmath</text>
</a>
</g>
</g>
<!-- Node1&#45;&gt;Node29 -->
<g id="edge39_Node000001_Node000029" class="edge">
<title>Node1&#45;&gt;Node29</title>
<g id="a_edge39_Node000001_Node000029"><a xlink:title=" ">
<path fill="none" stroke="#63b8ff" d="M1087.52,-307.21C1164.09,-301.9 1286.16,-289.46 1388,-261 1389.69,-260.53 1391.4,-259.99 1393.11,-259.39"/>
<polygon fill="#63b8ff" stroke="#63b8ff" points="1394.7,-262.53 1402.72,-255.61 1392.13,-256.02 1394.7,-262.53"/>
</a>
</g>
</g>
<!-- Node3 -->
<g id="Node000003" class="node">
<title>Node3</title>
<g id="a_Node000003"><a xlink:title=" ">
<polygon fill="#e0e0e0" stroke="#999999" points="542.5,-19 399.5,-19 399.5,0 542.5,0 542.5,-19"/>
<text text-anchor="middle" x="471" y="-7" font-family="Helvetica,sans-Serif" font-size="10.00">QtCore/QLoggingCategory</text>
</a>
</g>
</g>
<!-- Node2&#45;&gt;Node3 -->
<g id="edge2_Node000002_Node000003" class="edge">
<title>Node2&#45;&gt;Node3</title>
<g id="a_edge2_Node000002_Node000003"><a xlink:title=" ">
<path fill="none" stroke="#63b8ff" d="M644.14,-240.77C607.32,-235.29 561.34,-222.9 530,-195 480.83,-151.23 472.36,-66.52 471.09,-29.08"/>
<polygon fill="#63b8ff" stroke="#63b8ff" points="474.59,-29 470.9,-19.07 467.6,-29.14 474.59,-29"/>
</a>
</g>
</g>
<!-- Node4 -->
<g id="Node000004" class="node">
<title>Node4</title>
<g id="a_Node000004"><a xlink:title=" ">
<polygon fill="#e0e0e0" stroke="#999999" points="608,-134.5 516,-134.5 516,-115.5 608,-115.5 608,-134.5"/>
<text text-anchor="middle" x="562" y="-122.5" font-family="Helvetica,sans-Serif" font-size="10.00">QtCore/QObject</text>
</a>
</g>
</g>
<!-- Node2&#45;&gt;Node4 -->
<g id="edge3_Node000002_Node000004" class="edge">
<title>Node2&#45;&gt;Node4</title>
<g id="a_edge3_Node000002_Node000004"><a xlink:title=" ">
<path fill="none" stroke="#63b8ff" d="M644.46,-243.95C607.41,-239.82 562.33,-227.73 538,-195 526.47,-179.49 537.17,-158 547.72,-143.14"/>
<polygon fill="#63b8ff" stroke="#63b8ff" points="550.76,-144.92 554.07,-134.86 545.21,-140.66 550.76,-144.92"/>
</a>
</g>
</g>
<!-- Node5 -->
<g id="Node000005" class="node">
<title>Node5</title>
<g id="a_Node000005"><a xlink:title=" ">
<polygon fill="#e0e0e0" stroke="#999999" points="952,-195 866,-195 866,-176 952,-176 952,-195"/>
<text text-anchor="middle" x="909" y="-183" font-family="Helvetica,sans-Serif" font-size="10.00">QtGui/QImage</text>
</a>
</g>
</g>
<!-- Node2&#45;&gt;Node5 -->
<g id="edge4_Node000002_Node000005" class="edge">
<title>Node2&#45;&gt;Node5</title>
<g id="a_edge4_Node000002_Node000005"><a xlink:title=" ">
<path fill="none" stroke="#63b8ff" d="M733.81,-236.49C769.56,-226.29 829.63,-209.15 869.29,-197.83"/>
<polygon fill="#63b8ff" stroke="#63b8ff" points="870.5,-201.13 879.16,-195.02 868.58,-194.4 870.5,-201.13"/>
</a>
</g>
</g>
<!-- Node6 -->
<g id="Node000006" class="node">
<title>Node6</title>
<g id="a_Node000006"><a xlink:title=" ">
<polygon fill="#e0e0e0" stroke="#999999" points="712.5,-195 547.5,-195 547.5,-176 712.5,-176 712.5,-195"/>
<text text-anchor="middle" x="630" y="-183" font-family="Helvetica,sans-Serif" font-size="10.00">QtPositioning/QGeoCoordinate</text>
</a>
</g>
</g>
<!-- Node2&#45;&gt;Node6 -->
<g id="edge5_Node000002_Node000006" class="edge">
<title>Node2&#45;&gt;Node6</title>
<g id="a_edge5_Node000002_Node000006"><a xlink:title=" ">
<path fill="none" stroke="#63b8ff" d="M693.08,-236.37C681.49,-227.21 662.97,-212.56 648.98,-201.51"/>
<polygon fill="#63b8ff" stroke="#63b8ff" points="650.98,-198.62 640.96,-195.17 646.64,-204.11 650.98,-198.62"/>
</a>
</g>
</g>
<!-- Node7 -->
<g id="Node000007" class="node">
<title>Node7</title>
<g id="a_Node000007"><a xlink:href="Viewer3DTileReply_8h.html" target="_top" xlink:title=" ">
<polygon fill="white" stroke="#666666" points="847.5,-195 730.5,-195 730.5,-176 847.5,-176 847.5,-195"/>
<text text-anchor="middle" x="789" y="-183" font-family="Helvetica,sans-Serif" font-size="10.00">Viewer3DTileReply.h</text>
</a>
</g>
</g>
<!-- Node2&#45;&gt;Node7 -->
<g id="edge6_Node000002_Node000007" class="edge">
<title>Node2&#45;&gt;Node7</title>
<g id="a_edge6_Node000002_Node000007"><a xlink:title=" ">
<path fill="none" stroke="#63b8ff" d="M716.54,-236.37C730.1,-227.04 751.94,-212.01 768.1,-200.88"/>
<polygon fill="#63b8ff" stroke="#63b8ff" points="770.15,-203.72 776.41,-195.17 766.18,-197.95 770.15,-203.72"/>
</a>
</g>
</g>
<!-- Node7&#45;&gt;Node3 -->
<g id="edge8_Node000007_Node000003" class="edge">
<title>Node7&#45;&gt;Node3</title>
<g id="a_edge8_Node000007_Node000003"><a xlink:title=" ">
<path fill="none" stroke="#63b8ff" d="M763.27,-175.93C739.97,-167.81 704.96,-154.68 676,-140 605.04,-104.02 527.13,-50.59 491.2,-25.08"/>
<polygon fill="#63b8ff" stroke="#63b8ff" points="493.17,-22.19 483,-19.22 489.11,-27.88 493.17,-22.19"/>
</a>
</g>
</g>
<!-- Node7&#45;&gt;Node4 -->
<g id="edge9_Node000007_Node000004" class="edge">
<title>Node7&#45;&gt;Node4</title>
<g id="a_edge9_Node000007_Node000004"><a xlink:title=" ">
<path fill="none" stroke="#63b8ff" d="M755.99,-175.99C716.06,-165.7 648.76,-148.36 604.86,-137.04"/>
<polygon fill="#63b8ff" stroke="#63b8ff" points="605.6,-133.62 595.05,-134.52 603.86,-140.4 605.6,-133.62"/>
</a>
</g>
</g>
<!-- Node8 -->
<g id="Node000008" class="node">
<title>Node8</title>
<g id="a_Node000008"><a xlink:title=" ">
<polygon fill="#e0e0e0" stroke="#999999" points="903,-134.5 793,-134.5 793,-115.5 903,-115.5 903,-134.5"/>
<text text-anchor="middle" x="848" y="-122.5" font-family="Helvetica,sans-Serif" font-size="10.00">QtCore/QByteArray</text>
</a>
</g>
</g>
<!-- Node7&#45;&gt;Node8 -->
<g id="edge7_Node000007_Node000008" class="edge">
<title>Node7&#45;&gt;Node8</title>
<g id="a_edge7_Node000007_Node000008"><a xlink:title=" ">
<path fill="none" stroke="#63b8ff" d="M797.71,-175.87C806.68,-166.97 820.88,-152.89 831.91,-141.95"/>
<polygon fill="#63b8ff" stroke="#63b8ff" points="834.62,-144.19 839.26,-134.67 829.69,-139.22 834.62,-144.19"/>
</a>
</g>
</g>
<!-- Node9 -->
<g id="Node000009" class="node">
<title>Node9</title>
<g id="a_Node000009"><a xlink:title=" ">
<polygon fill="#e0e0e0" stroke="#999999" points="774.5,-134.5 685.5,-134.5 685.5,-115.5 774.5,-115.5 774.5,-134.5"/>
<text text-anchor="middle" x="730" y="-122.5" font-family="Helvetica,sans-Serif" font-size="10.00">QtCore/QString</text>
</a>
</g>
</g>
<!-- Node7&#45;&gt;Node9 -->
<g id="edge10_Node000007_Node000009" class="edge">
<title>Node7&#45;&gt;Node9</title>
<g id="a_edge10_Node000007_Node000009"><a xlink:title=" ">
<path fill="none" stroke="#63b8ff" d="M780.29,-175.87C771.32,-166.97 757.12,-152.89 746.09,-141.95"/>
<polygon fill="#63b8ff" stroke="#63b8ff" points="748.31,-139.22 738.74,-134.67 743.38,-144.19 748.31,-139.22"/>
</a>
</g>
</g>
<!-- Node10&#45;&gt;Node3 -->
<g id="edge19_Node000010_Node000003" class="edge">
<title>Node10&#45;&gt;Node3</title>
<g id="a_edge19_Node000010_Node000003"><a xlink:title=" ">
<path fill="none" stroke="#63b8ff" d="M374.68,-236.38C389.22,-202.27 442.92,-76.34 463.19,-28.82"/>
<polygon fill="#63b8ff" stroke="#63b8ff" points="466.48,-30.02 467.18,-19.45 460.04,-27.28 466.48,-30.02"/>
</a>
</g>
</g>
<!-- Node10&#45;&gt;Node4 -->
<g id="edge20_Node000010_Node000004" class="edge">
<title>Node10&#45;&gt;Node4</title>
<g id="a_edge20_Node000010_Node000004"><a xlink:title=" ">
<path fill="none" stroke="#63b8ff" d="M384.74,-236.44C417.35,-216.12 499.7,-164.81 539.62,-139.94"/>
<polygon fill="#63b8ff" stroke="#63b8ff" points="541.49,-142.9 548.13,-134.64 537.79,-136.96 541.49,-142.9"/>
</a>
</g>
</g>
<!-- Node11 -->
<g id="Node000011" class="node">
<title>Node11</title>
<g id="a_Node000011"><a xlink:href="QmlObjectListModel_8h.html" target="_top" xlink:title=" ">
<polygon fill="white" stroke="#666666" points="276.5,-195 151.5,-195 151.5,-176 276.5,-176 276.5,-195"/>
<text text-anchor="middle" x="214" y="-183" font-family="Helvetica,sans-Serif" font-size="10.00">QmlObjectListModel.h</text>
</a>
</g>
</g>
<!-- Node10&#45;&gt;Node11 -->
<g id="edge12_Node000010_Node000011" class="edge">
<title>Node10&#45;&gt;Node11</title>
<g id="a_edge12_Node000010_Node000011"><a xlink:title=" ">
<path fill="none" stroke="#63b8ff" d="M348.17,-236.49C321.43,-226.53 276.92,-209.95 246.56,-198.63"/>
<polygon fill="#63b8ff" stroke="#63b8ff" points="247.45,-195.23 236.86,-195.02 245.01,-201.79 247.45,-195.23"/>
</a>
</g>
</g>
<!-- Node16 -->
<g id="Node000016" class="node">
<title>Node16</title>
<g id="a_Node000016"><a xlink:title=" ">
<polygon fill="#e0e0e0" stroke="#999999" points="133.5,-195 26.5,-195 26.5,-176 133.5,-176 133.5,-195"/>
<text text-anchor="middle" x="80" y="-183" font-family="Helvetica,sans-Serif" font-size="10.00">QtCore/QStringList</text>
</a>
</g>
</g>
<!-- Node10&#45;&gt;Node16 -->
<g id="edge21_Node000010_Node000016" class="edge">
<title>Node10&#45;&gt;Node16</title>
<g id="a_edge21_Node000010_Node000016"><a xlink:title=" ">
<path fill="none" stroke="#63b8ff" d="M328.69,-236.49C276.75,-226.05 188.67,-208.35 132.47,-197.05"/>
<polygon fill="#63b8ff" stroke="#63b8ff" points="132.86,-193.56 122.36,-195.02 131.48,-200.42 132.86,-193.56"/>
</a>
</g>
</g>
<!-- Node17 -->
<g id="Node000017" class="node">
<title>Node17</title>
<g id="a_Node000017"><a xlink:title=" ">
<polygon fill="#e0e0e0" stroke="#999999" points="377,-195 295,-195 295,-176 377,-176 377,-195"/>
<text text-anchor="middle" x="336" y="-183" font-family="Helvetica,sans-Serif" font-size="10.00">QtCore/QMap</text>
</a>
</g>
</g>
<!-- Node10&#45;&gt;Node17 -->
<g id="edge22_Node000010_Node000017" class="edge">
<title>Node10&#45;&gt;Node17</title>
<g id="a_edge22_Node000010_Node000017"><a xlink:title=" ">
<path fill="none" stroke="#63b8ff" d="M365.84,-236.37C360.77,-227.9 352.9,-214.74 346.51,-204.07"/>
<polygon fill="#63b8ff" stroke="#63b8ff" points="349.32,-201.95 341.19,-195.17 343.32,-205.55 349.32,-201.95"/>
</a>
</g>
</g>
<!-- Node11&#45;&gt;Node3 -->
<g id="edge18_Node000011_Node000003" class="edge">
<title>Node11&#45;&gt;Node3</title>
<g id="a_edge18_Node000011_Node000003"><a xlink:title=" ">
<path fill="none" stroke="#63b8ff" d="M234.62,-175.96C252.86,-167.94 279.8,-154.97 301,-140 345.94,-108.26 346.62,-87.51 391,-55 407.46,-42.94 427.52,-31.79 443.44,-23.67"/>
<polygon fill="#63b8ff" stroke="#63b8ff" points="445.37,-26.62 452.75,-19.02 442.24,-20.35 445.37,-26.62"/>
</a>
</g>
</g>
<!-- Node12 -->
<g id="Node000012" class="node">
<title>Node12</title>
<g id="a_Node000012"><a xlink:href="ObjectListModelBase_8h.html" target="_top" xlink:title=" ">
<polygon fill="white" stroke="#666666" points="292,-134.5 164,-134.5 164,-115.5 292,-115.5 292,-134.5"/>
<text text-anchor="middle" x="228" y="-122.5" font-family="Helvetica,sans-Serif" font-size="10.00">ObjectListModelBase.h</text>
</a>
</g>
</g>
<!-- Node11&#45;&gt;Node12 -->
<g id="edge13_Node000011_Node000012" class="edge">
<title>Node11&#45;&gt;Node12</title>
<g id="a_edge13_Node000011_Node000012"><a xlink:title=" ">
<path fill="none" stroke="#63b8ff" d="M216.07,-175.87C218.03,-167.66 221.05,-155.04 223.56,-144.55"/>
<polygon fill="#63b8ff" stroke="#63b8ff" points="227,-145.21 225.93,-134.67 220.19,-143.58 227,-145.21"/>
</a>
</g>
</g>
<!-- Node13 -->
<g id="Node000013" class="node">
<title>Node13</title>
<g id="a_Node000013"><a xlink:href="ObjectItemModelBase_8h.html" target="_top" xlink:title=" ">
<polygon fill="white" stroke="#666666" points="324,-74 190,-74 190,-55 324,-55 324,-74"/>
<text text-anchor="middle" x="257" y="-62" font-family="Helvetica,sans-Serif" font-size="10.00">ObjectItemModelBase.h</text>
</a>
</g>
</g>
<!-- Node12&#45;&gt;Node13 -->
<g id="edge14_Node000012_Node000013" class="edge">
<title>Node12&#45;&gt;Node13</title>
<g id="a_edge14_Node000012_Node000013"><a xlink:title=" ">
<path fill="none" stroke="#63b8ff" d="M232.28,-115.37C236.43,-106.99 242.87,-94.01 248.13,-83.39"/>
<polygon fill="#63b8ff" stroke="#63b8ff" points="251.4,-84.68 252.7,-74.17 245.13,-81.57 251.4,-84.68"/>
</a>
</g>
</g>
<!-- Node13&#45;&gt;Node3 -->
<g id="edge16_Node000013_Node000003" class="edge">
<title>Node13&#45;&gt;Node3</title>
<g id="a_edge16_Node000013_Node000003"><a xlink:title=" ">
<path fill="none" stroke="#63b8ff" d="M291.38,-54.98C328.09,-45.89 386.38,-31.46 426.55,-21.51"/>
<polygon fill="#63b8ff" stroke="#63b8ff" points="427.48,-24.88 436.35,-19.08 425.8,-18.09 427.48,-24.88"/>
</a>
</g>
</g>
<!-- Node14 -->
<g id="Node000014" class="node">
<title>Node14</title>
<g id="a_Node000014"><a xlink:title=" ">
<polygon fill="#e0e0e0" stroke="#999999" points="154,-19 0,-19 0,0 154,0 154,-19"/>
<text text-anchor="middle" x="77" y="-7" font-family="Helvetica,sans-Serif" font-size="10.00">QtCore/QAbstractItemModel</text>
</a>
</g>
</g>
<!-- Node13&#45;&gt;Node14 -->
<g id="edge15_Node000013_Node000014" class="edge">
<title>Node13&#45;&gt;Node14</title>
<g id="a_edge15_Node000013_Node000014"><a xlink:title=" ">
<path fill="none" stroke="#63b8ff" d="M228.08,-54.98C197.73,-46.05 149.83,-31.94 116.12,-22.02"/>
<polygon fill="#63b8ff" stroke="#63b8ff" points="116.73,-18.55 106.15,-19.08 114.75,-25.26 116.73,-18.55"/>
</a>
</g>
</g>
<!-- Node15 -->
<g id="Node000015" class="node">
<title>Node15</title>
<g id="a_Node000015"><a xlink:title=" ">
<polygon fill="#e0e0e0" stroke="#999999" points="361.5,-19 172.5,-19 172.5,0 361.5,0 361.5,-19"/>
<text text-anchor="middle" x="267" y="-7" font-family="Helvetica,sans-Serif" font-size="10.00">QtQmlIntegration/QtQmlIntegration</text>
</a>
</g>
</g>
<!-- Node13&#45;&gt;Node15 -->
<g id="edge17_Node000013_Node000015" class="edge">
<title>Node13&#45;&gt;Node15</title>
<g id="a_edge17_Node000013_Node000015"><a xlink:title=" ">
<path fill="none" stroke="#63b8ff" d="M258.65,-54.75C259.96,-47.8 261.84,-37.85 263.48,-29.13"/>
<polygon fill="#63b8ff" stroke="#63b8ff" points="266.96,-29.56 265.38,-19.09 260.09,-28.27 266.96,-29.56"/>
</a>
</g>
</g>
<!-- Node18&#45;&gt;Node3 -->
<g id="edge27_Node000018_Node000003" class="edge">
<title>Node18&#45;&gt;Node3</title>
<g id="a_edge27_Node000018_Node000003"><a xlink:title=" ">
<path fill="none" stroke="#63b8ff" d="M1000.56,-175.75C987.98,-166.87 968.01,-152.64 951,-140 933.45,-126.96 931.8,-119.29 912,-110 794.21,-54.72 644.03,-29.31 552.81,-18.26"/>
<polygon fill="#63b8ff" stroke="#63b8ff" points="553.15,-14.78 542.81,-17.08 552.33,-21.73 553.15,-14.78"/>
</a>
</g>
</g>
<!-- Node18&#45;&gt;Node8 -->
<g id="edge25_Node000018_Node000008" class="edge">
<title>Node18&#45;&gt;Node8</title>
<g id="a_edge25_Node000018_Node000008"><a xlink:title=" ">
<path fill="none" stroke="#63b8ff" d="M989.01,-175.99C960.78,-165.99 913.72,-149.3 881.81,-137.99"/>
<polygon fill="#63b8ff" stroke="#63b8ff" points="882.62,-134.56 872.02,-134.52 880.28,-141.16 882.62,-134.56"/>
</a>
</g>
</g>
<!-- Node18&#45;&gt;Node9 -->
<g id="edge26_Node000018_Node000009" class="edge">
<title>Node18&#45;&gt;Node9</title>
<g id="a_edge26_Node000018_Node000009"><a xlink:title=" ">
<path fill="none" stroke="#63b8ff" d="M969.78,-176.92C923.62,-168.64 848.38,-154.59 784,-140 779.91,-139.07 775.66,-138.06 771.41,-137.01"/>
<polygon fill="#63b8ff" stroke="#63b8ff" points="772.17,-133.59 761.62,-134.55 770.46,-140.38 772.17,-133.59"/>
</a>
</g>
</g>
<!-- Node19 -->
<g id="Node000019" class="node">
<title>Node19</title>
<g id="a_Node000019"><a xlink:title=" ">
<polygon fill="#e0e0e0" stroke="#999999" points="1066.5,-140 959.5,-140 959.5,-110 1066.5,-110 1066.5,-140"/>
<text text-anchor="start" x="967.5" y="-128" font-family="Helvetica,sans-Serif" font-size="10.00">QtLocation/private</text>
<text text-anchor="middle" x="1013" y="-117" font-family="Helvetica,sans-Serif" font-size="10.00">/qgeomaptype_p.h</text>
</a>
</g>
</g>
<!-- Node18&#45;&gt;Node19 -->
<g id="edge24_Node000018_Node000019" class="edge">
<title>Node18&#45;&gt;Node19</title>
<g id="a_edge24_Node000018_Node000019"><a xlink:title=" ">
<path fill="none" stroke="#63b8ff" d="M1013,-175.87C1013,-169.11 1013,-159.35 1013,-150.26"/>
<polygon fill="#63b8ff" stroke="#63b8ff" points="1016.5,-150.11 1013,-140.11 1009.5,-150.11 1016.5,-150.11"/>
</a>
</g>
</g>
<!-- Node20 -->
<g id="Node000020" class="node">
<title>Node20</title>
<g id="a_Node000020"><a xlink:href="QGCTileSet_8h.html" target="_top" xlink:title=" ">
<polygon fill="white" stroke="#666666" points="1165.5,-134.5 1084.5,-134.5 1084.5,-115.5 1165.5,-115.5 1165.5,-134.5"/>
<text text-anchor="middle" x="1125" y="-122.5" font-family="Helvetica,sans-Serif" font-size="10.00">QGCTileSet.h</text>
</a>
</g>
</g>
<!-- Node18&#45;&gt;Node20 -->
<g id="edge28_Node000018_Node000020" class="edge">
<title>Node18&#45;&gt;Node20</title>
<g id="a_edge28_Node000018_Node000020"><a xlink:title=" ">
<path fill="none" stroke="#63b8ff" d="M1029.53,-175.87C1047.97,-166.23 1078.04,-150.53 1099.51,-139.31"/>
<polygon fill="#63b8ff" stroke="#63b8ff" points="1101.16,-142.4 1108.41,-134.67 1097.92,-136.19 1101.16,-142.4"/>
</a>
</g>
</g>
<!-- Node21 -->
<g id="Node000021" class="node">
<title>Node21</title>
<g id="a_Node000021"><a xlink:title=" ">
<polygon fill="#e0e0e0" stroke="#999999" points="1123,-74 1015,-74 1015,-55 1123,-55 1123,-74"/>
<text text-anchor="middle" x="1069" y="-62" font-family="Helvetica,sans-Serif" font-size="10.00">QtCore/QMetaType</text>
</a>
</g>
</g>
<!-- Node20&#45;&gt;Node21 -->
<g id="edge29_Node000020_Node000021" class="edge">
<title>Node20&#45;&gt;Node21</title>
<g id="a_edge29_Node000020_Node000021"><a xlink:title=" ">
<path fill="none" stroke="#63b8ff" d="M1116.74,-115.37C1108.22,-106.47 1094.74,-92.39 1084.27,-81.45"/>
<polygon fill="#63b8ff" stroke="#63b8ff" points="1086.74,-78.97 1077.3,-74.17 1081.68,-83.81 1086.74,-78.97"/>
</a>
</g>
</g>
<!-- Node22 -->
<g id="Node000022" class="node">
<title>Node22</title>
<g id="a_Node000022"><a xlink:title=" ">
<polygon fill="#e0e0e0" stroke="#999999" points="1233,-74 1141,-74 1141,-55 1233,-55 1233,-74"/>
<text text-anchor="middle" x="1187" y="-62" font-family="Helvetica,sans-Serif" font-size="10.00">QtCore/QtTypes</text>
</a>
</g>
</g>
<!-- Node20&#45;&gt;Node22 -->
<g id="edge30_Node000020_Node000022" class="edge">
<title>Node20&#45;&gt;Node22</title>
<g id="a_edge30_Node000020_Node000022"><a xlink:title=" ">
<path fill="none" stroke="#63b8ff" d="M1134.15,-115.37C1143.67,-106.38 1158.8,-92.11 1170.43,-81.14"/>
<polygon fill="#63b8ff" stroke="#63b8ff" points="1172.94,-83.58 1177.81,-74.17 1168.14,-78.48 1172.94,-83.58"/>
</a>
</g>
</g>
<!-- Node23&#45;&gt;Node4 -->
<g id="edge33_Node000023_Node000004" class="edge">
<title>Node23&#45;&gt;Node4</title>
<g id="a_edge33_Node000023_Node000004"><a xlink:title=" ">
<path fill="none" stroke="#63b8ff" d="M1073.91,-177.01C1070.9,-176.66 1067.91,-176.32 1065,-176 892.41,-157.07 848.63,-158.58 676,-140 657.1,-137.97 636.46,-135.5 618.01,-133.22"/>
<polygon fill="#63b8ff" stroke="#63b8ff" points="618.36,-129.73 608,-131.97 617.49,-136.68 618.36,-129.73"/>
</a>
</g>
</g>
<!-- Node23&#45;&gt;Node20 -->
<g id="edge32_Node000023_Node000020" class="edge">
<title>Node23&#45;&gt;Node20</title>
<g id="a_edge32_Node000023_Node000020"><a xlink:title=" ">
<path fill="none" stroke="#63b8ff" d="M1130.97,-175.87C1130,-167.75 1128.51,-155.31 1127.26,-144.89"/>
<polygon fill="#63b8ff" stroke="#63b8ff" points="1130.7,-144.18 1126.04,-134.67 1123.75,-145.01 1130.7,-144.18"/>
</a>
</g>
</g>
<!-- Node24 -->
<g id="Node000024" class="node">
<title>Node24</title>
<g id="a_Node000024"><a xlink:title=" ">
<polygon fill="#e0e0e0" stroke="#999999" points="1449,-134.5 1315,-134.5 1315,-115.5 1449,-115.5 1449,-134.5"/>
<text text-anchor="middle" x="1382" y="-122.5" font-family="Helvetica,sans-Serif" font-size="10.00">QtCore/QByteArrayView</text>
</a>
</g>
</g>
<!-- Node23&#45;&gt;Node24 -->
<g id="edge34_Node000023_Node000024" class="edge">
<title>Node23&#45;&gt;Node24</title>
<g id="a_edge34_Node000023_Node000024"><a xlink:title=" ">
<path fill="none" stroke="#63b8ff" d="M1168.35,-175.99C1212.6,-165.64 1287.39,-148.14 1335.71,-136.83"/>
<polygon fill="#63b8ff" stroke="#63b8ff" points="1336.66,-140.2 1345.6,-134.52 1335.07,-133.39 1336.66,-140.2"/>
</a>
</g>
</g>
<!-- Node25 -->
<g id="Node000025" class="node">
<title>Node25</title>
<g id="a_Node000025"><a xlink:title=" ">
<polygon fill="#e0e0e0" stroke="#999999" points="1296.5,-134.5 1183.5,-134.5 1183.5,-115.5 1296.5,-115.5 1296.5,-134.5"/>
<text text-anchor="middle" x="1240" y="-122.5" font-family="Helvetica,sans-Serif" font-size="10.00">QtCore/QStringView</text>
</a>
</g>
</g>
<!-- Node23&#45;&gt;Node25 -->
<g id="edge35_Node000023_Node000025" class="edge">
<title>Node23&#45;&gt;Node25</title>
<g id="a_edge35_Node000023_Node000025"><a xlink:title=" ">
<path fill="none" stroke="#63b8ff" d="M1147.94,-175.87C1165.64,-166.28 1194.46,-150.67 1215.14,-139.47"/>
<polygon fill="#63b8ff" stroke="#63b8ff" points="1216.87,-142.51 1224,-134.67 1213.54,-136.35 1216.87,-142.51"/>
</a>
</g>
</g>
</g>
</svg>
