<?xml version="1.0" encoding="UTF-8" standalone="no"?>
<!DOCTYPE svg PUBLIC "-//W3C//DTD SVG 1.1//EN"
 "http://www.w3.org/Graphics/SVG/1.1/DTD/svg11.dtd">
<!-- Generated by graphviz version 2.43.0 (0)
 -->
<!-- Title: src/Utilities/StateMachine/States/WaitForSignalState.cc Pages: 1 -->
<svg width="380pt" height="313pt"
 viewBox="0.00 0.00 380.00 313.00" xmlns="http://www.w3.org/2000/svg" xmlns:xlink="http://www.w3.org/1999/xlink">
<g id="graph0" class="graph" transform="scale(1 1) rotate(0) translate(4 309)">
<title>src/Utilities/StateMachine/States/WaitForSignalState.cc</title>
<!-- Node1 -->
<g id="Node000001" class="node">
<title>Node1</title>
<g id="a_Node000001"><a xlink:title=" ">
<polygon fill="#999999" stroke="#666666" points="296,-305 137,-305 137,-275 296,-275 296,-305"/>
<text text-anchor="start" x="145" y="-293" font-family="Helvetica,sans-Serif" font-size="10.00">src/Utilities/StateMachine</text>
<text text-anchor="middle" x="216.5" y="-282" font-family="Helvetica,sans-Serif" font-size="10.00">/States/WaitForSignalState.cc</text>
</a>
</g>
</g>
<!-- Node2 -->
<g id="Node000002" class="node">
<title>Node2</title>
<g id="a_Node000002"><a xlink:href="WaitForSignalState_8h.html" target="_top" xlink:title=" ">
<polygon fill="white" stroke="#666666" points="205.5,-239 87.5,-239 87.5,-220 205.5,-220 205.5,-239"/>
<text text-anchor="middle" x="146.5" y="-227" font-family="Helvetica,sans-Serif" font-size="10.00">WaitForSignalState.h</text>
</a>
</g>
</g>
<!-- Node1&#45;&gt;Node2 -->
<g id="edge1_Node000001_Node000002" class="edge">
<title>Node1&#45;&gt;Node2</title>
<g id="a_edge1_Node000001_Node000002"><a xlink:title=" ">
<path fill="none" stroke="#63b8ff" d="M199.55,-274.84C189.08,-266.09 175.64,-254.85 164.91,-245.88"/>
<polygon fill="#63b8ff" stroke="#63b8ff" points="166.91,-242.99 156.99,-239.27 162.42,-248.36 166.91,-242.99"/>
</a>
</g>
</g>
<!-- Node12 -->
<g id="Node000012" class="node">
<title>Node12</title>
<g id="a_Node000012"><a xlink:href="QGCLoggingCategory_8h.html" target="_top" xlink:title=" ">
<polygon fill="white" stroke="#666666" points="366.5,-239 238.5,-239 238.5,-220 366.5,-220 366.5,-239"/>
<text text-anchor="middle" x="302.5" y="-227" font-family="Helvetica,sans-Serif" font-size="10.00">QGCLoggingCategory.h</text>
</a>
</g>
</g>
<!-- Node1&#45;&gt;Node12 -->
<g id="edge12_Node000001_Node000012" class="edge">
<title>Node1&#45;&gt;Node12</title>
<g id="a_edge12_Node000001_Node000012"><a xlink:title=" ">
<path fill="none" stroke="#63b8ff" d="M237.32,-274.84C250.65,-265.77 267.89,-254.04 281.29,-244.92"/>
<polygon fill="#63b8ff" stroke="#63b8ff" points="283.57,-247.61 289.87,-239.09 279.63,-241.83 283.57,-247.61"/>
</a>
</g>
</g>
<!-- Node3 -->
<g id="Node000003" class="node">
<title>Node3</title>
<g id="a_Node000003"><a xlink:href="WaitStateBase_8h.html" target="_top" xlink:title=" ">
<polygon fill="white" stroke="#666666" points="290,-184 193,-184 193,-165 290,-165 290,-184"/>
<text text-anchor="middle" x="241.5" y="-172" font-family="Helvetica,sans-Serif" font-size="10.00">WaitStateBase.h</text>
</a>
</g>
</g>
<!-- Node2&#45;&gt;Node3 -->
<g id="edge2_Node000002_Node000003" class="edge">
<title>Node2&#45;&gt;Node3</title>
<g id="a_edge2_Node000002_Node000003"><a xlink:title=" ">
<path fill="none" stroke="#63b8ff" d="M161.76,-219.98C176.63,-211.69 199.48,-198.94 216.92,-189.22"/>
<polygon fill="#63b8ff" stroke="#63b8ff" points="218.93,-192.1 225.96,-184.17 215.52,-185.99 218.93,-192.1"/>
</a>
</g>
</g>
<!-- Node8 -->
<g id="Node000008" class="node">
<title>Node8</title>
<g id="a_Node000008"><a xlink:title=" ">
<polygon fill="#e0e0e0" stroke="#999999" points="65,-19 0,-19 0,0 65,0 65,-19"/>
<text text-anchor="middle" x="32.5" y="-7" font-family="Helvetica,sans-Serif" font-size="10.00">functional</text>
</a>
</g>
</g>
<!-- Node2&#45;&gt;Node8 -->
<g id="edge11_Node000002_Node000008" class="edge">
<title>Node2&#45;&gt;Node8</title>
<g id="a_edge11_Node000002_Node000008"><a xlink:title=" ">
<path fill="none" stroke="#63b8ff" d="M104.92,-219.96C84.59,-213.55 61.71,-202.58 48.5,-184 14.95,-136.83 22.62,-63.23 28.63,-29.07"/>
<polygon fill="#63b8ff" stroke="#63b8ff" points="32.1,-29.58 30.54,-19.1 25.22,-28.26 32.1,-29.58"/>
</a>
</g>
</g>
<!-- Node11 -->
<g id="Node000011" class="node">
<title>Node11</title>
<g id="a_Node000011"><a xlink:title=" ">
<polygon fill="#e0e0e0" stroke="#999999" points="175,-184 58,-184 58,-165 175,-165 175,-184"/>
<text text-anchor="middle" x="116.5" y="-172" font-family="Helvetica,sans-Serif" font-size="10.00">QtCore/QMetaObject</text>
</a>
</g>
</g>
<!-- Node2&#45;&gt;Node11 -->
<g id="edge10_Node000002_Node000011" class="edge">
<title>Node2&#45;&gt;Node11</title>
<g id="a_edge10_Node000002_Node000011"><a xlink:title=" ">
<path fill="none" stroke="#63b8ff" d="M141.55,-219.75C137.44,-212.49 131.47,-201.95 126.4,-192.98"/>
<polygon fill="#63b8ff" stroke="#63b8ff" points="129.33,-191.07 121.36,-184.09 123.24,-194.52 129.33,-191.07"/>
</a>
</g>
</g>
<!-- Node4 -->
<g id="Node000004" class="node">
<title>Node4</title>
<g id="a_Node000004"><a xlink:href="QGCState_8h.html" target="_top" xlink:title=" ">
<polygon fill="white" stroke="#666666" points="181,-129 108,-129 108,-110 181,-110 181,-129"/>
<text text-anchor="middle" x="144.5" y="-117" font-family="Helvetica,sans-Serif" font-size="10.00">QGCState.h</text>
</a>
</g>
</g>
<!-- Node3&#45;&gt;Node4 -->
<g id="edge3_Node000003_Node000004" class="edge">
<title>Node3&#45;&gt;Node4</title>
<g id="a_edge3_Node000003_Node000004"><a xlink:title=" ">
<path fill="none" stroke="#63b8ff" d="M225.92,-164.98C210.73,-156.69 187.4,-143.94 169.6,-134.22"/>
<polygon fill="#63b8ff" stroke="#63b8ff" points="170.82,-130.89 160.37,-129.17 167.47,-137.04 170.82,-130.89"/>
</a>
</g>
</g>
<!-- Node10 -->
<g id="Node000010" class="node">
<title>Node10</title>
<g id="a_Node000010"><a xlink:title=" ">
<polygon fill="#e0e0e0" stroke="#999999" points="288,-129 199,-129 199,-110 288,-110 288,-129"/>
<text text-anchor="middle" x="243.5" y="-117" font-family="Helvetica,sans-Serif" font-size="10.00">QtCore/QTimer</text>
</a>
</g>
</g>
<!-- Node3&#45;&gt;Node10 -->
<g id="edge9_Node000003_Node000010" class="edge">
<title>Node3&#45;&gt;Node10</title>
<g id="a_edge9_Node000003_Node000010"><a xlink:title=" ">
<path fill="none" stroke="#63b8ff" d="M241.83,-164.75C242.09,-157.8 242.47,-147.85 242.8,-139.13"/>
<polygon fill="#63b8ff" stroke="#63b8ff" points="246.3,-139.21 243.18,-129.09 239.3,-138.95 246.3,-139.21"/>
</a>
</g>
</g>
<!-- Node5 -->
<g id="Node000005" class="node">
<title>Node5</title>
<g id="a_Node000005"><a xlink:href="QGCAbstractState_8h.html" target="_top" xlink:title=" ">
<polygon fill="white" stroke="#666666" points="196,-74 83,-74 83,-55 196,-55 196,-74"/>
<text text-anchor="middle" x="139.5" y="-62" font-family="Helvetica,sans-Serif" font-size="10.00">QGCAbstractState.h</text>
</a>
</g>
</g>
<!-- Node4&#45;&gt;Node5 -->
<g id="edge4_Node000004_Node000005" class="edge">
<title>Node4&#45;&gt;Node5</title>
<g id="a_edge4_Node000004_Node000005"><a xlink:title=" ">
<path fill="none" stroke="#63b8ff" d="M143.67,-109.75C143.02,-102.8 142.08,-92.85 141.26,-84.13"/>
<polygon fill="#63b8ff" stroke="#63b8ff" points="144.73,-83.72 140.31,-74.09 137.77,-84.37 144.73,-83.72"/>
</a>
</g>
</g>
<!-- Node9 -->
<g id="Node000009" class="node">
<title>Node9</title>
<g id="a_Node000009"><a xlink:title=" ">
<polygon fill="#e0e0e0" stroke="#999999" points="372,-74 229,-74 229,-55 372,-55 372,-74"/>
<text text-anchor="middle" x="300.5" y="-62" font-family="Helvetica,sans-Serif" font-size="10.00">QtCore/QLoggingCategory</text>
</a>
</g>
</g>
<!-- Node4&#45;&gt;Node9 -->
<g id="edge8_Node000004_Node000009" class="edge">
<title>Node4&#45;&gt;Node9</title>
<g id="a_edge8_Node000004_Node000009"><a xlink:title=" ">
<path fill="none" stroke="#63b8ff" d="M169.56,-109.98C195.53,-101.16 236.31,-87.31 265.46,-77.41"/>
<polygon fill="#63b8ff" stroke="#63b8ff" points="266.9,-80.61 275.24,-74.08 264.65,-73.99 266.9,-80.61"/>
</a>
</g>
</g>
<!-- Node6 -->
<g id="Node000006" class="node">
<title>Node6</title>
<g id="a_Node000006"><a xlink:title=" ">
<polygon fill="#e0e0e0" stroke="#999999" points="330,-19 199,-19 199,0 330,0 330,-19"/>
<text text-anchor="middle" x="264.5" y="-7" font-family="Helvetica,sans-Serif" font-size="10.00">QtStateMachine/QState</text>
</a>
</g>
</g>
<!-- Node5&#45;&gt;Node6 -->
<g id="edge5_Node000005_Node000006" class="edge">
<title>Node5&#45;&gt;Node6</title>
<g id="a_edge5_Node000005_Node000006"><a xlink:title=" ">
<path fill="none" stroke="#63b8ff" d="M159.58,-54.98C179.87,-46.38 211.46,-32.99 234.67,-23.15"/>
<polygon fill="#63b8ff" stroke="#63b8ff" points="236.21,-26.3 244.05,-19.17 233.48,-19.85 236.21,-26.3"/>
</a>
</g>
</g>
<!-- Node7 -->
<g id="Node000007" class="node">
<title>Node7</title>
<g id="a_Node000007"><a xlink:title=" ">
<polygon fill="#e0e0e0" stroke="#999999" points="181,-19 92,-19 92,0 181,0 181,-19"/>
<text text-anchor="middle" x="136.5" y="-7" font-family="Helvetica,sans-Serif" font-size="10.00">QtCore/QString</text>
</a>
</g>
</g>
<!-- Node5&#45;&gt;Node7 -->
<g id="edge6_Node000005_Node000007" class="edge">
<title>Node5&#45;&gt;Node7</title>
<g id="a_edge6_Node000005_Node000007"><a xlink:title=" ">
<path fill="none" stroke="#63b8ff" d="M139,-54.75C138.61,-47.8 138.05,-37.85 137.55,-29.13"/>
<polygon fill="#63b8ff" stroke="#63b8ff" points="141.05,-28.88 136.99,-19.09 134.06,-29.27 141.05,-28.88"/>
</a>
</g>
</g>
<!-- Node5&#45;&gt;Node8 -->
<g id="edge7_Node000005_Node000008" class="edge">
<title>Node5&#45;&gt;Node8</title>
<g id="a_edge7_Node000005_Node000008"><a xlink:title=" ">
<path fill="none" stroke="#63b8ff" d="M122.31,-54.98C105.25,-46.54 78.87,-33.47 59.1,-23.68"/>
<polygon fill="#63b8ff" stroke="#63b8ff" points="60.52,-20.47 50,-19.17 57.41,-26.75 60.52,-20.47"/>
</a>
</g>
</g>
<!-- Node12&#45;&gt;Node9 -->
<g id="edge13_Node000012_Node000009" class="edge">
<title>Node12&#45;&gt;Node9</title>
<g id="a_edge13_Node000012_Node000009"><a xlink:title=" ">
<path fill="none" stroke="#63b8ff" d="M302.39,-219.74C302.08,-194.31 301.17,-120.08 300.74,-84.69"/>
<polygon fill="#63b8ff" stroke="#63b8ff" points="304.23,-84.26 300.61,-74.31 297.23,-84.35 304.23,-84.26"/>
</a>
</g>
</g>
</g>
</svg>
